<?xml version="1.0" encoding="UTF-8" standalone="no"?>
<svg
   xmlns:dc="http://purl.org/dc/elements/1.1/"
   xmlns:cc="http://creativecommons.org/ns#"
   xmlns:rdf="http://www.w3.org/1999/02/22-rdf-syntax-ns#"
   xmlns:svg="http://www.w3.org/2000/svg"
   xmlns="http://www.w3.org/2000/svg"
   xmlns:sodipodi="http://sodipodi.sourceforge.net/DTD/sodipodi-0.dtd"
   xmlns:inkscape="http://www.inkscape.org/namespaces/inkscape"
   width="22"
   height="22"
   version="1.1"
   id="svg11"
   sodipodi:docname="Ru.svg"
   inkscape:version="0.92.1 r">
  <metadata
     id="metadata15">
    <rdf:RDF>
      <cc:Work
         rdf:about="">
        <dc:format>image/svg+xml</dc:format>
        <dc:type
           rdf:resource="http://purl.org/dc/dcmitype/StillImage" />
        <dc:title></dc:title>
      </cc:Work>
    </rdf:RDF>
  </metadata>
  <sodipodi:namedview
     pagecolor="#ffffff"
     bordercolor="#666666"
     borderopacity="1"
     objecttolerance="10"
     gridtolerance="10"
     guidetolerance="10"
     inkscape:pageopacity="0"
     inkscape:pageshadow="2"
     inkscape:window-width="749"
     inkscape:window-height="480"
     id="namedview13"
     showgrid="false"
     inkscape:zoom="10.727273"
     inkscape:cx="11"
     inkscape:cy="11"
     inkscape:window-x="0"
     inkscape:window-y="0"
     inkscape:window-maximized="0"
     inkscape:current-layer="svg11" />
  <defs
     id="defs3">
    <style
       id="current-color-scheme"
       type="text/css">
   .ColorScheme-Text { color:#d3dae3; } .ColorScheme-Highlight { color:#5294e2; }
  </style>
  </defs>
  <rect
     style="opacity:0"
     width="22"
     height="22"
     x="0"
     y="0"
     id="rect5" />
  <path
     style="fill:none;stroke:currentColor;stroke-width:1.99999976;stroke-linecap:round"
     class="ColorScheme-Text"
     d="m 9.00315,14.999823 -2.0000011,-3 m -2.0000012,-1.000003 1.9999823,-3e-6 c 0.4238362,-1e-6 0.7290481,4.54e-4 1.00001,4.54e-4 0.999999,0 0.999999,0 0.999999,-1 0,-0.2567202 1.5e-5,-0.5997724 1.1e-5,-1.0004476 l -1.1e-5,-0.9995519 c 0,-1 0,-1 -0.999999,-1 -0.2245039,0 -0.5441121,0.00944 -0.8745184,0.00719 -1.1254903,-0.00765 -2.1254739,-0.00756 -2.1254739,-0.00756 M 5.003246,15 l 0,-8.0000002"
     id="path7" />
  <path
     style="fill:none;stroke:currentColor;stroke-width:1.99999976;stroke-linecap:round;stroke-linejoin:bevel"
     class="ColorScheme-Text"
     d="M 17.000004,7.0048001 17,13.0048 c 0,1.000449 -4e-6,2.000449 -1.000006,2.000449 -0.395449,0 -0.610938,0.0096 -0.999992,-4.48e-4 -0.383856,0.0015 -7e-6,4.48e-4 -1.000006,4.48e-4 -1.000002,0 -0.999995,-1 -0.999995,-2.000449 l 4e-6,-5.9999999"
     id="path9" />
</svg>
