<svg xmlns="http://www.w3.org/2000/svg" xmlns:xlink="http://www.w3.org/1999/xlink" viewBox="0 0 32 32"><defs><linearGradient gradientTransform="matrix(-2.54182 0 0 2.58531 185.47-277.37)" id="1" x1="67.894" y1="108.69" x2="67.854" y2="113.11" gradientUnits="userSpaceOnUse"><stop stop-color="#f9f9f9"/><stop offset="1" stop-color="#999"/></linearGradient></defs><rect width="28.2" height="28.2" x="1.898" y="1.898" fill="#8e8e8e" fill-rule="evenodd" rx="5.575"/><g stroke-width=".06"><path d="m19.527 27.29c0-.306-.205-.734-.485-1.015-.331-.331-.569-.414-1.19-.414h-.438v-1.678-1.678l.377-.077c2.395-.489 4.385-2.254 5.173-4.588.234-.692.318-1.23.35-2.246.03-.919.022-1.022-.092-1.281-.31-.7-1.271-.717-1.584-.027-.097.214-.116.398-.117 1.138-.002 1.278-.244 2.176-.822 3.047-1.358 2.045-3.88 2.841-6.186 1.952-.841-.324-1.707-1.01-2.259-1.776-.673-.941-.924-1.787-.98-3.305-.041-1.122-.09-1.283-.448-1.468-.279-.144-.788-.094-.997.099-.276.255-.324.461-.324 1.404 0 1.677.365 2.926 1.227 4.205.37.548 1.134 1.325 1.681 1.71.775.544 1.948 1.044 2.722 1.16l.287.043v1.684 1.684l-.498.001c-.55.002-.853.105-1.154.394-.219.21-.46.722-.46.978v.196h3.109 3.109z" fill="#4d4d4d"/><g fill="#ececec"><path d="m17.323 19.12c.652-.17 1.11-.439 1.637-.961.846-.838 1.069-1.439 1.075-2.901l.004-.966-3.638-.016-3.638-.016.001.831c.001.495.037.999.089 1.248.29 1.368 1.288 2.415 2.652 2.783.42.113 1.376.112 1.816-.003"/><path d="m20.06 13.526l-.019-.257-3.638-.016-3.638-.016v.272.272h3.656 3.656z"/><path d="m20.06 12.469l.019-.257h-3.656-3.656v.272.272l3.638-.016 3.638-.016z"/><path d="m20.06 11.443l.019-.257h-3.656-3.656v.231c0 .127.018.25.041.272.022.022 1.659.034 3.638.025l3.597-.016z"/><path d="m20.07 10.398v-.238l-3.426-.005c-1.885-.003-3.494-.013-3.577-.022-.245-.027-.302.025-.302.274v.235l3.608.016c1.984.009 3.628.007 3.653-.003.025-.01.045-.126.045-.257"/></g><path d="m20.05 9.1c-.052-.68-.129-.985-.384-1.526-.264-.561-.953-1.276-1.507-1.566-2.391-1.249-5.225.344-5.377 3.02l-.033.589h3.671 3.671z" fill="#fff"/></g>

   xmlns:dc="http://purl.org/dc/elements/1.1/"
   xmlns:cc="http://creativecommons.org/ns#"
   xmlns:rdf="http://www.w3.org/1999/02/22-rdf-syntax-ns#"
   xmlns:svg="http://www.w3.org/2000/svg"
   xmlns="http://www.w3.org/2000/svg"
   xmlns:xlink="http://www.w3.org/1999/xlink"
   xmlns:sodipodi="http://sodipodi.sourceforge.net/DTD/sodipodi-0.dtd"
   xmlns:inkscape="http://www.inkscape.org/namespaces/inkscape"
   height="32"
   width="32"
   version="1"
   id="svg8"
   sodipodi:docname="snow-top-3.svg"
   inkscape:version="0.92.1 r"&gt;
  <path fill="#00000f" fill-opacity="0" d="m0 0h32v32h-32z" id="0"/><path d="m7.354 6.111c-2.995 2.684-1.381 7.817-3.674 8.291-2.031.613-3.541-1.385-3.66-4.503-.35-8.627 3.911-9.427 6.879-9.524 28.342-2.047 1.762 4.92.455 5.736" fill="url(#1)"/><use xlink:href="#0"/></svg>