<svg xmlns="http://www.w3.org/2000/svg" xmlns:xlink="http://www.w3.org/1999/xlink" viewBox="0 0 32 32"><defs><linearGradient gradientTransform="matrix(-2.54182 0 0 2.58531 185.47-277.37)" id="1" x1="67.894" y1="108.69" x2="67.854" y2="113.11" gradientUnits="userSpaceOnUse"><stop stop-color="#f9f9f9"/><stop offset="1" stop-color="#999"/></linearGradient></defs><g fill-rule="evenodd"><g fill="#5b5b5b"><rect width="28.2" height="28.2" x="1.898" y="1.898" rx="5.575"/><path d="m7.27 1.939c-2.988.112-5.371 2.517-5.371 5.533v17.05c0 3.089 2.486 5.574 5.574 5.574h17.05c3.089 0 5.576-2.486 5.576-5.574v-17.05c0-3.089-2.488-5.574-5.576-5.574h-13.256v1.563c0 .277-.112.526-.293.707-.181.181-.43.293-.707.293h-2c-.277 0-.528-.112-.709-.293-.181-.181-.291-.43-.291-.707z"/></g><path d="m7.27 1.939v1.521c0 .277.11.526.291.707.181.181.432.293.709.293h2c.277 0 .526-.112.707-.293.181-.181.293-.43.293-.707v-1.563h-3.797c-.072 0-.132.038-.203.041" fill="#373737"/></g><g fill="#373737"><circle cx="25.862" cy="7.298" r="1"/><circle cx="16" cy="16" r="8"/></g><circle cx="16" cy="-16" r="6" transform="scale(1-1)" fill="#009587"/><circle cx="16" cy="16" r="4" fill="#66bfb7"/>

   xmlns:dc="http://purl.org/dc/elements/1.1/"
   xmlns:cc="http://creativecommons.org/ns#"
   xmlns:rdf="http://www.w3.org/1999/02/22-rdf-syntax-ns#"
   xmlns:svg="http://www.w3.org/2000/svg"
   xmlns="http://www.w3.org/2000/svg"
   xmlns:xlink="http://www.w3.org/1999/xlink"
   xmlns:sodipodi="http://sodipodi.sourceforge.net/DTD/sodipodi-0.dtd"
   xmlns:inkscape="http://www.inkscape.org/namespaces/inkscape"
   height="32"
   width="32"
   version="1"
   id="svg8"
   sodipodi:docname="snow-top-3.svg"
   inkscape:version="0.92.1 r"&gt;
  <path fill="#00000f" fill-opacity="0" d="m0 0h32v32h-32z" id="0"/><path d="m7.354 6.111c-2.995 2.684-1.381 7.817-3.674 8.291-2.031.613-3.541-1.385-3.66-4.503-.35-8.627 3.911-9.427 6.879-9.524 28.342-2.047 1.762 4.92.455 5.736" fill="url(#1)"/><use xlink:href="#0"/></svg>