<svg xmlns="http://www.w3.org/2000/svg" xmlns:xlink="http://www.w3.org/1999/xlink" viewBox="0 0 32 32"><defs><linearGradient gradientTransform="matrix(-2.54182 0 0 2.58531 185.47-277.37)" id="1" x1="67.894" y1="108.69" x2="67.854" y2="113.11" gradientUnits="userSpaceOnUse"><stop stop-color="#f9f9f9"/><stop offset="1" stop-color="#999"/></linearGradient></defs><rect width="28.2" height="28.2" x="1.898" y="1.898" fill="#8e8e8e" fill-rule="evenodd" rx="5.575"/><g transform="matrix(.72881 0 0 .72881 4.339 4.339)"><g fill="#b7b7b7"><g transform="matrix(0 1-1 0 0 0)"><path d="m20-29h1v26h-1z"/><path d="m23-29h1v26h-1z"/><path d="m26-29h1v26h-1z"/><path d="m11-29h1v26h-1z"/><path d="m14-29h1v26h-1z"/><path d="m17-29h1v26h-1z"/><path d="m8-29h1v26h-1z"/><path d="m5-29h1v26h-1z"/></g><g transform="scale(-1-1)"><path d="m-12-29h1v26h-1z"/><path d="m-9-29h1v26h-1z"/><path d="m-6-29h1v26h-1z"/><path d="m-21-29h1v26h-1z"/><path d="m-18-29h1v26h-1z"/><path d="m-15-29h1v26h-1z"/><path d="m-24-29h1v26h-1z"/><path d="m-27-29h1v26h-1z"/></g><rect transform="matrix(0-1-1 0 0 0)" rx="1.25" y="-28" x="-28" height="24" width="24"/></g><path opacity=".5" d="m7 11h6v1h-6z"/><path opacity=".5" d="m14 11h3v1h-3z"/><path opacity=".5" d="m18 11h7v1h-7z"/><path opacity=".5" d="m7 15h8v1h-8z"/><path opacity=".5" d="m16 15h8v1h-8z"/><path opacity=".5" d="m7 19h3v1h-3z"/><path opacity=".5" d="m11 19h3v1h-3z"/><path opacity=".5" d="m15 19h6v1h-6z"/></g>

   xmlns:dc="http://purl.org/dc/elements/1.1/"
   xmlns:cc="http://creativecommons.org/ns#"
   xmlns:rdf="http://www.w3.org/1999/02/22-rdf-syntax-ns#"
   xmlns:svg="http://www.w3.org/2000/svg"
   xmlns="http://www.w3.org/2000/svg"
   xmlns:xlink="http://www.w3.org/1999/xlink"
   xmlns:sodipodi="http://sodipodi.sourceforge.net/DTD/sodipodi-0.dtd"
   xmlns:inkscape="http://www.inkscape.org/namespaces/inkscape"
   height="32"
   width="32"
   version="1"
   id="svg8"
   sodipodi:docname="snow-top-3.svg"
   inkscape:version="0.92.1 r"&gt;
  <path fill="#00000f" fill-opacity="0" d="m0 0h32v32h-32z" id="0"/><path d="m7.354 6.111c-2.995 2.684-1.381 7.817-3.674 8.291-2.031.613-3.541-1.385-3.66-4.503-.35-8.627 3.911-9.427 6.879-9.524 28.342-2.047 1.762 4.92.455 5.736" fill="url(#1)"/><use xlink:href="#0"/></svg>