<svg xmlns="http://www.w3.org/2000/svg" xmlns:xlink="http://www.w3.org/1999/xlink" viewBox="0 0 32 32"><defs><linearGradient gradientTransform="matrix(-2.54182 0 0 2.58531 185.47-277.37)" id="1" x1="67.894" y1="108.69" x2="67.854" y2="113.11" gradientUnits="userSpaceOnUse"><stop stop-color="#f9f9f9"/><stop offset="1" stop-color="#999"/></linearGradient></defs><path d="m7.473 1.898c-3.089 0-5.574 2.486-5.574 5.574v8.916h28.2v-8.916c0-3.089-2.486-5.574-5.574-5.574h-17.05" fill="#8e8e8e" fill-rule="evenodd"/><g stroke-width=".635"><path fill="#e6e6e6" d="m7.108 6.797h17.79v10.657h-17.79z"/><g fill="#808080"><path d="m8.887 11.06h4.447v3.197h-4.447z"/><path d="m18.671 11.06h4.447v3.197h-4.447z"/></g></g><path d="m30.1 16.389h-28.2v8.139c0 3.089 2.486 5.574 5.574 5.574h17.05c3.089 0 5.574-2.486 5.574-5.574v-8.139" fill="#4d4d4d" fill-rule="evenodd"/><g fill="#808080" stroke-width=".635"><rect width="17.05" height="2.131" x="7.477" y="20.651" rx="1.066"/><rect width="12.789" height="2.131" x="9.608" y="24.914" rx="1.066"/></g>

   xmlns:dc="http://purl.org/dc/elements/1.1/"
   xmlns:cc="http://creativecommons.org/ns#"
   xmlns:rdf="http://www.w3.org/1999/02/22-rdf-syntax-ns#"
   xmlns:svg="http://www.w3.org/2000/svg"
   xmlns="http://www.w3.org/2000/svg"
   xmlns:xlink="http://www.w3.org/1999/xlink"
   xmlns:sodipodi="http://sodipodi.sourceforge.net/DTD/sodipodi-0.dtd"
   xmlns:inkscape="http://www.inkscape.org/namespaces/inkscape"
   height="32"
   width="32"
   version="1"
   id="svg8"
   sodipodi:docname="snow-top-3.svg"
   inkscape:version="0.92.1 r"&gt;
  <path fill="#00000f" fill-opacity="0" d="m0 0h32v32h-32z" id="0"/><path d="m7.354 6.111c-2.995 2.684-1.381 7.817-3.674 8.291-2.031.613-3.541-1.385-3.66-4.503-.35-8.627 3.911-9.427 6.879-9.524 28.342-2.047 1.762 4.92.455 5.736" fill="url(#1)"/><use xlink:href="#0"/></svg>