<svg xmlns="http://www.w3.org/2000/svg" xmlns:xlink="http://www.w3.org/1999/xlink" viewBox="0 0 32 32"><defs><linearGradient gradientTransform="matrix(-2.54182 0 0 2.58531 185.47-277.37)" id="1" x1="67.894" y1="108.69" x2="67.854" y2="113.11" gradientUnits="userSpaceOnUse"><stop stop-color="#f9f9f9"/><stop offset="1" stop-color="#999"/></linearGradient></defs><rect width="28.2" height="28.2" x="1.898" y="1.898" fill="#8e8e8e" fill-rule="evenodd" rx="5.575"/><g transform="translate(.019-.031)" fill="#4d4d4d"><path d="m14 20h4v1.5h-4z"/><path d="m14 22.5h4v1.5h-4z"/><path d="M16 12A3.5 3.5 0 0 0 12.5 15.5 3.5 3.5 0 0 0 16 19 3.5 3.5 0 0 0 19.5 15.5 3.5 3.5 0 0 0 16 12m0 2A1.5 1.5 0 0 1 17.5 15.5 1.5 1.5 0 0 1 16 17 1.5 1.5 0 0 1 14.5 15.5 1.5 1.5 0 0 1 16 14"/><path transform="matrix(-.70711-.70711.70711-.70711 0 0)" d="m-24.25 4.85h4v4h-4z"/><g transform="matrix(-.70711.70711-.70711-.70711 0 0)"><path d="m-2.35-17.75h4v1.5h-4z"/><path d="m-2.35-15.25h4v1.5h-4z"/></g></g>

   xmlns:dc="http://purl.org/dc/elements/1.1/"
   xmlns:cc="http://creativecommons.org/ns#"
   xmlns:rdf="http://www.w3.org/1999/02/22-rdf-syntax-ns#"
   xmlns:svg="http://www.w3.org/2000/svg"
   xmlns="http://www.w3.org/2000/svg"
   xmlns:xlink="http://www.w3.org/1999/xlink"
   xmlns:sodipodi="http://sodipodi.sourceforge.net/DTD/sodipodi-0.dtd"
   xmlns:inkscape="http://www.inkscape.org/namespaces/inkscape"
   height="32"
   width="32"
   version="1"
   id="svg8"
   sodipodi:docname="snow-top-3.svg"
   inkscape:version="0.92.1 r"&gt;
  <path fill="#00000f" fill-opacity="0" d="m0 0h32v32h-32z" id="0"/><path d="m7.354 6.111c-2.995 2.684-1.381 7.817-3.674 8.291-2.031.613-3.541-1.385-3.66-4.503-.35-8.627 3.911-9.427 6.879-9.524 28.342-2.047 1.762 4.92.455 5.736" fill="url(#1)"/><use xlink:href="#0"/></svg>