<svg xmlns="http://www.w3.org/2000/svg" xmlns:xlink="http://www.w3.org/1999/xlink" viewBox="0 0 32 32"><defs><linearGradient gradientTransform="matrix(-2.54182 0 0 2.58531 185.47-277.37)" id="1" x1="67.894" y1="108.69" x2="67.854" y2="113.11" gradientUnits="userSpaceOnUse"><stop stop-color="#f9f9f9"/><stop offset="1" stop-color="#999"/></linearGradient></defs><g fill="#5b5b5b"><rect y="1.898" x="1.898" height="28.2" width="28.2" fill-rule="evenodd" rx="5.575"/><rect rx="1.1" y="8.143" x="5" height="15.714" width="22" stroke-width=".786"/></g><g stroke-width=".786"><g fill="#ccc"><circle r="1.179" cy="11.679" cx="7.75"/><circle r="1.179" cy="11.679" cx="11.679"/><circle r="1.179" cy="11.679" cx="15.607"/><circle r="1.179" cy="11.679" cx="19.536"/></g><circle r="1.179" cy="11.679" cx="23.464" fill="#ff8834"/><g fill="#ccc"><circle r="1.179" cy="16.393" cx="10.11"/><circle r="1.179" cy="16.393" cx="14.04"/></g><circle r="1.179" cy="16.393" cx="17.964" fill="#ff8834"/><g fill="#ccc"><circle r="1.179" cy="16.393" cx="21.893"/><rect rx=".589" y="19.929" x="8.143" height="2.357" width="15.714"/></g></g>

   xmlns:dc="http://purl.org/dc/elements/1.1/"
   xmlns:cc="http://creativecommons.org/ns#"
   xmlns:rdf="http://www.w3.org/1999/02/22-rdf-syntax-ns#"
   xmlns:svg="http://www.w3.org/2000/svg"
   xmlns="http://www.w3.org/2000/svg"
   xmlns:xlink="http://www.w3.org/1999/xlink"
   xmlns:sodipodi="http://sodipodi.sourceforge.net/DTD/sodipodi-0.dtd"
   xmlns:inkscape="http://www.inkscape.org/namespaces/inkscape"
   height="32"
   width="32"
   version="1"
   id="svg8"
   sodipodi:docname="snow-top-3.svg"
   inkscape:version="0.92.1 r"&gt;
  <path fill="#00000f" fill-opacity="0" d="m0 0h32v32h-32z" id="0"/><path d="m7.354 6.111c-2.995 2.684-1.381 7.817-3.674 8.291-2.031.613-3.541-1.385-3.66-4.503-.35-8.627 3.911-9.427 6.879-9.524 28.342-2.047 1.762 4.92.455 5.736" fill="url(#1)"/><use xlink:href="#0"/></svg>