<svg xmlns="http://www.w3.org/2000/svg" xmlns:xlink="http://www.w3.org/1999/xlink" viewBox="0 0 32 32"><defs><linearGradient gradientTransform="matrix(-2.54182 0 0 2.58531 185.47-277.37)" id="1" x1="67.894" y1="108.69" x2="67.854" y2="113.11" gradientUnits="userSpaceOnUse"><stop stop-color="#f9f9f9"/><stop offset="1" stop-color="#999"/></linearGradient></defs><rect width="28.2" height="28.2" x="1.898" y="1.898" fill="#8e8e8e" fill-rule="evenodd" rx="5.575"/><g transform="matrix(.62335 0 0 .62335 6.03 6.03)"><path d="m16 2c-.012 0-.025.002-.037.002h-.004c-4.486.028-8.959 4.677-8.959 8.166v11.535c0 4.741 3.375 8.297 9 8.297 5.625.001 9-3.554 9-8.295v-11.219c0-3.626-4.494-8.453-9-8.482z" fill="#5b5b5b"/><path d="m16 2c-.012 0-.025.001-.037.001h-.004c-4.486.028-8.959 4.677-8.959 8.166v5.832h18v-5.514c0-3.626-4.494-8.453-9-8.482" opacity=".1"/><path d="m16 2c-.012 0-.025.001-.037.001h-.004c-4.486.028-8.959 4.677-8.959 8.166v5.832h9c0 0 0-14 0-13.996z" opacity=".1"/><path d="m16 7c.551 0 1 .576 1 1.286v3.429c0 .709-.449 1.285-1 1.285-.551 0-1-.576-1-1.286v-3.429c0-.709.449-1.285 1-1.285" opacity=".2"/><path d="m16 6c.551 0 1 .576 1 1.286v3.429c0 .709-.449 1.285-1 1.285-.551 0-1-.576-1-1.286v-3.429c0-.709.449-1.285 1-1.285" fill="#ccc"/></g>

   xmlns:dc="http://purl.org/dc/elements/1.1/"
   xmlns:cc="http://creativecommons.org/ns#"
   xmlns:rdf="http://www.w3.org/1999/02/22-rdf-syntax-ns#"
   xmlns:svg="http://www.w3.org/2000/svg"
   xmlns="http://www.w3.org/2000/svg"
   xmlns:xlink="http://www.w3.org/1999/xlink"
   xmlns:sodipodi="http://sodipodi.sourceforge.net/DTD/sodipodi-0.dtd"
   xmlns:inkscape="http://www.inkscape.org/namespaces/inkscape"
   height="32"
   width="32"
   version="1"
   id="svg8"
   sodipodi:docname="snow-top-3.svg"
   inkscape:version="0.92.1 r"&gt;
  <path fill="#00000f" fill-opacity="0" d="m0 0h32v32h-32z" id="0"/><path d="m7.354 6.111c-2.995 2.684-1.381 7.817-3.674 8.291-2.031.613-3.541-1.385-3.66-4.503-.35-8.627 3.911-9.427 6.879-9.524 28.342-2.047 1.762 4.92.455 5.736" fill="url(#1)"/><use xlink:href="#0"/></svg>