<svg xmlns="http://www.w3.org/2000/svg" xmlns:xlink="http://www.w3.org/1999/xlink" viewBox="0 0 32 32"><defs><linearGradient gradientTransform="matrix(-2.54182 0 0 2.58531 185.47-277.37)" id="1" x1="67.894" y1="108.69" x2="67.854" y2="113.11" gradientUnits="userSpaceOnUse"><stop stop-color="#f9f9f9"/><stop offset="1" stop-color="#999"/></linearGradient></defs><rect width="28.2" height="28.2" x="1.898" y="1.898" fill="#8e8e8e" fill-rule="evenodd" rx="5.575"/><g transform="matrix(.71974 0 0 .71974 4.484 4.484)" fill="#4d4d4d"><g transform="scale(-1-1)"><path d="m-12-29h1v26h-1z"/><path d="m-9-29h1v26h-1z"/><path d="m-21-29h1v26h-1z"/><path d="m-18-29h1v26h-1z"/><path d="m-15-29h1v26h-1z"/><path d="m-24-29h1v26h-1z"/></g><g transform="matrix(0-1 1 0 0 0)"><path d="m-12 6h1v20h-1z"/><path d="m-9 6h1v20h-1z"/><path d="m-6 6h1v20h-1z"/><path d="m-21 6h1v20h-1z"/><path d="m-18 6h1v20h-1z"/><path d="m-15 6h1v20h-1z"/><path d="m-24 6h1v20h-1z"/><path d="m-27 6h1v20h-1z"/></g></g><g stroke-width=".72"><rect width="17.274" height="12.955" x="-24.637" y="-22.478" rx=".9" transform="matrix(0-1-1 0 0 0)" fill="#4d4d4d"/><g fill="#e6e6e6" transform="matrix(0 1-1 0 0 0)"><path d="m9.522-16.72h5.758v.72h-5.758z"/><path d="m16-16.72h5.758v.72h-5.758z"/><path d="m9.522-13.841h2.159v.72h-2.159z"/><path d="m12.401-13.841h2.159v.72h-2.159z"/><path d="m15.28-13.841h4.318v.72h-4.318z"/><path d="m9.522-19.599h4.318v.72h-4.318z"/><path d="m14.561-19.599h2.159v.72h-2.159z"/><path d="m17.44-19.599h5.04v.72h-5.04z"/></g></g>

   xmlns:dc="http://purl.org/dc/elements/1.1/"
   xmlns:cc="http://creativecommons.org/ns#"
   xmlns:rdf="http://www.w3.org/1999/02/22-rdf-syntax-ns#"
   xmlns:svg="http://www.w3.org/2000/svg"
   xmlns="http://www.w3.org/2000/svg"
   xmlns:xlink="http://www.w3.org/1999/xlink"
   xmlns:sodipodi="http://sodipodi.sourceforge.net/DTD/sodipodi-0.dtd"
   xmlns:inkscape="http://www.inkscape.org/namespaces/inkscape"
   height="32"
   width="32"
   version="1"
   id="svg8"
   sodipodi:docname="snow-top-3.svg"
   inkscape:version="0.92.1 r"&gt;
  <path fill="#00000f" fill-opacity="0" d="m0 0h32v32h-32z" id="0"/><path d="m7.354 6.111c-2.995 2.684-1.381 7.817-3.674 8.291-2.031.613-3.541-1.385-3.66-4.503-.35-8.627 3.911-9.427 6.879-9.524 28.342-2.047 1.762 4.92.455 5.736" fill="url(#1)"/><use xlink:href="#0"/></svg>