<svg xmlns="http://www.w3.org/2000/svg" viewBox="0 0 32 32" xmlns:xlink="http://www.w3.org/1999/xlink"><defs><linearGradient gradientTransform="matrix(-2.54182 0 0 2.58531 185.47-277.37)" id="1" x1="67.894" y1="108.69" x2="67.854" y2="113.11" gradientUnits="userSpaceOnUse"><stop stop-color="#f9f9f9"/><stop offset="1" stop-color="#999"/></linearGradient></defs><g fill="#4d4d4d"><rect width="28.2" height="28.2" x="1.898" y="1.898" fill-rule="evenodd" rx="5.575"/><rect transform="matrix(0-1-1 0 0 0)" rx=".898" y="-26.06" x="-25.703" height="20.13" width="6.469" stroke-width=".719"/></g><g fill="#e6e6e6" stroke="#e6e6e6" stroke-linecap="round" stroke-width="1.437"><path d="m13.12 21.391l-1.438 2.156"/><path d="m10.969 21.391l-1.438 2.156"/><path d="m8.812 21.391l-1.438 2.156"/><path d="m15.281 21.391l-1.438 2.156"/></g><g stroke-width=".719"><circle r="1.078" cy="22.659" cx="18.516" fill="#76ff03"/><circle r="1.078" cy="22.659" cx="21.391" fill="#ff0"/><circle r="1.078" cy="22.659" cx="24.266" fill="#ffcd40"/><rect transform="matrix(0-1-1 0 0 0)" rx=".898" y="-26.06" x="-19.234" height="20.13" width="6.469" fill="#4d4d4d"/></g><g fill="#e6e6e6" stroke="#e6e6e6" stroke-linecap="round" stroke-width="1.437"><path d="m13.12 14.922l-1.438 2.156"/><path d="m10.969 14.922l-1.438 2.156"/><path d="m8.812 14.922l-1.438 2.156"/><path d="m15.281 14.922l-1.438 2.156"/></g><g stroke-width=".719"><circle r="1.078" cy="16.19" cx="18.516" fill="#76ff03"/><circle r="1.078" cy="16.19" cx="21.391" fill="#ff0"/><circle r="1.078" cy="16.19" cx="24.266" fill="#ffcd40"/><rect transform="matrix(0-1-1 0 0 0)" rx=".898" y="-26.06" x="-12.766" height="20.13" width="6.469" fill="#4d4d4d"/></g><g fill="#e6e6e6" stroke="#e6e6e6" stroke-linecap="round" stroke-width="1.437"><path d="m13.12 8.453l-1.438 2.156"/><path d="m10.969 8.453l-1.438 2.156"/><path d="m8.812 8.453l-1.438 2.156"/><path d="m15.281 8.453l-1.438 2.156"/></g><g stroke-width=".719"><circle r="1.078" cy="9.721" cx="18.516" fill="#76ff03"/><circle r="1.078" cy="9.721" cx="21.391" fill="#ff0"/><circle r="1.078" cy="9.721" cx="24.266" fill="#ffcd40"/></g>

   xmlns:dc="http://purl.org/dc/elements/1.1/"
   xmlns:cc="http://creativecommons.org/ns#"
   xmlns:rdf="http://www.w3.org/1999/02/22-rdf-syntax-ns#"
   xmlns:svg="http://www.w3.org/2000/svg"
   xmlns="http://www.w3.org/2000/svg"
   xmlns:xlink="http://www.w3.org/1999/xlink"
   xmlns:sodipodi="http://sodipodi.sourceforge.net/DTD/sodipodi-0.dtd"
   xmlns:inkscape="http://www.inkscape.org/namespaces/inkscape"
   height="32"
   width="32"
   version="1"
   id="svg8"
   sodipodi:docname="snow-top-3.svg"
   inkscape:version="0.92.1 r"&gt;
  <path fill="#00000f" fill-opacity="0" d="m0 0h32v32h-32z" id="0"/><path d="m7.354 6.111c-2.995 2.684-1.381 7.817-3.674 8.291-2.031.613-3.541-1.385-3.66-4.503-.35-8.627 3.911-9.427 6.879-9.524 28.342-2.047 1.762 4.92.455 5.736" fill="url(#1)"/><use xlink:href="#0"/></svg>