<svg xmlns="http://www.w3.org/2000/svg" xmlns:xlink="http://www.w3.org/1999/xlink" viewBox="0 0 32 32"><defs><linearGradient gradientTransform="matrix(-2.54182 0 0 2.58531 185.47-277.37)" id="1" x1="67.894" y1="108.69" x2="67.854" y2="113.11" gradientUnits="userSpaceOnUse"><stop stop-color="#f9f9f9"/><stop offset="1" stop-color="#999"/></linearGradient></defs><g transform="translate(31.729 8.949)"><rect y="-7.05" x="-29.831" height="28.2" width="28.2" fill="#8e8e8e" fill-rule="evenodd" rx="5.575"/><g fill="#4d4d4d"><path d="m-23.903-3.831h16.348c.823 0 1.486.739 1.486 1.657v18.222c0 .917-.663 1.656-1.486 1.656h-16.348c-.823 0-1.486-.739-1.486-1.656v-18.221c.001-.918.664-1.656 1.487-1.656z"/><circle r=".966" cy="19.239" cx="-15.729"/><g stroke-width=".776"><g transform="translate(.475)"><circle cx="-19.484" cy="19.12" r=".758"/><circle cx="-12.917" cy="19.12" r=".758"/></g><path d="m-11.431-6.953h1.968v2.703h-1.968z"/></g></g></g>

   xmlns:dc="http://purl.org/dc/elements/1.1/"
   xmlns:cc="http://creativecommons.org/ns#"
   xmlns:rdf="http://www.w3.org/1999/02/22-rdf-syntax-ns#"
   xmlns:svg="http://www.w3.org/2000/svg"
   xmlns="http://www.w3.org/2000/svg"
   xmlns:xlink="http://www.w3.org/1999/xlink"
   xmlns:sodipodi="http://sodipodi.sourceforge.net/DTD/sodipodi-0.dtd"
   xmlns:inkscape="http://www.inkscape.org/namespaces/inkscape"
   height="32"
   width="32"
   version="1"
   id="svg8"
   sodipodi:docname="snow-top-3.svg"
   inkscape:version="0.92.1 r"&gt;
  <path fill="#00000f" fill-opacity="0" d="m0 0h32v32h-32z" id="0"/><path d="m7.354 6.111c-2.995 2.684-1.381 7.817-3.674 8.291-2.031.613-3.541-1.385-3.66-4.503-.35-8.627 3.911-9.427 6.879-9.524 28.342-2.047 1.762 4.92.455 5.736" fill="url(#1)"/><use xlink:href="#0"/></svg>