<svg xmlns="http://www.w3.org/2000/svg" xmlns:xlink="http://www.w3.org/1999/xlink" viewBox="0 0 32 32"><defs><linearGradient gradientTransform="matrix(-2.54182 0 0 2.58531 185.47-277.37)" id="1" x1="67.894" y1="108.69" x2="67.854" y2="113.11" gradientUnits="userSpaceOnUse"><stop stop-color="#f9f9f9"/><stop offset="1" stop-color="#999"/></linearGradient></defs><g fill-rule="evenodd"><rect width="28.2" height="28.2" x="1.898" y="1.898" fill="#3465a4" rx="5.575"/><path d="m4.082 28.846c-.014-.209-.086-.352-.088-.578-.016-1.571.26-3.432.26-3.432l3.242-17.197.604.008-2.938-5.219c-1.92.879-3.264 2.788-3.264 5.04v17.05c0 1.786.885 3.3 2.184 4.318" fill="#999"/><path d="m27.82 28.912c.028-.261.132-.446.131-.734-.004-1.57-.523-3.412-.523-3.412l-3.613-16.914-.375-.006-.477.793-14.352-.082-.512-.91-.604-.008-3.242 17.197c0 0-.276 1.86-.26 3.432.002.226.074.369.088.578.947.743 2.088 1.256 3.391 1.256h17.05c1.26 0 2.363-.49 3.295-1.189" fill="#555753"/><path d="m26.74 2.363l-3.301 5.482.375.006 3.613 16.914c0 0 .52 1.842.523 3.412.001.288-.103.473-.131.734 1.352-1.015 2.281-2.556 2.281-4.385v-17.05c0-2.299-1.384-4.254-3.361-5.109" fill="#999"/><path d="m5.162 2.428l3.449 6.129 14.352.082 3.777-6.275c-.68-.294-1.425-.465-2.215-.465h-17.05c-.832 0-1.603.205-2.311.529" fill="#ccc"/><g color="#000"><path d="m8.691 10.971l-1.496 11.287c-.053.336-.027.778.319.778h16.738c.279 0 .439-.265.372-.778l-2.131-11.222z" fill="#8e8e8e"/><g stroke-width=".694"><g fill="#888a85" stroke="#555753"><ellipse ry="1.062" rx=".771" cy="8.559" cx="10.499"/><ellipse ry="1.062" rx=".771" cy="8.559" cx="21.324"/></g><path d="m8.603 15.931h14.05" stroke-linecap="round" fill="#fff" stroke-linejoin="round" stroke="#fff"/></g><g stroke-opacity=".684" fill="none" stroke-linejoin="round" stroke-linecap="round" stroke-width="1.67"><path d="m11.847 27.586h2.415" stroke="#9ae94f"/><g stroke="#babdb6"><path d="m16.658 27.586h.009"/><path d="m19.06 27.586h.009"/><path d="m21.469 27.586h.009"/></g></g></g></g>

   xmlns:dc="http://purl.org/dc/elements/1.1/"
   xmlns:cc="http://creativecommons.org/ns#"
   xmlns:rdf="http://www.w3.org/1999/02/22-rdf-syntax-ns#"
   xmlns:svg="http://www.w3.org/2000/svg"
   xmlns="http://www.w3.org/2000/svg"
   xmlns:xlink="http://www.w3.org/1999/xlink"
   xmlns:sodipodi="http://sodipodi.sourceforge.net/DTD/sodipodi-0.dtd"
   xmlns:inkscape="http://www.inkscape.org/namespaces/inkscape"
   height="32"
   width="32"
   version="1"
   id="svg8"
   sodipodi:docname="snow-top-3.svg"
   inkscape:version="0.92.1 r"&gt;
  <path fill="#00000f" fill-opacity="0" d="m0 0h32v32h-32z" id="0"/><path d="m7.354 6.111c-2.995 2.684-1.381 7.817-3.674 8.291-2.031.613-3.541-1.385-3.66-4.503-.35-8.627 3.911-9.427 6.879-9.524 28.342-2.047 1.762 4.92.455 5.736" fill="url(#1)"/><use xlink:href="#0"/></svg>