<svg xmlns="http://www.w3.org/2000/svg" xmlns:xlink="http://www.w3.org/1999/xlink" viewBox="0 0 32 32"><defs><linearGradient gradientTransform="matrix(-2.54182 0 0 2.58531 185.47-277.37)" id="1" x1="67.894" y1="108.69" x2="67.854" y2="113.11" gradientUnits="userSpaceOnUse"><stop stop-color="#f9f9f9"/><stop offset="1" stop-color="#999"/></linearGradient></defs><g transform="translate(45.531 1.162)"><rect y=".736" x="-43.632" height="28.2" width="28.2" fill="#8e8e8e" fill-rule="evenodd" rx="5.575"/><path d="m-37.705 3.956h16.348c.823 0 1.486.739 1.486 1.657v18.222c0 .917-.663 1.656-1.486 1.656h-16.348c-.823 0-1.486-.739-1.486-1.656v-18.221c.001-.918.664-1.656 1.487-1.656z" fill="#4d4d4d"/><path d="m-31.466 6.813l-.681.394.943 1.634c-1.723.833-1.731 2.776-1.731 2.776h7.089c0 0-.008-1.943-1.731-2.775l.943-1.634-.682-.394-1.02 1.766c-.313-.07-.658-.114-1.054-.114-.397 0-.743.044-1.057.114l-1.02-1.766m.502 3.228c.218 0 .392.176.392.392 0 .217-.176.395-.392.395-.218 0-.395-.176-.395-.395 0-.217.177-.392.395-.392m3.151 0c.218 0 .392.176.392.392 0 .217-.176.395-.392.395-.218 0-.395-.176-.395-.395 0-.217.177-.392.395-.392m-6.662 2.363c-.453 0-.823.418-.823.933v3.648c0 .514.37.933.823.933.453 0 .752-.42.752-.934v-3.648c0-.514-.299-.932-.752-.932m1.54 0v6.695c0 .186.208.394.394.394h1.182v1.477c0 .49.312.886.788.886.473 0 .803-.397.788-.886v-1.477h.788v1.477c0 .49.312.886.788.886.473 0 .788-.403.788-.886v-1.477h1.182c.186 0 .394-.208.394-.394v-6.695zm8.7 0c-.453 0-.823.418-.823.933v3.648c0 .514.37.933.823.933.453 0 .752-.42.752-.934v-3.648c0-.514-.299-.932-.752-.932" fill="#a4ca39"/><g fill="#4d4d4d"><rect rx=".483" y="2.081" x="-33.34" height=".966" width="7.728"/><circle r=".966" cy="27.03" cx="-29.531"/></g></g>

   xmlns:dc="http://purl.org/dc/elements/1.1/"
   xmlns:cc="http://creativecommons.org/ns#"
   xmlns:rdf="http://www.w3.org/1999/02/22-rdf-syntax-ns#"
   xmlns:svg="http://www.w3.org/2000/svg"
   xmlns="http://www.w3.org/2000/svg"
   xmlns:xlink="http://www.w3.org/1999/xlink"
   xmlns:sodipodi="http://sodipodi.sourceforge.net/DTD/sodipodi-0.dtd"
   xmlns:inkscape="http://www.inkscape.org/namespaces/inkscape"
   height="32"
   width="32"
   version="1"
   id="svg8"
   sodipodi:docname="snow-top-3.svg"
   inkscape:version="0.92.1 r"&gt;
  <path fill="#00000f" fill-opacity="0" d="m0 0h32v32h-32z" id="0"/><path d="m7.354 6.111c-2.995 2.684-1.381 7.817-3.674 8.291-2.031.613-3.541-1.385-3.66-4.503-.35-8.627 3.911-9.427 6.879-9.524 28.342-2.047 1.762 4.92.455 5.736" fill="url(#1)"/><use xlink:href="#0"/></svg>