<?xml version="1.0" encoding="UTF-8" standalone="no"?>
<svg
   xmlns:dc="http://purl.org/dc/elements/1.1/"
   xmlns:cc="http://creativecommons.org/ns#"
   xmlns:rdf="http://www.w3.org/1999/02/22-rdf-syntax-ns#"
   xmlns:svg="http://www.w3.org/2000/svg"
   xmlns="http://www.w3.org/2000/svg"
   xmlns:sodipodi="http://sodipodi.sourceforge.net/DTD/sodipodi-0.dtd"
   xmlns:inkscape="http://www.inkscape.org/namespaces/inkscape"
   height="32"
   viewBox="0 0 32 32"
   width="32"
   version="1.1"
   id="svg12"
   sodipodi:docname="0ad.svg"
   inkscape:version="0.92.1 r">
  <metadata
     id="metadata18">
    <rdf:RDF>
      <cc:Work
         rdf:about="">
        <dc:format>image/svg+xml</dc:format>
        <dc:type
           rdf:resource="http://purl.org/dc/dcmitype/StillImage" />
      </cc:Work>
    </rdf:RDF>
  </metadata>
  <defs
     id="defs16">
    <linearGradient
       gradientTransform="matrix(2.59244,0,0,2.58531,-157.93689,-277.73046)"
       id="0"
       x1="67.893997"
       y1="108.69"
       x2="67.853996"
       y2="113.11"
       gradientUnits="userSpaceOnUse">
      <stop
         stop-color="#f9f9f9"
         id="stop2" />
      <stop
         offset="1"
         stop-color="#999"
         id="stop4" />
    </linearGradient>
  </defs>
  <sodipodi:namedview
     pagecolor="#ffffff"
     bordercolor="#666666"
     borderopacity="1"
     objecttolerance="10"
     gridtolerance="10"
     guidetolerance="10"
     inkscape:pageopacity="0"
     inkscape:pageshadow="2"
     inkscape:window-width="1680"
     inkscape:window-height="966"
     id="namedview14"
     showgrid="false"
     inkscape:zoom="7.375"
     inkscape:cx="-37.898305"
     inkscape:cy="16"
     inkscape:window-x="0"
     inkscape:window-y="0"
     inkscape:window-maximized="1"
     inkscape:current-layer="svg12" />
  <rect
     style="opacity:1;fill:#c88937;fill-opacity:1;fill-rule:evenodd;stroke:none;stroke-width:1.03534329;stroke-linecap:round;stroke-linejoin:bevel;stroke-miterlimit:4;stroke-dasharray:none;stroke-dashoffset:0;stroke-opacity:1"
     id="rect4497-3"
     width="28.203388"
     height="28.203388"
     x="1.8983059"
     y="1.8983059"
     ry="5.575182" />
  <path
     d="M 17.00025,5.0510501 V 15.00025 h 9.945 a 11,11 0 0 0 -9.945,-9.9491999 z m -2,0.0039 A 11,11 0 0 0 5.05105,15.00025 h 9.9492 z M 5.05495,16.99995 a 11,11 0 0 0 9.9453,9.949 v -9.949 z m 11.945,0 v 9.945 a 11,11 0 0 0 9.949,-9.945 z"
     id="path10"
     inkscape:connector-curvature="0"
     style="fill:#ddc450" />
  <path
     inkscape:connector-curvature="0"
     style="fill:url(#0)"
     d="m 7.189118,0.00854371 c -8.16099993,-0.339 -9.231,9.52299949 -3.968,9.50499949 0.669,0.003 1.581,-0.197 2.929,-1.471 3.7730004,-4.147 9.01,4.4790008 14.696,-1.042 0.61,-0.911 1.804,-1.135 2.455,-0.627 1.045,0.677 2.87,2.991 3.88,3 2.359,0.513 4.095,-0.198 4.816,-3.188 0.185,-3.165 -2.303,-6.28599949 -6.281,-6.16999949 -5.832,0.133 -12.809,-0.045 -18.527,-0.01"
     id="path19" />
</svg>
