<svg xmlns="http://www.w3.org/2000/svg" viewBox="0 0 32 32"><defs><linearGradient gradientTransform="matrix(2.54182 0 0 2.58531-153.47-277.37)" id="0" x1="67.894" y1="108.69" x2="67.854" y2="113.11" gradientUnits="userSpaceOnUse"><stop stop-color="#f9f9f9"/><stop offset="1" stop-color="#999"/></linearGradient></defs><rect width="28.2" height="28.2" x="1.898" y="1.898" fill="#a1252b" fill-rule="evenodd" rx="5.575"/><g transform="translate(44.881-8.178)"><path d="m-32.405 16.07c-2.683 0-4.934 2.251-4.934 4.935 0 1.057.358 2.041.946 2.853l-1.852 3.084c-1.41 2.349.28 5.338 3.02 5.34l12.688.008c2.62.001 4.325-2.756 3.155-5.101l-2.82-5.645c-1-1.997-3.582-2.572-5.335-1.188-.329-2.386-2.405-4.287-4.867-4.287" fill="#fff" stroke-linejoin="round" stroke-linecap="round" stroke-width="7.05"/><path d="m-32.407517 19.593958a1.410464 1.410464 0 0 0 -1.410464 1.410464 1.410464 1.410464 0 0 0 1.410464 1.410464 1.410464 1.410464 0 0 0 1.410464 -1.410464 1.410464 1.410464 0 0 0 -1.410464 -1.410464m7.05 3.526l-2.116 3.174-2.116-1.763-2.116 2.821-1.41-2.116-2.116 3.522 12.694.008z" fill="#a1252b" stroke-width=".705"/></g>

   xmlns:dc="http://purl.org/dc/elements/1.1/"
   xmlns:cc="http://creativecommons.org/ns#"
   xmlns:rdf="http://www.w3.org/1999/02/22-rdf-syntax-ns#"
   xmlns:svg="http://www.w3.org/2000/svg"
   xmlns="http://www.w3.org/2000/svg"
   xmlns:xlink="http://www.w3.org/1999/xlink"
   xmlns:sodipodi="http://sodipodi.sourceforge.net/DTD/sodipodi-0.dtd"
   xmlns:inkscape="http://www.inkscape.org/namespaces/inkscape"
   height="32"
   width="32"
   version="1"
   id="svg8"
   sodipodi:docname="snow-top-2.svg"
   inkscape:version="0.92.1 r"&gt;
  <path d="m24.646 6.111c2.995 2.684 1.381 7.817 3.674 8.291 2.031.613 3.541-1.385 3.66-4.503.35-8.627-3.911-9.427-6.879-9.524-28.342-2.047-1.762 4.92-.455 5.736" fill="url(#0)"/></svg>