<svg xmlns="http://www.w3.org/2000/svg" viewBox="0 0 32 32"><defs><linearGradient gradientTransform="matrix(-2.65552 0 0 2.58531 193.77-277.73)" id="0" x1="67.894" y1="108.69" x2="67.854" y2="113.11" gradientUnits="userSpaceOnUse"><stop stop-color="#f9f9f9"/><stop offset="1" stop-color="#999"/></linearGradient></defs><rect width="28.2" height="28.2" x="1.898" y="1.898" fill="#ffb73c" fill-rule="evenodd" rx="5.575"/><g transform="matrix(.68261 0 0 .68261 5.078 5.42)"><g fill="#4f4f4f"><rect ry="2.75" rx="2.8" y="19" x="2" height="11" width="28"/><path d="m12.335 2l-.824 2.411-1.936-1.681-.678 1.979-1.465-1.273-.721 2.107-1.423-.695-.156 2.382-1.987-.971-.165 2.52-1.98-.392.505 2.496 3.495 8.115h22l3.495-8.115.505-2.496-1.98.392-.165-2.52-1.987.971-.156-2.382-1.423.695-.721-2.107-1.465 1.273-.678-1.979-1.936 1.681-.824-2.411-1.936 1.681-.294 1.085v-.623l-1.429-2.118-.006.008-.006-.008-1.429 2.118v.623l-.294-1.085"/></g><g fill="none" stroke="#ffb73c" stroke-linejoin="round" stroke-linecap="round" stroke-width="3"><path d="m7.5 13.5h6c-3.263 3.412-4 5.572-4 10"/><path d="m19.5 13.5v10"/><path d="m24.5 13.5l-5 5.786"/><path d="m24.5 23.5l-5-5.643"/></g><path transform="matrix(.57536 0 0 .55364 1.287-1.215)" d="m25.572 22.06l-10.428-18.06h20.857" fill="#f45151"/></g>

   xmlns:dc="http://purl.org/dc/elements/1.1/"
   xmlns:cc="http://creativecommons.org/ns#"
   xmlns:rdf="http://www.w3.org/1999/02/22-rdf-syntax-ns#"
   xmlns:svg="http://www.w3.org/2000/svg"
   xmlns="http://www.w3.org/2000/svg"
   xmlns:xlink="http://www.w3.org/1999/xlink"
   xmlns:sodipodi="http://sodipodi.sourceforge.net/DTD/sodipodi-0.dtd"
   xmlns:inkscape="http://www.inkscape.org/namespaces/inkscape"
   version="1"
   width="32"
   height="32"
   id="svg12"
   sodipodi:docname="snow-top-3.svg"
   inkscape:version="0.92.1 r"&gt;
  <path d="m24.627.009c8.36-.339 9.455 9.523 4.064 9.505-.686.003-1.62-.197-3-1.471-14.665-10.216-14.549 2.967-17.708.875-1.727-1.822-1.743 4.653-4.139 5.127-2.122.613-3.699-1.385-3.824-4.503-.366-8.627 4.086-9.427 7.187-9.524 5.974.133 11.562-.045 17.419-.01" fill="url(#0)"/></svg>