<svg xmlns="http://www.w3.org/2000/svg" viewBox="0 0 32 32"><defs><linearGradient gradientTransform="matrix(-2.65552 0 0 2.58531 193.77-277.73)" id="0" x1="67.894" y1="108.69" x2="67.854" y2="113.11" gradientUnits="userSpaceOnUse"><stop stop-color="#f9f9f9"/><stop offset="1" stop-color="#999"/></linearGradient></defs><rect width="28.2" height="28.2" x="1.898" y="1.898" fill="#248afd" fill-rule="evenodd" rx="5.575"/><g transform="matrix(.68039 0 0 .68039 5.114 5.114)"><circle cy="16" r="14" cx="16" fill="#fff"/><path d="m22.646 21.368c-4.626 2.35-9.387 4.556-14.441 5.731-1.629-.008-.825-2.188-.562-3.176 1.263-4.196 3.223-8.124 5.086-12.06.738-1.245 1.261-2.96 2.749-3.439 1.445-.165 2.394 1.271 3.143 2.319 3.061 4.817 5.951 9.761 8.486 14.89.642 1.337 1.271 2.681 1.893 4.03-1.85-7.762-4.341-15.462-8.356-22.352-.9-1.361-1.72-2.837-2.934-3.932-1.183-.934-2.639.072-3.514.976-2.748 2.833-4.422 6.529-6.06 10.1-1.913 4.224-3.168 8.726-4.09 13.274-.323 1.532 1.21 2.643 2.572 2.168 3.773-.807 7.319-2.498 10.657-4.44 1.923-1.161 3.773-2.479 5.373-4.081" fill="#ccc"/></g>

   xmlns:dc="http://purl.org/dc/elements/1.1/"
   xmlns:cc="http://creativecommons.org/ns#"
   xmlns:rdf="http://www.w3.org/1999/02/22-rdf-syntax-ns#"
   xmlns:svg="http://www.w3.org/2000/svg"
   xmlns="http://www.w3.org/2000/svg"
   xmlns:xlink="http://www.w3.org/1999/xlink"
   xmlns:sodipodi="http://sodipodi.sourceforge.net/DTD/sodipodi-0.dtd"
   xmlns:inkscape="http://www.inkscape.org/namespaces/inkscape"
   version="1"
   width="32"
   height="32"
   id="svg12"
   sodipodi:docname="snow-top-3.svg"
   inkscape:version="0.92.1 r"&gt;
  <path d="m24.627.009c8.36-.339 9.455 9.523 4.064 9.505-.686.003-1.62-.197-3-1.471-14.665-10.216-14.549 2.967-17.708.875-1.727-1.822-1.743 4.653-4.139 5.127-2.122.613-3.699-1.385-3.824-4.503-.366-8.627 4.086-9.427 7.187-9.524 5.974.133 11.562-.045 17.419-.01" fill="url(#0)"/></svg>