<svg xmlns="http://www.w3.org/2000/svg" xmlns:xlink="http://www.w3.org/1999/xlink" viewBox="0 0 32 32"><defs><linearGradient xlink:href="#3" id="4" gradientUnits="userSpaceOnUse" x1="27.558" y1="-133.46" x2="22.09" y2="-134.43"/><linearGradient xlink:href="#3" id="2" gradientUnits="userSpaceOnUse" x1="15.879" y1="-141.91" x2="30.32" y2="-129.74"/><linearGradient id="3"><stop stop-color="#55c03f"/><stop offset="1" stop-color="#198b26"/></linearGradient><linearGradient id="1"><stop stop-color="#f9f9f9"/><stop offset="1" stop-color="#999"/></linearGradient><linearGradient xlink:href="#1" id="0" gradientUnits="userSpaceOnUse" x1="17.658" y1="-133.51" x2="15.02" y2="-125.58"/><radialGradient xlink:href="#1" id="5" cx="-176.59" cy="-120.91" r="3.01" gradientUnits="userSpaceOnUse" gradientTransform="matrix(2.21087.05719-.05496 2.12455 412.97 145.84)"/></defs><g transform="translate(51.661 1.763)"><g fill-rule="evenodd"><path d="m-32.897 28.339v-14.789c0-.387-.157-.736-.41-.988-.253-.253-.601-.41-.988-.41h-14.916c-.215 0-.369.142-.551.229v10.383c0 3.089 2.488 5.576 5.576 5.576z" fill="#00c5ec"/><g fill="#c2c2c2"><path d="m-32.897 15.1v13.238h5.764c3.089 0 5.574-2.488 5.574-5.576v-7.668c-.006 0-.01.006-.016.006z"/><path d="m-36.33.136h-7.859c-3.089 0-5.576 2.486-5.576 5.574v6.67c.182-.086.335-.229.551-.229h12.822v-11.865c0-.059.055-.094.063-.15"/></g><path d="m-36.33.136c-.008.057-.063.091-.063.15v11.865h2.094c.387 0 .736.157.988.41.253.253.41.601.41.988v1.551h11.322c.006 0 .01-.006.016-.006v-9.385c0-3.089-2.486-5.574-5.574-5.574z" fill="#d8dadc"/></g><path d="m-25.852 7.719v.526h-4.948c.047.741.269 1.306.667 1.696.402.386.959.579 1.673.579.413 0 .813-.051 1.199-.152.39-.101.776-.253 1.158-.456v1.018c-.386.164-.782.289-1.187.374-.406.086-.817.129-1.234.129-1.045 0-1.874-.304-2.486-.912-.608-.608-.912-1.431-.912-2.468 0-1.072.289-1.922.866-2.55.581-.632 1.363-.948 2.345-.948.881 0 1.577.285 2.088.854.515.565.772 1.336.772 2.31m-1.076-.316c-.008-.589-.174-1.059-.497-1.41-.32-.351-.745-.526-1.275-.526-.601 0-1.082.17-1.445.509-.359.339-.565.817-.62 1.433l3.837-.006m-1.299-5.217h1.187v1.182h-1.187v-1.182m-2.287 0h1.187v1.182h-1.187v-1.182" fill="#9d9d9d" stroke-width=".826"/><path d="m-40.31 20.432c-.938 0-1.589.104-1.951.313-.362.209-.543.565-.543 1.069 0 .401.135.721.404.958.274.233.644.35 1.111.35.644 0 1.159-.221 1.547-.663.391-.446.587-1.038.587-1.775v-.252h-1.155m2.317-.467v3.924h-1.161v-1.044c-.264.418-.595.727-.99.927-.396.197-.88.295-1.452.295-.724 0-1.3-.196-1.73-.589-.425-.398-.637-.927-.637-1.59 0-.774.265-1.357.795-1.75.534-.393 1.33-.59 2.386-.59h1.629v-.111c0-.52-.177-.921-.53-1.204-.349-.287-.842-.43-1.477-.43-.404 0-.797.047-1.18.141-.383.094-.751.235-1.105.424v-1.044c.425-.16.837-.278 1.237-.356.4-.082.789-.123 1.168-.123 1.023 0 1.786.258 2.291.774.505.516.757 1.298.758 2.346m-3.913-6.135l1.78 2.297h-.966l-2.058-2.297h1.244" fill="#fff" stroke-width=".853"/></g><g transform="translate(-.916 143.06)"><path d="m15.583-142.61c-5.577-1.531-5.951 3.24-4.58 5.493 4.381 6.983 6.796 6.577 9.398 7.895 1.712 2.064 3.451 3.4 6.469 4.1 11.69 1.559 3.242-8.417.92-8.649-5.065.012-7.547-6.123-12.206-8.838" fill="url(#0)"/><path d="m15.583-142.61c3.76.276 5.616-.626 8.93-.421 4.319.283 8.307 2.053 7.838 6.574-.347 2.567-.37 2.25.186 4.296.532 1.535-.252 4.232-.487 4.654-2.715 4.963-1.536 4.965-2.656 7.742l-.906-.418-2.508-11.358c-7.177-.909-10.754-10.11-10.398-11.07" fill="url(#2)"/><path d="m22.374-132.67c.362.274 1.553-5.105 1.172-5.653 1.379 2.44 1.919 4.616 2.435 6.783-1.276-.283-2.289-.554-3.607-1.13" fill="url(#4)"/><circle r="3.01" cy="-119.45" cx="29.06" fill="url(#5)"/></g></svg>