<svg xmlns="http://www.w3.org/2000/svg" viewBox="0 0 32 32"><defs><linearGradient gradientTransform="matrix(2.54182 0 0 2.58531-153.47-277.37)" id="0" x1="67.894" y1="108.69" x2="67.854" y2="113.11" gradientUnits="userSpaceOnUse"><stop stop-color="#f9f9f9"/><stop offset="1" stop-color="#999"/></linearGradient></defs><g fill="#848484"><rect width="28.2" height="28.2" x="1.898" y="1.898" fill-rule="evenodd" rx="5.575"/><path d="M15.860972 9.673583A6.272648 6.272648 0 0 0 9.588324 15.94623 6.272648 6.272648 0 0 0 15.860972 22.21888 6.272648 6.272648 0 0 0 22.13362 15.94623 6.272648 6.272648 0 0 0 15.860972 9.673583m0 3.764c1.386 0 2.509 1.123 2.509 2.509 0 1.386-1.123 2.509-2.509 2.509-1.386 0-2.509-1.123-2.509-2.509 0-1.386 1.123-2.509 2.509-2.509z" stroke-width=".836"/></g><g stroke-width=".836"><path d="m15.861 4.237c-6.487 0-11.709 5.222-11.709 11.709 0 6.487 5.222 11.709 11.709 11.709 6.487 0 11.709-5.222 11.709-11.709 0-6.487-5.222-11.709-11.709-11.709m0 6.690824a5.01812 5.01812 0 0 1 5.01812 5.01812 5.01812 5.01812 0 0 1 -5.01812 5.01812 5.01812 5.01812 0 0 1 -5.01812 -5.01812 5.01812 5.01812 0 0 1 5.01812 -5.01812" fill="#fff"/><circle cx="22.552" cy="21.801" r="6.691" fill="#ba22ff"/><path d="m19.21 22.08c0 1.848 1.498 3.345 3.345 3.345 1.829 0 3.312-1.468 3.342-3.29a.557571 .557571 0 0 0 .0034 -.05554 .557571 .557571 0 0 0 -.557571 -.557572 .557571 .557571 0 0 0 -.557571 .557572c0 1.232-.999 2.23-2.23 2.23-1.232 0-2.23-.999-2.23-2.23 0-1.232.999-2.23 2.23-2.23v1.115l2.23-1.673-2.23-1.673v1.115c-1.848 0-3.345 1.498-3.345 3.345" fill="#fff"/></g>

   xmlns:dc="http://purl.org/dc/elements/1.1/"
   xmlns:cc="http://creativecommons.org/ns#"
   xmlns:rdf="http://www.w3.org/1999/02/22-rdf-syntax-ns#"
   xmlns:svg="http://www.w3.org/2000/svg"
   xmlns="http://www.w3.org/2000/svg"
   xmlns:xlink="http://www.w3.org/1999/xlink"
   xmlns:sodipodi="http://sodipodi.sourceforge.net/DTD/sodipodi-0.dtd"
   xmlns:inkscape="http://www.inkscape.org/namespaces/inkscape"
   height="32"
   width="32"
   version="1"
   id="svg8"
   sodipodi:docname="snow-top-2.svg"
   inkscape:version="0.92.1 r"&gt;
  <path d="m24.646 6.111c2.995 2.684 1.381 7.817 3.674 8.291 2.031.613 3.541-1.385 3.66-4.503.35-8.627-3.911-9.427-6.879-9.524-28.342-2.047-1.762 4.92-.455 5.736" fill="url(#0)"/></svg>