<svg xmlns="http://www.w3.org/2000/svg" viewBox="0 0 32 32" xmlns:xlink="http://www.w3.org/1999/xlink"><defs><linearGradient xlink:href="#3" id="4" gradientUnits="userSpaceOnUse" x1="27.558" y1="-133.46" x2="22.09" y2="-134.43"/><linearGradient xlink:href="#3" id="2" gradientUnits="userSpaceOnUse" x1="15.879" y1="-141.91" x2="30.32" y2="-129.74"/><linearGradient id="3"><stop stop-color="#55c03f"/><stop offset="1" stop-color="#198b26"/></linearGradient><linearGradient id="1"><stop stop-color="#f9f9f9"/><stop offset="1" stop-color="#999"/></linearGradient><linearGradient xlink:href="#1" id="0" gradientUnits="userSpaceOnUse" x1="17.658" y1="-133.51" x2="15.02" y2="-125.58"/><radialGradient xlink:href="#1" id="5" cx="-176.59" cy="-120.91" r="3.01" gradientUnits="userSpaceOnUse" gradientTransform="matrix(2.21087.05719-.05496 2.12455 412.97 145.84)"/></defs><g transform="translate(0 1.898)"><rect x="1.898" height="28.2" width="28.2" fill="#745145" fill-rule="evenodd" rx="5.575"/><g transform="matrix(.87409 0 0 .87409.266-1.748)" fill="#ff3434"><path d="m24.21 12c.243.015.505 0 .791.199 2.558 1.101.842 4.121-2.418 6.418-.02-.433-.2-1.376-.195-1.791 2.782-1.907 4.409-3.764 2.636-4.5-1.869-.776-2.449 1.342-2.482 4.417-.174.181-1.38.982-1.564 1.108.068-2.804 1.558-5.666 2.991-5.83.077-.015.16-.015.241-.015m-2.604 4.878l.582-.227.482.325.097 1.023-.609.468-.253.339c-1.877 1.245-3.475 2.204-5.579 2.996l-1.312.195h-.863c-.796-.469-.321-.65-3.212-1.01l3.258.253c2.513-.974 5.078-2.374 7.411-3.9m-5.734 4.081c-.377 0-3.317-.255-4.486-.363-1.157-.181-2.579-.235-2.31 1.119-.306-.722.392-1.947 1.384-2.163 1.534-.343 3.969.597 4.844.886m-1.411.375c.456.181 1.499.311 1.991.473-.698.361-4.203 1.655-5.65 1.384-.231 0-1.208-.703-1.232-1.208.075.92 4.36.235 4.891-.668m-.953.016c.375-.181 2.134-.172 2.521-.316 2.202.77 5.163 2.579 7.283 3.798l.614.181c.119.842.637 1.133 1.111 1.678l-.717.722-.561-.92c-2.482-1.497-7.387-3.917-10.249-5.079m10.249 5.079c.303.181.593.361.868.541.636 1.806 1.378 3.02 2.087 2.97-1.094.523-3.452-2.055-4.246-4.48m4.246 4.48c1.669-.992-1.864-2.801-2.658-3.326-.178-.505.31-1.342.15-1.938 2.492 1.552 3.965 3.797 3.129 4.861-.201.253-.415.379-.626.397m-2.425-3.781c-.116-.465-1.655-1.523-1.933-1.685-.372-2.932-.39-3.221-.706-5.5.189-.181 1.353-1.088 1.533-1.214.223 2.436.644 5.737 1.238 7.941"/><path d="m9 2v14l2-2 2 2v-14"/></g></g><g transform="translate(-.916 143.06)"><path d="m15.583-142.61c-5.577-1.531-5.951 3.24-4.58 5.493 4.381 6.983 6.796 6.577 9.398 7.895 1.712 2.064 3.451 3.4 6.469 4.1 11.69 1.559 3.242-8.417.92-8.649-5.065.012-7.547-6.123-12.206-8.838" fill="url(#0)"/><path d="m15.583-142.61c3.76.276 5.616-.626 8.93-.421 4.319.283 8.307 2.053 7.838 6.574-.347 2.567-.37 2.25.186 4.296.532 1.535-.252 4.232-.487 4.654-2.715 4.963-1.536 4.965-2.656 7.742l-.906-.418-2.508-11.358c-7.177-.909-10.754-10.11-10.398-11.07" fill="url(#2)"/><path d="m22.374-132.67c.362.274 1.553-5.105 1.172-5.653 1.379 2.44 1.919 4.616 2.435 6.783-1.276-.283-2.289-.554-3.607-1.13" fill="url(#4)"/><circle r="3.01" cy="-119.45" cx="29.06" fill="url(#5)"/></g></svg>