<svg xmlns="http://www.w3.org/2000/svg" viewBox="0 0 32 32"><defs><linearGradient gradientTransform="matrix(-2.65552 0 0 2.58531 193.77-277.73)" id="0" x1="67.894" y1="108.69" x2="67.854" y2="113.11" gradientUnits="userSpaceOnUse"><stop stop-color="#f9f9f9"/><stop offset="1" stop-color="#999"/></linearGradient></defs><rect width="28.2" height="28.2" x="1.898" y="1.898" fill="#008033" fill-rule="evenodd" rx="5.575"/><g transform="translate(48.678 1.263)" stroke-width=".743"><path d="m-35.26 16.816c2.886 1.71 3.177 3.02 2.585 4.074-.592 1.053-1.844 1.45-4.73-.261-2.886-1.71-6.149-5.17-6.416-6.345 1.126-.35 5.676.821 8.561 2.532" fill="#80ffb3"/><path d="m-32.932 16.03c1.666 2.962 1.28 4.247.254 4.855-1.026.608-2.304.308-3.97-2.654-1.666-2.962-2.807-7.633-2.466-8.788 1.145.275 4.515 3.625 6.181 6.587" fill="#2aff80"/><path d="m-30.533 16.555c0 3.42-.96 4.335-2.145 4.335-1.185 0-2.145-.915-2.145-4.335 0-3.42 1.287-8.05 2.145-8.877.858.826 2.145 5.456 2.145 8.877" fill="#00d455"/><path d="m-28.708 18.236c-1.666 2.962-2.943 3.261-3.97 2.654-1.026-.608-1.412-1.893.254-4.855 1.666-2.962 5.04-6.312 6.181-6.587.341 1.155-.8 5.826-2.466 8.788" fill="#0a4"/><path d="m-27.948 20.629c-2.885 1.711-4.138 1.314-4.73.261-.592-1.053-.301-2.364 2.585-4.074 2.885-1.711 7.435-2.882 8.561-2.532-.268 1.176-3.531 4.635-6.416 6.345" fill="#fff"/></g>

   xmlns:dc="http://purl.org/dc/elements/1.1/"
   xmlns:cc="http://creativecommons.org/ns#"
   xmlns:rdf="http://www.w3.org/1999/02/22-rdf-syntax-ns#"
   xmlns:svg="http://www.w3.org/2000/svg"
   xmlns="http://www.w3.org/2000/svg"
   xmlns:xlink="http://www.w3.org/1999/xlink"
   xmlns:sodipodi="http://sodipodi.sourceforge.net/DTD/sodipodi-0.dtd"
   xmlns:inkscape="http://www.inkscape.org/namespaces/inkscape"
   version="1"
   width="32"
   height="32"
   id="svg12"
   sodipodi:docname="snow-top-3.svg"
   inkscape:version="0.92.1 r"&gt;
  <path d="m24.627.009c8.36-.339 9.455 9.523 4.064 9.505-.686.003-1.62-.197-3-1.471-14.665-10.216-14.549 2.967-17.708.875-1.727-1.822-1.743 4.653-4.139 5.127-2.122.613-3.699-1.385-3.824-4.503-.366-8.627 4.086-9.427 7.187-9.524 5.974.133 11.562-.045 17.419-.01" fill="url(#0)"/></svg>