<svg xmlns="http://www.w3.org/2000/svg" viewBox="0 0 32 32"><defs><clipPath><circle cx="286" cy="26" r="10" fill="none"/></clipPath><linearGradient gradientTransform="matrix(2.54182 0 0 2.58531-153.47-277.37)" id="0" x1="67.894" y1="108.69" x2="67.854" y2="113.11" gradientUnits="userSpaceOnUse"><stop stop-color="#f9f9f9"/><stop offset="1" stop-color="#999"/></linearGradient></defs><g transform="translate(45.15 7.458)"><rect y="-5.559" x="-43.25" height="28.2" width="28.2" fill="#608ab5" fill-rule="evenodd" rx="5.575"/><g stroke-width=".8"><path d="M-18.683763 9.989085A10.197592 10.197592 0 0 1 -28.881355 20.18668 10.197592 10.197592 0 0 1 -39.07895 9.989085 10.197592 10.197592 0 0 1 -28.881355 -.208507 10.197592 10.197592 0 0 1 -18.683763 9.989085" fill="#cddff0"/><path d="m-22.581 19.257c-5.451 3.148-12.421 1.28-15.569-4.171-3.147-5.452-1.279-12.422 4.172-15.569 6.423-.03 10.502 13.85 11.397 19.74" fill="#85b4df"/><path d="m-17.484 9.789c0 6.295-5.103 11.397-11.397 11.397-6.295 0-11.397-5.103-11.397-11.397 3.186-5.577 17.246-2.17 22.795 0" fill="#608ab5"/></g></g>

   xmlns:dc="http://purl.org/dc/elements/1.1/"
   xmlns:cc="http://creativecommons.org/ns#"
   xmlns:rdf="http://www.w3.org/1999/02/22-rdf-syntax-ns#"
   xmlns:svg="http://www.w3.org/2000/svg"
   xmlns="http://www.w3.org/2000/svg"
   xmlns:xlink="http://www.w3.org/1999/xlink"
   xmlns:sodipodi="http://sodipodi.sourceforge.net/DTD/sodipodi-0.dtd"
   xmlns:inkscape="http://www.inkscape.org/namespaces/inkscape"
   height="32"
   width="32"
   version="1"
   id="svg8"
   sodipodi:docname="snow-top-2.svg"
   inkscape:version="0.92.1 r"&gt;
  <path d="m24.646 6.111c2.995 2.684 1.381 7.817 3.674 8.291 2.031.613 3.541-1.385 3.66-4.503.35-8.627-3.911-9.427-6.879-9.524-28.342-2.047-1.762 4.92-.455 5.736" fill="url(#0)"/></svg>