<svg xmlns="http://www.w3.org/2000/svg" viewBox="0 0 32 32"><defs><linearGradient gradientTransform="matrix(2.59244 0 0 2.58531-157.93-277.73)" id="0" x1="67.894" y1="108.69" x2="67.854" y2="113.11" gradientUnits="userSpaceOnUse"><stop stop-color="#f9f9f9"/><stop offset="1" stop-color="#999"/></linearGradient></defs><rect width="28.2" height="28.2" x="1.898" y="1.898" fill="#d1ff42" fill-rule="evenodd" rx="5.575"/><path d="m27 18c-1.823 2-3.851 4.138-6.691 3.944-1.173-.177-2.458-1.491-3.401-2.793-1.192-1.647-2.198-3.576-3.275-5.362-.903-1.356-2.037-2.681-4.231-1.054-.749.527-1.48 1.475-2.046 2.49-.905 1.619.672 3.788 2.143 3.774 6.071-.06 12.812-6.195 16.5-9-3.336 3.584-5.129 5.64-11.957 9.63-1.682.965-3.16 1.579-5.322 2.107-1.294.316-3.199.608-3.616-.765-.435-1.432.602-3.639.819-4.118 1.631-3.608 4.066-7.354 8.324-6.798 4.061.531 4.252 6.869 7.283 8.535 1.492.819 2.605.908 5.468-.591z" fill="#4f4f4f"/>

   xmlns:dc="http://purl.org/dc/elements/1.1/"
   xmlns:cc="http://creativecommons.org/ns#"
   xmlns:rdf="http://www.w3.org/1999/02/22-rdf-syntax-ns#"
   xmlns:svg="http://www.w3.org/2000/svg"
   xmlns="http://www.w3.org/2000/svg"
   xmlns:xlink="http://www.w3.org/1999/xlink"
   xmlns:sodipodi="http://sodipodi.sourceforge.net/DTD/sodipodi-0.dtd"
   xmlns:inkscape="http://www.inkscape.org/namespaces/inkscape"
   version="1"
   width="32"
   height="32"
   id="svg12"
   sodipodi:docname="snow-top-4.svg"
   inkscape:version="0.92.1 r"&gt;
  <path d="m7.196.009c-8.161-.339-9.231 9.523-3.968 9.505.669.003 1.581-.197 2.929-1.471 3.773-4.147 9.01 4.479 14.696-1.042.61-.911 1.804-1.135 2.455-.627 1.045.677 2.87 2.991 3.88 3 2.359.513 4.095-.198 4.816-3.188.185-3.165-2.303-6.286-6.281-6.17-5.832.133-12.809-.045-18.527-.01" fill="url(#0)"/></svg>