<svg xmlns="http://www.w3.org/2000/svg" viewBox="0 0 32 32"><rect width="28.2" height="28.2" x="1.898" y="1.898" fill="#11ab66" fill-rule="evenodd" rx="5.575"/><g transform="translate(43.15.192)" stroke-width=".63"><path d="m-31.556787 6.985702a4.41127 4.41127 0 0 0 -4.411269 4.41127 4.41127 4.41127 0 0 0 1.351424 3.170443c-.056.131-.091.276-.091.434v2.698a.630181 .630181 0 0 0 -.630182 .630182 .630181 .630181 0 0 0 .630182 .630181v2.949c0 .53.362.957.812.957h2.853l-1.046 1.097a.736934 .445778 0 0 0 .638815 .668622h6.719a.736934 .445778 0 0 0 .736052 -.459402 .736934 .445778 0 0 0 -.09831 -.20922l-1.046-1.097h2.853c.45 0 .812-.427.812-.957v-2.138l.722.478 1.76 1.165a.445778 .51017 0 0 0 .668624 -.443648v-4.651a.445778 .51017 0 0 0 -.459403 -.509817 .445778 .51017 0 0 0 -.20922 .06869l-1.76 1.162-.722.478V15c0-.156-.034-.3-.09-.43a4.41127 4.41127 0 0 0 1.350483 -3.174224 4.41127 4.41127 0 0 0 -4.41127 -4.41127 4.41127 4.41127 0 0 0 -3.463477 1.687437 4.41127 4.41127 0 0 0 -3.468519 -1.687437" fill="#fff"/><path d="m-31.872 8.876c-1.214 0-2.206.991-2.206 2.206 0 1.214.991 2.206 2.206 2.206 1.214 0 2.206-.991 2.206-2.206 0-1.214-.991-2.206-2.206-2.206m7.562 0c-1.214 0-2.206.991-2.206 2.206 0 1.214.991 2.206 2.206 2.206 1.214 0 2.206-.991 2.206-2.206 0-1.214-.991-2.206-2.206-2.206m-7.562.63c.874 0 1.575.702 1.575 1.575 0 .874-.701 1.575-1.575 1.575-.874 0-1.575-.701-1.575-1.575 0-.874.702-1.575 1.575-1.575m7.562 0c.874 0 1.575.702 1.575 1.575 0 .874-.701 1.575-1.575 1.575-.874 0-1.575-.701-1.575-1.575 0-.874.701-1.575 1.575-1.575" fill="#11ab66"/></g>

   xmlns:dc="http://purl.org/dc/elements/1.1/"
   xmlns:cc="http://creativecommons.org/ns#"
   xmlns:rdf="http://www.w3.org/1999/02/22-rdf-syntax-ns#"
   xmlns:svg="http://www.w3.org/2000/svg"
   xmlns="http://www.w3.org/2000/svg"
   xmlns:sodipodi="http://sodipodi.sourceforge.net/DTD/sodipodi-0.dtd"
   xmlns:inkscape="http://www.inkscape.org/namespaces/inkscape"
   height="32"
   width="32"
   version="1"
   id="svg8"
   sodipodi:docname="star-mime-2.svg"
   inkscape:version="0.92.1 r"&gt;
  <g transform="translate(152.47 194.05)" fill="#fff"><path d="m-125.38-193.25l-.077 3.548 3.072 1.831-3.548-.077-3.135 6.791 1.38-7.268-3.072-1.831 3.548.077z"/><path d="m-125.41-183.04l.042-1.955-1.692-1.01 1.955.042 1.727-3.741-.76 4 1.692 1.01-1.955-.042z"/></g></svg>