<svg xmlns="http://www.w3.org/2000/svg" xmlns:xlink="http://www.w3.org/1999/xlink" viewBox="0 0 32 32"><defs><linearGradient xlink:href="#3" id="4" gradientUnits="userSpaceOnUse" x1="-23.24" y1="-185.08" x2="-28.704" y2="-186.05"/><linearGradient xlink:href="#3" id="2" gradientUnits="userSpaceOnUse" x1="-34.914" y1="-193.53" x2="-20.469" y2="-181.36"/><linearGradient id="3"><stop stop-color="#ffff5e"/><stop offset="1" stop-color="#f6a32d"/></linearGradient><linearGradient id="1"><stop stop-color="#f9f9f9"/><stop offset="1" stop-color="#999"/></linearGradient><linearGradient xlink:href="#1" id="0" gradientUnits="userSpaceOnUse" x1="-33.14" y1="-185.13" x2="-35.775" y2="-177.2"/><radialGradient xlink:href="#1" id="5" cx="-176.59" cy="-120.91" r="3.01" gradientUnits="userSpaceOnUse" gradientTransform="matrix(2.21087.05719-.05496 2.12455 362.18 94.22)"/></defs><rect width="28.2" height="28.2" x="1.898" y="1.898" fill="#608ab5" fill-rule="evenodd" rx="5.575"/><g transform="translate(0-.248)" stroke-width=".642"><path d="m17.528 12.731c0 0-1.175-.181-1.852.498-.678.68-1.265 2.175-1.22 2.628.045.453 1.401-1.54 1.988-1.676.587-.136 1.22-1.133 1.084-1.45"/><path d="m23.05 6.296c-.489 0-1.438 1.159-1.794 1.343-.356.183-3.173 2.258-3.439 2.624-.267.366-.623.519-1.01.488-.386-.03-1.604-.043-2.02.201-.415.244-2.309 2.24-2.784 2.484-.474.244-1.093.369-1.39.4-.296.03-1.279 1.156-1.545 1.37-.267.214-2.375 1.153-2.672 1.335-.297.183 2.163 2.747 2.519 2.808.356.061-.922.87-.93 1.45-.008.579.612 2.302 4.204 4.33 3.106 1.753 6.387.909 7.625.552.491-.142.311-1.769.402-2.634.059-.549.267-5.156 1.038-6.377.771-1.22 2.974-2.685 3.745-2.838.771-.153.623-.458.623-.732 0-.275-.119-.885-.326-.976-.208-.091-1.017.458-1.284.519-.267.061-1.542.153-1.72-.153-.178-.305 1.438-3.417 1.646-3.783.207-.366.297-.854-.089-1.373-.385-.519-.652-1.037-.8-1.037" fill="#fff"/><path d="m17.269 12.734c0 0-.975-.145-1.538.398-.563.543-1.05 1.737-1.013 2.099.037.362 1.163-1.231 1.65-1.339.488-.109 1.013-.905.9-1.158" fill="#608ab5"/></g><g transform="translate(49.877 194.68)"><path d="m-35.21-194.22c-5.577-1.531-5.951 3.24-4.58 5.493 4.381 6.983 6.796 6.577 9.398 7.895 1.712 2.064 3.451 3.4 6.469 4.1 11.69 1.559 3.242-8.417.92-8.649-5.065.012-7.547-6.123-12.206-8.838" fill="url(#0)"/><path d="m-35.21-194.22c3.76.276 5.616-.626 8.93-.421 4.319.283 8.307 2.053 7.838 6.574-.347 2.567-.37 2.25.186 4.296.532 1.535-.252 4.232-.487 4.654-2.715 4.963-1.536 4.965-2.656 7.742l-.906-.418-2.508-11.358c-7.177-.909-10.754-10.11-10.398-11.07" fill="url(#2)"/><path d="m-28.419-184.29c.362.274 1.553-5.105 1.172-5.653 1.379 2.44 1.919 4.616 2.435 6.783-1.276-.283-2.289-.554-3.607-1.13" fill="url(#4)"/><circle r="3.01" cy="-171.07" cx="-21.728" fill="url(#5)"/></g></svg>