<svg xmlns="http://www.w3.org/2000/svg" xmlns:xlink="http://www.w3.org/1999/xlink" viewBox="0 0 32 32"><defs><linearGradient gradientTransform="matrix(-2.54182 0 0 2.58531 185.47-277.37)" id="1" x1="67.894" y1="108.69" x2="67.854" y2="113.11" gradientUnits="userSpaceOnUse"><stop stop-color="#f9f9f9"/><stop offset="1" stop-color="#999"/></linearGradient></defs><g fill-rule="evenodd"><rect width="28.2" height="28.2" x="1.898" y="1.898" fill="#3f5979" rx="5.575"/><g transform="translate(39.864 2.034)"><path d="m-22.719 12.84c0 .841.022 1.541-.385 2.286-.327.606-.846.978-1.425.978-.791 0-1.25-.63-1.25-1.56 0-1.836 1.572-2.171 3.06-2.171v.466m2.077 5.25c-.135.127-.332.137-.486.053-.682-.594-.806-.87-1.183-1.438-1.13 1.207-1.928 1.567-3.395 1.567-1.733 0-3.083-1.117-3.083-3.356 0-1.748.906-2.94 2.195-3.522 1.116-.514 2.678-.606 3.873-.748v-.279c0-.512.039-1.118-.247-1.56-.252-.397-.733-.56-1.156-.56-.786 0-1.486.421-1.656 1.294-.036.194-.17.385-.358.394l-1.998-.223c-.168-.041-.353-.183-.308-.452.462-2.529 2.649-3.294 4.606-3.294 1 0 2.313.279 3.102 1.072 1 .978.906 2.284.906 3.705v3.356c0 1.01.399 1.452.777 1.998.132.193.161.428-.005.572-.421.37-1.168 1.048-1.579 1.43l-.007-.007" fill="#fff"/><path d="m-17.04 18.27c-.56.008-1.221.137-1.721.498-.156.111-.13.264.043.243.562-.07 1.82-.224 2.043.07.226.293-.25 1.505-.459 2.046-.065.164.072.231.216.106.942-.805 1.183-2.492.99-2.736-.095-.122-.553-.234-1.113-.226m-14.709.325c-.117.016-.168.16-.046.274 2.088 1.935 4.849 3.095 7.913 3.095 2.187 0 4.724-.707 6.477-2.029l.001-.002c.291-.222.043-.548-.255-.421-1.962.856-4.099 1.267-6.04 1.267-2.878 0-5.666-.807-7.918-2.151-.049-.029-.096-.038-.135-.032" fill="#f90"/></g></g>

   xmlns:dc="http://purl.org/dc/elements/1.1/"
   xmlns:cc="http://creativecommons.org/ns#"
   xmlns:rdf="http://www.w3.org/1999/02/22-rdf-syntax-ns#"
   xmlns:svg="http://www.w3.org/2000/svg"
   xmlns="http://www.w3.org/2000/svg"
   xmlns:xlink="http://www.w3.org/1999/xlink"
   xmlns:sodipodi="http://sodipodi.sourceforge.net/DTD/sodipodi-0.dtd"
   xmlns:inkscape="http://www.inkscape.org/namespaces/inkscape"
   height="32"
   width="32"
   version="1"
   id="svg8"
   sodipodi:docname="snow-top-3.svg"
   inkscape:version="0.92.1 r"&gt;
  <path fill="#00000f" fill-opacity="0" d="m0 0h32v32h-32z" id="0"/><path d="m7.354 6.111c-2.995 2.684-1.381 7.817-3.674 8.291-2.031.613-3.541-1.385-3.66-4.503-.35-8.627 3.911-9.427 6.879-9.524 28.342-2.047 1.762 4.92.455 5.736" fill="url(#1)"/><use xlink:href="#0"/></svg>