<svg xmlns="http://www.w3.org/2000/svg" xmlns:xlink="http://www.w3.org/1999/xlink" viewBox="0 0 32 32"><defs><linearGradient gradientTransform="matrix(-2.54182 0 0 2.58531 185.47-277.37)" id="1" x1="67.894" y1="108.69" x2="67.854" y2="113.11" gradientUnits="userSpaceOnUse"><stop stop-color="#f9f9f9"/><stop offset="1" stop-color="#999"/></linearGradient></defs><rect width="28.2" height="28.2" x="1.898" y="1.898" fill="#2aa2ee" fill-rule="evenodd" rx="5.575"/><path d="m14.171 25.739c-2.185-.224-3.707-.849-4.832-1.984-.454-.459-.763-.881-1.02-1.394-.543-1.085-.713-2.307-.447-3.21.264-.898.865-1.888 1.712-2.82.47-.517.708-.852.925-1.274.262-.508.29-.849.268-1.321-.021-.458-.12-.655-.371-.864-.238-.197-.336-.306-1.073-.271-.719.034-1.072-.01-1.416-.175-.266-.129-.361-.274-.279-.43.428-.334.579-.7 1.049-.87-.689-.588-1.369-1.202-1.393-2.08.048-.47.483-.357.483-.357.682.138 1.387.277 2.029.299.185-.025.379-.074.433-.109.053-.035.199-.243.323-.463.484-.855.997-1.408 1.571-1.692.662-.328 1.598-.504 2.487-.466 1.069.045 1.976.415 2.718 1.106.51.476.847.594 1.331.469.341-.088.349-.087.349.019 0 .141-.112.323-.284.462l-.159.128.16.095c.22.131.194.236-.068.274-.218.031-.382.104-.382.169 0 .023.031.222.07.443.094.541.06 1.591-.067 2.108-.198.803-.498 1.368-1.01 1.905-.398.362-1.523 1.105-1.629 1.171.049 0 .48-.025.769 0 1.056.094 1.792.272 2.852.766 1 .467 1.428.517 1.982.234.354-.18.86-.566 1.239-1.076.324-.436.517-.621.817-.621.295 0 .506.194.729.534.316.482.488.826.61 1.665.088.6.063 2.01-.046 2.606-.648 3.574-2.929 5.98-6.412 6.764-.94.211-1.318.249-2.621.263-.676.007-1.306.005-1.401-.005" fill="#fff" stroke-width=".696"/>

   xmlns:dc="http://purl.org/dc/elements/1.1/"
   xmlns:cc="http://creativecommons.org/ns#"
   xmlns:rdf="http://www.w3.org/1999/02/22-rdf-syntax-ns#"
   xmlns:svg="http://www.w3.org/2000/svg"
   xmlns="http://www.w3.org/2000/svg"
   xmlns:xlink="http://www.w3.org/1999/xlink"
   xmlns:sodipodi="http://sodipodi.sourceforge.net/DTD/sodipodi-0.dtd"
   xmlns:inkscape="http://www.inkscape.org/namespaces/inkscape"
   height="32"
   width="32"
   version="1"
   id="svg8"
   sodipodi:docname="snow-top-3.svg"
   inkscape:version="0.92.1 r"&gt;
  <path fill="#00000f" fill-opacity="0" d="m0 0h32v32h-32z" id="0"/><path d="m7.354 6.111c-2.995 2.684-1.381 7.817-3.674 8.291-2.031.613-3.541-1.385-3.66-4.503-.35-8.627 3.911-9.427 6.879-9.524 28.342-2.047 1.762 4.92.455 5.736" fill="url(#1)"/><use xlink:href="#0"/></svg>