<svg xmlns="http://www.w3.org/2000/svg" viewBox="0 0 32 32"><defs><linearGradient gradientTransform="matrix(2.54182 0 0 2.58531-153.47-277.37)" id="0" x1="67.894" y1="108.69" x2="67.854" y2="113.11" gradientUnits="userSpaceOnUse"><stop stop-color="#f9f9f9"/><stop offset="1" stop-color="#999"/></linearGradient></defs><rect width="28.2" height="28.2" x="1.898" y="1.898" fill="#32867d" fill-rule="evenodd" rx="5.575"/><g transform="translate(.5.549)" fill="#7dff7c"><path d="m9.04 13c-.575 0-1.044.53-1.044 1.183v4.63c0 .653.469 1.186 1.044 1.186.575 0 .956-.533.956-1.186v-4.63c0-.654-.38-1.184-.956-1.184"/><path d="m11 13v8.5c0 .236.264.5.5.5h1.5v1.875c0 .622.396 1.125 1 1.125.6 0 1.02-.504 1-1.125v-1.875h1v1.875c0 .622.396 1.125 1 1.125.6 0 1-.512 1-1.125v-1.875h1.5c.236 0 .5-.264.5-.5v-8.5z"/><path d="m22.04 13c-.575 0-1.044.53-1.044 1.183v4.63c0 .653.469 1.186 1.044 1.186.575 0 .956-.533.956-1.186v-4.63c0-.654-.38-1.184-.956-1.184"/><path d="m12.865 5.902l-.865.5 1.197 2.074c-2.188 1.057-2.197 3.523-2.197 3.523h9c0 0-.01-2.467-2.197-3.523l1.197-2.074-.865-.5-1.295 2.242c-.397-.089-.835-.145-1.338-.145-.504 0-.944.056-1.342.145l-1.295-2.242m.637 4.098c.277 0 .498.223.498.498 0 .275-.224.502-.498.502-.277 0-.502-.224-.502-.502 0-.275.225-.498.502-.498m4 0c.277 0 .498.223.498.498 0 .275-.224.502-.498.502-.277 0-.502-.224-.502-.502 0-.275.225-.498.502-.498"/></g>

   xmlns:dc="http://purl.org/dc/elements/1.1/"
   xmlns:cc="http://creativecommons.org/ns#"
   xmlns:rdf="http://www.w3.org/1999/02/22-rdf-syntax-ns#"
   xmlns:svg="http://www.w3.org/2000/svg"
   xmlns="http://www.w3.org/2000/svg"
   xmlns:xlink="http://www.w3.org/1999/xlink"
   xmlns:sodipodi="http://sodipodi.sourceforge.net/DTD/sodipodi-0.dtd"
   xmlns:inkscape="http://www.inkscape.org/namespaces/inkscape"
   height="32"
   width="32"
   version="1"
   id="svg8"
   sodipodi:docname="snow-top-2.svg"
   inkscape:version="0.92.1 r"&gt;
  <path d="m24.646 6.111c2.995 2.684 1.381 7.817 3.674 8.291 2.031.613 3.541-1.385 3.66-4.503.35-8.627-3.911-9.427-6.879-9.524-28.342-2.047-1.762 4.92-.455 5.736" fill="url(#0)"/></svg>