<svg xmlns="http://www.w3.org/2000/svg" viewBox="0 0 32 32"><defs><linearGradient gradientTransform="matrix(2.59244 0 0 2.58531-157.93-277.73)" id="0" x1="67.894" y1="108.69" x2="67.854" y2="113.11" gradientUnits="userSpaceOnUse"><stop stop-color="#f9f9f9"/><stop offset="1" stop-color="#999"/></linearGradient></defs><rect width="28.2" height="28.2" x="1.898" y="1.898" fill="#865e90" fill-rule="evenodd" rx="5.575"/><path d="m9 14.496c-.456-.136-2 1-2 1 .82-3.035 6-5.998 6-5.998-.501-.185-3 0-3 0 3.691-3.586 9-1.999 9-1.999.136-.783 2-1.999 2-1.999-.228.229 0 1.499 0 1.499.228-.414 1-.499 1-.499-.41.965-.383 2.909-.383 2.909 1.184 1.197 2.505 5.339 2.505 5.339l.502.736c.638.921.378 2.366-.254 2.709-1.771 1.059-2.572-1.051-2.572-1.051-1.959-.23-3.801-2.645-3.801-2.645-2.489 1.405.327 5.864 1.468 7.359 1.465 1.916-.467 4.636-.467 4.636 0 0-5 .352-8.75-3.497-1.846-1.977-3.256-4.184-1.255-8.499" fill="#a1a1d7"/>

   xmlns:dc="http://purl.org/dc/elements/1.1/"
   xmlns:cc="http://creativecommons.org/ns#"
   xmlns:rdf="http://www.w3.org/1999/02/22-rdf-syntax-ns#"
   xmlns:svg="http://www.w3.org/2000/svg"
   xmlns="http://www.w3.org/2000/svg"
   xmlns:xlink="http://www.w3.org/1999/xlink"
   xmlns:sodipodi="http://sodipodi.sourceforge.net/DTD/sodipodi-0.dtd"
   xmlns:inkscape="http://www.inkscape.org/namespaces/inkscape"
   version="1"
   width="32"
   height="32"
   id="svg12"
   sodipodi:docname="snow-top-4.svg"
   inkscape:version="0.92.1 r"&gt;
  <path d="m7.196.009c-8.161-.339-9.231 9.523-3.968 9.505.669.003 1.581-.197 2.929-1.471 3.773-4.147 9.01 4.479 14.696-1.042.61-.911 1.804-1.135 2.455-.627 1.045.677 2.87 2.991 3.88 3 2.359.513 4.095-.198 4.816-3.188.185-3.165-2.303-6.286-6.281-6.17-5.832.133-12.809-.045-18.527-.01" fill="url(#0)"/></svg>