<svg xmlns="http://www.w3.org/2000/svg" xmlns:xlink="http://www.w3.org/1999/xlink" viewBox="0 0 32 32"><defs><linearGradient xlink:href="#3" id="4" gradientUnits="userSpaceOnUse" x1="27.558" y1="-133.46" x2="22.09" y2="-134.43"/><linearGradient xlink:href="#3" id="2" gradientUnits="userSpaceOnUse" x1="15.879" y1="-141.91" x2="30.32" y2="-129.74"/><linearGradient id="3"><stop stop-color="#55c03f"/><stop offset="1" stop-color="#198b26"/></linearGradient><linearGradient id="1"><stop stop-color="#f9f9f9"/><stop offset="1" stop-color="#999"/></linearGradient><linearGradient xlink:href="#1" id="0" gradientUnits="userSpaceOnUse" x1="17.658" y1="-133.51" x2="15.02" y2="-125.58"/><radialGradient xlink:href="#1" id="5" cx="-176.59" cy="-120.91" r="3.01" gradientUnits="userSpaceOnUse" gradientTransform="matrix(2.21087.05719-.05496 2.12455 412.97 145.84)"/></defs><rect width="28.2" height="28.2" x="1.898" y="1.898" fill="#48cac2" fill-rule="evenodd" rx="5.575"/><path d="m15.395811 5.4997a2 2 0 0 0 -1.9375 1.5117c-.999.549-1.839 1.498-2.473 2.639-.437.786-.787 1.685-1.051 2.66-.873.507-1.651 1.078-2.297 1.703-1.494 1.446-2.386 3.271-1.902 5.074.483 1.803 2.169 2.94 4.186 3.445.237.059.482.109.73.152.106.228.216.451.334.664 1.01 1.818 2.544 3.151 4.411 3.151 1.867 0 3.4-1.333 4.41-3.15.437-.786.787-1.685 1.051-2.66.873-.507 1.651-1.078 2.297-1.703.476-.461.882-.963 1.211-1.488a2 2 0 0 0 .031 .002 2 2 0 0 0 2 -2 2 2 0 0 0 -1.463 -1.924c-.595-1.605-2.177-2.637-4.062-3.109-.237-.06-.482-.109-.731-.153-.106-.228-.216-.451-.334-.664-.633-1.14-1.474-2.089-2.472-2.638a2 2 0 0 0 -1.938 -1.5117m-1.32655 3.4935a2 2 0 0 0 1.326 .5059 2 2 0 0 0 1.316 -.498c.362.27.719.637 1.053 1.139-1.249.021-2.573.203-3.922.564-.462.124-.907.269-1.342.424.079-.167.148-.355.232-.508.412-.741.868-1.277 1.336-1.627m3.551 3.15c.381-.012.736.011 1.092.033.417 1.245.683 2.721.683 4.323 0 1.01-.117 1.957-.295 2.844-.81.401-1.697.759-2.67 1.02-1.547.415-3.041.54-4.352.459-.418-1.244-.684-2.72-.684-4.322 0-1.01.117-1.957.295-2.844.81-.401 1.697-.759 2.67-1.02 1.128-.302 2.235-.46 3.26-.492zm3.305.422c1.074.361 1.739.909 2.047 1.531a2 2 0 0 0 -.577 1.403 2 2 0 0 0 .25586 .97656c-.224.35-.513.71-.889 1.074-.125.121-.289.236-.429.355.037-.461.062-.927.062-1.406 0-1.396-.167-2.722-.471-3.934m-5.52909.93404a3 3 0 0 0 -3 3 3 3 0 0 0 3 3 3 3 0 0 0 3 -3 3 3 0 0 0 -3 -3m-5.938 1.594c-.037.461-.062.927-.062 1.406 0 1.396.167 2.722.471 3.934-1.264-.425-1.994-1.103-2.198-1.864-.231-.864.176-1.975 1.359-3.121.125-.121.289-.236.429-.355m8.832 6.778c-.079.167-.148.355-.232.508-.8 1.44-1.768 2.121-2.662 2.121-.788 0-1.632-.531-2.369-1.641 1.249-.021 2.573-.203 3.922-.564.462-.124.907-.269 1.342-.424" fill="#fff"/><path d="m15.395811 5.4997a2 2 0 0 0 -2 2 2 2 0 0 0 2 2 2 2 0 0 0 2 -2 2 2 0 0 0 -2 -2m0 8a3 3 0 0 0 -3 3 3 3 0 0 0 3 3 3 3 0 0 0 3 -3 3 3 0 0 0 -3 -3m9 0a2 2 0 0 0 -2 2 2 2 0 0 0 2 2 2 2 0 0 0 2 -2 2 2 0 0 0 -2 -2" fill="#4c4c4c"/><g transform="translate(-.916 143.06)"><path d="m15.583-142.61c-5.577-1.531-5.951 3.24-4.58 5.493 4.381 6.983 6.796 6.577 9.398 7.895 1.712 2.064 3.451 3.4 6.469 4.1 11.69 1.559 3.242-8.417.92-8.649-5.065.012-7.547-6.123-12.206-8.838" fill="url(#0)"/><path d="m15.583-142.61c3.76.276 5.616-.626 8.93-.421 4.319.283 8.307 2.053 7.838 6.574-.347 2.567-.37 2.25.186 4.296.532 1.535-.252 4.232-.487 4.654-2.715 4.963-1.536 4.965-2.656 7.742l-.906-.418-2.508-11.358c-7.177-.909-10.754-10.11-10.398-11.07" fill="url(#2)"/><path d="m22.374-132.67c.362.274 1.553-5.105 1.172-5.653 1.379 2.44 1.919 4.616 2.435 6.783-1.276-.283-2.289-.554-3.607-1.13" fill="url(#4)"/><circle r="3.01" cy="-119.45" cx="29.06" fill="url(#5)"/></g></svg>