<svg xmlns="http://www.w3.org/2000/svg" xmlns:xlink="http://www.w3.org/1999/xlink" viewBox="0 0 32 32"><defs><linearGradient xlink:href="#3" id="4" gradientUnits="userSpaceOnUse" x1="27.558" y1="-133.46" x2="22.09" y2="-134.43"/><linearGradient xlink:href="#3" id="2" gradientUnits="userSpaceOnUse" x1="15.879" y1="-141.91" x2="30.32" y2="-129.74"/><linearGradient id="3"><stop stop-color="#55c03f"/><stop offset="1" stop-color="#198b26"/></linearGradient><linearGradient id="1"><stop stop-color="#f9f9f9"/><stop offset="1" stop-color="#999"/></linearGradient><linearGradient xlink:href="#1" id="0" gradientUnits="userSpaceOnUse" x1="17.658" y1="-133.51" x2="15.02" y2="-125.58"/><radialGradient xlink:href="#1" id="5" cx="-176.59" cy="-120.91" r="3.01" gradientUnits="userSpaceOnUse" gradientTransform="matrix(2.21087.05719-.05496 2.12455 412.97 145.84)"/></defs><g fill-rule="evenodd"><rect width="28.2" height="28.2" x="1.898" y="1.898" fill="#1da6e8" rx="5.575"/><circle cx="22.24" cy="22.1" r="5" fill="#cc5e55" stroke-width=".625"/></g><path d="m21.612 19.602l-.055.659a1.964313 1.964313 0 0 0 -.57407 .332037l-.598-.282-.625 1.083.543.377a1.964313 1.964313 0 0 0 -.03 .331332 1.964313 1.964313 0 0 0 .02856 .332731l-.542.376.625 1.083.597-.281a1.964313 1.964313 0 0 0 .575469 .329937l.055.66h1.25l.055-.659a1.964313 1.964313 0 0 0 .574087 -.332037l.598.282.625-1.083-.543-.377a1.964313 1.964313 0 0 0 .03 -.331331 1.964313 1.964313 0 0 0 -.02856 -.332732l.542-.376-.625-1.083-.597.281a1.964313 1.964313 0 0 0 -.575625 -.33l-.055-.66h-1.25m.624807 1.7858a.714313 .714313 0 0 1 .714375 .714375 .714313 .714313 0 0 1 -.714375 .714375 .714313 .714313 0 0 1 -.714375 -.714375 .714313 .714313 0 0 1 .71425 -.71425" fill="#fff" stroke-width=".625"/><g stroke-width=".933"><path d="m8.194 17.289c.385.267.741.592 1.066.978l-.578.71c-.356-.444-.726-.815-1.111-1.11l.622-.578m0 2.799c.355.267.696.563 1.022.889l-.578.755c-.326-.415-.681-.771-1.067-1.067l.622-.578m.178 3.066l.711.489c-.356 1.214-.874 2.384-1.555 3.51l-.755-.578c.681-1.096 1.215-2.237 1.6-3.422m2.088-6.22l.844.178c-.059.296-.148.578-.267.844h3.466v.8h-3.821l-.4.667c-.119.237-.311.489-.578.755l-.533-.622c.563-.681.992-1.555 1.289-2.622m-.222 2.755h4.088c0 .918-.015 1.777-.045 2.577h.578v.8h-.622c-.059.622-.104 1.229-.133 1.822h.667v.755h-.755c-.119 1.037-.534 1.556-1.245 1.556-.178 0-.43-.03-.755-.089l-.133-.755c.385.059.681.089.889.089.207 0 .341-.267.4-.8h-3.466c.118-.8.222-1.659.311-2.577h-.622v-.8h.711c.059-.829.104-1.689.133-2.577m.667 2.577h2.533c.03-.622.045-1.229.045-1.822h-2.444c-.03.652-.074 1.259-.133 1.822m1.112-1.599c.326.207.622.444.889.711l-.533.667c-.265-.296-.561-.563-.886-.8l.533-.578m1.244 4.221c.059-.622.104-1.229.133-1.822h-2.533c-.059.652-.133 1.259-.222 1.822h2.622m-1.377-1.6c.355.207.681.444.978.711l-.578.667c-.296-.326-.607-.607-.933-.844l.533-.533m-4.666-5.288v6.976h-.8v-.755h-.755v1.155h-.8v-7.376h2.355m-1.555 5.465h.755v-4.71h-.755v4.71" fill="#1475a3"/><path d="m21.388 10.817l.252-.945c.283-1.023.551-2.22.803-3.306h.063c.268 1.07.551 2.283.834 3.306l.236.945h-2.188m3.292 4.25h2.456l-3.212-10.264h-2.786l-3.212 10.264h2.361l.63-2.44h3.133l.63 2.44" fill="#fff"/></g><g transform="translate(-.916 143.06)"><path d="m15.583-142.61c-5.577-1.531-5.951 3.24-4.58 5.493 4.381 6.983 6.796 6.577 9.398 7.895 1.712 2.064 3.451 3.4 6.469 4.1 11.69 1.559 3.242-8.417.92-8.649-5.065.012-7.547-6.123-12.206-8.838" fill="url(#0)"/><path d="m15.583-142.61c3.76.276 5.616-.626 8.93-.421 4.319.283 8.307 2.053 7.838 6.574-.347 2.567-.37 2.25.186 4.296.532 1.535-.252 4.232-.487 4.654-2.715 4.963-1.536 4.965-2.656 7.742l-.906-.418-2.508-11.358c-7.177-.909-10.754-10.11-10.398-11.07" fill="url(#2)"/><path d="m22.374-132.67c.362.274 1.553-5.105 1.172-5.653 1.379 2.44 1.919 4.616 2.435 6.783-1.276-.283-2.289-.554-3.607-1.13" fill="url(#4)"/><circle r="3.01" cy="-119.45" cx="29.06" fill="url(#5)"/></g></svg>