<svg xmlns="http://www.w3.org/2000/svg" viewBox="0 0 32 32"><defs><linearGradient gradientTransform="matrix(2.62891 0 0 2.71269-160.16-291.42)" id="0" x1="67.894" y1="108.69" x2="67.854" y2="113.11" gradientUnits="userSpaceOnUse"><stop stop-color="#f9f9f9"/><stop offset="1" stop-color="#999"/></linearGradient></defs><path d="m7.475 1.898c-3.089 0-5.576 2.486-5.576 5.574v5.381c.114-.264.053-.274.203-.549.389-.71.905-1.421 1.576-1.953.336-.266.71-.487 1.127-.643.417-.155.878-.244 1.385-.244.642 0 1.176.194 1.631.537.455.343.831.832 1.154 1.42.646 1.175 1.082 2.743 1.525 4.313.443 1.569.894 3.14 1.57 4.322.338.591.735 1.086 1.213 1.434.478.348 1.04.548 1.713.555.837.008 1.634-.249 2.416-.641.782-.392 1.547-.917 2.314-1.443.768-.526 1.537-1.054 2.332-1.449.795-.396 1.613-.66 2.477-.66 1.727 0 3.196.415 4.232.83.843.338 1.155.562 1.334.676v-11.885c0-3.089-2.486-5.574-5.574-5.574z" fill="#4f4f4f" fill-rule="evenodd"/><g fill-opacity=".253"><path d="m1.899 18.76h28.2v2h-28.2z"/><path d="m1.899 6.176h28.2v2h-28.2z"/><path d="m1.899 14.176h28.2v2h-28.2z"/><path d="m1.899 10.176h28.2v2h-28.2z"/></g><path d="m30.1 19.357c-.179-.114-.491-.338-1.334-.676-1.036-.415-2.506-.83-4.232-.83-.863 0-1.682.264-2.477.66-.795.396-1.565.923-2.332 1.449-.768.526-1.533 1.052-2.314 1.443-.782.392-1.579.649-2.416.641-.673-.006-1.235-.207-1.713-.555-.478-.348-.875-.843-1.213-1.434-.677-1.182-1.127-2.753-1.57-4.322-.443-1.569-.879-3.137-1.525-4.313-.323-.588-.699-1.077-1.154-1.42-.455-.343-.989-.537-1.631-.537-.506 0-.967.089-1.385.244-.417.155-.791.376-1.127.643-.672.532-1.187 1.243-1.576 1.953-.15.275-.089.285-.203.549v11.672c0 3.089 2.488 5.576 5.576 5.576h17.05c3.089 0 5.574-2.488 5.574-5.576z" fill="#47da72" fill-rule="evenodd"/><path d="m6.834 5.472c4.936 0 3.29 11.95 8.461 12 3.216.031 5.848-4 9.166-4 3.318 0 5.64 1.584 5.64 1.584v1c0 0-2.322-1.584-5.64-1.584-3.318 0-5.95 4.03-9.166 4-5.171-.05-3.526-12-8.461-12-3.892 0-4.936 5.416-4.936 5.416v-1c0 0 1.044-5.416 4.936-5.416" fill="#808080"/>

   xmlns:dc="http://purl.org/dc/elements/1.1/"
   xmlns:cc="http://creativecommons.org/ns#"
   xmlns:rdf="http://www.w3.org/1999/02/22-rdf-syntax-ns#"
   xmlns:svg="http://www.w3.org/2000/svg"
   xmlns="http://www.w3.org/2000/svg"
   xmlns:xlink="http://www.w3.org/1999/xlink"
   xmlns:sodipodi="http://sodipodi.sourceforge.net/DTD/sodipodi-0.dtd"
   xmlns:inkscape="http://www.inkscape.org/namespaces/inkscape"
   version="1"
   width="32"
   height="32"
   id="svg12"
   sodipodi:docname="snow-top-1.svg"
   inkscape:version="0.92.1 r"&gt;
  <path d="m7.288.009c-8.276-.356-9.36 9.992-4.02 9.973.679.003 1.604-.207 2.97-1.543 7.256-10.531 14.706 3.573 17.53.919 1.71-1.912 3.496-.418 4.448.115 2.1.643 3.662.041 3.785-3.231.188-3.321-1.889-6.344-5.923-6.223-5.914.14-12.989-.047-18.787-.01" fill="url(#0)"/><path fill="#f00" fill-opacity="0" d="m0 0h32v32h-32z"/></svg>