<svg xmlns="http://www.w3.org/2000/svg" viewBox="0 0 32 32"><rect width="28.2" height="28.2" x="1.898" y="1.898" fill="#02a8f3" fill-rule="evenodd" rx="5.575"/><path d="m16 6c-5.523 0-10 4.477-10 10 .005 5.132 3.894 9.426 9 9.939v.061h1c5.523 0 10-4.477 10-10 0-5.523-4.477-10-10-10m1 2.07c.251.032.5.075.746.131.149.252.792 1.392 1.389 3.119-.628.074-1.342.127-2.135.154m-2-3.402v3.402c-.793-.027-1.507-.081-2.135-.154.595-1.725 1.236-2.862 1.387-3.117.247-.055.497-.099.748-.131m5.58 1.373c.536.377 1.024.818 1.453 1.314-.223.066-.521.144-.879.225-.183-.566-.379-1.071-.574-1.539zm-9.166.01c-.193.465-.386.967-.568 1.529-.36-.081-.661-.158-.885-.225.429-.493.917-.931 1.453-1.305m-2.594 3.037c.188.068.672.219 1.527.414-.172.823-.299 2.189-.332 3.094h-1.99c.066-1.045.336-2.567.795-3.508m14.363 0c.461.941.732 2.463.799 3.508h-1.998c-.033-.905-.16-2.271-.332-3.094.859-.196 1.345-.347 1.531-.414m-10.861.764c.782.105 1.676.18 2.678.215v2.529h-2.984c.034-.773.15-2.026.307-2.744m7.355 0c.156.718.272 1.971.307 2.744h-2.984v-2.529c1-.035 1.896-.11 2.678-.215m-11.529 4.744h1.938c.105.989.311 1.412.553 2.273-.441.136-.816.27-1.125.395-.68-.944-1.146-1.525-1.365-2.668m3.951 0h2.9v1.541c-.881.045-1.69.134-2.406.264-.209-.724-.392-.992-.494-1.805m4.9 0h2.9c-.103.813-.285 1.081-.494 1.805-.716-.13-1.526-.219-2.406-.264m4.914-1.541h1.939c-.219 1.143-.685 1.724-1.365 2.668-.309-.125-.685-.259-1.127-.395.242-.861.448-1.284.553-2.273m-6.914 3.539v2.391c-.251-.032-.5-.075-.746-.131-.117-.199-.521-.908-1.01-2.094.524-.08 1.12-.133 1.752-.166m2 0c.632.033 1.228.086 1.752.166-.484 1.183-.885 1.891-1 2.092-.247.055-.497.099-.748.131m-5.742-1.777c.055.142.107.273.162.406-.145-.103-.286-.21-.424-.322.086-.028.168-.056.262-.084zm9.484 0c.096.029.18.057.268.086-.138.107-.279.21-.424.309.054-.129.103-.257.156-.395" fill="#fff"/><g transform="matrix(.625 0 0 .625 7.944 8.193)"><circle r="8" cy="23" cx="24" fill="#cc5e55" fill-rule="evenodd"/><path d="m23 19l-.088 1.054a3.1429 3.1429 0 0 0 -.91852 .53126l-.958-.451-1 1.732.869.604a3.1429 3.1429 0 0 0 -.048 .53013 3.1429 3.1429 0 0 0 .0457 .53237l-.867.602 1 1.732.955-.45a3.1429 3.1429 0 0 0 .92075 .5279l.088 1.056h2l.088-1.054a3.1429 3.1429 0 0 0 .91854 -.53126l.958.451 1-1.732-.869-.604a3.1429 3.1429 0 0 0 .048 -.53013 3.1429 3.1429 0 0 0 -.0457 -.53237l.867-.602-1-1.732-.955.45a3.1429 3.1429 0 0 0 -.921 -.528l-.088-1.056h-2m1.00005 2.8575a1.1429 1.1429 0 0 1 1.143 1.143 1.1429 1.1429 0 0 1 -1.143 1.143 1.1429 1.1429 0 0 1 -1.143 -1.143 1.1429 1.1429 0 0 1 1.143 -1.143" fill="#fff"/></g>

   xmlns:dc="http://purl.org/dc/elements/1.1/"
   xmlns:cc="http://creativecommons.org/ns#"
   xmlns:rdf="http://www.w3.org/1999/02/22-rdf-syntax-ns#"
   xmlns:svg="http://www.w3.org/2000/svg"
   xmlns="http://www.w3.org/2000/svg"
   xmlns:sodipodi="http://sodipodi.sourceforge.net/DTD/sodipodi-0.dtd"
   xmlns:inkscape="http://www.inkscape.org/namespaces/inkscape"
   height="32"
   width="32"
   version="1"
   id="svg8"
   sodipodi:docname="star-mime-2.svg"
   inkscape:version="0.92.1 r"&gt;
  <g transform="translate(152.47 194.05)" fill="#fff"><path d="m-125.38-193.25l-.077 3.548 3.072 1.831-3.548-.077-3.135 6.791 1.38-7.268-3.072-1.831 3.548.077z"/><path d="m-125.41-183.04l.042-1.955-1.692-1.01 1.955.042 1.727-3.741-.76 4 1.692 1.01-1.955-.042z"/></g></svg>