<svg xmlns="http://www.w3.org/2000/svg" xmlns:xlink="http://www.w3.org/1999/xlink" viewBox="0 0 32 32"><defs><linearGradient id="4" x1="-178.12" y1="-134.12" x2="-183.59" y2="-135.1" gradientUnits="userSpaceOnUse"><stop stop-color="#7c0000"/><stop offset="1" stop-color="#7c0000" stop-opacity="0"/></linearGradient><linearGradient id="3" x1="-189.8" y1="-142.57" x2="-175.35" y2="-130.4" gradientUnits="userSpaceOnUse"><stop stop-color="#ff383f"/><stop offset="1" stop-color="#a02d26"/></linearGradient><linearGradient id="2"><stop stop-color="#f9f9f9"/><stop offset="1" stop-color="#999"/></linearGradient><linearGradient xlink:href="#2" id="1" x1="-188.02" y1="-134.18" x2="-190.66" y2="-126.24" gradientUnits="userSpaceOnUse"/><radialGradient xlink:href="#2" id="5" cx="-176.59" cy="-120.91" r="3.01" gradientUnits="userSpaceOnUse" gradientTransform="matrix(2.21087.05719-.05496 2.12455 207.3 145.17)"/></defs><rect width="28.2" height="28.2" x="1.898" y="1.898" fill="#19979d" fill-rule="evenodd" rx="5.575"/><path d="m10.869 11c-.634 0-1.265.127-1.853.375-.588.248-1.125.614-1.578 1.076-.453.462-.817 1.015-1.064 1.623-.247.608-.373 1.264-.373 1.924 0 .66.126 1.316.373 1.924.247.608.611 1.159 1.064 1.621.453.462.99.828 1.578 1.076.574.243 1.191.367 1.81.373.015.001.028.001.043.002 1.507.071 2.72-.526 3.609-1.395.608-.594 1.086-1.295 1.521-2.01.436.714.914 1.416 1.521 2.01.889.868 2.102 1.466 3.609 1.395.015-.001.028-.001.043-.002.62-.005 1.236-.13 1.811-.373.588-.248 1.125-.614 1.578-1.076l.004-.006c.452-.461.815-1.01 1.061-1.615.247-.608.373-1.264.373-1.924 0-.66-.126-1.316-.373-1.924l-.006-.01c-.247-.604-.608-1.153-1.059-1.613-.453-.462-.99-.828-1.578-1.076-.587-.248-1.219-.375-1.853-.375-1.588 0-2.842.652-3.768 1.561-.535.524-.969 1.124-1.363 1.738-.394-.614-.828-1.214-1.363-1.738-.926-.909-2.18-1.561-3.768-1.561m.181 2c1.129 0 1.849.38 2.51 1.012.524.5.984 1.182 1.44 1.924-.52.867-1.023 1.66-1.588 2.197-.623.592-1.266.919-2.32.861h-.041c-.402 0-.808-.08-1.178-.232-.365-.15-.701-.374-.979-.646l-.012-.01c-.28-.278-.507-.613-.656-.972-.15-.359-.227-.75-.227-1.137 0-.387.077-.778.227-1.137.15-.359.376-.693.656-.971l.012-.012c.278-.273.614-.495.979-.645.37-.152.776-.232 1.178-.232m9.898 0c.402 0 .808.08 1.178.232.365.15.701.372.979.645l.012.012c.28.278.506.612.656.971.15.358.227.749.227 1.136 0 .387-.077.778-.227 1.137-.15.359-.376.695-.656.973l-.012.01c-.278.273-.614.496-.979.646-.37.152-.776.232-1.178.232h-.041c-1.054.057-1.698-.269-2.32-.861-.565-.537-1.068-1.33-1.588-2.197.456-.743.915-1.424 1.439-1.924.662-.632 1.382-1.012 2.51-1.012m-.949 1v1h-1v2h1v1h2v-1h1v-2h-1v-1zm-11 1v2h4v-2z" fill="#79ff88"/><path d="m32 .157l-.27 2.221-.122-2.378" fill="#f9f9f9" id="0"/><use xlink:href="#0"/><path d="m32 .113l-.27 1.6-.122-1.713" fill="#f9f9f9"/><g transform="matrix(-1 0 0 1-172.76 143.72)"><path d="m-190.09-143.27c-5.577-1.531-5.951 3.24-4.58 5.493 4.381 6.983 6.796 6.577 9.398 7.895 1.712 2.064 3.451 3.4 6.469 4.1 11.69 1.559 3.242-8.417.92-8.649-5.065.012-7.547-6.123-12.206-8.838" fill="url(#1)"/><path d="m-190.09-143.27c3.76.276 5.616-.626 8.93-.421 4.319.283 8.307 2.053 7.838 6.574-.347 2.567-.37 2.25.186 4.296.532 1.535-.252 4.232-.487 4.654-2.715 4.963-1.536 4.965-2.656 7.742l-.906-.418-2.508-11.358c-7.177-.909-10.754-10.11-10.398-11.07" fill="url(#3)"/><path d="m-183.3-133.33c.362.274 1.553-5.105 1.172-5.653 1.379 2.44 1.919 4.616 2.435 6.783-1.276-.283-2.289-.554-3.607-1.13" fill="url(#4)"/><circle r="3.01" cy="-120.11" cx="-176.61" fill="url(#5)"/></g></svg>