<svg xmlns="http://www.w3.org/2000/svg" viewBox="0 0 32 32" xmlns:xlink="http://www.w3.org/1999/xlink"><defs><linearGradient gradientTransform="matrix(-2.54182 0 0 2.58531 185.47-277.37)" id="1" x1="67.894" y1="108.69" x2="67.854" y2="113.11" gradientUnits="userSpaceOnUse"><stop stop-color="#f9f9f9"/><stop offset="1" stop-color="#999"/></linearGradient></defs><rect width="28.2" height="28.2" x="1.898" y="1.898" fill="#e3ac33" fill-rule="evenodd" rx="5.575"/><g stroke-linejoin="round" stroke-linecap="round"><path d="m16.257 6.01c-.096.287-.186.538-.292.887-.35 1.157-.683 2.578-.679 3.383.004.769.337 2.134.685 3.244.089.284.135.395.211.617.103-.208.149-.321.282-.575.565-1.08 1.271-2.325 2.061-3.122.815-.823 2.098-1.569 3.213-2.165.142-.076.234-.116.368-.186a10.00006 10.00006 0 0 0 -5.848247 -2.08288m-1.530422.080915a10.00006 10.00006 0 0 0 -5.608289 2.65766c.134.268.248.505.419.823.569 1.061 1.333 2.301 1.92 2.892.582.587 1.865 1.398 2.969 2 .169.093.285.148.438.229-.088-.255-.15-.409-.255-.746-.364-1.163-.745-2.543-.751-3.665-.005-1.158.374-2.593.741-3.803.047-.154.082-.248.128-.392zm8.521 3.02c-.272.135-.514.251-.837.424-1.065.57-2.306 1.339-2.873 1.911-.541.546-1.271 1.747-1.809 2.778-.138.263-.183.373-.286.583.212-.072.356-.127.604-.205 1.163-.364 2.543-.745 3.665-.751 1.158-.005 2.593.374 3.803.741.154.047.248.082.392.128a10.00006 10.00006 0 0 0 -2.659056 -5.609687m-15.15215.778464a10.00006 10.00006 0 0 0 -2.08288 5.846852c.283.094.529.181.873.285 1.152.348 2.57.684 3.403.688.827.004 2.308-.331 3.517-.682.129-.038.21-.067.329-.103-.141-.075-.244-.122-.396-.206-1.149-.632-2.471-1.417-3.297-2.25-.821-.829-1.572-2.113-2.167-3.223-.073-.137-.112-.224-.18-.354m13.622 5.391c-.769.004-2.134.337-3.244.685-.26.081-.401.137-.615.209.201.1.342.162.573.283 1.08.565 2.325 1.271 3.122 2.061.823.815 1.569 2.098 2.165 3.213.076.142.116.234.186.368a10.00006 10.00006 0 0 0 2.082882 -5.848248c-.287-.096-.538-.186-.887-.292-1.157-.35-2.578-.683-3.383-.679m-7.086 1.984c-.153.047-.259.085-.427.134-1.26.366-2.749.745-3.922.739-1.167-.005-2.606-.384-3.811-.748-.149-.045-.238-.08-.378-.124a10.00006 10.00006 0 0 0 2.65766 5.611079c.268-.134.505-.248.823-.419 1.061-.569 2.301-1.333 2.892-1.92.587-.582 1.398-1.865 2-2.969.065-.118.103-.197.16-.306zm2.68.233c.032.106.059.178.092.293.366 1.26.745 2.749.739 3.922-.005 1.167-.384 2.606-.748 3.811-.045.149-.08.238-.124.378a10.00006 10.00006 0 0 0 5.612476 -2.659056c-.135-.272-.251-.514-.424-.837-.57-1.065-1.339-2.306-1.911-2.873-.546-.541-1.747-1.271-2.778-1.809-.19-.099-.293-.143-.459-.226m-1.383.363c-.073.138-.122.244-.206.396-.632 1.149-1.417 2.471-2.25 3.297-.829.821-2.113 1.572-3.223 2.167-.137.073-.224.112-.354.18a10.00006 10.00006 0 0 0 5.846852 2.082879c.094-.283.181-.529.285-.873.348-1.152.684-2.57.688-3.403.004-.827-.331-2.308-.682-3.517-.038-.129-.067-.212-.103-.329z" fill="#383838" stroke-width="1.696"/><circle r="4" cy="16" cx="16" fill="#ccc" stroke-width=".678"/></g>

   xmlns:dc="http://purl.org/dc/elements/1.1/"
   xmlns:cc="http://creativecommons.org/ns#"
   xmlns:rdf="http://www.w3.org/1999/02/22-rdf-syntax-ns#"
   xmlns:svg="http://www.w3.org/2000/svg"
   xmlns="http://www.w3.org/2000/svg"
   xmlns:xlink="http://www.w3.org/1999/xlink"
   xmlns:sodipodi="http://sodipodi.sourceforge.net/DTD/sodipodi-0.dtd"
   xmlns:inkscape="http://www.inkscape.org/namespaces/inkscape"
   height="32"
   width="32"
   version="1"
   id="svg8"
   sodipodi:docname="snow-top-3.svg"
   inkscape:version="0.92.1 r"&gt;
  <path fill="#00000f" fill-opacity="0" d="m0 0h32v32h-32z" id="0"/><path d="m7.354 6.111c-2.995 2.684-1.381 7.817-3.674 8.291-2.031.613-3.541-1.385-3.66-4.503-.35-8.627 3.911-9.427 6.879-9.524 28.342-2.047 1.762 4.92.455 5.736" fill="url(#1)"/><use xlink:href="#0"/></svg>