<svg xmlns="http://www.w3.org/2000/svg" viewBox="0 0 32 32"><defs><linearGradient gradientTransform="matrix(2.54182 0 0 2.58531-153.47-277.37)" id="0" x1="67.894" y1="108.69" x2="67.854" y2="113.11" gradientUnits="userSpaceOnUse"><stop stop-color="#f9f9f9"/><stop offset="1" stop-color="#999"/></linearGradient></defs><rect width="28.2" height="28.2" x="1.898" y="1.898" fill="#02a8f3" fill-rule="evenodd" rx="5.575"/><g stroke-width=".852"><path d="m6.533 7.712c-.656 0-1.183.523-1.183 1.172v14.06c0 .649.528.959 1.183.959h10.746l2.556 2.556 2.13-2.556h3.503c.655 0 1.183-.309 1.183-.959v-14.06c0-.649-.527-1.172-1.184-1.172z" fill="#fff"/><path d="m15.999872 10.268105a5.538521 5.538521 0 0 0 -5.538521 5.53852 5.538521 5.538521 0 0 0 5.538521 5.538521 5.538521 5.538521 0 0 0 5.538521 -5.538521 5.538521 5.538521 0 0 0 -5.538521 -5.53852m1.059988.981596a4.686441 4.686441 0 0 1 2.142129 1.1469c-.195.183-.4.356-.625.504-.4-.648-.928-1.21-1.552-1.645.012-.003.024-.003.035-.007m-2.117.002c.01.003.021.003.032.005-.625.435-1.152.996-1.552 1.645-.225-.148-.429-.321-.625-.504a4.686441 4.686441 0 0 1 2.145538 -1.145196m.631.639v1.765c-.493-.044-.965-.163-1.403-.349.36-.567.84-1.048 1.403-1.416m.852 0c.562.368 1.043.849 1.403 1.416-.437.186-.909.304-1.403.349zm-4.191 1.14c.246.229.505.444.791.626-.227.536-.366 1.117-.413 1.724h-1.278a4.686441 4.686441 0 0 1 .900648 -2.350037m7.52898.0017a4.686441 4.686441 0 0 1 .898945 2.348332h-1.276c-.047-.607-.187-1.188-.413-1.724.285-.182.544-.396.791-.625m-5.982 1.03c.556.244 1.159.394 1.791.443v.875h-2.109c.043-.462.152-.904.318-1.318m4.434 0c.166.414.275.856.318 1.318H16.426V14.505c.632-.049 1.236-.199 1.791-.443m-6.881 2.17h1.276c.047.607.187 1.188.413 1.724-.274.176-.615.326-.845.55a4.686441 4.686441 0 0 1 -.844411 -2.273349m2.128 0h2.109v.875c-.632.049-1.236.199-1.791.443-.166-.414-.275-.856-.318-1.318m2.961 0h2.109c-.043.462-.152.904-.318 1.318-.556-.244-1.159-.394-1.791-.443zm2.961 0h1.278a4.686441 4.686441 0 0 1 -.905761 2.355149c-.246-.229-.5-.449-.786-.631.227-.536.366-1.117.413-1.724m-3.813 1.725v1.765c-.562-.368-1.043-.849-1.403-1.416.437-.186.909-.304 1.403-.349m.852 0c.493.044.965.163 1.403.349-.36.567-.84 1.048-1.403 1.416zM13.422 18.712c.4.648.928 1.21 1.552 1.645-.012.003-.024.003-.035.007a4.686441 4.686441 0 0 1 -2.137016 -1.143492c.194-.184.395-.36.619-.508m5.155 0c.224.148.429.321.625.504a4.686441 4.686441 0 0 1 -2.145537 1.145196c-.01-.003-.021-.003-.032-.005.625-.435 1.152-.996 1.552-1.645" fill="#999"/></g>

   xmlns:dc="http://purl.org/dc/elements/1.1/"
   xmlns:cc="http://creativecommons.org/ns#"
   xmlns:rdf="http://www.w3.org/1999/02/22-rdf-syntax-ns#"
   xmlns:svg="http://www.w3.org/2000/svg"
   xmlns="http://www.w3.org/2000/svg"
   xmlns:xlink="http://www.w3.org/1999/xlink"
   xmlns:sodipodi="http://sodipodi.sourceforge.net/DTD/sodipodi-0.dtd"
   xmlns:inkscape="http://www.inkscape.org/namespaces/inkscape"
   height="32"
   width="32"
   version="1"
   id="svg8"
   sodipodi:docname="snow-top-2.svg"
   inkscape:version="0.92.1 r"&gt;
  <path d="m24.646 6.111c2.995 2.684 1.381 7.817 3.674 8.291 2.031.613 3.541-1.385 3.66-4.503.35-8.627-3.911-9.427-6.879-9.524-28.342-2.047-1.762 4.92-.455 5.736" fill="url(#0)"/></svg>