<svg xmlns="http://www.w3.org/2000/svg" viewBox="0 0 32 32"><defs><linearGradient gradientTransform="matrix(2.62891 0 0 2.71269-160.16-291.42)" id="0" x1="67.894" y1="108.69" x2="67.854" y2="113.11" gradientUnits="userSpaceOnUse"><stop stop-color="#f9f9f9"/><stop offset="1" stop-color="#999"/></linearGradient></defs><rect width="28.2" height="28.2" x="1.898" y="1.898" fill="#75676a" fill-rule="evenodd" rx="5.575"/><g fill="#fff"><path d="m17.529 16.268c0 .629-.51 1.139-1.139 1.139-.629 0-1.139-.51-1.139-1.139 0-.629.51-1.142 1.139-1.142.629 0 1.139.513 1.139 1.142"/><path d="m19.364 24.966c-1.498-.246-3.443-1.963-5.22-4.601-.744-1.106-1.506-2.474-2-3.594-.098-.225-.137-.279-.166-.246-.059.062-.495 1.01-.724 1.569-.386.949-.655 1.851-.809 2.719-.101.546-.107 1.601-.015 1.931.213.759.679 1.08 1.406.955.525-.089 1.156-.374 1.83-.831.297-.202.377-.238.492-.238.178 0 .308.095.37.267.042.115.042.151 0 .261-.042.11-.11.172-.424.383-.436.297-1.184.676-1.56.798-.999.32-1.777.202-2.328-.35-.504-.507-.712-1.326-.647-2.47.08-1.486.742-3.517 1.774-5.51l.258-.498-.196-.531c-.19-.507-.557-1.682-.557-1.77 0-.065-.112-.05-.611.071-1.139.279-1.984.638-2.589 1.092-1.192.896-.878 1.904.907 2.909.285.163.35.249.35.462 0 .11-.02.154-.112.246-.196.196-.377.154-.982-.219-.872-.543-1.423-1.156-1.619-1.809-.071-.238-.071-.714 0-.955.101-.347.276-.623.59-.937.7-.706 1.865-1.249 3.461-1.613.326-.074.4-.101.389-.143-.009-.03-.048-.213-.086-.415-.216-1.162-.222-2.497-.015-3.239.24-.851.673-1.361 1.364-1.598.282-.095.848-.08 1.234.036.392.115.872.353 1.299.641.51.341.661.484.682.649.048.38-.341.585-.661.344-1-.744-1.717-1.032-2.293-.91-.418.089-.736.516-.896 1.204-.065.273-.074.403-.074 1.083 0 .774.012.896.151 1.705l.071.406.166-.021c.768-.092 1.43-.157 1.836-.181l.484-.027.08-.095c.818-1.05 2-2.278 2.906-3 1.723-1.382 3.2-1.862 4.217-1.37.575.276.937.845 1.08 1.688.092.549.017 1.851-.125 2.218-.048.125-.207.216-.38.216-.107 0-.163-.021-.246-.098-.101-.086-.107-.112-.107-.288 0-.104.027-.406.059-.667.098-.759.03-1.471-.175-1.877-.104-.199-.308-.409-.49-.495-.134-.068-.207-.077-.516-.077-.333 0-.397.012-.717.125-1.01.344-2.156 1.168-3.396 2.429-.24.243-.59.623-.786.851l-.364.409.311.009c4.359.104 8.03 1.106 9.766 2.66.389.35.727.872.821 1.278.05.207.053.608.003.821-.178.789-1.047 1.569-2.316 2.07-.202.08-.24.086-.353.053-.175-.053-.291-.202-.291-.38 0-.21.098-.311.462-.465.786-.329 1.397-.792 1.628-1.237.083-.151.092-.21.092-.457 0-.252-.009-.302-.11-.492-.14-.273-.605-.739-.991-.994-1.892-1.249-5.459-2.064-9.06-2.064h-.593l-.225.302c-.335.454-1.061 1.56-1.349 2.055l-.255.436.175.403c1.758 4.03 4.487 7.444 6.501 8.126.439.143.771.145 1.035.015.501-.246.767-.884.807-1.946.065-1.783-.575-4.247-1.77-6.794-.125-.264-.199-.465-.199-.54 0-.213.178-.383.397-.38.196 0 .282.077.433.395.969 2.029 1.616 4.066 1.859 5.842.08.596.08 1.815 0 2.251-.131.697-.362 1.198-.712 1.554-.43.43-.985.593-1.643.487m-6.957-10.842c.125-.205.364-.566.534-.812.169-.249.305-.459.305-.475 0-.045-1.554.115-1.598.16-.027.03.062.374.27 1.011.145.462.193.557.225.522.024-.027.143-.207.264-.406"/></g>

   xmlns:dc="http://purl.org/dc/elements/1.1/"
   xmlns:cc="http://creativecommons.org/ns#"
   xmlns:rdf="http://www.w3.org/1999/02/22-rdf-syntax-ns#"
   xmlns:svg="http://www.w3.org/2000/svg"
   xmlns="http://www.w3.org/2000/svg"
   xmlns:xlink="http://www.w3.org/1999/xlink"
   xmlns:sodipodi="http://sodipodi.sourceforge.net/DTD/sodipodi-0.dtd"
   xmlns:inkscape="http://www.inkscape.org/namespaces/inkscape"
   version="1"
   width="32"
   height="32"
   id="svg12"
   sodipodi:docname="snow-top-1.svg"
   inkscape:version="0.92.1 r"&gt;
  <path d="m7.288.009c-8.276-.356-9.36 9.992-4.02 9.973.679.003 1.604-.207 2.97-1.543 7.256-10.531 14.706 3.573 17.53.919 1.71-1.912 3.496-.418 4.448.115 2.1.643 3.662.041 3.785-3.231.188-3.321-1.889-6.344-5.923-6.223-5.914.14-12.989-.047-18.787-.01" fill="url(#0)"/><path fill="#f00" fill-opacity="0" d="m0 0h32v32h-32z"/></svg>