<svg xmlns="http://www.w3.org/2000/svg" viewBox="0 0 32 32" xmlns:xlink="http://www.w3.org/1999/xlink"><defs><linearGradient xlink:href="#3" id="4" gradientUnits="userSpaceOnUse" x1="-23.24" y1="-185.08" x2="-28.704" y2="-186.05"/><linearGradient xlink:href="#3" id="2" gradientUnits="userSpaceOnUse" x1="-34.914" y1="-193.53" x2="-20.469" y2="-181.36"/><linearGradient id="3"><stop stop-color="#ffff5e"/><stop offset="1" stop-color="#f6a32d"/></linearGradient><linearGradient id="1"><stop stop-color="#f9f9f9"/><stop offset="1" stop-color="#999"/></linearGradient><linearGradient xlink:href="#1" id="0" gradientUnits="userSpaceOnUse" x1="-33.14" y1="-185.13" x2="-35.775" y2="-177.2"/><radialGradient xlink:href="#1" id="5" cx="-176.59" cy="-120.91" r="3.01" gradientUnits="userSpaceOnUse" gradientTransform="matrix(2.21087.05719-.05496 2.12455 362.18 94.22)"/></defs><rect width="28.2" height="28.2" x="1.898" y="1.898" fill="#d89b20" fill-rule="evenodd" rx="5.575"/><g transform="matrix(.99997 0 0 1.01748 0-.279)" fill="#fff"><path d="m17.529 16.268c0 .629-.51 1.139-1.139 1.139-.629 0-1.139-.51-1.139-1.139 0-.629.51-1.142 1.139-1.142.629 0 1.139.513 1.139 1.142"/><path d="m19.364 24.966c-1.498-.246-3.443-1.963-5.22-4.601-.744-1.106-1.506-2.474-2-3.594-.098-.225-.137-.279-.166-.246-.059.062-.495 1.01-.724 1.569-.386.949-.655 1.851-.809 2.719-.101.546-.107 1.601-.015 1.931.213.759.679 1.08 1.406.955.525-.089 1.156-.374 1.83-.831.297-.202.377-.238.492-.238.178 0 .308.095.37.267.042.115.042.151 0 .261-.042.11-.11.172-.424.383-.436.297-1.184.676-1.56.798-.999.32-1.777.202-2.328-.35-.504-.507-.712-1.326-.647-2.47.08-1.486.742-3.517 1.774-5.51l.258-.498-.196-.531c-.19-.507-.557-1.682-.557-1.77 0-.065-.112-.05-.611.071-1.139.279-1.984.638-2.589 1.092-1.192.896-.878 1.904.907 2.909.285.163.35.249.35.462 0 .11-.02.154-.112.246-.196.196-.377.154-.982-.219-.872-.543-1.423-1.156-1.619-1.809-.071-.238-.071-.714 0-.955.101-.347.276-.623.59-.937.7-.706 1.865-1.249 3.461-1.613.326-.074.4-.101.389-.143-.009-.03-.048-.213-.086-.415-.216-1.162-.222-2.497-.015-3.239.24-.851.673-1.361 1.364-1.598.282-.095.848-.08 1.234.036.392.115.872.353 1.299.641.51.341.661.484.682.649.048.38-.341.585-.661.344-1-.744-1.717-1.032-2.293-.91-.418.089-.736.516-.896 1.204-.065.273-.074.403-.074 1.083 0 .774.012.896.151 1.705l.071.406.166-.021c.768-.092 1.43-.157 1.836-.181l.484-.027.08-.095c.818-1.05 2-2.278 2.906-3 1.723-1.382 3.2-1.862 4.217-1.37.575.276.937.845 1.08 1.688.092.549.017 1.851-.125 2.218-.048.125-.207.216-.38.216-.107 0-.163-.021-.246-.098-.101-.086-.107-.112-.107-.288 0-.104.027-.406.059-.667.098-.759.03-1.471-.175-1.877-.104-.199-.308-.409-.49-.495-.134-.068-.207-.077-.516-.077-.333 0-.397.012-.717.125-1.01.344-2.156 1.168-3.396 2.429-.24.243-.59.623-.786.851l-.364.409.311.009c4.359.104 8.03 1.106 9.766 2.66.389.35.727.872.821 1.278.05.207.053.608.003.821-.178.789-1.047 1.569-2.316 2.07-.202.08-.24.086-.353.053-.175-.053-.291-.202-.291-.38 0-.21.098-.311.462-.465.786-.329 1.397-.792 1.628-1.237.083-.151.092-.21.092-.457 0-.252-.009-.302-.11-.492-.14-.273-.605-.739-.991-.994-1.892-1.249-5.459-2.064-9.06-2.064h-.593l-.225.302c-.335.454-1.061 1.56-1.349 2.055l-.255.436.175.403c1.758 4.03 4.487 7.444 6.501 8.126.439.143.771.145 1.035.015.501-.246.767-.884.807-1.946.065-1.783-.575-4.247-1.77-6.794-.125-.264-.199-.465-.199-.54 0-.213.178-.383.397-.38.196 0 .282.077.433.395.969 2.029 1.616 4.066 1.859 5.842.08.596.08 1.815 0 2.251-.131.697-.362 1.198-.712 1.554-.43.43-.985.593-1.643.487m-6.957-10.842c.125-.205.364-.566.534-.812.169-.249.305-.459.305-.475 0-.045-1.554.115-1.598.16-.027.03.062.374.27 1.011.145.462.193.557.225.522.024-.027.143-.207.264-.406"/></g><g transform="translate(49.877 194.68)"><path d="m-35.21-194.22c-5.577-1.531-5.951 3.24-4.58 5.493 4.381 6.983 6.796 6.577 9.398 7.895 1.712 2.064 3.451 3.4 6.469 4.1 11.69 1.559 3.242-8.417.92-8.649-5.065.012-7.547-6.123-12.206-8.838" fill="url(#0)"/><path d="m-35.21-194.22c3.76.276 5.616-.626 8.93-.421 4.319.283 8.307 2.053 7.838 6.574-.347 2.567-.37 2.25.186 4.296.532 1.535-.252 4.232-.487 4.654-2.715 4.963-1.536 4.965-2.656 7.742l-.906-.418-2.508-11.358c-7.177-.909-10.754-10.11-10.398-11.07" fill="url(#2)"/><path d="m-28.419-184.29c.362.274 1.553-5.105 1.172-5.653 1.379 2.44 1.919 4.616 2.435 6.783-1.276-.283-2.289-.554-3.607-1.13" fill="url(#4)"/><circle r="3.01" cy="-171.07" cx="-21.728" fill="url(#5)"/></g></svg>