<svg xmlns="http://www.w3.org/2000/svg" xmlns:xlink="http://www.w3.org/1999/xlink" viewBox="0 0 32 32"><defs><linearGradient xlink:href="#3" id="4" gradientUnits="userSpaceOnUse" x1="-23.24" y1="-185.08" x2="-28.704" y2="-186.05"/><linearGradient xlink:href="#3" id="2" gradientUnits="userSpaceOnUse" x1="-34.914" y1="-193.53" x2="-20.469" y2="-181.36"/><linearGradient id="3"><stop stop-color="#ffff5e"/><stop offset="1" stop-color="#f6a32d"/></linearGradient><linearGradient id="1"><stop stop-color="#f9f9f9"/><stop offset="1" stop-color="#999"/></linearGradient><linearGradient xlink:href="#1" id="0" gradientUnits="userSpaceOnUse" x1="-33.14" y1="-185.13" x2="-35.775" y2="-177.2"/><radialGradient xlink:href="#1" id="5" cx="-176.59" cy="-120.91" r="3.01" gradientUnits="userSpaceOnUse" gradientTransform="matrix(2.21087.05719-.05496 2.12455 362.18 94.22)"/></defs><rect width="28.2" height="28.2" x="1.898" y="1.898" fill="#ccc" fill-rule="evenodd" rx="5.575"/><path d="m17.461 7c5.04 0 5.04 6 5.04 7.92-.72-.72-5-5.76-5-1.92 0 2.663.015 5.347 0 8 0 .06 0 .121 0 .182-.001.021-.007.041-.008.063-.012.181-.037.361-.074.539-.019.097-.038.193-.064.287-.006.021-.015.041-.021.063-.038.13-.082.258-.133.383-.039.094-.078.186-.123.275-.077.15-.163.296-.258.436-.042.061-.084.121-.129.18-.115.153-.241.298-.377.434-.036.035-.072.068-.109.102-.155.144-.322.275-.498.393-.022.014-.044.027-.066.041-.197.125-.404.233-.619.322-.007.003-.014.005-.021.008-.232.095-.473.167-.719.217-.256.051-.517.078-.779.078-.254-.001-.507-.027-.756-.076-.036-.007-.07-.016-.105-.023-.227-.05-.449-.119-.664-.207-.013-.005-.026-.01-.039-.016-1.476-.627-2.435-2.075-2.436-3.678 0-2.209 1.791-4 4-4 .338.001.674.045 1 .131v-8.691c0-1.44 1.521-1.439 2.961-1.439" fill="#3c8cf8"/><g transform="translate(49.877 194.68)"><path d="m-35.21-194.22c-5.577-1.531-5.951 3.24-4.58 5.493 4.381 6.983 6.796 6.577 9.398 7.895 1.712 2.064 3.451 3.4 6.469 4.1 11.69 1.559 3.242-8.417.92-8.649-5.065.012-7.547-6.123-12.206-8.838" fill="url(#0)"/><path d="m-35.21-194.22c3.76.276 5.616-.626 8.93-.421 4.319.283 8.307 2.053 7.838 6.574-.347 2.567-.37 2.25.186 4.296.532 1.535-.252 4.232-.487 4.654-2.715 4.963-1.536 4.965-2.656 7.742l-.906-.418-2.508-11.358c-7.177-.909-10.754-10.11-10.398-11.07" fill="url(#2)"/><path d="m-28.419-184.29c.362.274 1.553-5.105 1.172-5.653 1.379 2.44 1.919 4.616 2.435 6.783-1.276-.283-2.289-.554-3.607-1.13" fill="url(#4)"/><circle r="3.01" cy="-171.07" cx="-21.728" fill="url(#5)"/></g></svg>