<svg xmlns="http://www.w3.org/2000/svg" viewBox="0 0 32 32"><defs><linearGradient gradientTransform="matrix(2.54182 0 0 2.58531-153.47-277.37)" id="0" x1="67.894" y1="108.69" x2="67.854" y2="113.11" gradientUnits="userSpaceOnUse"><stop stop-color="#f9f9f9"/><stop offset="1" stop-color="#999"/></linearGradient></defs><g fill-rule="evenodd"><rect width="28.2" height="28.2" x="1.898" y="1.898" fill="#d1002f" rx="5.575"/><rect width="28.2" height="28.2" x="1.898" y="1.898" fill="#b81f04" rx="5.575"/></g><path d="m12.989 23.02c.036-.117.428-1.252.463-1.341l.024-.063h1.012 1.012l-.006-.79-.006-.79-.216-.036c-.967-.161-1.824-.599-2.507-1.282-.147-.147-.359-.4-.505-.602-.084-.116-.26-.404-.26-.424 0-.005-.023-.047-.052-.094-.113-.185-.288-.643-.372-.97-.13-.509-.129-.496-.138-2.674l-.008-2.01.104-.091c.073-.065.146-.103.249-.131.185-.05.321-.022.514.107l.135.09.001 1.788c.001.983.005 1.829.01 1.879.005.05.014.173.021.273.051.789.389 1.583.912 2.144.416.446.951.756 1.613.935.231.063.69.114 1.011.114.322 0 .78-.052 1.011-.114.647-.175 1.114-.439 1.545-.874.599-.604.915-1.331.988-2.273.01-.125.019-1.045.021-2.045l.003-1.817.074-.077c.226-.236.553-.233.83.007l.098.085-.008 2.01c-.009 2.178-.009 2.165-.138 2.674-.202.794-.63 1.539-1.211 2.111-.682.671-1.53 1.103-2.473 1.259l-.227.038-.006.79-.006.79h.938.938l.253.75.253.75h-2.961-2.961l.03-.097m2.533-5.02c-.192-.027-.513-.12-.709-.206-.537-.236-.994-.738-1.187-1.304-.154-.452-.175-.783-.167-2.602l.007-1.398 2.564-.006 2.564-.006-.009 1.744c-.009 1.7-.01 1.749-.058 1.932-.249.951-.826 1.537-1.754 1.782-.237.062-.301.07-.682.077-.231.004-.487-.002-.569-.013m-2.059-6.437c.018-.532.038-.702.119-.979.241-.825.845-1.412 1.642-1.598.563-.131.985-.133 1.526-.007.912.213 1.552.856 1.774 1.783.04.166.051.3.06.732l.012.528h-2.574-2.574z" fill="#ececec"/>

   xmlns:dc="http://purl.org/dc/elements/1.1/"
   xmlns:cc="http://creativecommons.org/ns#"
   xmlns:rdf="http://www.w3.org/1999/02/22-rdf-syntax-ns#"
   xmlns:svg="http://www.w3.org/2000/svg"
   xmlns="http://www.w3.org/2000/svg"
   xmlns:xlink="http://www.w3.org/1999/xlink"
   xmlns:sodipodi="http://sodipodi.sourceforge.net/DTD/sodipodi-0.dtd"
   xmlns:inkscape="http://www.inkscape.org/namespaces/inkscape"
   height="32"
   width="32"
   version="1"
   id="svg8"
   sodipodi:docname="snow-top-2.svg"
   inkscape:version="0.92.1 r"&gt;
  <path d="m24.646 6.111c2.995 2.684 1.381 7.817 3.674 8.291 2.031.613 3.541-1.385 3.66-4.503.35-8.627-3.911-9.427-6.879-9.524-28.342-2.047-1.762 4.92-.455 5.736" fill="url(#0)"/></svg>