<?xml version="1.0" encoding="UTF-8" standalone="no"?>
<svg
   xmlns:dc="http://purl.org/dc/elements/1.1/"
   xmlns:cc="http://creativecommons.org/ns#"
   xmlns:rdf="http://www.w3.org/1999/02/22-rdf-syntax-ns#"
   xmlns:svg="http://www.w3.org/2000/svg"
   xmlns="http://www.w3.org/2000/svg"
   xmlns:sodipodi="http://sodipodi.sourceforge.net/DTD/sodipodi-0.dtd"
   xmlns:inkscape="http://www.inkscape.org/namespaces/inkscape"
   height="32"
   width="32"
   version="1"
   id="svg24"
   sodipodi:docname="audiocut.svg"
   inkscape:version="0.92.1 r">
  <metadata
     id="metadata30">
    <rdf:RDF>
      <cc:Work
         rdf:about="">
        <dc:format>image/svg+xml</dc:format>
        <dc:type
           rdf:resource="http://purl.org/dc/dcmitype/StillImage" />
        <dc:title />
      </cc:Work>
    </rdf:RDF>
  </metadata>
  <defs
     id="defs28">
    <linearGradient
       gradientTransform="matrix(2.62891,0,0,2.71269,-160.16236,-291.42002)"
       id="0"
       x1="67.893997"
       y1="108.69"
       x2="67.853996"
       y2="113.11"
       gradientUnits="userSpaceOnUse">
      <stop
         stop-color="#f9f9f9"
         id="stop2" />
      <stop
         offset="1"
         stop-color="#999"
         id="stop4" />
    </linearGradient>
  </defs>
  <sodipodi:namedview
     pagecolor="#ffffff"
     bordercolor="#666666"
     borderopacity="1"
     objecttolerance="10"
     gridtolerance="10"
     guidetolerance="10"
     inkscape:pageopacity="0"
     inkscape:pageshadow="2"
     inkscape:window-width="1680"
     inkscape:window-height="966"
     id="namedview26"
     showgrid="false"
     inkscape:zoom="16"
     inkscape:cx="-1.006005"
     inkscape:cy="14.527659"
     inkscape:current-layer="svg24"
     inkscape:window-x="0"
     inkscape:window-y="0"
     inkscape:window-maximized="1" />
  <rect
     style="opacity:1;fill:#4c7590;fill-opacity:1;fill-rule:evenodd;stroke:none;stroke-width:1.03534329;stroke-linecap:round;stroke-linejoin:bevel;stroke-miterlimit:4;stroke-dasharray:none;stroke-dashoffset:0;stroke-opacity:1"
     id="rect4497-3"
     width="28.203388"
     height="28.203388"
     x="1.8983059"
     y="1.8983059"
     ry="5.575182"
     inkscape:export-filename="/home/ramil/3.png"
     inkscape:export-xdpi="71"
     inkscape:export-ydpi="71" />
  <g
     id="g949"
     transform="matrix(0.09038399,0,0,0.09038399,46.587564,17.596753)">
    <path
       id="path937"
       d="m -450.50391,76.279297 1.12696,11.496094 6.32226,8.15039 c 17.25258,2.37 14.56055,-5.817972 12.02539,-13.923828 4.13341,-31.734011 113.42903,-124.149946 162.03125,-174.056641 l -16.36523,-16.367192 z"
       style="fill:#5f4d37;fill-opacity:1;stroke:#5f4d37;stroke-width:1px;stroke-linecap:butt;stroke-linejoin:miter;stroke-opacity:1"
       inkscape:connector-curvature="0" />
    <path
       id="path852"
       d="m -450.50391,76.279297 165.14063,-184.701177 -11.48242,-11.48242 -90.50977,90.509769 c 4.85734,9.087363 2.428,19.5756884 -8.22851,31.6464841 l -55.95313,63.4785159 z"
       style="fill:#806749;fill-opacity:1;stroke:#806749;stroke-width:1px;stroke-linecap:butt;stroke-linejoin:miter;stroke-opacity:1"
       inkscape:connector-curvature="0" />
  </g>
  <path
     inkscape:connector-curvature="0"
     style="fill:#000000;fill-opacity:1;stroke:none;stroke-width:0.09038399px;stroke-linecap:butt;stroke-linejoin:miter;stroke-opacity:1"
     d="m 21.194971,8.0029601 c -0.485127,-0.5068608 -0.92852,-0.9839637 -1.380299,-1.369706 0.196635,0.2085455 0.397187,0.4237028 0.60974,0.6411616 0.22752,0.2327725 0.467126,0.466708 0.725189,0.6932381 0.01402,0.012306 0.03124,0.023045 0.04537,0.035306 z"
     id="path898" />
  <path
     inkscape:connector-curvature="0"
     style="fill:#c6c5ca;fill-opacity:1;stroke:#c6c5ca;stroke-width:0.09038399px;stroke-linecap:butt;stroke-linejoin:miter;stroke-opacity:1"
     d="m 24.824099,15.529193 -0.932614,-0.914256 c -0.0541,0.05996 -0.103476,0.127416 -0.159054,0.184829 -0.181521,0.187508 -0.370508,0.361571 -0.563665,0.523062 -0.193158,0.16149 -0.390454,0.310315 -0.589085,0.447506 -0.19863,0.137192 -0.398558,0.262635 -0.596499,0.377247 -0.197941,0.114613 -0.393937,0.218532 -0.585025,0.312284 -0.382174,0.187505 -0.744584,0.33489 -1.062364,0.449272 -0.03514,0.01265 -0.0539,0.01587 -0.08791,0.02772 0.02309,0.400958 -0.01788,0.806308 -0.14758,1.222478 0.21136,-0.0484 2.90252,-0.618333 4.723799,-2.630138 z"
     id="path932" />
  <path
     inkscape:connector-curvature="0"
     style="fill:#e0e0e2;fill-opacity:1;stroke:#e0e0e2;stroke-width:0.09038399px;stroke-linecap:butt;stroke-linejoin:miter;stroke-opacity:1"
     d="m 25.523869,10.571843 c -0.005,0.09772 0.0027,0.204938 -0.0058,0.299926 -0.03089,0.34339 -0.08448,0.669032 -0.157819,0.977807 -0.07334,0.308774 -0.166466,0.600598 -0.276094,0.876477 -0.109631,0.275879 -0.235901,0.535742 -0.37566,0.780445 -0.139756,0.244702 -0.292965,0.474285 -0.456685,0.689531 -0.113591,0.14934 -0.2377,0.283037 -0.360301,0.418908 l 0.932615,0.914256 c 1.009831,-1.115471 1.756005,-2.66826 1.654804,-4.835367 -0.339567,-0.02102 -0.652872,-0.06644 -0.955034,-0.121983 z"
     id="path896" />
  <path
     inkscape:connector-curvature="0"
     style="fill:#000000;fill-opacity:1;stroke:none;stroke-width:0.09038399px;stroke-linecap:butt;stroke-linejoin:miter;stroke-opacity:1"
     d="m 15.410218,10.406962 -9.04e-4,8.86e-4 c 0.464926,0.435281 0.8551,0.822901 1.274555,1.227245 -0.0053,-0.0055 -0.0095,-0.0106 -0.01483,-0.01606 -0.373602,-0.381757 -0.831527,-0.805391 -1.258845,-1.212064 z"
     id="path894" />
  <path
     inkscape:connector-curvature="0"
     style="fill:#ff5023;fill-opacity:1;stroke:#ff5023;stroke-width:0.09038399px;stroke-linecap:butt;stroke-linejoin:miter;stroke-opacity:1"
     d="m 23.87595,14.632943 c 0.128234,-0.141127 0.257355,-0.281147 0.375835,-0.436914 0.163721,-0.215246 0.31693,-0.444829 0.456686,-0.689531 0.139758,-0.244703 0.266029,-0.504566 0.375659,-0.780445 0.109628,-0.275879 0.202756,-0.567703 0.276094,-0.876477 0.07334,-0.308775 0.126935,-0.634417 0.15782,-0.977807 0.0085,-0.09499 8.13e-4,-0.202206 0.0058,-0.299926 -2.072716,-0.381008 -3.311389,-1.5057851 -4.328899,-2.5688829 -0.01413,-0.012261 -0.03135,-0.023 -0.04537,-0.035306 C 20.891533,7.7411237 20.651927,7.5071882 20.424407,7.2744157 20.211855,7.0569569 20.011303,6.8417997 19.814668,6.6332541 19.700595,6.5358554 19.588233,6.4285949 19.470962,6.3460381 l -2.003276,2.0034527 z"
     id="path929" />
  <path
     inkscape:connector-curvature="0"
     style="fill:#cd2a00;fill-opacity:1;stroke:#cd2a00;stroke-width:0.09038399px;stroke-linecap:butt;stroke-linejoin:miter;stroke-opacity:1"
     d="M 23.87595,14.632943 17.46769,8.3494908 15.410218,10.406962 c 0.427317,0.406673 0.885242,0.830307 1.258845,1.212064 0.0053,0.0055 0.0095,0.0106 0.01483,0.01606 2.00647,1.934183 3.465265,3.587505 3.563989,5.301763 0.03401,-0.01185 0.05278,-0.01507 0.08791,-0.02772 0.31778,-0.114382 0.680191,-0.261767 1.062364,-0.449272 0.191088,-0.09375 0.387084,-0.197671 0.585025,-0.312284 0.197941,-0.114612 0.397869,-0.240055 0.596499,-0.377247 0.198631,-0.137191 0.395927,-0.286016 0.589085,-0.447506 0.193157,-0.161491 0.382144,-0.335554 0.563665,-0.523062 0.05016,-0.05181 0.09455,-0.112935 0.143519,-0.166823 z"
     id="path854" />
  <path
     inkscape:connector-curvature="0"
     style="fill:url(#0)"
     d="m 7.2856396,0.0089794 c -8.27599962,-0.356 -9.3599996,9.9919996 -4.0199996,9.973 0.679,0.003 1.6039996,-0.207 2.9699996,-1.543 7.2559994,-10.531 14.7059994,3.5729996 17.5299994,0.919 1.71,-1.912 3.496,-0.418 4.448,0.115 2.1,0.6429996 3.662,0.041 3.785,-3.231 0.188,-3.321 -1.889,-6.344 -5.923,-6.223 -5.914,0.14 -12.989,-0.047 -18.7869994,-0.01"
     id="path47" />
</svg>
