<svg xmlns="http://www.w3.org/2000/svg" viewBox="0 0 32 32"><rect width="28.2" height="28.2" x="1.898" y="1.898" fill="#e91e63" fill-rule="evenodd" rx="5.575"/><g transform="matrix(.20113 0 0 .20113-25.416-44.555)" fill="#ff8bff" enable-background="new"><path d="m199.99 286.44l16.56 16.561c2.394 2.393 6.273 2.391 8.667-.002 2.395-2.396 2.397-6.275.003-8.668l-16.561-16.562c-11.85-11.851-31-12.04-43.1-.6-.111.094-.222.191-.326.295-.051.052-.099.105-.148.158-.052.05-.107.097-.157.146-.106.106-.2.215-.294.325-11.445 12.11-11.25 31.25.6 43.11l16.561 16.559c2.394 2.394 6.272 2.394 8.666 0 2.394-2.396 2.396-6.275.002-8.667l-16.56-16.562c-7.225-7.225-7.275-18.949-.149-26.24 7.289-7.123 19.01-7.07 26.24.152"/><path d="m221.37 264.39c-2.394 2.394-2.392 6.274.002 8.667l16.56 16.56c7.226 7.228 7.271 18.951.147 26.24-7.29 7.122-19.01 7.07-26.24-.15l-16.559-16.561c-2.394-2.393-6.277-2.393-8.671 0-2.394 2.396-2.394 6.279 0 8.672l16.56 16.56c11.851 11.851 31 12.04 43.1.6.111-.095.222-.188.327-.295.051-.053.097-.104.149-.155.051-.052.107-.1.159-.15.104-.106.196-.216.291-.327 11.447-12.1 11.253-31.25-.598-43.1l-16.558-16.56c-2.394-2.395-6.279-2.395-8.672-.001"/></g>

   xmlns:dc="http://purl.org/dc/elements/1.1/"
   xmlns:cc="http://creativecommons.org/ns#"
   xmlns:rdf="http://www.w3.org/1999/02/22-rdf-syntax-ns#"
   xmlns:svg="http://www.w3.org/2000/svg"
   xmlns="http://www.w3.org/2000/svg"
   xmlns:sodipodi="http://sodipodi.sourceforge.net/DTD/sodipodi-0.dtd"
   xmlns:inkscape="http://www.inkscape.org/namespaces/inkscape"
   height="32"
   width="32"
   version="1"
   id="svg8"
   sodipodi:docname="star-mime-2.svg"
   inkscape:version="0.92.1 r"&gt;
  <g transform="translate(152.47 194.05)" fill="#fff"><path d="m-125.38-193.25l-.077 3.548 3.072 1.831-3.548-.077-3.135 6.791 1.38-7.268-3.072-1.831 3.548.077z"/><path d="m-125.41-183.04l.042-1.955-1.692-1.01 1.955.042 1.727-3.741-.76 4 1.692 1.01-1.955-.042z"/></g></svg>