<svg xmlns="http://www.w3.org/2000/svg" xmlns:xlink="http://www.w3.org/1999/xlink" viewBox="0 0 32 32"><defs><linearGradient id="4" x1="-178.12" y1="-134.12" x2="-183.59" y2="-135.1" gradientUnits="userSpaceOnUse"><stop stop-color="#7c0000"/><stop offset="1" stop-color="#7c0000" stop-opacity="0"/></linearGradient><linearGradient id="3" x1="-189.8" y1="-142.57" x2="-175.35" y2="-130.4" gradientUnits="userSpaceOnUse"><stop stop-color="#ff383f"/><stop offset="1" stop-color="#a02d26"/></linearGradient><linearGradient id="2"><stop stop-color="#f9f9f9"/><stop offset="1" stop-color="#999"/></linearGradient><linearGradient xlink:href="#2" id="1" x1="-188.02" y1="-134.18" x2="-190.66" y2="-126.24" gradientUnits="userSpaceOnUse"/><radialGradient xlink:href="#2" id="5" cx="-176.59" cy="-120.91" r="3.01" gradientUnits="userSpaceOnUse" gradientTransform="matrix(2.21087.05719-.05496 2.12455 207.3 145.17)"/></defs><rect width="28.2" height="28.2" x="1.898" y="1.898" fill="#e6e6e6" fill-rule="evenodd" rx="5.575"/><g transform="matrix(.72881 0 0 .72881 4.339 4.339)"><path d="m15.05 30.831c-.095-.093-.173-.23-.173-.304 0-.098-.042-.117-.152-.069-.083.036-.49.082-.904.101l-.752.035-.138-.259c-.122-.23-.162-.25-.359-.177-.54.2-1.077.044-1.077-.312 0-.219-.001-.219-.554-.164-.317.032-.654.018-.786-.03-.195-.072-.227-.128-.204-.359l.027-.274-.529-.042c-.62-.05-.836-.184-.762-.474.047-.181.024-.201-.239-.203-.361-.004-.585-.162-.672-.474-.054-.197-.107-.235-.293-.214-.353.041-.543-.31-.524-.969.015-.529-.026-.617-.207-.441-.052.05-.186.079-.299.063-.261-.036-.32-.449-.129-.912.153-.371.12-.431-.199-.369-.419.081-.521-.215-.304-.89.057-.177.044-.195-.1-.138-.346.137-.425.099-.452-.221-.016-.192.042-.441.154-.653.186-.355.179-.373-.149-.347-.316.025-.328-.218-.032-.68.149-.233.271-.453.271-.489 0-.036-.098-.108-.217-.161-.276-.122-.274-.305.008-.701.239-.335.22-.494-.059-.494-.363 0-.32-.462.089-.963.206-.252.248-.371.209-.583-.027-.147-.123-.33-.213-.407-.09-.077-.164-.212-.164-.3 0-.171.348-.529.672-.69.231-.115.246-.274.055-.558-.129-.192-.129-.224.004-.422.079-.118.273-.274.431-.347.158-.073.354-.245.438-.382.144-.237.144-.256-.006-.418-.248-.266-.023-.566.573-.762.619-.204.774-.349.624-.582-.218-.339.003-.556.721-.71.379-.081.477-.191.42-.468-.042-.205-.013-.259.186-.347.209-.093.23-.137.184-.403-.128-.739-.154-1.165-.075-1.212.047-.028.206-.006.354.048.148.054.291.078.318.052.026-.026.004-.336-.05-.689-.055-.353-.073-.776-.041-.94.052-.272.082-.298.357-.298.347 0 .337.044.171-.717-.166-.764-.164-.854.031-1.043.316-.308.367-1.077.144-2.207-.182-.925-.139-1.428.124-1.428.09 0 .24.095.334.211.196.243.321.267.396.077.098-.248.053-.46-.198-.944-.278-.535-.53-1.293-.53-1.594 0-.299.198-.238.716.222.489.435.893 1.084 1.145 1.838.238.713.386.591.44-.362.037-.649.077-.797.217-.797.162 0 .345.517.524 1.488.161.87.177 1.17.124 2.32-.033.726-.032 1.407.002 1.514l.063.193.2-.243.2-.243.062.238c.034.131.042.83.017 1.554-.024.724-.027 1.363-.005 1.421.098.265.576.006.644-.349.062-.321.291-.354.686-.1.202.13.488.27.636.311.228.064.291.046.415-.114.136-.176.167-.181.434-.075.541.215.637.182.612-.21-.014-.228.023-.384.108-.453.075-.061.133-.253.137-.453.003-.191.036-.421.072-.511.043-.106-.036-.447-.223-.969-.475-1.325-.35-2.168.232-1.566.286.296.434.27.434-.076 0-.185-.184-.637-.52-1.272-.705-1.335-.7-1.672.018-1.229.494.304.97.851 1.413 1.623.483.842.604.854.542.056-.081-1.037.206-1.224.629-.409.414.797.522 1.346.615 3.119.047.904.121 1.678.165 1.72.047.046.14-.048.23-.233.292-.595.438-.251.515 1.212.064 1.226.058 1.206.347 1.077.204-.09.248-.08.393.094.09.108.163.301.163.429 0 .359.213.486.519.31.223-.128.261-.129.381-.012.073.071.157.271.186.443.08.481.195.693.376.693.227 0 .342.159.408.562.084.51.164.602.367.424.378-.332.63.09.412.69-.074.203-.134.385-.134.406 0 .02.176.011.39-.02.366-.053.39-.045.39.136 0 .106-.059.256-.131.333-.203.218-.08.674.182.674.116 0 .244.074.298.172.077.139.052.247-.127.559-.275.479-.275.499.01.634.318.151.332.257.075.554-.266.307-.276.407-.047.465.195.05.239.384.071.547-.078.076-.065.139.057.27.132.142.142.207.06.383-.055.116-.197.255-.317.308-.249.11-.278.253-.085.409.102.082.12.199.076.495-.066.446-.165.598-.388.598-.242 0-.27.127-.08.362.297.367.147.69-.233.499-.199-.1-.375-.043-.375.122 0 .069.1.292.223.496.273.453.255.744-.05.784-.339.044-.384.148-.184.421.237.323.242.66.011.731-.222.069-.22.248.006.557.219.298.189.53-.072.566-.242.034-.245.113-.013.317.34.299.382.467.158.631-.179.131-.19.173-.097.37.228.486.069.967-.263.794-.199-.103-.182-.121-.312.319-.079.268-.163.37-.356.436-.159.054-.263.155-.281.273-.044.287-.286.398-.486.223-.23-.203-.257-.187-.324.195-.056.324-.231.588-.39.588-.041 0-.154-.099-.252-.22-.202-.25-.413-.223-.456.059-.016.102-.097.228-.181.279-.126.077-.189.048-.361-.16l-.209-.253-.25.232c-.277.256-.523.3-.6.105-.07-.178-.184-.158-.481.084-.141.115-.313.21-.383.21-.069 0-.163-.095-.208-.211-.045-.116-.098-.211-.117-.211-.019 0-.26.097-.535.215-.587.252-.916.244-1.038-.027-.057-.126-.131-.172-.217-.136-.659.278-.872.322-1.043.219-.143-.087-.269-.083-.685.022-.669.169-.84.162-1.048-.04" fill="#4f4f4f"/><path d="m18.461 22.02c-.114-.001-.229.009-.344.032-.961.19-2.103.886-2.714 1.655-.451.568-.699 1.231-.759 2.03l-.044.595.455.483c.768.817 1.573 1.077 3.207 1.036.728-.018.982-.059 1.27-.204.483-.242.694-.523.815-1.091.128-.6.062-2.521-.107-3.104-.248-.854-.983-1.425-1.779-1.433m.879 1.986c.19 0 .222.037.222.261 0 .186-.048.273-.166.303-.153.039-.156.063-.043.327.149.347.16 1.213.019 1.515-.192.41-.9.614-1.5.434-.417-.125-.561-.365-.563-.936-.003-1.021.938-1.903 2.031-1.903" fill="#929292"/><path d="m18.725 26.354c.601-.266.499-1.424-.125-1.424-.299 0-.772.525-.77.856.002.322.057.426.302.561.221.122.332.123.593.007" fill="#fff"/><path d="m24.44 27.17c.247-.182.348-.981.301-2.369-.045-1.319-.161-1.852-.437-2.02-.13-.076-.193-.05-.359.151-.303.365-.815 1.74-.825 2.216-.001.054.112-.012.251-.148.179-.174.339-.246.542-.246.264 0 .307.038.493.433.235.497.224 1.166-.022 1.405-.295.286-1.196.079-1.294-.298-.021-.082-.026-.023-.011.132.036.356.165.507.6.699.412.182.556.19.76.039" fill="#929292"/><path d="m24.11 26.23c.194-.189.168-.496-.064-.759-.26-.293-.547-.223-.652.159-.113.413.033.732.334.732.135 0 .307-.06.382-.132" fill="#fff"/></g><path d="m32 .157l-.27 2.221-.122-2.378" fill="#f9f9f9" id="0"/><use xlink:href="#0"/><path d="m32 .113l-.27 1.6-.122-1.713" fill="#f9f9f9"/><g transform="matrix(-1 0 0 1-172.76 143.72)"><path d="m-190.09-143.27c-5.577-1.531-5.951 3.24-4.58 5.493 4.381 6.983 6.796 6.577 9.398 7.895 1.712 2.064 3.451 3.4 6.469 4.1 11.69 1.559 3.242-8.417.92-8.649-5.065.012-7.547-6.123-12.206-8.838" fill="url(#1)"/><path d="m-190.09-143.27c3.76.276 5.616-.626 8.93-.421 4.319.283 8.307 2.053 7.838 6.574-.347 2.567-.37 2.25.186 4.296.532 1.535-.252 4.232-.487 4.654-2.715 4.963-1.536 4.965-2.656 7.742l-.906-.418-2.508-11.358c-7.177-.909-10.754-10.11-10.398-11.07" fill="url(#3)"/><path d="m-183.3-133.33c.362.274 1.553-5.105 1.172-5.653 1.379 2.44 1.919 4.616 2.435 6.783-1.276-.283-2.289-.554-3.607-1.13" fill="url(#4)"/><circle r="3.01" cy="-120.11" cx="-176.61" fill="url(#5)"/></g></svg>