<svg xmlns="http://www.w3.org/2000/svg" xmlns:xlink="http://www.w3.org/1999/xlink" viewBox="0 0 32 32"><defs><linearGradient id="4" x1="-178.12" y1="-134.12" x2="-183.59" y2="-135.1" gradientUnits="userSpaceOnUse"><stop stop-color="#7c0000"/><stop offset="1" stop-color="#7c0000" stop-opacity="0"/></linearGradient><linearGradient id="3" x1="-189.8" y1="-142.57" x2="-175.35" y2="-130.4" gradientUnits="userSpaceOnUse"><stop stop-color="#ff383f"/><stop offset="1" stop-color="#a02d26"/></linearGradient><linearGradient id="2"><stop stop-color="#f9f9f9"/><stop offset="1" stop-color="#999"/></linearGradient><linearGradient xlink:href="#2" id="1" x1="-188.02" y1="-134.18" x2="-190.66" y2="-126.24" gradientUnits="userSpaceOnUse"/><radialGradient xlink:href="#2" id="5" cx="-176.59" cy="-120.91" r="3.01" gradientUnits="userSpaceOnUse" gradientTransform="matrix(2.21087.05719-.05496 2.12455 207.3 145.17)"/></defs><rect width="28.2" height="28.2" x="1.898" y="1.898" fill="#ccc" fill-rule="evenodd" rx="5.575"/><g transform="matrix(.81921 0 0 .81921 2.483 2.893)"><path d="M 16.5,9 C 10.683,9 6,13.683 6,19.5 6,25.317 10.683,30 16.5,30 22.317,30 27,25.317 27,19.5 27,13.683 22.317,9 16.5,9 Z" fill="#fff"/><path d="m12.04 2c-5.04 0-5.04 6-5.04 7.92.72-.72 5-5.76 5-1.92 0 2.663-.015 5.347 0 8v.182c.001.021.007.041.008.062a4 4 0 0 0 .074 .539c.019.097.038.193.064.287.006.022.016.042.022.063a4 4 0 0 0 .133 .383c.038.093.077.185.123.275a4 4 0 0 0 .258 .436c.041.061.084.12.129.179a4 4 0 0 0 .377 .434c.035.035.072.068.109.101a4 4 0 0 0 .498 .393c.022.014.044.027.066.041a4 4 0 0 0 .619 .322c.008.003.015.005.022.008a4 4 0 0 0 .719 .217 4 4 0 0 0 .779 .078 4 4 0 0 0 .756 -.076c.036-.007.07-.016.105-.024a4 4 0 0 0 .664 -.207c.013-.005.027-.01.039-.015a4 4 0 0 0 2.436 -3.678 4 4 0 0 0 -4 -4 4 4 0 0 0 -1 .131v-8.692c0-1.44-1.521-1.439-2.961-1.439m3.961 12a2 2 0 0 1 2 2 2 2 0 0 1 -2 2 2 2 0 0 1 -2 -2 2 2 0 0 1 2 -2z" fill="#3c8cf8"/></g><path d="m32 .157l-.27 2.221-.122-2.378" fill="#f9f9f9" id="0"/><use xlink:href="#0"/><path d="m32 .113l-.27 1.6-.122-1.713" fill="#f9f9f9"/><g transform="matrix(-1 0 0 1-172.76 143.72)"><path d="m-190.09-143.27c-5.577-1.531-5.951 3.24-4.58 5.493 4.381 6.983 6.796 6.577 9.398 7.895 1.712 2.064 3.451 3.4 6.469 4.1 11.69 1.559 3.242-8.417.92-8.649-5.065.012-7.547-6.123-12.206-8.838" fill="url(#1)"/><path d="m-190.09-143.27c3.76.276 5.616-.626 8.93-.421 4.319.283 8.307 2.053 7.838 6.574-.347 2.567-.37 2.25.186 4.296.532 1.535-.252 4.232-.487 4.654-2.715 4.963-1.536 4.965-2.656 7.742l-.906-.418-2.508-11.358c-7.177-.909-10.754-10.11-10.398-11.07" fill="url(#3)"/><path d="m-183.3-133.33c.362.274 1.553-5.105 1.172-5.653 1.379 2.44 1.919 4.616 2.435 6.783-1.276-.283-2.289-.554-3.607-1.13" fill="url(#4)"/><circle r="3.01" cy="-120.11" cx="-176.61" fill="url(#5)"/></g></svg>