<svg xmlns="http://www.w3.org/2000/svg" viewBox="0 0 32 32"><defs><linearGradient gradientTransform="matrix(2.59244 0 0 2.58531-157.93-277.73)" id="0" x1="67.894" y1="108.69" x2="67.854" y2="113.11" gradientUnits="userSpaceOnUse"><stop stop-color="#f9f9f9"/><stop offset="1" stop-color="#999"/></linearGradient></defs><g transform="translate(63.64-.355)" fill-rule="evenodd"><g fill="#ccc"><path d="m-33.543 8.955v-1.127c0-3.089-2.486-5.574-5.574-5.574h-11.299c-.024 1.024-.176 2.054-.109 3.047 1.781-.248 3.544-.309 5.271-.195 1.727.114 3.42.401 5.057.848 1.637.447 3.219 1.054 4.729 1.805.677.337 1.279.804 1.926 1.197"/><path d="m-33.543 19.02v-8.303c-.189-.122-.35-.284-.543-.4-1.31-.796-2.694-1.474-4.137-2.025-1.443-.551-2.943-.975-4.488-1.26-1.545-.285-3.134-.43-4.752-.426-.962.002-1.935.056-2.914.166.222 1.325.554 2.652 1.016 3.959.462 1.307 1.054 2.596 1.793 3.848 1.649.036 3.255.219 4.807.537 1.551.318 3.048.769 4.48 1.344 1.433.575 2.801 1.272 4.094 2.078.229.142.421.333.645.482"/><path d="m-48.773 30.457h9.656c3.089 0 5.574-2.486 5.574-5.574v-3.814c-.282-.21-.52-.458-.813-.658-1.174-.805-2.428-1.527-3.75-2.15-.794 1.87-1.793 3.617-2.959 5.219-1.166 1.602-2.5 3.059-3.969 4.35-1.151 1.012-2.441 1.831-3.74 2.629"/><path d="m-61.3 27.06c.846 1.997 2.818 3.393 5.131 3.393h4.332c.042-.02.091-.025.133-.045 1.781-.85 3.46-1.916 5-3.176 1.54-1.26 2.94-2.713 4.164-4.34 1.224-1.626 2.271-3.425 3.105-5.375-1.257-.442-2.588-.809-3.955-1.066-1.367-.258-2.771-.406-4.176-.406-.867 1.439-1.858 2.765-2.951 3.971-1.093 1.206-2.287 2.292-3.563 3.256-1.275.964-2.631 1.805-4.045 2.52-1.022.516-2.101.888-3.176 1.27"/><path d="m-60.785 4.877c-.556.868-.961 1.84-.961 2.951v17.05c0 .246.108.454.139.691.764-.274 1.548-.493 2.283-.842 1.314-.623 2.578-1.362 3.773-2.203-.997-1.383-1.856-2.825-2.576-4.311-.72-1.486-1.301-3.02-1.74-4.572-.439-1.556-.736-3.137-.891-4.73-.13-1.342-.101-2.692-.027-4.04"/><path d="m-52.1 2.254h-4.072c-1.096 0-2.058.395-2.918.938-.179 1.423-.288 2.862-.223 4.307.074 1.639.308 3.278.705 4.891.397 1.612.958 3.197 1.688 4.725.729 1.528 1.627 2.999 2.697 4.385 1.035-.81 1.996-1.767 2.883-2.816.887-1.049 1.7-2.189 2.439-3.367-.72-1.254-1.316-2.553-1.793-3.877-.477-1.324-.836-2.675-1.08-4.04-.244-1.36-.373-2.731-.395-4.094-.005-.355.059-.701.068-1.055"/></g><path d="m-52.1 2.254c-.009.354-.074.7-.068 1.055.021 1.363.15 2.733.395 4.094.244 1.36.603 2.711 1.08 4.04.477 1.324 1.073 2.623 1.793 3.877-.739 1.178-1.552 2.318-2.439 3.367-.887 1.049-1.848 2.01-2.883 2.816-1.07-1.385-1.968-2.857-2.697-4.385-.729-1.528-1.29-3.112-1.688-4.725-.397-1.612-.631-3.252-.705-4.891-.065-1.445.043-2.883.223-4.307-.691.436-1.255.998-1.695 1.686-.074 1.347-.103 2.697.027 4.04.155 1.593.451 3.174.891 4.73.439 1.556 1.02 3.086 1.74 4.572.72 1.486 1.579 2.928 2.576 4.311-1.196.841-2.459 1.58-3.773 2.203-.735.349-1.519.568-2.283.842.066.512.111 1.032.305 1.49 1.075-.382 2.154-.754 3.176-1.27 1.414-.714 2.77-1.555 4.045-2.52 1.275-.964 2.47-2.05 3.563-3.256 1.093-1.206 2.084-2.532 2.951-3.971 1.405 0 2.808.149 4.176.406 1.367.258 2.698.625 3.955 1.066-.834 1.95-1.881 3.749-3.105 5.375-1.224 1.626-2.624 3.08-4.164 4.34-1.54 1.26-3.219 2.325-5 3.176-.042.02-.091.025-.133.045h3.066c1.299-.798 2.589-1.617 3.74-2.629 1.468-1.291 2.803-2.748 3.969-4.35 1.166-1.602 2.165-3.348 2.959-5.219 1.322.624 2.576 1.345 3.75 2.15.292.2.531.448.813.658v-2.049c-.224-.149-.416-.34-.645-.482-1.293-.806-2.661-1.503-4.094-2.078-1.433-.575-2.929-1.026-4.48-1.344-1.551-.318-3.157-.501-4.807-.537-.739-1.252-1.331-2.541-1.793-3.848-.462-1.307-.794-2.634-1.016-3.959.979-.11 1.952-.164 2.914-.166 1.618-.004 3.207.141 4.752.426 1.545.285 3.046.709 4.488 1.26 1.443.551 2.827 1.23 4.137 2.025.192.117.354.279.543.4v-1.762c-.646-.393-1.249-.861-1.926-1.197-1.51-.75-3.092-1.358-4.729-1.805-1.637-.447-3.329-.734-5.057-.848-1.727-.114-3.491-.053-5.271.195-.066-.993.086-2.022.109-3.047z" fill="#666"/></g>

   xmlns:dc="http://purl.org/dc/elements/1.1/"
   xmlns:cc="http://creativecommons.org/ns#"
   xmlns:rdf="http://www.w3.org/1999/02/22-rdf-syntax-ns#"
   xmlns:svg="http://www.w3.org/2000/svg"
   xmlns="http://www.w3.org/2000/svg"
   xmlns:xlink="http://www.w3.org/1999/xlink"
   xmlns:sodipodi="http://sodipodi.sourceforge.net/DTD/sodipodi-0.dtd"
   xmlns:inkscape="http://www.inkscape.org/namespaces/inkscape"
   version="1"
   width="32"
   height="32"
   id="svg12"
   sodipodi:docname="snow-top-4.svg"
   inkscape:version="0.92.1 r"&gt;
  <path d="m7.196.009c-8.161-.339-9.231 9.523-3.968 9.505.669.003 1.581-.197 2.929-1.471 3.773-4.147 9.01 4.479 14.696-1.042.61-.911 1.804-1.135 2.455-.627 1.045.677 2.87 2.991 3.88 3 2.359.513 4.095-.198 4.816-3.188.185-3.165-2.303-6.286-6.281-6.17-5.832.133-12.809-.045-18.527-.01" fill="url(#0)"/></svg>