<svg xmlns="http://www.w3.org/2000/svg" xmlns:xlink="http://www.w3.org/1999/xlink" viewBox="0 0 32 32"><defs><linearGradient gradientTransform="matrix(-2.54182 0 0 2.58531 185.47-277.37)" id="1" x1="67.894" y1="108.69" x2="67.854" y2="113.11" gradientUnits="userSpaceOnUse"><stop stop-color="#f9f9f9"/><stop offset="1" stop-color="#999"/></linearGradient></defs><g fill-rule="evenodd"><path d="m1.898 20.787h9.314v-9.574h-9.314v9.574" fill="#20c931"/><path d="m11.213 20.787h9.574v-9.574h-9.574v9.574" fill="#3182c6"/><path d="m20.787 20.787v9.314h3.74c3.089 0 5.574-2.486 5.574-5.574v-3.74h-9.314" fill="#278e33"/><path d="m11.213 20.787v9.314h9.574v-9.314h-9.574" fill="#1e4f77"/><path d="m11.213 30.1v-9.314h-9.314v3.74c0 3.089 2.486 5.574 5.574 5.574h3.74" fill="#278e33"/><path d="m30.1 11.213h-9.314v9.574h9.314v-9.574" fill="#20c931"/><path d="m20.787 1.898v9.314h9.314v-3.74c0-3.089-2.486-5.574-5.574-5.574h-3.74" fill="#66fe76"/><path d="m1.898 11.213h9.314v-9.314h-3.74c-3.089 0-5.574 2.486-5.574 5.574v3.74" fill="#66b7fe"/><path d="m11.213 1.898v9.314h9.574v-9.314h-9.574" fill="#4799e2"/></g>

   xmlns:dc="http://purl.org/dc/elements/1.1/"
   xmlns:cc="http://creativecommons.org/ns#"
   xmlns:rdf="http://www.w3.org/1999/02/22-rdf-syntax-ns#"
   xmlns:svg="http://www.w3.org/2000/svg"
   xmlns="http://www.w3.org/2000/svg"
   xmlns:xlink="http://www.w3.org/1999/xlink"
   xmlns:sodipodi="http://sodipodi.sourceforge.net/DTD/sodipodi-0.dtd"
   xmlns:inkscape="http://www.inkscape.org/namespaces/inkscape"
   height="32"
   width="32"
   version="1"
   id="svg8"
   sodipodi:docname="snow-top-3.svg"
   inkscape:version="0.92.1 r"&gt;
  <path fill="#00000f" fill-opacity="0" d="m0 0h32v32h-32z" id="0"/><path d="m7.354 6.111c-2.995 2.684-1.381 7.817-3.674 8.291-2.031.613-3.541-1.385-3.66-4.503-.35-8.627 3.911-9.427 6.879-9.524 28.342-2.047 1.762 4.92.455 5.736" fill="url(#1)"/><use xlink:href="#0"/></svg>