<svg xmlns="http://www.w3.org/2000/svg" xmlns:xlink="http://www.w3.org/1999/xlink" viewBox="0 0 32 32"><defs><linearGradient xlink:href="#3" id="4" gradientUnits="userSpaceOnUse" x1="27.558" y1="-133.46" x2="22.09" y2="-134.43"/><linearGradient xlink:href="#3" id="2" gradientUnits="userSpaceOnUse" x1="15.879" y1="-141.91" x2="30.32" y2="-129.74"/><linearGradient id="3"><stop stop-color="#55c03f"/><stop offset="1" stop-color="#198b26"/></linearGradient><linearGradient id="1"><stop stop-color="#f9f9f9"/><stop offset="1" stop-color="#999"/></linearGradient><linearGradient xlink:href="#1" id="0" gradientUnits="userSpaceOnUse" x1="17.658" y1="-133.51" x2="15.02" y2="-125.58"/><radialGradient xlink:href="#1" id="5" cx="-176.59" cy="-120.91" r="3.01" gradientUnits="userSpaceOnUse" gradientTransform="matrix(2.21087.05719-.05496 2.12455 412.97 145.84)"/></defs><rect width="28.2" height="28.2" x="1.898" y="1.898" fill="#b1d6f9" fill-rule="evenodd" rx="5.575"/><g transform="matrix(.46096 0 0 .46096 36.67 4.438)"><path d="m-35.03 21.667c1.51-5.721 4.197-16.467 11.415-15.61-4.244 5.04-2.47 11.749-3.071 14.267-3.335 9.301-1.137 13.13 3.885 16.851-5.582.283-7.918-2.293-12-5.695z" fill="#73a6db"/><g><path d="m-65.29 23.961c2.19-6.923 5.988-12.889 10.475-14.949-3.215.458-6.98 1.01-10.07 5.186-2.672 5.133-.656 6.327-.407 9.763" fill="#5d8cc2"/><path d="m-66.23 18.03c-.214 3.103.098 4.071.935 5.933l2.589-7.335c-1.073-.156-2.069-.113-3.524 1.402" fill="#f9f9f9"/><ellipse cx="-64.17" cy="20.847" rx="1.78" ry="1.831" fill="#2a3e58" fill-rule="evenodd"/><path d="m-64.3 32.542c-3.729-7.161 1.654-25.369 14.03-23.797 11.06 1.405 14.644 8.14 19.721 15.01.822 1.481.984 2.554.611 4.386-3.784 10.406-11 16.571-17.485 16.608-6.99.04-13.153-5.04-16.881-12.203" fill="#2b61a4"/><g fill-rule="evenodd"><path d="m-40.27 19.932c0 3.154.782 5.765-.693 7.643-1.586 2.02-4.069 2.247-5.608 2.18-3.703-.161-7.122-4.319-7.122-9.823 0-5.504 3.01-9.966 6.712-9.966 3.707 0 6.712 4.462 6.712 9.966" fill="#5d8cc2"/><path d="m-40.38 21.443c0 3.061-3.496 6.801-6.922 6.801-3.426 0-6.335-4.072-6.335-7.133 0-.971-.025-3.409.466-4.203 1.057-1.708 3.641-1.61 5.941-1.187 3.318.611 6.851 2.661 6.851 5.722" fill="#f9f9f9"/><ellipse cx="-44.695" cy="19.831" rx="1.78" ry="1.831" fill="#2a3e58"/></g><path d="m-64.3 32.542c4.491 6.478 15.545 3.088 18.256.753-1.61 9.634-10.811 10.574-15.874 6.977-2.424-1.723-3.936-4.802-2.382-7.73" fill="#5d8cc2"/><path d="m-64.47 35.427c4.732 5.312 12.406 4.132 15.897.938" fill="none" stroke="#456c9b" stroke-linecap="round" stroke-width=".4"/></g></g><g transform="translate(-.916 143.06)"><path d="m15.583-142.61c-5.577-1.531-5.951 3.24-4.58 5.493 4.381 6.983 6.796 6.577 9.398 7.895 1.712 2.064 3.451 3.4 6.469 4.1 11.69 1.559 3.242-8.417.92-8.649-5.065.012-7.547-6.123-12.206-8.838" fill="url(#0)"/><path d="m15.583-142.61c3.76.276 5.616-.626 8.93-.421 4.319.283 8.307 2.053 7.838 6.574-.347 2.567-.37 2.25.186 4.296.532 1.535-.252 4.232-.487 4.654-2.715 4.963-1.536 4.965-2.656 7.742l-.906-.418-2.508-11.358c-7.177-.909-10.754-10.11-10.398-11.07" fill="url(#2)"/><path d="m22.374-132.67c.362.274 1.553-5.105 1.172-5.653 1.379 2.44 1.919 4.616 2.435 6.783-1.276-.283-2.289-.554-3.607-1.13" fill="url(#4)"/><circle r="3.01" cy="-119.45" cx="29.06" fill="url(#5)"/></g></svg>