<svg xmlns="http://www.w3.org/2000/svg" viewBox="0 0 32 32"><defs><linearGradient gradientTransform="matrix(2.62891 0 0 2.71269-160.16-291.42)" id="0" x1="67.894" y1="108.69" x2="67.854" y2="113.11" gradientUnits="userSpaceOnUse"><stop stop-color="#f9f9f9"/><stop offset="1" stop-color="#999"/></linearGradient></defs><rect width="28.2" height="28.2" x="1.898" y="1.898" fill="#e6e6e6" fill-rule="evenodd" rx="5.575"/><g transform="matrix(.68039 0 0 .68039 5.05 5.987)" stroke-width="1.47"><path d="m16.982 8.306c-.163.002-.337.017-.438.034-.631.107-1.135.34-1.397.657-.205.248-.263.559-.16.859.014.04.023.078.017.084-.007.007-.626.073-1.372.152-.609.064-.943.11-1.119.135-.024.003-.141.015-.152.017-.007.001-.1.008-.101.008-.002.002.008.027.008.034.001.01-.002.015 0 .017.007.056.033.175.101.412.12.42.145.505.126.505-.004 0-.067-.044-.135-.093-.281-.201-.535-.299-.808-.311-.302-.014-.492.068-.707.278-.005.005-.012.004-.017.008-.108.108-.148.158-.219.303-.103.211-.154.399-.168.648-.016.291.048.659.152.901l.034.084h.143c.373 0 .666-.477.976-.623.217-.053.615-.053.884 0 .969.192 1.695.85 1.658 1.507-.01.175-.072.29-.227.446-.129.13-.299.245-.589.404-.102.056-.272.152-.379.21-.107.058-.259.151-.337.202-.154.102-.345.271-.345.311 0 .035.095.034.505-.008.176-.018.32-.046.471-.067.734-.105 1.225-.247 1.608-.497.364-.237.638-.614.741-1.01.017-.064.032-.109.042-.109.01 0 .076.034.143.076.432.269.788.366 1.086.303.266-.056.522-.217.993-.623.125-.108.233-.202.244-.202.011 0 .109.215.219.471.11.257.213.479.227.497.025.03.046.033.446-.034.227-.038.42-.084.429-.093.023-.022-.064-.317-.143-.505-.128-.303-.349-.577-.614-.749-.159-.103-.398-.215-.783-.362-.419-.16-.635-.263-.833-.396-.196-.131-.386-.306-.362-.328.009-.009.077-.033.152-.059.592-.205.997-.595 1.263-1.22.109-.258.198-.587.345-1.237.067-.295.153-.628.185-.741.032-.112.055-.214.051-.227-.001-.002-.02.007-.025.008-.059.013-.396.168-1.22.581-.679.339-1.245.617-1.254.614-.009-.003.208-.2.48-.438.272-.238.518-.452.539-.471.013-.013.011-.025.017-.042.009-.025.017-.059.017-.135 0-.14-.005-.149-.051-.168-.037-.015-.182-.019-.345-.017" fill="#4f4f4f"/><path d="m23.23 2.935c-.189.014-.356.107-.505.286-.168.202-.252.474-.228.716.036.357.142.651.572 1.507.237.47.314.658.396 1.035.115.532.161.998.16 1.616-.001.569-.035.983-.126 1.523-.079.474-.216 1.045-.244 1.035-.044-.015-.096-.457-.135-1.103-.046-.76-.085-1.065-.151-1.364-.177-.797-.57-1.134-1.221-1.035-.183.028-.477.117-.505.151-.012.015.054.247.235.767.143.408.261.749.261.757 0 .026-.104.061-.126.043-.011-.009-.115-.157-.228-.32-.238-.346-.359-.514-.521-.707-.438-.52-.913-.769-1.405-.74-.18.01-.451.07-.497.109-.032.028-.025.074.589 2.306l.632 2.281-.144 1.397c-.077.771-.152 1.419-.159 1.439-.013.037-.016.042-.27.042-.143 0-.431-.01-.64-.025-.46-.033-1.034-.037-1.23-.009-.199.029-.487.101-.757.193-.843.289-1.581.8-2.197 1.532-.568.675-1.05 1.534-1.523 2.719-.142.356-.449 1.208-.521 1.439-.179.571-.279 1.178-.295 1.835-.014.585.03 1.066.151 1.557.142.576.355 1.022.648 1.397.07.09.146.17.228.253.003.003.005.005.008.008.002.003.006.006.009.009.002.002-.002.006 0 .008.378.379.789.6 1.313.707.374.076 1.027.09 1.027.018 0-.012-.114-.35-.253-.749-.139-.399-.252-.731-.252-.741 0-.018.069-.059.101-.059.008 0 .096.122.193.27.392.595.694.936 1.036 1.17.203.139.47.245.682.277.131.02.443.018.572-.009.159-.033.317-.086.337-.109l-1.01-1.658c.663.516 1.532 1.015 2.147 1.188.77.216 1.495.111 2.046-.304.174-.131.354-.308.345-.336-.004-.013-.644-.285-1.423-.606-.779-.322-1.418-.595-1.422-.605-.01-.031.604.004 1.271.075.214.023.561.061.774.084.687.073.841.084 1.313.084.502 0 .721-.02 1.103-.101.594-.125 1.229-.425 1.75-.816.212-.16.316-.257.304-.277-.007-.011-.842-.008-2.458 0-1.664.008-2.421.003-2.449-.009-.005-.001-.014.001-.017 0-.011-.017.167-.503.193-.53.008-.008.07.012.135.051 1.121.666 3.534.494 5.285-.379.502-.251.834-.487 1.162-.816.393-.394.624-.825.656-1.237.009-.122.005-.126-.025-.126-.037 0-.648.167-.976.269-.121.037-.43.137-.69.219-1.698.537-2.403.682-3.325.699-.527.01-1-.022-.984-.067.017-.051.734-.298 1.221-.421.415-.105.633-.15 1.599-.345 1.427-.288 1.945-.422 2.576-.674 1.331-.53 2.085-1.394 2.322-2.651.062-.327.099-.9.06-.9-.008 0-.691.385-1.523.85-.832.465-1.522.84-1.532.834-.023-.014-.121-.233-.109-.244.005-.005.111-.063.244-.135.638-.344 1.123-.705 1.649-1.23.984-.98 1.56-2.112 1.7-3.324.038-.326.026-.922-.025-1.221-.06-.354-.201-.877-.243-.892-.01-.003-.605.854-1.313 1.901-1.492 2.205-1.57 2.318-1.582 2.307-.027-.027.328-.656.926-1.649.259-.43.536-.896.614-1.035.191-.343.461-.911.563-1.179.362-.94.413-1.738.16-2.5-.073-.221-.249-.581-.387-.791-.136-.208-.341-.47-.362-.463-.01.003-.419.969-.909 2.147l-.892 2.138-1.237 2.112c-1.237 2.115-1.292 2.218-1.305 2.205-.01-.01.103-.327.219-.614.29-.718.588-1.29 1.405-2.693.522-.896.757-1.315.968-1.733.657-1.302.975-2.354 1.053-3.502.016-.233.016-.344 0-.496-.083-.792-.362-1.78-.657-2.332-.171-.321-.393-.577-.589-.673-.089-.044-.118-.051-.261-.051-.147 0-.174.006-.286.059-.275.129-.354.331-.354.851 0 .279.021.496.109 1.119l.059.438-.008.497c-.009.493-.017.652-.067 1.111-.112 1.011-.387 2.174-.792 3.408-.153.466-.378 1.114-.403 1.153-.059.091.086-.577.379-1.776.48-1.967.594-2.669.614-3.661.014-.687-.033-1.161-.16-1.717-.076-.333-.106-.421-.219-.648-.315-.638-.865-1.314-1.313-1.607-.231-.151-.442-.216-.631-.202" fill="#7767c0"/><path d="m14.05 13.499c-.697.087-1.385.252-2.048.484-.687.251-1.372.583-1.88 1.123-.037.064-.23.206-.155.241.746-.202 1.795-.494 2.503-.694.192-.054.337-.096.505-.144.307-.083.612-.172.917-.262l.217-.067c.068-.08.029-.32.039-.46-.021-.074.042-.267-.098-.222" fill="#d54c41"/><path d="m5.409 13.651c-.016-.016-.34.026-.471.059-.375.094-.6.318-.732.724-.024.073-.042.143-.042.16 0 .04.013.041.16 0 .305-.085.546-.227.741-.429.159-.165.376-.483.345-.513" fill="#9182d7"/><path d="m6.596 13.785c-.201.012-.46.074-.623.152-.465.221-.738.621-.867 1.254-.075.37-.088.573-.093 1.557-.003.513-.01.936-.017.943-.007.007-.031-.01-.059-.042-.105-.122-.24-.339-.429-.715-.07-.139-.126-.231-.185-.337-.032-.057-.076-.16-.093-.185-.103-.156-.292-.352-.421-.438-.11-.074-.276-.135-.387-.135-.321 0-.605.295-.69.715-.082.405.078.74.412.867.055.021.14.03.303.034.124.002.238.009.244.017.006.008.033.077.059.152.075.217.255.574.53 1.035.291.488.476.842.556 1.061.085.234.484 1.776.539 2.079.047.264.06.505.034.631-.011.056-.064.215-.118.345-.151.362-.162.497-.059.783.205.568.566.954 1.086 1.17.131.055.154.058.185-.017.071-.167.162-.531.194-.783.051-.412.014-.706-.202-1.658-.1-.441-.178-.976-.143-.976.008 0 .074.044.143.101.07.057.3.241.513.404.557.425.626.483 1.263 1.111.24.238.414.398.564.53.298.264.476.377.724.463.134.046.189.059.303.059.279 0 .406-.116.421-.387.01-.191-.048-.411-.202-.724-.151-.306-.271-.466-.505-.69-.272-.261-.524-.446-1.338-.968-.693-.445-1-.673-1.271-.943-.354-.356-.505-.651-.522-1.035-.014-.316.065-.518.269-.724.21-.211.441-.328 1.119-.564.717-.249.984-.406 1.103-.648.041-.084.042-.111.042-.253 0-.136 0-.171-.034-.236-.156-.298-.626-.477-1.389-.522l-.194-.008-.648.648c-.356.356-.651.637-.657.631-.005-.005.15-.836.345-1.852.195-1.016.362-1.86.362-1.877 0-.029-.016-.035-.168-.025" fill="#4f4f4f"/><g fill="#9182d7"><path d="m7.968 14.972l.008.059c.011.114.07.382.118.513.151.414.413.667.842.808.102.033.149.036.16.017.016-.028-.026-.422-.059-.564-.099-.42-.351-.674-.783-.783-.084-.021-.182-.039-.219-.042l-.067-.008"/><path d="m2.109 16.723c-.018.007-.022.023-.034.05-.03.074-.076.354-.076.463 0 .286.13.522.379.69.096.065.11.066.109.025-.001-.073-.134-1.197-.143-1.212-.006-.009-.061-.017-.126-.017-.059 0-.092-.007-.109 0"/><path d="m11.12 20.435c-.029 0-.181.155-.253.261-.199.292-.353.728-.446 1.263-.033.19-.033.278-.034.69-.001.521.011.638.109.934.108.326.289.543.505.623.035.013.097.025.143.025.272.003.523-.299.64-.758.099-.39.025-.718-.337-1.481-.231-.489-.292-.682-.328-.976-.018-.143-.018-.284.008-.497.007-.06.004-.084-.008-.084"/><path d="m4.315 23.642c-.023 0-.021.048.017.236.062.306.173.49.379.598.126.066.206.086.396.118.07.012.136.024.143.025.049.006.01-.192-.076-.37-.079-.165-.268-.346-.463-.446-.142-.073-.362-.16-.396-.16"/></g><path d="m13.345 11.154c0 0 .375-.261.713-.248.395.016.655.364.655.364-.874.539-1.369-.116-1.369-.116" fill="#d54c41"/><path d="m23.05 2.938c-.094.007-.182.033-.266.08.083-.047.172-.073.266-.08"/><path d="m21.994 7.16c.044.01.08.036.121.053-.041-.016-.076-.043-.121-.053"/><path d="m18.783 7.211c-.017.015 0 .112.094.475-.092-.357-.111-.46-.094-.475"/><path d="m22.287 7.299c.058.042.111.094.16.152-.05-.058-.101-.112-.16-.152"/><path d="m22.51 7.533c.114.166.205.38.266.654.066.3.104.603.15 1.363.039.645.091 1.089.135 1.104.001 0 .007-.034.008-.035-.042-.058-.09-.459-.127-1.068-.046-.76-.084-1.064-.15-1.363-.063-.282-.163-.486-.281-.654"/><path d="m11.543 10.816c-.295-.011-.485.068-.697.275.212-.207.402-.287.697-.275"/><path d="m14.957 9.387c-.012.056-.012.114-.012.172 0-.058.001-.116.012-.172"/><path d="m14.941 9.605c.004.068.019.137.039.205-.02-.068-.035-.137-.039-.205"/><path d="m13.873 13.531c-.316.046-.631.103-.941.18.311-.074.625-.134.941-.18"/><path d="m7.598 16.273c-.016-.001-.027-.005-.043-.006h-.016c.022.001.037.004.059.006"/><path d="m5.223 23.502c-.079-.245-.071-.392.068-.727-.139.334-.148.482-.068.727"/><path d="m6.588 13.787c-.1.007-.213.024-.322.051.109-.026.222-.044.322-.051"/><path d="m4.684 13.805c-.076.041-.143.091-.203.15.06-.059.127-.11.203-.15"/><path d="m3.422 15.84c-.003 0-.005.002-.008.002.111.002.273.061.381.133.129.086.317.282.42.438.017.025.06.127.092.184.059.106.116.199.186.338.189.377.325.593.43.715.028.032.052.05.059.043 0 0 0-.012 0-.012-.011-.004-.022-.008-.043-.031-.105-.122-.24-.338-.43-.715-.07-.139-.127-.232-.186-.338-.032-.057-.075-.158-.092-.184-.103-.156-.291-.351-.42-.438-.11-.074-.277-.135-.389-.135"/><path d="m3.414 15.842c-.08.001-.156.02-.229.055.072-.034.149-.053.229-.055"/><path d="m3.162 15.914c-.062.034-.123.074-.176.129.053-.055.113-.095.176-.129"/><path d="m2.719 16.789c.003.071.016.135.035.197-.019-.062-.03-.128-.035-.197"/><path d="m6.586 19.756c.04.077.093.157.152.234-.06-.079-.112-.156-.152-.234"/></g>

   xmlns:dc="http://purl.org/dc/elements/1.1/"
   xmlns:cc="http://creativecommons.org/ns#"
   xmlns:rdf="http://www.w3.org/1999/02/22-rdf-syntax-ns#"
   xmlns:svg="http://www.w3.org/2000/svg"
   xmlns="http://www.w3.org/2000/svg"
   xmlns:xlink="http://www.w3.org/1999/xlink"
   xmlns:sodipodi="http://sodipodi.sourceforge.net/DTD/sodipodi-0.dtd"
   xmlns:inkscape="http://www.inkscape.org/namespaces/inkscape"
   version="1"
   width="32"
   height="32"
   id="svg12"
   sodipodi:docname="snow-top-1.svg"
   inkscape:version="0.92.1 r"&gt;
  <path d="m7.288.009c-8.276-.356-9.36 9.992-4.02 9.973.679.003 1.604-.207 2.97-1.543 7.256-10.531 14.706 3.573 17.53.919 1.71-1.912 3.496-.418 4.448.115 2.1.643 3.662.041 3.785-3.231.188-3.321-1.889-6.344-5.923-6.223-5.914.14-12.989-.047-18.787-.01" fill="url(#0)"/><path fill="#f00" fill-opacity="0" d="m0 0h32v32h-32z"/></svg>