<svg xmlns="http://www.w3.org/2000/svg" viewBox="0 0 32 32"><rect width="28.2" height="28.2" x="1.898" y="1.898" fill="#154277" fill-rule="evenodd" rx="5.575"/><circle cx="16" cy="16" r="4" fill="#f5ca4a"/><path d="m24.26 4.697l-2.02 3.49-1.529 2.648a7 7 0 0 1 2.287109 5.164062 7 7 0 0 1 -.330078 2.119141l2.641 1.525a10 10 0 0 0 .689453 -3.644531 10 10 0 0 0 -1.642578 -5.476562l2.168-3.754c-.677-.772-1.437-1.465-2.268-2.072m-17.488.777c-.772.677-1.465 1.437-2.072 2.268l3.49 2.02 2.648 1.529a7 7 0 0 1 5.164062 -2.287109 7 7 0 0 1 2.119141 .330078l1.525-2.641a10 10 0 0 0 -3.644531 -.689453 10 10 0 0 0 -5.476562 1.642578m-3.833987 4.712891a10 10 0 0 0 -.689453 3.644531 10 10 0 0 0 1.642578 5.476562l-2.168 3.754c.677.772 1.437 1.465 2.268 2.072l2.02-3.49 1.529-2.648a7 7 0 0 1 -2.287109 -5.164062 7 7 0 0 1 .330078 -2.119141m11.833984 6.832032a7 7 0 0 1 -5.164062 2.287109 7 7 0 0 1 -2.119141 -.330078l-1.525 2.641a10 10 0 0 0 3.644531 .689453 10 10 0 0 0 5.476562 -1.642578l3.754 2.168c.772-.677 1.465-1.437 2.072-2.268l-3.49-2.02z" fill="#5286fe"/>

   xmlns:dc="http://purl.org/dc/elements/1.1/"
   xmlns:cc="http://creativecommons.org/ns#"
   xmlns:rdf="http://www.w3.org/1999/02/22-rdf-syntax-ns#"
   xmlns:svg="http://www.w3.org/2000/svg"
   xmlns="http://www.w3.org/2000/svg"
   xmlns:sodipodi="http://sodipodi.sourceforge.net/DTD/sodipodi-0.dtd"
   xmlns:inkscape="http://www.inkscape.org/namespaces/inkscape"
   height="32"
   width="32"
   version="1"
   id="svg8"
   sodipodi:docname="star-mime-2.svg"
   inkscape:version="0.92.1 r"&gt;
  <g transform="translate(152.47 194.05)" fill="#fff"><path d="m-125.38-193.25l-.077 3.548 3.072 1.831-3.548-.077-3.135 6.791 1.38-7.268-3.072-1.831 3.548.077z"/><path d="m-125.41-183.04l.042-1.955-1.692-1.01 1.955.042 1.727-3.741-.76 4 1.692 1.01-1.955-.042z"/></g></svg>