<svg xmlns="http://www.w3.org/2000/svg" viewBox="0 0 32 32"><rect width="28.2" height="28.2" x="1.898" y="1.898" fill="#e75177" fill-rule="evenodd" rx="5.575"/><path d="M16 6.9998A9 9 0 0 0 13 7.5252V19c0 .554-.446 1-1 1-.554 0-1-.446-1-1V8.525A9 9 0 0 0 7 16.0002a9 9 0 0 0 9 9 9 9 0 0 0 9 -9 9 9 0 0 0 -9 -9M15.443 11.9998a.43752 .45073 0 0 1 .209 .059l3.063 1.773 3.062 1.775a.43752 .45073 0 0 1 0 .786l-3.062 1.775-3.063 1.773A.43752 .45073 0 0 1 15 19.5488v-7.098a.43752 .45073 0 0 1 .443 -.451" fill="#fff"/>

   xmlns:dc="http://purl.org/dc/elements/1.1/"
   xmlns:cc="http://creativecommons.org/ns#"
   xmlns:rdf="http://www.w3.org/1999/02/22-rdf-syntax-ns#"
   xmlns:svg="http://www.w3.org/2000/svg"
   xmlns="http://www.w3.org/2000/svg"
   xmlns:sodipodi="http://sodipodi.sourceforge.net/DTD/sodipodi-0.dtd"
   xmlns:inkscape="http://www.inkscape.org/namespaces/inkscape"
   height="32"
   width="32"
   version="1"
   id="svg8"
   sodipodi:docname="star-mime-2.svg"
   inkscape:version="0.92.1 r"&gt;
  <g transform="translate(152.47 194.05)" fill="#fff"><path d="m-125.38-193.25l-.077 3.548 3.072 1.831-3.548-.077-3.135 6.791 1.38-7.268-3.072-1.831 3.548.077z"/><path d="m-125.41-183.04l.042-1.955-1.692-1.01 1.955.042 1.727-3.741-.76 4 1.692 1.01-1.955-.042z"/></g></svg>