<svg xmlns="http://www.w3.org/2000/svg" viewBox="0 0 32 32"><defs><linearGradient gradientTransform="matrix(2.54182 0 0 2.58531-153.47-277.37)" id="0" x1="67.894" y1="108.69" x2="67.854" y2="113.11" gradientUnits="userSpaceOnUse"><stop stop-color="#f9f9f9"/><stop offset="1" stop-color="#999"/></linearGradient></defs><rect width="28.2" height="28.2" x="1.898" y="1.898" fill="#00c586" fill-rule="evenodd" rx="5.575"/><g transform="translate(1.5-1.5)"><path d="m22 10l-15 4.801 5.553 2.309 1.947.391.418 1.998 2.281 5.502m-5.268-5.986c0-.026-.175-.011-.324.027-.569.149-1.395.759-1.838 1.359-.502.681-.771 1.48-.77 2.293 0 .227.011.266.078.295.076.033.72-.008.98-.061.752-.154 1.392-.504 1.965-1.078.36-.361.572-.658.781-1.094.137-.285.231-.632.184-.68-.009-.009-.086.035-.168.1-.621.398-1.117.686-1.82.824.183-.692.377-1.22.74-1.717.105-.142.191-.262.191-.27z" fill="#fff"/><path d="m7 14.8l5.553 2.309 1.947.391 7.5-7.5" fill="#c4f1e3"/></g>

   xmlns:dc="http://purl.org/dc/elements/1.1/"
   xmlns:cc="http://creativecommons.org/ns#"
   xmlns:rdf="http://www.w3.org/1999/02/22-rdf-syntax-ns#"
   xmlns:svg="http://www.w3.org/2000/svg"
   xmlns="http://www.w3.org/2000/svg"
   xmlns:xlink="http://www.w3.org/1999/xlink"
   xmlns:sodipodi="http://sodipodi.sourceforge.net/DTD/sodipodi-0.dtd"
   xmlns:inkscape="http://www.inkscape.org/namespaces/inkscape"
   height="32"
   width="32"
   version="1"
   id="svg8"
   sodipodi:docname="snow-top-2.svg"
   inkscape:version="0.92.1 r"&gt;
  <path d="m24.646 6.111c2.995 2.684 1.381 7.817 3.674 8.291 2.031.613 3.541-1.385 3.66-4.503.35-8.627-3.911-9.427-6.879-9.524-28.342-2.047-1.762 4.92-.455 5.736" fill="url(#0)"/></svg>