<svg xmlns="http://www.w3.org/2000/svg" viewBox="0 0 32 32"><rect width="28.2" height="28.2" x="1.898" y="1.898" fill="#dcdcbe" fill-rule="evenodd" rx="5.575"/><path d="M8.0113 5.348399A2.6629 2.6629 0 0 0 5.348399 8.0113 2.6629 2.6629 0 0 0 8.0113 10.6742 2.6629 2.6629 0 0 0 10.6742 8.0113 2.6629 2.6629 0 0 0 8.0113 5.348399m0 1.33145A1.33145 1.33145 0 0 1 9.34275 8.0113 1.33145 1.33145 0 0 1 8.0113 9.34275 1.33145 1.33145 0 0 1 6.679849 8.0113 1.33145 1.33145 0 0 1 8.0113 6.679849" fill="#3c79e7"/><path d="m12.01 4.02v7.989h-7.989v1.331h7.989v5.326h-7.989v1.331h7.989v7.989h1.331v-7.989h5.326v7.989h1.331v-7.989h7.989v-1.331h-7.989v-5.326h7.989v-1.331h-7.989v-7.989h-1.331v7.989h-5.326v-7.989m0 9.32h5.326v5.326h-5.326z" fill="#808080"/><path d="m23.988701 21.3258a2.6629 2.6629 0 0 0 -2.662901 2.662901 2.6629 2.6629 0 0 0 2.662901 2.6629 2.6629 2.6629 0 0 0 2.6629 -2.6629 2.6629 2.6629 0 0 0 -2.6629 -2.662901m0 1.331451a1.33145 1.33145 0 0 1 1.33145 1.33145 1.33145 1.33145 0 0 1 -1.33145 1.33145 1.33145 1.33145 0 0 1 -1.33145 -1.33145 1.33145 1.33145 0 0 1 1.33145 -1.33145" fill="#3c79e7"/><path d="m17.413 13.646l-1.413 1.413-1.413-1.413-.941.941 1.413 1.413-1.413 1.413.941.941 1.413-1.413 1.413 1.413.941-.941-1.413-1.413 1.413-1.413" fill="#e74c3c"/>

   xmlns:dc="http://purl.org/dc/elements/1.1/"
   xmlns:cc="http://creativecommons.org/ns#"
   xmlns:rdf="http://www.w3.org/1999/02/22-rdf-syntax-ns#"
   xmlns:svg="http://www.w3.org/2000/svg"
   xmlns="http://www.w3.org/2000/svg"
   xmlns:sodipodi="http://sodipodi.sourceforge.net/DTD/sodipodi-0.dtd"
   xmlns:inkscape="http://www.inkscape.org/namespaces/inkscape"
   height="32"
   width="32"
   version="1"
   id="svg8"
   sodipodi:docname="star-mime-2.svg"
   inkscape:version="0.92.1 r"&gt;
  <g transform="translate(152.47 194.05)" fill="#fff"><path d="m-125.38-193.25l-.077 3.548 3.072 1.831-3.548-.077-3.135 6.791 1.38-7.268-3.072-1.831 3.548.077z"/><path d="m-125.41-183.04l.042-1.955-1.692-1.01 1.955.042 1.727-3.741-.76 4 1.692 1.01-1.955-.042z"/></g></svg>