<svg xmlns="http://www.w3.org/2000/svg" xmlns:xlink="http://www.w3.org/1999/xlink" viewBox="0 0 32 32"><defs><linearGradient id="4" x1="-178.12" y1="-134.12" x2="-183.59" y2="-135.1" gradientUnits="userSpaceOnUse"><stop stop-color="#7c0000"/><stop offset="1" stop-color="#7c0000" stop-opacity="0"/></linearGradient><linearGradient id="3" x1="-189.8" y1="-142.57" x2="-175.35" y2="-130.4" gradientUnits="userSpaceOnUse"><stop stop-color="#ff383f"/><stop offset="1" stop-color="#a02d26"/></linearGradient><linearGradient id="2"><stop stop-color="#f9f9f9"/><stop offset="1" stop-color="#999"/></linearGradient><linearGradient xlink:href="#2" id="1" x1="-188.02" y1="-134.18" x2="-190.66" y2="-126.24" gradientUnits="userSpaceOnUse"/><radialGradient xlink:href="#2" id="5" cx="-176.59" cy="-120.91" r="3.01" gradientUnits="userSpaceOnUse" gradientTransform="matrix(2.21087.05719-.05496 2.12455 207.3 145.17)"/></defs><rect width="28.2" height="28.2" x="1.898" y="1.898" fill="#f5ab35" fill-rule="evenodd" rx="5.575"/><g transform="matrix(.72083 0 0 .72083 4.827 4.467)"><path d="m15.5 3c-4.694 0-8.5 3.813-8.5 8.517-.017 2.551 2.235 4.78 3.269 7.207.461 1.082 1.308 3.276 1.308 3.276h7.846c0 0 .847-2.194 1.308-3.276 1.034-2.427 3.224-4.684 3.269-7.207 0-4.704-3.806-8.517-8.5-8.517" fill="#fff"/><path d="m19.423 22l-1.308 5.7c-.161.702-.583 1.3-1.307 1.3h-2.615c-.724 0-1.156-.596-1.308-1.3l-1.308-5.7" fill="#434343"/><path d="m11.834 23l.223 1h6.886l.223-1zm.447 2l.223 1h5.992l.223-1zm.448 2l.156.699c.023.106.064.202.099.301h5.03c.036-.099.078-.195.101-.301l.156-.699" opacity=".2" fill="#fff"/><path d="m17 5l-5 8h3v6l5-8h-3z" fill="#f5ab35" fill-rule="evenodd"/></g><path d="m32 .157l-.27 2.221-.122-2.378" fill="#f9f9f9" id="0"/><use xlink:href="#0"/><path d="m32 .113l-.27 1.6-.122-1.713" fill="#f9f9f9"/><g transform="matrix(-1 0 0 1-172.76 143.72)"><path d="m-190.09-143.27c-5.577-1.531-5.951 3.24-4.58 5.493 4.381 6.983 6.796 6.577 9.398 7.895 1.712 2.064 3.451 3.4 6.469 4.1 11.69 1.559 3.242-8.417.92-8.649-5.065.012-7.547-6.123-12.206-8.838" fill="url(#1)"/><path d="m-190.09-143.27c3.76.276 5.616-.626 8.93-.421 4.319.283 8.307 2.053 7.838 6.574-.347 2.567-.37 2.25.186 4.296.532 1.535-.252 4.232-.487 4.654-2.715 4.963-1.536 4.965-2.656 7.742l-.906-.418-2.508-11.358c-7.177-.909-10.754-10.11-10.398-11.07" fill="url(#3)"/><path d="m-183.3-133.33c.362.274 1.553-5.105 1.172-5.653 1.379 2.44 1.919 4.616 2.435 6.783-1.276-.283-2.289-.554-3.607-1.13" fill="url(#4)"/><circle r="3.01" cy="-120.11" cx="-176.61" fill="url(#5)"/></g></svg>