<?xml version="1.0" encoding="UTF-8" standalone="no"?>
<svg
   xmlns:dc="http://purl.org/dc/elements/1.1/"
   xmlns:cc="http://creativecommons.org/ns#"
   xmlns:rdf="http://www.w3.org/1999/02/22-rdf-syntax-ns#"
   xmlns:svg="http://www.w3.org/2000/svg"
   xmlns="http://www.w3.org/2000/svg"
   xmlns:sodipodi="http://sodipodi.sourceforge.net/DTD/sodipodi-0.dtd"
   xmlns:inkscape="http://www.inkscape.org/namespaces/inkscape"
   width="32"
   height="32"
   viewBox="0 0 8.47 8.47"
   version="1.1"
   id="svg8"
   sodipodi:docname="brave.svg"
   inkscape:version="0.92.1 r"><metadata
   id="metadata14">
  <rdf:RDF>
    <cc:Work
       rdf:about="">
      <dc:format>image/svg+xml</dc:format>
      <dc:type
         rdf:resource="http://purl.org/dc/dcmitype/StillImage" />
    </cc:Work>
  </rdf:RDF>
</metadata>
<defs
   id="defs12">
  <linearGradient
     gradientTransform="matrix(0.69583962,0,0,0.71801513,-42.392975,-77.135236)"
     id="0"
     x1="67.893997"
     y1="108.69"
     x2="67.853996"
     y2="113.11"
     gradientUnits="userSpaceOnUse">
    <stop
       stop-color="#f9f9f9"
       id="stop2" />
    <stop
       offset="1"
       stop-color="#999"
       id="stop4" />
  </linearGradient>
</defs>
<sodipodi:namedview
   pagecolor="#ffffff"
   bordercolor="#666666"
   borderopacity="1"
   objecttolerance="10"
   gridtolerance="10"
   guidetolerance="10"
   inkscape:pageopacity="0"
   inkscape:pageshadow="2"
   inkscape:window-width="1680"
   inkscape:window-height="966"
   id="namedview10"
   showgrid="false"
   inkscape:zoom="7.375"
   inkscape:cx="16"
   inkscape:cy="16"
   inkscape:window-x="0"
   inkscape:window-y="0"
   inkscape:window-maximized="1"
   inkscape:current-layer="svg8" />
<rect
   width="7.465"
   height="7.465"
   x=".502"
   y=".502"
   fill="#f76f31"
   fill-rule="evenodd"
   rx="1.476"
   id="rect2" />
<path
   d="m4.539 6.417c.236-.2.303-.272.596-.481.165-.118.191-.148.164-.189-.022-.033-.527-.268-.782-.37-.268-.107-.296-.107-.555-.002-.233.094-.73.326-.774.368-.045.044-.023.084.092.161.236.159.448.34.661.52.307.261.283.261.598-.006m-1.234-.99c.319-.15.367-.181.611-.396.205-.181.243-.235.214-.304-.01-.023-.164-.165-.343-.315-.422-.354-.404-.305-.244-.689.095-.229.12-.305.12-.368-.001-.096-.036-.168-.108-.217-.029-.02-.284-.123-.567-.228-.283-.105-.512-.198-.51-.207.005-.019.316-.053.543-.059l.171-.004.315.109c.275.095.318.115.338.154.013.024.023.057.023.073 0 .016-.051.243-.113.505-.109.459-.112.477-.083.505.045.044.484.127.621.116.157-.012.476-.086.509-.118.026-.026.021-.055-.085-.503-.062-.262-.113-.489-.113-.505 0-.016.01-.049.023-.073.021-.039.061-.058.306-.143.394-.137.386-.136.744-.105.167.015.31.033.319.041.009.008-.001.02-.024.029-.022.008-.252.094-.512.192-.26.097-.5.194-.533.216-.078.05-.117.123-.117.222 0 .063.024.139.117.36.065.154.118.295.118.313 0 .072-.054.129-.35.378-.17.143-.322.281-.336.306-.014.026-.023.065-.018.087.007.038.212.235.42.404.087.071.616.331.701.344.071.011.147-.024.271-.127.122-.101.194-.201.244-.338.046-.128.035-.215-.057-.422-.07-.158-.088-.245-.065-.305.005-.014.194-.192.42-.396.491-.445.57-.524.597-.604.03-.088.009-.204-.058-.321-.161-.279-.799-1.185-.855-1.185-.292.047-.526.179-.833.227-.024 0-.127-.025-.228-.056-.433-.131-.573-.166-.657-.166-.084 0-.224.036-.657.166-.101.031-.205.056-.231.056-.303-.045-.547-.179-.86-.217-.049.032-.463.645-.643.904-.211.305-.232.344-.25.46-.024.162-.001.19.629.759.212.192.39.359.395.373.024.06.005.151-.064.309-.094.218-.103.278-.057.41.05.143.134.259.261.359.118.093.164.116.233.117.025.001.165-.055.312-.124"
   fill="#fff"
   id="path4" />


   xmlns:dc=&quot;http://purl.org/dc/elements/1.1/&quot;
   xmlns:cc=&quot;http://creativecommons.org/ns#&quot;
   xmlns:rdf=&quot;http://www.w3.org/1999/02/22-rdf-syntax-ns#&quot;
   xmlns:svg=&quot;http://www.w3.org/2000/svg&quot;
   xmlns=&quot;http://www.w3.org/2000/svg&quot;
   xmlns:sodipodi=&quot;http://sodipodi.sourceforge.net/DTD/sodipodi-0.dtd&quot;
   xmlns:inkscape=&quot;http://www.inkscape.org/namespaces/inkscape&quot;
   height=&quot;32&quot;
   width=&quot;32&quot;
   version=&quot;1&quot;
   id=&quot;svg8&quot;
   sodipodi:docname=&quot;star-mime-2.svg&quot;
   inkscape:version=&quot;0.92.1 r&quot;&gt;
  <g
   transform="translate(152.47 194.05)"
   id="g6" />
<path
   inkscape:connector-curvature="0"
   style="fill:url(#0);stroke-width:0.26468751"
   d="M 1.9284177,0.00237675 C -0.26213596,-0.09185225 -0.54905726,2.647134 0.86437404,2.6421051 1.0440968,2.6428991 1.2889327,2.5873151 1.6504959,2.2336923 c 1.9205724,-2.78742405 3.8924943,0.9457283 4.6399718,0.2432478 0.4526156,-0.5060824 0.9253475,-0.1106394 1.17733,0.030439 0.5558437,0.170194 0.9692856,0.010852 1.0018421,-0.8552052 0.049761,-0.87902715 -0.4999946,-1.67917745 -1.567744,-1.64715025 -1.5653619,0.037056 -3.438026,-0.01244 -4.972684,-0.00265"
   id="path47" />
</svg>
