<svg xmlns="http://www.w3.org/2000/svg" viewBox="0 0 32 32"><defs><linearGradient gradientTransform="matrix(2.54182 0 0 2.58531-153.47-277.37)" id="0" x1="67.894" y1="108.69" x2="67.854" y2="113.11" gradientUnits="userSpaceOnUse"><stop stop-color="#f9f9f9"/><stop offset="1" stop-color="#999"/></linearGradient></defs><rect width="28.2" height="28.2" x="1.898" y="1.898" fill="#4f4f4f" fill-rule="evenodd" rx="5.575"/><path d="m15.9 6c-.717.002-1.435.08-2.138.236-2.53.561-4.718 2.11-6.284 4.447-.665.992-1.267 2.371-1.267 2.9 0 .452.524.686.875.39.081-.068.163-.195.182-.282.178-.818.806-2.046 1.533-3 .607-.797 1.721-1.802 2.58-2.33 2.684-1.648 6.348-1.681 9.05-.083 1.692 1 3.075 2.664 3.886 4.67.176.436.465 1.39.465 1.537 0 .042-.259-.179-.576-.492-.689-.68-.758-.729-1.027-.729-.297 0-.505.191-.539.498-.014.124-.006.26.018.302.05.09 2.238 2.303 2.412 2.44.175.138.501.124.683-.029.24-.202.273-.348.239-1.07-.125-2.694-1.811-5.748-4.135-7.491-1.666-1.25-3.804-1.919-5.954-1.913m-9.9 9.865l.029.696c.05 1.187.385 2.408 1.01 3.686 1.261 2.578 3.328 4.442 5.837 5.263.727.238 1.26.349 2.227.464.416.049 1.746.024 2.264-.043 2.939-.381 5.536-2.078 7.257-4.743.557-.863 1.102-2.112 1.169-2.685.026-.224.018-.249-.145-.412-.146-.146-.207-.173-.386-.172-.334.002-.416.099-.636.759-.753 2.259-2.575 4.329-4.727 5.371-1.743.844-3.733 1.079-5.727.677-2.264-.456-4.224-1.834-5.573-3.916-.508-.784-1.038-1.962-1.235-2.745-.045-.175-.093-.363-.108-.417-.015-.054.272.197.638.558l.665.656.251-.024c.342-.033.492-.184.525-.528l.024-.254-1.269-1.27-1.269-1.27c0 0-.241-.161-.539-.028-.298.133-.282.376-.282.376" fill="#5cd1ff"/>

   xmlns:dc="http://purl.org/dc/elements/1.1/"
   xmlns:cc="http://creativecommons.org/ns#"
   xmlns:rdf="http://www.w3.org/1999/02/22-rdf-syntax-ns#"
   xmlns:svg="http://www.w3.org/2000/svg"
   xmlns="http://www.w3.org/2000/svg"
   xmlns:xlink="http://www.w3.org/1999/xlink"
   xmlns:sodipodi="http://sodipodi.sourceforge.net/DTD/sodipodi-0.dtd"
   xmlns:inkscape="http://www.inkscape.org/namespaces/inkscape"
   height="32"
   width="32"
   version="1"
   id="svg8"
   sodipodi:docname="snow-top-2.svg"
   inkscape:version="0.92.1 r"&gt;
  <path d="m24.646 6.111c2.995 2.684 1.381 7.817 3.674 8.291 2.031.613 3.541-1.385 3.66-4.503.35-8.627-3.911-9.427-6.879-9.524-28.342-2.047-1.762 4.92-.455 5.736" fill="url(#0)"/></svg>