<svg xmlns="http://www.w3.org/2000/svg" viewBox="0 0 32 32"><defs><linearGradient gradientTransform="matrix(2.59244 0 0 2.58531-157.93-277.73)" id="0" x1="67.894" y1="108.69" x2="67.854" y2="113.11" gradientUnits="userSpaceOnUse"><stop stop-color="#f9f9f9"/><stop offset="1" stop-color="#999"/></linearGradient></defs><rect width="28.2" height="28.2" x="1.898" y="1.898" fill="#ee7737" fill-rule="evenodd" rx="5.575"/><g stroke-width=".726"><path d="m13.919 5.832c-.216.023-.405.2-.445.413l-.429 2.177c-.77.301-1.494.715-2.129 1.223l-2.113-.715c-.22-.076-.486.022-.604.222l-2.034 3.527c-.115.203-.065.484.111.636l1.684 1.478c-.059.396-.095.795-.095 1.208 0 .413.036.811.095 1.208l-1.684 1.478c-.177.152-.226.433-.111.636l2.034 3.527c.118.2.384.298.604.222l2.113-.715c.635.508 1.359.922 2.129 1.223l.429 2.177c.044.228.261.41.493.413h4.067c.232-.003.449-.185.493-.413l.429-2.177c.77-.301 1.494-.715 2.129-1.223l2.113.715c.22.076.486-.022.604-.222l2.034-3.527c.115-.203.065-.484-.111-.636l-1.684-1.478c.059-.396.095-.795.095-1.208 0-.413-.036-.811-.095-1.208l1.684-1.478c.177-.152.226-.433.111-.636l-2.034-3.527c-.118-.2-.384-.298-.604-.223l-2.113.715c-.636-.509-1.359-.923-2.129-1.224l-.429-2.177c-.044-.228-.261-.41-.492-.413h-4.067c-.016 0-.032 0-.048 0" fill="#fff"/><path d="m16 11.642c2.407 0 4.358 1.951 4.358 4.358 0 2.407-1.951 4.358-4.358 4.358-2.407 0-4.358-1.951-4.358-4.358 0-2.407 1.951-4.358 4.358-4.358" fill="#ee7737"/><path d="m16 9.463c-3.606 0-6.537 2.931-6.537 6.537 0 3.606 2.931 6.537 6.537 6.537 3.606 0 6.537-2.931 6.537-6.537 0-3.606-2.931-6.537-6.537-6.537m0 .769c3.19 0 5.768 2.578 5.768 5.768 0 3.19-2.578 5.768-5.768 5.768-3.19 0-5.768-2.578-5.768-5.768 0-3.19 2.578-5.768 5.768-5.768" fill="#999"/><path d="m15.329 9.498c-3.291.337-5.866 3.123-5.866 6.502 0 3.606 2.931 6.537 6.537 6.537.541 0 1.064-.073 1.567-.198.047-.108.129-.29.093-.434-.033-.133-.141-.246-.263-.315-.448.111-.914.177-1.397.177-3.19 0-5.768-2.578-5.768-5.768 0-3.042 2.345-5.52 5.328-5.745.115-.125.159-.259.138-.435-.022-.181-.162-.279-.369-.322" fill="#ffee57"/></g>

   xmlns:dc="http://purl.org/dc/elements/1.1/"
   xmlns:cc="http://creativecommons.org/ns#"
   xmlns:rdf="http://www.w3.org/1999/02/22-rdf-syntax-ns#"
   xmlns:svg="http://www.w3.org/2000/svg"
   xmlns="http://www.w3.org/2000/svg"
   xmlns:xlink="http://www.w3.org/1999/xlink"
   xmlns:sodipodi="http://sodipodi.sourceforge.net/DTD/sodipodi-0.dtd"
   xmlns:inkscape="http://www.inkscape.org/namespaces/inkscape"
   version="1"
   width="32"
   height="32"
   id="svg12"
   sodipodi:docname="snow-top-4.svg"
   inkscape:version="0.92.1 r"&gt;
  <path d="m7.196.009c-8.161-.339-9.231 9.523-3.968 9.505.669.003 1.581-.197 2.929-1.471 3.773-4.147 9.01 4.479 14.696-1.042.61-.911 1.804-1.135 2.455-.627 1.045.677 2.87 2.991 3.88 3 2.359.513 4.095-.198 4.816-3.188.185-3.165-2.303-6.286-6.281-6.17-5.832.133-12.809-.045-18.527-.01" fill="url(#0)"/></svg>