<svg xmlns="http://www.w3.org/2000/svg" viewBox="0 0 32 32"><defs><linearGradient gradientTransform="matrix(2.59244 0 0 2.58531-157.93-277.73)" id="0" x1="67.894" y1="108.69" x2="67.854" y2="113.11" gradientUnits="userSpaceOnUse"><stop stop-color="#f9f9f9"/><stop offset="1" stop-color="#999"/></linearGradient></defs><rect width="28.2" height="28.2" x="1.898" y="1.898" fill="#5f7c8a" fill-rule="evenodd" rx="5.575"/><g fill="#fff" stroke-width=".682"><path d="m11.529 6.723c-.066-.016-.136-.013-.197.016l-2.139 1.031c-.122.06-.191.213-.156.344l.326 1.266c-.159.171-.308.35-.443.549-.136.199-.248.403-.35.613l-1.297.158c-.135.015-.252.134-.264.27l-.178 2.367c-.009.135.086.271.217.307l1.254.35c.139.454.351.891.623 1.289l-.508 1.189c-.054.124-.009.284.102.361l1.959 1.336c.113.075.277.058.373-.037l.922-.908c.47.108.955.148 1.428.111l.783 1.037c.081.109.241.149.363.092l2.139-1.031c.122-.06.189-.211.154-.342l-.324-1.266c.159-.171.306-.352.441-.551.136-.199.25-.403.352-.613l1.297-.158c.135-.015.25-.134.262-.27l.18-2.367c.009-.135-.088-.269-.219-.305l-1.252-.35c-.139-.454-.351-.891-.623-1.289l.508-1.189c.054-.124.009-.284-.102-.361l-1.959-1.336c-.008-.005-.016-.011-.023-.016-.112-.06-.261-.037-.35.053l-.922.906c-.47-.108-.955-.146-1.428-.109l-.783-1.039c-.04-.054-.1-.091-.166-.107m1.324 3.338c.489.002.983.145 1.418.441 1.159.791 1.459 2.372.668 3.531-.791 1.159-2.372 1.459-3.531.668-1.159-.791-1.459-2.372-.668-3.531.494-.725 1.298-1.113 2.113-1.109"/><path d="m21.13 14.04c-.094-.006-.19.056-.223.145l-.342.906c-.353.073-.696.199-1.01.371l-.855-.461c-.089-.049-.212-.027-.277.051l-1.131 1.369c-.064.079-.063.203.002.281l.617.758c-.054.166-.099.336-.129.514-.03.178-.044.351-.047.525l-.832.514c-.087.052-.128.17-.094.266l.617 1.664c.036.095.144.155.244.139l.961-.152c.236.265.517.494.826.68l.025.969c.002.101.084.195.184.213l1.748.297c.1.016.207-.048.242-.143l.344-.904c.353-.073.694-.199 1-.371l.857.461c.089.049.21.025.275-.053l1.131-1.369c.064-.079.063-.203-.002-.281l-.617-.758c.054-.166.099-.334.129-.512.03-.178.044-.353.047-.527l.832-.512c.087-.052.128-.17.094-.266l-.617-1.666c-.036-.095-.144-.155-.244-.139l-.961.154c-.236-.265-.517-.496-.826-.682l-.025-.967c-.002-.101-.082-.197-.182-.215l-1.75-.295c-.007-.001-.013-.003-.02-.004m.088 2.625c.126-.004.253.004.383.025 1.035.175 1.734 1.156 1.559 2.191-.175 1.035-1.156 1.732-2.191 1.557-1.035-.175-1.732-1.156-1.557-2.191.153-.906.923-1.552 1.807-1.582"/><path d="m12.422 18.783c-.065-.004-.132.038-.154.1l-.236.625c-.244.051-.479.137-.693.256l-.592-.318c-.061-.034-.146-.016-.191.037l-.781.945c-.044.054-.043.139.002.193l.426.523c-.038.115-.067.231-.088.354-.021.123-.031.243-.033.363l-.574.355c-.06.036-.088.118-.064.184l.426 1.148c.025.065.099.109.168.098l.664-.107c.163.183.357.343.57.471l.018.668c.002.07.058.136.127.148l1.207.203c.069.011.144-.032.168-.098l.236-.625c.244-.051.479-.137.693-.256l.592.318c.061.034.146.018.191-.035l.781-.945c.044-.054.043-.141-.002-.195l-.426-.523c.038-.115.067-.231.088-.354.021-.123.031-.243.033-.363l.574-.355c.06-.036.088-.116.064-.182l-.426-1.15c-.025-.065-.099-.107-.168-.096l-.664.105c-.163-.183-.357-.343-.57-.471l-.018-.668c-.002-.07-.058-.134-.127-.146l-1.207-.205c-.005-.001-.009-.001-.014-.002m.061 1.813c.087-.003.176.002.266.018.715.121 1.195.799 1.074 1.514-.121.715-.799 1.195-1.514 1.074-.715-.121-1.195-.799-1.074-1.514.106-.625.638-1.071 1.248-1.092"/></g>

   xmlns:dc="http://purl.org/dc/elements/1.1/"
   xmlns:cc="http://creativecommons.org/ns#"
   xmlns:rdf="http://www.w3.org/1999/02/22-rdf-syntax-ns#"
   xmlns:svg="http://www.w3.org/2000/svg"
   xmlns="http://www.w3.org/2000/svg"
   xmlns:xlink="http://www.w3.org/1999/xlink"
   xmlns:sodipodi="http://sodipodi.sourceforge.net/DTD/sodipodi-0.dtd"
   xmlns:inkscape="http://www.inkscape.org/namespaces/inkscape"
   version="1"
   width="32"
   height="32"
   id="svg12"
   sodipodi:docname="snow-top-4.svg"
   inkscape:version="0.92.1 r"&gt;
  <path d="m7.196.009c-8.161-.339-9.231 9.523-3.968 9.505.669.003 1.581-.197 2.929-1.471 3.773-4.147 9.01 4.479 14.696-1.042.61-.911 1.804-1.135 2.455-.627 1.045.677 2.87 2.991 3.88 3 2.359.513 4.095-.198 4.816-3.188.185-3.165-2.303-6.286-6.281-6.17-5.832.133-12.809-.045-18.527-.01" fill="url(#0)"/></svg>