<svg xmlns="http://www.w3.org/2000/svg" viewBox="0 0 32 32"><defs><linearGradient gradientTransform="matrix(2.54182 0 0 2.58531-153.47-277.37)" id="0" x1="67.894" y1="108.69" x2="67.854" y2="113.11" gradientUnits="userSpaceOnUse"><stop stop-color="#f9f9f9"/><stop offset="1" stop-color="#999"/></linearGradient></defs><g fill-rule="evenodd"><path d="m9.08 30.1h15.441c3.089 0 5.576-2.488 5.576-5.576v-17.05c0-3.089-2.488-5.574-5.576-5.574h-15.441" fill="#009587"/><path d="m9.08 30.1v-28.2h-1.611c-3.089 0-5.574 2.486-5.574 5.574v17.05c0 3.089 2.486 5.576 5.574 5.576z" fill="#00776c"/><path d="m20.05 12.698c-1.158.011-2.323.276-3.332.847-.402.262-.884.6-1.248.941-.572.56-1.062 1.214-1.393 1.946.907 2 2.901 3.467 5.095 3.684 1.439.163 2.945-.086 4.21-.798.402-.262.884-.6 1.248-.941.572-.561 1.062-1.215 1.393-1.946-.907-2-2.901-3.468-5.094-3.684-.291-.035-.585-.05-.878-.05m0 1.494c1.2-.027 2.262 1.047 2.24 2.24.038 1.319-1.276 2.457-2.575 2.211-1.312-.154-2.234-1.626-1.802-2.873.276-.917 1.177-1.589 2.138-1.578m-.000478 1.493339a.74655 .746717 0 0 0 -.74655 .747744 .74655 .746717 0 0 0 .74655 .746551 .74655 .746717 0 0 0 .74655 -.746551 .74655 .746717 0 0 0 -.74655 -.74655z" fill="#fff" stroke-width=".625"/></g>

   xmlns:dc="http://purl.org/dc/elements/1.1/"
   xmlns:cc="http://creativecommons.org/ns#"
   xmlns:rdf="http://www.w3.org/1999/02/22-rdf-syntax-ns#"
   xmlns:svg="http://www.w3.org/2000/svg"
   xmlns="http://www.w3.org/2000/svg"
   xmlns:xlink="http://www.w3.org/1999/xlink"
   xmlns:sodipodi="http://sodipodi.sourceforge.net/DTD/sodipodi-0.dtd"
   xmlns:inkscape="http://www.inkscape.org/namespaces/inkscape"
   height="32"
   width="32"
   version="1"
   id="svg8"
   sodipodi:docname="snow-top-2.svg"
   inkscape:version="0.92.1 r"&gt;
  <path d="m24.646 6.111c2.995 2.684 1.381 7.817 3.674 8.291 2.031.613 3.541-1.385 3.66-4.503.35-8.627-3.911-9.427-6.879-9.524-28.342-2.047-1.762 4.92-.455 5.736" fill="url(#0)"/></svg>