<svg xmlns="http://www.w3.org/2000/svg" xmlns:xlink="http://www.w3.org/1999/xlink" viewBox="0 0 32 32"><defs><linearGradient gradientTransform="matrix(-2.54182 0 0 2.58531 185.47-277.37)" id="1" x1="67.894" y1="108.69" x2="67.854" y2="113.11" gradientUnits="userSpaceOnUse"><stop stop-color="#f9f9f9"/><stop offset="1" stop-color="#999"/></linearGradient></defs><g fill-rule="evenodd"><path d="m9.08 30.1h15.441c3.089 0 5.576-2.488 5.576-5.576v-17.05c0-3.089-2.488-5.574-5.576-5.574h-15.441" fill="#009587"/><path d="m9.08 30.1v-28.2h-1.611c-3.089 0-5.574 2.486-5.574 5.574v17.05c0 3.089 2.486 5.576 5.574 5.576z" fill="#00776c"/></g><path d="m18.589 10.141l-.134 1.595a4.759191 4.759191 0 0 0 -1.390882 .804468l-1.45-.683-1.514 2.623 1.317.914a4.759191 4.759191 0 0 0 -.07268 .802758 4.759191 4.759191 0 0 0 .06922 .80615l-1.313.912 1.514 2.623 1.447-.681a4.759191 4.759191 0 0 0 1.394262 .79938l.134 1.599h3.03l.134-1.595a4.759191 4.759191 0 0 0 1.390916 -.804469l1.45.683 1.514-2.623-1.317-.914a4.759191 4.759191 0 0 0 .07268 -.802758 4.759191 4.759191 0 0 0 -.06922 -.806152l1.313-.911-1.514-2.623-1.447.681a4.759191 4.759191 0 0 0 -1.394278 -.799383l-.134-1.599h-3.03m1.513996 4.325896a1.730656 1.730656 0 0 1 1.73081 1.73081 1.730656 1.730656 0 0 1 -1.73081 1.730808 1.730656 1.730656 0 0 1 -1.730808 -1.730808 1.730656 1.730656 0 0 1 1.730808 -1.73081" fill="#fff" stroke-width=".625"/>

   xmlns:dc="http://purl.org/dc/elements/1.1/"
   xmlns:cc="http://creativecommons.org/ns#"
   xmlns:rdf="http://www.w3.org/1999/02/22-rdf-syntax-ns#"
   xmlns:svg="http://www.w3.org/2000/svg"
   xmlns="http://www.w3.org/2000/svg"
   xmlns:xlink="http://www.w3.org/1999/xlink"
   xmlns:sodipodi="http://sodipodi.sourceforge.net/DTD/sodipodi-0.dtd"
   xmlns:inkscape="http://www.inkscape.org/namespaces/inkscape"
   height="32"
   width="32"
   version="1"
   id="svg8"
   sodipodi:docname="snow-top-3.svg"
   inkscape:version="0.92.1 r"&gt;
  <path fill="#00000f" fill-opacity="0" d="m0 0h32v32h-32z" id="0"/><path d="m7.354 6.111c-2.995 2.684-1.381 7.817-3.674 8.291-2.031.613-3.541-1.385-3.66-4.503-.35-8.627 3.911-9.427 6.879-9.524 28.342-2.047 1.762 4.92.455 5.736" fill="url(#1)"/><use xlink:href="#0"/></svg>