<svg xmlns="http://www.w3.org/2000/svg" viewBox="0 0 32 32"><rect width="28.2" height="28.2" x="1.898" y="1.898" fill="#3c8cf8" fill-rule="evenodd" rx="5.575"/><path d="m17.548 6.325c-1.548 0-3.096 0-3.096 1.548v9.455c-.378-.109-.768-.165-1.161-.166-2.351 0-4.257 1.906-4.257 4.257 0 2.351 1.906 4.257 4.257 4.257 2.29-.002 4.175-1.816 4.257-4.105.019-2.915 0-5.868 0-8.795 0-4.129 4.644 1.29 5.418 2.064 0-2.064 0-8.514-5.418-8.514" fill="#fff" stroke-width=".774"/>

   xmlns:dc="http://purl.org/dc/elements/1.1/"
   xmlns:cc="http://creativecommons.org/ns#"
   xmlns:rdf="http://www.w3.org/1999/02/22-rdf-syntax-ns#"
   xmlns:svg="http://www.w3.org/2000/svg"
   xmlns="http://www.w3.org/2000/svg"
   xmlns:sodipodi="http://sodipodi.sourceforge.net/DTD/sodipodi-0.dtd"
   xmlns:inkscape="http://www.inkscape.org/namespaces/inkscape"
   height="32"
   width="32"
   version="1"
   id="svg8"
   sodipodi:docname="star-mime-2.svg"
   inkscape:version="0.92.1 r"&gt;
  <g transform="translate(152.47 194.05)" fill="#fff"><path d="m-125.38-193.25l-.077 3.548 3.072 1.831-3.548-.077-3.135 6.791 1.38-7.268-3.072-1.831 3.548.077z"/><path d="m-125.41-183.04l.042-1.955-1.692-1.01 1.955.042 1.727-3.741-.76 4 1.692 1.01-1.955-.042z"/></g></svg>