<svg xmlns="http://www.w3.org/2000/svg" viewBox="0 0 32 32"><rect width="28.2" height="28.2" x="1.898" y="1.898" fill="#1e8438" fill-rule="evenodd" rx="5.575"/><g transform="translate(.072-.311)" stroke-width=".726"><g transform="matrix(1.37785 0 0 1.37785-13.588-13.03)"><rect width="7.466" height="10.151" x="21.955" y="13.735" fill="#fff" fill-rule="evenodd" rx="1.27"/><path d="m22.454 18.993c0-.864.025-1.18.096-1.209.073-.03.069-.058-.016-.117-.098-.068-.095-.098.019-.224.073-.08.131-.247.129-.371-.002-.215-.008-.218-.116-.076-.103.136-.113.099-.113-.409 0-.49.023-.581.189-.748.268-.268.746-.267.89.003.09.168.085.212-.041.351-.197.217-.46.172-.46-.08 0-.106.043-.193.096-.193.053 0 .093.035.089.077-.004.042-.039.068-.077.058-.038-.011-.069.018-.069.064 0 .046.061.071.135.057.075-.014.135-.095.135-.179 0-.214-.311-.249-.419-.048-.101.189-.037.374.168.483.205.11.55-.137.584-.418.038-.32-.242-.545-.618-.495-.168.023-.372.101-.454.175-.145.131-.202.075-.089-.087.105-.152.53-.276.758-.221.264.063.494.245.494.392 0 .057.034.104.075.104.041 0 .057.046.036.101-.021.056-.007.186.033.289l.072.188.054-.208c.036-.139.014-.266-.069-.384-.15-.214-.161-.346-.02-.229.057.047.126.064.153.036.027-.027-.011-.094-.084-.147-.074-.054-.109-.123-.078-.154.085-.085.291.12.291.291 0 .088.041.137.096.117.053-.019.091-.143.085-.276-.01-.217.007-.237.168-.197.218.055.518-.03.457-.129-.024-.039-.112-.072-.194-.072-.222 0-.179-.1.099-.231.318-.15.397-.352.109-.279-.117.029-.203.019-.203-.026 0-.166.363-.294.837-.295.386-.001.522.031.643.152.186.186.137.262-.091.14-.151-.081-.165-.072-.142.09.018.127.104.205.291.266l.266.086-.227.12c-.196.103-.208.128-.09.174.076.03.234.034.352.011.2-.04.213-.027.183.175-.048.324.101.349.279.047.152-.258.153-.268.012-.312-.355-.113-.832-.964-.54-.964.042 0 .077.082.077.182 0 .38.593.816.983.722.153-.037.066-.086-.294-.163-.37-.08-.665-.454-.53-.671.055-.088.091-.076.19.065.153.217.418.223.641.014.136-.127.24-.152.514-.121.401.044.524.104.452.221-.03.049-.016.062.033.031.115-.071.247.194.247.495v.245l-.148-.182c-.081-.1-.173-.157-.204-.126-.031.031-.017.103.031.161.162.195-.005.202-.256.011-.298-.227-.376-.238-.314-.045.038.12-.007.153-.272.195-.321.051-.534.193-.534.354 0 .048.041.062.09.031.063-.039.073-.011.033.092-.031.081-.078.249-.102.373-.036.178-.022.216.069.181.065-.025.154.019.206.103.05.081.148.147.217.147.091 0 .069-.044-.078-.16-.145-.114-.203-.23-.201-.405.003-.333.161-.516.511-.595.401-.09.953.142.953.401v.176l-.116-.166c-.241-.344-.955-.405-1.12-.096-.246.46.261.961.639.631.254-.222.117-.557-.228-.557-.138 0-.177.043-.177.193 0 .141.041.193.154.193.085 0 .154-.038.154-.085 0-.047-.052-.065-.116-.041-.133.051-.158-.07-.031-.148.047-.029.142.006.212.078.119.121.115.14-.053.278-.206.169-.431.102-.512-.153-.144-.455.564-.656.928-.264.104.112.192.242.196.289.066.875.021 1.189-.122.837-.047-.117-.064-.109-.129.058-.062.162-.043.217.123.35.224.178.251.267.082.267-.064 0-.116.02-.116.044 0 .024.052.096.116.16.092.092.116.34.116 1.212v1.096l-3.24-.003-3.24-.003v-1.17m1.604.881c.01-.095.032-.243.049-.328.018-.085.035-.17.038-.188.003-.019.055.033.115.115.06.082.09.184.066.227-.024.043.002.036.058-.015.082-.076.082-.115.002-.212-.086-.104-.066-.114.161-.076.252.042.255.04.078-.065-.227-.135-.5-.087-.682.12-.077.088-.096.134-.043.103.059-.035.096-.012.096.057 0 .063-.037.126-.082.141-.085.028-.019.294.073.294.029 0 .06-.078.07-.174m1.945.058c.054-.065.062-.116.019-.116-.042 0-.12.052-.173.116-.054.065-.062.116-.019.116.042 0 .12-.052.173-.116m.656.039c-.026-.042-.008-.077.04-.077.048 0 .072-.043.053-.096-.019-.053-.074-.088-.122-.077-.048.011-.087-.028-.087-.086 0-.072-.074-.097-.231-.079-.127.015-.231-.007-.231-.049 0-.042.034-.076.077-.076.091 0 .081-.606-.011-.663-.035-.022-.043.015-.018.08.025.066.012.12-.03.12-.129 0-.289-.247-.262-.406.016-.093-.006-.131-.058-.099-.156.096-.084.346.148.518.265.196.321.368.06.185-.233-.164-.369-.148-.169.02.088.074.185.229.214.344.029.115.078.206.109.201.192-.029.322.029.365.164.027.085.083.154.125.154.042 0 .055-.035.029-.077m.795-.203c.03-.294-.206-.518-.535-.508-.306.009-.492.165-.217.183.104.007.267.005.363-.003.154-.013.174.02.174.303 0 .373.179.394.216.025m-2.685.044c0-.045.032-.062.072-.037.04.024.093.011.118-.031.026-.041.106-.053.179-.025.113.042.118.031.033-.073-.102-.125-.352-.108-.537.037-.131.103-.121.211.019.211.064 0 .116-.037.116-.082m1.068-.159c.073-.117.078-.187.019-.247-.06-.06-.083-.035-.083.086 0 .093-.03.17-.068.17-.105 0-.246-.2-.185-.262.03-.03-.005-.032-.078-.004-.172.066-.168.096.041.27.22.184.231.183.354-.013m1.169.017c0-.038-.057-.091-.127-.117-.106-.041-.111-.029-.029.069.111.134.156.148.156.049m-3.209-.408c.089-.074.275-.158.414-.185.334-.066.22-.21-.273-.343-.522-.141-.787-.289-.866-.484-.05-.124-.07-.135-.073-.04-.003.071.05.184.116.251.111.111.089.154-.063.13-.032-.005-.058.03-.058.077 0 .052.082.07.206.047.122-.023.251.005.314.068.092.092.083.105-.061.088-.177-.02-.381.201-.28.303.033.033.083.023.113-.021.03-.044.162-.144.295-.221.231-.134.249-.134.424-.004.136.101.145.123.037.086-.224-.077-.511.15-.504.399.003.121.025.162.051.097.024-.062.117-.174.206-.248m1.709-.063c.061 0 .111-.034.111-.075 0-.102-.248-.008-.366.139-.08.099-.097.101-.097.009 0-.061.109-.202.244-.312.189-.155.23-.234.182-.347-.061-.141-.064-.141-.097.008-.019.085-.137.249-.261.365-.195.181-.215.234-.14.374l.087.163.113-.162c.062-.089.163-.162.225-.162m2.272.145c0-.042-.112-.179-.249-.304-.313-.286-.125-.309.28-.034.156.106.3.193.319.193.083 0 .025-.221-.081-.309-.172-.143-.14-.215.077-.173.113.022.193.001.193-.049 0-.047-.057-.086-.128-.086-.119 0-.119-.01 0-.141.07-.078.125-.19.122-.251-.005-.092-.013-.091-.051.003-.078.197-.355.379-.764.501-.218.065-.478.186-.579.27l-.183.152.252-.07c.139-.038.234-.04.211-.003-.023.037.037.078.134.091.096.014.208.101.249.193.071.163.196.173.196.016m-.955-.495c.09-.098.316-.219.501-.269.567-.153.672-.214.803-.466.225-.435-.031-.83-.466-.721-.244.061-.366.276-.301.532.064.256.399.352.542.156.117-.16.016-.425-.161-.425-.153 0-.228.151-.126.254.063.063.086.051.086-.045 0-.072.035-.131.077-.131.096 0 .102.284.007.343-.213.131-.47-.272-.303-.474.129-.155.477-.122.588.057.081.13.077.202-.025.417-.13.273-.412.412-.515.253-.044-.068-.077-.07-.118-.008-.032.047-.197.158-.366.245-.204.105-.369.272-.485.493-.112.21-.126.266-.039.151.076-.1.212-.262.302-.361m-2.169.074c-.118-.154-.328-.328-.467-.386-.139-.058-.271-.15-.293-.204-.031-.076-.057-.073-.118.014-.066.094-.108.096-.267.011-.296-.159-.41-.427-.282-.667.083-.155.155-.192.341-.174.201.02.239.058.259.264.028.292-.192.427-.348.213-.054-.073-.122-.109-.152-.08-.109.109.189.303.387.253.303-.076.327-.595.034-.752-.366-.196-.73.13-.646.579.048.254.364.51.631.51.258 0 .768.305.909.544.077.131.16.22.183.197.023-.023-.054-.168-.172-.322m.424-.419c0-.033-.12-.132-.268-.219-.333-.196-.426-.493-.226-.715.104-.115.201-.146.36-.114.133.027.2.014.171-.032-.105-.17-.732.007-.732.206 0 .147-.132.128-.225-.032-.072-.124-.079-.122-.081.02-.001.085.084.22.191.3.106.08.192.201.192.269-.001.077-.023.093-.058.041-.057-.083-.327-.209-.327-.153 0 .116.106.265.162.23.038-.023.069-.005.069.042 0 .056.046.061.135.014.084-.044.208-.041.328.009l.193.08-.231.049-.231.049.212.056c.117.031.212.092.212.136 0 .044-.031.061-.07.037-.038-.024-.051.03-.027.12.038.146.053.138.147-.086.058-.137.105-.276.105-.309m1.411.387c.022-.085.013-.137-.021-.116-.034.021-.085-.021-.113-.094-.067-.174.165-.343.43-.316.201.021.453-.122.453-.257 0-.039-.071-.032-.159.014-.087.047-.2.07-.251.052-.133-.047-.498.154-.59.324-.058.108-.048.17.036.24.063.052.114.143.114.201 0 .155.053.13.1-.048m-1.208-.504c-.024-.062-.076-.113-.116-.113-.04 0-.033.084.017.19.091.195.177.127.099-.077m1.108-.208c.418-.28.392-.595-.049-.599-.176-.001-.303.194-.177.272.042.026.066.001.054-.055-.013-.063.052-.102.171-.102.31 0 .275.222-.073.452-.218.144-.31.258-.304.379l.008.172.05-.169c.028-.093.171-.25.32-.35m.271.403c.137-.059.13-.067-.058-.072-.117-.003-.212.029-.212.072 0 .091.059.091.27 0m-.787-.4c.009.013.082-.001.163-.032.138-.053.135-.061-.032-.123-.11-.041-.21-.036-.258.012-.053.053-.124.038-.218-.048-.157-.142-.193-.038-.043.127.058.065.013.055-.116-.025-.117-.072-.212-.099-.212-.06 0 .04.113.14.251.223.23.139.259.141.35.026.055-.069.107-.114.116-.101m-1.027-.126c-.248-.201-.159-.437.138-.364.159.039.19.03.124-.037-.141-.144-.449-.06-.476.129-.022.156.276.533.357.452.02-.02-.044-.101-.142-.18m2.297-.237c.053-.063.096-.169.095-.235-.001-.085-.046-.064-.153.073-.118.151-.151.164-.153.062-.003-.26-.676-.514-.805-.305-.022.036.045.05.15.03.107-.02.279.022.392.095.167.109.193.171.154.366-.043.213-.035.225.088.132.074-.056.178-.154.231-.217m-3.414-.014c0-.142-.262-.19-.375-.068-.068.074-.056.084.054.046.188-.066.333.023.194.12-.085.059-.083.067.011.042.064-.017.116-.08.116-.14m1.386.087c.025-.04-.025-.067-.111-.061-.086.006-.156.039-.156.072 0 .085.213.076.267-.012m.77-.123c.171-.129.104-.151-.112-.036-.097.052-.161.052-.194-.002-.027-.044-.02-.07.015-.059.104.034.565-.418.562-.55-.002-.078-.101-.011-.277.186-.155.175-.289.27-.31.22-.075-.185-.414-.527-.414-.417 0 .061.093.209.207.328.187.195.192.217.058.219-.129.002-.122.018.043.113.238.136.237.136.42-.002m-1.128-.546c.177-.035.246-.092.246-.203 0-.184-.561-.727-.608-.588-.017.052.037.149.12.216.146.119.291.467.194.467-.026 0-.121-.092-.211-.205-.131-.164-.204-.194-.369-.153-.233.059-.288.331-.083.41.122.047.297-.125.209-.204-.025-.022-.06.003-.079.056-.048.135-.176.121-.176-.019 0-.072.073-.116.193-.116.153 0 .193.039.193.188 0 .104-.035.21-.077.236-.042.026-.077.086-.077.132 0 .047.063.028.14-.042.077-.07.251-.149.386-.176m2.176-.027c-.121-.226-.024-.335.249-.281.199.04.218.03.135-.069-.053-.064-.156-.116-.229-.116-.168 0-.42.272-.353.381.028.045.032.082.01.082-.022 0-.077-.068-.121-.151-.066-.123-.042-.186.129-.344.259-.24.191-.338-.105-.149-.274.174-.332.255-.333.462-.001.128.06.176.273.216.151.028.296.108.323.178.029.074.061.09.078.039.016-.049-.009-.16-.056-.248m-.85-.384c.338-.444.348-1.01.017-1-.123.002-.123.008.003.081.074.043.135.148.135.234 0 .085-.032.135-.071.111-.039-.024-.093.059-.121.185-.028.126-.121.319-.208.43l-.158.201-.184-.172c-.101-.095-.184-.233-.184-.307 0-.206-.085-.383-.162-.335-.104.064-.083-.23.024-.337.069-.069.07-.093.003-.093-.049 0-.128.071-.174.158-.118.221.034.645.381 1.061.309.37.242.39.701-.212m1.264.339c.026-.069.013-.1-.03-.073-.042.026-.076.08-.076.12 0 .111.055.087.107-.047m-.214-.168c-.078-.078-.143.04-.079.144.049.079.067.079.093 0 .018-.054.012-.118-.014-.144m-1.235-.716c.048-.257.044-.262-.075-.115-.119.147-.124.14-.106-.17.011-.185-.014-.317-.058-.309-.042.009-.068.154-.056.324.019.28.011.295-.089.169-.146-.185-.238-.034-.118.196.174.336.239.387.351.274.056-.056.124-.222.151-.37m-2.126.149c.124-.231.06-.244-.134-.026-.117.131-.135.187-.06.187.059 0 .146-.072.193-.161m-1.056-1.249c.056-.223-.013-.271-.166-.118-.072.072-.093.047-.093-.111 0-.513.831-.898 1.148-.532.181.209.452.21.671.005.217-.204.287-.097.138.212-.108.224-.444.429-.838.514-.11.024-.093.036.06.042.387.016.717-.181.874-.521.08-.173.171-.316.203-.317.084-.003.067.081-.081.382-.185.379-.65.622-1.078.565-.278-.037-.322-.067-.284-.188.064-.203-.066-.179-.357.067l-.25.21.053-.21m1.111-.732c-.219-.049-.154-.147.096-.147.127 0 .231.025.231.056 0 .079-.169.127-.328.091m3.433.003c-.177-.064-.099-.15.135-.15.127 0 .231.01.231.023 0 .06-.281.158-.366.127" fill="#1e8438" stroke-width=".726"/></g><g transform="matrix(1.37785 0 0 1.37785-.912-1.917)"><rect width="7.466" height="10.151" x="4.223" y="5.67" fill="#fff" fill-rule="evenodd" rx="1.27"/><g fill="#d10000" stroke-width=".726"><path d="m6.986 13.976c-1.179-1.208-1.438-1.604-1.438-2.199 0-.639.324-1.063.937-1.226.309-.083.406-.077.71.039.194.074.461.259.595.411l.242.276.282-.308c.659-.719 1.69-.59 2.103.263.158.326.165.395.084.784-.121.575-.493 1.109-1.249 1.793-.347.314-.758.727-.913.918l-.282.347z"/><path d="m9.489 7.955c-.424-.435-.518-.578-.518-.792 0-.23.117-.383.337-.442.111-.03.146-.028.256.014.07.027.166.093.214.148l.087.099.101-.111c.237-.259.608-.213.757.095.057.117.059.142.03.282-.043.207-.177.399-.45.646-.125.113-.273.262-.329.33l-.102.125z"/></g><text x="6.917" y="7.526" transform="scale(.76244 1.31157)" font-family="sans-serif" word-spacing="0" line-height="1.25" letter-spacing="0" font-size="3.494"><tspan x="6.917" y="7.526" stroke-width=".726">A</tspan></text></g><g transform="matrix(1.37785 0 0 1.37785-.313-2.9)"><path d="m15.08 19.658c-1.179-1.208-1.438-1.604-1.438-2.199 0-.639.324-1.063.937-1.226.309-.083.406-.077.71.039.194.074.461.259.595.411l.242.276.282-.308c.659-.719 1.69-.59 2.103.263.158.326.165.395.084.784-.121.575-.493 1.109-1.249 1.793-.347.314-.758.727-.913.918l-.282.347z" fill="#d10000" stroke-width=".726"/><rect width="7.466" height="10.151" x="12.321" y="11.352" fill="#fff" fill-rule="evenodd" rx="1.27"/><g stroke-width=".726"><path d="m14.927 20.483c.482-.171.99-.755 1.111-1.278.06-.258.017-.26-.378-.017-.358.22-.994.26-1.335.082-.425-.221-.594-.487-.594-.933 0-.554.248-.896 1.261-1.74.436-.363.87-.758.965-.878l.174-.218.208.248c.115.136.512.501.883.81.847.706 1.06.934 1.21 1.293.352.843-.158 1.526-1.139 1.526-.317 0-.484-.046-.701-.193-.156-.106-.3-.193-.319-.193-.115 0-.004.488.168.741.213.314.358.443.752.667.233.132.213.135-1.073.129-.721-.003-1.258-.025-1.195-.047"/><path d="m17.372 14.296c.204-.072.419-.32.47-.541.025-.109.007-.11-.16-.007-.151.093-.421.11-.565.035-.18-.094-.252-.206-.252-.395 0-.235.105-.379.534-.737.184-.154.368-.321.409-.372l.073-.092.088.105c.049.058.217.212.374.343.359.299.449.395.512.547.149.357-.067.646-.482.646-.134 0-.205-.019-.297-.082-.066-.045-.127-.082-.135-.082-.049 0-.002.206.071.314.09.133.152.187.318.282.099.056.09.057-.454.055-.305-.001-.533-.01-.506-.02"/></g><text x="16.575" y="12.377" transform="scale(.79689 1.25487)" font-family="sans-serif" word-spacing="0" line-height="1.25" letter-spacing="0" font-size="3.577"><tspan x="16.575" y="12.377" stroke-width=".726">4</tspan></text></g></g>

   xmlns:dc="http://purl.org/dc/elements/1.1/"
   xmlns:cc="http://creativecommons.org/ns#"
   xmlns:rdf="http://www.w3.org/1999/02/22-rdf-syntax-ns#"
   xmlns:svg="http://www.w3.org/2000/svg"
   xmlns="http://www.w3.org/2000/svg"
   xmlns:sodipodi="http://sodipodi.sourceforge.net/DTD/sodipodi-0.dtd"
   xmlns:inkscape="http://www.inkscape.org/namespaces/inkscape"
   height="32"
   width="32"
   version="1"
   id="svg8"
   sodipodi:docname="star-mime-2.svg"
   inkscape:version="0.92.1 r"&gt;
  <g transform="translate(152.47 194.05)" fill="#fff"><path d="m-125.38-193.25l-.077 3.548 3.072 1.831-3.548-.077-3.135 6.791 1.38-7.268-3.072-1.831 3.548.077z"/><path d="m-125.41-183.04l.042-1.955-1.692-1.01 1.955.042 1.727-3.741-.76 4 1.692 1.01-1.955-.042z"/></g></svg>