<svg xmlns="http://www.w3.org/2000/svg" viewBox="0 0 32 32"><rect width="28.2" height="28.2" x="1.898" y="1.898" fill="#4bae4f" fill-rule="evenodd" rx="5.575"/><path d="m8.78 25.942c-1.27-.336-2.242-1.268-2.655-2.548-.1-.31-.111-.409-.145-1.321-.02-.542-.029-3.666-.021-6.942l.016-5.956.086-.335c.175-.682.647-1.46 1.151-1.897.486-.422.903-.649 1.56-.851l.351-.108 6.324-.015c6.469-.015 7.415 0 7.856.132.842.251 1.654.842 2.105 1.532.241.369.37.651.525 1.147l.111.355v6.863 6.863l-.092.335c-.242.883-.714 1.596-1.402 2.116-.32.242-.95.539-1.364.641-.332.082-.362.082-7.198.081l-6.865-.002zm12.08-1.438l1.992-.025.355-.173c.496-.242.864-.61 1.095-1.095l.166-.349.026-1.262c.033-1.622.034-9.514.001-11.162l-.025-1.262-.173-.355c-.238-.488-.595-.846-1.086-1.088l-.352-.174-1.325-.032c-.729-.017-3.756-.025-6.728-.016-5.987.017-5.588-.001-6.11.275-.308.163-.756.61-.917.916-.286.543-.265-.041-.263 7.336l.002 6.626.083.256c.199.613.625 1.099 1.22 1.389l.345.169 1.755.021c2.558.031 7.643.033 9.94.004" fill="#7eec65"/><path d="m14.195 22.578c-.081-.03-.25-.132-.375-.225-.237-.177-3.769-3.668-4.317-4.267-.361-.394-.419-.538-.34-.849.041-.163.12-.261.634-.785.323-.329.656-.646.739-.704.213-.148.418-.168.627-.061.102.052.685.594 1.496 1.389 1.255 1.232 1.569 1.524 1.6 1.488.013-.014 1.014-1.488 4.02-5.912 2.133-3.143 2.089-3.083 2.284-3.187.137-.074.219-.09.391-.078.199.014.266.047.789.397.91.609 1.012.698 1.086.955.039.135.053.266.036.343-.04.182-2.99 4.584-6.521 9.732-.964 1.405-1.115 1.596-1.349 1.708-.199.094-.613.123-.796.055" fill="#b0ff89"/>

   xmlns:dc="http://purl.org/dc/elements/1.1/"
   xmlns:cc="http://creativecommons.org/ns#"
   xmlns:rdf="http://www.w3.org/1999/02/22-rdf-syntax-ns#"
   xmlns:svg="http://www.w3.org/2000/svg"
   xmlns="http://www.w3.org/2000/svg"
   xmlns:sodipodi="http://sodipodi.sourceforge.net/DTD/sodipodi-0.dtd"
   xmlns:inkscape="http://www.inkscape.org/namespaces/inkscape"
   height="32"
   width="32"
   version="1"
   id="svg8"
   sodipodi:docname="star-mime-2.svg"
   inkscape:version="0.92.1 r"&gt;
  <g transform="translate(152.47 194.05)" fill="#fff"><path d="m-125.38-193.25l-.077 3.548 3.072 1.831-3.548-.077-3.135 6.791 1.38-7.268-3.072-1.831 3.548.077z"/><path d="m-125.41-183.04l.042-1.955-1.692-1.01 1.955.042 1.727-3.741-.76 4 1.692 1.01-1.955-.042z"/></g></svg>