<svg xmlns="http://www.w3.org/2000/svg" xmlns:xlink="http://www.w3.org/1999/xlink" viewBox="0 0 32 32"><defs><linearGradient xlink:href="#3" id="4" gradientUnits="userSpaceOnUse" x1="27.558" y1="-133.46" x2="22.09" y2="-134.43"/><linearGradient xlink:href="#3" id="2" gradientUnits="userSpaceOnUse" x1="15.879" y1="-141.91" x2="30.32" y2="-129.74"/><linearGradient id="3"><stop stop-color="#55c03f"/><stop offset="1" stop-color="#198b26"/></linearGradient><linearGradient id="1"><stop stop-color="#f9f9f9"/><stop offset="1" stop-color="#999"/></linearGradient><linearGradient xlink:href="#1" id="0" gradientUnits="userSpaceOnUse" x1="17.658" y1="-133.51" x2="15.02" y2="-125.58"/><radialGradient xlink:href="#1" id="5" cx="-176.59" cy="-120.91" r="3.01" gradientUnits="userSpaceOnUse" gradientTransform="matrix(2.21087.05719-.05496 2.12455 412.97 145.84)"/></defs><g transform="translate(34.91 6.351)"><g fill-rule="evenodd"><path d="m-5.123-.479c-1.071 1.472-2.15 2.783-3.24 3.795-1.225 1.137-2.46 2.01-3.699 2.687-1.239.677-2.482 1.156-3.723 1.498-1.24.342-2.477.549-3.707.684-2.459.269-4.885.249-7.229.447-1.172.099-2.323.254-3.447.525-.97.234-1.909.614-2.836 1.064v7.953c0 3.089 2.486 5.576 5.574 5.576h17.05c3.089 0 5.576-2.488 5.576-5.576v-17.05c0-.569-.165-1.085-.322-1.602" opacity=".99" fill="#ad7fa8"/><path d="m-27.43-4.453c-3.089 0-5.574 2.488-5.574 5.576v9.1c.927-.451 1.865-.83 2.836-1.064 1.124-.272 2.276-.426 3.447-.525 2.343-.199 4.769-.178 7.229-.447 1.23-.135 2.467-.341 3.707-.684 1.24-.342 2.484-.822 3.723-1.498 1.239-.677 2.474-1.55 3.699-2.688 1.091-1.012 2.17-2.323 3.24-3.795-.695-2.287-2.734-3.975-5.254-3.975" opacity=".99" fill="#c19ebd"/></g><path d="m-33.02 12.175l.048 4.362c7.45 5.02 14.13 3.413 20.566-.336.584 2.18-.192-6.903-.192-6.903-6.979 2.787-13.826 4.171-20.422 2.876" fill="#c09dbd"/><path d="m-32.716 13.278l.048 3.835c7.45 5.02 14.13 3.413 20.566-.336l-.192-6.376c-6.979 2.787-13.826 4.171-20.422 2.876z" fill="#eeeeec" stroke="#555753" stroke-width=".6"/><g fill="#b5b6b2"><path d="m-30.13 13.901l-.144 4.219.959-4.123z"/><path d="m-22.504 13.565l1.534 5.992-.336-6.136z"/><path d="m-26.483 13.997l.24 5.657.623-5.753z"/></g><g fill="#2e3436"><path d="m-32.994 4.688c2.46-.67 4.583-.629 6.48-.119-.51-.392-3.216-2.459-6.48-.441z"/><path d="m-20.781 4c2.981-1.688 5.454-1.781 7.803-1.483-.643-.367-4.46-3-7.803 1.483"/></g><g transform="matrix(.84987 0 0 .85094-81.27-6.125)" stroke-width="1.176"><g stroke="#555753"><path d="m76.11 28.624l-1.055 1.87c-1.586 3.495 11.886 3.16 10.223.048l-1.067-2.445z" fill="#555753" stroke-width=".941"/><circle cx="80.03" cy="22.61" r="7.966" fill="#f3f3f3" stroke-linejoin="bevel" stroke-linecap="round" stroke-width=".706"/></g><circle cx="80.03" cy="22.61" r="3.763" fill="#9b9c9a" stroke="#2e3436" stroke-linejoin="bevel" stroke-linecap="round" stroke-width=".706"/><circle cx="75.51" cy="18.845" r=".78" fill="#4e9a06"/><circle cx="80.03" cy="22.61" r="2.712" fill="#555753"/><ellipse cx="79.31" cy="21.508" rx=".661" ry=".692" fill="#e0e0df"/><ellipse cx="80.05" cy="14.864" rx="2.695" ry=".864" fill="#555753" stroke="#555753" stroke-linejoin="bevel" stroke-linecap="round" stroke-width=".941"/></g></g><g transform="translate(-.916 143.06)"><path d="m15.583-142.61c-5.577-1.531-5.951 3.24-4.58 5.493 4.381 6.983 6.796 6.577 9.398 7.895 1.712 2.064 3.451 3.4 6.469 4.1 11.69 1.559 3.242-8.417.92-8.649-5.065.012-7.547-6.123-12.206-8.838" fill="url(#0)"/><path d="m15.583-142.61c3.76.276 5.616-.626 8.93-.421 4.319.283 8.307 2.053 7.838 6.574-.347 2.567-.37 2.25.186 4.296.532 1.535-.252 4.232-.487 4.654-2.715 4.963-1.536 4.965-2.656 7.742l-.906-.418-2.508-11.358c-7.177-.909-10.754-10.11-10.398-11.07" fill="url(#2)"/><path d="m22.374-132.67c.362.274 1.553-5.105 1.172-5.653 1.379 2.44 1.919 4.616 2.435 6.783-1.276-.283-2.289-.554-3.607-1.13" fill="url(#4)"/><circle r="3.01" cy="-119.45" cx="29.06" fill="url(#5)"/></g></svg>