<svg xmlns="http://www.w3.org/2000/svg" viewBox="0 0 32 32"><rect width="28.2" height="28.2" x="1.898" y="1.898" fill="#666" fill-rule="evenodd" rx="5.575"/><path d="m16.826 4.903c-.125.062-.267.109-.38.194-.216.166-.427.343-.62.534-.213.21-.433.328-.743.392-.746.151-1.187.319-1.884.611-1.551.653-2.577 1.882-3.309 3.361-.649 1.314-.661 2.739-.607 4.171.11 2.953 1.869 5.109 2.81 7.382h.244c-.367 0-.696.247-.696.554v1.112c0 .307.329.712.696.712h-.523c-.48 0-.965.371-.965.831v1.508c0 .461.485.831.965.831h7.654c.48 0 .892-.371.892-.831v-1.508c0-.461-.412-.831-.892-.831h-.523c.367 0 .623-.405.623-.712v-1.112c0-.307-.256-.554-.623-.554h.102c.238-.221.228-.616.44-.842.962-1.018 1.134-2.462.458-3.699-.33-.604-.794-1.094-1.33-1.513-.603-.472-1.226-.916-1.834-1.38-.174-.133-.152-.284-.383-.493.573.121.855.271 1.317.294.797.039 1.484.383 2.122.847.246.179.533.323.821.423.375.129.561.037.785-.302.059-.09.094-.193.15-.31.444.011.688-.33.81-.74.042-.14.112-.27.163-.407.345-.914.168-1.724-.494-2.43-.148-.161-.323-.296-.478-.451-.515-.515-1.034-1.027-1.536-1.554-.365-.383-.693-.801-1.062-1.181-.182-.187-.336-.375-.421-.626-.128-.377-.368-.667-.718-.863-.124-.07-.559-.15-.649-.208-.144-.42.198-.946-.382-1.21" fill="#f9f9f9" stroke-width=".793"/>

   xmlns:dc="http://purl.org/dc/elements/1.1/"
   xmlns:cc="http://creativecommons.org/ns#"
   xmlns:rdf="http://www.w3.org/1999/02/22-rdf-syntax-ns#"
   xmlns:svg="http://www.w3.org/2000/svg"
   xmlns="http://www.w3.org/2000/svg"
   xmlns:sodipodi="http://sodipodi.sourceforge.net/DTD/sodipodi-0.dtd"
   xmlns:inkscape="http://www.inkscape.org/namespaces/inkscape"
   height="32"
   width="32"
   version="1"
   id="svg8"
   sodipodi:docname="star-mime-2.svg"
   inkscape:version="0.92.1 r"&gt;
  <g transform="translate(152.47 194.05)" fill="#fff"><path d="m-125.38-193.25l-.077 3.548 3.072 1.831-3.548-.077-3.135 6.791 1.38-7.268-3.072-1.831 3.548.077z"/><path d="m-125.41-183.04l.042-1.955-1.692-1.01 1.955.042 1.727-3.741-.76 4 1.692 1.01-1.955-.042z"/></g></svg>