<svg xmlns="http://www.w3.org/2000/svg" xmlns:xlink="http://www.w3.org/1999/xlink" viewBox="0 0 32 32"><defs><linearGradient xlink:href="#3" id="4" gradientUnits="userSpaceOnUse" x1="27.558" y1="-133.46" x2="22.09" y2="-134.43"/><linearGradient xlink:href="#3" id="2" gradientUnits="userSpaceOnUse" x1="15.879" y1="-141.91" x2="30.32" y2="-129.74"/><linearGradient id="3"><stop stop-color="#55c03f"/><stop offset="1" stop-color="#198b26"/></linearGradient><linearGradient id="1"><stop stop-color="#f9f9f9"/><stop offset="1" stop-color="#999"/></linearGradient><linearGradient xlink:href="#1" id="0" gradientUnits="userSpaceOnUse" x1="17.658" y1="-133.51" x2="15.02" y2="-125.58"/><radialGradient xlink:href="#1" id="5" cx="-176.59" cy="-120.91" r="3.01" gradientUnits="userSpaceOnUse" gradientTransform="matrix(2.21087.05719-.05496 2.12455 412.97 145.84)"/></defs><rect width="28.2" height="28.2" x="1.898" y="1.898" fill="#ffecac" fill-rule="evenodd" rx="5.575"/><g transform="matrix(.73633 0 0 .73633 4.219 4.219)"><path d="m14.812 2c.078-.049 1.103.609 2.158 1.385 1.545 1.135 2.526 2.138 3.386 3.468.213.329.388.671.546 1.018.092.143.179.29.26.441 1.67 3.144.764 7.113-2.025 8.863-2.788 1.75-6.402.62-8.07-2.525-.077-.145-.149-.292-.215-.443-.081-.142-.17-.279-.239-.425-.946-2.01-.754-4.153.289-5.98.552-.967 1.659-1.954 2.456-2.456.994-.627 1.329-1.895 1.392-2.998.01-.177.039-.332.062-.347" fill="#975a34"/><g stroke-linejoin="round" stroke-linecap="round"><path d="m11.09102 12a1.090995 1.20012 0 0 0 -1.0536 1.51172l3.818 15.6A1.090995 1.20012 0 0 0 14.909114 30h2.182a1.090995 1.20012 0 0 0 1.0536 -.888281L21.963 13.512A1.090995 1.20012 0 0 0 20.908985 12" fill="#f1b65c" stroke-width="1.519"/><rect ry="1" rx=".727" y="11" x="8" height="2" width="16" fill="#ffcf88" stroke-width="3.491"/></g></g><g transform="matrix(.625 0 0 .625 8.03 8.559)"><circle r="8" cy="23" cx="24" fill="#cc5e55" fill-rule="evenodd"/><path d="m23 19l-.088 1.054a3.1429 3.1429 0 0 0 -.91852 .53126l-.958-.451-1 1.732.869.604a3.1429 3.1429 0 0 0 -.048 .53013 3.1429 3.1429 0 0 0 .0457 .53237l-.867.602 1 1.732.955-.45a3.1429 3.1429 0 0 0 .92075 .5279l.088 1.056h2l.088-1.054a3.1429 3.1429 0 0 0 .91854 -.53126l.958.451 1-1.732-.869-.604a3.1429 3.1429 0 0 0 .048 -.53013 3.1429 3.1429 0 0 0 -.0457 -.53237l.867-.602-1-1.732-.955.45a3.1429 3.1429 0 0 0 -.921 -.528l-.088-1.056h-2m1.00005 2.8575a1.1429 1.1429 0 0 1 1.143 1.143 1.1429 1.1429 0 0 1 -1.143 1.143 1.1429 1.1429 0 0 1 -1.143 -1.143 1.1429 1.1429 0 0 1 1.143 -1.143" fill="#fff"/></g><g transform="translate(-.916 143.06)"><path d="m15.583-142.61c-5.577-1.531-5.951 3.24-4.58 5.493 4.381 6.983 6.796 6.577 9.398 7.895 1.712 2.064 3.451 3.4 6.469 4.1 11.69 1.559 3.242-8.417.92-8.649-5.065.012-7.547-6.123-12.206-8.838" fill="url(#0)"/><path d="m15.583-142.61c3.76.276 5.616-.626 8.93-.421 4.319.283 8.307 2.053 7.838 6.574-.347 2.567-.37 2.25.186 4.296.532 1.535-.252 4.232-.487 4.654-2.715 4.963-1.536 4.965-2.656 7.742l-.906-.418-2.508-11.358c-7.177-.909-10.754-10.11-10.398-11.07" fill="url(#2)"/><path d="m22.374-132.67c.362.274 1.553-5.105 1.172-5.653 1.379 2.44 1.919 4.616 2.435 6.783-1.276-.283-2.289-.554-3.607-1.13" fill="url(#4)"/><circle r="3.01" cy="-119.45" cx="29.06" fill="url(#5)"/></g></svg>