<svg xmlns="http://www.w3.org/2000/svg" viewBox="0 0 32 32"><defs><linearGradient gradientTransform="matrix(-2.65552 0 0 2.58531 193.77-277.73)" id="0" x1="67.894" y1="108.69" x2="67.854" y2="113.11" gradientUnits="userSpaceOnUse"><stop stop-color="#f9f9f9"/><stop offset="1" stop-color="#999"/></linearGradient></defs><g transform="translate(29.966-2.169)"><rect y="4.068" x="-28.07" height="28.2" width="28.2" fill="#ffecac" fill-rule="evenodd" rx="5.575"/><g transform="matrix(.73633 0 0 .73633-25.747 6.388)"><path d="m14.812 2c.078-.049 1.103.609 2.158 1.385 1.545 1.135 2.526 2.138 3.386 3.468.213.329.388.671.546 1.018.092.143.179.29.26.441 1.67 3.144.764 7.113-2.025 8.863-2.788 1.75-6.402.62-8.07-2.525-.077-.145-.149-.292-.215-.443-.081-.142-.17-.279-.239-.425-.946-2.01-.754-4.153.289-5.98.552-.967 1.659-1.954 2.456-2.456.994-.627 1.329-1.895 1.392-2.998.01-.177.039-.332.062-.347" fill="#975a34"/><g stroke-linejoin="round" stroke-linecap="round"><path d="m11.09102 12a1.090995 1.20012 0 0 0 -1.0536 1.51172l3.818 15.6A1.090995 1.20012 0 0 0 14.909114 30h2.182a1.090995 1.20012 0 0 0 1.0536 -.888281L21.963 13.512A1.090995 1.20012 0 0 0 20.908985 12" fill="#f1b65c" stroke-width="1.519"/><rect width="16" height="2" x="8" y="11" rx=".727" ry="1" fill="#ffcf88" stroke-width="3.491"/></g></g></g>

   xmlns:dc="http://purl.org/dc/elements/1.1/"
   xmlns:cc="http://creativecommons.org/ns#"
   xmlns:rdf="http://www.w3.org/1999/02/22-rdf-syntax-ns#"
   xmlns:svg="http://www.w3.org/2000/svg"
   xmlns="http://www.w3.org/2000/svg"
   xmlns:xlink="http://www.w3.org/1999/xlink"
   xmlns:sodipodi="http://sodipodi.sourceforge.net/DTD/sodipodi-0.dtd"
   xmlns:inkscape="http://www.inkscape.org/namespaces/inkscape"
   version="1"
   width="32"
   height="32"
   id="svg12"
   sodipodi:docname="snow-top-3.svg"
   inkscape:version="0.92.1 r"&gt;
  <path d="m24.627.009c8.36-.339 9.455 9.523 4.064 9.505-.686.003-1.62-.197-3-1.471-14.665-10.216-14.549 2.967-17.708.875-1.727-1.822-1.743 4.653-4.139 5.127-2.122.613-3.699-1.385-3.824-4.503-.366-8.627 4.086-9.427 7.187-9.524 5.974.133 11.562-.045 17.419-.01" fill="url(#0)"/></svg>