<svg xmlns="http://www.w3.org/2000/svg" xmlns:xlink="http://www.w3.org/1999/xlink" viewBox="0 0 32 32"><defs><filter color-interpolation-filters="sRGB"><feGaussianBlur stdDeviation="1.71"/></filter><linearGradient id="4" x1="-178.12" y1="-134.12" x2="-183.59" y2="-135.1" gradientUnits="userSpaceOnUse"><stop stop-color="#7c0000"/><stop offset="1" stop-color="#7c0000" stop-opacity="0"/></linearGradient><linearGradient id="3" x1="-189.8" y1="-142.57" x2="-175.35" y2="-130.4" gradientUnits="userSpaceOnUse"><stop stop-color="#ff383f"/><stop offset="1" stop-color="#a02d26"/></linearGradient><linearGradient id="2"><stop stop-color="#f9f9f9"/><stop offset="1" stop-color="#999"/></linearGradient><linearGradient xlink:href="#2" id="1" x1="-188.02" y1="-134.18" x2="-190.66" y2="-126.24" gradientUnits="userSpaceOnUse"/><radialGradient xlink:href="#2" id="5" cx="-176.59" cy="-120.91" r="3.01" gradientUnits="userSpaceOnUse" gradientTransform="matrix(2.21087.05719-.05496 2.12455 207.3 145.17)"/></defs><rect width="28.2" height="28.2" x="1.898" y="1.898" fill="#35b9f5" fill-rule="evenodd" rx="5.575"/><g fill="#fff"><path d="m90 21.948c-3.09 1.371-6.412 2.297-9.898 2.714 3.558-2.133 6.291-5.51 7.577-9.534-3.33 1.975-7.02 3.409-10.944 4.182-3.143-3.349-7.622-5.442-12.579-5.442-9.517 0-17.234 7.716-17.234 17.233 0 1.351.152 2.666.446 3.927-14.323-.719-27.02-7.58-35.521-18.01-1.483 2.545-2.334 5.505-2.334 8.664 0 5.979 3.043 11.254 7.667 14.344-2.825-.089-5.482-.865-7.806-2.155-.002.072-.002.144-.002.217 0 8.35 5.941 15.314 13.824 16.899-1.446.394-2.969.604-4.54.604-1.111 0-2.19-.108-3.242-.309 2.193 6.846 8.558 11.829 16.1 11.968-5.898 4.623-13.329 7.378-21.403 7.378-1.391 0-2.763-.082-4.111-.241 7.627 4.89 16.685 7.743 26.418 7.743 31.699 0 49.03-26.26 49.03-49.03 0-.747-.017-1.49-.05-2.23 3.367-2.429 6.288-5.464 8.599-8.92" fill="#fff" transform="matrix(.22801 0 0 .22445 5.056 5.226)"/></g><path d="m32 .157l-.27 2.221-.122-2.378" fill="#f9f9f9" id="0"/><use xlink:href="#0"/><path d="m32 .113l-.27 1.6-.122-1.713" fill="#f9f9f9"/><g transform="matrix(-1 0 0 1-172.76 143.72)"><path d="m-190.09-143.27c-5.577-1.531-5.951 3.24-4.58 5.493 4.381 6.983 6.796 6.577 9.398 7.895 1.712 2.064 3.451 3.4 6.469 4.1 11.69 1.559 3.242-8.417.92-8.649-5.065.012-7.547-6.123-12.206-8.838" fill="url(#1)"/><path d="m-190.09-143.27c3.76.276 5.616-.626 8.93-.421 4.319.283 8.307 2.053 7.838 6.574-.347 2.567-.37 2.25.186 4.296.532 1.535-.252 4.232-.487 4.654-2.715 4.963-1.536 4.965-2.656 7.742l-.906-.418-2.508-11.358c-7.177-.909-10.754-10.11-10.398-11.07" fill="url(#3)"/><path d="m-183.3-133.33c.362.274 1.553-5.105 1.172-5.653 1.379 2.44 1.919 4.616 2.435 6.783-1.276-.283-2.289-.554-3.607-1.13" fill="url(#4)"/><circle r="3.01" cy="-120.11" cx="-176.61" fill="url(#5)"/></g></svg>