<svg xmlns="http://www.w3.org/2000/svg" viewBox="0 0 32 32"><defs><linearGradient gradientTransform="matrix(-2.65552 0 0 2.58531 193.77-277.73)" id="0" x1="67.894" y1="108.69" x2="67.854" y2="113.11" gradientUnits="userSpaceOnUse"><stop stop-color="#f9f9f9"/><stop offset="1" stop-color="#999"/></linearGradient></defs><g transform="matrix(.6667 0 0 .6667-21.842 8.665)" stroke-width="1.5"><g transform="matrix(1.33333 0 0 1.33333 32.76-12.997)" stroke-width="1.5"><path d="m8.406 2.137h19.19c3.461 0 6.27 2.809 6.27 6.27v19.19c0 3.461-2.809 6.27-6.27 6.27h-19.19c-3.461 0-6.27-2.809-6.27-6.27v-19.19c0-3.461 2.809-6.27 6.27-6.27" fill="#8c8c8c" fill-rule="evenodd"/><path d="m10.03 9.203h15.945c2.086 0 3.781 1.691 3.781 3.781v10.03c0 2.09-1.695 3.781-3.781 3.781h-15.945c-2.086 0-3.781-1.691-3.781-3.781v-10.03c0-2.09 1.695-3.781 3.781-3.781" fill="#454545"/><path d="m10.168 10.316h15.664c1.582 0 2.867 1.23 2.867 2.75v9.867c0 1.52-1.285 2.75-2.867 2.75h-15.664c-1.582 0-2.867-1.23-2.867-2.75v-9.867c0-1.52 1.285-2.75 2.867-2.75" fill="#212121"/></g><g transform="matrix(.45552 0 0 .45552 71.84 5.072)" stroke-width=".872"><path d="m-19.595 3.035c-.064-.526-.112-1.061-.313-1.531-.285-.667-.697-1.268-1.208-1.771-.511-.504-1.121-.912-1.798-1.193-.677-.281-1.421-.438-2.204-.438h-17.29c-.783 0-1.527.156-2.204.438-.677.281-1.285.69-1.796 1.193-.511.504-.925 1.104-1.21 1.771-.285.667-.442 1.402-.442 2.174v2.672l5.622 9.607.158.313.04.023.354.609 3.261 2.584.905-.383 1.038.646c-.123-.223-.246-.557-.366-.93l6.099-2.57-6.311-10.785c.577-1.314 1.586-2.234 3.358-2.43z" fill="#dd4d3e" stroke-width="1.151"/><g stroke-width="1.143"><path d="m-31.26 26.305h6.221c.772 0 1.506-.154 2.174-.436.667-.281 1.268-.69 1.771-1.193.504-.504.912-1.104 1.193-1.771.281-.667.436-1.402.436-2.174v-17.05c0-.228-.103-.422-.129-.643h-14.09c-.02 0 2.912 1.306 4.148 2.02 3.16 1.825 3.489 8.341 3.496 10.979l.531.307-.541.936c0 .001 0 .043 0 .043l-.205.309z" fill="#ffce41"/><path d="m-48.05 4.315v16.416c0 .772.156 1.506.438 2.174.281.667.688 1.268 1.191 1.771.504.504 1.104.912 1.771 1.193.667.281 1.404.436 2.176.436h11.215l6.141-10.213c-.696 1.133-3.593 2.585-4.83 3.299-3.957 2.285-8.983.807-11.268-3.15z" fill="#109f5b"/><g transform="matrix(0-1-1 0 0 0)"><rect rx="9.169" height="18.339" width="18.339" y="24.532" x="-21.373" fill="#fff"/><rect rx="6.55" height="13.1" width="13.1" y="27.15" x="-18.753" fill="#4587f3"/></g></g></g></g>

   xmlns:dc="http://purl.org/dc/elements/1.1/"
   xmlns:cc="http://creativecommons.org/ns#"
   xmlns:rdf="http://www.w3.org/1999/02/22-rdf-syntax-ns#"
   xmlns:svg="http://www.w3.org/2000/svg"
   xmlns="http://www.w3.org/2000/svg"
   xmlns:xlink="http://www.w3.org/1999/xlink"
   xmlns:sodipodi="http://sodipodi.sourceforge.net/DTD/sodipodi-0.dtd"
   xmlns:inkscape="http://www.inkscape.org/namespaces/inkscape"
   version="1"
   width="32"
   height="32"
   id="svg12"
   sodipodi:docname="snow-top-3.svg"
   inkscape:version="0.92.1 r"&gt;
  <path d="m24.627.009c8.36-.339 9.455 9.523 4.064 9.505-.686.003-1.62-.197-3-1.471-14.665-10.216-14.549 2.967-17.708.875-1.727-1.822-1.743 4.653-4.139 5.127-2.122.613-3.699-1.385-3.824-4.503-.366-8.627 4.086-9.427 7.187-9.524 5.974.133 11.562-.045 17.419-.01" fill="url(#0)"/></svg>