<svg xmlns="http://www.w3.org/2000/svg" viewBox="0 0 32 32"><defs><linearGradient gradientTransform="matrix(-2.65552 0 0 2.58531 193.77-277.73)" id="0" x1="67.894" y1="108.69" x2="67.854" y2="113.11" gradientUnits="userSpaceOnUse"><stop stop-color="#f9f9f9"/><stop offset="1" stop-color="#999"/></linearGradient></defs><rect width="28.2" height="28.2" x="1.898" y="1.898" fill="#c2352a" fill-rule="evenodd" rx="5.575"/><path d="m9.317 9.177c-1.124.1-1.538.158-2.151.681-.944.829-1.166 2.457-1.166 4.952v2.373c0 2.843.378 4.29 1.01 4.818.721.617 1.199.665 1.676.738.186.027 1.508.261 7.362.261 3.649 0 6.785-.173 7.11-.212.523-.067 1.265-.161 1.839-.787.838-.948 1-2.521 1-4.803v-2.762c0-1.476-.081-3.56-1-4.435-.699-.59-.955-.754-2.4-.828-.408-.018-3.97-.173-6.461-.173-2.338.001-5.786.144-6.819.177m4.684 3.822l5 3-5 3" fill="#f9f9f9"/><g transform="matrix(.66667 0 0 .66667 12.52 12.249)"><circle r="7.5" cy="16" cx="16" fill="#03a9f4"/><path d="m17.5 11.5l3 3h-1l-2.5 2.5c1.5 1.5-.5 2.5-.5 2.5l-1.5-1.5-2.5 2.5h-1v-1l2.5-2.5-1.5-1.5c0 0 1-2 2.5-.5l2.5-2.5z" fill="#fff"/></g>

   xmlns:dc="http://purl.org/dc/elements/1.1/"
   xmlns:cc="http://creativecommons.org/ns#"
   xmlns:rdf="http://www.w3.org/1999/02/22-rdf-syntax-ns#"
   xmlns:svg="http://www.w3.org/2000/svg"
   xmlns="http://www.w3.org/2000/svg"
   xmlns:xlink="http://www.w3.org/1999/xlink"
   xmlns:sodipodi="http://sodipodi.sourceforge.net/DTD/sodipodi-0.dtd"
   xmlns:inkscape="http://www.inkscape.org/namespaces/inkscape"
   version="1"
   width="32"
   height="32"
   id="svg12"
   sodipodi:docname="snow-top-3.svg"
   inkscape:version="0.92.1 r"&gt;
  <path d="m24.627.009c8.36-.339 9.455 9.523 4.064 9.505-.686.003-1.62-.197-3-1.471-14.665-10.216-14.549 2.967-17.708.875-1.727-1.822-1.743 4.653-4.139 5.127-2.122.613-3.699-1.385-3.824-4.503-.366-8.627 4.086-9.427 7.187-9.524 5.974.133 11.562-.045 17.419-.01" fill="url(#0)"/></svg>