<svg xmlns="http://www.w3.org/2000/svg" xmlns:xlink="http://www.w3.org/1999/xlink" viewBox="0 0 32 32"><defs><linearGradient gradientTransform="matrix(-2.54182 0 0 2.58531 185.47-277.37)" id="1" x1="67.894" y1="108.69" x2="67.854" y2="113.11" gradientUnits="userSpaceOnUse"><stop stop-color="#f9f9f9"/><stop offset="1" stop-color="#999"/></linearGradient></defs><g fill-rule="evenodd"><path d="m11.695 8.229v3.227h8.609v-3.227h-8.609" fill="#4d4d4d"/><path d="m18.279 30.1c.37-.203.745-.405 1.041-.701.403-.403.728-.882.953-1.416.225-.534.35-1.121.35-1.738 0-.617-.125-1.205-.35-1.738-.225-.534-.55-1.013-.953-1.416-.403-.403-.882-.728-1.416-.953-.534-.225-1.121-.35-1.738-.35-.617 0-1.205.125-1.738.35-.534.225-1.013.55-1.416.953-.403.403-.728.882-.953 1.416-.225.534-.35 1.121-.35 1.738 0 .617.125 1.205.35 1.738.225.534.55 1.013.953 1.416.296.296.671.498 1.041.701h4.227" fill="#4587f3"/><path d="m16.17 20.01h9.6c-.043-.358-.076-.721-.213-1.041-.194-.454-.475-.862-.822-1.205-.348-.343-.762-.621-1.223-.813-.46-.191-.967-.297-1.5-.297h-11.766c-.533 0-1.04.105-1.5.297-.46.191-.873.47-1.221.813-.348.343-.63.751-.824 1.205-.194.454-.301.953-.301 1.479v1.818l3.826 6.537.107.213.027.016.24.414.713.564c-.336-.417-.684-.828-.895-1.328-.315-.747-.488-1.569-.488-2.434 0-.864.173-1.687.488-2.434.315-.747.77-1.419 1.334-1.982.564-.564 1.235-1.019 1.982-1.334.658-.277 1.392-.394 2.145-.43.061-.01.09-.051.154-.059h.135" fill="#dd4d3e"/><path d="m16.17 20.01h-.135c-.064.007-.093.049-.154.059.101-.005.186-.059.289-.059" fill="#b3b3b3"/><path d="m6.402 22.273v7.613c.358.072.69.215 1.07.215h3.9c-.024-.029-.039-.064-.063-.094l-.713-.564-.24-.414-.027-.016-.107-.213-3.82-6.527" fill="#109f5b"/><g fill="#b3b3b3"><path d="m21.279 30.1l.727-1.209c-.081.132-.361.28-.518.422-.18.26-.331.54-.529.787h.32"/><path d="m21.693 29.15l.049-.086-.061-.035c-.07.092-.128.192-.193.287.062-.056.125-.109.205-.166"/></g><path d="m25.854 29.834v-9.389c0-.155-.07-.287-.088-.438h-9.586c0 0 .01.004.01.004.855.003 1.67.172 2.41.484.747.315 1.419.77 1.982 1.334.564.564 1.019 1.235 1.334 1.982.315.747.49 1.569.49 2.434 0 .864-.175 1.687-.49 2.434-.055.131-.15.236-.234.348l.061.035-.049.086c.123-.087.263-.176.313-.256l-.727 1.209h3.248c.471 0 .89-.159 1.326-.268" fill="#ffce41"/><path d="m11.695 6.076l-2.15 2.152v3.227h-7.646v13.07c0 2.709 1.951 4.848 4.504 5.359v-7.613l-.006-.01v-1.818c0-.525.107-1.024.301-1.479.194-.454.477-.862.824-1.205.348-.343.76-.621 1.221-.813.46-.191.967-.297 1.5-.297h11.766c.533 0 1.04.105 1.5.297.46.191.875.47 1.223.813.348.343.628.751.822 1.205.137.32.169.683.213 1.041.018.15.088.282.088.438v9.389c2.425-.605 4.248-2.689 4.248-5.307v-13.07h-7.646v-3.227l-2.15-2.152h-8.609m0 2.152h8.609v3.227h-8.609v-3.227" fill="#b3b3b3"/><path d="m7.473 1.898c-3.089 0-5.574 2.486-5.574 5.574v3.982h7.646v-3.227l2.15-2.152h8.609l2.15 2.152v3.227h7.646v-3.982c0-3.089-2.486-5.574-5.574-5.574h-17.05" fill="#4d4d4d"/><rect width="3.332" height="2.073" x="19.971" y="28.02" fill="#ffce41" rx="1.037"/><path d="m20.959 30.1c.359-.446.731-.886.957-1.422.315-.747.49-1.569.49-2.434 0-.864-.175-1.687-.49-2.434-.315-.747-.77-1.419-1.334-1.982-.564-.564-1.235-1.019-1.982-1.334-.747-.315-1.569-.488-2.434-.488-.864 0-1.687.173-2.434.488-.747.315-1.419.77-1.982 1.334-.564.564-1.019 1.235-1.334 1.982-.315.747-.488 1.569-.488 2.434 0 .864.173 1.687.488 2.434.226.536.598.975.957 1.422h2.68c-.37-.203-.745-.405-1.041-.701-.403-.403-.728-.882-.953-1.416-.225-.534-.35-1.121-.35-1.738 0-.617.125-1.205.35-1.738.225-.534.55-1.013.953-1.416.403-.403.882-.728 1.416-.953.534-.225 1.121-.35 1.738-.35.617 0 1.205.125 1.738.35.534.225 1.013.55 1.416.953.403.403.728.882.953 1.416.225.534.35 1.121.35 1.738 0 .617-.125 1.205-.35 1.738-.225.534-.55 1.013-.953 1.416-.296.296-.671.498-1.041.701h2.68" fill="#fff"/></g>

   xmlns:dc="http://purl.org/dc/elements/1.1/"
   xmlns:cc="http://creativecommons.org/ns#"
   xmlns:rdf="http://www.w3.org/1999/02/22-rdf-syntax-ns#"
   xmlns:svg="http://www.w3.org/2000/svg"
   xmlns="http://www.w3.org/2000/svg"
   xmlns:xlink="http://www.w3.org/1999/xlink"
   xmlns:sodipodi="http://sodipodi.sourceforge.net/DTD/sodipodi-0.dtd"
   xmlns:inkscape="http://www.inkscape.org/namespaces/inkscape"
   height="32"
   width="32"
   version="1"
   id="svg8"
   sodipodi:docname="snow-top-3.svg"
   inkscape:version="0.92.1 r"&gt;
  <path fill="#00000f" fill-opacity="0" d="m0 0h32v32h-32z" id="0"/><path d="m7.354 6.111c-2.995 2.684-1.381 7.817-3.674 8.291-2.031.613-3.541-1.385-3.66-4.503-.35-8.627 3.911-9.427 6.879-9.524 28.342-2.047 1.762 4.92.455 5.736" fill="url(#1)"/><use xlink:href="#0"/></svg>