<svg xmlns="http://www.w3.org/2000/svg" viewBox="0 0 32 32"><defs><linearGradient gradientTransform="matrix(-2.65552 0 0 2.58531 193.77-277.73)" id="0" x1="67.894" y1="108.69" x2="67.854" y2="113.11" gradientUnits="userSpaceOnUse"><stop stop-color="#f9f9f9"/><stop offset="1" stop-color="#999"/></linearGradient></defs><rect width="28.2" height="28.2" x="1.898" y="1.898" fill="#d44a4a" fill-rule="evenodd" rx="5.575"/><path d="m16.00006 6.00011a10 10 0 0 0 -8.041 4.0742l3.082 5.336a5 5 0 0 1 .01758 -.14062 5 5 0 0 1 .09766 -.49023 5 5 0 0 1 .14648 -.47656 5 5 0 0 1 .16406 -.39844 5 5 0 0 1 .04101 -.08984 5 5 0 0 1 .17969 -.33203 5 5 0 0 1 .06055 -.10352 5 5 0 0 1 .23047 -.33789 5 5 0 0 1 .04687 -.06836 5 5 0 0 1 .24805 -.29688 5 5 0 0 1 .08203 -.09375 5 5 0 0 1 .23047 -.22656 5 5 0 0 1 .14453 -.13477 5 5 0 0 1 .20508 -.16211 5 5 0 0 1 .19531 -.15039 5 5 0 0 1 .21094 -.13672 5 5 0 0 1 .1582 -.10156 5 5 0 0 1 .06055 -.03125 5 5 0 0 1 .11719 -.0625 5 5 0 0 1 .25 -.12109 5 5 0 0 1 .24609 -.10547 5 5 0 0 1 .20703 -.07617 5 5 0 0 1 .26367 -.08203 5 5 0 0 1 .23438 -.05859 5 5 0 0 1 .24609 -.05078 5 5 0 0 1 .24023 -.03711 5 5 0 0 1 .26172 -.02539 5 5 0 0 1 .22852 -.01172 5 5 0 0 1 .145 -.008h8.645a10 10 0 0 0 -8.644 -5m-8.65525 5.00823a10 10 0 0 0 -1.3457 4.992 10 10 0 0 0 10 10 10 10 0 0 0 4 -.848v-6.154a5 5 0 0 1 -.05664 .07227 5 5 0 0 1 -.12891 .1543 5 5 0 0 1 -.19336 .2207 5 5 0 0 1 -.1543 .15039 5 5 0 0 1 -.21094 .19531 5 5 0 0 1 -.16992 .13476 5 5 0 0 1 -.2168 .16602 5 5 0 0 1 -.21094 .13672 5 5 0 0 1 -.1582 .10156 5 5 0 0 1 -.06055 .03125 5 5 0 0 1 -.11719 .0625 5 5 0 0 1 -.25 .12109 5 5 0 0 1 -.24609 .10547 5 5 0 0 1 -.20703 .07617 5 5 0 0 1 -.26367 .08203 5 5 0 0 1 -.23438 .05859 5 5 0 0 1 -.24609 .05078 5 5 0 0 1 -.24023 .03711 5 5 0 0 1 -.26172 .02539 5 5 0 0 1 -.22852 .01172 5 5 0 0 1 -.144 .008 5 5 0 0 1 -.184 -.006 5 5 0 0 1 -.082 -.004 5 5 0 0 1 -.328 -.031 5 5 0 0 1 -.181 -.022 5 5 0 0 1 -.307 -.062 5 5 0 0 1 -.184 -.041 5 5 0 0 1 -.293 -.088 5 5 0 0 1 -.187 -.064 5 5 0 0 1 -.248 -.104 5 5 0 0 1 -.225 -.101 5 5 0 0 1 -.197 -.108 5 5 0 0 1 -.236 -.135 5 5 0 0 1 -.188 -.127 5 5 0 0 1 -.23 -.164 5 5 0 0 1 -.155 -.129 5 5 0 0 1 -.22 -.193 5 5 0 0 1 -.151 -.154 5 5 0 0 1 -.195 -.211 5 5 0 0 1 -.135 -.17 5 5 0 0 1 -.166 -.217 5 5 0 0 1 -.137 -.211 5 5 0 0 1 -.101 -.158l-.059-.104-4.265-7.388m11.65148.99217a5 5 0 0 1 .07227 .05664 5 5 0 0 1 .1543 .12891 5 5 0 0 1 .2207 .19336 5 5 0 0 1 .15039 .1543 5 5 0 0 1 .19531 .21094 5 5 0 0 1 .13476 .16992 5 5 0 0 1 .16602 .2168 5 5 0 0 1 .13672 .21094 5 5 0 0 1 .10156 .1582 5 5 0 0 1 .03125 .06055 5 5 0 0 1 .0625 .11719 5 5 0 0 1 .12109 .25 5 5 0 0 1 .10547 .24609 5 5 0 0 1 .07617 .20703 5 5 0 0 1 .08203 .26367 5 5 0 0 1 .05859 .23438 5 5 0 0 1 .05078 .24609 5 5 0 0 1 .03711 .24023 5 5 0 0 1 .01953 .13477 5 5 0 0 1 .0059 .12695 5 5 0 0 1 .01172 .22852 5 5 0 0 1 .008 .144v8.644a10 10 0 0 0 5 -8.644 10 10 0 0 0 -.848 -4h-6.154" fill="#fff"/>

   xmlns:dc="http://purl.org/dc/elements/1.1/"
   xmlns:cc="http://creativecommons.org/ns#"
   xmlns:rdf="http://www.w3.org/1999/02/22-rdf-syntax-ns#"
   xmlns:svg="http://www.w3.org/2000/svg"
   xmlns="http://www.w3.org/2000/svg"
   xmlns:xlink="http://www.w3.org/1999/xlink"
   xmlns:sodipodi="http://sodipodi.sourceforge.net/DTD/sodipodi-0.dtd"
   xmlns:inkscape="http://www.inkscape.org/namespaces/inkscape"
   version="1"
   width="32"
   height="32"
   id="svg12"
   sodipodi:docname="snow-top-3.svg"
   inkscape:version="0.92.1 r"&gt;
  <path d="m24.627.009c8.36-.339 9.455 9.523 4.064 9.505-.686.003-1.62-.197-3-1.471-14.665-10.216-14.549 2.967-17.708.875-1.727-1.822-1.743 4.653-4.139 5.127-2.122.613-3.699-1.385-3.824-4.503-.366-8.627 4.086-9.427 7.187-9.524 5.974.133 11.562-.045 17.419-.01" fill="url(#0)"/></svg>