<svg xmlns="http://www.w3.org/2000/svg" xmlns:xlink="http://www.w3.org/1999/xlink" viewBox="0 0 32 32"><defs><linearGradient gradientTransform="matrix(-2.54182 0 0 2.58531 185.47-277.37)" id="1" x1="67.894" y1="108.69" x2="67.854" y2="113.11" gradientUnits="userSpaceOnUse"><stop stop-color="#f9f9f9"/><stop offset="1" stop-color="#999"/></linearGradient></defs><g fill-rule="evenodd"><g fill="#ccc"><rect width="28.2" height="28.2" x="1.898" y="1.898" rx="5.575"/><path d="M6.943359 29.996094A10.07344 10.07344 0 0 1 5.988281 29.75 10.07344 10.07344 0 0 1 5.986328 29.75 10.07344 10.07344 0 0 1 5.04102 29.40625 10.07344 10.07344 0 0 1 4.591797 29.1875C5.296 29.624 6.074 29.911 6.943 29.996"/><path d="M7.634766 30.10156A10.07344 10.07344 0 0 1 6.984375 30.00391C7.154 30.02 7.299 30.1 7.473 30.1H7.635"/><path d="M13.01172 10.910156A10.07344 10.07344 0 0 0 12.964844 11.875 10.07344 10.07344 0 0 0 12.990234 12.587891 10.07344 10.07344 0 0 0 13.11133 13.587891 10.07344 10.07344 0 0 0 13.332031 14.570312 10.07344 10.07344 0 0 0 13.648438 15.525391 10.07344 10.07344 0 0 0 14.06055 16.445312 10.07344 10.07344 0 0 0 14.560547 17.318359 10.07344 10.07344 0 0 0 15.14648 18.13672 10.07344 10.07344 0 0 0 15.810547 18.892578 10.07344 10.07344 0 0 1 15.8125 18.892578 10.07344 10.07344 0 0 0 16.548828 19.580078 10.07344 10.07344 0 0 0 17.349609 20.18945 10.07344 10.07344 0 0 0 18.208984 20.714844 10.07344 10.07344 0 0 0 18.988281 21.0918 10.07344 10.07344 0 0 0 19.03711 20.12695 10.07344 10.07344 0 0 0 19.01172 19.414062 10.07344 10.07344 0 0 0 18.890625 18.416016 10.07344 10.07344 0 0 1 18.890625 18.414062 10.07344 10.07344 0 0 0 18.669922 17.431641 10.07344 10.07344 0 0 0 18.351562 16.476562 10.07344 10.07344 0 0 0 17.941406 15.558594 10.07344 10.07344 0 0 1 17.941406 15.556641 10.07344 10.07344 0 0 0 17.439453 14.683594 10.07344 10.07344 0 0 0 16.853516 13.865234 10.07344 10.07344 0 0 0 16.189453 13.10938 10.07344 10.07344 0 0 1 16.189453 13.10742 10.07344 10.07344 0 0 0 15.453125 12.421875 10.07344 10.07344 0 0 1 15.453125 12.419922 10.07344 10.07344 0 0 0 14.650391 11.8125 10.07344 10.07344 0 0 0 13.792969 11.287109 10.07344 10.07344 0 0 0 13.01172 10.910156"/><path d="M9.06836 10.06055A10.07344 10.07344 0 0 0 8.962891 10.05469 10.07344 10.07344 0 0 0 8.25 10.07813 10.07344 10.07344 0 0 0 7.251953 10.201172 10.07344 10.07344 0 0 0 6.269531 10.421875 10.07344 10.07344 0 0 0 5.3125 10.738281 10.07344 10.07344 0 0 0 4.394531 11.150391 10.07344 10.07344 0 0 0 3.521484 11.650391 10.07344 10.07344 0 0 0 2.701172 12.236328 10.07344 10.07344 0 0 0 1.945313 12.900391 10.07344 10.07344 0 0 1 1.943359 12.900391 10.07344 10.07344 0 0 0 1.898438 12.949219V24.527C1.898 26.535 3.01 28.21 4.592 29.19A10.07344 10.07344 0 0 0 5.04102 29.40625 10.07344 10.07344 0 0 0 5.986328 29.75 10.07344 10.07344 0 0 1 5.988281 29.75 10.07344 10.07344 0 0 0 6.943359 29.996094C6.958 29.997 6.97 30 6.984 30A10.07344 10.07344 0 0 0 7.634766 30.10156H10.283A10.07344 10.07344 0 0 0 10.675781 30.05469 10.07344 10.07344 0 0 0 11.658203 29.833984 10.07344 10.07344 0 0 0 12.613281 29.515625 10.07344 10.07344 0 0 1 12.613281 29.513672 10.07344 10.07344 0 0 0 13.533203 29.10547 10.07344 10.07344 0 0 1 13.533203 29.10352 10.07344 10.07344 0 0 0 14.40625 28.603516 10.07344 10.07344 0 0 0 15.224609 28.01758 10.07344 10.07344 0 0 1 15.224609 28.01563 10.07344 10.07344 0 0 0 15.982422 27.353516 10.07344 10.07344 0 0 0 16.667969 26.617188 10.07344 10.07344 0 0 1 16.667969 26.615234 10.07344 10.07344 0 0 0 17.277344 25.814453 10.07344 10.07344 0 0 0 17.798828 24.962891 14.1037 14.1037 0 0 1 16.640625 24.443359 14.1037 14.1037 0 0 1 15.416016 23.742188 14.1037 14.1037 0 0 1 14.269531 22.921875 14.1037 14.1037 0 0 1 13.210938 21.992188 14.1037 14.1037 0 0 1 12.25 20.958984 14.1037 14.1037 0 0 1 11.396484 19.837891 14.1037 14.1037 0 0 1 10.660156 18.634766 14.1037 14.1037 0 0 1 10.04688 17.367188 14.1037 14.1037 0 0 1 9.5625 16.04102 14.1037 14.1037 0 0 1 9.214844 14.675781 14.1037 14.1037 0 0 1 9.00391 13.28125 14.1037 14.1037 0 0 1 8.933594 11.873047 14.1037 14.1037 0 0 1 8.96875 10.876953 14.1037 14.1037 0 0 1 9.06836 10.06055"/></g><path d="M9.06836 10.06055A14.1037 14.1037 0 0 0 8.96875 10.876953 14.1037 14.1037 0 0 0 8.933594 11.873047 14.1037 14.1037 0 0 0 9.00391 13.28125 14.1037 14.1037 0 0 0 9.214844 14.675781 14.1037 14.1037 0 0 0 9.5625 16.04102 14.1037 14.1037 0 0 0 10.04688 17.367188 14.1037 14.1037 0 0 0 10.660156 18.634766 14.1037 14.1037 0 0 0 11.396484 19.837891 14.1037 14.1037 0 0 0 12.25 20.958984 14.1037 14.1037 0 0 0 13.210938 21.992188 14.1037 14.1037 0 0 0 14.269531 22.921875 14.1037 14.1037 0 0 0 15.416016 23.742188 14.1037 14.1037 0 0 0 16.640625 24.443359 14.1037 14.1037 0 0 0 17.798828 24.962891 10.07344 10.07344 0 0 0 17.802734 24.957031 10.07344 10.07344 0 0 1 17.802734 24.955078 10.07344 10.07344 0 0 0 18.242188 24.05078 10.07344 10.07344 0 0 1 18.242188 24.04883 10.07344 10.07344 0 0 0 18.585938 23.10352 10.07344 10.07344 0 0 0 18.835938 22.12891 10.07344 10.07344 0 0 1 18.835938 22.12695 10.07344 10.07344 0 0 0 18.986328 21.13281 10.07344 10.07344 0 0 1 18.986328 21.13086 10.07344 10.07344 0 0 0 18.988281 21.0918 10.07344 10.07344 0 0 1 18.208984 20.714844 10.07344 10.07344 0 0 1 17.349609 20.18945 10.07344 10.07344 0 0 1 16.548828 19.580078 10.07344 10.07344 0 0 1 15.8125 18.892578 10.07344 10.07344 0 0 1 15.810547 18.892578 10.07344 10.07344 0 0 1 15.14648 18.13672 10.07344 10.07344 0 0 1 14.560547 17.318359 10.07344 10.07344 0 0 1 14.06055 16.445312 10.07344 10.07344 0 0 1 13.648438 15.525391 10.07344 10.07344 0 0 1 13.332031 14.570312 10.07344 10.07344 0 0 1 13.11133 13.587891 10.07344 10.07344 0 0 1 12.990234 12.587891 10.07344 10.07344 0 0 1 12.964844 11.875 10.07344 10.07344 0 0 1 13.01172 10.910156 10.07344 10.07344 0 0 0 12.886719 10.849609 10.07344 10.07344 0 0 1 12.884766 10.847656 10.07344 10.07344 0 0 0 11.939453 10.503906 10.07344 10.07344 0 0 0 10.964844 10.253906 10.07344 10.07344 0 0 1 10.964844 10.251953 10.07344 10.07344 0 0 0 9.96875 10.10352 10.07344 10.07344 0 0 1 9.96875 10.10156 10.07344 10.07344 0 0 0 9.06836 10.06055" fill="#7bc450"/><path d="M18.917969 30.10156A14.1037 14.1037 0 0 0 19.08008 29.951172 14.1037 14.1037 0 0 0 20.01172 28.892578 14.1037 14.1037 0 0 0 20.830078 27.746094 14.1037 14.1037 0 0 0 21.533203 26.523438 14.1037 14.1037 0 0 0 22.10742 25.23633 14.1037 14.1037 0 0 0 22.552734 23.898438 14.1037 14.1037 0 0 0 22.861328 22.523438 14.1037 14.1037 0 0 0 23.03125 21.12305 14.1037 14.1037 0 0 0 23.06641 20.125 14.1037 14.1037 0 0 0 22.996094 18.71875 14.1037 14.1037 0 0 0 22.785156 17.324219 14.1037 14.1037 0 0 0 22.4375 15.958984 14.1037 14.1037 0 0 0 21.953125 14.632812 14.1037 14.1037 0 0 0 21.339844 13.365234 14.1037 14.1037 0 0 0 20.603516 12.162109 14.1037 14.1037 0 0 0 19.75 11.04102 14.1037 14.1037 0 0 0 18.789062 10.00781 14.1037 14.1037 0 0 0 17.730469 9.07813 14.1037 14.1037 0 0 0 16.583984 8.257813 14.1037 14.1037 0 0 0 15.359375 7.556641 14.1037 14.1037 0 0 0 14.07422 6.980469 14.1037 14.1037 0 0 0 12.736328 6.537109 14.1037 14.1037 0 0 0 11.359375 6.228516 14.1037 14.1037 0 0 0 9.960938 6.05859 14.1037 14.1037 0 0 0 8.962891 6.02148 14.1037 14.1037 0 0 0 7.554688 6.09375 14.1037 14.1037 0 0 0 6.162109 6.302734 14.1037 14.1037 0 0 0 4.794922 6.652344 14.1037 14.1037 0 0 0 3.470703 7.136719 14.1037 14.1037 0 0 0 2.201172 7.75 14.1037 14.1037 0 0 0 1.898438 7.935547V12.949A10.07344 10.07344 0 0 1 1.943359 12.900391 10.07344 10.07344 0 0 1 1.945313 12.900391 10.07344 10.07344 0 0 1 2.701172 12.236328 10.07344 10.07344 0 0 1 3.521484 11.650391 10.07344 10.07344 0 0 1 4.394531 11.150391 10.07344 10.07344 0 0 1 5.3125 10.738281 10.07344 10.07344 0 0 1 6.269531 10.421875 10.07344 10.07344 0 0 1 7.251953 10.201172 10.07344 10.07344 0 0 1 8.25 10.07813 10.07344 10.07344 0 0 1 8.962891 10.05469 10.07344 10.07344 0 0 1 9.96875 10.10156 10.07344 10.07344 0 0 1 9.96875 10.10352 10.07344 10.07344 0 0 1 10.964844 10.251953 10.07344 10.07344 0 0 1 10.964844 10.253906 10.07344 10.07344 0 0 1 11.939453 10.503906 10.07344 10.07344 0 0 1 12.884766 10.847656 10.07344 10.07344 0 0 1 12.886719 10.849609 10.07344 10.07344 0 0 1 13.792969 11.287109 10.07344 10.07344 0 0 1 14.650391 11.8125 10.07344 10.07344 0 0 1 15.453125 12.419922 10.07344 10.07344 0 0 1 15.453125 12.421875 10.07344 10.07344 0 0 1 16.189453 13.10742 10.07344 10.07344 0 0 1 16.189453 13.10938 10.07344 10.07344 0 0 1 16.853516 13.865234 10.07344 10.07344 0 0 1 17.439453 14.683594 10.07344 10.07344 0 0 1 17.941406 15.556641 10.07344 10.07344 0 0 1 17.941406 15.558594 10.07344 10.07344 0 0 1 18.351562 16.476562 10.07344 10.07344 0 0 1 18.669922 17.431641 10.07344 10.07344 0 0 1 18.890625 18.414062 10.07344 10.07344 0 0 1 18.890625 18.416016 10.07344 10.07344 0 0 1 19.01172 19.414062 10.07344 10.07344 0 0 1 19.03711 20.12695 10.07344 10.07344 0 0 1 18.986328 21.13086 10.07344 10.07344 0 0 1 18.986328 21.13281 10.07344 10.07344 0 0 1 18.835938 22.12695 10.07344 10.07344 0 0 1 18.835938 22.12891 10.07344 10.07344 0 0 1 18.585938 23.10352 10.07344 10.07344 0 0 1 18.242188 24.04883 10.07344 10.07344 0 0 1 18.242188 24.05078 10.07344 10.07344 0 0 1 17.802734 24.955078 10.07344 10.07344 0 0 1 17.802734 24.957031 10.07344 10.07344 0 0 1 17.277344 25.814453 10.07344 10.07344 0 0 1 16.667969 26.615234 10.07344 10.07344 0 0 1 16.667969 26.617188 10.07344 10.07344 0 0 1 15.982422 27.353516 10.07344 10.07344 0 0 1 15.224609 28.01563 10.07344 10.07344 0 0 1 15.224609 28.01758 10.07344 10.07344 0 0 1 14.40625 28.603516 10.07344 10.07344 0 0 1 13.533203 29.10352 10.07344 10.07344 0 0 1 13.533203 29.10547 10.07344 10.07344 0 0 1 12.613281 29.513672 10.07344 10.07344 0 0 1 12.613281 29.515625 10.07344 10.07344 0 0 1 11.658203 29.833984 10.07344 10.07344 0 0 1 10.675781 30.05469 10.07344 10.07344 0 0 1 10.283203 30.10156H18.918" fill="#318bcf"/><g fill="#ccc"><path d="M25.798828 2.154297A10.07344 10.07344 0 0 1 26.08789 2.228516 10.07344 10.07344 0 0 1 27.0332 2.574219 10.07344 10.07344 0 0 1 27.03516 2.574219 10.07344 10.07344 0 0 1 27.10742 2.609375C26.698 2.392 26.26 2.265 25.799 2.154"/><path d="M22.935547 21.916016A10.07344 10.07344 0 0 0 23.11133 21.925781 10.07344 10.07344 0 0 0 23.824219 21.900391 10.07344 10.07344 0 0 0 24.824219 21.779297 10.07344 10.07344 0 0 0 25.806641 21.558594 10.07344 10.07344 0 0 0 26.761719 21.240234 10.07344 10.07344 0 0 0 27.681641 20.830078 10.07344 10.07344 0 0 0 28.554688 20.328125 10.07344 10.07344 0 0 0 29.373047 19.742188 10.07344 10.07344 0 0 0 30.10156 19.10352V7.473C30.1 5.333 28.867 3.544 27.11 2.609A10.07344 10.07344 0 0 0 27.03516 2.574219 10.07344 10.07344 0 0 1 27.0332 2.574219 10.07344 10.07344 0 0 0 26.08789 2.228516 10.07344 10.07344 0 0 0 25.798828 2.154297C25.379 2.054 24.979 1.898 24.527 1.898H21.623A10.07344 10.07344 0 0 0 21.400391 1.925781 10.07344 10.07344 0 0 0 20.417969 2.146484 10.07344 10.07344 0 0 1 20.416016 2.146484 10.07344 10.07344 0 0 0 19.460938 2.462891 10.07344 10.07344 0 0 0 18.542969 2.875 10.07344 10.07344 0 0 0 17.669922 3.375 10.07344 10.07344 0 0 1 17.667969 3.375 10.07344 10.07344 0 0 0 16.849609 3.960938 10.07344 10.07344 0 0 0 16.09375 4.625 10.07344 10.07344 0 0 1 16.0918 4.626953 10.07344 10.07344 0 0 0 15.40625 5.363281 10.07344 10.07344 0 0 0 14.796875 6.164063 10.07344 10.07344 0 0 0 14.271484 7.02148 10.07344 10.07344 0 0 1 14.271484 7.02344 10.07344 10.07344 0 0 0 14.253906 7.06055 14.1037 14.1037 0 0 1 15.359375 7.556641 14.1037 14.1037 0 0 1 16.583984 8.257813 14.1037 14.1037 0 0 1 17.730469 9.07813 14.1037 14.1037 0 0 1 18.789062 10.00781 14.1037 14.1037 0 0 1 19.75 11.04102 14.1037 14.1037 0 0 1 20.603516 12.162109 14.1037 14.1037 0 0 1 21.339844 13.365234 14.1037 14.1037 0 0 1 21.953125 14.632812 14.1037 14.1037 0 0 1 22.4375 15.958984 14.1037 14.1037 0 0 1 22.785156 17.324219 14.1037 14.1037 0 0 1 22.996094 18.71875 14.1037 14.1037 0 0 1 23.06641 20.125 14.1037 14.1037 0 0 1 23.03125 21.12305 14.1037 14.1037 0 0 1 22.935547 21.916016"/><path d="M21.818359 25.884766A14.1037 14.1037 0 0 1 21.533203 26.523438 14.1037 14.1037 0 0 1 20.830078 27.746094 14.1037 14.1037 0 0 1 20.01172 28.892578 14.1037 14.1037 0 0 1 19.08008 29.951172 14.1037 14.1037 0 0 1 18.917969 30.10156H24.527C27.616 30.1 30.1 27.616 30.1 24.527V24.09A14.1037 14.1037 0 0 1 29.873047 24.22852 14.1037 14.1037 0 0 1 28.603516 24.841797 14.1037 14.1037 0 0 1 27.2793 25.326172 14.1037 14.1037 0 0 1 25.912109 25.673828 14.1037 14.1037 0 0 1 24.519531 25.884766 14.1037 14.1037 0 0 1 23.11133 25.955078 14.1037 14.1037 0 0 1 22.11328 25.919922 14.1037 14.1037 0 0 1 21.818359 25.884766"/></g><path d="M21.818359 25.884766A14.1037 14.1037 0 0 0 22.11328 25.919922 14.1037 14.1037 0 0 0 23.11133 25.955078 14.1037 14.1037 0 0 0 24.519531 25.884766 14.1037 14.1037 0 0 0 25.912109 25.673828 14.1037 14.1037 0 0 0 27.2793 25.326172 14.1037 14.1037 0 0 0 28.603516 24.841797 14.1037 14.1037 0 0 0 29.873047 24.22852 14.1037 14.1037 0 0 0 30.10156 24.08789V19.1A10.07344 10.07344 0 0 1 29.373047 19.742188 10.07344 10.07344 0 0 1 28.554688 20.328125 10.07344 10.07344 0 0 1 27.681641 20.830078 10.07344 10.07344 0 0 1 26.761719 21.240234 10.07344 10.07344 0 0 1 25.806641 21.558594 10.07344 10.07344 0 0 1 24.824219 21.779297 10.07344 10.07344 0 0 1 23.824219 21.900391 10.07344 10.07344 0 0 1 23.11133 21.925781 10.07344 10.07344 0 0 1 22.935547 21.916016 14.1037 14.1037 0 0 1 22.861328 22.523438 14.1037 14.1037 0 0 1 22.552734 23.898438 14.1037 14.1037 0 0 1 22.10742 25.23633 14.1037 14.1037 0 0 1 21.818359 25.884766" fill="#7bc450"/><path d="m13.13 1.898h-5.658c-3.089 0-5.574 2.486-5.574 5.574v.463a14.1037 14.1037 0 0 1 .302734 -.185547 14.1037 14.1037 0 0 1 1.269531 -.613281 14.1037 14.1037 0 0 1 1.324219 -.484375 14.1037 14.1037 0 0 1 1.367188 -.349609 14.1037 14.1037 0 0 1 1.392578 -.208984 14.1037 14.1037 0 0 1 1.408203 -.072266 14.1037 14.1037 0 0 1 .998047 .037109 14.1037 14.1037 0 0 1 .294921 .035156 14.1037 14.1037 0 0 1 .285157 -.638672 14.1037 14.1037 0 0 1 .703125 -1.222656 14.1037 14.1037 0 0 1 .818359 -1.146484 14.1037 14.1037 0 0 1 .931641 -1.060547 14.1037 14.1037 0 0 1 .136718 -.126953" fill="#ccc"/><path d="M13.13086 1.898438A14.1037 14.1037 0 0 0 12.994141 2.025391 14.1037 14.1037 0 0 0 12.0625 3.085938 14.1037 14.1037 0 0 0 11.244141 4.232422 14.1037 14.1037 0 0 0 10.541016 5.455078 14.1037 14.1037 0 0 0 10.255859 6.09375 14.1037 14.1037 0 0 1 11.359375 6.228516 14.1037 14.1037 0 0 1 12.736328 6.537109 14.1037 14.1037 0 0 1 14.07422 6.980469 14.1037 14.1037 0 0 1 14.253906 7.06055 10.07344 10.07344 0 0 1 14.271484 7.02344 10.07344 10.07344 0 0 1 14.271484 7.02148 10.07344 10.07344 0 0 1 14.796875 6.164063 10.07344 10.07344 0 0 1 15.40625 5.363281 10.07344 10.07344 0 0 1 16.0918 4.626953 10.07344 10.07344 0 0 1 16.09375 4.625 10.07344 10.07344 0 0 1 16.849609 3.960938 10.07344 10.07344 0 0 1 17.667969 3.375 10.07344 10.07344 0 0 1 17.669922 3.375 10.07344 10.07344 0 0 1 18.542969 2.875 10.07344 10.07344 0 0 1 19.460938 2.462891 10.07344 10.07344 0 0 1 20.416016 2.146484 10.07344 10.07344 0 0 1 20.417969 2.146484 10.07344 10.07344 0 0 1 21.400391 1.925781 10.07344 10.07344 0 0 1 21.623047 1.898438H13.13" fill="#7bc450"/></g>

   xmlns:dc="http://purl.org/dc/elements/1.1/"
   xmlns:cc="http://creativecommons.org/ns#"
   xmlns:rdf="http://www.w3.org/1999/02/22-rdf-syntax-ns#"
   xmlns:svg="http://www.w3.org/2000/svg"
   xmlns="http://www.w3.org/2000/svg"
   xmlns:xlink="http://www.w3.org/1999/xlink"
   xmlns:sodipodi="http://sodipodi.sourceforge.net/DTD/sodipodi-0.dtd"
   xmlns:inkscape="http://www.inkscape.org/namespaces/inkscape"
   height="32"
   width="32"
   version="1"
   id="svg8"
   sodipodi:docname="snow-top-3.svg"
   inkscape:version="0.92.1 r"&gt;
  <path fill="#00000f" fill-opacity="0" d="m0 0h32v32h-32z" id="0"/><path d="m7.354 6.111c-2.995 2.684-1.381 7.817-3.674 8.291-2.031.613-3.541-1.385-3.66-4.503-.35-8.627 3.911-9.427 6.879-9.524 28.342-2.047 1.762 4.92.455 5.736" fill="url(#1)"/><use xlink:href="#0"/></svg>