<svg xmlns="http://www.w3.org/2000/svg" viewBox="0 0 32 32"><defs><linearGradient gradientTransform="matrix(-2.65552 0 0 2.58531 193.77-277.73)" id="0" x1="67.894" y1="108.69" x2="67.854" y2="113.11" gradientUnits="userSpaceOnUse"><stop stop-color="#f9f9f9"/><stop offset="1" stop-color="#999"/></linearGradient></defs><g fill="#ff9426"><rect width="28.2" height="28.2" x="1.898" y="1.898" fill-rule="evenodd" rx="5.575"/><path d="M16 2A14 14 0 0 0 2 16 14 14 0 0 0 16 30 14 14 0 0 0 30 16 14 14 0 0 0 16 2"/></g><circle r="12" cy="16" cx="16" fill="#fff"/><path d="m15.972 6c-1.247-.006-2.41.246-2.972.52.001.004-.001-.024 0-.02.095.197 3 7.5 3 7.5l3-7.5c-.595-.274-1.782-.494-3.03-.5" fill="#d2e015"/><path d="m15.972 26c-1.247.006-2.41-.246-2.972-.52.001-.004-.001.024 0 .02.095-.197 3-7.5 3-7.5l3 7.5c-.595.274-1.782.494-3.03.5" fill="#c74a30"/><path d="m26 15.972c.006-1.247-.246-2.41-.52-2.972-.004.001.024-.001.02 0-.197.095-7.5 3-7.5 3l7.5 3c.274-.595.494-1.782.5-3.03" fill="#ff769d"/><path d="m6 15.972c-.006-1.247.246-2.41.52-2.972.004.001-.024-.001-.02 0 .197.095 7.5 3 7.5 3l-7.5 3c-.274-.595-.494-1.782-.5-3.03" fill="#f9a726"/><path d="m23.05 8.909c-.878-.886-1.878-1.531-2.469-1.734-.002.003.016-.017.014-.014-.072.207-3.182 7.425-3.182 7.425l7.425-3.182c-.227-.615-.911-1.609-1.788-2.495" fill="#89dc3c"/><path d="m8.909 23.05c-.886-.878-1.531-1.878-1.734-2.469.003-.002-.017.016-.014.014.207-.072 7.425-3.182 7.425-3.182l-3.182 7.425c-.615-.227-1.609-.911-2.495-1.788" fill="#dc6e33"/><path d="m23.09 23.05c.886-.878 1.531-1.878 1.734-2.469-.003-.002.017.016.014.014-.207-.072-7.425-3.182-7.425-3.182l3.182 7.425c.615-.227 1.609-.911 2.495-1.788" fill="#dd4f3c"/><path d="m8.949 8.909c.878-.886 1.878-1.531 2.469-1.734.002.003-.016-.017-.014-.014.072.207 3.182 7.425 3.182 7.425l-7.425-3.182c.227-.615.911-1.609 1.788-2.495" fill="#f8e12e"/>

   xmlns:dc="http://purl.org/dc/elements/1.1/"
   xmlns:cc="http://creativecommons.org/ns#"
   xmlns:rdf="http://www.w3.org/1999/02/22-rdf-syntax-ns#"
   xmlns:svg="http://www.w3.org/2000/svg"
   xmlns="http://www.w3.org/2000/svg"
   xmlns:xlink="http://www.w3.org/1999/xlink"
   xmlns:sodipodi="http://sodipodi.sourceforge.net/DTD/sodipodi-0.dtd"
   xmlns:inkscape="http://www.inkscape.org/namespaces/inkscape"
   version="1"
   width="32"
   height="32"
   id="svg12"
   sodipodi:docname="snow-top-3.svg"
   inkscape:version="0.92.1 r"&gt;
  <path d="m24.627.009c8.36-.339 9.455 9.523 4.064 9.505-.686.003-1.62-.197-3-1.471-14.665-10.216-14.549 2.967-17.708.875-1.727-1.822-1.743 4.653-4.139 5.127-2.122.613-3.699-1.385-3.824-4.503-.366-8.627 4.086-9.427 7.187-9.524 5.974.133 11.562-.045 17.419-.01" fill="url(#0)"/></svg>