<svg xmlns="http://www.w3.org/2000/svg" viewBox="0 0 32 32"><defs><linearGradient gradientTransform="matrix(2.59244 0 0 2.58531-157.93-277.73)" id="0" x1="67.894" y1="108.69" x2="67.854" y2="113.11" gradientUnits="userSpaceOnUse"><stop stop-color="#f9f9f9"/><stop offset="1" stop-color="#999"/></linearGradient></defs><g transform="translate(53.56-3.391)" fill-rule="evenodd"><g fill="#c2352a"><path d="m-31.33 5.289h-12.25l6.15 22.369z"/><path d="m-30.936 33.492h1.902c3.089 0 5.576-2.488 5.576-5.576v-17.05c0-.739-.159-1.436-.418-2.08z"/></g><path d="m-30.936 33.492l7.06-24.709c-.823-2.048-2.808-3.494-5.158-3.494h-2.299l-6.1 22.369 1.605 5.834z" fill="#fecd38"/><path d="m-51.11 8.525c-.333.716-.547 1.494-.547 2.338v17.05c0 3.089 2.486 5.576 5.574 5.576h2.105z" fill="#c2352a"/><path d="m-51.11 8.525l7.133 24.967h8.154l-7.756-28.2h-2.504c-2.245 0-4.142 1.333-5.03 3.236" fill="#fed760"/></g>

   xmlns:dc="http://purl.org/dc/elements/1.1/"
   xmlns:cc="http://creativecommons.org/ns#"
   xmlns:rdf="http://www.w3.org/1999/02/22-rdf-syntax-ns#"
   xmlns:svg="http://www.w3.org/2000/svg"
   xmlns="http://www.w3.org/2000/svg"
   xmlns:xlink="http://www.w3.org/1999/xlink"
   xmlns:sodipodi="http://sodipodi.sourceforge.net/DTD/sodipodi-0.dtd"
   xmlns:inkscape="http://www.inkscape.org/namespaces/inkscape"
   version="1"
   width="32"
   height="32"
   id="svg12"
   sodipodi:docname="snow-top-4.svg"
   inkscape:version="0.92.1 r"&gt;
  <path d="m7.196.009c-8.161-.339-9.231 9.523-3.968 9.505.669.003 1.581-.197 2.929-1.471 3.773-4.147 9.01 4.479 14.696-1.042.61-.911 1.804-1.135 2.455-.627 1.045.677 2.87 2.991 3.88 3 2.359.513 4.095-.198 4.816-3.188.185-3.165-2.303-6.286-6.281-6.17-5.832.133-12.809-.045-18.527-.01" fill="url(#0)"/></svg>