<svg xmlns="http://www.w3.org/2000/svg" xmlns:xlink="http://www.w3.org/1999/xlink" viewBox="0 0 32 32"><defs><linearGradient xlink:href="#3" id="4" x1="-227.98" y1="-131.26" x2="-234.8" y2="-134.14" gradientUnits="userSpaceOnUse"/><linearGradient xlink:href="#3" id="2" x1="-241.01" y1="-141.61" x2="-226.57" y2="-129.44" gradientUnits="userSpaceOnUse"/><linearGradient id="3"><stop stop-color="#13a9ea"/><stop offset="1" stop-color="#372db5"/></linearGradient><linearGradient id="1"><stop stop-color="#f9f9f9"/><stop offset="1" stop-color="#999"/></linearGradient><linearGradient xlink:href="#1" id="0" x1="-239.23" y1="-133.21" x2="-241.87" y2="-125.28" gradientUnits="userSpaceOnUse"/><radialGradient xlink:href="#1" id="5" cx="-176.59" cy="-120.91" r="3.01" gradientUnits="userSpaceOnUse" gradientTransform="matrix(2.21087.05719-.05496 2.12455 156.08 146.14)"/></defs><rect width="28.2" height="28.2" x="1.898" y="1.898" fill="#e6e6e6" fill-rule="evenodd" rx="5.575"/><g transform="matrix(.75309 0 0 .75309 3.951 3.951)" stroke-width="1.328"><path d="M25.854 2A10 10.257 0 0 1 22.625 7.9883C20.728 6.734 18.454 6 16 6 13.545 6 11.268 6.735 9.371 7.99A10 10.257 0 0 1 6.1465 2.0664 10 10.257 0 0 0 6 3.7422 10 10.257 0 0 0 7.6523 9.377C5.402 11.556 4 14.605 4 18 4 24.648 9.352 30 16 30 22.648 30 28 24.648 28 18 28 14.606 26.599 11.558 24.35 9.379A10 10.257 0 0 0 26 3.7422 10 10.257 0 0 0 25.854 2" fill="#e03c3b"/><path d="m15 21c-1.184 1.913-3.806 2.568-5.856 1.463-2.05-1.104-2.753-3.55-1.569-5.463" fill="#fff"/><path d="m10.895 18.789c-.17 1.176.175 2.587 1.07 4.143.002-.001.005-.002.008-.002-.48-1.113-.41-2.375.027-3.545z" fill="#2c2c2c"/><path d="m17 21c1.184 1.913 3.805 2.568 5.856 1.464 2.05-1.105 2.753-3.551 1.569-5.464z" fill="#fff"/><path d="m21.11 18.789l-1.105.596c.437 1.17.507 2.432.027 3.545.003 0 .006.001.008.002.895-1.556 1.24-2.967 1.07-4.143" fill="#2c2c2c"/></g><g transform="matrix(-1 0 0 1-223.97 142.77)"><g fill="#f9f9f9"><path d="m-228.95-129.3l-.27 2.221-.122-2.378z"/><path d="m-228.66-130.01l-.27 2.221-.122-2.378z"/><path d="m-228.43-129.95l-.27 1.6-.122-1.713z"/></g><path d="m-241.31-142.31c-5.577-1.531-5.951 3.24-4.58 5.493 4.381 6.983 6.796 6.577 9.398 7.895 1.712 2.064 3.451 3.4 6.469 4.1 11.69 1.559 3.242-8.417.92-8.649-5.065.012-7.547-6.123-12.206-8.838" fill="url(#0)"/><path d="m-241.31-142.31c3.76.276 5.616-.626 8.93-.421 4.319.283 8.307 2.053 7.838 6.574-.347 2.567-.37 2.25.186 4.296.532 1.535-.252 4.232-.487 4.654-2.715 4.963-1.536 4.965-2.656 7.742l-.906-.418-2.508-11.358c-7.177-.909-10.754-10.11-10.398-11.07" fill="url(#2)"/><path d="m-234.52-132.37c.362.274 1.553-5.105 1.172-5.653 1.379 2.44 1.919 4.616 2.435 6.783-1.276-.283-2.289-.554-3.607-1.13" fill="url(#4)"/><circle r="3.01" cy="-119.15" cx="-227.83" fill="url(#5)"/></g></svg>