<svg xmlns="http://www.w3.org/2000/svg" viewBox="0 0 32 32"><defs><linearGradient gradientTransform="matrix(2.62891 0 0 2.71269-160.16-291.42)" id="0" x1="67.894" y1="108.69" x2="67.854" y2="113.11" gradientUnits="userSpaceOnUse"><stop stop-color="#f9f9f9"/><stop offset="1" stop-color="#999"/></linearGradient></defs><rect width="28.2" height="28.2" x="1.898" y="1.898" fill="#ff8a1a" fill-rule="evenodd" rx="5.575"/><g transform="translate(48.542 5.288)" stroke-width=".613"><path d="m-30.939 9.198c-2.624-2.602-3.37-5.067-4.469-6.339-2.9-3.355-9.843 5.638-2.333 13.08 7.51 7.446 16.569.565 12.956-2.439-1.29-1.072-3.666-1.84-6.154-4.306" fill="#f7bd5d"/><path d="m-36.932159 2.140213a9.188987 9.188987 0 0 0 -2.348705 6.121213 9.188987 9.188987 0 0 0 9.188987 9.188987 9.188987 9.188987 0 0 0 6.123541 -2.352381c-.008-.579-.262-1.132-.817-1.593-1.29-1.072-3.666-1.84-6.154-4.307-2.624-2.602-3.369-5.067-4.469-6.339-.437-.506-.967-.727-1.524-.719" fill="#fff"/></g>

   xmlns:dc="http://purl.org/dc/elements/1.1/"
   xmlns:cc="http://creativecommons.org/ns#"
   xmlns:rdf="http://www.w3.org/1999/02/22-rdf-syntax-ns#"
   xmlns:svg="http://www.w3.org/2000/svg"
   xmlns="http://www.w3.org/2000/svg"
   xmlns:xlink="http://www.w3.org/1999/xlink"
   xmlns:sodipodi="http://sodipodi.sourceforge.net/DTD/sodipodi-0.dtd"
   xmlns:inkscape="http://www.inkscape.org/namespaces/inkscape"
   version="1"
   width="32"
   height="32"
   id="svg12"
   sodipodi:docname="snow-top-1.svg"
   inkscape:version="0.92.1 r"&gt;
  <path d="m7.288.009c-8.276-.356-9.36 9.992-4.02 9.973.679.003 1.604-.207 2.97-1.543 7.256-10.531 14.706 3.573 17.53.919 1.71-1.912 3.496-.418 4.448.115 2.1.643 3.662.041 3.785-3.231.188-3.321-1.889-6.344-5.923-6.223-5.914.14-12.989-.047-18.787-.01" fill="url(#0)"/><path fill="#f00" fill-opacity="0" d="m0 0h32v32h-32z"/></svg>