<svg xmlns="http://www.w3.org/2000/svg" viewBox="0 0 32 32"><defs><linearGradient gradientTransform="matrix(2.62891 0 0 2.71269-160.16-291.42)" id="0" x1="67.894" y1="108.69" x2="67.854" y2="113.11" gradientUnits="userSpaceOnUse"><stop stop-color="#f9f9f9"/><stop offset="1" stop-color="#999"/></linearGradient></defs><g stroke-width=".7"><path d="m30 6.969c-.054-.579-.12-1.157-.336-1.67-.281-.667-.69-1.268-1.193-1.771-.504-.504-1.104-.912-1.771-1.193-.512-.216-1.089-.28-1.666-.334h-9.03v14h14z" fill="#cf4f8c"/><g fill="#21d789"><path d="m6.965 2c-.577.054-1.154.118-1.666.334-.667.281-1.268.69-1.771 1.193-.504.504-.912 1.104-1.193 1.771-.216.512-.28 1.089-.334 1.666v9.04h14v-14"/><path d="m25.04 30c.577-.054 1.154-.118 1.666-.334.667-.281 1.268-.69 1.771-1.193.504-.504.912-1.104 1.193-1.771.216-.512.28-1.089.334-1.666v-9.04h-14v14z"/></g><path d="m2 25.03c.054.579.12 1.157.336 1.67.281.667.69 1.268 1.193 1.771.504.504 1.104.912 1.771 1.193.512.216 1.089.28 1.666.334h9.03v-14h-14" fill="#2086e7"/></g><rect width="21.424" height="21.424" x="5.288" y="5.288" fill="#3f3f3f" fill-rule="evenodd" rx="4.235"/><g transform="matrix(.81373 0 0 .81373-35.04 29.908)" fill="none" stroke="#fff" stroke-linecap="round" stroke-width="2"><path d="m56.729-10.08h8"/><path d="m60.729-17.08c0 0 0 1-2 1-2 0-2-2-2-4 0-2 0-4 2-4 2 0 2 1 2 1" stroke-linejoin="bevel"/><path d="m64.729-24.08v8h4" stroke-linejoin="round"/></g>

   xmlns:dc="http://purl.org/dc/elements/1.1/"
   xmlns:cc="http://creativecommons.org/ns#"
   xmlns:rdf="http://www.w3.org/1999/02/22-rdf-syntax-ns#"
   xmlns:svg="http://www.w3.org/2000/svg"
   xmlns="http://www.w3.org/2000/svg"
   xmlns:xlink="http://www.w3.org/1999/xlink"
   xmlns:sodipodi="http://sodipodi.sourceforge.net/DTD/sodipodi-0.dtd"
   xmlns:inkscape="http://www.inkscape.org/namespaces/inkscape"
   version="1"
   width="32"
   height="32"
   id="svg12"
   sodipodi:docname="snow-top-1.svg"
   inkscape:version="0.92.1 r"&gt;
  <path d="m7.288.009c-8.276-.356-9.36 9.992-4.02 9.973.679.003 1.604-.207 2.97-1.543 7.256-10.531 14.706 3.573 17.53.919 1.71-1.912 3.496-.418 4.448.115 2.1.643 3.662.041 3.785-3.231.188-3.321-1.889-6.344-5.923-6.223-5.914.14-12.989-.047-18.787-.01" fill="url(#0)"/><path fill="#f00" fill-opacity="0" d="m0 0h32v32h-32z"/></svg>