<svg xmlns="http://www.w3.org/2000/svg" viewBox="0 0 32 32"><defs><linearGradient gradientTransform="matrix(2.59244 0 0 2.58531-157.93-277.73)" id="0" x1="67.894" y1="108.69" x2="67.854" y2="113.11" gradientUnits="userSpaceOnUse"><stop stop-color="#f9f9f9"/><stop offset="1" stop-color="#999"/></linearGradient></defs><g fill-rule="evenodd"><g fill="#2095f2"><rect width="28.2" height="28.2" x="1.898" y="1.898" rx="5.575"/><path d="m11.919 1.898h-4.445c-3.089 0-5.576 2.486-5.576 5.574v17.05c0 3.089 2.488 5.576 5.576 5.576h17.05c3.089 0 5.576-2.488 5.576-5.576v-7.098a12.610169 12.610169 0 0 1 -.789063 .453125 12.610169 12.610169 0 0 1 -1.15039 .515625 12.610169 12.610169 0 0 1 -1.197266 .398438 12.610169 12.610169 0 0 1 -1.228515 .27539 12.610169 12.610169 0 0 1 -1.251953 .152344 12.610169 12.610169 0 0 1 -.892579 .03125 12.610169 12.610169 0 0 1 -1.257812 -.0625 12.610169 12.610169 0 0 1 -1.246094 -.189453 12.610169 12.610169 0 0 1 -1.222656 -.3125 12.610169 12.610169 0 0 1 -1.183594 -.431641 12.610169 12.610169 0 0 1 -1.134765 -.548828 12.610169 12.610169 0 0 1 -1.074219 -.658203 12.610169 12.610169 0 0 1 -1.00391 -.761718 12.610169 12.610169 0 0 1 -.921874 -.859375 12.610169 12.610169 0 0 1 -.832032 -.947266 12.610169 12.610169 0 0 1 -.734375 -1.025391 12.610169 12.610169 0 0 1 -.626953 -1.09375 12.610169 12.610169 0 0 1 -.513672 -1.15039 12.610169 12.610169 0 0 1 -.398437 -1.195313 12.610169 12.610169 0 0 1 -.275391 -1.230469 12.610169 12.610169 0 0 1 -.152344 -1.251953 12.610169 12.610169 0 0 1 -.03125 -.892578 12.610169 12.610169 0 0 1 .0625 -1.257813 12.610169 12.610169 0 0 1 .189454 -1.246094 12.610169 12.610169 0 0 1 .310546 -1.222656 12.610169 12.610169 0 0 1 .373047 -1.017578"/></g><path d="m-38.792969-5.558594a12.610169 12.610169 0 0 0 -.373047 1.017578 12.610169 12.610169 0 0 0 -.310546 1.222656 12.610169 12.610169 0 0 0 -.189454 1.246094 12.610169 12.610169 0 0 0 -.0625 1.257812 12.610169 12.610169 0 0 0 .03125 .892578 12.610169 12.610169 0 0 0 .152344 1.251953 12.610169 12.610169 0 0 0 .275391 1.230469 12.610169 12.610169 0 0 0 .398437 1.195313 12.610169 12.610169 0 0 0 .513672 1.150391 12.610169 12.610169 0 0 0 .626953 1.09375 12.610169 12.610169 0 0 0 .734375 1.025391 12.610169 12.610169 0 0 0 .832032 .947266 12.610169 12.610169 0 0 0 .921874 .859375 12.610169 12.610169 0 0 0 1.00391 .761719 12.610169 12.610169 0 0 0 1.074219 .658203 12.610169 12.610169 0 0 0 1.134765 .548828 12.610169 12.610169 0 0 0 1.183594 .431641 12.610169 12.610169 0 0 0 1.222656 .3125 12.610169 12.610169 0 0 0 1.246094 .189453 12.610169 12.610169 0 0 0 1.257812 .0625 12.610169 12.610169 0 0 0 .892579 -.03125 12.610169 12.610169 0 0 0 1.251953 -.152344 12.610169 12.610169 0 0 0 1.228515 -.27539 12.610169 12.610169 0 0 0 1.197266 -.398438 12.610169 12.610169 0 0 0 1.15039 -.515625 12.610169 12.610169 0 0 0 .789063 -.453125V.016c0-3.089-2.488-5.574-5.576-5.574z" fill="#4daaf5" transform="translate(50.712 7.457)"/></g><path d="m14.57 6c-.395 0-.713.344-.713.769v12.306h-2.857l5 6.924 5-6.924h-2.857v-12.306c0-.427-.32-.77-.715-.77h-2.858" fill="#fff"/>

   xmlns:dc="http://purl.org/dc/elements/1.1/"
   xmlns:cc="http://creativecommons.org/ns#"
   xmlns:rdf="http://www.w3.org/1999/02/22-rdf-syntax-ns#"
   xmlns:svg="http://www.w3.org/2000/svg"
   xmlns="http://www.w3.org/2000/svg"
   xmlns:xlink="http://www.w3.org/1999/xlink"
   xmlns:sodipodi="http://sodipodi.sourceforge.net/DTD/sodipodi-0.dtd"
   xmlns:inkscape="http://www.inkscape.org/namespaces/inkscape"
   version="1"
   width="32"
   height="32"
   id="svg12"
   sodipodi:docname="snow-top-4.svg"
   inkscape:version="0.92.1 r"&gt;
  <path d="m7.196.009c-8.161-.339-9.231 9.523-3.968 9.505.669.003 1.581-.197 2.929-1.471 3.773-4.147 9.01 4.479 14.696-1.042.61-.911 1.804-1.135 2.455-.627 1.045.677 2.87 2.991 3.88 3 2.359.513 4.095-.198 4.816-3.188.185-3.165-2.303-6.286-6.281-6.17-5.832.133-12.809-.045-18.527-.01" fill="url(#0)"/></svg>