<svg xmlns="http://www.w3.org/2000/svg" viewBox="0 0 32 32"><g fill-rule="evenodd"><path d="m16 30.1v-14.1h-14.1v8.527c0 3.089 2.486 5.574 5.574 5.574h8.527" fill="#f2ae37"/><path d="m30.1 16h-14.1v14.1h8.527c3.089 0 5.574-2.486 5.574-5.574v-8.527" fill="#37a0f2"/><path d="m16 1.898v14.1h14.1v-8.527c0-3.089-2.486-5.574-5.574-5.574h-8.527" fill="#38ac52"/><path d="m1.898 16h14.1v-14.1h-8.527c-3.089 0-5.574 2.486-5.574 5.574v8.527" fill="#e44545"/></g>

   xmlns:dc="http://purl.org/dc/elements/1.1/"
   xmlns:cc="http://creativecommons.org/ns#"
   xmlns:rdf="http://www.w3.org/1999/02/22-rdf-syntax-ns#"
   xmlns:svg="http://www.w3.org/2000/svg"
   xmlns="http://www.w3.org/2000/svg"
   xmlns:sodipodi="http://sodipodi.sourceforge.net/DTD/sodipodi-0.dtd"
   xmlns:inkscape="http://www.inkscape.org/namespaces/inkscape"
   height="32"
   width="32"
   version="1"
   id="svg8"
   sodipodi:docname="star-mime-2.svg"
   inkscape:version="0.92.1 r"&gt;
  <g transform="translate(152.47 194.05)" fill="#fff"><path d="m-125.38-193.25l-.077 3.548 3.072 1.831-3.548-.077-3.135 6.791 1.38-7.268-3.072-1.831 3.548.077z"/><path d="m-125.41-183.04l.042-1.955-1.692-1.01 1.955.042 1.727-3.741-.76 4 1.692 1.01-1.955-.042z"/></g></svg>