<svg xmlns="http://www.w3.org/2000/svg" xmlns:xlink="http://www.w3.org/1999/xlink" viewBox="0 0 32 32"><defs><linearGradient xlink:href="#3" id="4" gradientUnits="userSpaceOnUse" x1="-23.24" y1="-185.08" x2="-28.704" y2="-186.05"/><linearGradient xlink:href="#3" id="2" gradientUnits="userSpaceOnUse" x1="-34.914" y1="-193.53" x2="-20.469" y2="-181.36"/><linearGradient id="3"><stop stop-color="#ffff5e"/><stop offset="1" stop-color="#f6a32d"/></linearGradient><linearGradient id="1"><stop stop-color="#f9f9f9"/><stop offset="1" stop-color="#999"/></linearGradient><linearGradient xlink:href="#1" id="0" gradientUnits="userSpaceOnUse" x1="-33.14" y1="-185.13" x2="-35.775" y2="-177.2"/><radialGradient xlink:href="#1" id="5" cx="-176.59" cy="-120.91" r="3.01" gradientUnits="userSpaceOnUse" gradientTransform="matrix(2.21087.05719-.05496 2.12455 362.18 94.22)"/></defs><rect width="28.2" height="28.2" x="1.898" y="1.898" fill="#4f4f4f" fill-rule="evenodd" rx="5.575"/><g transform="translate(49.44 1.536)"><path d="m-40.03547 11.510439a4.789474 4.789474 0 0 0 -4.004 4.717631 4.789474 4.789474 0 0 0 4.789474 4.789474 4.789474 4.789474 0 0 0 3.810026 -1.89264 6.385965 6.385965 0 0 1 -2.241473 -1.092798 2.394737 2.394737 0 0 1 -1.568553 .590701 2.394737 2.394737 0 0 1 -2.394737 -2.394737 2.394737 2.394737 0 0 1 1.524809 -2.231096 6.385965 6.385965 0 0 1 -.08733 -1.041711 6.385965 6.385965 0 0 1 .171782 -1.444824" fill="#e16262"/><path d="m-35.25877 5.05263a4.789474 4.789474 0 0 0 -4.789474 4.789474 4.789474 4.789474 0 0 0 .269807 1.562166 6.385965 6.385965 0 0 1 2.132913 -1.413693 2.394737 2.394737 0 0 1 -.008 -.148474 2.394737 2.394737 0 0 1 2.394737 -2.394737 2.394737 2.394737 0 0 1 2.394737 2.394737 2.394737 2.394737 0 0 1 -.008 .15007 6.385965 6.385965 0 0 1 2.134509 1.4105 4.789474 4.789474 0 0 0 .268211 -1.56057 4.789474 4.789474 0 0 0 -4.789474 -4.789474" fill="#69db3e"/><circle r="1.596" cx="-35.26" cy="9.842" fill="#a5e98c"/><circle r="1.596" cx="-39.25" cy="16.228" fill="#eb9595"/><g fill="#fff"><circle r="3.193" cx="-28.873" cy="16.228"/><path d="m-30.469 17.03h3.193v3.193h-3.193z"/><path d="m-30.469 21.02h3.193v.798h-3.193z"/></g><g transform="matrix(.75 0 0 .75-20.23 1.493)" stroke-width="1.333"><circle cx="-11.474" cy="21.842" r="8" fill="#e16262"/><path d="m-11.474 17.842c-2.209 0-4 1.791-4 4 0 2.209 1.791 4 4 4 1.814 0 3.349-1.202 3.839-2.857h-1.232c-.442 1.01-1.438 1.714-2.607 1.714-1.578 0-2.857-1.279-2.857-2.857 0-1.578 1.279-2.857 2.857-2.857.789 0 1.495.329 2.01.848l-1.437 1.438h3.429v-3.428l-1.173 1.173c-.725-.723-1.722-1.173-2.827-1.173" fill="#fff"/></g></g><g transform="translate(49.877 194.68)"><path d="m-35.21-194.22c-5.577-1.531-5.951 3.24-4.58 5.493 4.381 6.983 6.796 6.577 9.398 7.895 1.712 2.064 3.451 3.4 6.469 4.1 11.69 1.559 3.242-8.417.92-8.649-5.065.012-7.547-6.123-12.206-8.838" fill="url(#0)"/><path d="m-35.21-194.22c3.76.276 5.616-.626 8.93-.421 4.319.283 8.307 2.053 7.838 6.574-.347 2.567-.37 2.25.186 4.296.532 1.535-.252 4.232-.487 4.654-2.715 4.963-1.536 4.965-2.656 7.742l-.906-.418-2.508-11.358c-7.177-.909-10.754-10.11-10.398-11.07" fill="url(#2)"/><path d="m-28.419-184.29c.362.274 1.553-5.105 1.172-5.653 1.379 2.44 1.919 4.616 2.435 6.783-1.276-.283-2.289-.554-3.607-1.13" fill="url(#4)"/><circle r="3.01" cy="-171.07" cx="-21.728" fill="url(#5)"/></g></svg>