<svg xmlns="http://www.w3.org/2000/svg" viewBox="0 0 32 32"><rect width="28.2" height="28.2" x="1.898" y="1.898" fill="#4f4f4f" fill-rule="evenodd" rx="5.575"/><g transform="translate(34.526 33.04)"><path d="m-25.1242-20.00602a4.789474 4.789474 0 0 0 -4.004 4.717631 4.789474 4.789474 0 0 0 4.789474 4.789474 4.789474 4.789474 0 0 0 3.810026 -1.89264 6.385965 6.385965 0 0 1 -2.241473 -1.092798 2.394737 2.394737 0 0 1 -1.568553 .590701 2.394737 2.394737 0 0 1 -2.394737 -2.394737 2.394737 2.394737 0 0 1 1.524809 -2.231096 6.385965 6.385965 0 0 1 -.08733 -1.041711 6.385965 6.385965 0 0 1 .171782 -1.444824" fill="#e16262"/><path d="m-20.347502-26.463822a4.789474 4.789474 0 0 0 -4.789474 4.789474 4.789474 4.789474 0 0 0 .269807 1.562166 6.385965 6.385965 0 0 1 2.132913 -1.413693 2.394737 2.394737 0 0 1 -.008 -.148473 2.394737 2.394737 0 0 1 2.394737 -2.394737 2.394737 2.394737 0 0 1 2.394737 2.394737 2.394737 2.394737 0 0 1 -.008 .15007 6.385965 6.385965 0 0 1 2.134509 1.4105 4.789474 4.789474 0 0 0 .268211 -1.56057 4.789474 4.789474 0 0 0 -4.789474 -4.789474" fill="#69db3e"/><circle r="1.596" cx="-20.348" cy="-21.674" fill="#a5e98c"/><circle r="1.596" cx="-24.339" cy="-15.288" fill="#eb9595"/><g transform="matrix(.75 0 0 .75-5.319-30.02)" stroke-width="1.333"><circle cx="-11.474" cy="21.842" r="8" fill="#e16262"/><path d="m-11.474 17.842c-2.209 0-4 1.791-4 4 0 2.209 1.791 4 4 4 1.814 0 3.349-1.202 3.839-2.857h-1.232c-.442 1.01-1.438 1.714-2.607 1.714-1.578 0-2.857-1.279-2.857-2.857 0-1.578 1.279-2.857 2.857-2.857.789 0 1.495.329 2.01.848l-1.437 1.438h3.429v-3.428l-1.173 1.173c-.725-.723-1.722-1.173-2.827-1.173" fill="#fff"/></g><g transform="matrix(.75 0 0 .75-31.947-29.364)" stroke-width="1.333"><circle cx="24" cy="21" r="8" fill="#69db3e" stroke-width="1.778"/><g transform="matrix(.70711-.70711.70711.70711-8.87 21.393)" fill="#fff" stroke-width="1.333"><path d="m20.66 18.76h3v7h-3z"/><path transform="matrix(0-1 1 0 0 0)" d="m-25.76 20.66h3v9h-3z"/></g></g></g>

   xmlns:dc="http://purl.org/dc/elements/1.1/"
   xmlns:cc="http://creativecommons.org/ns#"
   xmlns:rdf="http://www.w3.org/1999/02/22-rdf-syntax-ns#"
   xmlns:svg="http://www.w3.org/2000/svg"
   xmlns="http://www.w3.org/2000/svg"
   xmlns:sodipodi="http://sodipodi.sourceforge.net/DTD/sodipodi-0.dtd"
   xmlns:inkscape="http://www.inkscape.org/namespaces/inkscape"
   height="32"
   width="32"
   version="1"
   id="svg8"
   sodipodi:docname="star-mime-2.svg"
   inkscape:version="0.92.1 r"&gt;
  <g transform="translate(152.47 194.05)" fill="#fff"><path d="m-125.38-193.25l-.077 3.548 3.072 1.831-3.548-.077-3.135 6.791 1.38-7.268-3.072-1.831 3.548.077z"/><path d="m-125.41-183.04l.042-1.955-1.692-1.01 1.955.042 1.727-3.741-.76 4 1.692 1.01-1.955-.042z"/></g></svg>