<svg xmlns="http://www.w3.org/2000/svg" viewBox="0 0 32 32"><defs><linearGradient gradientTransform="matrix(2.62891 0 0 2.71269-160.16-291.42)" id="0" x1="67.894" y1="108.69" x2="67.854" y2="113.11" gradientUnits="userSpaceOnUse"><stop stop-color="#f9f9f9"/><stop offset="1" stop-color="#999"/></linearGradient></defs><rect width="28.2" height="28.2" x="1.898" y="1.898" fill="#4f4f4f" fill-rule="evenodd" rx="5.575"/><g transform="translate(44.658 12.789)"><path d="m-35.430211.089386a4.789474 4.789474 0 0 0 -4.004 4.717632 4.789474 4.789474 0 0 0 4.789474 4.789474 4.789474 4.789474 0 0 0 3.810026 -1.89264 6.385965 6.385965 0 0 1 -2.241473 -1.092798 2.394737 2.394737 0 0 1 -1.568553 .590702 2.394737 2.394737 0 0 1 -2.394737 -2.394737 2.394737 2.394737 0 0 1 1.524809 -2.231097 6.385965 6.385965 0 0 1 -.08733 -1.041711 6.385965 6.385965 0 0 1 .171782 -1.444825" fill="#e16262"/><path d="m-30.653509-6.368422a4.789474 4.789474 0 0 0 -4.789474 4.789474 4.789474 4.789474 0 0 0 .269807 1.562167 6.385965 6.385965 0 0 1 2.132913 -1.413693 2.394737 2.394737 0 0 1 -.008 -.148474 2.394737 2.394737 0 0 1 2.394737 -2.394737 2.394737 2.394737 0 0 1 2.394737 2.394737 2.394737 2.394737 0 0 1 -.008 .15007 6.385965 6.385965 0 0 1 2.134509 1.4105 4.789474 4.789474 0 0 0 .268211 -1.56057 4.789474 4.789474 0 0 0 -4.789474 -4.789474" fill="#69db3e"/><circle r="1.596" cx="-30.654" cy="-1.579" fill="#a5e98c"/><circle r="1.596" cx="-34.645" cy="4.807" fill="#eb9595"/><circle r="6.386" cy="6.404" cx="-24.268" fill="#3facd2"/><g fill="#fff"><circle r="3.193" cx="-24.268" cy="4.807"/><path d="m-25.864 5.605h3.193v3.193h-3.193z"/><path d="m-25.864 9.596h3.193v.798h-3.193z"/></g></g>

   xmlns:dc="http://purl.org/dc/elements/1.1/"
   xmlns:cc="http://creativecommons.org/ns#"
   xmlns:rdf="http://www.w3.org/1999/02/22-rdf-syntax-ns#"
   xmlns:svg="http://www.w3.org/2000/svg"
   xmlns="http://www.w3.org/2000/svg"
   xmlns:xlink="http://www.w3.org/1999/xlink"
   xmlns:sodipodi="http://sodipodi.sourceforge.net/DTD/sodipodi-0.dtd"
   xmlns:inkscape="http://www.inkscape.org/namespaces/inkscape"
   version="1"
   width="32"
   height="32"
   id="svg12"
   sodipodi:docname="snow-top-1.svg"
   inkscape:version="0.92.1 r"&gt;
  <path d="m7.288.009c-8.276-.356-9.36 9.992-4.02 9.973.679.003 1.604-.207 2.97-1.543 7.256-10.531 14.706 3.573 17.53.919 1.71-1.912 3.496-.418 4.448.115 2.1.643 3.662.041 3.785-3.231.188-3.321-1.889-6.344-5.923-6.223-5.914.14-12.989-.047-18.787-.01" fill="url(#0)"/><path fill="#f00" fill-opacity="0" d="m0 0h32v32h-32z"/></svg>