<svg xmlns="http://www.w3.org/2000/svg" viewBox="0 0 32 32.000001" xmlns:xlink="http://www.w3.org/1999/xlink"><defs><linearGradient xlink:href="#3" id="4" gradientUnits="userSpaceOnUse" x1="-23.24" y1="-185.08" x2="-28.704" y2="-186.05"/><linearGradient xlink:href="#3" id="2" gradientUnits="userSpaceOnUse" x1="-34.914" y1="-193.53" x2="-20.469" y2="-181.36"/><linearGradient id="3"><stop stop-color="#ffff5e"/><stop offset="1" stop-color="#f6a32d"/></linearGradient><linearGradient id="1"><stop stop-color="#f9f9f9"/><stop offset="1" stop-color="#999"/></linearGradient><linearGradient xlink:href="#1" id="0" gradientUnits="userSpaceOnUse" x1="-33.14" y1="-185.13" x2="-35.775" y2="-177.2"/><radialGradient xlink:href="#1" id="5" cx="-176.59" cy="-120.91" r="3.01" gradientUnits="userSpaceOnUse" gradientTransform="matrix(2.21087.05719-.05496 2.12455 362.18 94.22)"/></defs><g fill="#834366" fill-rule="evenodd"><rect width="28.2" height="28.2" x="1.898" y="1.898" rx="5.575"/><path d="m7.475 1.898c-3.089 0-5.576 2.486-5.576 5.574v5.336c.218.206.447.377.645.67.311.462.623 1 1.02 1.518.507.637 1.158.969 1.701 1.389.272.21.516.441.703.744.187.303.314.677.354 1.172.065.937.21 1.794.539 2.471.092.19.238.327.361.486h22.881v-13.785c0-3.089-2.486-5.574-5.574-5.574z"/></g><circle r="8.5" cx="12.934" cy="19.52" fill="#ff87a3"/><g fill-rule="evenodd"><path d="m30.1 21.258h-22.881c.097.124.165.276.283.379.27.234.601.41 1 .514.95.247 2 .865 2.979 1.73.976.865 1.874 1.979 2.512 3.215.41.781.991 1.297 1.66 1.631.669.334 1.423.486 2.18.541 1.512.11 3.03-.168 3.861-.168 2.962 0 4.336.056 5.817.125 1.3-.752 2.585-2.462 2.585-4.699z" fill="#db4b73"/><path d="m27.516 29.22c-1.481-.069-2.855-.125-5.817-.125-.833 0-2.349.278-3.861.168-.756-.055-1.511-.207-2.18-.541-.669-.334-1.25-.85-1.66-1.631-.638-1.236-1.536-2.349-2.512-3.215-.976-.865-2.029-1.483-2.979-1.73-.403-.104-.733-.28-1-.514-.27-.234-.48-.527-.645-.865-.329-.676-.474-1.534-.539-2.471-.039-.494-.167-.869-.354-1.172-.187-.303-.432-.534-.703-.744-.543-.419-1.194-.751-1.701-1.389-.396-.517-.708-1.056-1.02-1.518-.198-.293-.426-.464-.645-.67v11.717c0 3.089 2.488 5.576 5.576 5.576h17.05c1.069 0 2.319-.385 2.989-.877" fill="#3a2e31"/></g><g transform="translate(49.877 194.68)"><path d="m-35.21-194.22c-5.577-1.531-5.951 3.24-4.58 5.493 4.381 6.983 6.796 6.577 9.398 7.895 1.712 2.064 3.451 3.4 6.469 4.1 11.69 1.559 3.242-8.417.92-8.649-5.065.012-7.547-6.123-12.206-8.838" fill="url(#0)"/><path d="m-35.21-194.22c3.76.276 5.616-.626 8.93-.421 4.319.283 8.307 2.053 7.838 6.574-.347 2.567-.37 2.25.186 4.296.532 1.535-.252 4.232-.487 4.654-2.715 4.963-1.536 4.965-2.656 7.742l-.906-.418-2.508-11.358c-7.177-.909-10.754-10.11-10.398-11.07" fill="url(#2)"/><path d="m-28.419-184.29c.362.274 1.553-5.105 1.172-5.653 1.379 2.44 1.919 4.616 2.435 6.783-1.276-.283-2.289-.554-3.607-1.13" fill="url(#4)"/><circle r="3.01" cy="-171.07" cx="-21.728" fill="url(#5)"/></g></svg>