<svg xmlns="http://www.w3.org/2000/svg" viewBox="0 0 32 32"><defs><linearGradient gradientTransform="matrix(2.54182 0 0 2.58531-153.47-277.37)" id="0" x1="67.894" y1="108.69" x2="67.854" y2="113.11" gradientUnits="userSpaceOnUse"><stop stop-color="#f9f9f9"/><stop offset="1" stop-color="#999"/></linearGradient></defs><rect width="28.2" height="28.2" x="1.898" y="1.898" fill="#da3e45" fill-rule="evenodd" rx="5.575"/><g transform="translate(42.621.681)"><path d="m-34.424124 5.438295a1.685695 1.55073 0 0 0 -1.724812 1.550137V23.651a1.685695 1.55073 0 0 0 2.528518 1.341846l7.843-4.165 7.842-4.165a1.685695 1.55073 0 0 0 0 -2.685865l-7.842-4.166-7.843-4.165a1.685695 1.55073 0 0 0 -.803756 -.207205" fill="#fff"/><g transform="matrix(.70581 0 0 .70581-38.27 4.03)" fill="#da3e45" stroke-width="1.417"><rect width="3" height="7" x="11" y="10" rx=".75" ry=".7"/><path d="m7.877871 16.00001a.539738 .878127 89.999999 0 0 -.260303 .02403 .539738 .878127 89.999999 0 0 -.499541 .785704l4.622 4.921a.539738 .878127 89.999999 0 0 1.521193 -.0012l4.621-4.92a.539738 .878127 89.999999 0 0 -.759844 -.809732z"/></g></g>

   xmlns:dc="http://purl.org/dc/elements/1.1/"
   xmlns:cc="http://creativecommons.org/ns#"
   xmlns:rdf="http://www.w3.org/1999/02/22-rdf-syntax-ns#"
   xmlns:svg="http://www.w3.org/2000/svg"
   xmlns="http://www.w3.org/2000/svg"
   xmlns:xlink="http://www.w3.org/1999/xlink"
   xmlns:sodipodi="http://sodipodi.sourceforge.net/DTD/sodipodi-0.dtd"
   xmlns:inkscape="http://www.inkscape.org/namespaces/inkscape"
   height="32"
   width="32"
   version="1"
   id="svg8"
   sodipodi:docname="snow-top-2.svg"
   inkscape:version="0.92.1 r"&gt;
  <path d="m24.646 6.111c2.995 2.684 1.381 7.817 3.674 8.291 2.031.613 3.541-1.385 3.66-4.503.35-8.627-3.911-9.427-6.879-9.524-28.342-2.047-1.762 4.92-.455 5.736" fill="url(#0)"/></svg>