<svg xmlns="http://www.w3.org/2000/svg" viewBox="0 0 32 32"><defs><linearGradient gradientTransform="matrix(2.59244 0 0 2.58531-157.93-277.73)" id="0" x1="67.894" y1="108.69" x2="67.854" y2="113.11" gradientUnits="userSpaceOnUse"><stop stop-color="#f9f9f9"/><stop offset="1" stop-color="#999"/></linearGradient></defs><rect width="28.2" height="28.2" x="1.898" y="1.898" fill="#5f7c8a" fill-rule="evenodd" rx="5.575"/><g transform="matrix(.68155 0 0 .68155 5.095 6.08)"><path d="m13.13 1c-.297.032-.558.275-.613.569l-.591 2.997c-1.06.415-2.057.984-2.931 1.684l-2.909-.984c-.302-.104-.669.031-.831.306l-2.8 4.856c-.158.279-.09.666.153.875l2.319 2.034c-.082.545-.131 1.094-.131 1.662 0 .568.05 1.117.131 1.663l-2.319 2.034c-.243.209-.311.596-.153.875l2.8 4.856c.162.275.529.41.831.306l2.909-.984c.874.7 1.871 1.27 2.931 1.684l.591 2.997c.06.314.359.564.678.569h5.6c.319-.004.618-.255.678-.569l.591-2.997c1.06-.415 2.057-.984 2.931-1.684l2.909.984c.302.104.669-.031.831-.306l2.8-4.856c.158-.279.09-.666-.153-.875l-2.319-2.034c.082-.545.131-1.094.131-1.662 0-.568-.05-1.117-.131-1.662l2.319-2.034c.243-.209.311-.596.153-.875l-2.8-4.856c-.162-.275-.529-.41-.831-.306l-2.909.984c-.875-.7-1.871-1.27-2.931-1.685l-.591-2.997c-.06-.314-.359-.564-.678-.569h-5.6c-.022-.001-.044-.001-.066 0" fill="#fff"/><path d="m16 9c3.314 0 6 2.686 6 6 0 3.314-2.686 6-6 6-3.314 0-6-2.686-6-6 0-3.314 2.686-6 6-6" fill="#5f7c8a"/></g><path d="m20.771 22.267l3.149-5.338c.991-.593 2.823-.236 2.812 1.617l-3.132 5.456-2.694 1.381z" fill="#f2f2f2"/><path d="m20.86 24.338l.045 1.044.934-.479z" fill="#300503"/><path d="m22.743 23.417l-1.131 1.355.222.128 1.766-.899.035-.065z" fill="#ccc"/><path d="m26.358 19.2l-2.819-1.622-2.768 4.693 2.866 1.671z" fill="#0ab884"/><path d="m26.732 18.544l-2.805-1.618c-.002.001-.005.002-.007.003l-.381.645 2.819 1.622.373-.65c0-.001 0-.001 0-.002" fill="#e3e2db"/><path d="m24.779 16.671c-.308.021-.606.109-.852.255l2.805 1.618c.007-1.388-1.02-1.935-1.953-1.873" fill="#f2f2f2"/><path d="m25.439 18.667l-2.695 4.75.893.521 2.722-4.742z" fill="#007d68"/><path d="m24.414 18.08l-2.727 4.724 1.056.616 2.695-4.75z" fill="#0ab884"/><path d="m24.29 18.01l-2.727 4.723.123.072 2.727-4.724z" fill="#ccc"/>

   xmlns:dc="http://purl.org/dc/elements/1.1/"
   xmlns:cc="http://creativecommons.org/ns#"
   xmlns:rdf="http://www.w3.org/1999/02/22-rdf-syntax-ns#"
   xmlns:svg="http://www.w3.org/2000/svg"
   xmlns="http://www.w3.org/2000/svg"
   xmlns:xlink="http://www.w3.org/1999/xlink"
   xmlns:sodipodi="http://sodipodi.sourceforge.net/DTD/sodipodi-0.dtd"
   xmlns:inkscape="http://www.inkscape.org/namespaces/inkscape"
   version="1"
   width="32"
   height="32"
   id="svg12"
   sodipodi:docname="snow-top-4.svg"
   inkscape:version="0.92.1 r"&gt;
  <path d="m7.196.009c-8.161-.339-9.231 9.523-3.968 9.505.669.003 1.581-.197 2.929-1.471 3.773-4.147 9.01 4.479 14.696-1.042.61-.911 1.804-1.135 2.455-.627 1.045.677 2.87 2.991 3.88 3 2.359.513 4.095-.198 4.816-3.188.185-3.165-2.303-6.286-6.281-6.17-5.832.133-12.809-.045-18.527-.01" fill="url(#0)"/></svg>