<svg xmlns="http://www.w3.org/2000/svg" viewBox="0 0 32 32"><defs><linearGradient gradientTransform="matrix(2.59244 0 0 2.58531-157.93-277.73)" id="0" x1="67.894" y1="108.69" x2="67.854" y2="113.11" gradientUnits="userSpaceOnUse"><stop stop-color="#f9f9f9"/><stop offset="1" stop-color="#999"/></linearGradient></defs><g transform="translate(52.2-4.992)" fill-rule="evenodd"><path d="m-22.1 22.447h-8.135l-2.92 6.561a1.50015 1.50015 0 0 1 -.01953 .04492 1.50015 1.50015 0 0 1 -.07227 .13086 1.50015 1.50015 0 0 1 -.08594 .123047 1.50015 1.50015 0 0 1 -.0957 .115234 1.50015 1.50015 0 0 1 -.107422 .103516 1.50015 1.50015 0 0 1 -.117188 .09375 1.50015 1.50015 0 0 1 -.126953 .08203 1.50015 1.50015 0 0 1 -.134765 .06641 1.50015 1.50015 0 0 1 -.138672 .05469 1.50015 1.50015 0 0 1 -.144531 .04102 1.50015 1.50015 0 0 1 -.148438 .02539 1.50015 1.50015 0 0 1 -.148438 .0098 1.50015 1.50015 0 0 1 -.15039 -.0039 1.50015 1.50015 0 0 1 -.148438 -.01953 1.50015 1.50015 0 0 1 -.146484 -.03516 1.50015 1.50015 0 0 1 -.142578 -.04883 1.50015 1.50015 0 0 1 -.134766 -.06055 1.50015 1.50015 0 0 1 -.130859 -.07617 1.50015 1.50015 0 0 1 -.121094 -.08984 1.50015 1.50015 0 0 1 -.111328 -.09961 1.50015 1.50015 0 0 1 -.101563 -.109375 1.50015 1.50015 0 0 1 -.08984 -.121094 1.50015 1.50015 0 0 1 -.07617 -.128906 1.50015 1.50015 0 0 1 -.06445 -.134766 1.50015 1.50015 0 0 1 -.05078 -.140625 1.50015 1.50015 0 0 1 -.03516 -.146484l-1.988-10.23-1.381 3.104a1.50015 1.50015 0 0 1 -.0332 .07031 1.50015 1.50015 0 0 1 -.07617 .130859 1.50015 1.50015 0 0 1 -.08594 .123047 1.50015 1.50015 0 0 1 -.09961 .111329 1.50015 1.50015 0 0 1 -.109375 .101562 1.50015 1.50015 0 0 1 -.119141 .0918 1.50015 1.50015 0 0 1 -.128906 .07813 1.50015 1.50015 0 0 1 -.134766 .06445 1.50015 1.50015 0 0 1 -.140625 .05273 1.50015 1.50015 0 0 1 -.144531 .03711 1.50015 1.50015 0 0 1 -.148438 .02148 1.50015 1.50015 0 0 1 -.15039 .0078h-9.529a1.50015 1.50015 0 0 1 -.03516 0v7.07c0 3.089 2.488 5.574 5.576 5.574h17.05c3.089 0 5.574-2.486 5.574-5.574z" fill="#4f4f4f"/><path d="m-22.1 19.447h-9.109a1.50015 1.50015 0 0 0 -.150391 .0078 1.50015 1.50015 0 0 0 -.148437 .02148 1.50015 1.50015 0 0 0 -.144532 .03711 1.50015 1.50015 0 0 0 -.140625 .05078 1.50015 1.50015 0 0 0 -.134765 .06641 1.50015 1.50015 0 0 0 -.128907 .07813 1.50015 1.50015 0 0 0 -.11914 .08984 1.50015 1.50015 0 0 0 -.109375 .103516 1.50015 1.50015 0 0 0 -.09961 .111328 1.50015 1.50015 0 0 0 -.08789 .123047 1.50015 1.50015 0 0 0 -.07422 .128906 1.50015 1.50015 0 0 0 -.0332 .07031l-1.381 3.104-1.988-10.229a1.50015 1.50015 0 0 0 -.03516 -.146485 1.50015 1.50015 0 0 0 -.05078 -.140625 1.50015 1.50015 0 0 0 -.06445 -.134766 1.50015 1.50015 0 0 0 -.07813 -.128906 1.50015 1.50015 0 0 0 -.08984 -.11914 1.50015 1.50015 0 0 0 -.101563 -.111328 1.50015 1.50015 0 0 0 -.111328 -.09961 1.50015 1.50015 0 0 0 -.121093 -.08789 1.50015 1.50015 0 0 0 -.128907 -.07617 1.50015 1.50015 0 0 0 -.136718 -.0625 1.50015 1.50015 0 0 0 -.142578 -.04883 1.50015 1.50015 0 0 0 -.146485 -.0332 1.50015 1.50015 0 0 0 -.148437 -.01953 1.50015 1.50015 0 0 0 -.150391 -.0039 1.50015 1.50015 0 0 0 -.150391 .0098 1.50015 1.50015 0 0 0 -.146484 .02734 1.50015 1.50015 0 0 0 -.144531 .03906 1.50015 1.50015 0 0 0 -.140625 .05469 1.50015 1.50015 0 0 0 -.132813 .06836 1.50015 1.50015 0 0 0 -.126953 .08008 1.50015 1.50015 0 0 0 -.117187 .09375 1.50015 1.50015 0 0 0 -.107422 .105468 1.50015 1.50015 0 0 0 -.0957 .113282 1.50015 1.50015 0 0 0 -.08594 .125 1.50015 1.50015 0 0 0 -.07031 .130859 1.50015 1.50015 0 0 0 -.01953 .04102l-2.92 6.561h-8.555a1.50015 1.50015 0 0 0 -.03516 .002v2.998a1.50015 1.50015 0 0 0 .03516 0h9.529a1.50015 1.50015 0 0 0 .15039 -.0078 1.50015 1.50015 0 0 0 .148438 -.02148 1.50015 1.50015 0 0 0 .144531 -.03711 1.50015 1.50015 0 0 0 .140625 -.05273 1.50015 1.50015 0 0 0 .134766 -.06445 1.50015 1.50015 0 0 0 .128906 -.07813 1.50015 1.50015 0 0 0 .119141 -.0918 1.50015 1.50015 0 0 0 .109375 -.101562 1.50015 1.50015 0 0 0 .09961 -.111329 1.50015 1.50015 0 0 0 .08594 -.123047 1.50015 1.50015 0 0 0 .07617 -.130859 1.50015 1.50015 0 0 0 .0332 -.07031l1.381-3.104 1.988 10.23a1.50015 1.50015 0 0 0 .03516 .146484 1.50015 1.50015 0 0 0 .05078 .140625 1.50015 1.50015 0 0 0 .06445 .134766 1.50015 1.50015 0 0 0 .07617 .128906 1.50015 1.50015 0 0 0 .08984 .121094 1.50015 1.50015 0 0 0 .101563 .109375 1.50015 1.50015 0 0 0 .111328 .09961 1.50015 1.50015 0 0 0 .121094 .08984 1.50015 1.50015 0 0 0 .130859 .07617 1.50015 1.50015 0 0 0 .134766 .06055 1.50015 1.50015 0 0 0 .142578 .04883 1.50015 1.50015 0 0 0 .146484 .03516 1.50015 1.50015 0 0 0 .148438 .01953 1.50015 1.50015 0 0 0 .15039 .0039 1.50015 1.50015 0 0 0 .148438 -.0098 1.50015 1.50015 0 0 0 .148438 -.02539 1.50015 1.50015 0 0 0 .144531 -.04102 1.50015 1.50015 0 0 0 .138672 -.05469 1.50015 1.50015 0 0 0 .134765 -.06641 1.50015 1.50015 0 0 0 .126953 -.08203 1.50015 1.50015 0 0 0 .117188 -.09375 1.50015 1.50015 0 0 0 .107422 -.103516 1.50015 1.50015 0 0 0 .0957 -.115234 1.50015 1.50015 0 0 0 .08594 -.123047 1.50015 1.50015 0 0 0 .07227 -.13086 1.50015 1.50015 0 0 0 .01953 -.04492l2.92-6.561h8.135z" fill="#659fff"/><path d="m-44.725 6.891c-3.089 0-5.576 2.488-5.576 5.576v6.982a1.50015 1.50015 0 0 1 .03516 -.002h8.555l2.92-6.561a1.50015 1.50015 0 0 1 .01953 -.04102 1.50015 1.50015 0 0 1 .07031 -.130859 1.50015 1.50015 0 0 1 .08594 -.125 1.50015 1.50015 0 0 1 .0957 -.113282 1.50015 1.50015 0 0 1 .107422 -.105468 1.50015 1.50015 0 0 1 .117187 -.09375 1.50015 1.50015 0 0 1 .126953 -.08008 1.50015 1.50015 0 0 1 .132813 -.06836 1.50015 1.50015 0 0 1 .140625 -.05469 1.50015 1.50015 0 0 1 .144531 -.03906 1.50015 1.50015 0 0 1 .146484 -.02734 1.50015 1.50015 0 0 1 .150391 -.0098 1.50015 1.50015 0 0 1 .150391 .0039 1.50015 1.50015 0 0 1 .148437 .01953 1.50015 1.50015 0 0 1 .146485 .0332 1.50015 1.50015 0 0 1 .142578 .04883 1.50015 1.50015 0 0 1 .136718 .0625 1.50015 1.50015 0 0 1 .128907 .07617 1.50015 1.50015 0 0 1 .121093 .08789 1.50015 1.50015 0 0 1 .111328 .09961 1.50015 1.50015 0 0 1 .101563 .111328 1.50015 1.50015 0 0 1 .08984 .11914 1.50015 1.50015 0 0 1 .07813 .128906 1.50015 1.50015 0 0 1 .06445 .134766 1.50015 1.50015 0 0 1 .05078 .140625 1.50015 1.50015 0 0 1 .03516 .146485l1.988 10.229 1.381-3.104a1.50015 1.50015 0 0 1 .0332 -.07031 1.50015 1.50015 0 0 1 .07422 -.128906 1.50015 1.50015 0 0 1 .08789 -.123047 1.50015 1.50015 0 0 1 .09961 -.111328 1.50015 1.50015 0 0 1 .109375 -.103516 1.50015 1.50015 0 0 1 .11914 -.08984 1.50015 1.50015 0 0 1 .128907 -.07813 1.50015 1.50015 0 0 1 .134765 -.06641 1.50015 1.50015 0 0 1 .140625 -.05078 1.50015 1.50015 0 0 1 .144532 -.03711 1.50015 1.50015 0 0 1 .148437 -.02148 1.50015 1.50015 0 0 1 .150391 -.0078h9.109v-6.98c0-3.089-2.486-5.576-5.574-5.576z" fill="#4f4f4f"/></g>

   xmlns:dc="http://purl.org/dc/elements/1.1/"
   xmlns:cc="http://creativecommons.org/ns#"
   xmlns:rdf="http://www.w3.org/1999/02/22-rdf-syntax-ns#"
   xmlns:svg="http://www.w3.org/2000/svg"
   xmlns="http://www.w3.org/2000/svg"
   xmlns:xlink="http://www.w3.org/1999/xlink"
   xmlns:sodipodi="http://sodipodi.sourceforge.net/DTD/sodipodi-0.dtd"
   xmlns:inkscape="http://www.inkscape.org/namespaces/inkscape"
   version="1"
   width="32"
   height="32"
   id="svg12"
   sodipodi:docname="snow-top-4.svg"
   inkscape:version="0.92.1 r"&gt;
  <path d="m7.196.009c-8.161-.339-9.231 9.523-3.968 9.505.669.003 1.581-.197 2.929-1.471 3.773-4.147 9.01 4.479 14.696-1.042.61-.911 1.804-1.135 2.455-.627 1.045.677 2.87 2.991 3.88 3 2.359.513 4.095-.198 4.816-3.188.185-3.165-2.303-6.286-6.281-6.17-5.832.133-12.809-.045-18.527-.01" fill="url(#0)"/></svg>