<svg xmlns="http://www.w3.org/2000/svg" viewBox="0 0 32 32"><defs><linearGradient gradientTransform="matrix(2.59244 0 0 2.58531-157.93-277.73)" id="0" x1="67.894" y1="108.69" x2="67.854" y2="113.11" gradientUnits="userSpaceOnUse"><stop stop-color="#f9f9f9"/><stop offset="1" stop-color="#999"/></linearGradient></defs><rect width="28.2" height="28.2" x="1.898" y="1.898" fill="#ccc" fill-rule="evenodd" rx="5.575"/><path d="m14.425 17.02c-.119-.131-.188-.287-.267-.444.075.275.229.511.372.752l-.105-.307m0 .001c-.118-.131-.188-.288-.267-.444.075.275.229.511.372.752l-.105-.308m7.332-2.393c.019.513-.147.762-.297 1.202l-.27.136c-.22.436.022.277-.136.623-.344.311-1.044.974-1.268 1.034-.164-.004.111-.196.147-.272-.461.322-.37.483-1.074.679l-.02-.047c-1.737.832-4.15-.816-4.118-3.065-.018.143-.053.107-.091.164-.09-1.157.525-2.319 1.562-2.794 1.014-.511 2.203-.301 2.929.388-.399-.532-1.193-1.096-2.133-1.043-.922.015-1.785.611-2.072 1.259-.472.302-.527 1.166-.733 1.325-.277 2.071.521 2.966 1.87 4.02.212.146.06.168.088.279-.448-.213-.859-.536-1.196-.931.179.267.373.526.623.73-.423-.145-.988-1.043-1.152-1.079.729 1.328 2.956 2.329 4.123 1.832-.54.02-1.226.011-1.832-.217-.255-.133-.601-.41-.539-.461 1.592.605 3.237.458 4.614-.666.351-.278.734-.751.844-.757-.167.255.029.123-.099.348.349-.573-.152-.233.361-.99l.189.265c-.071-.476.581-1.054.514-1.806.149-.23.167.248.008.777.22-.587.058-.682.114-1.166.061.163.141.336.182.508-.143-.568.147-.956.219-1.286-.071-.032-.221.251-.256-.419.005-.291.08-.153.108-.224-.056-.033-.203-.256-.293-.684.064-.101.173.261.262.275-.057-.34-.155-.6-.159-.861-.259-.55-.092.073-.301-.236-.275-.873.228-.203.262-.599.417.614.654 1.567.764 1.962-.083-.481-.218-.947-.382-1.398.127.055-.204-.99.165-.298-.395-1.474-1.686-2.851-2.873-3.497.145.135.329.305.263.332-.591-.358-.487-.386-.572-.537-.481-.199-.512.016-.831 0-.907-.49-1.081-.438-1.916-.744l.038.181c-.601-.204-.7.077-1.349 0-.039-.031.208-.114.412-.144-.581.078-.554-.117-1.122.021.14-.1.288-.166.438-.251-.474.029-1.131.281-.928.052-.773.351-2.145.844-2.915 1.578l-.024-.165c-.353.431-1.539 1.287-1.633 1.846l-.094.022c-.183.316-.302.675-.448 1-.24.417-.352.16-.318.226-.472.974-.707 1.793-.91 2.465.144.22.004 1.323.058 2.205-.237 4.36 3.01 8.592 6.551 9.569.52.19 1.292.183 1.949.201-.775-.226-.875-.119-1.631-.387-.545-.261-.664-.56-1.05-.901l.153.275c-.757-.273-.44-.337-1.056-.536l.163-.217c-.244-.019-.649-.421-.76-.644l-.269.011c-.322-.404-.494-.697-.482-.923l-.087.157c-.098-.172-1.187-1.519-.622-1.205-.105-.097-.244-.159-.396-.438l.115-.133c-.271-.356-.5-.812-.482-.964.145.199.245.236.345.271-.686-1.732-.725-.095-1.244-1.763l.11-.009c-.084-.13-.136-.269-.203-.407l.048-.485c-.494-.581-.138-2.472-.066-3.508.049-.421.412-.871.688-1.574l-.168-.029c.322-.57 1.835-2.292 2.537-2.203.34-.434-.068-.002-.134-.111.746-.786.981-.555 1.484-.697.543-.328-.466.128-.209-.125.939-.244.665-.555 1.89-.678.129.075-.3.115-.407.212.782-.39 2.475-.301 3.575.216 1.275.607 2.709 2.401 2.766 4.089l.064.018c-.033.671.101 1.447-.131 2.16l.157-.338" fill="#f9548f"/>

   xmlns:dc="http://purl.org/dc/elements/1.1/"
   xmlns:cc="http://creativecommons.org/ns#"
   xmlns:rdf="http://www.w3.org/1999/02/22-rdf-syntax-ns#"
   xmlns:svg="http://www.w3.org/2000/svg"
   xmlns="http://www.w3.org/2000/svg"
   xmlns:xlink="http://www.w3.org/1999/xlink"
   xmlns:sodipodi="http://sodipodi.sourceforge.net/DTD/sodipodi-0.dtd"
   xmlns:inkscape="http://www.inkscape.org/namespaces/inkscape"
   version="1"
   width="32"
   height="32"
   id="svg12"
   sodipodi:docname="snow-top-4.svg"
   inkscape:version="0.92.1 r"&gt;
  <path d="m7.196.009c-8.161-.339-9.231 9.523-3.968 9.505.669.003 1.581-.197 2.929-1.471 3.773-4.147 9.01 4.479 14.696-1.042.61-.911 1.804-1.135 2.455-.627 1.045.677 2.87 2.991 3.88 3 2.359.513 4.095-.198 4.816-3.188.185-3.165-2.303-6.286-6.281-6.17-5.832.133-12.809-.045-18.527-.01" fill="url(#0)"/></svg>