<svg xmlns="http://www.w3.org/2000/svg" viewBox="0 0 32 32"><defs><linearGradient gradientTransform="matrix(-2.65552 0 0 2.58531 193.77-277.73)" id="0" x1="67.894" y1="108.69" x2="67.854" y2="113.11" gradientUnits="userSpaceOnUse"><stop stop-color="#f9f9f9"/><stop offset="1" stop-color="#999"/></linearGradient></defs><rect width="28.2" height="28.2" x="1.898" y="1.898" fill="#c2352a" fill-rule="evenodd" rx="5.575"/><g stroke-width=".678"><path d="m15.07 15.367l-1.157 1.337-.892.88-.993.675-1.195.637-1.384.521-.867.205-.037.114.05.306.201.51.427.841.415.623.805.854.364.369.327.116 1.483-.014-.88.611-.013.154.528.42.717.42c.926.523 1.761-.511 1.761-.511 0 0-.449.784-.422 1.06h.881l.465-.076.528-.268-.177.28.957.012c1.01-.024 1.677-.615 2.275-1.248l.628-.752.491-.751.364-.688.579-1.363.44-1.108.214-.587h-.209l-1.59-.186c-1.277-.366-1.965-1.321-3.148-2.051l-.981-.612-.779-.471-.113-.166-.023-.065-.043-.028" fill="#fed24c"/><path d="m22.2 7l-.925 1.766-.8 1.801-.978 1.964-.676 1.616-.751-.32-1.082-.472h-.265l-.226.064-.364.485-1.056 1.413.05.14.113.166.779.471.981.611c1.183.73 1.871 1.685 3.147 2.051l1.59.187h.267l.017-.071.231-1.442.189-1.165.019-.249-.138-.261-.931-.433-.54-.236-.331-.215-.038-.016.044-.072.552-1.387.497-1.225.622-1.657.481-1.172.409-1.044.336-1.012c.201-.756-.682-1.165-1.225-.286" fill="#fff"/></g>

   xmlns:dc="http://purl.org/dc/elements/1.1/"
   xmlns:cc="http://creativecommons.org/ns#"
   xmlns:rdf="http://www.w3.org/1999/02/22-rdf-syntax-ns#"
   xmlns:svg="http://www.w3.org/2000/svg"
   xmlns="http://www.w3.org/2000/svg"
   xmlns:xlink="http://www.w3.org/1999/xlink"
   xmlns:sodipodi="http://sodipodi.sourceforge.net/DTD/sodipodi-0.dtd"
   xmlns:inkscape="http://www.inkscape.org/namespaces/inkscape"
   version="1"
   width="32"
   height="32"
   id="svg12"
   sodipodi:docname="snow-top-3.svg"
   inkscape:version="0.92.1 r"&gt;
  <path d="m24.627.009c8.36-.339 9.455 9.523 4.064 9.505-.686.003-1.62-.197-3-1.471-14.665-10.216-14.549 2.967-17.708.875-1.727-1.822-1.743 4.653-4.139 5.127-2.122.613-3.699-1.385-3.824-4.503-.366-8.627 4.086-9.427 7.187-9.524 5.974.133 11.562-.045 17.419-.01" fill="url(#0)"/></svg>