<svg xmlns="http://www.w3.org/2000/svg" viewBox="0 0 32 32"><defs><linearGradient gradientTransform="matrix(-2.65552 0 0 2.58531 193.77-277.73)" id="0" x1="67.894" y1="108.69" x2="67.854" y2="113.11" gradientUnits="userSpaceOnUse"><stop stop-color="#f9f9f9"/><stop offset="1" stop-color="#999"/></linearGradient></defs><rect width="28.2" height="28.2" x="1.898" y="1.898" fill="#c2352a" fill-rule="evenodd" rx="5.575"/><g transform="translate(45.78-2.029)"><g fill="#fff"><rect ry=".57" rx=".533" y="10.03" x="-22.23" height="15.972" width="3.194"/><rect width="3.194" height="15.972" x="-31.01" y="10.03" rx=".533" ry=".57"/><rect ry=".57" rx=".533" y="10.03" x="-40.596" height="15.972" width="3.194"/></g><g fill="#d8564d"><g transform="matrix(0 1-1 0 0 0)"><rect width="3.194" height="7.986" x="9.949" y="32.62" rx=".533" ry=".57"/><rect ry=".57" rx=".533" y="32.62" x="22.914" height="7.986" width="3.194"/></g><path d="m-30.3017 9.969953a.790252 .655906 0 0 0 -.684199 .98376l2.64 3.794 2.639 3.794a.790252 .655906 0 0 0 .647161 .327921 .790252 .655906 0 0 0 .721236 -.327921l2.639-3.794 2.639-3.794a.790252 .655906 0 0 0 -.684198 -.98376h-5.278z"/></g></g>

   xmlns:dc="http://purl.org/dc/elements/1.1/"
   xmlns:cc="http://creativecommons.org/ns#"
   xmlns:rdf="http://www.w3.org/1999/02/22-rdf-syntax-ns#"
   xmlns:svg="http://www.w3.org/2000/svg"
   xmlns="http://www.w3.org/2000/svg"
   xmlns:xlink="http://www.w3.org/1999/xlink"
   xmlns:sodipodi="http://sodipodi.sourceforge.net/DTD/sodipodi-0.dtd"
   xmlns:inkscape="http://www.inkscape.org/namespaces/inkscape"
   version="1"
   width="32"
   height="32"
   id="svg12"
   sodipodi:docname="snow-top-3.svg"
   inkscape:version="0.92.1 r"&gt;
  <path d="m24.627.009c8.36-.339 9.455 9.523 4.064 9.505-.686.003-1.62-.197-3-1.471-14.665-10.216-14.549 2.967-17.708.875-1.727-1.822-1.743 4.653-4.139 5.127-2.122.613-3.699-1.385-3.824-4.503-.366-8.627 4.086-9.427 7.187-9.524 5.974.133 11.562-.045 17.419-.01" fill="url(#0)"/></svg>