<svg xmlns="http://www.w3.org/2000/svg" viewBox="0 0 32 32"><defs><linearGradient gradientTransform="matrix(2.59244 0 0 2.58531-157.93-277.73)" id="0" x1="67.894" y1="108.69" x2="67.854" y2="113.11" gradientUnits="userSpaceOnUse"><stop stop-color="#f9f9f9"/><stop offset="1" stop-color="#999"/></linearGradient></defs><rect width="28.2" height="28.2" x="1.898" y="1.898" fill="#a559d6" fill-rule="evenodd" rx="5.575"/><g transform="translate(57.61-1.684)"><path d="m-46.2 10.474c-2.212 0-4.01 1.794-4.01 4.01 0 2.212 1.794 4.01 4.01 4.01 2.212 0 4.01-1.794 4.01-4.01 0-2.212-1.794-4.01-4.01-4.01m-5.608 14.421h11.216c0-4.01-2.4-4.807-5.606-4.807-3.207 0-5.611.801-5.611 4.807" fill="#f9f9f9"/><path d="m-39.41 23.09v1.782h1.782l4.5-4.5-1.782-1.782zm7.859-4.289c.188-.188.188-.485 0-.674l-1.114-1.114c-.188-.188-.485-.188-.674 0l-.931.937 1.782 1.782z" fill="#fff"/></g>

   xmlns:dc="http://purl.org/dc/elements/1.1/"
   xmlns:cc="http://creativecommons.org/ns#"
   xmlns:rdf="http://www.w3.org/1999/02/22-rdf-syntax-ns#"
   xmlns:svg="http://www.w3.org/2000/svg"
   xmlns="http://www.w3.org/2000/svg"
   xmlns:xlink="http://www.w3.org/1999/xlink"
   xmlns:sodipodi="http://sodipodi.sourceforge.net/DTD/sodipodi-0.dtd"
   xmlns:inkscape="http://www.inkscape.org/namespaces/inkscape"
   version="1"
   width="32"
   height="32"
   id="svg12"
   sodipodi:docname="snow-top-4.svg"
   inkscape:version="0.92.1 r"&gt;
  <path d="m7.196.009c-8.161-.339-9.231 9.523-3.968 9.505.669.003 1.581-.197 2.929-1.471 3.773-4.147 9.01 4.479 14.696-1.042.61-.911 1.804-1.135 2.455-.627 1.045.677 2.87 2.991 3.88 3 2.359.513 4.095-.198 4.816-3.188.185-3.165-2.303-6.286-6.281-6.17-5.832.133-12.809-.045-18.527-.01" fill="url(#0)"/></svg>