<svg xmlns="http://www.w3.org/2000/svg" viewBox="0 0 32 32"><defs><linearGradient gradientTransform="matrix(-2.65552 0 0 2.58531 193.77-277.73)" id="0" x1="67.894" y1="108.69" x2="67.854" y2="113.11" gradientUnits="userSpaceOnUse"><stop stop-color="#f9f9f9"/><stop offset="1" stop-color="#999"/></linearGradient></defs><g fill="#fff"><path d="m14 2v1l6.09 3.48.91-.48m-7-1.9c-6.572 0-12 5.328-12 11.9 0 .156.021.306.027.461.289-6.32 5.582-11.361 11.973-11.361m10.584 1.121c-.952-.003-1.817 1.478-1.498 2.629.187-.86.812-1.631 1.498-1.629.176 0 .353.051.527.164 2.846 2.079 4.716 5.395 4.861 9.154.008-.18.027-.357.027-.539 0-3.95-1.926-7.451-4.889-9.615-.174-.113-.351-.164-.527-.164" transform="translate(0 6.73)" opacity=".1" fill="#fff"/></g><rect width="28.2" height="28.2" x="1.898" y="1.898" fill="#ececec" fill-rule="evenodd" rx="5.575"/><g transform="matrix(.50709 0 0 .50709 3.323 3.83)" stroke-width="1.38"><path d="m22.14 4v3c-9.389 0-17.14 7.611-17.14 17 0 5.643 2.75 10.644 6.982 13.736 1.989 1.289 4.362-3.076 2.039-4.772-2.468-2.197-4.02-5.399-4.02-8.964 0-6.627 5.515-12 12.143-12v3l10-5.286z" fill="#9ccd44"/><path d="m37.26 10.03c-1.755-.005-3.317 3.522-1.285 5.01 2.467 2.198 4.02 5.4 4.02 8.965 0 6.627-5.515 12-12.143 12v-3l-10 5.286 10 5.714v-3c9.389 0 17.14-7.611 17.14-17 0-5.643-2.75-10.644-6.982-13.736-.249-.161-.504-.234-.754-.235" fill="#5db43e"/></g>

   xmlns:dc="http://purl.org/dc/elements/1.1/"
   xmlns:cc="http://creativecommons.org/ns#"
   xmlns:rdf="http://www.w3.org/1999/02/22-rdf-syntax-ns#"
   xmlns:svg="http://www.w3.org/2000/svg"
   xmlns="http://www.w3.org/2000/svg"
   xmlns:xlink="http://www.w3.org/1999/xlink"
   xmlns:sodipodi="http://sodipodi.sourceforge.net/DTD/sodipodi-0.dtd"
   xmlns:inkscape="http://www.inkscape.org/namespaces/inkscape"
   version="1"
   width="32"
   height="32"
   id="svg12"
   sodipodi:docname="snow-top-3.svg"
   inkscape:version="0.92.1 r"&gt;
  <path d="m24.627.009c8.36-.339 9.455 9.523 4.064 9.505-.686.003-1.62-.197-3-1.471-14.665-10.216-14.549 2.967-17.708.875-1.727-1.822-1.743 4.653-4.139 5.127-2.122.613-3.699-1.385-3.824-4.503-.366-8.627 4.086-9.427 7.187-9.524 5.974.133 11.562-.045 17.419-.01" fill="url(#0)"/></svg>