<svg xmlns="http://www.w3.org/2000/svg" viewBox="0 0 32 32" xmlns:xlink="http://www.w3.org/1999/xlink"><defs><linearGradient gradientTransform="matrix(-2.54182 0 0 2.58531 185.47-277.37)" id="1" x1="67.894" y1="108.69" x2="67.854" y2="113.11" gradientUnits="userSpaceOnUse"><stop stop-color="#f9f9f9"/><stop offset="1" stop-color="#999"/></linearGradient></defs><rect width="28.2" height="28.2" x="1.898" y="1.898" fill="#9bcc6e" fill-rule="evenodd" rx="5.575"/><g transform="translate(47.895 7.494)"><path d="m-26.796633-.219057a5.098171 5.098171 0 0 1 3.674252 1.571839c.024.023.047.043.071.067.532.532.84 1.041.974 1.541a5.098171 5.098171 0 0 1 .377993 1.893606 5.098171 5.098171 0 0 1 -5.098171 5.098171 5.098171 5.098171 0 0 1 -2.03133 -.429557c-.052-.021-.106-.047-.159-.071a5.098171 5.098171 0 0 1 -.196302 -.09672c-.027-.015-.053-.024-.081-.04-5.169 6.992-12.826 7.939-12.826 7.939L-31.609 6.554C-31.726 6.287-31.786 6.04-31.805 5.803a5.098171 5.098171 0 0 1 -.08958 -.946803 5.098171 5.098171 0 0 1 5.098171 -5.098171z" fill="#fff"/><path d="m-36.992975-.219057a5.098171 5.098171 0 0 0 -3.674252 1.571839c-.024.023-.047.043-.071.067-.532.532-.84 1.041-.974 1.541a5.098171 5.098171 0 0 0 -.378358 1.893606 5.098171 5.098171 0 0 0 5.098172 5.098171 5.098171 5.098171 0 0 0 2.031329 -.429557c.052-.021.106-.047.159-.071a5.098171 5.098171 0 0 0 .196302 -.09672c.027-.015.053-.024.081-.04 5.169 6.992 12.826 7.939 12.826 7.939L-32.18 6.554c.117-.267.177-.515.196-.751a5.098171 5.098171 0 0 0 .08958 -.946803 5.098171 5.098171 0 0 0 -5.098171 -5.098171z" fill="#48894a"/><circle r="2.185" cx="-36.993" cy="4.879" fill="#9bcc6e"/><circle r=".728" cx="-31.895" cy="9.249" fill="#f9f9f9"/><circle r="2.185" cx="-26.797" cy="4.879" fill="#9bcc6e"/></g>

   xmlns:dc="http://purl.org/dc/elements/1.1/"
   xmlns:cc="http://creativecommons.org/ns#"
   xmlns:rdf="http://www.w3.org/1999/02/22-rdf-syntax-ns#"
   xmlns:svg="http://www.w3.org/2000/svg"
   xmlns="http://www.w3.org/2000/svg"
   xmlns:xlink="http://www.w3.org/1999/xlink"
   xmlns:sodipodi="http://sodipodi.sourceforge.net/DTD/sodipodi-0.dtd"
   xmlns:inkscape="http://www.inkscape.org/namespaces/inkscape"
   height="32"
   width="32"
   version="1"
   id="svg8"
   sodipodi:docname="snow-top-3.svg"
   inkscape:version="0.92.1 r"&gt;
  <path fill="#00000f" fill-opacity="0" d="m0 0h32v32h-32z" id="0"/><path d="m7.354 6.111c-2.995 2.684-1.381 7.817-3.674 8.291-2.031.613-3.541-1.385-3.66-4.503-.35-8.627 3.911-9.427 6.879-9.524 28.342-2.047 1.762 4.92.455 5.736" fill="url(#1)"/><use xlink:href="#0"/></svg>