<svg xmlns="http://www.w3.org/2000/svg" viewBox="0 0 32 32"><defs><linearGradient gradientTransform="matrix(2.62891 0 0 2.71269-160.16-291.42)" id="0" x1="67.894" y1="108.69" x2="67.854" y2="113.11" gradientUnits="userSpaceOnUse"><stop stop-color="#f9f9f9"/><stop offset="1" stop-color="#999"/></linearGradient></defs><rect width="28.2" height="28.2" x="1.898" y="1.898" fill="#ae5657" fill-rule="evenodd" rx="5.575"/><path d="m18.339 17.95c1.575-1.056 5.992-.283 8.643-2.916-1.163-.462-1.815-1.209-2.691-1.83-3.674.136-7.391.25-7.899 2.02z" fill="#e9d9be"/><path d="m18.972 22.276l8.654-3.173c.23-.1.092-.208.118-.22l-1.72-1.99-8.155 2.234-.121 2.14c.332.353.311.785 1.225 1.01" fill="#79312b"/><path d="m18.339 17.95c-.806 2.589-.572 3.494.226 4.14l.4-.084 7.963-3.124c-1.191-.784-1.014-2.133.054-3.849-.793.548-1.094.888-2.236 1.112-.394.077-1.566-.028-2.341.4-.339.187-.698.44-1.135.488-.891.097-2.502.402-2.931.917" fill="#d4bb9b"/><path d="m18.399 17.795c-.556 2.042-.85 3.892.572 4.482-.272-.011-.352.208-.968-.218-.793-.883-1.704-2.133-2.315-2.447z" fill="#250000"/><path d="m4.791 16.338c-.167.123-.176.288-.072.424l5.578 8.101c.156.093.44.518.697.257.596.206 5.446-5.743 7.406-7.326l-8.591-5.813z" fill="#7a312b" fill-opacity=".996"/><path d="m5.315 16.307c-.167.123-.176.288-.072.424l5.178 7.587c.156.093.44.518.697.257.576.102 4.662-5.807 7.282-6.78l-8.07-5.845z" fill="#d4bb9b"/><g transform="matrix(.86127 0 0 .86127 33.22 1.818)" stroke-width="1.161"><path d="m-15.04 20.398c2.263 1.629.962 4.958 2.605 6.203l.148-.086.023-1.211c.358.196 1.115.554 1.828.625-.043-.032.182-.063.14-.094-2.298-1.668-1.459-4.493-2.937-6.219l-1.82.57z" fill="#6e0e03"/><path d="m-15.05 20.19c2.489 2.081 1.165 5.167 2.766 6.328l.172-1.297c.358.196 1.115.554 1.828.625-2.351-1.754-1.291-4.555-2.797-6.313z" fill="#e73716"/></g><path d="m5.107 15.21c3.541 4.058 4.382 7.342 5.735 7.998.316-.234.504-.984 1.48-2.24.758-.976 1.573-3.304 3.463-3.11.491.051 1.794-.079 2.347-.102l-5.01-4.804c-.804-1.578-2.565-3.778-4.683-1.346-1.056 1.287-2.175 2.769-3.331 3.604" fill="#f2ead1"/><path d="m5.646 13.473c3.541 4.058 3.945 5.829 5.221 8.236.316-.234.514-.389 1.261-1.793.682-1.28 1.573-2.924 3.463-2.729.491.051 2.254.631 2.807.608l-4.786-6.314c-.804-1.578-2.565-3.778-4.683-1.346-1.056 1.287-2.127 2.502-3.284 3.337" fill="#fff"/><path d="m13.613 11.481l4.414 6.298c-.552-1.052 1.425-2.536 2.592-2.809.222-.052-1.574-.908-1.421-1.053 3.094 1.496 6.03.88 6.717-.046.526-.707.979-.363 1.263-.613-.781-.291-2.647-1.503-3.958-2.218-1.308-.714-1.583-2.862-2.286-3.326-2.412 3.211-5.368.215-7.321 3.768" fill="#fff7e8"/>

   xmlns:dc="http://purl.org/dc/elements/1.1/"
   xmlns:cc="http://creativecommons.org/ns#"
   xmlns:rdf="http://www.w3.org/1999/02/22-rdf-syntax-ns#"
   xmlns:svg="http://www.w3.org/2000/svg"
   xmlns="http://www.w3.org/2000/svg"
   xmlns:xlink="http://www.w3.org/1999/xlink"
   xmlns:sodipodi="http://sodipodi.sourceforge.net/DTD/sodipodi-0.dtd"
   xmlns:inkscape="http://www.inkscape.org/namespaces/inkscape"
   version="1"
   width="32"
   height="32"
   id="svg12"
   sodipodi:docname="snow-top-1.svg"
   inkscape:version="0.92.1 r"&gt;
  <path d="m7.288.009c-8.276-.356-9.36 9.992-4.02 9.973.679.003 1.604-.207 2.97-1.543 7.256-10.531 14.706 3.573 17.53.919 1.71-1.912 3.496-.418 4.448.115 2.1.643 3.662.041 3.785-3.231.188-3.321-1.889-6.344-5.923-6.223-5.914.14-12.989-.047-18.787-.01" fill="url(#0)"/><path fill="#f00" fill-opacity="0" d="m0 0h32v32h-32z"/></svg>