<svg xmlns="http://www.w3.org/2000/svg" xmlns:xlink="http://www.w3.org/1999/xlink" viewBox="0 0 32 32"><defs><linearGradient gradientTransform="matrix(-2.54182 0 0 2.58531 185.47-277.37)" id="1" x1="67.894" y1="108.69" x2="67.854" y2="113.11" gradientUnits="userSpaceOnUse"><stop stop-color="#f9f9f9"/><stop offset="1" stop-color="#999"/></linearGradient></defs><g fill-rule="evenodd"><path d="m30.1 22.12c-.288-.695-.69-1.334-1.197-1.881-.521-.561-1.145-1.032-1.842-1.385-.697-.353-1.468-.589-2.285-.68-.213-1.043-.609-2.02-1.156-2.904-.547-.883-1.244-1.669-2.057-2.324-.812-.656-1.739-1.182-2.748-1.543-1.01-.361-2.101-.559-3.238-.559-.971 0-1.905.145-2.783.412-.878.267-1.7.656-2.445 1.148-.745.492-1.414 1.087-1.984 1.762-.571.675-1.045 1.43-1.4 2.246-.904.13-1.753.416-2.521.826-.768.41-1.455.946-2.027 1.58-.22.243-.333.561-.518.832v4.879c0 3.089 2.486 5.574 5.574 5.574h17.05c3.089 0 5.574-2.486 5.574-5.574z" fill="#f9f9f9"/><path d="m7.473 1.898c-3.089 0-5.574 2.488-5.574 5.576v12.174c.185-.271.298-.589.518-.832.572-.634 1.259-1.17 2.027-1.58.768-.41 1.618-.696 2.521-.826.356-.816.83-1.571 1.4-2.246.571-.675 1.239-1.27 1.984-1.762.745-.492 1.567-.881 2.445-1.148.878-.267 1.812-.412 2.783-.412 1.137 0 2.229.197 3.238.559 1.01.361 1.936.887 2.748 1.543.812.656 1.51 1.442 2.057 2.324.547.883.943 1.862 1.156 2.904.817.091 1.588.327 2.285.68.697.353 1.321.823 1.842 1.385.508.547.91 1.186 1.197 1.881v-14.643c0-3.089-2.486-5.576-5.574-5.576z" fill="#23cdff"/></g><path d="m16 15.726c-1.381 0-2.5 1.119-2.5 2.5 0 1.381 1.119 2.5 2.5 2.5 1.381 0 2.5-1.119 2.5-2.5 0-1.381-1.119-2.5-2.5-2.5m0 6c-4.5.003-4.5 3.201-4.5 3.201v.799h9v-.799c0 0 0-3.203-4.5-3.201" opacity=".5" fill="#808080" color="#000"/>

   xmlns:dc="http://purl.org/dc/elements/1.1/"
   xmlns:cc="http://creativecommons.org/ns#"
   xmlns:rdf="http://www.w3.org/1999/02/22-rdf-syntax-ns#"
   xmlns:svg="http://www.w3.org/2000/svg"
   xmlns="http://www.w3.org/2000/svg"
   xmlns:xlink="http://www.w3.org/1999/xlink"
   xmlns:sodipodi="http://sodipodi.sourceforge.net/DTD/sodipodi-0.dtd"
   xmlns:inkscape="http://www.inkscape.org/namespaces/inkscape"
   height="32"
   width="32"
   version="1"
   id="svg8"
   sodipodi:docname="snow-top-3.svg"
   inkscape:version="0.92.1 r"&gt;
  <path fill="#00000f" fill-opacity="0" d="m0 0h32v32h-32z" id="0"/><path d="m7.354 6.111c-2.995 2.684-1.381 7.817-3.674 8.291-2.031.613-3.541-1.385-3.66-4.503-.35-8.627 3.911-9.427 6.879-9.524 28.342-2.047 1.762 4.92.455 5.736" fill="url(#1)"/><use xlink:href="#0"/></svg>