<svg xmlns="http://www.w3.org/2000/svg" height="32" width="32" viewBox="0 0 8.4666667 8.4666667"><g fill-rule="evenodd" transform="matrix(.26458 0 0 .26458 12.784.557)"><path d="m-32.21 13.996c-1.189 0-2.309.229-3.359.629-1.05.4-2.029.972-2.938 1.658-.909.686-1.747 1.484-2.512 2.342-.764.857-1.455 1.773-2.072 2.688-1.017 1.506-1.699 2.892-2.307 4.143.998 1.497 2.619 2.541 4.561 2.541h.775c.2-.118.464-.09.65-.248.663-.56 1.258-1.36 1.898-2.32.64-.96 1.326-2.081 2.172-3.281.846-1.2 1.851-2.48 3.131-3.76 0 0 .621-.791 1.574-1.547.477-.378 1.036-.747 1.645-1 .609-.257 1.266-.403 1.936-.332-.542-.361-1.404-.768-2.344-1.07-.94-.302-1.957-.498-2.811-.438" fill="#fff"/><path d="m-29.08 14.584c.3.108.504.231.771.352-.192-.087-.354-.236-.551-.311-.069-.026-.151-.016-.221-.041" fill="#fecd38"/><path d="m-24.361 27.996c-.2-.118-.464-.09-.65-.248-.663-.56-1.258-1.36-1.898-2.32-.64-.96-1.326-2.081-2.172-3.281-.846-1.2-1.853-2.48-3.133-3.76-1.28 1.28-2.285 2.56-3.131 3.76-.846 1.2-1.532 2.321-2.172 3.281-.64.96-1.235 1.76-1.898 2.32-.187.158-.45.13-.65.248z" fill="#4f4f4f"/><path d="m-19.12 25.289c-.599-1.22-1.239-2.53-2.215-3.977-.617-.914-1.308-1.83-2.072-2.688-.764-.857-1.603-1.656-2.512-2.342-.41-.309-.887-.49-1.326-.748-.604-.028-1.202.068-1.754.301-.609.257-1.168.626-1.645 1-.954.756-1.574 1.547-1.574 1.547 1.28 1.28 2.287 2.56 3.133 3.76.846 1.2 1.532 2.321 2.172 3.281.64.96 1.235 1.76 1.898 2.32.187.158.45.13.65.248h.572c2.01 0 3.693-1.115 4.672-2.707" fill="#eba43c"/><g fill="#4f4f4f"><path d="m-19.05 2.592c-.605 1.241-1.274 2.601-2.277 4.088-.617.914-1.308 1.83-2.072 2.688-.764.857-1.603 1.658-2.512 2.344-.909.686-1.889 1.256-2.939 1.656-1.05.4-2.171.629-3.359.629.853-.06 1.871.136 2.811.438.132.042.2.104.328.15.07.025.152.015.221.041.197.075.359.224.551.311.432.195.957.377 1.244.568-.063-.007-.119.034-.182.031.439.258.916.439 1.326.748.909.686 1.747 1.484 2.512 2.342.764.857 1.455 1.773 2.072 2.688.976 1.446 1.616 2.756 2.215 3.977.522-.849.902-1.793.902-2.867v-17.05c0-1.034-.353-1.949-.84-2.777"/><path d="m-32.21 9.607c1.28-1.28 2.287-2.561 3.133-3.762.846-1.2 1.532-2.319 2.172-3.279.64-.96 1.235-1.762 1.898-2.322.34-.288.793-.301 1.186-.451h-16.775c.392.15.845.164 1.186.451.663.56 1.258 1.362 1.898 2.322.64.96 1.326 2.079 2.172 3.279.846 1.2 1.851 2.481 3.131 3.762"/></g><path d="m-36.13 13.05c.195.088.36.24.561.316.07.027.152.016.223.041-.305-.11-.512-.235-.783-.357" fill="#fecd38"/><path d="m-45.46 2.426c-.552.866-.953 1.836-.953 2.943v17.05c0 1.147.426 2.149 1.016 3.033.607-1.251 1.29-2.636 2.307-4.143.617-.914 1.308-1.83 2.072-2.688.764-.857 1.603-1.656 2.512-2.342.909-.686 1.887-1.258 2.938-1.658 1.05-.4 2.171-.629 3.359-.629-.853.06-1.869-.136-2.809-.438-.132-.042-.2-.104-.328-.15-.07-.025-.153-.015-.223-.041-.2-.076-.365-.228-.561-.316-.427-.193-.948-.373-1.232-.563.062.007.118-.034.18-.031-.438-.257-.915-.437-1.324-.746-.909-.686-1.747-1.486-2.512-2.344-.764-.857-1.455-1.773-2.072-2.688-1.044-1.547-1.757-2.984-2.369-4.254" fill="#4f4f4f"/><path d="m-45.46 2.426c.612 1.27 1.325 2.707 2.369 4.254.617.914 1.308 1.83 2.072 2.688.764.857 1.603 1.658 2.512 2.344.41.309.886.489 1.324.746.604.028 1.202-.068 1.754-.301.609-.257 1.17-.626 1.646-1 .954-.756 1.572-1.545 1.572-1.545-1.28-1.28-2.285-2.561-3.131-3.762-.846-1.2-1.532-2.319-2.172-3.279-.64-.96-1.235-1.762-1.898-2.322-.34-.288-.793-.301-1.186-.451h-.24c-1.982 0-3.635 1.083-4.623 2.633" fill="#568cbf"/><path d="m-23.826-.207c-.392.15-.845.164-1.186.451-.663.56-1.258 1.362-1.898 2.322-.64.96-1.326 2.079-2.172 3.279-.846 1.2-1.853 2.481-3.133 3.762 0 0-.619.789-1.572 1.545-.477.378-1.038.747-1.646 1-.609.257-1.264.403-1.934.332.542.361 1.404.768 2.344 1.07.94.302 1.955.498 2.809.438 1.189 0 2.309-.229 3.359-.629 1.05-.4 2.031-.97 2.939-1.656.909-.686 1.747-1.486 2.512-2.344.764-.857 1.455-1.773 2.072-2.688 1-1.487 1.673-2.847 2.277-4.088-.967-1.646-2.68-2.799-4.734-2.799z" fill="#fff"/></g>

   xmlns:dc="http://purl.org/dc/elements/1.1/"
   xmlns:cc="http://creativecommons.org/ns#"
   xmlns:rdf="http://www.w3.org/1999/02/22-rdf-syntax-ns#"
   xmlns:svg="http://www.w3.org/2000/svg"
   xmlns="http://www.w3.org/2000/svg"
   xmlns:sodipodi="http://sodipodi.sourceforge.net/DTD/sodipodi-0.dtd"
   xmlns:inkscape="http://www.inkscape.org/namespaces/inkscape"
   height="32"
   width="32"
   version="1"
   id="svg8"
   sodipodi:docname="star-mime-2.svg"
   inkscape:version="0.92.1 r"&gt;
  <g transform="translate(152.47 194.05)"/></svg>