<svg xmlns="http://www.w3.org/2000/svg" viewBox="0 0 32 32"><defs><linearGradient gradientTransform="matrix(-2.65552 0 0 2.58531 193.77-277.73)" id="0" x1="67.894" y1="108.69" x2="67.854" y2="113.11" gradientUnits="userSpaceOnUse"><stop stop-color="#f9f9f9"/><stop offset="1" stop-color="#999"/></linearGradient></defs><rect width="28.2" height="28.2" x="1.898" y="1.898" fill="#e6e6e6" fill-rule="evenodd" rx="5.575"/><g transform="matrix(.89932 0 0 .89932 1.191 1.198)" stroke-width="1.112"><path d="m16.939 5.03c2.47 5.472 13.397 18.952-13.155 16.896 18.983 8.317 33.835 1.198 13.155-16.896" fill="#f27423"/><g fill="#1d4a6c"><path d="m22.651 10.803c1.864-.06 4.02-.004 6.5.188-3.136-1.374-6.135-2.287-8.904-2.839.033.034.073.07.106.104.511.522.99 1.033 1.436 1.533.309.346.582.679.861 1.013"/><path d="m14.966 7.57c-8.645-.049-12.56 5.107-4.737 14.508.708.851 1.498 1.731 2.404 2.65.998 1.013 2.112 2.065 3.363 3.159-.357-.792-.895-1.776-1.467-2.831-.542-1-1.102-2.065-1.594-3.177-2.065-4.669-2.637-9.78 7.01-10.876-.114-.257-.219-.517-.34-.771-.403-.843-.837-1.638-1.253-2.406-1.191-.165-2.324-.249-3.386-.255"/></g><path d="m18.352 7.825c.417.768.85 1.563 1.253 2.406.121.254.227.514.34.771.831-.094 1.717-.168 2.705-.199-.279-.335-.552-.668-.861-1.013-.447-.5-.925-1.01-1.436-1.533-.033-.034-.073-.07-.106-.104-.646-.129-1.279-.242-1.895-.328" fill="#f27423"/></g>

   xmlns:dc="http://purl.org/dc/elements/1.1/"
   xmlns:cc="http://creativecommons.org/ns#"
   xmlns:rdf="http://www.w3.org/1999/02/22-rdf-syntax-ns#"
   xmlns:svg="http://www.w3.org/2000/svg"
   xmlns="http://www.w3.org/2000/svg"
   xmlns:xlink="http://www.w3.org/1999/xlink"
   xmlns:sodipodi="http://sodipodi.sourceforge.net/DTD/sodipodi-0.dtd"
   xmlns:inkscape="http://www.inkscape.org/namespaces/inkscape"
   version="1"
   width="32"
   height="32"
   id="svg12"
   sodipodi:docname="snow-top-3.svg"
   inkscape:version="0.92.1 r"&gt;
  <path d="m24.627.009c8.36-.339 9.455 9.523 4.064 9.505-.686.003-1.62-.197-3-1.471-14.665-10.216-14.549 2.967-17.708.875-1.727-1.822-1.743 4.653-4.139 5.127-2.122.613-3.699-1.385-3.824-4.503-.366-8.627 4.086-9.427 7.187-9.524 5.974.133 11.562-.045 17.419-.01" fill="url(#0)"/></svg>