<svg xmlns="http://www.w3.org/2000/svg" xmlns:xlink="http://www.w3.org/1999/xlink" viewBox="0 0 32 32"><defs><linearGradient gradientTransform="matrix(-2.54182 0 0 2.58531 185.47-277.37)" id="2" x1="67.894" y1="108.69" x2="67.854" y2="113.11" gradientUnits="userSpaceOnUse"><stop stop-color="#f9f9f9"/><stop offset="1" stop-color="#999"/></linearGradient></defs><rect width="28.2" height="28.2" x="1.898" y="1.898" fill="#4f4f4f" fill-rule="evenodd" rx="5.575" id="0"/><g transform="translate(41.29-.164)"><rect x="-35.29" y="9.664" width="20" height="5" ry="1.25" rx="1.333" fill="#fff" id="3"/><rect x="-35.29" y="17.664" width="20" height="5" ry="1.25" rx="1.333" fill="#fff" id="4"/><circle r="1.5" cx="-32.787" cy="12.164" fill="#4fa0ff"/><circle r="1.5" cx="-32.787" cy="20.16" fill="#ff4f4f"/><circle r="1.5" cx="-27.787" cy="12.164" fill="#4fa0ff"/><circle r="1.5" cx="-27.787" cy="20.16" fill="#ff4f4f"/><circle r="1.5" cx="-22.787" cy="12.164" fill="#4fa0ff"/><circle r="1.5" cx="-22.787" cy="20.16" fill="#ff4f4f"/></g><use xlink:href="#0"/><g transform="translate(41.29-.164)"><use xlink:href="#3"/><use xlink:href="#4"/><circle cy="12.164" cx="-32.787" r="1.5" fill="#4fa0ff"/><circle cy="20.16" cx="-32.787" r="1.5" fill="#ff4f4f"/><circle cy="12.164" cx="-27.787" r="1.5" fill="#4fa0ff"/><circle cy="20.16" cx="-27.787" r="1.5" fill="#ff4f4f"/><circle cy="12.164" cx="-22.787" r="1.5" fill="#4fa0ff"/><circle cy="20.16" cx="-22.787" r="1.5" fill="#ff4f4f"/></g>

   xmlns:dc="http://purl.org/dc/elements/1.1/"
   xmlns:cc="http://creativecommons.org/ns#"
   xmlns:rdf="http://www.w3.org/1999/02/22-rdf-syntax-ns#"
   xmlns:svg="http://www.w3.org/2000/svg"
   xmlns="http://www.w3.org/2000/svg"
   xmlns:xlink="http://www.w3.org/1999/xlink"
   xmlns:sodipodi="http://sodipodi.sourceforge.net/DTD/sodipodi-0.dtd"
   xmlns:inkscape="http://www.inkscape.org/namespaces/inkscape"
   height="32"
   width="32"
   version="1"
   id="svg8"
   sodipodi:docname="snow-top-3.svg"
   inkscape:version="0.92.1 r"&gt;
  <path fill="#00000f" fill-opacity="0" d="m0 0h32v32h-32z" id="1"/><path d="m7.354 6.111c-2.995 2.684-1.381 7.817-3.674 8.291-2.031.613-3.541-1.385-3.66-4.503-.35-8.627 3.911-9.427 6.879-9.524 28.342-2.047 1.762 4.92.455 5.736" fill="url(#2)"/><use xlink:href="#1"/></svg>