<svg xmlns="http://www.w3.org/2000/svg" viewBox="0 0 32 32"><defs><linearGradient gradientTransform="matrix(2.54182 0 0 2.58531-153.47-277.37)" id="1" x1="67.894" y1="108.69" x2="67.854" y2="113.11" gradientUnits="userSpaceOnUse"><stop stop-color="#f9f9f9"/><stop offset="1" stop-color="#999"/></linearGradient><radialGradient id="0" gradientUnits="userSpaceOnUse" cx="15.888" cy="15.888" r="21.934"><stop stop-color="#56572b"/><stop offset="1" stop-color="#1a1c0e"/></radialGradient></defs><g fill-rule="evenodd"><rect width="28.2" height="28.2" x="1.786" y="1.786" fill="#56572b" rx="5.575"/><path d="m17.82 29.99c-.792-.342-1.8-.638-2.451-1.01-1.488-.849-2.633-1.769-3.533-2.729-.901-.96-1.556-1.959-2.07-2.969-.514-1.01-.885-2.031-1.213-3.03-.328-1-.614-1.981-.957-2.912-.343-.931-.744-1.812-1.303-2.613-.559-.802-1.276-1.525-2.252-2.137-.578-.363-1.473-.595-2.254-.875v12.699c0 3.089 2.486 5.576 5.574 5.576h10.459" fill="#222514"/><path d="m12.764 1.787h-5.402c-3.089 0-5.574 2.486-5.574 5.574v4.354c.781.28 1.676.512 2.254.875.976.612 1.693 1.335 2.252 2.137.559.802.96 1.682 1.303 2.613.343.931.629 1.912.957 2.912.328 1 .699 2.02 1.213 3.03.514 1.01 1.17 2.01 2.07 2.969.901.96 2.045 1.879 3.533 2.729.652.372 1.659.667 2.451 1.01h6.594c3.089 0 5.576-2.488 5.576-5.576v-3.852c-.657-.254-1.462-.449-1.967-.766-.976-.612-1.693-1.333-2.252-2.135-.559-.802-.96-1.682-1.303-2.613-.343-.931-.629-1.912-.957-2.912-.328-1-.699-2.02-1.213-3.03-.514-1.01-1.172-2.01-2.072-2.969-.901-.96-2.045-1.879-3.533-2.729-1.045-.596-2.511-1.104-3.93-1.621" fill="url(#0)"/><path d="m12.764 1.787c1.419.517 2.885 1.025 3.93 1.621 1.488.849 2.633 1.769 3.533 2.729.901.96 1.558 1.959 2.072 2.969.514 1.01.885 2.031 1.213 3.03.328 1 .614 1.981.957 2.912.343.931.744 1.812 1.303 2.613.559.802 1.276 1.523 2.252 2.135.505.317 1.31.512 1.967.766v-13.201c0-3.089-2.488-5.574-5.576-5.574h-11.65" fill="#56572b"/></g><g fill="#fff"><path d="m18.469 19.672c.118-.107.09-.313-.075-.547-.144-.205-.145-.208-.249-.999-.099-.76-.11-.807-.254-1.08-.098-.187-.201-.323-.296-.394-.178-.131-.266-.363-.192-.502.042-.078.027-.111-.157-.345-.112-.142-.225-.28-.25-.307-.026-.027-.101-.125-.168-.218-.086-.12-.141-.164-.187-.149-.052.016-.068-.008-.082-.123-.009-.079-.03-.173-.046-.21-.023-.054-.01-.066.068-.066.133 0 .176-.098.176-.395v-.249h.294c.162 0 .352-.017.424-.037.17-.049.336-.209.423-.408.073-.169.144-.201.226-.102.03.036.095.054.166.047.105-.01.118-.026.129-.154.006-.078.024-.142.039-.142.015 0 .104.183.198.407.163.388.176.407.279.4.059-.004.117-.017.128-.028.011-.011-.045-.196-.125-.409-.08-.214-.152-.407-.16-.429-.008-.023.061-.072.152-.109.127-.052.174-.096.201-.186l.035-.118.436-.023c.24-.013.44-.026.445-.028.005-.003.009-.029.009-.059 0-.034-.047-.059-.123-.066-.122-.012-.123-.015-.134-.226-.001-.075-.131-.07-.197-.105 0 .105-.009.111-.152.111-.109 0-.152-.016-.152-.057 0-.063-.062-.078-.082-.019-.007.021-.094.048-.193.062l-.18.025v-.115c0-.063-.023-.124-.052-.135-.06-.023-.137.041-.137.114 0 .037-.093.049-.379.049h-.379v-.114c0-.105-.011-.114-.133-.114-.088 0-.133.018-.133.053 0 .064-.082.099-.229.099-.07 0-.124.027-.15.076-.053.099-.287.111-.249.012.231-.601-.099-1.168-.671-1.155-.367.008-.595.324-.595.825 0 .268-.001.271-.121.32-.401.166-.688.802-.673 1.491.005.219-.017.447-.059.628-.045.191-.069.471-.075.853-.008.52-.02.609-.141 1.042-.111.396-.186.738-.279 1.272-.008.043-.108.143-.224.223-.228.157-.382.332-.503.571l-.077.152.138.36c.172.448.169.444.334.489.102.028.169.024.264-.016l.128-.053v-.286-.286h.152c.331 0 .583-.379.91-1.372.294-.89.383-1.13.42-1.13.019 0 .034.017.034.039 0 .021.068.147.151.279.175.277.468.567.767.758.187.12.211.151.235.297.014.09.095.368.178.618.084.25.176.588.205.75.068.379.146.487.444.608.278.114.432.125.528.038m-1.507-6.466c.014-.089.053-.182.088-.208.129-.098.655-.03.655.085 0 .054-.116.094-.272.095-.063 0-.13.037-.176.095-.052.066-.112.095-.197.095h-.123m-9.837 4.612c.342-.168.387-.259.402-.813l.013-.464h-.574-.574l.012.341.012.341h-1.166-1.166v-.985-.985h1.166 1.166l-.012.328-.012.328.259-.024c.329-.03.709-.213.839-.405.073-.108.086-.163.068-.299-.034-.252-.147-.403-.394-.524l-.216-.106h-1.649-1.649l-.199.09c-.264.119-.452.33-.483.542-.013.09-.019.625-.012 1.187.014 1.15.018 1.172.307 1.372.273.189.376.199 2.074.19l1.573-.008zm4.855.085c.219-.056.449-.22.528-.378.052-.104.066-.23.066-.597 0-.551-.041-.679-.262-.826-.277-.183-.473-.205-1.889-.205h-1.298v-.322-.322h1.725c1.708 0 1.725-.001 1.725-.077 0-.118-.094-.312-.194-.401-.05-.044-.175-.112-.28-.152-.175-.066-.316-.071-1.838-.071h-1.649l-.208.102c-.243.12-.4.329-.439.587-.041.275 0 .812.074.952.083.158.354.332.598.384.112.024.715.04 1.493.04h1.306v.303.303h-1.748c-1.578 0-1.745.006-1.725.06.013.033.023.084.023.112 0 .155.373.436.672.507.21.049 3.125.05 3.319.001m11.416-.092c.385-.192.398-.23.398-1.143v-.771h-1.478-1.478v.12c0 .171.153.35.407.474.206.101.251.108.815.121l.597.013v.299.299h-1.156-1.156v-.985-.985h1.73 1.73l-.021-.156c-.026-.196-.201-.386-.441-.478-.156-.06-.337-.067-1.804-.067h-1.631l-.246.122c-.165.082-.277.168-.34.262-.095.141-.095.141-.106 1.212-.007.662.003 1.127.028 1.218.071.262.299.449.666.543.063.016.822.026 1.687.023l1.573-.007zm4.946.035c.094-.043.226-.142.294-.219l.123-.14v-1.214c0-.823-.014-1.241-.043-1.297-.092-.179-.243-.294-.481-.368-.224-.069-.356-.075-1.748-.075-1.614 0-1.736.012-2.01.199-.07.047-.162.145-.205.218-.074.126-.078.191-.078 1.308 0 1.161.001 1.176.086 1.296.047.066.147.158.221.204.29.18.351.185 2.062.176 1.544-.008 1.618-.011 1.781-.087m-3.03-1.608v-.985h1.166 1.166l-.011.986-.011.986h-1.155-1.155"/><path d="m16.22 9.894c-2.702 0-4.967 1.895-5.545 4.424h.816c.559-2.098 2.452-3.646 4.729-3.646 2.277 0 4.168 1.548 4.727 3.646h.816c-.578-2.529-2.841-4.424-5.543-4.424m-4.92 8.537c.986 1.696 2.82 2.842 4.92 2.842 2.1 0 3.932-1.145 4.918-2.842h-.928c-.889 1.246-2.338 2.064-3.99 2.064-1.652 0-3.102-.818-3.992-2.064z" shape-rendering="auto" mix-blend-mode="normal" isolation="auto" color-interpolation-filters="linearRGB" white-space="normal" solid-opacity="1" image-rendering="auto" solid-color="#000000" color="#000" color-rendering="auto" vector-effect="none" shape-padding="0" color-interpolation="sRGB"/></g>

   xmlns:dc="http://purl.org/dc/elements/1.1/"
   xmlns:cc="http://creativecommons.org/ns#"
   xmlns:rdf="http://www.w3.org/1999/02/22-rdf-syntax-ns#"
   xmlns:svg="http://www.w3.org/2000/svg"
   xmlns="http://www.w3.org/2000/svg"
   xmlns:xlink="http://www.w3.org/1999/xlink"
   xmlns:sodipodi="http://sodipodi.sourceforge.net/DTD/sodipodi-0.dtd"
   xmlns:inkscape="http://www.inkscape.org/namespaces/inkscape"
   height="32"
   width="32"
   version="1"
   id="svg8"
   sodipodi:docname="snow-top-2.svg"
   inkscape:version="0.92.1 r"&gt;
  <path d="m24.646 6.111c2.995 2.684 1.381 7.817 3.674 8.291 2.031.613 3.541-1.385 3.66-4.503.35-8.627-3.911-9.427-6.879-9.524-28.342-2.047-1.762 4.92-.455 5.736" fill="url(#1)"/></svg>