<svg xmlns="http://www.w3.org/2000/svg" viewBox="0 0 32 32"><rect width="28.2" height="28.2" x="1.898" y="1.898" fill="#8e8e8e" fill-rule="evenodd" rx="5.575"/><rect width="20.896" height="15.642" x="5.552" y="8.179" rx="3.363" fill="#474747"/><rect width="19.02" height="13.662" x="6.491" y="9.169" ry="2.445" rx="2.547" fill="#232323"/><path d="m16 12.13c-1.144 0-2.065 1.01-2.065 2.247v.85h-.516c-.286 0-.516.468-.516.774v3.319c0 .306.23.553.517.553h5.163c.286 0 .516-.247.516-.553v-3.319c0-.306-.23-.774-.516-.774h-.516v-.85c.001-1.239-.921-2.247-2.065-2.247m-.001 1.549c.572 0 .774.051.774.664v.885h-1.549v-.885c0-.613.202-.664.774-.664" fill="#8e8e8e"/>

   xmlns:dc="http://purl.org/dc/elements/1.1/"
   xmlns:cc="http://creativecommons.org/ns#"
   xmlns:rdf="http://www.w3.org/1999/02/22-rdf-syntax-ns#"
   xmlns:svg="http://www.w3.org/2000/svg"
   xmlns="http://www.w3.org/2000/svg"
   xmlns:sodipodi="http://sodipodi.sourceforge.net/DTD/sodipodi-0.dtd"
   xmlns:inkscape="http://www.inkscape.org/namespaces/inkscape"
   height="32"
   width="32"
   version="1"
   id="svg8"
   sodipodi:docname="star-mime-2.svg"
   inkscape:version="0.92.1 r"&gt;
  <g transform="translate(152.47 194.05)" fill="#fff"><path d="m-125.38-193.25l-.077 3.548 3.072 1.831-3.548-.077-3.135 6.791 1.38-7.268-3.072-1.831 3.548.077z"/><path d="m-125.41-183.04l.042-1.955-1.692-1.01 1.955.042 1.727-3.741-.76 4 1.692 1.01-1.955-.042z"/></g></svg>