<svg xmlns="http://www.w3.org/2000/svg" viewBox="0 0 32 32"><defs><linearGradient gradientTransform="matrix(2.59244 0 0 2.58531-157.93-277.73)" id="1" x1="67.894" y1="108.69" x2="67.854" y2="113.11" gradientUnits="userSpaceOnUse"><stop stop-color="#f9f9f9"/><stop offset="1" stop-color="#999"/></linearGradient><radialGradient id="0" gradientUnits="userSpaceOnUse" cx="-61.844" cy="14.184" r="21.934"><stop stop-color="#56572b"/><stop offset="1" stop-color="#1a1c0e"/></radialGradient></defs><g transform="translate(77.84 1.816)"><g fill-rule="evenodd"><rect y=".082" x="-75.946" height="28.2" width="28.2" fill="#56572b" rx="5.575"/><path d="m-59.912 28.29c-.792-.342-1.8-.638-2.451-1.01-1.488-.849-2.633-1.769-3.533-2.729-.901-.96-1.556-1.959-2.07-2.969-.514-1.01-.885-2.031-1.213-3.03-.328-1-.614-1.981-.957-2.912-.343-.931-.744-1.812-1.303-2.613-.559-.802-1.276-1.525-2.252-2.137-.578-.363-1.473-.595-2.254-.875v12.699c0 3.089 2.486 5.576 5.574 5.576z" fill="#222514"/><path d="m-64.969.083h-5.402c-3.089 0-5.574 2.486-5.574 5.574v4.354c.781.28 1.676.512 2.254.875.976.612 1.693 1.335 2.252 2.137.559.802.96 1.682 1.303 2.613.343.931.629 1.912.957 2.912.328 1 .699 2.02 1.213 3.03.514 1.01 1.17 2.01 2.07 2.969.901.96 2.045 1.879 3.533 2.729.652.372 1.659.667 2.451 1.01h6.594c3.089 0 5.576-2.488 5.576-5.576v-3.852c-.657-.254-1.462-.449-1.967-.766-.976-.612-1.693-1.333-2.252-2.135-.559-.802-.96-1.682-1.303-2.613-.343-.931-.629-1.912-.957-2.912-.328-1-.699-2.02-1.213-3.03-.514-1.01-1.172-2.01-2.072-2.969-.901-.96-2.045-1.879-3.533-2.729-1.045-.596-2.511-1.104-3.93-1.621" fill="url(#0)"/><path d="m-64.969.083c1.419.517 2.885 1.025 3.93 1.621 1.488.849 2.633 1.769 3.533 2.729.901.96 1.558 1.959 2.072 2.969.514 1.01.885 2.031 1.213 3.03.328 1 .614 1.981.957 2.912.343.931.744 1.812 1.303 2.613.559.802 1.276 1.523 2.252 2.135.505.317 1.31.512 1.967.766v-13.201c0-3.089-2.488-5.574-5.576-5.574z" fill="#56572b"/></g><g transform="translate(-.454.681)" fill="#fff"><path d="m-62.11 22.344c.411-.202.465-.311.483-.976l.015-.558h-.69-.69l.015.41.015.41h-1.4-1.4v-1.183-1.183h1.4 1.4l-.015.394-.015.394.311-.028c.395-.036.851-.256 1.01-.486.088-.13.103-.196.081-.359-.041-.302-.177-.484-.473-.629l-.259-.127h-1.98-1.98l-.239.108c-.317.143-.543.396-.581.651-.016.108-.023.75-.015 1.426.016 1.381.022 1.407.368 1.647.328.227.451.239 2.491.229l1.889-.009zm5.83.102c.263-.067.539-.264.635-.453.063-.125.08-.276.08-.717 0-.662-.049-.815-.315-.991-.333-.22-.569-.246-2.268-.247h-1.559v-.387-.387h2.071c2.052 0 2.071-.001 2.071-.092 0-.142-.113-.375-.233-.482-.06-.053-.211-.135-.336-.182-.21-.079-.379-.086-2.208-.086h-1.98l-.25.123c-.292.144-.481.396-.527.705-.05.331 0 .976.089 1.144.1.189.425.398.718.461.134.029.859.048 1.794.048h1.568v.364.364h-2.099c-1.895 0-2.096.007-2.071.072.015.04.028.1.028.135 0 .186.447.524.807.608.252.059 3.753.06 3.986.001"/><path d="m-61.21 5.376c-4.094 0-7.422 3.328-7.422 7.422 0 2.048.833 3.904 2.178 5.248h1.215c-1.574-1.21-2.592-3.106-2.592-5.248 0-3.661 2.96-6.621 6.621-6.621 3.661 0 6.621 2.96 6.621 6.621 0 2.142-1.018 4.04-2.592 5.248h1.215c1.345-1.344 2.178-3.2 2.178-5.248 0-4.094-3.328-7.422-7.422-7.422" shape-rendering="auto" mix-blend-mode="normal" isolation="auto" color-interpolation-filters="linearRGB" white-space="normal" solid-opacity="1" image-rendering="auto" solid-color="#000000" color="#000" color-rendering="auto" vector-effect="none" shape-padding="0" color-interpolation="sRGB"/><path d="m-59.13 17.603c.137-.124.104-.363-.088-.635-.168-.237-.168-.241-.289-1.161-.115-.882-.128-.937-.295-1.254-.114-.217-.233-.376-.344-.457-.206-.152-.309-.422-.223-.583.049-.091.031-.129-.183-.4-.13-.165-.261-.325-.29-.356-.03-.031-.118-.145-.195-.254-.1-.139-.164-.19-.217-.173-.06.019-.079-.01-.095-.143-.011-.092-.035-.201-.053-.244-.027-.062-.012-.077.079-.077.154 0 .204-.113.204-.459v-.289h.341c.188 0 .409-.019.492-.043.198-.057.39-.242.491-.474.085-.196.167-.233.262-.119.034.042.11.063.192.055.122-.012.137-.03.149-.178.008-.091.028-.165.045-.165.017 0 .121.213.23.473.189.451.205.473.323.464.069-.005.136-.02.149-.033.013-.013-.052-.227-.145-.475-.093-.248-.176-.472-.185-.499-.009-.026.07-.083.176-.127.147-.061.202-.112.233-.216l.04-.137.506-.027c.278-.015.511-.03.517-.033.006-.003.011-.034.011-.069 0-.039-.054-.068-.143-.077-.141-.014-.143-.017-.156-.263-.001-.087-.153-.082-.229-.122 0 .122-.011.129-.176.129-.127 0-.176-.018-.176-.066 0-.073-.072-.091-.095-.023-.008.024-.109.056-.224.072l-.209.029v-.133c0-.073-.027-.144-.061-.157-.069-.027-.159.048-.159.133 0 .043-.108.057-.44.057h-.44v-.132c0-.122-.012-.132-.154-.132-.102 0-.154.021-.154.061 0 .074-.095.115-.266.115-.082 0-.144.031-.174.088-.062.115-.333.129-.289.015.268-.698-.115-1.356-.779-1.341-.426.01-.691.376-.691.958 0 .311-.002.314-.141.372-.465.193-.799.931-.782 1.732.005.254-.02.519-.069.729-.052.221-.08.547-.087.99-.009.604-.023.707-.164 1.21-.129.46-.216.857-.324 1.477-.009.05-.125.166-.26.259-.265.182-.443.385-.584.663l-.089.176.161.418c.2.52.196.515.388.568.119.033.196.028.306-.018l.148-.062v-.332-.332h.176c.385 0 .677-.44 1.057-1.593.341-1.034.445-1.312.488-1.312.022 0 .04.02.04.045 0 .025.079.17.176.323.203.322.543.658.89.88.217.139.246.175.272.345.017.104.11.427.207.718.097.29.205.682.238.871.078.44.17.565.515.706.323.132.502.145.613.044m-1.75-7.508c.016-.103.062-.212.102-.242.15-.113.76-.034.76.098 0 .062-.134.109-.316.11-.073 0-.151.043-.204.111-.06.077-.129.11-.229.11h-.142z"/></g></g>

   xmlns:dc="http://purl.org/dc/elements/1.1/"
   xmlns:cc="http://creativecommons.org/ns#"
   xmlns:rdf="http://www.w3.org/1999/02/22-rdf-syntax-ns#"
   xmlns:svg="http://www.w3.org/2000/svg"
   xmlns="http://www.w3.org/2000/svg"
   xmlns:xlink="http://www.w3.org/1999/xlink"
   xmlns:sodipodi="http://sodipodi.sourceforge.net/DTD/sodipodi-0.dtd"
   xmlns:inkscape="http://www.inkscape.org/namespaces/inkscape"
   version="1"
   width="32"
   height="32"
   id="svg12"
   sodipodi:docname="snow-top-4.svg"
   inkscape:version="0.92.1 r"&gt;
  <path d="m7.196.009c-8.161-.339-9.231 9.523-3.968 9.505.669.003 1.581-.197 2.929-1.471 3.773-4.147 9.01 4.479 14.696-1.042.61-.911 1.804-1.135 2.455-.627 1.045.677 2.87 2.991 3.88 3 2.359.513 4.095-.198 4.816-3.188.185-3.165-2.303-6.286-6.281-6.17-5.832.133-12.809-.045-18.527-.01" fill="url(#1)"/></svg>