<svg xmlns="http://www.w3.org/2000/svg" xmlns:xlink="http://www.w3.org/1999/xlink" viewBox="0 0 32 32"><defs><linearGradient gradientTransform="matrix(-2.54182 0 0 2.58531 185.47-277.37)" id="2" x1="67.894" y1="108.69" x2="67.854" y2="113.11" gradientUnits="userSpaceOnUse"><stop stop-color="#f9f9f9"/><stop offset="1" stop-color="#999"/></linearGradient><radialGradient id="1" gradientUnits="userSpaceOnUse" cx="-29.368" cy="26.383" r="21.934"><stop stop-color="#56572b"/><stop offset="1" stop-color="#1a1c0e"/></radialGradient></defs><g transform="translate(45.37-10.383)"><g fill-rule="evenodd"><rect y="12.281" x="-43.47" height="28.2" width="28.2" fill="#56572b" rx="5.575"/><path d="m-27.436 40.485c-.792-.342-1.8-.638-2.451-1.01-1.488-.849-2.633-1.769-3.533-2.729-.901-.96-1.556-1.959-2.07-2.969-.514-1.01-.885-2.031-1.213-3.03-.328-1-.614-1.981-.957-2.912-.343-.931-.744-1.812-1.303-2.613-.559-.802-1.276-1.525-2.252-2.137-.578-.363-1.473-.595-2.254-.875v12.699c0 3.089 2.486 5.576 5.574 5.576z" fill="#222514"/><path d="m-32.492 12.282h-5.402c-3.089 0-5.574 2.486-5.574 5.574v4.354c.781.28 1.676.512 2.254.875.976.612 1.693 1.335 2.252 2.137.559.802.96 1.682 1.303 2.613.343.931.629 1.912.957 2.912.328 1 .699 2.02 1.213 3.03.514 1.01 1.17 2.01 2.07 2.969.901.96 2.045 1.879 3.533 2.729.652.372 1.659.667 2.451 1.01h6.594c3.089 0 5.576-2.488 5.576-5.576v-3.852c-.657-.254-1.462-.449-1.967-.766-.976-.612-1.693-1.333-2.252-2.135-.559-.802-.96-1.682-1.303-2.613-.343-.931-.629-1.912-.957-2.912-.328-1-.699-2.02-1.213-3.03-.514-1.01-1.172-2.01-2.072-2.969-.901-.96-2.045-1.879-3.533-2.729-1.045-.596-2.511-1.104-3.93-1.621" fill="url(#1)"/><path d="m-32.492 12.282c1.419.517 2.885 1.025 3.93 1.621 1.488.849 2.633 1.769 3.533 2.729.901.96 1.558 1.959 2.072 2.969.514 1.01.885 2.031 1.213 3.03.328 1 .614 1.981.957 2.912.343.931.744 1.812 1.303 2.613.559.802 1.276 1.523 2.252 2.135.505.317 1.31.512 1.967.766v-13.201c0-3.089-2.488-5.574-5.576-5.574z" fill="#56572b"/></g><g transform="translate(-3.335 20.284)" fill="#fff"><g transform="translate(.908-17.32)"><path d="m-30.634 31.878c.342-.168.387-.259.402-.813l.013-.464h-.574-.574l.012.341.012.341h-1.166-1.166v-.985-.985h1.166 1.166l-.012.328-.012.328.259-.024c.329-.03.709-.213.839-.405.073-.108.086-.163.068-.299-.034-.252-.147-.403-.394-.524l-.216-.106h-1.649-1.649l-.199.09c-.264.119-.452.33-.483.542-.013.09-.019.625-.012 1.187.014 1.15.018 1.172.307 1.372.273.189.376.199 2.074.19l1.573-.008zm4.855.085c.219-.056.449-.22.528-.378.052-.104.066-.23.066-.597 0-.551-.041-.679-.262-.826-.277-.183-.473-.205-1.889-.205h-1.298v-.322-.322h1.725c1.708 0 1.725-.001 1.725-.077 0-.118-.094-.312-.194-.401-.05-.044-.175-.112-.28-.152-.175-.066-.316-.071-1.838-.071h-1.649l-.208.102c-.243.12-.4.329-.439.587-.041.275 0 .812.074.952.083.158.354.332.598.384.112.024.715.04 1.493.04h1.306v.303.303h-1.748c-1.578 0-1.745.006-1.725.06.013.033.023.084.023.112 0 .155.373.436.672.507.21.05 3.125.05 3.319.001"/><path d="m-19.642 31.963c.219-.056.449-.22.528-.378.052-.104.066-.23.066-.597 0-.551-.041-.679-.262-.826-.277-.183-.473-.205-1.889-.205h-1.298v-.322-.322h1.725c1.708 0 1.725-.001 1.725-.077 0-.118-.094-.312-.194-.401-.05-.044-.175-.112-.28-.152-.175-.066-.316-.071-1.838-.071h-1.649l-.208.102c-.243.12-.4.329-.439.587-.041.275 0 .812.074.952.083.158.354.332.598.384.112.024.715.04 1.493.04h1.306v.303.303h-1.748c-1.578 0-1.745.006-1.725.06.013.033.023.084.023.112 0 .155.373.436.672.507.21.05 3.125.05 3.319.001"/></g><path d="m-25.805-1.773c-4.094 0-7.422 3.328-7.422 7.422 0 2.048.833 3.904 2.178 5.248h1.215c-1.574-1.21-2.592-3.106-2.592-5.248 0-3.661 2.96-6.621 6.621-6.621 3.661 0 6.621 2.96 6.621 6.621 0 2.142-1.018 4.04-2.592 5.248h1.215c1.345-1.344 2.178-3.2 2.178-5.248 0-4.094-3.328-7.422-7.422-7.422" shape-rendering="auto" mix-blend-mode="normal" isolation="auto" color-interpolation-filters="linearRGB" white-space="normal" solid-opacity="1" image-rendering="auto" solid-color="#000000" color="#000" color-rendering="auto" vector-effect="none" shape-padding="0" color-interpolation="sRGB"/><path d="m-23.727 10.454c.137-.124.104-.363-.088-.635-.168-.237-.168-.241-.289-1.161-.115-.882-.128-.937-.295-1.254-.114-.217-.233-.376-.344-.457-.206-.152-.309-.422-.223-.583.049-.091.031-.129-.183-.4-.13-.165-.261-.325-.29-.356-.03-.031-.118-.145-.195-.254-.1-.139-.164-.19-.217-.173-.06.019-.079-.01-.095-.143-.011-.092-.035-.201-.053-.244-.027-.062-.012-.077.079-.077.154 0 .204-.113.204-.459v-.289h.341c.188 0 .409-.019.492-.043.198-.057.39-.242.491-.474.085-.196.167-.233.262-.119.034.042.11.063.192.055.122-.012.137-.03.149-.178.008-.091.028-.165.045-.165.017 0 .121.213.23.473.189.451.205.473.323.464.069-.005.136-.02.149-.033.013-.013-.052-.227-.145-.475-.093-.248-.176-.472-.185-.499-.009-.026.07-.083.176-.127.147-.061.202-.112.233-.216l.04-.137.506-.027c.278-.015.511-.03.517-.033.006-.003.011-.034.011-.069 0-.039-.054-.068-.143-.077-.141-.014-.143-.017-.156-.263-.001-.087-.153-.082-.229-.122 0 .122-.011.129-.176.129-.127 0-.176-.018-.176-.066 0-.073-.072-.091-.095-.023-.008.024-.109.056-.224.072l-.209.029v-.133c0-.073-.027-.144-.061-.157-.07-.027-.159.048-.159.133 0 .043-.108.057-.44.057h-.44v-.132c0-.122-.012-.132-.154-.132-.102 0-.154.021-.154.061 0 .074-.095.115-.266.115-.082 0-.144.031-.174.088-.062.115-.333.129-.289.015.268-.698-.115-1.356-.779-1.341-.426.01-.691.376-.691.958 0 .311-.002.314-.141.372-.465.193-.799.931-.782 1.732.005.254-.02.519-.069.729-.052.221-.08.547-.087.99-.009.604-.023.707-.164 1.21-.129.46-.216.857-.324 1.477-.009.05-.125.166-.26.259-.265.182-.443.385-.584.662l-.089.176.161.418c.2.52.196.515.388.568.119.033.196.028.306-.018l.148-.062v-.332-.332h.176c.385 0 .677-.44 1.057-1.593.341-1.034.445-1.312.488-1.312.022 0 .04.02.04.045 0 .025.079.17.176.323.203.322.543.658.89.88.217.139.246.175.272.345.017.104.11.427.207.718.097.29.205.682.238.871.078.44.17.565.515.706.323.132.502.145.613.044m-1.75-7.508c.016-.103.062-.212.102-.242.15-.113.76-.034.76.098 0 .062-.134.109-.316.11-.073 0-.151.043-.204.111-.06.077-.129.11-.229.11h-.142z"/></g></g>

   xmlns:dc="http://purl.org/dc/elements/1.1/"
   xmlns:cc="http://creativecommons.org/ns#"
   xmlns:rdf="http://www.w3.org/1999/02/22-rdf-syntax-ns#"
   xmlns:svg="http://www.w3.org/2000/svg"
   xmlns="http://www.w3.org/2000/svg"
   xmlns:xlink="http://www.w3.org/1999/xlink"
   xmlns:sodipodi="http://sodipodi.sourceforge.net/DTD/sodipodi-0.dtd"
   xmlns:inkscape="http://www.inkscape.org/namespaces/inkscape"
   height="32"
   width="32"
   version="1"
   id="svg8"
   sodipodi:docname="snow-top-3.svg"
   inkscape:version="0.92.1 r"&gt;
  <path fill="#00000f" fill-opacity="0" d="m0 0h32v32h-32z" id="0"/><path d="m7.354 6.111c-2.995 2.684-1.381 7.817-3.674 8.291-2.031.613-3.541-1.385-3.66-4.503-.35-8.627 3.911-9.427 6.879-9.524 28.342-2.047 1.762 4.92.455 5.736" fill="url(#2)"/><use xlink:href="#0"/></svg>