<svg xmlns="http://www.w3.org/2000/svg" xmlns:xlink="http://www.w3.org/1999/xlink" viewBox="0 0 32 32"><defs><linearGradient gradientTransform="matrix(-2.54182 0 0 2.58531 185.47-277.37)" id="1" x1="67.894" y1="108.69" x2="67.854" y2="113.11" gradientUnits="userSpaceOnUse"><stop stop-color="#f9f9f9"/><stop offset="1" stop-color="#999"/></linearGradient></defs><g transform="translate(38.38 2.797)"><g fill-rule="evenodd"><path d="m-8.275 17.816c-.391.357-.863.75-1.018.838-.412.235-.837.281-1.219.406-.382.125-.721.33-.963.881-.089.204-.093.516-.123.787-.03.271-.087.5-.285.533-.692.118-3.086.041-3.418.27-1.507.859-3.357 1.352-5.02 1.826-.318.091-.825 1.104-1.152 1.229-.387.147-.806.158-1.244.092-.438-.066-.894-.21-1.352-.371-.914-.323-1.834-.719-2.633-.719-1.045 0-2.491.515-3.938.852-.723.168-1.446.291-2.119.281-.673-.009-1.298-.151-1.822-.512-.458-.637-.917-1.031-1.438-1.283-.067-.033-.163-.027-.232-.055.539 2.518 2.663 4.434 5.346 4.434h17.05c3.089 0 5.576-2.488 5.576-5.576z" fill="#4d4d4d"/><path d="m-30.904-.898c-3.089 0-5.574 2.486-5.574 5.574v17.05c0 .405.147.762.229 1.143.069.028.165.022.232.055.52.252.98.646 1.438 1.283.524.361 1.149.502 1.822.512.673.009 1.396-.113 2.119-.281 1.446-.336 2.892-.852 3.938-.852.799 0 1.718.396 2.633.719.457.162.914.305 1.352.371.438.066.857.055 1.244-.092.327-.124.834-1.138 1.152-1.229 1.663-.474 3.512-.967 5.02-1.826.332-.228 2.726-.152 3.418-.27.198-.034.255-.262.285-.533.03-.271.034-.584.123-.787.241-.551.581-.756.963-.881.382-.125.807-.171 1.219-.406.154-.088.626-.481 1.018-.838v-13.14c0-3.089-2.488-5.574-5.576-5.574z" fill="#4ab1f1"/></g><path d="m-26.28 24.13c-.618-.306-.74-.81-.471-.976.328-.203.14-1.382-.431-2.707-.562-1.303-.57-1.343-.311-1.632.603-.673.572-.71-.502-.607-2.982.288-3.086.781-4.115 1.209-1.355.563-2.576.758-2.576.601 0-.067.179-.172.398-.233l.398-.112-.422-.085c-.421-.085-.42-.087.434-.65 2.514-2.554 4.812-5.62 8.102-7.348.412-.209.883-.52.984-.741.095-.21.174-1.289.174-2.031 0-1.573.254-2.411 1.205-2.696.742-.097.619-.141 1.28.27.441.274 1 1.098 1.486 1.158 1.92.238 3.712.971 4.01 1.458.054.088-.091.062-.322-.058-1.253-.648-3.887-1.09-4.817-.649-.76.361-.309.689-.04 2.216.365 2.072.108 3.726-.754 4.856-.207.272-.771.784-1.252 1.138-.481.354-1.47.808-1.574 1.01-.104.2-.314.523-.468.719-.24.306-.282.611-.295 2.186-.01 1.154.044 1.903.146 2.025.089.107.121.355.071.552-.101.402.498.999 1.097.999.189 0 .47.096.625.213.259.196.225.213-.443.217-.452.004-1.235-.11-1.619-.3m-.34-4.127c-.008-.259.033-.748.092-1.086.119-.691-.064-.82-.365-.258-.227.424-.23 1.099-.007 1.516.224.418.297.373.28-.172" fill="#4d4d4d"/></g>

   xmlns:dc="http://purl.org/dc/elements/1.1/"
   xmlns:cc="http://creativecommons.org/ns#"
   xmlns:rdf="http://www.w3.org/1999/02/22-rdf-syntax-ns#"
   xmlns:svg="http://www.w3.org/2000/svg"
   xmlns="http://www.w3.org/2000/svg"
   xmlns:xlink="http://www.w3.org/1999/xlink"
   xmlns:sodipodi="http://sodipodi.sourceforge.net/DTD/sodipodi-0.dtd"
   xmlns:inkscape="http://www.inkscape.org/namespaces/inkscape"
   height="32"
   width="32"
   version="1"
   id="svg8"
   sodipodi:docname="snow-top-3.svg"
   inkscape:version="0.92.1 r"&gt;
  <path fill="#00000f" fill-opacity="0" d="m0 0h32v32h-32z" id="0"/><path d="m7.354 6.111c-2.995 2.684-1.381 7.817-3.674 8.291-2.031.613-3.541-1.385-3.66-4.503-.35-8.627 3.911-9.427 6.879-9.524 28.342-2.047 1.762 4.92.455 5.736" fill="url(#1)"/><use xlink:href="#0"/></svg>