<svg xmlns="http://www.w3.org/2000/svg" viewBox="0 0 32 32"><defs><linearGradient gradientTransform="matrix(2.54182 0 0 2.58531-153.47-277.37)" id="0" x1="67.894" y1="108.69" x2="67.854" y2="113.11" gradientUnits="userSpaceOnUse"><stop stop-color="#f9f9f9"/><stop offset="1" stop-color="#999"/></linearGradient></defs><rect width="28.2" height="28.2" x="1.898" y="1.898" fill="#fecd38" fill-rule="evenodd" rx="5.575"/><g transform="translate(45.894 3.369)"><path d="m-29.938 2.421c-3.912 0-8.342 3.255-9.305 6.857-.453 2.712.075 4.625 1.443 5.939.037.384.11.767.078 1.151-.001.011-.003.023-.004.034-.007.072-.018.144-.035.216-.007.029-.018.059-.027.089-.016.055-.032.11-.055.165-.019.046-.047.091-.072.137-.023.043-.042.085-.07.128-.058.087-.125.174-.206.261-.319.34-.598.553-.838.691-.718.415-1.077.16-1.077.67 0 .553 1.263 1.555 2.422 1.182.178-.057.354-.147.522-.276.084-.065.167-.139.246-.224.146-.156.273-.302.386-.439.111-.134.206-.258.291-.375.019.171.008.388-.075.718-.33 1.315-2.077 1.204-1.24 2.138.648.723 2.586.751 3.657-.188-.427.969-1.077 1.55.172 1.55 1.914 0 3.829-1.361 3.829-3.403 0 2.042 1.914 3.403 3.829 3.403 1.248 0 .599-.581.172-1.55 1.072.94 3.01.912 3.657.188.837-.933-.91-.823-1.24-2.138-.083-.331-.094-.548-.075-.719.173.238.388.507.677.815 1.276 1.361 3.191 0 3.191-.681 0-.681-.638 0-1.914-1.361-.712-.76-.44-1.52-.385-2.279 1.477-1.335 1.959-3.235 1.349-5.839-1.359-3.861-5.393-6.857-9.305-6.857" fill="#fff"/><ellipse cx="-33.541" cy="8.62" ry="1.823" rx="1.459" fill="#fecd38"/><g fill="#3f3f3f"><ellipse cx="-32.812" cy="8.62" ry="1.094" rx=".729"/><ellipse cx="-25.555" cy="8.547" ry="1.021" rx=".766"/></g><ellipse cx="-26.25" cy="8.62" ry="1.823" rx="1.459" fill="#fecd38"/><ellipse cx="-25.519" cy="8.62" ry="1.094" rx=".729" fill="#3f3f3f"/></g>

   xmlns:dc="http://purl.org/dc/elements/1.1/"
   xmlns:cc="http://creativecommons.org/ns#"
   xmlns:rdf="http://www.w3.org/1999/02/22-rdf-syntax-ns#"
   xmlns:svg="http://www.w3.org/2000/svg"
   xmlns="http://www.w3.org/2000/svg"
   xmlns:xlink="http://www.w3.org/1999/xlink"
   xmlns:sodipodi="http://sodipodi.sourceforge.net/DTD/sodipodi-0.dtd"
   xmlns:inkscape="http://www.inkscape.org/namespaces/inkscape"
   height="32"
   width="32"
   version="1"
   id="svg8"
   sodipodi:docname="snow-top-2.svg"
   inkscape:version="0.92.1 r"&gt;
  <path d="m24.646 6.111c2.995 2.684 1.381 7.817 3.674 8.291 2.031.613 3.541-1.385 3.66-4.503.35-8.627-3.911-9.427-6.879-9.524-28.342-2.047-1.762 4.92-.455 5.736" fill="url(#0)"/></svg>