<svg xmlns="http://www.w3.org/2000/svg" viewBox="0 0 32 32"><defs><linearGradient gradientTransform="matrix(2.62891 0 0 2.71269-160.16-291.42)" id="0" x1="67.894" y1="108.69" x2="67.854" y2="113.11" gradientUnits="userSpaceOnUse"><stop stop-color="#f9f9f9"/><stop offset="1" stop-color="#999"/></linearGradient></defs><g fill-rule="evenodd"><path d="m30.1 11.04l-9.941 1.842 9.904 11.824c.002-.065.037-.118.037-.184v-13.482" fill="#e3bf20"/><path d="m29.1 27.512l-8.285-9.516-4.578 12.11h8.291c1.962 0 3.589-1.064 4.572-2.59" fill="#28a226"/><path d="m13.449 30.1l3.205-8.992-14.756 2.447v.971c0 3.089 2.486 5.574 5.574 5.574h5.977" fill="#2977d1"/><path d="m1.898 20.955l9.941-1.842-9.904-11.824c-.002.065-.037.118-.037.184v13.482" fill="#c029c0"/><path d="m2.9 4.488c-.532.826-.929 1.748-.965 2.801l9.904 11.824-9.941 1.842v2.602l14.756-2.447-3.205 8.992h2.787l4.578-12.11 8.285 9.516c.532-.826.929-1.748.965-2.801l-9.904-11.824 9.941-1.842v-2.602l-14.756 2.449 3.203-8.994h-2.785l-4.578 12.11-8.285-9.516" fill="#343434"/><path d="m2.9 4.488l8.285 9.516 4.578-12.11h-8.291c-1.962 0-3.589 1.064-4.572 2.59" fill="#c01728"/><path d="m18.549 1.898l-3.203 8.994 14.756-2.449v-.971c0-3.089-2.486-5.574-5.574-5.574h-5.979" fill="#e9721a"/></g>

   xmlns:dc="http://purl.org/dc/elements/1.1/"
   xmlns:cc="http://creativecommons.org/ns#"
   xmlns:rdf="http://www.w3.org/1999/02/22-rdf-syntax-ns#"
   xmlns:svg="http://www.w3.org/2000/svg"
   xmlns="http://www.w3.org/2000/svg"
   xmlns:xlink="http://www.w3.org/1999/xlink"
   xmlns:sodipodi="http://sodipodi.sourceforge.net/DTD/sodipodi-0.dtd"
   xmlns:inkscape="http://www.inkscape.org/namespaces/inkscape"
   version="1"
   width="32"
   height="32"
   id="svg12"
   sodipodi:docname="snow-top-1.svg"
   inkscape:version="0.92.1 r"&gt;
  <path d="m7.288.009c-8.276-.356-9.36 9.992-4.02 9.973.679.003 1.604-.207 2.97-1.543 7.256-10.531 14.706 3.573 17.53.919 1.71-1.912 3.496-.418 4.448.115 2.1.643 3.662.041 3.785-3.231.188-3.321-1.889-6.344-5.923-6.223-5.914.14-12.989-.047-18.787-.01" fill="url(#0)"/><path fill="#f00" fill-opacity="0" d="m0 0h32v32h-32z"/></svg>