<svg xmlns="http://www.w3.org/2000/svg" viewBox="0 0 32 32"><defs><linearGradient gradientTransform="matrix(2.54182 0 0 2.58531-153.47-277.37)" id="0" x1="67.894" y1="108.69" x2="67.854" y2="113.11" gradientUnits="userSpaceOnUse"><stop stop-color="#f9f9f9"/><stop offset="1" stop-color="#999"/></linearGradient></defs><rect width="28.2" height="28.2" x="1.898" y="1.898" fill="#8e8e8e" fill-rule="evenodd" rx="5.575"/><g transform="translate(46.639-2.837)"><g fill-rule="evenodd"><g fill="#8e8e8e"><path d="m-16.537 21.91v-11.6c0-3.089-2.486-5.576-5.574-5.576h-8.365c.927.008 1.805.111 2.623.318.848.215 1.64.53 2.379.932.739.401 1.425.888 2.063 1.447.637.559 1.227 1.189 1.77 1.877 1.086 1.376 1.99 2.98 2.744 4.699.754 1.719 1.357 3.553 1.84 5.387.225.856.346 1.671.521 2.516"/><path d="m-30.668 4.734h-8.496c-3.089 0-5.576 2.488-5.576 5.576v12.246c.206-1.053.371-2.086.654-3.162.483-1.834 1.086-3.667 1.84-5.387.754-1.719 1.66-3.324 2.746-4.699.543-.688 1.13-1.318 1.768-1.877.637-.559 1.323-1.046 2.063-1.447.739-.401 1.531-.717 2.379-.932.819-.207 1.696-.311 2.623-.318"/></g><path d="m-30.668 4.734c-.927.008-1.805.111-2.623.318-.848.215-1.64.53-2.379.932-.739.401-1.425.888-2.063 1.447-.637.559-1.225 1.189-1.768 1.877-1.086 1.376-1.992 2.98-2.746 4.699-.754 1.719-1.357 3.553-1.84 5.387-.283 1.076-.448 2.109-.654 3.162v4.807c0 3.089 2.488 5.576 5.576 5.576h17.05c3.089 0 5.574-2.488 5.574-5.576v-5.453c-.176-.845-.296-1.659-.521-2.516-.483-1.834-1.086-3.667-1.84-5.387-.754-1.719-1.658-3.324-2.744-4.699-.543-.688-1.132-1.318-1.77-1.877-.637-.559-1.323-1.046-2.063-1.447-.739-.401-1.531-.717-2.379-.932-.819-.207-1.696-.311-2.623-.318z" fill="#b49"/></g><path d="m-21.747 20.17c0 4.874-3.951 8.825-8.825 8.825-4.874 0-8.825-3.951-8.825-8.825 0-3.269 1.777-6.123 4.419-7.648 1.297-.749 2.703 1.284 4.308 1.284 1.664 0 3.318-2 4.646-1.201 2.563 1.544 4.277 4.354 4.277 7.565" fill="#69e27d"/><circle r="5.516" cy="20.17" cx="-30.572" fill="#00a200"/><path d="m-42.16 12.997c0 0 2.673-2.219 4.633-2.206 2.535.017 4.415 3.309 6.95 3.309 2.535 0 4.415-3.293 6.95-3.309 1.96-.013 4.633 2.206 4.633 2.206" fill="none" stroke="#3f3f3f" stroke-linejoin="round" stroke-linecap="round" stroke-width="3"/></g>

   xmlns:dc="http://purl.org/dc/elements/1.1/"
   xmlns:cc="http://creativecommons.org/ns#"
   xmlns:rdf="http://www.w3.org/1999/02/22-rdf-syntax-ns#"
   xmlns:svg="http://www.w3.org/2000/svg"
   xmlns="http://www.w3.org/2000/svg"
   xmlns:xlink="http://www.w3.org/1999/xlink"
   xmlns:sodipodi="http://sodipodi.sourceforge.net/DTD/sodipodi-0.dtd"
   xmlns:inkscape="http://www.inkscape.org/namespaces/inkscape"
   height="32"
   width="32"
   version="1"
   id="svg8"
   sodipodi:docname="snow-top-2.svg"
   inkscape:version="0.92.1 r"&gt;
  <path d="m24.646 6.111c2.995 2.684 1.381 7.817 3.674 8.291 2.031.613 3.541-1.385 3.66-4.503.35-8.627-3.911-9.427-6.879-9.524-28.342-2.047-1.762 4.92-.455 5.736" fill="url(#0)"/></svg>