<svg xmlns="http://www.w3.org/2000/svg" viewBox="0 0 32 32"><defs><linearGradient gradientTransform="matrix(2.62891 0 0 2.71269-160.16-291.42)" id="0" x1="67.894" y1="108.69" x2="67.854" y2="113.11" gradientUnits="userSpaceOnUse"><stop stop-color="#f9f9f9"/><stop offset="1" stop-color="#999"/></linearGradient></defs><g transform="translate(47.66-2.723)"><path d="m-40.19 4.621c-3.089 0-5.576 2.488-5.576 5.576v17.05c0 2.635 1.85 4.73 4.299 5.318v-11.314c0-1.485.245-2.901.705-4.188.46-1.287 1.135-2.447 1.996-3.42.861-.973 1.908-1.76 3.111-2.305 1.203-.544 2.562-.846 4.047-.846 1.485 0 2.844.301 4.047.846 1.203.544 2.25 1.331 3.111 2.305.861.973 1.538 2.133 1.998 3.42.46 1.287.705 2.702.705 4.188v11.291c2.392-.628 4.184-2.7 4.184-5.295v-17.05c0-3.089-2.486-5.576-5.574-5.576z" fill="#ccc" fill-rule="evenodd"/><g fill="#6d4c41"><circle r="4.03" cx="-37.429" cy="15.427"/><circle r="4.03" cx="-25.776" cy="15.427"/></g><path d="m-21.742 32.545v-11.291c0-1.485-.245-2.901-.705-4.188-.46-1.287-1.137-2.447-1.998-3.42-.861-.973-1.908-1.76-3.111-2.305-1.203-.544-2.562-.846-4.047-.846-1.485 0-2.844.301-4.047.846-1.203.544-2.25 1.331-3.111 2.305-.861.973-1.536 2.133-1.996 3.42-.46 1.287-.705 2.702-.705 4.188v11.314c.422.101.824.256 1.277.256h17.05c.494 0 .935-.16 1.391-.279" fill="#a1887f" fill-rule="evenodd"/><path fill="#fff" d="m-34.29 23.942h2.689v3.586h-2.689z"/><path fill="#f2f2f2" d="m-31.603 23.494h2.689v4.03h-2.689z"/><path d="m-34.2 21.12c-1.237-.038-1.884 2.033-1.884 3.271 0 1.238 1 2.241 2.241 2.241 1.141 0 2.226-.996 2.226-.996h.032c0 0 1.084.995 2.224.996 1.238 0 2.241-1 2.241-2.241 0-1.238-.608-3.075-1.845-3.113z" fill="#6d4c41"/><path d="m-29.03 21.03c.264 1.159-1.463 2.465-2.577 2.465-1.114 0-2.898-1.292-2.633-2.465.203-.899 1.519-.84 2.633-.84 1.114 0 2.376-.041 2.577.84" fill="#3e2723"/><g transform="matrix(.09805 0 0 .09805-85.83 690.02)" stroke-width="1.116"><circle r="22.857" cx="502.86" cy="-6853.1" fill="#fefefe"/><circle r="9.143" cx="-498.29" cy="-6857.7" transform="scale(-1 1)" fill="#333"/></g><g transform="matrix(.09805 0 0 .09805-75.974 690.02)" stroke-width="1.116"><circle r="22.857" cx="502.86" cy="-6853.1" fill="#fefefe"/><circle r="9.143" cx="-498.29" cy="-6857.7" transform="scale(-1 1)" fill="#333"/></g></g>

   xmlns:dc="http://purl.org/dc/elements/1.1/"
   xmlns:cc="http://creativecommons.org/ns#"
   xmlns:rdf="http://www.w3.org/1999/02/22-rdf-syntax-ns#"
   xmlns:svg="http://www.w3.org/2000/svg"
   xmlns="http://www.w3.org/2000/svg"
   xmlns:xlink="http://www.w3.org/1999/xlink"
   xmlns:sodipodi="http://sodipodi.sourceforge.net/DTD/sodipodi-0.dtd"
   xmlns:inkscape="http://www.inkscape.org/namespaces/inkscape"
   version="1"
   width="32"
   height="32"
   id="svg12"
   sodipodi:docname="snow-top-1.svg"
   inkscape:version="0.92.1 r"&gt;
  <path d="m7.288.009c-8.276-.356-9.36 9.992-4.02 9.973.679.003 1.604-.207 2.97-1.543 7.256-10.531 14.706 3.573 17.53.919 1.71-1.912 3.496-.418 4.448.115 2.1.643 3.662.041 3.785-3.231.188-3.321-1.889-6.344-5.923-6.223-5.914.14-12.989-.047-18.787-.01" fill="url(#0)"/><path fill="#f00" fill-opacity="0" d="m0 0h32v32h-32z"/></svg>