<svg xmlns="http://www.w3.org/2000/svg" viewBox="0 0 32 32"><defs><linearGradient gradientTransform="matrix(2.62891 0 0 2.71269-160.16-291.42)" id="0" x1="67.894" y1="108.69" x2="67.854" y2="113.11" gradientUnits="userSpaceOnUse"><stop stop-color="#f9f9f9"/><stop offset="1" stop-color="#999"/></linearGradient></defs><g fill-rule="evenodd"><rect width="28.2" height="28.2" x="1.898" y="1.898" fill="#f2f2f2" rx="5.575"/><g transform="translate(72.91 1.445)"><path d="m-56.842 4.354c-1.402 0-2.737.284-3.951.797-1.214.513-2.307 1.256-3.225 2.174-.918.918-1.661 2.01-2.174 3.225-.513 1.214-.799 2.549-.799 3.951 0 1.402.286 2.739.799 3.953.513 1.214 1.256 2.307 2.174 3.225.918.918 2.01 1.661 3.225 2.174 1.214.513 2.549.797 3.951.797 1.402 0 2.739-.284 3.953-.797 1.214-.513 2.306-1.256 3.225-2.174.918-.918 1.662-2.01 2.176-3.225.513-1.214.797-2.551.797-3.953 0-1.402-.283-2.737-.797-3.951-.513-1.214-1.258-2.307-2.176-3.225-.918-.918-2.01-1.661-3.225-2.174-1.214-.513-2.551-.797-3.953-.797" fill="#f2f2f2"/><path d="m-43.21 25.08l-4.992-4.297c.644-.883 1.159-1.866 1.512-2.922.353-1.056.545-2.186.545-3.361 0-1.476-.3-2.881-.842-4.16-.541-1.279-1.325-2.431-2.293-3.398-.968-.968-2.119-1.752-3.398-2.293-1.279-.541-2.686-.84-4.162-.84-1.476 0-2.881.299-4.16.84-1.279.541-2.431 1.325-3.398 2.293-.968.968-1.752 2.119-2.293 3.398-.541 1.279-.84 2.685-.84 4.16 0 1.476.299 2.883.84 4.162.541 1.279 1.325 2.431 2.293 3.398.968.968 2.119 1.752 3.398 2.293 1.279.541 2.685.842 4.16.842 1.368 0 2.676-.259 3.877-.73 1.201-.471 2.296-1.155 3.242-2l4.918 4.811c.699-.596 1.258-1.32 1.594-2.193m-13.631-20.727c1.402 0 2.739.284 3.953.797 1.214.513 2.306 1.256 3.225 2.174.918.918 1.662 2.01 2.176 3.225.513 1.214.797 2.549.797 3.951 0 1.402-.283 2.739-.797 3.953-.513 1.214-1.258 2.307-2.176 3.225-.918.918-2.01 1.661-3.225 2.174-1.214.513-2.551.797-3.953.797-1.402 0-2.737-.284-3.951-.797-1.214-.513-2.307-1.256-3.225-2.174-.918-.918-1.661-2.01-2.174-3.225-.513-1.214-.799-2.551-.799-3.953 0-1.402.286-2.737.799-3.951.513-1.214 1.256-2.307 2.174-3.225.918-.918 2.01-1.661 3.225-2.174 1.214-.513 2.549-.797 3.951-.797" fill="#333"/><path d="m-65.44.453c-3.089 0-5.574 2.486-5.574 5.574v17.05c0 3.089 2.486 5.576 5.574 5.576h17.05c1.384 0 2.605-.553 3.578-1.383l-4.918-4.811c-.946.847-2.041 1.531-3.242 2-1.201.471-2.509.73-3.877.73-1.476 0-2.881-.3-4.16-.842-1.279-.541-2.431-1.325-3.398-2.293-.968-.968-1.752-2.119-2.293-3.398-.541-1.279-.84-2.686-.84-4.162 0-1.476.299-2.881.84-4.16.541-1.279 1.325-2.431 2.293-3.398.968-.968 2.119-1.752 3.398-2.293 1.279-.541 2.685-.84 4.16-.84 1.476 0 2.883.299 4.162.84 1.279.541 2.431 1.325 3.398 2.293.968.968 1.752 2.119 2.293 3.398.541 1.279.842 2.685.842 4.16 0 1.175-.192 2.305-.545 3.361-.353 1.056-.868 2.039-1.512 2.922l4.992 4.297c.24-.623.402-1.29.402-2v-17.05c0-3.089-2.486-5.574-5.574-5.574z" fill="#f2f2f2"/><g transform="matrix(.9082 0 0 .9082-71.39-.087)" stroke-width="1.101"><rect transform="matrix(.98961-.14377.14377.98961 0 0)" y="9.547" x="4.946" height="17.18" width="17.18" fill="#fff" rx="3.395"/><path d="m9.627 8.236c-1.861.27-3.143 1.987-2.872 3.849l.06.412c1.184.892 2.394 1.795 3.451 2.598.765.582 1.482 1.157 2.127 1.751.645.594 1.218 1.208 1.699 1.864.832-2.22 1.608-3.996 2.346-5.47.738-1.474 1.44-2.646 2.12-3.659.718-1.069 1.409-1.915 2.103-2.796-.252-.02-.495-.08-.756-.042zm14.181 1.764c-.784.712-1.659 1.422-2.295 2.137-1.092 1.228-1.986 2.466-2.748 3.726-.762 1.26-1.391 2.541-1.955 3.856-.564 1.315-1.063 2.664-1.563 4.059-1.689-1.887-3.412-3.59-5.173-5.079-.876-.74-1.761-1.427-2.657-2.057l.831 5.719c.27 1.861 1.987 3.141 3.848 2.871l10.277-1.493c1.861-.27 3.143-1.986 2.872-3.847z" fill="#a24242"/></g></g></g>

   xmlns:dc="http://purl.org/dc/elements/1.1/"
   xmlns:cc="http://creativecommons.org/ns#"
   xmlns:rdf="http://www.w3.org/1999/02/22-rdf-syntax-ns#"
   xmlns:svg="http://www.w3.org/2000/svg"
   xmlns="http://www.w3.org/2000/svg"
   xmlns:xlink="http://www.w3.org/1999/xlink"
   xmlns:sodipodi="http://sodipodi.sourceforge.net/DTD/sodipodi-0.dtd"
   xmlns:inkscape="http://www.inkscape.org/namespaces/inkscape"
   version="1"
   width="32"
   height="32"
   id="svg12"
   sodipodi:docname="snow-top-1.svg"
   inkscape:version="0.92.1 r"&gt;
  <path d="m7.288.009c-8.276-.356-9.36 9.992-4.02 9.973.679.003 1.604-.207 2.97-1.543 7.256-10.531 14.706 3.573 17.53.919 1.71-1.912 3.496-.418 4.448.115 2.1.643 3.662.041 3.785-3.231.188-3.321-1.889-6.344-5.923-6.223-5.914.14-12.989-.047-18.787-.01" fill="url(#0)"/><path fill="#f00" fill-opacity="0" d="m0 0h32v32h-32z"/></svg>