<svg xmlns="http://www.w3.org/2000/svg" viewBox="0 0 32 32" xmlns:xlink="http://www.w3.org/1999/xlink"><defs><linearGradient id="4" x1="-178.12" y1="-134.12" x2="-183.59" y2="-135.1" gradientUnits="userSpaceOnUse"><stop stop-color="#7c0000"/><stop offset="1" stop-color="#7c0000" stop-opacity="0"/></linearGradient><linearGradient id="3" x1="-189.8" y1="-142.57" x2="-175.35" y2="-130.4" gradientUnits="userSpaceOnUse"><stop stop-color="#ff383f"/><stop offset="1" stop-color="#a02d26"/></linearGradient><linearGradient id="2"><stop stop-color="#f9f9f9"/><stop offset="1" stop-color="#999"/></linearGradient><linearGradient xlink:href="#2" id="1" x1="-188.02" y1="-134.18" x2="-190.66" y2="-126.24" gradientUnits="userSpaceOnUse"/><radialGradient xlink:href="#2" id="5" cx="-176.59" cy="-120.91" r="3.01" gradientUnits="userSpaceOnUse" gradientTransform="matrix(2.21087.05719-.05496 2.12455 207.3 145.17)"/></defs><g transform="translate(46.736-2.211)" fill-rule="evenodd"><path d="m-44.838 18.211v8.525c0 3.089 2.486 5.576 5.574 5.576h17.05c3.089 0 5.576-2.488 5.576-5.576v-8.525z" fill="#6469bb"/><path d="m-44.838 18.211h28.2v-8.527c0-3.089-2.488-5.574-5.576-5.574h-17.05c-3.089 0-5.574 2.486-5.574 5.574z" fill="#9293ff"/></g><g transform="translate(46.737-2.316)"><g fill="#3e3e3e"><path d="m-37.965 7.474h14.456v8.132h-14.456" stroke-width="1.134"/><path d="m-36.16 21.03h10.842v8.132h-10.842" stroke-width="1.061"/></g><g transform="matrix(.60234 0 0 .60234-48.52 14.14)" fill="#ccc" stroke-width="1.107"><path d="m13.02 12.93h3v9h-3z"/><path transform="matrix(0 1-1 0 0 0)" d="m15.93-19.02h3v9h-3z"/></g><g transform="matrix(.60234 0 0 .60234-39.15 4.331)" fill="#ccc" stroke-width="1.107"><circle cy="33.718" cx="31.964" r="1.5"/><g transform="translate(-4.556 16.288)"><circle cy="17.43" cx="30.52" r="1.5"/><circle transform="matrix(0 1-1 0 0 0)" cy="-33.52" cx="14.43" r="1.5"/></g><circle transform="matrix(0 1-1 0 0 0)" cy="-28.964" cx="36.718" r="1.5"/></g><g stroke-linejoin="round" stroke-linecap="round" stroke-width="10"><path opacity=".2" d="m-42.483 14.702h3.614v.903h-3.614z"/><path opacity=".2" d="m-42.483 12.895h3.614v.903h-3.614z"/><path opacity=".2" d="m-42.483 11.09h3.614v.903h-3.614z"/><path opacity=".2" d="m-22.605 14.702h3.614v.903h-3.614z"/><path opacity=".2" d="m-22.605 12.895h3.614v.903h-3.614z"/><path opacity=".2" d="m-22.605 11.09h3.614v.903h-3.614z"/></g></g><path d="m32 .157l-.27 2.221-.122-2.378" fill="#f9f9f9" id="0"/><use xlink:href="#0"/><path d="m32 .113l-.27 1.6-.122-1.713" fill="#f9f9f9"/><g transform="matrix(-1 0 0 1-172.76 143.72)"><path d="m-190.09-143.27c-5.577-1.531-5.951 3.24-4.58 5.493 4.381 6.983 6.796 6.577 9.398 7.895 1.712 2.064 3.451 3.4 6.469 4.1 11.69 1.559 3.242-8.417.92-8.649-5.065.012-7.547-6.123-12.206-8.838" fill="url(#1)"/><path d="m-190.09-143.27c3.76.276 5.616-.626 8.93-.421 4.319.283 8.307 2.053 7.838 6.574-.347 2.567-.37 2.25.186 4.296.532 1.535-.252 4.232-.487 4.654-2.715 4.963-1.536 4.965-2.656 7.742l-.906-.418-2.508-11.358c-7.177-.909-10.754-10.11-10.398-11.07" fill="url(#3)"/><path d="m-183.3-133.33c.362.274 1.553-5.105 1.172-5.653 1.379 2.44 1.919 4.616 2.435 6.783-1.276-.283-2.289-.554-3.607-1.13" fill="url(#4)"/><circle r="3.01" cy="-120.11" cx="-176.61" fill="url(#5)"/></g></svg>