<svg xmlns="http://www.w3.org/2000/svg" viewBox="0 0 32 32"><defs><linearGradient gradientTransform="matrix(-2.65552 0 0 2.58531 193.77-277.73)" id="0" x1="67.894" y1="108.69" x2="67.854" y2="113.11" gradientUnits="userSpaceOnUse"><stop stop-color="#f9f9f9"/><stop offset="1" stop-color="#999"/></linearGradient></defs><rect width="28.2" height="28.2" x="1.898" y="1.898" fill="#8e8e8e" fill-rule="evenodd" rx="5.575"/><g transform="matrix(.7001 0 0 .7001 36.1 4.56)" stroke-width="1.428"><path d="m-29.652 31.32c-.856-.042-2.107-.221-2.931-.419-2.345-.566-4.599-1.784-5.987-3.234l-.166-.174-.155.083c-.425.227-1.031.265-1.448.092-.269-.112-.582-.427-.736-.74-.327-.667-.48-1.908-.481-3.888v-.964l-.104-.024c-.282-.068-.722-.468-.88-.8-.338-.71-.175-1.698.523-3.171.209-.441.655-1.254.948-1.728l.156-.251-.087-.171c-.285-.559.008-1.578.684-2.383l.271-.323-.362-.043c-.641-.077-1.098-.377-1.252-.822-.1-.288-.064-.684.087-.953.163-.289.95-1.035 1.401-1.327.778-.503 1.751-.916 2.903-1.234l.654-.18.012-1.341c.013-1.429.055-1.911.249-2.869.249-1.226.812-2.616 1.176-2.904.284-.225.741-.28 1.058-.127.268.129.415.313.634.796.231.508 1.423 2.772 1.991 3.781l.355.631.682.166c.375.091 1.049.269 1.498.394.448.126.823.229.833.229.01 0 .018-.095.018-.21 0-.414.236-.802.609-.999.441-.207.923-.104 1.242.05.185.09.504.284.708.431.204.147.378.268.387.268.058 0 2.862-3.084 3.485-3.834.219-.264.46-.551.535-.638.44-.513 1.308-.415 1.628.184.1.187.263.977.316 1.528.165 1.728-.166 3.813-.959 6.04-.128.358-.245.68-.26.714-.021.048.065.116.386.302.471.274 1.204.757 1.618 1.067.445.333 1.272 1.146 1.504 1.476.554.791.746 1.628.49 2.131l-.087.17.156.252c.293.474.739 1.287.948 1.728.698 1.473.86 2.462.523 3.171-.158.332-.598.732-.88.799l-.104.025v1c-.002 1.963-.153 3.182-.48 3.849-.153.313-.467.628-.736.74-.439.182-1.131.122-1.514-.131l-.14-.093-.522.486c-.924.86-1.803 1.449-3.01 2.02-1.116.525-2.152.863-3.352 1.093-1.299.249-2.685.346-4.03.28" fill="#ee3434"/><ellipse cx="-28.709" cy="17.34" ry="6" rx="7" fill="#fff"/><path d="m-28.70922 14.340426a2 2.5 0 0 0 -.69 .155 1.3333 1.25 0 0 1 .69 1.095 1.3333 1.25 0 0 1 -1.333 1.25 1.3333 1.25 0 0 1 -.661 -.165 2 2.5 0 0 0 -.006 .165 2 2.5 0 0 0 2 2.5 2 2.5 0 0 0 2 -2.5 2 2.5 0 0 0 -2 -2.5" fill="#272727"/><path d="m-28.709 27.46c0 .807-.789 1.88-1.669 1.88-.88 0-1.331-1.112-1.331-1.919 0-.807.827-.356 1.707-.356.88 0 1.293-.413 1.293.394" fill="#fff"/><path d="m-30.888 26.752c-1.704-.004-3.373-.402-4.821-1.151 1.531 1.123 3.451 1.738 5.433 1.739 4.731 0 8.567-1.777 8.567-6-1.164 4.171-4.823 5.3-9.179 5.412" fill="#791414"/><g fill="#fff"><path d="m-35.709 8.988l.009-1.034c.009-1.102.039-1.473.18-2.211.18-.945.587-2.02.85-2.238.205-.173.536-.216.765-.098.194.099.3.241.458.614.167.391 1.028 2.137 1.439 2.914l.256.487c.504 1.612-3.62 2.438-3.957 1.567"/><path d="m-21.631 10.137l.309-1.01c.33-1.072.418-1.439.523-2.184.136-.953.115-2.074-.042-2.341-.123-.208-.394-.314-.627-.245-.196.059-.331.176-.581.507-.263.348-1.537 1.875-2.127 2.551l-.369.423c-.926 1.468 2.358 3.075 2.915 2.295"/></g></g>

   xmlns:dc="http://purl.org/dc/elements/1.1/"
   xmlns:cc="http://creativecommons.org/ns#"
   xmlns:rdf="http://www.w3.org/1999/02/22-rdf-syntax-ns#"
   xmlns:svg="http://www.w3.org/2000/svg"
   xmlns="http://www.w3.org/2000/svg"
   xmlns:xlink="http://www.w3.org/1999/xlink"
   xmlns:sodipodi="http://sodipodi.sourceforge.net/DTD/sodipodi-0.dtd"
   xmlns:inkscape="http://www.inkscape.org/namespaces/inkscape"
   version="1"
   width="32"
   height="32"
   id="svg12"
   sodipodi:docname="snow-top-3.svg"
   inkscape:version="0.92.1 r"&gt;
  <path d="m24.627.009c8.36-.339 9.455 9.523 4.064 9.505-.686.003-1.62-.197-3-1.471-14.665-10.216-14.549 2.967-17.708.875-1.727-1.822-1.743 4.653-4.139 5.127-2.122.613-3.699-1.385-3.824-4.503-.366-8.627 4.086-9.427 7.187-9.524 5.974.133 11.562-.045 17.419-.01" fill="url(#0)"/></svg>