<?xml version="1.0" encoding="UTF-8" standalone="no"?>
<svg
   xmlns:dc="http://purl.org/dc/elements/1.1/"
   xmlns:cc="http://creativecommons.org/ns#"
   xmlns:rdf="http://www.w3.org/1999/02/22-rdf-syntax-ns#"
   xmlns:svg="http://www.w3.org/2000/svg"
   xmlns="http://www.w3.org/2000/svg"
   xmlns:sodipodi="http://sodipodi.sourceforge.net/DTD/sodipodi-0.dtd"
   xmlns:inkscape="http://www.inkscape.org/namespaces/inkscape"
   width="32"
   height="32"
   version="1"
   id="svg26"
   sodipodi:docname="development_environment_section.svg"
   inkscape:version="0.92.1 r">
  <metadata
     id="metadata32">
    <rdf:RDF>
      <cc:Work
         rdf:about="">
        <dc:format>image/svg+xml</dc:format>
        <dc:type
           rdf:resource="http://purl.org/dc/dcmitype/StillImage" />
        <dc:title />
      </cc:Work>
    </rdf:RDF>
  </metadata>
  <defs
     id="defs30">
    <linearGradient
       gradientTransform="matrix(2.62891,0,0,2.71269,-160.16237,-291.42004)"
       id="0"
       x1="67.893997"
       y1="108.69"
       x2="67.853996"
       y2="113.11"
       gradientUnits="userSpaceOnUse">
      <stop
         stop-color="#f9f9f9"
         id="stop2" />
      <stop
         offset="1"
         stop-color="#999"
         id="stop4" />
    </linearGradient>
  </defs>
  <sodipodi:namedview
     pagecolor="#ffffff"
     bordercolor="#666666"
     borderopacity="1"
     objecttolerance="10"
     gridtolerance="10"
     guidetolerance="10"
     inkscape:pageopacity="0"
     inkscape:pageshadow="2"
     inkscape:window-width="1680"
     inkscape:window-height="966"
     id="namedview28"
     showgrid="false"
     inkscape:zoom="7.3750001"
     inkscape:cx="-24.075395"
     inkscape:cy="40.943535"
     inkscape:window-x="0"
     inkscape:window-y="0"
     inkscape:window-maximized="1"
     inkscape:current-layer="svg26" />
  <rect
     style="opacity:1;fill:#66b036;fill-opacity:1;fill-rule:evenodd;stroke:none;stroke-width:1.03534329;stroke-linecap:round;stroke-linejoin:bevel;stroke-miterlimit:4;stroke-dasharray:none;stroke-dashoffset:0;stroke-opacity:1"
     id="rect4497-3"
     width="28.203388"
     height="28.203388"
     x="1.8983059"
     y="1.8983059"
     ry="5.575182" />
  <g
     id="g4551"
     transform="translate(-0.55867436,0.3698938)">
    <path
       inkscape:connector-curvature="0"
       id="path4541"
       d="m 12.955476,7.0320118 c -3.1521583,-0.005 -5.4209333,1.8361022 -6.1132823,4.9609372 -0.296324,1.337417 -0.123598,3.209883 0.410157,4.455078 0.300242,0.700439 1.031282,1.733471 1.503906,2.123047 0.574683,0.473702 1.7526733,1.066697 2.4316403,1.224609 l 0.56836,0.13086 0.07422,0.564453 c 0.177705,1.339601 0.831628,2.117906 2.072265,2.464844 0.693273,0.19387 2.935478,0.163073 4.054688,-0.05469 l 0.691406,-0.134766 V 22.26834 c 0,-0.43087 -0.0258,-0.488062 -0.193359,-0.419922 -0.106601,0.04335 -0.62261,0.106665 -1.146485,0.138672 -1.077808,0.06585 -1.896008,-0.13397 -2.294922,-0.558594 -0.286567,-0.305037 -0.574218,-0.9759 -0.574218,-1.337891 0,-0.230208 0.0666,-0.283013 0.449218,-0.347656 0.774726,-0.130889 1.964527,-0.806446 2.699219,-1.535156 1.178399,-1.168807 1.7537,-2.690179 1.763672,-4.664063 C 19.36244,11.469179 18.564835,9.6879585 17.055085,8.4148239 15.942397,7.4765223 14.633301,7.0346778 12.955476,7.0320118 Z m 0.002,1.2187496 c 0.413642,-0.0062 0.844428,0.089213 1.240234,0.2636719 0.395806,0.1744589 0.757316,0.4287843 1.027344,0.7363281 0.444707,0.5064939 0.775836,1.1892606 0.99414,1.9570316 0.218306,0.767771 0.323072,1.619672 0.316407,2.466797 -0.0067,0.847124 -0.125265,1.689039 -0.355469,2.433593 -0.230204,0.744554 -0.573078,1.391503 -1.025391,1.851563 -0.371175,0.377532 -0.836686,0.646231 -1.330078,0.787109 -0.493391,0.140878 -1.014218,0.155444 -1.496093,0.02148 -0.636674,-0.176993 -1.204682,-0.592787 -1.66211,-1.1875 C 10.208985,16.986126 9.8634027,16.211931 9.6742257,15.315215 9.5006647,14.49252 9.4943697,12.546371 9.6625067,11.670683 9.8495347,10.69662 10.410733,9.5668831 10.961335,9.0593552 11.584849,8.4846204 12.132298,8.2631377 12.957429,8.2507614 Z m 10.896484,0.3515625 -0.582031,0.033203 -0.580078,0.033203 -0.507813,0.9785156 c -0.474199,0.9141785 -0.552819,1.0034075 -1.191406,1.3632815 -0.595092,0.335363 -0.681641,0.427131 -0.681641,0.710938 0,0.320648 0.0094,0.326171 0.601563,0.326171 h 0.601562 l 0.03516,3.294922 c 0.0326,3.060341 0.05012,3.321516 0.255859,3.669922 0.235442,0.39871 0.846701,0.792616 1.216797,0.783203 0.12278,-0.0031 0.742164,-0.271289 1.376953,-0.59375 l 1.154297,-0.585937 -0.472656,-0.07617 C 24.780657,18.491884 24.493295,18.35108 24.297273,18.155058 23.897748,17.755532 23.830231,17.141631 23.875397,14.26248 l 0.0332,-2.160156 1.357422,-0.03125 1.357421,-0.03125 V 11.490996 10.940215 H 25.238679 23.853913 V 9.7722458 Z"
       style="fill:#ffffff;fill-opacity:1;stroke-width:0.11075469" />
    <path
       inkscape:connector-curvature="0"
       id="path4543"
       d="m 23.013602,25.70591 c 1.721947,-0.847713 2.924016,-2.718996 3.657186,-5.693212 0.198261,-0.804276 0.395332,-1.775789 0.437936,-2.158919 l 0.07747,-0.696598 -0.680389,0.548264 c -0.374215,0.301546 -1.610444,1.032687 -2.747174,1.624758 -3.044126,1.585546 -3.65123,2.039908 -4.127884,3.089348 -0.254931,0.561276 -0.275978,1.796462 -0.04366,2.562185 0.304848,1.004779 0.25645,1.019016 1.720146,-0.505983 0.73083,-0.761438 1.860678,-1.982509 2.510772,-2.713489 0.650093,-0.730981 1.222628,-1.34567 1.2723,-1.365975 0.445054,-0.18193 -0.86189,1.428747 -3.040576,3.7472 -0.944505,1.005099 -1.691406,1.870738 -1.659779,1.92364 0.03163,0.0529 0.469795,0.07455 0.973703,0.0481 0.750441,-0.03939 1.048946,-0.113442 1.649957,-0.409317 z"
       style="fill:#ccedcc;fill-opacity:1;stroke-width:0.11075469" />
  </g>
  <path
     inkscape:connector-curvature="0"
     style="fill:url(#0)"
     d="m 7.2856393,0.0089794 c -8.27599968,-0.356 -9.3599997,9.9919996 -4.0199997,9.9729998 0.679,0.003 1.6039997,-0.207 2.9699997,-1.543 7.2559997,-10.5309998 14.7059997,3.5730008 17.5299997,0.919 1.71,-1.912 3.496,-0.418 4.448,0.115 2.1,0.6429998 3.662,0.041 3.785,-3.231 0.188,-3.321 -1.889,-6.3439998 -5.923,-6.2229998 -5.914,0.14 -12.989,-0.047 -18.7869997,-0.01"
     id="path29" />
</svg>
