<svg xmlns="http://www.w3.org/2000/svg" viewBox="0 0 32 32"><g transform="translate(45.05.453)"><g fill-rule="evenodd"><path d="m-14.947 18.773h-4.457v2.332c0 .723.145 1.412.408 2.037.263.625.645 1.186 1.117 1.658.472.472 1.033.854 1.658 1.117.266.112.581.107.867.174.245-.629.406-1.302.406-2.02z" fill="#fec006"/><path d="m-14.947 11.773h-4.457v7h4.457z" fill="#2095f2"/><path d="m-15.11 6.201c-.373.069-.769.079-1.109.223-.625.263-1.186.643-1.658 1.115-.472.472-.854 1.035-1.117 1.66-.263.625-.408 1.312-.408 2.035v.539h4.457v-4.754c0-.291-.122-.54-.164-.818" fill="#4bae4f"/><path d="m-36.766 1.445v28.2h16.242c2.371 0 4.361-1.478 5.17-3.557-.287-.067-.601-.062-.867-.174-.625-.263-1.186-.645-1.658-1.117-.472-.472-.854-1.033-1.117-1.658-.263-.625-.408-1.314-.408-2.037v-9.871c0-.723.145-1.41.408-2.035.263-.625.645-1.188 1.117-1.66.472-.472 1.033-.852 1.658-1.115.34-.143.736-.154 1.109-.223-.409-2.68-2.614-4.756-5.412-4.756z" fill="#f34235"/><path d="m-36.766 29.648v-28.2h-.811c-3.089 0-5.574 2.486-5.574 5.574v17.05c0 3.089 2.486 5.576 5.574 5.576z" fill="#4f4f4f"/></g><path d="m-33.16 9.775v11.998h3.556c6.222 0 6.444-3.777 6.444-5.999 0-2.222-.223-6.109-6.444-5.999zm3.556 2.666c2.667 0 3.444.667 3.444 3.333 0 2.666-.778 3.333-3.444 3.333h-.556v-6.665z" fill="#f9f9f9"/></g>

   xmlns:dc="http://purl.org/dc/elements/1.1/"
   xmlns:cc="http://creativecommons.org/ns#"
   xmlns:rdf="http://www.w3.org/1999/02/22-rdf-syntax-ns#"
   xmlns:svg="http://www.w3.org/2000/svg"
   xmlns="http://www.w3.org/2000/svg"
   xmlns:sodipodi="http://sodipodi.sourceforge.net/DTD/sodipodi-0.dtd"
   xmlns:inkscape="http://www.inkscape.org/namespaces/inkscape"
   height="32"
   width="32"
   version="1"
   id="svg8"
   sodipodi:docname="star-mime-2.svg"
   inkscape:version="0.92.1 r"&gt;
  <g transform="translate(152.47 194.05)" fill="#fff"><path d="m-125.38-193.25l-.077 3.548 3.072 1.831-3.548-.077-3.135 6.791 1.38-7.268-3.072-1.831 3.548.077z"/><path d="m-125.41-183.04l.042-1.955-1.692-1.01 1.955.042 1.727-3.741-.76 4 1.692 1.01-1.955-.042z"/></g></svg>