<svg xmlns="http://www.w3.org/2000/svg" viewBox="0 0 32 32" xmlns:xlink="http://www.w3.org/1999/xlink"><defs><linearGradient gradientTransform="matrix(-2.54182 0 0 2.58531 185.47-277.37)" id="1" x1="67.894" y1="108.69" x2="67.854" y2="113.11" gradientUnits="userSpaceOnUse"><stop stop-color="#f9f9f9"/><stop offset="1" stop-color="#999"/></linearGradient></defs><g transform="translate(45.39-1.021)" fill-rule="evenodd"><path d="m-40.12 3.373c-1.986.851-3.375 2.816-3.375 5.121v17.05c0 2.249 1.338 4.152 3.248 5.04.431-.371.857-.741 1.234-1.172.445-.508.839-1.082 1.146-1.775.557-1.257.739-2.486.781-3.816.042-1.331-.055-2.763-.055-4.422v-12.461c0-.541-.03-.894-.15-1.197-.12-.303-.33-.555-.693-.895-.662-.517-1.418-.996-2.137-1.471" fill="#333"/><path d="m-40.12 3.373c.719.475 1.475.954 2.137 1.471.363.34.573.591.693.895.12.303.15.657.15 1.197v12.461c0 1.659.097 3.091.055 4.422-.042 1.331-.224 2.56-.781 3.816-.308.693-.702 1.268-1.146 1.775-.377.431-.804.801-1.234 1.172.713.329 1.489.541 2.328.541h17.05c3.089 0 5.574-2.488 5.574-5.576v-17.05c0-3.089-2.486-5.574-5.574-5.574h-17.05c-.784 0-1.526.164-2.201.453" fill="#e97e10"/><path d="m-30.892 7.951c1.716.003 5.235.051 5.926.386 3.01 1.693 3.465 3.724 3.402 6.617.084 2.618-.881 5.441-3.402 6.779-.92.447-6.716.447-6.716.447l-.153-14.226c0 0 .371-.004.944-.003" fill="#fff"/><path d="m-34.23 15.08c-.074.037.139.56.374.886.357.498.594.789 1.088 1.24.648.59.816.688 1.088.963.272.275.625.794.625.794v8.02c0 .551-.562.899-.743.965-.256.093-.809.273-.809.273v.276h3.049 3.253v-.275c0 0-.645-.181-.9-.275-.181-.066-.641-.414-.647-.965v-6.783-1.24-.137c0-.593.525-.737.732-.826.28-.121.681-.138.817-.414.136-.275-.172-.138-.273-.137-.978.006-3.525 0-3.525 0-.665 0-1.314-.09-1.851-.38-.38-.205-.741-.475-1.088-.826l-1.09-1.102c-.051-.052-.083-.069-.1-.06m16.679 0c-.017-.008-.049.009-.1.06l-1.09 1.102c-.347.351-.709.621-1.088.826-.538.29-1.185.38-1.85.38 0 0-2.549.006-3.526 0-.101-.001-.409-.138-.273.137.136.275.537.293.817.414.207.089.732.233.732.826v.137 1.24 6.783c-.006.551-.466.899-.647.965-.256.093-.889.273-.889.273v.276h3.242 3.049v-.276c0 0-.554-.18-.809-.273-.181-.066-.743-.414-.743-.965v-8.02c0 0 .353-.518.625-.794.272-.275.441-.374 1.088-.963.495-.451.731-.742 1.088-1.24.234-.326.448-.849.374-.886" fill="#c2352a"/></g>

   xmlns:dc="http://purl.org/dc/elements/1.1/"
   xmlns:cc="http://creativecommons.org/ns#"
   xmlns:rdf="http://www.w3.org/1999/02/22-rdf-syntax-ns#"
   xmlns:svg="http://www.w3.org/2000/svg"
   xmlns="http://www.w3.org/2000/svg"
   xmlns:xlink="http://www.w3.org/1999/xlink"
   xmlns:sodipodi="http://sodipodi.sourceforge.net/DTD/sodipodi-0.dtd"
   xmlns:inkscape="http://www.inkscape.org/namespaces/inkscape"
   height="32"
   width="32"
   version="1"
   id="svg8"
   sodipodi:docname="snow-top-3.svg"
   inkscape:version="0.92.1 r"&gt;
  <path fill="#00000f" fill-opacity="0" d="m0 0h32v32h-32z" id="0"/><path d="m7.354 6.111c-2.995 2.684-1.381 7.817-3.674 8.291-2.031.613-3.541-1.385-3.66-4.503-.35-8.627 3.911-9.427 6.879-9.524 28.342-2.047 1.762 4.92.455 5.736" fill="url(#1)"/><use xlink:href="#0"/></svg>