<svg xmlns="http://www.w3.org/2000/svg" viewBox="0 0 32 32"><defs><linearGradient gradientTransform="matrix(2.59244 0 0 2.58531-157.93-277.73)" id="0" x1="67.894" y1="108.69" x2="67.854" y2="113.11" gradientUnits="userSpaceOnUse"><stop stop-color="#f9f9f9"/><stop offset="1" stop-color="#999"/></linearGradient></defs><g transform="translate(67-32.879)" fill-rule="evenodd"><path d="m-52.10547 47.957031a1.448418 1.448418 0 0 0 -.101562 .002 1.448418 1.448418 0 0 0 -.144531 .01758 1.448418 1.448418 0 0 0 -.140626 .0332 1.448418 1.448418 0 0 0 -.138671 .04492 1.448418 1.448418 0 0 0 -.13086 .05859 1.448418 1.448418 0 0 0 -.126953 .07227 1.448418 1.448418 0 0 0 -.117187 .08398 1.448418 1.448418 0 0 0 -.109375 .0957 1.448418 1.448418 0 0 0 -.09766 .105469 1.448418 1.448418 0 0 0 -.08789 .115235 1.448418 1.448418 0 0 0 -.07617 .125 1.448418 1.448418 0 0 0 -.0625 .128906 1.448418 1.448418 0 0 0 -.04883 .136718 1.448418 1.448418 0 0 0 -.03711 .140626 1.448418 1.448418 0 0 0 -.02148 .142578 1.448418 1.448418 0 0 0 -.0059 .144531 1.448418 1.448418 0 0 0 .002 .103515 1.448418 1.448418 0 0 0 .01758 .142579 1.448418 1.448418 0 0 0 .0332 .142578 1.448418 1.448418 0 0 0 .04492 .136719 1.448418 1.448418 0 0 0 .05859 .132812 1.448418 1.448418 0 0 0 .07227 .125 1.448418 1.448418 0 0 0 .08398 .117188 1.448418 1.448418 0 0 0 .0957 .109374 1.448418 1.448418 0 0 0 .105469 .09766 1.448418 1.448418 0 0 0 .115234 .08789 1.448418 1.448418 0 0 0 .125 .07617 1.448418 1.448418 0 0 0 .128906 .0625 1.448418 1.448418 0 0 0 .136719 .05078 1.448418 1.448418 0 0 0 .140625 .03516 1.448418 1.448418 0 0 0 .142578 .02148 1.448418 1.448418 0 0 0 .144531 .0078 1.448418 1.448418 0 0 0 .103516 -.0039 1.448418 1.448418 0 0 0 .142578 -.01758 1.448418 1.448418 0 0 0 .142578 -.03125 1.448418 1.448418 0 0 0 .136719 -.04687 1.448418 1.448418 0 0 0 .132812 -.05859 1.448418 1.448418 0 0 0 .125 -.07227 1.448418 1.448418 0 0 0 .117188 -.08398 1.448418 1.448418 0 0 0 .109375 -.0957 1.448418 1.448418 0 0 0 .09766 -.105468 1.448418 1.448418 0 0 0 .08789 -.115235 1.448418 1.448418 0 0 0 .07617 -.123047 1.448418 1.448418 0 0 0 .0625 -.130859 1.448418 1.448418 0 0 0 .05078 -.136719 1.448418 1.448418 0 0 0 .03516 -.138672 1.448418 1.448418 0 0 0 .02148 -.144531 1.448418 1.448418 0 0 0 .0078 -.144531 1.448418 1.448418 0 0 0 -.0039 -.101563 1.448418 1.448418 0 0 0 -.01758 -.144531 1.448418 1.448418 0 0 0 -.03125 -.140625 1.448418 1.448418 0 0 0 -.04687 -.138672 1.448418 1.448418 0 0 0 -.05859 -.130859 1.448418 1.448418 0 0 0 -.07227 -.125 1.448418 1.448418 0 0 0 -.08398 -.119141 1.448418 1.448418 0 0 0 -.0957 -.107422 1.448418 1.448418 0 0 0 -.105469 -.09961 1.448418 1.448418 0 0 0 -.115234 -.08789 1.448418 1.448418 0 0 0 -.123047 -.07617 1.448418 1.448418 0 0 0 -.13086 -.0625 1.448418 1.448418 0 0 0 -.136718 -.04883 1.448418 1.448418 0 0 0 -.140625 -.03711 1.448418 1.448418 0 0 0 -.142579 -.02148 1.448418 1.448418 0 0 0 -.144531 -.0059" fill="#fff"/><g fill="#80cbc4"><path d="m-44.904 62.98c-.014-.016-.03-.027-.045-.043-.332-.357-.664-.715-1.031-.988-.367-.273-.769-.46-1.242-.475-.473-.015-.902.156-1.301.422-.399.266-.77.627-1.127.99-.033.034-.065.06-.098.094z"/><path d="m-39.08 61.723c-.108-.089-.314-.159-.41-.248h-.545c-.169.429-.422.764-.645 1.145.595-.204 1.115-.516 1.6-.896"/></g><path d="m-36.9 47.16c-.514-.899-.995-1.828-1.723-2.555-1.047-1.047-2.293-1.895-3.678-2.48-1.385-.586-2.908-.91-4.506-.91-1.598 0-3.121.324-4.506.91-1.385.586-2.632 1.433-3.68 2.48-1.047 1.047-1.895 2.295-2.48 3.68-.586 1.385-.908 2.908-.908 4.506 0 .044.005.085.006.129-.001.046-.006.089-.006.135 0 .61.048 1.21.141 1.795.03.142.079.262.119.393.282.921.79 1.567 1.229 1.982.438.415.807.6.807.6.357.288.801.583 1.313.873h-.043c0 0 .269 1.429.783 2.854.188.521.444.979.697 1.428h3.588c.033-.034.064-.06.098-.094.357-.364.728-.724 1.127-.99.399-.266.827-.437 1.301-.422.473.015.875.202 1.242.475.367.273.699.631 1.031.988.014.016.03.027.045.043h2.43c.638 0 1.225-.166 1.795-.361.222-.38.476-.715.645-1.145h.545c.096.089.302.159.41.248 1.296-1.019 2.18-2.534 2.18-4.318zm-15.205078.794922a1.448418 1.448418 0 0 1 .144531 .0059 1.448418 1.448418 0 0 1 .142579 .02148 1.448418 1.448418 0 0 1 .140625 .03711 1.448418 1.448418 0 0 1 .136718 .04883 1.448418 1.448418 0 0 1 .13086 .0625 1.448418 1.448418 0 0 1 .123047 .07617 1.448418 1.448418 0 0 1 .115234 .08789 1.448418 1.448418 0 0 1 .105469 .09961 1.448418 1.448418 0 0 1 .0957 .107422 1.448418 1.448418 0 0 1 .08398 .119141 1.448418 1.448418 0 0 1 .07227 .125 1.448418 1.448418 0 0 1 .05859 .130859 1.448418 1.448418 0 0 1 .04687 .138672 1.448418 1.448418 0 0 1 .03125 .140625 1.448418 1.448418 0 0 1 .01758 .144531 1.448418 1.448418 0 0 1 .0039 .101563 1.448418 1.448418 0 0 1 -.0078 .144531 1.448418 1.448418 0 0 1 -.02148 .144531 1.448418 1.448418 0 0 1 -.03516 .138672 1.448418 1.448418 0 0 1 -.05078 .136719 1.448418 1.448418 0 0 1 -.0625 .130859 1.448418 1.448418 0 0 1 -.07617 .123047 1.448418 1.448418 0 0 1 -.08789 .115235 1.448418 1.448418 0 0 1 -.09766 .105468 1.448418 1.448418 0 0 1 -.109375 .0957 1.448418 1.448418 0 0 1 -.117188 .08398 1.448418 1.448418 0 0 1 -.125 .07227 1.448418 1.448418 0 0 1 -.132812 .05859 1.448418 1.448418 0 0 1 -.136719 .04687 1.448418 1.448418 0 0 1 -.142578 .03125 1.448418 1.448418 0 0 1 -.142578 .01758 1.448418 1.448418 0 0 1 -.103516 .0039 1.448418 1.448418 0 0 1 -.144531 -.0078 1.448418 1.448418 0 0 1 -.142578 -.02148 1.448418 1.448418 0 0 1 -.140625 -.03516 1.448418 1.448418 0 0 1 -.136719 -.05078 1.448418 1.448418 0 0 1 -.128906 -.0625 1.448418 1.448418 0 0 1 -.125 -.07617 1.448418 1.448418 0 0 1 -.115234 -.08789 1.448418 1.448418 0 0 1 -.105469 -.09766 1.448418 1.448418 0 0 1 -.0957 -.109374 1.448418 1.448418 0 0 1 -.08398 -.117188 1.448418 1.448418 0 0 1 -.07227 -.125 1.448418 1.448418 0 0 1 -.05859 -.132812 1.448418 1.448418 0 0 1 -.04492 -.136719 1.448418 1.448418 0 0 1 -.0332 -.142578 1.448418 1.448418 0 0 1 -.01758 -.142579 1.448418 1.448418 0 0 1 -.002 -.103515 1.448418 1.448418 0 0 1 .0059 -.144531 1.448418 1.448418 0 0 1 .02148 -.142578 1.448418 1.448418 0 0 1 .03711 -.140626 1.448418 1.448418 0 0 1 .04883 -.136718 1.448418 1.448418 0 0 1 .0625 -.128906 1.448418 1.448418 0 0 1 .07617 -.125 1.448418 1.448418 0 0 1 .08789 -.115235 1.448418 1.448418 0 0 1 .09766 -.105469 1.448418 1.448418 0 0 1 .109375 -.0957 1.448418 1.448418 0 0 1 .117187 -.08398 1.448418 1.448418 0 0 1 .126953 -.07227 1.448418 1.448418 0 0 1 .13086 -.05859 1.448418 1.448418 0 0 1 .138671 -.04492 1.448418 1.448418 0 0 1 .140626 -.0332 1.448418 1.448418 0 0 1 .144531 -.01758 1.448418 1.448418 0 0 1 .101562 -.002" fill="#009688"/><path d="m-58.17 55.09c.04.217.03.446.086.658.195.739.484 1.444.859 2.088.469.967 1.067 1.858 1.773 2.652.449.505 1.01.893 1.537 1.313-.036-.086-.087-.155-.119-.244-.515-1.424-.783-2.854-.783-2.854h.043c-.512-.29-.956-.585-1.313-.873 0 0-.369-.184-.807-.6-.438-.415-.946-1.062-1.229-1.982-.016-.053-.032-.107-.049-.158" fill="#80cbc4"/><path d="m-58.36 53.39c0 .005-.025.054-.025.059 0 .206.064.399.078.604-.019-.22-.046-.438-.053-.662" fill="#8e8e8e"/><g fill="#455a64"><path d="m-48.855 41.631c.69-.128 1.322-.414 2.049-.414 1.081 0 2.054.338 3.047.615-.197-.438-.26-.625-.592-1.25-.304-.571-.64-1.14-.967-1.568-.327-.428-.644-.713-.908-.713-.266 0-.604.284-.965.713-.36.429-.742 1-1.09 1.572-.318.522-.353.632-.574 1.045"/><path d="m-54.43 44.22c.937-.833 1.942-1.602 3.113-2.098.182-.077.407-.051.594-.119-.339-.251-.392-.311-.82-.602-1.044-.708-2.174-1.366-2.52-1.17-.305.174-.389 1.5-.396 2.783-.004.613.014.742.029 1.205"/></g><g fill="#8e8e8e"><path d="m-36.9 47.01c-.021 0-.089-.004-.105-.004.031.055.074.101.105.156z"/><path d="m-36.9 45.42c-.143.508-.297 1.099-.34 1.238.069.122.165.223.234.346.016 0 .085.004.105.004z"/></g><path d="m-36.9 41.36c-.579-.018-1.716.188-3.127.568-.919.248-1.182.336-1.799.52 1.174.568 2.291 1.248 3.203 2.16.584.584.972 1.328 1.383 2.053.043-.139.197-.73.34-1.238z" fill="#455a64"/><path d="m-59.53 34.777c-3.089 0-5.576 2.486-5.576 5.574v17.05c0 3.089 2.488 5.576 5.576 5.576h6.191c-.21-.372-.405-.768-.578-1.184-.53-.42-1.088-.808-1.537-1.313-.706-.794-1.305-1.686-1.773-2.652-.375-.644-.664-1.349-.859-2.088-.056-.212-.046-.441-.086-.658-.026-.076-.052-.15-.07-.234-.041-.26-.039-.533-.063-.799-.014-.204-.078-.398-.078-.604 0-.005.025-.053.025-.059-.003-.113-.025-.22-.025-.334 0-.046.005-.089.006-.135-.001-.043-.006-.085-.006-.129 0-1.598.322-3.121.908-4.506.586-1.385 1.433-2.632 2.48-3.68.161-.161.396-.231.566-.383-.015-.463-.033-.592-.029-1.205.007-1.283.091-2.61.396-2.783.346-.196 1.476.462 2.52 1.17.428.29.481.35.82.602.587-.213 1.236-.26 1.863-.377.221-.413.257-.523.574-1.045.348-.571.729-1.144 1.09-1.572.36-.429.699-.713.965-.713.264 0 .581.285.908.713.327.428.663.998.967 1.568.332.625.395.812.592 1.25.475.133 1.01.105 1.459.295.179.076.301.236.475.32.616-.184.88-.272 1.799-.52 1.411-.38 2.548-.586 3.127-.568v-1.01c0-3.089-2.486-5.574-5.574-5.574z" fill="#8e8e8e"/></g>

   xmlns:dc="http://purl.org/dc/elements/1.1/"
   xmlns:cc="http://creativecommons.org/ns#"
   xmlns:rdf="http://www.w3.org/1999/02/22-rdf-syntax-ns#"
   xmlns:svg="http://www.w3.org/2000/svg"
   xmlns="http://www.w3.org/2000/svg"
   xmlns:xlink="http://www.w3.org/1999/xlink"
   xmlns:sodipodi="http://sodipodi.sourceforge.net/DTD/sodipodi-0.dtd"
   xmlns:inkscape="http://www.inkscape.org/namespaces/inkscape"
   version="1"
   width="32"
   height="32"
   id="svg12"
   sodipodi:docname="snow-top-4.svg"
   inkscape:version="0.92.1 r"&gt;
  <path d="m7.196.009c-8.161-.339-9.231 9.523-3.968 9.505.669.003 1.581-.197 2.929-1.471 3.773-4.147 9.01 4.479 14.696-1.042.61-.911 1.804-1.135 2.455-.627 1.045.677 2.87 2.991 3.88 3 2.359.513 4.095-.198 4.816-3.188.185-3.165-2.303-6.286-6.281-6.17-5.832.133-12.809-.045-18.527-.01" fill="url(#0)"/></svg>