<svg xmlns="http://www.w3.org/2000/svg" viewBox="0 0 32 32"><defs><linearGradient gradientTransform="matrix(2.59244 0 0 2.58531-157.93-277.73)" id="0" x1="67.894" y1="108.69" x2="67.854" y2="113.11" gradientUnits="userSpaceOnUse"><stop stop-color="#f9f9f9"/><stop offset="1" stop-color="#999"/></linearGradient></defs><g transform="translate(44.42 1.01)"><rect y=".891" x="-42.521" height="28.2" width="28.2" fill="#e9ae55" fill-rule="evenodd" rx="5.575"/><path d="m-30.24 8.493c0 0-1.98-.043-4.078 1.498-2.098 1.541-3.098 4.731-3.098 9.326 0 0 2.224 2.075 5.443 2.176 0 0 .54-.634.977-1.182-1.85-.547-2.551-2.186-2.551-2.186 1.705.953 2.863 1.351 4.631 1.367 1.768-.017 3.926-.414 5.631-1.367 0 0-.701 1.638-2.551 2.186.437.547.977 1.182.977 1.182 3.219-.101 5.443-2.176 5.443-2.176 0-4.595-1-7.785-3.098-9.326-2.098-1.541-4.078-1.498-4.078-1.498l-.146.172c2.622.735 3.816 2.373 3.816 2.373 0 0-.32-.172-.859-.402-1.635-.785-3.635-1.143-5.135-1.143-1.5 0-2.5.358-4.135 1.143-.539.23-.859.402-.859.402 0 0 1.194-1.638 3.816-2.373zm-.676 6c.838 0 1.515.668 1.5 1.5 0 .832-.662 1.5-1.5 1.5-.823 0-1.5-.668-1.5-1.5 0-.832.662-1.5 1.5-1.5m5 0c.838 0 1.5.668 1.5 1.5 0 .832-.677 1.5-1.5 1.5-.838 0-1.5-.668-1.5-1.5-.015-.832.662-1.5 1.5-1.5" fill="#fff"/></g>

   xmlns:dc="http://purl.org/dc/elements/1.1/"
   xmlns:cc="http://creativecommons.org/ns#"
   xmlns:rdf="http://www.w3.org/1999/02/22-rdf-syntax-ns#"
   xmlns:svg="http://www.w3.org/2000/svg"
   xmlns="http://www.w3.org/2000/svg"
   xmlns:xlink="http://www.w3.org/1999/xlink"
   xmlns:sodipodi="http://sodipodi.sourceforge.net/DTD/sodipodi-0.dtd"
   xmlns:inkscape="http://www.inkscape.org/namespaces/inkscape"
   version="1"
   width="32"
   height="32"
   id="svg12"
   sodipodi:docname="snow-top-4.svg"
   inkscape:version="0.92.1 r"&gt;
  <path d="m7.196.009c-8.161-.339-9.231 9.523-3.968 9.505.669.003 1.581-.197 2.929-1.471 3.773-4.147 9.01 4.479 14.696-1.042.61-.911 1.804-1.135 2.455-.627 1.045.677 2.87 2.991 3.88 3 2.359.513 4.095-.198 4.816-3.188.185-3.165-2.303-6.286-6.281-6.17-5.832.133-12.809-.045-18.527-.01" fill="url(#0)"/></svg>