<svg xmlns="http://www.w3.org/2000/svg" viewBox="0 0 32 32" xmlns:xlink="http://www.w3.org/1999/xlink"><defs><linearGradient gradientTransform="matrix(-2.54182 0 0 2.58531 185.47-277.37)" id="1" x1="67.894" y1="108.69" x2="67.854" y2="113.11" gradientUnits="userSpaceOnUse"><stop stop-color="#f9f9f9"/><stop offset="1" stop-color="#999"/></linearGradient></defs><rect width="28.2" height="28.2" x="1.898" y="1.898" fill="#7289da" fill-rule="evenodd" rx="5.575"/><path d="m14.176 9.5c0 0-1.98-.043-4.078 1.498-2.098 1.541-3.098 4.731-3.098 9.326 0 0 2.224 2.075 5.443 2.176 0 0 .54-.634.977-1.182-1.85-.547-2.551-2.186-2.551-2.186 1.705.953 2.863 1.351 4.631 1.367 1.768-.017 3.926-.414 5.631-1.367 0 0-.701 1.638-2.551 2.186.437.547.977 1.182.977 1.182 3.219-.101 5.443-2.176 5.443-2.176 0-4.595-1-7.785-3.098-9.326-2.098-1.541-4.078-1.498-4.078-1.498l-.146.172c2.622.735 3.816 2.373 3.816 2.373 0 0-.32-.172-.859-.402-1.635-.785-3.635-1.143-5.135-1.143-1.5 0-2.5.358-4.135 1.143-.539.23-.859.402-.859.402 0 0 1.194-1.638 3.816-2.373zm-.676 6c.838 0 1.515.668 1.5 1.5 0 .832-.662 1.5-1.5 1.5-.823 0-1.5-.668-1.5-1.5 0-.832.662-1.5 1.5-1.5m5 0c.838 0 1.5.668 1.5 1.5 0 .832-.677 1.5-1.5 1.5-.838 0-1.5-.668-1.5-1.5-.015-.832.662-1.5 1.5-1.5" fill="#fff"/>

   xmlns:dc="http://purl.org/dc/elements/1.1/"
   xmlns:cc="http://creativecommons.org/ns#"
   xmlns:rdf="http://www.w3.org/1999/02/22-rdf-syntax-ns#"
   xmlns:svg="http://www.w3.org/2000/svg"
   xmlns="http://www.w3.org/2000/svg"
   xmlns:xlink="http://www.w3.org/1999/xlink"
   xmlns:sodipodi="http://sodipodi.sourceforge.net/DTD/sodipodi-0.dtd"
   xmlns:inkscape="http://www.inkscape.org/namespaces/inkscape"
   height="32"
   width="32"
   version="1"
   id="svg8"
   sodipodi:docname="snow-top-3.svg"
   inkscape:version="0.92.1 r"&gt;
  <path fill="#00000f" fill-opacity="0" d="m0 0h32v32h-32z" id="0"/><path d="m7.354 6.111c-2.995 2.684-1.381 7.817-3.674 8.291-2.031.613-3.541-1.385-3.66-4.503-.35-8.627 3.911-9.427 6.879-9.524 28.342-2.047 1.762 4.92.455 5.736" fill="url(#1)"/><use xlink:href="#0"/></svg>