<svg xmlns="http://www.w3.org/2000/svg" xmlns:xlink="http://www.w3.org/1999/xlink" viewBox="0 0 32 32"><defs><linearGradient gradientTransform="matrix(-2.54182 0 0 2.58531 185.47-277.37)" id="1" x1="67.894" y1="108.69" x2="67.854" y2="113.11" gradientUnits="userSpaceOnUse"><stop stop-color="#f9f9f9"/><stop offset="1" stop-color="#999"/></linearGradient></defs><rect width="28.2" height="28.2" x="1.898" y="1.898" fill="#ecf0f1" fill-rule="evenodd" rx="5.575"/><g transform="matrix(.76745 0 0 .76745.984 6.161)" stroke-width="1.303"><path d="M17.403087 20.15336A5.611495 5.611495 0 0 1 13.970615 25.392276 5.611495 5.611495 0 0 1 7.824073 24.18889L11.792 20.221" fill="#005ab1"/><path d="m-17.0255-6.02777a5.611495 5.611495 0 0 1 -3.432472 5.238919 5.611495 5.611495 0 0 1 -6.146542 -1.20339l3.968-3.968z" transform="matrix(-.70711-.70711.70711-.70711 0 0)" fill="#00bd9c"/><path d="m11.571259-22.704191a5.611495 5.611495 0 0 1 -1.619332 4.01156 5.611495 5.611495 0 0 1 -3.991756 1.667543v-5.611z" transform="matrix(-.70711.70711-.70711-.70711 0 0)" fill="#f4cc20"/><path d="m25.832048-11.859602a5.611495 5.611495 0 0 1 -1.643161 4.03553l-3.968-3.968z" transform="matrix(0 1-1 0 0 0)" fill="#f44a20"/></g><path fill="#e94b35" d="m6.098 8.721h2.805v6.04h-2.805z"/><path fill="#f4cc20" d="m9.501 9.893h2.804v4.864h-2.804z"/><path fill="#2b3e51" d="m12.903 11.03h2.805v3.727h-2.805z"/><path fill="#00bd9c" d="m16.305 5.497h2.805v9.259h-2.805z"/><path transform="scale(1-1)" fill="#bdc3c7" d="m5.861-16.227h20.08v.57h-20.08z"/><path fill="#004d9c" d="m19.761 7.41h2.805v7.376h-2.805z"/><path fill="#2b9c51" d="m23.12 10.05h2.805v4.732h-2.805z"/><circle cx="17.204" cy="20.867" r=".829" fill="#e94b35"/><circle cx="17.204" cy="22.887" r=".829" fill="#2b9c51"/><g fill="#bdc3c7" transform="scale(1-1)"><path d="m18.585-19.09h7.383v.57h-7.383z"/><path d="m18.585-21.12h4.868v.57h-4.868z"/><path d="m18.585-23.15h5.992v.57h-5.992z"/></g><circle cx="17.204" cy="24.891" r=".829" fill="#2b3e51"/><path transform="scale(1-1)" fill="#bdc3c7" d="m18.585-25.18h4.37v.57h-4.37z"/><circle cx="17.17" cy="18.752" r=".829" fill="#f4cc20"/>

   xmlns:dc="http://purl.org/dc/elements/1.1/"
   xmlns:cc="http://creativecommons.org/ns#"
   xmlns:rdf="http://www.w3.org/1999/02/22-rdf-syntax-ns#"
   xmlns:svg="http://www.w3.org/2000/svg"
   xmlns="http://www.w3.org/2000/svg"
   xmlns:xlink="http://www.w3.org/1999/xlink"
   xmlns:sodipodi="http://sodipodi.sourceforge.net/DTD/sodipodi-0.dtd"
   xmlns:inkscape="http://www.inkscape.org/namespaces/inkscape"
   height="32"
   width="32"
   version="1"
   id="svg8"
   sodipodi:docname="snow-top-3.svg"
   inkscape:version="0.92.1 r"&gt;
  <path fill="#00000f" fill-opacity="0" d="m0 0h32v32h-32z" id="0"/><path d="m7.354 6.111c-2.995 2.684-1.381 7.817-3.674 8.291-2.031.613-3.541-1.385-3.66-4.503-.35-8.627 3.911-9.427 6.879-9.524 28.342-2.047 1.762 4.92.455 5.736" fill="url(#1)"/><use xlink:href="#0"/></svg>