<svg xmlns="http://www.w3.org/2000/svg" xmlns:xlink="http://www.w3.org/1999/xlink" viewBox="0 0 32 32"><defs><linearGradient xlink:href="#3" id="4" gradientUnits="userSpaceOnUse" x1="-23.24" y1="-185.08" x2="-28.704" y2="-186.05"/><linearGradient xlink:href="#3" id="2" gradientUnits="userSpaceOnUse" x1="-34.914" y1="-193.53" x2="-20.469" y2="-181.36"/><linearGradient id="3"><stop stop-color="#ffff5e"/><stop offset="1" stop-color="#f6a32d"/></linearGradient><linearGradient id="1"><stop stop-color="#f9f9f9"/><stop offset="1" stop-color="#999"/></linearGradient><linearGradient xlink:href="#1" id="0" gradientUnits="userSpaceOnUse" x1="-33.14" y1="-185.13" x2="-35.775" y2="-177.2"/><radialGradient xlink:href="#1" id="5" cx="-176.59" cy="-120.91" r="3.01" gradientUnits="userSpaceOnUse" gradientTransform="matrix(2.21087.05719-.05496 2.12455 362.18 94.22)"/></defs><rect width="28.2" height="28.2" x="1.898" y="1.898" fill="#666" fill-rule="evenodd" rx="5.575"/><path d="m23.09988 23.09988a10.04074 10.04074 0 0 1 -7.099878 2.940866v-10.04z" fill="#ee813a"/><path d="M29.727295 7.099878A10.04074 10.04074 0 0 1 22.627417 10.04074 10.04074 10.04074 0 0 1 15.527538 7.099878L22.627 0" transform="matrix(.70711.70711-.70711.70711 0 0)" fill="#fff"/><path d="M7.099878-15.527539A10.04074 10.04074 0 0 1 0 -12.586673V-22.627" transform="matrix(-.70711.70711-.70711-.70711 0 0)" fill="#fad62f"/><path d="m-8.900122-8.900122a10.04074 10.04074 0 0 1 -14.199756 0 10.04074 10.04074 0 0 1 0 -14.199756L-16-16" transform="scale(-1-1)" fill="#97cd78"/><circle cx="16" cy="16" r="3.315" fill="#5aa142"/><g transform="translate(49.877 194.68)"><path d="m-35.21-194.22c-5.577-1.531-5.951 3.24-4.58 5.493 4.381 6.983 6.796 6.577 9.398 7.895 1.712 2.064 3.451 3.4 6.469 4.1 11.69 1.559 3.242-8.417.92-8.649-5.065.012-7.547-6.123-12.206-8.838" fill="url(#0)"/><path d="m-35.21-194.22c3.76.276 5.616-.626 8.93-.421 4.319.283 8.307 2.053 7.838 6.574-.347 2.567-.37 2.25.186 4.296.532 1.535-.252 4.232-.487 4.654-2.715 4.963-1.536 4.965-2.656 7.742l-.906-.418-2.508-11.358c-7.177-.909-10.754-10.11-10.398-11.07" fill="url(#2)"/><path d="m-28.419-184.29c.362.274 1.553-5.105 1.172-5.653 1.379 2.44 1.919 4.616 2.435 6.783-1.276-.283-2.289-.554-3.607-1.13" fill="url(#4)"/><circle r="3.01" cy="-171.07" cx="-21.728" fill="url(#5)"/></g></svg>