<svg xmlns="http://www.w3.org/2000/svg" xmlns:xlink="http://www.w3.org/1999/xlink" viewBox="0 0 32 32"><defs><linearGradient id="4" x1="-178.12" y1="-134.12" x2="-183.59" y2="-135.1" gradientUnits="userSpaceOnUse"><stop stop-color="#7c0000"/><stop offset="1" stop-color="#7c0000" stop-opacity="0"/></linearGradient><linearGradient id="3" x1="-189.8" y1="-142.57" x2="-175.35" y2="-130.4" gradientUnits="userSpaceOnUse"><stop stop-color="#ff383f"/><stop offset="1" stop-color="#a02d26"/></linearGradient><linearGradient id="2"><stop stop-color="#f9f9f9"/><stop offset="1" stop-color="#999"/></linearGradient><linearGradient xlink:href="#2" id="1" x1="-188.02" y1="-134.18" x2="-190.66" y2="-126.24" gradientUnits="userSpaceOnUse"/><radialGradient xlink:href="#2" id="5" cx="-176.59" cy="-120.91" r="3.01" gradientUnits="userSpaceOnUse" gradientTransform="matrix(2.21087.05719-.05496 2.12455 207.3 145.17)"/></defs><g transform="translate(48.982 4.806)"><g fill-rule="evenodd"><path d="m-42.06 25.18v-22.359h-5.02v16.896c0 2.892 2.207 5.173 5.02 5.463" fill="#b7b7b7"/><path d="m-41.51-2.907c-3.089 0-5.574 2.488-5.574 5.576v.156h5.02v22.359c.192.02.358.111.555.111h17.05c3.089 0 5.576-2.486 5.576-5.574v-17.05c0-3.089-2.488-5.576-5.576-5.576z" fill="#920000"/></g><g transform="matrix(1.19176 0 0 1.19176-57.63-5.69)" fill="#f8c44e"><path d="m17 22h2v4h-2z"/><path d="m20 22h2v4h-2z"/><path d="m23 22h2v4h-2z"/><path d="m26 22h2v4h-2z"/></g><path d="m-30.359.901c-1.15.011-2.291.059-2.291.133 0 .071.154.453.34.848.726 1.537 1.234 3.486 1.234 4.734 0 .549-.021.594-.244.561-.194-.029-.303-.215-.545-.934-.47-1.399-1.284-2.914-2.205-4.102-.922-1.188-.629-1.262-2.521.627-1.129 1.127-1.626 1.695-1.533 1.754.075.048.491.224.924.391.433.166 1.03.445 1.326.619.296.174.567.316.602.316.141 0 1.809 1.248 2.168 1.621.303.316.359.432.252.539-.152.152-.116.164-1.793-.576-.573-.253-1.507-.559-2.078-.682-1.135-.244-2.892-.464-3.03-.379-.102.063-.119 4.576-.018 4.678.038.038.314-.052.611-.203 1.55-.785 3.744-1.402 4.992-1.402.476 0 .619.04.619.17 0 .296-.041.325-.842.594-.973.327-1.938.783-2.941 1.389-.962.581-2.172 1.532-2.172 1.707 0 .073.728.86 1.617 1.748l1.617 1.613.227-.51c.124-.281.263-.629.309-.773.256-.811 1.618-2.955 2.459-3.873.37-.403.407-.419.582-.244.175.175.172.214-.066.615-.737 1.241-1.396 3.521-1.531 5.307l-.076 1.023h2.375c1.307 0 2.377-.034 2.377-.074 0-.04-.172-.43-.383-.869-.68-1.418-1.097-2.927-1.254-4.535-.069-.71-.054-.814.105-.814.101 0 .216-.004.258-.008.042-.004.236.44.432.984.445 1.24.936 2.212 1.66 3.293.731 1.091 1.223 1.681 1.406 1.684.19.003 3.304-3.127 3.23-3.246-.031-.05-.296-.18-.592-.291-1.47-.552-3.132-1.528-4.273-2.512-.553-.476-.576-.519-.404-.709.176-.194.208-.189.813.125 1.544.803 3.215 1.265 5.143 1.422l.938.074v-2.375c0-1.306-.026-2.375-.059-2.375-.033 0-.35.147-.703.324-1.435.721-3.803 1.361-5.03 1.361-.446 0-.5-.027-.498-.252.002-.214.128-.296.814-.521 1.514-.499 3.201-1.395 4.238-2.254.278-.23.621-.479.76-.553.139-.074.252-.193.252-.264 0-.138-3.139-3.348-3.273-3.348-.045 0-.188.291-.32.646-.542 1.46-2.02 3.862-2.834 4.611-.252.232-.296.24-.43.078-.126-.152-.087-.31.252-1.043.678-1.466.757-1.686.988-2.754.231-1.068.452-2.878.369-3.03-.041-.073-1.2-.099-2.35-.088m-.828124 6.958967a1.694335 1.694335 0 0 1 1.693359 1.69336 1.694335 1.694335 0 0 1 -1.693359 1.695312 1.694335 1.694335 0 0 1 -1.695313 -1.695313 1.694335 1.694335 0 0 1 1.695313 -1.693359" fill="#b7b7b7" stroke-width=".112"/></g><path d="m32 .157l-.27 2.221-.122-2.378" fill="#f9f9f9" id="0"/><use xlink:href="#0"/><path d="m32 .113l-.27 1.6-.122-1.713" fill="#f9f9f9"/><g transform="matrix(-1 0 0 1-172.76 143.72)"><path d="m-190.09-143.27c-5.577-1.531-5.951 3.24-4.58 5.493 4.381 6.983 6.796 6.577 9.398 7.895 1.712 2.064 3.451 3.4 6.469 4.1 11.69 1.559 3.242-8.417.92-8.649-5.065.012-7.547-6.123-12.206-8.838" fill="url(#1)"/><path d="m-190.09-143.27c3.76.276 5.616-.626 8.93-.421 4.319.283 8.307 2.053 7.838 6.574-.347 2.567-.37 2.25.186 4.296.532 1.535-.252 4.232-.487 4.654-2.715 4.963-1.536 4.965-2.656 7.742l-.906-.418-2.508-11.358c-7.177-.909-10.754-10.11-10.398-11.07" fill="url(#3)"/><path d="m-183.3-133.33c.362.274 1.553-5.105 1.172-5.653 1.379 2.44 1.919 4.616 2.435 6.783-1.276-.283-2.289-.554-3.607-1.13" fill="url(#4)"/><circle r="3.01" cy="-120.11" cx="-176.61" fill="url(#5)"/></g></svg>