<svg xmlns="http://www.w3.org/2000/svg" viewBox="0 0 32 32"><rect width="28.2" height="28.2" x="1.898" y="1.898" fill="#3e50b4" fill-rule="evenodd" rx="5.575"/><g transform="translate(44.61-.677)"><path d="m-27.02 8.03c-1.672.233-3.468 1.112-4.93 3.712-3.342 5.942-3.104 8.01-3.637 8.678-.535.666-1.975 1.027-1.767 1.783.354.71.477.789.477.789 0 0 2.046 3.16 8.147 2.306 6.101-.853 6.947-2.244 6.891-2.935-.055-.691-1.343-1.195-1.343-1.195 0 0-.953-3.629-.708-5.119.245-1.491 1.174-3.663 2.093-4.13.916-.472 1.375 1.579 1.848 1.073.472-.507-.785-3.493-2.319-4.382-1.228-.834-2.582-.754-4.753-.577" fill="#fff" stroke-width=".584"/><g transform="matrix(.44273 0 0 .41453-39.21 6.947)" fill="#ffbe4b"><path d="m22.09 17.17l3.882-.223 2.055-3.336 1.41 3.805 3.74 1.443-2.884 2.485-.063 4.03-3.061-2.116-4.094 1.424 1.147-3.911"/><path d="m21.507 29.3l3.648-1.449 1.045-3.849 2.387 3.173 3.968.185-2.067 3.293 1.045 3.873-3.5-1.036-3.517 2.67.023-4.102"/><path d="m12.06 24.2l3.876.314 2.426-3.035.953 3.966 3.54 1.948-3.151 2.067-.536 3.99-2.78-2.51-4.231.851 1.593-3.718"/></g></g>

   xmlns:dc="http://purl.org/dc/elements/1.1/"
   xmlns:cc="http://creativecommons.org/ns#"
   xmlns:rdf="http://www.w3.org/1999/02/22-rdf-syntax-ns#"
   xmlns:svg="http://www.w3.org/2000/svg"
   xmlns="http://www.w3.org/2000/svg"
   xmlns:sodipodi="http://sodipodi.sourceforge.net/DTD/sodipodi-0.dtd"
   xmlns:inkscape="http://www.inkscape.org/namespaces/inkscape"
   height="32"
   width="32"
   version="1"
   id="svg8"
   sodipodi:docname="star-mime-2.svg"
   inkscape:version="0.92.1 r"&gt;
  <g transform="translate(152.47 194.05)" fill="#fff"><path d="m-125.38-193.25l-.077 3.548 3.072 1.831-3.548-.077-3.135 6.791 1.38-7.268-3.072-1.831 3.548.077z"/><path d="m-125.41-183.04l.042-1.955-1.692-1.01 1.955.042 1.727-3.741-.76 4 1.692 1.01-1.955-.042z"/></g></svg>