<svg xmlns="http://www.w3.org/2000/svg" viewBox="0 0 32 32"><defs><linearGradient gradientTransform="matrix(-2.65552 0 0 2.58531 193.77-277.73)" id="0" x1="67.894" y1="108.69" x2="67.854" y2="113.11" gradientUnits="userSpaceOnUse"><stop stop-color="#f9f9f9"/><stop offset="1" stop-color="#999"/></linearGradient></defs><path d="m7.473 1.898c-3.089 0-5.574 2.486-5.574 5.574v8.916h28.2v-8.916c0-3.089-2.486-5.574-5.574-5.574z" fill="#8e8e8e" fill-rule="evenodd"/><g stroke-width=".635"><path fill="#e6e6e6" d="m7.108 6.797h17.79v10.657h-17.79z"/><g fill="#808080"><path d="m8.887 11.06h4.447v3.197h-4.447z"/><path d="m18.671 11.06h4.447v3.197h-4.447z"/></g></g><path d="m30.1 16.389h-28.2v8.139c0 3.089 2.486 5.574 5.574 5.574h17.05c3.089 0 5.574-2.486 5.574-5.574z" fill="#505686" fill-rule="evenodd"/><g fill="#808080" stroke-width=".635"><rect width="17.05" height="2.131" x="7.477" y="20.651" rx="1.066"/><rect width="12.789" height="2.131" x="9.608" y="24.914" rx="1.066"/></g>

   xmlns:dc="http://purl.org/dc/elements/1.1/"
   xmlns:cc="http://creativecommons.org/ns#"
   xmlns:rdf="http://www.w3.org/1999/02/22-rdf-syntax-ns#"
   xmlns:svg="http://www.w3.org/2000/svg"
   xmlns="http://www.w3.org/2000/svg"
   xmlns:xlink="http://www.w3.org/1999/xlink"
   xmlns:sodipodi="http://sodipodi.sourceforge.net/DTD/sodipodi-0.dtd"
   xmlns:inkscape="http://www.inkscape.org/namespaces/inkscape"
   version="1"
   width="32"
   height="32"
   id="svg12"
   sodipodi:docname="snow-top-3.svg"
   inkscape:version="0.92.1 r"&gt;
  <path d="m24.627.009c8.36-.339 9.455 9.523 4.064 9.505-.686.003-1.62-.197-3-1.471-14.665-10.216-14.549 2.967-17.708.875-1.727-1.822-1.743 4.653-4.139 5.127-2.122.613-3.699-1.385-3.824-4.503-.366-8.627 4.086-9.427 7.187-9.524 5.974.133 11.562-.045 17.419-.01" fill="url(#0)"/></svg>