<svg xmlns="http://www.w3.org/2000/svg" xmlns:xlink="http://www.w3.org/1999/xlink" viewBox="0 0 32 32"><defs><rect id="1" width="5.622" x="-46.558" y="5.715" rx=".878" height="14.05" fill="#e5e5e5" fill-rule="evenodd"/><rect id="2" width="3.478" x="-45.49" y="14.938" rx=".241" height=".901" fill="#585858" fill-rule="evenodd"/><rect id="3" width="3.478" x="-45.49" y="17.779" rx=".241" height=".901" fill="#585858" fill-rule="evenodd"/><linearGradient gradientTransform="matrix(2.62891 0 0 2.71269-160.16-291.42)" id="0" x1="67.894" y1="108.69" x2="67.854" y2="113.11" gradientUnits="userSpaceOnUse"><stop stop-color="#f9f9f9"/><stop offset="1" stop-color="#999"/></linearGradient></defs><g fill-rule="evenodd"><rect width="28.2" height="28.2" x="1.898" y="1.898" fill="#61b0dd" rx="5.575"/><path d="m20.693 30.1h3.834c3.089 0 5.574-2.486 5.574-5.574v-17.05c0-3.089-2.486-5.574-5.574-5.574h-3.834v28.2" fill="#e89800"/><path d="m11.307 1.898h-3.834c-3.089 0-5.574 2.486-5.574 5.574v17.05c0 3.089 2.486 5.574 5.574 5.574h3.834v-28.2" fill="#bd1c1c"/></g><g transform="translate(-.071 27.11)"><g transform="translate(50.39-27.939)"><use xlink:href="#1"/><g fill-rule="evenodd"><circle cx="-43.747" cy="25.523" r="2.416" fill="#e5e5e5"/><g fill="#585858"><circle cx="-43.747" cy="25.523" r="1.636"/><rect width="3.478" height="2.298" x="-45.49" y="6.806" rx=".615"/></g></g><use xlink:href="#2"/><rect width="3.478" height=".901" x="-45.49" y="16.382" fill="#585858" fill-rule="evenodd" rx=".241"/><use xlink:href="#3"/></g><g transform="translate(59.818-27.939)"><use xlink:href="#1"/><g fill-rule="evenodd"><circle cx="-43.747" cy="25.523" r="2.416" fill="#e5e5e5"/><g fill="#585858"><circle cx="-43.747" cy="25.523" r="1.636"/><rect width="3.478" height="2.298" x="-45.49" y="6.806" rx=".615"/></g></g><use xlink:href="#2"/><rect width="3.478" height=".901" x="-45.49" y="16.382" fill="#585858" fill-rule="evenodd" rx=".241" id="4"/><use xlink:href="#3"/></g><g transform="translate(69.25-27.939)"><use xlink:href="#1"/><g fill-rule="evenodd"><circle cx="-43.747" cy="25.523" r="2.416" fill="#e5e5e5"/><g fill="#585858"><circle cx="-43.747" cy="25.523" r="1.636"/><rect width="3.478" height="2.298" x="-45.49" y="6.806" rx=".615"/></g></g><use xlink:href="#2"/><use xlink:href="#4"/><use xlink:href="#3"/></g></g>

   xmlns:dc="http://purl.org/dc/elements/1.1/"
   xmlns:cc="http://creativecommons.org/ns#"
   xmlns:rdf="http://www.w3.org/1999/02/22-rdf-syntax-ns#"
   xmlns:svg="http://www.w3.org/2000/svg"
   xmlns="http://www.w3.org/2000/svg"
   xmlns:xlink="http://www.w3.org/1999/xlink"
   xmlns:sodipodi="http://sodipodi.sourceforge.net/DTD/sodipodi-0.dtd"
   xmlns:inkscape="http://www.inkscape.org/namespaces/inkscape"
   version="1"
   width="32"
   height="32"
   id="svg12"
   sodipodi:docname="snow-top-1.svg"
   inkscape:version="0.92.1 r"&gt;
  <path d="m7.288.009c-8.276-.356-9.36 9.992-4.02 9.973.679.003 1.604-.207 2.97-1.543 7.256-10.531 14.706 3.573 17.53.919 1.71-1.912 3.496-.418 4.448.115 2.1.643 3.662.041 3.785-3.231.188-3.321-1.889-6.344-5.923-6.223-5.914.14-12.989-.047-18.787-.01" fill="url(#0)"/><path fill="#f00" fill-opacity="0" d="m0 0h32v32h-32z"/></svg>