<svg xmlns="http://www.w3.org/2000/svg" viewBox="0 0 32 32"><defs><linearGradient gradientTransform="matrix(2.62891 0 0 2.71269-160.16-291.42)" id="0" x1="67.894" y1="108.69" x2="67.854" y2="113.11" gradientUnits="userSpaceOnUse"><stop stop-color="#f9f9f9"/><stop offset="1" stop-color="#999"/></linearGradient></defs><rect width="28.2" height="28.2" x="1.898" y="1.898" fill="#03cd38" fill-rule="evenodd" rx="5.575"/><g transform="translate(.099-.279)" fill="#fff"><path d="m19.25 23.368c-1.08-.19-1.992-.961-2.339-1.977-.069-.202-.146-.563-.146-.688-.001-.201.05-.166-1.609-1.082l-1.576-.87-.161.089c-.65.358-1.576.429-2.306.179-1.214-.416-2.036-1.561-2.036-2.837 0-1.275.822-2.421 2.034-2.836.728-.249 1.545-.195 2.248.148l.286.14 1.539-.809c.846-.445 1.548-.824 1.56-.843.012-.018.022-.08.022-.137.001-.361.246-1.024.521-1.411.943-1.329 2.749-1.676 4.094-.785.883.584 1.383 1.564 1.338 2.62-.066 1.546-1.283 2.782-2.819 2.861-.544.028-1.021-.073-1.494-.316l-.24-.124-1.44.757c-.792.417-1.429.767-1.417.779.012.012.671.38 1.465.818l1.442.796.165-.083c.48-.243.826-.321 1.393-.318.537.003.833.072 1.295.304 1.637.82 2.161 2.887 1.113 4.393-.288.413-.811.84-1.26 1.027-.519.216-1.167.296-1.673.207"/><path d="m20.262 22.667c.4-.086.87-.358 1.159-.67.849-.917.844-2.273-.012-3.174-.571-.602-1.378-.846-2.187-.662-.221.05-.406.128-.68.286-.187.107-.231.122-.334.11-.089-.01-.556-.255-1.846-.967-.95-.524-1.766-.977-1.812-1.01-.118-.072-.165-.175-.165-.358 0-.198.052-.322.165-.391.049-.03.865-.463 1.814-.961 1.919-1.01 1.843-.978 2.074-.821.471.319 1.025.46 1.551.393.557-.07.968-.269 1.362-.66.377-.373.567-.727.664-1.239.134-.708-.083-1.433-.594-1.985-.29-.314-.751-.579-1.173-.676-.298-.068-.783-.063-1.073.012-.653.169-1.23.64-1.516 1.237-.141.293-.198.517-.226.89-.017.229-.036.318-.078.376-.084.115-3.54 1.93-3.712 1.949-.117.013-.149.001-.388-.142-.732-.441-1.592-.455-2.34-.036-.284.159-.696.571-.855.855-.287.513-.375 1.054-.262 1.604.242 1.171 1.318 1.978 2.471 1.852.391-.043.656-.131 1-.333.138-.081.226-.114.303-.114.09 0 .392.156 1.783.923.921.508 1.746.965 1.832 1.017.204.122.247.211.247.516.001.795.485 1.573 1.228 1.97.487.261 1.027.331 1.6.207"/></g>

   xmlns:dc="http://purl.org/dc/elements/1.1/"
   xmlns:cc="http://creativecommons.org/ns#"
   xmlns:rdf="http://www.w3.org/1999/02/22-rdf-syntax-ns#"
   xmlns:svg="http://www.w3.org/2000/svg"
   xmlns="http://www.w3.org/2000/svg"
   xmlns:xlink="http://www.w3.org/1999/xlink"
   xmlns:sodipodi="http://sodipodi.sourceforge.net/DTD/sodipodi-0.dtd"
   xmlns:inkscape="http://www.inkscape.org/namespaces/inkscape"
   version="1"
   width="32"
   height="32"
   id="svg12"
   sodipodi:docname="snow-top-1.svg"
   inkscape:version="0.92.1 r"&gt;
  <path d="m7.288.009c-8.276-.356-9.36 9.992-4.02 9.973.679.003 1.604-.207 2.97-1.543 7.256-10.531 14.706 3.573 17.53.919 1.71-1.912 3.496-.418 4.448.115 2.1.643 3.662.041 3.785-3.231.188-3.321-1.889-6.344-5.923-6.223-5.914.14-12.989-.047-18.787-.01" fill="url(#0)"/><path fill="#f00" fill-opacity="0" d="m0 0h32v32h-32z"/></svg>