<svg xmlns="http://www.w3.org/2000/svg" viewBox="0 0 32 32" xmlns:xlink="http://www.w3.org/1999/xlink"><defs><linearGradient gradientTransform="matrix(-2.54182 0 0 2.58531 185.47-277.37)" id="1" x1="67.894" y1="108.69" x2="67.854" y2="113.11" gradientUnits="userSpaceOnUse"><stop stop-color="#f9f9f9"/><stop offset="1" stop-color="#999"/></linearGradient></defs><rect width="28.2" height="28.2" x="1.898" y="1.898" fill="#0286c2" fill-rule="evenodd" rx="5.575"/><g transform="translate(43.86-.356)"><path d="m-16.379 23.687c-.227-1.14-.646-1.927-1.611-2.367-.008-4.712-1.378-9.943-5.758-12.384.35-.152 1.482-.387 1.831-.451.261-.048.478-.21.582-.434.104-.224.08-.48-.063-.685-.136-.194-1.11-.664-2.469-.829-1.527-.068-2.349-.068-4.343.333-1.057.361-1.57.411-2.164.469-.505.049-1.078.105-1.988.339-2.621.672-3.853 1.739-4.553 2.439-.546.546-.848 1.658-.818 2.11-.13.066-.117.077-.26.152-.96.507-1.293.743-1.37 1.147-.057.298.047.493.293.76.396.371.621.408 1.243.408.983-.153 1.796-.473 2.797-.781.594-.058 1.106.046 2 .222 1.161.269 2.403.571 3.433.559.199.376.531 1.08 1.065 1.721 1.393 1.672 3.02 1.568 3.186 1.569.301.004.541.013.68-.234.139-.248.115-.543-.064-.768-.145-.184-.67-.475-.812-1.231-.041-.215-.023-.397-.019-.569 1.855.544 4.717 2.201 5.094 4.01l.012 1.296c-.005 0 .005 0 0 0-.085-.003-.267-.004-.397-.004-.337 0-.703.034-1.116.1-1.344.214-2.29 1.01-2.381 1.106 0 0-.261.208-.11.473.15.263.447.418.77.393h.015c2.054.286 4.826 1.579 5.67 3.229.132.263.418.43.731.43.02 0 .04-.001.06-.002.336-.023.62-.235.713-.531.024-.076.231-1.02.117-1.99" fill="#f9f9f9"/><circle r=".823" cy="11.404" cx="-35.26" fill="#0286c2"/></g>   xmlns:dc="http://purl.org/dc/elements/1.1/"
   xmlns:cc="http://creativecommons.org/ns#"
   xmlns:rdf="http://www.w3.org/1999/02/22-rdf-syntax-ns#"
   xmlns:svg="http://www.w3.org/2000/svg"
   xmlns="http://www.w3.org/2000/svg"
   xmlns:xlink="http://www.w3.org/1999/xlink"
   xmlns:sodipodi="http://sodipodi.sourceforge.net/DTD/sodipodi-0.dtd"
   xmlns:inkscape="http://www.inkscape.org/namespaces/inkscape"
   height="32"
   width="32"
   version="1"
   id="svg8"
   sodipodi:docname="snow-top-3.svg"
   inkscape:version="0.92.1 r"&gt;
  <path fill="#00000f" fill-opacity="0" d="m0 0h32v32h-32z" id="0"/><path d="m7.354 6.111c-2.995 2.684-1.381 7.817-3.674 8.291-2.031.613-3.541-1.385-3.66-4.503-.35-8.627 3.911-9.427 6.879-9.524 28.342-2.047 1.762 4.92.455 5.736" fill="url(#1)"/><use xlink:href="#0"/></svg>