<svg xmlns="http://www.w3.org/2000/svg" viewBox="0 0 32 32.000001"><defs><linearGradient gradientTransform="matrix(2.59244 0 0 2.58531-157.93-277.73)" id="0" x1="67.894" y1="108.69" x2="67.854" y2="113.11" gradientUnits="userSpaceOnUse"><stop stop-color="#f9f9f9"/><stop offset="1" stop-color="#999"/></linearGradient></defs><rect width="28.2" height="28.2" x="1.898" y="1.898" fill="#8bc1d6" fill-rule="evenodd" rx="5.575"/><g transform="translate(49.553 1.789)"><path d="m-27.55 16.13c.551 3.847-2.199 9.165-3.11 8.898-.309.363-6.01-3.134-6.675-6.913-.062-.353-1.645-2.822-.92-2.051 1.032 1.097-1.066-2.168-.599-3.172.689-1.482 4.514-1.699 6.305-1.699 1.635 0 3.551-.743 4.372.192.689.784.388 3.08.627 4.746" fill="#fff"/><g fill="#4f4f4f"><path d="m-32.391 21.851c0-.107.233-.241.957-.549.334-.142.448-.155.525-.062.054.065.081.141.058.168-.038.045-1.414.547-1.501.547-.022 0-.04-.046-.04-.104"/><path d="m-32.03 20.552c-.394-.168-.503-.421-.13-.3.599.194.619.161.574-.925-.028-.679.001-.993.086-.925.071.057.151.6.178 1.207.053 1.213.022 1.255-.707.943"/><path d="m-40.28 16.797c-.37-.252-.671-.479-.671-.503.001-.025.192-.201.426-.392.404-.331.459-.622.458-.851-.001-.124-1.5-2.194-2.435-3.363-.362-.453-.684-.895-.716-.982-.036-.099.01-.247.12-.391.37-.483.996-1.252 1.341-1.913.343-.656.754-1.195.824-1.08.102.166.205.062 1.019-1.027.818-1.094 1.488-2.116 1.652-2.116.185 0 .108.184-.243.584-.628.67-.823 1.596-.825 2.201-.055 1.142.874 1.964 1.885 2.429 1.295.305 2.5.169 2.728-.913.189-.899-.447-1.451-1.183-1.672-.18.082-.701.633-.867 1.158-.058.183-.224.115-.224-.091 0-.43.485-1.528.743-1.996.361-.657.756-.689 1.08-.624.181.036.318-.077.482-.207l.23-.181c.8.588 1.696 1.02 2.55 1.517.958.681 1.88 1.066 1.89 1.163.006.057.002.06-.009.478-.019.725-.011.76.166.76.359 0 .721-.201 1.2-.78.839-1.013.948-1.022.948-1.873.061-.651-.797-2.045-1.335-1.523-.225.226-.487 1.021-.405 1.233.055.143.4.242.59.169.2-.077.167.082-.058.287-.296.269-.618.315-.855.123-.293-.238-.372-1.183-.15-1.79.211-.576.967-1.188 1.125-1.249.178-.069.379.074 1.093 1.012 1.15 1.73 2.404 3.279 3.526 4.931.14.204.275.504.301.665.044.269-.009.358-.623 1.061-1.01 1.158-1.691 2.097-1.691 2.334 0 .256.523.463.982.534.332.051.551.165.551.286-.545.744-2.697 3.782-2.956 3.575-.025-.041-.068-.53-.094-1.086-.199-1.506-.27-2.318-.446-3.788-.053-.287-.061-.291-.411-.243-.859.119-1.916.186-2.76.327-.682.113-1.278.59-1.556.441-.285-.153-1.784-.423-2.674-.534-2.627-.329-2.196-.273-2.196.05l.575 4.658c0 0 .276 1.251.045 1.251-1.253-.478-2.172-1.388-3.147-2.061z"/><circle cx="-33.94" r=".774" cy="18.08"/><path d="m-36.05 16.534c-.056 0-.091.008-.103.013-.042.027-.084.187-.093.355l-.017.305 1.068.052c.601.051 1.27.065 1.835.026.199 0 .221-.015.174-.117-.127-.271-.328-.427-.568-.441-.132-.008-.708-.063-1.28-.122-.491-.051-.848-.076-1.015-.072"/><path d="m-31.431 15.759c-.076 0-.122.008-.133.016-.041.038-.062.222-.048.41.024.309.045.339.236.326.532.027 1.068.022 1.61.022.425-.017.948-.287 1.247-.433 0-.043-.04-.079-.09-.079-.05 0-.718-.071-1.485-.158-.615-.07-1.109-.107-1.337-.105"/><circle cy="17.308" cx="-30.842" r=".774"/></g></g>

   xmlns:dc="http://purl.org/dc/elements/1.1/"
   xmlns:cc="http://creativecommons.org/ns#"
   xmlns:rdf="http://www.w3.org/1999/02/22-rdf-syntax-ns#"
   xmlns:svg="http://www.w3.org/2000/svg"
   xmlns="http://www.w3.org/2000/svg"
   xmlns:xlink="http://www.w3.org/1999/xlink"
   xmlns:sodipodi="http://sodipodi.sourceforge.net/DTD/sodipodi-0.dtd"
   xmlns:inkscape="http://www.inkscape.org/namespaces/inkscape"
   version="1"
   width="32"
   height="32"
   id="svg12"
   sodipodi:docname="snow-top-4.svg"
   inkscape:version="0.92.1 r"&gt;
  <path d="m7.196.009c-8.161-.339-9.231 9.523-3.968 9.505.669.003 1.581-.197 2.929-1.471 3.773-4.147 9.01 4.479 14.696-1.042.61-.911 1.804-1.135 2.455-.627 1.045.677 2.87 2.991 3.88 3 2.359.513 4.095-.198 4.816-3.188.185-3.165-2.303-6.286-6.281-6.17-5.832.133-12.809-.045-18.527-.01" fill="url(#0)"/></svg>