<svg xmlns="http://www.w3.org/2000/svg" viewBox="0 0 32 32.000001" xmlns:xlink="http://www.w3.org/1999/xlink"><defs><linearGradient xlink:href="#3" id="4" gradientUnits="userSpaceOnUse" x1="-23.24" y1="-185.08" x2="-28.704" y2="-186.05"/><linearGradient xlink:href="#3" id="2" gradientUnits="userSpaceOnUse" x1="-34.914" y1="-193.53" x2="-20.469" y2="-181.36"/><linearGradient id="3"><stop stop-color="#ffff5e"/><stop offset="1" stop-color="#f6a32d"/></linearGradient><linearGradient id="1"><stop stop-color="#f9f9f9"/><stop offset="1" stop-color="#999"/></linearGradient><linearGradient xlink:href="#1" id="0" gradientUnits="userSpaceOnUse" x1="-33.14" y1="-185.13" x2="-35.775" y2="-177.2"/><radialGradient xlink:href="#1" id="5" cx="-176.59" cy="-120.91" r="3.01" gradientUnits="userSpaceOnUse" gradientTransform="matrix(2.21087.05719-.05496 2.12455 362.18 94.22)"/></defs><rect width="28.2" height="28.2" x="1.898" y="1.898" fill="#fec786" fill-rule="evenodd" rx="5.575"/><g transform="translate(49.553 1.789)"><path d="m-27.55 16.13c.551 3.847-2.199 9.165-3.11 8.898-.309.363-6.01-3.134-6.675-6.913-.062-.353-1.645-2.822-.92-2.051 1.032 1.097-1.066-2.168-.599-3.172.689-1.482 4.514-1.699 6.305-1.699 1.635 0 3.551-.743 4.372.192.689.784.388 3.08.627 4.746" fill="#fff"/><g fill="#4f4f4f"><path d="m-32.391 21.851c0-.107.233-.241.957-.549.334-.142.448-.155.525-.062.054.065.081.141.058.168-.038.045-1.414.547-1.501.547-.022 0-.04-.046-.04-.104"/><path d="m-32.03 20.552c-.394-.168-.503-.421-.13-.3.599.194.619.161.574-.925-.028-.679.001-.993.086-.925.071.057.151.6.178 1.207.053 1.213.022 1.255-.707.943"/><path d="m-40.28 16.797c-.37-.252-.671-.479-.671-.503.001-.025.192-.201.426-.392.404-.331.459-.622.458-.851-.001-.124-1.5-2.194-2.435-3.363-.362-.453-.684-.895-.716-.982-.036-.099.01-.247.12-.391.37-.483.996-1.252 1.341-1.913.343-.656.754-1.195.824-1.08.102.166.205.062 1.019-1.027.818-1.094 1.488-2.116 1.652-2.116.185 0 .108.184-.243.584-.628.67-.823 1.596-.825 2.201-.055 1.142.874 1.964 1.885 2.429 1.295.305 2.5.169 2.728-.913.189-.899-.447-1.451-1.183-1.672-.18.082-.701.633-.867 1.158-.058.183-.224.115-.224-.091 0-.43.485-1.528.743-1.996.361-.657.756-.689 1.08-.624.181.036.318-.077.482-.207l.23-.181c.8.588 1.696 1.02 2.55 1.517.958.681 1.88 1.066 1.89 1.163.006.057.002.06-.009.478-.019.725-.011.76.166.76.359 0 .721-.201 1.2-.78.839-1.013.948-1.022.948-1.873.061-.651-.797-2.045-1.335-1.523-.225.226-.487 1.021-.405 1.233.055.143.4.242.59.169.2-.077.167.082-.058.287-.296.269-.618.315-.855.123-.293-.238-.372-1.183-.15-1.79.211-.576.967-1.188 1.125-1.249.178-.069.379.074 1.093 1.012 1.15 1.73 2.404 3.279 3.526 4.931.14.204.275.504.301.665.044.269-.009.358-.623 1.061-1.01 1.158-1.691 2.097-1.691 2.334 0 .256.523.463.982.534.332.051.551.165.551.286-.545.744-2.697 3.782-2.956 3.575-.025-.041-.068-.53-.094-1.086-.199-1.506-.27-2.318-.446-3.788-.053-.287-.061-.291-.411-.243-.859.119-1.916.186-2.76.327-.682.113-1.278.59-1.556.441-.285-.153-1.784-.423-2.674-.534-2.627-.329-2.196-.273-2.196.05l.575 4.658c0 0 .276 1.251.045 1.251-1.253-.478-2.172-1.388-3.147-2.061z"/><circle cx="-33.94" r=".774" cy="18.08"/><path d="m-36.05 16.534c-.056 0-.091.008-.103.013-.042.027-.084.187-.093.355l-.017.305 1.068.052c.601.051 1.27.065 1.835.026.199 0 .221-.015.174-.117-.127-.271-.328-.427-.568-.441-.132-.008-.708-.063-1.28-.122-.491-.051-.848-.076-1.015-.072"/><path d="m-31.431 15.759c-.076 0-.122.008-.133.016-.041.038-.062.222-.048.41.024.309.045.339.236.326.532.027 1.068.022 1.61.022.425-.017.948-.287 1.247-.433 0-.043-.04-.079-.09-.079-.05 0-.718-.071-1.485-.158-.615-.07-1.109-.107-1.337-.105"/><circle cy="17.308" cx="-30.842" r=".774"/></g></g><g transform="translate(49.877 194.68)"><path d="m-35.21-194.22c-5.577-1.531-5.951 3.24-4.58 5.493 4.381 6.983 6.796 6.577 9.398 7.895 1.712 2.064 3.451 3.4 6.469 4.1 11.69 1.559 3.242-8.417.92-8.649-5.065.012-7.547-6.123-12.206-8.838" fill="url(#0)"/><path d="m-35.21-194.22c3.76.276 5.616-.626 8.93-.421 4.319.283 8.307 2.053 7.838 6.574-.347 2.567-.37 2.25.186 4.296.532 1.535-.252 4.232-.487 4.654-2.715 4.963-1.536 4.965-2.656 7.742l-.906-.418-2.508-11.358c-7.177-.909-10.754-10.11-10.398-11.07" fill="url(#2)"/><path d="m-28.419-184.29c.362.274 1.553-5.105 1.172-5.653 1.379 2.44 1.919 4.616 2.435 6.783-1.276-.283-2.289-.554-3.607-1.13" fill="url(#4)"/><circle r="3.01" cy="-171.07" cx="-21.728" fill="url(#5)"/></g></svg>