<svg xmlns="http://www.w3.org/2000/svg" viewBox="0 0 32 32"><defs><linearGradient gradientTransform="matrix(2.54182 0 0 2.58531-153.47-277.37)" id="0" x1="67.894" y1="108.69" x2="67.854" y2="113.11" gradientUnits="userSpaceOnUse"><stop stop-color="#f9f9f9"/><stop offset="1" stop-color="#999"/></linearGradient></defs><rect width="28.2" height="28.2" x="1.898" y="1.898" fill="#b76728" fill-rule="evenodd" rx="5.575"/><rect rx="2.546" height="21.895" width="21.895" y="5.05" x="5.05" fill="#4d4d4d"/><path d="m6.877 7.789v.912h.912v5.474h-.912v.912h4.561v-.912h.912v-5.474h-.912v-.912m2.737 0v.912h-.912v5.474h.912v.912h3.649v-.912h.912v-5.474h-.912v-.912m2.737 0v.912h-.912v1.825h.912v.912h1.825v.912h.912v1.825h-1.825v-1.825h-1.825v1.825h.912v.912h3.649v-.912h.912v-1.825h-.912v-.912h-.912v-.912h-1.825v-1.825h1.825v1.825h1.825v-1.825h-.912v-.912m-14.596.912h.912v5.474h-.912m5.474-5.474h1.825v5.474h-1.825m-8.211 2.737v.912h.912v5.474h-.912v.912h4.561v-.912h.912v-2.737h-.912v-.912h.912v-1.825h-.912v-.912zm7.298 0v.912h-.912v5.474h.912v.912h3.649v-.912h.912v-5.474h-.912v-.912zm4.561 0v.912h.912v1.825h.912v1.825h-.912v1.825h-.912v.912h1.825v-.912h.912v-.912h.912v.912h.912v.912h1.825v-.912h-.912v-1.825h-.912v-1.825h.912v-1.825h.912v-.912h-1.825v.912h-.912v.912h-.912v-.912h-.912v-.912zm-9.123.912h.912v1.825h-.912m5.474-1.825h1.825v5.474h-1.825zm-5.474 2.737h.912v2.737h-.912" fill="#ccc"/>

   xmlns:dc="http://purl.org/dc/elements/1.1/"
   xmlns:cc="http://creativecommons.org/ns#"
   xmlns:rdf="http://www.w3.org/1999/02/22-rdf-syntax-ns#"
   xmlns:svg="http://www.w3.org/2000/svg"
   xmlns="http://www.w3.org/2000/svg"
   xmlns:xlink="http://www.w3.org/1999/xlink"
   xmlns:sodipodi="http://sodipodi.sourceforge.net/DTD/sodipodi-0.dtd"
   xmlns:inkscape="http://www.inkscape.org/namespaces/inkscape"
   height="32"
   width="32"
   version="1"
   id="svg8"
   sodipodi:docname="snow-top-2.svg"
   inkscape:version="0.92.1 r"&gt;
  <path d="m24.646 6.111c2.995 2.684 1.381 7.817 3.674 8.291 2.031.613 3.541-1.385 3.66-4.503.35-8.627-3.911-9.427-6.879-9.524-28.342-2.047-1.762 4.92-.455 5.736" fill="url(#0)"/></svg>