<svg xmlns="http://www.w3.org/2000/svg" xmlns:xlink="http://www.w3.org/1999/xlink" viewBox="0 0 32 32"><defs><linearGradient xlink:href="#3" id="4" x1="-227.98" y1="-131.26" x2="-234.8" y2="-134.14" gradientUnits="userSpaceOnUse"/><linearGradient xlink:href="#3" id="2" x1="-241.01" y1="-141.61" x2="-226.57" y2="-129.44" gradientUnits="userSpaceOnUse"/><linearGradient id="3"><stop stop-color="#13a9ea"/><stop offset="1" stop-color="#372db5"/></linearGradient><linearGradient id="1"><stop stop-color="#f9f9f9"/><stop offset="1" stop-color="#999"/></linearGradient><linearGradient xlink:href="#1" id="0" x1="-239.23" y1="-133.21" x2="-241.87" y2="-125.28" gradientUnits="userSpaceOnUse"/><radialGradient xlink:href="#1" id="5" cx="-176.59" cy="-120.91" r="3.01" gradientUnits="userSpaceOnUse" gradientTransform="matrix(2.21087.05719-.05496 2.12455 156.08 146.14)"/></defs><rect width="28.2" height="28.2" x="1.898" y="1.898" fill="#c2352a" fill-rule="evenodd" rx="5.575"/><path d="m17.709 5.158l-3.722.064-.755.569.062.064-2.459.064.189-.253-5.613-.127-.064.38-.064.569.38.696-.189 1.455-.316 1.264.189 1.202.064.948.378 1.265-.126.633.062.695.442.506.126.822-.818.316.126 2.531.505.379-.316 2.213-.253.127-.189 4.238.222-.03.536.111c0 0 .648.225.782.269.134.045.333-.201.333-.201h.535l.446-.089.247.112.222-.023.558-.044.265-.113.113.269.089-.067.247-.113.511-.044.11.157c0 0 .624.067.847.067.223 0 .18-.18.18-.18 0 0 .065-.021.177.091.111.112.269-.045.269-.045l.222-.112.157.157.156.112.424-.089h.69l.159-.045.646.917.042-.467h1.048c.089 0 .047.312.047.312l.69-.224.357.357.737-.469.401-.068.78-.042h1.115l1.271.088.336-.133.244-.224.67.378.49-.201c0 0 .535.205.625.227.089.022.915-.092.915-.092l.511-.135-.333-.245.222-.089.936.044 1.248.315-.021-8.162v-.516l-.312.047-.402.067v-.247l.222-.203.18-.266.042-.962-.067-.694-.29-.85-.265-.357-.045-.336.067-.222.021-.067.29-.113.045-.113-.222-.378.201-.115.315-.191.126-1.137.064-.759v-2.656l-.19-.76.126-.821.064-.318-.568-.253-2.144-.38-.317.443-.125-.507-4.099-.064-.127.697-1.01.126-.126-.442-.883-.127.316-.38" fill="#fff"/><path d="m20.647 8.643l-3.098 1.549 4.647 3.098v-3.098m-12.391-.774l-2.323.774 13.165 13.165h2.323l1.549-3.872zm-1.549 8.519l-.774 3.872 1.549 1.549h1.549l2.323-.774z" fill="#c2352a"/><g transform="matrix(-1 0 0 1-223.97 142.77)"><g fill="#f9f9f9"><path d="m-228.95-129.3l-.27 2.221-.122-2.378z"/><path d="m-228.66-130.01l-.27 2.221-.122-2.378z"/><path d="m-228.43-129.95l-.27 1.6-.122-1.713z"/></g><path d="m-241.31-142.31c-5.577-1.531-5.951 3.24-4.58 5.493 4.381 6.983 6.796 6.577 9.398 7.895 1.712 2.064 3.451 3.4 6.469 4.1 11.69 1.559 3.242-8.417.92-8.649-5.065.012-7.547-6.123-12.206-8.838" fill="url(#0)"/><path d="m-241.31-142.31c3.76.276 5.616-.626 8.93-.421 4.319.283 8.307 2.053 7.838 6.574-.347 2.567-.37 2.25.186 4.296.532 1.535-.252 4.232-.487 4.654-2.715 4.963-1.536 4.965-2.656 7.742l-.906-.418-2.508-11.358c-7.177-.909-10.754-10.11-10.398-11.07" fill="url(#2)"/><path d="m-234.52-132.37c.362.274 1.553-5.105 1.172-5.653 1.379 2.44 1.919 4.616 2.435 6.783-1.276-.283-2.289-.554-3.607-1.13" fill="url(#4)"/><circle r="3.01" cy="-119.15" cx="-227.83" fill="url(#5)"/></g></svg>