<svg xmlns="http://www.w3.org/2000/svg" viewBox="0 0 32 32"><defs><linearGradient gradientTransform="matrix(2.62891 0 0 2.71269-160.16-291.42)" id="0" x1="67.894" y1="108.69" x2="67.854" y2="113.11" gradientUnits="userSpaceOnUse"><stop stop-color="#f9f9f9"/><stop offset="1" stop-color="#999"/></linearGradient></defs><g fill-rule="evenodd"><g fill="#699d39"><rect y="1.898" x="1.898" height="28.2" width="28.2" rx="5.575"/><path d="m30.1 15.03c-2.046-.398-4.093-.778-6.139-.965-2.65-.242-5.301-.32-7.951-.271-2.65.048-5.301.223-7.951.488-2.054.206-4.108.503-6.162.801v9.443c0 3.089 2.486 5.574 5.574 5.574h17.05c3.089 0 5.574-2.486 5.574-5.574v-9.496"/></g><path d="m7.473 1.898c-3.089 0-5.574 2.486-5.574 5.574v7.611c2.054-.298 4.108-.595 6.162-.801 2.65-.266 5.301-.44 7.951-.488 2.65-.048 5.301.03 7.951.271 2.046.187 4.093.567 6.139.965v-7.559c0-3.089-2.486-5.574-5.574-5.574h-17.05" fill="#90be67"/></g><g fill="#fff"><path d="m15.955 6.986c10.617 7.791 5.308 3.895 0 0m-4.592 11.785c.306-.128.851-.498 1.211-.824.59-.533.669-.564.808-.317.341.609 1.112 1.345 1.41 1.345.376 0 2.296-1.639 2.296-1.961 0-.123-.192-.514-.428-.869l-.428-.646c-.184-2.208.163-6.85-.71-8.274-1.113-1.521-2.979-1.701-4.112-1.695-2.978.018-4.595 1.019-5.183 3.21-.195.726-.076.827 1.132.963.51.057 1.087.144 1.282.193.304.076.398-.012.658-.619.195-.454.471-.795.772-.95.543-.281 1.455-.316 1.907-.074.393.21.754 1.053.754 1.76v.538l-.894.104c-1.517.176-3.186.553-3.764.849-.717.368-1.624 1.285-1.98 2-.205.413-.282.928-.283 1.89-.001 1.125.057 1.425.388 2.01.712 1.256 1.794 1.769 3.51 1.665.604-.037 1.349-.172 1.655-.299m-1.548-2.368c-.481-.337-.717-1.31-.507-2.09.268-.996 1.505-1.699 3.01-1.711l.445-.004-.062 1.128c-.037.669-.181 1.373-.355 1.729-.505 1.04-1.742 1.503-2.534.948z"/><g fill-rule="evenodd"><rect ry=".09" rx=".128" y="21.09" x="4.646" height="1.381" width="7.04"/><rect ry=".09" rx=".128" y="23.17" x="4.646" height="1.381" width="7.04"/><rect ry=".09" rx=".128" y="25.343" x="4.646" height="1.381" width="7.04"/><rect ry=".09" rx=".128" y="23.17" x="12.337" height="1.381" width="7.04"/><rect ry=".09" rx=".128" y="25.343" x="12.337" height="1.381" width="7.04"/><rect ry=".09" rx=".128" y="21.09" x="20.09" height="1.381" width="7.04"/><rect ry=".09" rx=".128" y="23.17" x="20.09" height="1.381" width="7.04"/><rect ry=".09" rx=".128" y="25.343" x="20.09" height="1.381" width="7.04"/><rect ry=".09" rx=".128" y="18.994" x="20.09" height="1.381" width="7.04"/></g></g>

   xmlns:dc="http://purl.org/dc/elements/1.1/"
   xmlns:cc="http://creativecommons.org/ns#"
   xmlns:rdf="http://www.w3.org/1999/02/22-rdf-syntax-ns#"
   xmlns:svg="http://www.w3.org/2000/svg"
   xmlns="http://www.w3.org/2000/svg"
   xmlns:xlink="http://www.w3.org/1999/xlink"
   xmlns:sodipodi="http://sodipodi.sourceforge.net/DTD/sodipodi-0.dtd"
   xmlns:inkscape="http://www.inkscape.org/namespaces/inkscape"
   version="1"
   width="32"
   height="32"
   id="svg12"
   sodipodi:docname="snow-top-1.svg"
   inkscape:version="0.92.1 r"&gt;
  <path d="m7.288.009c-8.276-.356-9.36 9.992-4.02 9.973.679.003 1.604-.207 2.97-1.543 7.256-10.531 14.706 3.573 17.53.919 1.71-1.912 3.496-.418 4.448.115 2.1.643 3.662.041 3.785-3.231.188-3.321-1.889-6.344-5.923-6.223-5.914.14-12.989-.047-18.787-.01" fill="url(#0)"/><path fill="#f00" fill-opacity="0" d="m0 0h32v32h-32z"/></svg>