<svg xmlns="http://www.w3.org/2000/svg" viewBox="0 0 32 32"><defs><linearGradient gradientTransform="matrix(2.62891 0 0 2.71269-160.16-291.42)" id="0" x1="67.894" y1="108.69" x2="67.854" y2="113.11" gradientUnits="userSpaceOnUse"><stop stop-color="#f9f9f9"/><stop offset="1" stop-color="#999"/></linearGradient></defs><rect width="28.2" height="28.2" x="1.898" y="1.898" fill="#ffd44a" fill-rule="evenodd" rx="5.575"/><path d="M16 5.894737A10.10526 10.10526 0 0 0 5.894736 16 10.10526 10.10526 0 0 0 16 26.10526 10.10526 10.10526 0 0 0 26.10526 16 10.10526 10.10526 0 0 0 16 5.894737" fill="#f4b400"/><path d="m14.713 5.986c-1.308.166-2.534.583-3.633 1.198l.714.179.462.323v.277l.786.509-.185.74-.415-.323-.278.323-.323.185-.185-.555.092-.323-.092-.231-.463-.416h-.185l.185.463v.415c-.182-.051-.369-.069-.555-.092l.509.37.046.231.601.509.6-.138v-.37l.278.185-.138.324h.462l.232.415.277.324.555.092-.324.323-.092.324h.416l.508.277v.832h-.231l-.231.231-.509-.231-.185-.509-.37-.231-.046-.185-.6-.138-.324.369-.369.185.231.416-.323-.092-.186-.416.416-.462h-.185l-.37.323-.092.463-.323.415-.092-.6-.186-.093c-.196.207-.343.46-.508.693l-.647.046-.324.232.139.231.369.323h.509l.693-.231.323.046.277.277.74-.74.509-.138.74.092.693.186c.378.437.751.886 1.109 1.34l.416 1.064-.186.185.37.555-.416.97c-.337.388-.68.766-1.016 1.155l-.509-.415-.185.231-.555-.323-.185.185h-.508l-.324.369.185.647-.369.416.046.74-.323.554.231.463c.02.336.046.68.046 1.016-.162.456-.356.881-.509 1.341l-.092.74v.369h-.277l-.463-.277h-.441c1.647 1.177 3.661 1.877 5.848 1.877 1.643 0 3.186-.398 4.553-1.091l.023-.046-.324-.323-.092-.324-.508-.138-.37-1.016.092-.231-.231-.416-.601-.138-.277-.693.046-.924-.463-.647-.046-.647c.631-.319 1.223-.642 1.849-.97l.323-.647.555-.138.323-.832.74.092.693-.508.693.646v.092c.209-.062.461-.068.647-.185l.138-.462v-.463l.462.046c-.038-.311-.1-.66-.138-.97h.278l.277.369.277.138.37-.231.046-.462-.046-.555-.601-.416h-.462l-.093-.277-.554.138-.416.509-.092-.878-.74-.601-.231-.693-.555-.231-.323-.416-.693-.138-.324-.555h1.017l-.647-.277h-.463l-.6-.231-.093.6-.277-.415.323-.231-.092-.232.232-.231.277-.046-.092-.277.231-.416.463.185-.092-.369.554-.324.416.786-.046.232.415.185.278.601.092-.555.74-.277.138-.416-.97-.555-.416-.415-.046-.509.025-.015c-.106-.07-.219-.132-.329-.199l.167.401h-.463l-.138-.37-.415.323h-.37v-.369l.416-.186.369.232-.046-.092c-.185-.134-.364-.287-.553-.416l-.463.139c-.287.199-.544.401-.832.6l-.463-.415.509-.185.185-.463.36-.04c-.195-.072-.389-.145-.588-.205l-.927.662v.415l.369.416-.508 1.016-.37-.185-.415-.693c-.621-.196-1.218-.423-1.804-.693l.046.277-.277.186-.509-.37.232-.277.369.185.046-.046-.454-1.238zm-4.624 1.838c-.157.114-.316.225-.466.348l.184.207.509-.555h-.226m3.83.509h.278v.277l-.185.231v.416l.092.601-.463-.092-.369-.324.323-.323c.101-.275.196-.521.323-.786m.693.601l.278.092-.046.554-.416-.231zm-7.209 4.714l-.416.462-.462-.046c-.162.15-.324.28-.475.43-.069.478-.107.967-.107 1.465 0 3.302 1.583 6.213 4.03 8.04l-.626-.743.093-.323-.555-.463.415-.416-.462-.369-.463-.277-.185-.232.138-.508v-1.294l-.369-.786-.416-.463-.509-1.201v-.324c.238.031.461.076.693.093l-.462-.509-.647-.463-.37-.415v-.416c.079-.153.152-.356.232-.508l.323.415.231-.323.37-.278v-.554m1.802.231l-.415.508-.555 1.156-.323.369.185.416-.323.369c.135.009.277 0 .415 0 .252-.54.455-1.098.647-1.664l.323-.369.186-.693-.139-.092m16.843 1.817c-.018.032-.067.125-.067.125l-.786.463-.832.231-.324.463-.554.415-.278-.092-.231.138v.046l.277.878.232.324-.046.185.185.693-.693 1.248-.693.646-.323.416.046.97-.232.509.17.746c2.518-1.824 4.156-4.78 4.156-8.14 0-.089-.005-.176-.007-.264z" fill="#ffd44a" stroke-width=".5"/><path d="m16.762 8.592l.35 2.037-1.482 1.445 2.047.297.916 1.854.916-1.854 2.047-.297-1.482-1.445.35-2.037-1.83.961-1.83-.961m-7.04 1.777l.35 2.039-1.48 1.443 2.047.297.914 1.855.916-1.855 2.047-.297-1.482-1.443.35-2.039-1.83.963-1.83-.963m8.887 5.184l.35 2.039-1.482 1.443 2.047.297.916 1.855.914-1.855 2.047-.297-1.48-1.443.35-2.039-1.83.963-1.83-.963m-8.146 2.223l.35 2.037-1.48 1.443 2.047.299.914 1.854.916-1.854 2.047-.299-1.48-1.443.35-2.037-1.832.961-1.83-.961" fill="#fff"/><path d="m15.355944 17.706887a.885109 .885109 0 0 0 -.728083 1.338388l1.87 3.244-1.87 3.244a.885109 .885109 0 1 0 1.533792 .883336l1.357-2.356 1.358 2.356a.885109 .885109 0 1 0 1.533792 -.883336l-1.87-3.244 1.87-3.244a.885109 .885109 0 0 0 -.753512 -1.338388 .885109 .885109 0 0 0 -.78028 .455051l-1.358 2.356-1.357-2.356a.885109 .885109 0 0 0 -.805709 -.455051m6.413554.0053a.885109 .885109 0 0 0 -.849876 1.142983l2.124 7.372a.885109 .885109 0 0 0 1.701091 0l2.125-7.372A.885293 .885293 0 1 0 25.169 18.36399l-1.274 4.422-1.275-4.422a.885109 .885109 0 0 0 -.849876 -.651795" shape-rendering="auto" mix-blend-mode="normal" isolation="auto" color-interpolation-filters="linearRGB" white-space="normal" fill="#c2352a" solid-opacity="1" image-rendering="auto" solid-color="#000000" color="#000" color-rendering="auto" vector-effect="none" shape-padding="0" color-interpolation="sRGB"/>

   xmlns:dc="http://purl.org/dc/elements/1.1/"
   xmlns:cc="http://creativecommons.org/ns#"
   xmlns:rdf="http://www.w3.org/1999/02/22-rdf-syntax-ns#"
   xmlns:svg="http://www.w3.org/2000/svg"
   xmlns="http://www.w3.org/2000/svg"
   xmlns:xlink="http://www.w3.org/1999/xlink"
   xmlns:sodipodi="http://sodipodi.sourceforge.net/DTD/sodipodi-0.dtd"
   xmlns:inkscape="http://www.inkscape.org/namespaces/inkscape"
   version="1"
   width="32"
   height="32"
   id="svg12"
   sodipodi:docname="snow-top-1.svg"
   inkscape:version="0.92.1 r"&gt;
  <path d="m7.288.009c-8.276-.356-9.36 9.992-4.02 9.973.679.003 1.604-.207 2.97-1.543 7.256-10.531 14.706 3.573 17.53.919 1.71-1.912 3.496-.418 4.448.115 2.1.643 3.662.041 3.785-3.231.188-3.321-1.889-6.344-5.923-6.223-5.914.14-12.989-.047-18.787-.01" fill="url(#0)"/><path fill="#f00" fill-opacity="0" d="m0 0h32v32h-32z"/></svg>