<svg xmlns="http://www.w3.org/2000/svg" viewBox="0 0 32 32"><rect width="28.2" height="28.2" x="1.898" y="1.898" fill="#31b660" fill-rule="evenodd" rx="5.575"/><g transform="matrix(1.10229 0 0 1.15717-2.459-2.916)" fill="#fff" stroke-width="1.226"><path d="m16.746 8.582c2.031 0 3.678 1.647 3.678 3.678 0 2.031-1.647 3.678-3.678 3.678-2.031 0-3.678-1.647-3.678-3.678 0-2.031 1.647-3.678 3.678-3.678"/><path d="m16.746 17.982c7.356-.004 7.356 4.904 7.356 4.904v1.225h-14.712v-1.225c0 0 0-4.901 7.356-4.905"/></g><path d="m26.25433 16.400887a3.433536 3.433536 0 0 0 -3.433536 -3.433537 3.433536 3.433536 0 0 0 -3.433536 3.433537 3.433536 3.433536 0 0 0 2.14596 3.18038v1.97h-1.288v2.146h1.288v1.288h2.575v-5.403a3.433536 3.433536 0 0 0 2.14596 -3.181218m-2.14596 0a1.287576 1.287576 0 0 1 -1.287576 1.287576 1.287576 1.287576 0 0 1 -1.287576 -1.287576 1.287576 1.287576 0 0 1 1.287576 -1.287576 1.287576 1.287576 0 0 1 1.287576 1.287576" fill="#005437" stroke-width=".429"/>

   xmlns:dc="http://purl.org/dc/elements/1.1/"
   xmlns:cc="http://creativecommons.org/ns#"
   xmlns:rdf="http://www.w3.org/1999/02/22-rdf-syntax-ns#"
   xmlns:svg="http://www.w3.org/2000/svg"
   xmlns="http://www.w3.org/2000/svg"
   xmlns:sodipodi="http://sodipodi.sourceforge.net/DTD/sodipodi-0.dtd"
   xmlns:inkscape="http://www.inkscape.org/namespaces/inkscape"
   height="32"
   width="32"
   version="1"
   id="svg8"
   sodipodi:docname="star-mime-2.svg"
   inkscape:version="0.92.1 r"&gt;
  <g transform="translate(152.47 194.05)" fill="#fff"><path d="m-125.38-193.25l-.077 3.548 3.072 1.831-3.548-.077-3.135 6.791 1.38-7.268-3.072-1.831 3.548.077z"/><path d="m-125.41-183.04l.042-1.955-1.692-1.01 1.955.042 1.727-3.741-.76 4 1.692 1.01-1.955-.042z"/></g></svg>