<svg xmlns="http://www.w3.org/2000/svg" viewBox="0 0 32 32"><defs><linearGradient gradientTransform="matrix(-2.65552 0 0 2.58531 193.77-277.73)" id="0" x1="67.894" y1="108.69" x2="67.854" y2="113.11" gradientUnits="userSpaceOnUse"><stop stop-color="#f9f9f9"/><stop offset="1" stop-color="#999"/></linearGradient></defs><g transform="translate(42.44-1.22)"><path d="m-34.968 3.119c-3.089 0-5.574 2.486-5.574 5.574v8.916h28.2v-8.916c0-3.089-2.486-5.574-5.574-5.574z" fill="#8e8e8e" fill-rule="evenodd"/><g stroke-width=".635"><path fill="#e6e6e6" d="m-35.33 8.02h17.79v10.657h-17.79z"/><g fill="#808080"><path d="m-33.554 12.28h4.447v3.197h-4.447z"/><path d="m-23.77 12.28h4.447v3.197h-4.447z"/></g></g><path d="m-12.339 17.609h-28.2v8.139c0 3.089 2.486 5.574 5.574 5.574h17.05c3.089 0 5.574-2.486 5.574-5.574z" fill="#4d4d4d" fill-rule="evenodd"/><g fill="#808080" stroke-width=".635"><rect rx="1.066" y="21.872" x="-34.964" height="2.131" width="17.05"/><rect rx="1.066" y="26.13" x="-32.833" height="2.131" width="12.789"/></g><g transform="matrix(.8 0 0 .8-39.739 4.55)" stroke-width=".833"><circle cy="23.5" cx="24.5" r="7.5" fill="#3cd240"/><path d="m21 24l3.5 4 3.5-4h-2v-5h-3v5z" fill="#fff"/></g></g>

   xmlns:dc="http://purl.org/dc/elements/1.1/"
   xmlns:cc="http://creativecommons.org/ns#"
   xmlns:rdf="http://www.w3.org/1999/02/22-rdf-syntax-ns#"
   xmlns:svg="http://www.w3.org/2000/svg"
   xmlns="http://www.w3.org/2000/svg"
   xmlns:xlink="http://www.w3.org/1999/xlink"
   xmlns:sodipodi="http://sodipodi.sourceforge.net/DTD/sodipodi-0.dtd"
   xmlns:inkscape="http://www.inkscape.org/namespaces/inkscape"
   version="1"
   width="32"
   height="32"
   id="svg12"
   sodipodi:docname="snow-top-3.svg"
   inkscape:version="0.92.1 r"&gt;
  <path d="m24.627.009c8.36-.339 9.455 9.523 4.064 9.505-.686.003-1.62-.197-3-1.471-14.665-10.216-14.549 2.967-17.708.875-1.727-1.822-1.743 4.653-4.139 5.127-2.122.613-3.699-1.385-3.824-4.503-.366-8.627 4.086-9.427 7.187-9.524 5.974.133 11.562-.045 17.419-.01" fill="url(#0)"/></svg>