<svg xmlns="http://www.w3.org/2000/svg" viewBox="0 0 32 32"><rect width="28.2" height="28.2" x="1.898" y="1.898" fill="#42a3ce" fill-rule="evenodd" rx="5.575"/><path d="m22.731 23.317c.255-.13.482-.358.619-.624.152-.293.152-.888.002-1.18-.115-.222-2.881-3.034-2.984-3.034-.029 0-.131.109-.226.242-.273.382-.753.879-1.198 1.242-.225.183-.41.358-.41.387 0 .076 2.671 2.775 2.884 2.915.348.228.921.25 1.312.051m-6.384-2.574c.666-.172 1.684-.683 2.266-1.138 1.111-.869 1.926-2.179 2.217-3.562.137-.65.137-1.968.001-2.611-.317-1.496-1.144-2.795-2.357-3.701-.607-.454-1.122-.716-1.912-.976-.561-.184-.702-.201-1.758-.206-1-.005-1.224.016-1.738.164-2.321.664-4.058 2.604-4.472 4.992-.053.308-.071.828-.047 1.363.073 1.596.656 2.92 1.783 4.047 1.555 1.555 3.868 2.181 6.02 1.628m-2.726-1.585c-2.166-.601-3.54-2.486-3.421-4.696.151-2.797 2.764-4.783 5.525-4.198 1.669.354 3.068 1.712 3.455 3.355.137.581.135 1.615-.004 2.206-.339 1.44-1.491 2.705-2.924 3.213-.656.233-2 .294-2.631.119m1.765-.977c.061-.099-.156-.288-.73-.634-.564-.34-1.334-1.104-1.553-1.542-.098-.197-.25-.575-.337-.839-.282-.856-.952-1.338-1.257-.903-.146.209-.145.849.003 1.352.338 1.148 1.407 2.138 2.719 2.515.503.145 1.081.17 1.155.051" fill="#fff"/>

   xmlns:dc="http://purl.org/dc/elements/1.1/"
   xmlns:cc="http://creativecommons.org/ns#"
   xmlns:rdf="http://www.w3.org/1999/02/22-rdf-syntax-ns#"
   xmlns:svg="http://www.w3.org/2000/svg"
   xmlns="http://www.w3.org/2000/svg"
   xmlns:sodipodi="http://sodipodi.sourceforge.net/DTD/sodipodi-0.dtd"
   xmlns:inkscape="http://www.inkscape.org/namespaces/inkscape"
   height="32"
   width="32"
   version="1"
   id="svg8"
   sodipodi:docname="star-mime-2.svg"
   inkscape:version="0.92.1 r"&gt;
  <g transform="translate(152.47 194.05)" fill="#fff"><path d="m-125.38-193.25l-.077 3.548 3.072 1.831-3.548-.077-3.135 6.791 1.38-7.268-3.072-1.831 3.548.077z"/><path d="m-125.41-183.04l.042-1.955-1.692-1.01 1.955.042 1.727-3.741-.76 4 1.692 1.01-1.955-.042z"/></g></svg>