<svg xmlns="http://www.w3.org/2000/svg" viewBox="0 0 32 32"><defs><linearGradient gradientTransform="matrix(-2.65552 0 0 2.58531 193.77-277.73)" id="0" x1="67.894" y1="108.69" x2="67.854" y2="113.11" gradientUnits="userSpaceOnUse"><stop stop-color="#f9f9f9"/><stop offset="1" stop-color="#999"/></linearGradient></defs><g fill-rule="evenodd"><path d="m30.1 21.14c-.396-.988-.808-1.958-1.307-2.809-.619-1.055-1.312-2-2.063-2.848-.751-.844-1.559-1.582-2.412-2.215-.853-.633-1.75-1.16-2.676-1.582-.925-.422-1.879-.741-2.848-.953-.969-.212-1.951-.32-2.934-.322-.982-.003-1.965.1-2.932.307-.966.206-1.917.517-2.838.932-.921.415-1.812.934-2.658 1.557-.846.623-1.649 1.349-2.391 2.18-.742.831-1.423 1.767-2.031 2.805-.427.73-.766 1.574-1.115 2.406v3.934c0 3.089 2.486 5.574 5.574 5.574h17.05c3.089 0 5.574-2.486 5.574-5.574v-3.391" fill="#47ad5d"/><path d="m7.473 1.898c-3.089 0-5.574 2.486-5.574 5.574v13.12c.349-.832.688-1.676 1.115-2.406.608-1.038 1.289-1.974 2.031-2.805.742-.831 1.544-1.557 2.391-2.18.846-.623 1.737-1.142 2.658-1.557.921-.415 1.871-.725 2.838-.932.966-.206 1.949-.309 2.932-.307.982.003 1.965.11 2.934.322.969.212 1.922.531 2.848.953.925.422 1.823.949 2.676 1.582.853.633 1.662 1.371 2.412 2.215.751.844 1.444 1.792 2.063 2.848.499.851.911 1.82 1.307 2.809v-13.664c0-3.089-2.486-5.574-5.574-5.574h-17.05" fill="#00512d"/></g><path d="m8.282 22.14c6.05 1.199 8.373 1.573 15.05.068-9.584 6.452-4.28 5.099-15.05-.068" fill="#ffe700"/><g transform="translate(.388)" fill-rule="evenodd"><ellipse ry="4.123" rx="2.139" cy="16" cx="22.613" fill="#d00b5a"/><ellipse ry="1.559" rx="1.356" cy="16" cx="22.712" fill="#333"/><ellipse ry="4.123" rx="2.139" cy="16" cx="8.61" fill="#d00b5a"/><ellipse ry="1.559" rx="1.356" cy="16" cx="8.709" fill="#333"/></g>

   xmlns:dc="http://purl.org/dc/elements/1.1/"
   xmlns:cc="http://creativecommons.org/ns#"
   xmlns:rdf="http://www.w3.org/1999/02/22-rdf-syntax-ns#"
   xmlns:svg="http://www.w3.org/2000/svg"
   xmlns="http://www.w3.org/2000/svg"
   xmlns:xlink="http://www.w3.org/1999/xlink"
   xmlns:sodipodi="http://sodipodi.sourceforge.net/DTD/sodipodi-0.dtd"
   xmlns:inkscape="http://www.inkscape.org/namespaces/inkscape"
   version="1"
   width="32"
   height="32"
   id="svg12"
   sodipodi:docname="snow-top-3.svg"
   inkscape:version="0.92.1 r"&gt;
  <path d="m24.627.009c8.36-.339 9.455 9.523 4.064 9.505-.686.003-1.62-.197-3-1.471-14.665-10.216-14.549 2.967-17.708.875-1.727-1.822-1.743 4.653-4.139 5.127-2.122.613-3.699-1.385-3.824-4.503-.366-8.627 4.086-9.427 7.187-9.524 5.974.133 11.562-.045 17.419-.01" fill="url(#0)"/></svg>