<svg xmlns="http://www.w3.org/2000/svg" viewBox="0 0 32 32" xmlns:xlink="http://www.w3.org/1999/xlink"><defs><linearGradient gradientTransform="matrix(-2.54182 0 0 2.58531 185.47-277.37)" id="1" x1="67.894" y1="108.69" x2="67.854" y2="113.11" gradientUnits="userSpaceOnUse"><stop stop-color="#f9f9f9"/><stop offset="1" stop-color="#999"/></linearGradient></defs><rect width="28.2" height="28.2" x="1.898" y="1.898" fill="#39c" fill-rule="evenodd" rx="5.575"/><path d="m19.532 5.622c-1.132-.052-2.343.269-3.532.867-1.976-.994-4.02-1.203-5.646-.263-1.629.94-2.467 2.811-2.593 5.02-1.848 1.214-3.049 2.876-3.049 4.757 0 1.881 1.201 3.542 3.049 4.757.127 2.208.966 4.079 2.595 5.02 1.629.941 3.668.732 5.644-.263 1.976.994 4.01 1.203 5.643.263 1.629-.94 2.47-2.811 2.597-5.02 1.848-1.214 3.049-2.876 3.049-4.757 0-1.881-1.201-3.542-3.049-4.757-.127-2.208-.966-4.08-2.595-5.02-.649-.375-1.363-.568-2.112-.603m-.061.891c.626.027 1.208.187 1.726.486 1.166.673 1.877 1.985 2.095 3.691-1.032-.537-2.219-.956-3.513-1.237-.89-.98-1.846-1.799-2.827-2.424.882-.369 1.736-.551 2.519-.517zm-6.944.002c.783-.034 1.636.148 2.517.517-.98.625-1.936 1.443-2.826 2.422-1.294.281-2.481.701-3.513 1.238.218-1.707.929-3.02 2.095-3.691.518-.299 1.1-.459 1.726-.486m3.473.981c.763.432 1.527 1 2.265 1.694-.732-.091-1.489-.139-2.265-.139-.777 0-1.535.05-2.268.141.739-.69 1.504-1.264 2.268-1.696m0 2.449c1.159 0 2.27.117 3.31.324.699.797 1.355 1.701 1.934 2.705.58 1 1.036 2.025 1.377 3.03-.341 1-.796 2.023-1.375 3.03-.58 1-1.239 1.909-1.938 2.707-1.04.206-2.15.324-3.308.324-1.159 0-2.271-.117-3.312-.324-.699-.798-1.357-1.701-1.936-2.705-.579-1-1.033-2.024-1.374-3.03.342-1 .795-2.027 1.375-3.03.58-1 1.236-1.906 1.934-2.704 1.041-.206 2.152-.324 3.312-.324m-4.768.688c-.445.588-.864 1.22-1.252 1.892-.389.673-.725 1.355-1.013 2.036-.228-.984-.343-1.935-.335-2.812.755-.445 1.634-.822 2.6-1.116m9.535 0c.966.294 1.845.671 2.6 1.116.008.877-.106 1.825-.334 2.809-.288-.679-.625-1.359-1.013-2.031-.388-.672-.809-1.305-1.254-1.894m-6.457 1.033l-.945 4.152-1.484.229-.217.867 1.503-.232-.635 2.79h6.288l.606-1.735h-3.898l.335-1.472 1.699-.263.217-.867-1.718.266.85-3.735zm-6.556.674c.051 1.164.28 2.401.684 3.664-.404 1.262-.633 2.498-.684 3.661-1.369-1.042-2.148-2.316-2.148-3.662 0-1.347.779-2.62 2.148-3.662m16.492 0c1.369 1.042 2.148 2.316 2.148 3.662 0 1.347-.779 2.62-2.148 3.662-.051-1.163-.28-2.4-.684-3.662.404-1.262.633-2.499.684-3.662m-15.279 5.107c.287.679.624 1.359 1.011 2.031.388.672.808 1.305 1.254 1.894-.966-.294-1.845-.671-2.6-1.116-.008-.876.107-1.825.335-2.809m14.07 0c.228.984.342 1.932.334 2.809-.756.445-1.634.822-2.6 1.116.445-.589.865-1.223 1.254-1.896.388-.672.725-1.35 1.013-2.029m-14.327 3.866c1.032.537 2.219.957 3.513 1.238.89.979 1.845 1.797 2.826 2.422-1.586.664-3.076.702-4.242.029-1.166-.673-1.879-1.983-2.097-3.689m14.587.002c-.218 1.706-.931 3.02-2.097 3.689-1.166.673-2.657.636-4.243-.029.981-.625 1.937-1.442 2.827-2.422 1.294-.281 2.481-.702 3.513-1.238zm-9.561 1.499c.733.091 1.491.141 2.268.141.776 0 1.534-.048 2.267-.139-.738.689-1.503 1.262-2.267 1.694-.764-.432-1.529-1-2.268-1.696" fill="#fff" stroke-width="1.031"/>

   xmlns:dc="http://purl.org/dc/elements/1.1/"
   xmlns:cc="http://creativecommons.org/ns#"
   xmlns:rdf="http://www.w3.org/1999/02/22-rdf-syntax-ns#"
   xmlns:svg="http://www.w3.org/2000/svg"
   xmlns="http://www.w3.org/2000/svg"
   xmlns:xlink="http://www.w3.org/1999/xlink"
   xmlns:sodipodi="http://sodipodi.sourceforge.net/DTD/sodipodi-0.dtd"
   xmlns:inkscape="http://www.inkscape.org/namespaces/inkscape"
   height="32"
   width="32"
   version="1"
   id="svg8"
   sodipodi:docname="snow-top-3.svg"
   inkscape:version="0.92.1 r"&gt;
  <path fill="#00000f" fill-opacity="0" d="m0 0h32v32h-32z" id="0"/><path d="m7.354 6.111c-2.995 2.684-1.381 7.817-3.674 8.291-2.031.613-3.541-1.385-3.66-4.503-.35-8.627 3.911-9.427 6.879-9.524 28.342-2.047 1.762 4.92.455 5.736" fill="url(#1)"/><use xlink:href="#0"/></svg>