<svg xmlns="http://www.w3.org/2000/svg" viewBox="0 0 32 32"><defs><linearGradient gradientTransform="matrix(2.54182 0 0 2.58531-153.47-277.37)" id="0" x1="67.894" y1="108.69" x2="67.854" y2="113.11" gradientUnits="userSpaceOnUse"><stop stop-color="#f9f9f9"/><stop offset="1" stop-color="#999"/></linearGradient></defs><rect width="28.2" height="28.2" x="1.898" y="1.898" fill="#74bfcc" fill-rule="evenodd" rx="5.575"/><g transform="translate(-.5.481)"><g stroke="#3f3f3f"><g fill="none" stroke-linecap="round"><path d="m23.51 15.58c0 0 1.886-2.522.722-4.951-1.164-2.429-6.812-.693-11.155 2.34-3.126 2.183-4.632 6.03-4.577 8.531"/><path d="m12.5 22.5c0 0 .715 2.909 3.885 3.035 3.171.126 4.515-5.243 4.06-10.52-.328-3.799-1.754-7.314-3.945-8.515"/><path d="m13.5 9.6c0 0-4.409-2.662-5.697.415-1.288 3.078 2.982 8.706 8.095 10.09 3.568.968 7.572-.188 8.602-.608"/></g><circle cy="15.5" cx="16.5" r="1.063" fill="#3f3f3f" stroke-width=".874"/></g><path d="M16.429688 5.00195A1.5 1.5 0 0 0 15.201172 5.75 1.5 1.5 0 0 0 15.75 7.798828 1.5 1.5 0 0 0 17.798828 7.25 1.5 1.5 0 0 0 17.25 5.201172 1.5 1.5 0 0 0 16.429688 5.00195M24.464844 18A1.5 1.5 0 0 0 23.75 18.201172 1.5 1.5 0 0 0 23.20117 20.25 1.5 1.5 0 0 0 25.25 20.798828 1.5 1.5 0 0 0 25.798828 18.75 1.5 1.5 0 0 0 24.464844 18M8.5 20A1.5 1.5 0 0 0 7 21.5 1.5 1.5 0 0 0 8.5 23 1.5 1.5 0 0 0 10 21.5 1.5 1.5 0 0 0 8.5 20" fill="#3f3f3f" stroke-width=".615"/><path d="M16.5 6A.5 .5 0 0 0 16 6.5 .5 .5 0 0 0 16.5 7 .5 .5 0 0 0 17 6.5 .5 .5 0 0 0 16.5 6m8 13A.5 .5 0 0 0 24 19.5 .5 .5 0 0 0 24.5 20 .5 .5 0 0 0 25 19.5 .5 .5 0 0 0 24.5 19m-16 2A.5 .5 0 0 0 8 21.5 .5 .5 0 0 0 8.5 22 .5 .5 0 0 0 9 21.5 .5 .5 0 0 0 8.5 21" fill="#74bfcc" stroke-linecap="round" stroke-width=".523"/></g>

   xmlns:dc="http://purl.org/dc/elements/1.1/"
   xmlns:cc="http://creativecommons.org/ns#"
   xmlns:rdf="http://www.w3.org/1999/02/22-rdf-syntax-ns#"
   xmlns:svg="http://www.w3.org/2000/svg"
   xmlns="http://www.w3.org/2000/svg"
   xmlns:xlink="http://www.w3.org/1999/xlink"
   xmlns:sodipodi="http://sodipodi.sourceforge.net/DTD/sodipodi-0.dtd"
   xmlns:inkscape="http://www.inkscape.org/namespaces/inkscape"
   height="32"
   width="32"
   version="1"
   id="svg8"
   sodipodi:docname="snow-top-2.svg"
   inkscape:version="0.92.1 r"&gt;
  <path d="m24.646 6.111c2.995 2.684 1.381 7.817 3.674 8.291 2.031.613 3.541-1.385 3.66-4.503.35-8.627-3.911-9.427-6.879-9.524-28.342-2.047-1.762 4.92-.455 5.736" fill="url(#0)"/></svg>