<svg xmlns="http://www.w3.org/2000/svg" viewBox="0 0 32 32"><rect width="28.2" height="28.2" x="1.898" y="1.898" fill="#7572b8" fill-rule="evenodd" fill-opacity=".992" rx="5.575"/><path d="m10.537 24.19c0 0 1.073.312 2.501.49.578.072 2.779.324 4.467.318 0 0 2.055.002 3.189-.159 1.187-.169 1.859-.384 2.234-.813.01-.102.181-.436-.281-.758-1.18-.823-2.704-1.048-5.666-1.752-3.275-.823-4.254-1.612-4.743-2.183-.464-.572.087-1.76 2.726-2.343 1.336-.325 6.313-.385 6.313-.385-1.428-1.134-4.108-3.163-4.656-3.595-.481-.379-1.255-.959-1.338-1.479-.112-.505.683-.749 1.104-.777 1.357-.094 3.21.066 4.857.393.828.165.973.14.973.14 1.179.056 2.096-.561 2.049-1.862-.009-1.319-1.329-2.378-2.789-2.424-1.375-.044-4.763.197-4.763.197 3.949.814 4.595 1.022 4.801 1.497.122.281-.203.56-1.291.505-1.185-.059-3.613-.346-3.613-.346-2.311-.356-3.921-.693-4.623.225-.459.599.066 1.329.271 1.759.917 1.6 2.503 2.698 3.509 3.472.379.291 1.535.936 1.535.936-3.594-.983-6.457-.43-8.273.524-2.087 1.235-1.73 3.32 1.582 5.269 1.956 1.151 2.93 1.704 6.132 2.097 1.872.298 2.151.421 2.137.576-.02.219-2.215.302-2.819.344-1.535.106-5.506.132-5.525.132" fill="#fff"/>

   xmlns:dc="http://purl.org/dc/elements/1.1/"
   xmlns:cc="http://creativecommons.org/ns#"
   xmlns:rdf="http://www.w3.org/1999/02/22-rdf-syntax-ns#"
   xmlns:svg="http://www.w3.org/2000/svg"
   xmlns="http://www.w3.org/2000/svg"
   xmlns:sodipodi="http://sodipodi.sourceforge.net/DTD/sodipodi-0.dtd"
   xmlns:inkscape="http://www.inkscape.org/namespaces/inkscape"
   height="32"
   width="32"
   version="1"
   id="svg8"
   sodipodi:docname="star-mime-2.svg"
   inkscape:version="0.92.1 r"&gt;
  <g transform="translate(152.47 194.05)" fill="#fff"><path d="m-125.38-193.25l-.077 3.548 3.072 1.831-3.548-.077-3.135 6.791 1.38-7.268-3.072-1.831 3.548.077z"/><path d="m-125.41-183.04l.042-1.955-1.692-1.01 1.955.042 1.727-3.741-.76 4 1.692 1.01-1.955-.042z"/></g></svg>