<svg xmlns="http://www.w3.org/2000/svg" viewBox="0 0 32 32" xmlns:xlink="http://www.w3.org/1999/xlink"><defs><linearGradient xlink:href="#3" id="4" x1="-227.98" y1="-131.26" x2="-234.8" y2="-134.14" gradientUnits="userSpaceOnUse"/><linearGradient xlink:href="#3" id="2" x1="-241.01" y1="-141.61" x2="-226.57" y2="-129.44" gradientUnits="userSpaceOnUse"/><linearGradient id="3"><stop stop-color="#13a9ea"/><stop offset="1" stop-color="#372db5"/></linearGradient><linearGradient id="1"><stop stop-color="#f9f9f9"/><stop offset="1" stop-color="#999"/></linearGradient><linearGradient xlink:href="#1" id="0" x1="-239.23" y1="-133.21" x2="-241.87" y2="-125.28" gradientUnits="userSpaceOnUse"/><radialGradient xlink:href="#1" id="5" cx="-176.59" cy="-120.91" r="3.01" gradientUnits="userSpaceOnUse" gradientTransform="matrix(2.21087.05719-.05496 2.12455 156.08 146.14)"/></defs><rect width="28.2" height="28.2" x="1.898" y="1.898" fill="#ffc852" fill-rule="evenodd" rx="5.575"/><path d="m21.368 10.632v2.684c0 1.487-1.197 2.684-2.684 2.684h-5.368c0 0-2.684 0-2.684 2.684v4.697c0 1.859 2.095 3.355 4.697 3.355h1.342c2.602 0 4.697-1.496 4.697-3.355v-2.01h2.01c1.859 0 3.355-2.095 3.355-4.697v-1.342c0-2.602-1.496-4.697-3.355-4.697zm-2.683891 12.524821a.89463 .89463 0 0 1 .894629 .89463 .89463 .89463 0 0 1 -.894629 .89463 .89463 .89463 0 0 1 -.89463 -.89463 .89463 .89463 0 0 1 .89463 -.89463" fill="#fff"/><path d="m15.329 5.264c-2.602 0-4.697 1.496-4.697 3.355v2.01h-2.01c-1.859 0-3.355 2.095-3.355 4.697v1.342c0 2.602 1.496 4.697 3.355 4.697h2.01v-2.684c0-1.487 1.197-2.684 2.684-2.684h5.368c0 0 2.684 0 2.684-2.684v-4.697c0-1.859-2.095-3.355-4.697-3.355z" fill="#4795d1"/><g fill="#fff"><path d="M13.31611 7.0537A.89463 .89463 0 0 1 14.21074 7.948329 .89463 .89463 0 0 1 13.31611 8.842959 .89463 .89463 0 0 1 12.421479 7.948329 .89463 .89463 0 0 1 13.31611 7.0537"/><path d="m21.368 10.632v.895h2.01c1.859 0 3.355 2.095 3.355 4.697v-.895c0-2.602-1.496-4.697-3.355-4.697zm0 2.684c0 1.487-1.197 2.684-2.684 2.684h-5.368c0 0-2.684 0-2.684 2.684v.895c0-2.684 2.684-2.684 2.684-2.684h5.368c1.487 0 2.684-1.197 2.684-2.684z" opacity=".1"/></g><g transform="matrix(.69861 0 0 .69861 30.952 11.336)" stroke-width="1.431"><circle r="7.157" cy="16.52" cx="-11.923" fill="#cc5e55" fill-rule="evenodd"/><path d="m-12.818 12.941l-.079.943a2.811733 2.811733 0 0 0 -.821734 .475283l-.857-.403-.895 1.55.778.54a2.811733 2.811733 0 0 0 -.04295 .474269 2.811733 2.811733 0 0 0 .04088 .476276l-.776.538.895 1.55.855-.402a2.811733 2.811733 0 0 0 .82373 .472274l.079.945h1.789l.079-.943a2.811733 2.811733 0 0 0 .821753 -.475281l.857.403.895-1.55-.778-.54a2.811733 2.811733 0 0 0 .042949 -.474271 2.811733 2.811733 0 0 0 -.040885 -.476274l.776-.538-.895-1.55-.855.402a2.811733 2.811733 0 0 0 -.823953 -.472365l-.079-.945h-1.789m.89466 2.556407a1.022473 1.022473 0 0 1 1.022562 1.022562 1.022473 1.022473 0 0 1 -1.022562 1.022563 1.022473 1.022473 0 0 1 -1.022562 -1.022563 1.022473 1.022473 0 0 1 1.022562 -1.022562" fill="#fff"/></g><g transform="matrix(-1 0 0 1-223.97 142.77)"><g fill="#f9f9f9"><path d="m-228.95-129.3l-.27 2.221-.122-2.378z"/><path d="m-228.66-130.01l-.27 2.221-.122-2.378z"/><path d="m-228.43-129.95l-.27 1.6-.122-1.713z"/></g><path d="m-241.31-142.31c-5.577-1.531-5.951 3.24-4.58 5.493 4.381 6.983 6.796 6.577 9.398 7.895 1.712 2.064 3.451 3.4 6.469 4.1 11.69 1.559 3.242-8.417.92-8.649-5.065.012-7.547-6.123-12.206-8.838" fill="url(#0)"/><path d="m-241.31-142.31c3.76.276 5.616-.626 8.93-.421 4.319.283 8.307 2.053 7.838 6.574-.347 2.567-.37 2.25.186 4.296.532 1.535-.252 4.232-.487 4.654-2.715 4.963-1.536 4.965-2.656 7.742l-.906-.418-2.508-11.358c-7.177-.909-10.754-10.11-10.398-11.07" fill="url(#2)"/><path d="m-234.52-132.37c.362.274 1.553-5.105 1.172-5.653 1.379 2.44 1.919 4.616 2.435 6.783-1.276-.283-2.289-.554-3.607-1.13" fill="url(#4)"/><circle r="3.01" cy="-119.15" cx="-227.83" fill="url(#5)"/></g></svg>