<svg xmlns="http://www.w3.org/2000/svg" viewBox="0 0 32 32"><defs><linearGradient gradientTransform="matrix(-2.65552 0 0 2.58531 193.77-277.73)" id="0" x1="67.894" y1="108.69" x2="67.854" y2="113.11" gradientUnits="userSpaceOnUse"><stop stop-color="#f9f9f9"/><stop offset="1" stop-color="#999"/></linearGradient></defs><rect width="28.2" height="28.2" x="1.898" y="1.898" fill="#ffba39" fill-rule="evenodd" rx="5.575"/><path d="m14.29 24.305c-1.3-.812-2.364-1.507-2.365-1.545-.002-.123 4.695-3.01 4.795-2.947.054.033.098.368.098.745v.684l.39-.063c.697-.113 1.851-.765 2.498-1.412 1.942-1.942 2.128-4.903.443-7.04-.218-.277-.373-.554-.344-.616.126-.267 1.923-1.742 2.06-1.69.081.031.36.328.62.659 2.12 2.702 2.172 6.911.12 9.704-.528.718-1.697 1.798-2.404 2.22-.727.434-1.828.846-2.741 1.026l-.643.127v.761c0 .419-.037.784-.082.812-.045.028-1.146-.614-2.446-1.426m-4.604-3.116c-.611-.712-1.061-1.53-1.419-2.583-.284-.834-.342-1.175-.381-2.239-.054-1.455.111-2.449.594-3.585 1.038-2.439 3.367-4.308 5.969-4.79l.703-.13v-.763c0-.42.04-.788.089-.818.049-.03.81.401 1.692.959.882.558 1.943 1.223 2.358 1.479.415.255.755.495.755.533 0 .117-4.708 3.01-4.804 2.947-.05-.031-.09-.358-.09-.726 0-.579-.026-.671-.19-.671-.346 0-1.208.34-1.777.701-2.713 1.722-3.326 5.319-1.333 7.828.201.253.341.51.312.573-.081.172-1.877 1.727-1.994 1.727-.057 0-.274-.199-.483-.443" fill="#fff"/>

   xmlns:dc="http://purl.org/dc/elements/1.1/"
   xmlns:cc="http://creativecommons.org/ns#"
   xmlns:rdf="http://www.w3.org/1999/02/22-rdf-syntax-ns#"
   xmlns:svg="http://www.w3.org/2000/svg"
   xmlns="http://www.w3.org/2000/svg"
   xmlns:xlink="http://www.w3.org/1999/xlink"
   xmlns:sodipodi="http://sodipodi.sourceforge.net/DTD/sodipodi-0.dtd"
   xmlns:inkscape="http://www.inkscape.org/namespaces/inkscape"
   version="1"
   width="32"
   height="32"
   id="svg12"
   sodipodi:docname="snow-top-3.svg"
   inkscape:version="0.92.1 r"&gt;
  <path d="m24.627.009c8.36-.339 9.455 9.523 4.064 9.505-.686.003-1.62-.197-3-1.471-14.665-10.216-14.549 2.967-17.708.875-1.727-1.822-1.743 4.653-4.139 5.127-2.122.613-3.699-1.385-3.824-4.503-.366-8.627 4.086-9.427 7.187-9.524 5.974.133 11.562-.045 17.419-.01" fill="url(#0)"/></svg>