<svg xmlns="http://www.w3.org/2000/svg" xmlns:xlink="http://www.w3.org/1999/xlink" viewBox="0 0 32 32"><defs><linearGradient gradientTransform="matrix(-2.54182 0 0 2.58531 185.47-277.37)" id="1" x1="67.894" y1="108.69" x2="67.854" y2="113.11" gradientUnits="userSpaceOnUse"><stop stop-color="#f9f9f9"/><stop offset="1" stop-color="#999"/></linearGradient></defs><rect width="28.2" height="28.2" x="1.898" y="1.898" fill="#ff5a48" fill-rule="evenodd" rx="5.575"/><g transform="translate(0 .5)"><path d="m7.5 20v-9.25c0-2.8 2.9-3.25 2.9-3.25h11.9" fill="none" stroke="#fff" stroke-width="3"/><g fill="#fff"><path d="M21.434867 3.999872A.441232 .441232 0 0 0 21 4.44106v4.118a.441232 .441232 0 0 0 .441187 .441187h4.118A.441232 .441232 0 0 0 25.870874 8.246879L21.753 4.129A.441232 .441232 0 0 0 21.434867 3.999872"/><rect y="13" x="12" height="4" width="3" rx="1.333"/></g><path d="m24.5 11v9.25c0 2.8-2.9 3.25-2.9 3.25h-11.9" fill="none" stroke="#fff" stroke-width="3"/><g fill="#fff"><path d="M10.565133 26.999957A.441232 .441232 0 0 0 11 26.558769V22.441A.441232 .441232 0 0 0 10.558813 21.999828H6.441A.441232 .441232 0 0 0 6.129126 22.75295l4.118 4.118a.441232 .441232 0 0 0 .318254 .129255"/><rect y="13" x="17" height="4" width="3" rx="1.333"/></g></g>

   xmlns:dc="http://purl.org/dc/elements/1.1/"
   xmlns:cc="http://creativecommons.org/ns#"
   xmlns:rdf="http://www.w3.org/1999/02/22-rdf-syntax-ns#"
   xmlns:svg="http://www.w3.org/2000/svg"
   xmlns="http://www.w3.org/2000/svg"
   xmlns:xlink="http://www.w3.org/1999/xlink"
   xmlns:sodipodi="http://sodipodi.sourceforge.net/DTD/sodipodi-0.dtd"
   xmlns:inkscape="http://www.inkscape.org/namespaces/inkscape"
   height="32"
   width="32"
   version="1"
   id="svg8"
   sodipodi:docname="snow-top-3.svg"
   inkscape:version="0.92.1 r"&gt;
  <path fill="#00000f" fill-opacity="0" d="m0 0h32v32h-32z" id="0"/><path d="m7.354 6.111c-2.995 2.684-1.381 7.817-3.674 8.291-2.031.613-3.541-1.385-3.66-4.503-.35-8.627 3.911-9.427 6.879-9.524 28.342-2.047 1.762 4.92.455 5.736" fill="url(#1)"/><use xlink:href="#0"/></svg>