<svg xmlns="http://www.w3.org/2000/svg" viewBox="0 0 32 32"><defs><linearGradient gradientTransform="matrix(-2.65552 0 0 2.58531 193.77-277.73)" id="0" x1="67.894" y1="108.69" x2="67.854" y2="113.11" gradientUnits="userSpaceOnUse"><stop stop-color="#f9f9f9"/><stop offset="1" stop-color="#999"/></linearGradient></defs><rect width="28.2" height="28.2" x="1.898" y="1.898" fill="#a07751" fill-rule="evenodd" rx="5.575"/><g transform="matrix(.09574 0 0 .09574 64.936 28.657)" stroke-width="10.445"><path d="m-447.67-49.33c-2.937 5.255 5.078 3.169 7.753 1.365-7.624 10.468-18.5 18.571-35.37 22.316-6.656 1.381-.37 6.402 3.579 10.316-12.14-2.513-24.281-7.616-36.421-13.474-5.132-1.53-8.84-1.855-6.737 2.737l4.632 7.158c-7.077-2.307-14.269-.288-28.632-25.474-4.876-6.214-10.38-4.231-8.211 5.474-1.404-3.237-13.14-2.849-10.316-34.947.267-12.771-13.582-5.101-11.368 4.842-3.693-4.625-7.804-8.575 1.053-33.474 1.925-10.13-3.87-9.868-10.526-.211-1.395-3.327-1.292-8.08 1.474-15.368-11.445 8.56-26.07 11.03-31.368 31.368-1.628-5.137-2.264-11.179.842-20.632 9.806-23.634 24.03-52.881 35.24-79.54 9.168-21.793 10.397-29.573 13.283-35.51 4.045-17.533 18.355-38.04 40.526-22l18.11 18.737c3.551 4.213 12.392 1.071 9.474-7.158 3.399-2.096 7.128-.349 11.368 7.368 4.875 4.664 16.314 8.601 14.11-5.684 5.04.129 8.223 3.101 9.05 9.684 3.209 9.558 8.677 7.02 9.05 1.053-.48-6.566 1.317-11.613-14.526-28.421 11.453 2.805 29.05 16.589 32 45.05 5.905 8.101 14.99 10.53 11.158 36 5.05 2.114 6.878 7.573 4.632 17.263-2.439 4.397-17.589 13.819-25.26 7.158 1.261-6.857 4.883-13.37-6.737-22.11-9.7 3.096-13.615-6.166-17.263-16-10.545-.918-20.961-2.655-33.684 10.316 17.07-3.464 21.17-.282 21.803 3.116.794 4.283-5.295 9.219-13.171 5.094 11.696 8.04 1.394 16.542-4.161 18.886-36.36 15.437-37.03 47.14-32.366 56.999l-6.848-11.314c4.784 72.01 77.39 68.31 73.54 29.475-3.707-23.869-31.944-14.262-30.666-.595.48 12.49 16.592 12.358 18.459-1.489 16.306 27.881-37.427 31.467-30.368-6.252 13.448-41.3 74.69-14.367 52.868 27.873" fill="#8b4c2e"/><g fill="#fcac53"><path d="m-468.92-253.07l5.57 5.91c7.808 8.284 11.11 13.522 12.527 17.258 1.379 3.625 1.118 6.03 1.338 9.408-.079 1.111-.393 1.995-.715 2.48-.327.493-.536.532-.586.537-.049.005-.28.058-.896-.586-.616-.644-1.447-1.976-2.174-4.141l.107.465c-.457-3.625-1.601-6.558-3.605-8.631-2-2.073-4.79-3.076-7.768-3.152l-2.873-.074.439 2.84c.507 3.279.131 5.206-.332 6.072-.464.867-.863 1.047-1.855 1.115-1.956.134-5.746-1.643-7.773-3.529-2.108-3.724-4.15-6.322-6.531-7.76-2.506-1.513-5.582-1.402-7.869.008l-1.65 1.018.648 1.826c1.172 3.304.133 4.587-1.227 5.352-1.359.764-3.197.59-4.15-.541l-.053-.063-18.309-18.949-.172-.123c-5.839-4.224-11.383-6.183-16.492-6.25-5.11-.067-9.675 1.785-13.445 4.707-7.473 5.792-12.12 15.596-14.26 24.697-3.041 6.385-4.226 13.963-13.23 35.37-11.178 26.572-25.396 55.808-35.25 79.55l-.035.084-.029.088c-3.231 9.833-2.587 16.623-.85 22.11l2.512 7.928 2.098-8.05c2.521-9.67 7.03-14.761 12.48-18.773 3.818-2.809 8.148-5.174 12.479-7.785-.952 4.439-.804 8.01.4 10.881l1.699 4.049 2.49-3.615c1.575-2.285 3.077-3.964 4.297-4.994 1.123-.949 1.867-1.142 2.041-1.182.016.04-.001-.007.018.053.182.602.264 2.173-.152 4.43-4.399 12.423-5.705 19.837-5.277 25.08.431 5.279 2.914 8.204 4.697 10.438l4.217-2.02c-.848-3.807 1.607-7.239 3.68-8.268 1.036-.514 1.572-.433 1.93-.164.358.269 1.075 1.296 1.018 4.061l.01-.16c-1.436 16.337.783 24.851 3.939 29.799 1.578 2.474 3.391 3.987 4.744 4.98 1.353.994 1.962 1.66 1.82 1.334l4.543-1.479c-.491-2.198-.5-3.847-.305-4.836.195-.989.496-1.197.572-1.238.076-.041.264-.144.955.174.683.314 1.692 1.099 2.725 2.402 7.197 12.563 12.742 18.655 17.654 21.871 4.952 3.242 9.04 3.416 12.156 4.432l6.436 2.098-8.186-12.65c-.013-.033-.004-.012-.016-.043.715.047 1.91.135 3.857.705 12.12 5.836 24.328 10.98 36.691 13.539l7.922 1.639-5.746-5.695c-2.062-2.044-4.563-4.341-5.438-5.701-.113-.175-.112-.207-.158-.307.166-.071.32-.149.814-.252l.018-.004.016-.004c17.37-3.856 28.871-12.376 36.787-23.25l-3.281-3.402c-.682.46-2.768 1.192-4.152 1.416 5.559-10.941 5.92-21.22 2.83-29.605-3.12-8.463-9.608-14.94-17.256-18.613-7.648-3.673-16.527-4.584-24.51-1.713-7.982 2.871-14.923 9.617-18.475 20.525l-.047.148-.029.152c-1.865 9.964.296 17.67 4.578 22.791 4.282 5.121 10.481 7.589 16.357 7.775 5.877.186 11.642-1.87 14.883-6.383 3.241-4.513 3.358-11.216-1.02-18.701l-3.518-6.02-.932 6.906c-.812 6.02-4.375 8.399-7.484 8.545-3.109.146-5.999-1.613-6.199-6.828l-.002-.064-.006-.066c-.241-2.575.881-5.02 3.01-7.082 2.131-2.067 5.245-3.613 8.424-4.1 3.179-.486 6.347.044 8.912 1.871 2.553 1.818 4.679 4.989 5.539 10.428.865 8.935-2.523 15.46-8.232 19.678-5.724 4.228-13.932 6-22.494 4.492-15.185-2.678-31.445-15.544-36.576-42.953l.947 1.566 4.223-2.27c-1.889-3.989-3.036-14.03.879-24.543 3.915-10.509 12.615-21.729 30.25-29.22 3.245-1.369 7.498-4.155 9.738-8.396 1.12-2.121 1.645-4.748.852-7.381-.155-.514-.57-.986-.816-1.486 1.608-.101 3.121-.432 4.398-1.098 3.157-1.644 5.213-4.881 4.586-8.266-.461-2.486-2.676-5.09-6.529-6.03-2.366-.575-5.73-.543-9.713-.172 3.587-2.469 6.949-3.858 10.197-4.49 4.577-.89 9.123-.454 13.9-.023 1.672 4.448 3.442 8.83 6.189 12.11 2.774 3.309 7.05 5.145 12.01 4.135 4.81 3.81 6.25 6.761 6.547 9.492.314 2.881-.755 5.957-1.436 9.654l-.248 1.348 1.035.898c2.425 2.105 5.467 2.916 8.43 2.898 2.963-.018 5.916-.801 8.648-1.922 2.733-1.121 5.244-2.591 7.291-4.109 2.047-1.519 3.622-2.971 4.566-4.674l.162-.293.076-.328c1.178-5.081 1.366-9.239.391-12.672-.795-2.797-2.532-5-4.818-6.447 1.573-11.922.338-19.224-2.346-24.318-2.725-5.174-6.448-7.941-9.111-11.438-3.307-28.777-21.13-43.24-33.672-46.31zm-64.46 5.289c3.902.051 8.42 1.533 13.609 5.256l17.918 18.543-.109-.119c2.597 3.082 6.954 3.441 10.174 1.631 2.693-1.515 4.336-4.878 3.826-8.809.405.007.827.163 1.438.531 1.268.766 3.123 2.799 5.137 6.465l.176.324.268.254c2.871 2.747 7.129 5.227 11.531 4.926 2.201-.151 4.551-1.373 5.764-3.641.832-1.556 1.048-3.578 1-5.848.721.28 1.318.688 1.846 1.234 1.055 1.091 1.918 2.936 2.291 5.895l.029.236.076.227c.878 2.615 1.935 4.551 3.258 5.934 1.323 1.382 3.086 2.221 4.852 2.041 1.766-.18 3.194-1.298 4.098-2.66.904-1.362 1.401-3.03 1.518-4.873l.01-.164-.012-.162c-.221-3.02.109-6.418-1.652-11.05-1.07-2.814-3.02-6.118-6.07-10.111 8.939 6.238 18.36 18.375 20.416 38.21l.066.645.381.521c3.23 4.432 6.803 6.934 9.05 11.193 2.243 4.259 3.551 10.589 1.678 23.04l-.279 1.85 1.725.721c1.941.813 3.03 1.984 3.67 4.232.615 2.163.568 5.472-.385 9.82-.356.555-1.427 1.773-3.055 2.98-1.72 1.276-3.933 2.57-6.252 3.521-2.319.951-4.743 1.55-6.855 1.563-1.601.01-2.92-.406-4.109-1.08.644-2.786 1.521-5.836 1.129-9.438-.465-4.274-3.01-8.804-9.143-13.416l-.99-.744-1.182.377c-4.101 1.309-6.088.27-8.332-2.406-2.244-2.676-4.139-7.258-5.951-12.143l-.527-1.424-1.514-.133c-5.21-.454-10.717-1.178-16.691-.016-5.975 1.162-12.286 4.286-18.914 11.04l-5.484 5.59 7.674-1.559c8.357-1.696 13.398-1.673 16.02-1.035 2.623.638 2.776 1.326 2.945 2.238.166.898-.426 2.269-2.084 3.133-1.658.864-4.251 1.159-7.615-.604l-2.473 4.105c2.626 1.804 3.736 3.431 4.127 4.727.391 1.296.188 2.449-.5 3.752-1.376 2.606-5.05 5.243-7.361 6.217l-.002.002h-.002c-18.718 7.947-28.533 20.297-32.879 31.963-2.039 5.473-2.856 10.69-2.945 15.348l-.398-.658-4.449 1.4c2.445 36.811 22.574 55.09 41.984 58.51 9.705 1.712 19.225-.219 26.18-5.357 6.957-5.139 11.191-13.624 10.156-24.07l-.006-.066-.01-.064c-1-6.448-3.784-11.01-7.516-13.672-3.732-2.658-8.238-3.347-12.422-2.707-4.184.64-8.121 2.568-11.04 5.4-2.902 2.815-4.816 6.672-4.447 10.9.308 7.238 5.692 11.64 11.209 11.381 3.823-.179 7.498-2.557 9.813-6.516.972 3.559.419 6.234-.982 8.186-2.027 2.823-6.196 4.534-10.832 4.387-4.636-.147-9.53-2.113-12.828-6.06-3.277-3.918-5.164-9.87-3.557-18.67 3.183-9.642 8.907-14.99 15.473-17.352 6.601-2.375 14.191-1.656 20.807 1.521 6.616 3.178 12.186 8.771 14.832 15.947 2.646 7.177 2.48 15.992-2.719 26.05l.037-.07c-.464.83-.792 1.619-.906 2.508-.114.889.07 1.965.666 2.773.924 1.253 2.121 1.485 3.244 1.537-6.892 7.216-15.956 12.779-29.01 15.684-2.02.419-3.826 1.271-4.551 3.117-.725 1.846.036 3.503.832 4.74.096.15.252.274.355.422-9.241-2.723-18.567-6.721-27.949-11.248l-.172-.084-.186-.055c-2.673-.797-4.897-1.521-7.307-.965-1.205.278-2.685 1.426-3.01 2.898-.329 1.472.084 2.723.717 4.104l.072.158 1.324 2.047c-1.541-.465-3.101-1.066-4.852-2.213-4-2.622-9.195-8.08-16.277-20.496l-.088-.154-.109-.139c-1.393-1.775-2.887-3.075-4.531-3.83-1.644-.755-3.614-.92-5.252-.029-1.638.891-2.61 2.608-2.988 4.525-.045.23-.018.512-.049.752-.666-.627-1.336-1.366-1.998-2.404-2.356-3.692-4.59-11.04-3.205-26.797l.006-.078.002-.082c.076-3.621-.837-6.422-2.932-7.996-2.094-1.574-4.833-1.349-6.949-.299-2.229 1.106-4.159 3.152-5.342 5.707-.134-.597-.272-1.187-.334-1.949-.333-4.077.728-11.04 5.104-23.34l.061-.174.035-.182c.522-2.748.612-4.921.043-6.807-.284-.943-.772-1.848-1.572-2.531-.8-.683-1.887-1.038-2.881-1.035-1.989.006-3.62.996-5.299 2.414-.526.444-1.062 1.042-1.596 1.596.13-2.27.734-5.111 2.139-8.813l2.928-7.717-6.609 4.943c-5.419 4.053-11.928 6.81-17.973 11.258-4.154 3.057-7.962 7.116-10.883 12.742.087-2.922.644-6.293 2.031-10.533 9.758-23.505 23.954-52.706 35.19-79.42 9.217-21.911 10.587-29.956 13.229-35.393l.119-.244.061-.264c1.929-8.362 6.429-17.451 12.598-22.23 3.084-2.391 6.508-3.755 10.443-3.703" shape-rendering="auto" mix-blend-mode="normal" isolation="auto" color-interpolation-filters="linearRGB" white-space="normal" solid-opacity="1" image-rendering="auto" solid-color="#000000" color="#000" color-rendering="auto" vector-effect="none" shape-padding="0" color-interpolation="sRGB"/><path d="m-565.12-213.15c-5.632-.294-13.04 3.181-6 11.05.53.91 3.459 2.808 3.714 6.943.787 12.775 2.864 40.26 1.766 52.14-.313 3.385-3.631 8.451-4.321 8.602-3.982 6.214 2.503 6.857 8 7.158l39.575.234c3.202-.094 5.706-1 6.951-5.076l3.263-9.789-.632 53.26c.067 2.252-.259 5.714-2.211 7.263-6.03 8.371 1.777 11.91 5.684 11.579l45.895-1.474c28.691-7.434-1.838-50.32-20.421-29.474 5.861 5.524 16.235 18.461 3.158 17.895-6.292-1.483-9.888-9.128-10.13-18.629-.475-18.631-.68-42.576.446-42 14.628-12.145 2.706-15.83-.632-15.789h-25.474c-2.945 15.234-14.437 22.388-18.316 21.684-8.651 1.184-9.846-3.677-9.895-6.947 0-6.837-.106-13.975 1.158-21.474 1.782-11.969 13.866-10.705 11.474 1.474 24.749 3.733 10.749-47.999-12-18.11l.632-12.842c2.818-10.187 18.799-7.081 26.316 3.789 1.983 1.529 4.979 1.673 5.474-3.789l-1.684-13.684c-.65-3.326-2.757-3.438-5.684-3.368z"/></g><g color-rendering="auto" shape-rendering="auto" color-interpolation-filters="linearRGB" image-rendering="auto" color-interpolation="sRGB" color="#000"><path d="m-565-215.55c-3.362-.176-7.148.535-9.639 3.234-1.245 1.35-1.987 3.379-1.684 5.471.285 1.963 1.379 3.91 3.123 5.951.002.004.003.004.006.008.43.736.759.971 1.1 1.328.343.36.688.734 1.01 1.162.643.856 1.183 1.86 1.277 3.387.79 12.822 2.813 40.502 1.771 51.77-.095 1.027-.865 3.03-1.725 4.564-.43.769-.877 1.451-1.203 1.885-.065.086-.084.1-.137.164l-.352.078-.535.838c-1.165 1.818-1.814 3.543-1.559 5.33.255 1.787 1.566 3.162 2.887 3.873 2.641 1.422 5.77 1.492 8.561 1.645l.059.004 39.676.234.043-.002c1.809-.053 3.707-.331 5.422-1.416.825-.522 1.542-1.241 2.158-2.096l-.469 39.533.002.051c.029.973-.039 2.229-.285 3.27-.246 1.04-.674 1.767-1.02 2.041l-.26.207-.195.271c-1.697 2.357-2.577 4.585-2.654 6.701-.077 2.116.738 4.02 1.928 5.352 2.38 2.668 5.756 3.556 8.561 3.318l-.125.008 46.16-1.482.258-.066c7.815-2.025 12.239-6.946 13.283-12.557 1.044-5.611-.936-11.562-4.406-16.49-3.47-4.929-8.51-8.936-14.275-10.318-5.765-1.382-12.281.21-17.416 5.971l-1.553 1.742 1.697 1.602c2.764 2.605 6.722 7.243 8.129 10.449.704 1.603.593 2.484.498 2.633-.09.141-.885.694-3.434.645-2.268-.595-4.145-2.218-5.596-4.996-1.489-2.85-2.409-6.807-2.523-11.271-.237-9.298-.407-19.93-.377-28.13.015-4.101.08-7.605.207-9.98.06-1.119.14-1.94.211-2.428 3.488-2.975 5.681-5.571 6.75-8.04 1.125-2.604.884-5.274-.307-7.121-1.191-1.847-2.979-2.872-4.635-3.518-1.655-.645-3.171-.922-4.465-.906h-27.424l-.377 1.943c-1.375 7.115-4.729 12.271-8.119 15.551-1.695 1.64-3.404 2.802-4.803 3.48-1.399.679-2.547.759-2.609.748l-.375-.068-.379.051c-3.873.53-5.342-.263-6.098-1.068-.756-.805-1.05-2.175-1.07-3.535 0-.001 0-.001 0-.002 0-6.85-.093-13.821 1.123-21.04l.004-.022.004-.023c.773-5.191 3.347-6.439 4.652-6.287.653.076 1.251.398 1.77 1.432.518 1.034.847 2.852.324 5.514l-.484 2.461 2.48.375c6.963 1.05 12.11-2.161 14.295-6.811 2.184-4.65 1.951-10.359.125-15.264-1.826-4.905-5.478-9.283-10.771-10.04-3.916-.558-8.19 1.026-12.563 5.04l.281-5.744c.55-1.852 1.507-2.904 2.91-3.582 1.444-.697 3.448-.931 5.723-.561 4.549.742 9.965 3.92 13.332 8.789l.213.307.295.229c1.425 1.099 3.533 1.968 5.709 1.031 2.176-.936 3.334-3.337 3.621-6.504l.023-.256-1.727-14.02-.016-.082c-.418-2.137-1.702-3.946-3.365-4.689-1.631-.729-3.162-.656-4.643-.619zm-.25 4.795l.047.002h.047l46.15.633.045-.002c1.419-.034 2.376.076 2.66.203.28.125.379.074.604 1.209l1.623 13.186c-.226 2.065-.758 2.392-.701 2.367.053-.023-.327-.072-.793-.379-4.15-5.692-10.244-9.35-16.09-10.303-3.01-.491-6-.271-8.582.975-2.58 1.246-4.645 3.617-5.514 6.756l-.07.256-1.025 20.838 4.688-6.158c5.413-7.113 9.748-8.755 12.705-8.334 2.957.421 5.523 3.136 6.947 6.961 1.424 3.825 1.472 8.481.031 11.547-1.218 2.593-3.232 4.21-7.06 4.188.089-2.208-.118-4.237-.92-5.836-1.13-2.254-3.216-3.782-5.508-4.049-4.58-.532-8.932 3.564-9.947 10.33-1.304 7.756-1.189 15.04-1.189 21.846v.018.018c.029 1.91.357 4.605 2.373 6.752 2.02 2.147 5.471 3.191 10.248 2.537l-.754-.016c1.877.34 3.62-.212 5.559-1.152 1.938-.941 4.02-2.385 6.05-4.35 3.715-3.594 7.177-9.04 8.957-16.14h23.67.014c.375-.005 1.602.164 2.664.578 1.062.414 1.965 1.061 2.344 1.648.379.587.583 1.113-.066 2.615-.649 1.502-2.383 3.805-5.871 6.701l.025-.002c-.048.032-.153.04-.191.074-.526.468-.619.796-.721 1.045-.203.499-.248.825-.313 1.229-.128.807-.209 1.806-.277 3.074-.136 2.536-.2 6.077-.215 10.219-.03 8.284.141 18.939.379 28.27.129 5.04 1.126 9.655 3.068 13.373 1.943 3.718 4.967 6.602 8.91 7.531l.221.053.227.01c3.65.158 6.521-.602 7.977-2.893 1.455-2.29.836-4.884-.152-7.135-1.63-3.715-4.691-7.272-7.471-10.119 3.645-3.237 7.361-3.943 11.1-3.047 4.289 1.028 8.572 4.298 11.471 8.414 2.898 4.116 4.332 8.978 3.611 12.848-.713 3.829-3.215 7.02-9.594 8.725l-45.607 1.465-.063.006c-1.103.093-3.583-.623-4.574-1.734-.496-.556-.745-1.087-.713-1.979.033-.891.438-2.246 1.754-4.074l-.457.479c1.607-1.275 2.319-3.054 2.707-4.695.388-1.641.448-3.241.41-4.52l.002.1.631-53.26-4.676-.787-3.273 9.816-.008.029c-.506 1.654-1.081 2.292-1.73 2.703-.647.41-1.601.632-2.986.674l-39.42-.232c-2.696-.15-5.538-.551-6.514-1.076-.49-.264-.397-.234-.41-.324-.011-.075.22-.812.709-1.723.058-.075.132-.158.197-.225.275-.279.51-.568.76-.9.5-.664 1.032-1.488 1.557-2.428 1.05-1.879 2.097-4.105 2.314-6.463 1.155-12.495-.976-39.781-1.76-52.51-.161-2.608-1.213-4.622-2.23-5.977-.509-.677-1.01-1.206-1.373-1.588-.364-.382-.601-.73-.432-.439l-.121-.211-.164-.182c-1.561-1.747-2.125-3.069-2.236-3.834-.111-.765.031-1.061.461-1.527.861-.933 3.592-1.812 5.861-1.693" mix-blend-mode="normal" isolation="auto" white-space="normal" fill="#8b4c2e" solid-opacity="1" solid-color="#000000" vector-effect="none" shape-padding="0"/><path d="m-488.06-96.81c-4.114 1.95-6.55 4.775-9.252 8.432-2.702 3.657-4.646 7.462-5.533 10.494l-.035.115-.022.117c-1.865 9.964.296 17.67 4.578 22.791 4.282 5.121 10.481 7.589 16.357 7.775 5.877.186 11.642-1.87 14.883-6.383 3.241-4.513 3.358-11.216-1.02-18.701l-3.518-6.02-.932 6.906c-.812 6.02-4.375 8.399-7.484 8.545-3.109.146-5.999-1.613-6.199-6.828l-.002-.064-.006-.066c-.125-1.335.079-2.097.396-2.654.317-.557.819-1.018 1.709-1.471 1.779-.906 4.985-1.469 8.65-2.068l-.775-4.736c-3.627.593-7.118 1.033-10.05 2.527-1.467.747-2.827 1.836-3.703 3.375-.865 1.519-1.178 3.375-1 5.398.307 7.239 5.691 11.642 11.209 11.383 3.823-.179 7.498-2.557 9.813-6.516.972 3.559.419 6.234-.982 8.186-2.027 2.823-6.196 4.534-10.832 4.387-4.636-.147-9.53-2.113-12.828-6.06-3.281-3.923-5.173-9.883-3.555-18.701.662-2.202 2.451-5.64 4.746-8.885 1.865-2.638 1.305-2.345 6.893-6.711z" mix-blend-mode="normal" isolation="auto" white-space="normal" fill="#fcac53" solid-opacity="1" solid-color="#000000" vector-effect="none" shape-padding="0"/></g><path d="m-498.78-72.06c.685-6.564 3.495-12.506 8.149-16.886l6.632 6.842c-2.927.999-5.396 4.367-6.935 9.927z" fill="#8b4c2e"/></g>

   xmlns:dc="http://purl.org/dc/elements/1.1/"
   xmlns:cc="http://creativecommons.org/ns#"
   xmlns:rdf="http://www.w3.org/1999/02/22-rdf-syntax-ns#"
   xmlns:svg="http://www.w3.org/2000/svg"
   xmlns="http://www.w3.org/2000/svg"
   xmlns:xlink="http://www.w3.org/1999/xlink"
   xmlns:sodipodi="http://sodipodi.sourceforge.net/DTD/sodipodi-0.dtd"
   xmlns:inkscape="http://www.inkscape.org/namespaces/inkscape"
   version="1"
   width="32"
   height="32"
   id="svg12"
   sodipodi:docname="snow-top-3.svg"
   inkscape:version="0.92.1 r"&gt;
  <path d="m24.627.009c8.36-.339 9.455 9.523 4.064 9.505-.686.003-1.62-.197-3-1.471-14.665-10.216-14.549 2.967-17.708.875-1.727-1.822-1.743 4.653-4.139 5.127-2.122.613-3.699-1.385-3.824-4.503-.366-8.627 4.086-9.427 7.187-9.524 5.974.133 11.562-.045 17.419-.01" fill="url(#0)"/></svg>