<svg xmlns="http://www.w3.org/2000/svg" viewBox="0 0 32 32"><defs><linearGradient gradientTransform="matrix(2.62891 0 0 2.71269-160.16-291.42)" id="0" x1="67.894" y1="108.69" x2="67.854" y2="113.11" gradientUnits="userSpaceOnUse"><stop stop-color="#f9f9f9"/><stop offset="1" stop-color="#999"/></linearGradient></defs><rect width="28.2" height="28.2" x="1.898" y="1.898" fill="#7ec242" fill-rule="evenodd" rx="5.575"/><g transform="matrix(.7385 0 0 .7385 4.184 4.184)"><path d="m14.09 2c-.931-.02-1.739.063-2.07.155-.521.139-1.303.434-1.622.885-.217.302-.4.69-.4 1.228.008 1.015-.013 1.855 0 2.878 0 .571-.198.839-.786.853h-2.693c-.576 0-1.013-.013-1.345.135-.336.152-.575.348-.754.588-.362.472-.422 1.351-.422 1.944 0 0 .004.475.124 1.418.102.731.907 5.804 1.674 7.339.298.601.495.849 1.078 1.114 1.68.391 7.586 2.355 8.228 1 .525-1.375.787-3.642.896-4.541 0 .607.094 3.061 1.751 3.638.656.226 2.01.426 3.39.582 1.249.139 1.859.618 1.859 3.745 0 1.901-.116 2.035-2.25 2.035-1.927 0-2.75 0-2.75-1 0-1 .588-1 2-1v-2c-2.823 0-4 0-4 3.295 0 3.01 1.143 3.705 5.144 3.705 3.137 0 4.244-.105 5.538-4.02.256-.775.88-3.138 1.254-7.109.235-2.507-.227-10.08-.594-11.997v-.003c-.213-1.119-.889-1.666-1.508-1.884-.664-.236-2.01-.472-3.699-.667-1.364-.159-3.168-.347-4.135-.316 0-.7-.466-1.281-1.089-1.53-.83-.323-1.887-.448-2.819-.468" fill="#fff"/><path d="m24 17h-3c0-1.105.672-2 1.5-2 .828 0 1.5.895 1.5 2" opacity=".2"/><path d="m24 16h-3c0-1.105.672-2 1.5-2 .828 0 1.5.895 1.5 2" fill="#fff"/></g>

   xmlns:dc="http://purl.org/dc/elements/1.1/"
   xmlns:cc="http://creativecommons.org/ns#"
   xmlns:rdf="http://www.w3.org/1999/02/22-rdf-syntax-ns#"
   xmlns:svg="http://www.w3.org/2000/svg"
   xmlns="http://www.w3.org/2000/svg"
   xmlns:xlink="http://www.w3.org/1999/xlink"
   xmlns:sodipodi="http://sodipodi.sourceforge.net/DTD/sodipodi-0.dtd"
   xmlns:inkscape="http://www.inkscape.org/namespaces/inkscape"
   version="1"
   width="32"
   height="32"
   id="svg12"
   sodipodi:docname="snow-top-1.svg"
   inkscape:version="0.92.1 r"&gt;
  <path d="m7.288.009c-8.276-.356-9.36 9.992-4.02 9.973.679.003 1.604-.207 2.97-1.543 7.256-10.531 14.706 3.573 17.53.919 1.71-1.912 3.496-.418 4.448.115 2.1.643 3.662.041 3.785-3.231.188-3.321-1.889-6.344-5.923-6.223-5.914.14-12.989-.047-18.787-.01" fill="url(#0)"/><path fill="#f00" fill-opacity="0" d="m0 0h32v32h-32z"/></svg>