<svg xmlns="http://www.w3.org/2000/svg" viewBox="0 0 32 32"><defs><linearGradient gradientTransform="matrix(2.54182 0 0 2.58531-153.47-277.37)" id="0" x1="67.894" y1="108.69" x2="67.854" y2="113.11" gradientUnits="userSpaceOnUse"><stop stop-color="#f9f9f9"/><stop offset="1" stop-color="#999"/></linearGradient></defs><g fill-rule="evenodd"><rect width="28.2" height="28.2" x="1.898" y="1.898" fill="#4f4f4f" rx="5.575"/><g transform="translate(99.21 4.459)"><path d="m-97.31 3.566v16.502c0 3.089 2.486 5.574 5.574 5.574h17.05c3.089 0 5.576-2.486 5.576-5.574v-16.502" fill="#4f4f4f"/><path d="m-69.51 1.02l-2.547 2.547h2.949v-.551c0-.709-.163-1.373-.402-1.996" fill="#3f3f3f"/><g fill="#656565"><path d="m-69.814.443h-3.285l-3.123 3.123h4.164l2.547-2.547c-.08-.208-.2-.381-.303-.576"/><path d="m-79.35 3.566l3.123-3.123h-4.164l-3.123 3.123z"/></g><g fill="#3f3f3f"><path d="m-79.23-2.561l3 3-3.123 3.123h3.123l3.123-3.123-3-3z"/><path d="m-83.51.443l-3.123 3.123h3.123l3.123-3.123-3-3h-3.123z"/></g><path d="m-87.68.443l-3.123 3.123h4.166l3.123-3.123z" fill="#656565"/><path d="m-94.21-1.924l2.367 2.367v3.123h1.041l3.123-3.123-3-3h-1.059c-.901 0-1.717.26-2.469.637" fill="#3f3f3f"/><g fill="#656565"><path d="m-97.31 3.566h5.473v-3.123l-2.367-2.367c-1.825.914-3.105 2.752-3.105 4.939"/><path d="m-90.68-2.561l3 3h4.166l-3-3z"/><path d="m-83.39-2.561l3 3h4.164l-3-3z"/><path d="m-76.1-2.561l3 3h3.285c-.934-1.765-2.728-3-4.871-3z"/></g></g></g><path d="m21.271 18.949l-4.5 2.5-4.5 2.5v-5-5l4.5 2.5z" fill="#bababa" stroke-width="1.019"/>

   xmlns:dc="http://purl.org/dc/elements/1.1/"
   xmlns:cc="http://creativecommons.org/ns#"
   xmlns:rdf="http://www.w3.org/1999/02/22-rdf-syntax-ns#"
   xmlns:svg="http://www.w3.org/2000/svg"
   xmlns="http://www.w3.org/2000/svg"
   xmlns:xlink="http://www.w3.org/1999/xlink"
   xmlns:sodipodi="http://sodipodi.sourceforge.net/DTD/sodipodi-0.dtd"
   xmlns:inkscape="http://www.inkscape.org/namespaces/inkscape"
   height="32"
   width="32"
   version="1"
   id="svg8"
   sodipodi:docname="snow-top-2.svg"
   inkscape:version="0.92.1 r"&gt;
  <path d="m24.646 6.111c2.995 2.684 1.381 7.817 3.674 8.291 2.031.613 3.541-1.385 3.66-4.503.35-8.627-3.911-9.427-6.879-9.524-28.342-2.047-1.762 4.92-.455 5.736" fill="url(#0)"/></svg>