<svg xmlns="http://www.w3.org/2000/svg" viewBox="0 0 32 32"><g fill="#5b5b5b"><rect y="1.898" x="1.898" height="28.2" width="28.2" fill-rule="evenodd" rx="5.575"/><rect rx="1.1" y="8.143" x="5" height="15.714" width="22" stroke-width=".786"/></g><g stroke-width=".786"><g fill="#ccc"><circle r="1.179" cy="11.679" cx="7.75"/><circle r="1.179" cy="11.679" cx="11.679"/><circle r="1.179" cy="11.679" cx="15.607"/><circle r="1.179" cy="11.679" cx="19.536"/></g><circle r="1.179" cy="11.679" cx="23.464" fill="#ff8834"/><g fill="#ccc"><circle r="1.179" cy="16.393" cx="10.11"/><circle r="1.179" cy="16.393" cx="14.04"/></g><circle r="1.179" cy="16.393" cx="17.964" fill="#ff8834"/><g fill="#ccc"><circle r="1.179" cy="16.393" cx="21.893"/><rect rx=".589" y="19.929" x="8.143" height="2.357" width="15.714"/></g></g><g transform="matrix(.75 0 0 .75 3.706 4.233)" stroke-width="1.333"><circle r="8" cy="23" cx="24" fill="#e9541d"/><path d="m23.748 19c-.297.005-.592.017-.786.046-.869.133-1.565.438-2.01.882-.246.241-.391.5-.487.836-.053.203-.071.67-.016.848.183.627.615 1.109 1.431 1.593.346.205.613.34 1.384.687.924.415 1.205.583 1.337.791.051.084.071.128.063.229-.014.161-.094.241-.283.309-.126.044-.171.059-.409.057-.436-.003-.82-.085-1.352-.275-.375-.132-.747-.314-1.053-.516-.308-.202-.333-.209-.425-.16-.069.037-.572.486-.943.848-.242.236-.246.284-.079.447.165.163.627.505.881.653.275.162.46.252.77.367.521.193.958.274 1.777.344.187.016.851.017 1.085 0 1.282-.103 2.327-.521 2.877-1.134.197-.218.316-.404.409-.665.091-.253.114-.752.047-1.054-.11-.49-.405-.932-.881-1.306-.477-.374-.961-.623-2.123-1.088-.812-.324-1.117-.496-1.195-.676-.043-.096-.018-.268.047-.332.128-.129.373-.176.692-.137.594.073 1.356.345 2.028.722.13.071.255.132.283.137.108.029.175-.014.613-.516.538-.617.533-.592.236-.802-.883-.633-1.906-1-3.082-1.111-.234-.021-.536-.028-.833-.023" fill="#fff"/></g>

   xmlns:dc="http://purl.org/dc/elements/1.1/"
   xmlns:cc="http://creativecommons.org/ns#"
   xmlns:rdf="http://www.w3.org/1999/02/22-rdf-syntax-ns#"
   xmlns:svg="http://www.w3.org/2000/svg"
   xmlns="http://www.w3.org/2000/svg"
   xmlns:sodipodi="http://sodipodi.sourceforge.net/DTD/sodipodi-0.dtd"
   xmlns:inkscape="http://www.inkscape.org/namespaces/inkscape"
   height="32"
   width="32"
   version="1"
   id="svg8"
   sodipodi:docname="star-mime-2.svg"
   inkscape:version="0.92.1 r"&gt;
  <g transform="translate(152.47 194.05)" fill="#fff"><path d="m-125.38-193.25l-.077 3.548 3.072 1.831-3.548-.077-3.135 6.791 1.38-7.268-3.072-1.831 3.548.077z"/><path d="m-125.41-183.04l.042-1.955-1.692-1.01 1.955.042 1.727-3.741-.76 4 1.692 1.01-1.955-.042z"/></g></svg>