<svg xmlns="http://www.w3.org/2000/svg" viewBox="0 0 32 32"><defs><linearGradient gradientTransform="matrix(2.54182 0 0 2.58531-153.47-277.37)" id="0" x1="67.894" y1="108.69" x2="67.854" y2="113.11" gradientUnits="userSpaceOnUse"><stop stop-color="#f9f9f9"/><stop offset="1" stop-color="#999"/></linearGradient></defs><rect width="28.2" height="28.2" x="1.898" y="1.898" fill="#afba0d" fill-rule="evenodd" rx="5.575"/><path d="m20.471 4.529l-.896 1.793a8 8 0 0 1 4.425781 7.148438 8 8 0 0 1 -4.423828 7.152344l.891 1.781a10 10 0 0 0 5.533203 -8.933594 10 10 0 0 0 -5.529297 -8.941406m-8.9375.00781a10 10 0 0 0 -5.533203 8.933594 10 10 0 0 0 5.529297 8.941406l.896-1.793a8 8 0 0 1 -4.425781 -7.148438 8 8 0 0 1 4.423828 -7.152344m6.258 1.787l-.895 1.791a4 4 0 0 1 2.212891 3.57422 4 4 0 0 1 -2.210938 3.576172l.891 1.783a6 6 0 0 0 3.320312 -5.359375 6 6 0 0 0 -3.318359 -5.365235m-5.361329.00586a6 6 0 0 0 -3.320312 5.359376 6 6 0 0 0 3.318359 5.365234l.895-1.791a4 4 0 0 1 -2.212891 -3.574219 4 4 0 0 1 2.210938 -3.576173m1.789062 1.576172a2 2 0 0 0 -2 2 2 2 0 0 0 1 1.730469v12.178a10 15.294114 0 0 0 1 .0918 10 15.294114 0 0 0 1 -.07617v-12.195a2 2 0 0 0 1 -1.728516 2 2 0 0 0 -2 -2z" fill="#3f3f3f"/>

   xmlns:dc="http://purl.org/dc/elements/1.1/"
   xmlns:cc="http://creativecommons.org/ns#"
   xmlns:rdf="http://www.w3.org/1999/02/22-rdf-syntax-ns#"
   xmlns:svg="http://www.w3.org/2000/svg"
   xmlns="http://www.w3.org/2000/svg"
   xmlns:xlink="http://www.w3.org/1999/xlink"
   xmlns:sodipodi="http://sodipodi.sourceforge.net/DTD/sodipodi-0.dtd"
   xmlns:inkscape="http://www.inkscape.org/namespaces/inkscape"
   height="32"
   width="32"
   version="1"
   id="svg8"
   sodipodi:docname="snow-top-2.svg"
   inkscape:version="0.92.1 r"&gt;
  <path d="m24.646 6.111c2.995 2.684 1.381 7.817 3.674 8.291 2.031.613 3.541-1.385 3.66-4.503.35-8.627-3.911-9.427-6.879-9.524-28.342-2.047-1.762 4.92-.455 5.736" fill="url(#0)"/></svg>