<svg xmlns="http://www.w3.org/2000/svg" xmlns:xlink="http://www.w3.org/1999/xlink" viewBox="0 0 32 32"><defs><linearGradient id="0" x1="13.699" y1="10.763" x2="13.577" y2="23.94" gradientUnits="userSpaceOnUse"><stop stop-color="#fff"/><stop offset="1" stop-color="#fff" stop-opacity="0"/></linearGradient><linearGradient gradientTransform="matrix(2.59244 0 0 2.58531-157.93-277.73)" id="1" x1="67.894" y1="108.69" x2="67.854" y2="113.11" gradientUnits="userSpaceOnUse"><stop stop-color="#f9f9f9"/><stop offset="1" stop-color="#999"/></linearGradient></defs><g transform="translate(-7.593-38.24)"><g fill-rule="evenodd"><rect y="40.14" x="9.492" height="28.2" width="28.2" fill="#c0f371" rx="5.575"/><path d="m15.07 40.14c-3.089 0-5.576 2.486-5.576 5.574v10.713c1-.207 2.15-.503 2.979-.602 1.52-.181 2.773-.192 3.865-.086 1.093.106 2.025.331 2.902.625.877.294 1.7.657 2.574 1.039.874.382 1.799.782 2.881 1.152 1.082.37 2.321.71 3.822.969 1.502.258 3.266.435 5.398.482 1.06.023 2.528-.103 3.783-.15v-14.14c0-3.089-2.488-5.574-5.576-5.574z" fill="#4d9fc3"/><path d="m26.91 58.796c-4.917.449-8.675 3.143-14.438 2.848-1.179-.108-2.151-.334-2.982-.646v1.768c0 .631.1 1.234.291 1.799.939-.5 1.937-.923 2.861-1.15 1.043-.257 2.082-.365 3.127-.377 2.09-.024 4.207.336 6.439.646 1.116.155 2.26.299 3.445.377 1.185.078 2.41.089 3.686-.018 1.276-.107 2.603-.331 3.992-.73 1.389-.399 2.839-.971 4.363-1.77-4.469-2.476-7.835-3.02-10.785-2.746" fill="#97c607"/></g><g transform="matrix(1.80743 0 0 1.80743 106.04 38.869)" stroke-width=".553"><path fill="#986005" d="m-50.37 11.932h1.288v1.932h-1.288z"/><path d="m-46.941 12.676h-5.449l2.724-4.719z" fill="#74a10d"/><path d="m-47.37 11.02h-4.682l2.341-4.055z" fill="#98c305"/><path d="m-47.792 9.162h-3.723l1.862-3.224z" fill="#addb1e"/></g><path d="m37.695 61.54c-1.524.799-2.974 1.37-4.363 1.77-1.389.399-2.716.624-3.992.73-1.276.107-2.501.096-3.686.018-1.185-.078-2.329-.222-3.445-.377-2.232-.311-4.349-.67-6.439-.646-1.045.012-2.084.12-3.127.377-.924.228-1.922.651-2.861 1.15.746 2.2 2.827 3.775 5.285 3.775h17.05c3.089 0 5.576-2.486 5.576-5.574z" fill="#74a10d" fill-rule="evenodd"/><g transform="matrix(1.01291-.11212.11212 1.01291 69.4 4.486)" stroke-width=".981"><path d="m-49.53 33.911h8.437c.651 0 1.175.524 1.175 1.175v16.275c-1.361 6.666-10.266 4.537-10.786 0v-16.275c0-.651.524-1.175 1.175-1.175" fill="#cdced0"/><path d="m-49.702 34.558l-.072 8.246c.062 1.382-.015 2.765 1.222 4.147 1.236-1.37 4.068-1.94 6.28 0 .844-.695 1.401-1.927 1.366-4.267v-8.102z"/><g transform="translate(-58.881 33.993)" stroke-width=".981"><circle r="4.712" cy="15.797" cx="13.661" fill="#808080"/><path d="m13.660156 11.08594a4.711865 4.711865 0 0 0 -3.01172 1.091796l3.02 3.451 2.932-3.508a4.711865 4.711865 0 0 0 -2.941406 -1.035156m3.096 1.162l-2.883 3.449h4.494a4.711865 4.711865 0 0 0 -1.611329 -3.449219m-6.257812.0625a4.711865 4.711865 0 0 0 -1.542969 3.386719h4.508zm-1.544922 3.585937a4.711865 4.711865 0 0 0 1.611328 3.449219l2.883-3.449zm4.949 0l2.945 3.365a4.711865 4.711865 0 0 0 1.517578 -3.365235zm-.229.041l-2.955 3.535a4.711865 4.711865 0 0 0 2.941406 1.035156 4.711865 4.711865 0 0 0 3.03711 -1.115234z" fill="url(#0)" stroke-width=".981"/><circle r="1.729" cy="15.797" cx="13.661" fill="#cdced0" stroke="#808080" stroke-linecap="round" stroke-width=".196"/></g><g fill="#ab1609"><circle cx="-45.18" cy="45.95" r=".503"/><ellipse cx="-45.28" cy="45.746" rx=".157" ry=".102" stroke="#e73424" stroke-linecap="round" stroke-width=".196"/></g><g fill="#0062cd"><path d="m-49.47 42.965v.049.555h2.037.1 2.039 2.037 2.037v-.604h-2.037-2.037-2.039-.1zm.1.1h1.938v.402h-1.938zm2.037 0h1.938v.402h-1.938zm2.039 0h1.938v.402h-1.938zm2.037 0h1.938v.402h-1.938z" shape-rendering="auto" mix-blend-mode="normal" isolation="auto" color-interpolation-filters="linearRGB" white-space="normal" solid-opacity="1" image-rendering="auto" solid-color="#000000" color="#000" color-rendering="auto" vector-effect="none" shape-padding="0" color-interpolation="sRGB"/><text x="-47.518" y="42.45" font-family="sans-serif" word-spacing="0" line-height="1.25" letter-spacing="0" font-size="1.01"><tspan x="-47.518" y="42.45">00:00:01</tspan></text></g><g stroke-width=".981"><path transform="matrix(.65352.39192-.39192.65352-6.951 29.559)" d="m-33.741 49.568l-1.034-.597 1.034-.597z" fill="#808080" id="2"/><path transform="matrix(.65352.39192-.39192.65352-6.951 29.559)" d="m-32.714 49.615l-1.034-.597 1.034-.597z" fill="#808080" id="3"/></g><g transform="matrix(-.5.86603-.86603-.5-24.475 114.34)" stroke-width=".981"><use xlink:href="#2"/><use xlink:href="#3"/></g><g fill="#808080"><path d="m-41.642 50.946l-.129.272-1.247-.576-.071.153 1.244.575-.123.258.582-.135z"/><path d="m-48.48 51.747l-.131-.272 1.23-.61-.075-.151-1.227.609-.124-.257-.26.538z"/><path d="m-46.814 52.881l-.305.508c1.806.846 3.131.46 4.203-.576-1.463.616-2.833.896-3.898.068"/></g></g></g>

   xmlns:dc="http://purl.org/dc/elements/1.1/"
   xmlns:cc="http://creativecommons.org/ns#"
   xmlns:rdf="http://www.w3.org/1999/02/22-rdf-syntax-ns#"
   xmlns:svg="http://www.w3.org/2000/svg"
   xmlns="http://www.w3.org/2000/svg"
   xmlns:xlink="http://www.w3.org/1999/xlink"
   xmlns:sodipodi="http://sodipodi.sourceforge.net/DTD/sodipodi-0.dtd"
   xmlns:inkscape="http://www.inkscape.org/namespaces/inkscape"
   version="1"
   width="32"
   height="32"
   id="svg12"
   sodipodi:docname="snow-top-4.svg"
   inkscape:version="0.92.1 r"&gt;
  <path d="m7.196.009c-8.161-.339-9.231 9.523-3.968 9.505.669.003 1.581-.197 2.929-1.471 3.773-4.147 9.01 4.479 14.696-1.042.61-.911 1.804-1.135 2.455-.627 1.045.677 2.87 2.991 3.88 3 2.359.513 4.095-.198 4.816-3.188.185-3.165-2.303-6.286-6.281-6.17-5.832.133-12.809-.045-18.527-.01" fill="url(#1)"/></svg>