<svg xmlns="http://www.w3.org/2000/svg" xmlns:xlink="http://www.w3.org/1999/xlink" viewBox="0 0 32 32"><defs><linearGradient xlink:href="#3" id="4" gradientUnits="userSpaceOnUse" x1="-23.24" y1="-185.08" x2="-28.704" y2="-186.05"/><linearGradient xlink:href="#3" id="2" gradientUnits="userSpaceOnUse" x1="-34.914" y1="-193.53" x2="-20.469" y2="-181.36"/><linearGradient id="3"><stop stop-color="#ffff5e"/><stop offset="1" stop-color="#f6a32d"/></linearGradient><linearGradient id="1"><stop stop-color="#f9f9f9"/><stop offset="1" stop-color="#999"/></linearGradient><linearGradient xlink:href="#1" id="0" gradientUnits="userSpaceOnUse" x1="-33.14" y1="-185.13" x2="-35.775" y2="-177.2"/><radialGradient xlink:href="#1" id="5" cx="-176.59" cy="-120.91" r="3.01" gradientUnits="userSpaceOnUse" gradientTransform="matrix(2.21087.05719-.05496 2.12455 362.18 94.22)"/></defs><rect width="28.2" height="28.2" x="1.898" y="1.898" fill="#8e8e8e" fill-rule="evenodd" rx="5.575"/><g transform="translate(34.3-.271)"><path d="m-26.832 2.17c-3.089 0-5.574 2.486-5.574 5.574v17.05c0 3.089 2.486 5.576 5.574 5.576h8.527v-7.713c0-.772.154-1.506.436-2.174.281-.667.69-1.268 1.193-1.771.504-.504 1.104-.912 1.771-1.193.667-.281 1.402-.438 2.174-.438h8.527v-9.34c0-3.089-2.488-5.574-5.576-5.574z" fill="#8e8e8e" fill-rule="evenodd"/><g transform="translate(-34.29.139)" fill="#4d4d4d"><circle cx="25.696" cy="6.4" r="1.438"/><circle cx="6.232" cy="6.4" r="1.438"/><circle cx="25.743" cy="25.864" r="1.438"/><circle cx="6.28" cy="25.864" r="1.438"/></g><path d="m-18.305 9.271c-3.866 0-7 3.134-7 7v7h7c3.866 0 7-3.134 7-7 0-3.866-3.134-7-7-7m0 3a4 4 0 0 1 4 4 4 4 0 0 1 -4 4 4 4 0 0 1 -4 -4 4 4 0 0 1 4 -4" fill="#4d4d4d"/><path d="m-4.203 17.08h-8.527c-.772 0-1.506.156-2.174.438-.667.281-1.268.69-1.771 1.193-.504.504-.912 1.104-1.193 1.771-.281.667-.436 1.402-.436 2.174v7.713h8.525c3.089 0 5.576-2.488 5.576-5.576z" fill="#4daaf5" fill-rule="evenodd"/><path d="m-10.732 19.674c-.294 0-.593.144-.785.357-.19.211-.303.501-.303.785 0 .282.116.567.303.773l.002.002.002.002c.194.209.491.348.781.348.3 0 .611-.143.809-.367l.002-.002.002-.002c.187-.218.295-.508.295-.795 0-.275-.118-.558-.305-.758-.202-.218-.511-.344-.803-.344m-.785 2.377c-.192 0-.374.038-.592.098-.227.062-.468.154-.73.271l-.227.102-.316 1.35.803-.211c.04-.01.119-.028.225-.049.062-.012.084-.012.117-.016-.004.043-.004.08-.018.15l-.002.006-.002.006c-.021.118-.042.228-.064.328l-.496 1.99-.002.004c-.03.127-.053.235-.068.332-.016.102-.025.204-.025.305 0 .3.117.609.326.828l.002.002.002.002c.242.248.588.344.924.344.184 0 .366-.032.564-.086l.008-.002c.208-.054.449-.138.746-.258l.24-.098.342-1.457-.871.32c0 0-.061.018-.154.031h-.002c-.097.014-.168.018-.184.018-.006 0 .001 0-.004 0 .002-.032.007-.076.02-.148l.002-.006c0-.002 0-.002 0-.004.023-.109.049-.218.078-.33v-.002l.502-1.996v-.002c.03-.116.053-.232.068-.35.014-.109.023-.201.023-.295 0-.3-.1-.614-.313-.838-.243-.256-.586-.34-.922-.34m-.664 1.471l.01.01.01.008c-.034-.032-.006.013-.018-.004-.016-.013.024.013-.002-.014" shape-rendering="auto" mix-blend-mode="normal" isolation="auto" color-interpolation-filters="linearRGB" white-space="normal" fill="#fff" solid-opacity="1" image-rendering="auto" solid-color="#000000" color="#000" color-rendering="auto" vector-effect="none" shape-padding="0" color-interpolation="sRGB"/></g><g transform="translate(49.877 194.68)"><path d="m-35.21-194.22c-5.577-1.531-5.951 3.24-4.58 5.493 4.381 6.983 6.796 6.577 9.398 7.895 1.712 2.064 3.451 3.4 6.469 4.1 11.69 1.559 3.242-8.417.92-8.649-5.065.012-7.547-6.123-12.206-8.838" fill="url(#0)"/><path d="m-35.21-194.22c3.76.276 5.616-.626 8.93-.421 4.319.283 8.307 2.053 7.838 6.574-.347 2.567-.37 2.25.186 4.296.532 1.535-.252 4.232-.487 4.654-2.715 4.963-1.536 4.965-2.656 7.742l-.906-.418-2.508-11.358c-7.177-.909-10.754-10.11-10.398-11.07" fill="url(#2)"/><path d="m-28.419-184.29c.362.274 1.553-5.105 1.172-5.653 1.379 2.44 1.919 4.616 2.435 6.783-1.276-.283-2.289-.554-3.607-1.13" fill="url(#4)"/><circle r="3.01" cy="-171.07" cx="-21.728" fill="url(#5)"/></g></svg>