<svg xmlns="http://www.w3.org/2000/svg" xmlns:xlink="http://www.w3.org/1999/xlink" viewBox="0 0 32 32"><defs><linearGradient gradientTransform="matrix(-2.54182 0 0 2.58531 185.47-277.37)" id="1" x1="67.894" y1="108.69" x2="67.854" y2="113.11" gradientUnits="userSpaceOnUse"><stop stop-color="#f9f9f9"/><stop offset="1" stop-color="#999"/></linearGradient></defs><g fill-rule="evenodd"><rect width="28.2" height="28.2" x="1.898" y="1.898" fill="#4f4f4f" rx="5.575"/><g transform="translate(69.29-31.05)"><g fill="#f45c49"><path d="m-67.39 50.13c.09.199.094.444.246.596.325.325.775.525 1.273.525h2.396c.498 0 .947-.2 1.271-.525.325-.325.525-.775.525-1.273v-4.793c0-.498-.2-.949-.525-1.273-.325-.325-.774-.525-1.271-.525h-2.396c-.498 0-.949.2-1.273.525-.152.152-.156.397-.246.596z"/><path d="m-54.811 61.15c.145-.25.324-.486.324-.799v-5.03c0-.465-.185-.884-.482-1.188-.298-.303-.71-.49-1.166-.49h-9.887c-.456 0-.868.187-1.166.49-.125.128-.123.336-.203.5v.945c0 3.089 2.488 5.574 5.576 5.574z"/><path d="m-39.19 54.633c-.08-.164-.078-.372-.203-.5-.298-.303-.71-.49-1.166-.49h-9.887c-.456 0-.868.187-1.166.49-.298.303-.482.723-.482 1.188v5.03c0 .313.179.549.324.799h7c3.089 0 5.576-2.486 5.576-5.574z"/><path d="m-51.766 32.949c-.145.25-.324.486-.324.799v5.03c0 .465.185.884.482 1.188.298.303.71.49 1.166.49h9.887c.456 0 .868-.187 1.166-.49.125-.128.123-.336.203-.5v-.945c0-3.089-2.488-5.574-5.576-5.574z"/></g><path d="m-67.39 39.469v4.508c.09-.199.094-.444.246-.596.325-.325.775-.525 1.273-.525h2.396c.498 0 .947.2 1.271.525.325.325.525.775.525 1.273v4.793c0 .498-.2.949-.525 1.273-.325.325-.774.525-1.271.525h-2.396c-.498 0-.949-.2-1.273-.525-.152-.152-.156-.397-.246-.596v4.508c.08-.164.078-.372.203-.5.298-.303.71-.49 1.166-.49h9.887c.456 0 .868.187 1.166.49.298.303.482.723.482 1.188v5.03c0 .313-.179.549-.324.799h3.045c-.145-.25-.324-.486-.324-.799v-5.03c0-.465.185-.884.482-1.188.298-.303.71-.49 1.166-.49h9.887c.456 0 .868.187 1.166.49.125.128.123.336.203.5v-4.508c-.09.199-.094.444-.246.596-.325.325-.775.525-1.273.525h-2.396c-.498 0-.947-.2-1.271-.525-.325-.325-.525-.775-.525-1.273v-4.793c0-.498.2-.949.525-1.273.325-.325.774-.525 1.271-.525h2.396c.498 0 .949.2 1.273.525.152.152.156.397.246.596v-4.508c-.08.164-.078.372-.203.5-.298.303-.71.49-1.166.49h-9.887c-.456 0-.868-.187-1.166-.49-.298-.303-.482-.723-.482-1.188v-5.03c0-.313.179-.549.324-.799h-3.045c.145.25.324.486.324.799v5.03c0 .465-.185.884-.482 1.188-.298.303-.71.49-1.166.49h-9.887c-.456 0-.868-.187-1.166-.49-.125-.128-.123-.336-.203-.5" fill="#4f4f4f"/><path d="m-67.39 39.469c.08.164.078.372.203.5.298.303.71.49 1.166.49h9.887c.456 0 .868-.187 1.166-.49.298-.303.482-.723.482-1.188v-5.03c0-.313-.179-.549-.324-.799h-7c-3.089 0-5.576 2.486-5.576 5.574z" fill="#f45c49"/><path d="m-57.781 42.855c-.415 0-.79.189-1.061.492-.271.303-.438.723-.438 1.188v5.03c0 .465.167.884.438 1.188.271.303.646.492 1.061.492h8.986c.415 0 .79-.189 1.061-.492.271-.303.438-.723.438-1.188v-5.03c0-.465-.167-.884-.438-1.188-.271-.303-.646-.492-1.061-.492z" fill="#4f4f4f"/><g fill="#f45c49"><path d="m-57.781 42.855h8.986c.415 0 .79.189 1.061.492.271.303.438.723.438 1.188v5.03c0 .465-.167.884-.438 1.188-.271.303-.646.492-1.061.492h-8.986c-.415 0-.79-.189-1.061-.492-.271-.303-.438-.723-.438-1.188v-5.03c0-.465.167-.884.438-1.188.271-.303.646-.492 1.061-.492"/><path d="m-39.19 43.977c-.09-.199-.094-.444-.246-.596-.325-.325-.775-.525-1.273-.525h-2.396c-.498 0-.947.2-1.271.525-.325.325-.525.775-.525 1.273v4.793c0 .498.2.949.525 1.273.325.325.774.525 1.271.525h2.396c.498 0 .949-.2 1.273-.525.152-.152.156-.397.246-.596z"/></g></g></g>

   xmlns:dc="http://purl.org/dc/elements/1.1/"
   xmlns:cc="http://creativecommons.org/ns#"
   xmlns:rdf="http://www.w3.org/1999/02/22-rdf-syntax-ns#"
   xmlns:svg="http://www.w3.org/2000/svg"
   xmlns="http://www.w3.org/2000/svg"
   xmlns:xlink="http://www.w3.org/1999/xlink"
   xmlns:sodipodi="http://sodipodi.sourceforge.net/DTD/sodipodi-0.dtd"
   xmlns:inkscape="http://www.inkscape.org/namespaces/inkscape"
   height="32"
   width="32"
   version="1"
   id="svg8"
   sodipodi:docname="snow-top-3.svg"
   inkscape:version="0.92.1 r"&gt;
  <path fill="#00000f" fill-opacity="0" d="m0 0h32v32h-32z" id="0"/><path d="m7.354 6.111c-2.995 2.684-1.381 7.817-3.674 8.291-2.031.613-3.541-1.385-3.66-4.503-.35-8.627 3.911-9.427 6.879-9.524 28.342-2.047 1.762 4.92.455 5.736" fill="url(#1)"/><use xlink:href="#0"/></svg>