<svg xmlns="http://www.w3.org/2000/svg" xmlns:xlink="http://www.w3.org/1999/xlink" viewBox="0 0 32 32"><defs><linearGradient xlink:href="#3" id="4" x1="-227.98" y1="-131.26" x2="-234.8" y2="-134.14" gradientUnits="userSpaceOnUse"/><linearGradient xlink:href="#3" id="2" x1="-241.01" y1="-141.61" x2="-226.57" y2="-129.44" gradientUnits="userSpaceOnUse"/><linearGradient id="3"><stop stop-color="#13a9ea"/><stop offset="1" stop-color="#372db5"/></linearGradient><linearGradient id="1"><stop stop-color="#f9f9f9"/><stop offset="1" stop-color="#999"/></linearGradient><linearGradient xlink:href="#1" id="0" x1="-239.23" y1="-133.21" x2="-241.87" y2="-125.28" gradientUnits="userSpaceOnUse"/><radialGradient xlink:href="#1" id="5" cx="-176.59" cy="-120.91" r="3.01" gradientUnits="userSpaceOnUse" gradientTransform="matrix(2.21087.05719-.05496 2.12455 156.08 146.14)"/></defs><rect width="28.2" height="28.2" x="1.898" y="1.898" fill="#042c38" fill-rule="evenodd" rx="5.575"/><g transform="translate(176.03-4.602)"><path d="m-168.56 6.5c-3.089 0-5.574 2.488-5.574 5.576v5.342c.206-.652.423-1.284.68-1.723.389-.742.931-1.376 1.559-1.889.627-.513 1.34-.905 2.07-1.16.73-.255 1.477-.374 2.174-.344.697.03 1.342.211 1.869.555.626-.722 1.319-1.207 2.049-1.566.73-.36 1.496-.594 2.264-.818-.791.974-1.351 1.915-1.689 2.824-.338.909-.455 1.785-.357 2.627.098.842.41 1.649.928 2.422.517.772 1.24 1.51 2.16 2.211-1.191-.218-3.322-.297-5.17-.201-.252.576-.404 1.162-.465 1.746-.061.584-.032 1.166.072 1.734.209 1.138.724 2.222 1.443 3.156.72.934 1.644 1.719 2.672 2.262 1.028.542 2.161.842 3.295.803.95-.044 1.749-.22 2.428-.506.679-.286 1.238-.681 1.707-1.168.469-.487.847-1.064 1.166-1.711.319-.647.577-1.365.807-2.133.459-1.535.799-3.27 1.264-5.04.465-1.775 1.054-3.591 2.01-5.283.879.663 1.591 1.387 2.164 2.158.475.639.802 1.329 1.105 2.027v-6.32c0-3.089-2.488-5.576-5.576-5.576" fill="#042c38" fill-rule="evenodd"/><path d="m-162.92 26.958c9.402 5.85 18.14-10.791 7.774-18.798 11.678 1.52 6.07 14.08 7.315 22.26-4.373-.195-10.147 3.955-14.06 1.743-.962-.544-.592-4.344-1.027-5.205" fill="#ffc607"/><path d="m-164.67 19.635c-.953 1.86-.517 2.162-.218 2.516 1.014.896 2.666.395 5.665-1.282.144 1.147-.809 2.463-3.292 3.709-.815.407-1.215 1.037-.407 2.379l3.775 4.541-5.262-.447-4.341-11.05z" fill="#d14b01"/><g fill="#f78f04"><path d="m-155.59 11.701c4.571 2.958 3.481 7.234 4.837 10.94l.967-6.828c-1.836-2.911-2.127-3.632-5.805-4.112"/><path d="m-152.78 18.808c.43 3.956-.048 6.674.707 6.828l1.358-3.702c-.343-.306-1.14-2.142-2.065-3.126"/></g><path d="m-170.88 9.739c-1.552 2.036-2.04 4.02-1.631 5.841l2.973-2.184c-.685-.715-1.216-1.755-1.342-3.657" fill="#dc4a04"/><path d="m-164.38 16.554c1.928-.002 3.935.359 5.631-.71-.881 1.301-1.877 2.215-3.736 3.03z" fill="#fff"/><path d="m-164.17 13.738c.94.588 1.061 1.406 5.341 1.052.314.333.317.685.079 1.052-1.466.975-3.72 1.038-5.487.654z" fill="#f25900"/><path d="m-158.83 14.791c.321.605.004.898-.195 1.195 1.115.149 1.302-1.498.195-1.195" fill="#656465"/><path d="m-145.93 18.396c-.303-.699-.631-1.389-1.105-2.027-.573-.772-1.285-1.495-2.164-2.158-.956 1.693-1.545 3.508-2.01 5.283-.465 1.775-.805 3.509-1.264 5.04-.229.768-.488 1.486-.807 2.133-.319.647-.697 1.224-1.166 1.711-.469.487-1.028.882-1.707 1.168-.679.286-1.478.462-2.428.506-1.134.039-2.267-.26-3.295-.803-1.028-.542-1.952-1.327-2.672-2.262-.72-.934-1.235-2.02-1.443-3.156-.104-.569-.134-1.15-.072-1.734.061-.584.213-1.17.465-1.746 1.848-.096 3.978-.017 5.17.201-.92-.701-1.643-1.439-2.16-2.211-.517-.772-.83-1.58-.928-2.422-.098-.842.019-1.718.357-2.627.338-.909.898-1.85 1.689-2.824-.768.224-1.534.459-2.264.818-.73.36-1.423.845-2.049 1.566-.527-.344-1.173-.524-1.869-.555-.697-.03-1.444.089-2.174.344-.73.255-1.443.647-2.07 1.16-.627.513-1.17 1.146-1.559 1.889-.257.439-.474 1.071-.68 1.723v11.711c0 3.089 2.486 5.574 5.574 5.574h17.05c3.089 0 5.576-2.486 5.576-5.574z" fill="#ef5a00" fill-rule="evenodd"/></g><g transform="matrix(-1 0 0 1-223.97 142.77)"><g fill="#f9f9f9"><path d="m-228.95-129.3l-.27 2.221-.122-2.378z"/><path d="m-228.66-130.01l-.27 2.221-.122-2.378z"/><path d="m-228.43-129.95l-.27 1.6-.122-1.713z"/></g><path d="m-241.31-142.31c-5.577-1.531-5.951 3.24-4.58 5.493 4.381 6.983 6.796 6.577 9.398 7.895 1.712 2.064 3.451 3.4 6.469 4.1 11.69 1.559 3.242-8.417.92-8.649-5.065.012-7.547-6.123-12.206-8.838" fill="url(#0)"/><path d="m-241.31-142.31c3.76.276 5.616-.626 8.93-.421 4.319.283 8.307 2.053 7.838 6.574-.347 2.567-.37 2.25.186 4.296.532 1.535-.252 4.232-.487 4.654-2.715 4.963-1.536 4.965-2.656 7.742l-.906-.418-2.508-11.358c-7.177-.909-10.754-10.11-10.398-11.07" fill="url(#2)"/><path d="m-234.52-132.37c.362.274 1.553-5.105 1.172-5.653 1.379 2.44 1.919 4.616 2.435 6.783-1.276-.283-2.289-.554-3.607-1.13" fill="url(#4)"/><circle r="3.01" cy="-119.15" cx="-227.83" fill="url(#5)"/></g></svg>