<svg xmlns="http://www.w3.org/2000/svg" viewBox="0 0 32 32" xmlns:xlink="http://www.w3.org/1999/xlink"><defs><linearGradient xlink:href="#3" id="4" x1="-227.98" y1="-131.26" x2="-234.8" y2="-134.14" gradientUnits="userSpaceOnUse"/><linearGradient xlink:href="#3" id="2" x1="-241.01" y1="-141.61" x2="-226.57" y2="-129.44" gradientUnits="userSpaceOnUse"/><linearGradient id="3"><stop stop-color="#13a9ea"/><stop offset="1" stop-color="#372db5"/></linearGradient><linearGradient id="1"><stop stop-color="#f9f9f9"/><stop offset="1" stop-color="#999"/></linearGradient><linearGradient xlink:href="#1" id="0" x1="-239.23" y1="-133.21" x2="-241.87" y2="-125.28" gradientUnits="userSpaceOnUse"/><radialGradient xlink:href="#1" id="5" cx="-176.59" cy="-120.91" r="3.01" gradientUnits="userSpaceOnUse" gradientTransform="matrix(2.21087.05719-.05496 2.12455 156.08 146.14)"/></defs><rect width="28.2" height="28.2" x="1.898" y="1.898" fill="#fe6d40" fill-rule="evenodd" rx="5.575"/><g transform="translate(52.38-6.01)"><path d="m-36.38 11.872c-.058 0-.307.165-.573.366-2.349 1.739-5.652 3.551-8.798 3.998l-.408.063.028.411c.047.695.451 2.54.838 3.837.496 1.659 1.047 3.053 1.769 4.487 1.637 3.246 3.706 5.256 6.248 6.8.331.201.639.309.896.322.257-.012.565-.121.896-.322 2.542-1.544 4.611-3.553 6.248-6.8.723-1.433 1.273-2.827 1.769-4.487.388-1.296.791-3.142.838-3.837l.028-.411-.408-.063c-3.146-.447-6.45-2.259-8.798-3.998-.266-.201-.515-.366-.573-.366" fill="#fff"/><path d="m-36.38 14.423c-2.04 1.432-4.516 2.814-7.27 3.543.15.733.238 1.288.439 1.958.466 1.557.96 2.808 1.627 4.131 1.411 2.799 3.06 4.39 5.204 5.737 2.144-1.347 3.793-2.938 5.204-5.737.667-1.323 1.161-2.574 1.627-4.131.2-.67.289-1.225.439-1.958-2.754-.729-5.23-2.111-7.27-3.543" fill="#fe6d40"/><g fill="#fff"><path d="m-37.466 23.03h2.173v4.057h-2.173z"/><path d="m-36.38 16.943l1.992 3.622 1.992 3.622h-3.984-3.984l1.992-3.622z" stroke-width="2.147"/><path d="m-36.38 16.219l1.63 2.535 1.63 2.535h-3.26-3.26l1.63-2.535z" stroke-width="1.625"/></g></g><g transform="matrix(-1 0 0 1-223.97 142.77)"><g fill="#f9f9f9"><path d="m-228.95-129.3l-.27 2.221-.122-2.378z"/><path d="m-228.66-130.01l-.27 2.221-.122-2.378z"/><path d="m-228.43-129.95l-.27 1.6-.122-1.713z"/></g><path d="m-241.31-142.31c-5.577-1.531-5.951 3.24-4.58 5.493 4.381 6.983 6.796 6.577 9.398 7.895 1.712 2.064 3.451 3.4 6.469 4.1 11.69 1.559 3.242-8.417.92-8.649-5.065.012-7.547-6.123-12.206-8.838" fill="url(#0)"/><path d="m-241.31-142.31c3.76.276 5.616-.626 8.93-.421 4.319.283 8.307 2.053 7.838 6.574-.347 2.567-.37 2.25.186 4.296.532 1.535-.252 4.232-.487 4.654-2.715 4.963-1.536 4.965-2.656 7.742l-.906-.418-2.508-11.358c-7.177-.909-10.754-10.11-10.398-11.07" fill="url(#2)"/><path d="m-234.52-132.37c.362.274 1.553-5.105 1.172-5.653 1.379 2.44 1.919 4.616 2.435 6.783-1.276-.283-2.289-.554-3.607-1.13" fill="url(#4)"/><circle r="3.01" cy="-119.15" cx="-227.83" fill="url(#5)"/></g></svg>