<svg xmlns="http://www.w3.org/2000/svg" viewBox="0 0 32 32"><g fill-rule="evenodd"><g fill="#e2b322"><path d="m1.898 12.199c.006.014.008.031.014.045.387.915.859 1.784 1.408 2.598.549.813 1.176 1.57 1.867 2.262.692.692 1.448 1.318 2.262 1.867.813.549 1.683 1.022 2.598 1.408.915.387 1.875.687 2.871.891.996.204 2.026.311 3.082.311 1.056 0 2.086-.107 3.082-.311.996-.204 1.956-.504 2.871-.891.915-.387 1.784-.859 2.598-1.408.813-.549 1.57-1.176 2.262-1.867.692-.692 1.318-1.448 1.867-2.262.549-.813 1.022-1.683 1.408-2.598.006-.014.008-.031.014-.045v-4.727c0-3.089-2.486-5.574-5.574-5.574h-17.05c-3.089 0-5.574 2.486-5.574 5.574v4.727"/><path d="m1.898 14.299v10.229c0 3.089 2.486 5.574 5.574 5.574h17.05c3.089 0 5.574-2.486 5.574-5.574v-10.229c-.206.362-.363.754-.596 1.098-.586.867-1.253 1.673-1.99 2.41-.737.737-1.544 1.405-2.41 1.99-.867.586-1.793 1.09-2.768 1.502-.974.412-1.997.732-3.057.949-1.06.217-2.157.332-3.281.332-1.124 0-2.221-.115-3.281-.332-1.06-.217-2.082-.537-3.057-.949-.974-.412-1.901-.916-2.768-1.502-.867-.586-1.673-1.253-2.41-1.99-.737-.737-1.405-1.544-1.99-2.41-.232-.344-.39-.736-.596-1.098"/></g><g transform="translate(43.44 3.738)"><path d="m-27.441-1.84h-8.527c-3.089 0-5.574 2.486-5.574 5.574v17.05c0 3.089 2.486 5.576 5.574 5.576h8.527z" fill="#e2b322"/><path d="m-27.441-1.84v28.2h8.525c3.089 0 5.576-2.488 5.576-5.576v-17.05c0-3.089-2.488-5.574-5.576-5.574z" fill="#f2cd22"/></g></g><g fill="#fff"><path d="m13.482 27.741c0 .535.434.968.968.968.535 0 .969-.434.969-.969 0-.173-.054-.332-.133-.472l.715-.763.714.763c-.079.14-.133.299-.133.472 0 .535.434.968.969.968.535 0 .968-.434.968-.968 0-.535-.434-.969-.969-.969-.089 0-.173.014-.254.036l-.799-.823 1.635-1.732v-.581h-.387l-3.039 3.136c-.082-.022-.165-.036-.254-.036-.535 0-.969.434-.969.969m.582 0c0-.214.173-.387.387-.387.214 0 .387.173.387.387 0 .214-.173.387-.387.387-.214 0-.387-.173-.387-.387m-.194-3.487l1.441 1.526.496-.509-1.55-1.598h-.387zm3.294 3.487c0-.214.173-.387.387-.387.214 0 .387.173.387.387 0 .214-.173.387-.387.387-.214 0-.387-.173-.387-.387"/><path d="m19.943 8.268l-5.802 1.338c-.818.103-.787.941-.787.941v.775 2.795c-.189-.054-.385-.082-.581-.083-1.177 0-2.131.954-2.131 2.131 0 1.177.954 2.131 2.131 2.131 1.101-.001 2.02-.84 2.121-1.937h.01v-.194-5.169l4.262-1.014v2.973c-.189-.054-.385-.082-.581-.083-1.177 0-2.131.954-2.131 2.131 0 1.177.954 2.131 2.131 2.131 1.101-.001 2.02-.84 2.121-1.937h.01v-5.541-.659c0 0 .01-.893-.773-.728"/><path d="m1.898 14.299c.206.362.363.754.596 1.098.586.867 1.253 1.673 1.99 2.41.737.737 1.544 1.405 2.41 1.99.867.586 1.793 1.09 2.768 1.502.974.412 1.997.732 3.057.949 1.06.217 2.157.332 3.281.332 1.124 0 2.221-.115 3.281-.332 1.06-.217 2.082-.537 3.057-.949.974-.412 1.901-.916 2.768-1.502.867-.586 1.673-1.253 2.41-1.99.737-.737 1.405-1.544 1.99-2.41.232-.344.39-.736.596-1.098v-2.1c-.006.014-.008.031-.014.045-.387.915-.859 1.784-1.408 2.598-.549.813-1.176 1.57-1.867 2.262-.692.692-1.448 1.318-2.262 1.867-.813.549-1.683 1.022-2.598 1.408-.915.387-1.875.687-2.871.891-.996.204-2.026.311-3.082.311-1.056 0-2.086-.107-3.082-.311-.996-.204-1.956-.504-2.871-.891-.915-.387-1.784-.859-2.598-1.408-.813-.549-1.57-1.176-2.262-1.867-.692-.692-1.318-1.448-1.867-2.262-.549-.813-1.022-1.683-1.408-2.598-.006-.014-.008-.031-.014-.045v2.1" fill-rule="evenodd"/></g>

   xmlns:dc="http://purl.org/dc/elements/1.1/"
   xmlns:cc="http://creativecommons.org/ns#"
   xmlns:rdf="http://www.w3.org/1999/02/22-rdf-syntax-ns#"
   xmlns:svg="http://www.w3.org/2000/svg"
   xmlns="http://www.w3.org/2000/svg"
   xmlns:sodipodi="http://sodipodi.sourceforge.net/DTD/sodipodi-0.dtd"
   xmlns:inkscape="http://www.inkscape.org/namespaces/inkscape"
   height="32"
   width="32"
   version="1"
   id="svg8"
   sodipodi:docname="star-mime-2.svg"
   inkscape:version="0.92.1 r"&gt;
  <g transform="translate(152.47 194.05)" fill="#fff"><path d="m-125.38-193.25l-.077 3.548 3.072 1.831-3.548-.077-3.135 6.791 1.38-7.268-3.072-1.831 3.548.077z"/><path d="m-125.41-183.04l.042-1.955-1.692-1.01 1.955.042 1.727-3.741-.76 4 1.692 1.01-1.955-.042z"/></g></svg>