<svg xmlns="http://www.w3.org/2000/svg" viewBox="0 0 32 32"><defs><linearGradient gradientTransform="matrix(2.59244 0 0 2.58531-157.93-277.73)" id="0" x1="67.894" y1="108.69" x2="67.854" y2="113.11" gradientUnits="userSpaceOnUse"><stop stop-color="#f9f9f9"/><stop offset="1" stop-color="#999"/></linearGradient></defs><rect width="28.2" height="28.2" x="1.898" y="1.898" fill="#4f4f4f" fill-rule="evenodd" rx="5.575"/><g transform="translate(35.437-.881)"><path d="m-27.437 8.881v16h16v-16m-13 3h10v10h-10z" fill="#848484"/><path fill="#64b5ff" d="m-29.437 16.882h10v10h-10z"/><path fill="#e47cff" d="m-29.437 6.881h10v7h-10z"/><circle r="3.5" cx="-12.937" cy="10.381" fill="#ff6363"/><path fill="#3bff80" d="m-17.437 18.882h8v7h-8z"/></g>

   xmlns:dc="http://purl.org/dc/elements/1.1/"
   xmlns:cc="http://creativecommons.org/ns#"
   xmlns:rdf="http://www.w3.org/1999/02/22-rdf-syntax-ns#"
   xmlns:svg="http://www.w3.org/2000/svg"
   xmlns="http://www.w3.org/2000/svg"
   xmlns:xlink="http://www.w3.org/1999/xlink"
   xmlns:sodipodi="http://sodipodi.sourceforge.net/DTD/sodipodi-0.dtd"
   xmlns:inkscape="http://www.inkscape.org/namespaces/inkscape"
   version="1"
   width="32"
   height="32"
   id="svg12"
   sodipodi:docname="snow-top-4.svg"
   inkscape:version="0.92.1 r"&gt;
  <path d="m7.196.009c-8.161-.339-9.231 9.523-3.968 9.505.669.003 1.581-.197 2.929-1.471 3.773-4.147 9.01 4.479 14.696-1.042.61-.911 1.804-1.135 2.455-.627 1.045.677 2.87 2.991 3.88 3 2.359.513 4.095-.198 4.816-3.188.185-3.165-2.303-6.286-6.281-6.17-5.832.133-12.809-.045-18.527-.01" fill="url(#0)"/></svg>