<svg xmlns="http://www.w3.org/2000/svg" xmlns:xlink="http://www.w3.org/1999/xlink" viewBox="0 0 32 32"><defs><linearGradient gradientTransform="matrix(-2.54182 0 0 2.58531 185.47-277.37)" id="1" x1="67.894" y1="108.69" x2="67.854" y2="113.11" gradientUnits="userSpaceOnUse"><stop stop-color="#f9f9f9"/><stop offset="1" stop-color="#999"/></linearGradient></defs><rect width="28.2" height="28.2" x="1.898" y="1.898" fill="#ccc" fill-rule="evenodd" rx="5.575"/><g transform="translate(41.759-1.589)" stroke-width="1.35"><g transform="matrix(.74063 0 0 .74063-37.609 5.739)" fill="#fff"><rect width="8" height="14" x="12" y="2" rx="2.8"/><path d="m16.223136 12.00427a4.740574 3.86899 0 0 0 -4.327815 1.92982L8.265 19.07 4.635 24.2A4.740574 3.86899 0 0 0 8.740031 30h7.26 7.26a4.740574 3.86899 0 0 0 4.105528 -5.802618l-3.63-5.132-3.63-5.132a4.740574 3.86899 0 0 0 -3.88239 -1.929821"/></g><g transform="matrix(.74063 0 0 .74063-37.777 6.159)" fill="#578aff"><path d="M16.5 6A1.5 1.5 0 0 0 15 7.5 1.5 1.5 0 0 0 16.5 9 1.5 1.5 0 0 0 18 7.5 1.5 1.5 0 0 0 16.5 6"/><path d="M14.5 10A1.5 1.5 0 0 0 13 11.5 1.5 1.5 0 0 0 14.5 13 1.5 1.5 0 0 0 16 11.5 1.5 1.5 0 0 0 14.5 10"/><path d="M17.5 13A1.5 1.5 0 0 0 16 14.5 1.5 1.5 0 0 0 17.5 16 1.5 1.5 0 0 0 19 14.5 1.5 1.5 0 0 0 17.5 13"/><path d="M14.5 17A1.5 1.5 0 0 0 13 18.5 1.5 1.5 0 0 0 14.5 20 1.5 1.5 0 0 0 16 18.5 1.5 1.5 0 0 0 14.5 17"/><path d="m10.693 22l-1.319 1.989c-1.063 1.605.266 3.01 2.394 3.01h4.232 4.232c2.127 0 3.457-1.405 2.394-3.01l-1.319-1.989z"/></g></g>

   xmlns:dc="http://purl.org/dc/elements/1.1/"
   xmlns:cc="http://creativecommons.org/ns#"
   xmlns:rdf="http://www.w3.org/1999/02/22-rdf-syntax-ns#"
   xmlns:svg="http://www.w3.org/2000/svg"
   xmlns="http://www.w3.org/2000/svg"
   xmlns:xlink="http://www.w3.org/1999/xlink"
   xmlns:sodipodi="http://sodipodi.sourceforge.net/DTD/sodipodi-0.dtd"
   xmlns:inkscape="http://www.inkscape.org/namespaces/inkscape"
   height="32"
   width="32"
   version="1"
   id="svg8"
   sodipodi:docname="snow-top-3.svg"
   inkscape:version="0.92.1 r"&gt;
  <path fill="#00000f" fill-opacity="0" d="m0 0h32v32h-32z" id="0"/><path d="m7.354 6.111c-2.995 2.684-1.381 7.817-3.674 8.291-2.031.613-3.541-1.385-3.66-4.503-.35-8.627 3.911-9.427 6.879-9.524 28.342-2.047 1.762 4.92.455 5.736" fill="url(#1)"/><use xlink:href="#0"/></svg>