<svg xmlns="http://www.w3.org/2000/svg" viewBox="0 0 32 32"><defs><linearGradient gradientTransform="matrix(2.54182 0 0 2.58531-153.47-277.37)" id="0" x1="67.894" y1="108.69" x2="67.854" y2="113.11" gradientUnits="userSpaceOnUse"><stop stop-color="#f9f9f9"/><stop offset="1" stop-color="#999"/></linearGradient></defs><g transform="translate(33.929-.908)" fill-rule="evenodd"><g fill="#ffce7b"><rect y="2.806" x="-32.03" height="28.2" width="28.2" rx="5.575"/><path d="m-26.455 2.806c-3.089 0-5.576 2.486-5.576 5.574v10.713c1-.207 2.15-.503 2.979-.602 1.52-.181 2.773-.192 3.865-.086 1.093.106 2.025.331 2.902.625.877.294 1.7.657 2.574 1.039.874.382 1.799.782 2.881 1.152 1.082.37 2.321.71 3.822.969 1.502.258 3.266.435 5.398.482 1.06.023 2.528-.103 3.783-.15v-14.14c0-3.089-2.488-5.574-5.576-5.574z"/></g><path d="m-11.325 6.887c2.196 0 3.976 1.78 3.976 3.976 0 2.196-1.78 3.976-3.976 3.976-2.196 0-3.976-1.78-3.976-3.976 0-2.196 1.78-3.976 3.976-3.976" fill="#ff8e30" stroke-width=".994"/><path d="m-14.612 21.467c-4.917.449-8.675 3.143-14.438 2.848-1.179-.108-2.151-.334-2.982-.646v1.768c0 .631.166 1.211.357 1.775.939-.5 1.871-.899 2.795-1.127 1.043-.257 2.082-.365 3.127-.377 2.09-.024 4.207.336 6.439.646 1.116.155 2.26.299 3.445.377 1.185.078 2.41.089 3.686-.018 1.276-.107 2.603-.331 3.992-.73 1.389-.399 2.839-.971 4.363-1.77-4.469-2.476-7.835-3.02-10.785-2.746" fill="#869fcb"/><path d="m-3.827 24.21c-1.524.799-2.974 1.37-4.363 1.77-1.389.399-2.716.624-3.992.73-1.276.107-2.501.096-3.686.018-1.185-.078-2.329-.222-3.445-.377-2.232-.311-4.349-.67-6.439-.646-1.045.012-2.084.12-3.127.377-.924.228-1.856.627-2.795 1.127.746 2.2 2.761 3.799 5.219 3.799h17.05c3.089 0 5.576-2.486 5.576-5.574z" fill="#3862c3"/></g>

   xmlns:dc="http://purl.org/dc/elements/1.1/"
   xmlns:cc="http://creativecommons.org/ns#"
   xmlns:rdf="http://www.w3.org/1999/02/22-rdf-syntax-ns#"
   xmlns:svg="http://www.w3.org/2000/svg"
   xmlns="http://www.w3.org/2000/svg"
   xmlns:xlink="http://www.w3.org/1999/xlink"
   xmlns:sodipodi="http://sodipodi.sourceforge.net/DTD/sodipodi-0.dtd"
   xmlns:inkscape="http://www.inkscape.org/namespaces/inkscape"
   height="32"
   width="32"
   version="1"
   id="svg8"
   sodipodi:docname="snow-top-2.svg"
   inkscape:version="0.92.1 r"&gt;
  <path d="m24.646 6.111c2.995 2.684 1.381 7.817 3.674 8.291 2.031.613 3.541-1.385 3.66-4.503.35-8.627-3.911-9.427-6.879-9.524-28.342-2.047-1.762 4.92-.455 5.736" fill="url(#0)"/></svg>