<svg xmlns="http://www.w3.org/2000/svg" xmlns:xlink="http://www.w3.org/1999/xlink" viewBox="0 0 32 32"><defs><linearGradient gradientTransform="matrix(-2.65552 0 0 2.58531 193.77-277.73)" id="0" x1="67.894" y1="108.69" x2="67.854" y2="113.11" gradientUnits="userSpaceOnUse"><stop stop-color="#f9f9f9"/><stop offset="1" stop-color="#999"/></linearGradient></defs><rect width="28.2" height="28.2" x="1.898" y="1.898" fill="#826f3d" fill-rule="evenodd" rx="5.575"/><path fill="#fff" d="m4.681 6.567h22.638v13.206h-22.638z"/><g transform="matrix(.94326 0 0 .94326 1.851.908)" fill="#ff6e6e" stroke-width="1.06"><path transform="matrix(0 1-1 0 0 0)" stroke-width="1.06" d="m12-13h2v6h-2z" id="1"/><path transform="matrix(0 1-1 0 0 0)" stroke-width="1.06" d="m8-13h2v6h-2z" id="2"/><path stroke-width="1.06" d="m7 8h2v10h-2z" id="3"/></g><g stroke-width="1"><circle cy="24.02" cx="25.904" r="1.415" fill="#01d900"/><path fill="#958439" d="m4.681 20.716h13.206v.943h-13.206z"/></g><g transform="matrix(0 .94326-.94326 0 32.04 5.624)" fill="#ff6e6e" stroke-width="1.06"><path transform="matrix(0 1-1 0 0 0)" stroke-width="1.06" d="m16-13h2v6h-2z"/><use xlink:href="#1"/><use xlink:href="#2"/><use xlink:href="#3"/></g><g fill="#958439" stroke-width="1"><path d="m4.681 22.603h13.206v.943h-13.206z"/><path d="m4.681 24.489h13.206v.943h-13.206z"/></g>

   xmlns:dc="http://purl.org/dc/elements/1.1/"
   xmlns:cc="http://creativecommons.org/ns#"
   xmlns:rdf="http://www.w3.org/1999/02/22-rdf-syntax-ns#"
   xmlns:svg="http://www.w3.org/2000/svg"
   xmlns="http://www.w3.org/2000/svg"
   xmlns:xlink="http://www.w3.org/1999/xlink"
   xmlns:sodipodi="http://sodipodi.sourceforge.net/DTD/sodipodi-0.dtd"
   xmlns:inkscape="http://www.inkscape.org/namespaces/inkscape"
   version="1"
   width="32"
   height="32"
   id="svg12"
   sodipodi:docname="snow-top-3.svg"
   inkscape:version="0.92.1 r"&gt;
  <path d="m24.627.009c8.36-.339 9.455 9.523 4.064 9.505-.686.003-1.62-.197-3-1.471-14.665-10.216-14.549 2.967-17.708.875-1.727-1.822-1.743 4.653-4.139 5.127-2.122.613-3.699-1.385-3.824-4.503-.366-8.627 4.086-9.427 7.187-9.524 5.974.133 11.562-.045 17.419-.01" fill="url(#0)"/></svg>