<svg xmlns="http://www.w3.org/2000/svg" viewBox="0 0 32 32"><defs><linearGradient gradientTransform="matrix(2.54182 0 0 2.58531-153.47-277.37)" id="0" x1="67.894" y1="108.69" x2="67.854" y2="113.11" gradientUnits="userSpaceOnUse"><stop stop-color="#f9f9f9"/><stop offset="1" stop-color="#999"/></linearGradient></defs><rect width="28.2" height="28.2" x="1.898" y="1.898" fill="#6493a6" fill-rule="evenodd" rx="5.575"/><g transform="translate(0-.5)"><path d="m14.6 6c-3.102 0-5.6 2.497-5.6 5.6v2.801 2.799 2.801 4.449 1.15c0 .776.724 1.4 1.5 1.4.776 0 1.5-.625 1.5-1.4v-5.6h2.6 1.4v-3h-1.334c-1.524 0-2.666-1.142-2.666-2.666v-2.668c0-1.524 1.142-2.666 2.666-2.666h1.334v-3" fill="#3f3f3f"/><path d="m16 6v3h1.334c1.524 0 2.666 1.142 2.666 2.666v2.668c0 1.524-1.142 2.666-2.666 2.666h-1.334v3h1.4c3.102 0 5.6-2.497 5.6-5.6v-2.801c0-3.102-2.497-5.6-5.6-5.6" fill="#fff"/></g>

   xmlns:dc="http://purl.org/dc/elements/1.1/"
   xmlns:cc="http://creativecommons.org/ns#"
   xmlns:rdf="http://www.w3.org/1999/02/22-rdf-syntax-ns#"
   xmlns:svg="http://www.w3.org/2000/svg"
   xmlns="http://www.w3.org/2000/svg"
   xmlns:xlink="http://www.w3.org/1999/xlink"
   xmlns:sodipodi="http://sodipodi.sourceforge.net/DTD/sodipodi-0.dtd"
   xmlns:inkscape="http://www.inkscape.org/namespaces/inkscape"
   height="32"
   width="32"
   version="1"
   id="svg8"
   sodipodi:docname="snow-top-2.svg"
   inkscape:version="0.92.1 r"&gt;
  <path d="m24.646 6.111c2.995 2.684 1.381 7.817 3.674 8.291 2.031.613 3.541-1.385 3.66-4.503.35-8.627-3.911-9.427-6.879-9.524-28.342-2.047-1.762 4.92-.455 5.736" fill="url(#0)"/></svg>