<svg xmlns="http://www.w3.org/2000/svg" viewBox="0 0 32 32"><defs><linearGradient gradientTransform="matrix(2.54182 0 0 2.58531-153.47-277.37)" id="0" x1="67.894" y1="108.69" x2="67.854" y2="113.11" gradientUnits="userSpaceOnUse"><stop stop-color="#f9f9f9"/><stop offset="1" stop-color="#999"/></linearGradient></defs><rect width="28.2" height="28.2" x="1.898" y="1.898" fill="#d6d6d6" fill-rule="evenodd" rx="5.575"/><g transform="matrix(.33743 0 0 .33743 3.79 3.79)" fill="#4f4f4f" stroke-width="1.147"><path d="m22.57 2.648c-4.489 1.82-8.517 4.496-11.971 7.949-3.455 3.454-6.128 7.483-7.949 11.971-1.758 4.336-2.65 8.918-2.65 13.618 0 4.699.892 9.281 2.65 13.615 1.821 4.489 4.495 8.518 7.949 11.971 3.454 3.455 7.481 6.129 11.971 7.949 4.336 1.76 8.917 2.649 13.617 2.649 4.7 0 9.28-.892 13.616-2.649 4.488-1.82 8.518-4.494 11.971-7.949 3.455-3.453 6.129-7.48 7.949-11.971 1.758-4.334 2.648-8.916 2.648-13.615 0-4.7-.891-9.282-2.648-13.618-1.82-4.488-4.496-8.518-7.949-11.971-3.453-3.453-7.479-6.129-11.971-7.949-4.336-1.757-8.916-2.648-13.616-2.648-4.7 0-9.281.891-13.617 2.648m-13.526 48.771c-1.743-1.094-3.349-2.354-4.771-3.838-2.172-6.112-2.54-12.729-1.101-19.01.677-1.335 1.447-2.617 2.318-3.845.269-.379.518-.774.806-1.142l8.166 4.832v.205c-.021 4.392.425 8.752 1.313 13.05.003.02.006.031.01.049l-6.333 9.93c-.138-.07-.275-.146-.408-.23m24.28 16.787c1.409.719 2.858 1.326 4.347 1.82-6.325.275-12.713-1.207-18.36-4.447l13.689 2.439c.105.067.212.131.324.188zm-.05-2.471l-16.15-2.879c-1.89-2.295-3.59-4.723-5.05-7.318-.372-.66-.787-1.301-1.102-1.99l6.327-9.92c.14.035.296.072.473.119 3.958 1.059 7.986 1.812 12.04 2.402.237.033.435.062.604.08l7.584 13.11c-1.316 1.85-2.647 3.69-4.01 5.51-.226.303-.466.594-.716.883m26.876-5.586c-1.286 1.287-2.651 2.447-4.08 3.481-.237-1.894-.646-3.75-1.223-5.563l8.092-15.1c2.229-1.015 4.379-2.166 6.375-3.593.261-.185.478-.392.646-.618-.586 7.801-3.856 15.436-9.81 21.389m-.359-19.578c.301.574.598 1.154.896 1.742l-7.816 14.58c-.045.01-.088.02-.133.026-4.225.789-8.484 1.209-12.779 1.229l-7.8-13.487c1.214-2.254 2.417-4.517 3.61-6.781.81-1.536 1.606-3.082 2.401-4.627l16.14-1.658c1.977 2.9 3.85 5.862 5.478 8.976m-3.275-17.294c-.766 2.023-1.586 4.02-2.401 6.03l-15.726 1.615c-.188-.248-.383-.492-.588-.725-1.857-2.103-3.726-4.193-5.592-6.289.017-.021.034-.037.051-.056-.753-.752-1.508-1.504-2.261-2.258l4.378-13.181c.302-.08.606-.147.913-.18 2.38-.242 4.763-.516 7.149-.654 1.461-.082 2.93-.129 4.416-.024l10.832 12.209c-.373 1.178-.737 2.359-1.171 3.512m3.634-11.06c2.988 2.99 5.302 6.402 6.938 10.05-2.024-1.393-4.188-2.539-6.463-3.473-.354-.146-.717-.275-1.086-.402l-10.662-12.02c.074-.519.113-1.039.129-1.563 4.056 1.651 7.858 4.123 11.144 7.408m-34.816-8.04c.042.031.062.057.086.064 2.437.842 4.654 2.082 6.744 3.553l-4.09 12.317c-.021.006-.041.012-.061.021-.837.346-1.69.656-2.514 1.031-3.395 1.543-6.705 3.252-9.823 5.301l-8.07-4.775c.012-.252.055-.508.141-.736.542-1.444 1.075-2.896 1.688-4.311.472-1.09 1.01-2.143 1.597-3.172.384-.424.782-.844 1.192-1.254 3.833-3.832 8.363-6.553 13.186-8.162-.025.039-.051.08-.075.123" stroke-width="1.147"/></g>

   xmlns:dc="http://purl.org/dc/elements/1.1/"
   xmlns:cc="http://creativecommons.org/ns#"
   xmlns:rdf="http://www.w3.org/1999/02/22-rdf-syntax-ns#"
   xmlns:svg="http://www.w3.org/2000/svg"
   xmlns="http://www.w3.org/2000/svg"
   xmlns:xlink="http://www.w3.org/1999/xlink"
   xmlns:sodipodi="http://sodipodi.sourceforge.net/DTD/sodipodi-0.dtd"
   xmlns:inkscape="http://www.inkscape.org/namespaces/inkscape"
   height="32"
   width="32"
   version="1"
   id="svg8"
   sodipodi:docname="snow-top-2.svg"
   inkscape:version="0.92.1 r"&gt;
  <path d="m24.646 6.111c2.995 2.684 1.381 7.817 3.674 8.291 2.031.613 3.541-1.385 3.66-4.503.35-8.627-3.911-9.427-6.879-9.524-28.342-2.047-1.762 4.92-.455 5.736" fill="url(#0)"/></svg>