<svg xmlns="http://www.w3.org/2000/svg" viewBox="0 0 32 32"><defs><linearGradient gradientTransform="matrix(2.54182 0 0 2.58531-153.47-277.37)" id="0" x1="67.894" y1="108.69" x2="67.854" y2="113.11" gradientUnits="userSpaceOnUse"><stop stop-color="#f9f9f9"/><stop offset="1" stop-color="#999"/></linearGradient></defs><rect width="28.2" height="28.2" x="1.898" y="1.898" fill="#0286c2" fill-rule="evenodd" rx="5.575"/><path d="m24.92 8.639c-.074-.013-.165.06-.281.184-.172.183-.33.723-.539 1.844-.351 1.88-.582 2.664-.912 3.111-.134.181-.215.411-.18.51.093.258.61.592 1.32.854.735.27.992.288 1.055.074.026-.088-.008-1.547-.076-3.244-.1-2.487-.164-3.294-.387-3.332m-17.352.127c-.081-.011-.168.048-.271.158-.169.18-.208.651-.262 3.234-.035 1.663-.046 3.067-.023 3.119.125.295 1.552-.252 2.057-.789l.252-.27-.311-.563c-.202-.366-.432-1.184-.656-2.332-.364-1.861-.543-2.527-.785-2.558m11.432 3.599c-.372-.014-.798.137-1.455.389-.697.266-1.414.484-1.594.484-.179 0-.733-.176-1.229-.391-1.236-.535-1.728-.606-2.232-.322-.224.126-1.056.918-1.85 1.758-1.206 1.277-1.559 1.573-2.154 1.816-.938.382-1.728.475-2.377.277-.881-.269-1.357.233-.979 1.031.361.761 1.806 1.451 3.719 1.777 2.656.452 4.415.034 6.281-1.496.358-.293.754-.535.881-.535.127 0 .562.272.965.602.956.784 1.423 1.033 2.557 1.373.807.242 1.121.27 2.256.197 2.386-.152 3.982-.665 4.822-1.551.283-.298.389-.527.389-.837 0-.621-.329-.778-1.17-.559-.51.133-.795.139-1.309.021-1.258-.288-1.827-.683-3.293-2.286-1.139-1.245-1.609-1.726-2.229-1.75m5.842 7.998c-.045.004-.103.017-.176.037-.888.24-1.811.371-3.152.447l-1.467.084-.035.889c-.033.8-.006.921.27 1.217.283.305.388.33 1.441.324 1.183-.006 1.889-.191 2.324-.607.321-.307.953-1.722.953-2.133 0-.204-.023-.271-.158-.258m-17.832.008c-.036.041.032.427.15.855.26.938.816 1.665 1.479 1.932.659.265 2.415.269 2.861.006.357-.21.5-.649.5-1.543 0-.881-.027-.9-1.389-.9-.682-.001-1.757-.095-2.388-.211-.631-.117-1.177-.18-1.213-.139" fill="#fff"/>

   xmlns:dc="http://purl.org/dc/elements/1.1/"
   xmlns:cc="http://creativecommons.org/ns#"
   xmlns:rdf="http://www.w3.org/1999/02/22-rdf-syntax-ns#"
   xmlns:svg="http://www.w3.org/2000/svg"
   xmlns="http://www.w3.org/2000/svg"
   xmlns:xlink="http://www.w3.org/1999/xlink"
   xmlns:sodipodi="http://sodipodi.sourceforge.net/DTD/sodipodi-0.dtd"
   xmlns:inkscape="http://www.inkscape.org/namespaces/inkscape"
   height="32"
   width="32"
   version="1"
   id="svg8"
   sodipodi:docname="snow-top-2.svg"
   inkscape:version="0.92.1 r"&gt;
  <path d="m24.646 6.111c2.995 2.684 1.381 7.817 3.674 8.291 2.031.613 3.541-1.385 3.66-4.503.35-8.627-3.911-9.427-6.879-9.524-28.342-2.047-1.762 4.92-.455 5.736" fill="url(#0)"/></svg>