<svg xmlns="http://www.w3.org/2000/svg" viewBox="0 0 32 32"><defs><linearGradient gradientTransform="matrix(2.59244 0 0 2.58531-157.93-277.73)" id="0" x1="67.894" y1="108.69" x2="67.854" y2="113.11" gradientUnits="userSpaceOnUse"><stop stop-color="#f9f9f9"/><stop offset="1" stop-color="#999"/></linearGradient></defs><rect width="28.2" height="28.2" x="1.898" y="1.898" fill="#6eb139" fill-rule="evenodd" rx="5.575"/><path d="m16.02 8.01c-.779-.008-1.553.103-2.303.301-3.497.901-5.768 4.208-5.715 7.686h-2l3 4.01 3-4.01h-2c-.007-1.456.229-2.907 1.238-3.994 1.761-1.992 5.255-2.807 7.777-1.342.838 1.053 2.697-.104 1.721-1.184-1.389-1.038-2.966-1.463-4.719-1.467m6.982 3.986l-3 4.01h2c.007 1.456-.229 2.907-1.238 3.994-1.898 2.191-5.255 2.807-7.777 1.342-.838-1.053-2.697.102-1.721 1.182 1.389 1.038 2.966 1.465 4.719 1.469l.002-.002c.779.008 1.551-.101 2.301-.299 3.497-.901 5.768-4.208 5.715-7.686h2z" fill="#fff"/>

   xmlns:dc="http://purl.org/dc/elements/1.1/"
   xmlns:cc="http://creativecommons.org/ns#"
   xmlns:rdf="http://www.w3.org/1999/02/22-rdf-syntax-ns#"
   xmlns:svg="http://www.w3.org/2000/svg"
   xmlns="http://www.w3.org/2000/svg"
   xmlns:xlink="http://www.w3.org/1999/xlink"
   xmlns:sodipodi="http://sodipodi.sourceforge.net/DTD/sodipodi-0.dtd"
   xmlns:inkscape="http://www.inkscape.org/namespaces/inkscape"
   version="1"
   width="32"
   height="32"
   id="svg12"
   sodipodi:docname="snow-top-4.svg"
   inkscape:version="0.92.1 r"&gt;
  <path d="m7.196.009c-8.161-.339-9.231 9.523-3.968 9.505.669.003 1.581-.197 2.929-1.471 3.773-4.147 9.01 4.479 14.696-1.042.61-.911 1.804-1.135 2.455-.627 1.045.677 2.87 2.991 3.88 3 2.359.513 4.095-.198 4.816-3.188.185-3.165-2.303-6.286-6.281-6.17-5.832.133-12.809-.045-18.527-.01" fill="url(#0)"/></svg>