<svg xmlns="http://www.w3.org/2000/svg" viewBox="0 0 32 32"><defs><linearGradient gradientTransform="matrix(2.54182 0 0 2.58531-153.47-277.37)" id="0" x1="67.894" y1="108.69" x2="67.854" y2="113.11" gradientUnits="userSpaceOnUse"><stop stop-color="#f9f9f9"/><stop offset="1" stop-color="#999"/></linearGradient></defs><rect width="28.2" height="28.2" x="1.898" y="1.898" fill="#4f4f4f" fill-rule="evenodd" rx="5.575"/><path d="m7.505 7.72h10.311v3.989h-7.733v3.437h4.296v2.578h-4.296v6.01h-2.578" fill="#ff2106"/><path d="m20.822 11.906v.002l-.762 1.611a5.302395 5.302395 0 0 0 -1.765625 .294922l-1.246-1.279-2.605 2.145 1.016 1.469a5.302395 5.302395 0 0 0 -.388672 .810546 5.302395 5.302395 0 0 0 -.24414 .867188l-1.725.438.555 3.328 1.775-.145a5.302395 5.302395 0 0 0 1.140625 1.378906l-.484 1.721 3.16 1.184.762-1.613a5.302395 5.302395 0 0 0 1.765625 -.294922l1.246 1.279 2.605-2.145-1.016-1.469a5.302395 5.302395 0 0 0 .388672 -.808593 5.302395 5.302395 0 0 0 .244141 -.869141l1.725-.438-.555-3.328-1.775.146a5.302395 5.302395 0 0 0 -1.142578 -1.380859l.486-1.721-3.16-1.184m-.806641 4.125a2.807675 2.807675 0 0 1 2.808594 2.808594 2.807675 2.807675 0 0 1 -2.808594 2.80664 2.807675 2.807675 0 0 1 -2.806641 -2.80664 2.807675 2.807675 0 0 1 2.806641 -2.808594" fill="#fff" stroke-width="1.6"/>

   xmlns:dc="http://purl.org/dc/elements/1.1/"
   xmlns:cc="http://creativecommons.org/ns#"
   xmlns:rdf="http://www.w3.org/1999/02/22-rdf-syntax-ns#"
   xmlns:svg="http://www.w3.org/2000/svg"
   xmlns="http://www.w3.org/2000/svg"
   xmlns:xlink="http://www.w3.org/1999/xlink"
   xmlns:sodipodi="http://sodipodi.sourceforge.net/DTD/sodipodi-0.dtd"
   xmlns:inkscape="http://www.inkscape.org/namespaces/inkscape"
   height="32"
   width="32"
   version="1"
   id="svg8"
   sodipodi:docname="snow-top-2.svg"
   inkscape:version="0.92.1 r"&gt;
  <path d="m24.646 6.111c2.995 2.684 1.381 7.817 3.674 8.291 2.031.613 3.541-1.385 3.66-4.503.35-8.627-3.911-9.427-6.879-9.524-28.342-2.047-1.762 4.92-.455 5.736" fill="url(#0)"/></svg>