<svg xmlns="http://www.w3.org/2000/svg" xmlns:xlink="http://www.w3.org/1999/xlink" viewBox="0 0 32 32"><defs><clipPath><circle cx="286" cy="26" r="10" fill="none"/></clipPath><clipPath><circle cx="286" cy="26" r="10" fill="none"/></clipPath><clipPath><circle cx="286" cy="26" r="10" fill="none"/></clipPath><clipPath><circle cx="286" cy="26" r="10" fill="none"/></clipPath><clipPath><circle cx="286" cy="26" r="10" fill="none"/></clipPath><linearGradient xlink:href="#3" id="4" x1="-227.98" y1="-131.26" x2="-234.8" y2="-134.14" gradientUnits="userSpaceOnUse"/><linearGradient id="3"><stop stop-color="#13a9ea"/><stop offset="1" stop-color="#372db5"/></linearGradient><linearGradient xlink:href="#1" id="0" x1="-239.23" y1="-133.21" x2="-241.87" y2="-125.28" gradientUnits="userSpaceOnUse"/><linearGradient id="1"><stop stop-color="#f9f9f9"/><stop offset="1" stop-color="#999"/></linearGradient><linearGradient xlink:href="#3" id="2" x1="-241.01" y1="-141.61" x2="-226.57" y2="-129.44" gradientUnits="userSpaceOnUse"/><radialGradient xlink:href="#1" id="5" cx="-176.59" cy="-120.91" r="3.01" gradientUnits="userSpaceOnUse" gradientTransform="matrix(2.21087.05719-.05496 2.12455 156.08 146.14)"/></defs><g fill="#cba606"><rect width="28.2" height="28.2" x="1.898" y="1.898" fill-rule="evenodd" rx="5.575"/><circle cx="16" cy="16" r="13.248" stroke-linejoin="round" stroke-linecap="round" stroke-width="1.62"/></g><circle r="11.355" cy="16" cx="16" fill="#e4d487" stroke-linejoin="round" stroke-linecap="round" stroke-width="1.389"/><path d="M14.927481 4.70559A11.355387 11.355387 0 0 0 10.817966 5.897679c.057.182-.01.387-.219.568-.141.123-.257.313-.257.425 0 .34.308.863.554.939.326.101.217.449-.203.642-.194.089-.433.346-.531.57-.098.225-.242.446-.321.492-.078.047-.142.222-.142.391 0 .236.108.35.462.491.253.102.556.175.674.164.676-.064.723.33.132 1.1-.314.409-.465.512-.679.46-.199-.048-.308.008-.399.206-.095.21-.252.28-.673.309-.414.029-.599.113-.754.34-.114.165-.277.299-.364.299-.087 0-.292.111-.455.246-.332.275-.461.303-.578.123-.154-.238-.485-.118-.979.355-.437.418-.489.53-.424.893.117.646.467 1.218.867 1.418.349.174.356.193.144.417-.122.129-.33.267-.464.307-.384.117-.168.263.518.351.702.089.92.343.592.69-.183.194-.173.23.121.414.573.36 1.029.14.491-.237-.346-.242-.104-.341.404-.165.405.14.485.132.724-.076.491-.425 1.025.204.576.678-.286.303-.199.667.171.718.164.022.503.174.755.338.252.164.527.298.61.298.083 0 .317.166.52.37.412.412.641.464.757.174.14-.349.083-.529-.293-.939-.299-.327-.786-1.196-.786-1.404 0-.128.495-.019.772.17.173.119.454.271.623.341.181.074.368.303.454.554.133.394.186.428.659.428h.513l.078.923c.093 1.11.182 1.335.563 1.426.28.068.58.502.58.841 0 .09-.202.312-.448.492-.305.223-.437.413-.417.598.026.232-.027.269-.356.244-.212-.016-.58.058-.816.165-.28.126-.583.166-.868.115-.327-.058-.438-.036-.438.092 0 .094-.115.27-.254.392-.345.299-.203.458.328.362.329-.059.458-.033.514.109.121.301-.186.733-.47.662-.181-.045-.267.016-.323.229-.019.076-.055.14-.098.194a11.355387 11.355387 0 0 0 1.79699 .530863c-.057-.108-.122-.207-.185-.252-.292-.207-.097-.744.306-.84.41-.099.346-.365-.1-.416-.391-.044-.807-.441-.677-.643.088-.136.462-.116 1.219.064.342.081.575-.082 1.367-.948.458-.502.811-.711 1.197-.711.148 0 .674-.136 1.17-.301.937-.314 1.303-.303 1.268.04-.072.712.387.688 1.133-.058.311-.311.596-.535.632-.5.143.137-.114.803-.414 1.073-.38.342-.399.558-.064.728.183.094.261.284.29.712l.039.584h.475c.166 0 .304.023.416.065a11.355387 11.355387 0 0 0 5.501686 -9.371599c-.174-.371-.161-.596 0-.848a11.355387 11.355387 0 0 0 -.0511 -.63647c-.103-.005-.209-.01-.33-.005-.572.024-1.062-.202-1.062-.489 0-.061-.203-.311-.451-.556-.282-.277-.426-.522-.384-.65.039-.116-.044-.303-.191-.429-.143-.124-.259-.322-.259-.442 0-.19-.121-.214-.996-.193l-.996.024.017.982c.03 1.719.286 2.165 1.075 1.878.362-.132 1.25-.032 1.503.168.091.073.224.336.294.586.07.249.33.681.579.959.503.563.542.783.254 1.444-.252.577-.523.51-.469-.115l.04-.466-.426.079c-.236.045-.531.219-.663.391-.189.245-.277.28-.418.169-.099-.078-.179-.244-.179-.366 0-.123-.122-.259-.269-.304-.148-.045-.351-.268-.45-.497-.16-.366-.156-.477.03-.921.188-.45.19-.525.016-.691-.159-.152-.241-.157-.45-.032-.21.125-.309.116-.559-.051-.166-.112-.458-.204-.646-.204-.383 0-.499-.186-.499-.803 0-.569-.34-.776-1.148-.702-.561.052-.685.015-1.137-.334-.28-.215-.722-.733-.983-1.152-.261-.419-.542-.857-.625-.973-.118-.167-.089-.328.142-.784l.292-.573-.617.083c-1.097.148-1.319.29-.847.543.184.098.192.149.05.313-.093.107-.137.277-.097.377.04.1-.011.336-.113.524-.103.188-.188.453-.192.588-.011.423-.735.76-1.543.715-1.223-.068-1.322-.048-1.757.355-.543.504-.613.739-.36 1.207.245.454.68.635 1.432.598.673-.034.749.026.596.471-.131.378-.571.523-.869.287-.229-.182-1.02-.041-1.263.225-.102.111-.253.404-.335.65-.142.424-.183.45-.819.511-.635.062-.696.041-1.153-.379-.509-.469-.596-.828-.35-1.446.109-.274.19-.319.48-.265.576.105.803-.095.803-.71 0-.298-.058-.577-.129-.619-.07-.042-.128-.2-.128-.351 0-.152-.073-.347-.161-.433-.129-.125-.11-.192.095-.337.141-.099.372-.166.514-.149.141.017.533-.044.869-.136.487-.131.63-.231.696-.487.125-.486.43-.876.685-.876.404 0 .412-.949.02-2.33-.058-.204-.217-.333-.499-.403-.228-.057-.476-.212-.551-.346-.074-.134-.211-.243-.304-.243-.093 0-.274-.111-.401-.246-.129-.136-.395-.246-.598-.246-.48 0-.488-.33-.012-.505.502-.184 1.285.057 1.474.455.256.539.541.314.632-.5.113-1.01.46-1.296 1.556-1.296h.787L15.186 5.074C15.08 4.966 14.989 4.835 14.927 4.706m4.082.357c-.022.02-.044.036-.065.059-.263.269-.387.307-.794.245-.711-.108-.619.178.167.523.425.187.699.4.792.615.449 1.04.757 1.6.912 1.657.313.115.5-.116.57-.707.08-.678.309-.822.722-.451.16.144.384.262.497.262.353 0 .613.142.613.333 0 .101.119.343.265.54.215.289.361.358.763.358.493 0 .796.093 1.414.434.01.005.019.007.029.012A11.355387 11.355387 0 0 0 19.00974 5.062661M4.646881 15.951341a11.355387 11.355387 0 0 0 -.00221 .04883 11.355387 11.355387 0 0 0 .221771 2.181371c.411.167.525.101.568-.282.022-.198.126-.422.231-.5C5.827 17.28 5.798 17.219 5.465 16.991 5.25 16.844 5.04 16.588 4.994 16.421 4.952 16.26 4.809 16.08 4.647 15.951m3.574 3.754c-.106-.011-.234.046-.376.182-.3.287-.255.865.085 1.093.39.262.54.186.59-.297.061-.595-.066-.954-.299-.978zm1.927 1.717c-.116.004-.244.087-.371.262-.136.185-.173.424-.121.787.064.446.036.542-.197.661-.3.153-.365.61-.119.845.244.234.477.173.561-.148.119-.456.787-.51 1.244-.1.195.175.354.263.354.196 0-.067-.203-.311-.45-.54-.379-.352-.449-.502-.449-.955 0-.639-.196-1.017-.451-1.01m-3.164683 1.465983a11.355387 11.355387 0 0 0 .262821 .331578c-.077-.12-.166-.234-.263-.332m3.827 1.743c-.057.02-.082.092-.082.219 0 .128-.082.263-.182.299-.133.049-.164.203-.112.57.01.069.012.124.016.181a11.355387 11.355387 0 0 0 .472384 .242437c-.008-.196.028-.428.131-.717.174-.492.181-.615.039-.701-.133-.081-.224-.113-.282-.093" fill="#897f51"/><path d="m29.23 15.373c-.697.379-6.551 3.465-13.226 3.465-6.659 0-12.497-3.069-13.217-3.46a13.247951 13.247951 0 0 0 -.031419 .620998 13.247951 13.247951 0 0 0 .284624 2.663267c2.577 1.174 7.462 3.01 12.963 3.01 5.512 0 10.406-1.848 12.978-3.02a13.247951 13.247951 0 0 0 .269839 -2.655875 13.247951 13.247951 0 0 0 -.02218 -.626542" fill="#cba606" stroke-width="3"/><g transform="matrix(.75 0 0 .75 4.586 5.478)" stroke-width="1.333"><circle r="8" cy="23" cx="24" fill="#4f4f4f" fill-rule="evenodd"/><path d="m23 19l-.088 1.054a3.1429 3.1429 0 0 0 -.91852 .53126l-.958-.451-1 1.732.869.604a3.1429 3.1429 0 0 0 -.048 .53013 3.1429 3.1429 0 0 0 .0457 .53237l-.867.602 1 1.732.955-.45a3.1429 3.1429 0 0 0 .92075 .5279l.088 1.056h2l.088-1.054a3.1429 3.1429 0 0 0 .91854 -.53126l.958.451 1-1.732-.869-.604a3.1429 3.1429 0 0 0 .048 -.53013 3.1429 3.1429 0 0 0 -.0457 -.53237l.867-.602-1-1.732-.955.45a3.1429 3.1429 0 0 0 -.921 -.528l-.088-1.056h-2m1.00005 2.8575a1.1429 1.1429 0 0 1 1.143 1.143 1.1429 1.1429 0 0 1 -1.143 1.143 1.1429 1.1429 0 0 1 -1.143 -1.143 1.1429 1.1429 0 0 1 1.143 -1.143" fill="#fff"/></g><g transform="matrix(-1 0 0 1-223.97 142.77)"><g fill="#f9f9f9"><path d="m-228.95-129.3l-.27 2.221-.122-2.378z"/><path d="m-228.66-130.01l-.27 2.221-.122-2.378z"/><path d="m-228.43-129.95l-.27 1.6-.122-1.713z"/></g><path d="m-241.31-142.31c-5.577-1.531-5.951 3.24-4.58 5.493 4.381 6.983 6.796 6.577 9.398 7.895 1.712 2.064 3.451 3.4 6.469 4.1 11.69 1.559 3.242-8.417.92-8.649-5.065.012-7.547-6.123-12.206-8.838" fill="url(#0)"/><path d="m-241.31-142.31c3.76.276 5.616-.626 8.93-.421 4.319.283 8.307 2.053 7.838 6.574-.347 2.567-.37 2.25.186 4.296.532 1.535-.252 4.232-.487 4.654-2.715 4.963-1.536 4.965-2.656 7.742l-.906-.418-2.508-11.358c-7.177-.909-10.754-10.11-10.398-11.07" fill="url(#2)"/><path d="m-234.52-132.37c.362.274 1.553-5.105 1.172-5.653 1.379 2.44 1.919 4.616 2.435 6.783-1.276-.283-2.289-.554-3.607-1.13" fill="url(#4)"/><circle r="3.01" cy="-119.15" cx="-227.83" fill="url(#5)"/></g></svg>