<svg xmlns="http://www.w3.org/2000/svg" viewBox="0 0 32 32"><defs><clipPath><circle cx="286" cy="26" r="10" fill="none"/></clipPath><clipPath><circle cx="286" cy="26" r="10" fill="none"/></clipPath><clipPath><circle cx="286" cy="26" r="10" fill="none"/></clipPath><linearGradient gradientTransform="matrix(-2.65552 0 0 2.58531 193.77-277.73)" id="0" x1="67.894" y1="108.69" x2="67.854" y2="113.11" gradientUnits="userSpaceOnUse"><stop stop-color="#f9f9f9"/><stop offset="1" stop-color="#999"/></linearGradient></defs><g fill="#cba606"><rect width="28.2" height="28.2" x="1.898" y="1.898" fill-rule="evenodd" rx="5.575"/><circle cx="16" cy="16" r="13.248" stroke-linejoin="round" stroke-linecap="round" stroke-width="1.62"/></g><circle r="11.355" cy="16" cx="16" fill="#e4d487" stroke-linejoin="round" stroke-linecap="round" stroke-width="1.389"/><path d="m14.92748 4.705591a11.355387 11.355387 0 0 0 -4.109515 1.192089c.057.182-.01.387-.219.568-.141.123-.257.313-.257.425 0 .34.308.863.554.939.326.101.217.449-.203.642C10.498 8.561 10.259 8.817 10.162 9.04 10.06 9.266 9.919 9.488 9.841 9.534 9.763 9.58 9.699 9.756 9.699 9.924c0 .236.108.35.462.491.253.102.556.175.674.164.676-.064.723.33.132 1.1-.314.409-.465.512-.679.46-.199-.048-.308.008-.399.206-.095.21-.252.28-.673.309-.414.029-.599.113-.754.34-.114.165-.277.299-.364.299-.087 0-.292.111-.455.246-.332.275-.461.303-.578.123-.154-.238-.485-.118-.979.355-.437.418-.489.53-.424.893.117.646.467 1.218.867 1.418.349.174.356.193.144.417-.122.129-.33.267-.464.307-.384.117-.168.263.518.351.702.089.92.344.592.69-.183.194-.173.23.121.414.573.36 1.029.14.491-.237-.346-.242-.104-.341.404-.165.405.14.485.132.724-.076.491-.425 1.025.204.576.678-.286.303-.199.667.171.718.164.022.503.174.755.338.252.164.527.298.61.298.083 0 .317.166.52.37.412.412.641.464.757.174.14-.349.083-.529-.293-.939-.299-.327-.786-1.196-.786-1.404 0-.128.495-.019.772.17.173.119.454.271.623.341.181.074.368.303.454.554.133.394.186.428.659.428h.513l.078.923c.093 1.11.182 1.335.563 1.426.28.068.58.502.58.841 0 .09-.202.312-.448.492-.305.223-.437.413-.417.598.026.232-.027.269-.356.244-.212-.016-.58.058-.816.165-.28.126-.583.166-.868.115-.327-.058-.438-.036-.438.092 0 .094-.115.27-.254.392-.345.299-.203.458.328.362.329-.059.458-.033.514.109.121.301-.186.733-.47.662-.181-.045-.267.016-.323.229-.019.076-.055.14-.098.194a11.355387 11.355387 0 0 0 1.79699 .530864c-.057-.108-.122-.207-.185-.252-.292-.207-.097-.744.306-.84.41-.099.346-.365-.1-.416-.391-.044-.807-.441-.677-.643.088-.136.462-.116 1.219.064.342.081.575-.082 1.367-.948.458-.502.811-.711 1.197-.711.148 0 .674-.136 1.17-.301.937-.314 1.303-.303 1.268.04-.072.712.387.688 1.133-.058.311-.311.596-.535.632-.5.143.137-.114.803-.414 1.073-.38.342-.399.558-.064.728.183.094.261.284.29.712l.039.584h.475c.166 0 .304.023.416.065a11.355387 11.355387 0 0 0 5.501686 -9.3716c-.174-.371-.161-.596 0-.848a11.355387 11.355387 0 0 0 -.0511 -.636469c-.103-.005-.209-.01-.33-.005-.572.024-1.062-.202-1.062-.489 0-.061-.203-.311-.451-.556-.282-.277-.426-.522-.384-.65.039-.116-.044-.303-.191-.429-.143-.124-.259-.322-.259-.442 0-.19-.121-.214-.996-.193l-.996.024.017.982c.03 1.719.286 2.165 1.075 1.878.362-.132 1.25-.032 1.503.168.091.073.224.336.294.586.07.249.33.681.579.959.503.563.542.783.254 1.444-.252.577-.523.51-.469-.115l.04-.466-.426.079c-.236.045-.531.219-.663.391-.189.245-.277.28-.418.169-.099-.078-.179-.244-.179-.366 0-.123-.122-.259-.269-.304-.148-.045-.351-.268-.45-.497-.16-.366-.156-.477.03-.921.188-.45.19-.525.016-.691-.159-.152-.241-.157-.45-.032-.21.125-.309.116-.559-.051-.166-.112-.458-.204-.646-.204-.383 0-.499-.186-.499-.803 0-.569-.34-.776-1.148-.702-.561.052-.685.015-1.137-.334-.28-.215-.722-.733-.983-1.152-.261-.419-.542-.857-.625-.973-.118-.167-.089-.328.142-.784l.292-.573-.617.083c-1.097.148-1.319.29-.847.543.184.098.192.149.05.313-.093.107-.137.277-.097.377.04.1-.011.336-.113.524-.103.188-.188.453-.192.588-.011.423-.735.76-1.543.715-1.223-.068-1.322-.048-1.757.355-.543.504-.613.739-.36 1.207.245.454.68.635 1.432.598.673-.034.749.026.596.471-.131.378-.571.523-.869.287-.229-.182-1.02-.041-1.263.225-.102.111-.253.404-.335.65-.142.424-.183.45-.819.511-.635.062-.696.041-1.153-.379-.509-.469-.596-.828-.35-1.446.109-.274.19-.319.48-.265.576.105.803-.095.803-.71 0-.298-.058-.577-.129-.619-.07-.042-.128-.2-.128-.351 0-.152-.073-.347-.161-.433-.129-.125-.11-.192.095-.337.141-.099.372-.166.514-.149.141.017.533-.044.869-.136.487-.131.63-.231.696-.487.125-.486.43-.876.685-.876.404 0 .412-.949.02-2.33-.058-.204-.217-.333-.499-.403-.228-.057-.476-.212-.551-.346-.074-.134-.211-.243-.304-.243-.093 0-.274-.111-.401-.246-.129-.136-.395-.246-.598-.246-.48 0-.488-.33-.012-.505.502-.184 1.285.057 1.474.455.256.539.541.314.632-.5.113-1.01.46-1.296 1.556-1.296h.788L15.186 5.074C15.08 4.966 14.989 4.835 14.927 4.706m4.082.357c-.022.02-.044.036-.065.059-.263.269-.387.307-.794.245-.711-.108-.619.178.167.523.425.187.699.4.792.615.449 1.04.757 1.6.912 1.657.313.115.5-.116.57-.707.08-.678.309-.822.722-.451.16.144.384.262.497.262.353 0 .613.142.613.333 0 .101.119.343.265.54.215.289.361.358.763.358.493 0 .796.093 1.414.434.01.005.019.007.029.012A11.355387 11.355387 0 0 0 19.00974 5.062661M4.64688 15.951341a11.355387 11.355387 0 0 0 -.00221 .04883 11.355387 11.355387 0 0 0 .221771 2.181372c.411.167.525.101.568-.282.022-.198.126-.422.231-.5C5.827 17.28 5.798 17.219 5.465 16.991 5.25 16.844 5.04 16.588 4.994 16.421 4.952 16.26 4.809 16.08 4.647 15.951m3.574 3.754c-.106-.011-.234.046-.376.182-.3.287-.255.865.085 1.093.39.262.54.186.59-.297.061-.595-.066-.954-.299-.978zm1.927 1.717c-.116.004-.244.087-.371.262-.136.185-.173.424-.121.787.064.446.036.542-.197.661-.3.153-.365.61-.119.845.244.234.477.173.561-.148.119-.456.787-.51 1.244-.1.195.175.354.263.354.196 0-.067-.203-.311-.45-.54-.379-.352-.449-.502-.449-.955 0-.639-.196-1.017-.451-1.01m-3.164683 1.465984a11.355387 11.355387 0 0 0 .262821 .331577C7.169 23.1 7.08 22.985 6.983 22.888m3.827 1.743c-.057.02-.082.092-.082.219 0 .128-.082.263-.182.299-.133.049-.164.203-.112.57.01.069.012.124.016.181a11.355387 11.355387 0 0 0 .472383 .242436c-.008-.196.028-.428.131-.717.174-.492.181-.615.039-.701-.133-.081-.224-.113-.282-.093z" fill="#897f51"/><path d="m29.23 15.373c-.697.379-6.551 3.465-13.226 3.465-6.659 0-12.497-3.069-13.217-3.46a13.247951 13.247951 0 0 0 -.031419 .620999 13.247951 13.247951 0 0 0 .284624 2.663266c2.577 1.174 7.462 3.01 12.963 3.01 5.512 0 10.406-1.848 12.978-3.02a13.247951 13.247951 0 0 0 .269838 -2.655875 13.247951 13.247951 0 0 0 -.022179 -.626542" fill="#cba606" stroke-width="3"/>

   xmlns:dc="http://purl.org/dc/elements/1.1/"
   xmlns:cc="http://creativecommons.org/ns#"
   xmlns:rdf="http://www.w3.org/1999/02/22-rdf-syntax-ns#"
   xmlns:svg="http://www.w3.org/2000/svg"
   xmlns="http://www.w3.org/2000/svg"
   xmlns:xlink="http://www.w3.org/1999/xlink"
   xmlns:sodipodi="http://sodipodi.sourceforge.net/DTD/sodipodi-0.dtd"
   xmlns:inkscape="http://www.inkscape.org/namespaces/inkscape"
   version="1"
   width="32"
   height="32"
   id="svg12"
   sodipodi:docname="snow-top-3.svg"
   inkscape:version="0.92.1 r"&gt;
  <path d="m24.627.009c8.36-.339 9.455 9.523 4.064 9.505-.686.003-1.62-.197-3-1.471-14.665-10.216-14.549 2.967-17.708.875-1.727-1.822-1.743 4.653-4.139 5.127-2.122.613-3.699-1.385-3.824-4.503-.366-8.627 4.086-9.427 7.187-9.524 5.974.133 11.562-.045 17.419-.01" fill="url(#0)"/></svg>