<svg xmlns="http://www.w3.org/2000/svg" xmlns:xlink="http://www.w3.org/1999/xlink" viewBox="0 0 32 32"><defs><linearGradient gradientTransform="matrix(-2.54182 0 0 2.58531 185.47-277.37)" id="1" x1="67.894" y1="108.69" x2="67.854" y2="113.11" gradientUnits="userSpaceOnUse"><stop stop-color="#f9f9f9"/><stop offset="1" stop-color="#999"/></linearGradient></defs><g fill-rule="evenodd"><rect width="28.2" height="28.2" x="1.898" y="1.898" fill="#3f3f3f" rx="5.575"/><g transform="translate(52.2-2.043)"><g fill="#3f3f3f"><path d="m-36.02539 18.908203a2.457015 2.457015 0 0 0 -.173828 .0059 2.457015 2.457015 0 0 0 -.24414 .0293 2.457015 2.457015 0 0 0 -.238282 .05469 2.457015 2.457015 0 0 0 -.234375 .07813 2.457015 2.457015 0 0 0 -.224609 .09961 2.457015 2.457015 0 0 0 -.212891 .123047 2.457015 2.457015 0 0 0 -.199218 .142578 2.457015 2.457015 0 0 0 -.183594 .16211 2.457015 2.457015 0 0 0 -.167969 .179687 2.457015 2.457015 0 0 0 -.148437 .195313 2.457015 2.457015 0 0 0 -.128907 .208984 2.457015 2.457015 0 0 0 -.107421 .220703 2.457015 2.457015 0 0 0 -.08398 .230469 2.457015 2.457015 0 0 0 -.06055 .238281 2.457015 2.457015 0 0 0 -.03711 .244141 2.457015 2.457015 0 0 0 -.01172 .24414 2.457015 2.457015 0 0 0 .0059 .173828 2.457015 2.457015 0 0 0 .0293 .244141 2.457015 2.457015 0 0 0 .05469 .240235 2.457015 2.457015 0 0 0 .07813 .232421 2.457015 2.457015 0 0 0 .09961 .22461 2.457015 2.457015 0 0 0 .121094 .21289 2.457015 2.457015 0 0 0 .144531 .199219 2.457015 2.457015 0 0 0 .16211 .185547 2.457015 2.457015 0 0 0 .179687 .166016 2.457015 2.457015 0 0 0 .195313 .148437 2.457015 2.457015 0 0 0 .208984 .128906 2.457015 2.457015 0 0 0 .220703 .107422 2.457015 2.457015 0 0 0 .230469 .08398 2.457015 2.457015 0 0 0 .238281 .06055 2.457015 2.457015 0 0 0 .242188 .03711 2.457015 2.457015 0 0 0 .246093 .01172 2.457015 2.457015 0 0 0 .173829 -.0059 2.457015 2.457015 0 0 0 .24414 -.0293 2.457015 2.457015 0 0 0 .240234 -.05469 2.457015 2.457015 0 0 0 .232422 -.07617 2.457015 2.457015 0 0 0 .22461 -.101562 2.457015 2.457015 0 0 0 .21289 -.121094 2.457015 2.457015 0 0 0 .199219 -.142578 2.457015 2.457015 0 0 0 .183594 -.16211 2.457015 2.457015 0 0 0 .167969 -.179687 2.457015 2.457015 0 0 0 .148437 -.197266 2.457015 2.457015 0 0 0 .128906 -.208984 2.457015 2.457015 0 0 0 .107422 -.220703 2.457015 2.457015 0 0 0 .08398 -.230469 2.457015 2.457015 0 0 0 .06055 -.238281 2.457015 2.457015 0 0 0 .03711 -.242188 2.457015 2.457015 0 0 0 .01172 -.246094 2.457015 2.457015 0 0 0 -.0059 -.173828 2.457015 2.457015 0 0 0 -.0293 -.24414 2.457015 2.457015 0 0 0 -.05469 -.238282 2.457015 2.457015 0 0 0 -.07617 -.234375 2.457015 2.457015 0 0 0 -.101563 -.222656 2.457015 2.457015 0 0 0 -.121093 -.214844 2.457015 2.457015 0 0 0 -.144531 -.199218 2.457015 2.457015 0 0 0 -.16211 -.183594 2.457015 2.457015 0 0 0 -.179687 -.167969 2.457015 2.457015 0 0 0 -.195313 -.148437 2.457015 2.457015 0 0 0 -.208984 -.128907 2.457015 2.457015 0 0 0 -.220703 -.107422 2.457015 2.457015 0 0 0 -.230469 -.08398 2.457015 2.457015 0 0 0 -.238281 -.06055 2.457015 2.457015 0 0 0 -.242188 -.03711 2.457015 2.457015 0 0 0 -.246094 -.01172"/><path d="m-27.671875 14.976562a1.965612 1.965612 0 0 0 -.138672 .0059 1.965612 1.965612 0 0 0 -.195312 .02344 1.965612 1.965612 0 0 0 -.191407 .04297 1.965612 1.965612 0 0 0 -.185546 .0625 1.965612 1.965612 0 0 0 -.179688 .08008 1.965612 1.965612 0 0 0 -.171875 .09766 1.965612 1.965612 0 0 0 -.158203 .113282 1.965612 1.965612 0 0 0 -.148438 .130859 1.965612 1.965612 0 0 0 -.134765 .142578 1.965612 1.965612 0 0 0 -.117188 .158203A1.965612 1.965612 0 0 0 -29.396484 16a1.965612 1.965612 0 0 0 -.08594 .177734 1.965612 1.965612 0 0 0 -.06641 .183594 1.965612 1.965612 0 0 0 -.04883 .191406 1.965612 1.965612 0 0 0 -.0293 .19336 1.965612 1.965612 0 0 0 -.0098 .197265 1.965612 1.965612 0 0 0 .0039 .138672 1.965612 1.965612 0 0 0 .02344 .195313 1.965612 1.965612 0 0 0 .04297 .191406 1.965612 1.965612 0 0 0 .0625 .185547 1.965612 1.965612 0 0 0 .08008 .179687 1.965612 1.965612 0 0 0 .09766 .171875 1.965612 1.965612 0 0 0 .115234 .158203 1.965612 1.965612 0 0 0 .128907 .148438 1.965612 1.965612 0 0 0 .144531 .134766 1.965612 1.965612 0 0 0 .15625 .117187 1.965612 1.965612 0 0 0 .167969 .103516 1.965612 1.965612 0 0 0 .175781 .08594 1.965612 1.965612 0 0 0 .185547 .06641 1.965612 1.965612 0 0 0 .189453 .04883 1.965612 1.965612 0 0 0 .195312 .0293 1.965612 1.965612 0 0 0 .195313 .0098 1.965612 1.965612 0 0 0 .138672 -.0039 1.965612 1.965612 0 0 0 .195312 -.02344 1.965612 1.965612 0 0 0 .191407 -.04492 1.965612 1.965612 0 0 0 .1875 -.06055 1.965612 1.965612 0 0 0 .179687 -.08008 1.965612 1.965612 0 0 0 .169922 -.09766 1.965612 1.965612 0 0 0 .160156 -.115234 1.965612 1.965612 0 0 0 .146485 -.128906 1.965612 1.965612 0 0 0 .134765 -.144532 1.965612 1.965612 0 0 0 .119141 -.15625 1.965612 1.965612 0 0 0 .101562 -.167968 1.965612 1.965612 0 0 0 .08594 -.175782 1.965612 1.965612 0 0 0 .06836 -.185546 1.965612 1.965612 0 0 0 .04883 -.189454 1.965612 1.965612 0 0 0 .0293 -.195312 1.965612 1.965612 0 0 0 .0098 -.195313 1.965612 1.965612 0 0 0 -.0059 -.138671 1.965612 1.965612 0 0 0 -.02344 -.195313 1.965612 1.965612 0 0 0 -.04297 -.191406 1.965612 1.965612 0 0 0 -.0625 -.1875 1.965612 1.965612 0 0 0 -.08008 -.179688 1.965612 1.965612 0 0 0 -.09766 -.169922 1.965612 1.965612 0 0 0 -.113281 -.160156 1.965612 1.965612 0 0 0 -.13086 -.146484 1.965612 1.965612 0 0 0 -.142578 -.134766 1.965612 1.965612 0 0 0 -.158203 -.119141 1.965612 1.965612 0 0 0 -.166016 -.101562 1.965612 1.965612 0 0 0 -.177734 -.08594 1.965612 1.965612 0 0 0 -.183594 -.06836 1.965612 1.965612 0 0 0 -.191406 -.04883 1.965612 1.965612 0 0 0 -.193359 -.0293 1.965612 1.965612 0 0 0 -.197266 -.0098"/></g><g fill="#fff"><path d="m-26.689453 12.0293a3.931224 3.931224 0 0 0 -.277344 .0098 3.931224 3.931224 0 0 0 -.390625 .04688 3.931224 3.931224 0 0 0 -.382812 .08594 3.931224 3.931224 0 0 0 -.373047 .125 3.931224 3.931224 0 0 0 -.359375 .160156 3.931224 3.931224 0 0 0 -.339844 .195313 3.931224 3.931224 0 0 0 -.320312 .228515 3.931224 3.931224 0 0 0 -.294922 .259766 3.931224 3.931224 0 0 0 -.267578 .287109 3.931224 3.931224 0 0 0 -.238282 .3125 3.931224 3.931224 0 0 0 -.205078 .335938 3.931224 3.931224 0 0 0 -.169922 .353516 3.931224 3.931224 0 0 0 -.134765 .36914 3.931224 3.931224 0 0 0 -.09766 .38086 3.931224 3.931224 0 0 0 -.05859 .388671 3.931224 3.931224 0 0 0 -.01953 .392579 3.931224 3.931224 0 0 0 .0098 .277343 3.931224 3.931224 0 0 0 .04687 .390625 3.931224 3.931224 0 0 0 .08594 .382813 3.931224 3.931224 0 0 0 .123046 .373047 3.931224 3.931224 0 0 0 .16211 .359375 3.931224 3.931224 0 0 0 .195312 .339843 3.931224 3.931224 0 0 0 .228516 .320313 3.931224 3.931224 0 0 0 .259766 .294922 3.931224 3.931224 0 0 0 .287109 .267578 3.931224 3.931224 0 0 0 .3125 .238281 3.931224 3.931224 0 0 0 .333984 .205078 3.931224 3.931224 0 0 0 .355469 .169922 3.931224 3.931224 0 0 0 .369141 .134766 3.931224 3.931224 0 0 0 .380859 .09766 3.931224 3.931224 0 0 0 .386719 .05859 3.931224 3.931224 0 0 0 .392578 .01953 3.931224 3.931224 0 0 0 .279297 -.0098 3.931224 3.931224 0 0 0 .390625 -.04687 3.931224 3.931224 0 0 0 .382812 -.08594 3.931224 3.931224 0 0 0 .373047 -.123047 3.931224 3.931224 0 0 0 .357422 -.162109 3.931224 3.931224 0 0 0 .341797 -.195313 3.931224 3.931224 0 0 0 .320312 -.228516 3.931224 3.931224 0 0 0 .294922 -.259765 3.931224 3.931224 0 0 0 .267578 -.287109 3.931224 3.931224 0 0 0 .238282 -.3125 3.931224 3.931224 0 0 0 .205078 -.333985 3.931224 3.931224 0 0 0 .169922 -.355469 3.931224 3.931224 0 0 0 .134765 -.36914 3.931224 3.931224 0 0 0 .09766 -.38086 3.931224 3.931224 0 0 0 .05859 -.386718 3.931224 3.931224 0 0 0 .01953 -.392578 3.931224 3.931224 0 0 0 -.0098 -.279297 3.931224 3.931224 0 0 0 -.04687 -.390625 3.931224 3.931224 0 0 0 -.08594 -.382813 3.931224 3.931224 0 0 0 -.125 -.373047 3.931224 3.931224 0 0 0 -.160156 -.357422 3.931224 3.931224 0 0 0 -.195312 -.341796 3.931224 3.931224 0 0 0 -.228516 -.320313 3.931224 3.931224 0 0 0 -.259766 -.294922 3.931224 3.931224 0 0 0 -.287109 -.267578 3.931224 3.931224 0 0 0 -.3125 -.238281 3.931224 3.931224 0 0 0 -.335938 -.205078 3.931224 3.931224 0 0 0 -.353515 -.169922 3.931224 3.931224 0 0 0 -.369141 -.134766 3.931224 3.931224 0 0 0 -.380859 -.09766 3.931224 3.931224 0 0 0 -.388672 -.05859 3.931224 3.931224 0 0 0 -.392578 -.01953m-.982422 2.947255a1.965612 1.965612 0 0 1 .197266 .0098 1.965612 1.965612 0 0 1 .193359 .0293 1.965612 1.965612 0 0 1 .191406 .04883 1.965612 1.965612 0 0 1 .183594 .06836 1.965612 1.965612 0 0 1 .177734 .08594 1.965612 1.965612 0 0 1 .166016 .101562 1.965612 1.965612 0 0 1 .158203 .119141 1.965612 1.965612 0 0 1 .142578 .134766 1.965612 1.965612 0 0 1 .13086 .146484 1.965612 1.965612 0 0 1 .113281 .160156 1.965612 1.965612 0 0 1 .09766 .169922 1.965612 1.965612 0 0 1 .08008 .179688 1.965612 1.965612 0 0 1 .0625 .1875 1.965612 1.965612 0 0 1 .04297 .191406 1.965612 1.965612 0 0 1 .02344 .195313 1.965612 1.965612 0 0 1 .0059 .138671 1.965612 1.965612 0 0 1 -.0098 .195313 1.965612 1.965612 0 0 1 -.0293 .195312 1.965612 1.965612 0 0 1 -.04883 .189454 1.965612 1.965612 0 0 1 -.06836 .185546 1.965612 1.965612 0 0 1 -.08594 .175782 1.965612 1.965612 0 0 1 -.101562 .167968 1.965612 1.965612 0 0 1 -.119141 .15625 1.965612 1.965612 0 0 1 -.134765 .144532 1.965612 1.965612 0 0 1 -.146485 .128906 1.965612 1.965612 0 0 1 -.160156 .115234 1.965612 1.965612 0 0 1 -.169922 .09766 1.965612 1.965612 0 0 1 -.179687 .08008 1.965612 1.965612 0 0 1 -.1875 .06055 1.965612 1.965612 0 0 1 -.191407 .04492 1.965612 1.965612 0 0 1 -.195312 .02344 1.965612 1.965612 0 0 1 -.138672 .0039 1.965612 1.965612 0 0 1 -.195313 -.0098 1.965612 1.965612 0 0 1 -.195312 -.0293 1.965612 1.965612 0 0 1 -.189453 -.04883 1.965612 1.965612 0 0 1 -.185547 -.06641 1.965612 1.965612 0 0 1 -.175781 -.08594 1.965612 1.965612 0 0 1 -.167969 -.103516 1.965612 1.965612 0 0 1 -.15625 -.117187 1.965612 1.965612 0 0 1 -.144531 -.134766 1.965612 1.965612 0 0 1 -.128907 -.148438 1.965612 1.965612 0 0 1 -.115234 -.158203 1.965612 1.965612 0 0 1 -.09766 -.171875 1.965612 1.965612 0 0 1 -.08008 -.179687 1.965612 1.965612 0 0 1 -.0625 -.185547 1.965612 1.965612 0 0 1 -.04297 -.191406 1.965612 1.965612 0 0 1 -.02344 -.195313 1.965612 1.965612 0 0 1 -.0039 -.138672 1.965612 1.965612 0 0 1 .0098 -.197265 1.965612 1.965612 0 0 1 .0293 -.19336 1.965612 1.965612 0 0 1 .04883 -.191406 1.965612 1.965612 0 0 1 .06641 -.183594 1.965612 1.965612 0 0 1 .08594 -.177734 1.965612 1.965612 0 0 1 .103515 -.166016 1.965612 1.965612 0 0 1 .117188 -.158203 1.965612 1.965612 0 0 1 .134765 -.142578 1.965612 1.965612 0 0 1 .148438 -.130859 1.965612 1.965612 0 0 1 .158203 -.113282 1.965612 1.965612 0 0 1 .171875 -.09766 1.965612 1.965612 0 0 1 .179688 -.08008 1.965612 1.965612 0 0 1 .185546 -.0625 1.965612 1.965612 0 0 1 .191407 -.04297 1.965612 1.965612 0 0 1 .195312 -.02344 1.965612 1.965612 0 0 1 .138672 -.0059"/><path d="m-30.597656 16.333984a5.405432 5.405432 0 0 0 -.210938 -.294922 5.405432 5.405432 0 0 0 -.355468 -.404296 5.405432 5.405432 0 0 0 -.396485 -.369141 5.405432 5.405432 0 0 0 -.429687 -.326172 5.405432 5.405432 0 0 0 -.460938 -.283203 5.405432 5.405432 0 0 0 -.486328 -.234375 5.405432 5.405432 0 0 0 -.507812 -.185547 5.405432 5.405432 0 0 0 -.523438 -.134766 5.405432 5.405432 0 0 0 -.533203 -.08008 5.405432 5.405432 0 0 0 -.541016 -.02734 5.405432 5.405432 0 0 0 -.382812 .01367 5.405432 5.405432 0 0 0 -.535157 .06445 5.405432 5.405432 0 0 0 -.527343 .11914 5.405432 5.405432 0 0 0 -.513672 .169922 5.405432 5.405432 0 0 0 -.492188 .220703 5.405432 5.405432 0 0 0 -.46875 .269531 5.405432 5.405432 0 0 0 -.439453 .314454 5.405432 5.405432 0 0 0 -.40625 .355468 5.405432 5.405432 0 0 0 -.36914 .396485 5.405432 5.405432 0 0 0 -.326172 .429687 5.405432 5.405432 0 0 0 -.283203 .460938 5.405432 5.405432 0 0 0 -.234375 .486328 5.405432 5.405432 0 0 0 -.185547 .507812 5.405432 5.405432 0 0 0 -.132813 .523438 5.405432 5.405432 0 0 0 -.08203 .533203 5.405432 5.405432 0 0 0 -.02539 .541016 5.405432 5.405432 0 0 0 .01367 .382812 5.405432 5.405432 0 0 0 .06445 .535156 5.405432 5.405432 0 0 0 .119141 .527344 5.405432 5.405432 0 0 0 .169922 .513672 5.405432 5.405432 0 0 0 .220703 .492187 5.405432 5.405432 0 0 0 .267578 .46875 5.405432 5.405432 0 0 0 .314453 .439454 5.405432 5.405432 0 0 0 .357422 .40625 5.405432 5.405432 0 0 0 .394531 .36914 5.405432 5.405432 0 0 0 .431641 .326172 5.405432 5.405432 0 0 0 .458984 .283203 5.405432 5.405432 0 0 0 .486328 .234375 5.405432 5.405432 0 0 0 .507813 .185547 5.405432 5.405432 0 0 0 .523437 .132813 5.405432 5.405432 0 0 0 .535157 .08203 5.405432 5.405432 0 0 0 .539062 .02539 5.405432 5.405432 0 0 0 .382813 -.01367 5.405432 5.405432 0 0 0 .537109 -.06445 5.405432 5.405432 0 0 0 .527344 -.11914 5.405432 5.405432 0 0 0 .511719 -.169922 5.405432 5.405432 0 0 0 .49414 -.220703 5.405432 5.405432 0 0 0 .46875 -.267578 5.405432 5.405432 0 0 0 .439453 -.314453 5.405432 5.405432 0 0 0 .404297 -.357422 5.405432 5.405432 0 0 0 .369141 -.394532 5.405432 5.405432 0 0 0 .326172 -.43164 5.405432 5.405432 0 0 0 .283203 -.458984 5.405432 5.405432 0 0 0 .234375 -.486329 5.405432 5.405432 0 0 0 .185547 -.507812 5.405432 5.405432 0 0 0 .134765 -.523438 5.405432 5.405432 0 0 0 .08008 -.535156 5.405432 5.405432 0 0 0 .02734 -.539062 5.405432 5.405432 0 0 0 -.01367 -.382813 5.405432 5.405432 0 0 0 -.06445 -.537109 5.405432 5.405432 0 0 0 -.0059 -.02148 3.931224 3.931224 0 0 1 -.04687 -.05469 3.931224 3.931224 0 0 1 -.228516 -.320313 3.931224 3.931224 0 0 1 -.195312 -.339843 3.931224 3.931224 0 0 1 -.16211 -.359375 3.931224 3.931224 0 0 1 -.123046 -.373047 3.931224 3.931224 0 0 1 -.08594 -.382813 3.931224 3.931224 0 0 1 -.03516 -.294922m-5.427693 2.574217a2.457015 2.457015 0 0 1 .246094 .01172 2.457015 2.457015 0 0 1 .242188 .03711 2.457015 2.457015 0 0 1 .238281 .06055 2.457015 2.457015 0 0 1 .230469 .08398 2.457015 2.457015 0 0 1 .220703 .107422 2.457015 2.457015 0 0 1 .208984 .128907 2.457015 2.457015 0 0 1 .195313 .148437 2.457015 2.457015 0 0 1 .179687 .167969 2.457015 2.457015 0 0 1 .16211 .183594 2.457015 2.457015 0 0 1 .144531 .199218 2.457015 2.457015 0 0 1 .121093 .214844 2.457015 2.457015 0 0 1 .101563 .222656 2.457015 2.457015 0 0 1 .07617 .234375 2.457015 2.457015 0 0 1 .05469 .238282 2.457015 2.457015 0 0 1 .0293 .24414 2.457015 2.457015 0 0 1 .0059 .173828 2.457015 2.457015 0 0 1 -.01172 .246094 2.457015 2.457015 0 0 1 -.03711 .242188 2.457015 2.457015 0 0 1 -.06055 .238281 2.457015 2.457015 0 0 1 -.08398 .230469 2.457015 2.457015 0 0 1 -.107422 .220703 2.457015 2.457015 0 0 1 -.128906 .208984 2.457015 2.457015 0 0 1 -.148437 .197266 2.457015 2.457015 0 0 1 -.167969 .179687 2.457015 2.457015 0 0 1 -.183594 .16211 2.457015 2.457015 0 0 1 -.199219 .142578 2.457015 2.457015 0 0 1 -.21289 .121094 2.457015 2.457015 0 0 1 -.22461 .101562 2.457015 2.457015 0 0 1 -.232422 .07617 2.457015 2.457015 0 0 1 -.240234 .05469 2.457015 2.457015 0 0 1 -.24414 .0293 2.457015 2.457015 0 0 1 -.173829 .0059 2.457015 2.457015 0 0 1 -.246093 -.01172 2.457015 2.457015 0 0 1 -.242188 -.03711 2.457015 2.457015 0 0 1 -.238281 -.06055 2.457015 2.457015 0 0 1 -.230469 -.08398 2.457015 2.457015 0 0 1 -.220703 -.107422 2.457015 2.457015 0 0 1 -.208984 -.128906 2.457015 2.457015 0 0 1 -.195313 -.148437 2.457015 2.457015 0 0 1 -.179687 -.166016 2.457015 2.457015 0 0 1 -.16211 -.185547 2.457015 2.457015 0 0 1 -.144531 -.199219 2.457015 2.457015 0 0 1 -.121094 -.21289 2.457015 2.457015 0 0 1 -.09961 -.22461 2.457015 2.457015 0 0 1 -.07813 -.232421 2.457015 2.457015 0 0 1 -.05469 -.240235 2.457015 2.457015 0 0 1 -.0293 -.244141 2.457015 2.457015 0 0 1 -.0059 -.173828 2.457015 2.457015 0 0 1 .01172 -.24414 2.457015 2.457015 0 0 1 .03711 -.244141 2.457015 2.457015 0 0 1 .06055 -.238281 2.457015 2.457015 0 0 1 .08398 -.230469 2.457015 2.457015 0 0 1 .107421 -.220703 2.457015 2.457015 0 0 1 .128907 -.208984 2.457015 2.457015 0 0 1 .148437 -.195313 2.457015 2.457015 0 0 1 .167969 -.179687 2.457015 2.457015 0 0 1 .183594 -.16211 2.457015 2.457015 0 0 1 .199218 -.142578 2.457015 2.457015 0 0 1 .212891 -.123047 2.457015 2.457015 0 0 1 .224609 -.09961 2.457015 2.457015 0 0 1 .234375 -.07813 2.457015 2.457015 0 0 1 .238282 -.05469 2.457015 2.457015 0 0 1 .24414 -.0293 2.457015 2.457015 0 0 1 .173828 -.0059"/></g><path d="m-48.986 30.05c.312.135.611.375.92.461.47.131.93.2 1.369.191.439-.009.856-.097 1.234-.277.757-.362 1.465-.828 2.096-1.365.631-.537 1.185-1.143 1.637-1.779.452-.636.801-1.304 1.02-1.965.219-.661.308-1.314.24-1.924-.067-.61-.283-1.118-.619-1.514-.336-.396-.79-.679-1.33-.842-.54-.163-1.167-.205-1.848-.115-.68.09-1.415.312-2.172.674-.757.362-1.637.594-2.527.779-.459.095-.885.172-1.334.252v3.943c0 1.341.531 2.521 1.314 3.48" fill="#ccc"/><g fill="#3f3f3f"><path d="m-38.482 25.789c0 .724.441 1.706 1.152 2.508.356.401.778.756 1.248 1.012.47.255.988.41 1.531.41 1.086 0 2.068-.327 2.779-.654.711-.328 1.152-.656 1.152-.656 0 0-.584.048-1.449-.01-.865-.058-2.01-.222-3.139-.645-1.192-.447-3.275-1.965-3.275-1.965"/><path d="m-41.19 31.414c-1.316-.261-2.53-.77-3.68-1.377-.005.003-.01.007-.016.01.348.183.67.407 1.035.561.824.347 1.689.616 2.586.799.024.005.05.003.074.008"/></g><path d="m-38.75 23.324219a20.64191 20.654612 0 0 0 -.126953 .216797 20.64191 20.654612 0 0 0 -.861328 1.876953 20.64191 20.654612 0 0 0 -.671875 1.953125 20.64191 20.654612 0 0 0 -.470703 2.00977 20.64191 20.654612 0 0 0 -.267579 2.03711c.863.168 1.752.268 2.666.268.953 0 1.882-.097 2.779-.279.897-.183 1.762-.452 2.586-.799.824-.347 1.606-.772 2.338-1.266.732-.494 1.413-1.056 2.035-1.678.622-.622 1.184-1.303 1.678-2.035.494-.732.918-1.514 1.266-2.338.347-.824.616-1.689.799-2.586.083-.407.081-.841.127-1.26a3.931224 3.931224 0 0 1 -.03125 .01758 3.931224 3.931224 0 0 1 -.357422 .162109 3.931224 3.931224 0 0 1 -.373047 .123047 3.931224 3.931224 0 0 1 -.382812 .08594 3.931224 3.931224 0 0 1 -.390625 .04687 3.931224 3.931224 0 0 1 -.279297 .0098 3.931224 3.931224 0 0 1 -.392578 -.01953 3.931224 3.931224 0 0 1 -.386719 -.05859 3.931224 3.931224 0 0 1 -.380859 -.09766 3.931224 3.931224 0 0 1 -.369141 -.134766 3.931224 3.931224 0 0 1 -.355469 -.169922 3.931224 3.931224 0 0 1 -.333984 -.205078 3.931224 3.931224 0 0 1 -.3125 -.238281 3.931224 3.931224 0 0 1 -.287109 -.267578 3.931224 3.931224 0 0 1 -.212891 -.240235 5.405432 5.405432 0 0 1 .0059 .02148 5.405432 5.405432 0 0 1 .06445 .537109 5.405432 5.405432 0 0 1 .01367 .382813 5.405432 5.405432 0 0 1 -.02734 .539062 5.405432 5.405432 0 0 1 -.08008 .535156 5.405432 5.405432 0 0 1 -.134765 .523438 5.405432 5.405432 0 0 1 -.185547 .507812 5.405432 5.405432 0 0 1 -.234375 .486329 5.405432 5.405432 0 0 1 -.283203 .458984 5.405432 5.405432 0 0 1 -.326172 .43164 5.405432 5.405432 0 0 1 -.369141 .394532 5.405432 5.405432 0 0 1 -.404297 .357422 5.405432 5.405432 0 0 1 -.439453 .314453 5.405432 5.405432 0 0 1 -.46875 .267578 5.405432 5.405432 0 0 1 -.49414 .220703 5.405432 5.405432 0 0 1 -.511719 .169922 5.405432 5.405432 0 0 1 -.527344 .11914 5.405432 5.405432 0 0 1 -.537109 .06445 5.405432 5.405432 0 0 1 -.382813 .01367 5.405432 5.405432 0 0 1 -.539062 -.02539 5.405432 5.405432 0 0 1 -.535157 -.08203 5.405432 5.405432 0 0 1 -.523437 -.132813 5.405432 5.405432 0 0 1 -.507813 -.185547 5.405432 5.405432 0 0 1 -.486328 -.234375 5.405432 5.405432 0 0 1 -.458984 -.283203 5.405432 5.405432 0 0 1 -.431641 -.326172A5.405432 5.405432 0 0 1 -38.75 23.324219m.268 2.465c0 0 2.083 1.518 3.275 1.965 1.127.423 2.274.586 3.139.645.865.058 1.449.01 1.449.01 0 0-.441.329-1.152.656-.711.328-1.694.654-2.779.654-.543 0-1.061-.155-1.531-.41-.47-.255-.892-.611-1.248-1.012-.711-.802-1.152-1.784-1.152-2.508z" fill="#fead38"/><g fill="#3f3f3f"><path d="m-30.494141 14.994141a20.64191 20.654612 0 0 0 -.826171 .49414 5.405432 5.405432 0 0 1 .15625 .146485 5.405432 5.405432 0 0 1 .355468 .404296 5.405432 5.405432 0 0 1 .210938 .294922 3.931224 3.931224 0 0 1 -.01172 -.0957 3.931224 3.931224 0 0 1 -.0098 -.277343 3.931224 3.931224 0 0 1 .01953 -.392579 3.931224 3.931224 0 0 1 .05859 -.388671 3.931224 3.931224 0 0 1 .04687 -.185547"/><path d="m-26.488 11.291c.141.255.262.522.387.787a3.931224 3.931224 0 0 1 .04297 .0059c-.128-.274-.292-.525-.43-.793"/><path d="m-27.938 9.164c.375.451.743.909 1.059 1.406-.068-.112-.114-.239-.188-.348-.257-.38-.579-.707-.871-1.059"/><path d="m-28.371094 8.640625a20.64191 20.654612 0 0 0 -1.980468 .455078 20.64191 20.654612 0 0 0 -1.953126 .662109 20.64191 20.654612 0 0 0 -1.878906 .853516 20.64191 20.654612 0 0 0 -1.785156 1.03711 20.64191 20.654612 0 0 0 -1.671875 1.210937 20.64191 20.654612 0 0 0 -1.541016 1.371094 20.64191 20.654612 0 0 0 -1.398437 1.517578 20.64191 20.654612 0 0 0 -1.240234 1.650391 20.64191 20.654612 0 0 0 -1.06836 1.765624 20.64191 20.654612 0 0 0 -.851562 1.789063c.463-.011.934-.034 1.32.082.54.163.994.446 1.33.842.336.396.552.904.619 1.514.067.61-.021 1.263-.24 1.924-.219.661-.568 1.328-1.02 1.965-.452.636-1.01 1.243-1.637 1.779-.452.384-.979.68-1.5.979 1.149.607 2.363 1.116 3.68 1.377.013.003.026.001.039.004a20.64191 20.654612 0 0 1 .267579 -2.03711 20.64191 20.654612 0 0 1 .470703 -2.00977 20.64191 20.654612 0 0 1 .671875 -1.953125 20.64191 20.654612 0 0 1 .861328 -1.876953 20.64191 20.654612 0 0 1 .126953 -.216797 5.405432 5.405432 0 0 1 -.169922 -.158203 5.405432 5.405432 0 0 1 -.357422 -.40625 5.405432 5.405432 0 0 1 -.314453 -.439454 5.405432 5.405432 0 0 1 -.267578 -.46875 5.405432 5.405432 0 0 1 -.220703 -.492187 5.405432 5.405432 0 0 1 -.169922 -.513672 5.405432 5.405432 0 0 1 -.119141 -.527344 5.405432 5.405432 0 0 1 -.06445 -.535156 5.405432 5.405432 0 0 1 -.01367 -.382812 5.405432 5.405432 0 0 1 .02539 -.541016 5.405432 5.405432 0 0 1 .08203 -.533203 5.405432 5.405432 0 0 1 .132813 -.523438 5.405432 5.405432 0 0 1 .185547 -.507812 5.405432 5.405432 0 0 1 .234375 -.486328 5.405432 5.405432 0 0 1 .283203 -.460938 5.405432 5.405432 0 0 1 .326172 -.429687 5.405432 5.405432 0 0 1 .36914 -.396485 5.405432 5.405432 0 0 1 .40625 -.355468 5.405432 5.405432 0 0 1 .439453 -.314454 5.405432 5.405432 0 0 1 .46875 -.269531 5.405432 5.405432 0 0 1 .492188 -.220703 5.405432 5.405432 0 0 1 .513672 -.169922 5.405432 5.405432 0 0 1 .527343 -.11914 5.405432 5.405432 0 0 1 .535157 -.06445 5.405432 5.405432 0 0 1 .382812 -.01367 5.405432 5.405432 0 0 1 .541016 .02734 5.405432 5.405432 0 0 1 .533203 .08008 5.405432 5.405432 0 0 1 .523438 .134766 5.405432 5.405432 0 0 1 .507812 .185547 5.405432 5.405432 0 0 1 .486328 .234375 5.405432 5.405432 0 0 1 .460938 .283203 5.405432 5.405432 0 0 1 .429687 .326172 5.405432 5.405432 0 0 1 .240235 .222656 20.64191 20.654612 0 0 1 .826171 -.49414 3.931224 3.931224 0 0 1 .05078 -.195313 3.931224 3.931224 0 0 1 .134765 -.36914 3.931224 3.931224 0 0 1 .169922 -.353516 3.931224 3.931224 0 0 1 .205078 -.335938 3.931224 3.931224 0 0 1 .238282 -.3125 3.931224 3.931224 0 0 1 .267578 -.287109 3.931224 3.931224 0 0 1 .294922 -.259766 3.931224 3.931224 0 0 1 .320312 -.228515 3.931224 3.931224 0 0 1 .339844 -.195313 3.931224 3.931224 0 0 1 .359375 -.160156 3.931224 3.931224 0 0 1 .373047 -.125 3.931224 3.931224 0 0 1 .382812 -.08594 3.931224 3.931224 0 0 1 .390625 -.04688 3.931224 3.931224 0 0 1 .277344 -.0098 3.931224 3.931224 0 0 1 .392578 .01953 3.931224 3.931224 0 0 1 .195313 .0293c-.125-.265-.246-.532-.387-.787-.125-.243-.249-.488-.391-.721-.315-.498-.683-.955-1.059-1.406-.145-.174-.28-.356-.434-.523"/></g><g fill="#fead38"><path d="m-46.611 21.646c.053-.023.12-.028.172-.053.757-.362 1.491-.584 2.172-.674.194-.026.343.038.527.033a20.64191 20.654612 0 0 1 .851562 -1.789063 20.64191 20.654612 0 0 1 1.06836 -1.765624 20.64191 20.654612 0 0 1 1.240234 -1.650391 20.64191 20.654612 0 0 1 1.398437 -1.517578 20.64191 20.654612 0 0 1 1.541016 -1.371094 20.64191 20.654612 0 0 1 1.671875 -1.210937 20.64191 20.654612 0 0 1 1.785156 -1.03711 20.64191 20.654612 0 0 1 1.878906 -.853516 20.64191 20.654612 0 0 1 1.953126 -.662109 20.64191 20.654612 0 0 1 1.980468 -.455078c-.132-.144-.235-.315-.373-.453-.606-.606-1.272-1.15-1.982-1.635a21.00304 21.01596 0 0 0 -1.22461 .273438 21.00304 21.01596 0 0 0 -1.992187 .662109 21.00304 21.01596 0 0 0 -1.917969 .855469 21.00304 21.01596 0 0 0 -1.822266 1.044922 21.00304 21.01596 0 0 0 -1.707031 1.220703 21.00304 21.01596 0 0 0 -1.580078 1.384766 21.00304 21.01596 0 0 0 -1.431641 1.535156 21.00304 21.01596 0 0 0 -1.271484 1.671875 21.00304 21.01596 0 0 0 -1.09961 1.789062 21.00304 21.01596 0 0 0 -.914062 1.892578 21.00304 21.01596 0 0 0 -.720703 1.972657 21.00304 21.01596 0 0 0 -.203125 .791015"/><path d="m-40.42 4.361c-.277.039-.569.029-.84.084-.897.183-1.762.452-2.586.799-.824.347-1.606.772-2.338 1.266-.732.494-1.413 1.056-2.035 1.678-.622.622-1.184 1.303-1.678 2.035-.157.233-.259.501-.402.744v4.865a21.00304 21.01596 0 0 1 .46289 -1.248047 21.00304 21.01596 0 0 1 .925782 -1.886718 21.00304 21.01596 0 0 1 1.107421 -1.783204 21.00304 21.01596 0 0 1 1.28125 -1.664062 21.00304 21.01596 0 0 1 1.439454 -1.529297 21.00304 21.01596 0 0 1 1.585937 -1.376953 21.00304 21.01596 0 0 1 1.714844 -1.210938 21.00304 21.01596 0 0 1 1.361328 -.771484"/></g><g fill="#3f3f3f"><path d="M-40.42187 4.361328A21.00304 21.01596 0 0 0 -41.783203 5.132813 21.00304 21.01596 0 0 0 -43.498047 6.34375 21.00304 21.01596 0 0 0 -45.08398 7.720703 21.00304 21.01596 0 0 0 -46.523438 9.25a21.00304 21.01596 0 0 0 -1.28125 1.664062 21.00304 21.01596 0 0 0 -1.107421 1.783204 21.00304 21.01596 0 0 0 -.925782 1.886718 21.00304 21.01596 0 0 0 -.46289 1.248047V22.625c.449-.08.875-.157 1.334-.252.83-.172 1.635-.406 2.355-.727a21.00304 21.01596 0 0 1 .203125 -.791015 21.00304 21.01596 0 0 1 .720703 -1.972657 21.00304 21.01596 0 0 1 .914062 -1.892578 21.00304 21.01596 0 0 1 1.09961 -1.789062 21.00304 21.01596 0 0 1 1.271484 -1.671875 21.00304 21.01596 0 0 1 1.431641 -1.535156 21.00304 21.01596 0 0 1 1.580078 -1.384766 21.00304 21.01596 0 0 1 1.707031 -1.220703 21.00304 21.01596 0 0 1 1.822266 -1.044922 21.00304 21.01596 0 0 1 1.917969 -.855469 21.00304 21.01596 0 0 1 1.992187 -.662109 21.00304 21.01596 0 0 1 1.22461 -.273438c-.019-.013-.034-.03-.053-.043-.732-.494-1.514-.918-2.338-1.266-.824-.347-1.689-.616-2.586-.799-.897-.183-1.826-.279-2.779-.279-.665 0-1.3.105-1.939.195"/><path d="m-38.08 4.207c-.066-.002-.122-.034-.188-.035a20.64191 20.654612 0 0 0 -.0293 .011719c.074.001.143.021.217.023"/><path d="m-33.57 5.104c-.066-.025-.115-.077-.182-.102-.115-.042-.252-.029-.369-.068.182.061.372.102.551.17"/><path d="m-29.960938 7.185547a20.64191 20.654612 0 0 1 .07031 -.011719c-.078-.062-.182-.086-.262-.146.066.05.126.107.191.158"/><path d="m-44.725 3.941c-3.089 0-5.576 2.486-5.576 5.574v1.451c.143-.243.245-.511.402-.744.494-.732 1.056-1.413 1.678-2.035.622-.622 1.303-1.184 2.035-1.678.732-.494 1.514-.918 2.338-1.266.824-.347 1.689-.616 2.586-.799.897-.183 1.826-.279 2.779-.279.063 0 .121.017.184.018a20.64191 20.654612 0 0 1 .0293 -.011719c.066.001.122.033.188.035.81.024 1.611.082 2.379.238.549.112 1.059.314 1.582.488.117.039.254.026.369.068.066.024.116.076.182.102.147.056.309.08.453.141.824.347 1.606.772 2.338 1.266.226.152.411.353.627.518.079.061.184.084.262.146a20.64191 20.654612 0 0 0 -.07031 .011719c.412.327.845.63 1.217 1 .622.622 1.184 1.303 1.678 2.035.393.583.706 1.219 1.01 1.861a3.931224 3.931224 0 0 1 .150391 .02344 3.931224 3.931224 0 0 1 .380859 .09766 3.931224 3.931224 0 0 1 .369141 .134766 3.931224 3.931224 0 0 1 .353515 .169922 3.931224 3.931224 0 0 1 .335938 .205078 3.931224 3.931224 0 0 1 .3125 .238281 3.931224 3.931224 0 0 1 .287109 .267578 3.931224 3.931224 0 0 1 .259766 .294922 3.931224 3.931224 0 0 1 .228516 .320313 3.931224 3.931224 0 0 1 .195312 .341796 3.931224 3.931224 0 0 1 .160156 .357422 3.931224 3.931224 0 0 1 .125 .373047 3.931224 3.931224 0 0 1 .08594 .382813 3.931224 3.931224 0 0 1 .04687 .390625 3.931224 3.931224 0 0 1 .0098 .279297 3.931224 3.931224 0 0 1 -.01953 .392578 3.931224 3.931224 0 0 1 -.05859 .386718 3.931224 3.931224 0 0 1 -.09766 .38086 3.931224 3.931224 0 0 1 -.134765 .36914 3.931224 3.931224 0 0 1 -.169922 .355469 3.931224 3.931224 0 0 1 -.205078 .333985 3.931224 3.931224 0 0 1 -.238282 .3125 3.931224 3.931224 0 0 1 -.267578 .287109 3.931224 3.931224 0 0 1 -.294922 .259765 3.931224 3.931224 0 0 1 -.320312 .228516 3.931224 3.931224 0 0 1 -.310547 .177734c-.046.419-.044.853-.127 1.26-.183.897-.452 1.762-.799 2.586-.347.824-.772 1.606-1.266 2.338-.494.732-1.056 1.413-1.678 2.035-.622.622-1.303 1.184-2.035 1.678-.732.494-1.514.918-2.338 1.266-.824.347-1.689.616-2.586.799-.897.183-1.826.279-2.779.279-.953 0-1.882-.097-2.779-.279-.897-.183-1.762-.452-2.586-.799-.365-.154-.687-.377-1.035-.561-.201.115-.371.277-.58.377-.378.181-.795.268-1.234.277-.439.009-.899-.06-1.369-.191-.309-.086-.608-.326-.92-.461 1.021 1.251 2.514 2.096 4.262 2.096h17.05c3.089 0 5.574-2.488 5.574-5.576v-17.05c0-3.089-2.486-5.574-5.574-5.574z"/></g></g></g>

   xmlns:dc="http://purl.org/dc/elements/1.1/"
   xmlns:cc="http://creativecommons.org/ns#"
   xmlns:rdf="http://www.w3.org/1999/02/22-rdf-syntax-ns#"
   xmlns:svg="http://www.w3.org/2000/svg"
   xmlns="http://www.w3.org/2000/svg"
   xmlns:xlink="http://www.w3.org/1999/xlink"
   xmlns:sodipodi="http://sodipodi.sourceforge.net/DTD/sodipodi-0.dtd"
   xmlns:inkscape="http://www.inkscape.org/namespaces/inkscape"
   height="32"
   width="32"
   version="1"
   id="svg8"
   sodipodi:docname="snow-top-3.svg"
   inkscape:version="0.92.1 r"&gt;
  <path fill="#00000f" fill-opacity="0" d="m0 0h32v32h-32z" id="0"/><path d="m7.354 6.111c-2.995 2.684-1.381 7.817-3.674 8.291-2.031.613-3.541-1.385-3.66-4.503-.35-8.627 3.911-9.427 6.879-9.524 28.342-2.047 1.762 4.92.455 5.736" fill="url(#1)"/><use xlink:href="#0"/></svg>