<svg xmlns="http://www.w3.org/2000/svg" viewBox="0 0 32 32"><rect width="28.2" height="28.2" x="1.898" y="1.898" fill="#c2352a" fill-rule="evenodd" rx="5.575"/><g transform="translate(52.43 3.745)" stroke-linejoin="round" stroke-linecap="round"><path d="m-34.422 1.985c-.326.012-.683.044-1.07.107-.738.12-1.859.398-2.902 1.226-1.087.862-1.678 2.116-1.846 3.534-.863.157-1.732.519-2.297 1.152-.72.807-1 1.754-1 2.656 0 .901.283 1.848 1 2.654.113.126.295.189.429.3-.369.806-.633 1.662-.634 2.585v.005c0 3.448 2.851 6.33 6.309 6.33 3.458 0 6.309-2.882 6.309-6.33v-.003c-.001-.924-.264-1.781-.633-2.588.134-.11.315-.172.428-.298.72-.807 1-1.753 1-2.654 0-.792-.274-1.605-.815-2.341.399-.546.691-1.129.783-1.737.136-.897-.004-1.883-.607-2.795-.595-.899-1.723-1.564-2.775-1.708-.076-.012-.761-.129-1.681-.094" fill="#fff" stroke-width="7.999"/><path d="m-34.3 5.145c-.215.008-.446.028-.683.067-.473.077-.989.223-1.443.583-.454.361-.792.988-.792 1.695v2.376h-2.361a.787148 .792058 0 1 0 0 1.583958h2.361v1.689a3.148276 3.167914 0 0 0 -2.361206 3.06273 3.148276 3.167914 0 0 0 3.148275 3.167914 3.148276 3.167914 0 0 0 3.148276 -3.167914 3.148276 3.167914 0 0 0 -2.361207 -3.064277v-1.688h2.361a.787148 .792058 0 1 0 0 -1.583957h-2.361v-2.376c0-.286.056-.344.192-.452.136-.108.407-.213.721-.265.629-.102 1.33-.006 1.33-.006a.787148 .792058 0 1 0 .236736 -1.565399c0 0-.492-.081-1.136-.057m-2.13062 10.264781a.787069 .791979 0 0 1 .787069 .791978 .787069 .791979 0 0 1 -.787069 .791978 .787069 .791979 0 0 1 -.787069 -.791978 .787069 .791979 0 0 1 .787069 -.791978" fill="#c2352a" stroke-width="1.997"/></g>

   xmlns:dc="http://purl.org/dc/elements/1.1/"
   xmlns:cc="http://creativecommons.org/ns#"
   xmlns:rdf="http://www.w3.org/1999/02/22-rdf-syntax-ns#"
   xmlns:svg="http://www.w3.org/2000/svg"
   xmlns="http://www.w3.org/2000/svg"
   xmlns:sodipodi="http://sodipodi.sourceforge.net/DTD/sodipodi-0.dtd"
   xmlns:inkscape="http://www.inkscape.org/namespaces/inkscape"
   height="32"
   width="32"
   version="1"
   id="svg8"
   sodipodi:docname="star-mime-2.svg"
   inkscape:version="0.92.1 r"&gt;
  <g transform="translate(152.47 194.05)" fill="#fff"><path d="m-125.38-193.25l-.077 3.548 3.072 1.831-3.548-.077-3.135 6.791 1.38-7.268-3.072-1.831 3.548.077z"/><path d="m-125.41-183.04l.042-1.955-1.692-1.01 1.955.042 1.727-3.741-.76 4 1.692 1.01-1.955-.042z"/></g></svg>