<svg xmlns="http://www.w3.org/2000/svg" viewBox="0 0 32 32"><defs><linearGradient gradientTransform="matrix(2.54182 0 0 2.58531-153.47-277.37)" id="0" x1="67.894" y1="108.69" x2="67.854" y2="113.11" gradientUnits="userSpaceOnUse"><stop stop-color="#f9f9f9"/><stop offset="1" stop-color="#999"/></linearGradient></defs><g fill-rule="evenodd"><g fill="#3f3f3f"><path d="m6.450195 11.428711a1.5 1.5 0 0 0 -.150391 .0078 1.5 1.5 0 0 0 -.146484 .02148 1.5 1.5 0 0 0 -.146484 .03711 1.5 1.5 0 0 0 -.140625 .05273 1.5 1.5 0 0 0 -.134766 .06445 1.5 1.5 0 0 0 -.128906 .07813 1.5 1.5 0 0 0 -.119141 .0918 1.5 1.5 0 0 0 -.109375 .101562 1.5 1.5 0 0 0 -.09766 .113282 1.5 1.5 0 0 0 -.08789 .121093 1.5 1.5 0 0 0 -.07422 .13086 1.5 1.5 0 0 0 -.0625 .136718 1.5 1.5 0 0 0 -.04687 .142579 1.5 1.5 0 0 0 -.0332 .146484 1.5 1.5 0 0 0 -.01758 .148437 1.5 1.5 0 0 0 -.0039 .105469 1.5 1.5 0 0 0 .0078 .150391 1.5 1.5 0 0 0 .02148 .148437 1.5 1.5 0 0 0 .03711 .144532 1.5 1.5 0 0 0 .05273 .140625 1.5 1.5 0 0 0 .06445 .134765 1.5 1.5 0 0 0 .07813 .128906 1.5 1.5 0 0 0 .0918 .119141 1.5 1.5 0 0 0 .101562 .109375 1.5 1.5 0 0 0 .113281 .09961 1.5 1.5 0 0 0 .121094 .08594 1.5 1.5 0 0 0 .130859 .07617 1.5 1.5 0 0 0 .136719 .06055 1.5 1.5 0 0 0 .142578 .04687 1.5 1.5 0 0 0 .146485 .0332 1.5 1.5 0 0 0 .148437 .01758 1.5 1.5 0 0 0 .105469 .0039 1.5 1.5 0 0 0 .150391 -.0078 1.5 1.5 0 0 0 .148437 -.02148 1.5 1.5 0 0 0 .144531 -.03711 1.5 1.5 0 0 0 .140625 -.05078 1.5 1.5 0 0 0 .134766 -.06641 1.5 1.5 0 0 0 .128906 -.07813 1.5 1.5 0 0 0 .119141 -.08984 1.5 1.5 0 0 0 .109375 -.103515 1.5 1.5 0 0 0 .09961 -.111329 1.5 1.5 0 0 0 .08594 -.123046 1.5 1.5 0 0 0 .07617 -.13086 1.5 1.5 0 0 0 .06055 -.136719 1.5 1.5 0 0 0 .04687 -.140625 1.5 1.5 0 0 0 .0332 -.146484 1.5 1.5 0 0 0 .01758 -.150391 1.5 1.5 0 0 0 .0039 -.105468 1.5 1.5 0 0 0 -.0078 -.150391 1.5 1.5 0 0 0 -.02148 -.146484 1.5 1.5 0 0 0 -.03711 -.146485 1.5 1.5 0 0 0 -.05273 -.140625 1.5 1.5 0 0 0 -.06445 -.134765 1.5 1.5 0 0 0 -.07813 -.128907 1.5 1.5 0 0 0 -.08984 -.11914 1.5 1.5 0 0 0 -.103516 -.109375 1.5 1.5 0 0 0 -.111328 -.09766 1.5 1.5 0 0 0 -.123047 -.08789 1.5 1.5 0 0 0 -.130859 -.07422 1.5 1.5 0 0 0 -.136719 -.0625 1.5 1.5 0 0 0 -.140625 -.04687 1.5 1.5 0 0 0 -.146485 -.0332 1.5 1.5 0 0 0 -.15039 -.01758 1.5 1.5 0 0 0 -.105469 -.0039"/><path d="m11.950195 10.428711a2 2 0 0 0 -.199219 .0098 2 2 0 0 0 -.197265 .03125 2 2 0 0 0 -.19336 .04883 2 2 0 0 0 -.189453 .06836 2 2 0 0 0 -.179687 .08594 2 2 0 0 0 -.169922 .105469 2 2 0 0 0 -.160156 .121093 2 2 0 0 0 -.144532 .136719 2 2 0 0 0 -.132812 .150391 2 2 0 0 0 -.117188 .162109 2 2 0 0 0 -.09766 .173828 2 2 0 0 0 -.08203 .181641 2 2 0 0 0 -.06445 .189453 2 2 0 0 0 -.04297 .195312 2 2 0 0 0 -.02344 .199219 2 2 0 0 0 -.0059 .140625 2 2 0 0 0 .0098 .199219 2 2 0 0 0 .03125 .199219 2 2 0 0 0 .04883 .193359 2 2 0 0 0 .06836 .1875 2 2 0 0 0 .08594 .179688 2 2 0 0 0 .105468 .169922 2 2 0 0 0 .121094 .160156 2 2 0 0 0 .136719 .146484 2 2 0 0 0 .15039 .13086 2 2 0 0 0 .16211 .117187 2 2 0 0 0 .173828 .09961 2 2 0 0 0 .181641 .08203 2 2 0 0 0 .189453 .0625 2 2 0 0 0 .195312 .04297 2 2 0 0 0 .199219 .02539 2 2 0 0 0 .140625 .0039 2 2 0 0 0 .199219 -.0098 2 2 0 0 0 .199219 -.0293 2 2 0 0 0 .193359 -.05078 2 2 0 0 0 .1875 -.06836 2 2 0 0 0 .179687 -.08594 2 2 0 0 0 .169922 -.105469 2 2 0 0 0 .160156 -.121093 2 2 0 0 0 .146485 -.134766 2 2 0 0 0 .130859 -.150391 2 2 0 0 0 .117188 -.164062 2 2 0 0 0 .09961 -.171875 2 2 0 0 0 .08203 -.183594 2 2 0 0 0 .0625 -.189453 2 2 0 0 0 .04297 -.195313 2 2 0 0 0 .02539 -.197265 2 2 0 0 0 .0039 -.142578 2 2 0 0 0 -.0098 -.199219 2 2 0 0 0 -.0293 -.197266 2 2 0 0 0 -.05078 -.193359 2 2 0 0 0 -.06836 -.189453 2 2 0 0 0 -.08594 -.179688 2 2 0 0 0 -.105468 -.169922 2 2 0 0 0 -.121094 -.160156 2 2 0 0 0 -.134766 -.144531 2 2 0 0 0 -.15039 -.132813 2 2 0 0 0 -.164063 -.117187 2 2 0 0 0 -.171875 -.09766 2 2 0 0 0 -.183594 -.08203 2 2 0 0 0 -.189453 -.06445 2 2 0 0 0 -.195312 -.04297 2 2 0 0 0 -.197266 -.02344 2 2 0 0 0 -.142578 -.0059"/></g><g fill="#fff"><path d="m13.450195 7.428711a4.5 4.5 0 0 0 -.449219 .023437 4.5 4.5 0 0 0 -.445312 .066406 4.5 4.5 0 0 0 -.435547 .111328 4.5 4.5 0 0 0 -.421875 .154297 4.5 4.5 0 0 0 -.404297 .195313 4.5 4.5 0 0 0 -.384766 .236328 4.5 4.5 0 0 0 -.357422 .271484 4.5 4.5 0 0 0 -.330078 .306641 4.5 4.5 0 0 0 -.296875 .337891 4.5 4.5 0 0 0 -.261718 .365234 4.5 4.5 0 0 0 -.222657 .390625 4.5 4.5 0 0 0 -.183593 .410157 4.5 4.5 0 0 0 -.142579 .427734 4.5 4.5 0 0 0 -.09766 .439453 4.5 4.5 0 0 0 -.05469 .445313 4.5 4.5 0 0 0 -.01172 .318359 4.5 4.5 0 0 0 .02344 .449219 4.5 4.5 0 0 0 .06641 .445312 4.5 4.5 0 0 0 .111328 .435547 4.5 4.5 0 0 0 .154297 .421875 4.5 4.5 0 0 0 .195312 .40625 4.5 4.5 0 0 0 .236328 .382813 4.5 4.5 0 0 0 .271485 .357421 4.5 4.5 0 0 0 .30664 .330079 4.5 4.5 0 0 0 .337891 .296875 4.5 4.5 0 0 0 .365234 .261718 4.5 4.5 0 0 0 .390625 .222657 4.5 4.5 0 0 0 .410157 .185546 4.5 4.5 0 0 0 .427734 .140625 4.5 4.5 0 0 0 .439453 .09961 4.5 4.5 0 0 0 .445313 .05273 4.5 4.5 0 0 0 .318359 .01172 4.5 4.5 0 0 0 .449219 -.02149 4.5 4.5 0 0 0 .445312 -.06836 4.5 4.5 0 0 0 .435547 -.111328 4.5 4.5 0 0 0 .421875 -.154297 4.5 4.5 0 0 0 .40625 -.195312 4.5 4.5 0 0 0 .382813 -.234375 4.5 4.5 0 0 0 .357422 -.273438 4.5 4.5 0 0 0 .330078 -.30664 4.5 4.5 0 0 0 .296875 -.337891 4.5 4.5 0 0 0 .261718 -.365234 4.5 4.5 0 0 0 .222657 -.390625 4.5 4.5 0 0 0 .185546 -.410157 4.5 4.5 0 0 0 .140626 -.427734 4.5 4.5 0 0 0 .09961 -.4375 4.5 4.5 0 0 0 .05273 -.447266 4.5 4.5 0 0 0 .01172 -.318359 4.5 4.5 0 0 0 -.02148 -.449219 4.5 4.5 0 0 0 -.06836 -.445312A4.5 4.5 0 0 0 17.749023 10.598625 4.5 4.5 0 0 0 17.594726 10.17675 4.5 4.5 0 0 0 17.399414 9.772453 4.5 4.5 0 0 0 17.16504 9.387687 4.5 4.5 0 0 0 16.891601 9.03027 4.5 4.5 0 0 0 16.584961 8.700187 4.5 4.5 0 0 0 16.24707 8.403312 4.5 4.5 0 0 0 15.881836 8.141594 4.5 4.5 0 0 0 15.491211 7.918937 4.5 4.5 0 0 0 15.08105 7.735344 4.5 4.5 0 0 0 14.65332 7.592766 4.5 4.5 0 0 0 14.21582 7.49511 4.5 4.5 0 0 0 13.768554 7.440423 4.5 4.5 0 0 0 13.450195 7.428704m-1.5 3.00001a2 2 0 0 1 .142578 .0059 2 2 0 0 1 .197266 .02344 2 2 0 0 1 .195312 .04297 2 2 0 0 1 .189453 .06445 2 2 0 0 1 .183594 .08203 2 2 0 0 1 .171875 .09766 2 2 0 0 1 .164063 .117187 2 2 0 0 1 .15039 .132813 2 2 0 0 1 .134766 .144531 2 2 0 0 1 .121094 .160156 2 2 0 0 1 .105468 .169922 2 2 0 0 1 .08594 .179688 2 2 0 0 1 .06836 .189453 2 2 0 0 1 .05078 .193359 2 2 0 0 1 .0293 .197266 2 2 0 0 1 .0098 .199219 2 2 0 0 1 -.0039 .142578 2 2 0 0 1 -.02539 .197265 2 2 0 0 1 -.04297 .195313 2 2 0 0 1 -.0625 .189453 2 2 0 0 1 -.08203 .183594 2 2 0 0 1 -.09961 .171875 2 2 0 0 1 -.117188 .164062 2 2 0 0 1 -.130859 .150391 2 2 0 0 1 -.146485 .134765 2 2 0 0 1 -.160156 .121094 2 2 0 0 1 -.169922 .105469 2 2 0 0 1 -.179687 .08594 2 2 0 0 1 -.1875 .06836 2 2 0 0 1 -.193359 .05078 2 2 0 0 1 -.199219 .0293 2 2 0 0 1 -.199219 .0098 2 2 0 0 1 -.140625 -.0039 2 2 0 0 1 -.199219 -.02539 2 2 0 0 1 -.195312 -.04297 2 2 0 0 1 -.189453 -.0625 2 2 0 0 1 -.181641 -.08203 2 2 0 0 1 -.173828 -.09961 2 2 0 0 1 -.16211 -.117188 2 2 0 0 1 -.15039 -.130859 2 2 0 0 1 -.136719 -.146484 2 2 0 0 1 -.121094 -.160157 2 2 0 0 1 -.105468 -.169921 2 2 0 0 1 -.08594 -.179688 2 2 0 0 1 -.06836 -.1875 2 2 0 0 1 -.04883 -.193359 2 2 0 0 1 -.03125 -.199219 2 2 0 0 1 -.0098 -.199219 2 2 0 0 1 .0059 -.140625 2 2 0 0 1 .02344 -.199219 2 2 0 0 1 .04297 -.195312 2 2 0 0 1 .06445 -.189453 2 2 0 0 1 .08203 -.181641 2 2 0 0 1 .09766 -.173828 2 2 0 0 1 .117188 -.162109 2 2 0 0 1 .132812 -.150391 2 2 0 0 1 .144532 -.136719 2 2 0 0 1 .160156 -.121093 2 2 0 0 1 .169922 -.105469 2 2 0 0 1 .179687 -.08594 2 2 0 0 1 .189453 -.06836 2 2 0 0 1 .19336 -.04883 2 2 0 0 1 .197265 -.03125 2 2 0 0 1 .199219 -.0098z"/><path d="M9.206054 10.454102A3 3 0 0 0 9.04004 10.276367 3 3 0 0 0 8.815429 10.0791 3 3 0 0 0 8.571289 9.905273 3 3 0 0 0 8.311523 9.754883 3 3 0 0 0 8.03809 9.633789 3 3 0 0 0 7.752929 9.538086 3 3 0 0 0 7.459961 9.47168 3 3 0 0 0 7.163086 9.436524 3 3 0 0 0 6.950195 9.428714 3 3 0 0 0 6.651367 9.444339 3 3 0 0 0 6.354492 9.489261 3 3 0 0 0 6.06348 9.56348 3 3 0 0 0 5.782226 9.665043 3 3 0 0 0 5.512695 9.795902 3 3 0 0 0 5.256836 9.952152 3 3 0 0 0 5.01855 10.133793 3 3 0 0 0 4.797851 10.338871 3 3 0 0 0 4.600586 10.56348a3 3 0 0 0 -.173829 .244141 3 3 0 0 0 -.15039 .259765 3 3 0 0 0 -.121094 .275391 3 3 0 0 0 -.0957 .283203 3 3 0 0 0 -.06641 .292969 3 3 0 0 0 -.03516 .296875 3 3 0 0 0 -.0078 .21289 3 3 0 0 0 .01563 .298828 3 3 0 0 0 .04492 .296875 3 3 0 0 0 .07422 .291016 3 3 0 0 0 .101562 .28125 3 3 0 0 0 .13086 .271484 3 3 0 0 0 .15625 .253907 3 3 0 0 0 .18164 .240234 3 3 0 0 0 .205078 .21875 3 3 0 0 0 .22461 .197266 3 3 0 0 0 .24414 .175781 3 3 0 0 0 .259766 .148438 3 3 0 0 0 .27539 .123046 3 3 0 0 0 .283204 .09375 3 3 0 0 0 .292968 .06641 3 3 0 0 0 .296875 .03516 3 3 0 0 0 .212891 .0078 3 3 0 0 0 .298828 -.01563 3 3 0 0 0 .296875 -.04297 3 3 0 0 0 .291016 -.07422 3 3 0 0 0 .28125 -.103515 3 3 0 0 0 .271484 -.13086 3 3 0 0 0 .253906 -.15625 3 3 0 0 0 .240235 -.18164 3 3 0 0 0 .21875 -.205078 3 3 0 0 0 .197265 -.22461 3 3 0 0 0 .175782 -.24414 3 3 0 0 0 .0039 -.0078 4.5 4.5 0 0 1 -.173828 -.361328 4.5 4.5 0 0 1 -.154297 -.421875 4.5 4.5 0 0 1 -.111328 -.435547 4.5 4.5 0 0 1 -.06641 -.445313 4.5 4.5 0 0 1 -.02344 -.449218 4.5 4.5 0 0 1 .01172 -.31836 4.5 4.5 0 0 1 .05469 -.445312 4.5 4.5 0 0 1 .09766 -.439453 4.5 4.5 0 0 1 .0918 -.271485m-2.75587.974606a1.5 1.5 0 0 1 .105469 .0039 1.5 1.5 0 0 1 .15039 .01758 1.5 1.5 0 0 1 .146485 .0332 1.5 1.5 0 0 1 .140625 .04687 1.5 1.5 0 0 1 .136719 .0625 1.5 1.5 0 0 1 .130859 .07422 1.5 1.5 0 0 1 .123047 .08789 1.5 1.5 0 0 1 .111328 .09766 1.5 1.5 0 0 1 .103516 .109375 1.5 1.5 0 0 1 .08984 .119141 1.5 1.5 0 0 1 .07813 .128906 1.5 1.5 0 0 1 .06445 .134765 1.5 1.5 0 0 1 .05273 .140625 1.5 1.5 0 0 1 .03711 .146485 1.5 1.5 0 0 1 .02148 .146484 1.5 1.5 0 0 1 .0078 .150391 1.5 1.5 0 0 1 -.0039 .105469 1.5 1.5 0 0 1 -.01758 .15039 1.5 1.5 0 0 1 -.0332 .146485 1.5 1.5 0 0 1 -.04687 .140625 1.5 1.5 0 0 1 -.06055 .136718 1.5 1.5 0 0 1 -.07617 .13086 1.5 1.5 0 0 1 -.08594 .123047 1.5 1.5 0 0 1 -.09961 .111328 1.5 1.5 0 0 1 -.109375 .103515 1.5 1.5 0 0 1 -.119141 .08984 1.5 1.5 0 0 1 -.128906 .07813 1.5 1.5 0 0 1 -.134766 .06641 1.5 1.5 0 0 1 -.140625 .05078 1.5 1.5 0 0 1 -.144531 .03711 1.5 1.5 0 0 1 -.148437 .02148 1.5 1.5 0 0 1 -.150391 .0078 1.5 1.5 0 0 1 -.105469 -.0039 1.5 1.5 0 0 1 -.148437 -.01758 1.5 1.5 0 0 1 -.146485 -.0332 1.5 1.5 0 0 1 -.142578 -.04687 1.5 1.5 0 0 1 -.136719 -.06055 1.5 1.5 0 0 1 -.130859 -.07617 1.5 1.5 0 0 1 -.121094 -.08594 1.5 1.5 0 0 1 -.113281 -.09961 1.5 1.5 0 0 1 -.101562 -.109375 1.5 1.5 0 0 1 -.0918 -.11914 1.5 1.5 0 0 1 -.07813 -.128907 1.5 1.5 0 0 1 -.06445 -.134765 1.5 1.5 0 0 1 -.05273 -.140625 1.5 1.5 0 0 1 -.03711 -.144532 1.5 1.5 0 0 1 -.02148 -.148437 1.5 1.5 0 0 1 -.0078 -.150391 1.5 1.5 0 0 1 .0039 -.105468 1.5 1.5 0 0 1 .01758 -.148438 1.5 1.5 0 0 1 .0332 -.146484 1.5 1.5 0 0 1 .04687 -.142578 1.5 1.5 0 0 1 .0625 -.136719 1.5 1.5 0 0 1 .07422 -.13086 1.5 1.5 0 0 1 .08789 -.121093 1.5 1.5 0 0 1 .09766 -.113282 1.5 1.5 0 0 1 .109375 -.101562 1.5 1.5 0 0 1 .119141 -.0918 1.5 1.5 0 0 1 .128906 -.07813 1.5 1.5 0 0 1 .134766 -.06445 1.5 1.5 0 0 1 .140625 -.05273 1.5 1.5 0 0 1 .146484 -.03711 1.5 1.5 0 0 1 .146484 -.02148 1.5 1.5 0 0 1 .150391 -.0078"/></g><path d="m8.989 14.624c.314.016.585.019.902.049a4.5 4.5 0 0 1 -.154297 -.203125 4.5 4.5 0 0 1 -.236328 -.382812 4.5 4.5 0 0 1 -.02148 -.04492 3 3 0 0 1 -.0039 .0078 3 3 0 0 1 -.175782 .24414 3 3 0 0 1 -.197265 .22461 3 3 0 0 1 -.113282 .105468" fill="#8e8e8e"/><path d="m5.327 14.952c-.035.043-.174.037-.199.088-.161.327-.139.827-.17 1.594-.03.866.017 1.853.252 2.695.117.421.282.807.508 1.123.226.316.511.564.873.709.752.302 1.69.335 2.664.166.974-.169 1.983-.539 2.877-1.041.893-.502 1.671-1.135 2.182-1.832.256-.349.444-.713.547-1.084.103-.371.122-.752.035-1.129-.003-.015-.042-.024-.047-.039a4.5 4.5 0 0 1 -.06836 .02539 4.5 4.5 0 0 1 -.435547 .111328 4.5 4.5 0 0 1 -.445312 .06836 4.5 4.5 0 0 1 -.449219 .02149 4.5 4.5 0 0 1 -.318359 -.01172 4.5 4.5 0 0 1 -.445313 -.05273 4.5 4.5 0 0 1 -.439453 -.09961 4.5 4.5 0 0 1 -.427734 -.140627 4.5 4.5 0 0 1 -.410157 -.185546 4.5 4.5 0 0 1 -.390625 -.222657 4.5 4.5 0 0 1 -.365234 -.261718 4.5 4.5 0 0 1 -.337891 -.296875 4.5 4.5 0 0 1 -.30664 -.330079 4.5 4.5 0 0 1 -.117188 -.154296c-.317-.029-.589-.032-.902-.049a3 3 0 0 1 -.105468 .09961 3 3 0 0 1 -.240235 .181641 3 3 0 0 1 -.253906 .15625 3 3 0 0 1 -.271484 .130859 3 3 0 0 1 -.28125 .103516 3 3 0 0 1 -.291016 .07422 3 3 0 0 1 -.296875 .04297 3 3 0 0 1 -.298828 .01563 3 3 0 0 1 -.212891 -.0078 3 3 0 0 1 -.296875 -.03516 3 3 0 0 1 -.292968 -.06641 3 3 0 0 1 -.283204 -.09375 3 3 0 0 1 -.27539 -.123047 3 3 0 0 1 -.259766 -.148437 3 3 0 0 1 -.002 -.0019" fill="#ffc102"/><path d="m6.973633 21.18457a6.126173 4.792501 45.0008 0 0 -.01172 .09375 6.126173 4.792501 45.0008 0 0 -.0078 .533203 6.126173 4.792501 45.0008 0 0 .048816 .542969 6.126173 4.792501 45.0008 0 0 .103516 .548828 6.126173 4.792501 45.0008 0 0 .15625 .548828 6.126173 4.792501 45.0008 0 0 .208984 .542969 6.126173 4.792501 45.0008 0 0 .257813 .535156 6.126173 4.792501 45.0008 0 0 .304687 .515625 6.126173 4.792501 45.0008 0 0 .34961 .496094 6.126173 4.792501 45.0008 0 0 .388672 .470703 6.126173 4.792501 45.0008 0 0 .427734 .439453 6.126173 4.792501 45.0008 0 0 .322266 .289063 6.126173 4.792501 45.0008 0 0 .478515 .376953 6.126173 4.792501 45.0008 0 0 .503907 .335937 6.126173 4.792501 45.0008 0 0 .523437 .289063 6.126173 4.792501 45.0008 0 0 .537109 .242187 6.126173 4.792501 45.0008 0 0 .546875 .189453 6.126173 4.792501 45.0008 0 0 .548829 .138672 6.126173 4.792501 45.0008 0 0 .548828 .08594 6.126173 4.792501 45.0008 0 0 .539062 .0293 6.126173 4.792501 45.0008 0 0 .527344 -.02539 6.126173 4.792501 45.0008 0 0 .509766 -.07813 6.126173 4.792501 45.0008 0 0 .484374 -.134765 6.126173 4.792501 45.0008 0 0 .457032 -.185547 6.126173 4.792501 45.0008 0 0 .425781 -.236329 6.126173 4.792501 45.0008 0 0 .386719 -.285156 6.126173 4.792501 45.0008 0 0 .347656 -.332031 6.126173 4.792501 45.0008 0 0 .21875 -.259766 6.126173 4.792501 45.0008 0 0 .267578 -.40039 6.126173 4.792501 45.0008 0 0 .220703 -.435547 6.126173 4.792501 45.0008 0 0 .167969 -.466797 6.126173 4.792501 45.0008 0 0 .117188 -.494141 6.126173 4.792501 45.0008 0 0 .06055 -.515625 6.126173 4.792501 45.0008 0 0 .0059 -.53125 6.126173 4.792501 45.0008 0 0 -.04883 -.542968 6.126173 4.792501 45.0008 0 0 -.101563 -.550782 6.126173 4.792501 45.0008 0 0 -.15625 -.548828 6.126173 4.792501 45.0008 0 0 -.208984 -.542969 6.126173 4.792501 45.0008 0 0 -.257813 -.533203 6.126173 4.792501 45.0008 0 0 -.304687 -.517578 6.126173 4.792501 45.0008 0 0 -.34961 -.496093 6.126173 4.792501 45.0008 0 0 -.390625 -.470704 6.126173 4.792501 45.0008 0 0 -.425781 -.439453 6.126173 4.792501 45.0008 0 0 -.322265 -.289062 6.126173 4.792501 45.0008 0 0 -.478516 -.376953 6.126173 4.792501 45.0008 0 0 -.503906 -.333985 6.126173 4.792501 45.0008 0 0 -.04687 -.02539c-.017.024-.02.05-.037.074-.511.697-1.288 1.33-2.182 1.832-.893.502-1.903.872-2.877 1.041-.834.145-1.594.051-2.281-.143" fill="#fcf8fd"/><g fill="#8e8e8e"><path d="M8.657226 25.874023A6.126173 4.792501 45.0008 0 1 8.383789 25.541992 6.126173 4.792501 45.0008 0 1 8.03418 25.0459 6.126173 4.792501 45.0008 0 1 7.729492 24.530273 6.126173 4.792501 45.0008 0 1 7.471679 23.995117 6.126173 4.792501 45.0008 0 1 7.262695 23.452148 6.126173 4.792501 45.0008 0 1 7.106445 22.90332 6.126173 4.792501 45.0008 0 1 7.00293 22.354492a6.126173 4.792501 45.0008 0 1 -.04883 -.542969 6.126173 4.792501 45.0008 0 1 .0078 -.533203 6.126173 4.792501 45.0008 0 1 .01172 -.09375c-.106-.03-.247.006-.354-.021.022.072.025.147.049.219.043.742.204 1.449.459 2.121.255.672.606 1.309 1.033 1.906.128.179.355.293.496.465"/><path d="m28.644 28.22c-.306.213-.515.418-.85.627-.627.391-1.387.68-2.096 1.02 1.16-.255 2.182-.795 2.945-1.646"/></g><path d="m29.782 13.577c-.392-.25-.719-.569-1.137-.785-1.073-.554-2.211-1-3.32-1.363l-3.375 4.04c.55.396.831 1.354 1.463 1.818 1.499 1.101 3.182 2.041 4.955 2.754.56.225 1.159.262 1.734.439v-6.357c-.107-.188-.214-.355-.32-.545" fill="#64287b"/><g fill="#7d329a"><path d="m16.97 3.429c-.84.012-1.893.366-3.01.99-1.117.625-2.299 1.521-3.402 2.623-.799.797-1.458 1.801-2.119 2.787a3 3 0 0 1 .132813 .076172 3 3 0 0 1 .24414 .173829 3 3 0 0 1 .22461 .197265 3 3 0 0 1 .166015 .177735 4.5 4.5 0 0 1 .05078 -.15625 4.5 4.5 0 0 1 .183593 -.410157 4.5 4.5 0 0 1 .222657 -.390625 4.5 4.5 0 0 1 .261718 -.365234 4.5 4.5 0 0 1 .296875 -.337891 4.5 4.5 0 0 1 .330078 -.306641 4.5 4.5 0 0 1 .357422 -.271484 4.5 4.5 0 0 1 .384768 -.236328 4.5 4.5 0 0 1 .404297 -.195313 4.5 4.5 0 0 1 .421875 -.154297 4.5 4.5 0 0 1 .435547 -.111328 4.5 4.5 0 0 1 .445312 -.066406 4.5 4.5 0 0 1 .449219 -.023437 4.5 4.5 0 0 1 .318359 .011719 4.5 4.5 0 0 1 .447266 .054687 4.5 4.5 0 0 1 .4375 .097656 4.5 4.5 0 0 1 .427734 .142578 4.5 4.5 0 0 1 .410157 .183594 4.5 4.5 0 0 1 .390625 .222656 4.5 4.5 0 0 1 .365234 .261719 4.5 4.5 0 0 1 .337891 .296875 4.5 4.5 0 0 1 .30664 .330078 4.5 4.5 0 0 1 .273438 .357422 4.5 4.5 0 0 1 .234375 .384766 4.5 4.5 0 0 1 .195312 .404297 4.5 4.5 0 0 1 .154297 .421875 4.5 4.5 0 0 1 .111328 .435547 4.5 4.5 0 0 1 .06836 .445312 4.5 4.5 0 0 1 .02148 .449219 4.5 4.5 0 0 1 -.01172 .31836 4.5 4.5 0 0 1 -.05273 .447265 4.5 4.5 0 0 1 -.09961 .4375 4.5 4.5 0 0 1 -.140626 .427735 4.5 4.5 0 0 1 -.185546 .410156 4.5 4.5 0 0 1 -.222657 .390625 4.5 4.5 0 0 1 -.261718 .365234 4.5 4.5 0 0 1 -.296875 .337891 4.5 4.5 0 0 1 -.330078 .30664 4.5 4.5 0 0 1 -.357422 .273438 4.5 4.5 0 0 1 -.382813 .234375 4.5 4.5 0 0 1 -.40625 .195312 4.5 4.5 0 0 1 -.353515 .128907c.005.015.043.024.047.039.087.377.068.757-.035 1.129-.096.346-.28.683-.51 1.01a6.126173 4.792501 45.0008 0 1 .04687 .02539 6.126173 4.792501 45.0008 0 1 .503906 .333985 6.126173 4.792501 45.0008 0 1 .478516 .376953 6.126173 4.792501 45.0008 0 1 .322265 .289062 6.126173 4.792501 45.0008 0 1 .425781 .439453 6.126173 4.792501 45.0008 0 1 .390625 .470704 6.126173 4.792501 45.0008 0 1 .34961 .496093 6.126173 4.792501 45.0008 0 1 .304687 .517578 6.126173 4.792501 45.0008 0 1 .257813 .533203 6.126173 4.792501 45.0008 0 1 .208984 .542969 6.126173 4.792501 45.0008 0 1 .15625 .548828 6.126173 4.792501 45.0008 0 1 .101563 .550782 6.126173 4.792501 45.0008 0 1 .04883 .542968 6.126173 4.792501 45.0008 0 1 -.0059 .53125 6.126173 4.792501 45.0008 0 1 -.06055 .515625 6.126173 4.792501 45.0008 0 1 -.117188 .494141 6.126173 4.792501 45.0008 0 1 -.167969 .466797 6.126173 4.792501 45.0008 0 1 -.220703 .435547 6.126173 4.792501 45.0008 0 1 -.267578 .40039 6.126173 4.792501 45.0008 0 1 -.21875 .259766 6.126173 4.792501 45.0008 0 1 -.347656 .332031 6.126173 4.792501 45.0008 0 1 -.386719 .285156 6.126173 4.792501 45.0008 0 1 -.425781 .236329 6.126173 4.792501 45.0008 0 1 -.457032 .185547 6.126173 4.792501 45.0008 0 1 -.484374 .134765 6.126173 4.792501 45.0008 0 1 -.509766 .07813 6.126173 4.792501 45.0008 0 1 -.527344 .02539 6.126173 4.792501 45.0008 0 1 -.539062 -.0293 6.126173 4.792501 45.0008 0 1 -.548828 -.08594 6.126173 4.792501 45.0008 0 1 -.548829 -.138672 6.126173 4.792501 45.0008 0 1 -.546875 -.189453 6.126173 4.792501 45.0008 0 1 -.537109 -.242187 6.126173 4.792501 45.0008 0 1 -.523437 -.289063 6.126173 4.792501 45.0008 0 1 -.503907 -.335937 6.126173 4.792501 45.0008 0 1 -.08594 -.06641c.532.482.947 1.05 1.559 1.457 1.012.673 2.132 1.143 3.238 1.594h9.814c.416 0 .782-.151 1.172-.236.708-.339 1.469-.628 2.096-1.02.334-.209.543-.414.85-.627.884-.986 1.459-2.259 1.459-3.693v-4.047c-.575-.178-1.174-.214-1.734-.439-1.773-.713-3.456-1.653-4.955-2.754-.632-.464-.913-1.422-1.463-1.818l3.375-4.04c1.109.363 2.248.809 3.32 1.363.418.216.745.535 1.137.785-.286-.512-.571-1.041-.861-1.469-.692-1.018-1.533-1.968-2.469-2.844-.936-.876-1.967-1.679-3.037-2.406-2.139-1.455-4.434-2.608-6.445-3.43"/><path d="m6.095 20.759c-.527 1.5-.987 3.03-1.145 4.58.707.102 1.37.115 1.988.051.384-.04.722-.158 1.074-.254-.347-.521-.666-1.057-.885-1.633-.255-.672-.416-1.379-.459-2.121-.023-.071-.026-.147-.049-.219-.009-.002-.021.001-.029-.002-.205-.083-.337-.26-.496-.402"/></g><path d="m7.474 1.897c-3.089 0-5.576 2.488-5.576 5.576v17.05c0 3.089 2.488 5.576 5.576 5.576h7.238c-1.106-.451-2.227-.921-3.238-1.594-.611-.407-1.027-.975-1.559-1.457a6.126173 4.792501 45.0008 0 1 -.392578 -.310547 6.126173 4.792501 45.0008 0 1 -.322266 -.289063 6.126173 4.792501 45.0008 0 1 -.427734 -.439453 6.126173 4.792501 45.0008 0 1 -.115235 -.138672c-.141-.172-.368-.286-.496-.465-.061-.086-.09-.186-.148-.273-.352.096-.69.214-1.074.254-.619.064-1.281.051-1.988-.051.157-1.548.618-3.08 1.145-4.58-.121-.108-.279-.17-.377-.307-.226-.316-.39-.702-.508-1.123-.235-.843-.282-1.829-.252-2.695.031-.767.009-1.267.17-1.594.025-.051.164-.045.199-.088a3 3 0 0 1 -.242187 -.173829 3 3 0 0 1 -.22461 -.197266 3 3 0 0 1 -.205078 -.21875 3 3 0 0 1 -.18164 -.240234 3 3 0 0 1 -.15625 -.253906 3 3 0 0 1 -.13086 -.271485 3 3 0 0 1 -.101562 -.28125 3 3 0 0 1 -.07422 -.291015 3 3 0 0 1 -.04492 -.296875 3 3 0 0 1 -.01563 -.298828 3 3 0 0 1 .0078 -.212891 3 3 0 0 1 .03516 -.296875 3 3 0 0 1 .06641 -.292969 3 3 0 0 1 .0957 -.283203 3 3 0 0 1 .121094 -.275391 3 3 0 0 1 .15039 -.259765 3 3 0 0 1 .173829 -.244141 3 3 0 0 1 .197265 -.224609 3 3 0 0 1 .220703 -.205078 3 3 0 0 1 .238282 -.181641 3 3 0 0 1 .255859 -.15625 3 3 0 0 1 .269531 -.130859 3 3 0 0 1 .28125 -.101563 3 3 0 0 1 .291016 -.074219 3 3 0 0 1 .296875 -.044922 3 3 0 0 1 .298828 -.015625 3 3 0 0 1 .212891 .00781 3 3 0 0 1 .296875 .035156 3 3 0 0 1 .292968 .066406 3 3 0 0 1 .285157 .095703 3 3 0 0 1 .273437 .121094 3 3 0 0 1 .126953 .074219c.661-.986 1.321-1.99 2.119-2.787 1.104-1.102 2.285-1.998 3.402-2.623 1.117-.625 2.169-.978 3.01-.99 2.01.822 4.306 1.974 6.445 3.43 1.07.728 2.101 1.53 3.037 2.406.936.876 1.777 1.826 2.469 2.844.399.586.788 1.319 1.182 2.01v-6.648c0-3.089-2.488-5.576-5.576-5.576z" fill="#666"/></g>

   xmlns:dc="http://purl.org/dc/elements/1.1/"
   xmlns:cc="http://creativecommons.org/ns#"
   xmlns:rdf="http://www.w3.org/1999/02/22-rdf-syntax-ns#"
   xmlns:svg="http://www.w3.org/2000/svg"
   xmlns="http://www.w3.org/2000/svg"
   xmlns:xlink="http://www.w3.org/1999/xlink"
   xmlns:sodipodi="http://sodipodi.sourceforge.net/DTD/sodipodi-0.dtd"
   xmlns:inkscape="http://www.inkscape.org/namespaces/inkscape"
   height="32"
   width="32"
   version="1"
   id="svg8"
   sodipodi:docname="snow-top-2.svg"
   inkscape:version="0.92.1 r"&gt;
  <path d="m24.646 6.111c2.995 2.684 1.381 7.817 3.674 8.291 2.031.613 3.541-1.385 3.66-4.503.35-8.627-3.911-9.427-6.879-9.524-28.342-2.047-1.762 4.92-.455 5.736" fill="url(#0)"/></svg>