<svg xmlns="http://www.w3.org/2000/svg" viewBox="0 0 32 32"><rect width="28.2" height="28.2" x="1.898" y="1.898" fill="#8a4b2c" fill-rule="evenodd" rx="5.575"/><g transform="translate(0-.04)" fill="#fbb64a"><path d="m9.72 27.929c.015-.04.06-.315.099-.612.235-1.78.218-2.921.681-3.681.085-.14.328-.45.539-.688.211-.239.384-.388.384-.417 0-.037-.061-.043-.198-.021-.653.105-1.046-.014-1.226-.32-.093-.159.012.045 0-3.87-.014-4.499.034-4.068.446-4.275.298-.15.67-.383.999-.435.56-.089.94.326 1.218.867.076.148.163.26.194.25.088-.029.104-4.081.016-4.081-.035 0-.102.097-.147.217-.116.302-.39.999-.717 1.145-.341.152-1.429.536-1.656.536-.092 0-.322-.025-.353-.055-.042-.042-.001-.753 0-2.92 0-1.576-.02-3.19 0-3.22.175-.273 2.917-.386 3.865-.175.192.043.517.158.722.255.532.254.866.723 1.23 1.411.02.038.066.069.101.069.054 0 .067-.119.078-1.62.007-.99.001-2.149-.014-2.208 0 0-.515.681-.582.816l-.146.122-.893-.016c-.491-.009-2.639 0-4.407-.002-1.768-.002-3.852.027-3.895.044-.157.06 0 .159.399.376.688.374 1.332.673 1.499 1.297.098.365.094 5.541-.004 5.956-.095.401-.416.694-.717 1.017-.141.152-.257.294-.257.317 0 .023.116.155.259.294.286.279.66.616.731.899.068.269.12 8.121.057 8.554-.063.431-.34.616-.698.996-.335.355-.335.354.177.548.418.158 1.203.515 1.362.753.166.248.382.711.558 1.354.08.292.155.546.167.566.035.058.097.039.127-.038"/><path d="m18.05 6c-.049.03-.059.432-.049 1.727.015 1.883-.049 1.274.338.781.538-.686 1.254-.506 1.557-.539.773-.019.96-.01 1.033.063.075.074.145.941.082 2.666v2.32c0 0-.533.423-.824.709-.099.109-.18.226-.18.26 0 .034.072.142.158.24.22.392.82.729.82.729l.016 4.01c.014 4.376.011 4.106-.09 4.193 0 0-.718.749-.914.846 1.027.338 1.438.61 1.871 1.549.071.23.089.451.129.451.04 0 .058-.221.129-.451.433-.938.844-1.211 1.871-1.549-.196-.097-.914-.846-.914-.846-.101-.087-.104.182-.09-4.193l.016-4.01c0 0 .6-.337.82-.729.087-.098.158-.206.158-.24 0-.034-.081-.151-.18-.26-.291-.286-.824-.709-.824-.709v-2.32c-.063-1.725.007-2.592.082-2.666.073-.073.26-.081 1.033-.063.302.033 1.019-.147 1.557.539.387.493.323 1.101.338-.781.01-1.295 0-1.696-.049-1.727-.178.276-.572.984-.572.984-.076.038-1.463.015-3.375.016-1.912 0-3.299.023-3.375-.016 0 0-.394-.708-.572-.984"/></g>

   xmlns:dc="http://purl.org/dc/elements/1.1/"
   xmlns:cc="http://creativecommons.org/ns#"
   xmlns:rdf="http://www.w3.org/1999/02/22-rdf-syntax-ns#"
   xmlns:svg="http://www.w3.org/2000/svg"
   xmlns="http://www.w3.org/2000/svg"
   xmlns:sodipodi="http://sodipodi.sourceforge.net/DTD/sodipodi-0.dtd"
   xmlns:inkscape="http://www.inkscape.org/namespaces/inkscape"
   height="32"
   width="32"
   version="1"
   id="svg8"
   sodipodi:docname="star-mime-2.svg"
   inkscape:version="0.92.1 r"&gt;
  <g transform="translate(152.47 194.05)" fill="#fff"><path d="m-125.38-193.25l-.077 3.548 3.072 1.831-3.548-.077-3.135 6.791 1.38-7.268-3.072-1.831 3.548.077z"/><path d="m-125.41-183.04l.042-1.955-1.692-1.01 1.955.042 1.727-3.741-.76 4 1.692 1.01-1.955-.042z"/></g></svg>