<svg xmlns="http://www.w3.org/2000/svg" xmlns:xlink="http://www.w3.org/1999/xlink" viewBox="0 0 32 32"><defs><linearGradient xlink:href="#3" id="4" gradientUnits="userSpaceOnUse" x1="-23.24" y1="-185.08" x2="-28.704" y2="-186.05"/><linearGradient xlink:href="#3" id="2" gradientUnits="userSpaceOnUse" x1="-34.914" y1="-193.53" x2="-20.469" y2="-181.36"/><linearGradient id="3"><stop stop-color="#ffff5e"/><stop offset="1" stop-color="#f6a32d"/></linearGradient><linearGradient id="1"><stop stop-color="#f9f9f9"/><stop offset="1" stop-color="#999"/></linearGradient><linearGradient xlink:href="#1" id="0" gradientUnits="userSpaceOnUse" x1="-33.14" y1="-185.13" x2="-35.775" y2="-177.2"/><radialGradient xlink:href="#1" id="5" cx="-176.59" cy="-120.91" r="3.01" gradientUnits="userSpaceOnUse" gradientTransform="matrix(2.21087.05719-.05496 2.12455 362.18 94.22)"/></defs><g fill-rule="evenodd"><rect width="28.2" height="28.2" x="1.898" y="1.898" fill="#3398c3" rx="5.575"/><g transform="translate(59.858.962)"><g stroke-width="1.599"><path d="m-39.31 6.28c-1.901.541-3.088 3.826-2.884 3.749l.029.761c.296.016.567.054.771.123.733.249 1.661-.201 2.261-.587.013-.15.021-.297.019-.437.324-.274.679-.621.778-.902.195-.554.369-1.645.059-2.079-.157-.219-.382.701-.389.777-.012.138-.346-.144-.449-.054-.193.168-.008.541-.084.531-.099-.013-.132-.19-.231-.174-.262.22-.411.487-.525.748-.073-.02-.146-.042-.214-.071-.098-.042-.087-.304-.053-.407.043-.129.271-.04.331-.162.066-.133-.062-.363.031-.477.055-.067.158.025.211-.044.17-.218.452-1.327.338-1.295" fill="#a5ccdf"/><path d="m-36.431 8.619c-.188.659-.426 1.091-.704 1.368.039-.168.038-.352-.014-.557l-.814.88c.053-.15.086-.309.048-.495l-.78.666c.127-.164.195-.357.178-.612.011.021-1.689 1.448-2.873 1.045-.987-.336-3.329-.093-4.367 1.161-3.152.315-5.837 3.215-5.593 5.438.254 2.316 2.52 3.735 3.064 3.876.13.042.249.06.361.067.134.905.724 1.88 1.45 2.27.634.34 2.298-.659 2.298-.659-1.092-.646-1.783-1.279-2.298-1.924.813-.054 1.976.244 3.065.467.14-.01-.012-1.532-1.395-1.952-.715-.217-2.061-.336-2.738.328-.246-.578-.452-1.572.051-2.225.523-.68 2.206-1.183 2.962-1.25.071.031.139.069.211.095 2.503.809 8.739-3.967 7.887-7.986" fill="#fff"/></g><path d="m-43.663 17.05c-.013.027-.439-.21-.59-.262-.172-.06-.408.377-.3.525.154.211.635.262.609.282l.28-.544z" fill="#3398c3" stroke="#000" stroke-width=".123"/><g stroke-width="1.599"><path d="m-43.38 15.04c-.185.002-.408.061-.645.195-.351.199-.89 1.605-1.071 2.076-.733.643-.792 2.124-.384 2.859 1.583 2.855 5.924 4.554 7.141 3.093-.258-.403-.712-.462-1.301-.875-.126.023-.235.073-.316.167l-.319-.547c-.123.019-.225-.161-.346.052-.229-.167-.216-.229-.172-.362.039-.1.087-.178.136-.255.345.115.712.242.952.34.137.056.026-.402.173-.414.205-.017.25.517.455.531.176.012.251-.522.407-.436.235.13 1.129.898 1.067.509-.135-.849-1.194-1.796-1.829-2.162-.32-.185-.936-.273-1.431-.316-.558-.791-1.475-1.728-2.195-2.129-.04-.022-.078-.04-.117-.061.201-.582.54-1.499.282-2.034-.07-.144-.247-.235-.486-.233" fill="#a5ccdf"/><circle r=".938" cx="-42.29" cy="12.222" fill="#3398c3"/></g></g></g><g transform="translate(49.877 194.68)"><path d="m-35.21-194.22c-5.577-1.531-5.951 3.24-4.58 5.493 4.381 6.983 6.796 6.577 9.398 7.895 1.712 2.064 3.451 3.4 6.469 4.1 11.69 1.559 3.242-8.417.92-8.649-5.065.012-7.547-6.123-12.206-8.838" fill="url(#0)"/><path d="m-35.21-194.22c3.76.276 5.616-.626 8.93-.421 4.319.283 8.307 2.053 7.838 6.574-.347 2.567-.37 2.25.186 4.296.532 1.535-.252 4.232-.487 4.654-2.715 4.963-1.536 4.965-2.656 7.742l-.906-.418-2.508-11.358c-7.177-.909-10.754-10.11-10.398-11.07" fill="url(#2)"/><path d="m-28.419-184.29c.362.274 1.553-5.105 1.172-5.653 1.379 2.44 1.919 4.616 2.435 6.783-1.276-.283-2.289-.554-3.607-1.13" fill="url(#4)"/><circle r="3.01" cy="-171.07" cx="-21.728" fill="url(#5)"/></g></svg>