<svg xmlns="http://www.w3.org/2000/svg" xmlns:xlink="http://www.w3.org/1999/xlink" viewBox="0 0 32 32"><defs><linearGradient xlink:href="#3" id="4" x1="-227.98" y1="-131.26" x2="-234.8" y2="-134.14" gradientUnits="userSpaceOnUse"/><linearGradient xlink:href="#3" id="2" x1="-241.01" y1="-141.61" x2="-226.57" y2="-129.44" gradientUnits="userSpaceOnUse"/><linearGradient id="3"><stop stop-color="#13a9ea"/><stop offset="1" stop-color="#372db5"/></linearGradient><linearGradient id="1"><stop stop-color="#f9f9f9"/><stop offset="1" stop-color="#999"/></linearGradient><linearGradient xlink:href="#1" id="0" x1="-239.23" y1="-133.21" x2="-241.87" y2="-125.28" gradientUnits="userSpaceOnUse"/><radialGradient xlink:href="#1" id="5" cx="-176.59" cy="-120.91" r="3.01" gradientUnits="userSpaceOnUse" gradientTransform="matrix(2.21087.05719-.05496 2.12455 156.08 146.14)"/></defs><rect y="1.898" x="1.898" height="28.2" width="28.2" fill="#0b4263" fill-rule="evenodd" rx="5.575"/><path d="m10.996 25.557c-.014-.438-.025-1.539-.025-2.447v-1.651h-.104c-.057 0-.245-.034-.417-.075-1.285-.308-2.305-1.381-2.548-2.68-.053-.283-.059-.673-.049-3.107.013-3.047.002-2.896.243-3.48.349-.846 1.072-1.562 1.905-1.885.611-.237.352-.228 6.13-.216l5.255.011.276.085c1.287.398 2.217 1.434 2.438 2.716.05.29.057.732.046 3.063-.012 2.676-.014 2.729-.095 3.03-.183.66-.623 1.354-1.116 1.76-.436.359-.816.552-1.407.717-.282.078-.373.082-2.687.095l-2.395.014-.807.723c-.444.397-1.605 1.437-2.58 2.309-.975.873-1.832 1.639-1.905 1.703l-.133.116z" fill="#fff"/><g transform="matrix(-1 0 0 1-223.97 142.77)"><g fill="#f9f9f9"><path d="m-228.95-129.3l-.27 2.221-.122-2.378z"/><path d="m-228.66-130.01l-.27 2.221-.122-2.378z"/><path d="m-228.43-129.95l-.27 1.6-.122-1.713z"/></g><path d="m-241.31-142.31c-5.577-1.531-5.951 3.24-4.58 5.493 4.381 6.983 6.796 6.577 9.398 7.895 1.712 2.064 3.451 3.4 6.469 4.1 11.69 1.559 3.242-8.417.92-8.649-5.065.012-7.547-6.123-12.206-8.838" fill="url(#0)"/><path d="m-241.31-142.31c3.76.276 5.616-.626 8.93-.421 4.319.283 8.307 2.053 7.838 6.574-.347 2.567-.37 2.25.186 4.296.532 1.535-.252 4.232-.487 4.654-2.715 4.963-1.536 4.965-2.656 7.742l-.906-.418-2.508-11.358c-7.177-.909-10.754-10.11-10.398-11.07" fill="url(#2)"/><path d="m-234.52-132.37c.362.274 1.553-5.105 1.172-5.653 1.379 2.44 1.919 4.616 2.435 6.783-1.276-.283-2.289-.554-3.607-1.13" fill="url(#4)"/><circle r="3.01" cy="-119.15" cx="-227.83" fill="url(#5)"/></g></svg>