<svg xmlns="http://www.w3.org/2000/svg" viewBox="0 0 32 32"><defs><linearGradient gradientTransform="matrix(2.62891 0 0 2.71269-160.16-291.42)" id="0" x1="67.894" y1="108.69" x2="67.854" y2="113.11" gradientUnits="userSpaceOnUse"><stop stop-color="#f9f9f9"/><stop offset="1" stop-color="#999"/></linearGradient></defs><rect width="28.2" height="28.2" x="1.898" y="1.898" fill="#4d4d4d" fill-rule="evenodd" rx="5.575"/><g transform="matrix(.71556 0 0 .71556 4.551 4.193)"><circle r="1" cx="16" cy="4" fill="#535353"/><path d="m15.986 4c-.078 0-.15.015-.225.022-.091.008-.184.011-.273.027-.024.005-.047.015-.071.021-2.357.509-3.554 3.975-3.411 7.28-.002.097-.015.2-.015.295l-9.706 6.221c-.18.09-.276.247-.284.468v3.148c0 .18.078.327.232.442.163.107.34.136.529.086l9.03-2.816 1.399 6.589-3.588 1.6c-.12.115-.18.246-.18.394l.272 2.223 6.308-1 6.308 1 .272-2.222c0-.148-.06-.279-.18-.394l-3.617-1.6 1.427-6.589 9.03 2.816c.189.049.365.02.529-.086.155-.115.231-.262.231-.442v-3.148c-.009-.221-.102-.378-.283-.468l-9.707-6.222c0-.095-.008-.198-.01-.295.143-3.304-1.06-6.771-3.416-7.28-.024-.006-.047-.016-.071-.021-.089-.017-.182-.019-.273-.027-.075-.007-.148-.022-.225-.022-.005 0-.01.001-.015.001-.005 0-.009-.001-.014-.001" fill="#fead00"/><path d="m9 13.561l-2 1.283v5.846l2-.623zm14 0v6.504l2 .625v-5.846m-19 .641l-2 1.281v4.859l2-.623zm20 0v5.518l2 .623v-4.857z" fill="#fe5600"/><g fill="#292929"><rect x="11" y="4" width="10" height="1" ry=".5" rx=".625"/><path d="m20 15.333c0 2.578-1.791 4.667-4 4.667-2.209 0-4-2.089-4-4.667 0-2.577 1.791-3.333 4-3.333 2.209 0 4 .756 4 3.333"/></g></g>

   xmlns:dc="http://purl.org/dc/elements/1.1/"
   xmlns:cc="http://creativecommons.org/ns#"
   xmlns:rdf="http://www.w3.org/1999/02/22-rdf-syntax-ns#"
   xmlns:svg="http://www.w3.org/2000/svg"
   xmlns="http://www.w3.org/2000/svg"
   xmlns:xlink="http://www.w3.org/1999/xlink"
   xmlns:sodipodi="http://sodipodi.sourceforge.net/DTD/sodipodi-0.dtd"
   xmlns:inkscape="http://www.inkscape.org/namespaces/inkscape"
   version="1"
   width="32"
   height="32"
   id="svg12"
   sodipodi:docname="snow-top-1.svg"
   inkscape:version="0.92.1 r"&gt;
  <path d="m7.288.009c-8.276-.356-9.36 9.992-4.02 9.973.679.003 1.604-.207 2.97-1.543 7.256-10.531 14.706 3.573 17.53.919 1.71-1.912 3.496-.418 4.448.115 2.1.643 3.662.041 3.785-3.231.188-3.321-1.889-6.344-5.923-6.223-5.914.14-12.989-.047-18.787-.01" fill="url(#0)"/><path fill="#f00" fill-opacity="0" d="m0 0h32v32h-32z"/></svg>