<svg xmlns="http://www.w3.org/2000/svg" xmlns:xlink="http://www.w3.org/1999/xlink" viewBox="0 0 32 32"><defs><linearGradient xlink:href="#3" id="4" gradientUnits="userSpaceOnUse" x1="-23.24" y1="-185.08" x2="-28.704" y2="-186.05"/><linearGradient xlink:href="#3" id="2" gradientUnits="userSpaceOnUse" x1="-34.914" y1="-193.53" x2="-20.469" y2="-181.36"/><linearGradient id="3"><stop stop-color="#ffff5e"/><stop offset="1" stop-color="#f6a32d"/></linearGradient><linearGradient id="1"><stop stop-color="#f9f9f9"/><stop offset="1" stop-color="#999"/></linearGradient><linearGradient xlink:href="#1" id="0" gradientUnits="userSpaceOnUse" x1="-33.14" y1="-185.13" x2="-35.775" y2="-177.2"/><radialGradient xlink:href="#1" id="5" cx="-176.59" cy="-120.91" r="3.01" gradientUnits="userSpaceOnUse" gradientTransform="matrix(2.21087.05719-.05496 2.12455 362.18 94.22)"/></defs><g transform="translate(47.32-4.068)"><rect y="5.966" x="-45.42" height="28.2" width="28.2" fill="#959595" fill-rule="evenodd" rx="5.575"/><path d="m-31.32 11.466c-3.01 0-5.577.99-6.641 2.39-.089.118-.169.237-.236.36-.064.117-.119.235-.162.357a7.169472 3.823766 0 0 0 -.03001 .11203c-.025.082-.051.164-.066.248a7.169472 3.823766 0 0 0 -.034 .356609c0 .124.013.248.036.372a7.169472 3.823766 0 0 0 .09802 .358473 7.169472 3.823766 0 0 0 .166031 .35661 7.169472 3.823766 0 0 0 .228046 .347275 7.169472 3.823766 0 0 0 6.641369 2.389872 7.169472 3.823766 0 0 0 6.641369 -2.389872 7.169472 3.823766 0 0 0 .0022 -.0037 7.169472 3.823766 0 0 0 .194035 -.294995c.011-.019.025-.038.036-.058a7.169472 3.823766 0 0 0 .118024 -.253914c.017-.04.038-.079.052-.119a7.169472 3.823766 0 0 0 .05801 -.212847c.014-.056.029-.112.038-.168a7.169472 3.823766 0 0 0 .02995 -.322999 7.169472 3.823766 0 0 0 -.03801 -.380871c-.066-.373-.237-.726-.488-1.055-1.065-1.401-3.635-2.39-6.642-2.39zm-6.641368 7.169473a7.169472 3.823766 0 0 0 -.528103 1.433894 7.169472 3.823766 0 0 0 7.169471 3.823766 7.169472 3.823766 0 0 0 7.169472 -3.824196 7.169472 3.823766 0 0 0 -.527673 -1.433894 7.169472 3.823766 0 0 1 -6.641799 2.390302 7.169472 3.823766 0 0 1 -6.641798 -2.390302m.00043 4.78003a7.169472 3.823766 0 0 0 -.528103 1.433894 7.169472 3.823766 0 0 0 7.169471 3.824197 7.169472 3.823766 0 0 0 7.169472 -3.823766 7.169472 3.823766 0 0 0 -.528103 -1.433895 7.169472 3.823766 0 0 1 -6.641799 2.390302 7.169472 3.823766 0 0 1 -6.641799 -2.390302" fill="#4d4d4d"/></g><g transform="matrix(.75 0 0 .75 4.433 5.241)" stroke-width=".833"><circle r="8" cy="23" cx="24" fill="#cc5e55" fill-rule="evenodd"/><path d="m23 19l-.088 1.054a3.1429 3.1429 0 0 0 -.91852 .53126l-.958-.451-1 1.732.869.604a3.1429 3.1429 0 0 0 -.048 .53013 3.1429 3.1429 0 0 0 .0457 .53237l-.867.602 1 1.732.955-.45a3.1429 3.1429 0 0 0 .92075 .5279l.088 1.056h2l.088-1.054a3.1429 3.1429 0 0 0 .91854 -.53126l.958.451 1-1.732-.869-.604a3.1429 3.1429 0 0 0 .048 -.53013 3.1429 3.1429 0 0 0 -.0457 -.53237l.867-.602-1-1.732-.955.45a3.1429 3.1429 0 0 0 -.921 -.528l-.088-1.056h-2m1.00005 2.8575a1.1429 1.1429 0 0 1 1.143 1.143 1.1429 1.1429 0 0 1 -1.143 1.143 1.1429 1.1429 0 0 1 -1.143 -1.143 1.1429 1.1429 0 0 1 1.143 -1.143" fill="#fff"/></g><g transform="translate(49.877 194.68)"><path d="m-35.21-194.22c-5.577-1.531-5.951 3.24-4.58 5.493 4.381 6.983 6.796 6.577 9.398 7.895 1.712 2.064 3.451 3.4 6.469 4.1 11.69 1.559 3.242-8.417.92-8.649-5.065.012-7.547-6.123-12.206-8.838" fill="url(#0)"/><path d="m-35.21-194.22c3.76.276 5.616-.626 8.93-.421 4.319.283 8.307 2.053 7.838 6.574-.347 2.567-.37 2.25.186 4.296.532 1.535-.252 4.232-.487 4.654-2.715 4.963-1.536 4.965-2.656 7.742l-.906-.418-2.508-11.358c-7.177-.909-10.754-10.11-10.398-11.07" fill="url(#2)"/><path d="m-28.419-184.29c.362.274 1.553-5.105 1.172-5.653 1.379 2.44 1.919 4.616 2.435 6.783-1.276-.283-2.289-.554-3.607-1.13" fill="url(#4)"/><circle r="3.01" cy="-171.07" cx="-21.728" fill="url(#5)"/></g></svg>