<svg xmlns="http://www.w3.org/2000/svg" viewBox="0 0 32 32"><defs><linearGradient gradientTransform="matrix(2.62891 0 0 2.71269-160.16-291.42)" id="0" x1="67.894" y1="108.69" x2="67.854" y2="113.11" gradientUnits="userSpaceOnUse"><stop stop-color="#f9f9f9"/><stop offset="1" stop-color="#999"/></linearGradient></defs><rect width="28.2" height="28.2" x="1.898" y="1.898" fill="#959595" fill-rule="evenodd" rx="5.575"/><path d="m16 7.398c-3.01 0-5.577.99-6.641 2.39-.089.118-.169.237-.236.36-.064.117-.119.235-.162.357a7.169472 3.823766 0 0 0 -.030011 .11203c-.025.082-.051.164-.066.248a7.169472 3.823766 0 0 0 -.033998 .356609c0 .124.013.248.036.372a7.169472 3.823766 0 0 0 .098021 .358473 7.169472 3.823766 0 0 0 .166031 .35661 7.169472 3.823766 0 0 0 .228046 .347275 7.169472 3.823766 0 0 0 6.641369 2.389872 7.169472 3.823766 0 0 0 6.641369 -2.389872 7.169472 3.823766 0 0 0 .0022 -.0037 7.169472 3.823766 0 0 0 .194035 -.294995c.011-.019.025-.038.036-.058a7.169472 3.823766 0 0 0 .118024 -.253914c.017-.04.038-.079.052-.119a7.169472 3.823766 0 0 0 .05801 -.212847c.014-.056.029-.112.038-.168a7.169472 3.823766 0 0 0 .02995 -.322999 7.169472 3.823766 0 0 0 -.03801 -.380871c-.066-.373-.237-.726-.488-1.055-1.065-1.401-3.635-2.39-6.642-2.39m-6.643634 7.172197a7.169472 3.823766 0 0 0 -.528103 1.433894 7.169472 3.823766 0 0 0 7.169472 3.823766 7.169472 3.823766 0 0 0 7.169472 -3.824196 7.169472 3.823766 0 0 0 -.527673 -1.433894 7.169472 3.823766 0 0 1 -6.641799 2.390302 7.169472 3.823766 0 0 1 -6.641798 -2.390302zm0 4.7796a7.169472 3.823766 0 0 0 -.528103 1.433894 7.169472 3.823766 0 0 0 7.169472 3.824197 7.169472 3.823766 0 0 0 7.169472 -3.823766 7.169472 3.823766 0 0 0 -.528103 -1.433895 7.169472 3.823766 0 0 1 -6.641799 2.390302 7.169472 3.823766 0 0 1 -6.641799 -2.390302" fill="#4d4d4d"/>

   xmlns:dc="http://purl.org/dc/elements/1.1/"
   xmlns:cc="http://creativecommons.org/ns#"
   xmlns:rdf="http://www.w3.org/1999/02/22-rdf-syntax-ns#"
   xmlns:svg="http://www.w3.org/2000/svg"
   xmlns="http://www.w3.org/2000/svg"
   xmlns:xlink="http://www.w3.org/1999/xlink"
   xmlns:sodipodi="http://sodipodi.sourceforge.net/DTD/sodipodi-0.dtd"
   xmlns:inkscape="http://www.inkscape.org/namespaces/inkscape"
   version="1"
   width="32"
   height="32"
   id="svg12"
   sodipodi:docname="snow-top-1.svg"
   inkscape:version="0.92.1 r"&gt;
  <path d="m7.288.009c-8.276-.356-9.36 9.992-4.02 9.973.679.003 1.604-.207 2.97-1.543 7.256-10.531 14.706 3.573 17.53.919 1.71-1.912 3.496-.418 4.448.115 2.1.643 3.662.041 3.785-3.231.188-3.321-1.889-6.344-5.923-6.223-5.914.14-12.989-.047-18.787-.01" fill="url(#0)"/><path fill="#f00" fill-opacity="0" d="m0 0h32v32h-32z"/></svg>