<svg xmlns="http://www.w3.org/2000/svg" viewBox="0 0 32 32"><defs><linearGradient gradientTransform="matrix(2.62891 0 0 2.71269-160.16-291.42)" id="0" x1="67.894" y1="108.69" x2="67.854" y2="113.11" gradientUnits="userSpaceOnUse"><stop stop-color="#f9f9f9"/><stop offset="1" stop-color="#999"/></linearGradient></defs><rect width="28.2" height="28.2" x="1.898" y="1.898" fill="#f9548f" fill-rule="evenodd" rx="5.575"/><path d="m8.07 12.736c.106-.33.125-.528.165-.72-.292.38-.134.461-.165.72m.539-2.293c.053.495-.366.688.092.361.246-.564-.096-.156-.092-.361m8.01-4.335c.228-.085.56-.047.803-.103-.316.027-.63.043-.94.083l.137.019m7.328 9.247l-.049.127c-.091.657-.287 1.307-.588 1.91.332-.636.547-1.332.637-2.037m-9.274 2.053c-.118-.132-.186-.291-.265-.45.074.278.227.518.369.761l-.104-.311m-.524.021l-.048.241c.222.307.398.639.681.878-.204-.404-.355-.571-.633-1.119m2.762-11.05l-.127.027.118-.011.009-.016m-.359-.102c.18.033.389.058.359.102.198-.044.242-.084-.359-.102m3.757 8.454c.041-.619-.119-.423-.173-.187.063.034.113.436.173.187m-.668 1.771c.202-.283.348-.591.4-.911-.045.228-.166.424-.281.632-.63.404-.06-.24 0-.485-.678.87-.093.521-.118.764m-1.81.459c-.337.005.063.177.504.246.122-.097.232-.194.33-.29-.274.068-.553.07-.834.044m-9.758-4.221c.106-.33.125-.528.165-.72-.292.38-.135.461-.165.72m.539-2.293c.053.495-.366.688.093.361.246-.564-.096-.156-.092-.361m8.01-4.336c.228-.085.56-.047.803-.103-.316.027-.63.043-.939.083l.137.019m7.328 9.248l-.049.127c-.091.657-.287 1.307-.588 1.91.332-.636.546-1.332.637-2.037m-9.274 2.053c-.117-.132-.186-.291-.265-.45.074.278.227.518.369.761l-.104-.312m-.524.021l-.048.241c.222.307.398.639.681.878-.204-.404-.355-.571-.633-1.119m2.762-11.05l-.127.027.118-.011.009-.016m5.03 8.61c.019.519-.146.772-.294 1.218l-.267.138c-.218.442.022.28-.135.631-.341.315-1.035.987-1.257 1.048-.162-.004.11-.199.145-.275-.457.326-.366.489-1.065.688l-.02-.048c-1.722.843-4.114-.827-4.082-3.105-.018.144-.052.108-.09.166-.089-1.172.52-2.349 1.548-2.83 1.01-.517 2.183-.305 2.903.393-.395-.539-1.183-1.11-2.115-1.057-.914.015-1.769.619-2.054 1.275-.468.306-.522 1.182-.726 1.342-.275 2.098.516 3 1.854 4.071.21.147.059.17.087.282-.444-.216-.851-.543-1.186-.943.178.27.369.533.617.739-.419-.147-.979-1.056-1.142-1.093.722 1.345 2.93 2.359 4.087 1.856-.535.021-1.215.011-1.816-.22-.253-.135-.596-.415-.535-.467 1.578.613 3.208.464 4.573-.674.348-.282.727-.76.837-.767-.165.258.028.124-.099.352.346-.581-.151-.236.358-1l.188.269c-.07-.482.576-1.067.51-1.83.148-.233.165.251.008.787.218-.595.058-.691.113-1.182.06.165.14.34.181.515-.142-.575.145-.968.217-1.302-.071-.032-.219.254-.254-.425.005-.295.079-.155.107-.227-.055-.033-.202-.259-.29-.693.064-.102.172.264.26.279-.056-.345-.153-.608-.157-.872-.256-.557-.091.074-.298-.239-.273-.884.226-.205.26-.607.413.622.648 1.588.757 1.987-.083-.487-.216-.96-.379-1.416.126.055-.202-1 .163-.302-.392-1.493-1.671-2.888-2.848-3.542.144.137.326.309.261.336-.586-.362-.483-.391-.567-.544-.477-.202-.508.017-.824 0-.899-.496-1.072-.444-1.899-.754l.038.183c-.595-.206-.694.078-1.337 0-.039-.032.206-.115.408-.146-.576.079-.549-.118-1.112.022.139-.101.286-.169.434-.255-.469.03-1.121.284-.92.052-.766.356-2.126.855-2.889 1.599l-.024-.167c-.35.437-1.525 1.304-1.619 1.87l-.094.023c-.182.321-.3.684-.444 1.013-.238.422-.349.163-.315.229-.468.987-.701 1.817-.902 2.497.143.223.004 1.34.057 2.234-.235 4.417 2.98 8.704 6.494 9.694.515.192 1.281.185 1.932.204-.768-.229-.868-.121-1.617-.393-.54-.265-.658-.567-1.041-.912l.152.278c-.75-.276-.436-.342-1.047-.543l.162-.219c-.242-.019-.643-.426-.753-.652l-.266.011c-.32-.41-.49-.706-.477-.935l-.086.16c-.097-.174-1.176-1.539-.617-1.221-.104-.098-.242-.161-.392-.444l.114-.135c-.269-.361-.496-.823-.478-.976.144.202.243.239.342.274-.68-1.755-.718-.097-1.233-1.787l.109-.009c-.083-.131-.134-.273-.201-.413l.048-.491c-.489-.589-.137-2.504-.066-3.554.049-.427.409-.882.682-1.595l-.167-.03c.319-.578 1.819-2.322 2.515-2.232.337-.44-.067-.002-.133-.112.74-.796.972-.562 1.471-.706.538-.332-.462.13-.207-.127.931-.247.659-.562 1.873-.687.128.076-.297.117-.404.215.775-.395 2.453-.305 3.544.219 1.264.615 2.686 2.432 2.742 4.142l.064.018c-.032.68.1 1.466-.13 2.188l.155-.342m-5.387-8.712c.18.033.389.058.359.102.198-.044.242-.084-.359-.102m3.758 8.455c.041-.619-.119-.423-.173-.187.063.034.113.436.173.187m-.669 1.771c.202-.283.348-.591.4-.911-.045.228-.166.424-.281.632-.63.404-.06-.24 0-.485-.678.87-.093.521-.118.764m-1.81.46c-.337.005.063.177.504.246.122-.097.232-.194.33-.29-.274.068-.553.07-.834.044" fill="#fff"/>

   xmlns:dc="http://purl.org/dc/elements/1.1/"
   xmlns:cc="http://creativecommons.org/ns#"
   xmlns:rdf="http://www.w3.org/1999/02/22-rdf-syntax-ns#"
   xmlns:svg="http://www.w3.org/2000/svg"
   xmlns="http://www.w3.org/2000/svg"
   xmlns:xlink="http://www.w3.org/1999/xlink"
   xmlns:sodipodi="http://sodipodi.sourceforge.net/DTD/sodipodi-0.dtd"
   xmlns:inkscape="http://www.inkscape.org/namespaces/inkscape"
   version="1"
   width="32"
   height="32"
   id="svg12"
   sodipodi:docname="snow-top-1.svg"
   inkscape:version="0.92.1 r"&gt;
  <path d="m7.288.009c-8.276-.356-9.36 9.992-4.02 9.973.679.003 1.604-.207 2.97-1.543 7.256-10.531 14.706 3.573 17.53.919 1.71-1.912 3.496-.418 4.448.115 2.1.643 3.662.041 3.785-3.231.188-3.321-1.889-6.344-5.923-6.223-5.914.14-12.989-.047-18.787-.01" fill="url(#0)"/><path fill="#f00" fill-opacity="0" d="m0 0h32v32h-32z"/></svg>