<svg xmlns="http://www.w3.org/2000/svg" viewBox="0 0 32 32"><defs><linearGradient gradientTransform="matrix(2.54182 0 0 2.58531-153.47-277.37)" id="0" x1="67.894" y1="108.69" x2="67.854" y2="113.11" gradientUnits="userSpaceOnUse"><stop stop-color="#f9f9f9"/><stop offset="1" stop-color="#999"/></linearGradient></defs><g fill-rule="evenodd"><rect width="28.2" height="28.2" x="1.898" y="1.898" fill="#e6e6e6" rx="5.575"/><path d="m30.1 18.03l-1.193-1.59-1.783 2.377 1.783 2.377 1.193-1.59z" fill="#e82d2d"/><path d="m30.1 8.119h-13.91c-.428 0-.814.176-1.094.463-.279.286-.451.682-.451 1.121.366 1.349.459 2.69.365 3.877-.093 1.187-.372 2.219-.748 2.945-.376.727-.847 1.148-1.328 1.117-.24-.015-.483-.144-.717-.404-.233-.26-.458-.653-.662-1.195-.277-.723-.609-1.324-1.092-1.74-.482-.417-1.115-.649-1.998-.637h-.773c-.428 0-.771.352-.771.791v1.586c0 .439.343.793.771.793h.773v1.584c.072 1.257.182 2.247.336 3.033.154.786.351 1.369.6 1.813.249.443.548.747.904.975.357.228.772.379 1.25.52.659.239 1.182.472 1.596.746.413.274.716.589.938.99.419.759.515 1.917.527 3.605h9.91c3.089 0 5.574-2.486 5.574-5.574v-4.924l-1.193 1.59-1.783-2.377 1.783-2.377 1.193 1.59z" fill="#fec006"/><path d="m29.992 6.93h-13.816c-.058 0-.11.017-.166.023a8.320295 3.169676 0 0 0 -.269532 .298828 8.320295 3.169676 0 0 0 -.1875 .308594 8.320295 3.169676 0 0 0 -.107422 .314453 8.320295 3.169676 0 0 0 -.02539 .244141 8.320295 3.169676 0 0 0 .02539 .201172c.218-.126.464-.201.73-.201h.016 13.91v-.646c0-.193-.09-.355-.109-.543" fill="#cba42d"/><g fill="#e6e6e6"><path d="m15.525391 7.642578a8.320295 3.169676 0 0 0 -.06836 .175781 8.320295 3.169676 0 0 0 -.0039 .035156 8.320295 3.169676 0 0 1 .07227 -.210938"/><path d="M15.701172 7.318359A8.320295 3.169676 0 0 0 15.578125 7.503906 8.320295 3.169676 0 0 0 15.5625 7.544922 8.320295 3.169676 0 0 1 15.701172 7.318359"/><path d="m15.992188 6.972656a8.320295 3.169676 0 0 0 -.212891 .224609 8.320295 3.169676 0 0 0 -.02734 .041016 8.320295 3.169676 0 0 1 .240235 -.265625"/></g><path d="M29.701172 5.914063A8.320295 3.169676 0 0 0 29.53125 5.845703 8.320295 3.169676 0 0 0 28.90625 5.636719 8.320295 3.169676 0 0 0 28.22852 5.453125 8.320295 3.169676 0 0 0 27.507812 5.294922 8.320295 3.169676 0 0 0 26.748047 5.166016 8.320295 3.169676 0 0 0 26 5.070313a2.269182 1.584779 0 0 0 .0098 -.121094 2.269182 1.584779 0 0 0 -.01172 -.158203 2.269182 1.584779 0 0 0 -.0332 -.158203 2.269182 1.584779 0 0 0 -.05664 -.152344 2.269182 1.584779 0 0 0 -.07813 -.148438 2.269182 1.584779 0 0 0 -.09961 -.142578 2.269182 1.584779 0 0 0 -.117188 -.136719 2.269182 1.584779 0 0 0 -.136719 -.125A2.269182 1.584779 0 0 0 25.320312 3.8125 2.269182 1.584779 0 0 0 25.15039 3.707031 2.269182 1.584779 0 0 0 24.966797 3.615234 2.269182 1.584779 0 0 0 24.769531 3.537109 2.269182 1.584779 0 0 0 24.5625 3.470703 2.269182 1.584779 0 0 0 24.347656 3.421875 2.269182 1.584779 0 0 0 24.125 3.386719a2.269182 1.584779 0 0 0 -.224609 -.019531 2.269182 1.584779 0 0 0 -.160157 -.00391 2.269182 1.584779 0 0 0 -.226562 .00781 2.269182 1.584779 0 0 0 -.22461 .023437 2.269182 1.584779 0 0 0 -.220703 .041016 2.269182 1.584779 0 0 0 -.21289 .052734 2.269182 1.584779 0 0 0 -.203125 .070313 2.269182 1.584779 0 0 0 -.19336 .082031 2.269182 1.584779 0 0 0 -.18164 .095703A2.269182 1.584779 0 0 0 22.11133 3.84375 2.269182 1.584779 0 0 0 21.962891 3.962891 2.269182 1.584779 0 0 0 21.830078 4.091797 2.269182 1.584779 0 0 0 21.716797 4.230469 2.269182 1.584779 0 0 0 21.625 4.375a2.269182 1.584779 0 0 0 -.07227 .150391 2.269182 1.584779 0 0 0 -.04883 .154297 2.269182 1.584779 0 0 0 -.02734 .15625 2.269182 1.584779 0 0 0 -.0059 .113281 2.269182 1.584779 0 0 0 .0078 .119141 8.320295 3.169676 0 0 0 -.789063 .101563 8.320295 3.169676 0 0 0 -.757812 .130859 8.320295 3.169676 0 0 0 -.71875 .160156 8.320295 3.169676 0 0 0 -.673829 .185547 8.320295 3.169676 0 0 0 -.623046 .208984 8.320295 3.169676 0 0 0 -.564454 .232422 8.320295 3.169676 0 0 0 -.5 .253906 8.320295 3.169676 0 0 0 -.43164 .271484 8.320295 3.169676 0 0 0 -.357422 .285156 8.320295 3.169676 0 0 0 -.05078 .054687c.055-.007.106-.023.164-.023H29.992C29.956 6.567 29.801 6.253 29.701 5.914" fill="#fecd38"/><path d="m7.473 1.898c-3.089 0-5.574 2.486-5.574 5.574v17.05c0 3.089 2.486 5.574 5.574 5.574h7.145c-.012-1.689-.108-2.847-.527-3.605-.221-.401-.524-.716-.938-.99-.413-.274-.936-.507-1.596-.746-.478-.14-.893-.292-1.25-.52-.357-.228-.656-.532-.904-.975-.249-.443-.446-1.026-.6-1.813-.154-.786-.263-1.776-.336-3.033v-1.584h-.773c-.428 0-.771-.354-.771-.793v-1.586c0-.439.343-.791.771-.791h.773c.883-.013 1.516.22 1.998.637.482.417.814 1.017 1.092 1.74.204.543.429.935.662 1.195.233.26.476.389.717.404.481.031.953-.391 1.328-1.117.376-.727.655-1.759.748-2.945.093-1.187.001-2.528-.365-3.877 0-.439.172-.835.451-1.121.279-.286.666-.463 1.094-.463h-.016c-.266 0-.513.075-.73.201a8.320295 3.169676 0 0 1 -.025385 -.201172 8.320295 3.169676 0 0 1 .02539 -.244141 8.320295 3.169676 0 0 1 .0078 -.021484 8.320295 3.169676 0 0 1 .0039 -.035156 8.320295 3.169676 0 0 1 .06836 -.175781 8.320295 3.169676 0 0 1 .02734 -.082031 8.320295 3.169676 0 0 1 .0098 -.015625 8.320295 3.169676 0 0 1 .01563 -.041016 8.320295 3.169676 0 0 1 .123047 -.185547 8.320295 3.169676 0 0 1 .03906 -.066406 8.320295 3.169676 0 0 1 .01172 -.013672 8.320295 3.169676 0 0 1 .02734 -.041016 8.320295 3.169676 0 0 1 .212891 -.224609 8.320295 3.169676 0 0 1 .01758 -.019531c.001 0 .001 0 .002 0a8.320295 3.169676 0 0 1 .05078 -.054687 8.320295 3.169676 0 0 1 .357422 -.285156 8.320295 3.169676 0 0 1 .43164 -.271484 8.320295 3.169676 0 0 1 .5 -.253906 8.320295 3.169676 0 0 1 .564454 -.232422 8.320295 3.169676 0 0 1 .623046 -.208984 8.320295 3.169676 0 0 1 .673829 -.185547 8.320295 3.169676 0 0 1 .71875 -.160156 8.320295 3.169676 0 0 1 .757812 -.130859 8.320295 3.169676 0 0 1 .789063 -.101563 2.269182 1.584779 0 0 1 -.0078 -.119141 2.269182 1.584779 0 0 1 .0059 -.113281 2.269182 1.584779 0 0 1 .02734 -.15625 2.269182 1.584779 0 0 1 .04883 -.154297 2.269182 1.584779 0 0 1 .072154 -.150392 2.269182 1.584779 0 0 1 .0918 -.144531 2.269182 1.584779 0 0 1 .113281 -.138672 2.269182 1.584779 0 0 1 .132813 -.128906 2.269182 1.584779 0 0 1 .148437 -.119141 2.269182 1.584779 0 0 1 .166016 -.107422 2.269182 1.584779 0 0 1 .18164 -.095703 2.269182 1.584779 0 0 1 .19336 -.082031 2.269182 1.584779 0 0 1 .203125 -.070313 2.269182 1.584779 0 0 1 .21289 -.052734 2.269182 1.584779 0 0 1 .220703 -.041016 2.269182 1.584779 0 0 1 .22461 -.023437 2.269182 1.584779 0 0 1 .226562 -.00781 2.269182 1.584779 0 0 1 .160157 .00391 2.269182 1.584779 0 0 1 .224609 .019531 2.269182 1.584779 0 0 1 .222656 .035156 2.269182 1.584779 0 0 1 .214844 .048828 2.269182 1.584779 0 0 1 .207031 .066406 2.269182 1.584779 0 0 1 .197266 .078125 2.269182 1.584779 0 0 1 .183594 .091797 2.269182 1.584779 0 0 1 .169921 .105469 2.269182 1.584779 0 0 1 .15625 .115234 2.269182 1.584779 0 0 1 .136719 .125 2.269182 1.584779 0 0 1 .117188 .136719 2.269182 1.584779 0 0 1 .09961 .142578 2.269182 1.584779 0 0 1 .07813 .148438 2.269182 1.584779 0 0 1 .05664 .152344 2.269182 1.584779 0 0 1 .0332 .158203 2.269182 1.584779 0 0 1 .01172 .158203 2.269182 1.584779 0 0 1 -.009772 .121088 8.320295 3.169676 0 0 1 .748047 .095703 8.320295 3.169676 0 0 1 .759765 .128906 8.320295 3.169676 0 0 1 .720704 .158203 8.320295 3.169676 0 0 1 .677734 .183594 8.320295 3.169676 0 0 1 .625 .208984 8.320295 3.169676 0 0 1 .169922 .068359c-.676-2.297-2.65-4.02-5.174-4.02z" fill="#e6e6e6"/><g fill="#e82d2d"><path d="m18.211 16.439l-1.783 2.377 1.783 2.377 1.783-2.377z"/><path d="m18.211 16.439l1.783 2.377-1.783 2.377-1.783-2.377z"/><path d="m23.566 15.248l-2.377 3.566 2.377 3.566 2.379-3.566z"/><path d="m23.566 15.248l2.379 3.566-2.379 3.566-2.377-3.566z"/></g></g>

   xmlns:dc="http://purl.org/dc/elements/1.1/"
   xmlns:cc="http://creativecommons.org/ns#"
   xmlns:rdf="http://www.w3.org/1999/02/22-rdf-syntax-ns#"
   xmlns:svg="http://www.w3.org/2000/svg"
   xmlns="http://www.w3.org/2000/svg"
   xmlns:xlink="http://www.w3.org/1999/xlink"
   xmlns:sodipodi="http://sodipodi.sourceforge.net/DTD/sodipodi-0.dtd"
   xmlns:inkscape="http://www.inkscape.org/namespaces/inkscape"
   height="32"
   width="32"
   version="1"
   id="svg8"
   sodipodi:docname="snow-top-2.svg"
   inkscape:version="0.92.1 r"&gt;
  <path d="m24.646 6.111c2.995 2.684 1.381 7.817 3.674 8.291 2.031.613 3.541-1.385 3.66-4.503.35-8.627-3.911-9.427-6.879-9.524-28.342-2.047-1.762 4.92-.455 5.736" fill="url(#0)"/></svg>