<svg xmlns="http://www.w3.org/2000/svg" viewBox="0 0 32 32"><rect width="28.2" height="28.2" x="1.898" y="1.898" fill="#d2d2d2" fill-rule="evenodd" rx="5.575"/><g transform="translate(.47)" display="block"><g fill="#4d4d4d"><path transform="matrix(1 0 0 .96671 0 .008)" d="m8.5098 7.2324a.50005 .50005 0 1 0 -.00586 1l3.15.02 1.605 1.619v6.164a.50005 .50005 0 1 0 1 0v-1.24a.50005 .50005 0 0 0 0 -.03516v-5.096a.50005 .50005 0 0 0 -.147 -.3518l-1.894-1.91a.50005 .50005 0 0 0 -.352 -.1484l-3.357-.021m11.98216.013929a.50005 .50005 0 0 0 -.492 .5078v8.281a.50005 .50005 0 1 0 1 0V14.795a.50005 .50005 0 0 0 0 -.03516v-7.01a.50005 .50005 0 0 0 -.508 -.5078m-5.9902.00211a.50005 .50005 0 0 0 -.35156 .85742l1.75 1.766v4.889a.50005 .50005 0 0 0 0 .05078v1.225a.50005 .50005 0 1 0 1 0v-6.371a.50005 .50005 0 0 0 -.144 -.3524l-1.895-1.91a.50005 .50005 0 0 0 -.359 -.1543m1.99956.0009a.50005 .50005 0 0 0 -.35156 .85742l1.748 1.766v6.164a.50005 .50005 0 1 0 1 0v-1.24a.50005 .50005 0 0 0 0 -.03516v-5.096a.50005 .50005 0 0 0 -.144 -.3518l-1.895-1.91a.50005 .50005 0 0 0 -.357 -.1543"/><path transform="matrix(1 0 0 1.0965 0-1.518)" d="m13.553 18.713a.50005 .50005 0 0 0 -.49219 .50586v1.24a.50005 .50005 0 0 0 0 .03516v1.705l-.973.979h-3.58a.50005 .50005 0 1 0 0 1h3.789a.50005 .50005 0 0 0 .35547 -.14648l1.262-1.275a.50005 .50005 0 0 0 .147 -.353v-3.186A.50005 .50005 0 0 0 13.55351 18.7115m2.93899.0015a.50005 .50005 0 0 0 -.492 .506v4.459a.50005 .50005 0 1 0 1 0v-3.148a.50005 .50005 0 0 0 0 -.03516v-1.275a.50005 .50005 0 0 0 -.50781 -.50586zm2.002 0a.50005 .50005 0 0 0 -.494 .506v1.275a.50005 .50005 0 0 0 0 .05078v1.859a.50005 .50005 0 0 0 .14648 .35156l1.262 1.275a.50005 .50005 0 0 0 .35547 .14648h3.789a.50005 .50005 0 1 0 0 -1h-3.58l-.972-.978v-2.98a.50005 .50005 0 0 0 -.50586 -.50586zm2.0039 0a.50005 .50005 0 0 0 -.49219 .50586v1.195a.50005 .50005 0 0 0 .0293 .25781 .50005 .50005 0 0 0 .0098 .02344 .50005 .50005 0 0 0 .1582 .20313l1.211 1.221a.50005 .50005 0 0 0 .35547 .14844h1.262a.50005 .50005 0 1 0 0 -1h-1.055l-.971-.98v-1.068a.50005 .50005 0 0 0 -.50781 -.50586"/><path d="M7.522 9A.52208 .48694 0 0 0 7 9.4869v13.03a.52208 .48694 0 0 0 .522 .487h3.297a.52208 .48694 0 0 0 .37113 -.14455l.659-.62a.52208 .48694 0 0 0 .151 -.342v-11.166a.52208 .48694 0 0 0 -.151 -.342l-1.319-1.24a.52208 .48694 0 0 0 -.369 -.1445h-2.639"/></g><rect x="12.5" y="13.22" width="10.11" height="8.281" fill="none" stroke="#4d4d4d" stroke-linejoin="round" stroke-linecap="round" color="#000" rx="1.292"/></g><g transform="matrix(.75 0 0 .75 4.392 4.594)" stroke-width=".833" fill-rule="evenodd"><circle r="8" cy="23" cx="24" fill="#c03630"/><path d="m24 19.75c-.969.009-1.945.231-2.789.709-.337.219-.74.502-1.045.788-.479.469-.889 1.016-1.166 1.629.759 1.675 2.429 2.903 4.265 3.084 1.205.136 2.465-.072 3.524-.668.337-.219.74-.502 1.045-.788.479-.47.889-1.017 1.166-1.629-.759-1.675-2.429-2.903-4.265-3.084-.244-.029-.49-.042-.735-.042m0 1.251c1-.022 1.894.876 1.875 1.875.032 1.104-1.068 2.057-2.156 1.851-1.099-.129-1.87-1.361-1.509-2.405.231-.768.985-1.33 1.79-1.321m-.0004 1.2502a.625 .62514 0 0 0 -.625 .626 .625 .62514 0 0 0 .625 .625 .625 .62514 0 0 0 .625 -.625 .625 .62514 0 0 0 -.625 -.624" fill="#fff"/></g>

   xmlns:dc="http://purl.org/dc/elements/1.1/"
   xmlns:cc="http://creativecommons.org/ns#"
   xmlns:rdf="http://www.w3.org/1999/02/22-rdf-syntax-ns#"
   xmlns:svg="http://www.w3.org/2000/svg"
   xmlns="http://www.w3.org/2000/svg"
   xmlns:sodipodi="http://sodipodi.sourceforge.net/DTD/sodipodi-0.dtd"
   xmlns:inkscape="http://www.inkscape.org/namespaces/inkscape"
   height="32"
   width="32"
   version="1"
   id="svg8"
   sodipodi:docname="star-mime-2.svg"
   inkscape:version="0.92.1 r"&gt;
  <g transform="translate(152.47 194.05)" fill="#fff"><path d="m-125.38-193.25l-.077 3.548 3.072 1.831-3.548-.077-3.135 6.791 1.38-7.268-3.072-1.831 3.548.077z"/><path d="m-125.41-183.04l.042-1.955-1.692-1.01 1.955.042 1.727-3.741-.76 4 1.692 1.01-1.955-.042z"/></g></svg>