<svg xmlns="http://www.w3.org/2000/svg" viewBox="0 0 32 32"><g fill-rule="evenodd"><rect width="28.2" height="28.2" x="1.898" y="1.898" fill="#ffda00" rx="5.575"/><g transform="translate(83.49-20.1)"><path d="m-64.26562 32.369141a6.319634 6.319634 0 0 0 -.630859 .03125 6.319634 6.319634 0 0 0 -.623047 .09375 6.319634 6.319634 0 0 0 -.613281 .15625 6.319634 6.319634 0 0 0 -.59375 .216797 6.319634 6.319634 0 0 0 -.56836 .27539 6.319634 6.319634 0 0 0 -.539062 .330078 6.319634 6.319634 0 0 0 -.501954 .382813 6.319634 6.319634 0 0 0 -.46289 .429687 6.319634 6.319634 0 0 0 -.416016 .47461 6.319634 6.319634 0 0 0 -.367187 .513672 6.319634 6.319634 0 0 0 -.314453 .548828 6.319634 6.319634 0 0 0 -.257813 .576172 6.319634 6.319634 0 0 0 -.199219 .599609 6.319634 6.319634 0 0 0 -.138672 .617187 6.319634 6.319634 0 0 0 -.07617 .626954 6.319634 6.319634 0 0 0 -.01563 .447265 6.319634 6.319634 0 0 0 .03125 .630859 6.319634 6.319634 0 0 0 .09375 .623047 6.319634 6.319634 0 0 0 .15625 .613282 6.319634 6.319634 0 0 0 .216796 .59375 6.319634 6.319634 0 0 0 .275391 .568359 6.319634 6.319634 0 0 0 .330078 .539062 6.319634 6.319634 0 0 0 .382813 .501954 6.319634 6.319634 0 0 0 .429687 .46289 6.319634 6.319634 0 0 0 .47461 .416016 6.319634 6.319634 0 0 0 .513671 .367187 6.319634 6.319634 0 0 0 .548829 .314453 6.319634 6.319634 0 0 0 .576171 .257813 6.319634 6.319634 0 0 0 .59961 .199219 6.319634 6.319634 0 0 0 .615234 .138672 6.319634 6.319634 0 0 0 .626953 .07617 6.319634 6.319634 0 0 0 .447266 .01562 6.319634 6.319634 0 0 0 .630859 -.03125 6.319634 6.319634 0 0 0 .625 -.09375 6.319634 6.319634 0 0 0 .613282 -.15625 6.319634 6.319634 0 0 0 .591796 -.216796 6.319634 6.319634 0 0 0 .570313 -.275391 6.319634 6.319634 0 0 0 .537109 -.330078 6.319634 6.319634 0 0 0 .503907 -.382813 6.319634 6.319634 0 0 0 .460937 -.429687 6.319634 6.319634 0 0 0 .417969 -.474609 6.319634 6.319634 0 0 0 .367187 -.513672 6.319634 6.319634 0 0 0 .314454 -.548828 6.319634 6.319634 0 0 0 .257812 -.576172 6.319634 6.319634 0 0 0 .199219 -.59961 6.319634 6.319634 0 0 0 .138672 -.617187 6.319634 6.319634 0 0 0 .07617 -.626953 6.319634 6.319634 0 0 0 .01563 -.445313 6.319634 6.319634 0 0 0 -.03125 -.632812 6.319634 6.319634 0 0 0 -.0957 -.623047 6.319634 6.319634 0 0 0 -.15625 -.613282 6.319634 6.319634 0 0 0 -.214843 -.59375 6.319634 6.319634 0 0 0 -.275391 -.568359 6.319634 6.319634 0 0 0 -.330078 -.537109 6.319634 6.319634 0 0 0 -.382813 -.503906 6.319634 6.319634 0 0 0 -.429687 -.462891 6.319634 6.319634 0 0 0 -.47461 -.416016 6.319634 6.319634 0 0 0 -.513671 -.367187 6.319634 6.319634 0 0 0 -.548829 -.314453 6.319634 6.319634 0 0 0 -.576171 -.257813 6.319634 6.319634 0 0 0 -.59961 -.199219 6.319634 6.319634 0 0 0 -.617187 -.138671 6.319634 6.319634 0 0 0 -.626953 -.07617 6.319634 6.319634 0 0 0 -.447266 -.01563" fill="#ff3737"/><path d="m-81.4082 35.712891a6.319634 6.319634 0 0 0 -.0098 .267578 6.319634 6.319634 0 0 0 .03125 .630859 6.319634 6.319634 0 0 0 .09375 .625 6.319634 6.319634 0 0 0 .15625 .611328 6.319634 6.319634 0 0 0 .216797 .59375 6.319634 6.319634 0 0 0 .275391 .56836 6.319634 6.319634 0 0 0 .330078 .539062 6.319634 6.319634 0 0 0 .382812 .501953 6.319634 6.319634 0 0 0 .429688 .462891 6.319634 6.319634 0 0 0 .474609 .416016 6.319634 6.319634 0 0 0 .513672 .36914 6.319634 6.319634 0 0 0 .548828 .3125 6.319634 6.319634 0 0 0 .576172 .259766 6.319634 6.319634 0 0 0 .59961 .199218 6.319634 6.319634 0 0 0 .617187 .136719 6.319634 6.319634 0 0 0 .626953 .07617 6.319634 6.319634 0 0 0 .447266 .01563 6.319634 6.319634 0 0 0 .630859 -.03125 6.319634 6.319634 0 0 0 .623047 -.09375 6.319634 6.319634 0 0 0 .613281 -.15625 6.319634 6.319634 0 0 0 .59375 -.216797 6.319634 6.319634 0 0 0 .56836 -.27539 6.319634 6.319634 0 0 0 .537109 -.330079 6.319634 6.319634 0 0 0 .503906 -.380859 6.319634 6.319634 0 0 0 .462891 -.431641 6.319634 6.319634 0 0 0 .167969 -.191406 6.319634 6.319634 0 0 1 -.0625 -.248047 6.319634 6.319634 0 0 1 -.09375 -.623047 6.319634 6.319634 0 0 1 -.03125 -.630859 6.319634 6.319634 0 0 1 .01563 -.447265 6.319634 6.319634 0 0 1 .07617 -.626954 6.319634 6.319634 0 0 1 .138672 -.617187 6.319634 6.319634 0 0 1 .199219 -.599609 6.319634 6.319634 0 0 1 .257813 -.576172 6.319634 6.319634 0 0 1 .314453 -.548828 6.319634 6.319634 0 0 1 .367187 -.513672 6.319634 6.319634 0 0 1 .248047 -.283204 6.319634 6.319634 0 0 0 -.09375 -.363281 6.319634 6.319634 0 0 0 -.216797 -.59375 6.319634 6.319634 0 0 0 -.27539 -.568359 6.319634 6.319634 0 0 0 -.330078 -.539063 6.319634 6.319634 0 0 0 -.382813 -.503906 6.319634 6.319634 0 0 0 -.429687 -.460937 6.319634 6.319634 0 0 0 -.47461 -.417969 6.319634 6.319634 0 0 0 -.513672 -.367188 6.319634 6.319634 0 0 0 -.548828 -.314453 6.319634 6.319634 0 0 0 -.576172 -.257812 6.319634 6.319634 0 0 0 -.599609 -.199219 6.319634 6.319634 0 0 0 -.617188 -.138672 6.319634 6.319634 0 0 0 -.486328 -.05859c-.293.355-.483.721-.814 1.064-.877.909-1.858 1.767-2.775 2.514-1.772 1.442-3.203 2.374-3.307 2.441" fill="#c72828"/><g fill="#ffda00"><path d="m-63.64844 32.40625a6.319634 6.319634 0 0 1 .457032 .05469 6.319634 6.319634 0 0 1 .617187 .138671 6.319634 6.319634 0 0 1 .59961 .199219 6.319634 6.319634 0 0 1 .576171 .257813 6.319634 6.319634 0 0 1 .548829 .314453 6.319634 6.319634 0 0 1 .513671 .367187 6.319634 6.319634 0 0 1 .47461 .416016 6.319634 6.319634 0 0 1 .429687 .462891 6.319634 6.319634 0 0 1 .382813 .503906 6.319634 6.319634 0 0 1 .330078 .537109 6.319634 6.319634 0 0 1 .275391 .568359 6.319634 6.319634 0 0 1 .214843 .59375 6.319634 6.319634 0 0 1 .15625 .613282 6.319634 6.319634 0 0 1 .0957 .623047 6.319634 6.319634 0 0 1 .03125 .632812 6.319634 6.319634 0 0 1 -.01563 .445313 6.319634 6.319634 0 0 1 -.07617 .626953 6.319634 6.319634 0 0 1 -.138672 .617187 6.319634 6.319634 0 0 1 -.199219 .59961 6.319634 6.319634 0 0 1 -.257812 .576172 6.319634 6.319634 0 0 1 -.314454 .548828 6.319634 6.319634 0 0 1 -.367187 .513672 6.319634 6.319634 0 0 1 -.417969 .474609 6.319634 6.319634 0 0 1 -.460937 .429687 6.319634 6.319634 0 0 1 -.503907 .382813 6.319634 6.319634 0 0 1 -.537109 .330078 6.319634 6.319634 0 0 1 -.570313 .275391 6.319634 6.319634 0 0 1 -.591796 .216796 6.319634 6.319634 0 0 1 -.613282 .15625 6.319634 6.319634 0 0 1 -.625 .09375 6.319634 6.319634 0 0 1 -.630859 .03125 6.319634 6.319634 0 0 1 -.447266 -.01562 6.319634 6.319634 0 0 1 -.626953 -.07617 6.319634 6.319634 0 0 1 -.615234 -.138672 6.319634 6.319634 0 0 1 -.59961 -.199219 6.319634 6.319634 0 0 1 -.576171 -.257813 6.319634 6.319634 0 0 1 -.548829 -.314453 6.319634 6.319634 0 0 1 -.513671 -.367187 6.319634 6.319634 0 0 1 -.47461 -.416016 6.319634 6.319634 0 0 1 -.429687 -.46289 6.319634 6.319634 0 0 1 -.382813 -.501954 6.319634 6.319634 0 0 1 -.330078 -.539062 6.319634 6.319634 0 0 1 -.275391 -.568359 6.319634 6.319634 0 0 1 -.216796 -.59375 6.319634 6.319634 0 0 1 -.09375 -.365235 6.319634 6.319634 0 0 1 -.167969 .191406 6.319634 6.319634 0 0 1 -.462891 .431641 6.319634 6.319634 0 0 1 -.503906 .380859 6.319634 6.319634 0 0 1 -.537109 .330079 6.319634 6.319634 0 0 1 -.56836 .27539 6.319634 6.319634 0 0 1 -.59375 .216797 6.319634 6.319634 0 0 1 -.613281 .15625 6.319634 6.319634 0 0 1 -.623047 .09375 6.319634 6.319634 0 0 1 -.630859 .03125 6.319634 6.319634 0 0 1 -.447266 -.01563 6.319634 6.319634 0 0 1 -.626953 -.07617 6.319634 6.319634 0 0 1 -.617187 -.136719 6.319634 6.319634 0 0 1 -.59961 -.199218 6.319634 6.319634 0 0 1 -.576172 -.259766 6.319634 6.319634 0 0 1 -.548828 -.3125 6.319634 6.319634 0 0 1 -.513672 -.36914 6.319634 6.319634 0 0 1 -.474609 -.416016 6.319634 6.319634 0 0 1 -.429688 -.462891 6.319634 6.319634 0 0 1 -.382812 -.501953 6.319634 6.319634 0 0 1 -.330078 -.539062 6.319634 6.319634 0 0 1 -.275391 -.56836 6.319634 6.319634 0 0 1 -.216797 -.59375 6.319634 6.319634 0 0 1 -.15625 -.611328 6.319634 6.319634 0 0 1 -.09375 -.625 6.319634 6.319634 0 0 1 -.03125 -.630859 6.319634 6.319634 0 0 1 .0098 -.267578c-.004.002-.117.086-.117.086l-.068.045v8.777c0 3.089 2.486 5.576 5.574 5.576h17.05c3.089 0 5.576-2.488 5.576-5.576V27.568c0-3.089-2.488-5.574-5.576-5.574h-10.867c.012.009.01.007.021.016.835.639 1.726 1.347 2.537 2.123.811.776 1.542 1.62 2.059 2.531.537.947.902 2.056 1.164 3.203.194.849.295 1.699.404 2.539"/><path d="m-70.921875 31.24805a6.319634 6.319634 0 0 1 .226563 .199219 6.319634 6.319634 0 0 1 .429687 .460937 6.319634 6.319634 0 0 1 .382813 .503906 6.319634 6.319634 0 0 1 .330078 .539063 6.319634 6.319634 0 0 1 .27539 .568359 6.319634 6.319634 0 0 1 .216797 .59375 6.319634 6.319634 0 0 1 .09375 .363281 6.319634 6.319634 0 0 1 .167969 -.191406 6.319634 6.319634 0 0 1 .46289 -.429687 6.319634 6.319634 0 0 1 .501954 -.382813 6.319634 6.319634 0 0 1 .539062 -.330078 6.319634 6.319634 0 0 1 .56836 -.27539 6.319634 6.319634 0 0 1 .04883 -.01758c-.267-1.81-.647-3.822-1.148-4.707-.45-.794-1.855-2.026-3.148-3.1.122.485.264.948.354 1.447.173.963.262 1.938.176 2.857-.06.642-.265 1.275-.477 1.9"/><path d="m-73.54 28.424c-.304.424-.623.846-.973 1.27a6.319634 6.319634 0 0 1 .486328 .05859 6.319634 6.319634 0 0 1 .316407 .07031c.059-.218.264-.604.277-.752.012-.131-.102-.476-.107-.646"/></g><path d="m-73.54 28.424c.005.171.12.515.107.646-.014.148-.219.534-.277.752a6.319634 6.319634 0 0 1 .300781 .06836 6.319634 6.319634 0 0 1 .599609 .199219 6.319634 6.319634 0 0 1 .576172 .257812 6.319634 6.319634 0 0 1 .548828 .314453 6.319634 6.319634 0 0 1 .513672 .367188 6.319634 6.319634 0 0 1 .248047 .21875c.212-.626.417-1.258.477-1.9.086-.92-.003-1.894-.176-2.857-.09-.499-.231-.963-.354-1.447-.272-.226-.393-.446-.662-.652-.484-.371-.497-.347-.908-.637.056.445.169.85.146 1.33-.044.93-.264 1.906-.771 2.857-.087.162-.254.321-.369.482" fill="#1f711f"/><path d="m-72.54 23.754c.411.289.424.266.908.637 1.547 1.185 3.266 2.791 3.811 3.752.502.885.881 2.897 1.148 4.707a6.319634 6.319634 0 0 1 .544922 -.199218 6.319634 6.319634 0 0 1 .613281 -.15625 6.319634 6.319634 0 0 1 .623047 -.09375 6.319634 6.319634 0 0 1 .630859 -.03125 6.319634 6.319634 0 0 1 .447266 .01563 6.319634 6.319634 0 0 1 .169921 .02148c-.11-.84-.21-1.69-.404-2.539-.262-1.147-.627-2.256-1.164-3.203-.517-.911-1.247-1.755-2.059-2.531-.811-.776-1.702-1.484-2.537-2.123-.012-.009-.01-.007-.021-.016h-3.053c.091.262.127.209.205.514.094.369.085.829.137 1.246" fill="#248424"/><path d="m-81.59 35.844l.068-.045c0 0 1.59-1.034 3.424-2.527.917-.747 1.899-1.604 2.775-2.514.877-.909 1.651-1.87 2.156-2.816.508-.951.727-1.928.771-2.857.044-.93-.088-1.812-.283-2.576-.078-.304-.114-.252-.205-.514h-2.043-1.09c-3.089 0-5.574 2.486-5.574 5.574z" fill="#32b632"/></g></g>

   xmlns:dc="http://purl.org/dc/elements/1.1/"
   xmlns:cc="http://creativecommons.org/ns#"
   xmlns:rdf="http://www.w3.org/1999/02/22-rdf-syntax-ns#"
   xmlns:svg="http://www.w3.org/2000/svg"
   xmlns="http://www.w3.org/2000/svg"
   xmlns:sodipodi="http://sodipodi.sourceforge.net/DTD/sodipodi-0.dtd"
   xmlns:inkscape="http://www.inkscape.org/namespaces/inkscape"
   height="32"
   width="32"
   version="1"
   id="svg8"
   sodipodi:docname="star-mime-2.svg"
   inkscape:version="0.92.1 r"&gt;
  <g transform="translate(152.47 194.05)" fill="#fff"><path d="m-125.38-193.25l-.077 3.548 3.072 1.831-3.548-.077-3.135 6.791 1.38-7.268-3.072-1.831 3.548.077z"/><path d="m-125.41-183.04l.042-1.955-1.692-1.01 1.955.042 1.727-3.741-.76 4 1.692 1.01-1.955-.042z"/></g></svg>