<svg xmlns="http://www.w3.org/2000/svg" viewBox="0 0 32 32" xmlns:xlink="http://www.w3.org/1999/xlink"><defs><linearGradient gradientTransform="matrix(-2.54182 0 0 2.58531 185.47-277.37)" id="1" x1="67.894" y1="108.69" x2="67.854" y2="113.11" gradientUnits="userSpaceOnUse"><stop stop-color="#f9f9f9"/><stop offset="1" stop-color="#999"/></linearGradient></defs><rect width="28.2" height="28.2" x="1.898" y="1.898" fill="#4bae4f" fill-rule="evenodd" rx="5.575"/><path d="m24.299 24.532c-.273-.09-.57-.272-.739-.454-.097-.105-.177-.204-.178-.222-.001-.018.257-.178.573-.356.316-.178.62-.35.676-.382.056-.032.366-.209.689-.394l.587-.336.088.189c.123.263.116.754-.014 1.101-.115.307-.367.57-.721.75-.235.12-.745.175-.96.104m-1.296-1.346c-.141-.24-.634-1.096-.785-1.364-.071-.126-.259-.448-.418-.714-.418-.703-.638-1.115-.61-1.142.013-.013.46-.275.993-.581.533-.306 1.088-.628 1.235-.715l.266-.159.275.47c.151.258.374.642.494.852.12.21.338.589.484.842.626 1.082.694 1.213.654 1.25-.036.034-.635.385-1.241.727-.098.056-.413.236-.699.401-.286.165-.527.3-.536.3-.009 0-.059-.075-.113-.166m-4.207-3.569c-2.01-.126-3.737-1.245-4.783-3.101-.171-.303-.42-.973-.541-1.454-.165-.656-.163-1.981.003-2.647.289-1.161.79-2.049 1.611-2.862.857-.848 1.773-1.344 2.934-1.585 3.038-.632 6.01 1.138 6.888 4.108.61 2.053.039 4.305-1.475 5.82-1.067 1.068-2.318 1.63-3.879 1.745-.098.007-.44-.003-.759-.023m1.677-1.094c2.692-.683 4.307-3.514 3.512-6.158-.457-1.52-1.522-2.673-2.995-3.241-1.278-.493-2.908-.39-4.076.259-.493.274-.731.453-1.134.855-.577.575-.856.99-1.13 1.68-.739 1.86-.274 3.993 1.171 5.373 1.276 1.219 2.953 1.663 4.653 1.232" fill="#fff"/><g fill="#c6fbcf"><text x="15.448" y="16.8" font-family="sans-serif" word-spacing="0" line-height="1.25" letter-spacing="0" font-size="9.01"><tspan x="15.448" y="16.8">G</tspan></text><path d="m6.153 14.05c-.318-.198-.313-.865.008-1.057.097-.058.634-.071 2.899-.071h2.78l-.023.118c-.013.065-.041.306-.063.536-.022.23-.046.448-.053.483-.019.099-5.389.091-5.548-.008m-.038-2.756c-.109-.076-.198-.318-.198-.541 0-.15.028-.233.124-.371l.124-.178h3.271c1.799 0 3.271.016 3.271.035 0 .019-.073.19-.161.379-.089.189-.19.432-.226.54l-.064.196-3.03-.003c-1.96-.002-3.059-.022-3.108-.056m.035-2.709c-.134-.078-.233-.31-.233-.547 0-.278.152-.522.356-.57.198-.047 9.21-.041 9.209.006 0 .022-.119.093-.265.159-.307.139-.809.494-1.125.794l-.221.21-3.822-.003c-2.102-.002-3.856-.023-3.899-.048"/></g>

   xmlns:dc="http://purl.org/dc/elements/1.1/"
   xmlns:cc="http://creativecommons.org/ns#"
   xmlns:rdf="http://www.w3.org/1999/02/22-rdf-syntax-ns#"
   xmlns:svg="http://www.w3.org/2000/svg"
   xmlns="http://www.w3.org/2000/svg"
   xmlns:xlink="http://www.w3.org/1999/xlink"
   xmlns:sodipodi="http://sodipodi.sourceforge.net/DTD/sodipodi-0.dtd"
   xmlns:inkscape="http://www.inkscape.org/namespaces/inkscape"
   height="32"
   width="32"
   version="1"
   id="svg8"
   sodipodi:docname="snow-top-3.svg"
   inkscape:version="0.92.1 r"&gt;
  <path fill="#00000f" fill-opacity="0" d="m0 0h32v32h-32z" id="0"/><path d="m7.354 6.111c-2.995 2.684-1.381 7.817-3.674 8.291-2.031.613-3.541-1.385-3.66-4.503-.35-8.627 3.911-9.427 6.879-9.524 28.342-2.047 1.762 4.92.455 5.736" fill="url(#1)"/><use xlink:href="#0"/></svg>