<svg xmlns="http://www.w3.org/2000/svg" viewBox="0 0 32 32.000001"><defs><linearGradient gradientTransform="matrix(2.54182 0 0 2.58531-153.47-277.37)" id="0" x1="67.894" y1="108.69" x2="67.854" y2="113.11" gradientUnits="userSpaceOnUse"><stop stop-color="#f9f9f9"/><stop offset="1" stop-color="#999"/></linearGradient></defs><rect width="28.2" height="28.2" x="1.898" y="1.898" fill="#e6e6e6" fill-rule="evenodd" rx="5.575"/><g transform="matrix(.04767 0 0 .04767 50.11 11.568)" stroke-width="20.977"><g transform="translate(-467.4 65.761)"><g transform="translate(.963-1.088)" stroke-width="20.977"><g transform="translate(481 111)"><path d="m-880.59-235.06c46.34 130.52 244.57 104.82 309.71-23.335 59.33 342.95-172.68 366.18-324.56 258.8 6.441-73.12 17.05-131.24 14.849-235.47" fill="#5c5544"/><g transform="matrix(.85604 0 0 .85604-717.75-97.23)" stroke-width="24.505" fill-rule="evenodd"><circle r="59.04" cy="-16.08" cx="-139.3" fill="#888a85"/><circle r="46.669" cy="-16.437" cx="-139.65" fill="#e1e1dd"/><circle r="31.11" cy="-5.83" cx="-128.34"/><circle r="21.06" cy="-6.02" cx="-128.53" fill="#2e3436"/><circle r="14.849" cy="-18.558" cx="-141.42" fill="#fff"/></g><g transform="translate(-602-90.5)" stroke-width="20.977" fill-rule="evenodd"><circle r="59.04" cy="-16.08" cx="-139.3" fill="#888a85"/><circle r="46.669" cy="-16.437" cx="-139.65" fill="#e1e1dd"/><circle r="31.11" cy="-5.83" cx="-128.34"/><circle r="21.06" cy="-6.02" cx="-128.53" fill="#2e3436"/><circle r="14.849" cy="-18.558" cx="-141.42" fill="#fff"/></g></g><g transform="translate(-120 29)" fill-rule="evenodd"><ellipse cx="-266.44" cy="-183.2" rx="51" ry="73" transform="matrix(.79684-.60419.60419.79684 0 0)" fill="#2a3032"/><ellipse cx="-348" cy="-9.75" rx="20" ry="26.25" fill="#fff"/></g></g><path d="m-316.08 99.18c42.34 4.108 85.1 6.207 117.3-20.11-4.01-6.01-9.815-9.862-15.828-14.535 24.972 5.398 44.25 19.15 41.01 43.487l-16.263-9.899c-66.4 30.06-100.51 6.48-126.22 1.061" fill="#010100"/></g><g transform="translate(-499.89 109.5)"><path d="m-193.29 67.57c34.3 25.431 69.55 45.587 107.19 59.03l14.14-33.23c-32.413-16.887-65.45-32.935-101.82-44.548-14 1.179-18.12 7.617-19.506 18.756" fill="#673907"/><path d="m-188 56c25.809 23.322 63.19 42.562 100 62l9.75-20.5c-41.88-19.461-78.54-33.373-109.75-41.5" fill="#bd680e"/><path d="m-90.5 131.25c-3.195-17.454 3.196-31.712 20-42.5l3.25 9.5 41.5 25.75-13.5 20.5-43.75-17z" fill="#888a85"/><path d="m-82 118.25l50.25 21 4.75-12.25-45-24.25" fill="#d8d8d8"/><path d="m-37.925 126.52c-2.873 3.208-4.516 5.332-5.395 8.453-11.08 39.37 30.13 42.866 72.57 63.782-2.776-36.751-34.622-100.63-67.18-72.23" fill="#242424"/><circle cx="-21.21" cy="136.12" r="12.198" fill="#a9a9a9" fill-rule="evenodd"/><path d="m9.369 170.33c-4.468-8.658-8.947-17.283-15.03-21.567-3.654-4.328 2.98-7.448 5.127-4.243 5.04 6.549 7.372 16.293 9.899 25.809" fill="#696969"/></g></g>

   xmlns:dc="http://purl.org/dc/elements/1.1/"
   xmlns:cc="http://creativecommons.org/ns#"
   xmlns:rdf="http://www.w3.org/1999/02/22-rdf-syntax-ns#"
   xmlns:svg="http://www.w3.org/2000/svg"
   xmlns="http://www.w3.org/2000/svg"
   xmlns:xlink="http://www.w3.org/1999/xlink"
   xmlns:sodipodi="http://sodipodi.sourceforge.net/DTD/sodipodi-0.dtd"
   xmlns:inkscape="http://www.inkscape.org/namespaces/inkscape"
   height="32"
   width="32"
   version="1"
   id="svg8"
   sodipodi:docname="snow-top-2.svg"
   inkscape:version="0.92.1 r"&gt;
  <path d="m24.646 6.111c2.995 2.684 1.381 7.817 3.674 8.291 2.031.613 3.541-1.385 3.66-4.503.35-8.627-3.911-9.427-6.879-9.524-28.342-2.047-1.762 4.92-.455 5.736" fill="url(#0)"/></svg>