<svg xmlns="http://www.w3.org/2000/svg" viewBox="0 0 32 32"><rect width="28.2" height="28.2" x="1.898" y="1.898" opacity=".98" fill="#4f4f4f" fill-rule="evenodd" rx="5.575"/><path d="m23.311 9.121c-.426-.02-1.627.073-3.503 1.378-2.01-.606-4.166-.7-6.577 0-1.877-1.305-2.836-1.397-3.262-1.376-.142.007-.211.028-.211.028-.714 1.851-.262 3.22-.127 3.56-.838.94-1.351 2.14-1.351 3.608 0 5.154 3.06 6.308 5.97 6.647-.374.336-.713.931-.832 1.8-.747.344-2.646.937-3.815-1.118 0 0-.691-1.292-2.01-1.387 0 0-1.279-.016-.089.818 0 0 .859.414 1.455 1.968 0 0 .769 2.616 4.414 1.803.006.989.013 1.628.015 2.02.86.166 1.734.251 2.61.253 1.318-.003 2.629-.193 3.893-.564.003-.626.012-1.593.012-3.107 0-1.254-.417-2.075-.887-2.491 2.919-.333 5.982-1.471 5.982-6.638 0-1.468-.508-2.669-1.348-3.608.134-.34.585-1.709-.13-3.56 0 0-.069-.023-.211-.03" fill="#fff"/>

   xmlns:dc="http://purl.org/dc/elements/1.1/"
   xmlns:cc="http://creativecommons.org/ns#"
   xmlns:rdf="http://www.w3.org/1999/02/22-rdf-syntax-ns#"
   xmlns:svg="http://www.w3.org/2000/svg"
   xmlns="http://www.w3.org/2000/svg"
   xmlns:sodipodi="http://sodipodi.sourceforge.net/DTD/sodipodi-0.dtd"
   xmlns:inkscape="http://www.inkscape.org/namespaces/inkscape"
   height="32"
   width="32"
   version="1"
   id="svg8"
   sodipodi:docname="star-mime-2.svg"
   inkscape:version="0.92.1 r"&gt;
  <g transform="translate(152.47 194.05)" fill="#fff"><path d="m-125.38-193.25l-.077 3.548 3.072 1.831-3.548-.077-3.135 6.791 1.38-7.268-3.072-1.831 3.548.077z"/><path d="m-125.41-183.04l.042-1.955-1.692-1.01 1.955.042 1.727-3.741-.76 4 1.692 1.01-1.955-.042z"/></g></svg>