<svg xmlns="http://www.w3.org/2000/svg" viewBox="0 0 32 32"><defs><linearGradient gradientTransform="matrix(2.59244 0 0 2.58531-157.93-277.73)" id="0" x1="67.894" y1="108.69" x2="67.854" y2="113.11" gradientUnits="userSpaceOnUse"><stop stop-color="#f9f9f9"/><stop offset="1" stop-color="#999"/></linearGradient></defs><rect width="28.2" height="28.2" x="1.898" y="1.898" fill="#4f4f4f" fill-rule="evenodd" rx="5.575"/><path d="m10.481 10.163c-1.733 1.528-2.829 3.759-2.829 6.262 0 3.381 1.993 6.273 4.87 7.588v.065h.135c.402.175.825.31 1.257.421v1.417a9.739642 9.74057 0 0 1 -7.652576 -9.491049 9.739642 9.74057 0 0 1 .410363 -2.782755h-1.439a11.13102 11.131947 0 0 0 -.362779 2.782755 11.13102 11.131947 0 0 0 10.435331 11.10598v-4.916c.24.038.478.067.711.072.241-.01.461-.039.681-.068v4.903a11.13102 11.131947 0 0 0 10.435331 -11.0967 11.13102 11.131947 0 0 0 -.368252 -2.782755h-1.438a9.739642 9.74057 0 0 1 .414427 2.783034 9.739642 9.74057 0 0 1 -7.652576 9.501253v-1.427c.432-.111.855-.246 1.257-.421h.135v-.065c2.876-1.315 4.87-4.207 4.87-7.588 0-2.503-1.096-4.734-2.829-6.262h-2.492c2.327 1.123 3.93 3.495 3.93 6.262 0 2.584-1.398 4.825-3.478 6.03v-.902c.481-.464.508-1.165.016-1.695l-.274-.295.094-.541c.139-.805.472-1.411.963-1.753.222-.154.447-.331.5-.394.119-.141.125-.848.011-1.254-.313-1.115-1.952-3.49-3.162-4.581-.687-.62-1.226-.901-1.746-.87-.312.019-.617.151-.944.391-.437.32-1.558 1.497-2.088 2.193-1.132 1.487-1.718 2.689-1.718 3.524 0 .553.05.642.529.961.53.352.836.868.997 1.681l.128.65-.201.181c-.331.298-.469.633-.429 1.038.027.279.17.554.368.762v.904c-2.08-1.2-3.478-3.442-3.478-6.03 0-2.766 1.602-5.139 3.93-6.262h-2.492m3.432111 9.739793a.695689 .695754 0 0 1 .695688 .695689 .695689 .695754 0 0 1 -.695688 .695688 .695689 .695754 0 0 1 -.695689 -.695688 .695689 .695754 0 0 1 .695689 -.695689m4.174132 0a.695689 .695754 0 0 1 .695689 .695754 .695689 .695754 0 0 1 -.695689 .695753 .695689 .695754 0 0 1 -.695689 -.695688 .695689 .695754 0 0 1 .695689 -.695689" fill="#3fb2ab" stroke-width=".928"/>

   xmlns:dc="http://purl.org/dc/elements/1.1/"
   xmlns:cc="http://creativecommons.org/ns#"
   xmlns:rdf="http://www.w3.org/1999/02/22-rdf-syntax-ns#"
   xmlns:svg="http://www.w3.org/2000/svg"
   xmlns="http://www.w3.org/2000/svg"
   xmlns:xlink="http://www.w3.org/1999/xlink"
   xmlns:sodipodi="http://sodipodi.sourceforge.net/DTD/sodipodi-0.dtd"
   xmlns:inkscape="http://www.inkscape.org/namespaces/inkscape"
   version="1"
   width="32"
   height="32"
   id="svg12"
   sodipodi:docname="snow-top-4.svg"
   inkscape:version="0.92.1 r"&gt;
  <path d="m7.196.009c-8.161-.339-9.231 9.523-3.968 9.505.669.003 1.581-.197 2.929-1.471 3.773-4.147 9.01 4.479 14.696-1.042.61-.911 1.804-1.135 2.455-.627 1.045.677 2.87 2.991 3.88 3 2.359.513 4.095-.198 4.816-3.188.185-3.165-2.303-6.286-6.281-6.17-5.832.133-12.809-.045-18.527-.01" fill="url(#0)"/></svg>