<svg xmlns="http://www.w3.org/2000/svg" xmlns:xlink="http://www.w3.org/1999/xlink" viewBox="0 0 32 32"><defs><linearGradient gradientTransform="matrix(-2.54182 0 0 2.58531 185.47-277.37)" id="1" x1="67.894" y1="108.69" x2="67.854" y2="113.11" gradientUnits="userSpaceOnUse"><stop stop-color="#f9f9f9"/><stop offset="1" stop-color="#999"/></linearGradient></defs><path d="m1.898 24.527c0 3.089 2.486 5.574 5.574 5.574h17.05c3.089 0 5.574-2.486 5.574-5.574v-16.734l-9.504 9.508-.07-2.537-2.744-.115.057-2.629-2.844-.092 9.992-9.936c-.16-.014-.297-.094-.461-.094h-17.05c-3.089 0-5.574 2.486-5.574 5.574z" fill="#2d8d7b" fill-rule="evenodd"/><rect width="18.688" height="18.25" x="6.656" y="6.875" fill="#ccc" rx="4.69"/><rect width="12.188" height="2.135" x="9.906" y="19.995" fill="#999" rx="1.067"/><g fill-rule="evenodd"><path d="m24.988 1.992l-9.992 9.936 2.844.092-.057 2.629 2.744.115.07 2.537 9.504-9.508v-.32c0-2.925-2.254-5.236-5.113-5.48" fill="#fda002"/><path d="m24.936 12.961l-4.338 4.338 4.338-4.336a9.500758 9.500758 0 0 0 0 -.002" fill="#fff"/></g><rect width="7" height="7.438" x="9.904" y="10.14" fill="#999" rx="2.427"/><g fill-rule="evenodd"><path d="m14.998 11.926l2.842.094-.057 2.629 2.742.115.072 2.535 4.338-4.338a9.500758 9.500758 0 0 0 -5.179694 -5.763673" fill="#fda002"/><path d="m12.539 19.93l8.06-2.629v-.002l-.072-2.535-2.742-.115.057-2.629-2.842-.094-.002.002z" fill="#fff"/></g><path d="m12.539 19.929l3.02-.984-2.097-2.033"/>

   xmlns:dc="http://purl.org/dc/elements/1.1/"
   xmlns:cc="http://creativecommons.org/ns#"
   xmlns:rdf="http://www.w3.org/1999/02/22-rdf-syntax-ns#"
   xmlns:svg="http://www.w3.org/2000/svg"
   xmlns="http://www.w3.org/2000/svg"
   xmlns:xlink="http://www.w3.org/1999/xlink"
   xmlns:sodipodi="http://sodipodi.sourceforge.net/DTD/sodipodi-0.dtd"
   xmlns:inkscape="http://www.inkscape.org/namespaces/inkscape"
   height="32"
   width="32"
   version="1"
   id="svg8"
   sodipodi:docname="snow-top-3.svg"
   inkscape:version="0.92.1 r"&gt;
  <path fill="#00000f" fill-opacity="0" d="m0 0h32v32h-32z" id="0"/><path d="m7.354 6.111c-2.995 2.684-1.381 7.817-3.674 8.291-2.031.613-3.541-1.385-3.66-4.503-.35-8.627 3.911-9.427 6.879-9.524 28.342-2.047 1.762 4.92.455 5.736" fill="url(#1)"/><use xlink:href="#0"/></svg>