<svg xmlns="http://www.w3.org/2000/svg" viewBox="0 0 32 32"><defs><linearGradient gradientTransform="matrix(-2.65552 0 0 2.58531 193.77-277.73)" id="0" x1="67.894" y1="108.69" x2="67.854" y2="113.11" gradientUnits="userSpaceOnUse"><stop stop-color="#f9f9f9"/><stop offset="1" stop-color="#999"/></linearGradient></defs><rect width="28.2" height="28.2" x="1.898" y="1.898" fill="#178528" fill-rule="evenodd" rx="5.575"/><g transform="matrix(1.10229 0 0 1.15717-2.459-2.916)" fill="#fff" stroke-width="1.226"><path d="m16.746 8.582c2.031 0 3.678 1.647 3.678 3.678 0 2.031-1.647 3.678-3.678 3.678-2.031 0-3.678-1.647-3.678-3.678 0-2.031 1.647-3.678 3.678-3.678"/><path d="m16.746 17.982c7.356-.004 7.356 4.904 7.356 4.904v1.225h-14.712v-1.225c0 0 0-4.901 7.356-4.905"/></g><path d="m26.25433 16.400887a3.433536 3.433536 0 0 0 -3.433536 -3.433537 3.433536 3.433536 0 0 0 -3.433536 3.433537 3.433536 3.433536 0 0 0 2.14596 3.18038v1.97h-1.288v2.146h1.288v1.288h2.575v-5.403a3.433536 3.433536 0 0 0 2.14596 -3.181218m-2.14596 0a1.287576 1.287576 0 0 1 -1.287576 1.287576 1.287576 1.287576 0 0 1 -1.287576 -1.287576 1.287576 1.287576 0 0 1 1.287576 -1.287576 1.287576 1.287576 0 0 1 1.287576 1.287576" fill="#005400" stroke-width=".429"/>

   xmlns:dc="http://purl.org/dc/elements/1.1/"
   xmlns:cc="http://creativecommons.org/ns#"
   xmlns:rdf="http://www.w3.org/1999/02/22-rdf-syntax-ns#"
   xmlns:svg="http://www.w3.org/2000/svg"
   xmlns="http://www.w3.org/2000/svg"
   xmlns:xlink="http://www.w3.org/1999/xlink"
   xmlns:sodipodi="http://sodipodi.sourceforge.net/DTD/sodipodi-0.dtd"
   xmlns:inkscape="http://www.inkscape.org/namespaces/inkscape"
   version="1"
   width="32"
   height="32"
   id="svg12"
   sodipodi:docname="snow-top-3.svg"
   inkscape:version="0.92.1 r"&gt;
  <path d="m24.627.009c8.36-.339 9.455 9.523 4.064 9.505-.686.003-1.62-.197-3-1.471-14.665-10.216-14.549 2.967-17.708.875-1.727-1.822-1.743 4.653-4.139 5.127-2.122.613-3.699-1.385-3.824-4.503-.366-8.627 4.086-9.427 7.187-9.524 5.974.133 11.562-.045 17.419-.01" fill="url(#0)"/></svg>