<svg xmlns="http://www.w3.org/2000/svg" viewBox="0 0 32 32"><defs><linearGradient gradientTransform="matrix(2.59244 0 0 2.58531-157.93-277.73)" id="0" x1="67.894" y1="108.69" x2="67.854" y2="113.11" gradientUnits="userSpaceOnUse"><stop stop-color="#f9f9f9"/><stop offset="1" stop-color="#999"/></linearGradient></defs><g transform="translate(16.14-13.559)"><rect y="15.458" x="-14.237" height="28.2" width="28.2" fill="#178528" fill-rule="evenodd" rx="5.575"/><g transform="matrix(1.10229 0 0 1.15717-18.594 10.644)" fill="#fff" stroke-width="1.226"><path d="m16.746 8.582c2.031 0 3.678 1.647 3.678 3.678 0 2.031-1.647 3.678-3.678 3.678-2.031 0-3.678-1.647-3.678-3.678 0-2.031 1.647-3.678 3.678-3.678"/><path d="m16.746 17.982c7.356-.004 7.356 4.904 7.356 4.904v1.225h-14.712v-1.225c0 0 0-4.901 7.356-4.905"/></g><path d="m10.118736 29.960209a3.433536 3.433536 0 0 0 -3.433536 -3.433537 3.433536 3.433536 0 0 0 -3.433536 3.433537 3.433536 3.433536 0 0 0 2.14596 3.18038v1.97h-1.288v2.146h1.288v1.288h2.575v-5.403a3.433536 3.433536 0 0 0 2.14596 -3.181218m-2.14596 0a1.287576 1.287576 0 0 1 -1.287576 1.287576 1.287576 1.287576 0 0 1 -1.287576 -1.287576 1.287576 1.287576 0 0 1 1.287576 -1.287576 1.287576 1.287576 0 0 1 1.287576 1.287576" fill="#005400" stroke-width=".429"/></g>

   xmlns:dc="http://purl.org/dc/elements/1.1/"
   xmlns:cc="http://creativecommons.org/ns#"
   xmlns:rdf="http://www.w3.org/1999/02/22-rdf-syntax-ns#"
   xmlns:svg="http://www.w3.org/2000/svg"
   xmlns="http://www.w3.org/2000/svg"
   xmlns:xlink="http://www.w3.org/1999/xlink"
   xmlns:sodipodi="http://sodipodi.sourceforge.net/DTD/sodipodi-0.dtd"
   xmlns:inkscape="http://www.inkscape.org/namespaces/inkscape"
   version="1"
   width="32"
   height="32"
   id="svg12"
   sodipodi:docname="snow-top-4.svg"
   inkscape:version="0.92.1 r"&gt;
  <path d="m7.196.009c-8.161-.339-9.231 9.523-3.968 9.505.669.003 1.581-.197 2.929-1.471 3.773-4.147 9.01 4.479 14.696-1.042.61-.911 1.804-1.135 2.455-.627 1.045.677 2.87 2.991 3.88 3 2.359.513 4.095-.198 4.816-3.188.185-3.165-2.303-6.286-6.281-6.17-5.832.133-12.809-.045-18.527-.01" fill="url(#0)"/></svg>