<svg xmlns="http://www.w3.org/2000/svg" viewBox="0 0 32 32"><defs><linearGradient gradientTransform="matrix(2.62891 0 0 2.71269-160.16-291.42)" id="0" x1="67.894" y1="108.69" x2="67.854" y2="113.11" gradientUnits="userSpaceOnUse"><stop stop-color="#f9f9f9"/><stop offset="1" stop-color="#999"/></linearGradient></defs><rect width="28.2" height="28.2" x="1.898" y="1.898" fill="#ccc" fill-rule="evenodd" rx="5.575"/><g transform="matrix(.68362 0 0 .68362 5.061 4.72)" fill="#d54b3d"><path d="m3.744 6c-.85 0-1.547.606-1.709 1.387 0 .001 0 .001 0 .002-.03.231-.031.408-.031.408v17.455c0 .96.772 1.759 1.742 1.748h2.258v-19.2c0-.117-.012-.224-.035-.319-.116-.5-.708-1.063-1.312-1.479z"/><path d="m27.654 6c-.837.239-1.673.962-1.654 1.748v19.252h2.215c1.01 0 1.785-.78 1.785-1.723v-17.543c0-.965-.8-1.734-1.75-1.734"/><path d="m28.05 6c-.451-.005-.89.125-1.246.4l-10.801 8.1-10.801-8.1c-2.023-1.543-4.399 1.769-2.398 3.199l12 9c.711.532 1.688.532 2.398 0l11.393-8.545.607-.455c1.484-1.061.772-3.576-1.152-3.6" fill-rule="evenodd"/></g>

   xmlns:dc="http://purl.org/dc/elements/1.1/"
   xmlns:cc="http://creativecommons.org/ns#"
   xmlns:rdf="http://www.w3.org/1999/02/22-rdf-syntax-ns#"
   xmlns:svg="http://www.w3.org/2000/svg"
   xmlns="http://www.w3.org/2000/svg"
   xmlns:xlink="http://www.w3.org/1999/xlink"
   xmlns:sodipodi="http://sodipodi.sourceforge.net/DTD/sodipodi-0.dtd"
   xmlns:inkscape="http://www.inkscape.org/namespaces/inkscape"
   version="1"
   width="32"
   height="32"
   id="svg12"
   sodipodi:docname="snow-top-1.svg"
   inkscape:version="0.92.1 r"&gt;
  <path d="m7.288.009c-8.276-.356-9.36 9.992-4.02 9.973.679.003 1.604-.207 2.97-1.543 7.256-10.531 14.706 3.573 17.53.919 1.71-1.912 3.496-.418 4.448.115 2.1.643 3.662.041 3.785-3.231.188-3.321-1.889-6.344-5.923-6.223-5.914.14-12.989-.047-18.787-.01" fill="url(#0)"/><path fill="#f00" fill-opacity="0" d="m0 0h32v32h-32z"/></svg>