<svg xmlns="http://www.w3.org/2000/svg" xmlns:xlink="http://www.w3.org/1999/xlink" viewBox="0 0 32 32"><defs><linearGradient gradientTransform="matrix(-2.54182 0 0 2.58531 185.47-277.37)" id="1" x1="67.894" y1="108.69" x2="67.854" y2="113.11" gradientUnits="userSpaceOnUse"><stop stop-color="#f9f9f9"/><stop offset="1" stop-color="#999"/></linearGradient></defs><rect width="28.2" height="28.2" x="1.898" y="1.898" fill="#ac1500" fill-rule="evenodd" rx="5.575"/><path d="m19.526 26.01c-.925-.421-2.28-1.145-3.45-1.844-.734-.438-.822-.474-1.269-.511-.713-.059-1.154-.17-1.648-.417-.416-.207-.741-.442-1.094-.791-1.042-1.03-1.712-2.638-1.985-4.768-.092-.717-.136-2.02-.093-2.769.14-2.455.916-4.587 2.133-5.857.695-.726 1.346-1.107 2.241-1.311.695-.158 1.686-.109 2.346.118 1.769.607 2.872 2.263 3.338 5.01.139.817.181 1.413.181 2.547 0 2.48-.328 4.259-1.025 5.553-.261.486-.687.993-.994 1.184-.161.1-.198.161-.198.325 0 .082.02.176.045.208.053.07 1.056.476 2.158.875.427.155.789.292.805.306-.236.91-.627 1.588-1.491 2.137m-4.05-5.193c.674-.218 1.07-1.231 1.276-3.264.074-.733.063-3.669-.017-4.36-.12-1.04-.277-1.644-.551-2.124-.174-.304-.303-.441-.541-.571-.119-.065-.202-.079-.47-.078-1.477.452-1.66 2.496-1.756 3.648-.059.761-.023 3.25.055 3.882.157 1.262.422 2.073.821 2.509.342.374.749.497 1.183.357m6.289-7.29c0-.01.122-.387.272-.84.552-1.67.971-3.237 1.175-4.399.042-.238.087-.443.1-.455.013-.011.471-.057 1.018-.1.546-.044 1.095-.089 1.219-.1.143-.013.226-.007.226.016 0 .094-.507 1.45-.731 1.958-.337.761-.796 1.699-1.177 2.402-.399.736-.704 1.268-.762 1.329-.047.049-.194.082-.601.135-.548.071-.738.085-.738.054" fill="#fff"/>

   xmlns:dc="http://purl.org/dc/elements/1.1/"
   xmlns:cc="http://creativecommons.org/ns#"
   xmlns:rdf="http://www.w3.org/1999/02/22-rdf-syntax-ns#"
   xmlns:svg="http://www.w3.org/2000/svg"
   xmlns="http://www.w3.org/2000/svg"
   xmlns:xlink="http://www.w3.org/1999/xlink"
   xmlns:sodipodi="http://sodipodi.sourceforge.net/DTD/sodipodi-0.dtd"
   xmlns:inkscape="http://www.inkscape.org/namespaces/inkscape"
   height="32"
   width="32"
   version="1"
   id="svg8"
   sodipodi:docname="snow-top-3.svg"
   inkscape:version="0.92.1 r"&gt;
  <path fill="#00000f" fill-opacity="0" d="m0 0h32v32h-32z" id="0"/><path d="m7.354 6.111c-2.995 2.684-1.381 7.817-3.674 8.291-2.031.613-3.541-1.385-3.66-4.503-.35-8.627 3.911-9.427 6.879-9.524 28.342-2.047 1.762 4.92.455 5.736" fill="url(#1)"/><use xlink:href="#0"/></svg>