<svg xmlns="http://www.w3.org/2000/svg" viewBox="0 0 32 32"><rect width="28.2" height="28.2" x="1.898" y="1.898" fill="#3465a4" fill-rule="evenodd" rx="5.575"/><g transform="translate(54.855-.748)" fill="#fff"><path d="m-46.35 13.248c0 0-.479-.01-.974.24-.494.247-1.026.843-1.026 1.76h1c0-1 1-1 1-1 0 0 1 0 1 1 0 .375-.127.657-.362.957-.235.3-.583.596-.958.908-.375.312-.777.642-1.105 1.06-.327.418-.575.949-.575 1.574v.5h4v-1h-2.909c.061-.157.152-.305.271-.457.235-.3.582-.596.957-.908.375-.312.777-.642 1.105-1.06.327-.418.575-.949.575-1.574 0-.917-.532-1.513-1.026-1.76-.494-.247-.974-.24-.974-.24" fill-rule="evenodd"/><path d="m-41.35 13.248c-1.099 0-2 .901-2 2v3c0 1.099.901 2 2 2 1.099 0 2-.901 2-2v-3c0-1.099-.901-2-2-2m0 1c.563 0 1 .437 1 1v3c0 .563-.437 1-1 1-.563 0-1-.437-1-1v-3c0-.563.437-1 1-1"/><path d="m-37.35 13.248v3h2v-3h1v7h-1v-3h-3v-4h1" fill-rule="evenodd"/><path d="m-31.355 13.248c-1.099 0-2 .901-2 2 0 .599.273 1.133.694 1.5-.421.367-.694.901-.694 1.5 0 1.099.901 2 2 2 1.099 0 2-.901 2-2 0-.599-.273-1.133-.694-1.5.421-.367.694-.901.694-1.5 0-1.099-.901-2-2-2m0 1c.563 0 1 .437 1 1 0 .563-.437 1-1 1-.563 0-1-.437-1-1 0-.563.437-1 1-1m0 3c.563 0 1 .437 1 1 0 .563-.437 1-1 1-.563 0-1-.437-1-1 0-.563.437-1 1-1"/></g>

   xmlns:dc="http://purl.org/dc/elements/1.1/"
   xmlns:cc="http://creativecommons.org/ns#"
   xmlns:rdf="http://www.w3.org/1999/02/22-rdf-syntax-ns#"
   xmlns:svg="http://www.w3.org/2000/svg"
   xmlns="http://www.w3.org/2000/svg"
   xmlns:sodipodi="http://sodipodi.sourceforge.net/DTD/sodipodi-0.dtd"
   xmlns:inkscape="http://www.inkscape.org/namespaces/inkscape"
   height="32"
   width="32"
   version="1"
   id="svg8"
   sodipodi:docname="star-mime-2.svg"
   inkscape:version="0.92.1 r"&gt;
  <g transform="translate(152.47 194.05)" fill="#fff"><path d="m-125.38-193.25l-.077 3.548 3.072 1.831-3.548-.077-3.135 6.791 1.38-7.268-3.072-1.831 3.548.077z"/><path d="m-125.41-183.04l.042-1.955-1.692-1.01 1.955.042 1.727-3.741-.76 4 1.692 1.01-1.955-.042z"/></g></svg>