<svg xmlns="http://www.w3.org/2000/svg" viewBox="0 0 32 32"><rect width="28.2" height="28.2" x="1.898" y="1.898" fill="#5db43e" fill-rule="evenodd" rx="5.575"/><g transform="translate(35.33 1.751)" stroke-width=".682"><path d="m-23.24 3.85c-.151.016-.285.141-.313.291l-.301 1.528c-.541.212-1.05.503-1.496.86l-1.484-.502c-.154-.053-.341.014-.424.155l-1.429 2.479c-.08.143-.047.339.078.446l1.183 1.038c-.042.278-.067.558-.067.848 0 .29.026.571.067.85l-1.183 1.037c-.124.107-.158.305-.078.448l1.429 2.477c.083.141.27.21.424.156l1.484-.502c.446.357.955.648 1.496.86l.301 1.528c.031.16.184.289.347.291h2.858c.163-.002.315-.131.345-.291l.301-1.528c.541-.212 1.05-.503 1.496-.86l1.484.502c.154.053.343-.016.426-.156l1.429-2.477c.08-.143.045-.341-.079-.448l-1.183-1.037c.042-.278.067-.56.067-.85 0-.29-.026-.57-.067-.848l1.183-1.038c.124-.107.159-.304.079-.446l-1.429-2.479c-.083-.141-.271-.208-.426-.155l-1.484.502c-.447-.357-.955-.648-1.496-.86l-.301-1.53c-.031-.16-.182-.287-.345-.29h-2.858c-.011 0-.023 0-.034 0m1.462 4.083c1.691 0 3.061 1.37 3.061 3.061 0 1.691-1.37 3.062-3.061 3.062-1.691 0-3.062-1.371-3.062-3.062 0-1.691 1.371-3.061 3.062-3.061" fill="#fff"/><path d="m-15.1 15.07c-.1 0-.197.072-.226.168l-.307.98c-.37.1-.724.254-1.042.457l-.937-.435c-.097-.046-.225-.015-.289.071l-1.114 1.523c-.063.088-.055.219.019.298l.701.765c-.047.179-.084.361-.105.551-.021.19-.024.376-.017.562l-.85.595c-.089.061-.125.189-.083.288l.759 1.726c.044.098.162.157.267.133l1.01-.223c.267.266.58.493.919.671l.088 1.023c.009.107.1.202.206.216l1.873.205c.107.01.216-.063.247-.166l.307-.98c.37-.1.724-.254 1.042-.457l.937.435c.097.046.226.014.29-.072l1.114-1.522c.063-.088.054-.22-.02-.299l-.701-.764c.047-.179.084-.362.105-.552.021-.19.024-.375.017-.561l.85-.596c.089-.061.126-.188.084-.287l-.759-1.727c-.044-.098-.163-.156-.268-.132l-1.01.223c-.267-.266-.58-.493-.919-.671l-.088-1.024c-.009-.107-.099-.201-.206-.214l-1.873-.205c-.007-.001-.015-.002-.022-.002m.666 2.781c1.108.121 1.908 1.117 1.787 2.225-.121 1.108-1.117 1.909-2.225 1.788-1.108-.121-1.909-1.118-1.788-2.226.121-1.108 1.118-1.908 2.226-1.787" fill="#9ce173"/></g>

   xmlns:dc="http://purl.org/dc/elements/1.1/"
   xmlns:cc="http://creativecommons.org/ns#"
   xmlns:rdf="http://www.w3.org/1999/02/22-rdf-syntax-ns#"
   xmlns:svg="http://www.w3.org/2000/svg"
   xmlns="http://www.w3.org/2000/svg"
   xmlns:sodipodi="http://sodipodi.sourceforge.net/DTD/sodipodi-0.dtd"
   xmlns:inkscape="http://www.inkscape.org/namespaces/inkscape"
   height="32"
   width="32"
   version="1"
   id="svg8"
   sodipodi:docname="star-mime-2.svg"
   inkscape:version="0.92.1 r"&gt;
  <g transform="translate(152.47 194.05)" fill="#fff"><path d="m-125.38-193.25l-.077 3.548 3.072 1.831-3.548-.077-3.135 6.791 1.38-7.268-3.072-1.831 3.548.077z"/><path d="m-125.41-183.04l.042-1.955-1.692-1.01 1.955.042 1.727-3.741-.76 4 1.692 1.01-1.955-.042z"/></g></svg>