<svg xmlns="http://www.w3.org/2000/svg" xmlns:xlink="http://www.w3.org/1999/xlink" viewBox="0 0 32 32"><defs><linearGradient gradientTransform="matrix(-2.54182 0 0 2.58531 185.47-277.37)" id="1" x1="67.894" y1="108.69" x2="67.854" y2="113.11" gradientUnits="userSpaceOnUse"><stop stop-color="#f9f9f9"/><stop offset="1" stop-color="#999"/></linearGradient></defs><g fill-rule="evenodd"><path d="m3.527 28.471l12.473-12.471-12.473-12.473c-1.01 1.01-1.629 2.401-1.629 3.945v17.05c0 1.544.622 2.936 1.629 3.943" fill="#c2352a"/><path d="m28.473 28.473l-12.473-12.473-12.473 12.471c0 0 0 .002 0 .002 1.01 1.01 2.401 1.629 3.945 1.629h17.05c1.544 0 2.938-.621 3.945-1.629" fill="#a45390"/><path d="m28.471 3.527l-12.471 12.473 12.473 12.473c1.01-1.01 1.629-2.401 1.629-3.945v-17.05c0-1.544-.621-2.938-1.629-3.945h-.002" fill="#6db832"/><path d="m3.527 3.527l12.473 12.473 12.471-12.473c-1.01-1.01-2.4-1.629-3.943-1.629h-17.05c-1.544 0-2.938.621-3.945 1.629" fill="#4987d7"/></g><g transform="translate(.082-.425)" fill="#fff"><path d="m10.01 21h-5.988v-1.312l2.1-2.264q.397-.427.72-.787.323-.36.555-.702.232-.342.36-.696.128-.354.128-.763 0-.452-.275-.702-.269-.25-.726-.25-.482 0-.928.238-.446.238-.934.677l-1.025-1.216q.275-.25.574-.476.299-.232.659-.409.36-.177.793-.281.433-.11.97-.11.641 0 1.148.177.513.177.873.507.36.323.549.787.195.464.195 1.044 0 .525-.183 1.01-.183.476-.5.94-.317.458-.739.916-.415.452-.891.922l-1.074 1.08v.085h3.638v1.587z"/><path d="m13 9.09q0-.641.067-1.276.073-.635.25-1.215.183-.586.488-1.086.311-.5.781-.867.476-.372 1.135-.58.665-.214 1.55-.214.128 0 .281.006.153.006.305.018.159.006.305.024.146.018.262.043v1.508q-.232-.055-.494-.085-.256-.037-.519-.037-.824 0-1.355.208-.531.201-.842.568-.311.366-.446.879-.128.513-.159 1.135h.073q.122-.22.293-.409.177-.195.409-.33.232-.14.519-.22.293-.079.653-.079.58 0 1.044.189.464.189.781.549.323.36.494.885.171.525.171 1.202 0 .726-.208 1.3-.201.574-.58.977-.378.397-.916.61-.536.207-1.208.207-.659 0-1.233-.232-.573-.238-1-.72-.421-.482-.665-1.215-.238-.738-.238-1.745m3.1 2.405q.25 0 .452-.092.208-.098.354-.287.153-.195.232-.488.085-.293.085-.696 0-.653-.275-1.025-.269-.378-.824-.378-.281 0-.513.11-.232.11-.397.287-.165.177-.256.397-.085.22-.085.446 0 .311.073.623.079.305.232.555.159.244.385.397.232.153.537.153"/><path d="m25.13 15.177q.574 0 1.068.177.494.177.861.519.366.342.574.854.208.507.208 1.166 0 .726-.226 1.306-.226.574-.665.977-.439.397-1.093.61-.647.214-1.489.214-.336 0-.665-.031-.33-.03-.635-.091-.299-.055-.574-.147-.268-.091-.488-.213v-1.63q.214.122.494.232.281.104.58.183.305.073.61.122.305.043.58.043.818 0 1.245-.336.427-.342.427-1.08 0-.659-.421-1-.415-.348-1.288-.348-.159 0-.342.018-.177.018-.354.049-.171.031-.33.067-.159.031-.275.067l-.751-.403.336-4.547h4.712v1.599h-3.076l-.146 1.752q.195-.043.452-.085.262-.043.671-.043"/><path d="m13.928 29l3.174-7.324h-4.102v-1.587h6.152v1.184l-3.253 7.727h-1.971"/></g>

   xmlns:dc="http://purl.org/dc/elements/1.1/"
   xmlns:cc="http://creativecommons.org/ns#"
   xmlns:rdf="http://www.w3.org/1999/02/22-rdf-syntax-ns#"
   xmlns:svg="http://www.w3.org/2000/svg"
   xmlns="http://www.w3.org/2000/svg"
   xmlns:xlink="http://www.w3.org/1999/xlink"
   xmlns:sodipodi="http://sodipodi.sourceforge.net/DTD/sodipodi-0.dtd"
   xmlns:inkscape="http://www.inkscape.org/namespaces/inkscape"
   height="32"
   width="32"
   version="1"
   id="svg8"
   sodipodi:docname="snow-top-3.svg"
   inkscape:version="0.92.1 r"&gt;
  <path fill="#00000f" fill-opacity="0" d="m0 0h32v32h-32z" id="0"/><path d="m7.354 6.111c-2.995 2.684-1.381 7.817-3.674 8.291-2.031.613-3.541-1.385-3.66-4.503-.35-8.627 3.911-9.427 6.879-9.524 28.342-2.047 1.762 4.92.455 5.736" fill="url(#1)"/><use xlink:href="#0"/></svg>