<svg xmlns="http://www.w3.org/2000/svg" xmlns:xlink="http://www.w3.org/1999/xlink" viewBox="0 0 32 32"><defs><clipPath><rect rx="6" height="84" width="84" y="6" x="6" fill="#fff"/></clipPath><clipPath><path d="m0 0v96h96v-96h-96m12 6h72c3.324 0 6 2.676 6 6v72c0 3.324-2.676 6-6 6h-72c-3.324 0-6-2.676-6-6v-72c0-3.324 2.676-6 6-6"/></clipPath><clipPath><rect rx="4" height="76" width="76" y="10" x="10" fill="#fff"/></clipPath><filter height="1.384" width="1.384" y="-.19" x="-.19" color-interpolation-filters="sRGB"><feGaussianBlur stdDeviation="5.28"/></filter><filter color-interpolation-filters="sRGB"><feGaussianBlur stdDeviation="1.14"/></filter><filter color-interpolation-filters="sRGB"><feGaussianBlur stdDeviation="1.71"/></filter><linearGradient y2="105.99" gradientUnits="userSpaceOnUse" y1="190" x2="0"><stop stop-color="#2276c5"/><stop stop-color="#68baf4" offset="1"/></linearGradient><linearGradient y2="90.02" gradientUnits="userSpaceOnUse" y1="6" x2="0"><stop stop-color="#f0f0f0"/><stop stop-color="#aaa" offset="1"/></linearGradient><linearGradient y2="7.02" gradientUnits="userSpaceOnUse" y1="92.54" gradientTransform="scale(1.0059.99417)" x2="0"><stop/><stop stop-opacity=".588" offset="1"/></linearGradient><linearGradient id="1"><stop stop-color="#fff"/><stop stop-opacity="0" stop-color="#fff" offset="1"/></linearGradient><linearGradient xlink:href="#1" gradientUnits="userSpaceOnUse" x2="0" y1="6" y2="63.893"/><linearGradient xlink:href="#1" gradientUnits="userSpaceOnUse" x2="0" y1="20.221" y2="138.66"/><linearGradient gradientTransform="matrix(-2.54182 0 0 2.58531 185.47-277.37)" id="2" x1="67.894" y1="108.69" x2="67.854" y2="113.11" gradientUnits="userSpaceOnUse"><stop stop-color="#f9f9f9"/><stop offset="1" stop-color="#999"/></linearGradient><radialGradient xlink:href="#1" gradientUnits="userSpaceOnUse" cy="90.17" cx="48" gradientTransform="matrix(1.1573 0 0 .99591-7.551.197)" r="42"/></defs><rect width="28.2" height="28.2" x="1.898" y="1.898" fill="#ececec" fill-rule="evenodd" rx="5.575"/><g transform="translate(53.15 5.03)"><path d="m-40.532 16.515c1.079.617 1.454 1.992.837 3.071-.617 1.079-1.992 1.454-3.071.837-1.08-.617-1.454-1.992-.837-3.071.617-1.079 1.992-1.454 3.071-.837" fill="#ffcf3f"/><path d="m-42.972 10.561c1.259.72 1.696 2.324.976 3.583-.72 1.259-2.324 1.696-3.583.976-1.259-.72-1.696-2.324-.976-3.583.72-1.259 2.324-1.696 3.583-.976" fill="#7cc327"/><path d="m-40.91 3.857c1.439.823 1.938 2.656 1.116 4.095-.822 1.439-2.656 1.938-4.095 1.116-1.439-.822-1.939-2.656-1.116-4.095.823-1.439 2.656-1.939 4.095-1.116" fill="#27adc3"/><path d="m-30.972 1.755c1.979 1.131 2.666 3.652 1.534 5.63-1.131 1.979-3.652 2.666-5.63 1.534-1.979-1.131-2.666-3.652-1.534-5.63 1.131-1.979 3.652-2.666 5.63-1.534" fill="#ffcf3f"/><path d="m-28.904 10.611c1.439.823 1.939 2.656 1.116 4.095-.823 1.439-2.656 1.939-4.095 1.116-1.439-.823-1.939-2.656-1.116-4.095.823-1.439 2.656-1.939 4.095-1.116" fill="#7cc327"/><path d="m-33.34 15.747c1.296.65 1.82 2.228 1.17 3.524-.65 1.296-2.228 1.82-3.524 1.17-1.296-.65-1.82-2.228-1.17-3.524.65-1.296 2.228-1.82 3.524-1.17" fill="#27adc3"/></g>

   xmlns:dc="http://purl.org/dc/elements/1.1/"
   xmlns:cc="http://creativecommons.org/ns#"
   xmlns:rdf="http://www.w3.org/1999/02/22-rdf-syntax-ns#"
   xmlns:svg="http://www.w3.org/2000/svg"
   xmlns="http://www.w3.org/2000/svg"
   xmlns:xlink="http://www.w3.org/1999/xlink"
   xmlns:sodipodi="http://sodipodi.sourceforge.net/DTD/sodipodi-0.dtd"
   xmlns:inkscape="http://www.inkscape.org/namespaces/inkscape"
   height="32"
   width="32"
   version="1"
   id="svg8"
   sodipodi:docname="snow-top-3.svg"
   inkscape:version="0.92.1 r"&gt;
  <path fill="#00000f" fill-opacity="0" d="m0 0h32v32h-32z" id="0"/><path d="m7.354 6.111c-2.995 2.684-1.381 7.817-3.674 8.291-2.031.613-3.541-1.385-3.66-4.503-.35-8.627 3.911-9.427 6.879-9.524 28.342-2.047 1.762 4.92.455 5.736" fill="url(#2)"/><use xlink:href="#0"/></svg>