<svg xmlns="http://www.w3.org/2000/svg" viewBox="0 0 32 32"><defs><linearGradient gradientTransform="matrix(2.62891 0 0 2.71269-160.16-291.42)" id="0" x1="67.894" y1="108.69" x2="67.854" y2="113.11" gradientUnits="userSpaceOnUse"><stop stop-color="#f9f9f9"/><stop offset="1" stop-color="#999"/></linearGradient></defs><rect width="28.2" height="28.2" x="1.898" y="1.898" fill="#909090" fill-rule="evenodd" rx="5.575"/><g transform="translate(50.801 14.05)" stroke-width=".628"><g fill="#4f4f4f"><path transform="matrix(0-1-1 0 0 0)" d="m-10.112 29.781h1.255v10.04h-1.255z"/><path transform="scale(1-1)" d="m-35.429-8.857h1.255v3.138h-1.255z"/><path d="m-41.08.071v1.045c0 2.897 2.799 5.23 6.275 5.23 3.477 0 6.275-2.333 6.275-5.23v-1.045h-1.255v.837c0 2.318-2.239 4.183-5.02 4.183-2.781 0-5.02-1.866-5.02-4.183v-.837z"/></g><rect x="-3.836" y="30.408" width="10.04" height="8.786" transform="matrix(0-1-1 0 0 0)" rx="4.184" ry="4.393" fill="#fff"/><path d="m-36.437723-5.576826a.313774 .313774 0 0 0 -.313774 .313774 .313774 .313774 0 0 0 .313774 .313773 .313774 .313774 0 0 0 .313773 -.313773 .313774 .313774 0 0 0 -.313773 -.313774m1.255094 0a.313774 .313774 0 0 0 -.313773 .313774 .313774 .313774 0 0 0 .313773 .313773 .313774 .313774 0 0 0 .313774 -.313773 .313774 .313774 0 0 0 -.313774 -.313774m1.255095 0a.313774 .313774 0 0 0 -.313774 .313774 .313774 .313774 0 0 0 .313774 .313773 .313774 .313774 0 0 0 .313774 -.313773 .313774 .313774 0 0 0 -.313774 -.313774m1.255095 0a.313774 .313774 0 0 0 -.313774 .313774 .313774 .313774 0 0 0 .313774 .313773 .313774 .313774 0 0 0 .313774 -.313773 .313774 .313774 0 0 0 -.313774 -.313774m-4.751.152c-.173.117-.336.247-.489.386a.313774 .313774 0 0 0 .219642 .08949 .313774 .313774 0 0 0 .313774 -.313773 .313774 .313774 0 0 0 -.04393 -.161782m-.269844 1.103101a.313774 .313774 0 0 0 -.313774 .313773 .313774 .313774 0 0 0 .313774 .313774 .313774 .313774 0 0 0 .313774 -.313774 .313774 .313774 0 0 0 -.313774 -.313773m1.255095 0a.313774 .313774 0 0 0 -.313774 .313773 .313774 .313774 0 0 0 .313774 .313774 .313774 .313774 0 0 0 .313773 -.313774 .313774 .313774 0 0 0 -.313773 -.313773m1.255094 0a.313774 .313774 0 0 0 -.313773 .313773 .313774 .313774 0 0 0 .313773 .313774 .313774 .313774 0 0 0 .313774 -.313774 .313774 .313774 0 0 0 -.313774 -.313773m1.255095 0a.313774 .313774 0 0 0 -.313774 .313773 .313774 .313774 0 0 0 .313774 .313774 .313774 .313774 0 0 0 .313774 -.313774 .313774 .313774 0 0 0 -.313774 -.313773m1.255095 0a.313774 .313774 0 0 0 -.313774 .313773 .313774 .313774 0 0 0 .313774 .313774 .313774 .313774 0 0 0 .313774 -.313774 .313774 .313774 0 0 0 -.313774 -.313773m1.255095 0a.313774 .313774 0 0 0 -.313774 .313773 .313774 .313774 0 0 0 .313774 .313774 .313774 .313774 0 0 0 .313773 -.313774 .313774 .313774 0 0 0 -.313773 -.313773m-7.243.189c-.086.14-.165.284-.234.434a.313774 .313774 0 0 0 .259868 -.308879 .313774 .313774 0 0 0 -.02573 -.125007m-.288044 1.066328a.313774 .313774 0 0 0 -.187511 .0625c-.034.135-.061.273-.081.413a.313774 .313774 0 0 0 .268402 .151992 .313774 .313774 0 0 0 .313774 -.313774 .313774 .313774 0 0 0 -.313774 -.313774m1.255094.000004a.313774 .313774 0 0 0 -.313774 .313774 .313774 .313774 0 0 0 .313774 .313774 .313774 .313774 0 0 0 .313774 -.313774 .313774 .313774 0 0 0 -.313774 -.313774m1.255095 0a.313774 .313774 0 0 0 -.313774 .313774 .313774 .313774 0 0 0 .313774 .313774 .313774 .313774 0 0 0 .313773 -.313774 .313774 .313774 0 0 0 -.313773 -.313774m1.255094 0a.313774 .313774 0 0 0 -.313773 .313774 .313774 .313774 0 0 0 .313773 .313774 .313774 .313774 0 0 0 .313774 -.313774 .313774 .313774 0 0 0 -.313774 -.313774m1.255095 0a.313774 .313774 0 0 0 -.313774 .313774 .313774 .313774 0 0 0 .313774 .313774 .313774 .313774 0 0 0 .313774 -.313774 .313774 .313774 0 0 0 -.313774 -.313774m1.255095 0a.313774 .313774 0 0 0 -.313774 .313774 .313774 .313774 0 0 0 .313774 .313774 .313774 .313774 0 0 0 .313774 -.313774 .313774 .313774 0 0 0 -.313774 -.313774m1.255095 0a.313774 .313774 0 0 0 -.313774 .313774 .313774 .313774 0 0 0 .313774 .313774 .313774 .313774 0 0 0 .313773 -.313774 .313774 .313774 0 0 0 -.313773 -.313774m-7.530569 1.255095a.313774 .313774 0 0 0 -.313774 .313774 .313774 .313774 0 0 0 .313774 .313774 .313774 .313774 0 0 0 .313774 -.313774 .313774 .313774 0 0 0 -.313774 -.313774m1.255095 0a.313774 .313774 0 0 0 -.313774 .313774 .313774 .313774 0 0 0 .313774 .313774 .313774 .313774 0 0 0 .313774 -.313774 .313774 .313774 0 0 0 -.313774 -.313774m1.255095 0a.313774 .313774 0 0 0 -.313774 .313774 .313774 .313774 0 0 0 .313774 .313774 .313774 .313774 0 0 0 .313773 -.313774 .313774 .313774 0 0 0 -.313773 -.313774m1.255094 0a.313774 .313774 0 0 0 -.313773 .313774 .313774 .313774 0 0 0 .313773 .313774 .313774 .313774 0 0 0 .313774 -.313774 .313774 .313774 0 0 0 -.313774 -.313774m1.255095 0a.313774 .313774 0 0 0 -.313774 .313774 .313774 .313774 0 0 0 .313774 .313774 .313774 .313774 0 0 0 .313774 -.313774 .313774 .313774 0 0 0 -.313774 -.313774m1.255095 0a.313774 .313774 0 0 0 -.313774 .313774 .313774 .313774 0 0 0 .313774 .313774 .313774 .313774 0 0 0 .313774 -.313774 .313774 .313774 0 0 0 -.313774 -.313774m1.255095 0a.313774 .313774 0 0 0 -.313774 .313774 .313774 .313774 0 0 0 .313774 .313774 .313774 .313774 0 0 0 .313773 -.313774 .313774 .313774 0 0 0 -.313773 -.313774m-7.530569 1.255095a.313774 .313774 0 0 0 -.310071 .273611c.001.039.004.077.006.116a.313774 .313774 0 0 0 .303984 .237841 .313774 .313774 0 0 0 .313773 -.313774 .313774 .313774 0 0 0 -.313773 -.313774m1.255082 0a.313774 .313774 0 0 0 -.313774 .313774 .313774 .313774 0 0 0 .313774 .313774 .313774 .313774 0 0 0 .313774 -.313774 .313774 .313774 0 0 0 -.313774 -.313774m1.255095 0a.313774 .313774 0 0 0 -.313774 .313774 .313774 .313774 0 0 0 .313774 .313774 .313774 .313774 0 0 0 .313773 -.313774 .313774 .313774 0 0 0 -.313773 -.313774m1.255094 0a.313774 .313774 0 0 0 -.313773 .313774 .313774 .313774 0 0 0 .313773 .313774 .313774 .313774 0 0 0 .313774 -.313774 .313774 .313774 0 0 0 -.313774 -.313774m1.255095 0a.313774 .313774 0 0 0 -.313774 .313774 .313774 .313774 0 0 0 .313774 .313774 .313774 .313774 0 0 0 .313774 -.313774 .313774 .313774 0 0 0 -.313774 -.313774m1.255095 0a.313774 .313774 0 0 0 -.313774 .313774 .313774 .313774 0 0 0 .313774 .313774 .313774 .313774 0 0 0 .313774 -.313774 .313774 .313774 0 0 0 -.313774 -.313774m1.255095 0a.313774 .313774 0 0 0 -.313774 .313774 .313774 .313774 0 0 0 .313774 .313774 .313774 .313774 0 0 0 .313773 -.313774 .313774 .313774 0 0 0 -.313773 -.313774m-7.530569 1.255095a.313774 .313774 0 0 0 -.159334 .04267c.056.2.124.395.208.581a.313774 .313774 0 0 0 .264762 -.310005 .313774 .313774 0 0 0 -.313774 -.313774m1.255095 0a.313774 .313774 0 0 0 -.313774 .313774 .313774 .313774 0 0 0 .313774 .313773 .313774 .313774 0 0 0 .313774 -.313773 .313774 .313774 0 0 0 -.313774 -.313774m1.255095 0a.313774 .313774 0 0 0 -.313774 .313774 .313774 .313774 0 0 0 .313774 .313773 .313774 .313774 0 0 0 .313773 -.313773 .313774 .313774 0 0 0 -.313773 -.313774m1.255094 0a.313774 .313774 0 0 0 -.313773 .313774 .313774 .313774 0 0 0 .313773 .313773 .313774 .313774 0 0 0 .313774 -.313773 .313774 .313774 0 0 0 -.313774 -.313774m1.255095 0a.313774 .313774 0 0 0 -.313774 .313774 .313774 .313774 0 0 0 .313774 .313773 .313774 .313774 0 0 0 .313774 -.313773 .313774 .313774 0 0 0 -.313774 -.313774m1.255095 0a.313774 .313774 0 0 0 -.313774 .313774 .313774 .313774 0 0 0 .313774 .313773 .313774 .313774 0 0 0 .313774 -.313773 .313774 .313774 0 0 0 -.313774 -.313774m1.255095 0a.313774 .313774 0 0 0 -.313774 .313774 .313774 .313774 0 0 0 .313774 .313773 .313774 .313774 0 0 0 .313773 -.313773 .313774 .313774 0 0 0 -.313773 -.313774m-6.275474 1.255095a.313774 .313774 0 0 0 -.313774 .313773 .313774 .313774 0 0 0 .313774 .313774 .313774 .313774 0 0 0 .313774 -.313774 .313774 .313774 0 0 0 -.313774 -.313773m1.255095 0a.313774 .313774 0 0 0 -.313774 .313773 .313774 .313774 0 0 0 .313774 .313774 .313774 .313774 0 0 0 .313773 -.313774 .313774 .313774 0 0 0 -.313773 -.313773m1.255094 0a.313774 .313774 0 0 0 -.313773 .313773 .313774 .313774 0 0 0 .313773 .313774 .313774 .313774 0 0 0 .313774 -.313774 .313774 .313774 0 0 0 -.313774 -.313773m1.255095 0a.313774 .313774 0 0 0 -.313774 .313773 .313774 .313774 0 0 0 .313774 .313774 .313774 .313774 0 0 0 .313774 -.313774 .313774 .313774 0 0 0 -.313774 -.313773m1.255095 0a.313774 .313774 0 0 0 -.313774 .313773 .313774 .313774 0 0 0 .313774 .313774 .313774 .313774 0 0 0 .313774 -.313774 .313774 .313774 0 0 0 -.313774 -.313773m1.255095 0a.313774 .313774 0 0 0 -.313774 .313773 .313774 .313774 0 0 0 .09099 .220897c.146-.151.283-.307.404-.477a.313774 .313774 0 0 0 -.181361 -.05773m-5.02038 1.255091a.313774 .313774 0 0 0 -.301223 .227799c.188.085.383.16.586.218a.313774 .313774 0 0 0 .02949 -.132413 .313774 .313774 0 0 0 -.313773 -.313773m1.255098 0a.313774 .313774 0 0 0 -.313773 .313773 .313774 .313774 0 0 0 .19956 .293065c.065.006.132.006.198.009a.313774 .313774 0 0 0 .23031 -.302478 .313774 .313774 0 0 0 -.313774 -.313773m1.255095.000013a.313774 .313774 0 0 0 -.313774 .313773 .313774 .313774 0 0 0 .122372 .248509c.159-.026.315-.059.467-.1a.313774 .313774 0 0 0 .03828 -.148101 .313774 .313774 0 0 0 -.313774 -.313773m1.255096 0a.313774 .313774 0 0 0 -.298085 .215876c.134-.062.264-.129.39-.203a.313774 .313774 0 0 0 -.09162 -.01318" opacity=".7" fill="#909090"/></g>

   xmlns:dc="http://purl.org/dc/elements/1.1/"
   xmlns:cc="http://creativecommons.org/ns#"
   xmlns:rdf="http://www.w3.org/1999/02/22-rdf-syntax-ns#"
   xmlns:svg="http://www.w3.org/2000/svg"
   xmlns="http://www.w3.org/2000/svg"
   xmlns:xlink="http://www.w3.org/1999/xlink"
   xmlns:sodipodi="http://sodipodi.sourceforge.net/DTD/sodipodi-0.dtd"
   xmlns:inkscape="http://www.inkscape.org/namespaces/inkscape"
   version="1"
   width="32"
   height="32"
   id="svg12"
   sodipodi:docname="snow-top-1.svg"
   inkscape:version="0.92.1 r"&gt;
  <path d="m7.288.009c-8.276-.356-9.36 9.992-4.02 9.973.679.003 1.604-.207 2.97-1.543 7.256-10.531 14.706 3.573 17.53.919 1.71-1.912 3.496-.418 4.448.115 2.1.643 3.662.041 3.785-3.231.188-3.321-1.889-6.344-5.923-6.223-5.914.14-12.989-.047-18.787-.01" fill="url(#0)"/><path fill="#f00" fill-opacity="0" d="m0 0h32v32h-32z"/></svg>