<svg xmlns="http://www.w3.org/2000/svg" xmlns:xlink="http://www.w3.org/1999/xlink" viewBox="0 0 32 32"><defs><linearGradient gradientTransform="matrix(-2.54182 0 0 2.58531 185.47-277.37)" id="1" x1="67.894" y1="108.69" x2="67.854" y2="113.11" gradientUnits="userSpaceOnUse"><stop stop-color="#f9f9f9"/><stop offset="1" stop-color="#999"/></linearGradient></defs><g fill-rule="evenodd"><rect width="28.2" height="28.2" x="1.898" y="1.898" fill="#8e8e8e" rx="5.575"/><g transform="translate(38.865-4.426)"><path d="m-36.967 24.07c.055.145.066.314.174.422.198.199.472.32.775.32h6.576c.304 0 .577-.122.775-.32.198-.199.32-.474.32-.777v-6.576c0-.304-.122-.577-.32-.775-.198-.198-.472-.32-.775-.32h-6.576c-.304 0-.577.122-.775.32-.107.107-.118.275-.174.42z" fill="#adadad"/><path d="m-29.09 34.527c.144-.055.313-.067.42-.174.198-.198.32-.472.32-.775v-6.576c0-.304-.122-.577-.32-.775-.198-.198-.472-.32-.775-.32h-6.576c-.304 0-.577.122-.775.32-.107.107-.118.275-.174.42v2.305c0 3.089 2.486 5.576 5.574 5.576z" fill="#ccc"/><path d="m-19.223 34.527c.145-.055.314-.066.422-.174.199-.198.32-.472.32-.775v-6.576c0-.304-.122-.577-.32-.775-.199-.198-.474-.32-.777-.32h-6.574c-.304 0-.579.122-.777.32-.199.198-.32.472-.32.775v6.576c0 .304.122.577.32.775.108.107.277.118.422.174z" fill="#adadad"/><g fill="#ccc"><path d="m-8.764 26.646c-.055-.144-.067-.313-.174-.42-.198-.198-.472-.32-.775-.32h-6.576c-.304 0-.577.122-.775.32-.198.198-.32.472-.32.775v6.576c0 .304.122.577.32.775.107.107.275.118.42.174h2.307c3.089 0 5.574-2.488 5.574-5.576z"/><path d="m-16.645 6.324c-.144.055-.313.067-.42.174-.198.198-.32.472-.32.775v6.576c0 .304.122.577.32.775.198.198.472.32.775.32h6.576c.304 0 .577-.122.775-.32.107-.107.118-.275.174-.42v-2.307c0-3.089-2.486-5.574-5.574-5.574z"/></g><path d="m-26.508 6.324c-.145.055-.314.066-.422.174-.199.198-.32.472-.32.775v6.576c0 .304.122.577.32.775.199.198.474.32.777.32h6.574c.304 0 .579-.122.777-.32.199-.198.32-.472.32-.775v-6.576c0-.304-.122-.577-.32-.775-.108-.107-.277-.118-.422-.174z" fill="#adadad"/><path d="m-36.967 14.205v2.576c.055-.144.067-.313.174-.42.198-.198.472-.32.775-.32h6.576c.304 0 .577.122.775.32.198.198.32.472.32.775v6.576c0 .304-.122.579-.32.777-.198.199-.472.32-.775.32h-6.576c-.304 0-.577-.122-.775-.32-.107-.108-.118-.277-.174-.422v2.578c.055-.144.067-.313.174-.42.198-.198.472-.32.775-.32h6.576c.304 0 .577.122.775.32.198.198.32.472.32.775v6.576c0 .304-.122.577-.32.775-.107.107-.275.118-.42.174h2.578c-.145-.055-.314-.066-.422-.174-.199-.198-.32-.472-.32-.775v-6.576c0-.304.122-.577.32-.775.199-.198.474-.32.777-.32h6.574c.304 0 .579.122.777.32.199.198.32.472.32.775v6.576c0 .304-.122.577-.32.775-.108.107-.277.118-.422.174h2.578c-.144-.055-.313-.067-.42-.174-.198-.198-.32-.472-.32-.775v-6.576c0-.304.122-.577.32-.775.198-.198.472-.32.775-.32h6.576c.304 0 .577.122.775.32.107.107.118.275.174.42v-2.578c-.055.145-.066.314-.174.422-.198.199-.472.32-.775.32h-6.576c-.304 0-.577-.122-.775-.32-.198-.199-.32-.474-.32-.777v-6.576c0-.304.122-.577.32-.775.198-.198.472-.32.775-.32h6.576c.304 0 .577.122.775.32.107.107.118.275.174.42v-2.576c-.055.144-.067.313-.174.42-.198.198-.472.32-.775.32h-6.576c-.304 0-.577-.122-.775-.32-.198-.198-.32-.472-.32-.775v-6.576c0-.304.122-.577.32-.775.107-.107.275-.118.42-.174h-2.578c.145.055.314.066.422.174.199.198.32.472.32.775v6.576c0 .304-.122.577-.32.775-.199.198-.474.32-.777.32h-6.574c-.304 0-.579-.122-.777-.32-.199-.198-.32-.472-.32-.775v-6.576c0-.304.122-.577.32-.775.108-.107.277-.118.422-.174h-2.578c.144.055.313.067.42.174.198.198.32.472.32.775v6.576c0 .304-.122.577-.32.775-.198.198-.472.32-.775.32h-6.576c-.304 0-.577-.122-.775-.32-.107-.107-.118-.275-.174-.42" fill="#8e8e8e"/><path d="m-36.967 14.205c.055.144.067.313.174.42.198.198.472.32.775.32h6.576c.304 0 .577-.122.775-.32.198-.198.32-.472.32-.775v-6.576c0-.304-.122-.577-.32-.775-.107-.107-.275-.118-.42-.174h-2.307c-3.089 0-5.574 2.486-5.574 5.574z" fill="#ccc"/><path d="m-26.15 16.04c-.304 0-.579.122-.777.32-.199.198-.32.472-.32.775v6.576c0 .304.122.579.32.777.199.199.474.32.777.32h6.574c.304 0 .579-.122.777-.32.199-.199.32-.474.32-.777v-6.576c0-.304-.122-.577-.32-.775-.199-.198-.474-.32-.777-.32z" fill="#8e8e8e"/><path d="m-26.15 16.04h6.574c.304 0 .579.122.777.32.199.198.32.472.32.775v6.576c0 .304-.122.579-.32.777-.199.199-.474.32-.777.32h-6.574c-.304 0-.579-.122-.777-.32-.199-.199-.32-.474-.32-.777v-6.576c0-.304.122-.577.32-.775.199-.198.474-.32.777-.32" fill="#ccc"/><path d="m-8.764 16.781c-.055-.144-.067-.313-.174-.42-.198-.198-.472-.32-.775-.32h-6.576c-.304 0-.577.122-.775.32-.198.198-.32.472-.32.775v6.576c0 .304.122.579.32.777.198.199.472.32.775.32h6.576c.304 0 .577-.122.775-.32.107-.108.118-.277.174-.422z" fill="#adadad"/></g></g>

   xmlns:dc="http://purl.org/dc/elements/1.1/"
   xmlns:cc="http://creativecommons.org/ns#"
   xmlns:rdf="http://www.w3.org/1999/02/22-rdf-syntax-ns#"
   xmlns:svg="http://www.w3.org/2000/svg"
   xmlns="http://www.w3.org/2000/svg"
   xmlns:xlink="http://www.w3.org/1999/xlink"
   xmlns:sodipodi="http://sodipodi.sourceforge.net/DTD/sodipodi-0.dtd"
   xmlns:inkscape="http://www.inkscape.org/namespaces/inkscape"
   height="32"
   width="32"
   version="1"
   id="svg8"
   sodipodi:docname="snow-top-3.svg"
   inkscape:version="0.92.1 r"&gt;
  <path fill="#00000f" fill-opacity="0" d="m0 0h32v32h-32z" id="0"/><path d="m7.354 6.111c-2.995 2.684-1.381 7.817-3.674 8.291-2.031.613-3.541-1.385-3.66-4.503-.35-8.627 3.911-9.427 6.879-9.524 28.342-2.047 1.762 4.92.455 5.736" fill="url(#1)"/><use xlink:href="#0"/></svg>