<svg xmlns="http://www.w3.org/2000/svg" viewBox="0 0 32 32"><defs><linearGradient gradientTransform="matrix(2.54182 0 0 2.58531-153.47-277.37)" id="0" x1="67.894" y1="108.69" x2="67.854" y2="113.11" gradientUnits="userSpaceOnUse"><stop stop-color="#f9f9f9"/><stop offset="1" stop-color="#999"/></linearGradient></defs><rect width="28.2" height="28.2" x="1.898" y="1.898" fill="#ae56b8" fill-rule="evenodd" rx="5.575"/><path d="m14.05 6.458c-.202.022-.381.189-.418.389l-.402 2.043c-.723.283-1.4.669-1.996 1.146l-1.984-.67c-.206-.071-.456.021-.566.209l-1.908 3.309c-.107.19-.06.455.105.598l1.58 1.387c-.056.372-.09.746-.09 1.133 0 .387.034.761.09 1.133l-1.58 1.387c-.166.143-.213.405-.105.596l1.908 3.311c.111.188.36.278.566.207l1.984-.67c.596.477 1.273.866 1.996 1.148l.404 2.043c.041.214.243.384.461.387h3.816c.218-.003.422-.173.463-.387l.402-2.043c.723-.283 1.402-.671 1.998-1.148l1.982.67c.206.071.456-.019.566-.207l1.908-3.311c.107-.19.062-.453-.104-.596l-1.58-1.387c.056-.372.09-.745.09-1.133 0-.387-.034-.761-.09-1.133l1.58-1.387c.166-.143.211-.407.104-.598l-1.908-3.309c-.111-.188-.36-.28-.566-.209l-1.982.67c-.596-.477-1.276-.866-1.998-1.148l-.402-2.041c-.041-.214-.245-.386-.463-.389h-3.816c-.015 0-.03 0-.045 0m1.953 5.453c2.258 0 4.09 1.831 4.09 4.09 0 2.258-1.831 4.088-4.09 4.088-2.258 0-4.088-1.829-4.088-4.088 0-2.258 1.829-4.09 4.088-4.09" fill="#fff" stroke-width=".682"/>

   xmlns:dc="http://purl.org/dc/elements/1.1/"
   xmlns:cc="http://creativecommons.org/ns#"
   xmlns:rdf="http://www.w3.org/1999/02/22-rdf-syntax-ns#"
   xmlns:svg="http://www.w3.org/2000/svg"
   xmlns="http://www.w3.org/2000/svg"
   xmlns:xlink="http://www.w3.org/1999/xlink"
   xmlns:sodipodi="http://sodipodi.sourceforge.net/DTD/sodipodi-0.dtd"
   xmlns:inkscape="http://www.inkscape.org/namespaces/inkscape"
   height="32"
   width="32"
   version="1"
   id="svg8"
   sodipodi:docname="snow-top-2.svg"
   inkscape:version="0.92.1 r"&gt;
  <path d="m24.646 6.111c2.995 2.684 1.381 7.817 3.674 8.291 2.031.613 3.541-1.385 3.66-4.503.35-8.627-3.911-9.427-6.879-9.524-28.342-2.047-1.762 4.92-.455 5.736" fill="url(#0)"/></svg>