<svg xmlns="http://www.w3.org/2000/svg" viewBox="0 0 32 32"><defs><linearGradient gradientTransform="matrix(2.54182 0 0 2.58531-153.47-277.37)" id="0" x1="67.894" y1="108.69" x2="67.854" y2="113.11" gradientUnits="userSpaceOnUse"><stop stop-color="#f9f9f9"/><stop offset="1" stop-color="#999"/></linearGradient></defs><g transform="translate(59.01-11.12)"><g fill-rule="evenodd"><path d="m-43.01 27.12h-14.781v8.938c0 3.238 2.606 5.844 5.844 5.844h8.938z" fill="#f2ae37"/><g fill="#fff"><path d="m-43.01 27.12v14.781h8.939c3.238 0 5.844-2.606 5.844-5.844v-8.938z"/><path d="m-51.945 12.338c-3.238 0-5.844 2.606-5.844 5.844v8.939h14.781v-14.783"/></g><path d="m-43.01 12.338v14.783h14.783v-8.939c0-3.238-2.606-5.844-5.844-5.844z" fill="#f4c165"/></g><rect x="-39.793" y="30.334" width="8.57" height="8.57" rx="1.071" fill="#6192f5"/><rect x="-54.79" y="15.337" width="8.57" height="8.57" rx="1.071" fill="#3775f2"/></g>

   xmlns:dc="http://purl.org/dc/elements/1.1/"
   xmlns:cc="http://creativecommons.org/ns#"
   xmlns:rdf="http://www.w3.org/1999/02/22-rdf-syntax-ns#"
   xmlns:svg="http://www.w3.org/2000/svg"
   xmlns="http://www.w3.org/2000/svg"
   xmlns:xlink="http://www.w3.org/1999/xlink"
   xmlns:sodipodi="http://sodipodi.sourceforge.net/DTD/sodipodi-0.dtd"
   xmlns:inkscape="http://www.inkscape.org/namespaces/inkscape"
   height="32"
   width="32"
   version="1"
   id="svg8"
   sodipodi:docname="snow-top-2.svg"
   inkscape:version="0.92.1 r"&gt;
  <path d="m24.646 6.111c2.995 2.684 1.381 7.817 3.674 8.291 2.031.613 3.541-1.385 3.66-4.503.35-8.627-3.911-9.427-6.879-9.524-28.342-2.047-1.762 4.92-.455 5.736" fill="url(#0)"/></svg>