<svg xmlns="http://www.w3.org/2000/svg" viewBox="0 0 32 32" xmlns:xlink="http://www.w3.org/1999/xlink"><defs><linearGradient xlink:href="#3" id="4" gradientUnits="userSpaceOnUse" x1="27.558" y1="-133.46" x2="22.09" y2="-134.43"/><linearGradient xlink:href="#3" id="2" gradientUnits="userSpaceOnUse" x1="15.879" y1="-141.91" x2="30.32" y2="-129.74"/><linearGradient id="3"><stop stop-color="#55c03f"/><stop offset="1" stop-color="#198b26"/></linearGradient><linearGradient id="1"><stop stop-color="#f9f9f9"/><stop offset="1" stop-color="#999"/></linearGradient><linearGradient xlink:href="#1" id="0" gradientUnits="userSpaceOnUse" x1="17.658" y1="-133.51" x2="15.02" y2="-125.58"/><radialGradient xlink:href="#1" id="5" cx="-176.59" cy="-120.91" r="3.01" gradientUnits="userSpaceOnUse" gradientTransform="matrix(2.21087.05719-.05496 2.12455 412.97 145.84)"/></defs><rect width="28.2" height="28.2" x="1.898" y="1.898" fill="#716599" fill-rule="evenodd" rx="5.575"/><g transform="translate(46.32 3.409)"><path d="m-32.01 23c-1.198-.228-2.474-.781-3.543-1.536-1.2-.848-2.44-2.339-3.037-3.652-.599-1.319-.842-2.914-.683-4.487.12-1.19.258-1.742.667-2.69 1.137-2.629 3.361-4.441 6.307-5.139.482-.114.816-.249 1.023-.412.306-.242.307-.245.492-1.439.23-1.491.227-1.479.463-1.538.317-.079 1.799.132 2.524.36 1.166.367 2 .845 2.994 1.716.307.269 1.098.489 1.148.489.3 0 1.134.392 1.471.718 1 .975 1.14 2.203.374 3.394-.206.32-.479.177-.479.589 0 .275-.047.562-.105.638-.085.111-.836.171-2.461.311-1.48.128-2.375.507-2.466.598-.271.27.354.327 3.23.553 2.689.212 2.932.286 2.727.489-.044.044-1.222.25-2.863.581l-2.982.601-1.874-.723c-1.031-.398-1.906-.623-1.946-.623-.123 0-1.025 1.498-.996 1.653.037.192.414.087.905.154.339.046.433.021.784-.211.781-.516 1.48-.517 1.914-.002.265.315.274.529.029.7-.245.171-.422.165-.783-.028-.507-.271-.829.083-.645.569.119.314.051.485-.191.485-.135 0-.231-.083-.325-.281-.133-.28-.135-.421-.871-.471-.796-.054-1.172.222-1.67-.092-.393-.248-.76-.678-.76-.892 0-.204.389-.98.789-1.572.371-.55.383-.683.058-.683-.172 0-.313.08-.476.273-.287.338-.96 1.734-.96 1.991 0 .355.272.748.994 1.223.573.376.747.401.87.679.184.418.507 1.133.577 1.784.058.541.176.401.391.023.219-.385.825-.46.825-.103 0 .086-.094.206-.209.268-.379.203-.353.545.059.765.122.065.243.035.526-.13.202-.118.425-.215.495-.215.166 0 .389.321.389.56 0 .532-.419.866-1.085.866-.795 0-1.405-.427-1.735-1.216-.176-.421-.864-1.181-1.148-1.486-.281-.302-.43-.354-.665-.32-.263.038-.392.286-.393.926-.002 1.236.387 2.499 1.791 3.191 2.306 1.136 4.519 1.149 6.902.041 1.759-.818 3.115-2.171 3.213-3.591.036-.522.015-.66-.154-.984-.349-.674-1.436-1.065-2.175-.73-.241.109-.424.421-.542.761-.344 1.063.162 1.501.744 1.754.239.104.661.03.735-.267.083-.332-.079-.465-.532-.437-.342.021-.389.003-.413-.16-.035-.244.331-.481.727-.47.233.007.369.001.581.232.33.36.273.779.1 1.108-.209.398-.597.664-1.173.662-.82-.003-1.483-.459-1.677-1.153-.116-.416-.11-1.083.036-1.575.425-1.428 2.826-1.72 3.968-.612.551.534.83 1.141.778 2.102-.112 2.085-2.213 4.094-4.612 5.271-1.421.697-2.219.883-3.949.923-.985.023-1.615-.003-2.03-.081" fill="#47b0d0"/><g stroke-linejoin="round" stroke-linecap="round"><circle r="2.5" cy="7.591" cx="-28.822" fill="#fff" stroke-width="2.222"/><circle r="1" cy="7.091" cx="-29.322" fill="#5e5e5e" stroke-width="2.667"/><path d="m-22.349 6.81c.114.543-.138 1.1-.562 1.246l-.411-1.965c.424-.145.859.177.973.719" fill="#fff" stroke-width=".799"/></g></g><g transform="translate(-.916 143.06)"><path d="m15.583-142.61c-5.577-1.531-5.951 3.24-4.58 5.493 4.381 6.983 6.796 6.577 9.398 7.895 1.712 2.064 3.451 3.4 6.469 4.1 11.69 1.559 3.242-8.417.92-8.649-5.065.012-7.547-6.123-12.206-8.838" fill="url(#0)"/><path d="m15.583-142.61c3.76.276 5.616-.626 8.93-.421 4.319.283 8.307 2.053 7.838 6.574-.347 2.567-.37 2.25.186 4.296.532 1.535-.252 4.232-.487 4.654-2.715 4.963-1.536 4.965-2.656 7.742l-.906-.418-2.508-11.358c-7.177-.909-10.754-10.11-10.398-11.07" fill="url(#2)"/><path d="m22.374-132.67c.362.274 1.553-5.105 1.172-5.653 1.379 2.44 1.919 4.616 2.435 6.783-1.276-.283-2.289-.554-3.607-1.13" fill="url(#4)"/><circle r="3.01" cy="-119.45" cx="29.06" fill="url(#5)"/></g></svg>