<svg xmlns="http://www.w3.org/2000/svg" viewBox="0 0 32 32"><defs><linearGradient gradientTransform="matrix(2.54182 0 0 2.58531-153.47-277.37)" id="0" x1="67.894" y1="108.69" x2="67.854" y2="113.11" gradientUnits="userSpaceOnUse"><stop stop-color="#f9f9f9"/><stop offset="1" stop-color="#999"/></linearGradient></defs><rect width="28.2" height="28.2" x="1.898" y="1.898" fill="#478cbf" fill-rule="evenodd" rx="5.575"/><g transform="matrix(.75901 0 0 .75901 3.856 3.856)" stroke-width="1.317"><g stroke-width="1.317"><path d="m13.2 3l-.115.067-3.385 1.434.7 3.5-3.222 1.474-1.678-1.474-3.5 3.5 2 2.167v7.256l-2-.559v2.334c2.819 4.306 7.7 6.303 14 6.303 6.3 0 11.181-1.997 14-6.303v-2.334l-2 .559v-7.256l2-2.167-3.5-3.5-1.678 1.474-3.222-1.474.7-3.5-3.5-1.5-1.198 2h-3.207z" fill="#fff"/><path d="m9 13c1.657 0 3 1.343 3 3 0 1.657-1.343 3-3 3-1.657 0-3-1.343-3-3 0-1.657 1.343-3 3-3" fill="#478cbf"/><path d="m11 15.999367a2 2 0 1 1 -4 0 2 2 0 1 1 4 0" fill="#353535"/><g fill="#478cbf"><path d="m16 15c.554 0 1 .446 1 1v2c0 .554-.446 1-1 1-.554 0-1-.446-1-1v-2c0-.554.446-1 1-1"/><path d="m23 13c1.657 0 3 1.343 3 3 0 1.657-1.343 3-3 3-1.657 0-3-1.343-3-3 0-1.657 1.343-3 3-3"/></g><path d="m25 16a2 2 0 1 1 -4 0 2 2 0 1 1 4 0" fill="#353535"/></g><path d="m2.377 18.695l-.223.975 1.846.422v1.826l3 1.393v-2.143l2 .342v1.912l5 .76v-2.182h2 2v2.182l5-.76v-1.912l2-.342v2.143l3-1.393v-1.826l1.846-.422-.223-.975-2.623.6v1.984l-1 .465v-1.76l-4 .682v1.896l-3 .455v-2.02h-3-3v2.02l-3-.455v-1.896l-4-.682v1.76l-1-.465v-1.984z" shape-rendering="auto" mix-blend-mode="normal" isolation="auto" color-interpolation-filters="linearRGB" white-space="normal" fill="#478cbf" solid-opacity="1" image-rendering="auto" solid-color="#000000" color="#000" color-rendering="auto" vector-effect="none" shape-padding="0" color-interpolation="sRGB"/></g>

   xmlns:dc="http://purl.org/dc/elements/1.1/"
   xmlns:cc="http://creativecommons.org/ns#"
   xmlns:rdf="http://www.w3.org/1999/02/22-rdf-syntax-ns#"
   xmlns:svg="http://www.w3.org/2000/svg"
   xmlns="http://www.w3.org/2000/svg"
   xmlns:xlink="http://www.w3.org/1999/xlink"
   xmlns:sodipodi="http://sodipodi.sourceforge.net/DTD/sodipodi-0.dtd"
   xmlns:inkscape="http://www.inkscape.org/namespaces/inkscape"
   height="32"
   width="32"
   version="1"
   id="svg8"
   sodipodi:docname="snow-top-2.svg"
   inkscape:version="0.92.1 r"&gt;
  <path d="m24.646 6.111c2.995 2.684 1.381 7.817 3.674 8.291 2.031.613 3.541-1.385 3.66-4.503.35-8.627-3.911-9.427-6.879-9.524-28.342-2.047-1.762 4.92-.455 5.736" fill="url(#0)"/></svg>