<svg xmlns="http://www.w3.org/2000/svg" viewBox="0 0 32 32"><defs><linearGradient gradientTransform="matrix(2.62891 0 0 2.71269-160.16-291.42)" id="0" x1="67.894" y1="108.69" x2="67.854" y2="113.11" gradientUnits="userSpaceOnUse"><stop stop-color="#f9f9f9"/><stop offset="1" stop-color="#999"/></linearGradient></defs><rect width="28.2" height="28.2" x="1.898" y="1.898" fill="#eb4d27" fill-rule="evenodd" rx="5.575"/><g transform="matrix(.74818 0 0 .74818 4.403 4.03)"><path d="m26.86 14.426l-21.12-12.06c-.902-.509-1.71-.461-2.201.016-.348.334-.538.875-.538 1.576v24.08c0 .7.206 1.241.538 1.576.507.493 1.298.541 2.201.016l21.12-12.06c1.52-.859 1.52-2.26 0-3.135" fill="#fff"/><path d="m15.5 5c-1.361 0-2.658.267-3.852.738l-.003-.002a10.5 10.5 0 0 0 -.036 .0157c-.274.11-.542.234-.804.365a10.5 10.5 0 0 0 -.149 .0723c-.258.135-.508.282-.754.438a10.5 10.5 0 0 0 -.1484 .0898c-.231.151-.452.316-.67.484a10.5 10.5 0 0 0 -.1836 .1367c-.197.159-.382.331-.566.504a10.5 10.5 0 0 0 -.2129 .1934c-.228.226-.445.461-.652.707a10.5 10.5 0 0 0 -.0372 .041c-.886 1.064-1.564 2.306-1.977 3.664a10.5 10.5 0 0 0 -.0137 .051c-.094.316-.176.639-.24.967a10.5 10.5 0 0 0 -.0196 .121c-.054.292-.1.586-.129.887a10.5 10.5 0 0 0 -.0527 1.027c0 .33.019.656.049.979a10.5 10.5 0 0 0 .0235 .197c.031.28.074.557.127.83a10.5 10.5 0 0 0 .0274 .137c.213 1.026.575 1.997 1.064 2.89.338.617.735 1.195 1.186 1.729 1.111 1.316 2.533 2.361 4.162 3.01.017.006.029-.004.045 0a10.5 10.5 0 0 0 1.064 .353l12.867-7.348a10.5 10.5 0 0 0 .385 -2.773c0-.453-.038-.896-.094-1.334a10.5 10.5 0 0 0 -.041 -.309l-.008-.003c-.792-5.02-5.12-8.854-10.357-8.854" fill="#ffd739"/><circle r="6.5" cx="15.5" cy="15.5" fill="#ff8c00"/></g>

   xmlns:dc="http://purl.org/dc/elements/1.1/"
   xmlns:cc="http://creativecommons.org/ns#"
   xmlns:rdf="http://www.w3.org/1999/02/22-rdf-syntax-ns#"
   xmlns:svg="http://www.w3.org/2000/svg"
   xmlns="http://www.w3.org/2000/svg"
   xmlns:xlink="http://www.w3.org/1999/xlink"
   xmlns:sodipodi="http://sodipodi.sourceforge.net/DTD/sodipodi-0.dtd"
   xmlns:inkscape="http://www.inkscape.org/namespaces/inkscape"
   version="1"
   width="32"
   height="32"
   id="svg12"
   sodipodi:docname="snow-top-1.svg"
   inkscape:version="0.92.1 r"&gt;
  <path d="m7.288.009c-8.276-.356-9.36 9.992-4.02 9.973.679.003 1.604-.207 2.97-1.543 7.256-10.531 14.706 3.573 17.53.919 1.71-1.912 3.496-.418 4.448.115 2.1.643 3.662.041 3.785-3.231.188-3.321-1.889-6.344-5.923-6.223-5.914.14-12.989-.047-18.787-.01" fill="url(#0)"/><path fill="#f00" fill-opacity="0" d="m0 0h32v32h-32z"/></svg>