<svg xmlns="http://www.w3.org/2000/svg" xmlns:xlink="http://www.w3.org/1999/xlink" viewBox="0 0 32 32"><defs><linearGradient xlink:href="#3" id="4" gradientUnits="userSpaceOnUse" x1="27.558" y1="-133.46" x2="22.09" y2="-134.43"/><linearGradient xlink:href="#3" id="2" gradientUnits="userSpaceOnUse" x1="15.879" y1="-141.91" x2="30.32" y2="-129.74"/><linearGradient id="3"><stop stop-color="#55c03f"/><stop offset="1" stop-color="#198b26"/></linearGradient><linearGradient id="1"><stop stop-color="#f9f9f9"/><stop offset="1" stop-color="#999"/></linearGradient><linearGradient xlink:href="#1" id="0" gradientUnits="userSpaceOnUse" x1="17.658" y1="-133.51" x2="15.02" y2="-125.58"/><radialGradient xlink:href="#1" id="5" cx="-176.59" cy="-120.91" r="3.01" gradientUnits="userSpaceOnUse" gradientTransform="matrix(2.21087.05719-.05496 2.12455 412.97 145.84)"/></defs><g transform="translate(57.898 12.475)"><path d="m-27.731-5.643c-.064-.526-.112-1.061-.313-1.531-.285-.667-.697-1.268-1.208-1.771-.511-.504-1.121-.912-1.798-1.193-.677-.281-1.421-.438-2.204-.438h-17.29c-.783 0-1.527.156-2.204.438-.677.281-1.285.69-1.796 1.193-.511.504-.925 1.104-1.21 1.771-.285.667-.442 1.402-.442 2.174v2.672l5.622 9.607.158.313.04.023.354.609 3.261 2.584.905-.383 1.038.646c-.123-.223-.246-.557-.366-.93l6.099-2.57-6.311-10.785c.577-1.314 1.586-2.234 3.358-2.43z" fill="#e64646" stroke-width="1.319"/><g stroke-width="1.31"><path d="m-39.4 17.627h6.221c.772 0 1.506-.154 2.174-.436.667-.281 1.268-.69 1.771-1.193.504-.504.912-1.104 1.193-1.771.281-.667.436-1.402.436-2.174v-17.05c0-.228-.103-.422-.129-.643h-14.09c-.02 0 2.912 1.306 4.148 2.02 3.16 1.825 3.489 8.341 3.496 10.979l.531.307-.541.936c0 .001 0 .043 0 .043l-.205.309z" fill="#e58989"/><path d="m-56.19-4.363v16.416c0 .772.156 1.506.438 2.174.281.667.688 1.268 1.191 1.771.504.504 1.104.912 1.771 1.193.667.281 1.404.436 2.176.436h11.215l6.141-10.213c-.696 1.133-3.593 2.585-4.83 3.299-3.957 2.285-8.983.807-11.268-3.15z" fill="#f66f6f"/><g transform="matrix(0-1-1 0 0 0)"><rect x="-12.695" y="32.668" width="18.339" height="18.339" rx="9.169" fill="#fff"/><rect x="-10.07" y="35.29" width="13.1" height="13.1" rx="6.55" fill="#e64646"/></g></g></g><g transform="translate(-.916 143.06)"><path d="m15.583-142.61c-5.577-1.531-5.951 3.24-4.58 5.493 4.381 6.983 6.796 6.577 9.398 7.895 1.712 2.064 3.451 3.4 6.469 4.1 11.69 1.559 3.242-8.417.92-8.649-5.065.012-7.547-6.123-12.206-8.838" fill="url(#0)"/><path d="m15.583-142.61c3.76.276 5.616-.626 8.93-.421 4.319.283 8.307 2.053 7.838 6.574-.347 2.567-.37 2.25.186 4.296.532 1.535-.252 4.232-.487 4.654-2.715 4.963-1.536 4.965-2.656 7.742l-.906-.418-2.508-11.358c-7.177-.909-10.754-10.11-10.398-11.07" fill="url(#2)"/><path d="m22.374-132.67c.362.274 1.553-5.105 1.172-5.653 1.379 2.44 1.919 4.616 2.435 6.783-1.276-.283-2.289-.554-3.607-1.13" fill="url(#4)"/><circle r="3.01" cy="-119.45" cx="29.06" fill="url(#5)"/></g></svg>