<svg xmlns="http://www.w3.org/2000/svg" xmlns:xlink="http://www.w3.org/1999/xlink" viewBox="0 0 32 32"><defs><linearGradient xlink:href="#3" id="4" gradientUnits="userSpaceOnUse" x1="-23.24" y1="-185.08" x2="-28.704" y2="-186.05"/><linearGradient xlink:href="#3" id="2" gradientUnits="userSpaceOnUse" x1="-34.914" y1="-193.53" x2="-20.469" y2="-181.36"/><linearGradient id="3"><stop stop-color="#ffff5e"/><stop offset="1" stop-color="#f6a32d"/></linearGradient><linearGradient id="1"><stop stop-color="#f9f9f9"/><stop offset="1" stop-color="#999"/></linearGradient><linearGradient xlink:href="#1" id="0" gradientUnits="userSpaceOnUse" x1="-33.14" y1="-185.13" x2="-35.775" y2="-177.2"/><radialGradient xlink:href="#1" id="5" cx="-176.59" cy="-120.91" r="3.01" gradientUnits="userSpaceOnUse" gradientTransform="matrix(2.21087.05719-.05496 2.12455 362.18 94.22)"/></defs><rect width="28.2" height="28.2" x="1.898" y="1.898" fill="#6595c3" fill-rule="evenodd" rx="5.575"/><g transform="matrix(.08578 0 0 .08764 5.57 5.948)" fill="#fff"><path d="m120 4.5c-14.53 0-28.434 2.691-41.24 7.591 4.917-.674 10.804-1.091 17.869-1.091 40.29 0 63.14 17.536 79.75 36.13 11.08 12.406 30.33 49.38 44.62 49.38 4.159-.36 7.427-3.585 9.998-8.523-13.89-48.21-58.32-83.48-111-83.48"/><path d="m49.33 64.33c39.02 0 107.68 82.68 180.63 91.07 1.861-5.784 3.285-11.765 4.219-17.905-33.16-7.22-74.85-45.921-89.85-60.5-23.44-22.791-45.31-45.667-75.33-45.667-10.24 0-19.639 1.762-27.772 4.208-15.06 14.06-26.364 32.09-32.22 52.43 12.04-12.03 25.795-23.636 40.33-23.636"/><path d="m165.12 194.12c-66.995 0-117.62-36.12-135.62-36.12-7.34 0-11.575 5.128-14.02 11.201 11.564 24.521 31.501 44.31 56.13 55.695-3.472-8.922-5.566-20.729 7.682-20.729 11.708 0 23.375 10.08 66.58 10.08 19.729 0 37.899-4.116 51.26-8.287 7.07-6.35 13.359-13.557 18.691-21.462-12.762 4.544-31.348 9.624-50.698 9.624z"/></g><g transform="translate(49.877 194.68)"><path d="m-35.21-194.22c-5.577-1.531-5.951 3.24-4.58 5.493 4.381 6.983 6.796 6.577 9.398 7.895 1.712 2.064 3.451 3.4 6.469 4.1 11.69 1.559 3.242-8.417.92-8.649-5.065.012-7.547-6.123-12.206-8.838" fill="url(#0)"/><path d="m-35.21-194.22c3.76.276 5.616-.626 8.93-.421 4.319.283 8.307 2.053 7.838 6.574-.347 2.567-.37 2.25.186 4.296.532 1.535-.252 4.232-.487 4.654-2.715 4.963-1.536 4.965-2.656 7.742l-.906-.418-2.508-11.358c-7.177-.909-10.754-10.11-10.398-11.07" fill="url(#2)"/><path d="m-28.419-184.29c.362.274 1.553-5.105 1.172-5.653 1.379 2.44 1.919 4.616 2.435 6.783-1.276-.283-2.289-.554-3.607-1.13" fill="url(#4)"/><circle r="3.01" cy="-171.07" cx="-21.728" fill="url(#5)"/></g></svg>