<svg xmlns="http://www.w3.org/2000/svg" xmlns:xlink="http://www.w3.org/1999/xlink" viewBox="0 0 32 32"><defs><linearGradient gradientTransform="matrix(-2.54182 0 0 2.58531 185.47-277.37)" id="1" x1="67.894" y1="108.69" x2="67.854" y2="113.11" gradientUnits="userSpaceOnUse"><stop stop-color="#f9f9f9"/><stop offset="1" stop-color="#999"/></linearGradient></defs><g transform="translate(32.407-4.068)"><g fill-rule="evenodd"><path d="m-30.508 20.2v8.393c0 3.089 2.486 5.574 5.574 5.574h17.05c3.089 0 5.576-2.486 5.576-5.574v-8.393z" fill="#75a9e4"/><path d="m-30.508 20.2h28.2v-8.662c0-3.089-2.488-5.574-5.576-5.574h-17.05c-3.089 0-5.574 2.486-5.574 5.574z" fill="#4384f1"/></g><g aria-label="31" transform="translate(-32.407 4.068)" fill="#fff"><path d="m9.573 18.429q.032.783.336 1.23.304.431.671.655.383.208.719.256.352.048.479.048.495 0 .895-.192.399-.208.671-.511.272-.32.415-.703.144-.383.144-.767 0-.479-.192-.879-.176-.399-.479-.671-.304-.272-.703-.415-.399-.16-.831-.16h-.607v-1.662h.575q.639 0 .991-.24.352-.256.511-.559.176-.304.192-.559.032-.256.032-.288 0-.32-.112-.607-.112-.304-.32-.527-.208-.224-.511-.352-.288-.144-.639-.144-.128 0-.367.048-.224.032-.479.192-.256.16-.463.495-.208.336-.272.927h-1.662q.064-1.01.463-1.63.399-.623.927-.959.527-.352 1.055-.463.527-.128.847-.128.703 0 1.278.256.591.24 1.01.687.431.431.671 1.039.24.591.24 1.294 0 .479-.096.831-.096.352-.256.623-.144.256-.336.463-.192.192-.399.383.511.32.815.719.32.399.495.799.176.399.224.783.064.367.064.639 0 .895-.32 1.598-.304.687-.831 1.166-.527.479-1.23.735-.687.256-1.454.256-.751 0-1.438-.272-.687-.272-1.214-.767-.527-.495-.847-1.166-.32-.687-.32-1.502"/><path d="m22.19 21.912h-1.662v-10.305h-1.742v-1.518h3.403z"/></g></g>

   xmlns:dc="http://purl.org/dc/elements/1.1/"
   xmlns:cc="http://creativecommons.org/ns#"
   xmlns:rdf="http://www.w3.org/1999/02/22-rdf-syntax-ns#"
   xmlns:svg="http://www.w3.org/2000/svg"
   xmlns="http://www.w3.org/2000/svg"
   xmlns:xlink="http://www.w3.org/1999/xlink"
   xmlns:sodipodi="http://sodipodi.sourceforge.net/DTD/sodipodi-0.dtd"
   xmlns:inkscape="http://www.inkscape.org/namespaces/inkscape"
   height="32"
   width="32"
   version="1"
   id="svg8"
   sodipodi:docname="snow-top-3.svg"
   inkscape:version="0.92.1 r"&gt;
  <path fill="#00000f" fill-opacity="0" d="m0 0h32v32h-32z" id="0"/><path d="m7.354 6.111c-2.995 2.684-1.381 7.817-3.674 8.291-2.031.613-3.541-1.385-3.66-4.503-.35-8.627 3.911-9.427 6.879-9.524 28.342-2.047 1.762 4.92.455 5.736" fill="url(#1)"/><use xlink:href="#0"/></svg>