<svg xmlns="http://www.w3.org/2000/svg" xmlns:xlink="http://www.w3.org/1999/xlink" viewBox="0 0 32 32"><defs><linearGradient gradientTransform="matrix(-2.54182 0 0 2.58531 185.47-277.37)" id="1" x1="67.894" y1="108.69" x2="67.854" y2="113.11" gradientUnits="userSpaceOnUse"><stop stop-color="#f9f9f9"/><stop offset="1" stop-color="#999"/></linearGradient></defs><rect width="28.2" height="28.2" x="1.898" y="1.898" fill="#60a300" fill-rule="evenodd" rx="5.575"/><g transform="translate(53.11-1.589)"><path d="m-37.11 7.879c-5.394 0-9.709 4.315-9.709 9.709 0 5.394 4.315 9.709 9.709 9.709.863 0 1.618-.755 1.618-1.618 0-.432-.108-.755-.432-1.079-.216-.324-.432-.647-.432-1.079 0-.863.755-1.618 1.618-1.618h1.942c3.02 0 5.394-2.374 5.394-5.394 0-4.747-4.315-8.631-9.709-8.631" fill="#fff"/><path d="m-43.828 17.589c-.797 0-1.494-.697-1.494-1.494 0-.797.697-1.494 1.494-1.494.797 0 1.494.697 1.494 1.494 0 .797-.697 1.494-1.494 1.494" fill="#fd8e08"/><path d="m-40.09 13.11c-.797 0-1.494-.697-1.494-1.494 0-.797.697-1.494 1.494-1.494.797 0 1.494.697 1.494 1.494 0 .797-.697 1.494-1.494 1.494" fill="#3f90dc"/><path d="m-34.866 13.11c-.797 0-1.494-.697-1.494-1.494 0-.797.697-1.494 1.494-1.494.797 0 1.494.697 1.494 1.494 0 .797-.697 1.494-1.494 1.494" fill="#56a913"/><path d="m-31.13 17.589c-.797 0-1.494-.697-1.494-1.494 0-.797.697-1.494 1.494-1.494.797 0 1.494.697 1.494 1.494 0 .797-.697 1.494-1.494 1.494" fill="#f35b5b"/></g>

   xmlns:dc="http://purl.org/dc/elements/1.1/"
   xmlns:cc="http://creativecommons.org/ns#"
   xmlns:rdf="http://www.w3.org/1999/02/22-rdf-syntax-ns#"
   xmlns:svg="http://www.w3.org/2000/svg"
   xmlns="http://www.w3.org/2000/svg"
   xmlns:xlink="http://www.w3.org/1999/xlink"
   xmlns:sodipodi="http://sodipodi.sourceforge.net/DTD/sodipodi-0.dtd"
   xmlns:inkscape="http://www.inkscape.org/namespaces/inkscape"
   height="32"
   width="32"
   version="1"
   id="svg8"
   sodipodi:docname="snow-top-3.svg"
   inkscape:version="0.92.1 r"&gt;
  <path fill="#00000f" fill-opacity="0" d="m0 0h32v32h-32z" id="0"/><path d="m7.354 6.111c-2.995 2.684-1.381 7.817-3.674 8.291-2.031.613-3.541-1.385-3.66-4.503-.35-8.627 3.911-9.427 6.879-9.524 28.342-2.047 1.762 4.92.455 5.736" fill="url(#1)"/><use xlink:href="#0"/></svg>