<svg xmlns="http://www.w3.org/2000/svg" viewBox="0 0 32 32"><rect width="28.2" height="28.2" x="1.898" y="1.898" fill="#285b1f" fill-rule="evenodd" rx="5.575"/><g transform="translate(44.531-2.126)"><path d="m-22.577 23.665c-3.92 4.457-7.337 4.331-9.683 2.286-3.521-3.068-6.778-14.216-4.921-16.327 1.857-2.111 13.546 1.101 16.05 3.437 2.506 2.336 2.679 5.912-1.448 10.603" fill="#fff"/><path d="m-30.817 15.5c-.929 0-1.655.261-2.181.782-.523.519-.785 1.244-.785 2.174 0 .928.262 1.652.785 2.173.525.519 1.252.778 2.181.778.425 0 .824-.053 1.199-.16.374-.109.777-.27 1.087-.481v-2.641h-1.969v.656h1.31v1.702c-.178.099-.378.173-.601.222-.223.046-.674.068-.958.068-.727 0-1.437-.194-1.804-.583-.364-.389-.573-.967-.573-1.734 0-.77.209-1.351.573-1.74.366-.389 1.077-.583 1.804-.583.369 0 .622.061.956.183.334.122.636.303.933.545v-.82c-.295-.178-.602-.312-.952-.404-.348-.092-.618-.137-1.01-.137m3.598 0v5.907h.656v-1.969h1.159c.666-.006 1.268-.134 1.608-.422.342-.287.513-.908.513-1.47 0-.557-.17-1.307-.513-1.595-.34-.29-.941-.451-1.608-.451zm.656.658h1.215c.449-.012.797.091 1.042.273.245.182.368.766.368 1.101 0 .337-.122.794-.368.977-.245.182-.593.273-1.042.273h-1.215z" fill="#b7d161"/></g>

   xmlns:dc="http://purl.org/dc/elements/1.1/"
   xmlns:cc="http://creativecommons.org/ns#"
   xmlns:rdf="http://www.w3.org/1999/02/22-rdf-syntax-ns#"
   xmlns:svg="http://www.w3.org/2000/svg"
   xmlns="http://www.w3.org/2000/svg"
   xmlns:sodipodi="http://sodipodi.sourceforge.net/DTD/sodipodi-0.dtd"
   xmlns:inkscape="http://www.inkscape.org/namespaces/inkscape"
   height="32"
   width="32"
   version="1"
   id="svg8"
   sodipodi:docname="star-mime-2.svg"
   inkscape:version="0.92.1 r"&gt;
  <g transform="translate(152.47 194.05)" fill="#fff"><path d="m-125.38-193.25l-.077 3.548 3.072 1.831-3.548-.077-3.135 6.791 1.38-7.268-3.072-1.831 3.548.077z"/><path d="m-125.41-183.04l.042-1.955-1.692-1.01 1.955.042 1.727-3.741-.76 4 1.692 1.01-1.955-.042z"/></g></svg>