<svg xmlns="http://www.w3.org/2000/svg" viewBox="0 0 32 32"><defs><linearGradient gradientTransform="matrix(2.54182 0 0 2.58531-153.47-277.37)" id="0" x1="67.894" y1="108.69" x2="67.854" y2="113.11" gradientUnits="userSpaceOnUse"><stop stop-color="#f9f9f9"/><stop offset="1" stop-color="#999"/></linearGradient></defs><rect width="28.2" height="28.2" x="1.898" y="1.898" fill="#e6e6e6" fill-rule="evenodd" rx="5.575"/><g transform="matrix(0-1-1 0 0 0)"><rect rx=".8" ry=".843" height="16" width="18.405" y="-25.602" x="-23.2" fill="#66a02c"/><rect ry=".843" rx=".8" height="16" width="18.405" y="-22.402" x="-27.2" fill="#7ebc2e"/></g><path d="m13.814 13.307c-.221 0-.429.108-.479.287-.186.686.022 1.747.369 3.068l-.105.256c-.266.648-.598 1.294-.891 1.867-1.207 2.361-2.145 3.635-2.771 3.724l-.002-.026c-.014-.295.53-1.054 1.267-1.658.077-.062.405-.379.405-.379 0 0-.443.234-.542.294-.923.551-1.383 1.103-1.457 1.47-.022.109-.008.243.088.298l.236.119c.643.322 1.433-.524 2.483-2.365 1.069-.351 2.403-.681 3.617-.86 1.087.621 2.334.917 2.813.789.091-.024.187-.096.236-.162.038-.061.092-.303.092-.303 0 0-.09.123-.164.159-.303.143-1.26-.096-2.243-.576.849-.09 1.557-.094 1.935.027.48.153.481.31.474.342.006-.026.028-.132.025-.176-.011-.115-.046-.218-.133-.303-.178-.175-.617-.263-1.215-.271-.451-.005-.991.035-1.578.119-.269-.154-.553-.324-.778-.534-.57-.533-1.048-1.272-1.345-2.101.02-.079.04-.157.057-.235.082-.371.142-1.598.142-1.598 0 0-.235.921-.272 1.06-.024.088-.053.182-.087.28-.18-.633-.271-1.246-.271-1.711 0-.131.011-.387.048-.59.018-.144.07-.219.125-.255.107.026.227.191.353.466.108.238.101.514.101.684 0 0 .116-.423.089-.672-.016-.15-.159-.536-.462-.531h-.025l-.135-.002zm.103 3.831c.314.631.747 1.23 1.314 1.711.127.107.261.209.4.304-1.031.192-2.113.461-3.12.883.182-.323.379-.675.58-1.055.39-.738.627-1.307.825-1.843z" fill="#fff" stroke="#fff" stroke-width=".5"/><path d="m16.952 23.467v2.464h2.464l6.224-6.224-2.464-2.464zm10.868-5.932c.261-.261.261-.671 0-.932l-1.54-1.54c-.261-.261-.671-.261-.932 0l-1.288 1.296 2.464 2.464z" fill="#ffdf2c"/>

   xmlns:dc="http://purl.org/dc/elements/1.1/"
   xmlns:cc="http://creativecommons.org/ns#"
   xmlns:rdf="http://www.w3.org/1999/02/22-rdf-syntax-ns#"
   xmlns:svg="http://www.w3.org/2000/svg"
   xmlns="http://www.w3.org/2000/svg"
   xmlns:xlink="http://www.w3.org/1999/xlink"
   xmlns:sodipodi="http://sodipodi.sourceforge.net/DTD/sodipodi-0.dtd"
   xmlns:inkscape="http://www.inkscape.org/namespaces/inkscape"
   height="32"
   width="32"
   version="1"
   id="svg8"
   sodipodi:docname="snow-top-2.svg"
   inkscape:version="0.92.1 r"&gt;
  <path d="m24.646 6.111c2.995 2.684 1.381 7.817 3.674 8.291 2.031.613 3.541-1.385 3.66-4.503.35-8.627-3.911-9.427-6.879-9.524-28.342-2.047-1.762 4.92-.455 5.736" fill="url(#0)"/></svg>