<svg xmlns="http://www.w3.org/2000/svg" viewBox="0 0 32 32"><defs><linearGradient gradientTransform="matrix(2.59244 0 0 2.58531-157.93-277.73)" id="0" x1="67.894" y1="108.69" x2="67.854" y2="113.11" gradientUnits="userSpaceOnUse"><stop stop-color="#f9f9f9"/><stop offset="1" stop-color="#999"/></linearGradient></defs><rect width="28.2" height="28.2" x="1.898" y="1.898" fill="#ff8a00" fill-rule="evenodd" rx="5.575"/><path d="m16.02 7c1.894.004 3.814.594 5.314 1.763 1.055 1.215-.955 2.516-1.86 1.331-2.724-1.648-6.566-1.068-8.616 1.396-1.091 1.223-1.705 2.855-1.698 4.493h1.8c-.96 1.441-1.92 2.881-2.88 4.321-.96-1.44-1.92-2.88-2.88-4.32h1.8c-.057-3.912 2.756-7.633 6.533-8.646.811-.222 1.646-.346 2.487-.338m7.903 4.68c.96 1.44 1.92 2.88 2.881 4.321h-1.8c.051 3.959-2.834 7.721-6.677 8.681-2.593.724-5.526.196-7.657-1.461-1.087-1.235.95-2.523 1.863-1.328 2.639 1.601 6.336 1.093 8.419-1.194 1.207-1.243 1.901-2.965 1.892-4.698h-1.8c.96-1.44 1.92-2.88 2.881-4.321" fill="#fff"/>

   xmlns:dc="http://purl.org/dc/elements/1.1/"
   xmlns:cc="http://creativecommons.org/ns#"
   xmlns:rdf="http://www.w3.org/1999/02/22-rdf-syntax-ns#"
   xmlns:svg="http://www.w3.org/2000/svg"
   xmlns="http://www.w3.org/2000/svg"
   xmlns:xlink="http://www.w3.org/1999/xlink"
   xmlns:sodipodi="http://sodipodi.sourceforge.net/DTD/sodipodi-0.dtd"
   xmlns:inkscape="http://www.inkscape.org/namespaces/inkscape"
   version="1"
   width="32"
   height="32"
   id="svg12"
   sodipodi:docname="snow-top-4.svg"
   inkscape:version="0.92.1 r"&gt;
  <path d="m7.196.009c-8.161-.339-9.231 9.523-3.968 9.505.669.003 1.581-.197 2.929-1.471 3.773-4.147 9.01 4.479 14.696-1.042.61-.911 1.804-1.135 2.455-.627 1.045.677 2.87 2.991 3.88 3 2.359.513 4.095-.198 4.816-3.188.185-3.165-2.303-6.286-6.281-6.17-5.832.133-12.809-.045-18.527-.01" fill="url(#0)"/></svg>