<svg xmlns="http://www.w3.org/2000/svg" viewBox="0 0 32 32"><defs><linearGradient gradientTransform="matrix(2.54182 0 0 2.58531-153.47-277.37)" id="0" x1="67.894" y1="108.69" x2="67.854" y2="113.11" gradientUnits="userSpaceOnUse"><stop stop-color="#f9f9f9"/><stop offset="1" stop-color="#999"/></linearGradient></defs><rect width="28.2" height="28.2" x="1.898" y="1.898" fill="#974fa4" fill-rule="evenodd" rx="5.575"/><g transform="translate(44.867 4.046)"><path d="m-29.15 1.517c-.216.003-.434.018-.654.042-3.436.38-5.94 3.215-5.703 6.38l-.804.09.46 4.162 2.683-.296-.461-4.164-.994.11c-.184-2.712 1.966-5.134 4.913-5.459 2.945-.326 5.584 1.563 6 4.247l-.874.097.46 4.163 2.59-.286-.46-4.163-.832.092c-.439-2.933-3.162-5.065-6.324-5.01" fill="#4d4d4d"/><path d="m-29.547 3.778c-.365.014-.685.208-.937.495-.252.287-.45.669-.618 1.118-.335.897-.54 2.812-.654 4.02-.114 1.21-.133 1.714-.081 2.758.052 1.044.154 1.856.368 2.309.188.397.406.85.5 1.259.094.409.074.736-.167 1-.241.264-.773.501-1.796.556-1.022.055-2.517-.367-4.635-.761-.341-.064-.626-.069-.873.013-.248.082-.441.264-.559.495-.236.461-.257 2.137-.292 3.01-.011.283.093.553.275.774.183.221.438.402.755.561.634.317 1.522.546 2.624.708 2.205.325 5.267.376 8.744.175h.003.004c1.28-.105 3.305-.179 5.05-.623.873-.222 1.68-.535 2.297-1.012.616-.478 1.038-1.141 1.08-1.987.039-.787-.002-1.984-.16-2.362-.158-.378-.497-.58-.844-.588-.696-.015-1.516.367-2.58.616-1.221.287-2.083.164-2.669.12-.586-.044-.879.005-1.061-.228-.181-.233-.263-.578-.301-1.016-.038-.438-.033-.957-.091-1.504-.111-1.048-.32-2.756-.793-4.948-.236-1.095-.536-2.871-.939-3.646-.202-.388-.428-.714-.7-.949-.272-.235-.599-.378-.954-.364" fill="#f2f2f2"/><path d="m-30.365909 9.845168a2.227146 4.467993 2.5216 1 1 -4.44841 -.224122 2.227146 4.467993 2.5216 1 1 4.44841 .224122" fill="#fff"/><path d="m-31.10603 10.513811a1.110428 1.495165 6.8892 0 1 -2.223572 -.07149 1.110428 1.495165 6.8892 0 1 2.223572 .07149" fill="#4d4d4d"/><path d="m-23.70182 9.497444a4.486967 2.569396 83.212 0 1 -5.118318 .471721 4.486967 2.569396 83.212 1 1 5.118318 -.471721" fill="#fff"/><path d="m-25.18356 10.580079a1.071318 1.522316 16.98 0 1 -2.155516 -.201761 1.071318 1.522316 16.98 1 1 2.155516 .201761" fill="#4d4d4d"/></g>

   xmlns:dc="http://purl.org/dc/elements/1.1/"
   xmlns:cc="http://creativecommons.org/ns#"
   xmlns:rdf="http://www.w3.org/1999/02/22-rdf-syntax-ns#"
   xmlns:svg="http://www.w3.org/2000/svg"
   xmlns="http://www.w3.org/2000/svg"
   xmlns:xlink="http://www.w3.org/1999/xlink"
   xmlns:sodipodi="http://sodipodi.sourceforge.net/DTD/sodipodi-0.dtd"
   xmlns:inkscape="http://www.inkscape.org/namespaces/inkscape"
   height="32"
   width="32"
   version="1"
   id="svg8"
   sodipodi:docname="snow-top-2.svg"
   inkscape:version="0.92.1 r"&gt;
  <path d="m24.646 6.111c2.995 2.684 1.381 7.817 3.674 8.291 2.031.613 3.541-1.385 3.66-4.503.35-8.627-3.911-9.427-6.879-9.524-28.342-2.047-1.762 4.92-.455 5.736" fill="url(#0)"/></svg>