<svg xmlns="http://www.w3.org/2000/svg" viewBox="0 0 32 32"><defs><linearGradient gradientTransform="matrix(2.54182 0 0 2.58531-153.47-277.37)" id="0" x1="67.894" y1="108.69" x2="67.854" y2="113.11" gradientUnits="userSpaceOnUse"><stop stop-color="#f9f9f9"/><stop offset="1" stop-color="#999"/></linearGradient></defs><rect width="28.2" height="28.2" x="1.898" y="1.898" fill="#ececec" fill-rule="evenodd" rx="5.575"/><g transform="translate(43.06-8.17)"><path d="m-23.521 14.565c-.242-.14-.55-.057-.69.185l-.686 1.189a9.08743 9.08743 0 0 0 -10.04616 4.274122 9.08743 9.08743 0 0 0 3.326 12.413431 9.08743 9.08743 0 0 0 12.413431 -3.326 9.08743 9.08743 0 0 0 -1.322221 -10.835247l.687-1.19c.14-.242.057-.55-.185-.69l-3.498-2.02" fill="#4f4f4f"/><path d="m-18.344 15.621c-.191-.131-.416-.22-.644-.283-.457-.125-.972-.158-1.467-.157-.988.003-1.907.053-1.907.053l1.251.722c.21-.014.432-.018.66-.019.454-.001.918.037 1.263.131.345.095.529.232.585.368.156.382.068.644-.229 1.01-.297.364-.818.754-1.393 1.153-.575.398-1.202.809-1.726 1.28-.524.471-.964 1.014-1.068 1.693-.113.739.289 1.497.662 2.131.373.634.765 1.127.765 1.127.311.419.93-.073.593-.471 0 0-.364-.458-.706-1.04-.342-.582-.614-1.306-.564-1.632.064-.415.361-.83.823-1.245.462-.415 1.068-.816 1.653-1.221.585-.406 1.152-.811 1.548-1.297.396-.486.606-1.128.343-1.771-.092-.229-.25-.401-.441-.532" fill="#bbb673" fill-rule="evenodd"/><path d="m-17.782 23.13l-.898 2.113 2.069 1.087-2.239.596.458 2.268-1.893-1.371-1.498 1.741-.122-2.305-2.326-.097 1.741-1.503-1.403-1.862 2.293.43.577-2.225 1.118 2.04z" fill="#ff6363"/></g>

   xmlns:dc="http://purl.org/dc/elements/1.1/"
   xmlns:cc="http://creativecommons.org/ns#"
   xmlns:rdf="http://www.w3.org/1999/02/22-rdf-syntax-ns#"
   xmlns:svg="http://www.w3.org/2000/svg"
   xmlns="http://www.w3.org/2000/svg"
   xmlns:xlink="http://www.w3.org/1999/xlink"
   xmlns:sodipodi="http://sodipodi.sourceforge.net/DTD/sodipodi-0.dtd"
   xmlns:inkscape="http://www.inkscape.org/namespaces/inkscape"
   height="32"
   width="32"
   version="1"
   id="svg8"
   sodipodi:docname="snow-top-2.svg"
   inkscape:version="0.92.1 r"&gt;
  <path d="m24.646 6.111c2.995 2.684 1.381 7.817 3.674 8.291 2.031.613 3.541-1.385 3.66-4.503.35-8.627-3.911-9.427-6.879-9.524-28.342-2.047-1.762 4.92-.455 5.736" fill="url(#0)"/></svg>