<svg xmlns="http://www.w3.org/2000/svg" viewBox="0 0 32 32"><defs><linearGradient gradientTransform="matrix(2.62891 0 0 2.71269-160.16-291.42)" id="0" x1="67.894" y1="108.69" x2="67.854" y2="113.11" gradientUnits="userSpaceOnUse"><stop stop-color="#f9f9f9"/><stop offset="1" stop-color="#999"/></linearGradient></defs><rect width="28.2" height="28.2" x="1.898" y="1.898" fill="#4f4f4f" fill-rule="evenodd" rx="5.575"/><path d="m7.02 9l.05.412c.091.771.187 1.02.446 1.153.134.069.267.217.296.33.056.221.198.279.198.08 0-.067-.149-.409-.331-.761-.182-.351-.331-.675-.332-.72-.001-.045-.074-.175-.164-.288zm17.959 0l-.164.206c-.089.113-.163.243-.164.288-.001.045-.151.369-.332.721-.182.351-.331.694-.331.761 0 .198.142.14.198-.08.029-.112.162-.26.296-.33.26-.134.355-.382.446-1.153zm-18.802.454c-.05 0-.06.06-.025.143.14.332.143.515.008.515-.073 0-.134.028-.134.063 0 .13.271.444.443.513.204.082.383.101.383.04 0-.023-.037-.108-.081-.187-.044-.079-.119-.299-.167-.489-.087-.347-.268-.598-.428-.598m19.644 0c-.16 0-.341.252-.428.598-.048.19-.123.41-.167.489-.044.079-.081.163-.081.187 0 .061.181.042.385-.04.172-.069.441-.384.441-.513 0-.035-.06-.063-.134-.063-.135 0-.132-.183.008-.515.035-.083.025-.143-.025-.143m-9.849.204c.028.072.002.124-.063.124-.273 0-.38.989-.174 1.604.055.165.054.165-.046 0-.166-.273-.429-.536-.539-.536-.057 0-.129.112-.159.248-.03.136-.089.248-.134.248-.045 0-.059-.037-.031-.082.028-.045.018-.143-.025-.219-.069-.123-.087-.119-.172.039-.074.137-.068.241.03.475.159.378.158.444-.005.444-.172 0-.102.199.083.235.163.031.461-.205.461-.365 0-.058.041-.13.091-.161.129-.079.273.091.188.224-.039.06-.07.134-.071.164-.001.03-.106.137-.233.236-.295.231-.286.599.015.642.114.016.173-.006.144-.053-.029-.047.032-.045.145.008.107.05.233.196.281.322.085-.004.164-.014.24-.031.076.017.155.027.24.031.048-.126.176-.271.283-.322.113-.053.173-.055.144-.008-.029.047.032.069.145.053.301-.042.308-.411.013-.642-.128-.1-.232-.207-.233-.236-.001-.03-.033-.104-.071-.164-.084-.132.059-.303.188-.224.049.03.091.103.091.161 0 .16.298.397.461.365.185-.036.255-.235.083-.235-.163 0-.164-.066-.005-.444.098-.234.105-.337.031-.475-.085-.158-.103-.162-.172-.039-.042.075-.054.174-.026.219.028.045.013.082-.031.082-.045 0-.104-.112-.134-.248-.03-.136-.102-.248-.159-.248-.109 0-.373.263-.539.536-.1.165-.102.165-.046 0 .206-.615.1-1.604-.174-1.604-.065 0-.091-.052-.063-.124-.009.01-.017.02-.026.031-.009-.01-.017-.02-.026-.031m-10.881.23c-.155.054-.102 1.086.069 1.346.128.194.128.211.008.166-.165-.063-.17.049-.017.341.176.336.53.629 1.102.914.284.141.516.269.516.285 0 .089-.787-.136-.967-.277-.329-.258-.478-.216-.263.074.098.132.158.297.132.364-.052.135.17.362.603.621.361.216.438.218.372.01-.069-.216-.029-.208.21.045.164.174.171.201.041.151-.117-.045-.138-.033-.088.048.066.107-.076.094-.565-.051-.128-.038-.143-.014-.093.148.134.431.356.622.899.777.293.083.514.182.491.219-.051.082-.608-.011-.752-.124-.149-.118-.136.185.018.404.138.195.694.479 1.365.693l.454.145-.413-.039c-.227-.021-.511-.052-.631-.071-.184-.028-.213-.009-.177.127.062.236.483.559.79.606.146.022.452.072.679.111l.413.072-.37.105c-.204.058-.513.086-.688.063-.309-.041-.314-.039-.198.135.167.252.567.468 1.026.553l.395.072-.476-.032c-.261-.018-.474-.004-.474.032 0 .036.098.164.218.283.232.231.324.248 1.228.227l.578-.014-.496.216c-.602.261-.703.345-.537.447.101.062.07.131-.177.388-.165.172-.44.496-.61.722-.772 1.026-1.179 1.358-1.669 1.358-.426 0-.468.135-.064.211.404.075.955-.02 1.4-.244.541-.273.507-.132-.078.325-.161.126-.16.128.041.077.114-.029.384-.159.6-.29.413-.249.478-.26.258-.04-.187.186-.077.257.195.125.125-.06.292-.102.37-.092.078.01.316-.141.529-.336.218-.199.349-.278.297-.182-.05.094-.151.218-.221.277-.071.058-.127.139-.127.179 0 .161.197.052.616-.343.26-.245.464-.381.496-.33.03.048.01.087-.043.087-.053 0-.074.056-.048.124.029.075 0 .122-.074.122-.067 0-.121.036-.121.079 0 .165.506-.104.625-.333.161-.309.21-.302.145.021-.037.186-.025.243.043.201.053-.032.096-.115.096-.182 0-.07.061-.112.142-.098.097.017.215-.107.37-.388.18-.325.228-.369.23-.216.002.153.036.186.165.153.134-.035.114.019-.116.298-.298.362-.464.795-.304.795.05 0 .091-.033.091-.074 0-.041.122-.116.269-.166l.268-.09-.271.214c-.37.293-.76.99-.755 1.349v.002c.004.256.015.27.102.13.273-.435.625-.729 1.22-1.023l.654-.325v.238c0 .131.037.238.083.238.045 0 .083-.075.083-.167 0-.092.074-.311.164-.486.2-.391 1.313-1.27 1.628-1.314.302.023 1.425.918 1.628 1.314.09.175.164.393.164.486 0 .092.037.169.083.169.045 0 .083-.109.083-.24v-.238l.654.325c.595.294.946.588 1.22 1.023.088.139.099.126.102-.13v-.002c.005-.36-.385-1.055-.755-1.348l-.271-.216.268.09c.148.05.269.125.269.166 0 .041.041.074.091.074.159 0-.006-.432-.304-.795-.229-.278-.249-.332-.116-.298.129.034.164.001.165-.153.002-.154.05-.108.23.217.155.281.273.403.37.386.081-.014.142.028.142.098 0 .067.043.149.096.182.068.042.08-.015.043-.201-.065-.323-.015-.33.145-.021.119.229.625.498.625.333 0-.043-.054-.079-.121-.079-.074 0-.103-.047-.074-.122.026-.068.005-.124-.048-.124-.053 0-.073-.039-.043-.087.032-.051.236.085.496.33.419.395.616.505.616.344 0-.04-.057-.122-.127-.18-.071-.058-.171-.182-.221-.277-.051-.096.079-.016.297.183.213.195.451.345.529.335.078-.01.245.031.37.092.272.131.382.06.195-.125-.221-.22-.156-.209.258.04.216.13.486.261.6.29.201.051.202.049.041-.077-.584-.457-.618-.597-.078-.325.445.224.996.32 1.4.244.403-.075.362-.211-.064-.211-.491 0-.897-.33-1.669-1.356-.17-.226-.445-.552-.61-.724-.247-.257-.278-.325-.177-.388.165-.102.065-.186-.537-.447l-.496-.216.578.014c.904.021.996.004 1.228-.227.12-.119.218-.247.218-.283 0-.036-.213-.05-.474-.032l-.476.032.395-.072c.46-.085.859-.301 1.026-.553.115-.174.111-.176-.198-.135-.174.023-.484-.005-.688-.063l-.37-.105.414-.073c.227-.039.533-.089.679-.111.307-.047.728-.37.79-.606.036-.136.007-.155-.177-.127-.12.018-.404.05-.631.071l-.413.039.454-.145c.671-.214 1.228-.498 1.365-.693.154-.219.167-.522.018-.404-.144.113-.701.206-.752.124-.023-.037.198-.135.491-.219.543-.155.765-.344.899-.775.051-.162.036-.188-.093-.15-.489.145-.632.158-.565.051.05-.081.029-.093-.088-.048-.129.049-.123.023.041-.151.239-.253.279-.261.21-.045-.067.209.011.206.372-.01.433-.258.655-.486.603-.621-.026-.066.034-.231.132-.364.215-.29.066-.332-.263-.074-.179.14-.967.366-.967.277 0-.016.232-.144.516-.285.572-.284.926-.577 1.102-.914.153-.292.149-.402-.017-.339-.12.046-.12.027.008-.167.171-.26.225-1.292.069-1.346-.053-.018-.118.041-.147.13-.029.09-.209.318-.4.508-.191.19-.287.325-.212.299.223-.076.251.041.058.246-.207.22-.384.246-.453.068-.061-.159-.108-.156-.79.047l-.57.167-.261.542c-.219.457-.349.608-.841.972-.321.237-.654.509-.739.603-.201.223-.124.547.165.698.21.11.197.117-.549.384-1.066.383-1.446.35-1.385-.121.021-.161.197-.274.704-.458.334-.122.348-.243.026-.243-.397 0-.366-.141.079-.364.893-.446 1.976-1.383 2.19-1.892.101-.241.079-.712-.033-.705-.029.002-.139.19-.246.417-.303.642-1.444 1.445-2.491 1.75-.626.183-1.271.569-1.547.928-.439.572-.726.836-.973.891l-.248.056.283-.191c.376-.255.432-.422.117-.351l-.235.053.207-.145c.32-.225.659-.554.659-.639 0-.042-.073-.057-.164-.034-.134.035-.112-.021.117-.299.298-.362.464-.793.304-.793-.05 0-.093.033-.093.074 0 .041-.12.116-.268.166l-.269.09.273-.216c.37-.293.76-.988.755-1.348-.003-.256-.015-.271-.102-.132-.273.435-.625.729-1.22 1.023l-.655.325v-.238c0-.131-.037-.238-.083-.238-.045 0-.083.075-.083.167 0 .34-.342.827-.873 1.242-.614.481-.747.688-.833 1.313l-.086.122-.086-.122c-.085-.624-.217-.832-.831-1.313-.531-.415-.874-.901-.874-1.24 0-.092-.037-.169-.083-.169-.045 0-.083.109-.083.24v.238l-.654-.325c-.595-.294-.946-.59-1.22-1.025-.088-.139-.099-.124-.102.132-.005.36.385 1.057.755 1.349l.273.216-.269-.092c-.148-.05-.268-.125-.268-.166 0-.041-.042-.074-.093-.074-.159 0 .006.431.304.793.229.278.251.334.117.299-.09-.024-.164-.007-.164.035 0 .085.339.412.659.637l.207.145-.235-.053c-.315-.072-.259.096.117.351l.283.191-.248-.056c-.247-.055-.534-.317-.973-.89-.276-.359-.921-.747-1.547-.929-1.047-.306-2.189-1.109-2.491-1.75-.107-.227-.217-.414-.246-.415-.112-.007-.134.462-.033.703.214.509 1.297 1.445 2.19 1.892.445.223.476.364.079.364-.322 0-.308.121.026.243.508.184.683.299.704.46.061.471-.319.503-1.385.121-.746-.268-.759-.276-.549-.386.289-.151.366-.475.165-.698-.085-.095-.418-.366-.739-.603-.492-.364-.622-.515-.841-.972l-.261-.54-.57-.169c-.682-.202-.729-.206-.79-.047-.069.179-.244.152-.451-.067-.193-.205-.167-.32.056-.245.075.026-.02-.11-.212-.301-.191-.19-.371-.418-.4-.508-.029-.09-.094-.148-.147-.13zm1.62 1.837c.044-.01.142.014.289.076.151.064.333.231.413.381.078.148.26.391.403.539v.002c.143.148.236.267.207.265-.129-.009-.569-.284-.797-.498-.136-.128-.343-.267-.456-.312-.144-.057-.162-.085-.061-.088.168-.006.187-.095.048-.233-.078-.077-.09-.122-.046-.132m18.578 0c.044.01.031.055-.046.132-.139.138-.12.227.048.233.101.003.081.032-.063.088-.114.045-.318.184-.454.312-.228.214-.668.489-.797.497-.03.002.063-.117.207-.265v-.002c.143-.148.323-.391.402-.539.08-.15.262-.318.413-.381.147-.062.247-.085.291-.076m-9.429.074c.047-.029.061.004.033.077-.055.143-.114.168-.114.05 0-.043.036-.099.081-.127m.235 0c.006-.014.021-.014.045 0 .045.028.081.084.081.127 0 .118-.059.093-.114-.05-.014-.037-.017-.063-.012-.077" fill="#b4b4b4"/>

   xmlns:dc="http://purl.org/dc/elements/1.1/"
   xmlns:cc="http://creativecommons.org/ns#"
   xmlns:rdf="http://www.w3.org/1999/02/22-rdf-syntax-ns#"
   xmlns:svg="http://www.w3.org/2000/svg"
   xmlns="http://www.w3.org/2000/svg"
   xmlns:xlink="http://www.w3.org/1999/xlink"
   xmlns:sodipodi="http://sodipodi.sourceforge.net/DTD/sodipodi-0.dtd"
   xmlns:inkscape="http://www.inkscape.org/namespaces/inkscape"
   version="1"
   width="32"
   height="32"
   id="svg12"
   sodipodi:docname="snow-top-1.svg"
   inkscape:version="0.92.1 r"&gt;
  <path d="m7.288.009c-8.276-.356-9.36 9.992-4.02 9.973.679.003 1.604-.207 2.97-1.543 7.256-10.531 14.706 3.573 17.53.919 1.71-1.912 3.496-.418 4.448.115 2.1.643 3.662.041 3.785-3.231.188-3.321-1.889-6.344-5.923-6.223-5.914.14-12.989-.047-18.787-.01" fill="url(#0)"/><path fill="#f00" fill-opacity="0" d="m0 0h32v32h-32z"/></svg>