<svg xmlns="http://www.w3.org/2000/svg" viewBox="0 0 32 32"><defs><linearGradient gradientTransform="matrix(2.59244 0 0 2.58531-157.93-277.73)" id="0" x1="67.894" y1="108.69" x2="67.854" y2="113.11" gradientUnits="userSpaceOnUse"><stop stop-color="#f9f9f9"/><stop offset="1" stop-color="#999"/></linearGradient></defs><rect width="28.2" height="28.2" x="1.898" y="1.898" fill="#0286c2" fill-rule="evenodd" rx="5.575"/><g transform="translate(-.5.495)"><path d="M16.582031 12.00195A3.500088 3.499737 29.999268 0 0 13.46875 13.75 3.500088 3.499737 29.999268 0 0 14.75 18.53125 3.500088 3.499737 29.999268 0 0 19.53125 17.25 3.500088 3.499737 29.999268 0 0 18.25 12.46875 3.500088 3.499737 29.999268 0 0 16.582031 12.00195m-.152343 2A1.500037 1.499887 29.999268 0 1 17.25 14.201172 1.500037 1.499887 29.999268 0 1 17.798828 16.25 1.500037 1.499887 29.999268 0 1 15.75 16.798828 1.500037 1.499887 29.999268 0 1 15.201172 14.75 1.500037 1.499887 29.999268 0 1 16.429688 14.00195" fill="#cae8ff"/><g transform="matrix(.70711-.70711.70711.70711-6.127 16.207)" fill="#71c1ff"><path d="m21 14h6l-1.5 3h-4.5"/><path d="M16.5 5A10.5 10.5 0 0 0 6 15.5 10.5 10.5 0 0 0 16.5 26 10.5 10.5 0 0 0 27 15.5 10.5 10.5 0 0 0 26.878906 14H23.84A7.5 7.5 0 0 1 24 15.5 7.5 7.5 0 0 1 16.5 23 7.5 7.5 0 0 1 9 15.5 7.5 7.5 0 0 1 16.5 8a7.5 7.5 0 0 1 5.990234 3h3.482A10.5 10.5 0 0 0 16.5 5"/></g></g>

   xmlns:dc="http://purl.org/dc/elements/1.1/"
   xmlns:cc="http://creativecommons.org/ns#"
   xmlns:rdf="http://www.w3.org/1999/02/22-rdf-syntax-ns#"
   xmlns:svg="http://www.w3.org/2000/svg"
   xmlns="http://www.w3.org/2000/svg"
   xmlns:xlink="http://www.w3.org/1999/xlink"
   xmlns:sodipodi="http://sodipodi.sourceforge.net/DTD/sodipodi-0.dtd"
   xmlns:inkscape="http://www.inkscape.org/namespaces/inkscape"
   version="1"
   width="32"
   height="32"
   id="svg12"
   sodipodi:docname="snow-top-4.svg"
   inkscape:version="0.92.1 r"&gt;
  <path d="m7.196.009c-8.161-.339-9.231 9.523-3.968 9.505.669.003 1.581-.197 2.929-1.471 3.773-4.147 9.01 4.479 14.696-1.042.61-.911 1.804-1.135 2.455-.627 1.045.677 2.87 2.991 3.88 3 2.359.513 4.095-.198 4.816-3.188.185-3.165-2.303-6.286-6.281-6.17-5.832.133-12.809-.045-18.527-.01" fill="url(#0)"/></svg>