<svg xmlns="http://www.w3.org/2000/svg" viewBox="0 0 32 32" xmlns:xlink="http://www.w3.org/1999/xlink"><defs><linearGradient id="4" x1="-178.12" y1="-134.12" x2="-183.59" y2="-135.1" gradientUnits="userSpaceOnUse"><stop stop-color="#7c0000"/><stop offset="1" stop-color="#7c0000" stop-opacity="0"/></linearGradient><linearGradient id="3" x1="-189.8" y1="-142.57" x2="-175.35" y2="-130.4" gradientUnits="userSpaceOnUse"><stop stop-color="#ff383f"/><stop offset="1" stop-color="#a02d26"/></linearGradient><linearGradient id="2"><stop stop-color="#f9f9f9"/><stop offset="1" stop-color="#999"/></linearGradient><linearGradient xlink:href="#2" id="1" x1="-188.02" y1="-134.18" x2="-190.66" y2="-126.24" gradientUnits="userSpaceOnUse"/><radialGradient xlink:href="#2" id="5" cx="-176.59" cy="-120.91" r="3.01" gradientUnits="userSpaceOnUse" gradientTransform="matrix(2.21087.05719-.05496 2.12455 207.3 145.17)"/></defs><rect width="28.2" height="28.2" x="1.898" y="1.898" fill="#79de7d" fill-rule="evenodd" rx="5.575"/><g transform="matrix(.6963 0 0 .6963 4.859 4.859)" stroke-width="1.436"><circle cy="16" r="14" cx="16" fill="#3f9142"/><circle cy="16" r="12" cx="16" fill="#79de7d"/><path d="m23 17.3c0 2.205-.551 3.874-1.653 5.01-1.103 1.127-2.753 1.691-4.95 1.691-1.546 0-2.881-.339-4-1.017-1.117-.685-1.961-1.634-2.534-2.847-.573-1.22-.859-2.636-.859-4.249 0-1.527.301-2.886.902-4.078.602-1.191 1.468-2.122 2.598-2.793 1.131-.678 2.441-1.017 3.929-1.017 1.639 0 2.981.417 4.03 1.252 1.052.835 1.906 2.335 2.314 3.748h-2.769c-.265-.656-.832-1.575-1.455-2-.623-.428-1.342-.642-2.158-.642-1.317 0-2.448.524-3.393 1.573-.945 1.042-1.417 2.358-1.417 3.949 0 1.07.189 2.04.569 2.91.386.863.945 1.555 1.675 2.076.737.521 1.585.781 2.544.781.752 0 1.417-.093 1.997-.278.587-.193 1.066-.499 1.439-.92.378-.428.579-.84.6-1.446h-3.402v-2h6" fill="#3f9142"/></g><path d="m32 .157l-.27 2.221-.122-2.378" fill="#f9f9f9" id="0"/><use xlink:href="#0"/><path d="m32 .113l-.27 1.6-.122-1.713" fill="#f9f9f9"/><g transform="matrix(-1 0 0 1-172.76 143.72)"><path d="m-190.09-143.27c-5.577-1.531-5.951 3.24-4.58 5.493 4.381 6.983 6.796 6.577 9.398 7.895 1.712 2.064 3.451 3.4 6.469 4.1 11.69 1.559 3.242-8.417.92-8.649-5.065.012-7.547-6.123-12.206-8.838" fill="url(#1)"/><path d="m-190.09-143.27c3.76.276 5.616-.626 8.93-.421 4.319.283 8.307 2.053 7.838 6.574-.347 2.567-.37 2.25.186 4.296.532 1.535-.252 4.232-.487 4.654-2.715 4.963-1.536 4.965-2.656 7.742l-.906-.418-2.508-11.358c-7.177-.909-10.754-10.11-10.398-11.07" fill="url(#3)"/><path d="m-183.3-133.33c.362.274 1.553-5.105 1.172-5.653 1.379 2.44 1.919 4.616 2.435 6.783-1.276-.283-2.289-.554-3.607-1.13" fill="url(#4)"/><circle r="3.01" cy="-120.11" cx="-176.61" fill="url(#5)"/></g></svg>