<svg xmlns="http://www.w3.org/2000/svg" viewBox="0 0 32 32"><defs><linearGradient gradientTransform="matrix(-2.65552 0 0 2.58531 193.77-277.73)" id="0" x1="67.894" y1="108.69" x2="67.854" y2="113.11" gradientUnits="userSpaceOnUse"><stop stop-color="#f9f9f9"/><stop offset="1" stop-color="#999"/></linearGradient></defs><rect width="28.2" height="28.2" x="1.898" y="1.898" fill="#d54747" fill-rule="evenodd" rx="5.575"/><path d="m16.02 8.01c-.779-.008-1.553.103-2.303.301-3.497.901-5.768 4.208-5.715 7.686h-2l3 4.01 3-4.01h-2c-.007-1.456.229-2.907 1.238-3.994 1.761-1.992 5.255-2.807 7.777-1.342.838 1.053 2.697-.104 1.721-1.184-1.389-1.038-2.966-1.463-4.719-1.467m6.982 3.986l-3 4.01h2c.007 1.456-.229 2.907-1.238 3.994-1.898 2.191-5.255 2.807-7.777 1.342-.838-1.053-2.697.102-1.721 1.182 1.389 1.038 2.966 1.465 4.719 1.469l.002-.002c.779.008 1.551-.101 2.301-.299 3.497-.901 5.768-4.208 5.715-7.686h2z" fill="#ffad87"/>

   xmlns:dc="http://purl.org/dc/elements/1.1/"
   xmlns:cc="http://creativecommons.org/ns#"
   xmlns:rdf="http://www.w3.org/1999/02/22-rdf-syntax-ns#"
   xmlns:svg="http://www.w3.org/2000/svg"
   xmlns="http://www.w3.org/2000/svg"
   xmlns:xlink="http://www.w3.org/1999/xlink"
   xmlns:sodipodi="http://sodipodi.sourceforge.net/DTD/sodipodi-0.dtd"
   xmlns:inkscape="http://www.inkscape.org/namespaces/inkscape"
   version="1"
   width="32"
   height="32"
   id="svg12"
   sodipodi:docname="snow-top-3.svg"
   inkscape:version="0.92.1 r"&gt;
  <path d="m24.627.009c8.36-.339 9.455 9.523 4.064 9.505-.686.003-1.62-.197-3-1.471-14.665-10.216-14.549 2.967-17.708.875-1.727-1.822-1.743 4.653-4.139 5.127-2.122.613-3.699-1.385-3.824-4.503-.366-8.627 4.086-9.427 7.187-9.524 5.974.133 11.562-.045 17.419-.01" fill="url(#0)"/></svg>