<svg xmlns="http://www.w3.org/2000/svg" xmlns:xlink="http://www.w3.org/1999/xlink" viewBox="0 0 32 32"><defs><linearGradient gradientTransform="matrix(-2.54182 0 0 2.58531 185.47-277.37)" id="1" x1="67.894" y1="108.69" x2="67.854" y2="113.11" gradientUnits="userSpaceOnUse"><stop stop-color="#f9f9f9"/><stop offset="1" stop-color="#999"/></linearGradient></defs><rect width="28.2" height="28.2" x="1.898" y="1.898" fill="#78ac3d" fill-rule="evenodd" rx="5.575"/><path d="m15.391 9.868c-3.113.314-5.568 2.936-5.568 6.083 0 3.358 2.8 6.121 6.211 6.121.512 0 1.01-.101 1.482-.217.044-.1.122-.27.088-.404-.031-.124-.134-.262-.249-.326-.423.104-.865.198-1.321.198-3.02 0-5.456-2.401-5.456-5.372 0-2.833 2.218-5.141 5.04-5.351.109-.116.151-.241.13-.405-.021-.169-.071-.272-.267-.312z" fill="#ffee57" stroke="#ffee57" stroke-width=".376"/><g stroke-width=".676"><path d="m14.06 6.53c-.201.022-.377.186-.414.385l-.398 2.027c-.717.28-1.393.665-1.984 1.139l-1.967-.666c-.205-.07-.453.023-.563.209l-1.895 3.283c-.107.189-.061.45.104.592l1.568 1.377c-.055.369-.088.741-.088 1.125 0 .384.033.756.088 1.125l-1.568 1.375c-.165.141-.21.403-.104.592l1.895 3.285c.11.186.358.278.563.207l1.967-.666c.591.473 1.267.86 1.984 1.141l.398 2.025c.041.212.243.382.459.385h3.787c.216-.003.418-.173.459-.385l.4-2.025c.717-.28 1.391-.667 1.982-1.141l1.969.666c.204.07.453-.021.563-.207l1.893-3.285c.107-.189.061-.45-.104-.592l-1.568-1.375c.055-.369.09-.741.09-1.125 0-.384-.035-.756-.09-1.125l1.568-1.377c.165-.141.21-.403.104-.592l-1.893-3.283c-.11-.187-.358-.279-.563-.209l-1.969.666c-.592-.474-1.265-.858-1.982-1.139l-.4-2.027c-.041-.212-.241-.382-.457-.385h-3.789c-.015 0-.03 0-.045 0m1.939 3.383c3.358 0 6.088 2.73 6.088 6.088 0 3.358-2.73 6.088-6.088 6.088-3.358 0-6.088-2.73-6.088-6.088 0-3.358 2.73-6.088 6.088-6.088m0 .715c-2.971 0-5.371 2.402-5.371 5.373 0 2.971 2.4 5.371 5.371 5.371 2.971 0 5.371-2.4 5.371-5.371 0-2.971-2.4-5.373-5.371-5.373" fill="#fff"/><path d="m16 11.941c2.241 0 4.059 1.817 4.059 4.059 0 2.241-1.817 4.059-4.059 4.059-2.241 0-4.059-1.817-4.059-4.059 0-2.241 1.817-4.059 4.059-4.059" fill="#78ac3d"/></g>

   xmlns:dc="http://purl.org/dc/elements/1.1/"
   xmlns:cc="http://creativecommons.org/ns#"
   xmlns:rdf="http://www.w3.org/1999/02/22-rdf-syntax-ns#"
   xmlns:svg="http://www.w3.org/2000/svg"
   xmlns="http://www.w3.org/2000/svg"
   xmlns:xlink="http://www.w3.org/1999/xlink"
   xmlns:sodipodi="http://sodipodi.sourceforge.net/DTD/sodipodi-0.dtd"
   xmlns:inkscape="http://www.inkscape.org/namespaces/inkscape"
   height="32"
   width="32"
   version="1"
   id="svg8"
   sodipodi:docname="snow-top-3.svg"
   inkscape:version="0.92.1 r"&gt;
  <path fill="#00000f" fill-opacity="0" d="m0 0h32v32h-32z" id="0"/><path d="m7.354 6.111c-2.995 2.684-1.381 7.817-3.674 8.291-2.031.613-3.541-1.385-3.66-4.503-.35-8.627 3.911-9.427 6.879-9.524 28.342-2.047 1.762 4.92.455 5.736" fill="url(#1)"/><use xlink:href="#0"/></svg>