<svg xmlns="http://www.w3.org/2000/svg" xmlns:xlink="http://www.w3.org/1999/xlink" viewBox="0 0 32 32"><defs><linearGradient id="4" x1="-178.12" y1="-134.12" x2="-183.59" y2="-135.1" gradientUnits="userSpaceOnUse"><stop stop-color="#7c0000"/><stop offset="1" stop-color="#7c0000" stop-opacity="0"/></linearGradient><linearGradient id="3" x1="-189.8" y1="-142.57" x2="-175.35" y2="-130.4" gradientUnits="userSpaceOnUse"><stop stop-color="#ff383f"/><stop offset="1" stop-color="#a02d26"/></linearGradient><linearGradient id="2"><stop stop-color="#f9f9f9"/><stop offset="1" stop-color="#999"/></linearGradient><linearGradient xlink:href="#2" id="1" x1="-188.02" y1="-134.18" x2="-190.66" y2="-126.24" gradientUnits="userSpaceOnUse"/><radialGradient xlink:href="#2" id="5" cx="-176.59" cy="-120.91" r="3.01" gradientUnits="userSpaceOnUse" gradientTransform="matrix(2.21087.05719-.05496 2.12455 207.3 145.17)"/></defs><g fill-rule="evenodd"><g fill="#3465a4"><rect width="28.2" height="28.2" x="1.898" y="1.898" rx="5.575"/><path d="m4.082 28.846c-.014-.209-.086-.352-.088-.578-.016-1.571.26-3.432.26-3.432l3.242-17.197.604.008-2.938-5.219c-1.92.879-3.264 2.788-3.264 5.04v17.05c0 1.786.885 3.3 2.184 4.318"/></g><path d="m27.82 28.912c.028-.261.132-.446.131-.734-.004-1.57-.523-3.412-.523-3.412l-3.613-16.914-.375-.006-.477.793-14.352-.082-.512-.91-.604-.008-3.242 17.197c0 0-.276 1.86-.26 3.432.002.226.074.369.088.578.947.743 2.088 1.256 3.391 1.256h17.05c1.26 0 2.363-.49 3.295-1.189" fill="#555753"/><path d="m26.74 2.363l-3.301 5.482.375.006 3.613 16.914c0 0 .52 1.842.523 3.412.001.288-.103.473-.131.734 1.352-1.015 2.281-2.556 2.281-4.385v-17.05c0-2.299-1.384-4.254-3.361-5.109" fill="#3465a4"/><path d="m5.162 2.428l3.449 6.129 14.352.082 3.777-6.275c-.68-.294-1.425-.465-2.215-.465h-17.05c-.832 0-1.603.205-2.311.529" fill="#9a9c97"/><g color="#000"><path d="m8.691 10.971l-1.496 11.287c-.053.336-.027.778.319.778h16.738c.279 0 .439-.265.372-.778l-2.131-11.222z" fill="#3465a4"/><g stroke-width=".694"><g fill="#888a85" stroke="#555753"><ellipse ry="1.062" rx=".771" cy="8.559" cx="10.499"/><ellipse ry="1.062" rx=".771" cy="8.559" cx="21.324"/></g><path d="m8.603 16.03h14.05" stroke-linecap="round" fill="#fff" stroke-linejoin="round" stroke="#fff"/></g><g stroke-opacity=".684" fill="none" stroke-linejoin="round" stroke-linecap="round" stroke-width="1.67"><path d="m11.847 27.586h2.415" stroke="#fce94f"/><g stroke="#babdb6"><path d="m16.658 27.586h.009"/><path d="m19.06 27.586h.009"/><path d="m21.469 27.586h.009"/></g></g><path d="m11.799 27.532h2.527" opacity=".369" fill="#9a9c97"/></g></g><path d="m32 .157l-.27 2.221-.122-2.378" fill="#f9f9f9" id="0"/><use xlink:href="#0"/><path d="m32 .113l-.27 1.6-.122-1.713" fill="#f9f9f9"/><g transform="matrix(-1 0 0 1-172.76 143.72)"><path d="m-190.09-143.27c-5.577-1.531-5.951 3.24-4.58 5.493 4.381 6.983 6.796 6.577 9.398 7.895 1.712 2.064 3.451 3.4 6.469 4.1 11.69 1.559 3.242-8.417.92-8.649-5.065.012-7.547-6.123-12.206-8.838" fill="url(#1)"/><path d="m-190.09-143.27c3.76.276 5.616-.626 8.93-.421 4.319.283 8.307 2.053 7.838 6.574-.347 2.567-.37 2.25.186 4.296.532 1.535-.252 4.232-.487 4.654-2.715 4.963-1.536 4.965-2.656 7.742l-.906-.418-2.508-11.358c-7.177-.909-10.754-10.11-10.398-11.07" fill="url(#3)"/><path d="m-183.3-133.33c.362.274 1.553-5.105 1.172-5.653 1.379 2.44 1.919 4.616 2.435 6.783-1.276-.283-2.289-.554-3.607-1.13" fill="url(#4)"/><circle r="3.01" cy="-120.11" cx="-176.61" fill="url(#5)"/></g></svg>