<svg xmlns="http://www.w3.org/2000/svg" viewBox="0 0 32 32"><defs><linearGradient gradientTransform="matrix(2.59244 0 0 2.58531-157.93-277.73)" id="0" x1="67.894" y1="108.69" x2="67.854" y2="113.11" gradientUnits="userSpaceOnUse"><stop stop-color="#f9f9f9"/><stop offset="1" stop-color="#999"/></linearGradient></defs><rect width="28.2" height="28.2" x="1.898" y="1.898" fill="#cb4444" fill-rule="evenodd" rx="5.575"/><path d="m15 8v6h2v-6m.039 2.084c.119.018.239.04.357.064-.118-.025-.238-.046-.357-.064zm-2.334.041c-.109.022-.218.047-.326.074.108-.027.217-.052.326-.074m3.01.094c.121.031.242.066.361.104-.12-.038-.24-.072-.361-.104m-3.697.074c-.102.032-.204.065-.305.102.101-.036.202-.07.305-.102m4.414.146c.063.023.127.047.189.072-.063-.025-.126-.049-.189-.072m-4.973.047c-2.685 1.047-4.454 3.632-4.457 6.514 0 3.866 3.134 7 7 7 3.866 0 7-3.134 7-7-.004-2.799-1.673-5.327-4.246-6.428l-.754 1.848a5 5 0 0 1 3 4.58 5 5 0 0 1 -5 5 5 5 0 0 1 -5 -5 5 5 0 0 1 3.064 -4.605l-.607-1.909" fill="#fff"/>

   xmlns:dc="http://purl.org/dc/elements/1.1/"
   xmlns:cc="http://creativecommons.org/ns#"
   xmlns:rdf="http://www.w3.org/1999/02/22-rdf-syntax-ns#"
   xmlns:svg="http://www.w3.org/2000/svg"
   xmlns="http://www.w3.org/2000/svg"
   xmlns:xlink="http://www.w3.org/1999/xlink"
   xmlns:sodipodi="http://sodipodi.sourceforge.net/DTD/sodipodi-0.dtd"
   xmlns:inkscape="http://www.inkscape.org/namespaces/inkscape"
   version="1"
   width="32"
   height="32"
   id="svg12"
   sodipodi:docname="snow-top-4.svg"
   inkscape:version="0.92.1 r"&gt;
  <path d="m7.196.009c-8.161-.339-9.231 9.523-3.968 9.505.669.003 1.581-.197 2.929-1.471 3.773-4.147 9.01 4.479 14.696-1.042.61-.911 1.804-1.135 2.455-.627 1.045.677 2.87 2.991 3.88 3 2.359.513 4.095-.198 4.816-3.188.185-3.165-2.303-6.286-6.281-6.17-5.832.133-12.809-.045-18.527-.01" fill="url(#0)"/></svg>