<svg xmlns="http://www.w3.org/2000/svg" xmlns:xlink="http://www.w3.org/1999/xlink" viewBox="0 0 32 32"><defs><clipPath><path d="m108.81 58c-1.56 0-2.81 1.254-2.81 2.812v24.375c0 1.559 1.25 2.813 2.81 2.813h24.375c1.57 0 2.82-1.254 2.82-2.812v-24.375c0-1.559-1.25-2.813-2.81-2.813h-24.375zm7.188 4.5h10v8.75h5l-10 13.75-10-13.75h5v-8.75"/></clipPath><filter color-interpolation-filters="sRGB"><feGaussianBlur stdDeviation="1.71"/></filter><filter color-interpolation-filters="sRGB"><feGaussianBlur stdDeviation="1.2"/></filter><filter color-interpolation-filters="sRGB"><feGaussianBlur stdDeviation=".637"/></filter><linearGradient id="0"><stop stop-color="#fff"/><stop offset="1" stop-color="#fff" stop-opacity="0"/></linearGradient><linearGradient x2="0" y1="92.54" y2="7.02" gradientTransform="scale(1.0059.99417)" gradientUnits="userSpaceOnUse"><stop/><stop offset="1" stop-opacity=".588"/></linearGradient><linearGradient x1="-88" x2="-58" gradientUnits="userSpaceOnUse"><stop stop-color="#499119"/><stop offset="1" stop-color="#8fd625"/></linearGradient><linearGradient x2="0" y1="71.38" y2="62.54" gradientUnits="userSpaceOnUse" xlink:href="#0"/><linearGradient x2="0" y1="72.38" y2="63.54" gradientUnits="userSpaceOnUse"><stop/><stop offset="1" stop-opacity="0"/></linearGradient><linearGradient gradientTransform="matrix(2.54182 0 0 2.58531-153.47-277.37)" id="1" x1="67.894" y1="108.69" x2="67.854" y2="113.11" gradientUnits="userSpaceOnUse"><stop stop-color="#f9f9f9"/><stop offset="1" stop-color="#999"/></linearGradient><linearGradient x2="0" y1="58" y2="79.09" gradientUnits="userSpaceOnUse" xlink:href="#0"/></defs><rect width="28.2" height="28.2" x="1.898" y="1.898" fill="#f2f2f2" fill-rule="evenodd" rx="5.575"/><g transform="translate(0-.498)"><g fill="#519013"><path d="m11.339 24.467h9.323v.629h-9.323z"/><path transform="matrix(0 1-1 0 0 0)" d="m20.855-16.315h3.123v.629h-3.123z"/></g><path d="m15.276 22.998v.957h-1.49v1.584h4.428v-1.584h-1.352v-.957z" fill="#30451d"/><g transform="translate(-.789-.086)"><path d="M24.14131 14.894736A7.351832 7.351832 0 0 1 16.854368 22.246282 7.351832 7.351832 0 0 1 9.438788 15.02452 7.351832 7.351832 0 0 1 16.594813 7.545482 7.351832 7.351832 0 0 1 24.13672 14.635212" fill="#519013"/><path d="m22.553 10.394c-.093.107-.187.214-.277.32a.857011 .857011 0 0 0 -.07439 -.04152 .857011 .857011 0 0 0 -.07957 -.03287 .857011 .857011 0 0 0 -.08131 -.02595 .857011 .857011 0 0 0 -.08476 -.0173 .857011 .857011 0 0 0 -.08476 -.0087 .857011 .857011 0 0 0 -.06401 0 .857011 .857011 0 0 0 -.08476 .0069 .857011 .857011 0 0 0 -.08476 .01557 .857011 .857011 0 0 0 -.08303 .02249 .857011 .857011 0 0 0 -.07957 .03114 .857011 .857011 0 0 0 -.07612 .03979 .857011 .857011 0 0 0 -.07093 .04671 .857011 .857011 0 0 0 -.06746 .05363 .857011 .857011 0 0 0 -.06055 .06054 .857011 .857011 0 0 0 -.05535 .06574 .857011 .857011 0 0 0 -.0467 .07093 .857011 .857011 0 0 0 -.04151 .07611 .857011 .857011 0 0 0 -.03287 .07957 .857011 .857011 0 0 0 -.02421 .0813 .857011 .857011 0 0 0 -.01211 .05536c-1.302.043-2.564.262-3.783.614a1.021821 1.021821 0 0 0 -.05016 -.08822 1.021821 1.021821 0 0 0 -.05882 -.08476 1.021821 1.021821 0 0 0 -.06746 -.07611 1.021821 1.021821 0 0 0 -.07438 -.07093 1.021821 1.021821 0 0 0 -.08131 -.06054 1.021821 1.021821 0 0 0 -.0865 -.05536 1.021821 1.021821 0 0 0 -.09168 -.04325 1.021821 1.021821 0 0 0 -.09514 -.03633 1.021821 1.021821 0 0 0 -.100332 -.02595 1.021821 1.021821 0 0 0 -.100332 -.01557 1.021821 1.021821 0 0 0 -.102062 -.0052 1.021821 1.021821 0 0 0 -.03114 0 1.021821 1.021821 0 0 0 -.102062 .0087 1.021821 1.021821 0 0 0 -.100332 .0173 1.021821 1.021821 0 0 0 -.0986 .02941 1.021821 1.021821 0 0 0 -.05189 .01903c-.846-1.05-1.848-1.958-2.93-2.75a7.350519 7.350519 0 0 0 -.12628 .076113c.957.912 1.853 1.903 2.645 2.977a1.021821 1.021821 0 0 0 -.06055 .08303 1.021821 1.021821 0 0 0 -.05189 .08649 1.021821 1.021821 0 0 0 -.04325 .09341 1.021821 1.021821 0 0 0 -.03287 .09687 1.021821 1.021821 0 0 0 -.02421 .0986 1.021821 1.021821 0 0 0 -.01384 .102062 1.021821 1.021821 0 0 0 -.0035 .102062 1.021821 1.021821 0 0 0 .0087 .102062 1.021821 1.021821 0 0 0 .01557 .09341c-.987.411-1.939.911-2.861 1.469a.857011 .857011 0 0 0 -.05016 -.0692 .857011 .857011 0 0 0 -.05536 -.06574 .857011 .857011 0 0 0 -.06227 -.05882 .857011 .857011 0 0 0 -.06919 -.05189 .857011 .857011 0 0 0 -.07265 -.04497 .857011 .857011 0 0 0 -.07612 -.03633 .857011 .857011 0 0 0 -.08131 -.03114 .857011 .857011 0 0 0 -.08303 -.02076 .857011 .857011 0 0 0 -.08476 -.01384 .857011 .857011 0 0 0 -.08476 -.0035 .857011 .857011 0 0 0 -.02595 0 .857011 .857011 0 0 0 -.08476 .0069 .857011 .857011 0 0 0 -.08476 .01557 .857011 .857011 0 0 0 -.08303 .02249 .857011 .857011 0 0 0 -.07957 .03114 .857011 .857011 0 0 0 -.07612 .03979 .857011 .857011 0 0 0 -.07093 .04671 .857011 .857011 0 0 0 -.06746 .05363 .857011 .857011 0 0 0 -.06055 .06055 .857011 .857011 0 0 0 -.05536 .06574 .857011 .857011 0 0 0 -.04844 .07093 .857011 .857011 0 0 0 -.03979 .07438 .857011 .857011 0 0 0 -.03287 .07957 .857011 .857011 0 0 0 -.02421 .08303 .857011 .857011 0 0 0 -.0173 .08303 .857011 .857011 0 0 0 -.0087 .0865 .857011 .857011 0 0 0 0 .05189 .857011 .857011 0 0 0 .0069 .08476 .857011 .857011 0 0 0 .01384 .08476 .857011 .857011 0 0 0 .02249 .08303 .857011 .857011 0 0 0 .03114 .07957 .857011 .857011 0 0 0 .03979 .07612 .857011 .857011 0 0 0 .02941 .04844c-.5.349-.986.717-1.465 1.093a7.350519 7.350519 0 0 0 .041512 .259479c.532-.386 1.069-.77 1.628-1.137a.857011 .857011 0 0 0 .07093 .0467 .857011 .857011 0 0 0 .07612 .04151 .857011 .857011 0 0 0 .07957 .03114 .857011 .857011 0 0 0 .08131 .02421 .857011 .857011 0 0 0 .08476 .01557 .857011 .857011 0 0 0 .08476 .0087 .857011 .857011 0 0 0 .03979 0 .857011 .857011 0 0 0 .08476 -.0052 .857011 .857011 0 0 0 .08476 -.01384 .857011 .857011 0 0 0 .08303 -.02076 .857011 .857011 0 0 0 .08131 -.03114 .857011 .857011 0 0 0 .07612 -.03806 .857011 .857011 0 0 0 .07265 -.04498 .857011 .857011 0 0 0 .06746 -.05189 .857011 .857011 0 0 0 .06227 -.05882 .857011 .857011 0 0 0 .05536 -.06574 .857011 .857011 0 0 0 .05016 -.0692 .857011 .857011 0 0 0 .04151 -.07612 .857011 .857011 0 0 0 .03459 -.07784 .857011 .857011 0 0 0 .02595 -.08131 .857011 .857011 0 0 0 .01902 -.08476 .857011 .857011 0 0 0 .0087 -.08476 .857011 .857011 0 0 0 .0018 -.05189v-.031a.857011 .857011 0 0 0 -.0087 -.08476 .857011 .857011 0 0 0 -.0069 -.03632c.925-.544 1.881-1.039 2.866-1.462a1.021821 1.021821 0 0 0 .05708 .08476 1.021821 1.021821 0 0 0 .06574 .07784 1.021821 1.021821 0 0 0 .07265 .07265 1.021821 1.021821 0 0 0 .07957 .06401 1.021821 1.021821 0 0 0 .08476 .05536 1.021821 1.021821 0 0 0 .09168 .0467 1.021821 1.021821 0 0 0 .09514 .03806 1.021821 1.021821 0 0 0 .0986 .02768 1.021821 1.021821 0 0 0 .100332 .0173 1.021821 1.021821 0 0 0 .102062 .0087 1.021821 1.021821 0 0 0 .03459 0 1.021821 1.021821 0 0 0 .102063 -.0069 1.021821 1.021821 0 0 0 .100331 -.01557 1.021821 1.021821 0 0 0 .09341 -.02421c.298.481.586.965.846 1.46a1.021821 1.021821 0 0 0 -.07957 .06401 1.021821 1.021821 0 0 0 -.07265 .07093 1.021821 1.021821 0 0 0 -.06574 .07784 1.021821 1.021821 0 0 0 -.05882 .08476 1.021821 1.021821 0 0 0 -.04844 .08995 1.021821 1.021821 0 0 0 -.03978 .09341 1.021821 1.021821 0 0 0 -.02941 .0986 1.021821 1.021821 0 0 0 -.02076 .100332 1.021821 1.021821 0 0 0 -.0087 .100331 1.021821 1.021821 0 0 0 -.0018 .06574 1.021821 1.021821 0 0 0 .0069 .102062 1.021821 1.021821 0 0 0 .0173 .100333 1.021821 1.021821 0 0 0 .0052 .01902c-.468.413-.921.802-1.384 1.202a.626277 .626277 0 0 0 -.05882 -.02249 .626277 .626277 0 0 0 -.05882 -.0173 .626277 .626277 0 0 0 -.06227 -.01211 .626277 .626277 0 0 0 -.06227 -.0052 .626277 .626277 0 0 0 -.03459 0 .626277 .626277 0 0 0 -.06227 .0052 .626277 .626277 0 0 0 -.06227 .01038 .626277 .626277 0 0 0 -.06055 .0173 .626277 .626277 0 0 0 -.05708 .02249 .626277 .626277 0 0 0 -.05536 .0294 .626277 .626277 0 0 0 -.05363 .0346 .626277 .626277 0 0 0 -.04844 .03978 .626277 .626277 0 0 0 -.04497 .04325 .626277 .626277 0 0 0 -.03979 .04844 .626277 .626277 0 0 0 -.03459 .05189 .626277 .626277 0 0 0 -.0294 .05535 .626277 .626277 0 0 0 -.02421 .05708 .626277 .626277 0 0 0 -.0173 .06055 .626277 .626277 0 0 0 -.01211 .06055 .626277 .626277 0 0 0 -.0069 .06227 .626277 .626277 0 0 0 0 .03979 .626277 .626277 0 0 0 .0052 .06227 .626277 .626277 0 0 0 .01038 .06227 .626277 .626277 0 0 0 .01038 .04151c-1.068.918-2.072 1.786-2.941 2.569a7.350519 7.350519 0 0 0 .06054 .05536c.945-.658 2.029-1.392 3.199-2.244a.626277 .626277 0 0 0 .05708 .02595 .626277 .626277 0 0 0 .05882 .01902 .626277 .626277 0 0 0 .06227 .01384 .626277 .626277 0 0 0 .06227 .0069 .626277 .626277 0 0 0 .0467 .0018 .626277 .626277 0 0 0 .06227 -.0035 .626277 .626277 0 0 0 .06227 -.01038 .626277 .626277 0 0 0 .06055 -.01557 .626277 .626277 0 0 0 .05882 -.02249 .626277 .626277 0 0 0 .05536 -.02768 .626277 .626277 0 0 0 .05363 -.03287 .626277 .626277 0 0 0 .05017 -.03806 .626277 .626277 0 0 0 .04497 -.04325 .626277 .626277 0 0 0 .03979 -.0467 .626277 .626277 0 0 0 .03633 -.05189 .626277 .626277 0 0 0 .03114 -.05536 .626277 .626277 0 0 0 .02421 -.05708 .626277 .626277 0 0 0 .02076 -.05882 .626277 .626277 0 0 0 .01211 -.06055 .626277 .626277 0 0 0 .0069 -.06227 .626277 .626277 0 0 0 .0018 -.03979l-.002-.022a.626277 .626277 0 0 0 -.0052 -.06227 .626277 .626277 0 0 0 -.0035 -.02076c.464-.353.931-.717 1.393-1.1a1.021821 1.021821 0 0 0 .08303 .05882 1.021821 1.021821 0 0 0 .08995 .05016 1.021821 1.021821 0 0 0 .09341 .04151 1.021821 1.021821 0 0 0 .09687 .03114 1.021821 1.021821 0 0 0 .100332 .02076 1.021821 1.021821 0 0 0 .100331 .01211 1.021821 1.021821 0 0 0 .07265 .0018 1.021821 1.021821 0 0 0 .102062 -.0069 1.021821 1.021821 0 0 0 .100332 -.01557 1.021821 1.021821 0 0 0 .04325 -.01038c.263.628.488 1.258.683 1.887a.857011 .857011 0 0 0 -.07265 .04498 .857011 .857011 0 0 0 -.06746 .05189 .857011 .857011 0 0 0 -.06227 .05882 .857011 .857011 0 0 0 -.05708 .06401 .857011 .857011 0 0 0 -.05017 .07093 .857011 .857011 0 0 0 -.04151 .07438 .857011 .857011 0 0 0 -.03459 .07784 .857011 .857011 0 0 0 -.02768 .08131 .857011 .857011 0 0 0 -.0173 .08476 .857011 .857011 0 0 0 -.01038 .08476 .857011 .857011 0 0 0 -.0018 .07265 .857011 .857011 0 0 0 .0052 .08476 .857011 .857011 0 0 0 .01557 .08476 .857011 .857011 0 0 0 .02249 .08303 .857011 .857011 0 0 0 .01211 .0346c-2.167.826-4.363 1.442-5.819 1.536a7.350519 7.350519 0 0 0 .454954 .273317c.691-.075 1.428-.191 2.273-.439 1.026-.302 2.125-.711 3.202-1.169a.857011 .857011 0 0 0 .05363 .06746 .857011 .857011 0 0 0 .06055 .06055 .857011 .857011 0 0 0 .06574 .05363 .857011 .857011 0 0 0 .07093 .04844 .857011 .857011 0 0 0 .07612 .03979 .857011 .857011 0 0 0 .07957 .03287 .857011 .857011 0 0 0 .08131 .02595 .857011 .857011 0 0 0 .08476 .01557 .857011 .857011 0 0 0 .08476 .0087 .857011 .857011 0 0 0 .04151 0 .857011 .857011 0 0 0 .0087 0c.11.516.2 1.028.258 1.531l.095-.106c-.015-.483-.061-.972-.125-1.462a.857011 .857011 0 0 0 .08131 -.02768 .857011 .857011 0 0 0 .07784 -.03806 .857011 .857011 0 0 0 .07265 -.04325 .857011 .857011 0 0 0 .0692 -.05189 .857011 .857011 0 0 0 .06227 -.05708 .857011 .857011 0 0 0 .05708 -.06401 .857011 .857011 0 0 0 .05189 -.0692 .857011 .857011 0 0 0 .04325 -.07265 .857011 .857011 0 0 0 .03459 -.07784 .857011 .857011 0 0 0 .02941 -.08131 .857011 .857011 0 0 0 .01902 -.08303 .857011 .857011 0 0 0 .01038 -.0865 .857011 .857011 0 0 0 .0035 -.06746l-.002-.031a.857011 .857011 0 0 0 -.0069 -.08476 .857011 .857011 0 0 0 -.01384 -.07265c1.303-.628 2.504-1.296 3.385-1.905-.917.581-2.134 1.187-3.436 1.751a.857011 .857011 0 0 0 -.03806 -.07612 .857011 .857011 0 0 0 -.04498 -.07265 .857011 .857011 0 0 0 -.05363 -.06746 .857011 .857011 0 0 0 -.05882 -.06227 .857011 .857011 0 0 0 -.06574 -.05536 .857011 .857011 0 0 0 -.0692 -.05016 .857011 .857011 0 0 0 -.07438 -.04151 .857011 .857011 0 0 0 -.07957 -.03459 .857011 .857011 0 0 0 -.08131 -.02595 .857011 .857011 0 0 0 -.08476 -.0173 .857011 .857011 0 0 0 -.08476 -.0087 .857011 .857011 0 0 0 -.07265 -.0018 .857011 .857011 0 0 0 -.03978 .0018c-.16-.675-.362-1.348-.607-2.01a1.021821 1.021821 0 0 0 .07265 -.07265 1.021821 1.021821 0 0 0 .06574 -.07784 1.021821 1.021821 0 0 0 .05708 -.08476 1.021821 1.021821 0 0 0 .0467 -.08995 1.021821 1.021821 0 0 0 .03979 -.09514 1.021821 1.021821 0 0 0 .02941 -.09687 1.021821 1.021821 0 0 0 .01902 -.100331 1.021821 1.021821 0 0 0 .0087 -.102062 1.021821 1.021821 0 0 0 .0018 -.03979l-.002-.036a1.021821 1.021821 0 0 0 -.0087 -.102062 1.021821 1.021821 0 0 0 -.01902 -.100332 1.021821 1.021821 0 0 0 -.02941 -.09687 1.021821 1.021821 0 0 0 -.03806 -.09514 1.021821 1.021821 0 0 0 -.04844 -.08995 1.021821 1.021821 0 0 0 -.0035 -.0069c.938-.889 1.813-1.85 2.558-2.882a.857011 .857011 0 0 0 .07957 .03287 .857011 .857011 0 0 0 .08131 .02249 .857011 .857011 0 0 0 .08476 .0173 .857011 .857011 0 0 0 .08476 .0069 .857011 .857011 0 0 0 .03632 0 .857011 .857011 0 0 0 .08476 -.0052 .857011 .857011 0 0 0 .08476 -.01384 .857011 .857011 0 0 0 .08303 -.02076 .857011 .857011 0 0 0 .08131 -.03114 .857011 .857011 0 0 0 .07612 -.03806 .857011 .857011 0 0 0 .07265 -.04498 .857011 .857011 0 0 0 .06746 -.0519 .857011 .857011 0 0 0 .06227 -.05882 .857011 .857011 0 0 0 .05536 -.06574 .857011 .857011 0 0 0 .05017 -.06919 .857011 .857011 0 0 0 .04151 -.07611 .857011 .857011 0 0 0 .03459 -.07784 .857011 .857011 0 0 0 .02595 -.0813 .857011 .857011 0 0 0 .01902 -.08476 .857011 .857011 0 0 0 .0087 -.08476 .857011 .857011 0 0 0 .0018 -.0519l-.002-.031a.857011 .857011 0 0 0 -.0069 -.08476 .857011 .857011 0 0 0 -.0173 -.08476 .857011 .857011 0 0 0 -.02422 -.0813 .857011 .857011 0 0 0 -.03114 -.07957 .857011 .857011 0 0 0 -.03978 -.07611 .857011 .857011 0 0 0 -.04844 -.07092 .857011 .857011 0 0 0 -.05363 -.06747 .857011 .857011 0 0 0 -.06054 -.06054 .857011 .857011 0 0 0 -.01902 -.01557c.067-.119.131-.24.195-.36a7.350519 7.350519 0 0 0 -.02768 -.03806m-1.591 1.072c.004 0 .008 0 .012 0a.857011 .857011 0 0 0 .0069 .08476 .857011 .857011 0 0 0 .01557 .08476 .857011 .857011 0 0 0 .02249 .08303 .857011 .857011 0 0 0 .03287 .07957 .857011 .857011 0 0 0 .03806 .07611 .857011 .857011 0 0 0 .04671 .07092 .857011 .857011 0 0 0 .0173 .02249c-.852.899-1.79 1.805-2.77 2.7a1.021821 1.021821 0 0 0 -.09687 -.0294 1.021821 1.021821 0 0 0 -.100332 -.02076 1.021821 1.021821 0 0 0 -.102062 -.01038 1.021821 1.021821 0 0 0 -.07265 0 1.021821 1.021821 0 0 0 -.05882 .0035c-.268-.539-.565-1.066-.887-1.578a1.021821 1.021821 0 0 0 .06227 -.08131 1.021821 1.021821 0 0 0 .05536 -.08476 1.021821 1.021821 0 0 0 .04497 -.09168 1.021821 1.021821 0 0 0 .03633 -.09514 1.021821 1.021821 0 0 0 .02768 -.0986 1.021821 1.021821 0 0 0 .01557 -.102063 1.021821 1.021821 0 0 0 .0069 -.102061 1.021821 1.021821 0 0 0 0 -.01211l-.002-.035a1.021821 1.021821 0 0 0 -.01038 -.102062 1.021821 1.021821 0 0 0 -.0035 -.02595c1.192-.376 2.412-.648 3.662-.737" fill="#f2f2f2"/></g></g>

   xmlns:dc="http://purl.org/dc/elements/1.1/"
   xmlns:cc="http://creativecommons.org/ns#"
   xmlns:rdf="http://www.w3.org/1999/02/22-rdf-syntax-ns#"
   xmlns:svg="http://www.w3.org/2000/svg"
   xmlns="http://www.w3.org/2000/svg"
   xmlns:xlink="http://www.w3.org/1999/xlink"
   xmlns:sodipodi="http://sodipodi.sourceforge.net/DTD/sodipodi-0.dtd"
   xmlns:inkscape="http://www.inkscape.org/namespaces/inkscape"
   height="32"
   width="32"
   version="1"
   id="svg8"
   sodipodi:docname="snow-top-2.svg"
   inkscape:version="0.92.1 r"&gt;
  <path d="m24.646 6.111c2.995 2.684 1.381 7.817 3.674 8.291 2.031.613 3.541-1.385 3.66-4.503.35-8.627-3.911-9.427-6.879-9.524-28.342-2.047-1.762 4.92-.455 5.736" fill="url(#1)"/></svg>