<svg xmlns="http://www.w3.org/2000/svg" viewBox="0 0 32 32" xmlns:xlink="http://www.w3.org/1999/xlink"><defs><linearGradient gradientTransform="matrix(-2.54182 0 0 2.58531 185.47-277.37)" id="1" x1="67.894" y1="108.69" x2="67.854" y2="113.11" gradientUnits="userSpaceOnUse"><stop stop-color="#f9f9f9"/><stop offset="1" stop-color="#999"/></linearGradient></defs><rect width="28.2" height="28.2" x="1.898" y="1.898" fill="#f2f2f2" fill-rule="evenodd" rx="5.575"/><g transform="matrix(.87879 0 0 .87879 1.939 1.94)" stroke-width="1.138"><path d="m16.03 2c-.259-.01-.515.061-.739.194l-10.588 6.275c-.437.259-.706.738-.706 1.256v12.55c0 .518.269.997.706 1.256l10.588 6.275c.437.259.975.259 1.412 0l10.588-6.275c.437-.259.706-.738.706-1.256v-12.55c0-.518-.269-.997-.706-1.256l-10.588-6.275c-.205-.122-.436-.188-.673-.194" fill="#3476cc"/><path d="m16 30c-.244 0-.487-.066-.706-.195l-10.589-6.274c-.437-.259-.706-.738-.706-1.256v-12.55c0-.211.044-.415.127-.6l11.874 7z" fill="#f56666"/><path d="m16 30c.244 0 .487-.066.706-.195l10.589-6.274c.437-.259.706-.738.706-1.256v-12.55c0-.211-.044-.415-.127-.6l-11.874 7z" fill="#7cce44"/></g>

   xmlns:dc="http://purl.org/dc/elements/1.1/"
   xmlns:cc="http://creativecommons.org/ns#"
   xmlns:rdf="http://www.w3.org/1999/02/22-rdf-syntax-ns#"
   xmlns:svg="http://www.w3.org/2000/svg"
   xmlns="http://www.w3.org/2000/svg"
   xmlns:xlink="http://www.w3.org/1999/xlink"
   xmlns:sodipodi="http://sodipodi.sourceforge.net/DTD/sodipodi-0.dtd"
   xmlns:inkscape="http://www.inkscape.org/namespaces/inkscape"
   height="32"
   width="32"
   version="1"
   id="svg8"
   sodipodi:docname="snow-top-3.svg"
   inkscape:version="0.92.1 r"&gt;
  <path fill="#00000f" fill-opacity="0" d="m0 0h32v32h-32z" id="0"/><path d="m7.354 6.111c-2.995 2.684-1.381 7.817-3.674 8.291-2.031.613-3.541-1.385-3.66-4.503-.35-8.627 3.911-9.427 6.879-9.524 28.342-2.047 1.762 4.92.455 5.736" fill="url(#1)"/><use xlink:href="#0"/></svg>