<svg xmlns="http://www.w3.org/2000/svg" xmlns:xlink="http://www.w3.org/1999/xlink" viewBox="0 0 32 32"><defs><linearGradient gradientTransform="matrix(-2.54182 0 0 2.58531 185.47-277.37)" id="1" x1="67.894" y1="108.69" x2="67.854" y2="113.11" gradientUnits="userSpaceOnUse"><stop stop-color="#f9f9f9"/><stop offset="1" stop-color="#999"/></linearGradient></defs><rect width="28.2" height="28.2" x="1.898" y="1.898" fill="#74d159" fill-rule="evenodd" rx="5.575"/><path d="m8.03 6.05v1h-.5c-.831 0-1.5.669-1.5 1.5 0 .831.669 1.5 1.5 1.5h.5v1h-1.908c.206.582.754 1 1.408 1h.5v1h1v-1h.5c.831 0 1.5-.669 1.5-1.5 0-.831-.669-1.5-1.5-1.5h-.5v-1h1.908c-.206-.582-.754-1-1.408-1h-.5v-1h-1m-.5 2h.5v1h-.5c-.277 0-.5-.223-.5-.5 0-.277.223-.5.5-.5m1.5 2h.5c.277 0 .5.223.5.5 0 .277-.223.513-.5.5h-.5zm4 2v1h6v-1z" fill="#fff"/><g transform="matrix(.75 0 0 .75 3.729 4.903)" stroke-width=".814"><circle cy="23" r="8" cx="24" fill="#8561c5"/><path d="m23 19l-.088 1.054a3.1429 3.1429 0 0 0 -.91852 .53126l-.958-.451-1 1.732.869.604a3.1429 3.1429 0 0 0 -.048 .53013 3.1429 3.1429 0 0 0 .0457 .53237l-.867.602 1 1.732.955-.45a3.1429 3.1429 0 0 0 .92075 .5279l.088 1.056h2l.088-1.054a3.1429 3.1429 0 0 0 .91854 -.53126l.958.451 1-1.732-.869-.604a3.1429 3.1429 0 0 0 .048 -.53013 3.1429 3.1429 0 0 0 -.0457 -.53237l.867-.602-1-1.732-.955.45a3.1429 3.1429 0 0 0 -.921 -.528l-.088-1.056h-2m1.00005 2.8575a1.1429 1.1429 0 0 1 1.143 1.143 1.1429 1.1429 0 0 1 -1.143 1.143 1.1429 1.1429 0 0 1 -1.143 -1.143 1.1429 1.1429 0 0 1 1.143 -1.143" fill="#fff"/></g>

   xmlns:dc="http://purl.org/dc/elements/1.1/"
   xmlns:cc="http://creativecommons.org/ns#"
   xmlns:rdf="http://www.w3.org/1999/02/22-rdf-syntax-ns#"
   xmlns:svg="http://www.w3.org/2000/svg"
   xmlns="http://www.w3.org/2000/svg"
   xmlns:xlink="http://www.w3.org/1999/xlink"
   xmlns:sodipodi="http://sodipodi.sourceforge.net/DTD/sodipodi-0.dtd"
   xmlns:inkscape="http://www.inkscape.org/namespaces/inkscape"
   height="32"
   width="32"
   version="1"
   id="svg8"
   sodipodi:docname="snow-top-3.svg"
   inkscape:version="0.92.1 r"&gt;
  <path fill="#00000f" fill-opacity="0" d="m0 0h32v32h-32z" id="0"/><path d="m7.354 6.111c-2.995 2.684-1.381 7.817-3.674 8.291-2.031.613-3.541-1.385-3.66-4.503-.35-8.627 3.911-9.427 6.879-9.524 28.342-2.047 1.762 4.92.455 5.736" fill="url(#1)"/><use xlink:href="#0"/></svg>