<svg xmlns="http://www.w3.org/2000/svg" xmlns:xlink="http://www.w3.org/1999/xlink" viewBox="0 0 32 32"><defs><linearGradient gradientTransform="matrix(-2.54182 0 0 2.58531 185.47-277.37)" id="1" x1="67.894" y1="108.69" x2="67.854" y2="113.11" gradientUnits="userSpaceOnUse"><stop stop-color="#f9f9f9"/><stop offset="1" stop-color="#999"/></linearGradient></defs><g transform="translate(43.859 1.119)" fill-rule="evenodd"><path d="m-41.961 10.182v13.227c0 3.089 2.486 5.574 5.574 5.574h17.05c3.089 0 5.576-2.486 5.576-5.574v-13.227" fill="#5b5b5b"/><path d="m-41.961 10.182h28.2v-3.826c0-3.089-2.488-5.576-5.576-5.576h-17.05c-3.089 0-5.574 2.488-5.574 5.576z" fill="#63a535"/></g><g transform="translate(0-.301)"><circle r="6" cy="21" cx="10" fill="#cccccf" fill-opacity=".941"/><circle r="3" cy="21" cx="10" fill="#5b5b5b"/><circle r="6" cy="21" cx="22" fill="#cccccf" fill-opacity=".941"/><circle r="3" cy="21" cx="22" fill="#5b5b5b"/></g><g transform="translate(44.2 1.332)"><circle r="1.5" cy="5.381" cx="-36.696" fill="#5b5b5b"/><path fill="#983a0e" d="m-21.2 3.881h3v3h-3z"/><path fill="#f7bf32" d="m-20.2 4.881h1v1h-1z"/><g fill="#5b5b5b"><circle r="1.5" cy="5.381" cx="-32.696"/><circle r="1.5" cy="5.381" cx="-28.696"/></g></g>

   xmlns:dc="http://purl.org/dc/elements/1.1/"
   xmlns:cc="http://creativecommons.org/ns#"
   xmlns:rdf="http://www.w3.org/1999/02/22-rdf-syntax-ns#"
   xmlns:svg="http://www.w3.org/2000/svg"
   xmlns="http://www.w3.org/2000/svg"
   xmlns:xlink="http://www.w3.org/1999/xlink"
   xmlns:sodipodi="http://sodipodi.sourceforge.net/DTD/sodipodi-0.dtd"
   xmlns:inkscape="http://www.inkscape.org/namespaces/inkscape"
   height="32"
   width="32"
   version="1"
   id="svg8"
   sodipodi:docname="snow-top-3.svg"
   inkscape:version="0.92.1 r"&gt;
  <path fill="#00000f" fill-opacity="0" d="m0 0h32v32h-32z" id="0"/><path d="m7.354 6.111c-2.995 2.684-1.381 7.817-3.674 8.291-2.031.613-3.541-1.385-3.66-4.503-.35-8.627 3.911-9.427 6.879-9.524 28.342-2.047 1.762 4.92.455 5.736" fill="url(#1)"/><use xlink:href="#0"/></svg>