<svg xmlns="http://www.w3.org/2000/svg" viewBox="0 0 32 32"><defs><linearGradient gradientTransform="matrix(2.62891 0 0 2.71269-160.16-291.42)" id="0" x1="67.894" y1="108.69" x2="67.854" y2="113.11" gradientUnits="userSpaceOnUse"><stop stop-color="#f9f9f9"/><stop offset="1" stop-color="#999"/></linearGradient></defs><rect width="28.2" height="28.2" x="1.898" y="1.898" fill="#7cb14f" fill-rule="evenodd" rx="5.575"/><path d="m23 12c-.764-2.422-3.377-2.982-5.483-3-1.855 0-3.218.694-4.089 1.918-.864 1.216-1.428 2.462-1.428 5.088 0 2.603.548 3.92 1.38 5.152.831 1.224 2.525 1.829 3.885 1.836 1.2.006 2.541-.512 3.735-.994v-3.923h-2v-1.077h6v6c-2.627 1.401-5.385 1.989-8.131 2-3.07 0-5.484-.802-7.243-2.405-1.751-1.604-2.626-3.8-2.626-6.589 0-2.797.875-4.997 2.626-6.6 1.759-1.603 4.173-2.405 7.243-2.405 2.62.085 4.893.618 7.131 1.5v3.5z" fill="#2e2e2e"/>

   xmlns:dc="http://purl.org/dc/elements/1.1/"
   xmlns:cc="http://creativecommons.org/ns#"
   xmlns:rdf="http://www.w3.org/1999/02/22-rdf-syntax-ns#"
   xmlns:svg="http://www.w3.org/2000/svg"
   xmlns="http://www.w3.org/2000/svg"
   xmlns:xlink="http://www.w3.org/1999/xlink"
   xmlns:sodipodi="http://sodipodi.sourceforge.net/DTD/sodipodi-0.dtd"
   xmlns:inkscape="http://www.inkscape.org/namespaces/inkscape"
   version="1"
   width="32"
   height="32"
   id="svg12"
   sodipodi:docname="snow-top-1.svg"
   inkscape:version="0.92.1 r"&gt;
  <path d="m7.288.009c-8.276-.356-9.36 9.992-4.02 9.973.679.003 1.604-.207 2.97-1.543 7.256-10.531 14.706 3.573 17.53.919 1.71-1.912 3.496-.418 4.448.115 2.1.643 3.662.041 3.785-3.231.188-3.321-1.889-6.344-5.923-6.223-5.914.14-12.989-.047-18.787-.01" fill="url(#0)"/><path fill="#f00" fill-opacity="0" d="m0 0h32v32h-32z"/></svg>