<svg xmlns="http://www.w3.org/2000/svg" xmlns:xlink="http://www.w3.org/1999/xlink" viewBox="0 0 32 32"><defs><linearGradient xlink:href="#3" id="4" x1="-227.98" y1="-131.26" x2="-234.8" y2="-134.14" gradientUnits="userSpaceOnUse"/><linearGradient xlink:href="#3" id="2" x1="-241.01" y1="-141.61" x2="-226.57" y2="-129.44" gradientUnits="userSpaceOnUse"/><linearGradient id="3"><stop stop-color="#13a9ea"/><stop offset="1" stop-color="#372db5"/></linearGradient><linearGradient id="1"><stop stop-color="#f9f9f9"/><stop offset="1" stop-color="#999"/></linearGradient><linearGradient xlink:href="#1" id="0" x1="-239.23" y1="-133.21" x2="-241.87" y2="-125.28" gradientUnits="userSpaceOnUse"/><radialGradient xlink:href="#1" id="5" cx="-176.59" cy="-120.91" r="3.01" gradientUnits="userSpaceOnUse" gradientTransform="matrix(2.21087.05719-.05496 2.12455 156.08 146.14)"/></defs><rect width="28.2" height="28.2" x="1.898" y="1.898" fill="#1d3b85" fill-rule="evenodd" rx="5.575"/><g transform="translate(.378-.484)"><path d="m9.144 10.404c-5.191.221-5.05 12.02 0 12.139h16.862v-3.354h-5.951l5.904-4.77v-3.968m-5.616 3.672l-3.802 3.188v-1.535h-3.708v3.59h-2.881c-.59.406-.999-5.085 0-5.196z" fill="#afafaf"/><path d="m9.105 10.168h-.006c-1.391.059-2.438.91-3.104 2.099-.666 1.19-.98 2.725-.971 4.257.009 1.531.342 3.06 1.012 4.236.671 1.176 1.71 2.01 3.067 2.04h.003 17.11v-3.846h-5.501l5.454-4.407v-4.331zm.013.493l16.561.047v3.604l-6.355 5.134h6.402v2.861h-16.61c-1.166-.027-2.037-.715-2.651-1.791-.614-1.076-.939-2.534-.948-3.995-.009-1.461.299-2.924.908-4.01.609-1.088 1.489-1.795 2.693-1.848m11.871 3.224l-.682.003-10.405.047-.013.002c-.237.026-.4.206-.502.403-.103.197-.168.438-.217.714-.098.553-.121 1.248-.095 1.928.026.68.101 1.341.212 1.825.056.242.115.438.207.593.046.078.099.153.202.206.064.033.147.032.226.017h3.122v-3.59h3.215v1.817zm-1.362.499l-2.875 2.411v-1.253h-4.201v3.59h-2.639c-.04-.073-.097-.226-.145-.434-.1-.435-.175-1.078-.2-1.733-.025-.656 0-1.328.088-1.823.044-.247.105-.45.169-.573.063-.121.105-.137.118-.139z" shape-rendering="auto" mix-blend-mode="normal" isolation="auto" color-interpolation-filters="linearRGB" white-space="normal" fill="#122246" solid-opacity="1" image-rendering="auto" solid-color="#000000" color="#000" color-rendering="auto" vector-effect="none" shape-padding="0" color-interpolation="sRGB"/></g><g transform="matrix(-1 0 0 1-223.97 142.77)"><g fill="#f9f9f9"><path d="m-228.95-129.3l-.27 2.221-.122-2.378z"/><path d="m-228.66-130.01l-.27 2.221-.122-2.378z"/><path d="m-228.43-129.95l-.27 1.6-.122-1.713z"/></g><path d="m-241.31-142.31c-5.577-1.531-5.951 3.24-4.58 5.493 4.381 6.983 6.796 6.577 9.398 7.895 1.712 2.064 3.451 3.4 6.469 4.1 11.69 1.559 3.242-8.417.92-8.649-5.065.012-7.547-6.123-12.206-8.838" fill="url(#0)"/><path d="m-241.31-142.31c3.76.276 5.616-.626 8.93-.421 4.319.283 8.307 2.053 7.838 6.574-.347 2.567-.37 2.25.186 4.296.532 1.535-.252 4.232-.487 4.654-2.715 4.963-1.536 4.965-2.656 7.742l-.906-.418-2.508-11.358c-7.177-.909-10.754-10.11-10.398-11.07" fill="url(#2)"/><path d="m-234.52-132.37c.362.274 1.553-5.105 1.172-5.653 1.379 2.44 1.919 4.616 2.435 6.783-1.276-.283-2.289-.554-3.607-1.13" fill="url(#4)"/><circle r="3.01" cy="-119.15" cx="-227.83" fill="url(#5)"/></g></svg>