<svg xmlns="http://www.w3.org/2000/svg" viewBox="0 0 32 32"><defs><linearGradient gradientTransform="matrix(2.62891 0 0 2.71269-160.16-291.42)" id="0" x1="67.894" y1="108.69" x2="67.854" y2="113.11" gradientUnits="userSpaceOnUse"><stop stop-color="#f9f9f9"/><stop offset="1" stop-color="#999"/></linearGradient></defs><g transform="translate(-43.26-3.263)"><rect y="5.161" x="45.16" height="28.2" width="28.2" fill="#ffbd00" fill-rule="evenodd" rx="5.575"/><circle r="10.09" cy="19.263" cx="59.26" fill="#333"/><circle r="9.09" cy="19.263" cx="59.26" fill="#fff"/><path d="m55.33 12.508l.464 1.948 1.638-.031.866 1.268-3.741 10.325 3.308-1.02 2.133-6.585 3.432 5.348 2.628-2.195-1.144-1.669-.927.742-5.317-8.1z" fill="#ff6d00"/><text y="11.602" x="67.18" font-family="sans-serif" fill="#333" word-spacing="0" line-height="1.25" letter-spacing="0" font-size="4.877"><tspan y="11.602" x="67.18" fill="#333" font-weight="bold">2</tspan></text></g>

   xmlns:dc="http://purl.org/dc/elements/1.1/"
   xmlns:cc="http://creativecommons.org/ns#"
   xmlns:rdf="http://www.w3.org/1999/02/22-rdf-syntax-ns#"
   xmlns:svg="http://www.w3.org/2000/svg"
   xmlns="http://www.w3.org/2000/svg"
   xmlns:xlink="http://www.w3.org/1999/xlink"
   xmlns:sodipodi="http://sodipodi.sourceforge.net/DTD/sodipodi-0.dtd"
   xmlns:inkscape="http://www.inkscape.org/namespaces/inkscape"
   version="1"
   width="32"
   height="32"
   id="svg12"
   sodipodi:docname="snow-top-1.svg"
   inkscape:version="0.92.1 r"&gt;
  <path d="m7.288.009c-8.276-.356-9.36 9.992-4.02 9.973.679.003 1.604-.207 2.97-1.543 7.256-10.531 14.706 3.573 17.53.919 1.71-1.912 3.496-.418 4.448.115 2.1.643 3.662.041 3.785-3.231.188-3.321-1.889-6.344-5.923-6.223-5.914.14-12.989-.047-18.787-.01" fill="url(#0)"/><path fill="#f00" fill-opacity="0" d="m0 0h32v32h-32z"/></svg>