<svg xmlns="http://www.w3.org/2000/svg" viewBox="0 0 32 32"><defs><linearGradient gradientTransform="matrix(2.54182 0 0 2.58531-153.47-277.37)" id="0" x1="67.894" y1="108.69" x2="67.854" y2="113.11" gradientUnits="userSpaceOnUse"><stop stop-color="#f9f9f9"/><stop offset="1" stop-color="#999"/></linearGradient></defs><g transform="translate(59.912-1.898)" fill-rule="evenodd"><path d="m-52.994 31.889v-22.359h-5.02v16.896c0 2.892 2.207 5.173 5.02 5.463" fill="#b7b7b7"/><path d="m-52.44 3.797c-3.089 0-5.574 2.488-5.574 5.576v.156h5.02v22.359c.192.02.358.111.555.111h17.05c3.089 0 5.576-2.486 5.576-5.574v-17.05c0-3.089-2.488-5.576-5.576-5.576z" fill="#419d45"/></g><g transform="matrix(1.19176 0 0 1.19176-8.645-.884)" fill="#f8c44e"><path d="m17 22h2v4h-2z"/><path d="m20 22h2v4h-2z"/><path d="m23 22h2v4h-2z"/><path d="m26 22h2v4h-2z"/></g><g transform="translate(34.854 9.437)"><g transform="matrix(1.19176 0 0 1.19176-38.543-11.314)" fill="#b7b7b7"><path d="m16 10h1v2h-1z"/><path d="m19 10h1v2h-1z"/><path d="m16 18h1v2h-1z"/><path d="m19 18h1v2h-1z"/><g transform="matrix(0 1-1 0 0 0)"><path d="m13-23h1v2h-1z"/><path d="m16-23h1v2h-1z"/><path d="m13-15h1v2h-1z"/><path d="m16-15h1v2h-1z"/></g></g><rect rx="1.43" y="2.987" x="-20.667" height="7.151" width="7.151" fill="#4e4e4e" stroke-width="1.192"/></g>

   xmlns:dc="http://purl.org/dc/elements/1.1/"
   xmlns:cc="http://creativecommons.org/ns#"
   xmlns:rdf="http://www.w3.org/1999/02/22-rdf-syntax-ns#"
   xmlns:svg="http://www.w3.org/2000/svg"
   xmlns="http://www.w3.org/2000/svg"
   xmlns:xlink="http://www.w3.org/1999/xlink"
   xmlns:sodipodi="http://sodipodi.sourceforge.net/DTD/sodipodi-0.dtd"
   xmlns:inkscape="http://www.inkscape.org/namespaces/inkscape"
   height="32"
   width="32"
   version="1"
   id="svg8"
   sodipodi:docname="snow-top-2.svg"
   inkscape:version="0.92.1 r"&gt;
  <path d="m24.646 6.111c2.995 2.684 1.381 7.817 3.674 8.291 2.031.613 3.541-1.385 3.66-4.503.35-8.627-3.911-9.427-6.879-9.524-28.342-2.047-1.762 4.92-.455 5.736" fill="url(#0)"/></svg>