<svg xmlns="http://www.w3.org/2000/svg" xmlns:xlink="http://www.w3.org/1999/xlink" viewBox="0 0 32 32"><defs><linearGradient xlink:href="#3" id="4" gradientUnits="userSpaceOnUse" x1="27.558" y1="-133.46" x2="22.09" y2="-134.43"/><linearGradient xlink:href="#3" id="2" gradientUnits="userSpaceOnUse" x1="15.879" y1="-141.91" x2="30.32" y2="-129.74"/><linearGradient id="3"><stop stop-color="#55c03f"/><stop offset="1" stop-color="#198b26"/></linearGradient><linearGradient id="1"><stop stop-color="#f9f9f9"/><stop offset="1" stop-color="#999"/></linearGradient><linearGradient xlink:href="#1" id="0" gradientUnits="userSpaceOnUse" x1="17.658" y1="-133.51" x2="15.02" y2="-125.58"/><radialGradient xlink:href="#1" id="5" cx="-176.59" cy="-120.91" r="3.01" gradientUnits="userSpaceOnUse" gradientTransform="matrix(2.21087.05719-.05496 2.12455 412.97 145.84)"/></defs><rect width="28.2" height="28.2" x="1.898" y="1.898" fill="#ff6c89" fill-rule="evenodd" rx="5.575"/><path d="m9.01 24.14c.053-.522.365-1.651 1.139-4.126 1.31-4.187 2.131-8.947 1.783-10.33-.087-.344-.096-.52-.032-.6.198-.247.993-.516 1.648-.557 1.352-.028 1.285.472 1.24 1.561-.04.976-.298 2.811-.538 4.04-.074.382-.114.751-.088.821.039.105.402.127 2.13.126 1.146-.001 2.129-.032 2.185-.068.175-.115.277-.504 1.019-3.872.397-1.802.79-3.395.873-3.541.189-.333.655-.597 1.056-.597.41 0 1.131.228 1.379.435l.199.167-.19.565c-.436 1.293-1.645 7.06-2.12 10.11-.125.806-.303 1.852-.394 2.325-.198 1.026-.203 1.417-.025 1.892.281.75.268.824-.19 1.033-.226.104-.745.247-1.153.318-1.379.241-1.8-.066-1.8-1.312 0-.838.077-1.286.606-3.487.233-.969.423-1.84.423-1.936 0-.162-.041-.17-.595-.114-.327.033-1.328.066-2.223.072-.895.006-1.654.038-1.686.071-.032.033-.209.732-.393 1.554-.184.821-.516 2.173-.737 3-.221.83-.418 1.757-.439 2.059-.024.359-.085.595-.177.679-.208.191-1.239.495-1.888.556-.791.083-1.07-.264-1.012-.846" fill="#fff"/><g transform="translate(-.916 143.06)"><path d="m15.583-142.61c-5.577-1.531-5.951 3.24-4.58 5.493 4.381 6.983 6.796 6.577 9.398 7.895 1.712 2.064 3.451 3.4 6.469 4.1 11.69 1.559 3.242-8.417.92-8.649-5.065.012-7.547-6.123-12.206-8.838" fill="url(#0)"/><path d="m15.583-142.61c3.76.276 5.616-.626 8.93-.421 4.319.283 8.307 2.053 7.838 6.574-.347 2.567-.37 2.25.186 4.296.532 1.535-.252 4.232-.487 4.654-2.715 4.963-1.536 4.965-2.656 7.742l-.906-.418-2.508-11.358c-7.177-.909-10.754-10.11-10.398-11.07" fill="url(#2)"/><path d="m22.374-132.67c.362.274 1.553-5.105 1.172-5.653 1.379 2.44 1.919 4.616 2.435 6.783-1.276-.283-2.289-.554-3.607-1.13" fill="url(#4)"/><circle r="3.01" cy="-119.45" cx="29.06" fill="url(#5)"/></g></svg>