<svg xmlns="http://www.w3.org/2000/svg" viewBox="0 0 32 32" xmlns:xlink="http://www.w3.org/1999/xlink"><defs><linearGradient xlink:href="#3" id="4" gradientUnits="userSpaceOnUse" x1="27.558" y1="-133.46" x2="22.09" y2="-134.43"/><linearGradient xlink:href="#3" id="2" gradientUnits="userSpaceOnUse" x1="15.879" y1="-141.91" x2="30.32" y2="-129.74"/><linearGradient id="3"><stop stop-color="#55c03f"/><stop offset="1" stop-color="#198b26"/></linearGradient><linearGradient id="1"><stop stop-color="#f9f9f9"/><stop offset="1" stop-color="#999"/></linearGradient><linearGradient xlink:href="#1" id="0" gradientUnits="userSpaceOnUse" x1="17.658" y1="-133.51" x2="15.02" y2="-125.58"/><radialGradient xlink:href="#1" id="5" cx="-176.59" cy="-120.91" r="3.01" gradientUnits="userSpaceOnUse" gradientTransform="matrix(2.21087.05719-.05496 2.12455 412.97 145.84)"/></defs><rect width="28.2" height="28.2" x="1.898" y="1.898" fill="#999" fill-rule="evenodd" rx="5.575"/><g transform="translate(30.342 1.843)"><path d="m-18.262 24.668c-.143-.212-.403-.674-.577-1.026-.374-.757-.522-.781-1.33-.214-1.014.711-1.402.516-1.093-.549.102-.351.124-.698.048-.77-.076-.072-.545.016-1.043.196-1.139.411-1.481.267-1.086-.458.154-.283.235-.557.181-.608-.054-.052-.426.015-.825.149-1.378.462-1.565.223-.686-.881.294-.37.537-.816.54-.992.003-.176.248-.583.545-.904.679-.735 1.441-2.149 1.435-2.662-1.737-2.531-.954-3.716.182-5.886.297-.624.695-1.859 1.059-2.186 1.545-2 4.548-1.942 6.169-.027.49.305 1.337 2.04 1.499 2.665 2 2.402-.441 4.249-.168 5.534.145.663.832 1.817 1.534 2.577.29.314.528.747.528.961 0 .214.202.641.45.95.749.934.541 1.233-.594.852-.875-.294-1-.207-.652.441.243.447.241.505-.029.603-.164.06-.688-.01-1.166-.155-.477-.145-.908-.226-.958-.179-.049.047-.042.462.015.922.091.728.062.837-.219.837-.178 0-.588-.192-.913-.428-.324-.235-.675-.428-.779-.428-.104 0-.435.462-.734 1.026-.582 1.097-.916 1.257-1.332.641" fill="#248afd"/><g transform="matrix(.49364 0 0 .52477-38.37-50.961)" stroke-width="1.288"><g fill="#d19e01" stroke-width=".341"><path d="m34.519 106.36c0 0 1.067 6 7.132 7.371 0 0 .507-4.185-1.192-5.63-1.699-1.445-5.941-1.742-5.941-1.742"/><path d="m48.672 106.24c0 0-.954 5.927-7.02 7.495 0 0-.562-4.176 1.111-5.65 1.673-1.474 5.909-1.845 5.909-1.845"/></g><path d="m41.671 103.38c0 0-6.068 5.314-.02 10.355 5.764-5.244.02-10.355.02-10.355" fill="#fecd38" stroke-width=".35"/></g><g stroke-width="1.288"><g stroke-linejoin="bevel" stroke-linecap="round"><g transform="matrix(.38813 0 0 .38813-30.25 1.349)"><circle cx="21.5" cy="28.5" r="6.5" fill="#fecd38" stroke-width="2.763"/><path d="M21.499999 24.5A4.00024 3.999899 0 0 0 17.5 28.499655 4.00024 3.999899 0 0 0 21.499999 32.5 4.00024 3.999899 0 0 0 25.5 28.499655 4.00024 3.999899 0 0 0 21.499999 24.5m0 2.666438a1.333415 1.3333 0 0 1 1.333335 1.333217 1.333415 1.3333 0 0 1 -1.333335 1.333217 1.333415 1.3333 0 0 1 -1.333331 -1.333217 1.333415 1.3333 0 0 1 1.333331 -1.333217z" fill="#535353" stroke-width="1.332"/></g><g transform="matrix(.38813 0 0 .38813-29.479 1.349)"><circle cx="41.5" cy="28.5" r="6.5" fill="#fecd38" stroke-width="2.763"/><path d="m41.5 24.5a4.00024 3.9999 0 0 0 -4 3.999646 4.00024 3.9999 0 0 0 4 4.00035 4.00024 3.9999 0 0 0 4 -4.00035A4.00024 3.9999 0 0 0 41.5 24.5m0 2.66644A1.333415 1.3333 0 0 1 42.833335 28.499646 1.333415 1.3333 0 0 1 41.5 29.832866 1.333415 1.3333 0 0 1 40.16667 28.499646 1.333415 1.3333 0 0 1 41.5 27.16644" fill="#535353" stroke-width="1.332"/></g></g><g transform="matrix(.75328 0 0 .72944-29.887 2.244)"><path d="m11.363 16.395c0 0 1.658-1.658 4.545-1.658 2.887 0 4.729 2.027 4.729 2.027 0 0-.061 1.167-.737 1.536-.676.369-2.518-1.72-4.238-1.72-1.72 0-3.501 1.474-3.501 1.474z" fill="#fecd38" stroke-width=".644"/><path d="m15.941 15.75c-1.272-.005-2.492.287-3.42.865l-1.021.636.915 1.808c.586 1.159 1.35 2.236 2.128 3 .667.655 1.385 1.192 1.596 1.192.63 0 2.867-2.511 3.74-4.197.448-.865.714-1.513.592-1.439-.122.074-.315-.106-.429-.4-.128-.331-.566-.676-1.149-.905-.941-.37-1.962-.554-2.952-.558" fill="#535353" stroke-width="1.288"/></g></g><path d="m63.746 117.95h-2.857l-.758 2.965h2.857zm-1.223-6.472l-1.039 4.167h2.857l1.05-4.167h2.392l-1.05 4.167h1.754v2.305h-2.327l-.747 2.965h3.074v2.327h-3.636l-1.039 4.145h-2.392l1.039-4.145h-2.857l-1.039 4.145h-2.413l1.039-4.145h-1.775v-2.327h2.305l.758-2.965h-3.063v-2.305h3.658l1.039-4.167z" transform="matrix(.53435 0 0 .48792-40.07-47.22)" aria-label="#" fill="#f2f2f2"/></g><g transform="translate(-.916 143.06)"><path d="m15.583-142.61c-5.577-1.531-5.951 3.24-4.58 5.493 4.381 6.983 6.796 6.577 9.398 7.895 1.712 2.064 3.451 3.4 6.469 4.1 11.69 1.559 3.242-8.417.92-8.649-5.065.012-7.547-6.123-12.206-8.838" fill="url(#0)"/><path d="m15.583-142.61c3.76.276 5.616-.626 8.93-.421 4.319.283 8.307 2.053 7.838 6.574-.347 2.567-.37 2.25.186 4.296.532 1.535-.252 4.232-.487 4.654-2.715 4.963-1.536 4.965-2.656 7.742l-.906-.418-2.508-11.358c-7.177-.909-10.754-10.11-10.398-11.07" fill="url(#2)"/><path d="m22.374-132.67c.362.274 1.553-5.105 1.172-5.653 1.379 2.44 1.919 4.616 2.435 6.783-1.276-.283-2.289-.554-3.607-1.13" fill="url(#4)"/><circle r="3.01" cy="-119.45" cx="29.06" fill="url(#5)"/></g></svg>