<svg xmlns="http://www.w3.org/2000/svg" viewBox="0 0 32 32"><rect width="28.2" height="28.2" x="1.898" y="1.898" fill="#7c5500" fill-rule="evenodd" rx="5.575"/><path d="m16.724 8.756l-11.591.035 5.071 9.36v7.267h-2.173v.724h5.795v-.724h-2.173v-7.221l5.071-9.44" fill="#e2e5e7"/><path d="m7.31 10.205c-.004.008-.004.017-.001.028.03.132 2.153 4.02 2.62 4.799.256.427.541.775.726.888.163.1.35.107.512.02.177-.095.527-.517.781-.942.44-.735 2.584-4.66 2.603-4.764.002-.013-.009-.022-.036-.029h-7.205" fill="#b31f13"/><path d="m19.472 11.824c-.793-.511-1.211-1.666-1.792-2.143-.326-.268-.321-.471.105-.447.414.023.979.135 1.657.467 0 0-.447-2.101-1.527-3.287-.283-.311-.24-.427.166-.301.887.276 2.335.88 3.02 2.01 0 0 1.442-2.322 3.723-2.269.427.01.453.257.1.493-.835.557-2.163 1.705-2.184 3.377 0 0 1.831-1.131 3.938.601.326.268.211.508-.215.526-.971.041-2.587.237-3.23 1.061 0 0 .988-.122 1.141.22.149.333-.032.798-.612.906-1.457.272-3.05-.419-4.29-1.218" fill="#76ae17"/><path d="m24.382855 20.389923a5.684318 7.332594 14.121 0 1 -7.356499 5.596155 5.684318 7.332594 14.121 0 1 -3.614138 -8.580772 5.684318 7.332594 14.121 0 1 7.355775 -5.596879 5.684318 7.332594 14.121 0 1 3.614862 8.581496" fill="#9b7528"/><path d="m21.1 11.916c-.105.16-.123.37-.021.549l.517.908c.143.252.459.337.708.191l.671-.393a5.702863 7.342011 14.475 0 0 -1.875093 -1.255712m-1.186899-.252106a5.702863 7.342011 14.475 0 0 -2.095099 .330996l.24.421c.143.252.459.337.708.191l.898-.525c.155-.091.238-.251.249-.418m.402.82c-.128-.035-.269-.02-.393.053l-.898.525c-.249.146-.334.465-.19.717l.517.909c.143.252.459.337.708.191l.898-.526c.249-.146.334-.465.19-.717l-.517-.908c-.072-.126-.186-.209-.314-.244m3 1.094l-.754.441c-.249.146-.334.465-.19.717l.517.909c.143.252.459.337.708.191l.69-.403a5.702863 7.342011 14.475 0 0 -.97 -1.854518m-5.979802-1.375293a5.702863 7.342011 14.475 0 0 -1.697681 1.224635l.173.304c.143.252.459.337.708.191l.898-.526c.249-.146.334-.465.19-.717l-.272-.477m.733 1.595c-.128-.035-.269-.02-.393.053l-.898.526c-.249.146-.334.465-.19.717l.517.908c.143.252.459.337.708.191l.898-.525c.249-.146.334-.465.19-.717l-.517-.909c-.071-.126-.186-.21-.315-.244m3.539.957c-.128-.035-.269-.02-.393.053l-.898.526c-.249.146-.334.465-.19.717l.517.908c.143.252.459.337.708.191l.898-.525c.249-.146.334-.465.19-.717l-.517-.909c-.072-.126-.187-.21-.314-.244m2.83 1.195l-.583.341c-.249.146-.334.465-.19.717l.518.908c.107.187.308.281.507.258a5.702863 7.342011 14.475 0 0 -.251375 -2.224698zm-9.173348-2.129075a5.702863 7.342011 14.475 0 0 -1.00398 1.417548c.004-.002.009-.002.013-.004l.899-.525c.249-.146.334-.465.19-.717l-.098-.172m.56 1.289c-.128-.035-.269-.019-.394.054l-.899.525c-.249.146-.334.465-.19.717l.518.908c.143.252.459.337.708.191l.898-.525c.249-.146.334-.465.19-.717l-.518-.908c-.071-.125-.186-.21-.314-.245m3.539.956c-.128-.035-.269-.019-.394.054l-.898.525c-.249.146-.334.465-.19.717l.517.908c.143.252.459.337.708.191l.898-.525c.249-.146.334-.465.19-.717l-.518-.909c-.071-.126-.186-.211-.314-.246zm3.539.957c-.128-.035-.269-.019-.394.054l-.898.525c-.249.146-.334.465-.19.717l.517.908c.143.252.459.337.708.191l.899-.525c.249-.146.334-.465.19-.717l-.519-.91c-.072-.125-.186-.21-.315-.245zm-5.784.356c-.128-.035-.269-.019-.394.054l-.898.525c-.249.146-.334.465-.19.717l.517.908c.143.252.459.337.708.191l.898-.525c.249-.146.334-.465.19-.717l-.517-.909c-.072-.126-.186-.211-.315-.246zm3.539.957c-.128-.035-.269-.019-.394.054l-.898.525c-.249.146-.334.465-.19.717l.517.908c.143.252.459.337.708.191l.898-.525c.249-.146.334-.465.19-.717l-.517-.909c-.072-.126-.186-.21-.315-.245m3.54.957c-.128-.035-.269-.019-.394.054l-.899.525c-.249.146-.334.465-.19.717l.518.908c.142.249.451.333.699.194a5.702863 7.342011 14.475 0 0 .455748 -1.306421 5.702863 7.342011 14.475 0 0 .16448 -.777377l-.039-.069c-.072-.126-.186-.21-.315-.245m-10.514771-2.819861a5.702863 7.342011 14.475 0 0 -.307778 .934214 5.702863 7.342011 14.475 0 0 -.261748 1.474995c.071-.007.143-.027.209-.065l.899-.525c.249-.146.334-.465.19-.717l-.518-.908c-.051-.089-.127-.149-.21-.194zm1.191 2.22c-.128-.035-.269-.02-.393.053l-.899.525c-.249.146-.334.465-.19.717l.518.908c.143.252.459.337.708.191l.899-.525c.249-.146.334-.465.19-.717l-.517-.907c-.072-.126-.186-.21-.315-.244zm3.539.957c-.128-.035-.269-.02-.393.053l-.898.525c-.249.146-.334.465-.19.717l.517.908c.143.252.459.337.708.191l.898-.525c.249-.146.334-.465.19-.717l-.517-.908c-.072-.126-.187-.209-.314-.244m3.538.957c-.128-.035-.269-.02-.393.053l-.898.525c-.249.146-.334.465-.19.717l.517.908c.143.252.459.337.708.191l.899-.525c.249-.146.334-.465.19-.717l-.518-.908c-.072-.126-.187-.21-.314-.244m-5.784.356c-.128-.035-.269-.02-.393.053l-.898.525c-.249.146-.334.465-.19.717l.517.909c.143.252.459.337.708.191l.898-.526c.249-.146.334-.465.19-.717l-.517-.908c-.072-.126-.187-.21-.314-.244m3.538.956c-.128-.035-.269-.02-.393.053l-.898.525c-.249.146-.334.465-.19.717l.517.909c.143.252.459.337.708.191l.898-.526c.249-.146.334-.465.19-.717l-.517-.908c-.072-.126-.187-.21-.314-.244m3.539.957c-.128-.035-.269-.02-.393.053l-.899.525c-.249.146-.334.465-.19.717l.2.351a5.702863 7.342011 14.475 0 0 1.330618 -1.622052c-.017-.006-.031-.019-.048-.024m-10.144076-2.349318a5.702863 7.342011 14.475 0 0 .218565 1.303596c.205-.158.273-.441.141-.673l-.36-.63m.822 1.748c-.128-.035-.269-.02-.393.053l-.055.032a5.702863 7.342011 14.475 0 0 .970072 1.854736l.119-.07c.249-.146.334-.465.19-.717l-.517-.909c-.072-.126-.187-.21-.314-.244zm3.539.957c-.128-.035-.269-.02-.393.053l-.898.526c-.249.146-.334.465-.19.717l.517.908c.143.252.459.337.708.191l.898-.525c.249-.146.334-.465.19-.717l-.517-.909c-.072-.126-.186-.21-.315-.244m3.538.957c-.128-.035-.269-.02-.393.053l-.898.526c-.249.146-.334.465-.19.717l.224.393a5.702863 7.342011 14.475 0 0 1.817718 -1.013972l-.245-.43c-.072-.126-.187-.21-.314-.244m-5.784.356c-.128-.035-.269-.019-.394.054l-.036.021a5.702863 7.342011 14.475 0 0 1.187471 .949209l-.444-.779c-.072-.126-.186-.211-.314-.245m3.539.957c-.128-.035-.269-.019-.394.054l-.898.525c-.002.001-.003.003-.004.004a5.702863 7.342011 14.475 0 0 1.765053 -.06594l-.154-.273c-.072-.125-.186-.21-.315-.245" fill="#7c5e20"/>

   xmlns:dc="http://purl.org/dc/elements/1.1/"
   xmlns:cc="http://creativecommons.org/ns#"
   xmlns:rdf="http://www.w3.org/1999/02/22-rdf-syntax-ns#"
   xmlns:svg="http://www.w3.org/2000/svg"
   xmlns="http://www.w3.org/2000/svg"
   xmlns:sodipodi="http://sodipodi.sourceforge.net/DTD/sodipodi-0.dtd"
   xmlns:inkscape="http://www.inkscape.org/namespaces/inkscape"
   height="32"
   width="32"
   version="1"
   id="svg8"
   sodipodi:docname="star-mime-2.svg"
   inkscape:version="0.92.1 r"&gt;
  <g transform="translate(152.47 194.05)" fill="#fff"><path d="m-125.38-193.25l-.077 3.548 3.072 1.831-3.548-.077-3.135 6.791 1.38-7.268-3.072-1.831 3.548.077z"/><path d="m-125.41-183.04l.042-1.955-1.692-1.01 1.955.042 1.727-3.741-.76 4 1.692 1.01-1.955-.042z"/></g></svg>