<svg xmlns="http://www.w3.org/2000/svg" viewBox="0 0 32 32"><defs><linearGradient gradientTransform="matrix(2.59244 0 0 2.58531-157.93-277.73)" id="0" x1="67.894" y1="108.69" x2="67.854" y2="113.11" gradientUnits="userSpaceOnUse"><stop stop-color="#f9f9f9"/><stop offset="1" stop-color="#999"/></linearGradient></defs><rect width="28.2" height="28.2" x="1.898" y="1.898" fill="#1d4498" fill-rule="evenodd" rx="5.575"/><g transform="matrix(.75758 0 0 .75758 3.879 3.879)" stroke-width="1.32"><rect x="-27" y="-27" width="7" height="7" rx="3.5" transform="matrix(0-1-1 0 0 0)" fill="#df82d9"/><path d="m4 19l4.215-6.384 3.421 5.925z" fill="#72acef"/><path d="m3 13.5l7-3.5v7z" fill="#4c95eb"/><path d="m4 8.925l7.494-1.534-1.771 6.609" fill="#3a8ae9"/><path d="m7 4.616l7.636.458-3.421 5.925" fill="#3074c3"/><g transform="matrix(0-1-1 0 0 0)"><rect x="-24" y="-29" width="20" height="20" rx="10" fill="#d761cf"/><rect x="-28" y="-18" width="7" height="7" rx="3.5" fill="#df82d9"/></g><g transform="matrix(.66667 0 0 .63636 4.333-1.182)" fill="#fff"><ellipse ry="5" rx="4" cx="26" cy="22"/><ellipse ry="5" rx="4" cx="30" cy="21"/></g><ellipse cx="22.75" cy="13" ry="1" rx=".75" fill="#1b1b1b"/><path d="m25.299 18c-1.092.262-1.765 1.143-2.842 1.381-.776.151-1.797-.49-2.523-.132-.407.2-1.461.729-.61 1.07 0 0 .502.202 1.134.383.632.181 1.365.387 2.139.256.876-.148 1.581-.655 2.178-1.101.597-.446 1.04-.865 1.04-.865.412-.379.096-.988-.515-.993" opacity=".6" fill-rule="evenodd" color="#000"/><ellipse cx="25.75" cy="12" ry="1" rx=".75" fill="#1b1b1b"/></g>

   xmlns:dc="http://purl.org/dc/elements/1.1/"
   xmlns:cc="http://creativecommons.org/ns#"
   xmlns:rdf="http://www.w3.org/1999/02/22-rdf-syntax-ns#"
   xmlns:svg="http://www.w3.org/2000/svg"
   xmlns="http://www.w3.org/2000/svg"
   xmlns:xlink="http://www.w3.org/1999/xlink"
   xmlns:sodipodi="http://sodipodi.sourceforge.net/DTD/sodipodi-0.dtd"
   xmlns:inkscape="http://www.inkscape.org/namespaces/inkscape"
   version="1"
   width="32"
   height="32"
   id="svg12"
   sodipodi:docname="snow-top-4.svg"
   inkscape:version="0.92.1 r"&gt;
  <path d="m7.196.009c-8.161-.339-9.231 9.523-3.968 9.505.669.003 1.581-.197 2.929-1.471 3.773-4.147 9.01 4.479 14.696-1.042.61-.911 1.804-1.135 2.455-.627 1.045.677 2.87 2.991 3.88 3 2.359.513 4.095-.198 4.816-3.188.185-3.165-2.303-6.286-6.281-6.17-5.832.133-12.809-.045-18.527-.01" fill="url(#0)"/></svg>