<svg xmlns="http://www.w3.org/2000/svg" xmlns:xlink="http://www.w3.org/1999/xlink" viewBox="0 0 32 32"><defs><linearGradient gradientTransform="matrix(-2.54182 0 0 2.58531 185.47-277.37)" id="1" x1="67.894" y1="108.69" x2="67.854" y2="113.11" gradientUnits="userSpaceOnUse"><stop stop-color="#f9f9f9"/><stop offset="1" stop-color="#999"/></linearGradient></defs><rect width="28.2" height="28.2" x="1.898" y="1.898" fill="#666" fill-rule="evenodd" rx="5.575"/><g stroke-width=".729"><path d="m16.07 5.797c-1.325-.007-2.675.247-3.979.789-5.216 2.168-7.669 8.11-5.502 13.326 2.168 5.216 8.112 7.671 13.328 5.503 5.216-2.168 7.669-8.11 5.502-13.326-1.626-3.912-5.376-6.272-9.349-6.292m-.06559 4.372903a5.830538 5.830538 0 0 1 5.830538 5.830538 5.830538 5.830538 0 0 1 -5.830538 5.830538 5.830538 5.830538 0 0 1 -5.830537 -5.830538 5.830538 5.830538 0 0 1 5.830537 -5.830538z" fill="#ccc"/><path d="m16.07 5.797c-1.229-.006-2.477.215-3.693.679l1.553 4.077a5.830538 5.830538 0 0 1 2.074213 -.382921 5.830538 5.830538 0 0 1 2.072756 .387148l1.556-4.084c-1.13-.43-2.334-.67-3.563-.676m-9.588 6.575c-.464 1.216-.685 2.464-.679 3.693.006 1.229.247 2.434.678 3.565l4.077-1.553a5.830538 5.830538 0 0 1 -.382921 -2.075672 5.830538 5.830538 0 0 1 .388606 -2.074214zm19.05 0l-4.076 1.553a5.830538 5.830538 0 0 1 .382629 2.075671 5.830538 5.830538 0 0 1 -.387002 2.072757l4.082 1.556c.431-1.13.67-2.336.676-3.565.007-1.229-.214-2.477-.678-3.693m-11.597 9.07l-1.555 4.081c1.216.464 2.464.686 3.693.679 1.229-.007 2.433-.246 3.563-.676l-1.553-4.079a5.830538 5.830538 0 0 1 -2.075672 .382629 5.830538 5.830538 0 0 1 -2.072756 -.387002" fill="#e74c3c"/></g>

   xmlns:dc="http://purl.org/dc/elements/1.1/"
   xmlns:cc="http://creativecommons.org/ns#"
   xmlns:rdf="http://www.w3.org/1999/02/22-rdf-syntax-ns#"
   xmlns:svg="http://www.w3.org/2000/svg"
   xmlns="http://www.w3.org/2000/svg"
   xmlns:xlink="http://www.w3.org/1999/xlink"
   xmlns:sodipodi="http://sodipodi.sourceforge.net/DTD/sodipodi-0.dtd"
   xmlns:inkscape="http://www.inkscape.org/namespaces/inkscape"
   height="32"
   width="32"
   version="1"
   id="svg8"
   sodipodi:docname="snow-top-3.svg"
   inkscape:version="0.92.1 r"&gt;
  <path fill="#00000f" fill-opacity="0" d="m0 0h32v32h-32z" id="0"/><path d="m7.354 6.111c-2.995 2.684-1.381 7.817-3.674 8.291-2.031.613-3.541-1.385-3.66-4.503-.35-8.627 3.911-9.427 6.879-9.524 28.342-2.047 1.762 4.92.455 5.736" fill="url(#1)"/><use xlink:href="#0"/></svg>