<svg xmlns="http://www.w3.org/2000/svg" xmlns:xlink="http://www.w3.org/1999/xlink" viewBox="0 0 32 32"><defs><linearGradient gradientTransform="matrix(-2.54182 0 0 2.58531 185.47-277.37)" id="1" x1="67.894" y1="108.69" x2="67.854" y2="113.11" gradientUnits="userSpaceOnUse"><stop stop-color="#f9f9f9"/><stop offset="1" stop-color="#999"/></linearGradient></defs><rect width="28.2" height="28.2" x="1.898" y="1.898" fill="#fecd38" fill-rule="evenodd" rx="5.575"/><circle cy="16" cx="16" r="12" fill="#31b03b"/><g transform="translate(0-.5)" fill="#fff"><path d="m6 11h2v10h-2z"/><path d="m9 11h2v8h-2z"/><g transform="scale(-1 1)"><path d="m-26 11h2v10h-2z"/><path d="m-23 11h2v8h-2z"/></g><path d="m16 11a4 4 0 0 0 -4 4 4 4 0 0 0 4 4 4 4 0 0 0 4 -4 4 4 0 0 0 -4 -4m0 2a2 2 0 0 1 2 2 2 2 0 0 1 -2 2 2 2 0 0 1 -2 -2 2 2 0 0 1 2 -2"/><path d="m6 13.3h4v2h-4z"/><path d="m23 11l2.716 4.588.102 1.085-.357.544.334 2.483-.167-.444-1.1-1.904-3.129-5.421z"/><path d="m12 20h8v2h-8z"/></g>

   xmlns:dc="http://purl.org/dc/elements/1.1/"
   xmlns:cc="http://creativecommons.org/ns#"
   xmlns:rdf="http://www.w3.org/1999/02/22-rdf-syntax-ns#"
   xmlns:svg="http://www.w3.org/2000/svg"
   xmlns="http://www.w3.org/2000/svg"
   xmlns:xlink="http://www.w3.org/1999/xlink"
   xmlns:sodipodi="http://sodipodi.sourceforge.net/DTD/sodipodi-0.dtd"
   xmlns:inkscape="http://www.inkscape.org/namespaces/inkscape"
   height="32"
   width="32"
   version="1"
   id="svg8"
   sodipodi:docname="snow-top-3.svg"
   inkscape:version="0.92.1 r"&gt;
  <path fill="#00000f" fill-opacity="0" d="m0 0h32v32h-32z" id="0"/><path d="m7.354 6.111c-2.995 2.684-1.381 7.817-3.674 8.291-2.031.613-3.541-1.385-3.66-4.503-.35-8.627 3.911-9.427 6.879-9.524 28.342-2.047 1.762 4.92.455 5.736" fill="url(#1)"/><use xlink:href="#0"/></svg>