<svg xmlns="http://www.w3.org/2000/svg" viewBox="0 0 32 32"><defs><linearGradient gradientTransform="matrix(2.59244 0 0 2.58531-157.93-277.73)" id="0" x1="67.894" y1="108.69" x2="67.854" y2="113.11" gradientUnits="userSpaceOnUse"><stop stop-color="#f9f9f9"/><stop offset="1" stop-color="#999"/></linearGradient></defs><g transform="translate(39.521-2.379)" fill-rule="evenodd"><g fill="#ccc"><path d="m-37.623 17.541c.037.16.12.314.268.314h5.652c.177 0 .318-.169.318-.377v-5.539c0-.208-.141-.375-.318-.375h-5.652c-.148 0-.23.153-.268.313z"/><path d="m-37.623 24.881c.037.159.12.313.268.313h5.652c.177 0 .318-.167.318-.375v-5.539c0-.208-.141-.377-.318-.377h-5.652c-.148 0-.231.155-.268.314z"/><path d="m-31.658 32.48c.142-.038.273-.144.273-.322v-5.541c0-.208-.141-.375-.318-.375h-5.652c-.148 0-.23.153-.268.313v.352c0 3.089 2.488 5.574 5.576 5.574z"/><path d="m-24.32 32.48c.142-.038.275-.144.275-.322v-5.541c0-.208-.143-.375-.32-.375h-5.65c-.177 0-.32.167-.32.375v5.541c0 .179.133.284.275.322z"/><path d="m-16.98 32.48c.142-.038.275-.144.275-.322v-5.541c0-.208-.143-.375-.32-.375h-5.65c-.177 0-.32.167-.32.375v5.541c0 .179.133.284.275.322z"/><path d="m-9.418 26.557c-.036-.161-.119-.314-.268-.314h-5.652c-.177 0-.318.167-.318.375v5.541c0 .179.132.284.273.322h.389c3.089 0 5.576-2.486 5.576-5.574z"/><path d="m-15.383 4.277c-.142.038-.273.144-.273.322v5.541c0 .208.141.375.318.375h5.652c.149 0 .232-.154.268-.314v-.35c0-3.089-2.488-5.574-5.576-5.574z"/></g><path d="m-22.721 4.277c-.142.038-.275.144-.275.322v5.541c0 .208.143.375.32.375h5.65c.177 0 .32-.167.32-.375v-5.541c0-.179-.133-.284-.275-.322z" fill="#ff5757"/><path d="m-30.06 4.277c-.142.038-.275.144-.275.322v5.541c0 .208.143.375.32.375h5.65c.177 0 .32-.167.32-.375v-5.541c0-.179-.133-.284-.275-.322z" fill="#ccc"/><path d="m-37.623 10.203v1.674c.037-.159.12-.313.268-.313h5.652c.177 0 .318.167.318.375v5.539c0 .208-.141.377-.318.377h-5.652c-.148 0-.231-.155-.268-.314v1.676c.037-.16.12-.314.268-.314h5.652c.177 0 .318.169.318.377v5.539c0 .208-.141.375-.318.375h-5.652c-.148 0-.23-.153-.268-.313v1.674c.037-.159.12-.313.268-.313h5.652c.177 0 .318.167.318.375v5.541c0 .179-.132.284-.273.322h1.598c-.142-.038-.275-.144-.275-.322v-5.541c0-.208.143-.375.32-.375h5.65c.177 0 .32.167.32.375v5.541c0 .179-.133.284-.275.322h1.6c-.142-.038-.275-.144-.275-.322v-5.541c0-.208.143-.375.32-.375h5.65c.177 0 .32.167.32.375v5.541c0 .179-.133.284-.275.322h1.598c-.142-.038-.273-.144-.273-.322v-5.541c0-.208.141-.375.318-.375h5.652c.149 0 .232.154.268.314v-1.678c-.036.161-.119.314-.268.314h-5.652c-.177 0-.318-.167-.318-.375v-5.539c0-.208.141-.377.318-.377h5.652c.149 0 .232.155.268.316v-1.68c-.036.161-.119.316-.268.316h-5.652c-.177 0-.318-.169-.318-.377v-5.539c0-.208.141-.375.318-.375h5.652c.149 0 .232.154.268.314v-1.678c-.036.161-.119.314-.268.314h-5.652c-.177 0-.318-.167-.318-.375v-5.541c0-.179.132-.284.273-.322h-1.598c.142.038.275.144.275.322v5.541c0 .208-.143.375-.32.375h-5.65c-.177 0-.32-.167-.32-.375v-5.541c0-.179.133-.284.275-.322h-1.6c.142.038.275.144.275.322v5.541c0 .208-.143.375-.32.375h-5.65c-.177 0-.32-.167-.32-.375v-5.541c0-.179.133-.284.275-.322h-1.598c.142.038.273.144.273.322v5.541c0 .208-.141.375-.318.375h-5.652c-.148 0-.23-.153-.268-.313" fill="#ececec"/><path d="m-37.623 10.203c.037.159.12.313.268.313h5.652c.177 0 .318-.167.318-.375v-5.541c0-.179-.132-.284-.273-.322h-.389c-3.089 0-5.576 2.486-5.576 5.574z" fill="#4f4f4f"/><path d="m-22.676 18.902c-.177 0-.32.169-.32.377v5.539c0 .208.143.375.32.375h5.65c.177 0 .32-.167.32-.375v-5.539c0-.208-.143-.377-.32-.377z" fill="#0286c2"/><path d="m-22.676 18.902h5.65c.177 0 .32.169.32.377v5.539c0 .208-.143.375-.32.375h-5.65c-.177 0-.32-.167-.32-.375v-5.539c0-.208.143-.377.32-.377" fill="#ccc"/><path d="m-30.02 18.902c-.177 0-.32.169-.32.377v5.539c0 .208.143.375.32.375h5.65c.177 0 .32-.167.32-.375v-5.539c0-.208-.143-.377-.32-.377z" fill="#0286c2"/><path d="m-30.02 18.902h5.65c.177 0 .32.169.32.377v5.539c0 .208-.143.375-.32.375h-5.65c-.177 0-.32-.167-.32-.375v-5.539c0-.208.143-.377.32-.377" fill="#4f4f4f"/><path d="m-22.676 11.564c-.177 0-.32.167-.32.375v5.539c0 .208.143.377.32.377h5.65c.177 0 .32-.169.32-.377v-5.539c0-.208-.143-.375-.32-.375z" fill="#0286c2"/><path d="m-22.676 11.564h5.65c.177 0 .32.167.32.375v5.539c0 .208-.143.377-.32.377h-5.65c-.177 0-.32-.169-.32-.377v-5.539c0-.208.143-.375.32-.375" fill="#ff5757"/><path d="m-30.02 11.564c-.177 0-.32.167-.32.375v5.539c0 .208.143.377.32.377h5.65c.177 0 .32-.169.32-.377v-5.539c0-.208-.143-.375-.32-.375z" fill="#0286c2"/><path d="m-30.02 11.564h5.65c.177 0 .32.167.32.375v5.539c0 .208-.143.377-.32.377h-5.65c-.177 0-.32-.169-.32-.377v-5.539c0-.208.143-.375.32-.375" fill="#ccc"/><path d="m-9.418 19.219c-.036-.161-.119-.316-.268-.316h-5.652c-.177 0-.318.169-.318.377v5.539c0 .208.141.375.318.375h5.652c.149 0 .232-.154.268-.314z" fill="#4ac73e"/><path d="m-9.418 11.879c-.036-.161-.119-.314-.268-.314h-5.652c-.177 0-.318.167-.318.375v5.539c0 .208.141.377.318.377h5.652c.149 0 .232-.155.268-.316z" fill="#ccc"/></g>

   xmlns:dc="http://purl.org/dc/elements/1.1/"
   xmlns:cc="http://creativecommons.org/ns#"
   xmlns:rdf="http://www.w3.org/1999/02/22-rdf-syntax-ns#"
   xmlns:svg="http://www.w3.org/2000/svg"
   xmlns="http://www.w3.org/2000/svg"
   xmlns:xlink="http://www.w3.org/1999/xlink"
   xmlns:sodipodi="http://sodipodi.sourceforge.net/DTD/sodipodi-0.dtd"
   xmlns:inkscape="http://www.inkscape.org/namespaces/inkscape"
   version="1"
   width="32"
   height="32"
   id="svg12"
   sodipodi:docname="snow-top-4.svg"
   inkscape:version="0.92.1 r"&gt;
  <path d="m7.196.009c-8.161-.339-9.231 9.523-3.968 9.505.669.003 1.581-.197 2.929-1.471 3.773-4.147 9.01 4.479 14.696-1.042.61-.911 1.804-1.135 2.455-.627 1.045.677 2.87 2.991 3.88 3 2.359.513 4.095-.198 4.816-3.188.185-3.165-2.303-6.286-6.281-6.17-5.832.133-12.809-.045-18.527-.01" fill="url(#0)"/></svg>