<svg xmlns="http://www.w3.org/2000/svg" viewBox="0 0 32 32"><defs><linearGradient gradientTransform="matrix(2.62891 0 0 2.71269-160.16-291.42)" id="0" x1="67.894" y1="108.69" x2="67.854" y2="113.11" gradientUnits="userSpaceOnUse"><stop stop-color="#f9f9f9"/><stop offset="1" stop-color="#999"/></linearGradient></defs><rect width="28.2" height="28.2" x="1.898" y="1.898" fill="#248afd" fill-rule="evenodd" rx="5.575"/><g transform="matrix(.59801 0 0 .59801 30.606 18.753)" fill="#fff"><path d="m-24.43-13.09l-11.795 10.385-.006.006c-.232.229-.377.545-.377.898v10.658c0 .7.564 1.264 1.264 1.264h3.152v-11.645c.221-.004.98-.004 1.342.01h5.117c.372 0 .707.148.949.391.242.242.393.578.393.949v10.295h10.883c.7 0 1.264-.564 1.264-1.264v-10.658c0-.382-.176-.712-.441-.943h.023zm3.404 11.563h3.076c.7 0 1.264.564 1.264 1.264v3.076c0 .7-.564 1.264-1.264 1.264h-3.076c-.7 0-1.264-.564-1.264-1.264v-3.076c0-.7.564-1.264 1.264-1.264"/><path d="m-24.463-19.34c-.026.002-.05.015-.076.02-.063.009-.124.023-.184.049-.014.007-.027.016-.041.023-.055.028-.112.049-.16.092l-15.908 13.988c-.308.271-.337.739-.066 1.047l1.143 1.301c.271.308.739.337 1.047.066l14.283-12.561 14.285 12.561c.308.271.774.242 1.045-.066l1.145-1.301c.271-.308.242-.776-.066-1.047l-5.938-5.221v-3.957c0-.7-.564-1.264-1.264-1.264h-.836c-.7 0-1.264.564-1.264 1.264v1l-6.609-5.811c-.047-.041-.101-.062-.154-.09-.016-.009-.031-.018-.047-.025-.06-.026-.119-.04-.182-.049-.039-.007-.076-.013-.115-.014-.013 0-.025-.007-.037-.006"/><path d="m-32.19-1.52l5.228 1.728v8.389l-5.228 1.535z" fill-opacity=".619"/><circle r=".494" cy="4.779" cx="-28.18"/></g>

   xmlns:dc="http://purl.org/dc/elements/1.1/"
   xmlns:cc="http://creativecommons.org/ns#"
   xmlns:rdf="http://www.w3.org/1999/02/22-rdf-syntax-ns#"
   xmlns:svg="http://www.w3.org/2000/svg"
   xmlns="http://www.w3.org/2000/svg"
   xmlns:xlink="http://www.w3.org/1999/xlink"
   xmlns:sodipodi="http://sodipodi.sourceforge.net/DTD/sodipodi-0.dtd"
   xmlns:inkscape="http://www.inkscape.org/namespaces/inkscape"
   version="1"
   width="32"
   height="32"
   id="svg12"
   sodipodi:docname="snow-top-1.svg"
   inkscape:version="0.92.1 r"&gt;
  <path d="m7.288.009c-8.276-.356-9.36 9.992-4.02 9.973.679.003 1.604-.207 2.97-1.543 7.256-10.531 14.706 3.573 17.53.919 1.71-1.912 3.496-.418 4.448.115 2.1.643 3.662.041 3.785-3.231.188-3.321-1.889-6.344-5.923-6.223-5.914.14-12.989-.047-18.787-.01" fill="url(#0)"/><path fill="#f00" fill-opacity="0" d="m0 0h32v32h-32z"/></svg>