<svg xmlns="http://www.w3.org/2000/svg" viewBox="0 0 32 32"><defs><clipPath><rect rx="4" height="46" width="46" y="1" x="1" fill="#1890d0" stroke-width="1"/></clipPath><linearGradient gradientTransform="matrix(2.59244 0 0 2.58531-157.93-277.73)" id="0" x1="67.894" y1="108.69" x2="67.854" y2="113.11" gradientUnits="userSpaceOnUse"><stop stop-color="#f9f9f9"/><stop offset="1" stop-color="#999"/></linearGradient></defs><g transform="translate(52.746 8.678)" fill-rule="evenodd"><path d="m-29.914 2.271c-.05-.005-.1-.009-.148.006v-.004c-.032.008-.075.039-.1.066-1.074 3.01-2.136 6.01-3.213 9.01.591.003 1.2.041 1.791 0 1.042-3.03 2.118-6.05 3.176-9.07-.453-.011-.901.008-1.357 0-.049.007-.099 0-.148-.006" fill="#0286c2"/><path d="m-37.645 21.424c1.056-2.726 2.33-5.715 3.242-8.258 1.228-.024 2.449-.011 3.68-.035.39-.013.878-.138 1.303-.354.424-.216.785-.522.914-.902 1.036-2.917 2.072-5.807 3.076-8.738.164-.443.265-.929.133-1.389-.175-.589-.711-1.037-1.289-1.193-.502-.157-1.01-.089-1.523-.1-1.576-.003-3.194-.017-4.77-.033v.002c-.024.052-.038.18-.063.23-2.336 6.554-5.093 14.05-7.512 20.77zm7.73-19.15c.05.005.1.013.148.006.456.008.904-.011 1.357 0-1.058 3.02-2.134 6.04-3.176 9.07-.591.041-1.2.003-1.791 0 1.077-3 2.139-6 3.213-9.01.024-.027.067-.058.1-.066v.004c.049-.015.099-.011.148-.006" fill="#fff"/><path d="m-41.17-6.779h-4.1c-3.089 0-5.576 2.486-5.576 5.574v17.05c0 3.089 2.488 5.576 5.576 5.576h4.818c2.419-6.719 5.175-14.216 7.512-20.77.024-.051.039-.179.063-.23v-.002c1.576.017 3.194.03 4.77.033.515.011 1.021-.057 1.523.1.578.157 1.114.605 1.289 1.193.133.46.032.946-.133 1.389-1 2.931-2.04 5.821-3.076 8.738-.13.38-.49.687-.914.902-.424.216-.913.34-1.303.354-1.23.024-2.452.011-3.68.035-.913 2.543-2.186 5.532-3.242 8.258h9.426c3.089 0 5.574-2.488 5.574-5.576v-17.05c0-3.089-2.486-5.574-5.574-5.574h-9.506c-.792 2.259-1.593 4.549-2.369 6.748.618.023 1.403.08 2.143.271.74.192 1.433.517 1.863 1.074.203.263.294.599.307.949.013.351-.055.717-.174 1.037-1.118 3.136-2.267 6.265-3.379 9.4-.982.014-1.961-.008-2.943 0-.137-.003-.268.02-.4-.031 1.252-3.44 2.478-6.912 3.709-10.363-.586-.008-1.165.011-1.754 0-.089.189-.165.401-.232.598-1.134 3.182-2.28 6.349-3.408 9.533-.054.081-.039.264-.166.264-.939.003-1.878-.006-2.814 0-.17-.003-.332.017-.496-.031 2.216-6.14 4.447-13.08 6.668-19.449" fill="#0286c2"/><path d="m-41.17-6.779c-2.221 6.372-4.452 13.309-6.668 19.449.164.048.326.028.496.031.936-.006 1.875.003 2.814 0 .127 0 .112-.183.166-.264 1.128-3.184 2.274-6.352 3.408-9.533.068-.197.143-.409.232-.598.589.011 1.168-.008 1.754 0-1.23 3.451-2.457 6.923-3.709 10.363.132.051.263.028.4.031.982-.008 1.961.014 2.943 0 1.112-3.136 2.261-6.264 3.379-9.4.119-.32.186-.687.174-1.037-.013-.351-.104-.687-.307-.949-.43-.558-1.124-.883-1.863-1.074-.74-.192-1.525-.248-2.143-.271.777-2.199 1.577-4.489 2.369-6.748z" fill="#fff"/></g>

   xmlns:dc="http://purl.org/dc/elements/1.1/"
   xmlns:cc="http://creativecommons.org/ns#"
   xmlns:rdf="http://www.w3.org/1999/02/22-rdf-syntax-ns#"
   xmlns:svg="http://www.w3.org/2000/svg"
   xmlns="http://www.w3.org/2000/svg"
   xmlns:xlink="http://www.w3.org/1999/xlink"
   xmlns:sodipodi="http://sodipodi.sourceforge.net/DTD/sodipodi-0.dtd"
   xmlns:inkscape="http://www.inkscape.org/namespaces/inkscape"
   version="1"
   width="32"
   height="32"
   id="svg12"
   sodipodi:docname="snow-top-4.svg"
   inkscape:version="0.92.1 r"&gt;
  <path d="m7.196.009c-8.161-.339-9.231 9.523-3.968 9.505.669.003 1.581-.197 2.929-1.471 3.773-4.147 9.01 4.479 14.696-1.042.61-.911 1.804-1.135 2.455-.627 1.045.677 2.87 2.991 3.88 3 2.359.513 4.095-.198 4.816-3.188.185-3.165-2.303-6.286-6.281-6.17-5.832.133-12.809-.045-18.527-.01" fill="url(#0)"/></svg>