<svg xmlns="http://www.w3.org/2000/svg" viewBox="0 0 32 32"><defs><linearGradient gradientTransform="matrix(2.54182 0 0 2.58531-153.47-277.37)" id="0" x1="67.894" y1="108.69" x2="67.854" y2="113.11" gradientUnits="userSpaceOnUse"><stop stop-color="#f9f9f9"/><stop offset="1" stop-color="#999"/></linearGradient></defs><rect width="28.2" height="28.2" x="1.898" y="1.898" fill="#7767c0" fill-rule="evenodd" rx="5.575"/><g transform="translate(42.629-1.119)"><g fill-rule="evenodd"><path d="m-20.699 31.22v-15.02c0-.772-.156-1.506-.438-2.174-.281-.667-.688-1.27-1.191-1.773-.504-.504-1.104-.91-1.771-1.191-.667-.281-1.404-.438-2.176-.438h-13.02c-.511 0-.97.162-1.439.289v14.727c0 3.089 2.486 5.576 5.574 5.576z" fill="#9182d7"/><g fill="#a79bdf"><path d="m-20.699 24.951v6.27h2.596c3.089 0 5.576-2.488 5.576-5.576v-.693z"/><path d="m-33.791 3.02h-1.365c-3.089 0-5.574 2.486-5.574 5.574v2.326c.469-.128.929-.289 1.439-.289h5.5z"/></g><path d="m-33.791 3.02v7.611h7.516c.772 0 1.508.156 2.176.438.667.281 1.268.688 1.771 1.191.504.504.91 1.106 1.191 1.773.281.667.438 1.402.438 2.174v8.746h8.172v-16.359c0-3.089-2.488-5.574-5.576-5.574z" fill="#7767c0"/></g><path d="m-31.2 14.13c-3.866 0-7 3.134-7 7 0 3.866 3.134 7 7 7 3.866 0 7-3.134 7-7 0-3.866-3.134-7-7-7m-.701 1.338c.082-.008.185.004.268 0 .011.039-.059.178-.152.381-.593 1.295-.626 2.813-.076 3.623.099.147.189.286.189.305 0 .019-.107.038-.229.038-.285 0-.555-.173-1.105-.609-.245-.194-.562-.356-.686-.381-.194-.039-.246-.023-.496.229-.233.233-.305.359-.305.572 0 .809.96 1.45 2.744 1.828 2.424.514 3.02.976 3.088 2.25.084 1.598-.767 2.803-2.631 3.736-.222.111-.364.153-.457.189-.041-.004-.072.004-.113 0-.015-.05-.039-.164-.039-.381 0-.849-.334-1.722-.838-2.211-.135-.131-.515-.409-.84-.609-.324-.201-.652-.434-.725-.533-.121-.165-.13-.267-.038-.572.169-.557.37-.869.762-1.221.205-.184.412-.338.457-.342.045-.004-.261-.097-.723-.191-.462-.094-1.139-.294-1.488-.42-.639-.231-1.499-.715-1.828-1.066l-.039-.039c.471-1.876 1.793-3.413 3.545-4.154.367-.155.746-.262 1.145-.344.199-.041.404-.055.609-.076zm5.719 2.859c.143.088.683 1.259.838 1.83.2.737.185 2.01 0 2.744-.07.279-.159.54-.189.572-.03.034-.139-.154-.268-.381-.128-.227-.537-.71-.877-1.068-.981-1.035-1.136-1.574-.725-2.4.207-.417 1.11-1.365 1.221-1.297" fill="#fff"/><g transform="matrix(.75 0 0 .75-35.463 5.848)" stroke-width="1.333"><circle cy="23" cx="21" r="8" fill="#4f4f4f" fill-rule="evenodd" stroke-width="1.778"/><path d="m22 19v4h1.5l-2.5 3-2.5-3h1.5v-4z" fill="#fff" stroke-width="1.333"/></g></g>

   xmlns:dc="http://purl.org/dc/elements/1.1/"
   xmlns:cc="http://creativecommons.org/ns#"
   xmlns:rdf="http://www.w3.org/1999/02/22-rdf-syntax-ns#"
   xmlns:svg="http://www.w3.org/2000/svg"
   xmlns="http://www.w3.org/2000/svg"
   xmlns:xlink="http://www.w3.org/1999/xlink"
   xmlns:sodipodi="http://sodipodi.sourceforge.net/DTD/sodipodi-0.dtd"
   xmlns:inkscape="http://www.inkscape.org/namespaces/inkscape"
   height="32"
   width="32"
   version="1"
   id="svg8"
   sodipodi:docname="snow-top-2.svg"
   inkscape:version="0.92.1 r"&gt;
  <path d="m24.646 6.111c2.995 2.684 1.381 7.817 3.674 8.291 2.031.613 3.541-1.385 3.66-4.503.35-8.627-3.911-9.427-6.879-9.524-28.342-2.047-1.762 4.92-.455 5.736" fill="url(#0)"/></svg>