<svg xmlns="http://www.w3.org/2000/svg" viewBox="0 0 32 32"><defs><linearGradient gradientTransform="matrix(2.62891 0 0 2.71269-160.16-291.42)" id="0" x1="67.894" y1="108.69" x2="67.854" y2="113.11" gradientUnits="userSpaceOnUse"><stop stop-color="#f9f9f9"/><stop offset="1" stop-color="#999"/></linearGradient></defs><path d="m23.868 8.435c.017 3.085.062 5.527.062 8.1 0 4.423-3.586 8.01-8.01 8.01-4.423 0-8.01-3.586-8.01-8.01 0-4.423 3.586-8.01 8.08-8.02 3.051-.146 5.912-.102 7.876-.082z" fill="none" stroke="#fff" stroke-width=".915" stroke-miterlimit="4.5"/><g fill-rule="evenodd"><rect width="28.2" height="28.2" x="1.898" y="1.898" fill="#007eff" rx="5.575"/><g transform="translate(49.558-6.987)"><path d="m-40.34 37.09h15.307c3.089 0 5.574-2.488 5.574-5.576v-17.05c0-3.089-2.486-5.574-5.574-5.574h-15.307z" fill="#007eff"/><path d="m-40.34 37.09v-28.2h-1.748c-3.089 0-5.574 2.486-5.574 5.574v17.05c0 3.089 2.486 5.576 5.574 5.576z" fill="#005ea3"/></g></g><g aria-label="i" fill="#fff" stroke="#fff" stroke-width="1.4"><path d="m18.707 9.123c-.973 0-1.775.805-1.775 1.777 0 .966.775 1.775 1.756 1.775.98 0 1.795-.803 1.795-1.775 0-.973-.803-1.777-1.775-1.777m1.57 4.576l-.74.043-4.146.242v2.158h1.646c.068 0 .075.005.117.008-.017-.008-.02-.043-.02.221v4.432.742c0 .084-.003.088-.008.127-.008-.012-.179.043-.684.043h-.83v2.068h6.203v-2.068h-.83c-.513 0-.689-.056-.699-.045-.005-.039-.01-.042-.01-.125v-.742z" shape-rendering="auto" mix-blend-mode="normal" isolation="auto" color-interpolation-filters="linearRGB" white-space="normal" fill="#fff" solid-opacity="1" image-rendering="auto" solid-color="#000000" stroke="none" color="#000" color-rendering="auto" vector-effect="none" shape-padding="0" color-interpolation="sRGB" transform="translate(.949-.407)"/></g>

   xmlns:dc="http://purl.org/dc/elements/1.1/"
   xmlns:cc="http://creativecommons.org/ns#"
   xmlns:rdf="http://www.w3.org/1999/02/22-rdf-syntax-ns#"
   xmlns:svg="http://www.w3.org/2000/svg"
   xmlns="http://www.w3.org/2000/svg"
   xmlns:xlink="http://www.w3.org/1999/xlink"
   xmlns:sodipodi="http://sodipodi.sourceforge.net/DTD/sodipodi-0.dtd"
   xmlns:inkscape="http://www.inkscape.org/namespaces/inkscape"
   version="1"
   width="32"
   height="32"
   id="svg12"
   sodipodi:docname="snow-top-1.svg"
   inkscape:version="0.92.1 r"&gt;
  <path d="m7.288.009c-8.276-.356-9.36 9.992-4.02 9.973.679.003 1.604-.207 2.97-1.543 7.256-10.531 14.706 3.573 17.53.919 1.71-1.912 3.496-.418 4.448.115 2.1.643 3.662.041 3.785-3.231.188-3.321-1.889-6.344-5.923-6.223-5.914.14-12.989-.047-18.787-.01" fill="url(#0)"/><path fill="#f00" fill-opacity="0" d="m0 0h32v32h-32z"/></svg>