<svg xmlns="http://www.w3.org/2000/svg" viewBox="0 0 32 32"><g transform="translate(39.932-5.04)"><g fill-rule="evenodd"><path d="m-32.471 6.934c-3.089 0-5.574 2.486-5.574 5.574v10c.062-.108.053-.254.141-.342.259-.259.617-.417 1.014-.418 6.661 1.494 21.463-2.431 26.811.418.147.147.166.377.238.578v-10.238c0-3.089-2.488-5.574-5.576-5.574z" fill="#0286c2"/><path d="m-9.842 21.985c-.072-.201-.091-.431-.238-.578-.259-.259-.619-.418-1.016-.418h-25.793-.002c-.396.001-.755.159-1.014.418-.087.087-.078.234-.141.342v7.812c0 3.089 2.486 5.576 5.574 5.576h17.05c3.089 0 5.576-2.488 5.576-5.576z" fill="#e6281b"/></g><ellipse cx="-24.2" cy="21.749" ry="4.504" rx="13.569" fill="#ffffc8"/><ellipse cx="-23.992" cy="22.12" ry="2.252" rx="6.614" opacity=".02"/><ellipse cx="-23.992" cy="22.09" ry="1.689" rx="4.961" opacity=".02"/><path d="m-23.927727 17.245351a14.1081 4.504089 0 0 0 -14.1081 4.504089 14.1081 4.504089 0 0 0 .01064 .07207 14.1081 4.391486 0 0 0 -.01064 .09684 14.1081 4.391486 0 0 0 3.552419 2.907389l.072 2.15.704.065.386-1.841c.001-.005-.001-.008 0-.012a14.1081 4.391486 0 0 0 8.775454 1.114762l.267 2.204h.703l.267-2.206a14.1081 4.391486 0 0 0 8.766555 -1.108006l.391 1.849.701-.065.073-2.15a14.1081 4.391486 0 0 0 3.558497 -2.90739 14.1081 4.391486 0 0 0 -.010847 -.06981 14.1081 4.504089 0 0 0 .010847 -.09909 14.1081 4.504089 0 0 0 -14.1081 -4.504089m0 1.126c3.806 0 7.253.501 9.656 1.269 1.202.384 2.143.843 2.705 1.267.561.425.661.715.661.842 0 .127-.1.418-.661.842-.562.425-1.503.881-2.705 1.265-2.404.768-5.851 1.271-9.656 1.271-3.806 0-7.252-.503-9.657-1.271-1.202-.384-2.143-.84-2.705-1.265-.562-.425-.661-.715-.661-.842 0-.127.1-.418.661-.842.562-.424 1.502-.883 2.705-1.267 2.405-.768 5.851-1.269 9.657-1.269" fill="#afafaf"/></g>

   xmlns:dc="http://purl.org/dc/elements/1.1/"
   xmlns:cc="http://creativecommons.org/ns#"
   xmlns:rdf="http://www.w3.org/1999/02/22-rdf-syntax-ns#"
   xmlns:svg="http://www.w3.org/2000/svg"
   xmlns="http://www.w3.org/2000/svg"
   xmlns:sodipodi="http://sodipodi.sourceforge.net/DTD/sodipodi-0.dtd"
   xmlns:inkscape="http://www.inkscape.org/namespaces/inkscape"
   height="32"
   width="32"
   version="1"
   id="svg8"
   sodipodi:docname="star-mime-2.svg"
   inkscape:version="0.92.1 r"&gt;
  <g transform="translate(152.47 194.05)" fill="#fff"><path d="m-125.38-193.25l-.077 3.548 3.072 1.831-3.548-.077-3.135 6.791 1.38-7.268-3.072-1.831 3.548.077z"/><path d="m-125.41-183.04l.042-1.955-1.692-1.01 1.955.042 1.727-3.741-.76 4 1.692 1.01-1.955-.042z"/></g></svg>