<svg xmlns="http://www.w3.org/2000/svg" xmlns:xlink="http://www.w3.org/1999/xlink" viewBox="0 0 32 32"><defs><linearGradient xlink:href="#3" id="4" gradientUnits="userSpaceOnUse" x1="-23.24" y1="-185.08" x2="-28.704" y2="-186.05"/><linearGradient xlink:href="#3" id="2" gradientUnits="userSpaceOnUse" x1="-34.914" y1="-193.53" x2="-20.469" y2="-181.36"/><linearGradient id="3"><stop stop-color="#ffff5e"/><stop offset="1" stop-color="#f6a32d"/></linearGradient><linearGradient id="1"><stop stop-color="#f9f9f9"/><stop offset="1" stop-color="#999"/></linearGradient><linearGradient xlink:href="#1" id="0" gradientUnits="userSpaceOnUse" x1="-33.14" y1="-185.13" x2="-35.775" y2="-177.2"/><radialGradient xlink:href="#1" id="5" cx="-176.59" cy="-120.91" r="3.01" gradientUnits="userSpaceOnUse" gradientTransform="matrix(2.21087.05719-.05496 2.12455 362.18 94.22)"/></defs><rect width="28.2" height="28.2" x="1.898" y="1.898" fill="#2095f2" fill-rule="evenodd" rx="5.575"/><g enable-background="new"><path d="m124.06 140.49l1.899 11.392-18.354 10.127v49.37c0 6.329-1.055 10.759-3.165 13.291-2.11 2.532-5.696 3.798-10.759 3.798-5.907 0-11.392-.633-16.456-1.899l-2.532-13.291c5.485 1.688 11.181 2.532 17.09 2.532 2.11 0 3.165-2.532 3.165-7.595v-39.873c-6.751 2.954-13.924 5.907-21.519 8.861l-4.433-13.3c9.283-3.375 17.932-6.751 25.949-10.127v-32.28h-20.886v-12.03h20.886v-26.582h12.658v26.582h17.722v12.03h-17.722v27.22c5.485-2.953 10.97-5.696 16.456-8.228m63.29-57.59l13.924 3.797c-4.642 9.283-9.283 17.511-13.924 24.684h26.582v12.03h-17.722v34.18h22.785v12.03h-22.785v58.861h-12.658v-58.861h-27.848c-2.954 27-13.08 46.835-30.38 59.49l-8.861-9.494c14.768-10.97 23.418-27.637 25.949-50h-19.62v-12.03h20.886c.422-3.375.633-6.962.633-10.759v-23.418h-16.456v-12.03h46.2c5.063-8.861 9.494-18.354 13.291-28.481m-3.798 74.68v-34.18h-26.582v25.316c0 2.954-.211 5.907-.633 8.861h27.22m-34.18-72.78c5.063 5.907 8.861 12.447 11.392 19.62l-13.291 4.43c-2.532-7.595-6.118-14.346-10.759-20.253l12.658-3.797" fill="#fff" transform="matrix(.12 0 0 .12-1.279-2.719)"/></g><g transform="translate(49.877 194.68)"><path d="m-35.21-194.22c-5.577-1.531-5.951 3.24-4.58 5.493 4.381 6.983 6.796 6.577 9.398 7.895 1.712 2.064 3.451 3.4 6.469 4.1 11.69 1.559 3.242-8.417.92-8.649-5.065.012-7.547-6.123-12.206-8.838" fill="url(#0)"/><path d="m-35.21-194.22c3.76.276 5.616-.626 8.93-.421 4.319.283 8.307 2.053 7.838 6.574-.347 2.567-.37 2.25.186 4.296.532 1.535-.252 4.232-.487 4.654-2.715 4.963-1.536 4.965-2.656 7.742l-.906-.418-2.508-11.358c-7.177-.909-10.754-10.11-10.398-11.07" fill="url(#2)"/><path d="m-28.419-184.29c.362.274 1.553-5.105 1.172-5.653 1.379 2.44 1.919 4.616 2.435 6.783-1.276-.283-2.289-.554-3.607-1.13" fill="url(#4)"/><circle r="3.01" cy="-171.07" cx="-21.728" fill="url(#5)"/></g></svg>