<svg xmlns="http://www.w3.org/2000/svg" viewBox="0 0 32 32"><defs><linearGradient gradientTransform="matrix(2.59244 0 0 2.58531-157.93-277.73)" id="0" x1="67.894" y1="108.69" x2="67.854" y2="113.11" gradientUnits="userSpaceOnUse"><stop stop-color="#f9f9f9"/><stop offset="1" stop-color="#999"/></linearGradient></defs><rect width="28.2" height="28.2" x="1.898" y="1.898" fill="#6573c3" fill-rule="evenodd" rx="5.575"/><g transform="matrix(.81203 0 0 .81203 29.903 12.136)" stroke-width="1.231"><rect x="-17.259" y="7.119" width="22" height="22" rx="11" transform="matrix(0-1-1 0 0 0)" fill="#f2f2f2"/><path d="m-10.487-7.741c-.007 0-.015.005-.022.005-.051.004-.104.017-.158.039-.045.018-.089.038-.132.074-.045.038-.086.091-.126.154-.01.016-.02.033-.03.051-.036.067-.069.142-.095.238-.002.006-.004.009-.005.014-.073-.353-.837-.268-.837-.268 0 0 .001.001.001.001 0 0-.003 0-.003 0 0 0 .064.044.126.104.031.031.062.065.085.101 0 0 0 .001 0 .001.023.036.036.072.035.106v.001c-.131.015-.26.036-.387.064-.028-.063-.024-.156-.018-.256.007-.1.016-.204-.001-.291-.001.001-.001.002-.001.003 0-.001 0-.003 0-.004-.054.083-.093.184-.121.289-.028.104-.046.211-.057.307-.025.007-.049.017-.075.025-.099.029-.198.058-.293.095-.068-.116-.144-.216-.224-.311-.082-.097-.171-.18-.265-.252-.017-.013-.034-.027-.051-.039-.095-.066-.195-.121-.301-.158-.003-.001-.006-.004-.009-.005-.001 0-.002 0-.003 0-.107-.036-.22-.052-.337-.055-.012 0-.022-.005-.033-.005-.019 0-.04.009-.059.01-.091.005-.183.021-.279.047-.033.009-.065.017-.099.029-.126.044-.255.101-.388.185-.478.301-.701.781-.768 1.314-1.384.293-2.942.54-4.317.546-.015 0-.032.001-.048.001-1.481 0-2.682.436-3.566 1.238-.253.229-.479.487-.679.774 0 0 0 .001 0 .001-.1.143-.194.293-.28.45-.044.08-.082.167-.122.251-.039.081-.082.159-.118.243 0 0 0 .001 0 .001-.073.171-.139.348-.198.531-.059.184-.112.374-.157.571-.035.151-.062.308-.089.466-.008.049-.02.094-.027.144 0 0 0 .001 0 .001-.031.209-.054.423-.071.644 0 .001 0 .002 0 .003-.017.22-.026.446-.028.678-.004.465.001.886.013 1.267 0 .001 0 .002 0 .003.012.38.032.72.058 1.024 0 0 0 .001 0 .001.026.304.058.572.094.808 0 0 0 .001 0 .001.036.236.076.44.12.616 0 0 0 .001 0 .001.043.176.09.324.138.448 0 0 0 .001 0 .001.048.124.097.223.147.303 0 0 0 .001 0 .001.049.08.099.139.147.183.048.044.094.074.138.09.282.104.197-.026.152-.086-.014-.013-.027-.039-.028-.04l.125.077.126.08v-.158l.118.016.103.014.096-.195.031-.061h.284c0 0 .111-.07.176-.256.007-.02.018-.032.023-.055 0 0 0-.001 0-.001.019-.079.03-.177.022-.296-.024-.361.129-.506.1-.746-.009-.079-.038-.169-.1-.281-.125-.221-.257-1.285-.298-2.356-.001-.016-.002-.031-.003-.047-.02-.543-.016-1.084.024-1.516 0 0 0-.001 0-.001.04-.431.118-.753.244-.858.126-.104.318-.243.553-.396.235-.152.513-.319.813-.479.45-.241.949-.468 1.424-.614.158-.049.313-.088.463-.116.45-.084.852-.182 1.325-.244.314-.041.661-.066 1.074-.061 0 0 .001 0 .001 0 .009 0 .021.001.031.001.615.009 1.376.085 2.402.274.002.185.017.404.046.672 0 .002 0 .002 0 .004 0 .001 0 .001 0 .001.08.734.243 1.16.468 1.549.225.388.512.738.838 1.32 0 .001.001.001.001.001.099.179.203.341.313.483 0 0 .001.001.001.001.11.143.225.267.345.373.12.106.245.194.374.265.001 0 .001.001.001.001.129.07.263.124.401.159.557.144 1.186.01 1.878-.381.569-.338.99-.497 1.376-.719.097-.055.19-.115.284-.183.094-.068.188-.143.283-.23.095-.087.191-.185.291-.299 0 0 0-.001 0-.001.099-.114.204-.242.311-.39.028-.039.034-.058.06-.095.135-.19.254-.364.336-.507.208-.157.418-.316.615-.447.479-.327 1-.833 1.326-1.409 0 0 0-.001 0-.001.161-.288.272-.593.303-.902 0 0 0-.001 0-.001.008-.077.01-.154.008-.231 0 0 0-.001 0-.001-.008-.233-.066-.466-.187-.694-.072-.136-.151-.25-.235-.35-.027-.032-.056-.054-.084-.082-.058-.06-.118-.116-.181-.161-.036-.026-.074-.046-.111-.067-.061-.034-.123-.064-.188-.086-.038-.013-.076-.024-.115-.033-.075-.017-.15-.026-.227-.029-.027-.001-.055-.004-.082-.003-.105.003-.212.018-.32.046-.003.001-.005.001-.008.001 0 0-.001 0-.001 0-.214.056-.429.154-.642.294-.001-.002-.003-.003-.004-.005-.059-.084-.123-.164-.189-.243-.016-.019-.03-.04-.046-.059 0 0 0-.001 0-.001.03-.064.067-.15.095-.243.028-.093.048-.192.044-.282-.123.147-.159.495-.359.291-.025-.026-.041-.049-.049-.069-.008-.021-.008-.039-.003-.055.005-.015.024-.024.037-.035.069-.062.221-.084.221-.084 0 0-.001-.001-.001-.001 0 0-.238-.183-.426-.192-.031-.002-.061.002-.089.012-.027.01-.052.026-.072.05.077-.293-.001-.45-.099-.533-.098-.083-.215-.094-.215-.094 0 0 0 .001 0 .001 0 0 .088.095.125.205.004.012.012.022.014.034 0 0 0 .001 0 .001.008.041.007.084-.01.124 0 0 0 .001 0 .001-.012.027-.033.049-.059.065-.009.005-.02.006-.03.01-.019.008-.038.017-.059.02-.052-.032-.106-.063-.159-.093-.02-.011-.038-.023-.058-.034-.016-.047-.02-.111 0-.188 0-.001 0-.002 0-.003-.124-.045-.219-.01-.288.05-.054-.024-.109-.048-.164-.071l.044-.229.055-.285-.001.003v-.003l-.278.443c-.041-.015-.082-.029-.124-.043-.01-.135-.058-.286-.198-.376-.047-.03-.104-.053-.174-.067-.047.179-.141.26-.242.282-.036-.007-.073-.012-.109-.018-.036-.006-.072-.013-.108-.018-.049-.027-.091-.064-.12-.107-.028-.043-.043-.091-.038-.138.006-.061.035-.114.076-.158.122-.131.345-.189.345-.189 0 0-.038-.018-.1-.033-.046-.011-.106-.021-.171-.018zm-12.11 14.987v.353l-.252-.161v.193l-.284-.161.063.161-.253-.128.032.32-.252-.256.094.448-.252-.128.221.577-.316-.417.221.577-.189-.128.252.513-.221-.193.253.353-.221-.128c0 0 1.136 2.181 3.03 3.431.474.313 1 .671 1.591 1.025.59.354 1.244.702 1.97.995.908.366 1.93.643 3.085.734.231.018.467.029.71.031.484.005.99-.023 1.519-.091.529-.068.989-.203 1.389-.386.4-.184.739-.417 1.027-.68.433-.395.752-.861.985-1.337v-.001c.701-1.429.64-2.95.64-2.95-1.18 2.709-2.242 3.571-4.03 3.081-.164-.045-.339-.109-.516-.176-.269-.102-.549-.221-.851-.372-3.372-1.687-8.243-4.618-8.243-4.618l-.031.225-.473-.417v.128l-.221-.225-.032.193-.221-.321v.257l-.221-.321" fill="#9db9ff" fill-rule="evenodd"/></g>

   xmlns:dc="http://purl.org/dc/elements/1.1/"
   xmlns:cc="http://creativecommons.org/ns#"
   xmlns:rdf="http://www.w3.org/1999/02/22-rdf-syntax-ns#"
   xmlns:svg="http://www.w3.org/2000/svg"
   xmlns="http://www.w3.org/2000/svg"
   xmlns:xlink="http://www.w3.org/1999/xlink"
   xmlns:sodipodi="http://sodipodi.sourceforge.net/DTD/sodipodi-0.dtd"
   xmlns:inkscape="http://www.inkscape.org/namespaces/inkscape"
   version="1"
   width="32"
   height="32"
   id="svg12"
   sodipodi:docname="snow-top-4.svg"
   inkscape:version="0.92.1 r"&gt;
  <path d="m7.196.009c-8.161-.339-9.231 9.523-3.968 9.505.669.003 1.581-.197 2.929-1.471 3.773-4.147 9.01 4.479 14.696-1.042.61-.911 1.804-1.135 2.455-.627 1.045.677 2.87 2.991 3.88 3 2.359.513 4.095-.198 4.816-3.188.185-3.165-2.303-6.286-6.281-6.17-5.832.133-12.809-.045-18.527-.01" fill="url(#0)"/></svg>