<svg xmlns="http://www.w3.org/2000/svg" viewBox="0 0 32 32" xmlns:xlink="http://www.w3.org/1999/xlink"><defs><linearGradient gradientTransform="matrix(-2.54182 0 0 2.58531 185.47-277.37)" id="1" x1="67.894" y1="108.69" x2="67.854" y2="113.11" gradientUnits="userSpaceOnUse"><stop stop-color="#f9f9f9"/><stop offset="1" stop-color="#999"/></linearGradient></defs><rect width="28.2" height="28.2" x="1.898" y="1.898" fill="#37b648" fill-rule="evenodd" rx="5.575"/><g transform="translate(79.66-.56)"><path d="m-66.65 27.528c-.423-.051-.732-.144-1.067-.322-.724-.384-1.214-1.056-1.391-1.905-.06-.286-.06-.944 0-1.239.159-.784.493-1.367 1.631-2.845.69-.896 1.937-2.431 1.976-2.431.012 0 .104.058.204.129.354.25.774.419 1.234.496.046.008.09.023.096.033.006.011.047.501.092 1.091.159 2.129.221 3.403.19 3.936-.029.502-.164 1.04-.369 1.468-.294.614-.784 1.111-1.35 1.369-.387.177-.88.264-1.245.22m5.685-1.176c-.954-.182-1.662-1.016-1.989-2.348-.152-.618-.631-3.629-.696-4.378l-.015-.176.1-.012c.556-.066.775-.124 1.128-.299.128-.063.308-.169.4-.235.092-.066.172-.12.179-.12.013 0 .929 1.037 1.396 1.582.725.845 1.309 1.571 1.509 1.876.581.886.786 1.888.547 2.664-.111.36-.309.658-.596.898-.535.447-1.325.667-1.962.546m4.57-3.803c-.733-.075-1.445-.394-2.069-.926-.359-.306-1.411-1.282-1.91-1.773-.42-.413-1.24-1.263-1.24-1.284 0-.011.05-.08.11-.154.312-.376.507-.778.639-1.318l.024-.099 1.142.011c3.256.03 3.547.046 4.189.238.784.233 1.413.723 1.751 1.361.388.733.379 1.638-.025 2.476-.13.269-.222.404-.429.629-.377.409-.829.667-1.367.78-.224.047-.642.077-.817.059m-4.406-6.164c-.007-.179-.029-.404-.049-.502-.079-.385-.235-.778-.426-1.07-.05-.076-.085-.152-.078-.17.025-.068 1.791-1.569 2.527-2.147.505-.397.798-.594 1.16-.781 1.115-.575 2.146-.542 2.913.096.352.293.65.783.774 1.276.082.325.088.838.012 1.152-.233.97-.95 1.637-2.045 1.902-.377.091-1.755.285-2.871.403-.525.056-1.75.166-1.84.166h-.063l-.013-.325m-10.442.135c-.822-.087-1.498-.385-1.954-.863-.747-.783-.875-2-.328-3.105.371-.751.964-1.226 1.748-1.403.289-.065.906-.06 1.22.01.456.102.941.314 1.345.586.494.334 2.091 1.629 2.934 2.38l.416.371-.04.063c-.022.034-.082.122-.133.195-.22.31-.412.808-.481 1.245l-.037.236-.104.014c-.394.053-2.081.202-2.822.249-.55.035-1.527.048-1.762.023m9.549-2.221c-.351-.38-.994-.703-1.578-.792-.132-.02-.243-.04-.247-.044-.004-.004-.027-.287-.05-.629-.137-2-.18-3.191-.14-3.955.039-.752.104-1.092.29-1.511.19-.429.61-.941.989-1.203.821-.57 1.831-.731 2.769-.441 1.468.455 2.341 2.124 1.949 3.727-.186.761-.663 1.511-1.786 2.809-.422.488-2.02 2.136-2.067 2.136-.021 0-.079-.044-.128-.097m-5-1.089c-1.836-1.903-2.374-2.602-2.64-3.426-.121-.377-.154-.625-.14-1.054.014-.429.058-.629.21-.964.289-.637.78-1.066 1.499-1.309.506-.172.994-.193 1.478-.063.263.07.648.275.875.466.414.347.749.9.885 1.459.097.399.24 1.374.422 2.89.172 1.431.258 2.23.242 2.248-.008.009-.091.028-.185.042-.528.077-1.013.291-1.422.629-.084.069-.167.126-.185.126-.018 0-.486-.47-1.04-1.045" fill="#f9f9f9"/><path d="m-70.33 22.11c-.894-.106-1.758-.939-2.02-1.946-.069-.268-.084-.718-.033-.979.084-.431.283-.798.613-1.126.525-.523 1.172-.794 2.594-1.088.856-.177 2.548-.438 2.595-.4.014.011.032.1.041.198.047.538.292 1.144.634 1.566.078.096.151.188.162.204.015.021-.005.064-.068.144-.134.17-1.661 1.756-1.989 2.065-.315.297-.87.796-1.011.909-.165.132-.452.289-.66.361-.176.061-.537.126-.647.116-.019-.002-.116-.013-.215-.024" fill="#f15b43"/><circle r="3.137" cx="-63.66" cy="16.56" fill="#ffca2b"/></g>

   xmlns:dc="http://purl.org/dc/elements/1.1/"
   xmlns:cc="http://creativecommons.org/ns#"
   xmlns:rdf="http://www.w3.org/1999/02/22-rdf-syntax-ns#"
   xmlns:svg="http://www.w3.org/2000/svg"
   xmlns="http://www.w3.org/2000/svg"
   xmlns:xlink="http://www.w3.org/1999/xlink"
   xmlns:sodipodi="http://sodipodi.sourceforge.net/DTD/sodipodi-0.dtd"
   xmlns:inkscape="http://www.inkscape.org/namespaces/inkscape"
   height="32"
   width="32"
   version="1"
   id="svg8"
   sodipodi:docname="snow-top-3.svg"
   inkscape:version="0.92.1 r"&gt;
  <path fill="#00000f" fill-opacity="0" d="m0 0h32v32h-32z" id="0"/><path d="m7.354 6.111c-2.995 2.684-1.381 7.817-3.674 8.291-2.031.613-3.541-1.385-3.66-4.503-.35-8.627 3.911-9.427 6.879-9.524 28.342-2.047 1.762 4.92.455 5.736" fill="url(#1)"/><use xlink:href="#0"/></svg>