<svg xmlns="http://www.w3.org/2000/svg" viewBox="0 0 32 32"><defs><linearGradient gradientTransform="matrix(2.54182 0 0 2.58531-153.47-277.37)" id="0" x1="67.894" y1="108.69" x2="67.854" y2="113.11" gradientUnits="userSpaceOnUse"><stop stop-color="#f9f9f9"/><stop offset="1" stop-color="#999"/></linearGradient></defs><rect width="28.2" height="28.2" x="1.898" y="1.898" fill="#e6e6e6" fill-rule="evenodd" rx="5.575"/><rect x="5.798" y="-26.2" width="13.846" height="13.846" rx="1.093" transform="matrix(0 1-1 0 0 0)" fill="#85aeff"/><g fill="#6a8bcc"><path d="m14.543 10.17v-.729h8.745v.729z"/><path d="m14.543 12.356v-.729h8.745v.729z"/><path d="m14.543 14.543v-.729h8.745v.729z"/><path d="m14.543 16.729v-.729h5.83v.729z"/></g><rect x="12.356" y="-19.644" width="13.846" height="13.846" transform="matrix(0 1-1 0 0 0)" rx="1.093" fill="#a7baff"/><g fill="#535d7f"><path d="m7.984 16.729v-.729h8.745v.729z"/><path d="m7.984 18.915v-.729h8.745v.729z"/><path d="m7.984 21.1v-.729h8.745v.729z"/><path d="m7.984 23.287v-.729h5.83v.729z"/></g>

   xmlns:dc="http://purl.org/dc/elements/1.1/"
   xmlns:cc="http://creativecommons.org/ns#"
   xmlns:rdf="http://www.w3.org/1999/02/22-rdf-syntax-ns#"
   xmlns:svg="http://www.w3.org/2000/svg"
   xmlns="http://www.w3.org/2000/svg"
   xmlns:xlink="http://www.w3.org/1999/xlink"
   xmlns:sodipodi="http://sodipodi.sourceforge.net/DTD/sodipodi-0.dtd"
   xmlns:inkscape="http://www.inkscape.org/namespaces/inkscape"
   height="32"
   width="32"
   version="1"
   id="svg8"
   sodipodi:docname="snow-top-2.svg"
   inkscape:version="0.92.1 r"&gt;
  <path d="m24.646 6.111c2.995 2.684 1.381 7.817 3.674 8.291 2.031.613 3.541-1.385 3.66-4.503.35-8.627-3.911-9.427-6.879-9.524-28.342-2.047-1.762 4.92-.455 5.736" fill="url(#0)"/></svg>