<svg xmlns="http://www.w3.org/2000/svg" xmlns:xlink="http://www.w3.org/1999/xlink" viewBox="0 0 32 32"><defs><clipPath><path d="m108.81 58c-1.56 0-2.81 1.254-2.81 2.812v24.375c0 1.559 1.25 2.813 2.81 2.813h24.375c1.57 0 2.82-1.254 2.82-2.812v-24.375c0-1.559-1.25-2.813-2.81-2.813h-24.375zm7.188 4.5h10v8.75h5l-10 13.75-10-13.75h5v-8.75"/></clipPath><filter color-interpolation-filters="sRGB"><feGaussianBlur stdDeviation="1.71"/></filter><filter color-interpolation-filters="sRGB"><feGaussianBlur stdDeviation="1.2"/></filter><filter color-interpolation-filters="sRGB"><feGaussianBlur stdDeviation=".637"/></filter><linearGradient id="0"><stop stop-color="#fff"/><stop offset="1" stop-color="#fff" stop-opacity="0"/></linearGradient><linearGradient x2="0" y1="92.54" y2="7.02" gradientTransform="scale(1.0059.99417)" gradientUnits="userSpaceOnUse"><stop/><stop offset="1" stop-opacity=".588"/></linearGradient><linearGradient x1="-88" x2="-58" gradientUnits="userSpaceOnUse"><stop stop-color="#499119"/><stop offset="1" stop-color="#8fd625"/></linearGradient><linearGradient x2="0" y1="71.38" y2="62.54" gradientUnits="userSpaceOnUse" xlink:href="#0"/><linearGradient x2="0" y1="72.38" y2="63.54" gradientUnits="userSpaceOnUse"><stop/><stop offset="1" stop-opacity="0"/></linearGradient><linearGradient gradientTransform="matrix(-2.65552 0 0 2.58531 193.77-277.73)" id="1" x1="67.894" y1="108.69" x2="67.854" y2="113.11" gradientUnits="userSpaceOnUse"><stop stop-color="#f9f9f9"/><stop offset="1" stop-color="#999"/></linearGradient><linearGradient x2="0" y1="58" y2="79.09" gradientUnits="userSpaceOnUse" xlink:href="#0"/></defs><rect width="28.2" height="28.2" x="1.898" y="1.898" fill="#d13232" fill-rule="evenodd" rx="5.575"/><g transform="matrix(.81065 0 0 .81065 3.03 3.03)" fill="#fff" stroke-width="1.234"><path transform="matrix(0 1-1 0 0 0)" fill="#fff" stroke-width="1.234" d="m20-29h1v26h-1z" id="2"/><path transform="matrix(0 1-1 0 0 0)" fill="#fff" stroke-width="1.234" d="m23-29h1v26h-1z" id="3"/><path transform="matrix(0 1-1 0 0 0)" fill="#fff" stroke-width="1.234" d="m26-29h1v26h-1z" id="4"/><path transform="matrix(0 1-1 0 0 0)" fill="#fff" stroke-width="1.234" d="m11-29h1v26h-1z" id="5"/><path transform="matrix(0 1-1 0 0 0)" fill="#fff" stroke-width="1.234" d="m14-29h1v26h-1z" id="6"/><path transform="matrix(0 1-1 0 0 0)" fill="#fff" stroke-width="1.234" d="m17-29h1v26h-1z" id="7"/><path transform="matrix(0 1-1 0 0 0)" fill="#fff" stroke-width="1.234" d="m8-29h1v26h-1z" id="8"/><path transform="matrix(0 1-1 0 0 0)" fill="#fff" stroke-width="1.234" d="m5-29h1v26h-1z" id="9"/></g><g transform="matrix(0 .81065-.81065 0 28.97 3.03)" fill="#fff" stroke-width="1.234"><use xlink:href="#2"/><use xlink:href="#3"/><use xlink:href="#4"/><use xlink:href="#5"/><use xlink:href="#6"/><use xlink:href="#7"/><use xlink:href="#8"/><use xlink:href="#9"/></g><g stroke-width="1"><rect width="19.456" height="19.456" x="-25.728" y="-25.728" rx=".973" ry="1.216" transform="matrix(0-1-1 0 0 0)" fill="#b7b7b7"/><rect width="14.592" height="14.592" x="8.704" y="8.704" rx=".811" fill="#d13232"/></g>

   xmlns:dc="http://purl.org/dc/elements/1.1/"
   xmlns:cc="http://creativecommons.org/ns#"
   xmlns:rdf="http://www.w3.org/1999/02/22-rdf-syntax-ns#"
   xmlns:svg="http://www.w3.org/2000/svg"
   xmlns="http://www.w3.org/2000/svg"
   xmlns:xlink="http://www.w3.org/1999/xlink"
   xmlns:sodipodi="http://sodipodi.sourceforge.net/DTD/sodipodi-0.dtd"
   xmlns:inkscape="http://www.inkscape.org/namespaces/inkscape"
   version="1"
   width="32"
   height="32"
   id="svg12"
   sodipodi:docname="snow-top-3.svg"
   inkscape:version="0.92.1 r"&gt;
  <path d="m24.627.009c8.36-.339 9.455 9.523 4.064 9.505-.686.003-1.62-.197-3-1.471-14.665-10.216-14.549 2.967-17.708.875-1.727-1.822-1.743 4.653-4.139 5.127-2.122.613-3.699-1.385-3.824-4.503-.366-8.627 4.086-9.427 7.187-9.524 5.974.133 11.562-.045 17.419-.01" fill="url(#1)"/></svg>