<svg xmlns="http://www.w3.org/2000/svg" xmlns:xlink="http://www.w3.org/1999/xlink" viewBox="0 0 32 32"><defs><linearGradient gradientTransform="matrix(-2.54182 0 0 2.58531 185.47-277.37)" id="1" x1="67.894" y1="108.69" x2="67.854" y2="113.11" gradientUnits="userSpaceOnUse"><stop stop-color="#f9f9f9"/><stop offset="1" stop-color="#999"/></linearGradient></defs><g fill-rule="evenodd"><rect width="28.2" height="28.2" x="1.898" y="1.898" fill="#5b5b5b" rx="5.575"/><path d="m16 5.04c-.627 0-1.238.234-1.719.73l-8.551 8.814c-.471.486-.721 1.127-.73 1.762 0 .01 0 .032 0 .043 0 1.889 5.04.056 5.5 2.365.247 1.25-2.75.678-2.75 1.936 0 1.475 4.242.46 5.457 1.676.499 1.216-1.624 1.02-1.246 2.15.712.735 2.313.317 2.621 1.504.351 1.355 2.653 1.122 3.996.129.712-.735-1.099-1.07-.387-1.805.712-.735 4.228-.587 4.254-2.193-.336-1.01-1.655-1.173-1.676-2.365-.071-1.01 1.081-.714 4.727-1.719 1.458-.684 1.509-1.048 1.504-1.678 0-.012 0-.03 0-.043-.008-.635-.302-1.275-.773-1.762l-8.508-8.814c-.481-.496-1.091-.73-1.719-.73m.455 1.607c.97.008 3.627 3.289 5.998 5.746.667.893-.258 1.807-.258 1.807l-4.967-2.711-2.193 2.969-1.936-2.904-1.16 4.52-3.42-2.066.902-1.162 5.355-5.486c.411-.417.726-.718 1.678-.711m9.512 13.484c-.174-.006-.349.006-.473.041-.233.067-1.337.108-1.246.947 1 .42 2.525.753 2.707-.086.136-.629-.467-.883-.988-.902m-17.06 2.793c-.097.011-.163.05-.258.086-.759.289-1.267.897-.559 1.162.709.265 1.183-.015 1.805-.344.621-.329.604-.389.559-.516-.086.017-.651-.336-1.246-.389-.099-.008-.204-.011-.301 0" fill="#fff" stroke-width=".783"/></g>

   xmlns:dc="http://purl.org/dc/elements/1.1/"
   xmlns:cc="http://creativecommons.org/ns#"
   xmlns:rdf="http://www.w3.org/1999/02/22-rdf-syntax-ns#"
   xmlns:svg="http://www.w3.org/2000/svg"
   xmlns="http://www.w3.org/2000/svg"
   xmlns:xlink="http://www.w3.org/1999/xlink"
   xmlns:sodipodi="http://sodipodi.sourceforge.net/DTD/sodipodi-0.dtd"
   xmlns:inkscape="http://www.inkscape.org/namespaces/inkscape"
   height="32"
   width="32"
   version="1"
   id="svg8"
   sodipodi:docname="snow-top-3.svg"
   inkscape:version="0.92.1 r"&gt;
  <path fill="#00000f" fill-opacity="0" d="m0 0h32v32h-32z" id="0"/><path d="m7.354 6.111c-2.995 2.684-1.381 7.817-3.674 8.291-2.031.613-3.541-1.385-3.66-4.503-.35-8.627 3.911-9.427 6.879-9.524 28.342-2.047 1.762 4.92.455 5.736" fill="url(#1)"/><use xlink:href="#0"/></svg>