<svg xmlns="http://www.w3.org/2000/svg" viewBox="0 0 32 32"><g fill-rule="evenodd"><g fill="#765a4d"><rect width="28.2" height="28.2" x="1.898" y="1.898" rx="5.575"/><path d="m16 1.898v3.959h-3.043-3.043-3.043-3.043v-2.533c-1.163 1.02-1.93 2.473-1.93 4.148v17.05c0 3.089 2.486 5.574 5.574 5.574h17.05c3.089 0 5.574-2.486 5.574-5.574v-17.05c0-3.089-2.486-5.574-5.574-5.574h-8.527"/></g><path d="m12.957 1.898v3.959h3.043v-3.959h-3.043" fill="#498fb4"/><path d="m9.914 1.898v3.959h3.043v-3.959h-3.043" fill="#50b449"/><path d="m6.871 2.02v3.838h3.043v-3.959h-2.441c-.214 0-.394.098-.602.121" fill="#f1a24a"/><path d="m3.828 3.324v2.533h3.043v-3.838c-1.164.13-2.211.574-3.043 1.305" fill="#e15a5a"/></g><path d="M26.14328 3.828066A2.028656 2.028656 0 0 1 28.17194 5.856722 2.028656 2.028656 0 0 1 26.14328 7.885378 2.028656 2.028656 0 0 1 24.11463 5.856722 2.028656 2.028656 0 0 1 26.14328 3.828066" fill="#383838"/><path d="M16 7.885378A8.114624 8.114624 0 0 1 24.11463 16 8.114624 8.114624 0 0 1 16 24.11463 8.114624 8.114624 0 0 1 7.885378 16 8.114624 8.114624 0 0 1 16 7.885378" fill="#9b9b9b"/><path d="m16 10.928361a5.07164 5.07164 0 0 0 -5.071641 5.071641 5.07164 5.07164 0 0 0 5.071641 5.071639 5.07164 5.07164 0 0 0 5.071639 -5.071639 5.07164 5.07164 0 0 0 -5.071639 -5.071641" fill="#c4c4c4"/>

   xmlns:dc="http://purl.org/dc/elements/1.1/"
   xmlns:cc="http://creativecommons.org/ns#"
   xmlns:rdf="http://www.w3.org/1999/02/22-rdf-syntax-ns#"
   xmlns:svg="http://www.w3.org/2000/svg"
   xmlns="http://www.w3.org/2000/svg"
   xmlns:sodipodi="http://sodipodi.sourceforge.net/DTD/sodipodi-0.dtd"
   xmlns:inkscape="http://www.inkscape.org/namespaces/inkscape"
   height="32"
   width="32"
   version="1"
   id="svg8"
   sodipodi:docname="star-mime-2.svg"
   inkscape:version="0.92.1 r"&gt;
  <g transform="translate(152.47 194.05)" fill="#fff"><path d="m-125.38-193.25l-.077 3.548 3.072 1.831-3.548-.077-3.135 6.791 1.38-7.268-3.072-1.831 3.548.077z"/><path d="m-125.41-183.04l.042-1.955-1.692-1.01 1.955.042 1.727-3.741-.76 4 1.692 1.01-1.955-.042z"/></g></svg>