<svg xmlns="http://www.w3.org/2000/svg" viewBox="0 0 32 32"><defs><linearGradient gradientTransform="matrix(-2.65552 0 0 2.58531 193.77-277.73)" id="0" x1="67.894" y1="108.69" x2="67.854" y2="113.11" gradientUnits="userSpaceOnUse"><stop stop-color="#f9f9f9"/><stop offset="1" stop-color="#999"/></linearGradient></defs><rect width="28.2" height="28.2" x="1.898" y="1.898" fill="#426b65" fill-rule="evenodd" rx="5.575"/><g transform="translate(44.643-1.231)"><path d="m-37.09 6.587c-.618.139-1.104.523-1.052 1.226l.826 13.235c.031.422.233.804.547 1.039l7.438 5.553c.417.311.959.311 1.376 0l7.438-5.553c.314-.235.516-.618.547-1.039l.826-13.235c.052-.703-.434-1.088-1.052-1.226z" fill="#58807c"/><path d="m-28.12 12.441l-1.584 1.597h1.584l.528.532 1.056-1.597-.528-.532zm2.112.532l-1.056 1.597.528 1.596 1.584-1.596v.532l-1.584 1.597.528 1.064 2.112-2.129v.532l-2.112 2.129h2.112l1.056-1.064v-1.064l-.528-.532v-1.064l-1.056-.532-.528-1.064zm-4.752 1.597l-.528.532 1.056 3.725-4.363 4.887 3.268 2.439 4.263-5.73h1.056l.528-.532 1.056-.532.528-.532h-2.64l-.528-1.597h-.528l-.528 1.597h-1.056l.528-1.597-1.056-1.064.528-.532 1.056 1.064h1.056v-.532l-1.056-1.596zm-1.056 1.064l.528 2.661v.532l-4.449 4.03.29.216c.641-.585 3.117-2.843 4.687-4.251l-1.056-3.193m3.696 4.789h.528l-2.64 3.193 2.112-3.193" fill="#ececec" fill-rule="evenodd"/></g>

   xmlns:dc="http://purl.org/dc/elements/1.1/"
   xmlns:cc="http://creativecommons.org/ns#"
   xmlns:rdf="http://www.w3.org/1999/02/22-rdf-syntax-ns#"
   xmlns:svg="http://www.w3.org/2000/svg"
   xmlns="http://www.w3.org/2000/svg"
   xmlns:xlink="http://www.w3.org/1999/xlink"
   xmlns:sodipodi="http://sodipodi.sourceforge.net/DTD/sodipodi-0.dtd"
   xmlns:inkscape="http://www.inkscape.org/namespaces/inkscape"
   version="1"
   width="32"
   height="32"
   id="svg12"
   sodipodi:docname="snow-top-3.svg"
   inkscape:version="0.92.1 r"&gt;
  <path d="m24.627.009c8.36-.339 9.455 9.523 4.064 9.505-.686.003-1.62-.197-3-1.471-14.665-10.216-14.549 2.967-17.708.875-1.727-1.822-1.743 4.653-4.139 5.127-2.122.613-3.699-1.385-3.824-4.503-.366-8.627 4.086-9.427 7.187-9.524 5.974.133 11.562-.045 17.419-.01" fill="url(#0)"/></svg>