<svg xmlns="http://www.w3.org/2000/svg" viewBox="0 0 32 32"><defs><linearGradient gradientTransform="matrix(2.62891 0 0 2.71269-160.16-291.42)" id="0" x1="67.894" y1="108.69" x2="67.854" y2="113.11" gradientUnits="userSpaceOnUse"><stop stop-color="#f9f9f9"/><stop offset="1" stop-color="#999"/></linearGradient></defs><g fill-rule="evenodd"><rect y="1.898" x="1.898" height="28.2" width="28.2" fill="#fff" rx="5.575"/><path d="m28.473 3.529l-24.945 24.943c1.01 1.01 2.401 1.629 3.945 1.629h17.05c3.089 0 5.574-2.486 5.574-5.574v-17.05c0-1.544-.622-2.936-1.629-3.943" fill="#6573c3"/><path d="m28.473 3.527c-1.01-1.01-2.401-1.629-3.945-1.629h-17.05c-3.089 0-5.574 2.486-5.574 5.574v17.05c0 1.544.621 2.938 1.629 3.945l24.945-24.943c0 0 0-.002 0-.002" fill="#848fcf"/></g><g stroke-width=".786"><path d="m8.231 23.77l6.799-8.742.92.92 1.023 1.023z" fill="#f2f2f2"/><path d="m23.771 8.23l-8.742 6.799 1.943 1.943z" fill="#f34235"/></g>

   xmlns:dc="http://purl.org/dc/elements/1.1/"
   xmlns:cc="http://creativecommons.org/ns#"
   xmlns:rdf="http://www.w3.org/1999/02/22-rdf-syntax-ns#"
   xmlns:svg="http://www.w3.org/2000/svg"
   xmlns="http://www.w3.org/2000/svg"
   xmlns:xlink="http://www.w3.org/1999/xlink"
   xmlns:sodipodi="http://sodipodi.sourceforge.net/DTD/sodipodi-0.dtd"
   xmlns:inkscape="http://www.inkscape.org/namespaces/inkscape"
   version="1"
   width="32"
   height="32"
   id="svg12"
   sodipodi:docname="snow-top-1.svg"
   inkscape:version="0.92.1 r"&gt;
  <path d="m7.288.009c-8.276-.356-9.36 9.992-4.02 9.973.679.003 1.604-.207 2.97-1.543 7.256-10.531 14.706 3.573 17.53.919 1.71-1.912 3.496-.418 4.448.115 2.1.643 3.662.041 3.785-3.231.188-3.321-1.889-6.344-5.923-6.223-5.914.14-12.989-.047-18.787-.01" fill="url(#0)"/><path fill="#f00" fill-opacity="0" d="m0 0h32v32h-32z"/></svg>