<svg xmlns="http://www.w3.org/2000/svg" xmlns:xlink="http://www.w3.org/1999/xlink" viewBox="0 0 32 32"><defs><linearGradient id="4" x1="-178.12" y1="-134.12" x2="-183.59" y2="-135.1" gradientUnits="userSpaceOnUse"><stop stop-color="#7c0000"/><stop offset="1" stop-color="#7c0000" stop-opacity="0"/></linearGradient><linearGradient id="3" x1="-189.8" y1="-142.57" x2="-175.35" y2="-130.4" gradientUnits="userSpaceOnUse"><stop stop-color="#ff383f"/><stop offset="1" stop-color="#a02d26"/></linearGradient><linearGradient id="2"><stop stop-color="#f9f9f9"/><stop offset="1" stop-color="#999"/></linearGradient><linearGradient xlink:href="#2" id="1" x1="-188.02" y1="-134.18" x2="-190.66" y2="-126.24" gradientUnits="userSpaceOnUse"/><radialGradient xlink:href="#2" id="5" cx="-176.59" cy="-120.91" r="3.01" gradientUnits="userSpaceOnUse" gradientTransform="matrix(2.21087.05719-.05496 2.12455 207.3 145.17)"/></defs><g transform="translate(149.29-42.807)"><g fill-rule="evenodd"><path d="m-120.56 70.896c-.298.074-.67.168-.67.168h-24.15c-.113 0-.393-.096-.617-.133 1.021 1.187 2.484 1.977 4.18 1.977h17.05c1.711 0 3.182-.806 4.203-2.01" fill="#999"/><path d="m-119.22 67.49v-10.711c0-.461-.222-.866-.563-1.123l.006-.008-13.529-9.938c0 0-13.528 9.951-13.445 9.889v-.002c-.029.019-.057.042-.084.063l-.016.012v.002c-.328.257-.543.654-.543 1.105v10.557c0 1.393.558 2.623 1.396 3.598.224.037.505.133.617.133h24.15c0 0 .372-.094.67-.168.789-.932 1.304-2.095 1.342-3.408" fill="#fe9700"/><path d="m-141.81 44.705c-3.089 0-5.576 2.488-5.576 5.576v6.496c0-.451.215-.848.543-1.105v-.002l.016-.012c.027-.021.055-.044.084-.063v.002c-.083.062 13.445-9.889 13.445-9.889l13.529 9.938-.006.008c.341.257.563.662.563 1.123v10.711c.002-.054.031-.099.031-.154v-17.05c0-3.089-2.488-5.576-5.576-5.576z" fill="#999"/></g><g stroke-width="1.01"><rect x="-144.37" y="48.727" width="22.14" height="18.11" ry="1.508" rx="1.509" fill="#ebebeb"/><path d="m-133.3029 51.745297a5.031 5.031 0 0 0 -5.031 5.031 5.031 5.031 0 0 0 5.031 5.031h3.522c.279 0 .503-.224.503-.503 0-.279-.224-.503-.503-.503h-3.522a4.0248 4.0248 0 0 1 -4.0248 -4.0248 4.0248 4.0248 0 0 1 4.0248 -4.0248 4.0248 4.0248 0 0 1 4.02479 4.0248v1.509c0 .279-.224.503-.503.503-.279 0-.503-.224-.503-.503v-1.509a3.0186 3.0186 0 0 0 -3.01859 -3.0186 3.0186 3.0186 0 0 0 -3.0186 3.0186 3.0186 3.0186 0 0 0 3.0186 3.0186 3.0186 3.0186 0 0 0 2.14411 -.896142c.234.528.761.897 1.377.897.836 0 1.509-.673 1.509-1.509v-1.509a5.031 5.031 0 0 0 -5.031 -5.031m.00011 3.01822a2.0124 2.0124 0 0 1 2.01239 2.0124 2.0124 2.0124 0 0 1 -2.01239 2.0124 2.0124 2.0124 0 0 1 -2.0124 -2.0124 2.0124 2.0124 0 0 1 2.0124 -2.0124" fill="#848484"/></g><g fill-rule="evenodd"><path d="m-119.22 67.49v-10.711l-23.14 16.02c.188.019.351.109.545.109h17.05c3.034 0 5.459-2.408 5.545-5.42" fill="#fecd38"/><path d="m-133.3 66.53l-14.09-9.752v10.557c0 2.895 2.212 5.18 5.03 5.465z" fill="#fec006"/></g></g><path d="m32 .157l-.27 2.221-.122-2.378" fill="#f9f9f9" id="0"/><use xlink:href="#0"/><path d="m32 .113l-.27 1.6-.122-1.713" fill="#f9f9f9"/><g transform="matrix(-1 0 0 1-172.76 143.72)"><path d="m-190.09-143.27c-5.577-1.531-5.951 3.24-4.58 5.493 4.381 6.983 6.796 6.577 9.398 7.895 1.712 2.064 3.451 3.4 6.469 4.1 11.69 1.559 3.242-8.417.92-8.649-5.065.012-7.547-6.123-12.206-8.838" fill="url(#1)"/><path d="m-190.09-143.27c3.76.276 5.616-.626 8.93-.421 4.319.283 8.307 2.053 7.838 6.574-.347 2.567-.37 2.25.186 4.296.532 1.535-.252 4.232-.487 4.654-2.715 4.963-1.536 4.965-2.656 7.742l-.906-.418-2.508-11.358c-7.177-.909-10.754-10.11-10.398-11.07" fill="url(#3)"/><path d="m-183.3-133.33c.362.274 1.553-5.105 1.172-5.653 1.379 2.44 1.919 4.616 2.435 6.783-1.276-.283-2.289-.554-3.607-1.13" fill="url(#4)"/><circle r="3.01" cy="-120.11" cx="-176.61" fill="url(#5)"/></g></svg>