<svg xmlns="http://www.w3.org/2000/svg" viewBox="0 0 32 32"><defs><linearGradient gradientTransform="matrix(-2.65552 0 0 2.58531 193.77-277.73)" id="0" x1="67.894" y1="108.69" x2="67.854" y2="113.11" gradientUnits="userSpaceOnUse"><stop stop-color="#f9f9f9"/><stop offset="1" stop-color="#999"/></linearGradient></defs><rect width="28.2" height="28.2" x="1.898" y="1.898" fill="#0286c2" fill-rule="evenodd" rx="5.575"/><g stroke-width=".779"><path d="m12.496 5.876c-.647 0-1.168.521-1.168 1.168v10.902c0 .647.521 1.168 1.168 1.168h10.902c.647 0 1.168-.521 1.168-1.168v-9.734l2.336-2.336z" fill="#fff"/><path d="m5.098 12.885l2.336 2.336v9.734c0 .647.521 1.168 1.168 1.168h10.902c.647 0 1.168-.521 1.168-1.168v-10.902c0-.647-.521-1.168-1.168-1.168z" fill="#35b9f5"/><path d="m9.77 16.779v.779h8.566v-.779zm0 2.336v.779h8.566v-.779zm0 2.336v.779h6.541v-.779z" fill="#aee3fb"/></g>

   xmlns:dc="http://purl.org/dc/elements/1.1/"
   xmlns:cc="http://creativecommons.org/ns#"
   xmlns:rdf="http://www.w3.org/1999/02/22-rdf-syntax-ns#"
   xmlns:svg="http://www.w3.org/2000/svg"
   xmlns="http://www.w3.org/2000/svg"
   xmlns:xlink="http://www.w3.org/1999/xlink"
   xmlns:sodipodi="http://sodipodi.sourceforge.net/DTD/sodipodi-0.dtd"
   xmlns:inkscape="http://www.inkscape.org/namespaces/inkscape"
   version="1"
   width="32"
   height="32"
   id="svg12"
   sodipodi:docname="snow-top-3.svg"
   inkscape:version="0.92.1 r"&gt;
  <path d="m24.627.009c8.36-.339 9.455 9.523 4.064 9.505-.686.003-1.62-.197-3-1.471-14.665-10.216-14.549 2.967-17.708.875-1.727-1.822-1.743 4.653-4.139 5.127-2.122.613-3.699-1.385-3.824-4.503-.366-8.627 4.086-9.427 7.187-9.524 5.974.133 11.562-.045 17.419-.01" fill="url(#0)"/></svg>