<svg xmlns="http://www.w3.org/2000/svg" xmlns:xlink="http://www.w3.org/1999/xlink" viewBox="0 0 32 32"><defs><linearGradient gradientTransform="matrix(-2.54182 0 0 2.58531 185.47-277.37)" id="1" x1="67.894" y1="108.69" x2="67.854" y2="113.11" gradientUnits="userSpaceOnUse"><stop stop-color="#f9f9f9"/><stop offset="1" stop-color="#999"/></linearGradient></defs><rect width="28.2" height="28.2" x="1.898" y="1.898" fill="#ccc" fill-rule="evenodd" rx="5.575"/><path d="m14 11.484c-.899 0-1.892.16-2.344.438-.447.274-.656.696-.656 1.281v1.281c0 .349-.164.578-.438.75-.269.169-1 .281-1.563.281v1c1.102 0 2 .365 2 1.063v1.094c0 .641.207 1.121.625 1.406.422.289 1.418.43 2.375.438v-1.031c-.476-.008-1.476-.093-1.688-.25-.211-.158-.313-.38-.313-.688v-1.188c0-.307-.114-1.209-1.063-1.344v-.063c.948-.146 1.063-.874 1.063-1.313v-1.188c0-.307.101-.502.313-.656.215-.157 1.215-.262 1.688-.281zm4 0v1.031c.472.019 1.472.124 1.688.281.211.154.313.349.313.656v1.188c0 .439.114 1.166 1.063 1.313v.063c-.948.135-1.063 1.037-1.063 1.344v1.188c0 .308-.101.53-.313.688-.211.157-1.211.242-1.688.25v1.031c.957-.008 1.953-.149 2.375-.438.418-.285.625-.765.625-1.406v-1.094c0-.698.898-1.062 2-1.063v-1c-.559 0-1.293-.112-1.563-.281-.273-.172-.438-.401-.438-.75v-1.281c0-.585-.209-1.01-.656-1.281-.451-.277-1.445-.437-2.344-.438" fill="#446f7d"/>

   xmlns:dc="http://purl.org/dc/elements/1.1/"
   xmlns:cc="http://creativecommons.org/ns#"
   xmlns:rdf="http://www.w3.org/1999/02/22-rdf-syntax-ns#"
   xmlns:svg="http://www.w3.org/2000/svg"
   xmlns="http://www.w3.org/2000/svg"
   xmlns:xlink="http://www.w3.org/1999/xlink"
   xmlns:sodipodi="http://sodipodi.sourceforge.net/DTD/sodipodi-0.dtd"
   xmlns:inkscape="http://www.inkscape.org/namespaces/inkscape"
   height="32"
   width="32"
   version="1"
   id="svg8"
   sodipodi:docname="snow-top-3.svg"
   inkscape:version="0.92.1 r"&gt;
  <path fill="#00000f" fill-opacity="0" d="m0 0h32v32h-32z" id="0"/><path d="m7.354 6.111c-2.995 2.684-1.381 7.817-3.674 8.291-2.031.613-3.541-1.385-3.66-4.503-.35-8.627 3.911-9.427 6.879-9.524 28.342-2.047 1.762 4.92.455 5.736" fill="url(#1)"/><use xlink:href="#0"/></svg>