<svg xmlns="http://www.w3.org/2000/svg" viewBox="0 0 32 32"><rect width="28.2" height="28.2" x="1.898" y="1.898" fill="#ccf0be" fill-rule="evenodd" rx="5.575"/><g stroke-width=".779"><path d="m12.496 5.876c-.647 0-1.168.521-1.168 1.168v10.902c0 .647.521 1.168 1.168 1.168h10.902c.647 0 1.168-.521 1.168-1.168v-9.734l2.336-2.336z" fill="#4bae4f"/><path d="m5.098 12.885l2.336 2.336v9.734c0 .647.521 1.168 1.168 1.168h10.902c.647 0 1.168-.521 1.168-1.168v-10.902c0-.647-.521-1.168-1.168-1.168z" fill="#8ac249"/></g><path d="m13.03 15.681l-.421 2.257h-2.341v.752h2.201l-.423 2.257h-1.778v.752h1.638l-.421 2.257h.796l.421-2.257h1.989l-.421 2.257h.796l.421-2.257h2.738v-.752h-2.599l.423-2.257h2.176v-.752h-2.036l.421-2.257h-.796l-.421 2.257h-1.989l.421-2.257zm.235 3.01h1.989l-.423 2.257h-1.989z" fill="#fff" fill-rule="evenodd"/>

   xmlns:dc="http://purl.org/dc/elements/1.1/"
   xmlns:cc="http://creativecommons.org/ns#"
   xmlns:rdf="http://www.w3.org/1999/02/22-rdf-syntax-ns#"
   xmlns:svg="http://www.w3.org/2000/svg"
   xmlns="http://www.w3.org/2000/svg"
   xmlns:sodipodi="http://sodipodi.sourceforge.net/DTD/sodipodi-0.dtd"
   xmlns:inkscape="http://www.inkscape.org/namespaces/inkscape"
   height="32"
   width="32"
   version="1"
   id="svg8"
   sodipodi:docname="star-mime-2.svg"
   inkscape:version="0.92.1 r"&gt;
  <g transform="translate(152.47 194.05)" fill="#fff"><path d="m-125.38-193.25l-.077 3.548 3.072 1.831-3.548-.077-3.135 6.791 1.38-7.268-3.072-1.831 3.548.077z"/><path d="m-125.41-183.04l.042-1.955-1.692-1.01 1.955.042 1.727-3.741-.76 4 1.692 1.01-1.955-.042z"/></g></svg>