<svg xmlns="http://www.w3.org/2000/svg" viewBox="0 0 32 32"><defs><linearGradient gradientTransform="matrix(2.62891 0 0 2.71269-160.16-291.42)" id="0" x1="67.894" y1="108.69" x2="67.854" y2="113.11" gradientUnits="userSpaceOnUse"><stop stop-color="#f9f9f9"/><stop offset="1" stop-color="#999"/></linearGradient></defs><rect width="28.2" height="28.2" x="1.898" y="1.898" fill="#0286c2" fill-rule="evenodd" rx="5.575"/><g transform="translate(41.4-1.01)"><rect x="-26.531" y="15.873" width="19.05" height="19.05" rx="9.524" transform="matrix(0-1-1 0 0 0)" fill="#ccc"/><path d="m-26.295 11.568c-1.388-.041-2.723.245-3.955.535-1.816.427-4.805 1.752-4.805 1.752-.721.313-.733 1.337-.019 1.666 1.027.526 2.584.745 2.801 1.93.32 1.747-1.516 3.348-2.488 4.96-.582.926.657 1.908 1.417 1.123 0 0 4.707-4.37 10.853-4.535 1.144-.031 2.669.477 3.859 1.027 1.19.551 2.037.968 2.037.968.752.491 1.682-.5 1.328-1.328-1.762-4.118-5.41-7.506-10.423-8.06h-.008c-.2-.02-.4-.032-.598-.038" fill="#f2f2f2"/></g>

   xmlns:dc="http://purl.org/dc/elements/1.1/"
   xmlns:cc="http://creativecommons.org/ns#"
   xmlns:rdf="http://www.w3.org/1999/02/22-rdf-syntax-ns#"
   xmlns:svg="http://www.w3.org/2000/svg"
   xmlns="http://www.w3.org/2000/svg"
   xmlns:xlink="http://www.w3.org/1999/xlink"
   xmlns:sodipodi="http://sodipodi.sourceforge.net/DTD/sodipodi-0.dtd"
   xmlns:inkscape="http://www.inkscape.org/namespaces/inkscape"
   version="1"
   width="32"
   height="32"
   id="svg12"
   sodipodi:docname="snow-top-1.svg"
   inkscape:version="0.92.1 r"&gt;
  <path d="m7.288.009c-8.276-.356-9.36 9.992-4.02 9.973.679.003 1.604-.207 2.97-1.543 7.256-10.531 14.706 3.573 17.53.919 1.71-1.912 3.496-.418 4.448.115 2.1.643 3.662.041 3.785-3.231.188-3.321-1.889-6.344-5.923-6.223-5.914.14-12.989-.047-18.787-.01" fill="url(#0)"/><path fill="#f00" fill-opacity="0" d="m0 0h32v32h-32z"/></svg>