<svg xmlns="http://www.w3.org/2000/svg" xmlns:xlink="http://www.w3.org/1999/xlink" viewBox="0 0 32 32"><defs><linearGradient xlink:href="#3" id="4" gradientUnits="userSpaceOnUse" x1="27.558" y1="-133.46" x2="22.09" y2="-134.43"/><linearGradient xlink:href="#3" id="2" gradientUnits="userSpaceOnUse" x1="15.879" y1="-141.91" x2="30.32" y2="-129.74"/><linearGradient id="3"><stop stop-color="#55c03f"/><stop offset="1" stop-color="#198b26"/></linearGradient><linearGradient id="1"><stop stop-color="#f9f9f9"/><stop offset="1" stop-color="#999"/></linearGradient><linearGradient xlink:href="#1" id="0" gradientUnits="userSpaceOnUse" x1="17.658" y1="-133.51" x2="15.02" y2="-125.58"/><radialGradient xlink:href="#1" id="5" cx="-176.59" cy="-120.91" r="3.01" gradientUnits="userSpaceOnUse" gradientTransform="matrix(2.21087.05719-.05496 2.12455 412.97 145.84)"/></defs><g fill-rule="evenodd"><rect width="28.2" height="28.2" x="1.898" y="1.898" fill="#e74c3c" rx="5.575"/><g transform="matrix(.32505 0 0 .34248 41.685-2.514)" fill="#fff" enable-background="new"><path d="m-86.68 70.02c0 0-2.23 1.298 1.589 1.736 4.628.528 6.993.452 12.09-.511 0 0 1.343.84 3.216 1.568-11.433 4.898-25.875-.284-16.896-2.793"/><path d="m-88.08 63.63c0 0-2.502 1.852 1.32 2.247 4.944.51 8.847.552 15.604-.748 0 0 .932.947 2.401 1.465-13.821 4.04-29.21.318-19.326-2.964"/><path d="m-76.3 52.781c2.819 3.244-.739 6.162-.739 6.162 0 0 7.153-3.692 3.868-8.317-3.068-4.311-5.421-6.453 7.315-13.839 0 0-19.992 4.992-10.444 15.994"/><path d="m-61.18 74.75c0 0 1.651 1.361-1.819 2.414-6.598 1.998-27.465 2.601-33.26.08-2.082-.907 1.824-2.164 3.053-2.429 1.281-.277 2.01-.227 2.01-.227-2.317-1.632-14.977 3.205-6.43 4.592 23.308 3.778 42.488-1.702 36.442-4.429"/><path d="m-85.61 57c0 0-10.613 2.522-3.758 3.438 2.895.387 8.663.298 14.04-.153 4.393-.369 8.802-1.157 8.802-1.157 0 0-1.548.664-2.668 1.429-10.78 2.835-31.6 1.515-25.605-1.384 5.067-2.452 9.19-2.173 9.19-2.173"/><path d="m-66.57 67.64c10.957-5.692 5.89-11.163 2.354-10.426-.865.18-1.253.337-1.253.337 0 0 .322-.505.936-.722 6.996-2.458 12.375 7.253-2.256 11.1 0 0 .168-.152.219-.288"/><path d="m-73.17 24.859c0 0 6.067 6.07-5.756 15.402-9.481 7.489-2.162 11.757-.003 16.636-5.535-4.993-9.594-9.389-6.871-13.48 3.999-6 15.08-8.916 12.631-18.558"/><path d="m-84.53 83.07c10.515.672 26.667-.374 27.05-5.35 0 0-.735 1.886-8.691 3.383-8.976 1.69-20.05 1.493-26.614.409 0 0 1.345 1.113 8.256 1.558"/></g></g><g transform="translate(-.916 143.06)"><path d="m15.583-142.61c-5.577-1.531-5.951 3.24-4.58 5.493 4.381 6.983 6.796 6.577 9.398 7.895 1.712 2.064 3.451 3.4 6.469 4.1 11.69 1.559 3.242-8.417.92-8.649-5.065.012-7.547-6.123-12.206-8.838" fill="url(#0)"/><path d="m15.583-142.61c3.76.276 5.616-.626 8.93-.421 4.319.283 8.307 2.053 7.838 6.574-.347 2.567-.37 2.25.186 4.296.532 1.535-.252 4.232-.487 4.654-2.715 4.963-1.536 4.965-2.656 7.742l-.906-.418-2.508-11.358c-7.177-.909-10.754-10.11-10.398-11.07" fill="url(#2)"/><path d="m22.374-132.67c.362.274 1.553-5.105 1.172-5.653 1.379 2.44 1.919 4.616 2.435 6.783-1.276-.283-2.289-.554-3.607-1.13" fill="url(#4)"/><circle r="3.01" cy="-119.45" cx="29.06" fill="url(#5)"/></g></svg>