<svg xmlns="http://www.w3.org/2000/svg" xmlns:xlink="http://www.w3.org/1999/xlink" viewBox="0 0 32 32"><defs><clipPath><circle cx="286" cy="26" r="10" fill="none"/></clipPath><linearGradient gradientTransform="matrix(-2.54182 0 0 2.58531 185.47-277.37)" id="1" x1="67.894" y1="108.69" x2="67.854" y2="113.11" gradientUnits="userSpaceOnUse"><stop stop-color="#f9f9f9"/><stop offset="1" stop-color="#999"/></linearGradient></defs><rect width="28.2" height="28.2" x="1.898" y="1.898" fill="#37a0f2" fill-rule="evenodd" rx="5.575"/><path d="M10.859839 5.43841A11.197392 11.197392 0 0 0 9.983963 5.90862h.115l.058.187-.165.154.705.02L10.805 6.524 10.01 6.495 9.972 6.299 9.509 6.198a11.197392 11.197392 0 0 0 -.47349 .338961h.277v.185L9.191 6.884H8.612V6.86A11.197392 11.197392 0 0 0 5.119052 11.857316l.061.03v.935l.469.804.383.059.049-.276-.452-.697-.087-.678h.264l.112.698.652.952-.167.307.414.635 1.029.256v-.167l.411.059-.038.294.323.059.5.137.705.806.902.068.087.737-.617.432-.028.658-.089.402.892 1.12.068.383c0 0 .323.089.363.089.039 0 .725.521.725.521v2.023l.245.069-.166.933.411.55-.075.925.543.958.693.606a11.197392 11.197392 0 0 0 .03718 .0066l.67.012.068-.226-.515-.435.03-.217.092-.265.02-.27-.349-.011-.176-.221.29-.28.039-.21-.324-.093.02-.196.46-.07.701-.338.235-.432.735-.943-.166-.737.225-.393.676.021.455-.362.148-1.423.504-.642.089-.413-.46-.148-.304-.499-1.039-.011-.823-.315-.038-.588-.276-.481-.745-.011-.43-.677-.383-.187-.02.206-.695.042-.255-.355-.725-.148-.598.692-.939-.158-.069-1.063-.687-.117.276-.521-.079-.3-.902.605-.568-.069-.202-.445.124-.457.313-.577.721-.365 1.391-.001-.003.425.5.233-.039-.726.36-.364.727-.478.05-.337.725-.757.771-.428-.068-.057.522-.492.191.05.089.11.198-.221.048-.021-.217-.031-.221-.074V9.08l.117-.095h.257l.118.051.102.207.126-.019v-.019l.035.012.362-.055.051-.177.206.051v.192l-.19.131.028.21.654.202c0 0 .001.003.002.009l.151-.013.01-.284L15.393 9.247 15.363 9.111 15.794 8.963 15.813 8.55 15.363 8.275 15.334 7.579 14.716 7.883H14.491L14.55 7.353 13.71 7.154 13.362 7.417v.803l-.625.199-.25.524-.272.044V8.316l-.588-.081-.294-.191-.118-.434 1.051-.617.513-.156.052.346.286-.014.022-.174.3-.044.005-.06-.129-.054-.03-.185.369-.031.222-.233.012-.016.003.001.068-.07.774-.098.342.292-.898.479 1.143.27.148-.383h.5l.176-.334-.352-.089V6.02L14.685 5.526l-.764.089-.431.226.03.55-.452-.069-.069-.304.432-.394-.784-.038-.225.068-.097.265.293.05-.058.294-.5.03-.078.196-.725.021c0 0-.02-.412-.049-.412-.029 0 .568-.01.568-.01L12.207 5.664 11.972 5.546 11.658 5.851 11.139 5.821 10.861 5.44m12.137 1.622l-.356.14-.229.249.052.291.281.039.168.424.484-.196.08.566h-.145l-.398-.059-.441.074-.426.604-.61.096-.089.524.258.06-.074.337-.606-.121-.555.121-.118.309.096.651.326.153.547-.003.37-.033.113-.295.577-.751.381.078.374-.339.07.265.921.623-.113.151-.416-.022.16.226.256.056.299-.125-.007-.361.133-.067-.107-.114-.615-.343-.161-.456h.511l.163.162.44.381.019.459.456.486.169-.666.315-.173.059.545.308.339.143-.002A11.197392 11.197392 0 0 0 24.398666 8.51009l-.742-.007-.05-.168.442-.225A11.197392 11.197392 0 0 0 22.997897 7.06227M9.303 7.178c.022 0 0 .257 0 .257L8.722 7.472 8.611 7.34 9.02 7.222c0 0 .258-.044.28-.044zm.706 1.252l.279.067-.096.375-.302.096-.19-.392zm.764.89h.463v.141h.102v.243h-.705l-.264-.073.066-.169.339-.141m.69.104l.243.221-.243.059V9.424m.534.339l.179.113-.144.119-.142-.119.107-.113zm-1.356.037h.389l-.499.699-.206-.11.044-.294.272-.294m.625 0h.396v.235l-.176.114-.22.042V9.8m.492.258h.03l.448.132v.229H11.861L11.759 10.271v-.212zm-.185.212v.23l-.168.169h-.375l.059-.257.177-.015.036-.089.271-.038m11.657.973l-1.323.103-.41.221h-.525l-.258-.026-.638.355v.668l-1.305.943.108.402h.265l-.069.383-.186.069-.011 1 1.127 1.286h.49l.031-.078h.881l.254-.236h.501l.273.276.746.078-.098.993.827 1.463-.435.834.03.393.342.343v.945l.451.607v.413a11.197392 11.197392 0 0 0 2.583399 -7.147135 11.197392 11.197392 0 0 0 -.475889 -3.198456h-.557l-.573-.428-.603.059v.369h-.191l-.206-.148-1.045-.266v-.677" fill="#a2f46a"/><g transform="matrix(.75 0 0 .75 4.047 5.02)" stroke-width="1.778"><circle r="8" cy="23" cx="24" fill="#ffc921"/><path d="m23.983 27l-2.983-4h2v-4h2v4h2z" fill="#2e2e2e"/></g>

   xmlns:dc="http://purl.org/dc/elements/1.1/"
   xmlns:cc="http://creativecommons.org/ns#"
   xmlns:rdf="http://www.w3.org/1999/02/22-rdf-syntax-ns#"
   xmlns:svg="http://www.w3.org/2000/svg"
   xmlns="http://www.w3.org/2000/svg"
   xmlns:xlink="http://www.w3.org/1999/xlink"
   xmlns:sodipodi="http://sodipodi.sourceforge.net/DTD/sodipodi-0.dtd"
   xmlns:inkscape="http://www.inkscape.org/namespaces/inkscape"
   height="32"
   width="32"
   version="1"
   id="svg8"
   sodipodi:docname="snow-top-3.svg"
   inkscape:version="0.92.1 r"&gt;
  <path fill="#00000f" fill-opacity="0" d="m0 0h32v32h-32z" id="0"/><path d="m7.354 6.111c-2.995 2.684-1.381 7.817-3.674 8.291-2.031.613-3.541-1.385-3.66-4.503-.35-8.627 3.911-9.427 6.879-9.524 28.342-2.047 1.762 4.92.455 5.736" fill="url(#1)"/><use xlink:href="#0"/></svg>