<svg xmlns="http://www.w3.org/2000/svg" xmlns:xlink="http://www.w3.org/1999/xlink" viewBox="0 0 32 32"><defs><linearGradient xlink:href="#3" id="4" x1="-227.98" y1="-131.26" x2="-234.8" y2="-134.14" gradientUnits="userSpaceOnUse"/><linearGradient xlink:href="#3" id="2" x1="-241.01" y1="-141.61" x2="-226.57" y2="-129.44" gradientUnits="userSpaceOnUse"/><linearGradient id="3"><stop stop-color="#13a9ea"/><stop offset="1" stop-color="#372db5"/></linearGradient><linearGradient id="1"><stop stop-color="#f9f9f9"/><stop offset="1" stop-color="#999"/></linearGradient><linearGradient xlink:href="#1" id="0" x1="-239.23" y1="-133.21" x2="-241.87" y2="-125.28" gradientUnits="userSpaceOnUse"/><radialGradient xlink:href="#1" id="5" cx="-176.59" cy="-120.91" r="3.01" gradientUnits="userSpaceOnUse" gradientTransform="matrix(2.21087.05719-.05496 2.12455 156.08 146.14)"/></defs><rect width="28.2" height="28.2" x="1.898" y="1.898" fill="#4f3b21" fill-rule="evenodd" rx="5.575"/><g transform="matrix(.73148 0 0 .73148 4.296 4.296)" stroke-width="1.367"><path d="m20.319 3.01c-4.562.072-14.42.771-16.222 3.655-.315.831-.878 3.752-1.153 5.985-.064.515-.124 1.172-.186 1.778a6.1364 6.1579 0 0 0 -1.7578 4.312 6.1364 6.1579 0 0 0 1.108 3.525c-.012.176-.065.921-.065.921-.083 2.858-.016 2.959 2.698 4.091 2.17.904 4.517 1.374 8.08 1.618 3.051.209 6.139.112 8.492-.265 4.138-.663 7.728-2.02 8.126-3.066.109-.288.274-1.464.366-2.613.019-.232.03-.428.045-.643a6.1364 6.1579 0 0 0 1.146 -3.569 6.1364 6.1579 0 0 0 -1.59 -4.125c-.18-1.165-.397-2.491-.687-4.219-.511-2.683-1.12-5.253-1.353-5.711-.682-1.337-1.518-1.594-5.46-1.673-.397-.011-.94-.013-1.591-.003" fill="#7a6143"/><path d="m18.48 26.625c.921-.413 1.314-.98.774-1.116-.182-.046-.657.098-1.056.319-.892.495-2.128.531-3.218.092-1.368-.55-2.025-.248-.933.429 1.208.749 3.113.867 4.432.277" fill="#372c1e"/><circle r="5.5" cx="7.5" cy="18.5" fill="#37a643"/><circle r="1" cx="7" cy="18" fill="#372c1e"/><circle r="5.5" cx="24.5" cy="18.5" fill="#37a643"/><g fill="#372c1e"><circle r="1" cx="25" cy="18"/><path d="m25.944 6.07c.046.103-2.943 1.32-5.478 2.449-2.535 1.128-3.658 1.74-3.704 1.637-.026-.06 1.536-1.052 2.593-1.563 2.042-.881 4.098-1.828 6.589-2.523"/><path d="m23.796 11.308c-.109.029-1.355-1.165-2.544-2.757-1.189-1.592-1.87-2.978-1.762-3.01.109-.029.87 1.239 2.059 2.83 1.189 1.592 2.356 2.905 2.247 2.934"/></g></g><g transform="matrix(-1 0 0 1-223.97 142.77)"><g fill="#f9f9f9"><path d="m-228.95-129.3l-.27 2.221-.122-2.378z"/><path d="m-228.66-130.01l-.27 2.221-.122-2.378z"/><path d="m-228.43-129.95l-.27 1.6-.122-1.713z"/></g><path d="m-241.31-142.31c-5.577-1.531-5.951 3.24-4.58 5.493 4.381 6.983 6.796 6.577 9.398 7.895 1.712 2.064 3.451 3.4 6.469 4.1 11.69 1.559 3.242-8.417.92-8.649-5.065.012-7.547-6.123-12.206-8.838" fill="url(#0)"/><path d="m-241.31-142.31c3.76.276 5.616-.626 8.93-.421 4.319.283 8.307 2.053 7.838 6.574-.347 2.567-.37 2.25.186 4.296.532 1.535-.252 4.232-.487 4.654-2.715 4.963-1.536 4.965-2.656 7.742l-.906-.418-2.508-11.358c-7.177-.909-10.754-10.11-10.398-11.07" fill="url(#2)"/><path d="m-234.52-132.37c.362.274 1.553-5.105 1.172-5.653 1.379 2.44 1.919 4.616 2.435 6.783-1.276-.283-2.289-.554-3.607-1.13" fill="url(#4)"/><circle r="3.01" cy="-119.15" cx="-227.83" fill="url(#5)"/></g></svg>