<svg xmlns="http://www.w3.org/2000/svg" xmlns:xlink="http://www.w3.org/1999/xlink" viewBox="0 0 32 32"><defs><linearGradient gradientTransform="matrix(-2.54182 0 0 2.58531 185.47-277.37)" id="1" x1="67.894" y1="108.69" x2="67.854" y2="113.11" gradientUnits="userSpaceOnUse"><stop stop-color="#f9f9f9"/><stop offset="1" stop-color="#999"/></linearGradient></defs><rect width="28.2" height="28.2" x="1.898" y="1.898" fill="#913b3b" fill-rule="evenodd" rx="5.575"/><g transform="translate(36.701 3.117)"><path d="m-20.702 1.703l-3.275 3.275h-4.631v4.631l-3.274 3.275 3.275 3.275v4.631h4.631l3.275 3.275 3.275-3.275h4.631v-4.631l3.275-3.275-3.275-3.275v-4.631h-4.631l-3.275-3.275" fill="#fec006"/><path d="m-24.98 2.553l-1.773 4.278-4.278 1.773 1.772 4.278-1.772 4.278 4.278 1.773 1.773 4.278 4.278-1.772 4.278 1.772 1.773-4.278 4.278-1.773-1.772-4.279 1.771-4.279-4.278-1.773-1.773-4.278-4.279 1.772-4.278-1.772z" fill="#fecd38"/><rect x="-21.483" y="12.1" width="17.201" height="17.201" rx="8.6" transform="matrix(0-1-1 0 0 0)" fill="#fed96a"/><g transform="matrix(.86003 0 0 .86003-34.462.843)" fill="#3f3f3f" stroke-width="1.163"><circle r="2" cx="11" cy="11"/><circle r="2" cx="21" cy="11"/></g><path d="m-25.282 15.463c.945 1.964 2.691 3.438 4.581 3.44 1.889-.003 3.633-1.477 4.577-3.44h-4.577c-1.72 0-4.581 0-4.581 0" fill="#913b3b" stroke-width="1"/></g>

   xmlns:dc="http://purl.org/dc/elements/1.1/"
   xmlns:cc="http://creativecommons.org/ns#"
   xmlns:rdf="http://www.w3.org/1999/02/22-rdf-syntax-ns#"
   xmlns:svg="http://www.w3.org/2000/svg"
   xmlns="http://www.w3.org/2000/svg"
   xmlns:xlink="http://www.w3.org/1999/xlink"
   xmlns:sodipodi="http://sodipodi.sourceforge.net/DTD/sodipodi-0.dtd"
   xmlns:inkscape="http://www.inkscape.org/namespaces/inkscape"
   height="32"
   width="32"
   version="1"
   id="svg8"
   sodipodi:docname="snow-top-3.svg"
   inkscape:version="0.92.1 r"&gt;
  <path fill="#00000f" fill-opacity="0" d="m0 0h32v32h-32z" id="0"/><path d="m7.354 6.111c-2.995 2.684-1.381 7.817-3.674 8.291-2.031.613-3.541-1.385-3.66-4.503-.35-8.627 3.911-9.427 6.879-9.524 28.342-2.047 1.762 4.92.455 5.736" fill="url(#1)"/><use xlink:href="#0"/></svg>