<svg xmlns="http://www.w3.org/2000/svg" viewBox="0 0 32 32"><defs><linearGradient gradientTransform="matrix(2.59244 0 0 2.58531-157.93-277.73)" id="0" x1="67.894" y1="108.69" x2="67.854" y2="113.11" gradientUnits="userSpaceOnUse"><stop stop-color="#f9f9f9"/><stop offset="1" stop-color="#999"/></linearGradient></defs><rect width="28.2" height="28.2" x="1.898" y="1.898" fill="#e74c3c" fill-rule="evenodd" rx="5.575"/><g fill="#800000"><path d="m13 19.844c-.474-.025-1.018.192-1.452.626l-1.878 1.878c-.694.694-.833 1.671-.313 2.191.52.52 1.497.381 2.191-.313l1.878-1.878c.694-.694.833-1.671.313-2.191-.195-.195-.455-.298-.739-.313m5.949 0c-.285.015-.543.118-.738.313-.52.52-.381 1.497.313 2.191l1.878 1.878c.694.694 1.671.833 2.191.313.52-.52.381-1.497-.313-2.191l-1.878-1.878c-.434-.434-.978-.651-1.452-.626"/><path d="m9.04394 7.146803a3.161845 3.161845 0 0 0 -3.161844 3.161845 3.161845 3.161845 0 0 0 1.745189 2.824663c-.306.9-.48 1.861-.48 2.867 0 4.905 3.949 8.853 8.853 8.853 4.905 0 8.853-3.949 8.853-8.853 0-1.01-.174-1.968-.48-2.868A3.161845 3.161845 0 0 0 26.1179 10.308648 3.161845 3.161845 0 0 0 22.956058 7.146803 3.161845 3.161845 0 0 0 20.468576 8.359667C19.16 7.593 17.634 7.147 16 7.147c-1.635 0-3.159.447-4.471 1.214A3.161845 3.161845 0 0 0 9.04394 7.146803"/></g><rect transform="matrix(0-1-1 0 0 0)" rx="7.588" height="15.177" width="15.177" y="-23.588" x="-23.588" fill="#fff" fill-opacity=".92"/><g fill="#9c3c3c"><path d="m15.13 16.359l1.377 2.353c.252.431.807.577 1.245.328.437-.249.587-.796.334-1.228l-1.368-2.337 3.159-1.799c.219-.125.293-.398.167-.614-.126-.216-.404-.289-.623-.164l-3.789 2.158c-.517.254-.713.918-.503 1.302"/><path d="M16 9.04391A.632369 .632369 0 0 0 15.367631 9.676279 .632369 .632369 0 0 0 16 10.308648 .632369 .632369 0 0 0 16.632369 9.676279 .632369 .632369 0 0 0 16 9.04391"/><path d="M16 21.691289A.632369 .632369 0 0 0 15.367631 22.323658 .632369 .632369 0 0 0 16 22.956027 .632369 .632369 0 0 0 16.632369 22.323658 .632369 .632369 0 0 0 16 21.691289"/><path d="m22.956058 15.999968a.632369 .632369 0 0 0 -.632369 -.632369 .632369 .632369 0 0 0 -.632369 .632369 .632369 .632369 0 0 0 .632369 .632369 .632369 .632369 0 0 0 .632369 -.632369"/><path d="M10.308679 15.999968A.632369 .632369 0 0 0 9.67631 15.367599 .632369 .632369 0 0 0 9.04394 15.999968 .632369 .632369 0 0 0 9.67631 16.632337 .632369 .632369 0 0 0 10.308679 15.999968"/></g>

   xmlns:dc="http://purl.org/dc/elements/1.1/"
   xmlns:cc="http://creativecommons.org/ns#"
   xmlns:rdf="http://www.w3.org/1999/02/22-rdf-syntax-ns#"
   xmlns:svg="http://www.w3.org/2000/svg"
   xmlns="http://www.w3.org/2000/svg"
   xmlns:xlink="http://www.w3.org/1999/xlink"
   xmlns:sodipodi="http://sodipodi.sourceforge.net/DTD/sodipodi-0.dtd"
   xmlns:inkscape="http://www.inkscape.org/namespaces/inkscape"
   version="1"
   width="32"
   height="32"
   id="svg12"
   sodipodi:docname="snow-top-4.svg"
   inkscape:version="0.92.1 r"&gt;
  <path d="m7.196.009c-8.161-.339-9.231 9.523-3.968 9.505.669.003 1.581-.197 2.929-1.471 3.773-4.147 9.01 4.479 14.696-1.042.61-.911 1.804-1.135 2.455-.627 1.045.677 2.87 2.991 3.88 3 2.359.513 4.095-.198 4.816-3.188.185-3.165-2.303-6.286-6.281-6.17-5.832.133-12.809-.045-18.527-.01" fill="url(#0)"/></svg>