<svg xmlns="http://www.w3.org/2000/svg" xmlns:xlink="http://www.w3.org/1999/xlink" viewBox="0 0 32 32"><defs><linearGradient gradientTransform="matrix(-2.54182 0 0 2.58531 185.47-277.37)" id="1" x1="67.894" y1="108.69" x2="67.854" y2="113.11" gradientUnits="userSpaceOnUse"><stop stop-color="#f9f9f9"/><stop offset="1" stop-color="#999"/></linearGradient></defs><rect width="28.2" height="28.2" x="1.898" y="1.898" fill="#e9a84a" fill-rule="evenodd" rx="5.575"/><g fill-opacity=".4"><path d="m15.533 3.9805a1.5002 1.5002 0 0 0 -1.492 1.1718c0 0-.291 1.258-.607 3.119-.003-.001-.008-.003-.01-.004.002.006.008.015.008.018C13.431 8.289 13.43 8.293 13.43 8.297 13.412 8.295 13.373 8.275 13.289 8.223 13.316 8.239 13.388 8.252 13.424 8.268 13.399 8.211 13.247 8.04 13.166 7.822 13.04 7.481 12.963 7.166 12.963 7.166A1.5002 1.5002 0 0 0 11.438 5.9805 1.5002 1.5002 0 0 0 10.037 7.832c0 0 .11.492.322 1.053.213.561.364 1.28 1.352 1.89.41.254.839.433 1.277.567-.114.968-.214 1.988-.273 3.037-.007.122.002.248-.004.371-.792.133-1.581.28-2.309.545-1.826.665-3.469 1.803-4.271 3.59-.386.859-.285 1.816.023 2.545.309.728.793 1.31 1.344 1.808 1.102.997 2.45 1.72 3.963 1.76 1.01.027 1.919-.292 2.791-.725.623 1.098 1.43 2.051 2.629 2.594 2.141.971 4.44.094 6.25-1.158.905-.626 1.704-1.395 2.264-2.326.559-.932.888-2.113.546-3.299-.533-1.849-1.979-3.162-3.66-4.04.178-.278.502-.768.502-.768a1.5004 1.5004 0 1 0 -2.566 -1.552c0 0-.703.926-.897 1.224-.957-.23-1.951-.376-2.953-.433-.22-.013-.435.024-.656.019.056-.996.151-1.969.262-2.894.524-.025 1.04-.073 1.531-.123 1.833-.188 3.351-.561 3.351-.561a1.5002 1.5002 0 1 0 -.71 -2.914c0 0-1.346.327-2.946.49C16.944 8.559 16.681 8.563 16.42 8.572 16.704 6.93 16.959 5.848 16.959 5.848A1.5002 1.5002 0 0 0 15.533 3.9805m.664 13.53c.388.022.751.114 1.131.168-.157.193-.121.197-.287.39-.367.429-.787.738-1.184 1.141-.065-.557-.145-1.083-.168-1.684.172.004.337-.025.508-.015zm-3.511.312c.053 1.254.188 2.486.455 3.645-.621.325-1.194.544-1.6.533-.372-.01-1.412-.426-2.031-.986-.31-.281-.52-.581-.594-.756-.074-.175-.047-.144-.047-.145.36-.802 1.227-1.514 2.561-2 .373-.136.83-.198 1.256-.291m7.781.699c.111.051.256.078.361.131 1.246.633 1.989 1.425 2.231 2.264.055.192.035.471-.235.92-.27.449-.782.981-1.4 1.408-1.236.855-2.835 1.102-3.305.889-.573-.26-1.022-.856-1.406-1.617.921-.792 1.846-1.607 2.607-2.496.468-.546.753-.982 1.147-1.499" transform="translate(.02.369)" fill-rule="evenodd" fill-opacity=".4" color="#000"/></g>

   xmlns:dc="http://purl.org/dc/elements/1.1/"
   xmlns:cc="http://creativecommons.org/ns#"
   xmlns:rdf="http://www.w3.org/1999/02/22-rdf-syntax-ns#"
   xmlns:svg="http://www.w3.org/2000/svg"
   xmlns="http://www.w3.org/2000/svg"
   xmlns:xlink="http://www.w3.org/1999/xlink"
   xmlns:sodipodi="http://sodipodi.sourceforge.net/DTD/sodipodi-0.dtd"
   xmlns:inkscape="http://www.inkscape.org/namespaces/inkscape"
   height="32"
   width="32"
   version="1"
   id="svg8"
   sodipodi:docname="snow-top-3.svg"
   inkscape:version="0.92.1 r"&gt;
  <path fill="#00000f" fill-opacity="0" d="m0 0h32v32h-32z" id="0"/><path d="m7.354 6.111c-2.995 2.684-1.381 7.817-3.674 8.291-2.031.613-3.541-1.385-3.66-4.503-.35-8.627 3.911-9.427 6.879-9.524 28.342-2.047 1.762 4.92.455 5.736" fill="url(#1)"/><use xlink:href="#0"/></svg>