<svg xmlns="http://www.w3.org/2000/svg" xmlns:xlink="http://www.w3.org/1999/xlink" viewBox="0 0 32 32"><defs><linearGradient gradientTransform="matrix(-2.54182 0 0 2.58531 185.47-277.37)" id="1" x1="67.894" y1="108.69" x2="67.854" y2="113.11" gradientUnits="userSpaceOnUse"><stop stop-color="#f9f9f9"/><stop offset="1" stop-color="#999"/></linearGradient></defs><rect width="28.2" height="28.2" x="1.898" y="1.898" fill="#4f4f4f" fill-rule="evenodd" rx="5.575"/><path d="m13.03 23.747c0-.415.06-.766.179-1.053.119-.286.284-.518.497-.695.211-.177.461-.305.749-.384.286-.079.593-.119.92-.119.309 0 .603.04.881.119.278.08.523.208.735.384.211.177.379.408.503.695.124.287.185.638.185 1.053 0 .398-.061.738-.185 1.02-.124.282-.291.517-.503.702-.212.184-.457.319-.735.404-.278.084-.572.126-.881.126-.327 0-.633-.042-.92-.126-.287-.084-.537-.219-.748-.403-.213-.186-.378-.421-.497-.703-.119-.282-.179-.623-.179-1.02m.437-4.53v-.979c0-.451.046-.859.139-1.225.092-.367.234-.715.424-1.047.189-.331.434-.653.734-.967.301-.313.663-.638 1.087-.973.371-.291.684-.552.94-.782.257-.229.463-.456.623-.682.159-.225.274-.46.344-.707.071-.248.107-.535.107-.861 0-.504-.171-.92-.51-1.245-.34-.327-.859-.49-1.557-.49-.608 0-1.265.128-1.967.383-.701.257-1.428.57-2.178.941l-1.35-2.927c.379-.221.792-.431 1.238-.628.447-.199.91-.376 1.39-.53.482-.154.97-.276 1.464-.364.495-.088.98-.133 1.457-.133.9 0 1.712.109 2.436.325.725.216 1.339.531 1.841.947.504.415.89.92 1.159 1.511.27.592.405 1.267.405 2.026 0 .556-.063 1.053-.185 1.49-.123.437-.308.844-.549 1.219-.244.376-.549.738-.915 1.086-.366.349-.793.718-1.278 1.106-.371.291-.674.546-.908.762-.234.216-.417.422-.549.615-.133.195-.223.396-.272.603-.048.207-.073.452-.073.734v.795h-3.496z" fill="#b7b7b7"/>

   xmlns:dc="http://purl.org/dc/elements/1.1/"
   xmlns:cc="http://creativecommons.org/ns#"
   xmlns:rdf="http://www.w3.org/1999/02/22-rdf-syntax-ns#"
   xmlns:svg="http://www.w3.org/2000/svg"
   xmlns="http://www.w3.org/2000/svg"
   xmlns:xlink="http://www.w3.org/1999/xlink"
   xmlns:sodipodi="http://sodipodi.sourceforge.net/DTD/sodipodi-0.dtd"
   xmlns:inkscape="http://www.inkscape.org/namespaces/inkscape"
   height="32"
   width="32"
   version="1"
   id="svg8"
   sodipodi:docname="snow-top-3.svg"
   inkscape:version="0.92.1 r"&gt;
  <path fill="#00000f" fill-opacity="0" d="m0 0h32v32h-32z" id="0"/><path d="m7.354 6.111c-2.995 2.684-1.381 7.817-3.674 8.291-2.031.613-3.541-1.385-3.66-4.503-.35-8.627 3.911-9.427 6.879-9.524 28.342-2.047 1.762 4.92.455 5.736" fill="url(#1)"/><use xlink:href="#0"/></svg>