<svg xmlns="http://www.w3.org/2000/svg" viewBox="0 0 32 32"><g fill-rule="evenodd"><rect width="28.2" height="28.2" x="1.898" y="1.898" fill="#ffdb76" rx="5.575"/><path d="m19.13 7.561h-8.229c-1.848 0-3.337 1.487-3.337 3.336v10.205c0 1.848 1.489 3.337 3.337 3.337h10.205c1.848 0 3.336-1.489 3.336-3.337v-8.229z" fill="#f9f9f9"/><path d="m24.439 12.873l-5.312-5.312v1.977c0 1.848 1.487 3.336 3.336 3.336z" fill="#b3b3b3" fill-opacity=".325"/></g><path d="m11.729 13.957v.766h8.429v-.766zm0 2.299v.766h8.429v-.766zm0 2.299v.766h8.429v-.766zm0 2.299v.766h6.13v-.766z" fill="#b3b3b3" fill-opacity=".498" stroke-width=".766"/><g fill="#bb5b51" stroke-width="1.444"><path d="m20.668 22.716l-.141.082 1.859 3.221.479-1.794 1.763.474-1.788-3.097c-.045.014-.076.044-.118.054-.307.065-.468.2-.62.519-.226.475-.418.55-1.345.536-.026 0-.059.006-.087.006"/><path d="m17.859 21.619l-1.605 2.781 1.791-.479.474 1.765 1.701-2.947c-.304.013-.633.022-.84.056-.438.072-.626.04-.804-.138-.128-.128-.234-.354-.234-.502 0-.139-.22-.346-.482-.536"/></g><path d="m18.794 22.23c-.111-.111-.202-.307-.202-.436 0-.14-.195-.357-.487-.541-.402-.254-.488-.376-.491-.702-.003-.217-.083-.531-.178-.699-.376-.658-.126-1.329.61-1.636.262-.11.497-.34.65-.638.69-1.345 1.729-1.528 2.68-.471.225.249.569.509.765.578.417.145.714.651.715 1.218 0 .221.11.566.243.767.299.452.313 1.057.03 1.307-.117.103-.395.227-.616.274-.299.063-.455.194-.603.504-.22.462-.407.536-1.308.522-.335-.005-.833.027-1.107.073-.381.063-.545.034-.7-.12" fill="#e67365" stroke-width=".122"/><circle cx="20.317" cy="19.612" r="1.774" fill="#fff" stroke-width="2.67"/><circle cx="20.317" cy="19.612" r="1.433" fill="#bb5b51" stroke-width="2.156"/>

   xmlns:dc="http://purl.org/dc/elements/1.1/"
   xmlns:cc="http://creativecommons.org/ns#"
   xmlns:rdf="http://www.w3.org/1999/02/22-rdf-syntax-ns#"
   xmlns:svg="http://www.w3.org/2000/svg"
   xmlns="http://www.w3.org/2000/svg"
   xmlns:sodipodi="http://sodipodi.sourceforge.net/DTD/sodipodi-0.dtd"
   xmlns:inkscape="http://www.inkscape.org/namespaces/inkscape"
   height="32"
   width="32"
   version="1"
   id="svg8"
   sodipodi:docname="star-mime-2.svg"
   inkscape:version="0.92.1 r"&gt;
  <g transform="translate(152.47 194.05)" fill="#fff"><path d="m-125.38-193.25l-.077 3.548 3.072 1.831-3.548-.077-3.135 6.791 1.38-7.268-3.072-1.831 3.548.077z"/><path d="m-125.41-183.04l.042-1.955-1.692-1.01 1.955.042 1.727-3.741-.76 4 1.692 1.01-1.955-.042z"/></g></svg>