<svg xmlns="http://www.w3.org/2000/svg" viewBox="0 0 32 32"><defs><linearGradient gradientTransform="matrix(2.59244 0 0 2.58531-157.93-277.73)" id="0" x1="67.894" y1="108.69" x2="67.854" y2="113.11" gradientUnits="userSpaceOnUse"><stop stop-color="#f9f9f9"/><stop offset="1" stop-color="#999"/></linearGradient></defs><rect width="28.2" height="28.2" x="1.898" y="1.898" fill="#7e8687" fill-rule="evenodd" rx="5.575"/><g transform="matrix(.87797 0 0 .87797 1.953 1.514)"><path d="m7.5 25h3c.831 0 1.5.669 1.5 1.5 0 .831-.669 1.5-1.5 1.5h-3c-.831 0-1.5-.669-1.5-1.5 0-.831.669-1.5 1.5-1.5" fill="#92e763"/><path d="m21.5 25h3c.831 0 1.5.669 1.5 1.5 0 .831-.669 1.5-1.5 1.5h-3c-.831 0-1.5-.669-1.5-1.5 0-.831.669-1.5 1.5-1.5" fill="#e76363"/><path d="m17.327 5l-2.811.256v10.955l2.781-.398v-4.671l3.742 5.182 2.931-.881-3.832-4.983 3.862-4.699-2.991-.648-3.712 4.699.03-4.813m-6.372 2.67c-.032.006-.066.011-.09.034l-1.105 1.046c-.046.044-.052.111-.018.165l1.291 2.02c-.229.365-.415.756-.547 1.17l-2.372.466c-.066.013-.114.072-.114.136v1.477c0 .062.05.116.114.131l2.3.528c.123.48.313.94.565 1.358l-1.333 1.921c-.037.053-.03.125.018.17l1.105 1.046c.047.044.118.049.174.017l2.09-1.199c.41.224.854.403 1.321.523l.486 2.216c.015.064.071.109.139.109h1.562c.066 0 .123-.042.138-.102l.577-2.227c.482-.123.937-.306 1.357-.54l2.06 1.278c.057.035.132.028.18-.017l1.099-1.046c.047-.044.058-.112.024-.165l-.751-1.17-.246.074c-.036.011-.075-.006-.096-.034 0 0-.474-.66-1.093-1.517-.74 1.37-2.25 2.307-3.988 2.307-2.47 0-4.474-1.896-4.474-4.233 0-1.719 1.087-3.195 2.643-3.858v-1.091c-.283.094-.557.207-.817.341 0 0 .001-.006 0-.006l-2.108-1.306c-.028-.017-.058-.02-.09-.017z" fill="#fff"/></g>

   xmlns:dc="http://purl.org/dc/elements/1.1/"
   xmlns:cc="http://creativecommons.org/ns#"
   xmlns:rdf="http://www.w3.org/1999/02/22-rdf-syntax-ns#"
   xmlns:svg="http://www.w3.org/2000/svg"
   xmlns="http://www.w3.org/2000/svg"
   xmlns:xlink="http://www.w3.org/1999/xlink"
   xmlns:sodipodi="http://sodipodi.sourceforge.net/DTD/sodipodi-0.dtd"
   xmlns:inkscape="http://www.inkscape.org/namespaces/inkscape"
   version="1"
   width="32"
   height="32"
   id="svg12"
   sodipodi:docname="snow-top-4.svg"
   inkscape:version="0.92.1 r"&gt;
  <path d="m7.196.009c-8.161-.339-9.231 9.523-3.968 9.505.669.003 1.581-.197 2.929-1.471 3.773-4.147 9.01 4.479 14.696-1.042.61-.911 1.804-1.135 2.455-.627 1.045.677 2.87 2.991 3.88 3 2.359.513 4.095-.198 4.816-3.188.185-3.165-2.303-6.286-6.281-6.17-5.832.133-12.809-.045-18.527-.01" fill="url(#0)"/></svg>