<svg xmlns="http://www.w3.org/2000/svg" viewBox="0 0 32 32"><defs><linearGradient gradientTransform="matrix(2.62891 0 0 2.71269-160.16-291.42)" id="0" x1="67.894" y1="108.69" x2="67.854" y2="113.11" gradientUnits="userSpaceOnUse"><stop stop-color="#f9f9f9"/><stop offset="1" stop-color="#999"/></linearGradient></defs><rect width="28.2" height="28.2" x="1.898" y="1.898" fill="#6eaa36" fill-rule="evenodd" rx="5.575"/><g transform="translate(42.987 8.832)"><path d="m-29.15-3.383c-.223.024-.421.207-.462.428l-.445 2.259c-.799.313-1.55.741-2.209 1.269l-2.193-.742c-.228-.079-.503.024-.626.231l-2.111 3.66c-.119.21-.067.502.116.659l1.747 1.534c-.062.411-.099.824-.099 1.253 0 .428.037.842.099 1.253l-1.747 1.534c-.183.158-.235.449-.116.659l2.111 3.66c.122.207.398.31.626.231l2.193-.742c.659.528 1.41.958 2.209 1.271l.445 2.258c.045.236.27.425.511.428h4.22c.241-.003.467-.192.512-.428l.445-2.258c.799-.313 1.55-.743 2.21-1.271l2.192.742c.228.079.504-.023.627-.231l2.111-3.66c.118-.21.067-.502-.117-.659l-1.747-1.534c.062-.411.099-.824.099-1.253 0-.428-.038-.842-.099-1.253l1.747-1.534c.183-.158.235-.449.117-.659l-2.111-3.66c-.123-.208-.399-.31-.627-.231l-2.192.742c-.659-.528-1.411-.956-2.21-1.269l-.445-2.259c-.045-.236-.271-.425-.512-.428h-4.22c-.017 0-.032 0-.049 0" fill="#f2f2f2"/><path d="m-28.22 2.269v3.391l3.01-3.391 3.01.377-4.522 4.899 4.522 4.522-3.01.377-3.01-3.01v2.638l-2.261.377v-9.798" fill="#6eaa36"/></g>

   xmlns:dc="http://purl.org/dc/elements/1.1/"
   xmlns:cc="http://creativecommons.org/ns#"
   xmlns:rdf="http://www.w3.org/1999/02/22-rdf-syntax-ns#"
   xmlns:svg="http://www.w3.org/2000/svg"
   xmlns="http://www.w3.org/2000/svg"
   xmlns:xlink="http://www.w3.org/1999/xlink"
   xmlns:sodipodi="http://sodipodi.sourceforge.net/DTD/sodipodi-0.dtd"
   xmlns:inkscape="http://www.inkscape.org/namespaces/inkscape"
   version="1"
   width="32"
   height="32"
   id="svg12"
   sodipodi:docname="snow-top-1.svg"
   inkscape:version="0.92.1 r"&gt;
  <path d="m7.288.009c-8.276-.356-9.36 9.992-4.02 9.973.679.003 1.604-.207 2.97-1.543 7.256-10.531 14.706 3.573 17.53.919 1.71-1.912 3.496-.418 4.448.115 2.1.643 3.662.041 3.785-3.231.188-3.321-1.889-6.344-5.923-6.223-5.914.14-12.989-.047-18.787-.01" fill="url(#0)"/><path fill="#f00" fill-opacity="0" d="m0 0h32v32h-32z"/></svg>