<svg xmlns="http://www.w3.org/2000/svg" viewBox="0 0 32 32" xmlns:xlink="http://www.w3.org/1999/xlink"><g transform="translate(46.639 2.496)" fill-rule="evenodd"><path d="m-16.537 12.822h-28.2v9.207c0 3.089 2.488 5.576 5.576 5.576h17.05c3.089 0 5.574-2.488 5.574-5.576z" fill="#666"/><path d="m-39.16-.598c-3.089 0-5.576 2.486-5.576 5.574v7.846h28.2v-7.846c0-3.089-2.486-5.574-5.574-5.574z" fill="#ccc"/></g><g transform="translate(45.73 2.27)"><g transform="translate(-45.73-1.27)" fill="#4c4c4c"><path d="m9 5h14v1h-14" id="0"/><path d="m9 8h14v1h-14" id="1"/><path d="m9 11h14v1h-14" id="2"/></g><g transform="translate(-45.73 11.73)" fill="#ccc"><use xlink:href="#0"/><use xlink:href="#1"/><use xlink:href="#2"/></g></g>

   xmlns:dc="http://purl.org/dc/elements/1.1/"
   xmlns:cc="http://creativecommons.org/ns#"
   xmlns:rdf="http://www.w3.org/1999/02/22-rdf-syntax-ns#"
   xmlns:svg="http://www.w3.org/2000/svg"
   xmlns="http://www.w3.org/2000/svg"
   xmlns:sodipodi="http://sodipodi.sourceforge.net/DTD/sodipodi-0.dtd"
   xmlns:inkscape="http://www.inkscape.org/namespaces/inkscape"
   height="32"
   width="32"
   version="1"
   id="svg8"
   sodipodi:docname="star-mime-2.svg"
   inkscape:version="0.92.1 r"&gt;
  <g transform="translate(152.47 194.05)" fill="#fff"><path d="m-125.38-193.25l-.077 3.548 3.072 1.831-3.548-.077-3.135 6.791 1.38-7.268-3.072-1.831 3.548.077z"/><path d="m-125.41-183.04l.042-1.955-1.692-1.01 1.955.042 1.727-3.741-.76 4 1.692 1.01-1.955-.042z"/></g></svg>