<svg xmlns="http://www.w3.org/2000/svg" viewBox="0 0 32 32"><rect width="28.2" height="28.2" x="1.898" y="1.898" fill="#f4b400" fill-rule="evenodd" rx="5.575"/><path d="m16 6c-3.866 0-7 3.134-7 7 0 1.961.812 3.729 2.111 5h-.111v7h2v1h6v-1h2v-7h-.115c1.301-1.271 2.115-3.037 2.115-5 0-3.866-3.134-7-7-7m0 2c2.761 0 5 2.239 5 5 0 1.52-.678 2.882-1.748 3.799-.874.749-2.01 1.201-3.252 1.201-1.216 0-2.331-.435-3.197-1.156-1.102-.917-1.803-2.299-1.803-3.844 0-2.761 2.239-5 5-5m-3 12h6v1h-6zm0 3h6v1h-6z" fill="#fff"/>

   xmlns:dc="http://purl.org/dc/elements/1.1/"
   xmlns:cc="http://creativecommons.org/ns#"
   xmlns:rdf="http://www.w3.org/1999/02/22-rdf-syntax-ns#"
   xmlns:svg="http://www.w3.org/2000/svg"
   xmlns="http://www.w3.org/2000/svg"
   xmlns:sodipodi="http://sodipodi.sourceforge.net/DTD/sodipodi-0.dtd"
   xmlns:inkscape="http://www.inkscape.org/namespaces/inkscape"
   height="32"
   width="32"
   version="1"
   id="svg8"
   sodipodi:docname="star-mime-2.svg"
   inkscape:version="0.92.1 r"&gt;
  <g transform="translate(152.47 194.05)" fill="#fff"><path d="m-125.38-193.25l-.077 3.548 3.072 1.831-3.548-.077-3.135 6.791 1.38-7.268-3.072-1.831 3.548.077z"/><path d="m-125.41-183.04l.042-1.955-1.692-1.01 1.955.042 1.727-3.741-.76 4 1.692 1.01-1.955-.042z"/></g></svg>