<svg xmlns="http://www.w3.org/2000/svg" xmlns:xlink="http://www.w3.org/1999/xlink" viewBox="0 0 32 32"><defs><linearGradient gradientTransform="matrix(-2.54182 0 0 2.58531 185.47-277.37)" id="1" x1="67.894" y1="108.69" x2="67.854" y2="113.11" gradientUnits="userSpaceOnUse"><stop stop-color="#f9f9f9"/><stop offset="1" stop-color="#999"/></linearGradient></defs><rect width="28.2" height="28.2" x="1.898" y="1.898" fill="#69c276" fill-rule="evenodd" rx="5.575"/><path d="m16 8.579c-2.595 0-4.811.854-5.73 2.062-.077.101-.145.205-.204.311-.055.101-.103.203-.14.308a6.185175 3.298801 0 0 0 -.02589 .09665c-.021.071-.044.142-.057.214a6.185175 3.298801 0 0 0 -.02933 .307651c0 .107.011.214.031.321a6.185175 3.298801 0 0 0 .08456 .309258 6.185175 3.298801 0 0 0 .143237 .307651 6.185175 3.298801 0 0 0 .196738 .299597 6.185175 3.298801 0 0 0 5.729575 2.061767 6.185175 3.298801 0 0 0 5.729574 -2.061767 6.185175 3.298801 0 0 0 .0019 -.0032 6.185175 3.298801 0 0 0 .167395 -.254495c.01-.017.022-.033.031-.05a6.185175 3.298801 0 0 0 .101821 -.219054c.014-.035.033-.068.045-.103a6.185175 3.298801 0 0 0 .05005 -.183625c.012-.048.025-.096.033-.145a6.185175 3.298801 0 0 0 .02584 -.278654 6.185175 3.298801 0 0 0 -.03279 -.328581c-.057-.322-.204-.626-.421-.91-.919-1.209-3.136-2.062-5.73-2.062m-5.731566 6.187511a6.185175 3.298801 0 0 0 -.4556 1.237035 6.185175 3.298801 0 0 0 6.185174 3.298801 6.185175 3.298801 0 0 0 6.185175 -3.299173 6.185175 3.298801 0 0 0 -.455229 -1.237034 6.185175 3.298801 0 0 1 -5.729946 2.062137 6.185175 3.298801 0 0 1 -5.729945 -2.062137zm0 4.123408a6.185175 3.298801 0 0 0 -.4556 1.237035 6.185175 3.298801 0 0 0 6.185174 3.299172 6.185175 3.298801 0 0 0 6.185175 -3.298801 6.185175 3.298801 0 0 0 -.4556 -1.237035 6.185175 3.298801 0 0 1 -5.729946 2.062137 6.185175 3.298801 0 0 1 -5.729945 -2.062137" fill="#fff"/>

   xmlns:dc="http://purl.org/dc/elements/1.1/"
   xmlns:cc="http://creativecommons.org/ns#"
   xmlns:rdf="http://www.w3.org/1999/02/22-rdf-syntax-ns#"
   xmlns:svg="http://www.w3.org/2000/svg"
   xmlns="http://www.w3.org/2000/svg"
   xmlns:xlink="http://www.w3.org/1999/xlink"
   xmlns:sodipodi="http://sodipodi.sourceforge.net/DTD/sodipodi-0.dtd"
   xmlns:inkscape="http://www.inkscape.org/namespaces/inkscape"
   height="32"
   width="32"
   version="1"
   id="svg8"
   sodipodi:docname="snow-top-3.svg"
   inkscape:version="0.92.1 r"&gt;
  <path fill="#00000f" fill-opacity="0" d="m0 0h32v32h-32z" id="0"/><path d="m7.354 6.111c-2.995 2.684-1.381 7.817-3.674 8.291-2.031.613-3.541-1.385-3.66-4.503-.35-8.627 3.911-9.427 6.879-9.524 28.342-2.047 1.762 4.92.455 5.736" fill="url(#1)"/><use xlink:href="#0"/></svg>