<svg xmlns="http://www.w3.org/2000/svg" xmlns:xlink="http://www.w3.org/1999/xlink" viewBox="0 0 32 32"><defs><linearGradient gradientTransform="matrix(-2.54182 0 0 2.58531 185.47-277.37)" id="1" x1="67.894" y1="108.69" x2="67.854" y2="113.11" gradientUnits="userSpaceOnUse"><stop stop-color="#f9f9f9"/><stop offset="1" stop-color="#999"/></linearGradient></defs><rect width="28.2" height="28.2" x="1.898" y="1.898" fill="#2d96d0" fill-rule="evenodd" rx="5.575"/><g transform="translate(.5 2.116)"><path d="M15.5 11A10.499897 10.499897 0 0 0 5 21.5 10.499897 10.499897 0 0 0 7.283203 28H23.719A10.499897 10.499897 0 0 0 26 21.5 10.499897 10.499897 0 0 0 15.5 11" fill="#f4deb9"/><path d="m15.5 11c-3.732 0-7.01 1.95-8.869 4.884-.272.355-.511.726-.685 1.122-.273.623-.476 1.269-.63 1.966-.102.414-.189.833-.241 1.265-.005.038.007.046.026.041-.02.166-.045.324-.06.498-.049.558-.054.786-.016.786l5.975-7.06-1.052 5.901c.009.009.207-.072.44-.179 1.432-.66 2.723-.953 4.301-1.141.544-.065 2.432-.073 3-.014 1.149.12 2.198.384 3.489.739.572.157.852.195 1.321.178.469-.017.745-.08 1.091-.246.864-.415 1.317-1.768 1.191-2.741-.012-.092-.036-.179-.055-.268.037-.092.001-.246-.145-.502-.144-.382-.356-.765-.675-1.198-2.164-2.378-4.991-4.075-8.405-4.03" fill="#ff8e49"/><g fill="#252524"><circle cy="22.5" cx="11.5" r="1.5"/><circle r="1.5" cy="22.5" cx="20.5"/></g><path d="m13.337 5c-.046 0-.348.509-.634 1.072-.42.823-.62 1.457-.688 2.189-.017.181-.014.358-.003.532-.007.079-.011.157-.012.236 0 1.641 1.343 2.971 3 2.971 1.657 0 3-1.33 3-2.971 0-.076-.003-.151-.009-.226.003-.075.01-.151.006-.225-.053-1.017-.647-1.715-1.544-2.173-.475-.243-1.202-.357-1.676-.358-.591-.001-1.041-.511-1.33-.927-.046-.067-.096-.12-.11-.12" fill="#ff8e49"/></g>

   xmlns:dc="http://purl.org/dc/elements/1.1/"
   xmlns:cc="http://creativecommons.org/ns#"
   xmlns:rdf="http://www.w3.org/1999/02/22-rdf-syntax-ns#"
   xmlns:svg="http://www.w3.org/2000/svg"
   xmlns="http://www.w3.org/2000/svg"
   xmlns:xlink="http://www.w3.org/1999/xlink"
   xmlns:sodipodi="http://sodipodi.sourceforge.net/DTD/sodipodi-0.dtd"
   xmlns:inkscape="http://www.inkscape.org/namespaces/inkscape"
   height="32"
   width="32"
   version="1"
   id="svg8"
   sodipodi:docname="snow-top-3.svg"
   inkscape:version="0.92.1 r"&gt;
  <path fill="#00000f" fill-opacity="0" d="m0 0h32v32h-32z" id="0"/><path d="m7.354 6.111c-2.995 2.684-1.381 7.817-3.674 8.291-2.031.613-3.541-1.385-3.66-4.503-.35-8.627 3.911-9.427 6.879-9.524 28.342-2.047 1.762 4.92.455 5.736" fill="url(#1)"/><use xlink:href="#0"/></svg>