<svg xmlns="http://www.w3.org/2000/svg" viewBox="0 0 32 32"><defs><linearGradient gradientTransform="matrix(2.59244 0 0 2.58531-157.93-277.73)" id="0" x1="67.894" y1="108.69" x2="67.854" y2="113.11" gradientUnits="userSpaceOnUse"><stop stop-color="#f9f9f9"/><stop offset="1" stop-color="#999"/></linearGradient></defs><rect width="28.2" height="28.2" x="1.898" y="1.898" fill="#dea71e" fill-rule="evenodd" rx="5.575"/><path d="m18.383 26.05c0-.006.117-.318.26-.694l.26-.682-.043-.091c-.024-.05-.262-.486-.529-.969-.536-.97-1.57-2.846-2.372-4.303-.286-.52-.526-.962-.535-.983-.01-.026.024-.059.11-.106.156-.085.219-.153.219-.237 0-.036-.093-.233-.207-.439l-.207-.374.15-.204c.952-1.297 1.102-3.058.386-4.507-.664-1.343-1.925-2.231-3.434-2.419-.761-.095-1.712.064-2.37.396l-.161.081.088.203c.175.403.334.604.695.881.179.137.19.142.276.115.049-.015.205-.028.347-.029.446-.002.816.16 1.131.494.477.505.56 1.254.208 1.859-.181.312-.594.617-.965.714-.231.06-.671.041-.897-.039-.322-.113-.655-.385-.81-.66-.073-.129-.086-.139-.276-.205-.593-.208-1.116-.674-1.504-1.341l-.116-.2-.096.202c-.315.658-.475 1.534-.409 2.24.182 1.945 1.517 3.477 3.411 3.914.358.083.699.113 1.109.1l.381-.012.211.381c.116.209.229.388.252.396.078.03.168.015.294-.049.07-.036.137-.065.149-.065.024 0 .078.094.607 1.059.199.362.373.666.388.676.014.009.181.025.37.035.189.01.36.032.381.048.02.016.096.14.168.275l.131.246-.211.28-.211.28.12.224.12.224.137.017c.075.009.25.025.389.035l.252.018.144.257c.08.143.138.275.13.296-.008.021-.102.152-.208.29l-.194.251.083.159.083.159.375.07c.206.038.389.077.407.086.023.012-.022.105-.148.313-.099.163-.181.307-.181.319 0 .013.087.183.195.377l.195.354.677.135c.372.074.703.141.735.148.032.008.058.009.058.002m6.04-4.211l-.004-.704-1.218-1.319c-.67-.726-1.7-1.841-2.29-2.478-1.601-1.731-1.898-2.055-1.907-2.079-.005-.012.04-.066.099-.119.211-.191.228-.304.07-.479-.06-.066-.176-.196-.258-.288l-.149-.167.347-.939c.191-.516.407-1.102.481-1.301.12-.324.133-.378.122-.517-.019-.256-.076-.332-.554-.744-1.592-1.373-2.721-2.327-2.809-2.375-.146-.079-.448-.079-.594 0-.087.047-1.081.942-1.456 1.311l-.113.111.242.136c1.079.606 1.875 1.518 2.317 2.653.221.567.314 1.046.332 1.699.025.916-.143 1.684-.54 2.477l-.128.255.125.128c.115.117.133.127.223.115.068-.009.142-.05.243-.136l.145-.124.106.119c.122.137 1.416 1.54 1.684 1.826l.179.191.242-.223c.133-.123.264-.223.291-.223.054 0 .434.385.468.474.018.047-.017.091-.23.295l-.251.241.089.096c.049.053.163.177.255.277.091.099.234.254.318.343l.152.162.231-.22c.156-.149.251-.22.292-.22.071 0 .479.418.479.491 0 .04-.234.285-.424.445l-.076.063.205.211.205.211.232-.219c.218-.206.295-.248.364-.201.086.059.398.436.399.482 0 .035-.083.131-.238.276l-.239.222.073.088c.04.048.124.143.187.21l.113.122.871.026c.479.015.968.026 1.086.027h.214l-.004-.704m-12.387-8.03c.139-.236.2-.566.152-.821l-.022-.116-.232-.017c-.763-.055-1.401-.345-1.926-.876-.543-.549-.83-1.25-.832-2.039-.003-.747.238-1.392.723-1.94.419-.473.893-.761 1.518-.922.227-.059.311-.067.673-.066.66.001 1.139.145 1.67.502.215.144.629.561.769.774.061.092.12.168.132.168.03 0 .76-.66.768-.695.011-.043-.261-.391-.482-.618-1.218-1.25-3.125-1.556-4.679-.75-.764.396-1.416 1.07-1.771 1.83-.755 1.615-.372 3.504.949 4.683.636.568 1.468.926 2.325 1l.198.017z" fill="#fff"/>

   xmlns:dc="http://purl.org/dc/elements/1.1/"
   xmlns:cc="http://creativecommons.org/ns#"
   xmlns:rdf="http://www.w3.org/1999/02/22-rdf-syntax-ns#"
   xmlns:svg="http://www.w3.org/2000/svg"
   xmlns="http://www.w3.org/2000/svg"
   xmlns:xlink="http://www.w3.org/1999/xlink"
   xmlns:sodipodi="http://sodipodi.sourceforge.net/DTD/sodipodi-0.dtd"
   xmlns:inkscape="http://www.inkscape.org/namespaces/inkscape"
   version="1"
   width="32"
   height="32"
   id="svg12"
   sodipodi:docname="snow-top-4.svg"
   inkscape:version="0.92.1 r"&gt;
  <path d="m7.196.009c-8.161-.339-9.231 9.523-3.968 9.505.669.003 1.581-.197 2.929-1.471 3.773-4.147 9.01 4.479 14.696-1.042.61-.911 1.804-1.135 2.455-.627 1.045.677 2.87 2.991 3.88 3 2.359.513 4.095-.198 4.816-3.188.185-3.165-2.303-6.286-6.281-6.17-5.832.133-12.809-.045-18.527-.01" fill="url(#0)"/></svg>