<svg xmlns="http://www.w3.org/2000/svg" viewBox="0 0 32 32"><defs><linearGradient gradientTransform="matrix(2.62891 0 0 2.71269-160.16-291.42)" id="0" x1="67.894" y1="108.69" x2="67.854" y2="113.11" gradientUnits="userSpaceOnUse"><stop stop-color="#f9f9f9"/><stop offset="1" stop-color="#999"/></linearGradient></defs><rect width="28.2" height="28.2" x="1.898" y="1.898" fill="#e6e6e6" fill-rule="evenodd" rx="5.575"/><g transform="translate(-.262-.029)"><path d="m8.863 18.844c-.378-.08-.714-.257-.986-.519-.27-.26-.457-.584-.536-.928l-.044-.191.006-4.586.006-4.586.069-.198c.128-.368.33-.658.618-.889.328-.262.695-.407 1.134-.446.161-.015 1.44-.019 3.827-.014 3.895.008 3.64.001 3.981.119.629.218 1.096.719 1.265 1.359.046.172.046.187.053 2.211l.007 2.037h-1-1v-1.907-1.907h-3.491-3.491v4.294 4.294h1.991 1.991v.948.948l-2.11-.001c-1.953-.001-2.124-.004-2.288-.039" fill="#8400ff"/><g fill="#00b471"><path d="m16.06 25.553c-.842-.081-1.536-.668-1.741-1.472l-.047-.183v-4.533c0-4.232.002-4.543.036-4.674.097-.379.262-.674.517-.93.247-.247.509-.4.889-.519l.183-.057 3.778-.006c3.641-.005 3.785-.004 3.971.034.423.087.78.284 1.07.592.182.193.269.326.374.571.144.337.135 0 .135 4.996 0 3.873-.004 4.533-.03 4.657-.177.84-.888 1.446-1.791 1.526-.278.025-7.088.023-7.344-.001m7.185-6.189v-4.294h-3.491-3.491v4.294 4.294h3.491 3.491z"/><path d="m9.936 24.677c-.894-.857-1.633-1.56-1.641-1.56-.009-.001-.016.552-.016 1.229v1.23h-.99-.99v-2.866-2.866h2.991 2.991l-.005.954-.005.954-1.278.01-1.278.01 1.622 1.551c.892.853 1.624 1.557 1.627 1.565.005.013-1.266 1.243-1.359 1.315-.041.032-.098-.02-1.669-1.526"/></g><path d="m22.588 7.381c.894.857 1.633 1.56 1.641 1.56.009.001.016-.552.016-1.229v-1.23h.99.99v2.866 2.866h-2.991-2.991l.005-.954.005-.954 1.278-.01 1.278-.01-1.622-1.551c-.892-.853-1.624-1.557-1.627-1.565-.005-.013 1.266-1.243 1.359-1.315.041-.032.098.02 1.669 1.526" fill="#8400ff"/></g>

   xmlns:dc="http://purl.org/dc/elements/1.1/"
   xmlns:cc="http://creativecommons.org/ns#"
   xmlns:rdf="http://www.w3.org/1999/02/22-rdf-syntax-ns#"
   xmlns:svg="http://www.w3.org/2000/svg"
   xmlns="http://www.w3.org/2000/svg"
   xmlns:xlink="http://www.w3.org/1999/xlink"
   xmlns:sodipodi="http://sodipodi.sourceforge.net/DTD/sodipodi-0.dtd"
   xmlns:inkscape="http://www.inkscape.org/namespaces/inkscape"
   version="1"
   width="32"
   height="32"
   id="svg12"
   sodipodi:docname="snow-top-1.svg"
   inkscape:version="0.92.1 r"&gt;
  <path d="m7.288.009c-8.276-.356-9.36 9.992-4.02 9.973.679.003 1.604-.207 2.97-1.543 7.256-10.531 14.706 3.573 17.53.919 1.71-1.912 3.496-.418 4.448.115 2.1.643 3.662.041 3.785-3.231.188-3.321-1.889-6.344-5.923-6.223-5.914.14-12.989-.047-18.787-.01" fill="url(#0)"/><path fill="#f00" fill-opacity="0" d="m0 0h32v32h-32z"/></svg>