<svg xmlns="http://www.w3.org/2000/svg" viewBox="0 0 32 32"><defs><linearGradient gradientTransform="matrix(2.59244 0 0 2.58531-157.93-277.73)" id="0" x1="67.894" y1="108.69" x2="67.854" y2="113.11" gradientUnits="userSpaceOnUse"><stop stop-color="#f9f9f9"/><stop offset="1" stop-color="#999"/></linearGradient></defs><rect width="28.2" height="28.2" x="1.898" y="1.898" fill="#90caf9" fill-rule="evenodd" rx="5.575"/><rect height="21.872" width="21.872" y="5.064" x="5.064" fill="#2095f2" rx="10.936"/><path d="m16 5.064c-1.379 0-2.692.263-3.906.725-.088.081-.203.143-.294.136-.012-.001-.025-.009-.037-.014-.598.25-1.165.557-1.703.905.07.113.091.24-.053.301-.024.01-.328.041-.435.038-1.53 1.112-2.757 2.607-3.541 4.352.012-.002.023-.008.036-.008.119-.002.29.033.405.057.106.022.191.092.282.099.259.02.321-.182.533-.295.218.031.363-.037.561-.015.134.015.232.159.336.167.088.009.166-.082.251-.069.083.013.226.193.239.295.017.126-.093.24-.057.378.132.134.372.162.561.239.123-.101.016-.289 0-.436-.002-.065.009-.122 0-.182-.012-.101-.055-.193-.056-.28-.002-.399.322-.586.59-.743.116-.069.207-.189.308-.239.142-.071.248-.088.365-.154.212-.119.395-.215.561-.35.077-.181.008-.424.014-.602.077-.047.143.02.224.014.128-.027.139-.208.211-.28.042-.041.158-.071.21-.112.128-.1.169-.252.281-.295.04-.016.132-.012.195-.029.083-.022.201-.12.336-.167.088-.031.29-.037.324-.07.041-.042-.001-.161.014-.224.068-.317.545-.384.827-.49.198-.075.4-.212.617-.17-.043.15-.245.097-.21.28.047.254.387-.073.476-.11.171-.072.464-.116.689-.198.197-.072.55-.182.364-.407-.155-.009-.229.182-.364.239-.093.015-.075-.078-.155-.085-.076-.009-.118.07-.195.057-.077-.013-.186-.134-.198-.224-.031-.234.198-.331.295-.505-.064-.212-.357-.043-.534-.126.017-.126.148-.213.295-.237.121-.02.392-.01.464.054.041.035.002.124.07.183.071.065.159.058.252.043.033-.16-.208-.12-.182-.225.189-.124.498-.022.729-.057.133-.02.274-.114.392-.18.113-.064.259-.175.378-.07.032.115-.104.152-.168.209-.215.191-.436.41-.602.631.102.1.288.05.461.07.068.009.153.029.224.042.084.015.173.011.238.028.118.029.149.155.266.155.192 0 .194-.208.085-.337.034-.132.088-.201.042-.294-.086-.173-.403-.009-.419-.224-.01-.14.117-.133.168-.238-.023-.27.221-.29.195-.532-.012-.101-.097-.103-.168-.198-.035-.047-.054-.136-.095-.176-.327-.029-.658-.047-.993-.047m-5.643 2.206c.066.009.145.079.224.085.075.002.137-.041.183-.029.117.031.167.208.057.295-.092.011-.127-.04-.196-.028-.19.032-.264.405-.406.393-.134-.011-.207-.338-.07-.436.009-.085-.062-.099-.058-.183.04-.052.155-.107.267-.098m-.631.044c.039.001.068.011.083.028-.019.149-.136.14-.251.209-.199.12-.315.304-.378.561-.018.075-.215.273-.31.253-.222-.047.061-.457.112-.519.056-.069.131-.13.198-.209.064-.077.106-.181.168-.224.068-.047.261-.103.378-.098m1.66.504c.071.001.135.013.164.042-.046.185-.445.136-.591.069.009-.07.119-.089.21-.098.065-.002.145-.015.216-.013zm-.908.342c.047-.001.095.009.145.022-.129.108-.268.169-.49.239-.107.034-.291.075-.309-.044-.022-.146.156-.112.253-.125.122-.017.257-.088.4-.093m13.926.831c-.016.04-.029.079-.027.117.009.068.083.133.099.224.009.048-.023.153 0 .198.067.131.244.037.371.044-.143-.198-.287-.396-.443-.583m.716.964c-.02.097-.086.223-.139.303-.122.186-.288.195-.464.294-.146.083-.209.221-.295.365-.093.156-.15.25-.112.475-.125.249-.315.401-.575.519-.077.035-.182.047-.252.098-.056.04-.088.149-.168.238-.098.109-.201.156-.253.239-.04.065-.054.193-.098.28-.06.118-.187.175-.266.295-.036.055-.06.167-.099.239-.089.161-.241.278-.224.42.016.137.172.161.183.281.002.068-.045.109-.042.183.002.108.075.183.083.266.021.208-.071.291-.11.434-.019.068-.011.144-.029.198-.034.104-.18.198-.183.321-.001.088.09.158.097.281.002.085-.042.175-.027.253.03.153.302.33.421.449.159.159.366.281.435.449.058.142.057.327.168.434.082.079.218.128.323.21.098.077.204.143.309.224.171.134.429.4.701.379.142-.01.287-.126.449-.155.166-.03.381-.045.548-.028.128.013.26.089.393.083.141-.009.302-.113.461-.183.128-.056.286-.118.459-.163.079-.533.122-1.08.122-1.636 0-2.239-.67-4.315-1.816-6.04zm-18.09 3.675c-.233.013-.386.023-.518.083-.303.138-.245.548-.548.645-.105.033-.249.035-.364.057-.1.018-.221.073-.324.07-.029 0-.069-.022-.105-.033-.027.192-.049.387-.066.582.288.055.437.437.692.564.07.035.161.036.251.057.073.016.128.047.198.07.148.05.33.044.449.097.179.079.31.415.464.505.009.091-.018.212.014.28.073.098.175.077.295.141.143.077.187.277.323.337.047.021.164.018.238.041.186.056.247.271.406.224.104-.031.096-.138.113-.238.069-.075.144-.193.252-.195.174-.009.19.18.253.349.036.096.129.179.154.28.044.174.022.696-.015.8-.044.128-.217.182-.324.324-.05.066-.074.164-.112.21-.069.084-.171.105-.222.183-.029.043-.057.137-.085.195-.084.178-.197.305-.126.519.03.088.167.147.168.251 0 .122-.26.231-.28.365-.015.1.081.277.112.407.023.098.208.159.266.224.098.111.177.267.267.406.178.273.317.606.49.87.091.139.22.263.281.407.031.073.027.159.056.224.1.226.543.462.771.575.107.052.225.071.324.125.149.083.443.305.518.436.067.117.108.402.141.588.043.246 0 .435.014.702.009.144.055.289.057.434.001.051-.027.088-.029.14 0 .009.002.018.002.027 1.377.623 2.903.978 4.519.978.292 0 .58-.015.866-.037.012-.022.024-.044.04-.064.066-.086.124-.162.168-.238.041-.256-.102-.435-.042-.659.067-.252.415-.405.659-.519.084-.039.17-.102.238-.126.169-.059.38-.027.534-.083.263-.096.29-.378.42-.617.061-.113.142-.227.154-.308.01-.073-.027-.141-.015-.226.013-.085.089-.158.112-.251.031-.121.044-.299.044-.435 0-.111-.052-.208-.057-.309-.018-.364.131-.404.266-.602.068-.098.093-.21.14-.281.226-.337.618-.5.59-1.01-.009-.169-.115-.55-.239-.603-.071-.031-.234-.002-.336-.042-.331-.124-.526-.534-.869-.561-.073-.009-.141.03-.223.029-.136-.009-.341-.095-.491-.112-.096-.01-.223.029-.281 0-.088-.043-.096-.204-.168-.252-.056-.039-.166-.052-.252-.085-.138-.053-.248-.115-.407-.126-.049-.002-.11.024-.168.015-.088-.015-.158-.119-.239-.169-.102-.062-.196-.092-.238-.18.092-.302-.162-.386-.224-.561-.03-.082-.016-.18-.042-.253-.037-.104-.14-.165-.253-.252-.203-.156-.383-.303-.673-.339-.127-.016-.254.038-.408.029-.163-.01-.368-.153-.49-.293-.119-.136-.176-.258-.28-.324-.098-.063-.228-.061-.295-.125-.03-.028-.025-.075-.057-.141-.049-.102-.132-.159-.07-.281-.112-.057-.115.107-.237.085-.109-.155-.201-.228-.449-.183-.113.021-.177.164-.309.168-.108.009-.193-.121-.336-.141-.108-.015-.231.029-.308.015-.12-.024-.157-.124-.266-.195-.08-.053-.236-.142-.281-.141-.141.009-.241.3-.436.197-.094-.12.154-.183.042-.295-.085-.085-.156.038-.224.085-.078.054-.151.107-.237.139-.193.072-.313.034-.464.112-.139.072-.145.193-.224.336-.065.118-.212.289-.309.296-.117.01-.23-.163-.336-.209-.321-.139-.477.123-.743.127-.247.009-.601-.399-.588-.632.002-.142.082-.357.098-.533.015-.14.111-.224.112-.351.002-.17-.226-.301-.336-.321-.262-.048-.626.105-.926-.015-.057-.095.067-.161.099-.253.018-.053.008-.123.027-.18.033-.089.127-.159.169-.253.031-.072.039-.176.07-.266.037-.102.104-.168.112-.239.01-.094-.025-.204-.099-.266m3.748 2.967c.095.009.107.205.01.221-.105.016-.158-.164-.057-.211.017-.009.034-.009.047-.009" fill="#bee5e4"/>

   xmlns:dc="http://purl.org/dc/elements/1.1/"
   xmlns:cc="http://creativecommons.org/ns#"
   xmlns:rdf="http://www.w3.org/1999/02/22-rdf-syntax-ns#"
   xmlns:svg="http://www.w3.org/2000/svg"
   xmlns="http://www.w3.org/2000/svg"
   xmlns:xlink="http://www.w3.org/1999/xlink"
   xmlns:sodipodi="http://sodipodi.sourceforge.net/DTD/sodipodi-0.dtd"
   xmlns:inkscape="http://www.inkscape.org/namespaces/inkscape"
   version="1"
   width="32"
   height="32"
   id="svg12"
   sodipodi:docname="snow-top-4.svg"
   inkscape:version="0.92.1 r"&gt;
  <path d="m7.196.009c-8.161-.339-9.231 9.523-3.968 9.505.669.003 1.581-.197 2.929-1.471 3.773-4.147 9.01 4.479 14.696-1.042.61-.911 1.804-1.135 2.455-.627 1.045.677 2.87 2.991 3.88 3 2.359.513 4.095-.198 4.816-3.188.185-3.165-2.303-6.286-6.281-6.17-5.832.133-12.809-.045-18.527-.01" fill="url(#0)"/></svg>