<svg xmlns="http://www.w3.org/2000/svg" viewBox="0 0 32 32"><defs><linearGradient gradientTransform="matrix(2.62891 0 0 2.71269-160.16-291.42)" id="0" x1="67.894" y1="108.69" x2="67.854" y2="113.11" gradientUnits="userSpaceOnUse"><stop stop-color="#f9f9f9"/><stop offset="1" stop-color="#999"/></linearGradient></defs><rect width="28.2" height="28.2" x="1.898" y="1.898" fill="#4e91d9" fill-rule="evenodd" rx="5.575"/><g transform="translate(58.1-1.064)"><path fill="#fff" d="m-52.1 20.06h4v1h-4z"/><path d="m-36.599 8.06l.334.867.869-.273-.453.808.75.527-.899.141.066.93-.668-.633-.668.633.066-.93-.899-.141.75-.527-.453-.808.869.273z" fill="#ffeb5d" stroke-width=".741"/><g transform="scale(-1-1)"><path fill="#742424" d="m35.1-25.06h4v1h-4z"/><path fill="#ad3131" d="m39.1-25.06h4v1h-4z"/><path fill="#742424" d="m43.1-25.06h4v1h-4z"/><path fill="#ad3131" d="m47.1-25.06h4v1h-4z"/><path fill="#742424" d="m51.1-25.06h4v1h-4z"/></g><path d="m-29.1 25.06h-2v-1h2z" fill="#742424"/><g transform="scale(-1-1)"><path fill="#ad3131" d="m37.1-26.06h4v1h-4z"/><path fill="#742424" d="m41.1-26.06h4v1h-4z"/><path fill="#ad3131" d="m45.1-26.06h4v1h-4z"/><path fill="#742424" d="m49.1-26.06h4v1h-4z"/></g><g fill="#ad3131"><path d="m-53.1 26.06h-2v-1h2z"/><g transform="scale(-1-1)"><path d="m31.1-25.06h4v1h-4z"/><path d="m29.1-26.06h4v1h-4z"/></g></g><g fill="#742424"><path transform="scale(-1-1)" d="m33.1-26.06h4v1h-4z"/><path d="m-47.1 13.06h2v1h-2z"/></g><path d="m-45.1 13.06h4v1h-4z" fill="#ad3131"/><path d="m-41.1 13.06h4v1h-4z" fill="#742424"/><path d="m-37.1 13.06h4v1h-4z" fill="#ad3131"/><g fill="#742424"><path d="m-33.1 13.06h4v1h-4z"/><path d="m-55.1 13.06h2v1h-2z"/></g><path d="m-47.1 12.06h4v1h-4z" fill="#ad3131"/><path d="m-43.1 12.06h4v1h-4z" fill="#742424"/><path d="m-39.1 12.06h4v1h-4z" fill="#ad3131"/><path d="m-35.1 12.06h4v1h-4z" fill="#742424"/><g fill="#ad3131"><path d="m-31.1 12.06h2v1h-2z"/><path d="m-55.1 12.06h2v1h-2z"/></g><g fill="#fff"><path d="m-52.1 11.06h1v12h-1z"/><path d="m-49.1 11.06h1v12h-1z"/><path d="m-52.1 16.06h4v1h-4z"/><path d="m-52.1 12.06h4v1h-4z"/></g></g>

   xmlns:dc="http://purl.org/dc/elements/1.1/"
   xmlns:cc="http://creativecommons.org/ns#"
   xmlns:rdf="http://www.w3.org/1999/02/22-rdf-syntax-ns#"
   xmlns:svg="http://www.w3.org/2000/svg"
   xmlns="http://www.w3.org/2000/svg"
   xmlns:xlink="http://www.w3.org/1999/xlink"
   xmlns:sodipodi="http://sodipodi.sourceforge.net/DTD/sodipodi-0.dtd"
   xmlns:inkscape="http://www.inkscape.org/namespaces/inkscape"
   version="1"
   width="32"
   height="32"
   id="svg12"
   sodipodi:docname="snow-top-1.svg"
   inkscape:version="0.92.1 r"&gt;
  <path d="m7.288.009c-8.276-.356-9.36 9.992-4.02 9.973.679.003 1.604-.207 2.97-1.543 7.256-10.531 14.706 3.573 17.53.919 1.71-1.912 3.496-.418 4.448.115 2.1.643 3.662.041 3.785-3.231.188-3.321-1.889-6.344-5.923-6.223-5.914.14-12.989-.047-18.787-.01" fill="url(#0)"/><path fill="#f00" fill-opacity="0" d="m0 0h32v32h-32z"/></svg>