<svg xmlns="http://www.w3.org/2000/svg" viewBox="0 0 32 32"><defs><linearGradient gradientTransform="matrix(-2.65552 0 0 2.58531 193.77-277.73)" id="0" x1="67.894" y1="108.69" x2="67.854" y2="113.11" gradientUnits="userSpaceOnUse"><stop stop-color="#f9f9f9"/><stop offset="1" stop-color="#999"/></linearGradient></defs><rect width="28.2" height="28.2" x="1.898" y="1.898" fill="#600490" fill-rule="evenodd" rx="5.575"/><path d="m23.835 6.806l-10.661 2.458c-1.503.189-1.446 1.728-1.446 1.728v1.424 5.137c-.347-.1-.707-.151-1.068-.153-2.163 0-3.916 1.753-3.916 3.916 0 2.163 1.753 3.916 3.916 3.916 2.024-.001 3.714-1.544 3.898-3.56h.018v-.356-9.499l7.831-1.863v5.463c-.347-.1-.707-.151-1.068-.153-2.163 0-3.916 1.753-3.916 3.916 0 2.163 1.753 3.916 3.916 3.916 2.024-.001 3.714-1.544 3.898-3.56h.018v-10.181-1.21c0 0 .019-1.641-1.42-1.338" fill="#ae66e0"/><path d="m26.549 18.783c-.946-1.631-4.793-1.144-5.639-.676l-6.885 3.954c-.363.209-.487.667-.277 1.029l2.65 4.565c.21.361.671.484 1.034.276l6.886-3.954c.535-.319 3.178-3.564 2.231-5.194m-1.312168.752942a.757234 .753084 0 0 1 -.277172 1.028759 .757234 .753084 0 0 1 -1.034439 -.275654 .757234 .753084 0 0 1 .277172 -1.028759 .757234 .753084 0 0 1 1.034439 .275654" fill="#f6dd79"/><path d="m14.782 23.365l.379.652.656-.377 1.514 2.609.656-.377-1.514-2.609.656-.377-.379-.652-.656.377-.656.377zm2.623-1.506l.379.652.379.652.379.652.757 1.304.656-.377-.757-1.304.656-.377.757 1.304.656-.377-1.893-3.261-1.312.753-.656.377m2.623-1.506l.379.652 1.514 2.609.656-.377 1.312-.753-.379-.652-.189-.326.328-.188-.379-.652-1.312.753.379.652.328-.188.189.326-.656.377-1.136-1.957 1.312-.753-.379-.652-1.967 1.13m-1.589 1.782l.656-.377.379.652-.656.377z" fill-opacity=".29"/>

   xmlns:dc="http://purl.org/dc/elements/1.1/"
   xmlns:cc="http://creativecommons.org/ns#"
   xmlns:rdf="http://www.w3.org/1999/02/22-rdf-syntax-ns#"
   xmlns:svg="http://www.w3.org/2000/svg"
   xmlns="http://www.w3.org/2000/svg"
   xmlns:xlink="http://www.w3.org/1999/xlink"
   xmlns:sodipodi="http://sodipodi.sourceforge.net/DTD/sodipodi-0.dtd"
   xmlns:inkscape="http://www.inkscape.org/namespaces/inkscape"
   version="1"
   width="32"
   height="32"
   id="svg12"
   sodipodi:docname="snow-top-3.svg"
   inkscape:version="0.92.1 r"&gt;
  <path d="m24.627.009c8.36-.339 9.455 9.523 4.064 9.505-.686.003-1.62-.197-3-1.471-14.665-10.216-14.549 2.967-17.708.875-1.727-1.822-1.743 4.653-4.139 5.127-2.122.613-3.699-1.385-3.824-4.503-.366-8.627 4.086-9.427 7.187-9.524 5.974.133 11.562-.045 17.419-.01" fill="url(#0)"/></svg>