<svg xmlns="http://www.w3.org/2000/svg" xmlns:xlink="http://www.w3.org/1999/xlink" viewBox="0 0 32 32"><defs><linearGradient gradientTransform="matrix(-2.54182 0 0 2.58531 185.47-277.37)" id="1" x1="67.894" y1="108.69" x2="67.854" y2="113.11" gradientUnits="userSpaceOnUse"><stop stop-color="#f9f9f9"/><stop offset="1" stop-color="#999"/></linearGradient></defs><g fill-rule="evenodd"><rect width="28.2" height="28.2" x="1.898" y="1.898" fill="#e9e5dc" rx="5.575"/><path d="m27.492 29.13l-11.07-11.07-11.391 11.422c.745.368 1.555.619 2.445.619h17.05c1.117 0 2.095-.409 2.965-.971" fill="#2095f2"/><path d="m29.723 26.412l-10.832-10.832-2.473 2.48 11.07 11.07c1.014-.654 1.814-1.564 2.23-2.719" fill="#ffe500"/><path d="m29.453 4.986l-10.563 10.594 10.832 10.832c.214-.594.379-1.215.379-1.885v-17.05c0-.909-.266-1.73-.648-2.486" fill="#00a31c"/><path d="m27.03 2.557l-24.482 24.459c.543 1.073 1.401 1.934 2.48 2.467l24.426-24.496c-.532-1.053-1.373-1.894-2.424-2.43" fill="#fff"/><path d="m7.473 1.898c-3.089 0-5.574 2.486-5.574 5.574v17.05c0 .909.266 1.732.648 2.488l24.482-24.459c-.76-.388-1.587-.658-2.502-.658h-17.05" fill="#e9e5dc"/></g><g transform="matrix(.57627 0 0 .57627 34.443 8.686)" stroke-width="1.735"><path d="m-43.03-6.822c-4.418 0-8 3.517-8 7.855 0 .271.023.521.05.785.022.263.057.528.1.785.916 5.521 4.65 9.432 7.85 12.574 3.2-3.142 6.934-7.05 7.85-12.574.043-.257.078-.523.1-.785.027-.264.05-.514.05-.785 0-4.338-3.582-7.855-8-7.855" fill="#f34235"/><path d="m-43.03-2.822c1.657 0 3 1.343 3 3 0 1.657-1.343 3-3 3-1.657 0-3-1.343-3-3 0-1.657 1.343-3 3-3" fill="#fff"/></g>

   xmlns:dc="http://purl.org/dc/elements/1.1/"
   xmlns:cc="http://creativecommons.org/ns#"
   xmlns:rdf="http://www.w3.org/1999/02/22-rdf-syntax-ns#"
   xmlns:svg="http://www.w3.org/2000/svg"
   xmlns="http://www.w3.org/2000/svg"
   xmlns:xlink="http://www.w3.org/1999/xlink"
   xmlns:sodipodi="http://sodipodi.sourceforge.net/DTD/sodipodi-0.dtd"
   xmlns:inkscape="http://www.inkscape.org/namespaces/inkscape"
   height="32"
   width="32"
   version="1"
   id="svg8"
   sodipodi:docname="snow-top-3.svg"
   inkscape:version="0.92.1 r"&gt;
  <path fill="#00000f" fill-opacity="0" d="m0 0h32v32h-32z" id="0"/><path d="m7.354 6.111c-2.995 2.684-1.381 7.817-3.674 8.291-2.031.613-3.541-1.385-3.66-4.503-.35-8.627 3.911-9.427 6.879-9.524 28.342-2.047 1.762 4.92.455 5.736" fill="url(#1)"/><use xlink:href="#0"/></svg>