<svg xmlns="http://www.w3.org/2000/svg" viewBox="0 0 32 32"><g transform="translate(40.949-3.254)" fill-rule="evenodd"><g fill="#98c305"><rect y="5.153" x="-39.05" height="28.2" width="28.2" rx="5.575"/><path d="m-32.21 20.752c-1.093-.106-2.346-.095-3.865.086-.829.099-1.974.394-2.979.602v4.574c.831.312 1.804.539 2.982.646 2.603.238 5.928.06 9.426-.17 3.498-.229 7.17-.511 10.465-.479 1.648.016 3.201.11 4.592.328.285.045.47.163.74.219v-1.689c-1.256.047-2.723.174-3.783.15-2.133-.047-3.897-.224-5.398-.482-1.502-.258-2.74-.599-3.822-.969-1.082-.37-2.01-.77-2.881-1.152-.874-.382-1.697-.745-2.574-1.039-.877-.294-1.81-.519-2.902-.625"/></g><path d="m-33.476 5.153c-3.089 0-5.576 2.486-5.576 5.574v10.713c1-.207 2.15-.503 2.979-.602 1.52-.181 2.773-.192 3.865-.086 1.093.106 2.025.331 2.902.625.877.294 1.7.657 2.574 1.039.874.382 1.799.782 2.881 1.152 1.082.37 2.321.71 3.822.969 1.502.258 3.266.435 5.398.482 1.06.023 2.528-.103 3.783-.15v-14.14c0-3.089-2.488-5.574-5.576-5.574z" fill="#a3daff"/><path d="m-18.345 9.234c2.196 0 3.976 1.78 3.976 3.976 0 2.196-1.78 3.976-3.976 3.976-2.196 0-3.976-1.78-3.976-3.976 0-2.196 1.78-3.976 3.976-3.976" fill="#fff" stroke-width=".994"/><path d="m-10.847 26.559c-11.918-6.602-16 .574-25.22.102-1.179-.108-2.151-.334-2.982-.646v1.768c0 3.089 2.488 5.574 5.576 5.574h17.05c3.089 0 5.576-2.486 5.576-5.574z" fill="#addb1e"/></g>

   xmlns:dc="http://purl.org/dc/elements/1.1/"
   xmlns:cc="http://creativecommons.org/ns#"
   xmlns:rdf="http://www.w3.org/1999/02/22-rdf-syntax-ns#"
   xmlns:svg="http://www.w3.org/2000/svg"
   xmlns="http://www.w3.org/2000/svg"
   xmlns:sodipodi="http://sodipodi.sourceforge.net/DTD/sodipodi-0.dtd"
   xmlns:inkscape="http://www.inkscape.org/namespaces/inkscape"
   height="32"
   width="32"
   version="1"
   id="svg8"
   sodipodi:docname="star-mime-2.svg"
   inkscape:version="0.92.1 r"&gt;
  <g transform="translate(152.47 194.05)" fill="#fff"><path d="m-125.38-193.25l-.077 3.548 3.072 1.831-3.548-.077-3.135 6.791 1.38-7.268-3.072-1.831 3.548.077z"/><path d="m-125.41-183.04l.042-1.955-1.692-1.01 1.955.042 1.727-3.741-.76 4 1.692 1.01-1.955-.042z"/></g></svg>