<svg xmlns="http://www.w3.org/2000/svg" viewBox="0 0 32 32"><defs><linearGradient gradientTransform="matrix(-2.65552 0 0 2.58531 193.77-277.73)" id="0" x1="67.894" y1="108.69" x2="67.854" y2="113.11" gradientUnits="userSpaceOnUse"><stop stop-color="#f9f9f9"/><stop offset="1" stop-color="#999"/></linearGradient></defs><g fill-rule="evenodd"><g fill="#98c305"><rect width="28.2" height="28.2" x="1.898" y="1.898" rx="5.575"/><path d="m8.741 17.498c-1.093-.106-2.346-.095-3.865.086-.829.099-1.974.394-2.979.602v4.574c.831.312 1.804.539 2.982.646 2.603.238 5.928.06 9.426-.17 3.498-.229 7.17-.511 10.465-.479 1.648.016 3.201.11 4.592.328.285.045.47.163.74.219v-1.689c-1.256.047-2.723.174-3.783.15-2.133-.047-3.897-.224-5.398-.482-1.502-.258-2.74-.599-3.822-.969-1.082-.37-2.01-.77-2.881-1.152-.874-.382-1.697-.745-2.574-1.039-.877-.294-1.81-.519-2.902-.625"/></g><path d="m7.474 1.898c-3.089 0-5.576 2.486-5.576 5.574v10.713c1-.207 2.15-.503 2.979-.602 1.52-.181 2.773-.192 3.865-.086 1.093.106 2.025.331 2.902.625.877.294 1.7.657 2.574 1.039.874.382 1.799.782 2.881 1.152 1.082.37 2.321.71 3.822.969 1.502.258 3.266.435 5.398.482 1.06.023 2.528-.103 3.783-.15v-14.14c0-3.089-2.488-5.574-5.576-5.574z" fill="#ff766a"/><path d="m22.604 5.98c2.196 0 3.976 1.78 3.976 3.976 0 2.196-1.78 3.976-3.976 3.976-2.196 0-3.976-1.78-3.976-3.976 0-2.196 1.78-3.976 3.976-3.976" fill="#fff" stroke-width=".994"/><path d="m30.1 23.305c-11.918-6.602-16 .574-25.22.102-1.179-.108-2.151-.334-2.982-.646v1.768c0 3.089 2.488 5.574 5.576 5.574h17.05c3.089 0 5.576-2.486 5.576-5.574z" fill="#addb1e"/></g>

   xmlns:dc="http://purl.org/dc/elements/1.1/"
   xmlns:cc="http://creativecommons.org/ns#"
   xmlns:rdf="http://www.w3.org/1999/02/22-rdf-syntax-ns#"
   xmlns:svg="http://www.w3.org/2000/svg"
   xmlns="http://www.w3.org/2000/svg"
   xmlns:xlink="http://www.w3.org/1999/xlink"
   xmlns:sodipodi="http://sodipodi.sourceforge.net/DTD/sodipodi-0.dtd"
   xmlns:inkscape="http://www.inkscape.org/namespaces/inkscape"
   version="1"
   width="32"
   height="32"
   id="svg12"
   sodipodi:docname="snow-top-3.svg"
   inkscape:version="0.92.1 r"&gt;
  <path d="m24.627.009c8.36-.339 9.455 9.523 4.064 9.505-.686.003-1.62-.197-3-1.471-14.665-10.216-14.549 2.967-17.708.875-1.727-1.822-1.743 4.653-4.139 5.127-2.122.613-3.699-1.385-3.824-4.503-.366-8.627 4.086-9.427 7.187-9.524 5.974.133 11.562-.045 17.419-.01" fill="url(#0)"/></svg>