<svg xmlns="http://www.w3.org/2000/svg" viewBox="0 0 32 32"><rect width="28.2" height="28.2" x="1.898" y="1.898" fill="#e9c95b" fill-rule="evenodd" rx="5.575"/><g transform="translate(53.11-1.589)"><path d="m-37.11 7.879c-5.394 0-9.709 4.315-9.709 9.709 0 5.394 4.315 9.709 9.709 9.709.863 0 1.618-.755 1.618-1.618 0-.432-.108-.755-.432-1.079-.216-.324-.432-.647-.432-1.079 0-.863.755-1.618 1.618-1.618h1.942c3.02 0 5.394-2.374 5.394-5.394 0-4.747-4.315-8.631-9.709-8.631" fill="#fff"/><path d="m-43.828 17.589c-.797 0-1.494-.697-1.494-1.494 0-.797.697-1.494 1.494-1.494.797 0 1.494.697 1.494 1.494 0 .797-.697 1.494-1.494 1.494" fill="#fd8e08"/><path d="m-40.09 13.11c-.797 0-1.494-.697-1.494-1.494 0-.797.697-1.494 1.494-1.494.797 0 1.494.697 1.494 1.494 0 .797-.697 1.494-1.494 1.494" fill="#3f90dc"/><path d="m-34.866 13.11c-.797 0-1.494-.697-1.494-1.494 0-.797.697-1.494 1.494-1.494.797 0 1.494.697 1.494 1.494 0 .797-.697 1.494-1.494 1.494" fill="#56a913"/><path d="m-31.13 17.589c-.797 0-1.494-.697-1.494-1.494 0-.797.697-1.494 1.494-1.494.797 0 1.494.697 1.494 1.494 0 .797-.697 1.494-1.494 1.494" fill="#f35b5b"/></g>

   xmlns:dc="http://purl.org/dc/elements/1.1/"
   xmlns:cc="http://creativecommons.org/ns#"
   xmlns:rdf="http://www.w3.org/1999/02/22-rdf-syntax-ns#"
   xmlns:svg="http://www.w3.org/2000/svg"
   xmlns="http://www.w3.org/2000/svg"
   xmlns:sodipodi="http://sodipodi.sourceforge.net/DTD/sodipodi-0.dtd"
   xmlns:inkscape="http://www.inkscape.org/namespaces/inkscape"
   height="32"
   width="32"
   version="1"
   id="svg8"
   sodipodi:docname="star-mime-2.svg"
   inkscape:version="0.92.1 r"&gt;
  <g transform="translate(152.47 194.05)" fill="#fff"><path d="m-125.38-193.25l-.077 3.548 3.072 1.831-3.548-.077-3.135 6.791 1.38-7.268-3.072-1.831 3.548.077z"/><path d="m-125.41-183.04l.042-1.955-1.692-1.01 1.955.042 1.727-3.741-.76 4 1.692 1.01-1.955-.042z"/></g></svg>