<svg xmlns="http://www.w3.org/2000/svg" viewBox="0 0 32 32"><defs><linearGradient gradientTransform="matrix(2.59244 0 0 2.58531-157.93-277.73)" id="0" x1="67.894" y1="108.69" x2="67.854" y2="113.11" gradientUnits="userSpaceOnUse"><stop stop-color="#f9f9f9"/><stop offset="1" stop-color="#999"/></linearGradient></defs><g transform="translate(57.36-1.356)" fill-rule="evenodd"><g fill="#98c305"><rect y="3.254" x="-55.46" height="28.2" width="28.2" rx="5.575"/><path d="m-48.615 18.854c-1.093-.106-2.346-.095-3.865.086-.829.099-1.974.394-2.979.602v4.574c.831.312 1.804.539 2.982.646 2.603.238 5.928.06 9.426-.17 3.498-.229 7.17-.511 10.465-.479 1.648.016 3.201.11 4.592.328.285.045.47.163.74.219v-1.689c-1.256.047-2.723.174-3.783.15-2.133-.047-3.897-.224-5.398-.482-1.502-.258-2.74-.599-3.822-.969-1.082-.37-2.01-.77-2.881-1.152-.874-.382-1.697-.745-2.574-1.039-.877-.294-1.81-.519-2.902-.625"/></g><path d="m-49.882 3.254c-3.089 0-5.576 2.486-5.576 5.574v10.713c1-.207 2.15-.503 2.979-.602 1.52-.181 2.773-.192 3.865-.086 1.093.106 2.025.331 2.902.625.877.294 1.7.657 2.574 1.039.874.382 1.799.782 2.881 1.152 1.082.37 2.321.71 3.822.969 1.502.258 3.266.435 5.398.482 1.06.023 2.528-.103 3.783-.15v-14.14c0-3.089-2.488-5.574-5.576-5.574z" fill="#3e5d9e"/><path d="m-34.752 7.336c2.196 0 3.976 1.78 3.976 3.976 0 2.196-1.78 3.976-3.976 3.976-2.196 0-3.976-1.78-3.976-3.976 0-2.196 1.78-3.976 3.976-3.976" fill="#fff" stroke-width=".994"/><path d="m-27.25 24.661c-11.918-6.602-16 .574-25.22.102-1.179-.108-2.151-.334-2.982-.646v1.768c0 3.089 2.488 5.574 5.576 5.574h17.05c3.089 0 5.576-2.486 5.576-5.574z" fill="#addb1e"/></g>

   xmlns:dc="http://purl.org/dc/elements/1.1/"
   xmlns:cc="http://creativecommons.org/ns#"
   xmlns:rdf="http://www.w3.org/1999/02/22-rdf-syntax-ns#"
   xmlns:svg="http://www.w3.org/2000/svg"
   xmlns="http://www.w3.org/2000/svg"
   xmlns:xlink="http://www.w3.org/1999/xlink"
   xmlns:sodipodi="http://sodipodi.sourceforge.net/DTD/sodipodi-0.dtd"
   xmlns:inkscape="http://www.inkscape.org/namespaces/inkscape"
   version="1"
   width="32"
   height="32"
   id="svg12"
   sodipodi:docname="snow-top-4.svg"
   inkscape:version="0.92.1 r"&gt;
  <path d="m7.196.009c-8.161-.339-9.231 9.523-3.968 9.505.669.003 1.581-.197 2.929-1.471 3.773-4.147 9.01 4.479 14.696-1.042.61-.911 1.804-1.135 2.455-.627 1.045.677 2.87 2.991 3.88 3 2.359.513 4.095-.198 4.816-3.188.185-3.165-2.303-6.286-6.281-6.17-5.832.133-12.809-.045-18.527-.01" fill="url(#0)"/></svg>