<svg xmlns="http://www.w3.org/2000/svg" viewBox="0 0 32 32"><g transform="translate(39.11-.563)"><g fill-rule="evenodd"><rect y="2.45" x="-37.18" height="28.2" width="28.2" fill="#ff766a" rx="5.575"/><path d="m-9.03 25.89l-.729-1.852c0 0-2.309 2.402-2.309 2.168 0-.234-.498-2.168-.498-2.168l-1.9 2.344-.906-1.406-2.307 1.523-.859-1.934-1.494 2.229-2.037-2.229-1.447 2.346-1.178-2.463-1.176 2.404-1.811-2.463-.814 2.756-1.313-2.521-.951 1.582-2.217-2.051c0 0-.589 2.052-.68 2.814-.045.381-.476-.559-.895-1.592-.418-1.033-.824-2.16-.824-2.16 0 0-.835 1.955-1.406 3.305.646 2.365 2.71 4.131 5.285 4.131h17.05c2.8 0 5.01-2.081 5.412-4.764" opacity=".977" fill="#96c503"/><path d="m-8.99 24.11c-.633 1.011-1.143 2.22-1.549 3.6.108-2.211.357-4.36.592-6.514-.488 1.866-.943 3.726-1.34 5.576-.107-.543-.238-1.036-.363-1.539.113-1.116.281-2.054.547-2.66-.197.334-.373.71-.539 1.102.063-.571.114-1.148.176-1.719-.178.68-.347 1.36-.516 2.039-.173-.543-.36-1.057-.578-1.502.188.517.309 1.304.402 2.199-.173.712-.331 1.419-.488 2.129-.144-.558-.308-1.115-.465-1.674.127-1.427.282-2.843.436-4.258-.268 1.024-.523 2.047-.768 3.066-.261-.891-.531-1.785-.813-2.68.1.761.204 1.522.303 2.283-.044-.1-.084-.212-.131-.307.075.208.128.514.188.787.053.421.099.843.146 1.266-.02.087-.041.173-.06.26-.174-.438-.357-.858-.564-1.23.187.453.321 1.094.428 1.828-.022.1-.049.202-.07.303-.325-1.646-.716-3.144-1.271-4.279.418 1.149.567 3.372.584 6.127-.181-.672-.373-1.329-.6-1.912-.131-.442-.247-.882-.383-1.324.157-.421.31-.839.508-1.268-.193.325-.401.636-.605.947-.111-.358-.202-.712-.314-1.07.057.434.114.867.172 1.301-.151.23-.301.463-.447.699-.217-.603-.455-1.166-.729-1.658.211.511.362 1.236.473 2.102-.098.171-.2.34-.291.52-.24.215-.45.496-.652.799-.141-.125-.287-.244-.441-.348-.026.013-.047.039-.072.053-.021-.027-.041-.054-.063-.08.138-.95.298-1.837.527-2.535-.34.588-.634 1.279-.895 2.043-.207-.395-.429-.773-.666-1.131.014-.046.024-.107.039-.152-.022.037-.041.083-.063.121-.407-.61-.846-1.182-1.352-1.67.083.141.118.356.191.512.005-.009.01-.02.016-.029-.004.012-.006.029-.01.041.284.602.548 1.236.742 1.977-.015.035-.031.072-.047.107-.085.077-.163.168-.242.26-.198-.584-.407-1.145-.607-1.723.052-.204.097-.432.154-.621-.002-.004-.004-.008-.006-.012-.076.137-.144.291-.217.436-.012-.034-.024-.064-.035-.098.01.04.015.078.025.117-.155.309-.299.639-.436.99-.016-.965-.01-1.841.162-2.42-.426.875-.563 2.297-.752 3.553-.176-.489-.356-.973-.523-1.48.157.61.292 1.213.404 1.809-.166.232-.316.491-.449.779-.106-.491-.227-.953-.363-1.375-.018-1.01-.017-1.928.162-2.527-.214.439-.356 1.018-.467 1.643-.166-.46-.334-.916-.492-1.395.165.641.302 1.272.418 1.896-.076.493-.149.989-.223 1.469-.161-.341-.352-.67-.588-1.082-.021-1.469-.096-2.79.145-3.598-.291.598-.439 1.46-.568 2.342-.089-.47-.187-.927-.324-1.33.035-.079.065-.165.102-.24-.046.054-.084.12-.129.176-.082-.23-.172-.452-.281-.639.082.228.133.498.164.797-.173.223-.35.442-.508.688.017-.058.027-.114.045-.172-.05.126-.103.244-.154.367-.342.557-.647 1.17-.922 1.828-.099-.165-.213-.38-.336-.598.168-.623.36-1.198.6-1.688-.313.364-.593.777-.859 1.211-.012-.023-.02-.031-.031-.055.01.026.014.042.023.068-.204.333-.401.679-.58 1.049-.15-.37-.324-.701-.496-1.037.197-.858.423-1.662.736-2.303-.405.47-.756 1.021-1.084 1.605-.01-.019-.019-.041-.029-.061.048-.434.097-.867.145-1.301-.094.358-.174.713-.266 1.07-.169-.312-.34-.622-.5-.947.142.371.253.733.365 1.098-.075-.121-.144-.255-.223-.369.088.223.149.507.225.76-.044.173-.078.345-.121.518-.182.384-.355.782-.514 1.201-.203-.435-.412-.863-.633-1.27.048-.434.097-.869.145-1.303-.094.358-.172.715-.264 1.072-.051-.094-.099-.192-.15-.287.123-1.323.263-2.639.406-3.953-.357 1.366-.691 2.728-1 4.086-.116-.224-.219-.463-.338-.682.048-.434.095-.869.143-1.303-.094.358-.172.715-.264 1.072-.088-.161-.173-.327-.26-.49.07-.639.13-1.284.199-1.924-.136.52-.262 1.039-.393 1.559-.016-.032-.033-.062-.049-.094.016.042.026.084.041.125-.038.151-.078.301-.115.451-.174-.544-.36-1.059-.578-1.504.189.519.308 1.308.402 2.207-.23.947-.448 1.888-.65 2.83-.111-.562-.245-1.071-.375-1.59.037-.476.091-.944.137-1.416.034-.083.059-.195.096-.27-.029.044-.053.096-.082.141.115-1.17.233-2.341.359-3.506-.319 1.22-.618 2.437-.902 3.65-.155-.461-.319-.904-.508-1.289.166.457.281 1.13.373 1.885-.01.046-.021.091-.031.137-.201-.539-.416-1.049-.664-1.496.224.542.369 1.363.48 2.301-.009.039-.019.08-.027.119-.027.066-.05.138-.076.205-.296-1.485-.654-2.835-1.133-3.914.009-.022.016-.053.025-.074-.01.019-.019.042-.029.061-.042-.093-.079-.198-.123-.287.035.095.053.252.084.361-.451.8-.794 1.797-1.1 2.863-.242-.715-.514-1.374-.83-1.943.273.661.442 1.686.553 2.92-.026.106-.06.197-.086.305-.253-.979-.567-1.966-.855-2.949-.444 4.688 2.529 6.995 6.22 6.827 2.199.06 8.437.005 10.999.005.046-.525.084-1.079.139-1.58.057.532.087 1.054.127 1.58h2.947l.211-.164c.026.055.051.11.078.164h1.908c2.201 0 4.122-1.18 5.03-3.158.022-.275-.027-.663.002-.918.109-.965.311-1.659.543-2.266zm-22.365.061c.064.2.137.401.199.6-.052.203-.095.406-.146.609-.043-.172-.08-.357-.125-.523.024-.228.047-.458.072-.686m6.732.141c.069.965-.014 2.205.008 3.537-.039.141-.08.278-.127.4-.166-.319-.375-.65-.623-1.102.186-1.059.424-2.02.742-2.836m4.088.666c.156.646.286 1.283.395 1.912-.264.361-.507.777-.752 1.184.275-.236.544-.527.818-.77.006.03.011.06.016.09-.278.823-.515 1.735-.719 2.723-.067-.525-.162-.991-.268-1.428.018-.339.027-.672.029-1 .119-1.016.283-1.91.48-2.707m-10.478.225c.087.304.156.604.229.904-.055.249-.117.498-.17.746-.045-.226-.103-.422-.15-.643.035-.334.055-.674.092-1.01m15.16.307c.069.522.133 1.046.195 1.57-.132-.145-.268-.285-.412-.412-.023-.076-.043-.157-.066-.232.09-.308.175-.614.283-.926m-14.195.021c.032.102.07.205.102.307-.043.17-.078.339-.121.51-.016.009-.031.022-.047.031-.002-.006-.006-.013-.008-.02.021-.278.05-.552.074-.828m.244.738c.026.09.046.178.07.268-.029-.018-.06-.036-.09-.053.008-.072.012-.143.02-.215m3.25.158c.077.242.174.51.229.727-.177.453-.337.923-.488 1.414-.028-.148-.072-.274-.105-.414.102-.611.227-1.182.365-1.727m-1.543.461c.07.382.144.753.201 1.164-.156.411-.305.833-.441 1.275-.019-.101-.049-.186-.07-.283.036-.292.08-.566.119-.852.079.063.156.133.236.189-.073-.1-.148-.191-.221-.291.057-.405.109-.818.176-1.203m8.652.014h.002c.001.002.001.005.004.006.102.456.192.934.275 1.42-.072.112-.142.224-.213.34-.073-.398-.155-.778-.25-1.125.03-.194.054-.407.088-.592.031-.013.062-.039.094-.049m-4.289.125c.164.565.282 1.087.34 1.555-.141-.297-.256-.648-.348-1.045.002-.17.008-.343.008-.51m-6.05.182c.085.022.167.07.25.107.044.187.088.374.127.561-.043.13-.09.252-.131.385-.071-.372-.162-.716-.264-1.041.007-.003.011-.008.018-.012m4.396.143c.171.518.307 1 .385 1.42-.105.136-.226.238-.367.293-.057-.3-.109-.477-.164-.695.048-.342.091-.69.146-1.018m8.06.246c-.008.022-.014.047-.021.068-.009-.009-.018-.018-.027-.027.016-.015.033-.027.049-.041m.852.162c.02.328.03.687.043 1.041-.065-.095-.136-.18-.203-.271.047-.255.104-.512.16-.77m-2.639.84c.006.033.009.064.014.098-.051.221-.105.431-.152.66-.025-.194-.065-.35-.096-.531.078-.078.156-.149.234-.227m3.576.131c.02.038.045.069.065.107.012.126.025.249.035.375-.033-.161-.065-.324-.1-.482m-7 .238c.001.01.001.019.002.029-.001.004-.001.008-.002.012 0-.014 0-.027 0-.041" opacity=".977" fill="#addb1f"/><path d="m-35.548 21.58c.282 2.62.514 5.263.552 7.996.456.312.928.57 1.468.74-.012-1.605 0-3.11.081-4.338.088-1.34.244-2.406.492-3.098-.552 1.138-.94 2.64-1.262 4.291-.393-1.855-.847-3.721-1.331-5.592m19.511.08c.317 2.948.664 5.881.625 8.994h.917c.168 0 .333-.009.498-.023-.016-1.693-.02-3.318.066-4.602.089-1.326.243-2.383.49-3.068-.552 1.138-.942 2.64-1.264 4.291-.393-1.855-.847-3.721-1.331-5.592m-8.677 2.02c.208.707.183 1.783.163 3.03-.02 1.224-.028 2.609.192 3.953h2.03c.025-.656.049-1.264.151-1.928.105-.684.29-1.43.641-2.357-.365.749-.62 1.091-.833 1.502-.213.41-.384.889-.575 1.906-.306-.119-.515-.451-.673-.91-.158-.459-.263-1.044-.355-1.668-.185-1.249-.322-2.655-.74-3.523m7.159.4c.047.435.095.872.143 1.307-.563 1.047-1.118 2.106-1.397 3.59-.295-.969-.635-1.868-1.034-2.68-.398-.812-.855-1.536-1.381-2.154.388.803.667 1.811.883 2.938.213 1.108.365 2.332.504 3.578h1.633 1.242.937c-.346-1.718-.752-3.448-1.189-5.182.13-.422.254-.844.417-1.273-.159.326-.328.639-.496.951-.091-.359-.169-.715-.262-1.074m5.945.17c-.45.818-.811 1.806-1.119 2.904-.285 1.018-.505 2.247-.72 3.402.397-.074.807-.185 1.169-.336.018-1.235.052-2.413.147-3.373.109-1.102.276-1.991.524-2.598m-19.544.482c-.42.764-.761 1.68-1.054 2.695-.268.932-.526 2.01-.731 3.067.362.071.736.163 1.12.163h1.058c.28-.575.547-1.179.847-1.713.31-.552.656-1.031 1.087-1.332.501.156.956.764 1.431 1.176-.491-.825-.962-1.699-1.655-2.045-.593.403-1.071.981-1.512 1.619-.441.638-.844 1.336-1.282 1.979.048-2.519.243-4.514.691-5.609m3.222.203c.463 1.424.691 3.505.869 5.723h1.22c.145-1.836.385-3.705.883-5.662-.49 1.499-1.094 2.738-1.351 4.771-.396-1.937-.914-3.595-1.621-4.832" opacity=".977" fill="#73a00c"/><path d="m-31.778 23.455c-.539 1.502-1.043 3-1.48 4.49-.359-1.325-.793-2.531-1.406-3.445.274.55.446 1.398.545 2.461.081.868.042 2.031.04 3.142.483.241 1.068.39 1.62.482-.019-2.423.339-4.828.682-7.13m18.826.98c.276.554.449 1.41.547 2.484.085.929.131 2.096.123 3.297.42-.18.791-.421 1.15-.694-.165-.748-.384-1.594-.59-2.277-.324-1.076-.715-2.043-1.23-2.811m-9.17.637c-.465.697-.617 1.827-.822 2.83-.103.502-.219.971-.395 1.34-.175.369-.41.637-.75.732-.213-.817-.401-1.2-.639-1.529-.237-.329-.523-.605-.93-1.207.399.761.605 1.347.719 1.885.11.518.132.994.16 1.531h2.266c.24-1.074.233-2.179.211-3.156-.023-.995-.051-1.859.18-2.426m-7.967.324c-.103.289-.192.575-.293.863-.187-.251-.374-.502-.551-.764.181.345.321.682.465 1.021-.478 1.371-.962 2.766-1.343 4.125.069.003.166.011.236.011h.828 1.375 1.828c.154-.994.321-1.971.557-2.855.241-.902.551-1.71.982-2.354-.586.497-1.094 1.078-1.537 1.73-.444.652-.823 1.374-1.15 2.152-.311-1.191-.928-2.042-1.555-2.883.053-.349.106-.699.158-1.049m-6.613.137c.275.486.461 1.198.582 2.08.022.163.028.748.046.922.313.454.646.699 1.077 1.041-.152-.511-.281-1.248-.463-1.717-.341-.88-.743-1.671-1.242-2.326m21.748.387c.249.44.426 1.059.549 1.822.123.763.192 1.671.219 2.682-.487-.516-.935-1.076-1.426-1.588-.491-.512-1.024-.975-1.684-1.299-.771.278-1.295.978-1.842 1.641.529-.331 1.036-.82 1.594-.945.477.24.86.623 1.203 1.064.329.423.621.901.928 1.357h.891c.52 0 1.058-.059 1.535-.191-.218-.795-.516-1.68-.797-2.385-.324-.813-.704-1.547-1.17-2.158m-3.586.162c-.786.993-1.364 2.325-1.805 3.881-.286-1.634-.958-2.628-1.504-3.832.551 1.563.818 3.057.98 4.523h1.363c.199-1.771.453-3.435.965-4.572" opacity=".977" fill="#4d8304"/></g><path d="m-31.626 24.873c.46 1.438.687 3.538.863 5.781h1.184c.142-1.854.384-3.743.879-5.721-.483 1.499-1.077 2.738-1.33 4.771-.389-1.937-.9-3.595-1.596-4.832" fill="#73a00c"/><path d="m-16.683 6.436c2.196 0 3.976 1.78 3.976 3.976 0 2.196-1.78 3.976-3.976 3.976-2.196 0-3.976-1.78-3.976-3.976 0-2.196 1.78-3.976 3.976-3.976" fill="#fff" fill-rule="evenodd" stroke-width=".994"/></g>

   xmlns:dc="http://purl.org/dc/elements/1.1/"
   xmlns:cc="http://creativecommons.org/ns#"
   xmlns:rdf="http://www.w3.org/1999/02/22-rdf-syntax-ns#"
   xmlns:svg="http://www.w3.org/2000/svg"
   xmlns="http://www.w3.org/2000/svg"
   xmlns:sodipodi="http://sodipodi.sourceforge.net/DTD/sodipodi-0.dtd"
   xmlns:inkscape="http://www.inkscape.org/namespaces/inkscape"
   height="32"
   width="32"
   version="1"
   id="svg8"
   sodipodi:docname="star-mime-2.svg"
   inkscape:version="0.92.1 r"&gt;
  <g transform="translate(152.47 194.05)" fill="#fff"><path d="m-125.38-193.25l-.077 3.548 3.072 1.831-3.548-.077-3.135 6.791 1.38-7.268-3.072-1.831 3.548.077z"/><path d="m-125.41-183.04l.042-1.955-1.692-1.01 1.955.042 1.727-3.741-.76 4 1.692 1.01-1.955-.042z"/></g></svg>