<?xml version="1.0" encoding="UTF-8" standalone="no"?>
<svg
   xmlns:dc="http://purl.org/dc/elements/1.1/"
   xmlns:cc="http://creativecommons.org/ns#"
   xmlns:rdf="http://www.w3.org/1999/02/22-rdf-syntax-ns#"
   xmlns:svg="http://www.w3.org/2000/svg"
   xmlns="http://www.w3.org/2000/svg"
   xmlns:sodipodi="http://sodipodi.sourceforge.net/DTD/sodipodi-0.dtd"
   xmlns:inkscape="http://www.inkscape.org/namespaces/inkscape"
   height="32"
   width="32"
   version="1"
   id="svg16"
   sodipodi:docname="kipi-piwigo.svg"
   inkscape:version="0.92.1 r">
  <metadata
     id="metadata22">
    <rdf:RDF>
      <cc:Work
         rdf:about="">
        <dc:format>image/svg+xml</dc:format>
        <dc:type
           rdf:resource="http://purl.org/dc/dcmitype/StillImage" />
        <dc:title></dc:title>
      </cc:Work>
    </rdf:RDF>
  </metadata>
  <defs
     id="defs20" />
  <sodipodi:namedview
     pagecolor="#ffffff"
     bordercolor="#666666"
     borderopacity="1"
     objecttolerance="10"
     gridtolerance="10"
     guidetolerance="10"
     inkscape:pageopacity="0"
     inkscape:pageshadow="2"
     inkscape:window-width="1680"
     inkscape:window-height="963"
     id="namedview18"
     showgrid="false"
     inkscape:zoom="3.6875"
     inkscape:cx="-90.334884"
     inkscape:cy="37.045512"
     inkscape:window-x="0"
     inkscape:window-y="0"
     inkscape:window-maximized="1"
     inkscape:current-layer="svg16" />
  <rect
     style="opacity:1;fill:#5b5b5b;fill-opacity:1;fill-rule:evenodd;stroke:none;stroke-width:1.03534329;stroke-linecap:round;stroke-linejoin:bevel;stroke-miterlimit:4;stroke-dasharray:none;stroke-dashoffset:0;stroke-opacity:1"
     id="rect4497-3-3-3"
     width="28.203388"
     height="28.203388"
     x="1.8983027"
     y="1.8983059"
     ry="5.575182" />
  <path
     inkscape:connector-curvature="0"
     style="opacity:1;fill:#ffaa28;fill-opacity:1;fill-rule:evenodd;stroke:none;stroke-width:1.03534329;stroke-linecap:round;stroke-linejoin:bevel;stroke-miterlimit:4;stroke-dasharray:none;stroke-dashoffset:0;stroke-opacity:1"
     d="M 7.26953,1.9394533 C 4.281522,2.0519213 1.898436,4.4561666 1.898436,7.4726564 V 24.527343 c 0,3.088651 2.485568,5.574219 5.574219,5.574219 h 17.052734 c 3.088651,0 5.576172,-2.485568 5.576172,-5.574219 V 7.4726564 c 0,-3.0886508 -2.487521,-5.5742188 -5.576172,-5.5742188 H 11.26953 v 1.5625 c 0,0.277 -0.112219,0.5262813 -0.292969,0.7070313 -0.18075,0.18075 -0.430031,0.2929687 -0.707031,0.2929687 h -2 c -0.277,0 -0.528234,-0.1122187 -0.708984,-0.2929687 C 7.379796,3.9872189 7.26953,3.7379376 7.26953,3.4609376 Z"
     id="path4525" />
  <path
     inkscape:connector-curvature="0"
     style="opacity:1;fill:#373737;fill-opacity:1;fill-rule:evenodd;stroke:none;stroke-width:1.03534329;stroke-linecap:round;stroke-linejoin:bevel;stroke-miterlimit:4;stroke-dasharray:none;stroke-dashoffset:0;stroke-opacity:1"
     d="m 7.26953,1.9394533 v 1.5214843 c 0,0.277 0.110266,0.5262813 0.291016,0.7070313 0.18075,0.18075 0.431984,0.2929687 0.708984,0.2929687 h 2 c 0.277,0 0.526281,-0.1122187 0.707031,-0.2929687 0.18075,-0.18075 0.292969,-0.4300313 0.292969,-0.7070313 v -1.5625 H 7.472655 c -0.07216,0 -0.131645,0.038325 -0.203125,0.041016 z"
     id="rect4497-3" />
  <circle
     style="opacity:1;fill:#373737;fill-opacity:1"
     cx="25.861704"
     cy="7.2978735"
     r="1"
     id="circle8-6" />
  <circle
     style="opacity:1;fill:#373737;fill-opacity:1"
     cx="16.000002"
     cy="16"
     r="8"
     id="circle10" />
  <circle
     style="fill:#d08a00;fill-opacity:1"
     cx="16.000002"
     cy="-16"
     r="6"
     transform="scale(1,-1)"
     id="circle14-7" />
  <circle
     style="fill:#ffc93e;fill-opacity:1"
     cx="16.000002"
     cy="16"
     r="4"
     id="circle18-5" />
</svg>
