<svg xmlns="http://www.w3.org/2000/svg" viewBox="0 0 32 32"><defs><clipPath><circle cx="286" cy="26" r="10" fill="none"/></clipPath><linearGradient gradientTransform="matrix(2.54182 0 0 2.58531-153.47-277.37)" id="0" x1="67.894" y1="108.69" x2="67.854" y2="113.11" gradientUnits="userSpaceOnUse"><stop stop-color="#f9f9f9"/><stop offset="1" stop-color="#999"/></linearGradient></defs><g fill-rule="evenodd"><path d="m1.898 11.131v13.395c0 3.089 2.488 5.576 5.576 5.576h17.05c3.089 0 5.574-2.488 5.574-5.576v-17.05c0-.32-.128-.596-.18-.9-1.775-.098-3.604-.207-5.496-.641-1.196-.274-2.386-.63-3.539-1.09-1.153-.46-2.268-1.023-3.309-1.709.706 1.039 1.24 2.08 1.637 3.107.396 1.027.655 2.04.805 3.02.15.982.193 1.933.16 2.836-.033.903-.14 1.755-.293 2.545-.305 1.579-.788 2.9-1.193 3.824-.405.925-.734 1.455-.734 1.455 0 0-1.087-1.077-2.305-2.875-.609-.899-1.25-1.979-1.805-3.193-.554-1.214-1.023-2.563-1.283-4-.415-2.295-.439-4.093-.262-5.496-.43.68-1.022 1.395-1.832 2.115-.81.721-1.839 1.447-3.145 2.146-2.111 1.131-3.856 1.891-5.43 2.516" fill="#8a1c13"/><path d="m1.898 11.131c1.574-.624 3.318-1.385 5.43-2.516 1.306-.699 2.334-1.426 3.145-2.146.81-.721 1.402-1.435 1.832-2.115-.178 1.403-.153 3.201.262 5.496.261 1.441.729 2.79 1.283 4 .554 1.214 1.196 2.295 1.805 3.193 1.218 1.798 2.305 2.875 2.305 2.875 0 0 .329-.53.734-1.455.405-.925.888-2.245 1.193-3.824.153-.79.26-1.642.293-2.545.033-.903-.01-1.854-.16-2.836-.15-.982-.408-1.994-.805-3.02-.396-1.027-.931-2.069-1.637-3.107 1.041.686 2.156 1.249 3.309 1.709 1.153.46 2.344.816 3.539 1.09 1.892.434 3.721.543 5.496.641-.443-2.639-2.626-4.674-5.395-4.674h-17.05c-3.089 0-5.576 2.486-5.576 5.574z" fill="#50b344"/></g>

   xmlns:dc="http://purl.org/dc/elements/1.1/"
   xmlns:cc="http://creativecommons.org/ns#"
   xmlns:rdf="http://www.w3.org/1999/02/22-rdf-syntax-ns#"
   xmlns:svg="http://www.w3.org/2000/svg"
   xmlns="http://www.w3.org/2000/svg"
   xmlns:xlink="http://www.w3.org/1999/xlink"
   xmlns:sodipodi="http://sodipodi.sourceforge.net/DTD/sodipodi-0.dtd"
   xmlns:inkscape="http://www.inkscape.org/namespaces/inkscape"
   height="32"
   width="32"
   version="1"
   id="svg8"
   sodipodi:docname="snow-top-2.svg"
   inkscape:version="0.92.1 r"&gt;
  <path d="m24.646 6.111c2.995 2.684 1.381 7.817 3.674 8.291 2.031.613 3.541-1.385 3.66-4.503.35-8.627-3.911-9.427-6.879-9.524-28.342-2.047-1.762 4.92-.455 5.736" fill="url(#0)"/></svg>