<svg xmlns="http://www.w3.org/2000/svg" viewBox="0 0 32 32"><defs><linearGradient gradientTransform="matrix(2.54182 0 0 2.58531-153.47-277.37)" id="0" x1="67.894" y1="108.69" x2="67.854" y2="113.11" gradientUnits="userSpaceOnUse"><stop stop-color="#f9f9f9"/><stop offset="1" stop-color="#999"/></linearGradient></defs><rect width="28.2" height="28.2" x="1.898" y="1.898" fill="#e6e6e6" fill-rule="evenodd" rx="5.575"/><g transform="translate(30.07-4.234)"><path d="m-19.672 30.1c-1.095-.165-1.948-.591-2.707-1.351-.635-.636-1.074-1.411-1.26-2.222-.18-.786-.179-1.401.004-2.197.163-.706.531-1.401 1.053-1.987.246-.276 3.02-3.051 3.067-3.066.019-.006.032.113.032.313.002.568.112 1.18.334 1.855l.112.34-1.04 1.041c-1.036 1.036-1.149 1.165-1.317 1.492-.174.337-.257.711-.255 1.149.004 1.477 1.373 2.703 2.839 2.543.443-.048.809-.183 1.175-.434.263-.18 4.678-4.612 4.845-4.865.63-.952.515-2.256-.275-3.098-.156-.167-.516-.467-.56-.467-.089 0 .039-.147.72-.828l.75-.749.188.163c.22.191.676.667.751.784.029.045.07.101.092.124.062.065.351.564.438.756.275.611.415 1.264.415 1.944 0 1.038-.297 1.931-.934 2.805-.075.103-1.211 1.26-2.523 2.571-1.715 1.713-2.457 2.433-2.638 2.56-.964.679-2.207.989-3.305.823" fill="#3266f7"/><path d="m-8.469 10.366c1.095.165 1.948.591 2.707 1.351.635.636 1.074 1.411 1.26 2.222.18.786.179 1.401-.004 2.197-.163.706-.531 1.401-1.053 1.987-.246.276-3.02 3.051-3.067 3.066-.019.006-.032-.113-.032-.313-.002-.568-.112-1.18-.334-1.855l-.112-.34 1.04-1.041c1.036-1.036 1.149-1.165 1.317-1.492.174-.337.257-.711.255-1.149-.004-1.477-1.373-2.704-2.839-2.543-.443.048-.809.183-1.175.434-.263.18-4.678 4.612-4.845 4.865-.63.952-.515 2.256.275 3.098.156.167.516.467.56.467.089 0-.039.147-.72.828l-.75.749-.188-.163c-.22-.191-.676-.667-.751-.784-.029-.045-.07-.101-.092-.124-.062-.065-.351-.564-.438-.756-.275-.611-.415-1.264-.415-1.944 0-1.038.297-1.931.934-2.805.075-.103 1.211-1.26 2.523-2.571 1.715-1.713 2.457-2.433 2.638-2.56.964-.679 2.207-.989 3.305-.823" fill="#29a734"/></g>

   xmlns:dc="http://purl.org/dc/elements/1.1/"
   xmlns:cc="http://creativecommons.org/ns#"
   xmlns:rdf="http://www.w3.org/1999/02/22-rdf-syntax-ns#"
   xmlns:svg="http://www.w3.org/2000/svg"
   xmlns="http://www.w3.org/2000/svg"
   xmlns:xlink="http://www.w3.org/1999/xlink"
   xmlns:sodipodi="http://sodipodi.sourceforge.net/DTD/sodipodi-0.dtd"
   xmlns:inkscape="http://www.inkscape.org/namespaces/inkscape"
   height="32"
   width="32"
   version="1"
   id="svg8"
   sodipodi:docname="snow-top-2.svg"
   inkscape:version="0.92.1 r"&gt;
  <path d="m24.646 6.111c2.995 2.684 1.381 7.817 3.674 8.291 2.031.613 3.541-1.385 3.66-4.503.35-8.627-3.911-9.427-6.879-9.524-28.342-2.047-1.762 4.92-.455 5.736" fill="url(#0)"/></svg>