<svg xmlns="http://www.w3.org/2000/svg" xmlns:xlink="http://www.w3.org/1999/xlink" viewBox="0 0 32 32"><defs><linearGradient gradientTransform="matrix(-2.54182 0 0 2.58531 185.47-277.37)" id="1" x1="67.894" y1="108.69" x2="67.854" y2="113.11" gradientUnits="userSpaceOnUse"><stop stop-color="#f9f9f9"/><stop offset="1" stop-color="#999"/></linearGradient></defs><rect width="28.2" height="28.2" x="1.898" y="1.898" fill="#c2352a" fill-rule="evenodd" rx="5.575"/><path d="m13.659 5.18c-.164.145-.205.362-.205.615 0 .47.164 1.049.246 1.266 0 0 .123 2.533.164 2.822-.369.036-1.026.072-1.272.145h-.328c-.697.036-1.354.072-1.641.326l-.123.109.123.145c.205.217.287.832.369 1.484.205 1.339.451 3 1.682 3.655l.246.109v-.253c0 0 .041-.109.041-.253 0-.109-.041-.289-.082-.543.328.036 1.026.109 1.272.109.041.289 1.108 12.09 1.108 12.09h.41c0 0 .451-11.651.451-12.01.287 0 1.559.036 1.928.072-.082.217-.41 1.122-.41 1.122l.574-.47c.164-.109 3.733-2.967 3.241-4.849-.164-.615-.738-1.049-1.682-1.266h-.082c-.533 0-2.174.036-3.405.109.041-.941.041-1.447.041-1.701v-.326c0-.181.205-.434.369-.615.164-.217.369-.398.369-.615 0-.072-.041-.145-.082-.217-.246-.326-2.051-1.158-2.831-1.23-.246.036-.41.072-.492.181m.041 5.934h.205c0 .326.123 2.605.164 2.931-.328-.036-1.108-.109-1.354-.109-.123-.47-.164-.977-.205-1.484-.041-.434-.082-.868-.164-1.266.369 0 1.354-.072 1.354-.072m2.503 1.122c0 0 .041-.868.041-1.158.533.072 1.231.109 1.887.109h.738c0 .145-.041.326-.041.326-.082.796-.205 1.737-.574 2.678-.246 0-1.764-.072-2.092-.109 0-.253.041-1.845.041-1.845" fill="#fff"/>

   xmlns:dc="http://purl.org/dc/elements/1.1/"
   xmlns:cc="http://creativecommons.org/ns#"
   xmlns:rdf="http://www.w3.org/1999/02/22-rdf-syntax-ns#"
   xmlns:svg="http://www.w3.org/2000/svg"
   xmlns="http://www.w3.org/2000/svg"
   xmlns:xlink="http://www.w3.org/1999/xlink"
   xmlns:sodipodi="http://sodipodi.sourceforge.net/DTD/sodipodi-0.dtd"
   xmlns:inkscape="http://www.inkscape.org/namespaces/inkscape"
   height="32"
   width="32"
   version="1"
   id="svg8"
   sodipodi:docname="snow-top-3.svg"
   inkscape:version="0.92.1 r"&gt;
  <path fill="#00000f" fill-opacity="0" d="m0 0h32v32h-32z" id="0"/><path d="m7.354 6.111c-2.995 2.684-1.381 7.817-3.674 8.291-2.031.613-3.541-1.385-3.66-4.503-.35-8.627 3.911-9.427 6.879-9.524 28.342-2.047 1.762 4.92.455 5.736" fill="url(#1)"/><use xlink:href="#0"/></svg>