<svg xmlns="http://www.w3.org/2000/svg" viewBox="0 0 32 32"><defs><linearGradient gradientTransform="matrix(-2.65552 0 0 2.58531 193.77-277.73)" id="0" x1="67.894" y1="108.69" x2="67.854" y2="113.11" gradientUnits="userSpaceOnUse"><stop stop-color="#f9f9f9"/><stop offset="1" stop-color="#999"/></linearGradient></defs><rect width="28.2" height="28.2" x="1.898" y="1.898" fill="#ffc947" fill-rule="evenodd" rx="5.575"/><path d="m16 5.702c5.737 0 10.298 4.561 10.298 10.298 0 5.737-4.561 10.298-10.298 10.298-5.737 0-10.298-4.561-10.298-10.298 0-5.737 4.561-10.298 10.298-10.298" fill="#b38d32"/><path d="m13.832 9.135c-.713 0-1.287.511-1.287 1.145v11.441c0 .634.574 1.145 1.287 1.145.713 0 1.287-.511 1.287-1.145v-2.801l1.966 3.406c.317.549 1.07.705 1.688.349.618-.357.86-1.087.543-1.636l-2.905-5.03 2.905-5.03c.317-.549.075-1.278-.543-1.634-.232-.134-.483-.195-.722-.191-.399.007-.767.195-.965.538l-1.966 3.406v-2.816c0-.634-.574-1.145-1.287-1.145" fill="#ffc947"/>

   xmlns:dc="http://purl.org/dc/elements/1.1/"
   xmlns:cc="http://creativecommons.org/ns#"
   xmlns:rdf="http://www.w3.org/1999/02/22-rdf-syntax-ns#"
   xmlns:svg="http://www.w3.org/2000/svg"
   xmlns="http://www.w3.org/2000/svg"
   xmlns:xlink="http://www.w3.org/1999/xlink"
   xmlns:sodipodi="http://sodipodi.sourceforge.net/DTD/sodipodi-0.dtd"
   xmlns:inkscape="http://www.inkscape.org/namespaces/inkscape"
   version="1"
   width="32"
   height="32"
   id="svg12"
   sodipodi:docname="snow-top-3.svg"
   inkscape:version="0.92.1 r"&gt;
  <path d="m24.627.009c8.36-.339 9.455 9.523 4.064 9.505-.686.003-1.62-.197-3-1.471-14.665-10.216-14.549 2.967-17.708.875-1.727-1.822-1.743 4.653-4.139 5.127-2.122.613-3.699-1.385-3.824-4.503-.366-8.627 4.086-9.427 7.187-9.524 5.974.133 11.562-.045 17.419-.01" fill="url(#0)"/></svg>