<svg xmlns="http://www.w3.org/2000/svg" viewBox="0 0 32 32"><defs><linearGradient gradientTransform="matrix(2.59244 0 0 2.58531-157.93-277.73)" id="0" x1="67.894" y1="108.69" x2="67.854" y2="113.11" gradientUnits="userSpaceOnUse"><stop stop-color="#f9f9f9"/><stop offset="1" stop-color="#999"/></linearGradient></defs><rect width="28" height="29.397" x="2" y="1.301" fill="#0066c4" fill-rule="evenodd" rx="5.811"/><path d="m14.426 26.644c-3.206-1.75-.999-1.916-2.257-2.651l-.178-.375.18-.569.18-.569.363-.19.363-.19v-.572-.572l.366-.193.366-.193v-.384-.384l.362-.19.362-.19.181-.573.181-.573-.181-.383-.181-.383-.376-.199c-.368-.194-.38-.203-.549-.383l-.173-.184h-.179-.179l-.181-.38-.181-.38-.359-.187-.359-.187h-.371-.371l-.177.185-.177.185-.18-.378-.18-.378h-.367-.367l-.182.192-.182.192h-.362-.362v-.198-.198l-.183-.192-.183-.192v-.188-.188h-.179-.179l-.173.182c-.095.1-.177.182-.183.182-.006 0-.088-.164-.183-.364l-.173-.364.182-.192.182-.192h.526.526l.369.194.369.194.371-.39.371-.39.178-.751.178-.751.369-.39.369-.39h.535.535v-.375c0-.206.002-.375.005-.375.003 0 .249.085.547.19l.542.19.364-.382.364-.382h-.178-.178l-.191-.4c-.187-.391-.195-.404-.364-.579l-.172-.179-.369.194-.369.194h-.728-.728l-.18.378-.18.378-.177-.185-.177-.185h-.178-.178v-.38-.38l.535-.187.535-.187.174.182c.096.1.187.182.203.182.016 0 .263-.082.549-.182l.52-.182h.372c.204 0 .372-.005.372-.01 0-.006-.079-.177-.175-.38-.171-.361-.18-.374-.361-.567l-.186-.197h-.367-.367l-.178.188c-.175.184-.185.191-.544.379l-.366.191-.188-.195c-.181-.188-.2-.202-.525-.374l-.337-.179-.183-.01-.183-.01.174-.121c1.412-.982 3.02-1.568 4.754-1.734.345-.033 1.289-.034 1.639-.001 1.788.167 3.406.754 4.821 1.748l.183.129.005.567.005.567.178.189c.175.185.185.193.543.381l.364.192-.181.191-.181.191h-.367-.367l-.178.188-.178.188v.374.374l-.179-.187-.179-.187h-.366-.366l-.182.385-.182.385.182.385.182.385h.367.367l.173-.184c.169-.18.182-.188.549-.383.368-.195.38-.203.549-.383l.173-.184.178.37.178.37.001.192.001.192.186.196.186.196.366-.193.366-.193-.36-.378-.36-.378.179-.187.179-.187.361.38.361.38v.187.187h.179.179l.182.192.182.192h.206.206l.042.116c.076.209.154.456.222.704.037.134.072.259.078.278.009.033-.016.035-.367.035h-.378l-.366-.192-.366-.192-.371.194c-.361.189-.376.199-.55.379l-.178.185-.347-.181c-.342-.178-.35-.184-.535-.379l-.188-.198h-.555-.555l-.366.192-.366.192h-.362-.362l-.178.188-.178.188v.577.577l-.183.192-.183.192v.567.567l.183.577.183.577.357.187.357.187h.376.376l.366-.192.366-.192h.348.348l.366.192.366.192v.375.375l.185.388.185.388-.363.382-.363.382.361.759.361.759v.379.379l.226.238.226.238-.048.056c-.455.527-.758.837-1.161 1.189-1.552 1.355-3.427 2.186-5.433 2.41-.256.029-1.023.074-1.138.068-.027-.001-.2-.009-.386-.018m-1.523-14.647l.183-.192-.192-.197-.192-.197.183.198.183.198-.178.187-.178.187-.188-.192-.188-.192.183.197c.101.109.188.197.193.197.006 0 .093-.087.193-.192m.729-.381l.179-.188-.006-.201-.006-.201-.004.203-.004.203-.174.181-.174.181-.183-.192-.183-.192-.004-.193-.004-.193-.006.191-.006.191.188.199c.104.109.193.199.199.199.006 0 .091-.085.189-.188m5.076-1.907l.183-.192-.192-.197-.192-.197.183.198.183.198-.178.187-.178.187-.174-.182-.174-.182-.004-.203-.004-.203-.006.201-.006.201.179.188c.098.104.183.188.189.188.006 0 .093-.087.193-.192m.935.071c.016-.033.026-.061.02-.061-.005 0-.023.027-.04.061-.016.033-.026.061-.02.061.005 0 .023-.027.04-.061m.116-.223c.016-.033.026-.061.02-.061-.005 0-.023.027-.04.061-.016.033-.026.061-.02.061.005 0 .023-.027.04-.061m-.685-.233l-.183-.192.175-.184.175-.184.35.184c.192.101.357.183.365.183.008-.001-.149-.088-.35-.194l-.365-.193-.185.194-.185.194.183.192c.1.106.187.192.192.192.005 0-.073-.087-.173-.192m.791.03c.022-.045.035-.081.03-.081-.005 0-.027.036-.049.081-.022.045-.035.081-.03.081.005 0 .027-.036.049-.081m.093-.193c-.006-.006-.017.005-.024.025-.011.029-.008.031.011.011.013-.014.019-.03.013-.036" fill="#52a8ea" stroke-width=".015"/><path d="m-15.605176-14.360794a10.555028 10.555532 0 0 1 3.485879 12.579815 10.555028 10.555532 0 0 1 -11.405787 6.348217 10.555028 10.555532 0 0 1 -8.853479 -9.592324 10.555028 10.555532 0 0 1 7.239312 -10.862395" transform="matrix(-.866-.50004.49996-.86605 0 0)" fill="none" fill-rule="evenodd" stroke="#52a8ea" stroke-linejoin="bevel" stroke-linecap="round" stroke-width=".856"/><path d="m14.532 11.178l-2.868.456v10.892l2.868-.809v-4.208l2.868 4.961 2.868-1.129-3.585-4.517 3.587-4.892-2.783-.754-2.955 4.937zm-5.84 2.954c-.068 0-.136.028-.188.082l-1.127 1.184c-.104.109-.079.265 0 .396l1.167 1.923c-.086.188-.161.382-.224.581-.003.009-.007.016-.01.025l-2.116.494c-.144.034-.266.125-.266.279v.74.74c0 .154.122.246.266.279l2.116.494c.005.015.012.028.017.043.061.193.134.381.217.565l-1.167 1.922c-.079.13-.104.286 0 .396l1.127 1.184c.104.109.271.109.375 0l1.829-1.223c.18.092.365.171.555.238.012.005.024.012.036.016l.469 2.22c0 .154.119.279.266.279h1.592c.147 0 .234-.129.266-.279l.469-2.288c.216-.085.425-.187.626-.304l1.786 1.341c.104.109.271.109.375 0l1.127-1.184c.104-.109.079-.265 0-.396l-.679-1.082-.071.028c-.162.064-.343-.002-.433-.157l-.714-1.235c-.595 1.494-2 2.545-3.64 2.545-2.178 0-3.944-1.854-3.944-4.14 0-1.755 1.042-3.251 2.51-3.854v-.825l-.006.026c-.016.006-.03.015-.046.021-.187.065-.37.143-.548.232l-1.826-1.222c-.052-.055-.12-.082-.188-.082" fill="#fff"/>

   xmlns:dc="http://purl.org/dc/elements/1.1/"
   xmlns:cc="http://creativecommons.org/ns#"
   xmlns:rdf="http://www.w3.org/1999/02/22-rdf-syntax-ns#"
   xmlns:svg="http://www.w3.org/2000/svg"
   xmlns="http://www.w3.org/2000/svg"
   xmlns:xlink="http://www.w3.org/1999/xlink"
   xmlns:sodipodi="http://sodipodi.sourceforge.net/DTD/sodipodi-0.dtd"
   xmlns:inkscape="http://www.inkscape.org/namespaces/inkscape"
   version="1"
   width="32"
   height="32"
   id="svg12"
   sodipodi:docname="snow-top-4.svg"
   inkscape:version="0.92.1 r"&gt;
  <path d="m7.196.009c-8.161-.339-9.231 9.523-3.968 9.505.669.003 1.581-.197 2.929-1.471 3.773-4.147 9.01 4.479 14.696-1.042.61-.911 1.804-1.135 2.455-.627 1.045.677 2.87 2.991 3.88 3 2.359.513 4.095-.198 4.816-3.188.185-3.165-2.303-6.286-6.281-6.17-5.832.133-12.809-.045-18.527-.01" fill="url(#0)"/></svg>