<svg xmlns="http://www.w3.org/2000/svg" xmlns:xlink="http://www.w3.org/1999/xlink" viewBox="0 0 32 32"><defs><linearGradient xlink:href="#3" id="4" gradientUnits="userSpaceOnUse" x1="27.558" y1="-133.46" x2="22.09" y2="-134.43"/><linearGradient xlink:href="#3" id="2" gradientUnits="userSpaceOnUse" x1="15.879" y1="-141.91" x2="30.32" y2="-129.74"/><linearGradient id="3"><stop stop-color="#55c03f"/><stop offset="1" stop-color="#198b26"/></linearGradient><linearGradient id="1"><stop stop-color="#f9f9f9"/><stop offset="1" stop-color="#999"/></linearGradient><linearGradient xlink:href="#1" id="0" gradientUnits="userSpaceOnUse" x1="17.658" y1="-133.51" x2="15.02" y2="-125.58"/><radialGradient xlink:href="#1" id="5" cx="-176.59" cy="-120.91" r="3.01" gradientUnits="userSpaceOnUse" gradientTransform="matrix(2.21087.05719-.05496 2.12455 412.97 145.84)"/></defs><rect width="28.2" height="28.2" x="1.898" y="1.898" fill="#5b5b5b" fill-rule="evenodd" rx="5.575"/><g transform="matrix(.72028 0 0 .72028 4.476 4.476)" stroke-width="1.388"><g stroke-width="1.928"><g fill="#6f6f6f"><rect x="11" y="17" width="10" height="12" ry="1.333" rx="1.429"/><circle r="6" cx="8" cy="8"/><circle r="6" cx="24" cy="8"/></g><g fill="#a0a3a4"><path d="m11 22.5v-3.5c0 0-.884.04-1.313.16-1.774.499-3.063 2.399-2.588 4.26.475 1.861 2.286 2.958 4.06 2.46 1.774-.499.316-1.519-.159-3.38"/><path d="m21 22.5v-3.5c0 0 .899.04 1.328.16 1.774.499 3.063 2.399 2.588 4.26-.475 1.861-2.286 2.958-4.06 2.46-1.774-.499-.331-1.519.144-3.38"/><path d="m23 30h-6c0-1.657 1.343-3 3-3 1.657 0 3 1.343 3 3"/><path d="m15 30h-6c0-1.657 1.343-3 3-3 1.657 0 3 1.343 3 3"/><path d="m13.273 19h5.454c4.545 0 7.272-1.935 7.272-7.742 0-3.871-3.636-7.228-10-7.258-6.364-.005-10 3.387-10 7.258 0 5.807 2.727 7.742 7.273 7.742"/></g><circle r="2.5" cx="9.5" cy="11.5" fill="#74b8ff"/><g fill="#4d4d4d"><circle r="1.5" cx="9.5" cy="11.5"/><path d="M13.406 16A3 1.3333 0 0 0 13 16.667 3 1.3333 0 0 0 16 18 3 1.3333 0 0 0 19 16.667 3 1.3333 0 0 0 18.594 16 3 1.3333 0 0 1 16 16.667 3 1.3333 0 0 1 13.406 16"/></g></g><g transform="matrix(1.4286 0 0 .95238-6.857.729)" stroke-width="1.388"><path d="m13.9 11.1c.013 4.2 1.3 4.2 2.1 4.2.8 0 2.087 0 2.1-4.2.002-3.359-1.35-6.3-2.1-6.3-.751 0-2.102 2.941-2.1 6.3" fill="#4d4d4d"/><path d="m14.6 13.9a.7 .7 0 0 0 -.3459 .09297c.217.639.51.958.818 1.124a.7 .7 0 0 0 .228 -.517 .7 .7 0 0 0 -.7 -.7m2.80032.00023a.7 .7 0 0 0 -.7 .7 .7 .7 0 0 0 .22832 .5168c.308-.166.601-.484.818-1.124A.7 .7 0 0 0 17.3999 13.9" fill="#343434"/></g><g stroke-width="1.928"><circle r="2.5" cx="22.5" cy="11.5" fill="#74b8ff"/><circle r="1.5" cx="22.5" cy="11.5" fill="#4d4d4d"/></g></g><g transform="translate(-.916 143.06)"><path d="m15.583-142.61c-5.577-1.531-5.951 3.24-4.58 5.493 4.381 6.983 6.796 6.577 9.398 7.895 1.712 2.064 3.451 3.4 6.469 4.1 11.69 1.559 3.242-8.417.92-8.649-5.065.012-7.547-6.123-12.206-8.838" fill="url(#0)"/><path d="m15.583-142.61c3.76.276 5.616-.626 8.93-.421 4.319.283 8.307 2.053 7.838 6.574-.347 2.567-.37 2.25.186 4.296.532 1.535-.252 4.232-.487 4.654-2.715 4.963-1.536 4.965-2.656 7.742l-.906-.418-2.508-11.358c-7.177-.909-10.754-10.11-10.398-11.07" fill="url(#2)"/><path d="m22.374-132.67c.362.274 1.553-5.105 1.172-5.653 1.379 2.44 1.919 4.616 2.435 6.783-1.276-.283-2.289-.554-3.607-1.13" fill="url(#4)"/><circle r="3.01" cy="-119.45" cx="29.06" fill="url(#5)"/></g></svg>