<svg xmlns="http://www.w3.org/2000/svg" viewBox="0 0 32 32"><defs><linearGradient gradientTransform="matrix(2.54182 0 0 2.58531-153.47-277.37)" id="0" x1="67.894" y1="108.69" x2="67.854" y2="113.11" gradientUnits="userSpaceOnUse"><stop stop-color="#f9f9f9"/><stop offset="1" stop-color="#999"/></linearGradient></defs><rect width="28.2" height="28.2" x="1.898" y="1.898" fill="#4d4d4d" fill-rule="evenodd" rx="5.575"/><g transform="matrix(.73663 0 0 .73663 4.214 4.582)" stroke-width="1.358"><path d="m16.02 2c-.935-.04-1.817.399-2.285 1.138l-11.643 18.376c-.453 1.778.893 3.1 2.907 4.07 3.777 1.819 9.901 2.397 10.903 2.412 1.654.035 6.664-.723 10.242-2.144 2.721-1.081 4.613-2.546 3.568-4.339l-11.643-18.376c-.426-.672-1.198-1.101-2.049-1.138" fill="#8e8e8e"/><path d="m16.02 2c-.935-.04-1.817.4-2.285 1.139l-1.73 2.73v20.287c0 2.132 2.293 2.842 4 2.842 1.708 0 4-.71 4-2.842v-19.963l-1.936-3.055c-.426-.672-1.198-1.102-2.049-1.139" fill="#686868"/><rect ry="2.125" rx="1.5" y="11" x="6" height="17" width="3" fill="#afafb1"/><ellipse ry="3.5" rx="3" cy="20.5" cx="16" fill="#64b0ff"/><rect ry="2.125" rx="1.5" y="11" x="23" height="17" width="3" fill="#afafb1"/></g>

   xmlns:dc="http://purl.org/dc/elements/1.1/"
   xmlns:cc="http://creativecommons.org/ns#"
   xmlns:rdf="http://www.w3.org/1999/02/22-rdf-syntax-ns#"
   xmlns:svg="http://www.w3.org/2000/svg"
   xmlns="http://www.w3.org/2000/svg"
   xmlns:xlink="http://www.w3.org/1999/xlink"
   xmlns:sodipodi="http://sodipodi.sourceforge.net/DTD/sodipodi-0.dtd"
   xmlns:inkscape="http://www.inkscape.org/namespaces/inkscape"
   height="32"
   width="32"
   version="1"
   id="svg8"
   sodipodi:docname="snow-top-2.svg"
   inkscape:version="0.92.1 r"&gt;
  <path d="m24.646 6.111c2.995 2.684 1.381 7.817 3.674 8.291 2.031.613 3.541-1.385 3.66-4.503.35-8.627-3.911-9.427-6.879-9.524-28.342-2.047-1.762 4.92-.455 5.736" fill="url(#0)"/></svg>