<svg xmlns="http://www.w3.org/2000/svg" viewBox="0 0 32 32"><defs><linearGradient gradientTransform="matrix(2.62891 0 0 2.71269-160.16-291.42)" id="0" x1="67.894" y1="108.69" x2="67.854" y2="113.11" gradientUnits="userSpaceOnUse"><stop stop-color="#f9f9f9"/><stop offset="1" stop-color="#999"/></linearGradient></defs><rect width="28.2" height="28.2" x="1.898" y="1.898" fill="#8e8e8e" fill-rule="evenodd" rx="5.575"/><g transform="matrix(1.07339 0 0 1.07339-1.174-1.174)" stroke-width=".932"><path d="m16.642 5.432l9.927 9.927c.355.355.336.947-.043 1.327l-9.84 9.84c-.38.38-.971.399-1.327.043l-9.927-9.927c-.355-.355-.336-.947.043-1.327l9.84-9.84c.38-.38.971-.399 1.327-.043" fill="#fff"/><path d="m15.985 5.177c-.239.009-.481.108-.67.297l-3.18 3.18v9.958l8.843-8.844-4.336-4.336c-.178-.178-.414-.263-.654-.255a1.06194 1.06194 0 0 0 -.0031 0m-6.169 5.796l-4.341 4.341c-.188.189-.287.43-.296.668a1.06194 1.06194 0 0 0 0 .0116c-.006.238.077.472.254.648l4.336 4.336.047-.046zm12.803.435l-4.849 4.848 4.592 4.593 4.164-4.164c.189-.189.287-.43.296-.668a1.06194 1.06194 0 0 0 0 -.01159c.006-.238-.077-.472-.254-.648zm-6.488 6.487l-3.995 3.995v1.453l3.224 3.224c.177.177.413.263.652.255a1.06194 1.06194 0 0 0 .0015 0c.24-.008.483-.107.673-.298l4.04-4.04z" fill="#31afe1"/></g>

   xmlns:dc="http://purl.org/dc/elements/1.1/"
   xmlns:cc="http://creativecommons.org/ns#"
   xmlns:rdf="http://www.w3.org/1999/02/22-rdf-syntax-ns#"
   xmlns:svg="http://www.w3.org/2000/svg"
   xmlns="http://www.w3.org/2000/svg"
   xmlns:xlink="http://www.w3.org/1999/xlink"
   xmlns:sodipodi="http://sodipodi.sourceforge.net/DTD/sodipodi-0.dtd"
   xmlns:inkscape="http://www.inkscape.org/namespaces/inkscape"
   version="1"
   width="32"
   height="32"
   id="svg12"
   sodipodi:docname="snow-top-1.svg"
   inkscape:version="0.92.1 r"&gt;
  <path d="m7.288.009c-8.276-.356-9.36 9.992-4.02 9.973.679.003 1.604-.207 2.97-1.543 7.256-10.531 14.706 3.573 17.53.919 1.71-1.912 3.496-.418 4.448.115 2.1.643 3.662.041 3.785-3.231.188-3.321-1.889-6.344-5.923-6.223-5.914.14-12.989-.047-18.787-.01" fill="url(#0)"/><path fill="#f00" fill-opacity="0" d="m0 0h32v32h-32z"/></svg>