<svg xmlns="http://www.w3.org/2000/svg" viewBox="0 0 32 32"><defs><linearGradient gradientTransform="matrix(-2.65552 0 0 2.58531 193.77-277.73)" id="0" x1="67.894" y1="108.69" x2="67.854" y2="113.11" gradientUnits="userSpaceOnUse"><stop stop-color="#f9f9f9"/><stop offset="1" stop-color="#999"/></linearGradient></defs><g transform="translate(2.337.681)" fill-rule="evenodd"><path d="m13.09 1.218h-1.625c.016.04.031.08.045.121.03.089.055.178.076.27.02.092.036.184.047.277.012.093.019.187.021.281.002.094-.001.188-.008.281-.007.094-.019.187-.035.279-.016.092-.037.183-.063.273-.025.091-.055.18-.09.268-.035.087-.074.173-.117.256-.043.084-.09.165-.141.244-.052.078-.107.154-.166.227-.059.073-.122.144-.188.211-.066.067-.135.131-.207.191-.072.06-.147.116-.225.168-.078.053-.158.102-.24.146-.083.045-.167.085-.254.121-.062.026-.124.049-.188.07-.089.03-.18.055-.271.076-.092.021-.184.037-.277.049-.093.011-.186.018-.279.02-.094.002-.188-.001-.281-.008-.094-.007-.187-.019-.279-.035-.093-.016-.185-.037-.275-.063-.09-.026-.179-.056-.266-.09-.087-.035-.173-.074-.256-.117-.084-.043-.165-.091-.244-.143-.079-.051-.155-.106-.229-.164-.073-.059-.142-.122-.209-.188-.067-.066-.131-.135-.191-.207-.06-.072-.116-.147-.168-.225-.053-.078-.102-.158-.146-.24-.045-.083-.085-.167-.121-.254-.026-.062-.049-.124-.07-.188-.03-.089-.055-.18-.076-.271-.021-.092-.037-.184-.049-.277-.011-.093-.018-.187-.02-.281-.002-.094.001-.188.008-.281.007-.094.019-.187.035-.279.016-.092.037-.183.063-.273.025-.083.054-.165.086-.246h-1.08c-1.075 0-2.02.381-2.869.904.003 0 .005 0 .008 0 .094-.002.188.001.281.008.094.007.187.019.279.035.092.016.183.037.273.063.091.025.18.055.268.09.087.035.173.074.256.117.084.043.165.091.244.143.078.051.154.106.227.164.073.059.144.122.211.188.067.066.131.135.191.207.06.072.116.147.168.225.053.078.102.158.146.24.045.083.085.167.121.254.026.062.049.124.07.188.029.089.054.18.074.271.021.092.037.184.049.277.012.093.019.187.021.281.002.094-.001.188-.008.281-.007.094-.019.187-.035.279-.017.092-.038.183-.064.273-.025.091-.055.18-.09.268-.035.087-.074.173-.117.256-.043.083-.09.164-.141.242-.051.079-.106.155-.164.229-.059.073-.122.144-.188.211-.066.067-.135.13-.207.189-.072.06-.147.117-.225.17-.078.052-.159.1-.242.145-.083.045-.167.085-.254.121-.062.026-.124.049-.188.07-.089.03-.178.055-.27.076-.092.021-.184.037-.277.049-.093.011-.187.018-.281.02-.094.003-.188.001-.281-.006-.094-.008-.187-.02-.279-.037-.092-.016-.183-.037-.273-.063-.091-.025-.18-.055-.268-.09-.087-.035-.173-.074-.256-.117-.084-.043-.165-.09-.244-.141-.078-.052-.154-.107-.227-.166-.073-.059-.144-.122-.211-.188-.067-.066-.13-.135-.189-.207-.06-.072-.117-.147-.17-.225-.053-.078-.102-.158-.146-.24-.044-.083-.084-.167-.119-.254-.005-.014-.011-.029-.016-.043-.042.278-.164.528-.164.818v4.721c.006.002.012.004.018.006.087.035.173.074.256.117.084.043.165.09.244.141.078.051.154.106.227.164.073.059.144.122.211.188.067.066.131.135.191.207.06.072.116.147.168.225.053.078.102.159.146.242.045.083.085.167.121.254.025.061.048.123.068.186.03.089.055.18.076.271.021.092.037.184.049.277.012.093.019.187.021.281.002.094-.001.188-.008.281-.007.094-.019.187-.035.279-.017.092-.038.183-.064.273-.025.091-.055.18-.09.268-.034.087-.073.173-.115.256-.043.083-.091.164-.143.242-.051.079-.106.155-.164.229-.059.073-.122.144-.188.211-.066.067-.135.13-.207.189-.072.06-.147.117-.225.17-.078.053-.159.102-.242.146-.083.044-.167.084-.254.119-.021.008-.042.016-.063.023v1.627c.036-.028.072-.056.109-.082.078-.053.158-.102.24-.146.083-.045.167-.085.254-.121.061-.025.123-.048.186-.068.089-.03.18-.055.271-.076.092-.021.184-.037.277-.049.093-.012.187-.019.281-.021.094-.002.188.001.281.008.094.007.187.019.279.035.092.017.183.038.273.064.091.025.18.055.268.09.087.035.173.074.256.117.083.043.164.09.242.141.079.051.155.106.229.164.073.059.144.122.211.188.067.066.13.135.189.207.06.072.117.147.17.225.053.078.102.159.146.242.045.083.085.167.121.254.025.061.048.123.068.186.03.089.055.18.076.271.021.092.037.184.049.277.012.093.019.187.021.281.002.094-.001.188-.008.281-.007.094-.019.187-.035.279-.017.092-.038.183-.064.273-.025.091-.055.18-.09.268-.035.087-.074.173-.117.256-.043.083-.09.164-.141.242-.051.079-.107.155-.166.229-.058.073-.12.144-.186.211-.066.067-.135.13-.207.189-.072.06-.147.117-.225.17-.078.053-.159.102-.242.146-.083.044-.167.084-.254.119-.061.026-.123.049-.186.07-.089.03-.18.055-.271.076-.092.021-.184.037-.277.049-.093.012-.187.019-.281.021-.094.002-.188-.001-.281-.008-.094-.007-.187-.019-.279-.035-.092-.017-.183-.038-.273-.064-.091-.025-.18-.055-.268-.09-.087-.035-.173-.074-.256-.117-.083-.043-.164-.09-.242-.141-.051-.035-.101-.071-.15-.109v.957c0 1.555.634 2.954 1.654 3.963-.005-.017-.009-.034-.014-.051-.021-.092-.037-.184-.049-.277-.012-.093-.019-.186-.021-.279-.002-.094.001-.188.008-.281.007-.094.019-.187.035-.279.017-.093.038-.185.064-.275.026-.09.056-.179.09-.266.035-.087.074-.173.117-.256.043-.084.09-.165.141-.244.051-.079.107-.155.166-.229.058-.073.12-.142.186-.209.066-.067.135-.131.207-.191.073-.06.148-.116.227-.168.078-.053.158-.102.24-.146.083-.045.167-.085.254-.121.062-.026.124-.049.188-.07.089-.03.18-.055.271-.076.092-.021.184-.037.277-.049.093-.011.186-.018.279-.02.094-.002.188.001.281.008.094.007.187.019.279.035.093.016.185.037.275.063.09.026.179.057.266.092.087.034.173.073.256.115.084.043.165.091.244.143.079.051.155.106.229.164.073.059.142.122.209.188.067.066.131.135.191.207.06.072.116.147.168.225.053.078.102.159.146.242.045.083.085.167.121.254.026.062.049.124.07.188.03.089.055.178.076.27.021.092.037.184.049.277.011.093.018.187.02.281.002.094-.001.188-.008.281-.007.094-.019.187-.035.279-.016.093-.037.185-.063.275-.026.09-.057.179-.092.266-.034.087-.073.173-.115.256-.043.084-.091.165-.143.244-.051.078-.106.154-.164.227-.059.073-.122.144-.188.211-.066.067-.135.131-.207.191-.052.042-.105.081-.16.119h5.182c.005-.009.01-.017.016-.025.051-.079.106-.155.164-.229.059-.073.122-.144.188-.211.066-.067.135-.13.207-.189.072-.06.147-.117.225-.17.078-.052.159-.1.242-.145.083-.045.167-.085.254-.121.061-.026.123-.049.186-.07.089-.03.18-.055.271-.076.092-.021.184-.037.277-.049.093-.011.187-.018.281-.02.094-.003.188-.001.281.006.094.008.187.02.279.037.092.016.183.037.273.063.091.025.18.055.268.09.087.035.173.074.256.117.083.043.164.09.242.141.079.051.155.107.229.166.073.059.144.122.211.188.067.066.13.135.189.207.06.072.117.147.17.225.014.022.028.044.041.066h1.58c-.019-.037-.037-.075-.055-.113-.026-.061-.049-.123-.07-.186-.03-.089-.055-.18-.076-.271-.021-.092-.037-.184-.049-.277-.011-.093-.018-.187-.02-.281-.002-.094.001-.188.008-.281.007-.094.019-.187.035-.279.016-.092.037-.183.063-.273.025-.091.055-.18.09-.268.035-.087.074-.173.117-.256.043-.083.091-.164.143-.242.051-.079.106-.155.164-.229.059-.073.122-.144.188-.211.066-.067.135-.13.207-.189.072-.06.147-.117.225-.17.078-.052.158-.1.24-.145.083-.045.167-.085.254-.121.062-.026.124-.049.188-.07.089-.03.18-.055.271-.076.092-.021.184-.037.277-.049.093-.011.186-.018.279-.02.094-.003.188-.001.281.006.094.008.187.02.279.037.093.016.185.037.275.063.09.026.179.055.266.09.087.035.173.074.256.117.084.043.165.09.244.141.079.051.155.107.229.166.073.058.142.12.209.186.067.066.131.135.191.207.06.073.116.148.168.227.053.078.102.158.146.24.045.083.085.167.121.254.026.062.049.124.07.188.03.089.055.178.076.27.021.092.037.184.049.277.011.093.018.187.02.281.002.094-.001.188-.008.281-.007.094-.019.187-.035.279-.016.092-.037.183-.063.273-.026.091-.057.18-.092.268-.022.053-.045.106-.07.158 1.246-.001 2.338-.483 3.264-1.17-.027-.006-.053-.013-.08-.02-.091-.025-.18-.055-.268-.09-.087-.034-.173-.073-.256-.115-.083-.043-.164-.091-.242-.143-.079-.051-.155-.106-.229-.164-.073-.059-.144-.122-.211-.188-.067-.066-.13-.135-.189-.207-.06-.072-.117-.147-.17-.225-.053-.078-.102-.159-.146-.242-.045-.083-.085-.167-.121-.254-.025-.061-.048-.123-.068-.186-.03-.089-.055-.18-.076-.271-.021-.092-.037-.184-.049-.277-.012-.093-.019-.187-.021-.281-.002-.094.001-.188.008-.281.007-.094.019-.187.035-.279.017-.092.038-.183.064-.273.025-.091.055-.18.09-.268.035-.087.074-.173.117-.256.043-.083.09-.164.141-.242.051-.079.107-.155.166-.229.058-.073.12-.144.186-.211.066-.067.135-.13.207-.189.072-.06.147-.117.225-.17.078-.052.159-.1.242-.145.083-.045.167-.085.254-.121.061-.026.123-.049.186-.07.089-.03.18-.055.271-.076.092-.021.184-.037.277-.049.093-.012.187-.019.281-.021.094-.002.188.001.281.008.094.008.187.02.279.037.092.016.183.037.273.063.091.025.18.055.268.09.087.035.173.074.256.117.083.043.164.09.242.141.029.02.058.041.086.063v-5.119c-.055-.067-.106-.136-.154-.207-.053-.078-.102-.158-.146-.24-.045-.083-.085-.167-.121-.254-.026-.062-.049-.124-.07-.188-.029-.089-.054-.18-.074-.271-.021-.092-.037-.184-.049-.277-.012-.093-.019-.186-.021-.279-.002-.094.001-.188.008-.281.007-.094.019-.187.035-.279.017-.093.038-.185.064-.275.026-.09.055-.179.09-.266.034-.087.073-.173.115-.256.043-.084.091-.165.143-.244.051-.079.106-.155.164-.229.006-.007.012-.013.018-.02v-1.953c-.058.012-.117.023-.176.031-.093.012-.186.019-.279.021-.094.002-.188-.001-.281-.008-.094-.007-.187-.019-.279-.035-.093-.017-.185-.038-.275-.064-.09-.026-.179-.056-.266-.09-.087-.034-.173-.073-.256-.115-.084-.043-.165-.091-.244-.143-.079-.051-.155-.106-.229-.164-.073-.059-.142-.122-.209-.188-.067-.066-.131-.135-.191-.207-.06-.072-.117-.147-.17-.225-.052-.078-.1-.159-.145-.242-.045-.083-.085-.167-.121-.254-.026-.061-.049-.123-.07-.186-.03-.089-.055-.18-.076-.271-.021-.092-.037-.184-.049-.277-.011-.093-.018-.187-.02-.281-.002-.094.001-.188.008-.281.007-.094.019-.187.035-.279.016-.092.037-.183.063-.273.026-.09.055-.179.09-.266.035-.088.074-.174.117-.258.043-.083.09-.164.141-.242.051-.079.107-.155.166-.229.059-.073.122-.144.188-.211.066-.067.135-.13.207-.189.072-.06.147-.117.225-.17.078-.052.158-.1.24-.145.083-.045.167-.085.254-.121.062-.026.124-.049.188-.07.089-.03.18-.055.271-.076.092-.021.184-.037.277-.049.093-.011.186-.018.279-.02.094-.003.188-.001.281.006.094.008.187.02.279.037.009.002.018.004.027.006v-.266c0-.884-.247-1.689-.609-2.43-.034.086-.073.171-.115.254-.043.083-.09.164-.141.242-.051.079-.107.155-.166.229-.058.073-.12.144-.186.211-.066.067-.135.13-.207.189-.073.06-.148.117-.227.17-.078.052-.158.1-.24.145-.083.045-.167.085-.254.121-.062.026-.124.049-.188.07-.089.03-.18.055-.271.076-.092.021-.184.037-.277.049-.093.012-.186.019-.279.021-.094.002-.188-.001-.281-.008-.094-.008-.187-.02-.279-.037-.093-.016-.185-.037-.275-.063-.09-.026-.179-.056-.266-.09-.087-.035-.173-.074-.256-.117-.084-.043-.165-.09-.244-.141-.079-.051-.155-.107-.229-.166-.073-.058-.142-.12-.209-.186-.067-.066-.131-.135-.191-.207-.06-.073-.116-.148-.168-.227-.053-.078-.102-.158-.146-.24-.045-.083-.085-.167-.121-.254-.026-.062-.049-.124-.07-.188-.03-.089-.055-.18-.076-.271-.02-.092-.036-.184-.047-.277-.012-.093-.019-.186-.021-.279-.002-.094.001-.188.008-.281.007-.094.019-.187.035-.279.017-.093.038-.185.064-.275.026-.09.055-.179.09-.266.034-.087.073-.173.115-.256.043-.084.091-.165.143-.244.051-.078.106-.154.164-.227.059-.073.122-.144.188-.211.019-.019.039-.037.059-.055-.139-.01-.258-.08-.4-.08h-4.602c-.018.026-.036.051-.055.076-.058.073-.12.142-.186.209-.066.067-.135.131-.207.191-.073.06-.148.116-.227.168-.078.053-.158.102-.24.146-.083.045-.167.085-.254.121-.061.026-.123.049-.186.07-.089.029-.18.054-.271.074-.092.021-.184.037-.277.049-.093.012-.186.019-.279.021-.094.002-.188-.001-.281-.008-.094-.007-.187-.019-.279-.035-.093-.016-.185-.037-.275-.063-.09-.026-.179-.057-.266-.092-.087-.034-.173-.073-.256-.115-.084-.043-.165-.091-.244-.143-.079-.051-.155-.106-.229-.164-.073-.059-.142-.122-.209-.188-.067-.066-.131-.135-.191-.207-.03-.037-.058-.075-.086-.113m4.887 1.996c.094-.002.188.001.281.008.094.007.187.019.279.035.092.017.183.038.273.064.091.025.18.055.268.09.087.034.173.073.256.115.083.043.164.091.242.143.079.051.155.106.229.164.073.059.144.122.211.188.067.066.13.135.189.207.06.072.117.147.17.225.052.078.1.159.145.242.045.083.085.167.121.254.026.061.049.123.07.186.03.089.055.18.076.271.021.092.037.184.049.277.012.093.019.187.021.281.002.094-.001.188-.008.281-.008.094-.02.187-.037.279-.016.092-.037.183-.063.273-.025.091-.055.18-.09.268-.035.087-.074.173-.117.256-.043.083-.09.164-.141.242-.051.079-.107.155-.166.229-.058.073-.12.144-.186.211-.066.067-.135.13-.207.189-.073.06-.148.117-.227.17-.078.052-.158.1-.24.145-.083.045-.167.085-.254.121-.062.026-.124.049-.188.07-.089.03-.178.055-.27.076-.092.021-.184.037-.277.049-.093.011-.187.018-.281.02-.094.003-.188.001-.281-.006-.094-.008-.187-.02-.279-.037-.092-.016-.183-.037-.273-.063-.091-.025-.18-.055-.268-.09-.087-.035-.173-.074-.256-.117-.084-.043-.165-.09-.244-.141-.078-.052-.154-.107-.227-.166-.073-.058-.144-.12-.211-.186-.067-.066-.131-.135-.191-.207-.06-.073-.116-.148-.168-.227-.053-.078-.102-.158-.146-.24-.045-.083-.085-.167-.121-.254-.025-.062-.048-.124-.068-.188-.03-.089-.055-.178-.076-.27-.021-.092-.037-.184-.049-.277-.012-.093-.019-.187-.021-.281-.002-.094.001-.188.008-.281.007-.094.019-.187.035-.279.017-.092.038-.183.064-.273.025-.091.055-.18.09-.268.034-.087.073-.173.115-.256.043-.084.091-.165.143-.244.051-.078.106-.154.164-.227.059-.073.122-.144.187-.211.066-.067.135-.131.207-.191.072-.06.147-.116.225-.168.078-.053.159-.102.242-.146.083-.045.167-.085.254-.121.061-.026.123-.049.186-.07.089-.029.18-.054.271-.074.092-.021.184-.037.277-.049.093-.012.187-.019.281-.021m-6.5 2.703c.094-.002.188.001.281.008.094.007.187.019.279.035.093.017.185.038.275.064.09.026.179.056.266.09.087.034.173.073.256.115.084.043.165.091.244.143.078.051.154.106.227.164.073.059.144.122.211.188.067.066.131.135.191.207.06.072.116.147.168.225.053.078.102.159.146.242.045.083.085.167.121.254.026.061.049.123.07.186.03.089.055.18.076.271.02.092.036.184.047.277.012.093.019.187.021.281.002.094-.001.188-.008.281-.007.094-.019.187-.035.279-.016.092-.037.183-.063.273-.026.091-.057.18-.092.268-.034.087-.073.173-.115.256-.043.083-.091.164-.143.242-.051.079-.106.155-.164.229-.059.073-.122.144-.188.211-.066.067-.135.13-.207.189-.072.06-.147.117-.225.17-.078.052-.158.1-.24.145-.083.045-.169.085-.256.121-.061.026-.123.049-.186.07-.089.03-.18.055-.271.076-.092.021-.184.037-.277.049-.093.012-.187.019-.281.021-.094.002-.188-.001-.281-.008-.094-.008-.187-.02-.279-.037-.092-.016-.183-.037-.273-.063-.09-.026-.179-.056-.266-.09-.088-.035-.174-.074-.258-.117-.083-.043-.164-.09-.242-.141-.079-.051-.155-.107-.229-.166-.073-.058-.144-.12-.211-.186-.067-.066-.13-.135-.189-.207-.06-.073-.117-.148-.17-.227-.052-.078-.1-.158-.145-.24-.045-.083-.085-.167-.121-.254-.026-.062-.049-.124-.07-.188-.03-.089-.055-.178-.076-.27-.021-.092-.037-.184-.049-.277-.011-.093-.018-.187-.02-.281-.002-.094.001-.188.008-.281.007-.094.019-.187.035-.279.016-.092.037-.183.063-.273.025-.091.055-.18.09-.268.035-.087.074-.173.117-.256.043-.084.09-.165.141-.244.052-.078.107-.154.166-.227.059-.073.122-.144.188-.211.066-.067.135-.131.207-.191.072-.06.147-.116.225-.168.078-.053.158-.102.24-.146.083-.045.167-.085.254-.121.062-.025.124-.048.188-.068.089-.03.18-.055.271-.076.091-.021.183-.037.275-.049.093-.012.187-.019.281-.021m-6.5 2.703c.094-.002.189 0 .283.008.093.007.186.019.277.035.093.017.185.038.275.064.09.026.179.056.266.09.088.034.174.073.258.115.083.043.164.091.242.143.079.051.155.106.229.164.073.059.144.122.211.188.067.066.13.135.189.207.06.072.117.147.17.225.052.078.1.159.145.242.045.083.085.167.121.254.026.061.049.123.07.186.03.089.055.18.076.271.021.092.037.184.049.277.011.093.018.187.02.281.002.094-.001.188-.008.281-.007.094-.019.187-.035.279-.016.092-.037.183-.063.273-.025.091-.055.18-.09.268-.035.087-.074.173-.117.256-.043.083-.09.164-.141.242-.051.079-.107.155-.166.229-.059.073-.122.144-.188.211-.066.067-.135.13-.207.189-.072.06-.147.117-.225.17-.078.052-.158.1-.24.145-.083.045-.167.085-.254.121-.062.026-.124.049-.188.07-.089.03-.18.055-.271.076-.091.021-.183.037-.275.049-.093.012-.187.019-.281.021-.094.002-.188-.001-.281-.008-.094-.008-.187-.02-.279-.037-.093-.016-.185-.037-.275-.063-.09-.026-.179-.056-.266-.09-.087-.035-.173-.074-.256-.117-.084-.043-.165-.09-.244-.141-.079-.051-.155-.107-.229-.166-.073-.058-.142-.12-.209-.186-.067-.066-.131-.135-.191-.207-.06-.073-.116-.148-.168-.227-.053-.078-.102-.158-.146-.24-.045-.083-.085-.167-.121-.254-.026-.062-.049-.124-.07-.187-.03-.089-.055-.178-.076-.27-.02-.092-.036-.184-.047-.277-.012-.093-.019-.187-.021-.281-.002-.094.001-.188.008-.281.007-.094.019-.187.035-.279.016-.092.037-.183.063-.273.026-.091.057-.18.092-.268.034-.087.073-.173.115-.256.043-.084.091-.165.143-.244.051-.078.106-.154.164-.227.059-.073.122-.144.188-.211.066-.067.135-.131.207-.191.072-.06.147-.116.225-.168.078-.053.158-.102.24-.146.083-.045.169-.085.256-.121.061-.025.123-.048.186-.068.089-.03.18-.055.271-.076.092-.021.184-.037.277-.049.093-.012.186-.019.279-.021m2.703 6.5c.094-.002.188.001.281.008.094.007.187.019.279.035.093.017.185.038.275.064.09.026.179.056.266.09.087.035.173.074.256.117.084.043.165.09.244.141.079.051.155.106.229.164.073.059.142.122.209.188.067.066.131.135.191.207.06.072.117.147.17.225.052.078.1.159.145.242.045.083.085.167.121.254.026.061.049.123.07.186.03.089.055.18.076.271.021.092.037.184.049.277.011.093.018.187.02.281.002.094-.001.188-.008.281-.007.094-.019.187-.035.279-.016.092-.037.183-.063.273-.025.091-.055.18-.09.268-.035.087-.074.173-.117.256-.043.083-.091.164-.143.242-.051.079-.106.155-.164.229-.059.073-.122.144-.188.211-.066.067-.135.13-.207.189-.072.06-.147.117-.225.17-.078.052-.158.1-.24.145-.083.045-.167.085-.254.121-.062.026-.124.049-.188.07-.089.03-.18.055-.271.076-.092.021-.184.037-.277.049-.093.012-.186.019-.279.021-.094.002-.188-.001-.281-.008-.094-.007-.187-.019-.279-.035-.093-.017-.185-.038-.275-.064-.09-.026-.179-.055-.266-.09-.087-.035-.173-.074-.256-.117-.084-.043-.165-.09-.244-.141-.079-.051-.155-.107-.229-.166-.073-.058-.142-.12-.209-.186-.067-.066-.131-.135-.191-.207-.06-.073-.116-.148-.168-.227-.053-.078-.102-.158-.146-.24-.045-.083-.085-.167-.121-.254-.026-.062-.049-.124-.07-.188-.03-.089-.055-.178-.076-.27-.021-.092-.037-.184-.049-.277-.011-.093-.018-.187-.02-.281-.002-.094.001-.188.008-.281.007-.094.019-.187.035-.279.016-.092.037-.183.063-.273.026-.091.057-.18.092-.268.034-.087.073-.173.115-.256.043-.084.091-.165.143-.244.051-.078.106-.154.164-.227.059-.073.122-.144.188-.211.066-.067.135-.131.207-.191.072-.06.147-.116.225-.168.078-.053.158-.102.24-.146.083-.045.167-.085.254-.121.062-.025.124-.048.188-.068.089-.03.18-.055.271-.076.092-.021.184-.037.277-.049.093-.012.186-.019.279-.021zm2.701 6.498c.094-.002.188.001.281.008.094.007.187.019.279.035.092.016.183.037.273.063.091.026.18.057.268.092.087.034.173.073.256.115.084.043.165.091.244.143.078.051.154.106.227.164.073.059.144.122.211.188.067.066.131.135.191.207.06.072.116.147.168.225.053.078.102.158.146.24.045.083.085.169.121.256.026.061.049.123.07.186.029.089.054.18.074.271.021.092.037.184.049.277.012.093.019.187.021.281.002.094-.001.188-.008.281-.007.094-.019.187-.035.279-.017.092-.038.183-.064.273-.026.09-.056.179-.09.266-.034.088-.073.174-.115.258-.043.083-.091.164-.143.242-.051.079-.106.155-.164.229-.059.073-.122.144-.188.211-.066.067-.135.13-.207.189-.072.06-.147.117-.225.17-.078.052-.159.1-.242.145-.083.045-.167.085-.254.121-.061.026-.123.049-.186.07-.089.03-.18.055-.271.076-.092.021-.184.037-.277.049-.093.011-.187.018-.281.02-.094.003-.188.001-.281-.006-.094-.008-.187-.02-.279-.037-.092-.016-.183-.037-.273-.063-.091-.025-.18-.055-.268-.09-.087-.035-.173-.074-.256-.117-.083-.043-.164-.09-.242-.141-.079-.051-.155-.107-.229-.166-.073-.059-.144-.122-.211-.188-.067-.066-.13-.135-.189-.207-.06-.072-.117-.147-.17-.225-.052-.078-.1-.158-.145-.24-.045-.083-.085-.167-.121-.254-.026-.062-.049-.124-.07-.188-.03-.089-.055-.178-.076-.27-.021-.092-.037-.184-.049-.277-.011-.093-.018-.187-.02-.281-.003-.094-.001-.188.006-.281.008-.094.02-.187.037-.279.016-.093.037-.185.063-.275.026-.09.056-.179.09-.266.035-.087.074-.173.117-.256.043-.084.09-.165.141-.244.052-.078.107-.154.166-.227.058-.073.12-.144.186-.211.066-.067.135-.131.207-.191.073-.06.148-.116.227-.168.078-.053.158-.102.24-.146.083-.045.167-.085.254-.121.062-.026.124-.049.188-.07.089-.03.178-.055.27-.076.092-.02.184-.036.277-.047.093-.012.187-.019.281-.021" fill="#ccc"/><path d="m10.379882 21.618164a2.815521 2.815521 0 0 0 -.28125 .02148 2.815521 2.815521 0 0 0 -.277343 .04687 2.815521 2.815521 0 0 0 -.269531 .07617 2.815521 2.815521 0 0 0 -.1875 .07031 2.815521 2.815521 0 0 0 -.253907 .121093 2.815521 2.815521 0 0 0 -.240234 .146485 2.815521 2.815521 0 0 0 -.226563 .167968 2.815521 2.815521 0 0 0 -.207031 .191407 2.815521 2.815521 0 0 0 -.185547 .210937 2.815521 2.815521 0 0 0 -.166015 .226563 2.815521 2.815521 0 0 0 -.140625 .24414 2.815521 2.815521 0 0 0 -.117188 .25586 2.815521 2.815521 0 0 0 -.08984 .265625 2.815521 2.815521 0 0 0 -.0625 .27539 2.815521 2.815521 0 0 0 -.03711 .279297 2.815521 2.815521 0 0 0 -.0059 .28125 2.815521 2.815521 0 0 0 .01953 .28125 2.815521 2.815521 0 0 0 .04883 .277344 2.815521 2.815521 0 0 0 .07617 .269531 2.815521 2.815521 0 0 0 .07031 .1875 2.815521 2.815521 0 0 0 .121094 .253906 2.815521 2.815521 0 0 0 .144531 .240235 2.815521 2.815521 0 0 0 .169922 .224609 2.815521 2.815521 0 0 0 .189453 .207031 2.815521 2.815521 0 0 0 .210938 .1875 2.815521 2.815521 0 0 0 .228515 .166016 2.815521 2.815521 0 0 0 .242188 .140625 2.815521 2.815521 0 0 0 .255859 .117188 2.815521 2.815521 0 0 0 .267579 .08984 2.815521 2.815521 0 0 0 .273437 .0625 2.815521 2.815521 0 0 0 .279297 .03711 2.815521 2.815521 0 0 0 .28125 .0059 2.815521 2.815521 0 0 0 .28125 -.01953 2.815521 2.815521 0 0 0 .277344 -.04883 2.815521 2.815521 0 0 0 .271484 -.07617 2.815521 2.815521 0 0 0 .185547 -.07031 2.815521 2.815521 0 0 0 .253906 -.121094 2.815521 2.815521 0 0 0 .242188 -.144531 2.815521 2.815521 0 0 0 .224609 -.169922 2.815521 2.815521 0 0 0 .207031 -.189453 2.815521 2.815521 0 0 0 .1875 -.210937 2.815521 2.815521 0 0 0 .164063 -.228516 2.815521 2.815521 0 0 0 .142578 -.242187 2.815521 2.815521 0 0 0 .115234 -.257813 2.815521 2.815521 0 0 0 .08984 -.265625 2.815521 2.815521 0 0 0 .06445 -.273437 2.815521 2.815521 0 0 0 .03516 -.279297 2.815521 2.815521 0 0 0 .0078 -.28125 2.815521 2.815521 0 0 0 -.02148 -.28125 2.815521 2.815521 0 0 0 -.04883 -.277344 2.815521 2.815521 0 0 0 -.07422 -.271484 2.815521 2.815521 0 0 0 -.07031 -.185547 2.815521 2.815521 0 0 0 -.121094 -.25586 2.815521 2.815521 0 0 0 -.146484 -.240234 2.815521 2.815521 0 0 0 -.167969 -.224609 2.815521 2.815521 0 0 0 -.191406 -.207032 2.815521 2.815521 0 0 0 -.210937 -.1875 2.815521 2.815521 0 0 0 -.226563 -.164062 2.815521 2.815521 0 0 0 -.244141 -.142578 2.815521 2.815521 0 0 0 -.255859 -.115235 2.815521 2.815521 0 0 0 -.267578 -.0918 2.815521 2.815521 0 0 0 -.273438 -.0625 2.815521 2.815521 0 0 0 -.279297 -.03516 2.815521 2.815521 0 0 0 -.28125 -.0078" fill="#f2f2f2"/><path d="m16.879882 18.915039a2.815521 2.815521 0 0 0 -.28125 .02148 2.815521 2.815521 0 0 0 -.277343 .04687 2.815521 2.815521 0 0 0 -.271485 .07617 2.815521 2.815521 0 0 0 -.185546 .07031 2.815521 2.815521 0 0 0 -.253907 .121094 2.815521 2.815521 0 0 0 -.242187 .146485 2.815521 2.815521 0 0 0 -.22461 .167968 2.815521 2.815521 0 0 0 -.207031 .191407 2.815521 2.815521 0 0 0 -.1875 .208984 2.815521 2.815521 0 0 0 -.164062 .228516 2.815521 2.815521 0 0 0 -.142579 .24414 2.815521 2.815521 0 0 0 -.115234 .25586 2.815521 2.815521 0 0 0 -.0918 .265625 2.815521 2.815521 0 0 0 -.0625 .27539 2.815521 2.815521 0 0 0 -.03516 .279297 2.815521 2.815521 0 0 0 -.0078 .28125 2.815521 2.815521 0 0 0 .02148 .28125 2.815521 2.815521 0 0 0 .04687 .275391 2.815521 2.815521 0 0 0 .07617 .271484 2.815521 2.815521 0 0 0 .07031 .1875 2.815521 2.815521 0 0 0 .121094 .253906 2.815521 2.815521 0 0 0 .146484 .240235 2.815521 2.815521 0 0 0 .167969 .224609 2.815521 2.815521 0 0 0 .191406 .207031 2.815521 2.815521 0 0 0 .210938 .1875 2.815521 2.815521 0 0 0 .226562 .166016 2.815521 2.815521 0 0 0 .244141 .140625 2.815521 2.815521 0 0 0 .255859 .117187 2.815521 2.815521 0 0 0 .265625 .08984 2.815521 2.815521 0 0 0 .275391 .0625 2.815521 2.815521 0 0 0 .279297 .03516 2.815521 2.815521 0 0 0 .28125 .0078 2.815521 2.815521 0 0 0 .28125 -.01953 2.815521 2.815521 0 0 0 .277344 -.04883 2.815521 2.815521 0 0 0 .269531 -.07617 2.815521 2.815521 0 0 0 .1875 -.07031 2.815521 2.815521 0 0 0 .253906 -.121093 2.815521 2.815521 0 0 0 .240235 -.144532 2.815521 2.815521 0 0 0 .224609 -.169922 2.815521 2.815521 0 0 0 .207031 -.189453 2.815521 2.815521 0 0 0 .1875 -.210937 2.815521 2.815521 0 0 0 .166016 -.228516 2.815521 2.815521 0 0 0 .140625 -.242187 2.815521 2.815521 0 0 0 .117187 -.257813 2.815521 2.815521 0 0 0 .08984 -.265625 2.815521 2.815521 0 0 0 .0625 -.275391 2.815521 2.815521 0 0 0 .03711 -.277343 2.815521 2.815521 0 0 0 .0059 -.28125 2.815521 2.815521 0 0 0 -.01953 -.28125 2.815521 2.815521 0 0 0 -.04883 -.277344 2.815521 2.815521 0 0 0 -.07617 -.271484 2.815521 2.815521 0 0 0 -.07031 -.185547 2.815521 2.815521 0 0 0 -.121094 -.25586 2.815521 2.815521 0 0 0 -.144531 -.240234 2.815521 2.815521 0 0 0 -.169922 -.224609 2.815521 2.815521 0 0 0 -.189453 -.207032 2.815521 2.815521 0 0 0 -.210937 -.1875 2.815521 2.815521 0 0 0 -.228516 -.164062 2.815521 2.815521 0 0 0 -.242188 -.142578 2.815521 2.815521 0 0 0 -.257812 -.115235 2.815521 2.815521 0 0 0 -.265625 -.0918 2.815521 2.815521 0 0 0 -.273438 -.0625 2.815521 2.815521 0 0 0 -.279297 -.03516 2.815521 2.815521 0 0 0 -.28125 -.0078" fill="#ccc"/><path d="m16.879882 18.915039a2.815521 2.815521 0 0 1 .28125 .0078 2.815521 2.815521 0 0 1 .279297 .03516 2.815521 2.815521 0 0 1 .273438 .0625 2.815521 2.815521 0 0 1 .265625 .0918 2.815521 2.815521 0 0 1 .257812 .115235 2.815521 2.815521 0 0 1 .242188 .142578 2.815521 2.815521 0 0 1 .228516 .164062 2.815521 2.815521 0 0 1 .210937 .1875 2.815521 2.815521 0 0 1 .189453 .207032 2.815521 2.815521 0 0 1 .169922 .224609 2.815521 2.815521 0 0 1 .144531 .240234 2.815521 2.815521 0 0 1 .121094 .25586 2.815521 2.815521 0 0 1 .07031 .185547 2.815521 2.815521 0 0 1 .07617 .271484 2.815521 2.815521 0 0 1 .04883 .277344 2.815521 2.815521 0 0 1 .01953 .28125 2.815521 2.815521 0 0 1 -.0059 .28125 2.815521 2.815521 0 0 1 -.03711 .277343 2.815521 2.815521 0 0 1 -.0625 .275391 2.815521 2.815521 0 0 1 -.08984 .265625 2.815521 2.815521 0 0 1 -.117187 .257813 2.815521 2.815521 0 0 1 -.140625 .242187 2.815521 2.815521 0 0 1 -.166016 .228516 2.815521 2.815521 0 0 1 -.1875 .210937 2.815521 2.815521 0 0 1 -.207031 .189453 2.815521 2.815521 0 0 1 -.224609 .169922 2.815521 2.815521 0 0 1 -.240235 .144532 2.815521 2.815521 0 0 1 -.253906 .121093 2.815521 2.815521 0 0 1 -.1875 .07031 2.815521 2.815521 0 0 1 -.269531 .07617 2.815521 2.815521 0 0 1 -.277344 .04883 2.815521 2.815521 0 0 1 -.28125 .01953 2.815521 2.815521 0 0 1 -.28125 -.0078 2.815521 2.815521 0 0 1 -.279297 -.03516 2.815521 2.815521 0 0 1 -.275391 -.0625 2.815521 2.815521 0 0 1 -.265625 -.08984 2.815521 2.815521 0 0 1 -.255859 -.117187 2.815521 2.815521 0 0 1 -.244141 -.140625 2.815521 2.815521 0 0 1 -.226562 -.166016 2.815521 2.815521 0 0 1 -.210938 -.1875 2.815521 2.815521 0 0 1 -.191406 -.207031 2.815521 2.815521 0 0 1 -.167969 -.224609 2.815521 2.815521 0 0 1 -.146484 -.240235 2.815521 2.815521 0 0 1 -.121094 -.253906 2.815521 2.815521 0 0 1 -.07031 -.1875 2.815521 2.815521 0 0 1 -.07617 -.271484 2.815521 2.815521 0 0 1 -.04687 -.275391 2.815521 2.815521 0 0 1 -.02148 -.28125 2.815521 2.815521 0 0 1 .0078 -.28125 2.815521 2.815521 0 0 1 .03516 -.279297 2.815521 2.815521 0 0 1 .0625 -.27539 2.815521 2.815521 0 0 1 .0918 -.265625 2.815521 2.815521 0 0 1 .115234 -.25586 2.815521 2.815521 0 0 1 .142579 -.24414 2.815521 2.815521 0 0 1 .164062 -.228516 2.815521 2.815521 0 0 1 .1875 -.208984 2.815521 2.815521 0 0 1 .207031 -.191407 2.815521 2.815521 0 0 1 .22461 -.167968 2.815521 2.815521 0 0 1 .242187 -.146485 2.815521 2.815521 0 0 1 .253907 -.121094 2.815521 2.815521 0 0 1 .185546 -.07031 2.815521 2.815521 0 0 1 .271485 -.07617 2.815521 2.815521 0 0 1 .277343 -.04687 2.815521 2.815521 0 0 1 .28125 -.02148" fill="#f2f2f2"/><path d="m23.377929 16.211914a2.815521 2.815521 0 0 0 -.28125 .02148 2.815521 2.815521 0 0 0 -.277343 .04687 2.815521 2.815521 0 0 0 -.269532 .07617 2.815521 2.815521 0 0 0 -.1875 .07031 2.815521 2.815521 0 0 0 -.253906 .121093 2.815521 2.815521 0 0 0 -.240234 .146485 2.815521 2.815521 0 0 0 -.22461 .167968 2.815521 2.815521 0 0 0 -.207031 .191407 2.815521 2.815521 0 0 0 -.1875 .208984 2.815521 2.815521 0 0 0 -.166015 .228516 2.815521 2.815521 0 0 0 -.140626 .24414 2.815521 2.815521 0 0 0 -.117187 .25586 2.815521 2.815521 0 0 0 -.08984 .265625 2.815521 2.815521 0 0 0 -.0625 .27539 2.815521 2.815521 0 0 0 -.03711 .279297 2.815521 2.815521 0 0 0 -.0059 .28125 2.815521 2.815521 0 0 0 .01953 .28125 2.815521 2.815521 0 0 0 .04883 .275391 2.815521 2.815521 0 0 0 .07617 .271484 2.815521 2.815521 0 0 0 .07031 .1875 2.815521 2.815521 0 0 0 .121094 .253906 2.815521 2.815521 0 0 0 .144531 .240235 2.815521 2.815521 0 0 0 .169922 .224609 2.815521 2.815521 0 0 0 .189453 .207031 2.815521 2.815521 0 0 0 .210938 .1875 2.815521 2.815521 0 0 0 .228515 .166016 2.815521 2.815521 0 0 0 .242188 .140625 2.815521 2.815521 0 0 0 .257812 .117188 2.815521 2.815521 0 0 0 .265625 .08984 2.815521 2.815521 0 0 0 .273438 .0625 2.815521 2.815521 0 0 0 .279297 .03516 2.815521 2.815521 0 0 0 .28125 .0078 2.815521 2.815521 0 0 0 .28125 -.01953 2.815521 2.815521 0 0 0 .277343 -.04883 2.815521 2.815521 0 0 0 .271485 -.07617 2.815521 2.815521 0 0 0 .185547 -.07031 2.815521 2.815521 0 0 0 .253906 -.121094 2.815521 2.815521 0 0 0 .242187 -.144531 2.815521 2.815521 0 0 0 .22461 -.169922 2.815521 2.815521 0 0 0 .207031 -.189453 2.815521 2.815521 0 0 0 .1875 -.210937 2.815521 2.815521 0 0 0 .164063 -.228516 2.815521 2.815521 0 0 0 .142578 -.242187 2.815521 2.815521 0 0 0 .115234 -.257813 2.815521 2.815521 0 0 0 .08984 -.265625 2.815521 2.815521 0 0 0 .06445 -.27539 2.815521 2.815521 0 0 0 .03516 -.277344 2.815521 2.815521 0 0 0 .0078 -.283203 2.815521 2.815521 0 0 0 -.02148 -.279297 2.815521 2.815521 0 0 0 -.04883 -.277344 2.815521 2.815521 0 0 0 -.07422 -.271484 2.815521 2.815521 0 0 0 -.07031 -.185547 2.815521 2.815521 0 0 0 -.121094 -.25586 2.815521 2.815521 0 0 0 -.146484 -.240234 2.815521 2.815521 0 0 0 -.167969 -.224609 2.815521 2.815521 0 0 0 -.191406 -.207032 2.815521 2.815521 0 0 0 -.210938 -.1875 2.815521 2.815521 0 0 0 -.226562 -.164062 2.815521 2.815521 0 0 0 -.244141 -.142578 2.815521 2.815521 0 0 0 -.255859 -.115235 2.815521 2.815521 0 0 0 -.267578 -.0918 2.815521 2.815521 0 0 0 -.273438 -.0625 2.815521 2.815521 0 0 0 -.279297 -.03516 2.815521 2.815521 0 0 0 -.28125 -.0078" fill="#ccc"/><path d="m7.678711 15.12012a2.815521 2.815521 0 0 0 -.279297 .02148 2.815521 2.815521 0 0 0 -.277344 .04883 2.815521 2.815521 0 0 0 -.271484 .07617 2.815521 2.815521 0 0 0 -.1875 .06836 2.815521 2.815521 0 0 0 -.253907 .121093 2.815521 2.815521 0 0 0 -.240234 .146485 2.815521 2.815521 0 0 0 -.224609 .167969 2.815521 2.815521 0 0 0 -.207032 .191406 2.815521 2.815521 0 0 0 -.1875 .210937 2.815521 2.815521 0 0 0 -.164062 .226563 2.815521 2.815521 0 0 0 -.142578 .24414 2.815521 2.815521 0 0 0 -.115235 .25586 2.815521 2.815521 0 0 0 -.0918 .267578 2.815521 2.815521 0 0 0 -.0625 .273437 2.815521 2.815521 0 0 0 -.03516 .279297 2.815521 2.815521 0 0 0 -.0078 .28125 2.815521 2.815521 0 0 0 .01953 .28125 2.815521 2.815521 0 0 0 .04883 .277344 2.815521 2.815521 0 0 0 .07617 .269531 2.815521 2.815521 0 0 0 .07031 .1875 2.815521 2.815521 0 0 0 .121093 .253907 2.815521 2.815521 0 0 0 .146485 .240234 2.815521 2.815521 0 0 0 .167968 .226562 2.815521 2.815521 0 0 0 .191407 .207032 2.815521 2.815521 0 0 0 .208984 .185546 2.815521 2.815521 0 0 0 .228516 .166016 2.815521 2.815521 0 0 0 .24414 .140625 2.815521 2.815521 0 0 0 .25586 .117188 2.815521 2.815521 0 0 0 .265625 .08984 2.815521 2.815521 0 0 0 .27539 .06445 2.815521 2.815521 0 0 0 .279297 .03516 2.815521 2.815521 0 0 0 .28125 .0078 2.815521 2.815521 0 0 0 .279297 -.02148 2.815521 2.815521 0 0 0 .277344 -.04883 2.815521 2.815521 0 0 0 .271484 -.07617 2.815521 2.815521 0 0 0 .1875 -.07031 2.815521 2.815521 0 0 0 .253906 -.121093 2.815521 2.815521 0 0 0 .240235 -.144532 2.815521 2.815521 0 0 0 .224609 -.169922 2.815521 2.815521 0 0 0 .207031 -.189453 2.815521 2.815521 0 0 0 .1875 -.210937 2.815521 2.815521 0 0 0 .164063 -.228516 2.815521 2.815521 0 0 0 .142578 -.242187 2.815521 2.815521 0 0 0 .117188 -.25586 2.815521 2.815521 0 0 0 .08984 -.267578 2.815521 2.815521 0 0 0 .0625 -.273437 2.815521 2.815521 0 0 0 .03516 -.279297 2.815521 2.815521 0 0 0 .0078 -.28125 2.815521 2.815521 0 0 0 -.01953 -.28125 2.815521 2.815521 0 0 0 -.04883 -.277344 2.815521 2.815521 0 0 0 -.07617 -.271484A2.815521 2.815521 0 0 0 10.344719 16.85448 2.815521 2.815521 0 0 0 10.223625 16.600574 2.815521 2.815521 0 0 0 10.07909 16.358386 2.815521 2.815521 0 0 0 9.909172 16.13378 2.815521 2.815521 0 0 0 9.717766 15.926746 2.815521 2.815521 0 0 0 9.508782 15.739246 2.815521 2.815521 0 0 0 9.280266 15.575183 2.815521 2.815521 0 0 0 9.03613 15.434558 2.815521 2.815521 0 0 0 8.780266 15.31737 2.815521 2.815521 0 0 0 8.514641 15.22753 2.815521 2.815521 0 0 0 8.239251 15.16308 2.815521 2.815521 0 0 0 7.959954 15.12792 2.815521 2.815521 0 0 0 7.678704 15.12012" fill="#f2f2f2"/><path d="m14.178711 12.416992a2.815521 2.815521 0 0 0 -.28125 .02148 2.815521 2.815521 0 0 0 -.277344 .04883 2.815521 2.815521 0 0 0 -.269531 .07617 2.815521 2.815521 0 0 0 -.1875 .06836 2.815521 2.815521 0 0 0 -.253907 .121093 2.815521 2.815521 0 0 0 -.240234 .146485 2.815521 2.815521 0 0 0 -.226563 .167968 2.815521 2.815521 0 0 0 -.207031 .191407 2.815521 2.815521 0 0 0 -.185547 .210937 2.815521 2.815521 0 0 0 -.166015 .226563 2.815521 2.815521 0 0 0 -.140625 .24414 2.815521 2.815521 0 0 0 -.117188 .25586 2.815521 2.815521 0 0 0 -.08984 .267578 2.815521 2.815521 0 0 0 -.06445 .273437 2.815521 2.815521 0 0 0 -.03516 .279297 2.815521 2.815521 0 0 0 -.0078 .28125 2.815521 2.815521 0 0 0 .02148 .28125 2.815521 2.815521 0 0 0 .04883 .277344 2.815521 2.815521 0 0 0 .07617 .269531 2.815521 2.815521 0 0 0 .07031 .1875 2.815521 2.815521 0 0 0 .11914 .253906 2.815521 2.815521 0 0 0 .146484 .240235 2.815521 2.815521 0 0 0 .169922 .226562 2.815521 2.815521 0 0 0 .189454 .207032 2.815521 2.815521 0 0 0 .210937 .185547 2.815521 2.815521 0 0 0 .228516 .166015 2.815521 2.815521 0 0 0 .242187 .140625 2.815521 2.815521 0 0 0 .25586 .117188 2.815521 2.815521 0 0 0 .267578 .08984 2.815521 2.815521 0 0 0 .273437 .0625 2.815521 2.815521 0 0 0 .279297 .03711 2.815521 2.815521 0 0 0 .28125 .0078 2.815521 2.815521 0 0 0 .28125 -.02148 2.815521 2.815521 0 0 0 .277344 -.04883 2.815521 2.815521 0 0 0 .271484 -.07617 2.815521 2.815521 0 0 0 .185547 -.07031 2.815521 2.815521 0 0 0 .253906 -.121093 2.815521 2.815521 0 0 0 .242188 -.144532 2.815521 2.815521 0 0 0 .224609 -.169921 2.815521 2.815521 0 0 0 .207031 -.189454 2.815521 2.815521 0 0 0 .1875 -.210937 2.815521 2.815521 0 0 0 .164063 -.228516 2.815521 2.815521 0 0 0 .140625 -.242187 2.815521 2.815521 0 0 0 .117187 -.25586 2.815521 2.815521 0 0 0 .08984 -.267578 2.815521 2.815521 0 0 0 .06445 -.273437 2.815521 2.815521 0 0 0 .03516 -.279297 2.815521 2.815521 0 0 0 .0078 -.28125 2.815521 2.815521 0 0 0 -.02148 -.28125 2.815521 2.815521 0 0 0 -.04883 -.277344 2.815521 2.815521 0 0 0 -.07617 -.271484 2.815521 2.815521 0 0 0 -.06836 -.185547 2.815521 2.815521 0 0 0 -.121094 -.253906 2.815521 2.815521 0 0 0 -.146484 -.242188 2.815521 2.815521 0 0 0 -.167969 -.224609 2.815521 2.815521 0 0 0 -.191406 -.207032 2.815521 2.815521 0 0 0 -.210937 -.1875 2.815521 2.815521 0 0 0 -.226563 -.164062 2.815521 2.815521 0 0 0 -.244141 -.142578 2.815521 2.815521 0 0 0 -.255859 -.115234 2.815521 2.815521 0 0 0 -.267578 -.08984 2.815521 2.815521 0 0 0 -.273437 -.06445 2.815521 2.815521 0 0 0 -.279297 -.03516 2.815521 2.815521 0 0 0 -.28125 -.0078" fill="#ccc"/><path d="m14.178711 12.416992a2.815521 2.815521 0 0 1 .28125 .0078 2.815521 2.815521 0 0 1 .279297 .03516 2.815521 2.815521 0 0 1 .273437 .06445 2.815521 2.815521 0 0 1 .267578 .08984 2.815521 2.815521 0 0 1 .255859 .115234 2.815521 2.815521 0 0 1 .244141 .142578 2.815521 2.815521 0 0 1 .226563 .164062 2.815521 2.815521 0 0 1 .210937 .1875 2.815521 2.815521 0 0 1 .191406 .207032 2.815521 2.815521 0 0 1 .167969 .224609 2.815521 2.815521 0 0 1 .146484 .242188 2.815521 2.815521 0 0 1 .121094 .253906 2.815521 2.815521 0 0 1 .06836 .185547 2.815521 2.815521 0 0 1 .07617 .271484 2.815521 2.815521 0 0 1 .04883 .277344 2.815521 2.815521 0 0 1 .02148 .28125 2.815521 2.815521 0 0 1 -.0078 .28125 2.815521 2.815521 0 0 1 -.03516 .279297 2.815521 2.815521 0 0 1 -.06445 .273437 2.815521 2.815521 0 0 1 -.08984 .267578 2.815521 2.815521 0 0 1 -.117187 .25586 2.815521 2.815521 0 0 1 -.140625 .242187 2.815521 2.815521 0 0 1 -.164063 .228516 2.815521 2.815521 0 0 1 -.1875 .210937 2.815521 2.815521 0 0 1 -.207031 .189454 2.815521 2.815521 0 0 1 -.224609 .169921 2.815521 2.815521 0 0 1 -.242188 .144532 2.815521 2.815521 0 0 1 -.253906 .121093 2.815521 2.815521 0 0 1 -.185547 .07031 2.815521 2.815521 0 0 1 -.271484 .07617 2.815521 2.815521 0 0 1 -.277344 .04883 2.815521 2.815521 0 0 1 -.28125 .02148 2.815521 2.815521 0 0 1 -.28125 -.0078 2.815521 2.815521 0 0 1 -.279297 -.03711 2.815521 2.815521 0 0 1 -.273437 -.0625 2.815521 2.815521 0 0 1 -.267578 -.08984 2.815521 2.815521 0 0 1 -.25586 -.117188 2.815521 2.815521 0 0 1 -.242187 -.140625 2.815521 2.815521 0 0 1 -.228516 -.166015 2.815521 2.815521 0 0 1 -.210937 -.185547 2.815521 2.815521 0 0 1 -.189454 -.207032 2.815521 2.815521 0 0 1 -.169922 -.226562 2.815521 2.815521 0 0 1 -.146484 -.240235 2.815521 2.815521 0 0 1 -.11914 -.253906 2.815521 2.815521 0 0 1 -.07031 -.1875 2.815521 2.815521 0 0 1 -.07617 -.269531 2.815521 2.815521 0 0 1 -.04883 -.277344 2.815521 2.815521 0 0 1 -.02148 -.28125 2.815521 2.815521 0 0 1 .0078 -.28125 2.815521 2.815521 0 0 1 .03516 -.279297 2.815521 2.815521 0 0 1 .06445 -.273437 2.815521 2.815521 0 0 1 .08984 -.267578 2.815521 2.815521 0 0 1 .117188 -.25586 2.815521 2.815521 0 0 1 .140625 -.24414 2.815521 2.815521 0 0 1 .166015 -.226563 2.815521 2.815521 0 0 1 .185547 -.210937 2.815521 2.815521 0 0 1 .207031 -.191407 2.815521 2.815521 0 0 1 .226563 -.167968 2.815521 2.815521 0 0 1 .240234 -.146485 2.815521 2.815521 0 0 1 .253907 -.121093 2.815521 2.815521 0 0 1 .1875 -.06836 2.815521 2.815521 0 0 1 .269531 -.07617 2.815521 2.815521 0 0 1 .277344 -.04883 2.815521 2.815521 0 0 1 .28125 -.02148m9.199214 3.794926a2.815521 2.815521 0 0 1 .28125 .0078 2.815521 2.815521 0 0 1 .279297 .03516 2.815521 2.815521 0 0 1 .273438 .0625 2.815521 2.815521 0 0 1 .267578 .0918 2.815521 2.815521 0 0 1 .255859 .115235 2.815521 2.815521 0 0 1 .244141 .142578 2.815521 2.815521 0 0 1 .226562 .164062 2.815521 2.815521 0 0 1 .210938 .1875 2.815521 2.815521 0 0 1 .191406 .207032 2.815521 2.815521 0 0 1 .167969 .224609 2.815521 2.815521 0 0 1 .146484 .240234 2.815521 2.815521 0 0 1 .121094 .25586 2.815521 2.815521 0 0 1 .07031 .185547 2.815521 2.815521 0 0 1 .07422 .271484 2.815521 2.815521 0 0 1 .04883 .277344 2.815521 2.815521 0 0 1 .02148 .279297 2.815521 2.815521 0 0 1 -.0078 .283203 2.815521 2.815521 0 0 1 -.03516 .277344 2.815521 2.815521 0 0 1 -.06445 .27539 2.815521 2.815521 0 0 1 -.08984 .265625 2.815521 2.815521 0 0 1 -.115234 .257813 2.815521 2.815521 0 0 1 -.142579 .242187 2.815521 2.815521 0 0 1 -.164062 .228516 2.815521 2.815521 0 0 1 -.1875 .210937 2.815521 2.815521 0 0 1 -.207031 .189453 2.815521 2.815521 0 0 1 -.22461 .169922 2.815521 2.815521 0 0 1 -.242187 .144531 2.815521 2.815521 0 0 1 -.253906 .121094 2.815521 2.815521 0 0 1 -.185547 .07031 2.815521 2.815521 0 0 1 -.271485 .07617 2.815521 2.815521 0 0 1 -.277343 .04883 2.815521 2.815521 0 0 1 -.28125 .01953 2.815521 2.815521 0 0 1 -.28125 -.0078 2.815521 2.815521 0 0 1 -.279297 -.03516 2.815521 2.815521 0 0 1 -.273438 -.0625 2.815521 2.815521 0 0 1 -.265625 -.08984 2.815521 2.815521 0 0 1 -.257812 -.117188 2.815521 2.815521 0 0 1 -.242188 -.140625 2.815521 2.815521 0 0 1 -.228515 -.166016 2.815521 2.815521 0 0 1 -.210938 -.1875 2.815521 2.815521 0 0 1 -.189453 -.207031 2.815521 2.815521 0 0 1 -.169922 -.224609 2.815521 2.815521 0 0 1 -.144531 -.240235 2.815521 2.815521 0 0 1 -.121094 -.253906 2.815521 2.815521 0 0 1 -.07031 -.1875 2.815521 2.815521 0 0 1 -.07617 -.271484 2.815521 2.815521 0 0 1 -.04883 -.275391 2.815521 2.815521 0 0 1 -.01953 -.28125 2.815521 2.815521 0 0 1 .0059 -.28125 2.815521 2.815521 0 0 1 .03711 -.279297 2.815521 2.815521 0 0 1 .0625 -.27539 2.815521 2.815521 0 0 1 .08984 -.265625 2.815521 2.815521 0 0 1 .117187 -.25586 2.815521 2.815521 0 0 1 .140626 -.24414 2.815521 2.815521 0 0 1 .166015 -.228516 2.815521 2.815521 0 0 1 .1875 -.208984 2.815521 2.815521 0 0 1 .207031 -.191407 2.815521 2.815521 0 0 1 .22461 -.167968 2.815521 2.815521 0 0 1 .240234 -.146485 2.815521 2.815521 0 0 1 .253906 -.121093 2.815521 2.815521 0 0 1 .1875 -.07031 2.815521 2.815521 0 0 1 .269532 -.07617 2.815521 2.815521 0 0 1 .277343 -.04687 2.815521 2.815521 0 0 1 .28125 -.02148" fill="#f2f2f2"/><path d="m20.678711 9.713867a2.815521 2.815521 0 0 0 -.28125 .019531 2.815521 2.815521 0 0 0 -.277344 .048828 2.815521 2.815521 0 0 0 -.271485 .076172 2.815521 2.815521 0 0 0 -.185546 .070312 2.815521 2.815521 0 0 0 -.253907 .121094 2.815521 2.815521 0 0 0 -.242187 .144531 2.815521 2.815521 0 0 0 -.22461 .169922 2.815521 2.815521 0 0 0 -.207031 .189453 2.815521 2.815521 0 0 0 -.1875 .210938 2.815521 2.815521 0 0 0 -.164062 .228516 2.815521 2.815521 0 0 0 -.140625 .242187 2.815521 2.815521 0 0 0 -.117188 .257813 2.815521 2.815521 0 0 0 -.08984 .265625 2.815521 2.815521 0 0 0 -.06445 .273437 2.815521 2.815521 0 0 0 -.03516 .279297 2.815521 2.815521 0 0 0 -.0078 .281249 2.815521 2.815521 0 0 0 .02148 .28125 2.815521 2.815521 0 0 0 .04883 .277344 2.815521 2.815521 0 0 0 .07617 .271484 2.815521 2.815521 0 0 0 .06836 .185547 2.815521 2.815521 0 0 0 .121094 .253906 2.815521 2.815521 0 0 0 .146484 .242188 2.815521 2.815521 0 0 0 .167969 .224609 2.815521 2.815521 0 0 0 .191407 .207031 2.815521 2.815521 0 0 0 .210937 .1875 2.815521 2.815521 0 0 0 .226563 .164063 2.815521 2.815521 0 0 0 .24414 .142578 2.815521 2.815521 0 0 0 .25586 .115235 2.815521 2.815521 0 0 0 .267578 .0918 2.815521 2.815521 0 0 0 .273437 .0625 2.815521 2.815521 0 0 0 .279297 .03516 2.815521 2.815521 0 0 0 .28125 .0078 2.815521 2.815521 0 0 0 .28125 -.02148 2.815521 2.815521 0 0 0 .277344 -.04687 2.815521 2.815521 0 0 0 .269531 -.07617 2.815521 2.815521 0 0 0 .1875 -.07031 2.815521 2.815521 0 0 0 .253906 -.121093 2.815521 2.815521 0 0 0 .240235 -.146485 2.815521 2.815521 0 0 0 .226562 -.167969 2.815521 2.815521 0 0 0 .207031 -.191406 2.815521 2.815521 0 0 0 .185547 -.210937 2.815521 2.815521 0 0 0 .166016 -.226563 2.815521 2.815521 0 0 0 .140625 -.24414 2.815521 2.815521 0 0 0 .117187 -.25586 2.815521 2.815521 0 0 0 .08984 -.267578 2.815521 2.815521 0 0 0 .0625 -.273437 2.815521 2.815521 0 0 0 .03711 -.279297 2.815521 2.815521 0 0 0 .0078 -.28125 2.815521 2.815521 0 0 0 -.02148 -.281249 2.815521 2.815521 0 0 0 -.04883 -.277344 2.815521 2.815521 0 0 0 -.07617 -.269531 2.815521 2.815521 0 0 0 -.07031 -.1875 2.815521 2.815521 0 0 0 -.121094 -.253907 2.815521 2.815521 0 0 0 -.144531 -.240234 2.815521 2.815521 0 0 0 -.169922 -.22461 2.815521 2.815521 0 0 0 -.189453 -.207031 2.815521 2.815521 0 0 0 -.210937 -.1875 2.815521 2.815521 0 0 0 -.228516 -.166015 2.815521 2.815521 0 0 0 -.242188 -.140625 2.815521 2.815521 0 0 0 -.255859 -.117188 2.815521 2.815521 0 0 0 -.267578 -.089844 2.815521 2.815521 0 0 0 -.273437 -.0625 2.815521 2.815521 0 0 0 -.279297 -.037109 2.815521 2.815521 0 0 0 -.28125 -.00586" fill="#ccc"/><g fill="#f2f2f2"><path d="m20.678711 9.713867a2.815521 2.815521 0 0 1 .28125 .00586 2.815521 2.815521 0 0 1 .279297 .037109 2.815521 2.815521 0 0 1 .273437 .0625 2.815521 2.815521 0 0 1 .267578 .089844 2.815521 2.815521 0 0 1 .255859 .117188 2.815521 2.815521 0 0 1 .242188 .140625 2.815521 2.815521 0 0 1 .228516 .166015 2.815521 2.815521 0 0 1 .210937 .1875 2.815521 2.815521 0 0 1 .189453 .207032 2.815521 2.815521 0 0 1 .169922 .224609 2.815521 2.815521 0 0 1 .144531 .240234 2.815521 2.815521 0 0 1 .121094 .253907 2.815521 2.815521 0 0 1 .07031 .1875 2.815521 2.815521 0 0 1 .07617 .269531 2.815521 2.815521 0 0 1 .04883 .277344 2.815521 2.815521 0 0 1 .02148 .28125 2.815521 2.815521 0 0 1 -.0078 .28125 2.815521 2.815521 0 0 1 -.03711 .279297 2.815521 2.815521 0 0 1 -.0625 .273437 2.815521 2.815521 0 0 1 -.08984 .267578 2.815521 2.815521 0 0 1 -.117187 .25586 2.815521 2.815521 0 0 1 -.140625 .24414 2.815521 2.815521 0 0 1 -.166016 .226563 2.815521 2.815521 0 0 1 -.185547 .210937 2.815521 2.815521 0 0 1 -.207031 .191406 2.815521 2.815521 0 0 1 -.226562 .167969 2.815521 2.815521 0 0 1 -.240235 .146485 2.815521 2.815521 0 0 1 -.253906 .121093 2.815521 2.815521 0 0 1 -.1875 .07031 2.815521 2.815521 0 0 1 -.269531 .07617 2.815521 2.815521 0 0 1 -.277344 .04687 2.815521 2.815521 0 0 1 -.28125 .02148 2.815521 2.815521 0 0 1 -.28125 -.0078 2.815521 2.815521 0 0 1 -.279297 -.03516 2.815521 2.815521 0 0 1 -.273437 -.0625 2.815521 2.815521 0 0 1 -.267578 -.0918 2.815521 2.815521 0 0 1 -.25586 -.115235 2.815521 2.815521 0 0 1 -.24414 -.142578 2.815521 2.815521 0 0 1 -.226563 -.164063 2.815521 2.815521 0 0 1 -.210937 -.1875 2.815521 2.815521 0 0 1 -.191407 -.207031 2.815521 2.815521 0 0 1 -.167969 -.224609 2.815521 2.815521 0 0 1 -.146484 -.242188 2.815521 2.815521 0 0 1 -.121094 -.253906 2.815521 2.815521 0 0 1 -.06836 -.185547 2.815521 2.815521 0 0 1 -.07617 -.271484 2.815521 2.815521 0 0 1 -.04883 -.277344 2.815521 2.815521 0 0 1 -.02148 -.28125 2.815521 2.815521 0 0 1 .0078 -.28125 2.815521 2.815521 0 0 1 .03516 -.279297 2.815521 2.815521 0 0 1 .06445 -.273437 2.815521 2.815521 0 0 1 .08984 -.265625 2.815521 2.815521 0 0 1 .117188 -.257813 2.815521 2.815521 0 0 1 .140625 -.242187 2.815521 2.815521 0 0 1 .164062 -.228516 2.815521 2.815521 0 0 1 .1875 -.210937 2.815521 2.815521 0 0 1 .207031 -.189454 2.815521 2.815521 0 0 1 .22461 -.169921 2.815521 2.815521 0 0 1 .242187 -.144532 2.815521 2.815521 0 0 1 .253907 -.121094 2.815521 2.815521 0 0 1 .185546 -.070312 2.815521 2.815521 0 0 1 .271485 -.076172 2.815521 2.815521 0 0 1 .277344 -.048828 2.815521 2.815521 0 0 1 .28125 -.019531"/><path d="M4.975586 8.620117A2.815521 2.815521 0 0 0 4.696289 8.641601 2.815521 2.815521 0 0 0 4.418945 8.690429 2.815521 2.815521 0 0 0 4.147461 8.766601 2.815521 2.815521 0 0 0 3.961914 8.83496 2.815521 2.815521 0 0 0 3.706054 8.956054 2.815521 2.815521 0 0 0 3.46582 9.102539 2.815521 2.815521 0 0 0 3.241211 9.270507 2.815521 2.815521 0 0 0 3.034179 9.461914 2.815521 2.815521 0 0 0 2.846679 9.672851 2.815521 2.815521 0 0 0 2.682617 9.899414 2.815521 2.815521 0 0 0 2.540039 10.143554a2.815521 2.815521 0 0 0 -.115235 .25586 2.815521 2.815521 0 0 0 -.0918 .267578 2.815521 2.815521 0 0 0 -.0625 .273437 2.815521 2.815521 0 0 0 -.03516 .279297 2.815521 2.815521 0 0 0 -.0078 .28125 2.815521 2.815521 0 0 0 .02148 .28125 2.815521 2.815521 0 0 0 .04687 .277344 2.815521 2.815521 0 0 0 .07617 .269531 2.815521 2.815521 0 0 0 .07031 .187499 2.815521 2.815521 0 0 0 .121094 .253907 2.815521 2.815521 0 0 0 .146485 .240234 2.815521 2.815521 0 0 0 .167968 .226562 2.815521 2.815521 0 0 0 .191407 .207032 2.815521 2.815521 0 0 0 .208984 .185546 2.815521 2.815521 0 0 0 .228516 .166016 2.815521 2.815521 0 0 0 .24414 .140625 2.815521 2.815521 0 0 0 .25586 .117188 2.815521 2.815521 0 0 0 .265625 .08984 2.815521 2.815521 0 0 0 .27539 .0625 2.815521 2.815521 0 0 0 .279297 .03711 2.815521 2.815521 0 0 0 .28125 .0078 2.815521 2.815521 0 0 0 .28125 -.02148 2.815521 2.815521 0 0 0 .275391 -.04883 2.815521 2.815521 0 0 0 .271484 -.07617 2.815521 2.815521 0 0 0 .1875 -.07031 2.815521 2.815521 0 0 0 .253906 -.121093 2.815521 2.815521 0 0 0 .240235 -.144532 2.815521 2.815521 0 0 0 .224609 -.169922 2.815521 2.815521 0 0 0 .207031 -.189453 2.815521 2.815521 0 0 0 .1875 -.210937 2.815521 2.815521 0 0 0 .166016 -.228516 2.815521 2.815521 0 0 0 .140625 -.242187 2.815521 2.815521 0 0 0 .117187 -.25586 2.815521 2.815521 0 0 0 .08984 -.267577 2.815521 2.815521 0 0 0 .0625 -.273438 2.815521 2.815521 0 0 0 .03516 -.279296 2.815521 2.815521 0 0 0 .0078 -.28125 2.815521 2.815521 0 0 0 -.01953 -.28125A2.815521 2.815521 0 0 0 7.788064 10.811515 2.815521 2.815521 0 0 0 7.711894 10.54003 2.815521 2.815521 0 0 0 7.641584 10.354484 2.815521 2.815521 0 0 0 7.520491 10.10058 2.815521 2.815521 0 0 0 7.375959 9.85839 2.815521 2.815521 0 0 0 7.206037 9.633781 2.815521 2.815521 0 0 0 7.01658 9.426749 2.815521 2.815521 0 0 0 6.805647 9.239249 2.815521 2.815521 0 0 0 6.577131 9.07519 2.815521 2.815521 0 0 0 6.334944 8.932609 2.815521 2.815521 0 0 0 6.077131 8.817374 2.815521 2.815521 0 0 0 5.811506 8.72753 2.815521 2.815521 0 0 0 5.536115 8.663077 2.815521 2.815521 0 0 0 5.258772 8.627921 2.815521 2.815521 0 0 0 4.975569 8.620111"/><path d="m11.475586 5.916992a2.815521 2.815521 0 0 0 -.28125 .021484 2.815521 2.815521 0 0 0 -.275391 .048828 2.815521 2.815521 0 0 0 -.271484 .076172 2.815521 2.815521 0 0 0 -.1875 .068359A2.815521 2.815521 0 0 0 10.206054 6.252929 2.815521 2.815521 0 0 0 9.96582 6.399414 2.815521 2.815521 0 0 0 9.741211 6.567382 2.815521 2.815521 0 0 0 9.534179 6.758789 2.815521 2.815521 0 0 0 9.346679 6.969726 2.815521 2.815521 0 0 0 9.180664 7.196289 2.815521 2.815521 0 0 0 9.04004 7.440429 2.815521 2.815521 0 0 0 8.922851 7.696289a2.815521 2.815521 0 0 0 -.08984 .267578 2.815521 2.815521 0 0 0 -.0625 .273438 2.815521 2.815521 0 0 0 -.03516 .279297 2.815521 2.815521 0 0 0 -.0078 .28125 2.815521 2.815521 0 0 0 .01953 .28125 2.815521 2.815521 0 0 0 .04883 .277344 2.815521 2.815521 0 0 0 .07617 .269531 2.815521 2.815521 0 0 0 .07031 .1875 2.815521 2.815521 0 0 0 .121094 .253906 2.815521 2.815521 0 0 0 .144532 .240235 2.815521 2.815521 0 0 0 .169921 .226562 2.815521 2.815521 0 0 0 .189453 .207031 2.815521 2.815521 0 0 0 .210938 .185547 2.815521 2.815521 0 0 0 .228516 .166016 2.815521 2.815521 0 0 0 .242187 .140625 2.815521 2.815521 0 0 0 .257813 .117187 2.815521 2.815521 0 0 0 .265625 .08984 2.815521 2.815521 0 0 0 .273437 .0625 2.815521 2.815521 0 0 0 .279297 .03711 2.815521 2.815521 0 0 0 .28125 .0078 2.815521 2.815521 0 0 0 .28125 -.02148 2.815521 2.815521 0 0 0 .277344 -.04883 2.815521 2.815521 0 0 0 .271484 -.07617 2.815521 2.815521 0 0 0 .185547 -.07031 2.815521 2.815521 0 0 0 .255859 -.121094 2.815521 2.815521 0 0 0 .240235 -.144531 2.815521 2.815521 0 0 0 .224609 -.169922 2.815521 2.815521 0 0 0 .207031 -.189453 2.815521 2.815521 0 0 0 .1875 -.210937 2.815521 2.815521 0 0 0 .164063 -.228516 2.815521 2.815521 0 0 0 .142578 -.242187 2.815521 2.815521 0 0 0 .115234 -.25586 2.815521 2.815521 0 0 0 .0918 -.267578 2.815521 2.815521 0 0 0 .0625 -.273437 2.815521 2.815521 0 0 0 .03516 -.279297 2.815521 2.815521 0 0 0 .0078 -.28125 2.815521 2.815521 0 0 0 -.02148 -.28125A2.815521 2.815521 0 0 0 14.288098 8.108396 2.815521 2.815521 0 0 0 14.211928 7.836912 2.815521 2.815521 0 0 0 14.14162 7.651365 2.815521 2.815521 0 0 0 14.02052 7.397459 2.815521 2.815521 0 0 0 13.87404 7.155271 2.815521 2.815521 0 0 0 13.706071 6.930662 2.815521 2.815521 0 0 0 13.514665 6.72363a2.815521 2.815521 0 0 0 -.210937 -.1875 2.815521 2.815521 0 0 0 -.226563 -.164063 2.815521 2.815521 0 0 0 -.24414 -.142578 2.815521 2.815521 0 0 0 -.25586 -.115234 2.815521 2.815521 0 0 0 -.265625 -.089844 2.815521 2.815521 0 0 0 -.275391 -.064453 2.815521 2.815521 0 0 0 -.279296 -.035156 2.815521 2.815521 0 0 0 -.28125 -.00781"/><path d="m17.975586 3.213867a2.815521 2.815521 0 0 0 -.28125 .021484 2.815521 2.815521 0 0 0 -.277344 .048828 2.815521 2.815521 0 0 0 -.271484 .074219 2.815521 2.815521 0 0 0 -.185547 .070312 2.815521 2.815521 0 0 0 -.253907 .121094 2.815521 2.815521 0 0 0 -.242187 .146484 2.815521 2.815521 0 0 0 -.224609 .167969 2.815521 2.815521 0 0 0 -.207032 .191406 2.815521 2.815521 0 0 0 -.1875 .210937 2.815521 2.815521 0 0 0 -.164062 .226563 2.815521 2.815521 0 0 0 -.142578 .244141 2.815521 2.815521 0 0 0 -.115235 .255859 2.815521 2.815521 0 0 0 -.08984 .267578 2.815521 2.815521 0 0 0 -.06445 .273438 2.815521 2.815521 0 0 0 -.03516 .279297 2.815521 2.815521 0 0 0 -.0078 .28125 2.815521 2.815521 0 0 0 .02148 .28125 2.815521 2.815521 0 0 0 .04883 .277344 2.815521 2.815521 0 0 0 .07617 .269531 2.815521 2.815521 0 0 0 .06836 .1875 2.815521 2.815521 0 0 0 .121094 .253906 2.815521 2.815521 0 0 0 .146485 .240234 2.815521 2.815521 0 0 0 .167968 .226563 2.815521 2.815521 0 0 0 .191406 .207031 2.815521 2.815521 0 0 0 .210938 .185547 2.815521 2.815521 0 0 0 .226562 .166016 2.815521 2.815521 0 0 0 .244141 .140625 2.815521 2.815521 0 0 0 .255859 .117188 2.815521 2.815521 0 0 0 .267579 .089844 2.815521 2.815521 0 0 0 .273437 .0625 2.815521 2.815521 0 0 0 .279297 .037109 2.815521 2.815521 0 0 0 .28125 .00586 2.815521 2.815521 0 0 0 .28125 -.019531 2.815521 2.815521 0 0 0 .277344 -.048828 2.815521 2.815521 0 0 0 .269531 -.076172 2.815521 2.815521 0 0 0 .1875 -.070312 2.815521 2.815521 0 0 0 .253906 -.121094 2.815521 2.815521 0 0 0 .240235 -.144531 2.815521 2.815521 0 0 0 .226562 -.169922 2.815521 2.815521 0 0 0 .207031 -.189453 2.815521 2.815521 0 0 0 .185547 -.210938 2.815521 2.815521 0 0 0 .166016 -.228516 2.815521 2.815521 0 0 0 .140625 -.242187 2.815521 2.815521 0 0 0 .117187 -.255859 2.815521 2.815521 0 0 0 .08984 -.267578 2.815521 2.815521 0 0 0 .0625 -.273437 2.815521 2.815521 0 0 0 .03711 -.279297 2.815521 2.815521 0 0 0 .0078 -.28125 2.815521 2.815521 0 0 0 -.02148 -.28125A2.815521 2.815521 0 0 0 20.786131 5.405274 2.815521 2.815521 0 0 0 20.709961 5.13379 2.815521 2.815521 0 0 0 20.639651 4.948243 2.815521 2.815521 0 0 0 20.518557 4.694337 2.815521 2.815521 0 0 0 20.374026 4.452149 2.815521 2.815521 0 0 0 20.2041 4.22754 2.815521 2.815521 0 0 0 20.01465 4.02051 2.815521 2.815521 0 0 0 19.803714 3.833009 2.815521 2.815521 0 0 0 19.575195 3.668945 2.815521 2.815521 0 0 0 19.333008 3.526367 2.815521 2.815521 0 0 0 19.07715 3.411133 2.815521 2.815521 0 0 0 18.80957 3.321289a2.815521 2.815521 0 0 0 -.273438 -.064453 2.815521 2.815521 0 0 0 -.279296 -.035156 2.815521 2.815521 0 0 0 -.28125 -.00781"/><path d="m6.21582 1.217774a2.815521 2.815521 0 0 0 -.08594 .246094 2.815521 2.815521 0 0 0 -.0625 .273438 2.815521 2.815521 0 0 0 -.03516 .279297 2.815521 2.815521 0 0 0 -.0078 .28125 2.815521 2.815521 0 0 0 .01953 .28125 2.815521 2.815521 0 0 0 .04883 .277344 2.815521 2.815521 0 0 0 .07617 .271484 2.815521 2.815521 0 0 0 .07031 .1875 2.815521 2.815521 0 0 0 .121093 .253906 2.815521 2.815521 0 0 0 .146485 .240234 2.815521 2.815521 0 0 0 .167968 .224609 2.815521 2.815521 0 0 0 .191407 .207031 2.815521 2.815521 0 0 0 .208984 .1875 2.815521 2.815521 0 0 0 .228516 .164063 2.815521 2.815521 0 0 0 .24414 .142578 2.815521 2.815521 0 0 0 .25586 .117188 2.815521 2.815521 0 0 0 .265625 .089844 2.815521 2.815521 0 0 0 .27539 .0625 2.815521 2.815521 0 0 0 .279297 .035156 2.815521 2.815521 0 0 0 .28125 .00781 2.815521 2.815521 0 0 0 .279297 -.019531 2.815521 2.815521 0 0 0 .277344 -.048828 2.815521 2.815521 0 0 0 .271484 -.076172 2.815521 2.815521 0 0 0 .1875 -.070312 2.815521 2.815521 0 0 0 .253906 -.121094 2.815521 2.815521 0 0 0 .240235 -.146484 2.815521 2.815521 0 0 0 .224609 -.167969 2.815521 2.815521 0 0 0 .207031 -.191406 2.815521 2.815521 0 0 0 .1875 -.210938 2.815521 2.815521 0 0 0 .166016 -.226563 2.815521 2.815521 0 0 0 .140625 -.244141 2.815521 2.815521 0 0 0 .117188 -.255859 2.815521 2.815521 0 0 0 .08984 -.267578 2.815521 2.815521 0 0 0 .0625 -.273438 2.815521 2.815521 0 0 0 .03516 -.279297 2.815521 2.815521 0 0 0 .0078 -.28125 2.815521 2.815521 0 0 0 -.02148 -.28125A2.815521 2.815521 0 0 0 11.58496 1.608397 2.815521 2.815521 0 0 0 11.50879 1.338866 2.815521 2.815521 0 0 0 11.46387 1.217772"/><path d="m-.274414 5.975586a2.815521 2.815521 0 0 0 .01563 .042969 2.815521 2.815521 0 0 0 .11914 .253906 2.815521 2.815521 0 0 0 .146485 .240234 2.815521 2.815521 0 0 0 .169922 .224609 2.815521 2.815521 0 0 0 .189453 .207031 2.815521 2.815521 0 0 0 .210937 .1875 2.815521 2.815521 0 0 0 .226563 .166016 2.815521 2.815521 0 0 0 .24414 .140625 2.815521 2.815521 0 0 0 .25586 .117188 2.815521 2.815521 0 0 0 .267578 .089844 2.815521 2.815521 0 0 0 .273437 .0625 2.815521 2.815521 0 0 0 .279297 .037109 2.815521 2.815521 0 0 0 .28125 .00586 2.815521 2.815521 0 0 0 .28125 -.019531 2.815521 2.815521 0 0 0 .277344 -.048828 2.815521 2.815521 0 0 0 .269531 -.076172 2.815521 2.815521 0 0 0 .1875 -.070312A2.815521 2.815521 0 0 0 3.674809 7.415041 2.815521 2.815521 0 0 0 3.916997 7.270509 2.815521 2.815521 0 0 0 4.141606 7.100588 2.815521 2.815521 0 0 0 4.348637 6.911134 2.815521 2.815521 0 0 0 4.536137 6.700197 2.815521 2.815521 0 0 0 4.7002 6.471681 2.815521 2.815521 0 0 0 4.840825 6.229494 2.815521 2.815521 0 0 0 4.958013 5.973634 2.815521 2.815521 0 0 0 5.04785 5.706056 2.815521 2.815521 0 0 0 5.112303 5.432619 2.815521 2.815521 0 0 0 5.147463 5.153322 2.815521 2.815521 0 0 0 5.155263 4.872072 2.815521 2.815521 0 0 0 5.133783 4.590822 2.815521 2.815521 0 0 0 5.084953 4.313478 2.815521 2.815521 0 0 0 5.01073 4.04199 2.815521 2.815521 0 0 0 4.940423 3.854494 2.815521 2.815521 0 0 0 4.81933 3.600588 2.815521 2.815521 0 0 0 4.672845 3.360353 2.815521 2.815521 0 0 0 4.504876 3.135744 2.815521 2.815521 0 0 0 4.31347 2.928713 2.815521 2.815521 0 0 0 4.102533 2.741213 2.815521 2.815521 0 0 0 3.87597 2.57715 2.815521 2.815521 0 0 0 3.63183 2.434572 2.815521 2.815521 0 0 0 3.37597 2.317384 2.815521 2.815521 0 0 0 3.108392 2.227541a2.815521 2.815521 0 0 0 -.273437 -.0625 2.815521 2.815521 0 0 0 -.279297 -.035156 2.815521 2.815521 0 0 0 -.28125 -.00781 2.815521 2.815521 0 0 0 -.0078 0C.905 2.96-.023 4.325-.274 5.976"/><path d="m-.438477 16.760742a2.815521 2.815521 0 0 0 .0625 -.02344 2.815521 2.815521 0 0 0 .253906 -.11914 2.815521 2.815521 0 0 0 .242188 -.146485 2.815521 2.815521 0 0 0 .224609 -.169921 2.815521 2.815521 0 0 0 .207032 -.189454 2.815521 2.815521 0 0 0 .1875 -.210937 2.815521 2.815521 0 0 0 .164062 -.228516 2.815521 2.815521 0 0 0 .142578 -.242187 2.815521 2.815521 0 0 0 .115234 -.25586 2.815521 2.815521 0 0 0 .08984 -.267578 2.815521 2.815521 0 0 0 .06445 -.273437 2.815521 2.815521 0 0 0 .03516 -.279297 2.815521 2.815521 0 0 0 .0078 -.28125 2.815521 2.815521 0 0 0 -.02148 -.28125 2.815521 2.815521 0 0 0 -.04883 -.277344 2.815521 2.815521 0 0 0 -.07617 -.271484 2.815521 2.815521 0 0 0 -.06836 -.185547 2.815521 2.815521 0 0 0 -.121093 -.253906 2.815521 2.815521 0 0 0 -.146485 -.242188 2.815521 2.815521 0 0 0 -.167968 -.224609 2.815521 2.815521 0 0 0 -.191407 -.207031 2.815521 2.815521 0 0 0 -.210937 -.1875 2.815521 2.815521 0 0 0 -.226563 -.164063 2.815521 2.815521 0 0 0 -.24414 -.140625 2.815521 2.815521 0 0 0 -.25586 -.117187 2.815521 2.815521 0 0 0 -.01758 -.0059z"/><path d="m-.438477 22.889648a2.815521 2.815521 0 0 0 .150391 .109375 2.815521 2.815521 0 0 0 .242187 .140625 2.815521 2.815521 0 0 0 .25586 .117188 2.815521 2.815521 0 0 0 .267578 .08984 2.815521 2.815521 0 0 0 .273437 .06445 2.815521 2.815521 0 0 0 .279297 .03516 2.815521 2.815521 0 0 0 .28125 .0078 2.815521 2.815521 0 0 0 .28125 -.02148 2.815521 2.815521 0 0 0 .277344 -.04883 2.815521 2.815521 0 0 0 .271484 -.07617 2.815521 2.815521 0 0 0 .185547 -.07031 2.815521 2.815521 0 0 0 .253906 -.11914 2.815521 2.815521 0 0 0 .242188 -.146485 2.815521 2.815521 0 0 0 .224609 -.169921 2.815521 2.815521 0 0 0 .207031 -.189454 2.815521 2.815521 0 0 0 .185547 -.210937 2.815521 2.815521 0 0 0 .166016 -.228516 2.815521 2.815521 0 0 0 .140625 -.242187 2.815521 2.815521 0 0 0 .117188 -.25586 2.815521 2.815521 0 0 0 .08984 -.267578 2.815521 2.815521 0 0 0 .06445 -.273437 2.815521 2.815521 0 0 0 .03516 -.279297 2.815521 2.815521 0 0 0 .0078 -.28125 2.815521 2.815521 0 0 0 -.02148 -.28125A2.815521 2.815521 0 0 0 3.991198 20.01464 2.815521 2.815521 0 0 0 3.915028 19.743156 2.815521 2.815521 0 0 0 3.846668 19.557609 2.815521 2.815521 0 0 0 3.725575 19.303703 2.815521 2.815521 0 0 0 3.57909 19.06151 2.815521 2.815521 0 0 0 3.409168 18.836906 2.815521 2.815521 0 0 0 3.219715 18.629874 2.815521 2.815521 0 0 0 3.00878 18.442374 2.815521 2.815521 0 0 0 2.780262 18.278312 2.815521 2.815521 0 0 0 2.538075 18.13769 2.815521 2.815521 0 0 0 2.282215 18.0205 2.815521 2.815521 0 0 0 2.01464 17.93066 2.815521 2.815521 0 0 0 1.7412 17.86621 2.815521 2.815521 0 0 0 1.461903 17.83105a2.815521 2.815521 0 0 0 -.28125 -.0078 2.815521 2.815521 0 0 0 -.28125 .02148 2.815521 2.815521 0 0 0 -.277344 .04883 2.815521 2.815521 0 0 0 -.271484 .07617 2.815521 2.815521 0 0 0 -.185547 .06836 2.815521 2.815521 0 0 0 -.253907 .121093 2.815521 2.815521 0 0 0 -.240234 .146485 2.815521 2.815521 0 0 0 -.109375 .08203z"/><path d="m5.588867 29.420898a2.815521 2.815521 0 0 0 .160156 -.11914 2.815521 2.815521 0 0 0 .207031 -.191407 2.815521 2.815521 0 0 0 .1875 -.210937 2.815521 2.815521 0 0 0 .164063 -.226563 2.815521 2.815521 0 0 0 .142578 -.24414 2.815521 2.815521 0 0 0 .115234 -.25586 2.815521 2.815521 0 0 0 .0918 -.265625 2.815521 2.815521 0 0 0 .0625 -.27539 2.815521 2.815521 0 0 0 .03516 -.279297 2.815521 2.815521 0 0 0 .0078 -.28125 2.815521 2.815521 0 0 0 -.01953 -.28125 2.815521 2.815521 0 0 0 -.04883 -.277344 2.815521 2.815521 0 0 0 -.07617 -.269531 2.815521 2.815521 0 0 0 -.07031 -.1875A2.815521 2.815521 0 0 0 6.426756 25.801758 2.815521 2.815521 0 0 0 6.280271 25.55957 2.815521 2.815521 0 0 0 6.112302 25.334961 2.815521 2.815521 0 0 0 5.920896 25.12793a2.815521 2.815521 0 0 0 -.208984 -.1875 2.815521 2.815521 0 0 0 -.228516 -.164062 2.815521 2.815521 0 0 0 -.24414 -.142578 2.815521 2.815521 0 0 0 -.25586 -.115235 2.815521 2.815521 0 0 0 -.265625 -.0918 2.815521 2.815521 0 0 0 -.275391 -.0625 2.815521 2.815521 0 0 0 -.279296 -.03516 2.815521 2.815521 0 0 0 -.28125 -.0078 2.815521 2.815521 0 0 0 -.279297 .01953 2.815521 2.815521 0 0 0 -.277344 .04883 2.815521 2.815521 0 0 0 -.271484 .07617 2.815521 2.815521 0 0 0 -.1875 .07031 2.815521 2.815521 0 0 0 -.253907 .121094 2.815521 2.815521 0 0 0 -.240234 .146485 2.815521 2.815521 0 0 0 -.226562 .167968 2.815521 2.815521 0 0 0 -.207032 .191407 2.815521 2.815521 0 0 0 -.185547 .208984 2.815521 2.815521 0 0 0 -.166015 .228516 2.815521 2.815521 0 0 0 -.140625 .24414 2.815521 2.815521 0 0 0 -.117188 .25586 2.815521 2.815521 0 0 0 -.08984 .265625 2.815521 2.815521 0 0 0 -.06445 .27539 2.815521 2.815521 0 0 0 -.03516 .279297 2.815521 2.815521 0 0 0 -.0078 .28125 2.815521 2.815521 0 0 0 .02148 .279297 2.815521 2.815521 0 0 0 .04883 .277344 2.815521 2.815521 0 0 0 .01367 .05078c1.01.995 2.387 1.611 3.92 1.611z"/><path d="m15.520508 29.420898a2.815521 2.815521 0 0 0 -.04102 -.06641 2.815521 2.815521 0 0 0 -.169922 -.22461 2.815521 2.815521 0 0 0 -.189453 -.207031 2.815521 2.815521 0 0 0 -.210938 -.1875 2.815521 2.815521 0 0 0 -.228515 -.166015 2.815521 2.815521 0 0 0 -.242188 -.140625 2.815521 2.815521 0 0 0 -.255859 -.117188 2.815521 2.815521 0 0 0 -.267578 -.08984 2.815521 2.815521 0 0 0 -.273438 -.0625 2.815521 2.815521 0 0 0 -.279297 -.03711 2.815521 2.815521 0 0 0 -.28125 -.0059 2.815521 2.815521 0 0 0 -.28125 .01953 2.815521 2.815521 0 0 0 -.277343 .04883 2.815521 2.815521 0 0 0 -.271485 .07617 2.815521 2.815521 0 0 0 -.185547 .07031 2.815521 2.815521 0 0 0 -.253906 .121094 2.815521 2.815521 0 0 0 -.242187 .144531 2.815521 2.815521 0 0 0 -.22461 .169922 2.815521 2.815521 0 0 0 -.207031 .189453 2.815521 2.815521 0 0 0 -.1875 .210938 2.815521 2.815521 0 0 0 -.164063 .228516 2.815521 2.815521 0 0 0 -.01562 .02539z"/><path d="m22.19238 29.420898a2.815521 2.815521 0 0 0 .07031 -.158203 2.815521 2.815521 0 0 0 .0918 -.267578 2.815521 2.815521 0 0 0 .0625 -.273438 2.815521 2.815521 0 0 0 .03516 -.279297 2.815521 2.815521 0 0 0 .0078 -.28125 2.815521 2.815521 0 0 0 -.01953 -.28125 2.815521 2.815521 0 0 0 -.04883 -.277343 2.815521 2.815521 0 0 0 -.07617 -.269531 2.815521 2.815521 0 0 0 -.07031 -.1875 2.815521 2.815521 0 0 0 -.121094 -.253907 2.815521 2.815521 0 0 0 -.146484 -.240234 2.815521 2.815521 0 0 0 -.167964 -.226563 2.815521 2.815521 0 0 0 -.191406 -.207031 2.815521 2.815521 0 0 0 -.208985 -.185547 2.815521 2.815521 0 0 0 -.228515 -.166015 2.815521 2.815521 0 0 0 -.244141 -.140625 2.815521 2.815521 0 0 0 -.255859 -.117188 2.815521 2.815521 0 0 0 -.265625 -.08984 2.815521 2.815521 0 0 0 -.275391 -.0625 2.815521 2.815521 0 0 0 -.279297 -.03711 2.815521 2.815521 0 0 0 -.28125 -.0059 2.815521 2.815521 0 0 0 -.279297 .01953 2.815521 2.815521 0 0 0 -.277343 .04883 2.815521 2.815521 0 0 0 -.271485 .07617 2.815521 2.815521 0 0 0 -.1875 .07031 2.815521 2.815521 0 0 0 -.253906 .121094 2.815521 2.815521 0 0 0 -.240234 .144531 2.815521 2.815521 0 0 0 -.22461 .169922 2.815521 2.815521 0 0 0 -.207031 .189453 2.815521 2.815521 0 0 0 -.1875 .210938 2.815521 2.815521 0 0 0 -.164063 .228515 2.815521 2.815521 0 0 0 -.142578 .242188 2.815521 2.815521 0 0 0 -.117187 .255859 2.815521 2.815521 0 0 0 -.08984 .267579 2.815521 2.815521 0 0 0 -.0625 .273437 2.815521 2.815521 0 0 0 -.03516 .279297 2.815521 2.815521 0 0 0 -.0078 .28125 2.815521 2.815521 0 0 0 .01953 .28125 2.815521 2.815521 0 0 0 .04883 .277344 2.815521 2.815521 0 0 0 .07617 .271484 2.815521 2.815521 0 0 0 .07031 .185547 2.815521 2.815521 0 0 0 .05469 .113281h5.088c.001 0 .003 0 .004 0"/><path d="m27.764648 23.22559a2.815521 2.815521 0 0 0 -.08594 -.0625 2.815521 2.815521 0 0 0 -.242187 -.140625 2.815521 2.815521 0 0 0 -.25586 -.117188 2.815521 2.815521 0 0 0 -.267578 -.08984 2.815521 2.815521 0 0 0 -.273437 -.0625 2.815521 2.815521 0 0 0 -.279297 -.03711 2.815521 2.815521 0 0 0 -.28125 -.0078 2.815521 2.815521 0 0 0 -.28125 .02148 2.815521 2.815521 0 0 0 -.277344 .04883 2.815521 2.815521 0 0 0 -.271484 .07617 2.815521 2.815521 0 0 0 -.185547 .07031 2.815521 2.815521 0 0 0 -.253907 .121085 2.815521 2.815521 0 0 0 -.242188 .144531 2.815521 2.815521 0 0 0 -.224609 .169922 2.815521 2.815521 0 0 0 -.207031 .189453 2.815521 2.815521 0 0 0 -.185547 .210938 2.815521 2.815521 0 0 0 -.166016 .228516 2.815521 2.815521 0 0 0 -.140625 .242187 2.815521 2.815521 0 0 0 -.117187 .255859 2.815521 2.815521 0 0 0 -.08984 .267578 2.815521 2.815521 0 0 0 -.06445 .273438 2.815521 2.815521 0 0 0 -.03516 .279297 2.815521 2.815521 0 0 0 -.0078 .28125 2.815521 2.815521 0 0 0 .02149 .28125 2.815521 2.815521 0 0 0 .04883 .277344 2.815521 2.815521 0 0 0 .07617 .271484 2.815521 2.815521 0 0 0 .06836 .185547 2.815521 2.815521 0 0 0 .121094 .253906 2.815521 2.815521 0 0 0 .146484 .242188 2.815521 2.815521 0 0 0 .169922 .224609 2.815521 2.815521 0 0 0 .189453 .207031 2.815521 2.815521 0 0 0 .210938 .1875 2.815521 2.815521 0 0 0 .228515 .164063 2.815521 2.815521 0 0 0 .242188 .142578 2.815521 2.815521 0 0 0 .255859 .115234 2.815521 2.815521 0 0 0 .267578 .08984 2.815521 2.815521 0 0 0 .08008 .01953c1.368-1.014 2.309-2.563 2.309-4.404z"/><path d="m27.764648 14.540039a2.815521 2.815521 0 0 0 -.01758 .01953 2.815521 2.815521 0 0 0 -.164062 .228516 2.815521 2.815521 0 0 0 -.142579 .24414 2.815521 2.815521 0 0 0 -.115234 .25586 2.815521 2.815521 0 0 0 -.08984 .265625 2.815521 2.815521 0 0 0 -.06445 .27539 2.815521 2.815521 0 0 0 -.03516 .279297 2.815521 2.815521 0 0 0 -.0078 .28125 2.815521 2.815521 0 0 0 .02148 .279297 2.815521 2.815521 0 0 0 .04883 .277344 2.815521 2.815521 0 0 0 .07422 .271484 2.815521 2.815521 0 0 0 .07031 .1875 2.815521 2.815521 0 0 0 .121094 .253906 2.815521 2.815521 0 0 0 .146484 .240235 2.815521 2.815521 0 0 0 .154297 .207031z"/><path d="m27.764648 7.05957a2.815521 2.815521 0 0 0 -.02734 -.00586 2.815521 2.815521 0 0 0 -.279297 -.037109 2.815521 2.815521 0 0 0 -.28125 -.00586 2.815521 2.815521 0 0 0 -.279297 .019531 2.815521 2.815521 0 0 0 -.277343 .048828 2.815521 2.815521 0 0 0 -.271485 .076172 2.815521 2.815521 0 0 0 -.1875 .070312 2.815521 2.815521 0 0 0 -.253906 .121094 2.815521 2.815521 0 0 0 -.240234 .144531 2.815521 2.815521 0 0 0 -.22461 .169922 2.815521 2.815521 0 0 0 -.207031 .189453 2.815521 2.815521 0 0 0 -.1875 .210937 2.815521 2.815521 0 0 0 -.166016 .228516 2.815521 2.815521 0 0 0 -.140624 .242187 2.815521 2.815521 0 0 0 -.117188 .257813 2.815521 2.815521 0 0 0 -.08984 .265625 2.815521 2.815521 0 0 0 -.0625 .273437 2.815521 2.815521 0 0 0 -.03516 .279297 2.815521 2.815521 0 0 0 -.0078 .28125 2.815521 2.815521 0 0 0 .01953 .28125 2.815521 2.815521 0 0 0 .04883 .277344 2.815521 2.815521 0 0 0 .07617 .271484 2.815521 2.815521 0 0 0 .07031 .185547 2.815521 2.815521 0 0 0 .121094 .253906 2.815521 2.815521 0 0 0 .144531 .242188 2.815521 2.815521 0 0 0 .169922 .224609 2.815521 2.815521 0 0 0 .191406 .207031 2.815521 2.815521 0 0 0 .208985 .1875 2.815521 2.815521 0 0 0 .228515 .164063 2.815521 2.815521 0 0 0 .244141 .142578 2.815521 2.815521 0 0 0 .255859 .115233 2.815521 2.815521 0 0 0 .265625 .08984 2.815521 2.815521 0 0 0 .275391 .06445 2.815521 2.815521 0 0 0 .279297 .03516 2.815521 2.815521 0 0 0 .28125 .0078 2.815521 2.815521 0 0 0 .279297 -.02148 2.815521 2.815521 0 0 0 .175781 -.03125z"/><path d="m22.588867 1.297852a2.815521 2.815521 0 0 0 -.05859 .054687 2.815521 2.815521 0 0 0 -.1875 .210938 2.815521 2.815521 0 0 0 -.164062 .226563 2.815521 2.815521 0 0 0 -.142579 .244141 2.815521 2.815521 0 0 0 -.115234 .255859 2.815521 2.815521 0 0 0 -.08984 .265625 2.815521 2.815521 0 0 0 -.06445 .275391 2.815521 2.815521 0 0 0 -.03516 .279297 2.815521 2.815521 0 0 0 -.0078 .28125 2.815521 2.815521 0 0 0 .02149 .279297 2.815521 2.815521 0 0 0 .04687 .277344 2.815521 2.815521 0 0 0 .07617 .271484 2.815521 2.815521 0 0 0 .07031 .1875 2.815521 2.815521 0 0 0 .121094 .253906 2.815521 2.815521 0 0 0 .146484 .240234 2.815521 2.815521 0 0 0 .167969 .226563 2.815521 2.815521 0 0 0 .191406 .207031 2.815521 2.815521 0 0 0 .208985 .185547 2.815521 2.815521 0 0 0 .228515 .166016 2.815521 2.815521 0 0 0 .244141 .140625 2.815521 2.815521 0 0 0 .255859 .117188 2.815521 2.815521 0 0 0 .265625 .089844 2.815521 2.815521 0 0 0 .275391 .0625 2.815521 2.815521 0 0 0 .279297 .037109 2.815521 2.815521 0 0 0 .28125 .00781 2.815521 2.815521 0 0 0 .279297 -.021484 2.815521 2.815521 0 0 0 .277343 -.048828 2.815521 2.815521 0 0 0 .271485 -.076172 2.815521 2.815521 0 0 0 .1875 -.070312A2.815521 2.815521 0 0 0 25.874039 5.803709 2.815521 2.815521 0 0 0 26.11427 5.659178 2.815521 2.815521 0 0 0 26.340836 5.489256 2.815521 2.815521 0 0 0 26.547867 5.299803 2.815521 2.815521 0 0 0 26.733414 5.088866 2.815521 2.815521 0 0 0 26.89943 4.86035 2.815521 2.815521 0 0 0 27.04005 4.618162 2.815521 2.815521 0 0 0 27.15529 4.364256C26.308 2.634 24.612 1.448 22.589 1.298"/><path d="m13.08887 1.217774a2.815521 2.815521 0 0 0 .08594 .113281 2.815521 2.815521 0 0 0 .191407 .207031 2.815521 2.815521 0 0 0 .208984 .1875 2.815521 2.815521 0 0 0 .228516 .164063 2.815521 2.815521 0 0 0 .24414 .142578 2.815521 2.815521 0 0 0 .25586 .115234 2.815521 2.815521 0 0 0 .265625 .091797 2.815521 2.815521 0 0 0 .27539 .0625 2.815521 2.815521 0 0 0 .279297 .035156 2.815521 2.815521 0 0 0 .28125 .00781 2.815521 2.815521 0 0 0 .279297 -.021484 2.815521 2.815521 0 0 0 .277344 -.048828 2.815521 2.815521 0 0 0 .271484 -.074219 2.815521 2.815521 0 0 0 .185547 -.070312 2.815521 2.815521 0 0 0 .253906 -.121094 2.815521 2.815521 0 0 0 .240235 -.146484 2.815521 2.815521 0 0 0 .226562 -.167969 2.815521 2.815521 0 0 0 .207031 -.191406 2.815521 2.815521 0 0 0 .185547 -.208984 2.815521 2.815521 0 0 0 .05469 -.076172z"/></g></g>

   xmlns:dc="http://purl.org/dc/elements/1.1/"
   xmlns:cc="http://creativecommons.org/ns#"
   xmlns:rdf="http://www.w3.org/1999/02/22-rdf-syntax-ns#"
   xmlns:svg="http://www.w3.org/2000/svg"
   xmlns="http://www.w3.org/2000/svg"
   xmlns:xlink="http://www.w3.org/1999/xlink"
   xmlns:sodipodi="http://sodipodi.sourceforge.net/DTD/sodipodi-0.dtd"
   xmlns:inkscape="http://www.inkscape.org/namespaces/inkscape"
   version="1"
   width="32"
   height="32"
   id="svg12"
   sodipodi:docname="snow-top-3.svg"
   inkscape:version="0.92.1 r"&gt;
  <path d="m24.627.009c8.36-.339 9.455 9.523 4.064 9.505-.686.003-1.62-.197-3-1.471-14.665-10.216-14.549 2.967-17.708.875-1.727-1.822-1.743 4.653-4.139 5.127-2.122.613-3.699-1.385-3.824-4.503-.366-8.627 4.086-9.427 7.187-9.524 5.974.133 11.562-.045 17.419-.01" fill="url(#0)"/></svg>