<svg xmlns="http://www.w3.org/2000/svg" xmlns:xlink="http://www.w3.org/1999/xlink" viewBox="0 0 32 32"><defs><linearGradient xlink:href="#3" id="4" x1="-227.98" y1="-131.26" x2="-234.8" y2="-134.14" gradientUnits="userSpaceOnUse"/><linearGradient xlink:href="#3" id="2" x1="-241.01" y1="-141.61" x2="-226.57" y2="-129.44" gradientUnits="userSpaceOnUse"/><linearGradient id="3"><stop stop-color="#13a9ea"/><stop offset="1" stop-color="#372db5"/></linearGradient><linearGradient id="1"><stop stop-color="#f9f9f9"/><stop offset="1" stop-color="#999"/></linearGradient><linearGradient xlink:href="#1" id="0" x1="-239.23" y1="-133.21" x2="-241.87" y2="-125.28" gradientUnits="userSpaceOnUse"/><radialGradient xlink:href="#1" id="5" cx="-176.59" cy="-120.91" r="3.01" gradientUnits="userSpaceOnUse" gradientTransform="matrix(2.21087.05719-.05496 2.12455 156.08 146.14)"/></defs><rect width="28.2" height="28.2" x="1.898" y="1.898" fill="#fecd38" fill-rule="evenodd" rx="5.575"/><path d="m16.02433 4.609767a1.041385 1.067501 0 0 0 -.545067 .143369L6.758 9.915A1.041385 1.067501 0 0 0 6.236965 10.83865v10.324a1.041385 1.067501 0 0 0 .520465 .924067l8.722 5.161a1.041385 1.067501 0 0 0 1.040897 0l8.721-5.162a1.041385 1.067501 0 0 0 .521506 -.923416V10.838A1.041385 1.067501 0 0 0 25.24153 9.914745L16.521 4.753A1.041385 1.067501 0 0 0 16.02488 4.610011" fill="#fff"/><path d="m12.299 23.14c-.036-.036-.066-.168-.066-.294 0-.281-.153-.297-.295-.033-.168.313-.306.227-.275-.172.022-.287-.004-.359-.119-.33-.657.169-.661.163-.221-.315.47-.511.556-.819.197-.706-.122.038-.475.093-.786.121-.956.088-1.941-.533-1.941-1.223 0-.291.508-.699 1.24-.995.372-.15.688-.335.702-.411.014-.076-.131-.238-.323-.361-.438-.282-.684-.677-.943-1.52-.299-.969-.233-2.645.148-3.748 1.319-3.826 5.156-5.413 8.775-3.631 2.317 1.141 3.99 2.948 4.355 4.701.099.475.089.577-.087.922-.232.454-.75.999-.95.999-.076 0-.26-.143-.408-.319-.387-.459-2.135-2.186-2.863-2.829l-.622-.549.069-.551c.066-.527.058-.556-.186-.667-.371-.168-.887-.003-.931.298-.024.17.102.367.488.757l.521.527-.586.001c-1.064.002-1.27.171-.746.611.388.326.523.612.489 1.037l-.029.361.464-.024c.357-.018.464.01.464.123 0 .081-.044.146-.098.146-.163 0-.11.277.074.386.134.079.144.12.046.184-.069.046-.098.157-.063.247.095.247-.1.203-.861-.196-.628-.329-.707-.406-.927-.904-.391-.882-.724-1.117-.724-.511 0 .15-.093.622-.207 1.048-.362 1.358-.405 1.217.367 1.218.774.001 1.334.131 1.519.353.135.163.152.609.043 1.186-.063.335-.056.346.185.285.235-.059.247-.044.191.233-.057.285-.047.296.297.296.196 0 .356.044.356.098 0 .054-.036.098-.079.098-.044 0-.165.062-.269.138-.186.136-.186.142-.004.343.212.234.188.243-.582.208-.581-.027-.703-.108-.79-.524-.101-.486-.326-.789-.486-.657-.304.252.284 1.288 1.016 1.79 1.033.709 2.212.876 3.297.465.738-.279 1.808-1.316 2.399-2.322.659-1.122.803-1.102.563.077-.398 1.961-1.749 3.436-3.731 4.074-.636.205-.989.256-1.777.257-1.641.003-2.58-.458-4.099-2.01-.956-.975-1.24-1.05-.751-.197l.314.547-.317.965c-.174.531-.329.965-.343.965-.015 0-.056-.029-.092-.065zm.436-5.29c-.852-1.701-1.042-2.386-1.042-3.765 0-1.034.022-1.169.264-1.626.732-1.384 2.296-2.193 4.249-2.197.916-.002 1.952.159 2.367.368.511.257 1.239.924 1.983 1.816.871 1.044.942 1.243.304.855-.177-.108-.418-.196-.535-.196-.377-.001-.517-.11-.582-.456-.047-.248-.183-.43-.513-.681-.744-.567-1.027-.312-.513.462.434.653 2.823 2.949 3.03 2.911.3-.056.53-.656.481-1.258-.083-1.018-.801-2.076-1.924-2.835-1.025-.692-2.969-1.576-3.845-1.748-2.791-.549-5.515 1.187-5.916 3.77-.24 1.547.617 3.592 2.222 5.302.266.284.501.5.521.48.02-.02-.227-.561-.548-1.202" fill="#3f3f3f"/><g transform="matrix(-1 0 0 1-223.97 142.77)"><g fill="#f9f9f9"><path d="m-228.95-129.3l-.27 2.221-.122-2.378z"/><path d="m-228.66-130.01l-.27 2.221-.122-2.378z"/><path d="m-228.43-129.95l-.27 1.6-.122-1.713z"/></g><path d="m-241.31-142.31c-5.577-1.531-5.951 3.24-4.58 5.493 4.381 6.983 6.796 6.577 9.398 7.895 1.712 2.064 3.451 3.4 6.469 4.1 11.69 1.559 3.242-8.417.92-8.649-5.065.012-7.547-6.123-12.206-8.838" fill="url(#0)"/><path d="m-241.31-142.31c3.76.276 5.616-.626 8.93-.421 4.319.283 8.307 2.053 7.838 6.574-.347 2.567-.37 2.25.186 4.296.532 1.535-.252 4.232-.487 4.654-2.715 4.963-1.536 4.965-2.656 7.742l-.906-.418-2.508-11.358c-7.177-.909-10.754-10.11-10.398-11.07" fill="url(#2)"/><path d="m-234.52-132.37c.362.274 1.553-5.105 1.172-5.653 1.379 2.44 1.919 4.616 2.435 6.783-1.276-.283-2.289-.554-3.607-1.13" fill="url(#4)"/><circle r="3.01" cy="-119.15" cx="-227.83" fill="url(#5)"/></g></svg>