<svg xmlns="http://www.w3.org/2000/svg" xmlns:xlink="http://www.w3.org/1999/xlink" viewBox="0 0 32 32"><defs><linearGradient xlink:href="#3" id="4" gradientUnits="userSpaceOnUse" x1="-23.24" y1="-185.08" x2="-28.704" y2="-186.05"/><linearGradient xlink:href="#3" id="2" gradientUnits="userSpaceOnUse" x1="-34.914" y1="-193.53" x2="-20.469" y2="-181.36"/><linearGradient id="3"><stop stop-color="#ffff5e"/><stop offset="1" stop-color="#f6a32d"/></linearGradient><linearGradient id="1"><stop stop-color="#f9f9f9"/><stop offset="1" stop-color="#999"/></linearGradient><linearGradient xlink:href="#1" id="0" gradientUnits="userSpaceOnUse" x1="-33.14" y1="-185.13" x2="-35.775" y2="-177.2"/><radialGradient xlink:href="#1" id="5" cx="-176.59" cy="-120.91" r="3.01" gradientUnits="userSpaceOnUse" gradientTransform="matrix(2.21087.05719-.05496 2.12455 362.18 94.22)"/></defs><g transform="translate(55.19-.678)"><g fill-rule="evenodd"><path d="m-26.457 28.768c-.298.074-.67.168-.67.168h-24.15c-.113 0-.393-.096-.617-.133 1.021 1.187 2.484 1.977 4.18 1.977h17.05c1.711 0 3.182-.806 4.203-2.01" fill="#999"/><path d="m-25.12 25.36v-10.711c0-.461-.222-.866-.563-1.123l.006-.008-13.529-9.938c0 0-13.528 9.951-13.445 9.889v-.002c-.029.019-.057.042-.084.063l-.016.012v.002c-.328.257-.543.654-.543 1.105v10.557c0 1.393.558 2.623 1.396 3.598.224.037.505.133.617.133h24.15c0 0 .372-.094.67-.168.789-.932 1.304-2.095 1.342-3.408" fill="#fe9700"/><path d="m-47.713 2.576c-3.089 0-5.576 2.488-5.576 5.576v6.496c0-.451.215-.848.543-1.105v-.002l.016-.012c.027-.021.055-.044.084-.063v.002c-.083.062 13.445-9.889 13.445-9.889l13.529 9.938-.006.008c.341.257.563.662.563 1.123v10.711c.002-.054.031-.099.031-.154v-17.05c0-3.089-2.488-5.576-5.576-5.576z" fill="#999"/></g><rect x="-50.27" y="6.598" width="22.14" height="18.11" ry="1.508" rx="1.509" fill="#ebebeb" stroke-width="1.01"/><g fill-rule="evenodd"><path d="m-25.12 25.36v-10.711l-23.14 16.02c.188.019.351.109.545.109h17.05c3.034 0 5.459-2.408 5.545-5.42" fill="#fecd38"/><path d="m-39.2 24.401l-14.09-9.752v10.557c0 2.895 2.212 5.18 5.03 5.465z" fill="#fec006"/></g><path d="m-39.19 9.712l-4 5h2v4.5c0 .326.183.5.5.5h3c.317 0 .5-.174.5-.5v-4.5h2z" fill="#848484"/></g><g transform="translate(49.877 194.68)"><path d="m-35.21-194.22c-5.577-1.531-5.951 3.24-4.58 5.493 4.381 6.983 6.796 6.577 9.398 7.895 1.712 2.064 3.451 3.4 6.469 4.1 11.69 1.559 3.242-8.417.92-8.649-5.065.012-7.547-6.123-12.206-8.838" fill="url(#0)"/><path d="m-35.21-194.22c3.76.276 5.616-.626 8.93-.421 4.319.283 8.307 2.053 7.838 6.574-.347 2.567-.37 2.25.186 4.296.532 1.535-.252 4.232-.487 4.654-2.715 4.963-1.536 4.965-2.656 7.742l-.906-.418-2.508-11.358c-7.177-.909-10.754-10.11-10.398-11.07" fill="url(#2)"/><path d="m-28.419-184.29c.362.274 1.553-5.105 1.172-5.653 1.379 2.44 1.919 4.616 2.435 6.783-1.276-.283-2.289-.554-3.607-1.13" fill="url(#4)"/><circle r="3.01" cy="-171.07" cx="-21.728" fill="url(#5)"/></g></svg>