<svg xmlns="http://www.w3.org/2000/svg" viewBox="0 0 32 32"><defs><clipPath><circle cx="286" cy="26" r="10" fill="none"/></clipPath><clipPath><circle cx="286" cy="26" r="10" fill="none"/></clipPath><linearGradient gradientTransform="matrix(2.54182 0 0 2.58531-153.47-277.37)" id="0" x1="67.894" y1="108.69" x2="67.854" y2="113.11" gradientUnits="userSpaceOnUse"><stop stop-color="#f9f9f9"/><stop offset="1" stop-color="#999"/></linearGradient></defs><rect width="28.2" height="28.2" x="1.898" y="1.898" fill="#ccc" fill-rule="evenodd" rx="5.575"/><g fill="#e74c3c"><path d="m13.701 12c-1.487 0-2.701 1.117-2.701 2.5 0 .72.326 1.377.848 1.833l4.085 3.667 4.219-3.667c.523-.456.848-1.113.848-1.833 0-1.383-1.214-2.5-2.701-2.5-.979 0-1.828.481-2.299 1.208-.471-.727-1.32-1.208-2.299-1.208"/><path d="m8.08 10c-.595 0-1.08.419-1.08.938 0 .269.13.516.339.687l1.634 1.375 1.688-1.375c.209-.171.339-.418.339-.687 0-.519-.486-.938-1.08-.938-.392 0-.731.18-.92.453-.188-.273-.528-.453-.92-.453"/><path d="m9.904 8.271h-1.613l-.255.729h-1.037l1.482-4h1.23l1.482 4h-1.037m-1.608-1.471h1.096l-.547-1.592-.549 1.591"/><path d="m23.92 22c.594 0 1.08-.419 1.08-.938 0-.269-.13-.516-.339-.687l-1.634-1.375-1.688 1.375c-.209.171-.339.418-.339.687 0 .519.486.938 1.08.938.392 0 .732-.18.92-.453.188.273.528.453.92.453"/><path d="m22.1 23.729h1.613l.254-.729h1.037l-1.482 4h-1.23l-1.482-4h1.037l.252.729m1.356.742h-1.096l.547 1.591.549-1.591"/></g>

   xmlns:dc="http://purl.org/dc/elements/1.1/"
   xmlns:cc="http://creativecommons.org/ns#"
   xmlns:rdf="http://www.w3.org/1999/02/22-rdf-syntax-ns#"
   xmlns:svg="http://www.w3.org/2000/svg"
   xmlns="http://www.w3.org/2000/svg"
   xmlns:xlink="http://www.w3.org/1999/xlink"
   xmlns:sodipodi="http://sodipodi.sourceforge.net/DTD/sodipodi-0.dtd"
   xmlns:inkscape="http://www.inkscape.org/namespaces/inkscape"
   height="32"
   width="32"
   version="1"
   id="svg8"
   sodipodi:docname="snow-top-2.svg"
   inkscape:version="0.92.1 r"&gt;
  <path d="m24.646 6.111c2.995 2.684 1.381 7.817 3.674 8.291 2.031.613 3.541-1.385 3.66-4.503.35-8.627-3.911-9.427-6.879-9.524-28.342-2.047-1.762 4.92-.455 5.736" fill="url(#0)"/></svg>