<svg xmlns="http://www.w3.org/2000/svg" viewBox="0 0 32 32"><defs><clipPath><circle cx="286" cy="26" r="10" fill="none"/></clipPath><clipPath><circle cx="286" cy="26" r="10" fill="none"/></clipPath><linearGradient gradientTransform="matrix(2.59244 0 0 2.58531-157.93-277.73)" id="0" x1="67.894" y1="108.69" x2="67.854" y2="113.11" gradientUnits="userSpaceOnUse"><stop stop-color="#f9f9f9"/><stop offset="1" stop-color="#999"/></linearGradient></defs><rect width="28.2" height="28.2" x="1.898" y="1.898" fill="#2c80c2" fill-rule="evenodd" rx="5.575"/><circle cx="16" cy="16" r="10.504" fill="#37a0f2"/><path d="m15.00782 5.55285a10.503546 10.503546 0 0 0 -3.801395 1.10263c.053.168-.009.358-.202.525-.131.113-.238.29-.238.393 0 .315.285.799.512.869.302.094.201.416-.188.594-.179.083-.4.32-.491.527-.091.208-.224.413-.296.455-.072.043-.131.205-.131.361 0 .218.099.323.427.454.234.094.515.162.624.152.625-.059.669.305.122 1.018-.29.378-.43.473-.628.426-.185-.044-.285.008-.369.191-.089.193-.233.259-.623.286-.383.026-.554.104-.698.314-.105.153-.256.277-.336.277-.081 0-.27.103-.421.228-.307.255-.427.281-.534.114-.142-.221-.449-.109-.906.328-.404.387-.453.49-.392.826.108.597.432 1.127.802 1.312.323.161.329.179.133.386-.113.119-.306.247-.429.284-.356.108-.155.244.479.324.649.082.851.318.548.639-.169.179-.16.212.112.383.531.334.952.129.454-.219-.32-.224-.096-.315.373-.153.374.13.448.122.67-.07.454-.393.948.188.532.628-.264.28-.184.617.158.664.151.021.465.161.699.313.233.152.487.276.564.276.077 0 .293.154.481.342.381.381.593.429.701.161.129-.323.077-.489-.271-.869-.277-.302-.727-1.106-.727-1.299 0-.119.458-.018.714.157.16.11.42.251.576.315.167.068.34.281.42.513.124.364.173.396.609.396h.475l.072.853c.086 1.027.169 1.234.521 1.319.26.062.536.464.536.779 0 .084-.187.288-.414.454-.283.206-.404.382-.386.554.023.215-.025.248-.329.226-.196-.015-.536.054-.755.153-.259.117-.539.154-.802.107-.303-.054-.405-.033-.405.085 0 .087-.106.25-.235.362-.32.277-.188.423.303.335.305-.055.423-.03.476.101.112.279-.172.678-.435.612-.167-.042-.247.015-.298.212-.018.07-.051.129-.09.18a10.503546 10.503546 0 0 0 1.661669 .491316c-.052-.101-.112-.192-.17-.233-.271-.191-.09-.688.283-.778.379-.091.32-.337-.093-.385-.361-.041-.747-.407-.626-.595.081-.126.427-.107 1.127.058.316.075.532-.075 1.265-.877.424-.464.75-.657 1.108-.657.136 0 .623-.125 1.082-.279.867-.29 1.205-.279 1.173.037-.066.658.358.637 1.048-.053.288-.288.551-.495.585-.463.132.126-.105.743-.383.992-.351.316-.369.515-.059.674.169.087.241.263.268.659l.036.54h.439c.154 0 .281.021.385.061a10.503546 10.503546 0 0 0 5.088645 -8.668658c-.161-.343-.149-.551 0-.785a10.503546 10.503546 0 0 0 -.04718 -.588773c-.096-.004-.193-.009-.306-.004-.529.022-.983-.187-.983-.452 0-.056-.188-.287-.417-.514-.26-.257-.394-.483-.355-.601.035-.107-.041-.28-.176-.397-.132-.114-.24-.298-.24-.408 0-.176-.112-.198-.921-.178l-.921.023.015.908c.027 1.59.264 2 .995 1.737.335-.122 1.156-.03 1.39.156.085.067.207.311.272.542.065.231.306.63.535.887.466.521.502.724.235 1.335-.233.533-.483.472-.434-.107l.037-.431-.394.074c-.218.041-.491.202-.613.361-.174.226-.256.26-.387.156-.091-.072-.165-.225-.165-.338 0-.113-.113-.239-.249-.281-.137-.042-.324-.248-.416-.46-.148-.338-.144-.442.028-.852.174-.417.176-.485.015-.639-.147-.141-.223-.145-.416-.03-.194.116-.286.108-.517-.047-.154-.104-.423-.189-.598-.189-.355 0-.462-.172-.462-.743 0-.527-.314-.718-1.062-.649-.519.048-.634.014-1.052-.309-.259-.199-.667-.678-.909-1.066-.242-.388-.502-.793-.577-.9-.109-.155-.083-.303.131-.725l.27-.53-.57.077c-1.015.137-1.22.269-.784.503.17.091.177.138.046.289-.086.099-.126.256-.089.349.037.093-.01.311-.105.485-.095.174-.174.418-.177.544-.01.392-.68.703-1.427.662-1.131-.062-1.223-.045-1.625.328-.502.466-.567.683-.333 1.116.227.42.629.587 1.325.553.623-.031.693.024.551.436-.121.35-.528.484-.803.266-.212-.169-.944-.038-1.168.208-.094.103-.234.374-.31.601-.131.392-.17.416-.758.473-.587.057-.643.038-1.066-.351-.471-.434-.551-.766-.324-1.338.101-.253.176-.294.444-.245.533.097.743-.088.743-.656 0-.276-.054-.534-.119-.572-.065-.039-.119-.185-.119-.325 0-.14-.067-.321-.149-.4-.119-.116-.102-.178.088-.312.13-.092.345-.154.476-.138.131.016.493-.041.804-.125.45-.122.582-.214.643-.45.116-.45.398-.81.634-.81.374 0 .381-.878.018-2.155C13.585 9.105 13.438 8.985 13.177 8.92 12.966 8.868 12.736 8.724 12.667 8.6 12.598 8.477 12.471 8.376 12.386 8.376c-.086 0-.253-.103-.371-.228C11.895 8.02 11.649 7.92 11.461 7.92c-.444 0-.451-.306-.011-.467.465-.17 1.188.053 1.363.421.237.498.5.29.585-.463.105-.931.426-1.199 1.439-1.199h.728l-.319-.319C15.15 5.794 15.06 5.672 15.01 5.553m3.776.33c-.02.018-.04.034-.061.054-.244.249-.358.284-.734.227-.657-.1-.573.164.155.484.394.173.646.37.732.569.415.962.701 1.48.844 1.532.29.107.463-.108.527-.654.074-.628.286-.761.668-.417.148.133.355.242.46.242.326 0 .567.131.567.308 0 .093.11.318.245.5.199.267.334.331.706.331.456 0 .736.085 1.308.401.009.005.018.007.027.011A10.503546 10.503546 0 0 0 18.784678 5.883014M5.498961 15.954423a10.503546 10.503546 0 0 0 -.00202 .04525 10.503546 10.503546 0 0 0 .205142 2.01749c.381.155.486.094.525-.261.02-.183.116-.391.213-.463.15-.111.123-.167-.185-.377C6.06 16.781 5.86 16.543 5.82 16.389 5.781 16.24 5.649 16.08 5.499 15.954m3.306 3.472c-.098-.01-.216.043-.348.168-.278.266-.236.8.079 1.011C8.897 20.848 9.04 20.778 9.08 20.331 9.138 19.781 9.02 19.449 8.805 19.427m1.783 1.588c-.107.004-.225.081-.344.242-.125.171-.16.393-.112.728.059.413.033.501-.183.611-.277.142-.337.564-.11.782.226.216.441.16.519-.136.111-.422.728-.472 1.151-.092.18.162.327.244.327.182 0-.062-.188-.287-.416-.5-.351-.325-.415-.464-.415-.883 0-.592-.181-.941-.417-.933zm-2.927418 1.356007a10.503546 10.503546 0 0 0 .243101 .306696C7.832 22.567 7.75 22.461 7.66 22.371m3.54 1.612c-.053.018-.076.085-.076.202 0 .119-.076.243-.168.277-.123.045-.151.187-.104.527.009.064.011.115.014.167a10.503546 10.503546 0 0 0 .436964 .224639c-.007-.182.026-.396.121-.664.161-.455.167-.569.036-.648-.123-.075-.207-.104-.261-.086z" fill="#2c80c2"/><g stroke-width=".612"><path d="m24.821 27.791h-7.959v-3.98h7.959z" fill="#b7b7b7"/><rect rx=".557" ry=".564" height="6.765" width="11.143" y="-24.21" x="-26.413" transform="scale(-1-1)" fill="#999"/></g><g transform="matrix(-.39797 0 0-.39797 27.21 28.985)" fill="#808080" stroke-width="1.537"><path d="m8 16h16v2h-16z"/><path d="m10 20h12v2h-12z"/><path d="m12 24h8v2h-8z"/></g><g fill="#808080" stroke-width=".612" transform="scale(-1-1)"><path d="m-24.02-26.995h1.99v1.194h-1.99z"/><path d="m-19.647-26.995h1.99v1.194h-1.99z"/></g>

   xmlns:dc="http://purl.org/dc/elements/1.1/"
   xmlns:cc="http://creativecommons.org/ns#"
   xmlns:rdf="http://www.w3.org/1999/02/22-rdf-syntax-ns#"
   xmlns:svg="http://www.w3.org/2000/svg"
   xmlns="http://www.w3.org/2000/svg"
   xmlns:xlink="http://www.w3.org/1999/xlink"
   xmlns:sodipodi="http://sodipodi.sourceforge.net/DTD/sodipodi-0.dtd"
   xmlns:inkscape="http://www.inkscape.org/namespaces/inkscape"
   version="1"
   width="32"
   height="32"
   id="svg12"
   sodipodi:docname="snow-top-4.svg"
   inkscape:version="0.92.1 r"&gt;
  <path d="m7.196.009c-8.161-.339-9.231 9.523-3.968 9.505.669.003 1.581-.197 2.929-1.471 3.773-4.147 9.01 4.479 14.696-1.042.61-.911 1.804-1.135 2.455-.627 1.045.677 2.87 2.991 3.88 3 2.359.513 4.095-.198 4.816-3.188.185-3.165-2.303-6.286-6.281-6.17-5.832.133-12.809-.045-18.527-.01" fill="url(#0)"/></svg>