<svg xmlns="http://www.w3.org/2000/svg" viewBox="0 0 32 32"><defs><linearGradient gradientTransform="matrix(2.54182 0 0 2.58531-153.47-277.37)" id="0" x1="67.894" y1="108.69" x2="67.854" y2="113.11" gradientUnits="userSpaceOnUse"><stop stop-color="#f9f9f9"/><stop offset="1" stop-color="#999"/></linearGradient></defs><g fill-rule="evenodd"><rect width="28.2" height="28.2" x="1.898" y="1.898" fill="#0286c2" rx="5.575"/><g transform="translate(53.674 1.021)"><g fill="#2297fd"><path d="m-34.627 11.629v3.143h1.838c.629 0 1.101-.132 1.416-.395.32-.263.48-.659.48-1.189 0-.52-.158-.909-.473-1.166-.315-.263-.789-.393-1.424-.393z"/><path d="m-34.627 6.982v2.539h1.732c.494 0 .868-.106 1.123-.32.255-.214.383-.531.383-.949 0-.413-.128-.725-.383-.939-.255-.22-.629-.33-1.123-.33z"/></g><path d="m-37.76 4.877v12h5.199c.808 0 1.513-.071 2.115-.213.602-.142 1.102-.355 1.498-.639.396-.284.693-.643.891-1.074.198-.431.297-.935.297-1.514 0-.756-.184-1.394-.553-1.914-.369-.52-.89-.875-1.563-1.068.526-.198.926-.501 1.203-.908.277-.413.416-.912.416-1.496 0-.555-.095-1.032-.285-1.436-.19-.403-.474-.731-.854-.982-.377-.252-.872-.44-1.482-.566-.61-.126-1.336-.189-2.18-.189m-1.57 2.105h1.732c.494 0 .868.11 1.123.33.255.214.383.527.383.939 0 .418-.128.735-.383.949-.255.214-.629.32-1.123.32h-1.732zm0 4.646h1.838c.635 0 1.109.13 1.424.393.315.257.473.646.473 1.166 0 .53-.16.927-.48 1.189-.315.263-.787.395-1.416.395h-1.838z" fill="#fff"/><path d="m-31.76 20.877v7.5c0 .275-.162.482-.291.703h2.904c3.089 0 5.574-2.486 5.574-5.574v-2.914c-.218.123-.418.285-.688.285z" fill="#0286c2"/><path d="m-43.693 19.537l-.635 1.928h3.137l-.193-.588h-.875c-.416 0-.791-.168-1.063-.439-.23-.23-.33-.56-.371-.9" fill="#f3443f"/><path d="m-43.76 13.877h-.76l-4.24 12h2.967l.729-2.186h4.617l.721 2.186h2.967l-1.768-5h-2.857l.193.588h-3.137l.635-1.928c-.007-.061-.066-.097-.066-.16z" fill="#fff"/><path d="m-51.26 8.877c-.202 0-.34.141-.516.213v14.416c0 3.089 2.486 5.574 5.574 5.574h14.15c.129-.221.291-.428.291-.703v-7.5h-6.768l1.768 5h-2.967l-.721-2.186h-4.617l-.729 2.186h-2.967l4.24-12h.76v-5" fill="#f3443f"/><path d="m-46.2.877c-3.089 0-5.574 2.488-5.574 5.576v2.637c.175-.072.314-.213.516-.213h7.5v-7.5c0-.195.138-.329.205-.5z" fill="#0286c2"/><path d="m-43.555.877c-.067.171-.205.305-.205.5v18c0 .416.166.789.438 1.061.271.271.647.439 1.063.439h18c.269 0 .469-.162.688-.285v-14.14c0-3.089-2.486-5.576-5.574-5.576zm5.795 4h4.703c.844 0 1.569.064 2.18.189.61.126 1.105.315 1.482.566.38.252.664.579.854.982.19.403.285.881.285 1.436 0 .584-.139 1.084-.416 1.496-.277.407-.677.71-1.203.908.673.193 1.194.549 1.563 1.068.369.52.553 1.159.553 1.914 0 .579-.099 1.082-.297 1.514-.198.431-.495.79-.891 1.074-.396.284-.896.497-1.498.639-.602.142-1.307.213-2.115.213h-5.199z" fill="#2297fd"/></g></g>

   xmlns:dc="http://purl.org/dc/elements/1.1/"
   xmlns:cc="http://creativecommons.org/ns#"
   xmlns:rdf="http://www.w3.org/1999/02/22-rdf-syntax-ns#"
   xmlns:svg="http://www.w3.org/2000/svg"
   xmlns="http://www.w3.org/2000/svg"
   xmlns:xlink="http://www.w3.org/1999/xlink"
   xmlns:sodipodi="http://sodipodi.sourceforge.net/DTD/sodipodi-0.dtd"
   xmlns:inkscape="http://www.inkscape.org/namespaces/inkscape"
   height="32"
   width="32"
   version="1"
   id="svg8"
   sodipodi:docname="snow-top-2.svg"
   inkscape:version="0.92.1 r"&gt;
  <path d="m24.646 6.111c2.995 2.684 1.381 7.817 3.674 8.291 2.031.613 3.541-1.385 3.66-4.503.35-8.627-3.911-9.427-6.879-9.524-28.342-2.047-1.762 4.92-.455 5.736" fill="url(#0)"/></svg>