<svg xmlns="http://www.w3.org/2000/svg" viewBox="0 0 32 32"><defs><linearGradient gradientTransform="matrix(2.54182 0 0 2.58531-153.47-277.37)" id="0" x1="67.894" y1="108.69" x2="67.854" y2="113.11" gradientUnits="userSpaceOnUse"><stop stop-color="#f9f9f9"/><stop offset="1" stop-color="#999"/></linearGradient></defs><g fill-rule="evenodd"><path d="M17.02734 5.775391A3.067664 3.067664 0 0 0 16.810547 5.78125 3.067664 3.067664 0 0 0 16.505859 5.818359 3.067664 3.067664 0 0 0 16.207031 5.886719 3.067664 3.067664 0 0 0 15.916016 5.982422 3.067664 3.067664 0 0 0 15.636719 6.107422 3.067664 3.067664 0 0 0 15.371094 6.261719 3.067664 3.067664 0 0 0 15.12109 6.439453 3.067664 3.067664 0 0 0 14.890625 6.640625 3.067664 3.067664 0 0 0 14.681641 6.865234 3.067664 3.067664 0 0 0 14.496094 7.109375 3.067664 3.067664 0 0 0 14.335938 7.371094 3.067664 3.067664 0 0 0 14.203125 7.648438 3.067664 3.067664 0 0 0 14.09766 7.935547 3.067664 3.067664 0 0 0 14.02148 8.232422 3.067664 3.067664 0 0 0 13.974609 8.535156 3.067664 3.067664 0 0 0 13.960938 8.841797 3.067664 3.067664 0 0 0 13.966797 9.05859 3.067664 3.067664 0 0 0 14.00391 9.363281 3.067664 3.067664 0 0 0 14.07227 9.662109 3.067664 3.067664 0 0 0 14.167969 9.953125 3.067664 3.067664 0 0 0 14.292969 10.234375 3.067664 3.067664 0 0 0 14.447266 10.5 3.067664 3.067664 0 0 0 14.625 10.748047 3.067664 3.067664 0 0 0 14.826172 10.978516 3.067664 3.067664 0 0 0 15.05078 11.1875 3.067664 3.067664 0 0 0 15.294922 11.373047 3.067664 3.067664 0 0 0 15.556641 11.535156 3.067664 3.067664 0 0 0 15.833984 11.667969 3.067664 3.067664 0 0 0 16.12109 11.773438 3.067664 3.067664 0 0 0 16.417969 11.847656 3.067664 3.067664 0 0 0 16.720703 11.894531 3.067664 3.067664 0 0 0 17.02734 11.910156 3.067664 3.067664 0 0 0 17.244141 11.902344 3.067664 3.067664 0 0 0 17.548828 11.865234 3.067664 3.067664 0 0 0 17.847656 11.798828 3.067664 3.067664 0 0 0 18.13867 11.701172 3.067664 3.067664 0 0 0 18.419922 11.576172 3.067664 3.067664 0 0 0 18.685547 11.423828 3.067664 3.067664 0 0 0 18.933594 11.244141 3.067664 3.067664 0 0 0 19.16406 11.04297 3.067664 3.067664 0 0 0 19.373047 10.818359 3.067664 3.067664 0 0 0 19.558594 10.574219 3.067664 3.067664 0 0 0 19.720703 10.3125 3.067664 3.067664 0 0 0 19.853516 10.03711 3.067664 3.067664 0 0 0 19.958984 9.748047 3.067664 3.067664 0 0 0 20.03516 9.451172 3.067664 3.067664 0 0 0 20.08008 9.148438 3.067664 3.067664 0 0 0 20.0957 8.841797 3.067664 3.067664 0 0 0 20.08789 8.625 3.067664 3.067664 0 0 0 20.05078 8.320313 3.067664 3.067664 0 0 0 19.984375 8.02148 3.067664 3.067664 0 0 0 19.886719 7.730469 3.067664 3.067664 0 0 0 19.761719 7.451172 3.067664 3.067664 0 0 0 19.609375 7.185547 3.067664 3.067664 0 0 0 19.429688 6.935547 3.067664 3.067664 0 0 0 19.228516 6.705078 3.067664 3.067664 0 0 0 19.00391 6.496094 3.067664 3.067664 0 0 0 18.759766 6.310547 3.067664 3.067664 0 0 0 18.498047 6.150391 3.067664 3.067664 0 0 0 18.222656 6.01758 3.067664 3.067664 0 0 0 17.933594 5.912109 3.067664 3.067664 0 0 0 17.636719 5.835938 3.067664 3.067664 0 0 0 17.333984 5.789063 3.067664 3.067664 0 0 0 17.02734 5.775391" fill="#fff"/><path d="m15.508 1.898c-.474.076-.978.082-1.412.236-.829.295-1.574.731-2.201 1.289-.627.558-1.134 1.238-1.484 2.027-.35.789-.545 1.688-.545 2.676 0 .988.211 1.868.576 2.648.365.78.885 1.462 1.506 2.049.621.587 1.34 1.081 2.107 1.488.767.408 1.581.73 2.385.973.786.237 1.633.6 2.463 1.074.83.474 1.642 1.059 2.355 1.736.714.678 1.329 1.448 1.766 2.297.437.849.695 1.777.695 2.766 0 .988-.192 1.929-.543 2.785-.351.856-.858 1.628-1.484 2.275-.627.648-1.374 1.173-2.203 1.535-.512.224-1.1.257-1.666.348h.982 5.723c3.089 0 5.574-2.486 5.574-5.574v-6.262-4.531-6.262c0-3.089-2.486-5.574-5.574-5.574h-5.723-3.297m1.519532 3.876953a3.067664 3.067664 0 0 1 .30664 .013672 3.067664 3.067664 0 0 1 .302735 .046875 3.067664 3.067664 0 0 1 .296875 .076172 3.067664 3.067664 0 0 1 .289062 .105469 3.067664 3.067664 0 0 1 .275391 .132813 3.067664 3.067664 0 0 1 .261719 .160156 3.067664 3.067664 0 0 1 .24414 .185547 3.067664 3.067664 0 0 1 .22461 .208984 3.067664 3.067664 0 0 1 .201172 .230469 3.067664 3.067664 0 0 1 .179687 .25 3.067664 3.067664 0 0 1 .152344 .265625 3.067664 3.067664 0 0 1 .125 .279297 3.067664 3.067664 0 0 1 .097656 .291016 3.067664 3.067664 0 0 1 .066406 .298828 3.067664 3.067664 0 0 1 .03711 .304688 3.067664 3.067664 0 0 1 .007812 .216797 3.067664 3.067664 0 0 1 -.015625 .306641 3.067664 3.067664 0 0 1 -.044922 .302734 3.067664 3.067664 0 0 1 -.076172 .296875 3.067664 3.067664 0 0 1 -.105468 .289062 3.067664 3.067664 0 0 1 -.132813 .275391 3.067664 3.067664 0 0 1 -.162109 .261719 3.067664 3.067664 0 0 1 -.185547 .24414 3.067664 3.067664 0 0 1 -.208985 .22461 3.067664 3.067664 0 0 1 -.230468 .201172 3.067664 3.067664 0 0 1 -.248047 .179687 3.067664 3.067664 0 0 1 -.265625 .152344 3.067664 3.067664 0 0 1 -.28125 .125 3.067664 3.067664 0 0 1 -.291016 .097656 3.067664 3.067664 0 0 1 -.298828 .066406 3.067664 3.067664 0 0 1 -.304687 .03711 3.067664 3.067664 0 0 1 -.216797 .007812 3.067664 3.067664 0 0 1 -.306641 -.015625 3.067664 3.067664 0 0 1 -.302734 -.046875 3.067664 3.067664 0 0 1 -.296875 -.074218 3.067664 3.067664 0 0 1 -.28711 -.105469 3.067664 3.067664 0 0 1 -.277343 -.132813 3.067664 3.067664 0 0 1 -.261719 -.162109 3.067664 3.067664 0 0 1 -.244141 -.185547 3.067664 3.067664 0 0 1 -.224609 -.208984 3.067664 3.067664 0 0 1 -.201172 -.230469 3.067664 3.067664 0 0 1 -.177734 -.248047 3.067664 3.067664 0 0 1 -.154297 -.265625 3.067664 3.067664 0 0 1 -.125 -.28125 3.067664 3.067664 0 0 1 -.095703 -.291016 3.067664 3.067664 0 0 1 -.06836 -.298828 3.067664 3.067664 0 0 1 -.037109 -.304687 3.067664 3.067664 0 0 1 -.005859 -.216797 3.067664 3.067664 0 0 1 .013671 -.306641 3.067664 3.067664 0 0 1 .046875 -.302734 3.067664 3.067664 0 0 1 .076172 -.296875 3.067664 3.067664 0 0 1 .105469 -.287109 3.067664 3.067664 0 0 1 .132813 -.277344 3.067664 3.067664 0 0 1 .160156 -.261719 3.067664 3.067664 0 0 1 .185547 -.244141 3.067664 3.067664 0 0 1 .208984 -.224609 3.067664 3.067664 0 0 1 .230469 -.201172 3.067664 3.067664 0 0 1 .25 -.177734 3.067664 3.067664 0 0 1 .265625 -.154297 3.067664 3.067664 0 0 1 .279297 -.125 3.067664 3.067664 0 0 1 .291015 -.095703 3.067664 3.067664 0 0 1 .298828 -.068359 3.067664 3.067664 0 0 1 .304688 -.037109 3.067664 3.067664 0 0 1 .216797 -.005859" fill="#f65e5e"/><path d="m16.492 30.1h1.33c.566-.091 1.154-.124 1.666-.348.829-.362 1.576-.887 2.203-1.535.627-.648 1.134-1.419 1.484-2.275.351-.856.543-1.797.543-2.785 0-.988-.258-1.916-.695-2.766-.437-.849-1.052-1.619-1.766-2.297-.714-.678-1.526-1.262-2.355-1.736-.83-.474-1.677-.837-2.463-1.074-.804-.243-1.618-.565-2.385-.973-.767-.408-1.487-.901-2.107-1.488-.621-.587-1.141-1.268-1.506-2.049-.365-.78-.576-1.66-.576-2.648 0-.988.194-1.887.545-2.676.35-.789.858-1.469 1.484-2.027.627-.558 1.372-.994 2.201-1.289.434-.155.938-.161 1.412-.236h-1.33c-.566.091-1.154.124-1.666.348-.829.362-1.574.887-2.201 1.535-.627.648-1.134 1.419-1.484 2.275-.351.856-.545 1.797-.545 2.785 0 .988.258 1.916.695 2.766.437.849 1.052 1.619 1.766 2.297.714.678 1.526 1.262 2.355 1.736.83.474 1.677.837 2.463 1.074.804.243 1.618.565 2.385.973.767.408 1.487.901 2.107 1.488.621.587 1.141 1.268 1.506 2.049.365.78.576 1.66.576 2.648 0 .988-.194 1.887-.545 2.676-.351.789-.858 1.469-1.484 2.027-.627.558-1.372.994-2.201 1.289-.434.155-.938.161-1.412.236" fill="#fff"/><path d="m7.473 1.898c-3.089 0-5.574 2.486-5.574 5.574v6.262 4.531 6.262c0 3.089 2.486 5.574 5.574 5.574h5.723 3.297c.474-.076.978-.082 1.412-.236.829-.295 1.574-.731 2.201-1.289.627-.558 1.134-1.238 1.484-2.027.351-.789.545-1.688.545-2.676 0-.988-.211-1.868-.576-2.648-.365-.78-.885-1.462-1.506-2.049-.621-.587-1.34-1.081-2.107-1.488-.767-.408-1.581-.73-2.385-.973-.786-.237-1.633-.6-2.463-1.074-.83-.474-1.642-1.059-2.355-1.736-.714-.678-1.329-1.448-1.766-2.297-.437-.849-.695-1.777-.695-2.766 0-.988.194-1.929.545-2.785.351-.856.858-1.628 1.484-2.275.627-.648 1.372-1.173 2.201-1.535.512-.224 1.1-.257 1.666-.348h-.982-5.723" fill="#8d62ad"/><g fill="#fff"><path d="M14.982422 20.08984A3.067664 3.067664 0 0 0 14.765625 20.09766 3.067664 3.067664 0 0 0 14.460938 20.13477 3.067664 3.067664 0 0 0 14.162109 20.20117 3.067664 3.067664 0 0 0 13.871094 20.298828 3.067664 3.067664 0 0 0 13.591797 20.423828 3.067664 3.067664 0 0 0 13.324219 20.576172 3.067664 3.067664 0 0 0 13.07617 20.755859 3.067664 3.067664 0 0 0 12.845703 20.957031 3.067664 3.067664 0 0 0 12.636719 21.18164 3.067664 3.067664 0 0 0 12.451172 21.425781 3.067664 3.067664 0 0 0 12.291016 21.6875 3.067664 3.067664 0 0 0 12.15625 21.962891 3.067664 3.067664 0 0 0 12.05273 22.251953 3.067664 3.067664 0 0 0 11.976562 22.548828 3.067664 3.067664 0 0 0 11.929688 22.851562 3.067664 3.067664 0 0 0 11.914062 23.1582 3.067664 3.067664 0 0 0 11.921875 23.375 3.067664 3.067664 0 0 0 11.958984 23.679688 3.067664 3.067664 0 0 0 12.02734 23.978516 3.067664 3.067664 0 0 0 12.12305 24.269531 3.067664 3.067664 0 0 0 12.248047 24.548828 3.067664 3.067664 0 0 0 12.400391 24.814453 3.067664 3.067664 0 0 0 12.580078 25.06445 3.067664 3.067664 0 0 0 12.78125 25.294922 3.067664 3.067664 0 0 0 13.00586 25.503906 3.067664 3.067664 0 0 0 13.25 25.689453 3.067664 3.067664 0 0 0 13.511719 25.849609 3.067664 3.067664 0 0 0 13.787109 25.982422 3.067664 3.067664 0 0 0 14.07617 26.08789 3.067664 3.067664 0 0 0 14.373047 26.16406 3.067664 3.067664 0 0 0 14.675781 26.21094 3.067664 3.067664 0 0 0 14.982422 26.22461 3.067664 3.067664 0 0 0 15.199219 26.21875 3.067664 3.067664 0 0 0 15.503906 26.18164 3.067664 3.067664 0 0 0 15.802734 26.11328 3.067664 3.067664 0 0 0 16.09375 26.01758 3.067664 3.067664 0 0 0 16.375 25.892578 3.067664 3.067664 0 0 0 16.640625 25.738281 3.067664 3.067664 0 0 0 16.888672 25.560547 3.067664 3.067664 0 0 0 17.11914 25.359375 3.067664 3.067664 0 0 0 17.328125 25.13477 3.067664 3.067664 0 0 0 17.513672 24.890625 3.067664 3.067664 0 0 0 17.673828 24.628906 3.067664 3.067664 0 0 0 17.808594 24.351562 3.067664 3.067664 0 0 0 17.914062 24.06445 3.067664 3.067664 0 0 0 17.988281 23.767578 3.067664 3.067664 0 0 0 18.03516 23.464844 3.067664 3.067664 0 0 0 18.05078 23.1582 3.067664 3.067664 0 0 0 18.04297 22.941406 3.067664 3.067664 0 0 0 18.00586 22.636719 3.067664 3.067664 0 0 0 17.9375 22.337891 3.067664 3.067664 0 0 0 17.841797 22.04688 3.067664 3.067664 0 0 0 17.716797 21.765625 3.067664 3.067664 0 0 0 17.564453 21.5 3.067664 3.067664 0 0 0 17.384766 21.251953 3.067664 3.067664 0 0 0 17.18359 21.02148 3.067664 3.067664 0 0 0 16.958984 20.8125 3.067664 3.067664 0 0 0 16.714844 20.626953 3.067664 3.067664 0 0 0 16.453125 20.464844 3.067664 3.067664 0 0 0 16.177734 20.332031 3.067664 3.067664 0 0 0 15.888672 20.226562 3.067664 3.067664 0 0 0 15.591797 20.15234 3.067664 3.067664 0 0 0 15.289062 20.10547 3.067664 3.067664 0 0 0 14.982422 20.08984"/><path d="M14.982422 20.08984A3.067664 3.067664 0 0 1 15.289062 20.10547 3.067664 3.067664 0 0 1 15.591797 20.15234 3.067664 3.067664 0 0 1 15.888672 20.226562 3.067664 3.067664 0 0 1 16.177734 20.332031 3.067664 3.067664 0 0 1 16.453125 20.464844 3.067664 3.067664 0 0 1 16.714844 20.626953 3.067664 3.067664 0 0 1 16.958984 20.8125 3.067664 3.067664 0 0 1 17.18359 21.02148 3.067664 3.067664 0 0 1 17.384766 21.251953 3.067664 3.067664 0 0 1 17.564453 21.5 3.067664 3.067664 0 0 1 17.716797 21.765625 3.067664 3.067664 0 0 1 17.841797 22.04688 3.067664 3.067664 0 0 1 17.9375 22.337891 3.067664 3.067664 0 0 1 18.00586 22.636719 3.067664 3.067664 0 0 1 18.04297 22.941406 3.067664 3.067664 0 0 1 18.05078 23.1582 3.067664 3.067664 0 0 1 18.03516 23.464844 3.067664 3.067664 0 0 1 17.988281 23.767578 3.067664 3.067664 0 0 1 17.914062 24.06445 3.067664 3.067664 0 0 1 17.808594 24.351562 3.067664 3.067664 0 0 1 17.673828 24.628906 3.067664 3.067664 0 0 1 17.513672 24.890625 3.067664 3.067664 0 0 1 17.328125 25.13477 3.067664 3.067664 0 0 1 17.11914 25.359375 3.067664 3.067664 0 0 1 16.888672 25.560547 3.067664 3.067664 0 0 1 16.640625 25.738281 3.067664 3.067664 0 0 1 16.375 25.892578 3.067664 3.067664 0 0 1 16.09375 26.01758 3.067664 3.067664 0 0 1 15.802734 26.11328 3.067664 3.067664 0 0 1 15.503906 26.18164 3.067664 3.067664 0 0 1 15.199219 26.21875 3.067664 3.067664 0 0 1 14.982422 26.22461 3.067664 3.067664 0 0 1 14.675781 26.21094 3.067664 3.067664 0 0 1 14.373047 26.16406 3.067664 3.067664 0 0 1 14.07617 26.08789 3.067664 3.067664 0 0 1 13.787109 25.982422 3.067664 3.067664 0 0 1 13.511719 25.849609 3.067664 3.067664 0 0 1 13.25 25.689453 3.067664 3.067664 0 0 1 13.00586 25.503906 3.067664 3.067664 0 0 1 12.78125 25.294922 3.067664 3.067664 0 0 1 12.580078 25.06445 3.067664 3.067664 0 0 1 12.400391 24.814453 3.067664 3.067664 0 0 1 12.248047 24.548828 3.067664 3.067664 0 0 1 12.12305 24.269531 3.067664 3.067664 0 0 1 12.02734 23.978516 3.067664 3.067664 0 0 1 11.958984 23.679688 3.067664 3.067664 0 0 1 11.921875 23.375 3.067664 3.067664 0 0 1 11.914062 23.1582 3.067664 3.067664 0 0 1 11.929688 22.851562 3.067664 3.067664 0 0 1 11.976562 22.548828 3.067664 3.067664 0 0 1 12.05273 22.251953 3.067664 3.067664 0 0 1 12.15625 21.962891 3.067664 3.067664 0 0 1 12.291016 21.6875 3.067664 3.067664 0 0 1 12.451172 21.425781 3.067664 3.067664 0 0 1 12.636719 21.18164 3.067664 3.067664 0 0 1 12.845703 20.957031 3.067664 3.067664 0 0 1 13.07617 20.755859 3.067664 3.067664 0 0 1 13.324219 20.576172 3.067664 3.067664 0 0 1 13.591797 20.423828 3.067664 3.067664 0 0 1 13.871094 20.298828 3.067664 3.067664 0 0 1 14.162109 20.20117 3.067664 3.067664 0 0 1 14.460938 20.13477 3.067664 3.067664 0 0 1 14.765625 20.09766 3.067664 3.067664 0 0 1 14.982422 20.08984"/></g></g>

   xmlns:dc="http://purl.org/dc/elements/1.1/"
   xmlns:cc="http://creativecommons.org/ns#"
   xmlns:rdf="http://www.w3.org/1999/02/22-rdf-syntax-ns#"
   xmlns:svg="http://www.w3.org/2000/svg"
   xmlns="http://www.w3.org/2000/svg"
   xmlns:xlink="http://www.w3.org/1999/xlink"
   xmlns:sodipodi="http://sodipodi.sourceforge.net/DTD/sodipodi-0.dtd"
   xmlns:inkscape="http://www.inkscape.org/namespaces/inkscape"
   height="32"
   width="32"
   version="1"
   id="svg8"
   sodipodi:docname="snow-top-2.svg"
   inkscape:version="0.92.1 r"&gt;
  <path d="m24.646 6.111c2.995 2.684 1.381 7.817 3.674 8.291 2.031.613 3.541-1.385 3.66-4.503.35-8.627-3.911-9.427-6.879-9.524-28.342-2.047-1.762 4.92-.455 5.736" fill="url(#0)"/></svg>