<svg xmlns="http://www.w3.org/2000/svg" xmlns:xlink="http://www.w3.org/1999/xlink" viewBox="0 0 32 32"><defs><linearGradient gradientTransform="matrix(-2.54182 0 0 2.58531 185.47-277.37)" id="1" x1="67.894" y1="108.69" x2="67.854" y2="113.11" gradientUnits="userSpaceOnUse"><stop stop-color="#f9f9f9"/><stop offset="1" stop-color="#999"/></linearGradient></defs><g transform="translate(61.73 10.44)"><rect y="-8.541" x="-59.832" height="28.2" width="28.2" fill="#96ba42" fill-rule="evenodd" rx="5.575"/><rect x="-39.21" y="-40.441" width="5.902" height="5.902" transform="matrix(.70711-.70711.70711.70711 0 0)" rx=".984" fill="#597123"/><rect x="-15.755" y="35.543" width="20.376" height="20.376" rx="10.188" transform="matrix(0-1-1 0 0 0)" fill="#fff"/><circle r="7.377" cx="-45.73" cy="5.567" fill="#ccc"/><rect x="-37.853" y="22.379" width="2.108" height="6.324" transform="matrix(.86603.5-.5.86603 0 0)" rx="1.054" ry=".904" fill="#f45246"/><g fill="#4d4d4d"><circle r="1.757" cx="-45.73" cy="5.567"/><g transform="matrix(.70262 0 0 .70262-57.32-5.324)" stroke-width="1.423"><circle r="1.5" cy="23.5" cx="16.5"/><circle r="1.5" cx="16.5" cy="7.5"/><g transform="matrix(0 1-1 0 0 0)"><circle r="1.5" cx="15.5" cy="-8.5"/><circle r="1.5" cy="-24.5" cx="15.5"/></g></g></g></g>

   xmlns:dc="http://purl.org/dc/elements/1.1/"
   xmlns:cc="http://creativecommons.org/ns#"
   xmlns:rdf="http://www.w3.org/1999/02/22-rdf-syntax-ns#"
   xmlns:svg="http://www.w3.org/2000/svg"
   xmlns="http://www.w3.org/2000/svg"
   xmlns:xlink="http://www.w3.org/1999/xlink"
   xmlns:sodipodi="http://sodipodi.sourceforge.net/DTD/sodipodi-0.dtd"
   xmlns:inkscape="http://www.inkscape.org/namespaces/inkscape"
   height="32"
   width="32"
   version="1"
   id="svg8"
   sodipodi:docname="snow-top-3.svg"
   inkscape:version="0.92.1 r"&gt;
  <path fill="#00000f" fill-opacity="0" d="m0 0h32v32h-32z" id="0"/><path d="m7.354 6.111c-2.995 2.684-1.381 7.817-3.674 8.291-2.031.613-3.541-1.385-3.66-4.503-.35-8.627 3.911-9.427 6.879-9.524 28.342-2.047 1.762 4.92.455 5.736" fill="url(#1)"/><use xlink:href="#0"/></svg>