<svg xmlns="http://www.w3.org/2000/svg" viewBox="0 0 32 32"><defs><linearGradient gradientTransform="matrix(2.59244 0 0 2.58531-157.93-277.73)" id="0" x1="67.894" y1="108.69" x2="67.854" y2="113.11" gradientUnits="userSpaceOnUse"><stop stop-color="#f9f9f9"/><stop offset="1" stop-color="#999"/></linearGradient></defs><g fill-rule="evenodd"><rect width="28.2" height="28.2" x="1.898" y="1.898" fill="#8e8e8e" rx="5.575"/><path d="m30.1 24.406h-28.21v.121c0 3.089 2.488 5.574 5.576 5.574h17.05c3.089 0 5.576-2.486 5.576-5.574z" fill="#851f29"/><path d="m16 7.457h-14.1c0 .006-.004.011-.004.018v16.932h14.1z" fill="#d94655"/><path d="m16 7.457v16.949h14.1v-16.932c0-.006-.004-.011-.004-.018z" fill="#ad2f3d"/><path d="m1.901 7.457h28.2c-.01-3.08-2.49-5.559-5.572-5.559h-17.05c-3.082 0-5.562 2.479-5.572 5.559" fill="#851f29"/></g><path d="m16.776 21.886c-.048-.045-.378-.646-1.104-2.01-.57-1.07-1.042-1.952-1.049-1.96-.007-.008-.579.414-1.272.938-1.34 1.014-1.333 1.01-1.419.914-.033-.037-.035-.276-.032-4.789.003-4.525.004-4.753.038-4.799.068-.094.139-.13.248-.13h.103l3.822 2.757c2.102 1.516 3.86 2.787 3.906 2.825.076.061.084.077.084.154 0 .053-.013.102-.035.127-.028.034-.31.109-1.514.402-.813.198-1.481.362-1.484.364-.003.002.473.891 1.058 1.977.584 1.085 1.071 2.01 1.082 2.047.015.056.013.091-.008.141-.026.062-.092.097-1.107.586-1.207.581-1.19.576-1.317.456" fill="#fff"/>

   xmlns:dc="http://purl.org/dc/elements/1.1/"
   xmlns:cc="http://creativecommons.org/ns#"
   xmlns:rdf="http://www.w3.org/1999/02/22-rdf-syntax-ns#"
   xmlns:svg="http://www.w3.org/2000/svg"
   xmlns="http://www.w3.org/2000/svg"
   xmlns:xlink="http://www.w3.org/1999/xlink"
   xmlns:sodipodi="http://sodipodi.sourceforge.net/DTD/sodipodi-0.dtd"
   xmlns:inkscape="http://www.inkscape.org/namespaces/inkscape"
   version="1"
   width="32"
   height="32"
   id="svg12"
   sodipodi:docname="snow-top-4.svg"
   inkscape:version="0.92.1 r"&gt;
  <path d="m7.196.009c-8.161-.339-9.231 9.523-3.968 9.505.669.003 1.581-.197 2.929-1.471 3.773-4.147 9.01 4.479 14.696-1.042.61-.911 1.804-1.135 2.455-.627 1.045.677 2.87 2.991 3.88 3 2.359.513 4.095-.198 4.816-3.188.185-3.165-2.303-6.286-6.281-6.17-5.832.133-12.809-.045-18.527-.01" fill="url(#0)"/></svg>