<svg xmlns="http://www.w3.org/2000/svg" viewBox="0 0 32 32"><defs><linearGradient gradientTransform="matrix(2.62891 0 0 2.71269-160.16-291.42)" id="0" x1="67.894" y1="108.69" x2="67.854" y2="113.11" gradientUnits="userSpaceOnUse"><stop stop-color="#f9f9f9"/><stop offset="1" stop-color="#999"/></linearGradient></defs><g transform="translate(51.916 1.902)" fill-rule="evenodd"><g fill="#e74c3c"><path d="m-50.02 19.428l9.896-3.77a4.383611 4.383611 0 0 1 -.136718 -.416015 4.383611 4.383611 0 0 1 -.09375 -.427735 4.383611 4.383611 0 0 1 -.05078 -.435547 4.383611 4.383611 0 0 1 -.0098 -.28125 4.383611 4.383611 0 0 1 .02539 -.4375 4.383611 4.383611 0 0 1 .06641 -.433594 4.383611 4.383611 0 0 1 .109374 -.423828 4.383611 4.383611 0 0 1 .09375 -.265625l-9.9-3.771z"/><path d="m-30.658 28.2l-3.809-10.01a4.383611 4.383611 0 0 1 -.417969 .136719 4.383611 4.383611 0 0 1 -.427734 .09375 4.383611 4.383611 0 0 1 -.435547 .05078 4.383611 4.383611 0 0 1 -.279297 .0098 4.383611 4.383611 0 0 1 -.4375 -.02344 4.383611 4.383611 0 0 1 -.433594 -.06836 4.383611 4.383611 0 0 1 -.423828 -.109375 4.383611 4.383611 0 0 1 -.263672 -.0918l-3.813 10.01z"/><path d="m-21.814 8.682l-10.119 3.855a4.383611 4.383611 0 0 1 .136719 .416016 4.383611 4.383611 0 0 1 .0918 .429687 4.383611 4.383611 0 0 1 .05078 .433594 4.383611 4.383611 0 0 1 .0098 .28125 4.383611 4.383611 0 0 1 -.02344 .4375 4.383611 4.383611 0 0 1 -.06641 .433594 4.383611 4.383611 0 0 1 -.111328 .423828 4.383611 4.383611 0 0 1 -.08984 .261719l10.121 3.859z"/></g><path d="m-41.4-.004h-3.045c-3.089 0-5.574 2.488-5.574 5.576v3.193l9.9 3.771a4.383611 4.383611 0 0 0 -.09375 .265625 4.383611 4.383611 0 0 0 -.109374 .423828 4.383611 4.383611 0 0 0 -.06641 .433594 4.383611 4.383611 0 0 0 -.02539 .4375 4.383611 4.383611 0 0 0 .0098 .28125 4.383611 4.383611 0 0 0 .05078 .435547 4.383611 4.383611 0 0 0 .09375 .427735 4.383611 4.383611 0 0 0 .136718 .416015l-9.896 3.77v3.197c0 3.089 2.486 5.574 5.574 5.574h3.045l3.813-10.01a4.383611 4.383611 0 0 0 .263672 .0918 4.383611 4.383611 0 0 0 .423828 .109375 4.383611 4.383611 0 0 0 .433594 .06836 4.383611 4.383611 0 0 0 .4375 .02344 4.383611 4.383611 0 0 0 .279297 -.0098 4.383611 4.383611 0 0 0 .435547 -.05078 4.383611 4.383611 0 0 0 .427734 -.09375 4.383611 4.383611 0 0 0 .417969 -.136719l3.809 10.01h3.27c3.089 0 5.574-2.486 5.574-5.574v-3.111l-10.121-3.859a4.383611 4.383611 0 0 0 .08984 -.261719 4.383611 4.383611 0 0 0 .111328 -.423828 4.383611 4.383611 0 0 0 .06641 -.433594 4.383611 4.383611 0 0 0 .02344 -.4375 4.383611 4.383611 0 0 0 -.0098 -.28125 4.383611 4.383611 0 0 0 -.05078 -.433594 4.383611 4.383611 0 0 0 -.0918 -.429687 4.383611 4.383611 0 0 0 -.136719 -.416016l10.119-3.855v-3.109c0-3.089-2.486-5.576-5.574-5.576h-3.27l-3.811 10.01a4.383611 4.383611 0 0 0 -.263672 -.091796 4.383611 4.383611 0 0 0 -.425781 -.109375 4.383611 4.383611 0 0 0 -.431641 -.066406 4.383611 4.383611 0 0 0 -.4375 -.023437 4.383611 4.383611 0 0 0 -.279297 .00977 4.383611 4.383611 0 0 0 -.435547 .048828 4.383611 4.383611 0 0 0 -.427734 .09375 4.383611 4.383611 0 0 0 -.416016 .136719z" fill="#d2d2d2"/><path d="m-41.4-.004l3.813 10.01a4.383611 4.383611 0 0 1 .416016 -.136719 4.383611 4.383611 0 0 1 .427734 -.09375 4.383611 4.383611 0 0 1 .435547 -.048828 4.383611 4.383611 0 0 1 .279297 -.00977 4.383611 4.383611 0 0 1 .4375 .023437 4.383611 4.383611 0 0 1 .431641 .066406 4.383611 4.383611 0 0 1 .425781 .109375 4.383611 4.383611 0 0 1 .263672 .091796l3.811-10.01z" fill="#e74c3c"/></g>

   xmlns:dc="http://purl.org/dc/elements/1.1/"
   xmlns:cc="http://creativecommons.org/ns#"
   xmlns:rdf="http://www.w3.org/1999/02/22-rdf-syntax-ns#"
   xmlns:svg="http://www.w3.org/2000/svg"
   xmlns="http://www.w3.org/2000/svg"
   xmlns:xlink="http://www.w3.org/1999/xlink"
   xmlns:sodipodi="http://sodipodi.sourceforge.net/DTD/sodipodi-0.dtd"
   xmlns:inkscape="http://www.inkscape.org/namespaces/inkscape"
   version="1"
   width="32"
   height="32"
   id="svg12"
   sodipodi:docname="snow-top-1.svg"
   inkscape:version="0.92.1 r"&gt;
  <path d="m7.288.009c-8.276-.356-9.36 9.992-4.02 9.973.679.003 1.604-.207 2.97-1.543 7.256-10.531 14.706 3.573 17.53.919 1.71-1.912 3.496-.418 4.448.115 2.1.643 3.662.041 3.785-3.231.188-3.321-1.889-6.344-5.923-6.223-5.914.14-12.989-.047-18.787-.01" fill="url(#0)"/><path fill="#f00" fill-opacity="0" d="m0 0h32v32h-32z"/></svg>