<svg xmlns="http://www.w3.org/2000/svg" viewBox="0 0 32 32"><defs><linearGradient gradientTransform="matrix(2.54182 0 0 2.58531-153.47-277.37)" id="0" x1="67.894" y1="108.69" x2="67.854" y2="113.11" gradientUnits="userSpaceOnUse"><stop stop-color="#f9f9f9"/><stop offset="1" stop-color="#999"/></linearGradient></defs><g fill-rule="evenodd"><rect width="28.2" height="28.2" x="1.898" y="1.898" fill="#309fff" rx="5.575"/><g transform="translate(120.86-4.915)"><circle cx="-104.86" cy="20.915" r="9.22" fill="#e6e6e6"/><g transform="translate(10.353-4.03)"><path d="m-111.2 33.24l-1.092-2.209 1.051 2.23a9.220339 9.220339 0 0 0 .041 -.02148" fill="#f2f2f2"/><path d="m-109.55 32.21l-5.264-6.539 2.52 5.355 1.092 2.209a9.220339 9.220339 0 0 0 1.65234 -1.02539" fill="#fff"/><path d="m-115.17 24.918l.355.754 5.264 6.539a9.220339 9.220339 0 0 0 .95117 -.837891 9.220339 9.220339 0 0 0 .5957 -.679688 9.220339 9.220339 0 0 0 .0195 -.02344 9.220339 9.220339 0 0 0 .49415 -.689453 9.220339 9.220339 0 0 0 .0605 -.09375 9.220339 9.220339 0 0 0 .39063 -.679688 9.220339 9.220339 0 0 0 .0723 -.142578 9.220339 9.220339 0 0 0 .29688 -.664062 9.220339 9.220339 0 0 0 .0801 -.205079 9.220339 9.220339 0 0 0 .21484 -.644531 9.220339 9.220339 0 0 0 .0723 -.253906 9.220339 9.220339 0 0 0 .0996 -.445313z" fill="#f2f2f2"/><path d="m-115.21484 15.728516a9.220339 9.220339 0 0 0 -4.99024 1.46875L-115.25 25l-9.152-.791a9.220339 9.220339 0 0 0 -.0371 .740235 9.220339 9.220339 0 0 0 9.22071 9.220703 9.220339 9.220339 0 0 0 3.9707 -.91211l-3.926-8.34 8.967 1.934a9.220339 9.220339 0 0 0 .20898 -1.902343 9.220339 9.220339 0 0 0 -9.2207 -9.220703" fill="#e6e6e6"/><path d="m-121.76953 18.478516a9.220339 9.220339 0 0 0 -2.62891 5.730468L-115.25 25" fill="#f2f2f2"/><path d="m-121.77 18.479l6.523 6.521-4.959-7.803a9.220339 9.220339 0 0 0 -1.56445 1.28125" fill="#fff"/><circle cx="-115.22" cy="24.949" r="3.304" fill="#b3b3b3"/><circle cx="-115.22" cy="24.949" r="2.441" fill="#fff"/></g></g><path d="m30.1 17.809c-.535.084-1.118.249-1.641.313-2.02.245-3.943.339-5.787.299-1.844-.041-3.609-.215-5.303-.506-1.694-.291-3.318-.699-4.883-1.205-1.565-.506-3.072-1.111-4.529-1.797-1.457-.686-2.865-1.452-4.236-2.281-.637-.386-1.204-.89-1.826-1.301v13.197c0 3.089 2.488 5.574 5.576 5.574h17.05c3.089 0 5.576-2.486 5.576-5.574z" fill="#2f7dbc"/><g transform="matrix(.82335 0 0 .82335 4.217 4.207)" stroke-width="1.215" fill="#fff"><path d="m21.694 23.813l-5.64 3.257v-6.513"/><path d="m8.08 20.557h6.479v6.479h-6.479z"/></g></g>

   xmlns:dc="http://purl.org/dc/elements/1.1/"
   xmlns:cc="http://creativecommons.org/ns#"
   xmlns:rdf="http://www.w3.org/1999/02/22-rdf-syntax-ns#"
   xmlns:svg="http://www.w3.org/2000/svg"
   xmlns="http://www.w3.org/2000/svg"
   xmlns:xlink="http://www.w3.org/1999/xlink"
   xmlns:sodipodi="http://sodipodi.sourceforge.net/DTD/sodipodi-0.dtd"
   xmlns:inkscape="http://www.inkscape.org/namespaces/inkscape"
   height="32"
   width="32"
   version="1"
   id="svg8"
   sodipodi:docname="snow-top-2.svg"
   inkscape:version="0.92.1 r"&gt;
  <path d="m24.646 6.111c2.995 2.684 1.381 7.817 3.674 8.291 2.031.613 3.541-1.385 3.66-4.503.35-8.627-3.911-9.427-6.879-9.524-28.342-2.047-1.762 4.92-.455 5.736" fill="url(#0)"/></svg>