<svg xmlns="http://www.w3.org/2000/svg" xmlns:xlink="http://www.w3.org/1999/xlink" viewBox="0 0 32 32"><defs><clipPath><circle cx="286" cy="26" r="10" fill="none"/></clipPath><linearGradient xlink:href="#3" id="4" gradientUnits="userSpaceOnUse" x1="27.558" y1="-133.46" x2="22.09" y2="-134.43"/><linearGradient id="3"><stop stop-color="#55c03f"/><stop offset="1" stop-color="#198b26"/></linearGradient><linearGradient xlink:href="#3" id="2" gradientUnits="userSpaceOnUse" x1="15.879" y1="-141.91" x2="30.32" y2="-129.74"/><linearGradient id="1"><stop stop-color="#f9f9f9"/><stop offset="1" stop-color="#999"/></linearGradient><linearGradient xlink:href="#1" id="0" gradientUnits="userSpaceOnUse" x1="17.658" y1="-133.51" x2="15.02" y2="-125.58"/><radialGradient xlink:href="#1" id="5" cx="-176.59" cy="-120.91" r="3.01" gradientUnits="userSpaceOnUse" gradientTransform="matrix(2.21087.05719-.05496 2.12455 412.97 145.84)"/></defs><rect width="28.2" height="28.2" x="1.898" y="1.898" fill="#f29237" fill-rule="evenodd" rx="5.575"/><g fill="#c2752c"><path d="m15.0483 5.969832a10.156879 10.156879 0 0 0 -3.675931 1.066238c.051.163-.009.346-.195.508-.126.11-.23.28-.23.38 0 .305.275.772.495.84.292.09.194.402-.182.574-.174.08-.387.309-.475.51-.088.201-.217.399-.287.44-.07.041-.127.198-.127.349 0 .211.096.313.413.439.227.091.498.157.603.147.605-.057.647.295.118.984-.281.366-.416.458-.607.412-.178-.043-.276.008-.357.184-.086.187-.226.251-.602.277-.37.026-.536.101-.674.304-.101.148-.247.268-.325.268-.078 0-.261.099-.407.22-.297.246-.413.271-.517.11-.138-.213-.434-.105-.876.317-.39.374-.438.474-.379.798.105.577.418 1.09.776 1.269.312.156.318.173.129.373-.109.115-.296.239-.415.275-.344.104-.15.236.463.313.628.08.823.308.53.618-.164.173-.154.205.108.37.513.323.921.125.439-.212-.309-.216-.093-.305.361-.148.362.125.433.118.648-.067.439-.38.916.182.515.607-.256.27-.178.597.153.642.146.02.45.156.675.303.226.147.471.267.546.267.074 0 .283.149.465.33.369.368.573.415.677.156.125-.312.075-.473-.262-.84-.268-.292-.703-1.07-.703-1.256 0-.115.443-.017.69.152.155.106.406.243.557.305.162.066.329.271.406.496.12.352.167.383.589.383h.459l.069.825c.084.993.163 1.194.504 1.276.251.06.519.449.519.753 0 .081-.181.279-.401.439-.273.2-.391.369-.373.536.023.208-.024.24-.318.218-.19-.014-.518.052-.73.148-.25.113-.521.149-.776.103-.293-.053-.392-.032-.392.082 0 .084-.102.242-.227.35-.309.268-.181.409.293.324.295-.053.41-.029.46.097.108.27-.166.656-.421.592-.161-.04-.239.015-.289.205-.018.068-.049.125-.087.174a10.156879 10.156879 0 0 0 1.606818 .475107c-.051-.097-.108-.185-.165-.225-.262-.185-.087-.665.274-.752.367-.088.309-.326-.09-.372-.35-.04-.722-.394-.605-.575.078-.122.413-.104 1.09.057.306.072.515-.073 1.223-.848.41-.449.725-.636 1.071-.636.132 0 .602-.121 1.046-.27.838-.28 1.166-.27 1.135.036-.064.637.346.616 1.014-.052.278-.278.532-.479.565-.447.128.122-.102.718-.37.959-.34.305-.356.498-.058.652.164.084.233.254.259.637l.035.522h.425c.149 0 .272.02.372.059a10.156879 10.156879 0 0 0 4.920696 -8.382551c-.155-.332-.144-.533 0-.759a10.156879 10.156879 0 0 0 -.04563 -.56934c-.093-.004-.187-.008-.296-.004-.512.021-.95-.18-.95-.437 0-.054-.182-.278-.404-.497-.252-.248-.381-.467-.343-.581.034-.104-.04-.271-.171-.384-.127-.11-.232-.288-.232-.395 0-.17-.108-.192-.891-.173l-.891.022.015.878c.026 1.538.255 1.937.962 1.679.323-.118 1.118-.029 1.344.151.082.065.2.301.263.524.063.223.296.609.518.858.45.504.485.7.227 1.291-.225.516-.468.456-.42-.103l.036-.417-.381.071c-.211.04-.475.196-.593.349-.169.219-.248.251-.374.151-.088-.07-.16-.218-.16-.327 0-.11-.109-.232-.241-.272-.132-.04-.313-.24-.403-.444-.143-.327-.139-.427.027-.824.168-.403.17-.469.015-.618-.142-.136-.216-.141-.403-.029-.188.112-.277.104-.5-.046-.149-.1-.409-.183-.578-.183-.343 0-.446-.167-.446-.718 0-.509-.304-.694-1.027-.628-.502.046-.613.013-1.018-.299-.25-.192-.645-.656-.879-1.031-.234-.375-.485-.766-.558-.87-.106-.15-.08-.293.127-.701l.261-.513-.551.074c-.981.133-1.18.26-.758.486.164.088.172.133.045.28-.083.096-.122.248-.086.337.036.09-.009.301-.101.469-.092.168-.169.405-.172.526-.01.379-.658.68-1.38.64-1.094-.06-1.183-.043-1.571.317-.486.451-.548.661-.322 1.079.219.406.608.568 1.281.535.602-.03.671.023.533.422-.117.338-.51.468-.777.257-.205-.163-.913-.037-1.13.201-.091.1-.226.362-.3.581-.127.379-.164.402-.733.457-.568.055-.622.037-1.031-.339-.456-.42-.533-.74-.313-1.293.097-.245.17-.285.429-.237.515.094.718-.085.718-.635 0-.267-.052-.516-.115-.553-.063-.037-.115-.179-.115-.314 0-.136-.065-.31-.144-.387-.115-.112-.099-.172.085-.302.126-.089.333-.149.46-.134.127.015.476-.04.778-.121.435-.118.563-.207.622-.435.112-.435.384-.784.613-.784.361 0 .369-.849.018-2.084-.052-.183-.195-.299-.447-.361-.204-.051-.426-.19-.493-.309-.066-.12-.189-.217-.272-.217-.083 0-.245-.099-.359-.22-.115-.122-.354-.22-.535-.22-.429 0-.436-.295-.011-.451.45-.165 1.149.051 1.318.407.229.482.484.281.565-.447.101-.901.412-1.16 1.392-1.16h.704l-.308-.308c-.096-.096-.176-.214-.231-.329m3.652.319c-.02.018-.039.032-.059.053-.235.24-.346.275-.71.219-.636-.097-.554.159.15.468.381.167.625.358.708.55.401.93.677 1.431.816 1.482.281.103.448-.104.51-.633.071-.607.277-.735.646-.404.143.129.343.234.444.234.315 0 .549.127.549.298 0 .09.106.307.237.483.192.259.323.32.682.32.441 0 .712.083 1.265.388.009.005.017.006.026.011A10.156879 10.156879 0 0 0 18.700508 6.289099M5.853281 16.0281a10.156879 10.156879 0 0 0 -.002 .04375 10.156879 10.156879 0 0 0 .198372 1.950902c.368.15.47.09.508-.252.02-.177.112-.378.206-.447.145-.107.119-.162-.179-.365-.193-.131-.383-.361-.422-.51-.038-.144-.166-.302-.31-.42zm3.197 3.358c-.095-.01-.209.041-.336.163-.269.257-.228.774.076.978.349.234.484.166.528-.266.054-.532-.059-.853-.268-.875m1.724 1.535c-.104.003-.218.078-.332.234-.121.166-.155.38-.108.704.057.399.032.484-.177.591-.268.137-.326.546-.106.756.219.209.427.155.502-.132.107-.408.704-.456 1.113-.089.174.156.316.236.316.176 0-.06-.181-.278-.403-.483-.339-.315-.402-.449-.402-.854 0-.572-.175-.91-.404-.903m-2.830788 1.3113a10.156879 10.156879 0 0 0 .235077 .296573c-.069-.106-.148-.209-.235-.296m3.423 1.559c-.052.018-.073.082-.073.195 0 .115-.073.235-.163.268-.119.044-.146.181-.1.51.009.062.011.111.014.162a10.156879 10.156879 0 0 0 .422542 .217225c-.007-.176.025-.383.117-.642.156-.44.161-.55.035-.627-.119-.072-.2-.101-.252-.083"/><path d="m16 5.779c-5.665 0-10.262 4.578-10.262 10.221 0 5.643 4.596 10.221 10.262 10.221 5.665 0 10.262-4.578 10.262-10.221 0-5.643-4.596-10.221-10.262-10.221m0 .301c5.504 0 9.961 4.44 9.961 9.92 0 5.48-4.457 9.92-9.961 9.92-5.504 0-9.961-4.44-9.961-9.92 0-5.48 4.457-9.92 9.961-9.92z" shape-rendering="auto" mix-blend-mode="normal" isolation="auto" color-interpolation-filters="linearRGB" white-space="normal" solid-opacity="1" image-rendering="auto" solid-color="#000000" color="#000" color-rendering="auto" vector-effect="none" shape-padding="0" color-interpolation="sRGB"/></g><g transform="translate(-.916 143.06)"><path d="m15.583-142.61c-5.577-1.531-5.951 3.24-4.58 5.493 4.381 6.983 6.796 6.577 9.398 7.895 1.712 2.064 3.451 3.4 6.469 4.1 11.69 1.559 3.242-8.417.92-8.649-5.065.012-7.547-6.123-12.206-8.838" fill="url(#0)"/><path d="m15.583-142.61c3.76.276 5.616-.626 8.93-.421 4.319.283 8.307 2.053 7.838 6.574-.347 2.567-.37 2.25.186 4.296.532 1.535-.252 4.232-.487 4.654-2.715 4.963-1.536 4.965-2.656 7.742l-.906-.418-2.508-11.358c-7.177-.909-10.754-10.11-10.398-11.07" fill="url(#2)"/><path d="m22.374-132.67c.362.274 1.553-5.105 1.172-5.653 1.379 2.44 1.919 4.616 2.435 6.783-1.276-.283-2.289-.554-3.607-1.13" fill="url(#4)"/><circle r="3.01" cy="-119.45" cx="29.06" fill="url(#5)"/></g></svg>