<svg xmlns="http://www.w3.org/2000/svg" viewBox="0 0 32 32"><defs><linearGradient gradientTransform="matrix(2.59244 0 0 2.58531-157.93-277.73)" id="0" x1="67.894" y1="108.69" x2="67.854" y2="113.11" gradientUnits="userSpaceOnUse"><stop stop-color="#f9f9f9"/><stop offset="1" stop-color="#999"/></linearGradient></defs><g transform="translate(39.72-4.476)" fill-rule="evenodd"><rect y="6.374" x="-37.822" height="28.2" width="28.2" fill="#8e8e8e" rx="5.575"/><path d="m-37.822 24.12c.055.145.066.314.174.422.198.199.472.32.775.32h6.576c.304 0 .577-.122.775-.32.198-.199.32-.474.32-.777v-6.576c0-.304-.122-.577-.32-.775-.198-.198-.472-.32-.775-.32h-6.576c-.304 0-.577.122-.775.32-.107.107-.118.275-.174.42z" fill="#94d551"/><path d="m-29.941 34.577c.144-.055.313-.067.42-.174.198-.198.32-.472.32-.775v-6.576c0-.304-.122-.577-.32-.775-.198-.198-.472-.32-.775-.32h-6.576c-.304 0-.577.122-.775.32-.107.107-.118.275-.174.42v2.305c0 3.089 2.486 5.576 5.574 5.576z" fill="#4b95d5"/><path d="m-20.08 34.577c.145-.055.314-.066.422-.174.199-.198.32-.472.32-.775v-6.576c0-.304-.122-.577-.32-.775-.199-.198-.474-.32-.777-.32h-6.574c-.304 0-.579.122-.777.32-.199.198-.32.472-.32.775v6.576c0 .304.122.577.32.775.108.107.277.118.422.174z" fill="#ffc539"/><path d="m-9.619 26.696c-.055-.144-.067-.313-.174-.42-.198-.198-.472-.32-.775-.32h-6.576c-.304 0-.577.122-.775.32-.198.198-.32.472-.32.775v6.576c0 .304.122.577.32.775.107.107.275.118.42.174h2.307c3.089 0 5.574-2.488 5.574-5.576z" fill="#d55045"/><path d="m-17.5 6.374c-.144.055-.313.067-.42.174-.198.198-.32.472-.32.775v6.576c0 .304.122.577.32.775.198.198.472.32.775.32h6.576c.304 0 .577-.122.775-.32.107-.107.118-.275.174-.42v-2.307c0-3.089-2.486-5.574-5.574-5.574z" fill="#94d551"/><path d="m-27.363 6.374c-.145.055-.314.066-.422.174-.199.198-.32.472-.32.775v6.576c0 .304.122.577.32.775.199.198.474.32.777.32h6.574c.304 0 .579-.122.777-.32.199-.198.32-.472.32-.775v-6.576c0-.304-.122-.577-.32-.775-.108-.107-.277-.118-.422-.174z" fill="#ffc539"/><path d="m-37.822 14.255v2.576c.055-.144.067-.313.174-.42.198-.198.472-.32.775-.32h6.576c.304 0 .577.122.775.32.198.198.32.472.32.775v6.576c0 .304-.122.579-.32.777-.198.199-.472.32-.775.32h-6.576c-.304 0-.577-.122-.775-.32-.107-.108-.118-.277-.174-.422v2.578c.055-.144.067-.313.174-.42.198-.198.472-.32.775-.32h6.576c.304 0 .577.122.775.32.198.198.32.472.32.775v6.576c0 .304-.122.577-.32.775-.107.107-.275.118-.42.174h2.578c-.145-.055-.314-.066-.422-.174-.199-.198-.32-.472-.32-.775v-6.576c0-.304.122-.577.32-.775.199-.198.474-.32.777-.32h6.574c.304 0 .579.122.777.32.199.198.32.472.32.775v6.576c0 .304-.122.577-.32.775-.108.107-.277.118-.422.174h2.578c-.144-.055-.313-.067-.42-.174-.198-.198-.32-.472-.32-.775v-6.576c0-.304.122-.577.32-.775.198-.198.472-.32.775-.32h6.576c.304 0 .577.122.775.32.107.107.118.275.174.42v-2.578c-.055.145-.066.314-.174.422-.198.199-.472.32-.775.32h-6.576c-.304 0-.577-.122-.775-.32-.198-.199-.32-.474-.32-.777v-6.576c0-.304.122-.577.32-.775.198-.198.472-.32.775-.32h6.576c.304 0 .577.122.775.32.107.107.118.275.174.42v-2.576c-.055.144-.067.313-.174.42-.198.198-.472.32-.775.32h-6.576c-.304 0-.577-.122-.775-.32-.198-.198-.32-.472-.32-.775v-6.576c0-.304.122-.577.32-.775.107-.107.275-.118.42-.174h-2.578c.145.055.314.066.422.174.199.198.32.472.32.775v6.576c0 .304-.122.577-.32.775-.199.198-.474.32-.777.32h-6.574c-.304 0-.579-.122-.777-.32-.199-.198-.32-.472-.32-.775v-6.576c0-.304.122-.577.32-.775.108-.107.277-.118.422-.174h-2.578c.144.055.313.067.42.174.198.198.32.472.32.775v6.576c0 .304-.122.577-.32.775-.198.198-.472.32-.775.32h-6.576c-.304 0-.577-.122-.775-.32-.107-.107-.118-.275-.174-.42" fill="#f9f9f9"/><path d="m-37.822 14.255c.055.144.067.313.174.42.198.198.472.32.775.32h6.576c.304 0 .577-.122.775-.32.198-.198.32-.472.32-.775v-6.576c0-.304-.122-.577-.32-.775-.107-.107-.275-.118-.42-.174h-2.307c-3.089 0-5.574 2.486-5.574 5.574z" fill="#d55045"/><path d="m-27.01 16.09c-.304 0-.579.122-.777.32-.199.198-.32.472-.32.775v6.576c0 .304.122.579.32.777.199.199.474.32.777.32h6.574c.304 0 .579-.122.777-.32.199-.199.32-.474.32-.777v-6.576c0-.304-.122-.577-.32-.775-.199-.198-.474-.32-.777-.32z" fill="#8e8e8e"/><path d="m-27.01 16.09h6.574c.304 0 .579.122.777.32.199.198.32.472.32.775v6.576c0 .304-.122.579-.32.777-.199.199-.474.32-.777.32h-6.574c-.304 0-.579-.122-.777-.32-.199-.199-.32-.474-.32-.777v-6.576c0-.304.122-.577.32-.775.199-.198.474-.32.777-.32" fill="#4b95d5"/><path d="m-9.619 16.831c-.055-.144-.067-.313-.174-.42-.198-.198-.472-.32-.775-.32h-6.576c-.304 0-.577.122-.775.32-.198.198-.32.472-.32.775v6.576c0 .304.122.579.32.777.198.199.472.32.775.32h6.576c.304 0 .577-.122.775-.32.107-.108.118-.277.174-.422z" fill="#94d551"/></g>

   xmlns:dc="http://purl.org/dc/elements/1.1/"
   xmlns:cc="http://creativecommons.org/ns#"
   xmlns:rdf="http://www.w3.org/1999/02/22-rdf-syntax-ns#"
   xmlns:svg="http://www.w3.org/2000/svg"
   xmlns="http://www.w3.org/2000/svg"
   xmlns:xlink="http://www.w3.org/1999/xlink"
   xmlns:sodipodi="http://sodipodi.sourceforge.net/DTD/sodipodi-0.dtd"
   xmlns:inkscape="http://www.inkscape.org/namespaces/inkscape"
   version="1"
   width="32"
   height="32"
   id="svg12"
   sodipodi:docname="snow-top-4.svg"
   inkscape:version="0.92.1 r"&gt;
  <path d="m7.196.009c-8.161-.339-9.231 9.523-3.968 9.505.669.003 1.581-.197 2.929-1.471 3.773-4.147 9.01 4.479 14.696-1.042.61-.911 1.804-1.135 2.455-.627 1.045.677 2.87 2.991 3.88 3 2.359.513 4.095-.198 4.816-3.188.185-3.165-2.303-6.286-6.281-6.17-5.832.133-12.809-.045-18.527-.01" fill="url(#0)"/></svg>