<svg xmlns="http://www.w3.org/2000/svg" viewBox="0 0 32 32"><defs><linearGradient gradientTransform="matrix(-2.65552 0 0 2.58531 193.77-277.73)" id="0" x1="67.894" y1="108.69" x2="67.854" y2="113.11" gradientUnits="userSpaceOnUse"><stop stop-color="#f9f9f9"/><stop offset="1" stop-color="#999"/></linearGradient></defs><rect width="28.2" height="28.2" x="1.898" y="1.898" fill="#8e8e8e" fill-rule="evenodd" rx="5.575"/><g transform="matrix(.9138 0 0 .9138 1.417 1.378)"><path d="m19.272 10.235c-4.66 0-8.438 3.778-8.438 8.438v8.438h8.438c4.66 0 8.438-3.778 8.438-8.438 0-4.66-3.778-8.438-8.438-8.438m0 3.616364a4.821819 4.821819 0 0 1 4.821819 4.821818 4.821819 4.821819 0 0 1 -4.821819 4.821819 4.821819 4.821819 0 0 1 -4.82182 -4.821819 4.821819 4.821819 0 0 1 4.82182 -4.821818" fill="#666" stroke-width="1.205"/><ellipse ry="4.949" rx="5.258" cy="13.11" cx="13.734" fill="#8e8e8e"/><path d="m13.615 4.865c-4.66 0-8.438 3.778-8.438 8.438v8.438h8.438c4.66 0 8.438-3.778 8.438-8.438 0-4.66-3.778-8.438-8.438-8.438m0 3.616364a4.821819 4.821819 0 0 1 4.821819 4.821818 4.821819 4.821819 0 0 1 -4.821819 4.821819 4.821819 4.821819 0 0 1 -4.82182 -4.821819 4.821819 4.821819 0 0 1 4.82182 -4.821818" fill="#333" stroke-width="1.205"/></g>

   xmlns:dc="http://purl.org/dc/elements/1.1/"
   xmlns:cc="http://creativecommons.org/ns#"
   xmlns:rdf="http://www.w3.org/1999/02/22-rdf-syntax-ns#"
   xmlns:svg="http://www.w3.org/2000/svg"
   xmlns="http://www.w3.org/2000/svg"
   xmlns:xlink="http://www.w3.org/1999/xlink"
   xmlns:sodipodi="http://sodipodi.sourceforge.net/DTD/sodipodi-0.dtd"
   xmlns:inkscape="http://www.inkscape.org/namespaces/inkscape"
   version="1"
   width="32"
   height="32"
   id="svg12"
   sodipodi:docname="snow-top-3.svg"
   inkscape:version="0.92.1 r"&gt;
  <path d="m24.627.009c8.36-.339 9.455 9.523 4.064 9.505-.686.003-1.62-.197-3-1.471-14.665-10.216-14.549 2.967-17.708.875-1.727-1.822-1.743 4.653-4.139 5.127-2.122.613-3.699-1.385-3.824-4.503-.366-8.627 4.086-9.427 7.187-9.524 5.974.133 11.562-.045 17.419-.01" fill="url(#0)"/></svg>