<svg xmlns="http://www.w3.org/2000/svg" xmlns:xlink="http://www.w3.org/1999/xlink" viewBox="0 0 32 32"><defs><linearGradient xlink:href="#3" id="4" gradientUnits="userSpaceOnUse" x1="27.558" y1="-133.46" x2="22.09" y2="-134.43"/><linearGradient xlink:href="#3" id="2" gradientUnits="userSpaceOnUse" x1="15.879" y1="-141.91" x2="30.32" y2="-129.74"/><linearGradient id="3"><stop stop-color="#55c03f"/><stop offset="1" stop-color="#198b26"/></linearGradient><linearGradient id="1"><stop stop-color="#f9f9f9"/><stop offset="1" stop-color="#999"/></linearGradient><linearGradient xlink:href="#1" id="0" gradientUnits="userSpaceOnUse" x1="17.658" y1="-133.51" x2="15.02" y2="-125.58"/><radialGradient xlink:href="#1" id="5" cx="-176.59" cy="-120.91" r="3.01" gradientUnits="userSpaceOnUse" gradientTransform="matrix(2.21087.05719-.05496 2.12455 412.97 145.84)"/></defs><g fill-rule="evenodd"><rect width="28.2" height="28.2" x="1.898" y="1.898" fill="#2a9722" rx="5.575"/><path d="m9.05 30.1h15.473c3.089 0 5.574-2.486 5.574-5.574v-15.791a22.22533 22.22533 0 0 1 -.07031 1.40039 22.22533 22.22533 0 0 1 -.332032 2.19532 22.22533 22.22533 0 0 1 -.548828 2.15234 22.22533 22.22533 0 0 1 -.761718 2.087891 22.22533 22.22533 0 0 1 -.966797 2 22.22533 22.22533 0 0 1 -1.16211 1.894531 22.22533 22.22533 0 0 1 -1.34375 1.767578 22.22533 22.22533 0 0 1 -1.513672 1.626953 22.22533 22.22533 0 0 1 -1.669921 1.464844 22.22533 22.22533 0 0 1 -1.806641 1.292969 22.22533 22.22533 0 0 1 -1.927735 1.105468 22.22533 22.22533 0 0 1 -2.027343 .908204 22.22533 22.22533 0 0 1 -2.109375 .699218 22.22533 22.22533 0 0 1 -2.166016 .486328 22.22533 22.22533 0 0 1 -2.207031 .267578 22.22533 22.22533 0 0 1 -.433594 .01563" fill="#8500db"/><path d="m9.05 30.1c.145-.004.289-.009.434-.016.74-.052 1.476-.142 2.207-.268.73-.126 1.453-.288 2.166-.486.714-.198 1.418-.431 2.109-.699.69-.269 1.367-.572 2.027-.908.661-.336 1.304-.705 1.928-1.105.623-.401 1.226-.832 1.807-1.293.581-.46 1.138-.949 1.67-1.465.531-.517 1.037-1.06 1.514-1.627.477-.566.926-1.156 1.344-1.768.419-.612.807-1.244 1.162-1.895.355-.65.678-1.318.967-2 .289-.683.543-1.38.762-2.088.219-.708.402-1.426.549-2.152.147-.726.258-1.458.332-2.195.038-.466.062-.933.07-1.4v-1.262c0-2.782-1.994-5.04-4.535-5.493.096.267.241.674.324.946.166.599.303 1.206.408 1.818.106.613.181 1.231.225 1.852.031.439.047.88.047 1.32 0 .622-.032 1.243-.094 1.861-.062.619-.156 1.234-.279 1.844-.123.61-.277 1.212-.461 1.807-.184.594-.397 1.179-.639 1.752-.243.572-.514 1.132-.813 1.678-.298.546-.622 1.076-.973 1.59-.351.513-.728 1.01-1.129 1.484-.401.475-.825.93-1.271 1.363-.446.433-.913.844-1.4 1.23-.487.387-.994.75-1.518 1.086-.523.336-1.063.646-1.617.928-.554.282-1.122.536-1.701.762-.58.225-1.17.422-1.77.588-.599.166-1.206.303-1.818.408-.613.106-1.231.181-1.852.225-.439.031-.88.047-1.32.047-.622 0-1.243-.032-1.861-.094-.619-.062-1.234-.156-1.844-.279-.61-.123-1.212-.277-1.807-.461-.095-.034-.291-.059-.385-.094.525 2.536 2.757 4.459 5.453 4.459z" fill="#5631d4"/><path d="m2.02 25.643c.094.035.29.06.385.094.594.184 1.197.338 1.807.461.61.124 1.225.217 1.844.279.618.062 1.24.094 1.861.094.441 0 .881-.016 1.32-.047.621-.044 1.239-.119 1.852-.225.613-.106 1.219-.242 1.818-.408.599-.166 1.19-.363 1.77-.588.579-.225 1.147-.48 1.701-.762.554-.282 1.094-.592 1.617-.928.524-.336 1.03-.699 1.518-1.086.487-.387.954-.797 1.4-1.23.446-.433.871-.888 1.271-1.363.401-.476.778-.971 1.129-1.484.351-.513.675-1.044.973-1.59.299-.545.57-1.105.813-1.678.242-.573.455-1.158.639-1.752.184-.594.338-1.197.461-1.807.124-.61.217-1.225.279-1.844.062-.618.094-1.24.094-1.861 0-.441-.016-.881-.047-1.32-.044-.621-.119-1.239-.225-1.852-.106-.613-.242-1.219-.408-1.818-.084-.272-.228-.678-.324-.946-.366-.075-.65-.084-1.039-.084h-2.314c.06.13.119.261.176.393.187.482.35.974.488 1.473.138.499.252 1 .34 1.514.088.51.151 1.025.188 1.541.026.366.039.733.039 1.1 0 .517-.026 1.034-.078 1.549-.051.515-.128 1.028-.23 1.535-.103.507-.232 1.01-.385 1.504-.153.494-.331.981-.533 1.457-.201.477-.426.944-.674 1.398-.248.454-.519.895-.811 1.322-.292.428-.606.84-.939 1.236-.334.396-.687.774-1.059 1.135-.371.361-.76.703-1.166 1.025-.405.322-.826.623-1.262.902-.436.279-.886.537-1.348.771-.461.235-.934.447-1.416.635-.482.187-.974.35-1.473.488-.499.138-1 .252-1.514.34-.51.088-1.025.151-1.541.188-.366.026-.733.039-1.1.039-.517 0-1.034-.026-1.549-.078-.515-.051-1.028-.128-1.535-.23-.507-.103-1.01-.232-1.504-.385-.485-.15-.962-.324-1.43-.521v2.299c0 .393.044.746.121 1.115" fill="#018dc1"/><path d="m1.898443 22.22856a15.526425 15.526425 0 0 0 1.429688 .521484 15.526425 15.526425 0 0 0 1.503906 .384766 15.526425 15.526425 0 0 0 1.535156 .230468 15.526425 15.526425 0 0 0 1.548828 .07813 15.526425 15.526425 0 0 0 1.09961 -.03906 15.526425 15.526425 0 0 0 1.541015 -.1875 15.526425 15.526425 0 0 0 1.513672 -.339844 15.526425 15.526425 0 0 0 1.472656 -.488281 15.526425 15.526425 0 0 0 1.416016 -.634766 15.526425 15.526425 0 0 0 1.347656 -.771484 15.526425 15.526425 0 0 0 1.261719 -.902344 15.526425 15.526425 0 0 0 1.166016 -1.025391 15.526425 15.526425 0 0 0 1.058593 -1.134765 15.526425 15.526425 0 0 0 .939454 -1.236328 15.526425 15.526425 0 0 0 .810546 -1.322266 15.526425 15.526425 0 0 0 .673828 -1.398437 15.526425 15.526425 0 0 0 .533204 -1.457033 15.526425 15.526425 0 0 0 .384765 -1.5039A15.526425 15.526425 0 0 0 23.36524 9.46685 15.526425 15.526425 0 0 0 23.44337 7.91802 15.526425 15.526425 0 0 0 23.40431 6.81841 15.526425 15.526425 0 0 0 23.21681 5.2774 15.526425 15.526425 0 0 0 22.876967 3.76373 15.526425 15.526425 0 0 0 22.388686 2.29107 15.526425 15.526425 0 0 0 22.2129 1.89849h-3.813a12.10254 12.10254 0 0 1 .302735 .5293 12.10254 12.10254 0 0 1 .49414 1.10351 12.10254 12.10254 0 0 1 .38086 1.14844 12.10254 12.10254 0 0 1 .265625 1.17969 12.10254 12.10254 0 0 1 .144531 1.20117 12.10254 12.10254 0 0 1 .03125 .85742 12.10254 12.10254 0 0 1 -.06055 1.20704 12.10254 12.10254 0 0 1 -.181641 1.19726 12.10254 12.10254 0 0 1 -.298828 1.17188 12.10254 12.10254 0 0 1 -.414062 1.13671 12.10254 12.10254 0 0 1 -.527344 1.087892 12.10254 12.10254 0 0 1 -.630859 1.03125 12.10254 12.10254 0 0 1 -.732422 .962891 12.10254 12.10254 0 0 1 -.824219 .886718 12.10254 12.10254 0 0 1 -.910156 .796875 12.10254 12.10254 0 0 1 -.984375 .705079 12.10254 12.10254 0 0 1 -1.048833 .601555 12.10254 12.10254 0 0 1 -1.103516 .494141 12.10254 12.10254 0 0 1 -1.148438 .380859 12.10254 12.10254 0 0 1 -1.179687 .265625 12.10254 12.10254 0 0 1 -1.201172 .146484 12.10254 12.10254 0 0 1 -.857422 .0293A12.10254 12.10254 0 0 1 6.70899 19.959029 12.10254 12.10254 0 0 1 5.511724 19.779342 12.10254 12.10254 0 0 1 4.339849 19.478561 12.10254 12.10254 0 0 1 3.203131 19.0645 12.10254 12.10254 0 0 1 2.11524 18.537154 12.10254 12.10254 0 0 1 1.898443 18.404342" fill="#2a9722"/><path d="m1.898443 18.404342a12.10254 12.10254 0 0 0 .216797 .132812 12.10254 12.10254 0 0 0 1.087891 .527344 12.10254 12.10254 0 0 0 1.136718 .414063 12.10254 12.10254 0 0 0 1.171875 .300781 12.10254 12.10254 0 0 0 1.197266 .179687 12.10254 12.10254 0 0 0 1.207031 .06055 12.10254 12.10254 0 0 0 .857422 -.0293 12.10254 12.10254 0 0 0 1.201172 -.146484 12.10254 12.10254 0 0 0 1.179687 -.265625 12.10254 12.10254 0 0 0 1.148438 -.380859 12.10254 12.10254 0 0 0 1.103516 -.494141 12.10254 12.10254 0 0 0 1.048828 -.601562 12.10254 12.10254 0 0 0 .984375 -.705079 12.10254 12.10254 0 0 0 .910156 -.796875 12.10254 12.10254 0 0 0 .824219 -.886718 12.10254 12.10254 0 0 0 .732422 -.962891 12.10254 12.10254 0 0 0 .630859 -1.03125 12.10254 12.10254 0 0 0 .527344 -1.087895 12.10254 12.10254 0 0 0 .414062 -1.13671 12.10254 12.10254 0 0 0 .298828 -1.17188A12.10254 12.10254 0 0 0 19.95899 9.12505 12.10254 12.10254 0 0 0 20.01954 7.91801 12.10254 12.10254 0 0 0 19.98829 7.06059 12.10254 12.10254 0 0 0 19.843759 5.85942 12.10254 12.10254 0 0 0 19.578134 4.67973 12.10254 12.10254 0 0 0 19.19727 3.53129 12.10254 12.10254 0 0 0 18.703134 2.42778 12.10254 12.10254 0 0 0 18.400399 1.89848h-3.605a9.150789 9.150789 0 0 1 .291015 .33008 9.150789 9.150789 0 0 1 .53125 .74414 9.150789 9.150789 0 0 1 .455078 .79297 9.150789 9.150789 0 0 1 .373047 .83594 9.150789 9.150789 0 0 1 .289063 .86718 9.150789 9.150789 0 0 1 .201171 .89258 9.150789 9.150789 0 0 1 .109376 .90821 9.150789 9.150789 0 0 1 .02344 .64843 9.150789 9.150789 0 0 1 -.04687 .91211 9.150789 9.150789 0 0 1 -.136719 .9043 9.150789 9.150789 0 0 1 -.226562 .88672 9.150789 9.150789 0 0 1 -.3125 .85937 9.150789 9.150789 0 0 1 -.398438 .82422 9.150789 9.150789 0 0 1 -.478515 .7793 9.150789 9.150789 0 0 1 -.552735 .728515 9.150789 9.150789 0 0 1 -.623047 .669922 9.150789 9.150789 0 0 1 -.6875 .603515 9.150789 9.150789 0 0 1 -.74414 .53125 9.150789 9.150789 0 0 1 -.792969 .455079 9.150789 9.150789 0 0 1 -.835937 .373047A9.150789 9.150789 0 0 1 10.365251 16.73442 9.150789 9.150789 0 0 1 9.472673 16.935592 9.150789 9.150789 0 0 1 8.56447 17.04497 9.150789 9.150789 0 0 1 7.916032 17.06841 9.150789 9.150789 0 0 1 7.00392 17.02154 9.150789 9.150789 0 0 1 6.099626 16.884819 9.150789 9.150789 0 0 1 5.212907 16.658256 9.150789 9.150789 0 0 1 4.353532 16.345756 9.150789 9.150789 0 0 1 3.529313 15.947319 9.150789 9.150789 0 0 1 2.750017 15.468803 9.150789 9.150789 0 0 1 2.0215 14.916069 9.150789 9.150789 0 0 1 1.898454 14.800834" fill="#e8e022"/><path d="m1.898443 14.800826a9.150789 9.150789 0 0 0 .123047 .115235 9.150789 9.150789 0 0 0 .728516 .552734 9.150789 9.150789 0 0 0 .779296 .478516 9.150789 9.150789 0 0 0 .824219 .398437 9.150789 9.150789 0 0 0 .859375 .3125 9.150789 9.150789 0 0 0 .886719 .226563 9.150789 9.150789 0 0 0 .904297 .136718 9.150789 9.150789 0 0 0 .912109 .04687 9.150789 9.150789 0 0 0 .648438 -.02344 9.150789 9.150789 0 0 0 .908203 -.109375 9.150789 9.150789 0 0 0 .892578 -.201172 9.150789 9.150789 0 0 0 .867188 -.289062 9.150789 9.150789 0 0 0 .835937 -.373047 9.150789 9.150789 0 0 0 .792969 -.455079 9.150789 9.150789 0 0 0 .74414 -.53125 9.150789 9.150789 0 0 0 .6875 -.603515 9.150789 9.150789 0 0 0 .623047 -.669922 9.150789 9.150789 0 0 0 .552735 -.728517 9.150789 9.150789 0 0 0 .478515 -.7793 9.150789 9.150789 0 0 0 .398438 -.82422 9.150789 9.150789 0 0 0 .3125 -.85937A9.150789 9.150789 0 0 0 16.884771 9.73441 9.150789 9.150789 0 0 0 17.02149 8.83011 9.150789 9.150789 0 0 0 17.06836 7.918 9.150789 9.150789 0 0 0 17.04492 7.26957 9.150789 9.150789 0 0 0 16.935544 6.36136 9.150789 9.150789 0 0 0 16.734373 5.46878 9.150789 9.150789 0 0 0 16.44531 4.6016 9.150789 9.150789 0 0 0 16.07226 3.76566 9.150789 9.150789 0 0 0 15.617185 2.97269 9.150789 9.150789 0 0 0 15.08593 2.22855 9.150789 9.150789 0 0 0 14.79492 1.89847H9.762a6.296822 6.296822 0 0 1 .01563 .004 6.296822 6.296822 0 0 1 .591797 .21484 6.296822 6.296822 0 0 1 .566406 .27344 6.296822 6.296822 0 0 1 .53711 .33008 6.296822 6.296822 0 0 1 .5 .38086 6.296822 6.296822 0 0 1 .460937 .42773 6.296822 6.296822 0 0 1 .416016 .47266 6.296822 6.296822 0 0 1 .365234 .51367 6.296822 6.296822 0 0 1 .314453 .54492 6.296822 6.296822 0 0 1 .25586 .57422 6.296822 6.296822 0 0 1 .199219 .59766 6.296822 6.296822 0 0 1 .138671 .61523 6.296822 6.296822 0 0 1 .07422 .62305 6.296822 6.296822 0 0 1 .01563 .44726 6.296822 6.296822 0 0 1 -.03125 .62696 6.296822 6.296822 0 0 1 -.09375 .62304 6.296822 6.296822 0 0 1 -.15625 .60938 6.296822 6.296822 0 0 1 -.214844 .5918 6.296822 6.296822 0 0 1 -.273437 .5664 6.296822 6.296822 0 0 1 -.330078 .53711 6.296822 6.296822 0 0 1 -.380859 .5 6.296822 6.296822 0 0 1 -.427735 .46094 6.296822 6.296822 0 0 1 -.472656 .41601 6.296822 6.296822 0 0 1 -.513672 .36524 6.296822 6.296822 0 0 1 -.544922 .31445 6.296822 6.296822 0 0 1 -.574219 .255863 6.296822 6.296822 0 0 1 -.597656 .199219 6.296822 6.296822 0 0 1 -.615234 .138672 6.296822 6.296822 0 0 1 -.623047 .07422 6.296822 6.296822 0 0 1 -.447266 .01758 6.296822 6.296822 0 0 1 -.626953 -.0332A6.296822 6.296822 0 0 1 6.666024 14.08802 6.296822 6.296822 0 0 1 6.05665 13.933727 6.296822 6.296822 0 0 1 5.464852 13.71693 6.296822 6.296822 0 0 1 4.898446 13.44349 6.296822 6.296822 0 0 1 4.361337 13.11342 6.296822 6.296822 0 0 1 3.861337 12.73256 6.296822 6.296822 0 0 1 3.400399 12.30482 6.296822 6.296822 0 0 1 2.984384 11.83217 6.296822 6.296822 0 0 1 2.619149 11.31849 6.296822 6.296822 0 0 1 2.304696 10.77357 6.296822 6.296822 0 0 1 2.048837 10.19935 6.296822 6.296822 0 0 1 1.898446 9.74818" fill="#d76100"/><path d="m1.898443 9.74809a6.296822 6.296822 0 0 0 .150391 .45117 6.296822 6.296822 0 0 0 .255859 .57422 6.296822 6.296822 0 0 0 .314453 .54492 6.296822 6.296822 0 0 0 .365235 .51368 6.296822 6.296822 0 0 0 .416015 .47265 6.296822 6.296822 0 0 0 .460938 .42774 6.296822 6.296822 0 0 0 .5 .38086 6.296822 6.296822 0 0 0 .537109 .33007 6.296822 6.296822 0 0 0 .566406 .273442 6.296822 6.296822 0 0 0 .591797 .216797 6.296822 6.296822 0 0 0 .609375 .154297 6.296822 6.296822 0 0 0 .623047 .09375 6.296822 6.296822 0 0 0 .626953 .0332 6.296822 6.296822 0 0 0 .447266 -.01758 6.296822 6.296822 0 0 0 .623047 -.07422 6.296822 6.296822 0 0 0 .615234 -.138672 6.296822 6.296822 0 0 0 .597656 -.199219 6.296822 6.296822 0 0 0 .574219 -.255865 6.296822 6.296822 0 0 0 .544922 -.31445 6.296822 6.296822 0 0 0 .513672 -.36524 6.296822 6.296822 0 0 0 .472656 -.41601 6.296822 6.296822 0 0 0 .427735 -.46094 6.296822 6.296822 0 0 0 .380859 -.5 6.296822 6.296822 0 0 0 .330078 -.53711 6.296822 6.296822 0 0 0 .273437 -.5664 6.296822 6.296822 0 0 0 .214844 -.5918A6.296822 6.296822 0 0 0 14.0879 9.168 6.296822 6.296822 0 0 0 14.181646 8.54496 6.296822 6.296822 0 0 0 14.212896 7.918 6.296822 6.296822 0 0 0 14.197266 7.47074 6.296822 6.296822 0 0 0 14.12305 6.84769 6.296822 6.296822 0 0 0 13.984375 6.23246 6.296822 6.296822 0 0 0 13.785156 5.6348 6.296822 6.296822 0 0 0 13.529296 5.06058 6.296822 6.296822 0 0 0 13.214843 4.51566 6.296822 6.296822 0 0 0 12.849609 4.00199 6.296822 6.296822 0 0 0 12.433593 3.52933 6.296822 6.296822 0 0 0 11.972656 3.1016 6.296822 6.296822 0 0 0 11.472656 2.72074 6.296822 6.296822 0 0 0 10.935546 2.39066 6.296822 6.296822 0 0 0 10.36914 2.11722 6.296822 6.296822 0 0 0 9.777343 1.90238 6.296822 6.296822 0 0 0 9.761713 1.89838H7.473C4.384 1.898 1.898 4.386 1.898 7.475" fill="#ab1406"/></g><path d="m8.973 9.624v.938l1.246.095.202.285-2.01 10.685-.309.297-1.269.094v.973h5.556v-.973l-1.235-.083-.214-.309.819-4.476h1.258l1.805 3.799c.738 1.515 1.255 2.164 2.849 2.185.458.006.643.04 1.88 0 4.266-3.561 6.443-6.276 6.787-7.503.208-.743-.122-1.199-.831-1.199-.346 0-.742.146-1.187.44l-.321 2.552c-.873 1.141-2.037 2.384-3.455 3.68l.938-4.903c.195-1 .259-1.538-.392-1.745l-2.909.641-.154.546 1.341.214c.093.346-.01 1.097-.214 2.256l-.653 3.597c-.01.037-.017.078-.024.119-.423-.227-.69-.633-.997-1.246l-2.552-5.105 4.666-4.725 1.591-.154v-.974h-4.986v.974l1.234.095.119.321-4.998 5.153h-.594l.985-5.224.261-.285 1.318-.095v-.938z" fill="#fff" stroke-width="1.223"/><g transform="translate(-.916 143.06)"><path d="m15.583-142.61c-5.577-1.531-5.951 3.24-4.58 5.493 4.381 6.983 6.796 6.577 9.398 7.895 1.712 2.064 3.451 3.4 6.469 4.1 11.69 1.559 3.242-8.417.92-8.649-5.065.012-7.547-6.123-12.206-8.838" fill="url(#0)"/><path d="m15.583-142.61c3.76.276 5.616-.626 8.93-.421 4.319.283 8.307 2.053 7.838 6.574-.347 2.567-.37 2.25.186 4.296.532 1.535-.252 4.232-.487 4.654-2.715 4.963-1.536 4.965-2.656 7.742l-.906-.418-2.508-11.358c-7.177-.909-10.754-10.11-10.398-11.07" fill="url(#2)"/><path d="m22.374-132.67c.362.274 1.553-5.105 1.172-5.653 1.379 2.44 1.919 4.616 2.435 6.783-1.276-.283-2.289-.554-3.607-1.13" fill="url(#4)"/><circle r="3.01" cy="-119.45" cx="29.06" fill="url(#5)"/></g></svg>