<svg xmlns="http://www.w3.org/2000/svg" viewBox="0 0 32 32"><defs><linearGradient gradientTransform="matrix(2.54182 0 0 2.58531-153.47-277.37)" id="0" x1="67.894" y1="108.69" x2="67.854" y2="113.11" gradientUnits="userSpaceOnUse"><stop stop-color="#f9f9f9"/><stop offset="1" stop-color="#999"/></linearGradient></defs><g fill-rule="evenodd"><rect width="28.2" height="28.2" x="1.898" y="1.898" fill="#fff" rx="5.575"/><path d="m7.473 1.898c-3.089 0-5.574 2.486-5.574 5.574v17.05c0 .665.122 1.299.334 1.889h1.299v.635h-1.027c.918 1.812 2.791 3.053 4.969 3.053h17.05c3.089 0 5.574-2.488 5.574-5.576v-17.05c0-3.089-2.486-5.574-5.574-5.574zm-4.502 3.053h2.539v.635h-2.539m3.811-.635h2.539v.635h-2.539m3.809-.635h2.541v.635h-2.541zm3.811 0h2.539v.635h-2.539m3.811-.635h2.539v.635h-2.539zm3.809 0h.469.033l.855.086.063.014.797.246.059.023.33.18-.303.559-.297-.162-.738-.229-.811-.082h-.457zm3.725 1.365l.51.617.035.051.389.721.025.057.246.799.012.061.01.086-.633.063-.004-.049-.23-.744-.357-.658-.492-.6m1.16 3.285h.635v2.541h-.635zm0 3.811h.635v2.539h-.635zm0 3.811h.635v2.539h-.635zm0 3.809h.635v1.055l-.002.031-.086.857-.012.063-.184.596-.607-.188.176-.57.08-.801zm-.803 3.414l.49.402-.365.443-.043.043-.627.518-.051.033-.721.391-.059.023-.318.1-.188-.607.287-.088.672-.363.576-.477zm-3.063 1.559l.063.631-.09.01-.033.002h-2.447v-.635h2.434zm-17.748.008h2.541v.635h-2.541m3.811-.635h2.539v.635h-2.539m3.811-.635h2.539v.635h-2.539zm3.809 0h2.541v.635h-2.541z" fill="#c49a6c"/></g><g transform="translate(3.102)"><path d="m21.4 12h5.6v8h-5.6c-.776 0-1.4-.595-1.4-1.333v-5.333c0-.739.624-1.334 1.4-1.334" fill="#9b6e3e"/><g fill="#fff"><path d="m21.806 12.5v.167l-.018-.165-.066.007.037.331.047-.006h.706v-.333h-.706m1.059 0v.333h.706v-.333m.353 0v.333h.706v-.333m.353 0v.333h.706v-.333m.353 0v.333h.459v-.333h-.459zm-4.697.086l-.032.009-.018.006-.015.008-.192.103-.015.008-.014.01-.167.135-.012.01-.011.013-.138.164-.01.013-.008.014-.004.008.201.099.098.073.13-.154.136-.112.163-.086.015-.006-.001-.002h.003l-.007-.01-.102-.302m-.787.837l-.026.085-.006.014-.001.017-.022.224-.001.008v.362h.353v-.354l.021-.194.021-.066-.338-.095m-.056 1.044v.667h.353v-.667zm0 1v.667h.353v-.667zm0 1v.667h.353v-.667zm0 1v.667h.353v-.667zm.374.95l-.338.095.059.193.006.016.008.013.103.189.008.014.01.013.138.164.011.013.012.01.034.027.23-.253-.019-.016-.119-.141-.09-.163-.055-.176m.542.667l-.172.29.036.02.015.008.018.006.211.065.018.006h.018l.229.022h.01.221v-.333h-.212l-.194-.021-.178-.055-.018-.009m.955.084v.333h.706v-.333zm1.059 0v.333h.706v-.333zm1.059 0v.333h.706v-.333zm1.059 0v.333h.706v-.333z"/><path d="M24.13114 16.06631A.940568 .945956 0 0 1 23.19057 17.01227 .940568 .945956 0 0 1 22.25 16.06631a.940568 .945956 0 0 1 .940568 -.945956 .940568 .945956 0 0 1 .940568 .945956" stroke-width=".5"/></g></g><path d="m10.755 15.311l-1.757.16v6.847l1.738-.249v-2.919l2.339 3.239 1.832-.55-2.395-3.114 2.414-2.937-1.869-.405-2.32 2.937.019-3.01m-3.983 1.669c-.02.004-.041.007-.056.021l-.691.654c-.029.028-.032.07-.011.103l.807 1.261c-.143.228-.26.472-.342.731l-1.483.291c-.041.008-.071.045-.071.085v.923c0 .039.031.073.071.082l1.438.33c.077.3.196.587.353.849l-.833 1.2c-.023.033-.019.078.011.107l.691.653c.029.027.074.031.109.011l1.306-.749c.256.14.534.252.826.327l.305 1.385c.008.039.044.067.086.067h.976c.041 0 .077-.026.086-.064l.36-1.392c.301-.077.586-.191.848-.337l1.287.799c.035.022.083.018.113-.011l.687-.653c.029-.028.036-.07.015-.103l-.469-.732-.154.046c-.022.006-.047-.004-.06-.021 0 0-.296-.413-.683-.948-.463.856-1.406 1.442-2.492 1.442-1.544 0-2.797-1.185-2.797-2.646 0-1.074.679-1.997 1.652-2.411v-.682c-.177.059-.348.129-.511.213 0 0 0-.004 0-.004l-1.318-.817c-.018-.011-.036-.013-.056-.01" fill-opacity=".494" color="#31363b"/>

   xmlns:dc="http://purl.org/dc/elements/1.1/"
   xmlns:cc="http://creativecommons.org/ns#"
   xmlns:rdf="http://www.w3.org/1999/02/22-rdf-syntax-ns#"
   xmlns:svg="http://www.w3.org/2000/svg"
   xmlns="http://www.w3.org/2000/svg"
   xmlns:xlink="http://www.w3.org/1999/xlink"
   xmlns:sodipodi="http://sodipodi.sourceforge.net/DTD/sodipodi-0.dtd"
   xmlns:inkscape="http://www.inkscape.org/namespaces/inkscape"
   height="32"
   width="32"
   version="1"
   id="svg8"
   sodipodi:docname="snow-top-2.svg"
   inkscape:version="0.92.1 r"&gt;
  <path d="m24.646 6.111c2.995 2.684 1.381 7.817 3.674 8.291 2.031.613 3.541-1.385 3.66-4.503.35-8.627-3.911-9.427-6.879-9.524-28.342-2.047-1.762 4.92-.455 5.736" fill="url(#0)"/></svg>