<svg xmlns="http://www.w3.org/2000/svg" xmlns:xlink="http://www.w3.org/1999/xlink" viewBox="0 0 32 32"><defs><linearGradient xlink:href="#3" id="4" x1="-227.98" y1="-131.26" x2="-234.8" y2="-134.14" gradientUnits="userSpaceOnUse"/><linearGradient xlink:href="#3" id="2" x1="-241.01" y1="-141.61" x2="-226.57" y2="-129.44" gradientUnits="userSpaceOnUse"/><linearGradient id="3"><stop stop-color="#13a9ea"/><stop offset="1" stop-color="#372db5"/></linearGradient><linearGradient id="1"><stop stop-color="#f9f9f9"/><stop offset="1" stop-color="#999"/></linearGradient><linearGradient xlink:href="#1" id="0" x1="-239.23" y1="-133.21" x2="-241.87" y2="-125.28" gradientUnits="userSpaceOnUse"/><radialGradient xlink:href="#1" id="5" cx="-176.59" cy="-120.91" r="3.01" gradientUnits="userSpaceOnUse" gradientTransform="matrix(2.21087.05719-.05496 2.12455 156.08 146.14)"/></defs><g fill-rule="evenodd"><g fill="#6929d8"><rect width="28.2" height="28.2" x="1.898" y="1.898" rx="5.575"/><path d="m7.254 5.422c-.669 0-1.241.369-1.568.798-.328.429-.479.933-.479 1.46v11.283c0 .527.152 1.031.479 1.46.328.429.899.797 1.568.797h13.604c.669 0 1.242-.369 1.569-.797.328-.429.479-.933.479-1.46v-11.283c0-.527-.152-1.031-.479-1.46-.328-.429-.9-.798-1.569-.798" shape-rendering="auto" mix-blend-mode="normal" isolation="auto" color-interpolation-filters="linearRGB" white-space="normal" solid-opacity="1" image-rendering="auto" solid-color="#000000" color="#000" color-rendering="auto" vector-effect="none" shape-padding="0" color-interpolation="sRGB"/></g><g color-rendering="auto" shape-rendering="auto" color-interpolation-filters="linearRGB" image-rendering="auto" color-interpolation="sRGB" color="#000"><path d="m7.889 6.577c-.348 0-.653.189-.844.439-.191.25-.291.567-.291.906v.883a.456518 .456518 0 0 0 0 .03125v10.369c0 .34.1.654.291.904.191.25.495.439.844.439h13.604c.348 0 .653-.189.844-.439.191-.25.291-.565.291-.904v-10.359c0-.003.002-.006.002-.01a.456518 .456518 0 0 0 -.002 -.044922v-.869c0-.34-.1-.656-.291-.906-.191-.25-.495-.439-.844-.439zm0 .914h13.604c.028 0 .063.009.117.08.054.071.105.199.105.352v.914c0 .124-.085.209-.209.209h-13.631c-.124 0-.209-.085-.209-.209v-.914c0-.152.051-.28.105-.352.054-.071.09-.08.117-.08m12.671875.193359a.273611 .273611 0 0 0 -.191406 .470703l.131.131-.115.115a.274143 .274143 0 1 0 .386718 .388672l.117-.117.115.117a.274143 .274143 0 0 0 .386719 -.388672l-.115-.115.115-.117a.273655 .273655 0 0 0 -.386719 -.386719l-.115.115-.131-.129a.273611 .273611 0 0 0 -.197265 -.083984m-12.895 2.232c.07.014.135.043.209.043h13.631c.074 0 .139-.029.209-.043v9.289c0 .152-.051.28-.105.352-.054.071-.089.08-.117.08h-13.604c-.028 0-.063-.009-.117-.08-.054-.071-.105-.199-.105-.352z" mix-blend-mode="normal" isolation="auto" white-space="normal" fill="#fff" solid-opacity="1" solid-color="#000000" vector-effect="none" shape-padding="0"/><path d="m11.142 10.78c-.669 0-1.241.369-1.568.798-.328.429-.479.933-.479 1.46v11.283c0 .527.152 1.031.479 1.46.328.429.899.797 1.568.797h13.604c.669 0 1.241-.369 1.568-.797.328-.429.479-.933.479-1.46v-11.283c0-.527-.152-1.031-.479-1.46-.328-.429-.899-.798-1.568-.798z" mix-blend-mode="normal" isolation="auto" white-space="normal" fill="#6929d8" solid-opacity="1" solid-color="#000000" vector-effect="none" shape-padding="0"/><g fill="#fff"><path d="m11.142 11.701c-.345 0-.646.188-.836.436-.19.248-.29.563-.29.901v11.283c0 .338.101.652.29.9.19.248.491.436.836.436h13.604c.345 0 .647-.188.837-.436.19-.248.29-.562.29-.9v-11.283c0-.338-.101-.653-.29-.901-.19-.248-.491-.436-.837-.436zm0 .896h13.604c.031 0 .069.011.125.083.056.073.106.203.106.357v11.283c0 .154-.051.284-.106.357-.056.073-.094.083-.125.083h-13.604c-.031 0-.068-.011-.124-.083-.056-.073-.106-.202-.106-.357v-11.283c0-.154.051-.284.106-.357.056-.073.093-.083.124-.083" mix-blend-mode="normal" isolation="auto" white-space="normal" solid-opacity="1" solid-color="#000000" vector-effect="none" shape-padding="0"/><path d="m11.129 11.669c-.609 0-1.113.504-1.113 1.113v1.17c0 .609.504 1.113 1.113 1.113h13.63c.609 0 1.113-.504 1.113-1.113v-1.17c0-.609-.504-1.113-1.113-1.113zm0 .896h13.63c.128 0 .218.089.218.218v1.17c0 .128-.089.218-.218.218h-13.63c-.128 0-.218-.089-.218-.218v-1.17c0-.128.089-.218.218-.218" mix-blend-mode="normal" isolation="auto" white-space="normal" solid-opacity="1" solid-color="#000000" vector-effect="none" shape-padding="0"/><path d="m11.143 11.693c-.348 0-.653.188-.844.438-.191.25-.291.567-.291.906v.883a.456518 .456518 0 0 0 0 .03125v10.369c0 .34.1.656.291.906.191.25.495.438.844.438h13.604c.348 0 .653-.188.844-.438.191-.25.291-.567.291-.906v-10.359c0-.003.002-.006.002-.01a.456518 .456518 0 0 0 -.001953 -.044922v-.869c0-.34-.1-.656-.291-.906-.191-.25-.495-.438-.844-.438h-13.604m0 .912h13.604c.028 0 .063.009.117.08.054.071.105.199.105.352v.914c0 .124-.085.209-.209.209h-13.631c-.124 0-.209-.085-.209-.209v-.914c0-.152.051-.28.105-.352.054-.071.09-.08.117-.08m12.666016.232422a.2564 .2564 0 0 0 -.152344 .439453l.123.123-.109.109a.256442 .256442 0 1 0 .361328 .361328l.109-.109.109.109a.256442 .256442 0 1 0 .363281 -.361328l-.109-.109.109-.109a.256879 .256879 0 1 0 -.363281 -.363282l-.109.109-.123-.123a.2564 .2564 0 0 0 -.183594 -.076171 .2564 .2564 0 0 0 -.02539 0m-12.889 2.193c.07.014.135.043.209.043h13.631c.074 0 .139-.029.209-.043v9.289c0 .152-.051.28-.105.352-.054.071-.089.08-.117.08h-13.604c-.028 0-.063-.009-.117-.08-.054-.071-.105-.199-.105-.352v-9.289m7.24.898c-.154 0-.28.049-.377.148-.097.099-.146.224-.146.373v4.047c0 .151.049.273.146.365.099.093.226.139.377.139.151 0 .274-.049.371-.146.097-.097.146-.215.146-.357v-1.787l1.799 1.967c.113.117.205.2.277.25.075.05.158.074.248.074.154 0 .283-.04.387-.121.104-.084.156-.205.156-.363 0-.099-.026-.19-.078-.271-.05-.084-.122-.17-.215-.258l-1.602-1.689 1.311-1.305c.12-.12.208-.221.262-.303.054-.084.08-.168.08-.254 0-.151-.05-.273-.154-.365-.102-.095-.222-.143-.359-.143-.149 0-.285.066-.404.197l-1.707 1.836v-1.512c0-.163-.049-.29-.146-.383-.095-.093-.217-.139-.371-.139m-2.246.803l-.68.559.615 1.051-.35.857-1.201.199-.004.912 1.238.316.34.834-.785 1.01.666.697 1.08-.729.857.381.285 1.25.92-.008.254-1.285.857-.34 1.078.699.508-.699-1.225-1.154c-3.139 2.879-5.851-1.56-3.154-3.416v-.666l-.318.158-.982-.625" mix-blend-mode="normal" isolation="auto" white-space="normal" solid-opacity="1" solid-color="#000000" vector-effect="none" shape-padding="0"/></g></g></g><g transform="matrix(-1 0 0 1-223.97 142.77)"><g fill="#f9f9f9"><path d="m-228.95-129.3l-.27 2.221-.122-2.378z"/><path d="m-228.66-130.01l-.27 2.221-.122-2.378z"/><path d="m-228.43-129.95l-.27 1.6-.122-1.713z"/></g><path d="m-241.31-142.31c-5.577-1.531-5.951 3.24-4.58 5.493 4.381 6.983 6.796 6.577 9.398 7.895 1.712 2.064 3.451 3.4 6.469 4.1 11.69 1.559 3.242-8.417.92-8.649-5.065.012-7.547-6.123-12.206-8.838" fill="url(#0)"/><path d="m-241.31-142.31c3.76.276 5.616-.626 8.93-.421 4.319.283 8.307 2.053 7.838 6.574-.347 2.567-.37 2.25.186 4.296.532 1.535-.252 4.232-.487 4.654-2.715 4.963-1.536 4.965-2.656 7.742l-.906-.418-2.508-11.358c-7.177-.909-10.754-10.11-10.398-11.07" fill="url(#2)"/><path d="m-234.52-132.37c.362.274 1.553-5.105 1.172-5.653 1.379 2.44 1.919 4.616 2.435 6.783-1.276-.283-2.289-.554-3.607-1.13" fill="url(#4)"/><circle r="3.01" cy="-119.15" cx="-227.83" fill="url(#5)"/></g></svg>