<svg xmlns="http://www.w3.org/2000/svg" viewBox="0 0 32 32" xmlns:xlink="http://www.w3.org/1999/xlink"><defs><linearGradient xlink:href="#3" id="4" gradientUnits="userSpaceOnUse" x1="-23.24" y1="-185.08" x2="-28.704" y2="-186.05"/><linearGradient xlink:href="#3" id="2" gradientUnits="userSpaceOnUse" x1="-34.914" y1="-193.53" x2="-20.469" y2="-181.36"/><linearGradient id="3"><stop stop-color="#ffff5e"/><stop offset="1" stop-color="#f6a32d"/></linearGradient><linearGradient id="1"><stop stop-color="#f9f9f9"/><stop offset="1" stop-color="#999"/></linearGradient><linearGradient xlink:href="#1" id="0" gradientUnits="userSpaceOnUse" x1="-33.14" y1="-185.13" x2="-35.775" y2="-177.2"/><radialGradient xlink:href="#1" id="5" cx="-176.59" cy="-120.91" r="3.01" gradientUnits="userSpaceOnUse" gradientTransform="matrix(2.21087.05719-.05496 2.12455 362.18 94.22)"/></defs><rect width="28.2" height="28.2" x="1.898" y="1.898" fill="#5aa331" fill-rule="evenodd" rx="5.575"/><g transform="translate(42-5.474)"><circle cy="21.474" cx="-26" r="10" fill="#efefef"/><path d="m-29.412 29.374c-.056-.027-.149-.108-.206-.182-.057-.073-.205-.231-.329-.351-.189-.183-.243-.219-.34-.226-.065 0-.164-.043-.228-.088-.12-.084-.335-.335-.335-.391 0-.044-.137-.09-.27-.09-.233 0-.409-.116-.463-.305-.018-.065-.064-.195-.1-.29-.056-.144-.084-.178-.18-.215-.525-.206-.538-.215-.624-.417-.031-.072-.083-.169-.118-.214-.05-.066-.058-.11-.041-.226.016-.113.007-.168-.044-.261-.059-.107-.061-.126-.02-.216.025-.054.061-.108.08-.119.019-.011.057-.059.084-.108.049-.087.048-.088-.087-.202-.075-.063-.198-.151-.272-.195-.109-.065-.145-.109-.182-.225-.082-.253-.066-.323.112-.492.087-.083.159-.174.159-.203 0-.029-.054-.108-.121-.176-.066-.068-.172-.189-.235-.27-.159-.203-.245-.271-.425-.334-.263-.093-.566-.207-.616-.232-.026-.013-.085-.086-.13-.162-.128-.215-.191-.259-.393-.274-.287-.022-.31-.108-.209-.751.044-.277.091-.386.237-.55.184-.207.341-.28.641-.3.234-.015.265-.01.488.082.131.054.261.111.288.126.113.064.582.697.617.831.01.04.057.125.105.188.077.103.12.125.397.211.171.053.354.129.407.169.122.094.151.093.297-.014.213-.156.313-.197.523-.219.336-.035.349-.044.349-.237 0-.125.02-.197.081-.293.115-.18.19-.172.399.046.091.095.231.205.311.245.144.071.147.071.273.021.135-.054.294-.218.362-.371.056-.128.017-.313-.09-.427-.196-.208-.446-.589-.446-.679 0-.127.22-.43.378-.522.152-.089.201-.153.273-.366.084-.248.147-.351.26-.43.118-.083.125-.123.054-.303-.121-.307-.031-.492.311-.638.237-.101.277-.175.152-.279-.098-.082-.081-.192.045-.284.151-.111.226-.323.176-.495-.02-.069-.064-.175-.097-.235-.116-.21-.07-.324.168-.416.125-.048.248-.171.248-.248 0-.027-.064-.106-.141-.176-.152-.138-.201-.254-.145-.35.051-.087.178-.076.281.024.047.046.122.092.166.101.12.026.381-.097.501-.237.078-.091.131-.123.23-.138.07-.011.188-.062.261-.114.121-.085.133-.106.133-.223 0-.126.003-.129.116-.146.14-.021.261-.09.331-.188.048-.067.047-.078-.015-.171-.037-.055-.067-.127-.067-.161 0-.034-.017-.118-.037-.188-.021-.071-.027-.174-.014-.235.04-.196.26-.218.436-.044.106.105.113.174.029.299-.053.079-.055.098-.017.146.042.052.051.053.202.01.219-.066.348-.06.53.025.088.041.212.073.283.073.182.001.279.055.305.171.047.212.179.22.314.019.084-.125.166-.148.335-.092.109.035.141.036.206 0 .112-.057.201-.051.425.032.118.043.224.065.259.054.033-.011.152-.11.266-.22.178-.173.221-.2.317-.2.139 0 .3.088.362.198.026.046.096.118.156.16.079.056.114.107.128.189.011.062.069.176.129.254.086.112.114.182.131.328.019.166.032.191.111.229.139.066.268.053.385-.039.057-.045.159-.118.225-.163.075-.051.153-.145.206-.247.079-.152.096-.167.213-.184.143-.022.308.034.379.127.071.093.028.389-.084.571-.079.129-.09.173-.072.273.023.123.052.158.249.297.064.045.144.133.179.196.084.151.32.284.426.24.056-.024.077-.061.09-.167.009-.075.033-.152.054-.17.046-.042.449-.035.54.01.046.022.065.061.065.13 0 .054.023.148.052.211.037.081.05.189.047.383-.006.307.003.331.232.577.239.257.314.357.46.608.178.307.251.493.276.704.015.123.049.214.111.297.218.293.237.48.148 1.43-.034.367-.042.596-.024.672.018.075.013.259-.017.532-.048.437-.094.59-.317 1.053-.089.184-.12.29-.127.438-.051.996-.278 1.436-.739 1.436-.096 0-.187.037-.406.165-.444.26-.521.294-.782.355-.313.073-.439.141-.511.275-.07.131-.053.165.153.309.217.152.228.176.164.357-.097.277-.212.296-.513.086-.126-.087-.242-.146-.291-.146-.045 0-.191.051-.324.114-.415.195-.517.211-.748.118-.167-.068-.185-.063-.414.122-.09.073-.112.111-.112.198 0 .131-.045.178-.17.178-.052 0-.122.023-.156.051-.035.029-.111.051-.175.051-.108 0-.116.01-.155.131-.044.142-.167.263-.267.263-.035 0-.131.032-.214.071-.325.152-.559.136-.881-.059-.286-.173-.324-.206-.41-.362-.101-.182-.17-.231-.397-.28-.109-.023-.29-.077-.404-.119-.183-.067-.234-.074-.448-.057-.133.01-.256.018-.273.018-.017-.001-.144 0-.28-.01-.221-.01-.256-.015-.317-.08-.085-.091-.29-.204-.37-.204-.074 0-.219.131-.301.272-.055.094-.058.122-.024.239.058.201.049.243-.065.308-.088.05-.136.056-.325.041-.194-.015-.239-.01-.358.05-.075.037-.222.147-.328.243-.179.162-.191.182-.175.277.038.222-.058.297-.226.175-.1-.072-.147-.072-.318-.001-.166.069-.171.11-.016.132.066.01.187.037.269.062.138.042.161.042.293 0 .14-.049.145-.049.294.019.181.082.225.18.17.37-.046.156-.109.186-.462.215-.699.058-.757.059-.864.01zm8.31-2.747c.037-.031.096-.108.132-.172.071-.127.07-.111.059-1.213-.007-.682.012-.765.212-.981.096-.103.179-.153.384-.23.451-.17.705-.337.799-.525.076-.151.075-.269-.003-.474-.08-.21-.129-.258-.216-.215-.086.042-.155.015-.178-.071-.017-.061-.037-.069-.174-.068-.132.001-.16.011-.19.071-.046.092-.125.089-.165-.01-.027-.066-.045-.074-.126-.059-.078.014-.095.01-.095-.036 0-.029.03-.089.067-.133.067-.078.067-.079.003-.094-.035-.01-.107-.07-.159-.137-.09-.115-.095-.138-.103-.443-.014-.552-.007-.615.075-.706.059-.066.079-.131.094-.316.011-.128.035-.377.053-.552.036-.345.007-.566-.096-.733-.067-.107-.127-.538-.115-.827.008-.186 0-.219-.055-.255-.057-.037-.073-.034-.146.032-.1.088-.114.09-.136.014-.01-.035-.043-.058-.083-.058-.096 0-.082-.061.032-.148.083-.063.094-.085.066-.133-.067-.116.073-.169.327-.124.042.01.06 0 .054-.03-.005-.023.007-.079.028-.124.045-.101-.002-.171-.116-.171-.084 0-.14-.076-.14-.188 0-.043-.027-.09-.064-.111-.077-.044-.08-.078-.013-.123.045-.031.043-.045-.02-.143-.081-.126-.209-.197-.412-.227-.079-.012-.243-.036-.365-.054-.122-.018-.336-.054-.476-.079-.492-.09-.793-.105-1.042-.054-.512.104-.875.296-.99.521-.087.172-.189.327-.322.491-.073.09-.148.214-.167.277-.033.11-.078.18-.326.513-.064.087-.325.357-.579.601-.371.357-.484.485-.576.657-.063.117-.126.252-.14.3-.014.048-.055.153-.09.234-.036.08-.098.228-.138.329-.064.16-.11.215-.375.441-.367.314-.509.535-.446.696.035.088.028.112-.072.284-.107.182-.108.189-.051.237.058.048.057.052-.017.153-.053.072-.071.127-.059.184.014.062.002.088-.049.113-.037.018-.067.051-.067.073 0 .022-.035.064-.078.094-.073.051-.076.061-.042.192.03.118.027.146-.017.191-.032.033-.056.119-.063.227-.011.167-.007.177.086.233.053.032.113.102.131.154.065.184.167.244.495.286.163.021.369.039.459.039.09.001.211.02.27.042.059.023.27.056.469.074.199.018.376.041.393.05.077.044.292.072.642.083.478.015.778.033.993.06.15.018.177.013.249-.049.079-.068.081-.069.126-.013.025.031.045.087.045.123 0 .041.043.097.112.148.154.112.237.251.237.398 0 .067.003.221.008.341.007.2.014.22.077.228.085.011.122.136.074.252-.037.09.002.162.087.162.048 0 .047.033-.012.27-.029.116.076.109.124-.01.045-.109.149-.121.149-.018 0 .134.144.118.201-.023.028-.07.132.072.132.18 0 .092.01.107.064.1.165-.021.609 0 .643.036.013.012.163.016.333.01.246-.011.323-.025.376-.069zm-3.531-4.247c-.189-.029-.408-.12-.486-.201-.056-.058-.058-.076-.022-.187.022-.068.051-.178.064-.245.013-.067.061-.173.105-.235.119-.166.247-.407.247-.466.001-.149.257-.432.571-.631.044-.028.132-.084.196-.125.079-.051.132-.067.165-.05.092.047.324.352.365.48.045.138.088.249.187.479.034.08.071.18.081.221.019.074.218.203.314.203.065 0 .148.092.182.201.032.103-.002.212-.12.388-.119.176-.247.2-1.035.196-.368 0-.735-.014-.816-.026m3.876-4.13c0-.022-.036-.062-.079-.088-.075-.045-.079-.045-.079.01 0 .062.058.123.117.123.023 0 .041-.018.041-.04zm-2.231 10.402c-.038-.097.142-.262.231-.212.052.03.037.148-.026.2-.069.057-.185.064-.205.012m1.707-.205c-.052-.035-.105-.077-.117-.092-.032-.042.021-.116.115-.162.072-.035.097-.034.193.01.127.056.13.068.057.209-.062.119-.115.127-.248.038zm-1.311-.134c-.075-.053-.103-.194-.054-.267.029-.043.257-.018.326.035.082.063-.034.286-.148.285-.028 0-.084-.024-.124-.053" fill="#ff352e"/></g><g transform="translate(49.877 194.68)"><path d="m-35.21-194.22c-5.577-1.531-5.951 3.24-4.58 5.493 4.381 6.983 6.796 6.577 9.398 7.895 1.712 2.064 3.451 3.4 6.469 4.1 11.69 1.559 3.242-8.417.92-8.649-5.065.012-7.547-6.123-12.206-8.838" fill="url(#0)"/><path d="m-35.21-194.22c3.76.276 5.616-.626 8.93-.421 4.319.283 8.307 2.053 7.838 6.574-.347 2.567-.37 2.25.186 4.296.532 1.535-.252 4.232-.487 4.654-2.715 4.963-1.536 4.965-2.656 7.742l-.906-.418-2.508-11.358c-7.177-.909-10.754-10.11-10.398-11.07" fill="url(#2)"/><path d="m-28.419-184.29c.362.274 1.553-5.105 1.172-5.653 1.379 2.44 1.919 4.616 2.435 6.783-1.276-.283-2.289-.554-3.607-1.13" fill="url(#4)"/><circle r="3.01" cy="-171.07" cx="-21.728" fill="url(#5)"/></g></svg>