<svg xmlns="http://www.w3.org/2000/svg" viewBox="0 0 32 32"><defs><linearGradient gradientTransform="matrix(2.59244 0 0 2.58531-157.93-277.73)" id="0" x1="67.894" y1="108.69" x2="67.854" y2="113.11" gradientUnits="userSpaceOnUse"><stop stop-color="#f9f9f9"/><stop offset="1" stop-color="#999"/></linearGradient></defs><rect width="28.2" height="28.2" x="1.898" y="1.898" fill="#c2352a" fill-rule="evenodd" rx="5.575"/><path d="m12.05 20.953c-.32-.044-.89-.232-1.269-.418-2.475-1.204-3.487-4.238-2.268-6.793 1.393-2.922 5.192-3.666 7.479-1.466.661.635.955 1.177 1.95 3.581 1.039 2.514 1.231 2.909 1.568 3.244.361.357.695.477 1.335.477 1.051 0 1.801-.66 1.801-1.58 0-.779-.27-1.029-1.645-1.524-2.094-.767-2.773-1.461-2.775-2.853 0-.743.185-1.238.656-1.752.676-.733 1.842-.975 2.874-.611.44.159 1.361.987 1.361 1.224 0 .115-.534.466-.83.55-.156.041-.291-.012-.472-.188-.366-.356-.613-.466-1.051-.466-.755 0-1.224.462-1.224 1.207 0 .743.298.994 1.787 1.505 2.051.704 2.657 1.339 2.669 2.809.012 1.27-.551 2.186-1.671 2.728-.51.244-.683.276-1.515.276-1.188 0-1.722-.224-2.388-.987-.448-.513-.902-1.475-2.357-4.988-.603-1.456-1.378-2.169-2.669-2.45-.654-.142-1.566-.01-2.16.308-.579.308-1.226 1-1.532 1.636-.252.515-.276.66-.276 1.556 0 .855.034 1.057.245 1.526.32.716.95 1.378 1.642 1.734.5.256.656.288 1.455.288.767 0 .964-.037 1.421-.259.522-.259 1.224-.894 1.51-1.37l.149-.247.294.682c.164.376.295.73.295.794 0 .188-.664.804-1.272 1.187-.923.579-1.984.796-3.117.64" fill="#fff"/>

   xmlns:dc="http://purl.org/dc/elements/1.1/"
   xmlns:cc="http://creativecommons.org/ns#"
   xmlns:rdf="http://www.w3.org/1999/02/22-rdf-syntax-ns#"
   xmlns:svg="http://www.w3.org/2000/svg"
   xmlns="http://www.w3.org/2000/svg"
   xmlns:xlink="http://www.w3.org/1999/xlink"
   xmlns:sodipodi="http://sodipodi.sourceforge.net/DTD/sodipodi-0.dtd"
   xmlns:inkscape="http://www.inkscape.org/namespaces/inkscape"
   version="1"
   width="32"
   height="32"
   id="svg12"
   sodipodi:docname="snow-top-4.svg"
   inkscape:version="0.92.1 r"&gt;
  <path d="m7.196.009c-8.161-.339-9.231 9.523-3.968 9.505.669.003 1.581-.197 2.929-1.471 3.773-4.147 9.01 4.479 14.696-1.042.61-.911 1.804-1.135 2.455-.627 1.045.677 2.87 2.991 3.88 3 2.359.513 4.095-.198 4.816-3.188.185-3.165-2.303-6.286-6.281-6.17-5.832.133-12.809-.045-18.527-.01" fill="url(#0)"/></svg>