<svg xmlns="http://www.w3.org/2000/svg" viewBox="0 0 32 32" xmlns:xlink="http://www.w3.org/1999/xlink"><defs><linearGradient gradientTransform="matrix(-2.54182 0 0 2.58531 185.47-277.37)" id="1" x1="67.894" y1="108.69" x2="67.854" y2="113.11" gradientUnits="userSpaceOnUse"><stop stop-color="#f9f9f9"/><stop offset="1" stop-color="#999"/></linearGradient></defs><rect width="28.2" height="28.2" x="1.898" y="1.898" fill="#d2a35c" fill-rule="evenodd" rx="5.575"/><path d="m23.262 4.751c-.839 0-1.644.221-2.416.664-.755.426-1.469 1.049-2.141 1.867-.654.802-1.25 1.79-1.787 2.967-.537 1.159-.997 2.473-1.383 3.94-.269 1.04-.538 1.919-.807 2.635-.269.716-.545 1.312-.83 1.789-.621-.239-1.234-.958-1.838-1.111-.587-.171-1.192-.256-1.813-.256-.487 0-.931.077-1.334.23-.386.153-.721.341-1.01.563-.285.222-.512.459-.68.715-.151.258-.229 1.022-.229 1.244 0 .358.168.656.504.895.336.239.84.357 1.512.357 1.779 0 3.281-.468 4.506-1.406.772.341 1.56.664 2.365.971.822.29 1.729.436 2.719.436 1.124 0 2.022-.237 2.693-.715.671-.494 1.056-1.126 1.459-2.047.017-.103-.005-.171-.072-.205-.05-.051-.111-.051-.178 0-.285.58-.495.947-.932 1.254-.436.307-1.075.461-1.914.461-1.01 0-1.928-.112-2.768-.334-.822-.239-1.612-.503-2.367-.793 1.04-1.245 1.856-3.01 2.443-5.295.352-1.432.696-2.625 1.031-3.58.336-.955.696-1.713 1.082-2.275.386-.58.807-.907 1.26-1.129.47-.239 1.022-.356 1.66-.356.47 0 .854.086 1.156.256.319.153.554.357.705.613.151.256.237.463.254.769.017.307-.026.912-.127 1.219-.017.086.007.146.074.18.084.035.161.027.229-.025.168-.29.326-.957.477-1.4.151-.461.229-.864.229-1.205 0-.529-.162-.97-.48-1.328-.319-.375-.738-.563-1.258-.563m-14.12 13.34c.722 0 1.401.1 2.039.305.638.205 1.268.971 1.889 1.244-.386.375-.824.629-1.311.766-.47.119-1.01.18-1.609.18-.688 0-1.227-.11-1.613-.332-.369-.222-.553-1.028-.553-1.369 0-.529.386-.793 1.158-.793m2.359375 4.1582a1.5 1.5 0 0 0 -1.5 1.5 1.5 1.5 0 0 0 1.5 1.5 1.5 1.5 0 0 0 1.5 -1.5 1.5 1.5 0 0 0 -1.5 -1.5m8 0a1.5 1.5 0 0 0 -1.5 1.5 1.5 1.5 0 0 0 1.5 1.5 1.5 1.5 0 0 0 1.5 -1.5 1.5 1.5 0 0 0 -1.5 -1.5m-4 2a1.5 1.5 0 0 0 -1.5 1.5 1.5 1.5 0 0 0 1.5 1.5 1.5 1.5 0 0 0 1.5 -1.5 1.5 1.5 0 0 0 -1.5 -1.5" fill="#fff"/>

   xmlns:dc="http://purl.org/dc/elements/1.1/"
   xmlns:cc="http://creativecommons.org/ns#"
   xmlns:rdf="http://www.w3.org/1999/02/22-rdf-syntax-ns#"
   xmlns:svg="http://www.w3.org/2000/svg"
   xmlns="http://www.w3.org/2000/svg"
   xmlns:xlink="http://www.w3.org/1999/xlink"
   xmlns:sodipodi="http://sodipodi.sourceforge.net/DTD/sodipodi-0.dtd"
   xmlns:inkscape="http://www.inkscape.org/namespaces/inkscape"
   height="32"
   width="32"
   version="1"
   id="svg8"
   sodipodi:docname="snow-top-3.svg"
   inkscape:version="0.92.1 r"&gt;
  <path fill="#00000f" fill-opacity="0" d="m0 0h32v32h-32z" id="0"/><path d="m7.354 6.111c-2.995 2.684-1.381 7.817-3.674 8.291-2.031.613-3.541-1.385-3.66-4.503-.35-8.627 3.911-9.427 6.879-9.524 28.342-2.047 1.762 4.92.455 5.736" fill="url(#1)"/><use xlink:href="#0"/></svg>