<svg xmlns="http://www.w3.org/2000/svg" viewBox="0 0 32 32"><defs><linearGradient gradientTransform="matrix(2.62891 0 0 2.71269-160.16-291.42)" id="0" x1="67.894" y1="108.69" x2="67.854" y2="113.11" gradientUnits="userSpaceOnUse"><stop stop-color="#f9f9f9"/><stop offset="1" stop-color="#999"/></linearGradient></defs><rect width="28.2" height="28.2" x="1.898" y="1.898" fill="#769edc" fill-rule="evenodd" rx="5.575"/><path d="m16.681 7.5c-.108 0-.087.42.025.516.127.107.314.483.369.742l.043.203-.35.074c-.833.176-.995.751-.457 1.621.189.306.189.314.152.977-.028.497-.013.748.057.986.108.369.408.709.723.816.348.119 1.292.063 1.643-.098.384-.176.884-.697 1.023-1.068.164-.438.102-1.041-.16-1.568-.252-.507-.907-1.196-1.363-1.432-.241-.124-.355-.23-.436-.408-.115-.254-1.148-1.361-1.27-1.361m-5.975 2c-.014-.001-.027.004-.039.016-.125.125-.226.783-.215 1.396.011.581-.004.701-.119.895-.382.643-.447 1.822-.137 2.49.274.591.728.952 1.42 1.125.483.121.809.104 1.264-.063 1.252-.458 1.469-1.351.57-2.357-.364-.408-.533-.741-.533-1.043 0-.367-.135-.727-.361-.969-.204-.218-.215-.22-.605-.186-.219.019-.476.054-.572.078-.159.04-.184.018-.299-.236-.069-.153-.126-.411-.127-.574-.001-.252-.146-.563-.246-.572zm12.707 1c-.158-.031-.206.334-.08.6.058.122.097.33.086.461l-.02.238-.336.006c-.261.005-.386.047-.568.186-.213.162-.539.713-.541.914 0 .044-.199.477-.441.961-.243.484-.461.977-.486 1.094-.137.629.243 1.098 1.152 1.426.384.138.785.149 1.221.033.707-.189 1.162-.545 1.438-1.129.145-.308.165-.433.162-.992-.004-.725-.141-1.183-.512-1.705-.116-.163-.257-.481-.314-.705-.117-.459-.609-1.357-.76-1.387m-16.334 5c-.016-.004-.028-.002-.037.008-.131.14.066 1.502.264 1.826.049.08.117.352.154.604.169 1.141.965 2.208 1.869 2.504.309.101.979.064 1.412-.078.358-.117.478-.198.748-.502.561-.631.663-1.255.287-1.76-.1-.134-.404-.383-.676-.555-.272-.171-.745-.488-1.051-.703-.895-.63-.99-.688-1.236-.762-.313-.093-.632.006-.893.277l-.205.211-.127-.225c-.071-.125-.129-.289-.129-.365 0-.136-.267-.454-.381-.48zm11.424.998c-.393.002-.847.065-1.371.191-1.48.357-2.18.783-2.498 1.518-.138.318-.149.428-.111 1.037.038.619.028.708-.117 1.018-.148.314-.318.491-1.1 1.148-.248.209-.271.258-.299.641-.026.357 0 .474.18.855.384.815 1.076 1.361 1.943 1.531.41.08.682.08 1.387.002 2.74-.305 5.889-1.293 6.789-2.129.47-.437.658-.84.689-1.48.06-1.222-.49-1.955-1.473-1.959-.769-.003-1.542-.45-1.859-1.074-.235-.462-.711-.923-1.156-1.119-.278-.122-.611-.182-1-.18" fill="#313131"/>

   xmlns:dc="http://purl.org/dc/elements/1.1/"
   xmlns:cc="http://creativecommons.org/ns#"
   xmlns:rdf="http://www.w3.org/1999/02/22-rdf-syntax-ns#"
   xmlns:svg="http://www.w3.org/2000/svg"
   xmlns="http://www.w3.org/2000/svg"
   xmlns:xlink="http://www.w3.org/1999/xlink"
   xmlns:sodipodi="http://sodipodi.sourceforge.net/DTD/sodipodi-0.dtd"
   xmlns:inkscape="http://www.inkscape.org/namespaces/inkscape"
   version="1"
   width="32"
   height="32"
   id="svg12"
   sodipodi:docname="snow-top-1.svg"
   inkscape:version="0.92.1 r"&gt;
  <path d="m7.288.009c-8.276-.356-9.36 9.992-4.02 9.973.679.003 1.604-.207 2.97-1.543 7.256-10.531 14.706 3.573 17.53.919 1.71-1.912 3.496-.418 4.448.115 2.1.643 3.662.041 3.785-3.231.188-3.321-1.889-6.344-5.923-6.223-5.914.14-12.989-.047-18.787-.01" fill="url(#0)"/><path fill="#f00" fill-opacity="0" d="m0 0h32v32h-32z"/></svg>