<svg xmlns="http://www.w3.org/2000/svg" viewBox="0 0 32 32"><g transform="translate(62.865-7.519)" fill-rule="evenodd"><path d="m-32.764 20.521c-.205-.104-.384-.256-.631-.256h-26.941c-.247 0-.426.152-.631.256v11.523c0 3.089 2.486 5.576 5.574 5.576h17.05c3.089 0 5.574-2.488 5.574-5.576z" fill="#e49815"/><g fill="#f2b740"><path d="m-35.26 20.266c.04-.128.158-.218.158-.357v-1.426c0-.395-.171-.75-.447-1.01-.276-.258-.657-.416-1.08-.416h-7.635c0 0-.002 0-.002 0-.423 0-.804.159-1.08.416-.276.258-.447.613-.447 1.01v1.426c0 .14.118.23.158.357z"/><path d="m-48.09 20.266c.04-.127.158-.218.158-.357v-1.426c0-.395-.171-.75-.447-1.01-.276-.258-.659-.416-1.082-.416h-7.635c-.423 0-.804.158-1.08.416-.276.258-.447.613-.447 1.01v1.426c0 .14.118.23.158.357z"/></g><path d="m-55.39 9.416c-3.089 0-5.574 2.488-5.574 5.576v5.529c.205-.104.384-.256.631-.256h1.869c-.04-.127-.158-.218-.158-.357v-1.426c0-.395.171-.75.447-1.01.276-.258.657-.416 1.08-.416h7.635c.423 0 .806.158 1.082.416.276.258.447.613.447 1.01v1.426c0 .14-.118.23-.158.357h2.453c-.04-.127-.158-.218-.158-.357v-1.426c0-.395.171-.75.447-1.01.276-.257.658-.416 1.08-.416h.002 7.635c.423 0 .804.158 1.08.416.276.258.447.613.447 1.01v1.426c0 .14-.118.23-.158.357h1.869c.247 0 .426.152.631.256v-5.529c0-3.089-2.486-5.576-5.574-5.576z" fill="#8e8e8e"/></g>

   xmlns:dc="http://purl.org/dc/elements/1.1/"
   xmlns:cc="http://creativecommons.org/ns#"
   xmlns:rdf="http://www.w3.org/1999/02/22-rdf-syntax-ns#"
   xmlns:svg="http://www.w3.org/2000/svg"
   xmlns="http://www.w3.org/2000/svg"
   xmlns:sodipodi="http://sodipodi.sourceforge.net/DTD/sodipodi-0.dtd"
   xmlns:inkscape="http://www.inkscape.org/namespaces/inkscape"
   height="32"
   width="32"
   version="1"
   id="svg8"
   sodipodi:docname="star-mime-2.svg"
   inkscape:version="0.92.1 r"&gt;
  <g transform="translate(152.47 194.05)" fill="#fff"><path d="m-125.38-193.25l-.077 3.548 3.072 1.831-3.548-.077-3.135 6.791 1.38-7.268-3.072-1.831 3.548.077z"/><path d="m-125.41-183.04l.042-1.955-1.692-1.01 1.955.042 1.727-3.741-.76 4 1.692 1.01-1.955-.042z"/></g></svg>