<svg xmlns="http://www.w3.org/2000/svg" xmlns:xlink="http://www.w3.org/1999/xlink" viewBox="0 0 32 32"><defs><linearGradient xlink:href="#3" id="4" gradientUnits="userSpaceOnUse" x1="27.558" y1="-133.46" x2="22.09" y2="-134.43"/><linearGradient xlink:href="#3" id="2" gradientUnits="userSpaceOnUse" x1="15.879" y1="-141.91" x2="30.32" y2="-129.74"/><linearGradient id="3"><stop stop-color="#55c03f"/><stop offset="1" stop-color="#198b26"/></linearGradient><linearGradient id="1"><stop stop-color="#f9f9f9"/><stop offset="1" stop-color="#999"/></linearGradient><linearGradient xlink:href="#1" id="0" gradientUnits="userSpaceOnUse" x1="17.658" y1="-133.51" x2="15.02" y2="-125.58"/><radialGradient xlink:href="#1" id="5" cx="-176.59" cy="-120.91" r="3.01" gradientUnits="userSpaceOnUse" gradientTransform="matrix(2.21087.05719-.05496 2.12455 412.97 145.84)"/></defs><rect width="28.2" height="28.2" x="1.898" y="1.898" fill="#4ab3e4" fill-rule="evenodd" rx="5.575"/><g transform="translate(49.842 11.737)"><g stroke-linejoin="round" stroke-linecap="round"><circle r="4.5" cy="-1.237" cx="-35.34" opacity=".2" stroke-width=".623"/><circle r="2.5" cx="-35.34" cy="-1.237" opacity=".2" fill="#041218" stroke-width=".346"/></g><path d="m-35.36-1.737c-1.501 0-1.501 1-1.505 2-.01.618-.008 1.908.004 3.811.019 3.042.013 3.996-.023 4.127-1.037-.109-2.605-.528-3.307-1.083-.459-.364-.914-.697-1.01-.74-.403-.179-.974-.066-1.301.258-.226.224-.31.424-.33.783-.015.275-.006.34.078.521.053.115.149.268.213.342.064.073.937 1.206 1.94 2.518 1.858 2.43 3.707 3.331 4.03 3.421.195.056 10.239.057 10.44.002.092-.025.224-.109.319-.203.133-.131.182-.227.285-.545.295-.909.589-2.292.672-3.061.036-.893.017-.927 0-1.65 0-.014-.003-.026-.004-.039.001-.643.005-1.187 0-1.461.003-1 .005-2-1.493-2-1.352 0-1.477.819-1.493 1.713-.002.024-.009.048-.01.072.001-.242.003-.638 0-.785.003-1 .003-2-1.495-2-1.343 0-1.476.809-1.493 1.695-.004.002-.008.004-.012.006 0-.005-.002-.054-.002-.064 0-.18.002-.517 0-.637.003-1 .003-2-1.495-2-1.139 0-1.412.579-1.479 1.295-.002 0-.025.006-.025.006-.021.008-.004-1.215-.004-2.531 0-.902.007-1.437 0-1.77.003-1 .004-2-1.497-2" fill="#ebebeb"/></g><g transform="translate(-.916 143.06)"><path d="m15.583-142.61c-5.577-1.531-5.951 3.24-4.58 5.493 4.381 6.983 6.796 6.577 9.398 7.895 1.712 2.064 3.451 3.4 6.469 4.1 11.69 1.559 3.242-8.417.92-8.649-5.065.012-7.547-6.123-12.206-8.838" fill="url(#0)"/><path d="m15.583-142.61c3.76.276 5.616-.626 8.93-.421 4.319.283 8.307 2.053 7.838 6.574-.347 2.567-.37 2.25.186 4.296.532 1.535-.252 4.232-.487 4.654-2.715 4.963-1.536 4.965-2.656 7.742l-.906-.418-2.508-11.358c-7.177-.909-10.754-10.11-10.398-11.07" fill="url(#2)"/><path d="m22.374-132.67c.362.274 1.553-5.105 1.172-5.653 1.379 2.44 1.919 4.616 2.435 6.783-1.276-.283-2.289-.554-3.607-1.13" fill="url(#4)"/><circle r="3.01" cy="-119.45" cx="29.06" fill="url(#5)"/></g></svg>