<svg xmlns="http://www.w3.org/2000/svg" xmlns:xlink="http://www.w3.org/1999/xlink" viewBox="0 0 32 32"><defs><linearGradient gradientTransform="matrix(-2.54182 0 0 2.58531 185.47-277.37)" id="1" x1="67.894" y1="108.69" x2="67.854" y2="113.11" gradientUnits="userSpaceOnUse"><stop stop-color="#f9f9f9"/><stop offset="1" stop-color="#999"/></linearGradient></defs><g fill-rule="evenodd"><g fill="#fec006"><path d="m30.1 12.223v-4.75c0-3.089-2.486-5.574-5.574-5.574h-4.75z"/><path d="m18.11 1.898h-10.637c-3.089 0-5.576 2.486-5.576 5.574v17.05c0 3.089 2.488 5.576 5.576 5.576h17.05c3.089 0 5.574-2.488 5.574-5.576v-10.637"/></g><path d="m18.11 1.898l11.99 11.99v-1.666l-10.324-10.324" fill="#fff"/></g><path d="m22.04 12.195c-.379-.127-.842-.194-1.273.047-.724.404-.982 1.205-.982 1.934 0 .729.181 1.486.348 2.215.166.729.316 1.427.311 1.924-.005.496-.076.686-.375.836-.241.121-.39.13-.543.1-.153-.031-.331-.122-.539-.301-.417-.358-.896-1.041-1.439-1.773-.543-.732-1.161-1.52-1.994-2.08-.833-.56-1.912-.857-3.158-.574l-.012.004-.012.002c-.808.218-1.412.833-1.832 1.586-.42.753-.68 1.667-.807 2.639-.02.154.017.316.004.473-.281-.019-.52-.117-.805-.123l-1.389-.031-.6-.012-.025 1.197.598.012 1.391.029c.306.007.543.104.842.127.036 1.443.26 2.88.947 3.986l.012.02.014.018c1.065 1.46 2.883 1.884 4.232 1.361.674-.261 1.254-.815 1.432-1.58.178-.765-.038-1.658-.66-2.619-.595-.919-1.614-1.511-2.805-1.9-.595-.195-1.322-.203-1.992-.303.012-.166-.029-.338-.008-.5.111-.855.346-1.638.664-2.209.317-.568.693-.897 1.094-1.01.936-.207 1.59-.014 2.207.4.622.418 1.177 1.092 1.701 1.799.524.707 1.01 1.438 1.621 1.967.308.264.662.484 1.082.568.42.085.885.015 1.318-.203.74-.372 1.025-1.17 1.033-1.893.008-.723-.173-1.476-.34-2.205-.167-.73-.321-1.436-.32-1.947 0-.512.081-.727.371-.889.005-.003.099-.028.309.043.21.071.486.222.742.396.513.349.943.766.943.766l.428.416.836-.855-.43-.418c0 0-.485-.476-1.105-.898-.31-.211-.654-.414-1.033-.541m-11.09 8.408c.533.088 1.145.093 1.6.242 1.035.339 1.799.835 2.174 1.414.508.785.58 1.345.498 1.697-.082.353-.312.584-.699.734-.771.299-2.077.054-2.814-.938-.486-.793-.691-1.955-.758-3.15" shape-rendering="auto" mix-blend-mode="normal" isolation="auto" color-interpolation-filters="linearRGB" white-space="normal" fill="#fff" solid-opacity="1" image-rendering="auto" solid-color="#000000" color="#000" color-rendering="auto" vector-effect="none" shape-padding="0" color-interpolation="sRGB"/>

   xmlns:dc="http://purl.org/dc/elements/1.1/"
   xmlns:cc="http://creativecommons.org/ns#"
   xmlns:rdf="http://www.w3.org/1999/02/22-rdf-syntax-ns#"
   xmlns:svg="http://www.w3.org/2000/svg"
   xmlns="http://www.w3.org/2000/svg"
   xmlns:xlink="http://www.w3.org/1999/xlink"
   xmlns:sodipodi="http://sodipodi.sourceforge.net/DTD/sodipodi-0.dtd"
   xmlns:inkscape="http://www.inkscape.org/namespaces/inkscape"
   height="32"
   width="32"
   version="1"
   id="svg8"
   sodipodi:docname="snow-top-3.svg"
   inkscape:version="0.92.1 r"&gt;
  <path fill="#00000f" fill-opacity="0" d="m0 0h32v32h-32z" id="0"/><path d="m7.354 6.111c-2.995 2.684-1.381 7.817-3.674 8.291-2.031.613-3.541-1.385-3.66-4.503-.35-8.627 3.911-9.427 6.879-9.524 28.342-2.047 1.762 4.92.455 5.736" fill="url(#1)"/><use xlink:href="#0"/></svg>