<svg xmlns="http://www.w3.org/2000/svg" viewBox="0 0 32 32"><defs><linearGradient gradientTransform="matrix(2.54182 0 0 2.58531-153.47-277.37)" id="0" x1="67.894" y1="108.69" x2="67.854" y2="113.11" gradientUnits="userSpaceOnUse"><stop stop-color="#f9f9f9"/><stop offset="1" stop-color="#999"/></linearGradient></defs><g fill-rule="evenodd"><g fill="#e81d62"><path d="m30.1 12.223v-4.75c0-3.089-2.486-5.574-5.574-5.574h-4.75z"/><path d="m18.11 1.898h-10.637c-3.089 0-5.576 2.486-5.576 5.574v17.05c0 3.089 2.488 5.576 5.576 5.576h17.05c3.089 0 5.574-2.488 5.574-5.576v-10.637"/></g><path d="m18.11 1.898l11.99 11.99v-1.666l-10.324-10.324" fill="#fff"/></g><path d="m16.09 9.512c-3.321 0-6.159.898-7.334 2.169-.099.107-.186.215-.261.327-.071.106-.131.214-.179.324a7.917461 3.469719 0 0 0 -.033139 .101658c-.027.075-.057.149-.073.225a7.917461 3.469719 0 0 0 -.038005 .323979c0 .113.014.225.04.337a7.917461 3.469719 0 0 0 .108252 .325282 7.917461 3.469719 0 0 0 .183354 .32359 7.917461 3.469719 0 0 0 .251838 .315121 7.917461 3.469719 0 0 0 7.334261 2.16859 7.917461 3.469719 0 0 0 7.33426 -2.16859 7.917461 3.469719 0 0 0 .0024 -.0034 7.917461 3.469719 0 0 0 .214279 -.26768c.012-.018.028-.035.04-.053a7.917461 3.469719 0 0 0 .130349 -.230404c.019-.036.042-.072.057-.108a7.917461 3.469719 0 0 0 .06407 -.193141c.015-.051.032-.101.042-.152a7.917461 3.469719 0 0 0 .03308 -.293092 7.917461 3.469719 0 0 0 -.04197 -.345605c-.073-.338-.261-.658-.538-.958-1.177-1.271-4.01-2.169-7.335-2.169m-7.336419 6.50774a7.917461 3.469719 0 0 0 -.582726 1.301129 7.917461 3.469719 0 0 0 7.917462 3.469718 7.917461 3.469719 0 0 0 7.91746 -3.470109 7.917461 3.469719 0 0 0 -.582726 -1.301127 7.917461 3.469719 0 0 1 -7.334734 2.168979 7.917461 3.469719 0 0 1 -7.334735 -2.168979zm0 4.337051a7.917461 3.469719 0 0 0 -.583202 1.30113 7.917461 3.469719 0 0 0 7.917461 3.470108 7.917461 3.469719 0 0 0 7.91746 -3.469719 7.917461 3.469719 0 0 0 -.583201 -1.301128 7.917461 3.469719 0 0 1 -7.334732 2.168981 7.917461 3.469719 0 0 1 -7.334738 -2.168981" fill="#fff" stroke-width="1.301"/>

   xmlns:dc="http://purl.org/dc/elements/1.1/"
   xmlns:cc="http://creativecommons.org/ns#"
   xmlns:rdf="http://www.w3.org/1999/02/22-rdf-syntax-ns#"
   xmlns:svg="http://www.w3.org/2000/svg"
   xmlns="http://www.w3.org/2000/svg"
   xmlns:xlink="http://www.w3.org/1999/xlink"
   xmlns:sodipodi="http://sodipodi.sourceforge.net/DTD/sodipodi-0.dtd"
   xmlns:inkscape="http://www.inkscape.org/namespaces/inkscape"
   height="32"
   width="32"
   version="1"
   id="svg8"
   sodipodi:docname="snow-top-2.svg"
   inkscape:version="0.92.1 r"&gt;
  <path d="m24.646 6.111c2.995 2.684 1.381 7.817 3.674 8.291 2.031.613 3.541-1.385 3.66-4.503.35-8.627-3.911-9.427-6.879-9.524-28.342-2.047-1.762 4.92-.455 5.736" fill="url(#0)"/></svg>