<svg xmlns="http://www.w3.org/2000/svg" viewBox="0 0 32 32"><defs><linearGradient gradientTransform="matrix(-2.65552 0 0 2.58531 193.77-277.73)" id="0" x1="67.894" y1="108.69" x2="67.854" y2="113.11" gradientUnits="userSpaceOnUse"><stop stop-color="#f9f9f9"/><stop offset="1" stop-color="#999"/></linearGradient></defs><g fill-rule="evenodd"><g fill="#ff5722"><path d="m30.1 12.223v-4.75c0-3.089-2.486-5.574-5.574-5.574h-4.75z"/><path d="m18.11 1.898h-10.637c-3.089 0-5.576 2.486-5.576 5.574v17.05c0 3.089 2.488 5.576 5.576 5.576h17.05c3.089 0 5.574-2.488 5.574-5.576v-10.637"/></g><path d="m18.11 1.898l11.99 11.99v-1.666l-10.324-10.324" fill="#fff"/></g><g transform="translate(3.835 10.692)" fill="#fff"><path d="m6.890159 2.172515a3.389831 3.389831 0 0 0 -2.9375 1.695313 3.389831 3.389831 0 0 0 0 3.388672 3.389831 3.389831 0 0 0 2.050781 1.574219 3.389831 3.389831 0 0 0 .283203 .06445 3.389831 3.389831 0 0 0 .19336 .03125 3.389831 3.389831 0 0 0 .0918 .01172 3.389831 3.389831 0 0 0 2.052734 -.431641 3.389831 3.389831 0 0 0 1.695312 -2.935547H6.89"/><rect y="2.958" x="12.12" height="1.307" width="8.711" rx=".653"/><rect y="6.878" x="12.12" height="1.307" width="8.711" rx=".653"/><rect y="10.798" x="4.277" height="1.307" width="13.07" rx=".653"/></g>

   xmlns:dc="http://purl.org/dc/elements/1.1/"
   xmlns:cc="http://creativecommons.org/ns#"
   xmlns:rdf="http://www.w3.org/1999/02/22-rdf-syntax-ns#"
   xmlns:svg="http://www.w3.org/2000/svg"
   xmlns="http://www.w3.org/2000/svg"
   xmlns:xlink="http://www.w3.org/1999/xlink"
   xmlns:sodipodi="http://sodipodi.sourceforge.net/DTD/sodipodi-0.dtd"
   xmlns:inkscape="http://www.inkscape.org/namespaces/inkscape"
   version="1"
   width="32"
   height="32"
   id="svg12"
   sodipodi:docname="snow-top-3.svg"
   inkscape:version="0.92.1 r"&gt;
  <path d="m24.627.009c8.36-.339 9.455 9.523 4.064 9.505-.686.003-1.62-.197-3-1.471-14.665-10.216-14.549 2.967-17.708.875-1.727-1.822-1.743 4.653-4.139 5.127-2.122.613-3.699-1.385-3.824-4.503-.366-8.627 4.086-9.427 7.187-9.524 5.974.133 11.562-.045 17.419-.01" fill="url(#0)"/></svg>