<svg xmlns="http://www.w3.org/2000/svg" viewBox="0 0 32 32"><defs><linearGradient gradientTransform="matrix(2.62891 0 0 2.71269-160.16-291.42)" id="0" x1="67.894" y1="108.69" x2="67.854" y2="113.11" gradientUnits="userSpaceOnUse"><stop stop-color="#f9f9f9"/><stop offset="1" stop-color="#999"/></linearGradient></defs><rect width="28.2" height="28.2" x="1.898" y="1.898" fill="#4f4f4f" fill-rule="evenodd" rx="5.575"/><path d="m13.856 25.91c.156-.509.924-1.78 1.338-2.212.254-.266.462-.508.462-.538 0-.21-.629-.673-3.43-2.52-1.499-.988-2.312-1.695-3.061-2.66l-.633-.816-.263-1.24c-.199-.936-.244-1.308-.184-1.521.06-.212.049-.307-.044-.383-.17-.139-.163-.76.009-.825.095-.036.13-.165.122-.45-.015-.537.07-.719.853-1.83.458-.65.787-1.023 1.035-1.175.2-.122.592-.434.872-.694.46-.427.537-.467.8-.418.21.039.35.01.503-.104.338-.251.871-.535 1-.535.145 0 .977-.466 1.23-.689.291-.256 1.42-.796 1.595-.763.09.017.176.118.192.224.015.106.055.193.087.193.032 0 .336-.132.675-.293.339-.161 1.058-.414 1.597-.562 1.055-.289 1.333-.276 1.524.075.086.158.18.177.889.177.816 0 1.239.121 1.342.384.028.072.31.251.626.398.469.217.575.304.575.47 0 .129.099.273.269.391.391.273.319.497-.269.835-.266.153-.543.314-.616.357-.108.064-.087.099.11.189.133.061.242.167.242.236 0 .189-.754 1.189-1.056 1.399-.318.222-.322.317-.057 1.085.114.329.296.986.405 1.46.109.474.273 1.115.365 1.423.091.308.23.93.308 1.38.247 1.428.039 2.342-.754 3.315-.532.654-1.802 1.856-2.543 2.409l-.561.418.052.43c.04.332.124.509.37.775.384.417 1.096 1.818 1.096 2.157v.243h-7.136l.059-.194m4.486-9.594c.119-.116.216-.312.216-.435 0-.123-.097-.319-.216-.435-.609-.598-1.502.266-.912.883.254.265.635.26.912-.012m3.924-1.57c.055-.271-.19-.633-.464-.691-.261-.055-.62.164-.676.421-.061.278.194.655.476.711.262.052.613-.182.665-.441" fill="#fff"/>

   xmlns:dc="http://purl.org/dc/elements/1.1/"
   xmlns:cc="http://creativecommons.org/ns#"
   xmlns:rdf="http://www.w3.org/1999/02/22-rdf-syntax-ns#"
   xmlns:svg="http://www.w3.org/2000/svg"
   xmlns="http://www.w3.org/2000/svg"
   xmlns:xlink="http://www.w3.org/1999/xlink"
   xmlns:sodipodi="http://sodipodi.sourceforge.net/DTD/sodipodi-0.dtd"
   xmlns:inkscape="http://www.inkscape.org/namespaces/inkscape"
   version="1"
   width="32"
   height="32"
   id="svg12"
   sodipodi:docname="snow-top-1.svg"
   inkscape:version="0.92.1 r"&gt;
  <path d="m7.288.009c-8.276-.356-9.36 9.992-4.02 9.973.679.003 1.604-.207 2.97-1.543 7.256-10.531 14.706 3.573 17.53.919 1.71-1.912 3.496-.418 4.448.115 2.1.643 3.662.041 3.785-3.231.188-3.321-1.889-6.344-5.923-6.223-5.914.14-12.989-.047-18.787-.01" fill="url(#0)"/><path fill="#f00" fill-opacity="0" d="m0 0h32v32h-32z"/></svg>