<svg xmlns="http://www.w3.org/2000/svg" xmlns:xlink="http://www.w3.org/1999/xlink" viewBox="0 0 32 32"><defs><linearGradient id="4" x1="-178.12" y1="-134.12" x2="-183.59" y2="-135.1" gradientUnits="userSpaceOnUse"><stop stop-color="#7c0000"/><stop offset="1" stop-color="#7c0000" stop-opacity="0"/></linearGradient><linearGradient id="3" x1="-189.8" y1="-142.57" x2="-175.35" y2="-130.4" gradientUnits="userSpaceOnUse"><stop stop-color="#ff383f"/><stop offset="1" stop-color="#a02d26"/></linearGradient><linearGradient id="2"><stop stop-color="#f9f9f9"/><stop offset="1" stop-color="#999"/></linearGradient><linearGradient xlink:href="#2" id="1" x1="-188.02" y1="-134.18" x2="-190.66" y2="-126.24" gradientUnits="userSpaceOnUse"/><radialGradient xlink:href="#2" id="5" cx="-176.59" cy="-120.91" r="3.01" gradientUnits="userSpaceOnUse" gradientTransform="matrix(2.21087.05719-.05496 2.12455 207.3 145.17)"/></defs><rect width="28.2" height="28.2" x="1.898" y="1.898" fill="#f57f38" fill-rule="evenodd" rx="5.575"/><g transform="matrix(1.13136 0 0 1.13136 57.27 17.266)" stroke-width=".884"><path d="m-36.476-9.636c-.238 0-.472.012-.705.031-2.106.15-3.798.929-5.32 2.449-1.254 1.252-2.031 2.797-2.339 4.414-.028.148-.051.298-.071.448-.012.092-.026.184-.036.277-.021.199-.032.4-.039.602-.002.051-.004.102-.005.153-.001.047-.004.095-.004.143 0 4.64 3.674 8.387 8.282 8.51.036.001.072.003.108.004.043.001.085.004.127.004.205 0 .408-.011.61-.025.025-.002.05-.003.075-.005 3.043-.24 5.62-2.067 6.922-4.657 0 0 .001-.001.001-.001.084-.168.17-.335.244-.509.399-.9.615-1.856.655-2.857.002-.032.002-.065.004-.097.003-.096.008-.19.007-.286 0-.027.001-.053.001-.081v-7.24c0-.708-.57-1.277-1.277-1.277h-7.176z" fill="#fff"/><path d="m-35.64-5.985c-.214 0-.391.171-.393.378-.001.208.176.383.391.384.929.007 1.693.301 2.309.88.609.574.926 1.368.934 2.406.002.207.18.378.394.378 0 0 .004-.001.004-.001.215-.002.393-.175.391-.383-.005-.606-.103-1.162-.296-1.651-.195-.494-.49-.932-.876-1.295-.762-.717-1.736-1.087-2.856-1.095h-.004m-3.991.895c-.15-.025-.312.002-.474.08h-.013l-.018.01c-.3.171-.582.4-.846.687l-.021.022v.021c-.183.228-.303.457-.331.686-.009.039-.009.074-.009.111 0 .104.015.21.048.315l.009.029.018.01c.104.358.341.914.858 1.856.345.625.697 1.146 1.047 1.586.184.231.393.471.635.714.003.003.013.013.024.023.004.004.009.012.022.025l.024.024h.002c.008.009.014.015.016.016l.004.005.004.004c.242.24.481.45.715.633.439.35.96.705 1.585 1.05.943.52 1.505.756 1.861.858l.013.016.022.008c.101.034.206.049.309.048.042.002.079-.001.115-.009.244-.028.485-.144.723-.344l.003-.003.003-.002c.004-.004.002-.002.004-.004.002-.002.003-.004.005-.006.282-.258.51-.538.682-.838l.011-.019v-.018c.158-.328.095-.663-.161-.876-.006-.005-.129-.108-.282-.232-.156-.127-.341-.276-.466-.368-.236-.175-.602-.401-.81-.517-.401-.224-.819-.094-1 .144l-.322.404c-.13.164-.39.148-.397.148-2.186-.562-2.774-2.761-2.778-2.776 0-.007-.016-.267.148-.399l.402-.321c.239-.183.373-.601.148-1-.117-.207-.345-.575-.517-.81-.094-.125-.243-.311-.37-.468-.063-.078-.121-.149-.163-.2-.021-.025-.038-.046-.05-.06-.006-.007-.011-.012-.015-.016-.002-.002-.003-.003-.004-.005-.111-.132-.253-.213-.409-.239zm4.01.876c-.211-.015-.4.143-.416.347-.015.204.149.385.36.4.521.037.872.19 1.136.469.27.285.392.61.382 1.054v.002c-.005.204.167.377.379.382h.01c.209 0 .383-.165.387-.366.014-.61-.185-1.155-.585-1.577-.403-.424-.973-.662-1.653-.71" fill="#f57f38"/></g><path d="m32 .157l-.27 2.221-.122-2.378" fill="#f9f9f9" id="0"/><use xlink:href="#0"/><path d="m32 .113l-.27 1.6-.122-1.713" fill="#f9f9f9"/><g transform="matrix(-1 0 0 1-172.76 143.72)"><path d="m-190.09-143.27c-5.577-1.531-5.951 3.24-4.58 5.493 4.381 6.983 6.796 6.577 9.398 7.895 1.712 2.064 3.451 3.4 6.469 4.1 11.69 1.559 3.242-8.417.92-8.649-5.065.012-7.547-6.123-12.206-8.838" fill="url(#1)"/><path d="m-190.09-143.27c3.76.276 5.616-.626 8.93-.421 4.319.283 8.307 2.053 7.838 6.574-.347 2.567-.37 2.25.186 4.296.532 1.535-.252 4.232-.487 4.654-2.715 4.963-1.536 4.965-2.656 7.742l-.906-.418-2.508-11.358c-7.177-.909-10.754-10.11-10.398-11.07" fill="url(#3)"/><path d="m-183.3-133.33c.362.274 1.553-5.105 1.172-5.653 1.379 2.44 1.919 4.616 2.435 6.783-1.276-.283-2.289-.554-3.607-1.13" fill="url(#4)"/><circle r="3.01" cy="-120.11" cx="-176.61" fill="url(#5)"/></g></svg>