<svg xmlns="http://www.w3.org/2000/svg" xmlns:xlink="http://www.w3.org/1999/xlink" viewBox="0 0 32 32"><defs><linearGradient id="4" x1="-178.12" y1="-134.12" x2="-183.59" y2="-135.1" gradientUnits="userSpaceOnUse"><stop stop-color="#7c0000"/><stop offset="1" stop-color="#7c0000" stop-opacity="0"/></linearGradient><linearGradient id="3" x1="-189.8" y1="-142.57" x2="-175.35" y2="-130.4" gradientUnits="userSpaceOnUse"><stop stop-color="#ff383f"/><stop offset="1" stop-color="#a02d26"/></linearGradient><linearGradient id="2"><stop stop-color="#f9f9f9"/><stop offset="1" stop-color="#999"/></linearGradient><linearGradient xlink:href="#2" id="1" x1="-188.02" y1="-134.18" x2="-190.66" y2="-126.24" gradientUnits="userSpaceOnUse"/><radialGradient xlink:href="#2" id="5" cx="-176.59" cy="-120.91" r="3.01" gradientUnits="userSpaceOnUse" gradientTransform="matrix(2.21087.05719-.05496 2.12455 207.3 145.17)"/></defs><g transform="translate(37.26-.404)"><g fill-rule="evenodd"><path d="m-17.442 18.98v11.525h4.709c3.089 0 5.574-2.486 5.574-5.574v-5.951z" fill="#808080"/><path d="m-23.565 12.759h-11.797v12.172c0 3.089 2.488 5.574 5.576 5.574h12.344v-11.525h-6.123z" fill="#ccc"/><path d="m-29.786 2.302c-3.089 0-5.576 2.488-5.576 5.576v4.881h11.797v-10.457" fill="#808080"/></g><text y="26.18" x="-30.849" font-family="sans-serif" fill="#a3a3a3" word-spacing="0" line-height="1.25" letter-spacing="0" font-size="10.338"><tspan y="26.18" x="-30.849" stroke-width=".258">Я</tspan></text><path d="m-23.565 2.302v16.678h16.406v-11.1c0-3.089-2.486-5.576-5.574-5.576z" fill="#2095f2" fill-rule="evenodd"/><path d="m-16.808 11.915l.25-.937c.281-1.015.547-2.203.797-3.281h.063c.266 1.062.547 2.265.828 3.281l.234.937h-2.172m3.266 4.218h2.437l-3.187-10.186h-2.765l-3.187 10.186h2.344l.625-2.422h3.109l.625 2.422" fill="#fff" stroke-width=".926"/></g><path d="m32 .157l-.27 2.221-.122-2.378" fill="#f9f9f9" id="0"/><use xlink:href="#0"/><path d="m32 .113l-.27 1.6-.122-1.713" fill="#f9f9f9"/><g transform="matrix(-1 0 0 1-172.76 143.72)"><path d="m-190.09-143.27c-5.577-1.531-5.951 3.24-4.58 5.493 4.381 6.983 6.796 6.577 9.398 7.895 1.712 2.064 3.451 3.4 6.469 4.1 11.69 1.559 3.242-8.417.92-8.649-5.065.012-7.547-6.123-12.206-8.838" fill="url(#1)"/><path d="m-190.09-143.27c3.76.276 5.616-.626 8.93-.421 4.319.283 8.307 2.053 7.838 6.574-.347 2.567-.37 2.25.186 4.296.532 1.535-.252 4.232-.487 4.654-2.715 4.963-1.536 4.965-2.656 7.742l-.906-.418-2.508-11.358c-7.177-.909-10.754-10.11-10.398-11.07" fill="url(#3)"/><path d="m-183.3-133.33c.362.274 1.553-5.105 1.172-5.653 1.379 2.44 1.919 4.616 2.435 6.783-1.276-.283-2.289-.554-3.607-1.13" fill="url(#4)"/><circle r="3.01" cy="-120.11" cx="-176.61" fill="url(#5)"/></g></svg>