<svg xmlns="http://www.w3.org/2000/svg" viewBox="0 0 32 32"><g transform="translate(48.42-16.842)" fill-rule="evenodd"><path d="m-44.893 45.31l24.943-24.943c-1.01-1.01-2.401-1.629-3.945-1.629h-17.05c-3.089 0-5.576 2.488-5.576 5.576v17.05c0 1.544.624 2.936 1.631 3.943" fill="#f8b417"/><path d="m-31.13 46.943v-8.23h-2.285v8.23z" fill="#ccc"/><path d="m-32.744 33.16l-12.148 12.148v.002c1.01 1.01 2.401 1.629 3.945 1.629h7.529v-8.23h2.285v8.23h7.238c1.376 0 2.59-.549 3.561-1.369z" fill="#662c8f"/><path d="m-32.744 33.16l12.41 12.41c1.207-1.021 2.01-2.493 2.01-4.205v-17.05c0-1.544-.621-2.94-1.629-3.947z" fill="#02a8d8"/><circle r="7.958" cy="33.12" cx="-32.27" fill="#496220"/><path d="m-38.722981 23.648299a.486577 .486577 0 0 0 -.423227 .72219l1.148 2.149a8.745685 8.745685 0 0 0 -3.01229 6.363751h17.471a8.745685 8.745685 0 0 0 -3.01375 -6.360827l1.15-2.152a.486577 .486577 0 0 0 -.423226 -.72219 .486577 .486577 0 0 0 -.434923 .263146l-1.073 2.01a8.745685 8.745685 0 0 0 -4.942032 -1.546714 8.745685 8.745685 0 0 0 -4.94349 1.537212l-1.069-1.999a.486577 .486577 0 0 0 -.434923 -.263146m-2.275483 10.10116a8.745685 8.745685 0 0 0 8.722562 8.115865 8.745685 8.745685 0 0 0 8.713791 -8.115865z" fill="#92c642"/><g transform="matrix(.37425 0 0 .37425 42.871 26.836)" stroke-width="2.672" fill="#fff"><circle cx="-210" cy="7.526" r="3.684"/><circle cx="-191.58" cy="7.526" r="3.684"/></g></g>

   xmlns:dc="http://purl.org/dc/elements/1.1/"
   xmlns:cc="http://creativecommons.org/ns#"
   xmlns:rdf="http://www.w3.org/1999/02/22-rdf-syntax-ns#"
   xmlns:svg="http://www.w3.org/2000/svg"
   xmlns="http://www.w3.org/2000/svg"
   xmlns:sodipodi="http://sodipodi.sourceforge.net/DTD/sodipodi-0.dtd"
   xmlns:inkscape="http://www.inkscape.org/namespaces/inkscape"
   height="32"
   width="32"
   version="1"
   id="svg8"
   sodipodi:docname="star-mime-2.svg"
   inkscape:version="0.92.1 r"&gt;
  <g transform="translate(152.47 194.05)" fill="#fff"><path d="m-125.38-193.25l-.077 3.548 3.072 1.831-3.548-.077-3.135 6.791 1.38-7.268-3.072-1.831 3.548.077z"/><path d="m-125.41-183.04l.042-1.955-1.692-1.01 1.955.042 1.727-3.741-.76 4 1.692 1.01-1.955-.042z"/></g></svg>