<svg xmlns="http://www.w3.org/2000/svg" viewBox="0 0 32 32"><defs><linearGradient gradientTransform="matrix(2.54182 0 0 2.58531-153.47-277.37)" id="0" x1="67.894" y1="108.69" x2="67.854" y2="113.11" gradientUnits="userSpaceOnUse"><stop stop-color="#f9f9f9"/><stop offset="1" stop-color="#999"/></linearGradient></defs><rect width="28.2" height="28.2" x="1.898" y="1.898" fill="#ccc" fill-rule="evenodd" rx="5.575"/><path d="m16 9.245c-2.623 0-4.857 1.557-5.818 3.761-2.442.352-4.314 2.37-4.314 4.836 0 2.714 2.268 4.913 5.066 4.913h10.767c2.448 0 4.433-1.925 4.433-4.299 0-2.206-1.711-4.01-3.919-4.26-.576-2.817-3.141-4.952-6.214-4.952" fill="#f9f9f9"/><g fill="#666"><path d="M16 11.271329A4.728671 4.728671 0 0 0 11.271328 16 4.728671 4.728671 0 0 0 16 20.728671 4.728671 4.728671 0 0 0 20.728671 16 4.728671 4.728671 0 0 0 16 11.271329m0 1.351049A3.377622 3.377622 0 0 1 19.377622 16 3.377622 3.377622 0 0 1 16 19.377622 3.377622 3.377622 0 0 1 12.622377 16 3.377622 3.377622 0 0 1 16 12.622378"/><circle cy="16" cx="16" r="2.027"/></g>

   xmlns:dc="http://purl.org/dc/elements/1.1/"
   xmlns:cc="http://creativecommons.org/ns#"
   xmlns:rdf="http://www.w3.org/1999/02/22-rdf-syntax-ns#"
   xmlns:svg="http://www.w3.org/2000/svg"
   xmlns="http://www.w3.org/2000/svg"
   xmlns:xlink="http://www.w3.org/1999/xlink"
   xmlns:sodipodi="http://sodipodi.sourceforge.net/DTD/sodipodi-0.dtd"
   xmlns:inkscape="http://www.inkscape.org/namespaces/inkscape"
   height="32"
   width="32"
   version="1"
   id="svg8"
   sodipodi:docname="snow-top-2.svg"
   inkscape:version="0.92.1 r"&gt;
  <path d="m24.646 6.111c2.995 2.684 1.381 7.817 3.674 8.291 2.031.613 3.541-1.385 3.66-4.503.35-8.627-3.911-9.427-6.879-9.524-28.342-2.047-1.762 4.92-.455 5.736" fill="url(#0)"/></svg>