<svg xmlns="http://www.w3.org/2000/svg" viewBox="0 0 32 32" xmlns:xlink="http://www.w3.org/1999/xlink"><defs><linearGradient xlink:href="#3" id="4" gradientUnits="userSpaceOnUse" x1="-23.24" y1="-185.08" x2="-28.704" y2="-186.05"/><linearGradient xlink:href="#3" id="2" gradientUnits="userSpaceOnUse" x1="-34.914" y1="-193.53" x2="-20.469" y2="-181.36"/><linearGradient id="3"><stop stop-color="#ffff5e"/><stop offset="1" stop-color="#f6a32d"/></linearGradient><linearGradient id="1"><stop stop-color="#f9f9f9"/><stop offset="1" stop-color="#999"/></linearGradient><linearGradient xlink:href="#1" id="0" gradientUnits="userSpaceOnUse" x1="-33.14" y1="-185.13" x2="-35.775" y2="-177.2"/><radialGradient xlink:href="#1" id="5" cx="-176.59" cy="-120.91" r="3.01" gradientUnits="userSpaceOnUse" gradientTransform="matrix(2.21087.05719-.05496 2.12455 362.18 94.22)"/></defs><rect width="28.2" height="28.2" x="1.898" y="1.898" fill="#7e572d" fill-rule="evenodd" rx="5.575"/><circle cx="15.912" cy="24.881" r="3.552" fill="#8f6943"/><g fill="#fff"><rect width="1.332" height="2.664" x="14.58" y="24.881" rx=".333"/><rect width="1.332" height="2.664" x="15.912" y="24.881" rx=".333"/></g><path d="m5.652 3.572c-.093-.008-.177-.005-.253.009-.101.018-.187.055-.258.111-.583.462-.401 2.298.609 6.118.566 2.142 1.033 3.281 1.837 4.489.528.793.783 1.095 1.655 1.957.781.86 1.766 2.063 1.787 3.075-.224 1.998-1.687 3.045-1.776 4.746 0 2.059.96 3.469 3.02 3.469 1.292.129 2.484-1.543 3.641-1.776 1.157.233 2.349 1.906 3.641 1.776 2.06 0 3.02-1.41 3.02-3.469-.089-1.701-1.552-2.748-1.776-4.746.02-1.012 1.01-2.215 1.787-3.075.872-.862 1.127-1.164 1.655-1.957.804-1.208 1.271-2.347 1.837-4.489 1.01-3.819 1.192-5.656.609-6.118-.071-.056-.157-.093-.258-.111-.076-.014-.16-.017-.253-.009-.28.024-.641.144-1.093.364-.895.436-1.77 1.08-2.756 2.029-1.48 1.425-2.01 2.241-3.75 5.787-.52 1.056-1.159 2.083-1.939 3.206-.227.156-.722.154-.722.154 0 0-.495.002-.722-.154-.781-1.122-1.419-2.149-1.939-3.206-1.742-3.545-2.271-4.362-3.75-5.787-.986-.949-1.861-1.593-2.756-2.029-.451-.22-.812-.341-1.093-.364" fill="#b08458"/><path d="m6.08 5c.002.134-.015.183.004.368.086.865.37 2.243.867 4.123.551 2.084.944 3.03 1.671 4.121h-.001c.506.76.639.915 1.495 1.761l.024.023.022.025c.366.403.815.868 1.207 1.413.639-.717 1.435-1.276 2.326-1.633-.628-1.014-1.14-2.051-1.559-2.901v-.001c-1.731-3.525-2.081-4.075-3.497-5.438-.924-.89-1.691-1.446-2.439-1.81-.103-.05-.036-.021-.119-.051m19.84.006c-.056.024-.056.014-.119.045-.748.365-1.515.921-2.439 1.81-1.416 1.363-1.766 1.914-3.497 5.438v.001c-.419.851-.932 1.888-1.56 2.902.892.357 1.688.916 2.328 1.633.392-.546.841-1.011 1.207-1.415l.022-.025.024-.023c.855-.845.989-1 1.495-1.761h-.001c.727-1.092 1.12-2.036 1.671-4.121.497-1.88.781-3.258.867-4.123.018-.182.002-.229.004-.362z" fill="#7c5d3e"/><g fill-opacity="0"><path d="m5.398 3.58c-.101.018-.186.055-.257.112-.583.462-.401 2.299.608 6.119.566 2.142 1.033 3.283 1.837 4.491.528.793.783 1.094 1.655 1.956.781.86 1.766 2.064 1.786 3.077 0 .445-.22.796-.579 1.513-.581 1.16-.618 1.812-.664 3.042-.077 2.035.222 3.291 1.249 4.01.575.402 1.054.528 2.01.527 1.086.075 1.949-.416 2.958-.596 1.01.18 1.872.671 2.958.596.956.001 1.435-.125 2.01-.527 1.028-.719 1.326-1.975 1.249-4.01-.046-1.23-.083-1.881-.664-3.042-.359-.717-.579-1.068-.579-1.513.02-1.013 1.01-2.216 1.786-3.077.872-.862 1.127-1.163 1.655-1.956.804-1.208 1.271-2.349 1.837-4.491 1.01-3.82 1.192-5.657.608-6.119-.285-.226-.802-.147-1.604.244-.895.436-1.77 1.082-2.756 2.031-1.48 1.425-2.01 2.241-3.751 5.787-.52 1.057-1.159 2.351-1.939 3.474-.227.156-.81.159-.81.159 0 0-.583-.003-.81-.159-.781-1.122-1.419-2.417-1.939-3.474-1.742-3.546-2.271-4.362-3.751-5.787-.986-.95-1.861-1.595-2.756-2.031-.602-.293-1.043-.411-1.347-.356"/><path d="m18.474 25.07c0 1.17-1.11 2.119-2.48 2.119-1.37 0-2.48-.949-2.48-2.119 0-1.17 1.11-5.341 2.48-5.341 1.37 0 2.48 4.17 2.48 5.341"/></g><path d="m15.912 25.769c-1.43-.088-2.657-1.361-2.07-1.989.626-.495 1.412-.681 2.07-.675.658-.006 1.444.18 2.07.675.587.628-.641 1.901-2.07 1.989" fill="#bf3667"/><path d="m13.09 23.11c-.844 0-2.064-.596-2.064-1.332 0-.736-.08-1.332.764-1.332 2.171.225 2.293 2.664 1.3 2.664" opacity=".2"/><path d="m13.09 22.22c-.844 0-2.064-.596-2.064-1.332 0-.736-.08-1.332.764-1.332 2.171.225 2.293 2.664 1.3 2.664" fill="#fff"/><circle cx="13.247" cy="21.773" r=".444" fill="#323232"/><path d="m18.731 23.11c.844 0 2.064-.596 2.064-1.332 0-.736.08-1.332-.764-1.332-2.171.225-2.293 2.664-1.3 2.664" opacity=".2"/><path d="m18.731 22.22c.844 0 2.064-.596 2.064-1.332 0-.736.08-1.332-.764-1.332-2.171.225-2.293 2.664-1.3 2.664" fill="#fff"/><circle cx="-18.576" cy="21.773" r=".444" transform="scale(-1 1)" fill="#323232"/><g transform="translate(49.877 194.68)"><path d="m-35.21-194.22c-5.577-1.531-5.951 3.24-4.58 5.493 4.381 6.983 6.796 6.577 9.398 7.895 1.712 2.064 3.451 3.4 6.469 4.1 11.69 1.559 3.242-8.417.92-8.649-5.065.012-7.547-6.123-12.206-8.838" fill="url(#0)"/><path d="m-35.21-194.22c3.76.276 5.616-.626 8.93-.421 4.319.283 8.307 2.053 7.838 6.574-.347 2.567-.37 2.25.186 4.296.532 1.535-.252 4.232-.487 4.654-2.715 4.963-1.536 4.965-2.656 7.742l-.906-.418-2.508-11.358c-7.177-.909-10.754-10.11-10.398-11.07" fill="url(#2)"/><path d="m-28.419-184.29c.362.274 1.553-5.105 1.172-5.653 1.379 2.44 1.919 4.616 2.435 6.783-1.276-.283-2.289-.554-3.607-1.13" fill="url(#4)"/><circle r="3.01" cy="-171.07" cx="-21.728" fill="url(#5)"/></g></svg>