<svg xmlns="http://www.w3.org/2000/svg" viewBox="0 0 32 32"><defs><linearGradient gradientTransform="matrix(2.54182 0 0 2.58531-153.47-277.37)" id="0" x1="67.894" y1="108.69" x2="67.854" y2="113.11" gradientUnits="userSpaceOnUse"><stop stop-color="#f9f9f9"/><stop offset="1" stop-color="#999"/></linearGradient></defs><g transform="translate(45.874 4.14)"><rect y="-2.242" x="-43.976" height="28.2" width="28.2" fill="#8c6b5f" fill-rule="evenodd" rx="5.575"/><path d="m-28.518202 3.611854a9.49275 9.49275 0 0 0 -9.492749 9.49275 9.49275 9.49275 0 0 0 9.492749 9.492749 9.49275 9.49275 0 0 0 9.49275 -9.492749 9.49275 9.49275 0 0 0 -9.49275 -9.49275" fill="#f8bd2b" stroke-width=".525"/><g stroke-width=".123"><g fill="#8c6b5f"><path d="m-28.708 6.795c1.176.278 1.303 1.777 2.249 2.142 1.262.513 1.37-1.092.718-1.941"/><path d="m-30.28-.908c-6.622-.006-12.08 5.447-12.252 12.326-.177 6.988 5.163 12.801 11.927 12.983 3.295.089 5.867-1.175 8.124-3.303.241-.201.372-.326.372-.326 0 0 2.447-2.568 2.578-4.688-.624 1.032-1.197 2.064-2.751 2.829-.713.33-1.366.611-2.025.833-.042.011-.084.021-.127.031-.312.074-.639.137-.981.184-.042.006-.084.011-.126.016-.355.045-.722.078-1.101.094-.039.002-.079.001-.119.002-.374.013-.756.012-1.145-.004-.025-.001-.05 0-.075-.001-.395-.018-.344-.053-.745-.1-.057-.007-.115-.011-.172-.019-.391-.05-.781-.115-1.169-.193-.063-.013-.125-.025-.188-.038-.38-.081-.756-.175-1.126-.283-.118-.035-.237-.07-.354-.108-.088-.028-.177-.055-.265-.085-.125-.043-.247-.089-.37-.135-.1-.037-.201-.074-.299-.114-.114-.046-.225-.096-.336-.145-.094-.041-.19-.081-.283-.125-.202-.095-.4-.194-.591-.299-.152-.084-.297-.172-.435-.265-.317-.212-.594-.445-.842-.69-1.291-1.317-1.231-2.866-1.163-3.87.085-1.261 1.143-4.03 4.622-5.493 2.149-.759 4.677-1.29 6.791-.609 1.59.359 2.733.88 4.245 1.414 0 0-.012.026.405.13 2.94.466 2.61-1.956 2.61-1.956l-.23-.567c-.051-.299.173-.534.173-.534 0 0-.181-.668-.151-1.109.031-.441.006-1.01-.09-1.813-.096-.807-.626-1.489-.797-1.615-.172-.125-.974-.729-1.742-1.031-.768-.301-1.545-.524-2.502-.389-.106.015-.207.031-.311.047-.019-.006-.033-.013-.053-.019-.365-.108-.623-.97-.921-.963-.023.001-.046.002-.069.005-.023.002-.047.005-.07.01h-.001c-.024.004-.048.011-.073.017-.027.007-.053.017-.078.028-.174.081-.281 1.019-.347 1.219-1.53-.773-3.241-1.228-5.055-1.277-.106-.003-.21-.005-.315-.005m6.742 20.422c-.225.084-.468.155-.719.22.251-.065.495-.136.719-.22"/></g><path d="m-24.935 2.721c-1.324-.002-2.76.386-3.809.751-1.989.704-3.229 1.273-4.84 2.425-.427.31-2.106 1.543-3.127 3.262-2.819 4.985-.825 10.278 2.822 11.48 4.01 1.499 7.846 1.932 12.672-2.333-.415.332 0 0-2.316 1.207-2.73 1.017-7.101.691-10.34-1.087-2.605-1.441-2.344-3.563-2.259-4.824.085-1.261.962-4.03 4.441-5.493 2.149-.759 4.677-1.29 6.79-.609 1.59.359 2.732 1.01 4.244 1.542 0 0-.012.026.405.129 2.94.466 3.035-2.122 3.035-2.122l-.084-.471-.256-.64-.122-.274-.074-.149c0 0-.021-.187-.051-.377-.056.71-.339 1.096-.339 1.096-2.285-.433-2.693-2.403-5.103-3.23-.509-.2-1.088-.281-1.69-.282m3.718 15.585c.266-.213.395-.359.395-.358-.132.123-.264.242-.395.358" fill="#d3c9c6"/><path d="m-37.09 9.134l-.014.113c.919-.047 2.046.153 2.882.739.648.438 1.232 1.09 2.063.795.568-.199.6-.537.382-1.091-.184-.451-.488-1.23-.864-1.529-.541-.429-1.941-.279-2.01-1.175-.053-.424.214-.742.451-1.051 0 0-2.711.681-2.889 3.199" fill="#8c6b5f"/></g><g fill="#3f3f3f"><path d="m-18.1 6.324c0 0-.104.328-.593.357-.489.029-.404.709.02 1.09.424.381.756.485 1.039.193.282-.292.976-.776-.465-1.64" stroke-width=".112"/><path d="m-21.02 5.075c-.307.392-.876.46-1.269.152-.394-.31-.464-.878-.156-1.271.307-.392.875-.459 1.269-.151.394.309.463.877.157 1.27" stroke-width=".13"/><path d="m-17.468 5.126c-.027.349-.249.61-.495.584-.247-.026-.425-.329-.398-.678.027-.348.248-.61.495-.584.247.027.425.33.398.678" stroke-width=".126"/></g></g>

   xmlns:dc="http://purl.org/dc/elements/1.1/"
   xmlns:cc="http://creativecommons.org/ns#"
   xmlns:rdf="http://www.w3.org/1999/02/22-rdf-syntax-ns#"
   xmlns:svg="http://www.w3.org/2000/svg"
   xmlns="http://www.w3.org/2000/svg"
   xmlns:xlink="http://www.w3.org/1999/xlink"
   xmlns:sodipodi="http://sodipodi.sourceforge.net/DTD/sodipodi-0.dtd"
   xmlns:inkscape="http://www.inkscape.org/namespaces/inkscape"
   height="32"
   width="32"
   version="1"
   id="svg8"
   sodipodi:docname="snow-top-2.svg"
   inkscape:version="0.92.1 r"&gt;
  <path d="m24.646 6.111c2.995 2.684 1.381 7.817 3.674 8.291 2.031.613 3.541-1.385 3.66-4.503.35-8.627-3.911-9.427-6.879-9.524-28.342-2.047-1.762 4.92-.455 5.736" fill="url(#0)"/></svg>