<svg xmlns="http://www.w3.org/2000/svg" viewBox="0 0 32 32"><defs><linearGradient gradientTransform="matrix(-2.65552 0 0 2.58531 193.77-277.73)" id="0" x1="67.894" y1="108.69" x2="67.854" y2="113.11" gradientUnits="userSpaceOnUse"><stop stop-color="#f9f9f9"/><stop offset="1" stop-color="#999"/></linearGradient></defs><g fill-rule="evenodd"><rect width="28.2" height="28.2" x="1.898" y="1.898" fill="#f2f2f2" rx="5.575"/><g transform="matrix(.12133 0 0 .12133-.912-3.049)" enable-background="new" stroke-width=".742"><path d="m75.58 196.69l-31.583-73.14 26.2-12.11 20.352 49.09 24.61-12.533 11.07 23.627z" fill="#4587cf"/><path d="m167.62 98l27.782 5.331 5.969 18.01 12.199-13.914 30.425 6.416-27.327 30.436 15.427 45.34-32.752-3.179-5.826-24.582-14.798 20.228-25.469-7.952 25.607-36.23z" fill="#de5328"/><path d="m97.53 122.93l31.788 4.314 9.434 19.724 11.895-17.05 31.993 4.109-29.327 41.913-7.178 40.06-29.737-4.725 5.127-35.955z" fill="#dfa722"/></g></g>

   xmlns:dc="http://purl.org/dc/elements/1.1/"
   xmlns:cc="http://creativecommons.org/ns#"
   xmlns:rdf="http://www.w3.org/1999/02/22-rdf-syntax-ns#"
   xmlns:svg="http://www.w3.org/2000/svg"
   xmlns="http://www.w3.org/2000/svg"
   xmlns:xlink="http://www.w3.org/1999/xlink"
   xmlns:sodipodi="http://sodipodi.sourceforge.net/DTD/sodipodi-0.dtd"
   xmlns:inkscape="http://www.inkscape.org/namespaces/inkscape"
   version="1"
   width="32"
   height="32"
   id="svg12"
   sodipodi:docname="snow-top-3.svg"
   inkscape:version="0.92.1 r"&gt;
  <path d="m24.627.009c8.36-.339 9.455 9.523 4.064 9.505-.686.003-1.62-.197-3-1.471-14.665-10.216-14.549 2.967-17.708.875-1.727-1.822-1.743 4.653-4.139 5.127-2.122.613-3.699-1.385-3.824-4.503-.366-8.627 4.086-9.427 7.187-9.524 5.974.133 11.562-.045 17.419-.01" fill="url(#0)"/></svg>