<svg xmlns="http://www.w3.org/2000/svg" viewBox="0 0 32 32"><defs><linearGradient gradientTransform="matrix(2.59244 0 0 2.58531-157.93-277.73)" id="0" x1="67.894" y1="108.69" x2="67.854" y2="113.11" gradientUnits="userSpaceOnUse"><stop stop-color="#f9f9f9"/><stop offset="1" stop-color="#999"/></linearGradient></defs><g fill-rule="evenodd"><path d="m28.73 28.09c-.298.074-.67.168-.67.168h-24.15c-.113 0-.393-.096-.617-.133 1.021 1.187 2.484 1.977 4.18 1.977h17.05c1.711 0 3.182-.806 4.203-2.01" fill="#999"/><path d="m30.07 24.682v-10.711c0-.461-.222-.866-.563-1.123l.006-.008-13.529-9.938c0 0-13.528 9.951-13.445 9.889v-.002c-.029.019-.057.042-.084.063l-.016.012v.002c-.328.257-.543.654-.543 1.105v10.557c0 1.393.558 2.623 1.396 3.598.224.037.505.133.617.133h24.15c0 0 .372-.094.67-.168.789-.932 1.304-2.095 1.342-3.408" fill="#004dbb"/><path d="m7.474 1.898c-3.089 0-5.576 2.488-5.576 5.576v6.496c0-.451.215-.848.543-1.105v-.002l.016-.012c.027-.021.055-.044.084-.063v.002c-.083.062 13.445-9.889 13.445-9.889l13.529 9.938-.006.008c.341.257.563.662.563 1.123v10.711c.002-.054.031-.099.031-.154v-17.05c0-3.089-2.488-5.576-5.576-5.576z" fill="#999"/></g><g stroke-width="1.01"><rect rx="1.509" ry="1.508" height="18.11" width="22.14" y="5.92" x="4.917" fill="#ebebeb"/><path d="m15.98519 8.938657a5.031 5.031 0 0 0 -5.031 5.031 5.031 5.031 0 0 0 5.031 5.031h3.522c.279 0 .503-.224.503-.503 0-.279-.224-.503-.503-.503h-3.522a4.0248 4.0248 0 0 1 -4.0248 -4.0248 4.0248 4.0248 0 0 1 4.0248 -4.0248 4.0248 4.0248 0 0 1 4.02479 4.0248v1.509c0 .279-.224.503-.503.503-.279 0-.503-.224-.503-.503v-1.509a3.0186 3.0186 0 0 0 -3.01859 -3.0186 3.0186 3.0186 0 0 0 -3.0186 3.0186 3.0186 3.0186 0 0 0 3.0186 3.0186 3.0186 3.0186 0 0 0 2.14411 -.896142c.234.528.761.897 1.377.897.836 0 1.509-.673 1.509-1.509v-1.509a5.031 5.031 0 0 0 -5.031 -5.031m.00011 3.01822a2.0124 2.0124 0 0 1 2.01239 2.0124 2.0124 2.0124 0 0 1 -2.01239 2.0124 2.0124 2.0124 0 0 1 -2.0124 -2.0124 2.0124 2.0124 0 0 1 2.0124 -2.0124" fill="#848484"/></g><g fill-rule="evenodd"><path d="m30.07 24.682v-10.711l-23.14 16.02c.188.019.351.109.545.109h17.05c3.034 0 5.459-2.408 5.545-5.42" fill="#007eff"/><path d="m15.985 23.723l-14.09-9.752v10.557c0 2.895 2.212 5.18 5.03 5.465z" fill="#00a2ff"/></g>

   xmlns:dc="http://purl.org/dc/elements/1.1/"
   xmlns:cc="http://creativecommons.org/ns#"
   xmlns:rdf="http://www.w3.org/1999/02/22-rdf-syntax-ns#"
   xmlns:svg="http://www.w3.org/2000/svg"
   xmlns="http://www.w3.org/2000/svg"
   xmlns:xlink="http://www.w3.org/1999/xlink"
   xmlns:sodipodi="http://sodipodi.sourceforge.net/DTD/sodipodi-0.dtd"
   xmlns:inkscape="http://www.inkscape.org/namespaces/inkscape"
   version="1"
   width="32"
   height="32"
   id="svg12"
   sodipodi:docname="snow-top-4.svg"
   inkscape:version="0.92.1 r"&gt;
  <path d="m7.196.009c-8.161-.339-9.231 9.523-3.968 9.505.669.003 1.581-.197 2.929-1.471 3.773-4.147 9.01 4.479 14.696-1.042.61-.911 1.804-1.135 2.455-.627 1.045.677 2.87 2.991 3.88 3 2.359.513 4.095-.198 4.816-3.188.185-3.165-2.303-6.286-6.281-6.17-5.832.133-12.809-.045-18.527-.01" fill="url(#0)"/></svg>