<svg xmlns="http://www.w3.org/2000/svg" viewBox="0 0 32 32"><defs><linearGradient gradientTransform="matrix(-2.65552 0 0 2.58531 193.77-277.73)" id="0" x1="67.894" y1="108.69" x2="67.854" y2="113.11" gradientUnits="userSpaceOnUse"><stop stop-color="#f9f9f9"/><stop offset="1" stop-color="#999"/></linearGradient></defs><g fill-rule="evenodd"><path d="m28.73 28.09c-.298.074-.67.168-.67.168h-24.15c-.113 0-.393-.096-.617-.133 1.021 1.187 2.484 1.977 4.18 1.977h17.05c1.711 0 3.182-.806 4.203-2.01" fill="#999"/><path d="m30.07 24.682v-10.711c0-.461-.222-.866-.563-1.123l.006-.008-13.529-9.938c0 0-13.528 9.951-13.445 9.889v-.002c-.029.019-.057.042-.084.063l-.016.012v.002c-.328.257-.543.654-.543 1.105v10.557c0 1.393.558 2.623 1.396 3.598.224.037.505.133.617.133h24.15c0 0 .372-.094.67-.168.789-.932 1.304-2.095 1.342-3.408" fill="#004dbb"/><path d="m7.474 1.898c-3.089 0-5.576 2.488-5.576 5.576v6.496c0-.451.215-.848.543-1.105v-.002l.016-.012c.027-.021.055-.044.084-.063v.002c-.083.062 13.445-9.889 13.445-9.889l13.529 9.938-.006.008c.341.257.563.662.563 1.123v10.711c.002-.054.031-.099.031-.154v-17.05c0-3.089-2.488-5.576-5.576-5.576z" fill="#999"/></g><rect rx="1.509" ry="1.508" height="18.11" width="22.14" y="5.92" x="4.917" fill="#ebebeb" stroke-width="1.01"/><g fill-rule="evenodd"><path d="m30.07 24.682v-10.711l-23.14 16.02c.188.019.351.109.545.109h17.05c3.034 0 5.459-2.408 5.545-5.42" fill="#007eff"/><path d="m15.985 23.723l-14.09-9.752v10.557c0 2.895 2.212 5.18 5.03 5.465z" fill="#00a2ff"/></g><g transform="translate(0 1.294)" fill="#5c7cda"><path transform="matrix(1 0 0 .71885.542 5.505)" d="m20.19 12.224l-4.973-.01-4.495.01 2.495-4.301 2.238-3.898 2.477 4.312z"/><path d="m14.441 12.475h3.119v4.678h-3.119z"/></g>

   xmlns:dc="http://purl.org/dc/elements/1.1/"
   xmlns:cc="http://creativecommons.org/ns#"
   xmlns:rdf="http://www.w3.org/1999/02/22-rdf-syntax-ns#"
   xmlns:svg="http://www.w3.org/2000/svg"
   xmlns="http://www.w3.org/2000/svg"
   xmlns:xlink="http://www.w3.org/1999/xlink"
   xmlns:sodipodi="http://sodipodi.sourceforge.net/DTD/sodipodi-0.dtd"
   xmlns:inkscape="http://www.inkscape.org/namespaces/inkscape"
   version="1"
   width="32"
   height="32"
   id="svg12"
   sodipodi:docname="snow-top-3.svg"
   inkscape:version="0.92.1 r"&gt;
  <path d="m24.627.009c8.36-.339 9.455 9.523 4.064 9.505-.686.003-1.62-.197-3-1.471-14.665-10.216-14.549 2.967-17.708.875-1.727-1.822-1.743 4.653-4.139 5.127-2.122.613-3.699-1.385-3.824-4.503-.366-8.627 4.086-9.427 7.187-9.524 5.974.133 11.562-.045 17.419-.01" fill="url(#0)"/></svg>