<svg xmlns="http://www.w3.org/2000/svg" viewBox="0 0 32 32"><defs><linearGradient gradientTransform="matrix(2.62891 0 0 2.71269-160.16-291.42)" id="0" x1="67.894" y1="108.69" x2="67.854" y2="113.11" gradientUnits="userSpaceOnUse"><stop stop-color="#f9f9f9"/><stop offset="1" stop-color="#999"/></linearGradient></defs><rect width="28.2" height="28.2" x="1.898" y="1.898" fill="#0286c2" fill-rule="evenodd" rx="5.575"/><g transform="translate(45.2 6.945)"><path d="m-29.2028 3.117796a5.937425 5.937425 0 0 0 -5.937425 5.937425 5.937425 5.937425 0 0 0 5.937425 5.937424 5.937425 5.937425 0 0 0 5.937425 -5.937424 5.937425 5.937425 0 0 0 -5.937425 -5.937425m0 3.562c1.312 0 2.375 1.063 2.375 2.375 0 1.312-1.063 2.375-2.375 2.375-1.312 0-2.375-1.063-2.375-2.375 0-1.312 1.063-2.375 2.375-2.375" fill="#848484"/><path d="m-29.2-2.028c-6.14 0-11.08 4.943-11.08 11.08 0 6.14 4.943 11.08 11.08 11.08 6.14 0 11.08-4.943 11.08-11.08 0-6.14-4.943-11.08-11.08-11.08m0 6.333253a4.74994 4.74994 0 0 1 4.74994 4.74994 4.74994 4.74994 0 0 1 -4.74994 4.749939 4.74994 4.74994 0 0 1 -4.74994 -4.749939 4.74994 4.74994 0 0 1 4.74994 -4.74994" fill="#ccc"/><rect rx="1.131" y="12.222" x="-37.12" height="7.917" width="15.833" fill="#64cd4a"/><g fill="none" stroke="#fff" stroke-linecap="round"><path d="m-31.977 18.15v-3.947m-3.16 0l1.58 1.974 1.58-1.974m-3.16 3.947v-3.947" stroke-linejoin="round"/><path d="m-27.23 18.15l-2.367-2.467m2.367-1.48l-2.367 2.467m0 1.48v-3.947"/><path d="m-23.267 14.206l-1.186 3.953-1.186-3.953" stroke-linejoin="round"/></g></g>

   xmlns:dc="http://purl.org/dc/elements/1.1/"
   xmlns:cc="http://creativecommons.org/ns#"
   xmlns:rdf="http://www.w3.org/1999/02/22-rdf-syntax-ns#"
   xmlns:svg="http://www.w3.org/2000/svg"
   xmlns="http://www.w3.org/2000/svg"
   xmlns:xlink="http://www.w3.org/1999/xlink"
   xmlns:sodipodi="http://sodipodi.sourceforge.net/DTD/sodipodi-0.dtd"
   xmlns:inkscape="http://www.inkscape.org/namespaces/inkscape"
   version="1"
   width="32"
   height="32"
   id="svg12"
   sodipodi:docname="snow-top-1.svg"
   inkscape:version="0.92.1 r"&gt;
  <path d="m7.288.009c-8.276-.356-9.36 9.992-4.02 9.973.679.003 1.604-.207 2.97-1.543 7.256-10.531 14.706 3.573 17.53.919 1.71-1.912 3.496-.418 4.448.115 2.1.643 3.662.041 3.785-3.231.188-3.321-1.889-6.344-5.923-6.223-5.914.14-12.989-.047-18.787-.01" fill="url(#0)"/><path fill="#f00" fill-opacity="0" d="m0 0h32v32h-32z"/></svg>