<svg xmlns="http://www.w3.org/2000/svg" xmlns:xlink="http://www.w3.org/1999/xlink" viewBox="0 0 32 32"><defs><linearGradient gradientTransform="matrix(-2.54182 0 0 2.58531 185.47-277.37)" id="1" x1="67.894" y1="108.69" x2="67.854" y2="113.11" gradientUnits="userSpaceOnUse"><stop stop-color="#f9f9f9"/><stop offset="1" stop-color="#999"/></linearGradient></defs><rect width="28.2" height="28.2" x="1.898" y="1.898" fill="#ff8a00" fill-rule="evenodd" rx="5.575"/><path d="m10.367 23.23c-1.123-1.691-2.043-3.108-2.044-3.148-.002-.058.681-.387 3.304-1.591 1.819-.835 3.33-1.519 3.357-1.52.028-.001.051.035.051.079 0 .044-.182.741-.404 1.55-.286 1.041-.392 1.484-.363 1.52.067.08.691.291 1.125.379.592.121 1.482.177 2.039.128 1.706-.148 3.506-.951 5.146-2.295.511-.419.536-.438.555-.419.029.029-.335.872-.54 1.249-.356.654-.687 1.133-1.193 1.724-1.271 1.487-2.878 2.38-4.831 2.683-.543.084-1.873.095-2.447.02-.201-.026-.458-.059-.571-.072l-.205-.024-.212.705c-.418 1.393-.643 2.08-.684 2.094-.023.008-.96-1.37-2.083-3.061m6.509-8.197c.084-.285.837-3.048.837-3.07 0-.104-.92-.393-1.57-.493-.6-.093-1.728-.094-2.244-.002-1.611.286-3.273 1.111-4.788 2.375-.19.158-.359.288-.375.288-.056 0-.031-.084.154-.52.444-1.043 1.076-1.987 1.895-2.833 1.277-1.318 2.703-2.055 4.554-2.353.621-.1 1.91-.1 2.67.001.308.041.572.063.586.049.014-.014.212-.63.441-1.369.228-.739.435-1.363.46-1.387.032-.032.066-.023.122.035.154.159 4.061 6.104 4.061 6.179 0 .043-.023.096-.051.119-.028.023-1.155.543-2.506 1.157-1.35.614-2.828 1.291-3.283 1.505-.844.398-1 .449-.962.319" fill="#fff" stroke-width=".041"/>

   xmlns:dc="http://purl.org/dc/elements/1.1/"
   xmlns:cc="http://creativecommons.org/ns#"
   xmlns:rdf="http://www.w3.org/1999/02/22-rdf-syntax-ns#"
   xmlns:svg="http://www.w3.org/2000/svg"
   xmlns="http://www.w3.org/2000/svg"
   xmlns:xlink="http://www.w3.org/1999/xlink"
   xmlns:sodipodi="http://sodipodi.sourceforge.net/DTD/sodipodi-0.dtd"
   xmlns:inkscape="http://www.inkscape.org/namespaces/inkscape"
   height="32"
   width="32"
   version="1"
   id="svg8"
   sodipodi:docname="snow-top-3.svg"
   inkscape:version="0.92.1 r"&gt;
  <path fill="#00000f" fill-opacity="0" d="m0 0h32v32h-32z" id="0"/><path d="m7.354 6.111c-2.995 2.684-1.381 7.817-3.674 8.291-2.031.613-3.541-1.385-3.66-4.503-.35-8.627 3.911-9.427 6.879-9.524 28.342-2.047 1.762 4.92.455 5.736" fill="url(#1)"/><use xlink:href="#0"/></svg>