<svg xmlns="http://www.w3.org/2000/svg" viewBox="0 0 32 32"><defs><linearGradient gradientTransform="matrix(2.59244 0 0 2.58531-157.93-277.73)" id="0" x1="67.894" y1="108.69" x2="67.854" y2="113.11" gradientUnits="userSpaceOnUse"><stop stop-color="#f9f9f9"/><stop offset="1" stop-color="#999"/></linearGradient></defs><g transform="translate(50.38-2.043)"><g fill-rule="evenodd"><path d="m-22.891 31.17l-11.07-11.07-11.391 11.422c.745.368 1.555.619 2.445.619h17.05c1.117 0 2.095-.409 2.965-.971" fill="#2095f2"/><path d="m-20.66 28.455l-10.832-10.832-2.473 2.48 11.07 11.07c1.014-.654 1.814-1.564 2.23-2.719" fill="#ffe500"/><path d="m-20.93 7.03l-10.563 10.594 10.832 10.832c.214-.594.379-1.215.379-1.885v-17.05c0-.909-.266-1.73-.648-2.486" fill="#00a31c"/><path d="m-23.354 4.599l-24.482 24.459c.543 1.073 1.401 1.934 2.48 2.467l24.426-24.496c-.532-1.053-1.373-1.894-2.424-2.43" fill="#fff"/><path d="m-42.91 3.941c-3.089 0-5.574 2.486-5.574 5.574v17.05c0 .909.266 1.732.648 2.488l24.482-24.459c-.76-.388-1.587-.658-2.502-.658" fill="#e9e5dc"/></g><g transform="matrix(.57627 0 0 .57627-15.94 10.728)" stroke-width="1.735"><path d="m-43.03-6.822c-4.418 0-8 3.517-8 7.855 0 .271.023.521.05.785.022.263.057.528.1.785.916 5.521 4.65 9.432 7.85 12.574 3.2-3.142 6.934-7.05 7.85-12.574.043-.257.078-.523.1-.785.027-.264.05-.514.05-.785 0-4.338-3.582-7.855-8-7.855" fill="#f34235"/><path d="m-43.03-2.822c1.657 0 3 1.343 3 3 0 1.657-1.343 3-3 3-1.657 0-3-1.343-3-3 0-1.657 1.343-3 3-3" fill="#fff"/></g></g>

   xmlns:dc="http://purl.org/dc/elements/1.1/"
   xmlns:cc="http://creativecommons.org/ns#"
   xmlns:rdf="http://www.w3.org/1999/02/22-rdf-syntax-ns#"
   xmlns:svg="http://www.w3.org/2000/svg"
   xmlns="http://www.w3.org/2000/svg"
   xmlns:xlink="http://www.w3.org/1999/xlink"
   xmlns:sodipodi="http://sodipodi.sourceforge.net/DTD/sodipodi-0.dtd"
   xmlns:inkscape="http://www.inkscape.org/namespaces/inkscape"
   version="1"
   width="32"
   height="32"
   id="svg12"
   sodipodi:docname="snow-top-4.svg"
   inkscape:version="0.92.1 r"&gt;
  <path d="m7.196.009c-8.161-.339-9.231 9.523-3.968 9.505.669.003 1.581-.197 2.929-1.471 3.773-4.147 9.01 4.479 14.696-1.042.61-.911 1.804-1.135 2.455-.627 1.045.677 2.87 2.991 3.88 3 2.359.513 4.095-.198 4.816-3.188.185-3.165-2.303-6.286-6.281-6.17-5.832.133-12.809-.045-18.527-.01" fill="url(#0)"/></svg>