<svg xmlns="http://www.w3.org/2000/svg" viewBox="0 0 32 32"><defs><linearGradient gradientTransform="matrix(2.54182 0 0 2.58531-153.47-277.37)" id="0" x1="67.894" y1="108.69" x2="67.854" y2="113.11" gradientUnits="userSpaceOnUse"><stop stop-color="#f9f9f9"/><stop offset="1" stop-color="#999"/></linearGradient></defs><g fill-rule="evenodd"><rect width="28.2" height="28.2" x="1.898" y="1.898" fill="#fff" rx="5.575"/><g transform="translate(9.898 46.24)"><path d="m18.574-42.708l-24.945 24.943c1.01 1.01 2.401 1.629 3.945 1.629h17.05c3.089 0 5.574-2.486 5.574-5.574v-17.05c0-1.544-.622-2.936-1.629-3.943" fill="#328fe3"/><path d="m5.619-42.06c-.434.013-.853.074-1.273.131l.404.346-1.094.586 1.393.33.178-.469h.609l.213-.406-.43-.109zm-1.273.131l-.012-.01-.496.063c.165-.03.34-.03.508-.053m-.996.152c-1.114.25-2.167.653-3.137 1.188-.971.536-1.86 1.202-2.641 1.977-.781.774-1.455 1.655-1.998 2.621-.544.966-.955 2.02-1.215 3.129l.037.057-.102.189c-.018.088-.032.177-.049.266l.453.697 1.252.311v-.203l.5.072-.047.359.393.07.607.168.859.984 1.098.082.105.9-.75.525-.035.807-.107.49 1.086 1.369.082.465c0 0 .393.107.441.107.026 0 .251.175.482.348l4-3.998-.01-.148-.334-.586-.908-.014-.523-.828-.465-.227-.025.25-.846.051-.311-.434-.881-.18-.729.844-1.145-.193-.084-1.297-.836-.145.336-.637-.096-.367-1.098.74-.691-.086-.246-.541.15-.561.381-.703.879-.447h1.691l-.004.518.607.285-.049-.887.439-.445.885-.582.061-.412.885-.924.936-.521-.08-.068.635-.604.23.063.109.137.24-.271.059-.025-.264-.037-.27-.09v-.26l.145-.117h.311l.145.064.123.252.154-.023v-.021l.041.014.443-.066.061-.217.25.064v.232l-.232.16.035.258.795.248c0 0 .002.003.004.01l.184-.016.012-.348-.631-.289-.037-.166.523-.18.025-.504-.549-.336-.037-.852-.75.371h-.273l.07-.648-1.021-.242-.422.322v.98l-.762.242-.307.639-.33.055v-.818l-.715-.1-.357-.232-.145-.531 1.279-.754.625-.189.064.422.348-.016.027-.215.365-.053.006-.074-.156-.064-.037-.225.449-.037.271-.285.014-.021.004.002zm10.596 2.727l-.168.027-.516.738-.744.119-.107.639.313.072-.09.412-.738-.148-.674.148-.145.377.117.795.373.174 2.854-2.854c-.163-.162-.302-.347-.475-.5m-3.066 4.04l-.043.023v.02z" opacity=".441" fill="#007dff" fill-opacity=".555"/><path d="m-2.426-44.34c-3.089 0-5.574 2.486-5.574 5.574v17.05c0 1.544.621 2.938 1.629 3.945l7.04-7.04c-.231-.172-.456-.348-.482-.348-.048 0-.441-.107-.441-.107l-.082-.465-1.086-1.369.107-.49.035-.807.75-.525-.105-.9-1.098-.082-.859-.984-.607-.168-.393-.07.047-.359-.5-.072v.203l-1.252-.311-.453-.697c.017-.089.03-.178.049-.266l.102-.189-.037-.057c.26-1.111.671-2.163 1.215-3.129.544-.966 1.217-1.847 1.998-2.621.781-.774 1.669-1.441 2.641-1.977.97-.535 2.023-.938 3.137-1.188.001 0 .002-.002.004-.002-.001 0-.002.002-.004.002l-.041.043-.004-.002-.014.021-.271.285-.449.037.037.225.156.064-.006.074-.365.053-.027.215-.348.016-.064-.422-.625.189-1.279.754.145.531.357.232.715.1v.818l.33-.055.307-.639.762-.242v-.98l.422-.322 1.021.242-.07.648h.273l.75-.371.037.852.549.336-.025.504-.523.18.037.166.631.289-.012.348-.184.016c-.002-.007-.004-.01-.004-.01l-.795-.248-.035-.258.232-.16v-.232l-.25-.064-.061.217-.443.066-.041-.014v.021l-.154.023-.123-.252-.145-.064h-.311l-.145.117v.26l.27.09.264.037-.059.025-.24.271-.109-.137-.23-.063-.635.604.08.068-.936.521-.885.924-.061.412-.885.582-.439.445.049.887-.607-.285.004-.518h-1.691l-.879.447-.381.703-.15.561.246.541.691.086 1.098-.74.096.367-.336.637.836.145.084 1.297 1.145.193.729-.844.881.18.311.434.846-.051.025-.25.465.227.523.828.908.014.334.586.01.148 6.17-6.17v-.02l.043-.023.688-.688-.373-.174-.117-.795.145-.377.674-.148.738.148.09-.412-.313-.072.107-.639.744-.119.516-.738.168-.027c.172.153.312.338.475.5l4.154-4.154c0 0 0-.002 0-.002-1.01-1.01-2.401-1.629-3.945-1.629zm8.04 2.275v.408l.43.109-.213.406h-.609l-.178.469-1.393-.33 1.094-.586-.404-.346c-.168.023-.342.023-.508.053l.496-.063.012.01c.421-.057.84-.118 1.273-.131" fill="#42b2f6"/><path d="m14.41-38.701l-2.855 2.855.025.012.666-.004.449-.041.137-.359.703-.918.465.094.453-.412.086.322 1.119.76-.137.186-.504-.027.193.275.311.068.365-.15-.01-.441.164-.082-.133-.139-.748-.418-.193-.557h.41c-.292-.37-.634-.692-.967-1.023m.252 2.766l-1.607.127-.5.27h-.639l-.314-.031-.732.41-.043.043v.797l-1.586 1.148.131.492h.32l-.082.467-.229.082-.012 1.225 1.371 1.57h.598l.037-.096h1.07l.311-.287h.609l.332.336.908.096-.119 1.211 1 1.785-.529 1.02.035.48.418.418v1.154l.117.156c.755-1 1.36-2.125 1.775-3.336.415-1.211.641-2.511.641-3.867 0-.863-.092-1.703-.266-2.512-.173-.809-.428-1.587-.754-2.326l-.51.049v.449h-.232l-.25-.18-1.273-.322zm-10.01 6.988l-4 3.998c.193.144.402.289.402.289v2.471l.299.084-.203 1.137.5.672-.092 1.129.01.02c.622.245 1.265.449 1.934.588l.025-.072.025-.328-.426-.014-.215-.268.354-.342.049-.258-.395-.113.023-.238.561-.086.854-.412.285-.527.895-1.15-.203-.9.273-.479.822.025.555-.441.18-1.738.613-.783.107-.504-.561-.18-.369-.609-1.264-.014-1-.385z" fill="#c1dfff"/></g></g><g transform="translate(57.08 6.779)" stroke-width=".786"><path d="m-48.854 16.991l6.799-8.742.92.92 1.023 1.023z" fill="#f2f2f2"/><path d="m-33.31 1.45l-8.742 6.799 1.943 1.943z" fill="#f34235"/></g>

   xmlns:dc="http://purl.org/dc/elements/1.1/"
   xmlns:cc="http://creativecommons.org/ns#"
   xmlns:rdf="http://www.w3.org/1999/02/22-rdf-syntax-ns#"
   xmlns:svg="http://www.w3.org/2000/svg"
   xmlns="http://www.w3.org/2000/svg"
   xmlns:xlink="http://www.w3.org/1999/xlink"
   xmlns:sodipodi="http://sodipodi.sourceforge.net/DTD/sodipodi-0.dtd"
   xmlns:inkscape="http://www.inkscape.org/namespaces/inkscape"
   height="32"
   width="32"
   version="1"
   id="svg8"
   sodipodi:docname="snow-top-2.svg"
   inkscape:version="0.92.1 r"&gt;
  <path d="m24.646 6.111c2.995 2.684 1.381 7.817 3.674 8.291 2.031.613 3.541-1.385 3.66-4.503.35-8.627-3.911-9.427-6.879-9.524-28.342-2.047-1.762 4.92-.455 5.736" fill="url(#0)"/></svg>