<svg xmlns="http://www.w3.org/2000/svg" viewBox="0 0 32 32"><defs><clipPath><circle cx="286" cy="26" r="10" fill="none"/></clipPath><linearGradient gradientTransform="matrix(2.54182 0 0 2.58531-153.47-277.37)" id="0" x1="67.894" y1="108.69" x2="67.854" y2="113.11" gradientUnits="userSpaceOnUse"><stop stop-color="#f9f9f9"/><stop offset="1" stop-color="#999"/></linearGradient></defs><path d="m7.533 2h16.934c3.054 0 5.533 2.479 5.533 5.533v16.934c0 3.054-2.479 5.533-5.533 5.533h-16.934c-3.054 0-5.533-2.479-5.533-5.533v-16.934c0-3.054 2.479-5.533 5.533-5.533" fill="#c23f2c" fill-rule="evenodd"/><g transform="matrix(.66191 0 0 .66191 30.09 9.897)" stroke-width="1.511"><path d="m-21.288-7.186c9.06 0 16.406 7.349 16.406 16.406 0 9.06-7.349 16.406-16.406 16.406-9.06 0-16.406-7.349-16.406-16.406 0-9.06 7.349-16.406 16.406-16.406" fill="#9b200d"/><path d="m-21.288-7.186c-2.068 0-4.04.396-5.859 1.089-.13.125-.302.219-.438.203-.021 0-.042-.01-.057-.021-.896.375-1.75.839-2.557 1.359.104.167.135.359-.078.453-.036.016-.495.057-.651.057-2.297 1.667-4.135 3.906-5.313 6.526.016 0 .031-.01.052-.01.177-.005.438.047.609.083.156.031.286.135.422.146.391.031.484-.271.797-.438.328.042.547-.057.844-.026.203.026.349.24.505.25.13.016.25-.12.375-.104.125.021.339.292.359.443.026.188-.141.359-.083.568.198.203.557.245.839.359.188-.151.026-.432 0-.656 0-.094.016-.182 0-.271-.016-.151-.083-.286-.083-.417 0-.599.484-.88.885-1.115.172-.104.307-.286.458-.359.214-.109.375-.135.552-.234.318-.177.589-.323.839-.526.115-.271.01-.635.021-.901.115-.073.214.031.339.021.193-.042.208-.313.318-.422.063-.062.234-.104.313-.167.193-.151.255-.375.422-.443.063-.021.198-.016.292-.042.125-.031.302-.182.505-.25.135-.047.438-.057.484-.104.062-.068 0-.245.021-.339.104-.474.818-.573 1.245-.734.292-.115.599-.318.922-.255-.062.224-.365.146-.313.422.068.38.578-.109.714-.167.255-.109.698-.177 1.031-.297.297-.109.828-.271.547-.609-.229-.016-.344.271-.547.359-.141.021-.109-.12-.229-.13-.115-.016-.177.104-.297.083-.115-.016-.276-.198-.297-.333-.042-.354.297-.495.443-.76-.094-.318-.531-.062-.797-.187.021-.188.219-.318.438-.354.182-.031.589-.016.698.078.062.057.005.188.104.276.109.099.24.089.38.062.047-.24-.313-.177-.271-.339.281-.182.745-.031 1.094-.083.198-.031.406-.172.589-.271.167-.094.385-.26.563-.104.052.172-.156.229-.25.313-.323.286-.651.615-.901.948.151.151.432.073.693.104.099.016.224.047.333.063.125.021.26.016.359.042.177.047.224.234.396.234.292 0 .292-.313.13-.505.052-.203.13-.302.062-.443-.13-.26-.604-.016-.63-.339-.016-.208.177-.198.25-.354-.031-.406.333-.438.297-.797-.021-.156-.146-.156-.255-.297-.052-.073-.078-.203-.141-.266-.49-.042-.99-.073-1.49-.073m-8.464 3.313c.099.016.214.12.333.125.115.005.208-.057.276-.042.177.047.25.312.083.443-.135.016-.193-.057-.292-.042-.286.047-.396.609-.609.589-.203-.016-.313-.505-.109-.651.016-.13-.089-.151-.083-.276.057-.078.234-.161.401-.146m-.948.062c.057.005.104.021.125.042-.026.224-.203.214-.375.318-.302.177-.474.453-.568.839-.026.115-.323.411-.464.38-.333-.068.089-.682.167-.776.083-.104.198-.198.297-.318.094-.115.156-.271.25-.333.104-.073.391-.156.568-.151m2.49.76c.104 0 .203.016.245.063-.068.276-.667.203-.885.104.016-.104.177-.135.318-.151.094 0 .214-.021.323-.016m-1.359.51c.068 0 .141.016.214.036-.193.161-.401.25-.734.354-.156.052-.432.115-.464-.063-.031-.219.234-.167.38-.188.187-.026.385-.135.604-.141m20.885 1.245c-.021.062-.042.12-.036.177.01.104.12.198.146.339.016.073-.031.229 0 .297.104.193.37.052.557.062-.214-.297-.432-.594-.667-.875m1.078 1.448c-.031.146-.13.333-.208.453-.182.281-.432.297-.698.443-.219.125-.313.333-.443.547-.135.234-.224.375-.167.714-.188.375-.474.604-.859.781-.12.052-.276.068-.38.146-.083.062-.13.224-.25.354-.151.167-.302.234-.38.359-.062.099-.083.292-.151.422-.089.177-.276.266-.396.443-.052.083-.089.25-.151.359-.13.24-.359.417-.333.63.021.203.255.24.271.422.005.099-.068.161-.062.271.005.161.115.276.125.401.031.313-.104.438-.161.651-.031.099-.016.214-.047.292-.052.161-.266.302-.271.484 0 .13.135.24.146.422 0 .125-.062.26-.042.38.047.229.453.495.63.672.24.24.552.422.651.672.089.214.089.49.255.651.12.12.323.193.484.318.146.115.302.214.458.333.26.203.646.599 1.052.568.214-.016.432-.188.672-.229.25-.047.573-.068.823-.042.193.021.391.135.589.125.214-.016.453-.172.693-.276.193-.083.432-.177.693-.245.115-.797.182-1.62.182-2.453 0-3.359-1.01-6.474-2.724-9.07m-27.14 5.51c-.349.021-.578.036-.776.125-.453.208-.365.823-.818.969-.161.052-.375.052-.547.089-.151.026-.333.109-.49.104-.042 0-.099-.031-.156-.052-.042.292-.073.583-.099.875.432.083.656.656 1.042.844.104.052.24.057.375.089.109.021.193.068.297.104.219.073.495.068.672.146.266.12.464.625.693.755.016.141-.026.323.021.422.109.146.266.115.443.214.214.115.281.411.484.505.073.031.245.026.359.057.276.089.37.411.609.339.156-.047.141-.208.167-.354.104-.115.219-.292.38-.297.26-.01.281.271.38.526.052.141.193.266.229.417.068.266.031 1.047-.021 1.203-.068.193-.328.271-.484.484-.078.099-.115.245-.172.318-.104.125-.255.156-.333.271-.042.068-.083.208-.125.292-.13.271-.297.458-.193.781.047.13.255.219.255.375 0 .182-.391.349-.422.547-.021.151.12.417.167.615.036.146.313.234.401.333.146.167.266.401.401.609.266.411.474.911.734 1.307.135.208.328.396.422.609.047.109.042.24.083.339.151.339.813.693 1.156.859.161.078.339.104.484.188.224.125.667.458.776.651.104.177.167.604.214.885.062.37 0 .651.021 1.052.016.219.083.432.083.651 0 .073-.036.13-.042.208 0 .016.005.026.005.042 2.063.932 4.354 1.469 6.776 1.469.438 0 .87-.026 1.297-.057.021-.031.036-.068.062-.099.099-.125.188-.24.25-.354.062-.385-.151-.651-.062-.99.099-.375.625-.609.99-.776.125-.062.255-.156.354-.193.255-.089.573-.042.802-.125.396-.141.438-.568.63-.927.094-.167.214-.339.229-.458.016-.109-.036-.214-.021-.339.021-.13.135-.24.167-.38.047-.182.068-.448.068-.651 0-.167-.078-.313-.083-.464-.026-.542.198-.604.396-.901.104-.146.141-.318.214-.422.339-.505.927-.75.88-1.516-.01-.25-.172-.823-.354-.901-.109-.047-.354-.005-.505-.062-.5-.188-.792-.802-1.307-.844-.109-.016-.208.047-.333.042-.203-.01-.51-.141-.74-.167-.141-.016-.333.042-.417 0-.135-.063-.146-.307-.255-.38-.083-.057-.25-.078-.375-.125-.208-.078-.375-.172-.609-.188-.078-.005-.167.031-.255.021-.13-.021-.234-.177-.359-.255-.151-.094-.292-.135-.354-.271.135-.453-.245-.578-.339-.839-.042-.125-.021-.271-.062-.38-.052-.156-.208-.25-.38-.38-.302-.234-.573-.453-1.01-.505-.188-.026-.38.057-.609.042-.245-.016-.552-.229-.734-.438-.177-.203-.266-.391-.422-.484-.146-.094-.339-.094-.443-.188-.042-.042-.036-.115-.083-.214-.073-.151-.198-.24-.104-.422-.167-.083-.172.161-.359.13-.161-.234-.297-.344-.672-.276-.167.031-.266.245-.464.25-.161.016-.286-.177-.5-.208-.167-.021-.349.042-.464.021-.182-.036-.234-.182-.401-.292-.12-.078-.354-.214-.422-.214-.208.016-.359.453-.651.297-.141-.182.229-.276.063-.443-.13-.13-.234.057-.339.13-.115.078-.224.156-.354.208-.286.104-.469.047-.693.167-.214.109-.219.286-.339.505-.099.177-.318.432-.464.443-.177.016-.344-.245-.505-.313-.479-.208-.714.182-1.115.188-.37.016-.901-.599-.88-.948 0-.214.12-.536.146-.797.021-.214.167-.339.167-.531.005-.255-.339-.448-.505-.479-.391-.073-.938.156-1.385-.021-.089-.146.099-.245.146-.38.031-.083.016-.188.042-.271.052-.135.193-.24.255-.38.047-.109.057-.266.104-.401.052-.151.156-.25.167-.359.016-.141-.036-.302-.146-.396zm5.625 4.453c.141.016.161.307.016.333-.156.026-.24-.245-.083-.318.021-.016.047-.016.068-.01z" fill="#e57452"/></g>

   xmlns:dc="http://purl.org/dc/elements/1.1/"
   xmlns:cc="http://creativecommons.org/ns#"
   xmlns:rdf="http://www.w3.org/1999/02/22-rdf-syntax-ns#"
   xmlns:svg="http://www.w3.org/2000/svg"
   xmlns="http://www.w3.org/2000/svg"
   xmlns:xlink="http://www.w3.org/1999/xlink"
   xmlns:sodipodi="http://sodipodi.sourceforge.net/DTD/sodipodi-0.dtd"
   xmlns:inkscape="http://www.inkscape.org/namespaces/inkscape"
   height="32"
   width="32"
   version="1"
   id="svg8"
   sodipodi:docname="snow-top-2.svg"
   inkscape:version="0.92.1 r"&gt;
  <path d="m24.646 6.111c2.995 2.684 1.381 7.817 3.674 8.291 2.031.613 3.541-1.385 3.66-4.503.35-8.627-3.911-9.427-6.879-9.524-28.342-2.047-1.762 4.92-.455 5.736" fill="url(#0)"/></svg>