<svg xmlns="http://www.w3.org/2000/svg" viewBox="0 0 32 32"><defs><clipPath><circle cx="286" cy="26" r="10" fill="none"/></clipPath><linearGradient gradientTransform="matrix(-2.65552 0 0 2.58531 193.77-277.73)" id="0" x1="67.894" y1="108.69" x2="67.854" y2="113.11" gradientUnits="userSpaceOnUse"><stop stop-color="#f9f9f9"/><stop offset="1" stop-color="#999"/></linearGradient></defs><rect width="28.2" height="28.2" x="1.898" y="1.898" fill="#267eb6" fill-rule="evenodd" rx="5.575"/><path d="m21.21 22.548c1.32-.757 3.323-2.529 3.323-2.939 0-.2-.344-.057-1.019.423-2.346 1.667-3.276 1.777-3.267.387.011-1.717 1.792-4.854 4.387-7.729l1.421-1.573-.397-.679c-.218-.374-.548-.708-.733-.744-.474-.091-4.056 2.977-6.311 5.406-1.043 1.123-1.929 2.01-1.969 1.969-.04-.04.377-.833.926-1.761 2.197-3.71 2.652-5.05 1.922-5.656-.176-.146-.538-.21-.805-.143-.828.208-3.198 2.331-4.884 4.375-.885 1.073-1.635 1.926-1.665 1.896-.031-.03.391-.998.937-2.151.852-1.798.978-2.234.884-3.062-.062-.554-.289-1.145-.531-1.387-.378-.378-.518-.396-1.357-.17-.514.138-1.685.629-2.601 1.09-.916.461-1.734.838-1.816.838-.082 0 .085-.259.371-.575l.52-.575-.644.446c-1.126.78-1.655 1.507-1.847 2.538-.103.551-.135 1.087-.071 1.191.161.261 1.199-.203 3.562-1.594 2.893-1.702 3.329-1.767 3.186-.469-.099.901-2.177 4.355-4.549 7.559l-.669.904.372.974c.205.536.501.974.659.974.158 0 1.117-1.241 2.131-2.757 2.097-3.134 4.894-6.602 5.908-7.324.52-.371.744-.428.934-.238.355.355-.768 2.439-2.992 5.552-.988 1.382-1.857 2.739-1.932 3.02-.154.566.262 2.18.562 2.18.107 0 .99-.99 1.961-2.2 1.927-2.401 6.619-7.243 7.02-7.243.453 0 .265.332-1.285 2.264-2.656 3.31-3.457 5.854-2.23 7.081.683.683 1.269.662 2.588-.095" fill="#fff"/>

   xmlns:dc="http://purl.org/dc/elements/1.1/"
   xmlns:cc="http://creativecommons.org/ns#"
   xmlns:rdf="http://www.w3.org/1999/02/22-rdf-syntax-ns#"
   xmlns:svg="http://www.w3.org/2000/svg"
   xmlns="http://www.w3.org/2000/svg"
   xmlns:xlink="http://www.w3.org/1999/xlink"
   xmlns:sodipodi="http://sodipodi.sourceforge.net/DTD/sodipodi-0.dtd"
   xmlns:inkscape="http://www.inkscape.org/namespaces/inkscape"
   version="1"
   width="32"
   height="32"
   id="svg12"
   sodipodi:docname="snow-top-3.svg"
   inkscape:version="0.92.1 r"&gt;
  <path d="m24.627.009c8.36-.339 9.455 9.523 4.064 9.505-.686.003-1.62-.197-3-1.471-14.665-10.216-14.549 2.967-17.708.875-1.727-1.822-1.743 4.653-4.139 5.127-2.122.613-3.699-1.385-3.824-4.503-.366-8.627 4.086-9.427 7.187-9.524 5.974.133 11.562-.045 17.419-.01" fill="url(#0)"/></svg>