<svg xmlns="http://www.w3.org/2000/svg" viewBox="0 0 32 32"><defs><clipPath><circle cx="286" cy="26" r="10" fill="none"/></clipPath><linearGradient gradientTransform="matrix(2.59244 0 0 2.58531-157.93-277.73)" id="0" x1="67.894" y1="108.69" x2="67.854" y2="113.11" gradientUnits="userSpaceOnUse"><stop stop-color="#f9f9f9"/><stop offset="1" stop-color="#999"/></linearGradient></defs><rect width="28.2" height="28.2" x="1.898" y="1.898" fill="#267eb6" fill-rule="evenodd" rx="5.575"/><path d="m21.21 22.548c1.32-.757 3.323-2.529 3.323-2.939 0-.2-.344-.057-1.019.423-2.346 1.667-3.276 1.777-3.267.387.011-1.717 1.792-4.854 4.387-7.729l1.421-1.573-.397-.679c-.218-.374-.548-.708-.733-.744-.474-.091-4.056 2.977-6.311 5.406-1.043 1.123-1.929 2.01-1.969 1.969-.04-.04.377-.833.926-1.761 2.197-3.71 2.652-5.05 1.922-5.656-.176-.146-.538-.21-.805-.143-.828.208-3.198 2.331-4.884 4.375-.885 1.073-1.635 1.926-1.665 1.896-.031-.03.391-.998.937-2.151.852-1.798.978-2.234.884-3.062-.062-.554-.289-1.145-.531-1.387-.378-.378-.518-.396-1.357-.17-.514.138-1.685.629-2.601 1.09-.916.461-1.734.838-1.816.838-.082 0 .085-.259.371-.575l.52-.575-.644.446c-1.126.78-1.655 1.507-1.847 2.538-.103.551-.135 1.087-.071 1.191.161.261 1.199-.203 3.562-1.594 2.893-1.702 3.329-1.767 3.186-.469-.099.901-2.177 4.355-4.549 7.559l-.669.904.372.974c.205.536.501.974.659.974.158 0 1.117-1.241 2.131-2.757 2.097-3.134 4.894-6.602 5.908-7.324.52-.371.744-.428.934-.238.355.355-.768 2.439-2.992 5.552-.988 1.382-1.857 2.739-1.932 3.02-.154.566.262 2.18.562 2.18.107 0 .99-.99 1.961-2.2 1.927-2.401 6.619-7.243 7.02-7.243.453 0 .265.332-1.285 2.264-2.656 3.31-3.457 5.854-2.23 7.081.683.683 1.269.662 2.588-.095" fill="#fff"/>

   xmlns:dc="http://purl.org/dc/elements/1.1/"
   xmlns:cc="http://creativecommons.org/ns#"
   xmlns:rdf="http://www.w3.org/1999/02/22-rdf-syntax-ns#"
   xmlns:svg="http://www.w3.org/2000/svg"
   xmlns="http://www.w3.org/2000/svg"
   xmlns:xlink="http://www.w3.org/1999/xlink"
   xmlns:sodipodi="http://sodipodi.sourceforge.net/DTD/sodipodi-0.dtd"
   xmlns:inkscape="http://www.inkscape.org/namespaces/inkscape"
   version="1"
   width="32"
   height="32"
   id="svg12"
   sodipodi:docname="snow-top-4.svg"
   inkscape:version="0.92.1 r"&gt;
  <path d="m7.196.009c-8.161-.339-9.231 9.523-3.968 9.505.669.003 1.581-.197 2.929-1.471 3.773-4.147 9.01 4.479 14.696-1.042.61-.911 1.804-1.135 2.455-.627 1.045.677 2.87 2.991 3.88 3 2.359.513 4.095-.198 4.816-3.188.185-3.165-2.303-6.286-6.281-6.17-5.832.133-12.809-.045-18.527-.01" fill="url(#0)"/></svg>