<svg xmlns="http://www.w3.org/2000/svg" xmlns:xlink="http://www.w3.org/1999/xlink" viewBox="0 0 32 32"><defs><clipPath><circle cx="286" cy="26" r="10" fill="none"/></clipPath><linearGradient id="4" x1="-178.12" y1="-134.12" x2="-183.59" y2="-135.1" gradientUnits="userSpaceOnUse"><stop stop-color="#7c0000"/><stop offset="1" stop-color="#7c0000" stop-opacity="0"/></linearGradient><linearGradient id="3" x1="-189.8" y1="-142.57" x2="-175.35" y2="-130.4" gradientUnits="userSpaceOnUse"><stop stop-color="#ff383f"/><stop offset="1" stop-color="#a02d26"/></linearGradient><linearGradient id="2"><stop stop-color="#f9f9f9"/><stop offset="1" stop-color="#999"/></linearGradient><linearGradient xlink:href="#2" id="1" x1="-188.02" y1="-134.18" x2="-190.66" y2="-126.24" gradientUnits="userSpaceOnUse"/><radialGradient xlink:href="#2" id="5" cx="-176.59" cy="-120.91" r="3.01" gradientUnits="userSpaceOnUse" gradientTransform="matrix(2.21087.05719-.05496 2.12455 207.3 145.17)"/></defs><rect width="28.2" height="28.2" x="1.898" y="1.898" fill="#267eb6" fill-rule="evenodd" rx="5.575"/><path d="m21.21 22.548c1.32-.757 3.323-2.529 3.323-2.939 0-.2-.344-.057-1.019.423-2.346 1.667-3.276 1.777-3.267.387.011-1.717 1.792-4.854 4.387-7.729l1.421-1.573-.397-.679c-.218-.374-.548-.708-.733-.744-.474-.091-4.056 2.977-6.311 5.406-1.043 1.123-1.929 2.01-1.969 1.969-.04-.04.377-.833.926-1.761 2.197-3.71 2.652-5.05 1.922-5.656-.176-.146-.538-.21-.805-.143-.828.208-3.198 2.331-4.884 4.375-.885 1.073-1.635 1.926-1.665 1.896-.031-.03.391-.998.937-2.151.852-1.798.978-2.234.884-3.062-.062-.554-.289-1.145-.531-1.387-.378-.378-.518-.396-1.357-.17-.514.138-1.685.629-2.601 1.09-.916.461-1.734.838-1.816.838-.082 0 .085-.259.371-.575l.52-.575-.644.446c-1.126.78-1.655 1.507-1.847 2.538-.103.551-.135 1.087-.071 1.191.161.261 1.199-.203 3.562-1.594 2.893-1.702 3.329-1.767 3.186-.469-.099.901-2.177 4.355-4.549 7.559l-.669.904.372.974c.205.536.501.974.659.974.158 0 1.117-1.241 2.131-2.757 2.097-3.134 4.894-6.602 5.908-7.324.52-.371.744-.428.934-.238.355.355-.768 2.439-2.992 5.552-.988 1.382-1.857 2.739-1.932 3.02-.154.566.262 2.18.562 2.18.107 0 .99-.99 1.961-2.2 1.927-2.401 6.619-7.243 7.02-7.243.453 0 .265.332-1.285 2.264-2.656 3.31-3.457 5.854-2.23 7.081.683.683 1.269.662 2.588-.095" fill="#fff"/><path d="m32 .157l-.27 2.221-.122-2.378" fill="#f9f9f9" id="0"/><use xlink:href="#0"/><path d="m32 .113l-.27 1.6-.122-1.713" fill="#f9f9f9"/><g transform="matrix(-1 0 0 1-172.76 143.72)"><path d="m-190.09-143.27c-5.577-1.531-5.951 3.24-4.58 5.493 4.381 6.983 6.796 6.577 9.398 7.895 1.712 2.064 3.451 3.4 6.469 4.1 11.69 1.559 3.242-8.417.92-8.649-5.065.012-7.547-6.123-12.206-8.838" fill="url(#1)"/><path d="m-190.09-143.27c3.76.276 5.616-.626 8.93-.421 4.319.283 8.307 2.053 7.838 6.574-.347 2.567-.37 2.25.186 4.296.532 1.535-.252 4.232-.487 4.654-2.715 4.963-1.536 4.965-2.656 7.742l-.906-.418-2.508-11.358c-7.177-.909-10.754-10.11-10.398-11.07" fill="url(#3)"/><path d="m-183.3-133.33c.362.274 1.553-5.105 1.172-5.653 1.379 2.44 1.919 4.616 2.435 6.783-1.276-.283-2.289-.554-3.607-1.13" fill="url(#4)"/><circle r="3.01" cy="-120.11" cx="-176.61" fill="url(#5)"/></g></svg>