<svg xmlns="http://www.w3.org/2000/svg" xmlns:xlink="http://www.w3.org/1999/xlink" viewBox="0 0 32 32"><defs><linearGradient id="4" x1="-178.12" y1="-134.12" x2="-183.59" y2="-135.1" gradientUnits="userSpaceOnUse"><stop stop-color="#7c0000"/><stop offset="1" stop-color="#7c0000" stop-opacity="0"/></linearGradient><linearGradient id="3" x1="-189.8" y1="-142.57" x2="-175.35" y2="-130.4" gradientUnits="userSpaceOnUse"><stop stop-color="#ff383f"/><stop offset="1" stop-color="#a02d26"/></linearGradient><linearGradient id="2"><stop stop-color="#f9f9f9"/><stop offset="1" stop-color="#999"/></linearGradient><linearGradient xlink:href="#2" id="1" x1="-188.02" y1="-134.18" x2="-190.66" y2="-126.24" gradientUnits="userSpaceOnUse"/><radialGradient xlink:href="#2" id="5" cx="-176.59" cy="-120.91" r="3.01" gradientUnits="userSpaceOnUse" gradientTransform="matrix(2.21087.05719-.05496 2.12455 207.3 145.17)"/></defs><rect width="28.2" height="28.2" x="1.898" y="1.898" fill="#8e8e8e" fill-rule="evenodd" rx="5.575"/><rect width="20.896" height="15.642" x="5.552" y="8.179" rx="3.363" fill="#474747"/><rect width="19.02" height="13.662" x="6.491" y="9.169" ry="2.445" rx="2.547" fill="#232323"/><path d="m15.916 12.8c-1.034.01-2.074.246-2.975.757-.359.234-.79.536-1.114.84-.511.5-.948 1.084-1.243 1.737.81 1.786 2.59 3.096 4.549 3.289 1.285.145 2.629-.077 3.758-.712.359-.234.79-.536 1.114-.84.511-.501.948-1.085 1.243-1.737-.809-1.786-2.59-3.096-4.548-3.289-.26-.031-.523-.045-.784-.045m0 1.334c1.071-.024 2.02.935 2 2 .034 1.178-1.139 2.194-2.299 1.974-1.172-.138-1.994-1.452-1.609-2.565.246-.819 1.05-1.418 1.909-1.409m-.000427 1.333289a.666538 .666687 0 0 0 -.666538 .667605 .666538 .666687 0 0 0 .666538 .666538 .666538 .666687 0 0 0 .666538 -.666538 .666538 .666687 0 0 0 -.666538 -.665472z" fill="#fff" fill-rule="evenodd" stroke-width="1.333"/><path d="m32 .157l-.27 2.221-.122-2.378" fill="#f9f9f9" id="0"/><use xlink:href="#0"/><path d="m32 .113l-.27 1.6-.122-1.713" fill="#f9f9f9"/><g transform="matrix(-1 0 0 1-172.76 143.72)"><path d="m-190.09-143.27c-5.577-1.531-5.951 3.24-4.58 5.493 4.381 6.983 6.796 6.577 9.398 7.895 1.712 2.064 3.451 3.4 6.469 4.1 11.69 1.559 3.242-8.417.92-8.649-5.065.012-7.547-6.123-12.206-8.838" fill="url(#1)"/><path d="m-190.09-143.27c3.76.276 5.616-.626 8.93-.421 4.319.283 8.307 2.053 7.838 6.574-.347 2.567-.37 2.25.186 4.296.532 1.535-.252 4.232-.487 4.654-2.715 4.963-1.536 4.965-2.656 7.742l-.906-.418-2.508-11.358c-7.177-.909-10.754-10.11-10.398-11.07" fill="url(#3)"/><path d="m-183.3-133.33c.362.274 1.553-5.105 1.172-5.653 1.379 2.44 1.919 4.616 2.435 6.783-1.276-.283-2.289-.554-3.607-1.13" fill="url(#4)"/><circle r="3.01" cy="-120.11" cx="-176.61" fill="url(#5)"/></g></svg>