<svg xmlns="http://www.w3.org/2000/svg" viewBox="0 0 32 32"><defs><linearGradient gradientTransform="matrix(2.59244 0 0 2.58531-157.93-277.73)" id="0" x1="67.894" y1="108.69" x2="67.854" y2="113.11" gradientUnits="userSpaceOnUse"><stop stop-color="#f9f9f9"/><stop offset="1" stop-color="#999"/></linearGradient></defs><rect width="28.2" height="28.2" x="1.898" y="1.898" fill="#ff9959" fill-rule="evenodd" rx="5.575"/><g fill="#4d4d4d"><path d="m29.23 12.06c-.426.34-1.68 2.719-2.934 5.555-.508 1.156-1.227 2.668-1.59 3.363-1.078 2.059-3.711 5.805-4.93 7l-1.137 1.125.848.926c.52.57 1.207 1.754 1.777 3.078 1.082 2.523 1.27 2.887 1.477 2.887.098 0 .652-.313 1.27-.707 1.379-.895 2.668-2.098 4.422-4.145 2.738-3.191 4.793-3.867 7.324-2.402.684.398 1.246.648 1.246.555 0-.098-.348-1.059-.766-2.141-.418-1.082-1.559-4.137-2.527-6.789-.691-1.164-2.949-9.117-4.48-8.297m-5.457 6.527c-.012 0-.027 0-.043.008-2.316 1.039-3.152 1.512-3.836 2.172-.449.441-.816.91-.816 1.047 0 .426 1.824 1.563 2.125 1.324.145-.117.715-.953 1.266-1.863.973-1.621 1.477-2.664 1.305-2.688m-6.484 4.59c-.395 0-5.992 2.168-6.258 2.426-.078.074.004.211.184.313.18.105 1.203.805 2.289 1.559 1.082.754 2.023 1.367 2.09 1.371.066 0 .563-.266 1.094-.594 1.117-.688 3.273-2.816 3.262-3.223-.008-.363-2.156-1.855-2.664-1.855" transform="matrix(.76922 0 0 .75046-2.463-2.01)"/></g>

   xmlns:dc="http://purl.org/dc/elements/1.1/"
   xmlns:cc="http://creativecommons.org/ns#"
   xmlns:rdf="http://www.w3.org/1999/02/22-rdf-syntax-ns#"
   xmlns:svg="http://www.w3.org/2000/svg"
   xmlns="http://www.w3.org/2000/svg"
   xmlns:xlink="http://www.w3.org/1999/xlink"
   xmlns:sodipodi="http://sodipodi.sourceforge.net/DTD/sodipodi-0.dtd"
   xmlns:inkscape="http://www.inkscape.org/namespaces/inkscape"
   version="1"
   width="32"
   height="32"
   id="svg12"
   sodipodi:docname="snow-top-4.svg"
   inkscape:version="0.92.1 r"&gt;
  <path d="m7.196.009c-8.161-.339-9.231 9.523-3.968 9.505.669.003 1.581-.197 2.929-1.471 3.773-4.147 9.01 4.479 14.696-1.042.61-.911 1.804-1.135 2.455-.627 1.045.677 2.87 2.991 3.88 3 2.359.513 4.095-.198 4.816-3.188.185-3.165-2.303-6.286-6.281-6.17-5.832.133-12.809-.045-18.527-.01" fill="url(#0)"/></svg>