<svg xmlns="http://www.w3.org/2000/svg" viewBox="0 0 32 32"><defs><linearGradient gradientTransform="matrix(2.59244 0 0 2.58531-157.93-277.73)" id="0" x1="67.894" y1="108.69" x2="67.854" y2="113.11" gradientUnits="userSpaceOnUse"><stop stop-color="#f9f9f9"/><stop offset="1" stop-color="#999"/></linearGradient></defs><rect width="28.2" height="28.2" x="1.898" y="1.898" fill="#966129" fill-rule="evenodd" rx="5.575"/><g transform="matrix(1.08431 0 0 1.08431 48.03 7.199)" stroke-width=".922"><g stroke-width=".922"><path d="m-36.23617 3.198984a4.582645 4.582645 0 0 0 -4.582645 4.582643 4.582645 4.582645 0 0 0 4.582645 4.582645 4.582645 4.582645 0 0 0 4.582644 -4.582645 4.582645 4.582645 0 0 0 -4.582644 -4.582643" fill="#f8bb88"/><path d="m-36.23617 5.31405a2.467578 2.467578 0 0 0 -2.467577 2.467578 2.467578 2.467578 0 0 0 2.467577 2.467578 2.467578 2.467578 0 0 0 2.467579 -2.467578 2.467578 2.467578 0 0 0 -2.467579 -2.467578" fill="#b3733f"/><path d="m-22.840751 3.198984a4.582645 4.582645 0 0 0 -4.582644 4.582643 4.582645 4.582645 0 0 0 4.582644 4.582645 4.582645 4.582645 0 0 0 4.582645 -4.582645 4.582645 4.582645 0 0 0 -4.582645 -4.582643" fill="#f8bb88"/><path d="m-22.840751 5.31405a2.467578 2.467578 0 0 0 -2.467578 2.467578 2.467578 2.467578 0 0 0 2.467578 2.467578 2.467578 2.467578 0 0 0 2.467578 -2.467578 2.467578 2.467578 0 0 0 -2.467578 -2.467578" fill="#b3733f"/><path d="m-29.538462 1.083916a7.755245 7.755245 0 0 1 .595187 .024948 7.755245 7.755245 0 0 0 -.595187 -.024948m0 0a7.755245 7.755245 0 0 0 -6.818806 4.076315 7.755245 7.755245 0 0 1 6.818806 -4.076315m.967624.070389a7.755245 7.755245 0 0 1 .406295 .055242 7.755245 7.755245 0 0 0 -.406295 -.055242m.719926.125631a7.755245 7.755245 0 0 1 .448172 .10692 7.755245 7.755245 0 0 0 -.448172 -.10692m.720817.197801a7.755245 7.755245 0 0 1 .462429 .161271 7.755245 7.755245 0 0 0 -.462429 -.161271m.686959.261062a7.755245 7.755245 0 0 1 .492722 .228986 7.755245 7.755245 0 0 0 -.492722 -.228986m.637064.311849a7.755245 7.755245 0 0 1 .523907 .310067 7.755245 7.755245 0 0 0 -.523907 -.310067m.655775.404513a7.755245 7.755245 0 0 1 .498067 .367091 7.755245 7.755245 0 0 0 -.498067 -.367091m.587166.445499a7.755245 7.755245 0 0 1 .489158 .441044 7.755245 7.755245 0 0 0 -.489158 -.441044m.558656.515888a7.755245 7.755245 0 0 1 .4553 .502523 7.755245 7.755245 0 0 0 -.4553 -.502523m-9.411609.404513a3.877622 3.877622 0 0 0 -2.960786 1.373028 7.755245 7.755245 0 0 0 -.000916 .000888 7.755245 7.755245 0 0 0 -.915947 3.64416 7.755245 7.755245 0 0 0 7.755244 7.755267 7.755245 7.755245 0 0 0 7.755245 -7.755245 7.755245 7.755245 0 0 0 -.903471 -3.622797 3.877622 3.877622 0 0 0 -.000917 -.00178 3.877622 3.877622 0 0 0 -2.973237 -1.393524 3.877622 3.877622 0 0 0 -3.877623 3.877622 3.877622 3.877622 0 0 0 .01158 .228095h-.02a3.877622 3.877622 0 0 0 .008 -.228095 3.877622 3.877622 0 0 0 -3.877623 -3.877622m10.728565 1.393523a7.755245 7.755245 0 0 0 -.388475 -.654884 7.755245 7.755245 0 0 1 .388475 .654884M-23.50908 3.97164A7.755245 7.755245 0 0 1 -23.08318 4.548116 7.755245 7.755245 0 0 0 -23.50908 3.97164" fill="#f59d56"/><path d="m-29.538462 1.083916a7.755245 7.755245 0 0 0 -6.839299 4.111064 3.877622 3.877622 0 0 1 2.961677 -1.373919 3.877622 3.877622 0 0 1 3.877622 3.877622 3.877622 3.877622 0 0 1 3.877623 -3.877622 3.877622 3.877622 0 0 1 2.97415 1.395303 7.755245 7.755245 0 0 0 -6.851773 -4.132448m0 6.614768a3.877622 3.877622 0 0 1 -.008 .228095h.02a3.877622 3.877622 0 0 1 -.01159 -.228095" fill="#b3733f"/><g fill="#3f3f3f"><circle r="1.41" cy="8.839" cx="-32.359"/><circle cx="-26.718" cy="8.839" r="1.41"/></g></g><path d="m-33.05573 12.357868a.705093 .705093 0 0 0 -.466801 1.246182c0 0 1.751 1.581 3.984 1.581 2.233 0 3.985-1.581 3.985-1.581a.705093 .705093 0 1 0 -.918457 -1.069926c0 0-1.539 1.241-3.067 1.241-1.528 0-3.065-1.241-3.065-1.241a.705093 .705093 0 0 0 -.451655 -.176256" shape-rendering="auto" mix-blend-mode="normal" isolation="auto" color-interpolation-filters="linearRGB" white-space="normal" fill="#3f3f3f" solid-opacity="1" image-rendering="auto" solid-color="#000000" color="#000" color-rendering="auto" vector-effect="none" shape-padding="0" color-interpolation="sRGB"/></g>

   xmlns:dc="http://purl.org/dc/elements/1.1/"
   xmlns:cc="http://creativecommons.org/ns#"
   xmlns:rdf="http://www.w3.org/1999/02/22-rdf-syntax-ns#"
   xmlns:svg="http://www.w3.org/2000/svg"
   xmlns="http://www.w3.org/2000/svg"
   xmlns:xlink="http://www.w3.org/1999/xlink"
   xmlns:sodipodi="http://sodipodi.sourceforge.net/DTD/sodipodi-0.dtd"
   xmlns:inkscape="http://www.inkscape.org/namespaces/inkscape"
   version="1"
   width="32"
   height="32"
   id="svg12"
   sodipodi:docname="snow-top-4.svg"
   inkscape:version="0.92.1 r"&gt;
  <path d="m7.196.009c-8.161-.339-9.231 9.523-3.968 9.505.669.003 1.581-.197 2.929-1.471 3.773-4.147 9.01 4.479 14.696-1.042.61-.911 1.804-1.135 2.455-.627 1.045.677 2.87 2.991 3.88 3 2.359.513 4.095-.198 4.816-3.188.185-3.165-2.303-6.286-6.281-6.17-5.832.133-12.809-.045-18.527-.01" fill="url(#0)"/></svg>