<svg xmlns="http://www.w3.org/2000/svg" viewBox="0 0 32 32"><defs><linearGradient gradientTransform="matrix(2.54182 0 0 2.58531-153.47-277.37)" id="0" x1="67.894" y1="108.69" x2="67.854" y2="113.11" gradientUnits="userSpaceOnUse"><stop stop-color="#f9f9f9"/><stop offset="1" stop-color="#999"/></linearGradient></defs><rect width="28.2" height="28.2" x="1.898" y="1.898" fill="#8e8e8e" fill-rule="evenodd" rx="5.575"/><path d="m7.229 27.16h17.542v-7.974h-17.542" fill="#b7b7b7"/><g fill="#666" stroke-width="1.254" transform="scale(1-1)"><path d="m9.621-25.568h3.189v2.392h-3.189z"/><path d="m19.19-25.568h3.189v2.392h-3.189z"/></g><path d="M16 4.836879A11.163121 11.163121 0 0 0 4.836879 16 11.163121 11.163121 0 0 0 5.927028 20.784194H26.07A11.163121 11.163121 0 0 0 27.16312 16 11.163121 11.163121 0 0 0 16 4.836879" fill="#5161a2"/><g fill="#fff"><path d="m18.791 7.229c-1.982 0-3.588 1.606-3.588 3.588v1.993h-1.993c-1.982 0-3.588 1.606-3.588 3.588 0 1.982 1.606 3.588 3.588 3.588 1.982 0 3.588-1.606 3.588-3.588v-1.993h1.993c1.982 0 3.588-1.606 3.588-3.588 0-1.982-1.606-3.588-3.588-3.588m0 1.595c1.101 0 1.993.892 1.993 1.993 0 1.101-.892 1.993-1.993 1.993h-1.587c-.185 0-.406 0-.406-.438v-1.556c0-1.101.892-1.993 1.993-1.993m-5.582 5.582h1.587c.185 0 .406 0 .406.438v1.556c0 1.101-.892 1.993-1.993 1.993-1.101 0-1.993-.892-1.993-1.993 0-1.101.892-1.993 1.993-1.993" fill-opacity=".454" stroke-width="1.254"/><path d="m18.791 7.229c-1.982 0-3.588 1.606-3.588 3.588v1.993h-1.993a.797366 .797366 0 0 0 -.07943 .0039c-.001 0-.001 0-.002 0a.797366 .797366 0 0 0 -.716345 .793459 .797366 .797366 0 0 0 .797366 .797365h1.587c.185 0 .406 0 .406.438v1.556c0 1.101-.892 1.993-1.993 1.993-.306 0-.593-.074-.852-.198-.108-.052-.225-.081-.344-.081-.44 0-.797.357-.797.797 0 .301.171.577.44.712 0 .003 0 .005 0 .007.471.227.996.357 1.553.357 1.982 0 3.588-1.606 3.588-3.588v-1.993h1.595a.797366 .797366 0 0 0 .797366 -.797365 .797366 .797366 0 0 0 -.797366 -.797366h-1.188c-.185 0-.406 0-.406-.438v-1.556c0-1.101.892-1.993 1.993-1.993.201 0 .391.039.574.094 0-.002-.001-.005-.001-.007.073.022.148.033.224.033.44 0 .797-.357.797-.797 0-.075-.011-.149-.031-.22 0-.012.003-.023.003-.036-.006-.01-.019-.021-.026-.032-.099-.256-.323-.442-.592-.494-.006-.003-.011-.006-.017-.009-.297-.08-.609-.126-.931-.126"/></g>

   xmlns:dc="http://purl.org/dc/elements/1.1/"
   xmlns:cc="http://creativecommons.org/ns#"
   xmlns:rdf="http://www.w3.org/1999/02/22-rdf-syntax-ns#"
   xmlns:svg="http://www.w3.org/2000/svg"
   xmlns="http://www.w3.org/2000/svg"
   xmlns:xlink="http://www.w3.org/1999/xlink"
   xmlns:sodipodi="http://sodipodi.sourceforge.net/DTD/sodipodi-0.dtd"
   xmlns:inkscape="http://www.inkscape.org/namespaces/inkscape"
   height="32"
   width="32"
   version="1"
   id="svg8"
   sodipodi:docname="snow-top-2.svg"
   inkscape:version="0.92.1 r"&gt;
  <path d="m24.646 6.111c2.995 2.684 1.381 7.817 3.674 8.291 2.031.613 3.541-1.385 3.66-4.503.35-8.627-3.911-9.427-6.879-9.524-28.342-2.047-1.762 4.92-.455 5.736" fill="url(#0)"/></svg>