<svg xmlns="http://www.w3.org/2000/svg" viewBox="0 0 32 32"><defs><linearGradient gradientTransform="matrix(2.62891 0 0 2.71269-160.16-291.42)" id="0" x1="67.894" y1="108.69" x2="67.854" y2="113.11" gradientUnits="userSpaceOnUse"><stop stop-color="#f9f9f9"/><stop offset="1" stop-color="#999"/></linearGradient></defs><rect width="28.2" height="28.2" x="1.898" y="1.898" fill="#fbba22" fill-rule="evenodd" rx="5.575"/><path d="m11.843015 5.109998a6.424431 9.447588 0 0 0 -6.42443 9.447588 6.424431 9.447588 0 0 0 6.42443 9.447589 6.424431 9.447588 0 0 0 4.152557 -2.25266 6.424431 9.447588 0 0 0 4.161412 2.25266 6.424431 9.447588 0 0 0 6.424431 -9.447589 6.424431 9.447588 0 0 0 -6.424431 -9.447588 6.424431 9.447588 0 0 0 -4.152556 2.252659 6.424431 9.447588 0 0 0 -4.161413 -2.252659" fill="#fff"/><path d="m7.308 24.383c0 0 3.932-.756 8.692-.756 4.76 0 8.692.756 8.692.756" fill="none" stroke="#ea8504" stroke-linejoin="round" stroke-linecap="round" stroke-width="5"/><path d="m11.794 8.133c-.466 0-1.264.279-1.999 1.413-.735 1.133-1.326 2.995-1.326 5.109 0 2.114.59 3.976 1.326 5.109.343.529.759 1.146 1.092 1.475 1.061-.103 2.285-.188 3.6-.229v-9.731c-.222-.676-.546-1.269-.847-1.733-.735-1.133-1.38-1.413-1.847-1.413m8.462 0c-.466 0-1.111.279-1.847 1.413-.301.464-.675 1.057-.898 1.733v9.731c1.334.041 2.572.128 3.643.233.334-.327.753-.947 1.098-1.479.735-1.133 1.327-2.995 1.327-5.109 0-2.114-.592-3.976-1.327-5.109-.735-1.133-1.531-1.413-1.997-1.413" fill="#fbba22"/>

   xmlns:dc="http://purl.org/dc/elements/1.1/"
   xmlns:cc="http://creativecommons.org/ns#"
   xmlns:rdf="http://www.w3.org/1999/02/22-rdf-syntax-ns#"
   xmlns:svg="http://www.w3.org/2000/svg"
   xmlns="http://www.w3.org/2000/svg"
   xmlns:xlink="http://www.w3.org/1999/xlink"
   xmlns:sodipodi="http://sodipodi.sourceforge.net/DTD/sodipodi-0.dtd"
   xmlns:inkscape="http://www.inkscape.org/namespaces/inkscape"
   version="1"
   width="32"
   height="32"
   id="svg12"
   sodipodi:docname="snow-top-1.svg"
   inkscape:version="0.92.1 r"&gt;
  <path d="m7.288.009c-8.276-.356-9.36 9.992-4.02 9.973.679.003 1.604-.207 2.97-1.543 7.256-10.531 14.706 3.573 17.53.919 1.71-1.912 3.496-.418 4.448.115 2.1.643 3.662.041 3.785-3.231.188-3.321-1.889-6.344-5.923-6.223-5.914.14-12.989-.047-18.787-.01" fill="url(#0)"/><path fill="#f00" fill-opacity="0" d="m0 0h32v32h-32z"/></svg>