<svg xmlns="http://www.w3.org/2000/svg" xmlns:xlink="http://www.w3.org/1999/xlink" viewBox="0 0 32 32"><defs><linearGradient xlink:href="#3" id="4" gradientUnits="userSpaceOnUse" x1="27.558" y1="-133.46" x2="22.09" y2="-134.43"/><linearGradient xlink:href="#3" id="2" gradientUnits="userSpaceOnUse" x1="15.879" y1="-141.91" x2="30.32" y2="-129.74"/><linearGradient id="3"><stop stop-color="#55c03f"/><stop offset="1" stop-color="#198b26"/></linearGradient><linearGradient id="1"><stop stop-color="#f9f9f9"/><stop offset="1" stop-color="#999"/></linearGradient><linearGradient xlink:href="#1" id="0" gradientUnits="userSpaceOnUse" x1="17.658" y1="-133.51" x2="15.02" y2="-125.58"/><radialGradient xlink:href="#1" id="5" cx="-176.59" cy="-120.91" r="3.01" gradientUnits="userSpaceOnUse" gradientTransform="matrix(2.21087.05719-.05496 2.12455 412.97 145.84)"/></defs><g fill-rule="evenodd"><rect width="28.2" height="28.2" x="1.898" y="1.898" fill="#e45f0a" rx="5.575"/><g fill="#94c3e4"><path d="m29.979 6.857c-.318-2.782-2.581-4.959-5.451-4.959h-13.205c-.727.595-1.443 1.213-2.057 1.938-.759.895-1.419 1.876-1.951 2.914-.532 1.038-.937 2.134-1.184 3.256-.247 1.122-.336 2.272-.238 3.418.092 1.073.388 2.173.852 3.205.463 1.032 1.094 1.997 1.854 2.805.76.808 1.64 1.457 2.611 1.871.972.414 2.035.594 3.164.471.66-.072 1.269-.252 1.805-.527.536-.275 1-.645 1.369-1.094.369-.449.644-.977.803-1.57.159-.593.202-1.251.109-1.959-.003-.007.003-.021 0-.027-.072-.194-.206-.328-.391-.441-.202-.124-.482-.195-.779-.234-.123-.016-.24-.024-.365-.025l-.156.545c-.167.633-.688 1.277-1.457 1.693-.385.208-.843.35-1.336.379-.493.028-1.021-.057-1.551-.303l-.027-.025c-.649-.373-1.244-.953-1.734-1.67-.49-.717-.874-1.573-1.102-2.494-.227-.92-.288-1.908-.115-2.889.173-.98.578-1.951 1.285-2.834.665-.831 1.374-1.541 2.115-2.139.741-.598 1.513-1.084 2.309-1.469.795-.384 1.612-.666 2.439-.855.828-.189 1.666-.285 2.504-.297 1.675-.025 3.35.27 4.955.805 1.605.534 3.141 1.306 4.541 2.238.132.088.256.184.385.275"/><path d="m2.029 25.17c.333 2.766 2.584 4.928 5.443 4.928h13.221c.723-.594 1.435-1.213 2.047-1.936.757-.894 1.416-1.872 1.947-2.908.531-1.036.935-2.129 1.182-3.248.247-1.119.336-2.265.238-3.408-.092-1.073-.388-2.171-.852-3.203-.464-1.032-1.094-1.998-1.854-2.807-.76-.808-1.64-1.46-2.611-1.881-.972-.421-2.035-.61-3.164-.486-.665.073-1.277.258-1.813.533-.536.276-.997.643-1.363 1.08-.361.431-.632.933-.791 1.502-.159.569-.207 1.207-.119 1.906.137.456.576.701 1.17.807.116.021.246.044.365.051l.156-.52c.167-.633.688-1.275 1.457-1.691.385-.208.843-.35 1.336-.379.493-.029 1.023.055 1.553.301h.025c.649.373 1.244.96 1.734 1.684.49.724.874 1.585 1.102 2.506.228.921.288 1.91.115 2.891-.173.98-.578 1.951-1.285 2.834-.665.831-1.374 1.54-2.115 2.139-.741.598-1.513 1.084-2.309 1.469-.795.384-1.612.666-2.439.855-.828.189-1.666.287-2.504.299-1.675.025-3.35-.27-4.955-.805-1.605-.534-3.141-1.308-4.541-2.24-.13-.087-.251-.182-.377-.271"/></g><path d="m2.029 25.17c.126.09.247.185.377.271 1.4.932 2.936 1.706 4.541 2.24 1.605.534 3.28.829 4.955.805.838-.012 1.676-.11 2.504-.299.828-.189 1.644-.471 2.439-.855.795-.384 1.568-.87 2.309-1.469.741-.598 1.45-1.308 2.115-2.139.707-.883 1.112-1.854 1.285-2.834.173-.98.112-1.97-.115-2.891-.228-.921-.612-1.782-1.102-2.506-.49-.724-1.085-1.311-1.734-1.684h-.025c-.53-.245-1.059-.33-1.553-.301-.493.029-.951.171-1.336.379-.769.417-1.29 1.059-1.457 1.691l-.156.52c-.12-.007-.249-.03-.365-.051-.594-.105-1.033-.351-1.17-.807-.088-.7-.04-1.337.119-1.906.159-.569.43-1.071.791-1.502.366-.437.827-.804 1.363-1.08.536-.276 1.147-.461 1.813-.533 1.129-.123 2.193.066 3.164.486.972.421 1.851 1.073 2.611 1.881.76.808 1.39 1.775 1.854 2.807.464 1.032.76 2.13.852 3.203.098 1.143.008 2.289-.238 3.408-.247 1.119-.65 2.212-1.182 3.248-.531 1.036-1.191 2.01-1.947 2.908-.611.722-1.324 1.341-2.047 1.936h3.834c3.089 0 5.574-2.486 5.574-5.574v-17.05c0-.218-.099-.403-.123-.615-.129-.091-.252-.187-.385-.275-1.4-.932-2.936-1.704-4.541-2.238-1.605-.534-3.28-.829-4.955-.805-.838.012-1.676.108-2.504.297-.828.189-1.644.471-2.439.855-.795.384-1.568.871-2.309 1.469-.741.598-1.45 1.308-2.115 2.139-.707.883-1.112 1.854-1.285 2.834-.173.98-.112 1.968.115 2.889.228.921.612 1.777 1.102 2.494.49.717 1.085 1.297 1.734 1.67l.027.025c.53.245 1.057.331 1.551.303.493-.028.951-.171 1.336-.379.769-.417 1.29-1.061 1.457-1.693l.156-.545c.125.002.243.009.365.025.297.039.578.11.779.234.184.113.319.247.391.441.003.007-.003.021 0 .027.093.708.05 1.366-.109 1.959-.159.593-.434 1.122-.803 1.57-.369.449-.833.819-1.369 1.094-.536.275-1.144.455-1.805.527-1.129.124-2.193-.057-3.164-.471-.972-.414-1.851-1.063-2.611-1.871-.76-.808-1.39-1.773-1.854-2.805-.463-1.032-.76-2.132-.852-3.205-.098-1.146-.009-2.296.238-3.418.247-1.122.651-2.217 1.184-3.256.532-1.038 1.193-2.02 1.951-2.914.614-.724 1.33-1.343 2.057-1.938h-3.85c-3.089 0-5.574 2.486-5.574 5.574v17.05c0 .23.104.424.131.646" fill="#e45f0a"/></g><g transform="translate(-.916 143.06)"><path d="m15.583-142.61c-5.577-1.531-5.951 3.24-4.58 5.493 4.381 6.983 6.796 6.577 9.398 7.895 1.712 2.064 3.451 3.4 6.469 4.1 11.69 1.559 3.242-8.417.92-8.649-5.065.012-7.547-6.123-12.206-8.838" fill="url(#0)"/><path d="m15.583-142.61c3.76.276 5.616-.626 8.93-.421 4.319.283 8.307 2.053 7.838 6.574-.347 2.567-.37 2.25.186 4.296.532 1.535-.252 4.232-.487 4.654-2.715 4.963-1.536 4.965-2.656 7.742l-.906-.418-2.508-11.358c-7.177-.909-10.754-10.11-10.398-11.07" fill="url(#2)"/><path d="m22.374-132.67c.362.274 1.553-5.105 1.172-5.653 1.379 2.44 1.919 4.616 2.435 6.783-1.276-.283-2.289-.554-3.607-1.13" fill="url(#4)"/><circle r="3.01" cy="-119.45" cx="29.06" fill="url(#5)"/></g></svg>