<svg xmlns="http://www.w3.org/2000/svg" enable-background="new -2.01 0.002 57.02 57.02" viewBox="-2.01 0.002 32 32" xmlns:xlink="http://www.w3.org/1999/xlink"><defs><linearGradient gradientTransform="matrix(-2.54182 0 0 2.58531 185.47-277.37)" id="1" x1="67.894" y1="108.69" x2="67.854" y2="113.11" gradientUnits="userSpaceOnUse"><stop stop-color="#f9f9f9"/><stop offset="1" stop-color="#999"/></linearGradient></defs><rect width="28.2" height="28.2" x="-.112" y="1.9" fill="#5f81d4" fill-rule="evenodd" rx="5.575"/><g transform="translate(44.08-.671)"><g fill="#fff"><circle cy="16.673" r="6.485" cx="-26.04"/><circle cy="12.215" r="6.891" cx="-33.742"/><circle cy="21.13" r="6.891" cx="-33.742"/></g><g fill="#dce8e0"><circle cy="16.673" r="4.053" cx="-36.579"/><circle cy="20.727" r="4.053" cx="-29.28"/><circle cy="12.62" r="4.053" cx="-29.28"/></g><path d="m-36.31 8.612c.279-.137.547.082.547.082l6.395 3.728 6.183 3.608c0 0 .392.188.392.638 0 .451-.395.598-.395.598l-6.194 3.608-6.539 3.809c0 0-.191.167-.437.06-.281-.123-.208-.436-.208-.436v-7.659-7.536c0 0-.031-.359.256-.501" fill="#ffbf00"/></g>

   xmlns:dc="http://purl.org/dc/elements/1.1/"
   xmlns:cc="http://creativecommons.org/ns#"
   xmlns:rdf="http://www.w3.org/1999/02/22-rdf-syntax-ns#"
   xmlns:svg="http://www.w3.org/2000/svg"
   xmlns="http://www.w3.org/2000/svg"
   xmlns:xlink="http://www.w3.org/1999/xlink"
   xmlns:sodipodi="http://sodipodi.sourceforge.net/DTD/sodipodi-0.dtd"
   xmlns:inkscape="http://www.inkscape.org/namespaces/inkscape"
   height="32"
   width="32"
   version="1"
   id="svg8"
   sodipodi:docname="snow-top-3.svg"
   inkscape:version="0.92.1 r"&gt;
  <path fill="#00000f" fill-opacity="0" d="m0 0h32v32h-32z" id="0"/><path d="m7.354 6.111c-2.995 2.684-1.381 7.817-3.674 8.291-2.031.613-3.541-1.385-3.66-4.503-.35-8.627 3.911-9.427 6.879-9.524 28.342-2.047 1.762 4.92.455 5.736" fill="url(#1)"/><use xlink:href="#0"/></svg>