<svg xmlns="http://www.w3.org/2000/svg" viewBox="0 0 32 32"><defs><linearGradient gradientTransform="matrix(2.59244 0 0 2.58531-157.93-277.73)" id="0" x1="67.894" y1="108.69" x2="67.854" y2="113.11" gradientUnits="userSpaceOnUse"><stop stop-color="#f9f9f9"/><stop offset="1" stop-color="#999"/></linearGradient></defs><rect width="28.2" height="28.2" x="1.898" y="1.898" fill="#be212e" fill-rule="evenodd" rx="5.575"/><path d="m10.348 8.502c-.871.028-1.712.43-2.356 1.039-.655.619-1.124 1.47-1.219 2.385-.048.457-.001.925.145 1.359.146.434.393.834.721 1.143.387.364.87.594 1.314.879.222.142.435.301.619.494.184.192.338.421.422.678.075.228.092.474.059.712-.034.239-.119.47-.242.674-.248.408-.647.705-1.086.864-.508.184-1.068.193-1.559.425-.388.184-.715.504-.918.893-.203.389-.284.847-.234 1.287.058.517.297 1.01.654 1.373.357.365.829.603 1.324.682.726.115 1.502-.126 2.029-.657.264-.265.464-.597.577-.961.112-.363.135-.756.062-1.13-.056-.286-.164-.557-.265-.829-.102-.271-.199-.549-.223-.839-.043-.513.145-1.034.473-1.42.327-.386.786-.64 1.269-.752.312-.073.636-.09.951-.033.315.056.62.185.875.384.255.2.459.471.572.782.114.31.134.66.043.978-.092.326-.29.607-.492.875-.201.268-.413.537-.533.854-.132.349-.145.742-.055 1.105.091.363.281.695.532.965.277.299.628.522 1.01.644.382.123.771.145 1.17.145.399 0 .816-.022 1.198-.145.381-.122.732-.345 1.01-.644.251-.27.441-.602.532-.965.09-.363.077-.756-.055-1.105-.12-.317-.332-.586-.533-.854-.202-.268-.4-.549-.492-.875-.091-.318-.071-.668.043-.978.113-.311.317-.582.572-.782.255-.199.56-.328.875-.384.315-.057.639-.04.951.033.483.112.942.366 1.269.752.328.386.516.907.473 1.42-.024.29-.121.568-.223.839-.101.272-.209.543-.265.829-.073.374-.05.767.062 1.13.113.364.313.696.577.961.527.531 1.303.772 2.029.657.495-.079.967-.317 1.324-.682.357-.365.596-.856.654-1.373.05-.44-.031-.898-.234-1.287-.204-.389-.53-.709-.918-.893-.49-.232-1.05-.241-1.559-.425-.438-.159-.838-.456-1.086-.864-.123-.204-.208-.435-.242-.674-.033-.238-.016-.484.059-.712.084-.257.238-.486.422-.678.184-.193.397-.352.619-.494.444-.285.928-.515 1.314-.879.328-.309.575-.709.721-1.143.146-.434.192-.902.145-1.359-.095-.915-.565-1.766-1.219-2.385-.644-.609-1.485-1.011-2.356-1.039-.435-.014-.872.064-1.273.24-.401.176-.766.45-1.043.799-.318.4-.518.885-.701 1.367-.183.483-.356.977-.633 1.408-.457.712-1.179 1.387-2 1.387-.823 0-1.545-.675-2-1.387-.277-.431-.45-.925-.633-1.408-.183-.482-.383-.967-.701-1.367-.277-.349-.642-.623-1.043-.799-.401-.176-.838-.254-1.273-.24m5.652 5.997999a1 1 0 0 1 1 1 1 1 0 0 1 -1 1 1 1 0 0 1 -1 -1 1 1 0 0 1 1 -1" fill="#fff"/>

   xmlns:dc="http://purl.org/dc/elements/1.1/"
   xmlns:cc="http://creativecommons.org/ns#"
   xmlns:rdf="http://www.w3.org/1999/02/22-rdf-syntax-ns#"
   xmlns:svg="http://www.w3.org/2000/svg"
   xmlns="http://www.w3.org/2000/svg"
   xmlns:xlink="http://www.w3.org/1999/xlink"
   xmlns:sodipodi="http://sodipodi.sourceforge.net/DTD/sodipodi-0.dtd"
   xmlns:inkscape="http://www.inkscape.org/namespaces/inkscape"
   version="1"
   width="32"
   height="32"
   id="svg12"
   sodipodi:docname="snow-top-4.svg"
   inkscape:version="0.92.1 r"&gt;
  <path d="m7.196.009c-8.161-.339-9.231 9.523-3.968 9.505.669.003 1.581-.197 2.929-1.471 3.773-4.147 9.01 4.479 14.696-1.042.61-.911 1.804-1.135 2.455-.627 1.045.677 2.87 2.991 3.88 3 2.359.513 4.095-.198 4.816-3.188.185-3.165-2.303-6.286-6.281-6.17-5.832.133-12.809-.045-18.527-.01" fill="url(#0)"/></svg>