<svg xmlns="http://www.w3.org/2000/svg" viewBox="0 0 32 32"><rect width="28.2" height="28.2" x="1.898" y="1.898" fill="#4ba9c0" fill-rule="evenodd" rx="5.575"/><path fill="#fff" d="m15.09 22.967c-.611-.056-1.829-.279-2.355-.429-1.124-.323-2.119-.647-2.935-1.346-.162-.139-.359-.25-.442-.25-.083 0-.865.241-1.739.536-.874.295-1.631.536-1.684.536-.167 0-.288-.406-.49-1.037-.222-.691-.237-.819-.108-.925.049-.041.671-.266 1.382-.501.711-.235 1.302-.456 1.314-.492.025-.075-.975-.148-2.034-.148-.661 0-.701-.008-.859-.163-.153-.151-.162-.192-.125-.546.022-.21.04-.532.04-.716 0-.542.004-.544 1.422-.52l.913.02.079-.539c.092-.625.299-1.203.618-1.722.169-.276.218-.417.197-.568-.301-2.142-.344-2.967-.189-4.55.126-1.28.324-1.608.972-1.608.678 0 2.175.785 4.02 2.582l.931.607.611-.068c.769-.085 1.768-.085 2.74-.001l.754.066 1.061-.701c1.616-1.067 2.189-1.745 2.821-2.121.449-.267.584-.317.921-.338.37-.023.407-.013.587.165.369.366.527 1.141.529 2.752.001.969-.022 1.056-.196 2.581l-.08.703.275.418c.347.528.446 1.146.665 1.804l.079.536.847-.022c.842-.017 1.071-.004 1.169.07.102.077.13.212.172.835.03.437.026.788-.008.852-.068.126-.375.187-.955.188-.228.001-.538.019-.934.042-1.636.049-1.593.049.326.632.669.203 1.251.443 1.305.495.087.086.086.139-.011.505-.156.588-.381 1.313-.512 1.393-.09.055-.427-.037-1.656-.452-.849-.287-1.598-.521-1.666-.521-.067.001-.383-.003-.701.237-1.225.924-2.773 1.507-4.53 1.707-.537.061-1.983.073-2.546.021"/><g fill="#303030"><circle r="1.5" cx="11.5" cy="16.5"/><circle r="1.5" cx="20.5" cy="16.5"/></g>

   xmlns:dc="http://purl.org/dc/elements/1.1/"
   xmlns:cc="http://creativecommons.org/ns#"
   xmlns:rdf="http://www.w3.org/1999/02/22-rdf-syntax-ns#"
   xmlns:svg="http://www.w3.org/2000/svg"
   xmlns="http://www.w3.org/2000/svg"
   xmlns:sodipodi="http://sodipodi.sourceforge.net/DTD/sodipodi-0.dtd"
   xmlns:inkscape="http://www.inkscape.org/namespaces/inkscape"
   height="32"
   width="32"
   version="1"
   id="svg8"
   sodipodi:docname="star-mime-2.svg"
   inkscape:version="0.92.1 r"&gt;
  <g transform="translate(152.47 194.05)" fill="#fff"><path d="m-125.38-193.25l-.077 3.548 3.072 1.831-3.548-.077-3.135 6.791 1.38-7.268-3.072-1.831 3.548.077z"/><path d="m-125.41-183.04l.042-1.955-1.692-1.01 1.955.042 1.727-3.741-.76 4 1.692 1.01-1.955-.042z"/></g></svg>