<svg xmlns="http://www.w3.org/2000/svg" viewBox="0 0 32 32"><defs><linearGradient gradientTransform="matrix(2.62891 0 0 2.71269-160.16-291.42)" id="0" x1="67.894" y1="108.69" x2="67.854" y2="113.11" gradientUnits="userSpaceOnUse"><stop stop-color="#f9f9f9"/><stop offset="1" stop-color="#999"/></linearGradient></defs><rect width="28.2" height="28.2" x="1.898" y="1.898" fill="#800000" fill-rule="evenodd" rx="5.575"/><path d="m14.05 6.459c-.202.022-.381.187-.418.387l-.402 2.043c-.723.283-1.402.671-1.998 1.148l-1.982-.672c-.206-.071-.456.021-.566.209l-1.908 3.311c-.107.19-.062.453.104.596l1.582 1.387c-.056.372-.09.746-.09 1.133 0 .387.034.761.09 1.133l-1.582 1.387c-.166.143-.211.407-.104.598l1.908 3.309c.111.188.36.28.566.209l1.982-.672c.596.477 1.275.866 1.998 1.148l.402 2.043c.041.214.245.384.463.387h3.816c.218-.003.422-.173.463-.387l.402-2.043c.723-.283 1.402-.671 1.998-1.148l1.982.672c.206.071.456-.021.566-.209l1.908-3.309c.107-.19.062-.455-.104-.598l-1.582-1.387c.056-.372.09-.745.09-1.133 0-.387-.034-.761-.09-1.133l1.582-1.387c.166-.143.211-.405.104-.596l-1.908-3.311c-.111-.188-.36-.28-.566-.209l-1.982.672c-.596-.477-1.276-.866-1.998-1.148l-.402-2.043c-.041-.214-.245-.384-.463-.387h-3.816c-.015 0-.03 0-.045 0m1.953 5.451c2.258 0 4.09 1.831 4.09 4.09 0 2.258-1.831 4.09-4.09 4.09-2.258 0-4.09-1.831-4.09-4.09 0-2.258 1.831-4.09 4.09-4.09" fill="#fff" stroke-width=".682"/>

   xmlns:dc="http://purl.org/dc/elements/1.1/"
   xmlns:cc="http://creativecommons.org/ns#"
   xmlns:rdf="http://www.w3.org/1999/02/22-rdf-syntax-ns#"
   xmlns:svg="http://www.w3.org/2000/svg"
   xmlns="http://www.w3.org/2000/svg"
   xmlns:xlink="http://www.w3.org/1999/xlink"
   xmlns:sodipodi="http://sodipodi.sourceforge.net/DTD/sodipodi-0.dtd"
   xmlns:inkscape="http://www.inkscape.org/namespaces/inkscape"
   version="1"
   width="32"
   height="32"
   id="svg12"
   sodipodi:docname="snow-top-1.svg"
   inkscape:version="0.92.1 r"&gt;
  <path d="m7.288.009c-8.276-.356-9.36 9.992-4.02 9.973.679.003 1.604-.207 2.97-1.543 7.256-10.531 14.706 3.573 17.53.919 1.71-1.912 3.496-.418 4.448.115 2.1.643 3.662.041 3.785-3.231.188-3.321-1.889-6.344-5.923-6.223-5.914.14-12.989-.047-18.787-.01" fill="url(#0)"/><path fill="#f00" fill-opacity="0" d="m0 0h32v32h-32z"/></svg>