<svg xmlns="http://www.w3.org/2000/svg" viewBox="0 0 32 32" xmlns:xlink="http://www.w3.org/1999/xlink"><defs><linearGradient xlink:href="#3" id="4" gradientUnits="userSpaceOnUse" x1="27.558" y1="-133.46" x2="22.09" y2="-134.43"/><linearGradient xlink:href="#3" id="2" gradientUnits="userSpaceOnUse" x1="15.879" y1="-141.91" x2="30.32" y2="-129.74"/><linearGradient id="3"><stop stop-color="#55c03f"/><stop offset="1" stop-color="#198b26"/></linearGradient><linearGradient id="1"><stop stop-color="#f9f9f9"/><stop offset="1" stop-color="#999"/></linearGradient><linearGradient xlink:href="#1" id="0" gradientUnits="userSpaceOnUse" x1="17.658" y1="-133.51" x2="15.02" y2="-125.58"/><radialGradient xlink:href="#1" id="5" cx="-176.59" cy="-120.91" r="3.01" gradientUnits="userSpaceOnUse" gradientTransform="matrix(2.21087.05719-.05496 2.12455 412.97 145.84)"/></defs><g fill-rule="evenodd"><g fill="#8e8e8e"><rect width="28.2" height="28.2" x="1.898" y="1.898" rx="5.575"/><path d="m29.676 26.641c.267-.652.426-1.363.426-2.113v-17.05c0-3.089-2.486-5.574-5.574-5.574h-2.297c.137.073.318.076.424.195.232.263.39.621.496 1l6.525 23.543"/><path d="m9.77 1.898h-2.297c-3.089 0-5.574 2.486-5.574 5.574v17.05c0 .751.159 1.461.426 2.113l6.525-23.543c.106-.383.264-.741.496-1 .105-.119.287-.122.424-.195"/></g><path d="m13.07 1.898h-3.299c-.137.073-.318.076-.424.195-.232.263-.39.621-.496 1l-6.525 23.543c.831 2.032 2.81 3.461 5.148 3.461h17.05c2.338 0 4.318-1.429 5.148-3.461l-6.525-23.543c-.106-.383-.264-.741-.496-1-.105-.119-.287-.122-.424-.195h-3.299l-2.932 4.887-2.932-4.887" fill="#3cb2d4"/><path d="m13.07 1.898l2.932 4.887 2.932-4.887h-5.863" fill="#fff"/></g><circle cy="24.19" cx="16" r="4.096" fill="#fff"/><rect ry="1.67" rx="1.478" transform="matrix(.86603.5-.5.86603 0 0)" height="21.503" width="3.072" y="-7.04" x="24.379" fill="#febe43"/><g transform="translate(-.916 143.06)"><path d="m15.583-142.61c-5.577-1.531-5.951 3.24-4.58 5.493 4.381 6.983 6.796 6.577 9.398 7.895 1.712 2.064 3.451 3.4 6.469 4.1 11.69 1.559 3.242-8.417.92-8.649-5.065.012-7.547-6.123-12.206-8.838" fill="url(#0)"/><path d="m15.583-142.61c3.76.276 5.616-.626 8.93-.421 4.319.283 8.307 2.053 7.838 6.574-.347 2.567-.37 2.25.186 4.296.532 1.535-.252 4.232-.487 4.654-2.715 4.963-1.536 4.965-2.656 7.742l-.906-.418-2.508-11.358c-7.177-.909-10.754-10.11-10.398-11.07" fill="url(#2)"/><path d="m22.374-132.67c.362.274 1.553-5.105 1.172-5.653 1.379 2.44 1.919 4.616 2.435 6.783-1.276-.283-2.289-.554-3.607-1.13" fill="url(#4)"/><circle r="3.01" cy="-119.45" cx="29.06" fill="url(#5)"/></g></svg>