<svg xmlns="http://www.w3.org/2000/svg" viewBox="0 0 32 32"><defs><linearGradient gradientTransform="matrix(2.62891 0 0 2.71269-160.16-291.42)" id="0" x1="67.894" y1="108.69" x2="67.854" y2="113.11" gradientUnits="userSpaceOnUse"><stop stop-color="#f9f9f9"/><stop offset="1" stop-color="#999"/></linearGradient></defs><rect width="28.2" height="28.2" x="1.898" y="1.898" fill="#ccc" fill-rule="evenodd" rx="5.575"/><g transform="translate(0-.5)"><path stroke-miterlimit="3.429" fill="#4d4d4d" fill-rule="evenodd" d="m9 7h14v8h-14z"/><path d="m9.8 19c-.388 0-.7.312-.7.7v1.4h-1.4c-.388 0-.7.312-.7.7v1.4c0 .388.312.7.7.7h1.4v1.4c0 .388.312.7.7.7h1.4c.388 0 .7-.312.7-.7v-1.4h1.4c.388 0 .7-.312.7-.7v-1.4c0-.388-.312-.7-.7-.7h-1.4v-1.4c0-.388-.312-.7-.7-.7h-1.4" fill="#4f4f4f"/><g transform="translate(-1 7)"><g fill="#ef5646"><circle r="1.5" cx="24.5" cy="13.5"/><circle r="1.5" cx="20.5" cy="13.5"/></g><g fill="#eb9200"><circle r="1.5" cx="24.5" cy="17.5"/><circle r="1.5" cx="20.5" cy="17.5"/></g></g></g>

   xmlns:dc="http://purl.org/dc/elements/1.1/"
   xmlns:cc="http://creativecommons.org/ns#"
   xmlns:rdf="http://www.w3.org/1999/02/22-rdf-syntax-ns#"
   xmlns:svg="http://www.w3.org/2000/svg"
   xmlns="http://www.w3.org/2000/svg"
   xmlns:xlink="http://www.w3.org/1999/xlink"
   xmlns:sodipodi="http://sodipodi.sourceforge.net/DTD/sodipodi-0.dtd"
   xmlns:inkscape="http://www.inkscape.org/namespaces/inkscape"
   version="1"
   width="32"
   height="32"
   id="svg12"
   sodipodi:docname="snow-top-1.svg"
   inkscape:version="0.92.1 r"&gt;
  <path d="m7.288.009c-8.276-.356-9.36 9.992-4.02 9.973.679.003 1.604-.207 2.97-1.543 7.256-10.531 14.706 3.573 17.53.919 1.71-1.912 3.496-.418 4.448.115 2.1.643 3.662.041 3.785-3.231.188-3.321-1.889-6.344-5.923-6.223-5.914.14-12.989-.047-18.787-.01" fill="url(#0)"/><path fill="#f00" fill-opacity="0" d="m0 0h32v32h-32z"/></svg>