<svg xmlns="http://www.w3.org/2000/svg" viewBox="0 0 32 32"><defs><linearGradient gradientTransform="matrix(2.59244 0 0 2.58531-157.93-277.73)" id="0" x1="67.894" y1="108.69" x2="67.854" y2="113.11" gradientUnits="userSpaceOnUse"><stop stop-color="#f9f9f9"/><stop offset="1" stop-color="#999"/></linearGradient></defs><rect width="28.2" height="28.2" x="1.898" y="1.898" fill="#8e8e8e" fill-rule="evenodd" rx="5.575"/><g transform="translate(45.571.158)"><path d="m-21.578 24.998v-14.243h-15.987v14.243c0 .564.446 1.017.999 1.017h13.989c.554 0 .999-.454.999-1.017" fill="#ccc"/><g stroke-linejoin="round"><path d="m-33.931 7.848h8.72l3.633 2.907h-15.987z" fill="#b8b8b8" stroke-width="1.095"/><g fill="#a3a3a3"><path stroke-width="1.533" d="m-33.931 5.668h8.72v2.18h-8.72z"/><path d="m-25.21 7.848l3.633 2.907h-6.54z" stroke-width="1.058"/></g><path d="m-28.12 10.755v15.26h5.606c.518 0 .934-.454.934-1.017v-14.243" fill="#b8b8b8" stroke-width="1.406"/></g><g fill="#3a86c5" color-rendering="auto" shape-rendering="auto" color-interpolation-filters="linearRGB" image-rendering="auto" color-interpolation="sRGB" color="#000"><path d="m-35.389057 14.378456a.72676 .72676 0 0 0 -.0369 .0028 .72676 .72676 0 0 0 -.06103 .0057 .72676 .72676 0 0 0 -.03123 .0057 .72676 .72676 0 0 0 -.03122 .0071 .72676 .72676 0 0 0 -.04258 .01136 .72676 .72676 0 0 0 -.01845 .0057 .72676 .72676 0 0 0 -.05535 .02129 .72676 .72676 0 0 0 -.01277 .0057 .72676 .72676 0 0 0 -.05251 .02555 .72676 .72676 0 0 0 -.0085 .0057 .72676 .72676 0 0 0 -.366183 .715333v5.728a.72676 .72676 0 1 0 1.453376 0v-3.618l.866 1.157a.72676 .72676 0 0 0 1.163834 0l.871-1.162v3.624a.72676 .72676 0 1 0 1.453375 0v-5.721a.72676 .72676 0 0 0 -.266831 -.655722 .72676 .72676 0 0 0 -.05819 -.04258 .72676 .72676 0 0 0 -.06245 -.0369 .72676 .72676 0 0 0 -.05961 -.02839 .72676 .72676 0 0 0 -.0071 -.0028 .72676 .72676 0 0 0 -.03123 -.01136 .72676 .72676 0 0 0 -.0057 -.0015 .72676 .72676 0 0 0 -.05961 -.01845 .72676 .72676 0 0 0 -.0057 -.0015 .72676 .72676 0 0 0 -.0057 -.0015 .72676 .72676 0 0 0 -.06103 -.0099 .72676 .72676 0 0 0 -.0043 -.0015 .72676 .72676 0 0 0 -.0057 0 .72676 .72676 0 0 0 -.06528 -.0057 .72676 .72676 0 0 0 -.0015 0 .72676 .72676 0 0 0 -.0015 0 .72676 .72676 0 0 0 -.654302 .361924l-1.55 2.068-1.547-2.068a.72676 .72676 0 0 0 -.63869 -.363343" mix-blend-mode="normal" isolation="auto" white-space="normal" solid-opacity="1" solid-color="#000000" vector-effect="none" shape-padding="0"/><path d="m-24.495845 14.378456a.72676 .72676 0 0 0 -.103609 .0099h-1.338a.72676 .72676 0 1 0 0 1.453375h.727v5.087a.72676 .72676 0 1 0 1.453374 0v-5.087h.727a.72676 .72676 0 1 0 0 -1.453375h-1.331a.72676 .72676 0 0 0 -.133416 -.0099" mix-blend-mode="normal" isolation="auto" white-space="normal" solid-opacity="1" solid-color="#000000" vector-effect="none" shape-padding="0"/></g></g>

   xmlns:dc="http://purl.org/dc/elements/1.1/"
   xmlns:cc="http://creativecommons.org/ns#"
   xmlns:rdf="http://www.w3.org/1999/02/22-rdf-syntax-ns#"
   xmlns:svg="http://www.w3.org/2000/svg"
   xmlns="http://www.w3.org/2000/svg"
   xmlns:xlink="http://www.w3.org/1999/xlink"
   xmlns:sodipodi="http://sodipodi.sourceforge.net/DTD/sodipodi-0.dtd"
   xmlns:inkscape="http://www.inkscape.org/namespaces/inkscape"
   version="1"
   width="32"
   height="32"
   id="svg12"
   sodipodi:docname="snow-top-4.svg"
   inkscape:version="0.92.1 r"&gt;
  <path d="m7.196.009c-8.161-.339-9.231 9.523-3.968 9.505.669.003 1.581-.197 2.929-1.471 3.773-4.147 9.01 4.479 14.696-1.042.61-.911 1.804-1.135 2.455-.627 1.045.677 2.87 2.991 3.88 3 2.359.513 4.095-.198 4.816-3.188.185-3.165-2.303-6.286-6.281-6.17-5.832.133-12.809-.045-18.527-.01" fill="url(#0)"/></svg>