<svg xmlns="http://www.w3.org/2000/svg" viewBox="0 0 32 32"><defs><linearGradient gradientTransform="matrix(2.54182 0 0 2.58531-153.47-277.37)" id="0" x1="67.894" y1="108.69" x2="67.854" y2="113.11" gradientUnits="userSpaceOnUse"><stop stop-color="#f9f9f9"/><stop offset="1" stop-color="#999"/></linearGradient></defs><rect width="28.2" height="28.2" x="1.898" y="1.898" fill="#dd4545" fill-rule="evenodd" rx="5.575"/><g transform="translate(38.885-.336)"><g fill="#323232"><path d="m-15.385 16.336c0-8.308-3.333-9-10-9-6.667 0-10 .692-10 9 0 8.308 3.333 9 10 9 6.667 0 10-.692 10-9"/><path d="m-14.385 20.336v1h4v-1z"/><path d="m-14.385 22.336v1h4v-1z"/><path d="m-14.385 24.336v1h4v-1z"/></g><g fill="#c7c7c7"><circle r="2" cx="-12.385" cy="11.336"/><circle r="2" cx="-12.385" cy="16.336"/><path d="m-20.385 16.335l-4 2.5-4 2.5v-10l4 2.5z" stroke-width=".417"/></g></g>

   xmlns:dc="http://purl.org/dc/elements/1.1/"
   xmlns:cc="http://creativecommons.org/ns#"
   xmlns:rdf="http://www.w3.org/1999/02/22-rdf-syntax-ns#"
   xmlns:svg="http://www.w3.org/2000/svg"
   xmlns="http://www.w3.org/2000/svg"
   xmlns:xlink="http://www.w3.org/1999/xlink"
   xmlns:sodipodi="http://sodipodi.sourceforge.net/DTD/sodipodi-0.dtd"
   xmlns:inkscape="http://www.inkscape.org/namespaces/inkscape"
   height="32"
   width="32"
   version="1"
   id="svg8"
   sodipodi:docname="snow-top-2.svg"
   inkscape:version="0.92.1 r"&gt;
  <path d="m24.646 6.111c2.995 2.684 1.381 7.817 3.674 8.291 2.031.613 3.541-1.385 3.66-4.503.35-8.627-3.911-9.427-6.879-9.524-28.342-2.047-1.762 4.92-.455 5.736" fill="url(#0)"/></svg>