<svg xmlns="http://www.w3.org/2000/svg" viewBox="0 0 32 32"><defs><linearGradient id="0" y2="4" gradientUnits="userSpaceOnUse" y1="92" gradientTransform="matrix(.36866 0 0 .37037-.793-1.778)" x2="0"><stop stop-color="#f2f2f2"/><stop stop-color="#fff" offset="1"/></linearGradient><linearGradient gradientTransform="matrix(2.54182 0 0 2.58531-153.47-277.37)" id="1" x1="67.894" y1="108.69" x2="67.854" y2="113.11" gradientUnits="userSpaceOnUse"><stop stop-color="#f9f9f9"/><stop offset="1" stop-color="#999"/></linearGradient></defs><rect width="28.2" height="28.2" x="1.898" y="1.898" fill="#7ec242" fill-rule="evenodd" rx="5.575"/><g transform="matrix(.90508 0 0 .90508 2.036 1.519)"><path d="m4 6v5.926h2.949v6.736c0 4.062 3.26 7.338 7.304 7.338h12.604v-12.662c0-4.062-3.26-7.338-7.304-7.338zm1.475 1.481h14.08c3.252 0 5.829 2.59 5.829 5.856v11.181h-11.129c-3.252 0-5.829-2.59-5.829-5.856v-6.736c.001-.776-.703-1.482-1.475-1.481h-1.475" fill="url(#0)"/><path d="m10.636 8.963v10.37c0 1.641 1.315 2.963 2.949 2.963h6.636c1.634 0 2.949-1.321 2.949-2.963v-5.556c0-1.432-1.155-2.593-2.581-2.593-.724 0-1.375.304-1.843.787-.469-.483-1.119-.787-1.843-.787-1.425 0-2.581 1.161-2.581 2.593v4.444h1.475v-4.444c0-.614.495-1.111 1.106-1.111.611 0 1.106.497 1.106 1.111v4.444h1.475v-4.444c0-.614.495-1.111 1.106-1.111.611 0 1.106.497 1.106 1.111v5.556c0 .821-.658 1.481-1.475 1.481h-6.636c-.817 0-1.475-.661-1.475-1.481v-10.37" fill="#fff"/></g>

   xmlns:dc="http://purl.org/dc/elements/1.1/"
   xmlns:cc="http://creativecommons.org/ns#"
   xmlns:rdf="http://www.w3.org/1999/02/22-rdf-syntax-ns#"
   xmlns:svg="http://www.w3.org/2000/svg"
   xmlns="http://www.w3.org/2000/svg"
   xmlns:xlink="http://www.w3.org/1999/xlink"
   xmlns:sodipodi="http://sodipodi.sourceforge.net/DTD/sodipodi-0.dtd"
   xmlns:inkscape="http://www.inkscape.org/namespaces/inkscape"
   height="32"
   width="32"
   version="1"
   id="svg8"
   sodipodi:docname="snow-top-2.svg"
   inkscape:version="0.92.1 r"&gt;
  <path d="m24.646 6.111c2.995 2.684 1.381 7.817 3.674 8.291 2.031.613 3.541-1.385 3.66-4.503.35-8.627-3.911-9.427-6.879-9.524-28.342-2.047-1.762 4.92-.455 5.736" fill="url(#1)"/></svg>