<svg xmlns="http://www.w3.org/2000/svg" viewBox="0 0 32 32"><defs><linearGradient gradientTransform="matrix(2.59244 0 0 2.58531-157.93-277.73)" id="0" x1="67.894" y1="108.69" x2="67.854" y2="113.11" gradientUnits="userSpaceOnUse"><stop stop-color="#f9f9f9"/><stop offset="1" stop-color="#999"/></linearGradient></defs><g transform="translate(3.02-36.14)" fill-rule="evenodd"><path d="m12.979 38.04h-8.525c-3.089 0-5.576 2.486-5.576 5.574v17.05c0 3.089 2.488 5.576 5.576 5.576h8.525z" fill="#2867ab"/><path d="m12.979 38.04v28.2h8.527c3.089 0 5.574-2.488 5.574-5.576v-17.05c0-3.089-2.486-5.574-5.574-5.574z" fill="#77b1e3"/></g><path d="m9.909 7.76c-5.852 8.259.577 15.21 5.922 16.544 7.947-2.115 10.25-10.888 5.922-16.544-2.331 1.217-4.232 1.085-5.793-.064-2.055 1.496-4.055.865-6.05.064" fill="#c0c0c0"/><path d="m15.916084 12.233399a2.27972 2.27972 0 0 0 -2.279297 2.279297 2.27972 2.27972 0 0 0 1.132813 1.966796v2.139c0 .635.511 1.148 1.146 1.148.635 0 1.146-.513 1.146-1.148v-2.139a2.27972 2.27972 0 0 0 1.132813 -1.966796 2.27972 2.27972 0 0 0 -2.279297 -2.279297" fill="#1e3151"/>

   xmlns:dc="http://purl.org/dc/elements/1.1/"
   xmlns:cc="http://creativecommons.org/ns#"
   xmlns:rdf="http://www.w3.org/1999/02/22-rdf-syntax-ns#"
   xmlns:svg="http://www.w3.org/2000/svg"
   xmlns="http://www.w3.org/2000/svg"
   xmlns:xlink="http://www.w3.org/1999/xlink"
   xmlns:sodipodi="http://sodipodi.sourceforge.net/DTD/sodipodi-0.dtd"
   xmlns:inkscape="http://www.inkscape.org/namespaces/inkscape"
   version="1"
   width="32"
   height="32"
   id="svg12"
   sodipodi:docname="snow-top-4.svg"
   inkscape:version="0.92.1 r"&gt;
  <path d="m7.196.009c-8.161-.339-9.231 9.523-3.968 9.505.669.003 1.581-.197 2.929-1.471 3.773-4.147 9.01 4.479 14.696-1.042.61-.911 1.804-1.135 2.455-.627 1.045.677 2.87 2.991 3.88 3 2.359.513 4.095-.198 4.816-3.188.185-3.165-2.303-6.286-6.281-6.17-5.832.133-12.809-.045-18.527-.01" fill="url(#0)"/></svg>