<svg xmlns="http://www.w3.org/2000/svg" xmlns:xlink="http://www.w3.org/1999/xlink" viewBox="0 0 32 32"><defs><linearGradient id="4" x1="-178.12" y1="-134.12" x2="-183.59" y2="-135.1" gradientUnits="userSpaceOnUse"><stop stop-color="#7c0000"/><stop offset="1" stop-color="#7c0000" stop-opacity="0"/></linearGradient><linearGradient id="3" x1="-189.8" y1="-142.57" x2="-175.35" y2="-130.4" gradientUnits="userSpaceOnUse"><stop stop-color="#ff383f"/><stop offset="1" stop-color="#a02d26"/></linearGradient><linearGradient id="2"><stop stop-color="#f9f9f9"/><stop offset="1" stop-color="#999"/></linearGradient><linearGradient xlink:href="#2" id="1" x1="-188.02" y1="-134.18" x2="-190.66" y2="-126.24" gradientUnits="userSpaceOnUse"/><radialGradient xlink:href="#2" id="5" cx="-176.59" cy="-120.91" r="3.01" gradientUnits="userSpaceOnUse" gradientTransform="matrix(2.21087.05719-.05496 2.12455 207.3 145.17)"/></defs><g fill-rule="evenodd"><rect width="28.2" height="28.2" x="1.898" y="1.898" fill="#8e8e8e" rx="5.575"/><g transform="translate(33.902)"><g fill="#4f4f4f"><path d="m-9.07 1.959v14.488c0 .623.3 1.127.672 1.127h1.375c.372 0 .67-.504.67-1.127v-13.541c-.798-.529-1.698-.89-2.717-.947"/><path d="m-13.146 1.898v14.549c0 .623.3 1.127.672 1.127h1.375c.372 0 .67-.504.67-1.127v-14.549"/><path d="m-17.222 1.898v14.549c0 .623.3 1.127.672 1.127h1.373c.372 0 .672-.504.672-1.127v-14.549"/><path d="m-25.377 1.898v14.549c0 .623.3 1.127.672 1.127h1.375c.372 0 .672-.504.672-1.127v-14.549"/></g><path d="m-7.711 17.574v12.193c2.255-.713 3.91-2.743 3.91-5.24v-17.05c0-1.947-1.049-3.57-2.553-4.566v13.541c0 .623-.298 1.127-.67 1.127z" fill="#a860a2"/><path d="m-11.787 17.574v12.527h2.412c.591 0 1.13-.165 1.664-.334v-12.193h-.688c-.372 0-.672-.504-.672-1.127v-14.488c-.107-.006-.197-.061-.305-.061h-1.055v14.549c0 .623-.298 1.127-.67 1.127z" fill="#476eb9"/><path d="m-15.863 17.574v12.527h4.076v-12.527h-.688c-.372 0-.672-.504-.672-1.127v-14.549h-1.359v14.549c0 .623-.3 1.127-.672 1.127z" fill="#4cb094"/><path d="m-19.941 1.898v28.2h4.078v-12.527h-.688c-.372 0-.672-.504-.672-1.127v-14.549" fill="#40a95d"/><path d="m-24.02 17.574v12.527h4.076v-28.2h-2.717v14.549c0 .623-.3 1.127-.672 1.127z" fill="#ecb554"/><path d="m-28.09 17.574v12.193c.534.169 1.073.334 1.664.334h2.412v-12.527h-.688c-.372 0-.672-.504-.672-1.127v-14.549h-1.053c-.108 0-.198.055-.305.061v14.488c0 .623-.299 1.127-.672 1.127z" fill="#eb8644"/><path d="m-28.09 29.768v-12.193h-.686c-.373 0-.674-.504-.674-1.127v-13.539c-1.503.997-2.551 2.618-2.551 4.564v17.05c0 2.498 1.655 4.527 3.91 5.24" fill="#da6156"/><path d="m-29.453 2.908v13.539c0 .623.301 1.127.674 1.127h1.373c.373 0 .672-.504.672-1.127v-14.488c-1.02.058-1.92.419-2.719.949" fill="#4f4f4f"/></g></g><path d="m32 .157l-.27 2.221-.122-2.378" fill="#f9f9f9" id="0"/><use xlink:href="#0"/><path d="m32 .113l-.27 1.6-.122-1.713" fill="#f9f9f9"/><g transform="matrix(-1 0 0 1-172.76 143.72)"><path d="m-190.09-143.27c-5.577-1.531-5.951 3.24-4.58 5.493 4.381 6.983 6.796 6.577 9.398 7.895 1.712 2.064 3.451 3.4 6.469 4.1 11.69 1.559 3.242-8.417.92-8.649-5.065.012-7.547-6.123-12.206-8.838" fill="url(#1)"/><path d="m-190.09-143.27c3.76.276 5.616-.626 8.93-.421 4.319.283 8.307 2.053 7.838 6.574-.347 2.567-.37 2.25.186 4.296.532 1.535-.252 4.232-.487 4.654-2.715 4.963-1.536 4.965-2.656 7.742l-.906-.418-2.508-11.358c-7.177-.909-10.754-10.11-10.398-11.07" fill="url(#3)"/><path d="m-183.3-133.33c.362.274 1.553-5.105 1.172-5.653 1.379 2.44 1.919 4.616 2.435 6.783-1.276-.283-2.289-.554-3.607-1.13" fill="url(#4)"/><circle r="3.01" cy="-120.11" cx="-176.61" fill="url(#5)"/></g></svg>