<svg xmlns="http://www.w3.org/2000/svg" viewBox="0 0 32 32"><defs><linearGradient gradientTransform="matrix(2.62891 0 0 2.71269-160.16-291.42)" id="0" x1="67.894" y1="108.69" x2="67.854" y2="113.11" gradientUnits="userSpaceOnUse"><stop stop-color="#f9f9f9"/><stop offset="1" stop-color="#999"/></linearGradient></defs><rect width="28.2" height="28.2" x="1.898" y="1.898" fill="#ccc" fill-rule="evenodd" rx="5.575"/><g><path d="M22.812 12.717A8.5901 6.3736 59 0 1 11.886 19.283 8.5901 6.3736 59 0 1 22.812 12.717" fill="none" stroke="#474747" stroke-width=".715"/><path d="m17 12c-2.762 0-5 2.237-5 5 0 2.763 2.237 5 5 5 2.763 0 5-2.237 5-5 0-2.763-2.237-5-5-5m-.894 2.642c1.878 0 3.414 1.516 3.414 3.394 0 1.878-1.536 3.414-3.414 3.414-1.878 0-3.394-1.536-3.394-3.414 0-1.878 1.516-3.394 3.394-3.394" fill="#2a58ae"/><path d="m6.86 16.496c0 0-2.01 1.918-1.852 3.116.216 1.652 2.291 1.916 3.929 1.897 3.97-.045 18.11-4.684 18.06-10.25-.015-1.799-3.251-1.958-3.251-1.851 0 0 2.4.602 2.348 1.761-.195 4.32-12.01 9.169-17.25 9.302-1.101.028-2.633-.21-3.071-1.22-.392-.905 1.084-2.754 1.084-2.754" fill="#474747"/><path d="m23 11.5a2.5 2.5 0 0 1 -5 0 2.5 2.5 0 1 1 5 0" fill="#d24646"/><path d="m16 19.501a1.5 1.5 0 0 1 -3 0 1.5 1.5 0 1 1 3 0" fill="#606060"/></g>

   xmlns:dc="http://purl.org/dc/elements/1.1/"
   xmlns:cc="http://creativecommons.org/ns#"
   xmlns:rdf="http://www.w3.org/1999/02/22-rdf-syntax-ns#"
   xmlns:svg="http://www.w3.org/2000/svg"
   xmlns="http://www.w3.org/2000/svg"
   xmlns:xlink="http://www.w3.org/1999/xlink"
   xmlns:sodipodi="http://sodipodi.sourceforge.net/DTD/sodipodi-0.dtd"
   xmlns:inkscape="http://www.inkscape.org/namespaces/inkscape"
   version="1"
   width="32"
   height="32"
   id="svg12"
   sodipodi:docname="snow-top-1.svg"
   inkscape:version="0.92.1 r"&gt;
  <path d="m7.288.009c-8.276-.356-9.36 9.992-4.02 9.973.679.003 1.604-.207 2.97-1.543 7.256-10.531 14.706 3.573 17.53.919 1.71-1.912 3.496-.418 4.448.115 2.1.643 3.662.041 3.785-3.231.188-3.321-1.889-6.344-5.923-6.223-5.914.14-12.989-.047-18.787-.01" fill="url(#0)"/><path fill="#f00" fill-opacity="0" d="m0 0h32v32h-32z"/></svg>