<svg xmlns="http://www.w3.org/2000/svg" viewBox="0 0 32 32" xmlns:xlink="http://www.w3.org/1999/xlink"><defs><linearGradient id="4" x1="-178.12" y1="-134.12" x2="-183.59" y2="-135.1" gradientUnits="userSpaceOnUse"><stop stop-color="#7c0000"/><stop offset="1" stop-color="#7c0000" stop-opacity="0"/></linearGradient><linearGradient id="3" x1="-189.8" y1="-142.57" x2="-175.35" y2="-130.4" gradientUnits="userSpaceOnUse"><stop stop-color="#ff383f"/><stop offset="1" stop-color="#a02d26"/></linearGradient><linearGradient id="2"><stop stop-color="#f9f9f9"/><stop offset="1" stop-color="#999"/></linearGradient><linearGradient xlink:href="#2" id="1" x1="-188.02" y1="-134.18" x2="-190.66" y2="-126.24" gradientUnits="userSpaceOnUse"/><radialGradient xlink:href="#2" id="5" cx="-176.59" cy="-120.91" r="3.01" gradientUnits="userSpaceOnUse" gradientTransform="matrix(2.21087.05719-.05496 2.12455 207.3 145.17)"/></defs><rect width="28.2" height="28.2" x="1.898" y="1.898" fill="#d75908" fill-rule="evenodd" rx="5.575"/><g transform="translate(75.52-4.087)"><path d="m-62.19 21.02c2.975 1.763 3.276 3.115 2.665 4.2-.611 1.086-1.901 1.495-4.876-.269-2.975-1.763-6.339-5.329-6.615-6.541 1.16-.361 5.851.846 8.826 2.61" fill="#fec8a4"/><path d="m-59.786 20.22c1.718 3.054 1.32 4.379.262 5.01-1.058.627-2.375.318-4.092-2.736-1.717-3.054-2.893-7.869-2.542-9.06 1.181.283 4.655 3.737 6.372 6.79" fill="#fba66f"/><path d="m-57.31 20.753c0 3.526-.99 4.469-2.211 4.469-1.221 0-2.211-.943-2.211-4.469 0-3.526 1.327-8.3 2.211-9.151.885.851 2.211 5.625 2.211 9.151" fill="#f8863b"/><path d="m-55.43 22.486c-1.718 3.054-3.034 3.362-4.092 2.736-1.058-.627-1.456-1.952.262-5.01 1.718-3.054 5.192-6.507 6.372-6.79.352 1.191-.824 6.01-2.542 9.06" fill="#f76d12"/><path d="m-54.649 24.953c-2.975 1.763-4.265 1.354-4.876.269-.611-1.086-.31-2.438 2.665-4.2 2.975-1.763 7.665-2.971 8.826-2.61-.276 1.212-3.64 4.779-6.615 6.542" fill="#fff"/><path d="m-59.14 28.07c-1.089-.084-.776-1.516-.766-2.298" fill="none" stroke="#3aa03d" stroke-linejoin="bevel" stroke-linecap="round"/></g><path d="m32 .157l-.27 2.221-.122-2.378" fill="#f9f9f9" id="0"/><use xlink:href="#0"/><path d="m32 .113l-.27 1.6-.122-1.713" fill="#f9f9f9"/><g transform="matrix(-1 0 0 1-172.76 143.72)"><path d="m-190.09-143.27c-5.577-1.531-5.951 3.24-4.58 5.493 4.381 6.983 6.796 6.577 9.398 7.895 1.712 2.064 3.451 3.4 6.469 4.1 11.69 1.559 3.242-8.417.92-8.649-5.065.012-7.547-6.123-12.206-8.838" fill="url(#1)"/><path d="m-190.09-143.27c3.76.276 5.616-.626 8.93-.421 4.319.283 8.307 2.053 7.838 6.574-.347 2.567-.37 2.25.186 4.296.532 1.535-.252 4.232-.487 4.654-2.715 4.963-1.536 4.965-2.656 7.742l-.906-.418-2.508-11.358c-7.177-.909-10.754-10.11-10.398-11.07" fill="url(#3)"/><path d="m-183.3-133.33c.362.274 1.553-5.105 1.172-5.653 1.379 2.44 1.919 4.616 2.435 6.783-1.276-.283-2.289-.554-3.607-1.13" fill="url(#4)"/><circle r="3.01" cy="-120.11" cx="-176.61" fill="url(#5)"/></g></svg>