<svg xmlns="http://www.w3.org/2000/svg" viewBox="0 0 32 32" xmlns:xlink="http://www.w3.org/1999/xlink"><defs><linearGradient id="4" x1="-178.12" y1="-134.12" x2="-183.59" y2="-135.1" gradientUnits="userSpaceOnUse"><stop stop-color="#7c0000"/><stop offset="1" stop-color="#7c0000" stop-opacity="0"/></linearGradient><linearGradient id="3" x1="-189.8" y1="-142.57" x2="-175.35" y2="-130.4" gradientUnits="userSpaceOnUse"><stop stop-color="#ff383f"/><stop offset="1" stop-color="#a02d26"/></linearGradient><linearGradient id="2"><stop stop-color="#f9f9f9"/><stop offset="1" stop-color="#999"/></linearGradient><linearGradient xlink:href="#2" id="1" x1="-188.02" y1="-134.18" x2="-190.66" y2="-126.24" gradientUnits="userSpaceOnUse"/><radialGradient xlink:href="#2" id="5" cx="-176.59" cy="-120.91" r="3.01" gradientUnits="userSpaceOnUse" gradientTransform="matrix(2.21087.05719-.05496 2.12455 207.3 145.17)"/></defs><rect width="28.2" height="28.2" x="1.898" y="1.898" fill="#ff7c40" fill-rule="evenodd" rx="5.575"/><g stroke-linejoin="round" stroke-linecap="round" stroke-width=".588"><path d="m19 8a6 2 0 0 0 -6 2 6 2 0 0 0 6 2 6 2 0 0 0 6 -2 6 2 0 0 0 -6 -2m5.802734 3.498047A6 2 0 0 1 19 13 6 2 0 0 1 13.197266 11.501953 6 2 0 0 0 13 12a6 2 0 0 0 6 2 6 2 0 0 0 6 -2 6 2 0 0 0 -.197266 -.501953m0 2A6 2 0 0 1 19 15 6 2 0 0 1 13.197266 13.501953 6 2 0 0 0 13 14a6 2 0 0 0 .865234 1.029297c1.818.088 3.359.443 4.266.947A6 2 0 0 0 19 16a6 2 0 0 0 6 -2 6 2 0 0 0 -.197266 -.501953m0 1.999998A6 2 0 0 1 19 17c0 0 0 .729 0 1a6 2 0 0 0 6 -2 6 2 0 0 0 -.197266 -.501953m0 2A6 2 0 0 1 19 19c0 .435 0 .507 0 1a6 2 0 0 0 6 -2 6 2 0 0 0 -.197266 -.501953m0 2A6 2 0 0 1 19 21c0 .444 0 .71 0 1a6 2 0 0 0 6 -2 6 2 0 0 0 -.197266 -.501953m0 2A6 2 0 0 1 19 23c0 .357-.304.688-.797.979A6 2 0 0 0 19 23.999996a6 2 0 0 0 6 -2 6 2 0 0 0 -.197266 -.501953" fill="#d75e32"/><path d="m19 7a6 2 0 0 0 -6 2 6 2 0 0 0 6 2 6 2 0 0 0 6 -2 6 2 0 0 0 -6 -2m5.802734 3.498047A6 2 0 0 1 19 12 6 2 0 0 1 13.197266 10.501953 6 2 0 0 0 13 11a6 2 0 0 0 6 2 6 2 0 0 0 6 -2 6 2 0 0 0 -.197266 -.501953m0 2A6 2 0 0 1 19 14 6 2 0 0 1 13.197266 12.501953 6 2 0 0 0 13 13a6 2 0 0 0 .865234 1.029297c1.818.088 3.359.443 4.266.947A6 2 0 0 0 19 15a6 2 0 0 0 6 -2 6 2 0 0 0 -.197266 -.501953m0 1.999998A6 2 0 0 1 19 16c0 0 0 .729 0 1a6 2 0 0 0 6 -2 6 2 0 0 0 -.197266 -.501953m0 2A6 2 0 0 1 19 18c0 .435 0 .507 0 1a6 2 0 0 0 6 -2 6 2 0 0 0 -.197266 -.501953m0 2A6 2 0 0 1 19 20c0 .444 0 .71 0 1a6 2 0 0 0 6 -2 6 2 0 0 0 -.197266 -.501953m0 2A6 2 0 0 1 19 22c0 .357-.304.688-.797.979A6 2 0 0 0 19 22.999996a6 2 0 0 0 6 -2 6 2 0 0 0 -.197266 -.501953" fill="#ffd8c6"/><path d="m13 15a6 2 0 0 0 -6 2 6 2 0 0 0 6 2 6 2 0 0 0 6 -2 6 2 0 0 0 -6 -2m5.802734 3.498047A6 2 0 0 1 13 20 6 2 0 0 1 7.197266 18.501953 6 2 0 0 0 7 19a6 2 0 0 0 6 2 6 2 0 0 0 6 -2 6 2 0 0 0 -.197266 -.501953m0 2A6 2 0 0 1 13 22 6 2 0 0 1 7.197266 20.501953 6 2 0 0 0 7 21a6 2 0 0 0 6 2 6 2 0 0 0 6 -2 6 2 0 0 0 -.197266 -.501953m0 2A6 2 0 0 1 13 24 6 2 0 0 1 7.197266 22.501953 6 2 0 0 0 7 23a6 2 0 0 0 6 2 6 2 0 0 0 6 -2 6 2 0 0 0 -.197266 -.501953" fill="#d75e32"/><path d="m13 14a6 2 0 0 0 -6 2 6 2 0 0 0 6 2 6 2 0 0 0 6 -2 6 2 0 0 0 -6 -2m5.802734 3.498047A6 2 0 0 1 13 19 6 2 0 0 1 7.197266 17.501953 6 2 0 0 0 7 18a6 2 0 0 0 6 2 6 2 0 0 0 6 -2 6 2 0 0 0 -.197266 -.501953m0 2A6 2 0 0 1 13 21 6 2 0 0 1 7.197266 19.501953 6 2 0 0 0 7 20a6 2 0 0 0 6 2 6 2 0 0 0 6 -2 6 2 0 0 0 -.197266 -.501953m0 2A6 2 0 0 1 13 23 6 2 0 0 1 7.197266 21.501953 6 2 0 0 0 7 22a6 2 0 0 0 6 2 6 2 0 0 0 6 -2 6 2 0 0 0 -.197266 -.501953" fill="#fff"/></g><path d="m32 .157l-.27 2.221-.122-2.378" fill="#f9f9f9" id="0"/><use xlink:href="#0"/><path d="m32 .113l-.27 1.6-.122-1.713" fill="#f9f9f9"/><g transform="matrix(-1 0 0 1-172.76 143.72)"><path d="m-190.09-143.27c-5.577-1.531-5.951 3.24-4.58 5.493 4.381 6.983 6.796 6.577 9.398 7.895 1.712 2.064 3.451 3.4 6.469 4.1 11.69 1.559 3.242-8.417.92-8.649-5.065.012-7.547-6.123-12.206-8.838" fill="url(#1)"/><path d="m-190.09-143.27c3.76.276 5.616-.626 8.93-.421 4.319.283 8.307 2.053 7.838 6.574-.347 2.567-.37 2.25.186 4.296.532 1.535-.252 4.232-.487 4.654-2.715 4.963-1.536 4.965-2.656 7.742l-.906-.418-2.508-11.358c-7.177-.909-10.754-10.11-10.398-11.07" fill="url(#3)"/><path d="m-183.3-133.33c.362.274 1.553-5.105 1.172-5.653 1.379 2.44 1.919 4.616 2.435 6.783-1.276-.283-2.289-.554-3.607-1.13" fill="url(#4)"/><circle r="3.01" cy="-120.11" cx="-176.61" fill="url(#5)"/></g></svg>