<svg xmlns="http://www.w3.org/2000/svg" viewBox="0 0 32 32" xmlns:xlink="http://www.w3.org/1999/xlink"><defs><linearGradient gradientTransform="matrix(-2.54182 0 0 2.58531 185.47-277.37)" id="1" x1="67.894" y1="108.69" x2="67.854" y2="113.11" gradientUnits="userSpaceOnUse"><stop stop-color="#f9f9f9"/><stop offset="1" stop-color="#999"/></linearGradient></defs><rect width="28.2" height="28.2" x="1.898" y="1.898" fill="#329c32" fill-rule="evenodd" rx="5.575"/><path d="m21.789 11.593l-3.739.593c-.188-.476-.358-.804-.513-.985-.147-.188-.395-.375-.744-.563v2.905c2.037.543 3.397 1.116 4.08 1.719.905.811 1.357 1.839 1.357 3.085 0 .73-.164 1.4-.492 2.01-.322.61-.737 1.119-1.246 1.528-.503.409-1.038.707-1.608.894-.57.181-1.266.288-2.09.322v1.899h-1.467v-1.899c-.985-.087-1.786-.244-2.402-.472-.61-.235-1.139-.556-1.588-.965-.442-.409-.784-.848-1.025-1.317-.241-.476-.422-.677-.543-1.347l4.06-1c.121.663.281 1.298.482 1.593.208.295.546.556 1.015.784v-3.548c-1.353-.375-2.315-.7-2.884-.975-.563-.275-1.052-.714-1.467-1.317-.415-.61-.623-1.35-.623-2.221 0-1.193.415-2.188 1.246-2.985.838-.804 2.08-1.25 3.729-1.337v-.995h1.467v.995c1.501.094 2.647.449 3.437 1.065.797.616 1.317 1.461 1.558 2.533m-6.462-1.01c-.429.141-.727.315-.894.523-.168.208-.251.452-.251.734 0 .295.084.553.251.774.174.214.472.395.894.543zm1.467 9.89c.57-.127.985-.335 1.246-.623.268-.295.402-.623.402-.985 0-.315-.114-.603-.342-.864-.221-.268-.657-.516-1.306-.744z" fill="#262626"/>

   xmlns:dc="http://purl.org/dc/elements/1.1/"
   xmlns:cc="http://creativecommons.org/ns#"
   xmlns:rdf="http://www.w3.org/1999/02/22-rdf-syntax-ns#"
   xmlns:svg="http://www.w3.org/2000/svg"
   xmlns="http://www.w3.org/2000/svg"
   xmlns:xlink="http://www.w3.org/1999/xlink"
   xmlns:sodipodi="http://sodipodi.sourceforge.net/DTD/sodipodi-0.dtd"
   xmlns:inkscape="http://www.inkscape.org/namespaces/inkscape"
   height="32"
   width="32"
   version="1"
   id="svg8"
   sodipodi:docname="snow-top-3.svg"
   inkscape:version="0.92.1 r"&gt;
  <path fill="#00000f" fill-opacity="0" d="m0 0h32v32h-32z" id="0"/><path d="m7.354 6.111c-2.995 2.684-1.381 7.817-3.674 8.291-2.031.613-3.541-1.385-3.66-4.503-.35-8.627 3.911-9.427 6.879-9.524 28.342-2.047 1.762 4.92.455 5.736" fill="url(#1)"/><use xlink:href="#0"/></svg>