<svg xmlns="http://www.w3.org/2000/svg" xmlns:xlink="http://www.w3.org/1999/xlink" viewBox="0 0 32 32"><defs><clipPath id="0"><path transform="matrix(15.333 0 0 11.5 415-125.54)" fill="#1890d0" d="m-24 13c0 1.105-.672 2-1.5 2s-1.5-.895-1.5-2 .672-2 1.5-2 1.5.895 1.5 2"/></clipPath><linearGradient xlink:href="#4" id="5" x1="-227.98" y1="-131.26" x2="-234.8" y2="-134.14" gradientUnits="userSpaceOnUse"/><linearGradient id="4"><stop stop-color="#13a9ea"/><stop offset="1" stop-color="#372db5"/></linearGradient><linearGradient xlink:href="#4" id="3" x1="-241.01" y1="-141.61" x2="-226.57" y2="-129.44" gradientUnits="userSpaceOnUse"/><linearGradient id="2"><stop stop-color="#f9f9f9"/><stop offset="1" stop-color="#999"/></linearGradient><linearGradient xlink:href="#2" id="1" x1="-239.23" y1="-133.21" x2="-241.87" y2="-125.28" gradientUnits="userSpaceOnUse"/><radialGradient xlink:href="#2" id="6" cx="-176.59" cy="-120.91" r="3.01" gradientUnits="userSpaceOnUse" gradientTransform="matrix(2.21087.05719-.05496 2.12455 156.08 146.14)"/></defs><rect width="28.2" height="28.2" x="1.898" y="1.898" fill="#5e6884" fill-rule="evenodd" rx="5.575"/><g transform="matrix(.66653 0 0 .66708-.002.006)"><g clip-path="url(#0)"><path d="m14.04 35.926c0-.148 5.01-6.172 5.117-6.148.059.016 2.301.965 4.973 2.113 4.57 1.961 4.875 2.078 4.996 1.914.188-.254.832-1.598 1.172-2.449l.289-.723-.484-.266c-.691-.375-1.703-1.215-2.336-1.938-.578-.66-1.621-2.25-1.621-2.473 0-.074.332.262.738.746 1.137 1.352 3.758 3.477 3.922 3.176.195-.359.324-1.414.316-2.641-.008-1.496-.203-2.66-.719-4.266l-.289-.902-1.422-.445c-.785-.25-1.57-.492-1.746-.551-.617-.195-.23-.184.668.02 1.078.242 2.176.441 2.852.527.602.074.73-.043.793-.703.082-.848-.461-3.191-1.016-4.352-.219-.465-.32-.57-.762-.77-1.465-.684-6.06-1.309-8.01-1.105-.844.086-1.707.293-1.98.465-.074.059.469.191 1.402.363.84.156 1.453.293 1.363.316-.102.016-1.414-.129-2.941-.324-2.672-.344-2.77-.352-2.965-.18-.391.352-.945 1.309-1.063 1.824-.109.496-.102.555.145 1.059.422.863 1.211 1.492 2.996 2.395.844.438 1.516.797 1.492.824-.027.023-.75-.246-1.602-.602l-1.559-.645-2.285.641c-1.254.348-2.324.637-2.375.637-.063 0-.094-1.516-.094-4.086 0-3.934.008-4.098.203-4.5.117-.246.348-.508.555-.633l.359-.223 10.461-.031c5.75-.016 10.699 0 10.977.031.641.078 1.219.547 1.371 1.113.066.246.09 3.969.074 11.05l-.027 10.668-.223.355c-.129.211-.391.441-.633.559-.41.199-.492.203-10.738.203-5.68 0-10.332-.035-10.332-.074" fill="#fff"/></g></g><g transform="matrix(-1 0 0 1-223.97 142.77)"><g fill="#f9f9f9"><path d="m-228.95-129.3l-.27 2.221-.122-2.378z"/><path d="m-228.66-130.01l-.27 2.221-.122-2.378z"/><path d="m-228.43-129.95l-.27 1.6-.122-1.713z"/></g><path d="m-241.31-142.31c-5.577-1.531-5.951 3.24-4.58 5.493 4.381 6.983 6.796 6.577 9.398 7.895 1.712 2.064 3.451 3.4 6.469 4.1 11.69 1.559 3.242-8.417.92-8.649-5.065.012-7.547-6.123-12.206-8.838" fill="url(#1)"/><path d="m-241.31-142.31c3.76.276 5.616-.626 8.93-.421 4.319.283 8.307 2.053 7.838 6.574-.347 2.567-.37 2.25.186 4.296.532 1.535-.252 4.232-.487 4.654-2.715 4.963-1.536 4.965-2.656 7.742l-.906-.418-2.508-11.358c-7.177-.909-10.754-10.11-10.398-11.07" fill="url(#3)"/><path d="m-234.52-132.37c.362.274 1.553-5.105 1.172-5.653 1.379 2.44 1.919 4.616 2.435 6.783-1.276-.283-2.289-.554-3.607-1.13" fill="url(#5)"/><circle r="3.01" cy="-119.15" cx="-227.83" fill="url(#6)"/></g></svg>