<svg xmlns="http://www.w3.org/2000/svg" viewBox="0 0 32 32" xmlns:xlink="http://www.w3.org/1999/xlink"><defs><linearGradient xlink:href="#3" id="4" x1="-227.98" y1="-131.26" x2="-234.8" y2="-134.14" gradientUnits="userSpaceOnUse"/><linearGradient xlink:href="#3" id="2" x1="-241.01" y1="-141.61" x2="-226.57" y2="-129.44" gradientUnits="userSpaceOnUse"/><linearGradient id="3"><stop stop-color="#13a9ea"/><stop offset="1" stop-color="#372db5"/></linearGradient><linearGradient id="1"><stop stop-color="#f9f9f9"/><stop offset="1" stop-color="#999"/></linearGradient><linearGradient xlink:href="#1" id="0" x1="-239.23" y1="-133.21" x2="-241.87" y2="-125.28" gradientUnits="userSpaceOnUse"/><radialGradient xlink:href="#1" id="5" cx="-176.59" cy="-120.91" r="3.01" gradientUnits="userSpaceOnUse" gradientTransform="matrix(2.21087.05719-.05496 2.12455 156.08 146.14)"/></defs><rect width="28.2" height="28.2" x="1.898" y="1.898" fill="#5e6884" fill-rule="evenodd" rx="5.575"/><g transform="translate(0-.5)"><path d="m11.679 8.01c-3.03.204-6.712 3.01-6.679 7.562.032 4.318 1.336 6.704 2.469 9.424l2.366-1.02c-1.35-2.058-3.363-6.227-3.247-8.981.077-1.815.71-3.086 1.808-4.11 2.648-2.469 6.298-1.889 8.443.744 1.219 1.552 1.428 3.832.31 5.497-1.896 2.825-6.2 1.452-6.496-1.821-.14-1.555 1.353-2.752 2.725-2.765-1.407-.817-3.584.69-3.466 2.538.347 5.445 6.274 5.551 8.102 2.447 3.263-5.543-2.277-9.788-6.332-9.515z" fill="#f9f9f9"/><path d="m24.465 8l-2.553 1.081c1.538 2.989 3.322 5.28 3.325 8.972.001 1.355-.536 2.891-1.808 4.03-1.156 1.037-2.664 1.65-4.462 1.398-1.88-.264-3.173-1.135-3.98-2.128-1.267-1.692-1.477-3.852-.454-5.434.584-.902 1.88-1.669 3.165-1.556 2.266.197 3.534 1.467 3.514 3.387-.02 1.954-1.389 2.704-2.925 2.571 1.437.642 3.607-.198 3.599-2.351-.011-2.901-1.945-4.298-4.03-4.309-2.155-.012-3.348.799-4.04 1.899-.691 1.1-.878 2.55-.8 3.736.079 1.204.942 2.659 2.248 3.784 1.304 1.125 3.056 1.917 4.89 1.917 2.954 0 6.878-3.04 6.846-7.508-.033-4.469-1.32-7.122-2.536-9.49z" fill="#7fafdb"/></g><g transform="matrix(-1 0 0 1-223.97 142.77)"><g fill="#f9f9f9"><path d="m-228.95-129.3l-.27 2.221-.122-2.378z"/><path d="m-228.66-130.01l-.27 2.221-.122-2.378z"/><path d="m-228.43-129.95l-.27 1.6-.122-1.713z"/></g><path d="m-241.31-142.31c-5.577-1.531-5.951 3.24-4.58 5.493 4.381 6.983 6.796 6.577 9.398 7.895 1.712 2.064 3.451 3.4 6.469 4.1 11.69 1.559 3.242-8.417.92-8.649-5.065.012-7.547-6.123-12.206-8.838" fill="url(#0)"/><path d="m-241.31-142.31c3.76.276 5.616-.626 8.93-.421 4.319.283 8.307 2.053 7.838 6.574-.347 2.567-.37 2.25.186 4.296.532 1.535-.252 4.232-.487 4.654-2.715 4.963-1.536 4.965-2.656 7.742l-.906-.418-2.508-11.358c-7.177-.909-10.754-10.11-10.398-11.07" fill="url(#2)"/><path d="m-234.52-132.37c.362.274 1.553-5.105 1.172-5.653 1.379 2.44 1.919 4.616 2.435 6.783-1.276-.283-2.289-.554-3.607-1.13" fill="url(#4)"/><circle r="3.01" cy="-119.15" cx="-227.83" fill="url(#5)"/></g></svg>