<svg xmlns="http://www.w3.org/2000/svg" viewBox="0 0 32 32"><defs><linearGradient gradientTransform="matrix(2.59244 0 0 2.58531-157.93-277.73)" id="0" x1="67.894" y1="108.69" x2="67.854" y2="113.11" gradientUnits="userSpaceOnUse"><stop stop-color="#f9f9f9"/><stop offset="1" stop-color="#999"/></linearGradient></defs><path d="m7.06 8.719c-.099.108-.242.188-.338.297-.432.501-.844 1.089-1.164 1.727-.32.637-.546 1.323-.607 2.02-.061.694-.008 1.377.154 2.031.162.655.433 1.281.805 1.865-.783-.406-1.404-.633-1.855-1.348-.121-.089-.079.275-.059.609.163 1.498.429 2.964.877 4.381l-.018-.006c.016.024.052.39.252.986.2.596.564 1.42 1.234 2.363.473.68 1.02 1.342 1.613 1.93.593.587 1.232 1.1 1.887 1.482.389.228.705.649 1.119.713-.816.01-1.648-.216-2.459-.611-.811-.395-1.601-.96-2.334-1.625-.733-.665-1.409-1.432-1.99-2.232-.581-.801-1.068-1.636-1.424-2.438-.356-.883-.656-1.785-.855-2.717v6.381c0 3.089 2.486 5.574 5.574 5.574h17.05c3.089 0 5.574-2.486 5.574-5.574v-8.393c.019 1.403-.192 2.869-.684 4.301-.508 1.481-1.289 2.921-2.338 4.205-.014.018-.03.035-.045.053-.083.108-.161.217-.246.324-.137.172-.365.382-.498.533-.997 1.137-1.952 1.658-1.951 1.658-.588.429-1.195.69-1.887.91-.692.22-1.47.399-2.402.66 1.017-.608 2.434-2.612 2.02-2.02 0 0-.549.553-1.455 1.082-.453.265-.994.525-1.602.705-.607.18-1.279.282-1.992.234.536-.232 1.19-.629 1.887-1.195.696-.567 1.433-1.303 2.129-2.219.696-.916 1.353-2.01 1.889-3.291.536-1.28.951-2.747 1.166-4.406-.601.571-1.353.825-1.957.936-.604.11-1.06.078-1.07.076 0 0-.008 0-.008 0 0 0 .008-.002.008-.002.503-.644.797-1.389.939-2.186.143-.797.134-1.646.033-2.496-.162-1.3-.657-2.624-1.369-3.764h.004c-.249-.39-.817-.927-1.135-1.256-.684.307-1.391.661-2.1.938-.708.276-1.419.477-2.109.477-.723 0-1.354-.237-1.947-.395-.593-.157-1.147-.235-1.709.088-.854.393-1.552.962-2.414 1.336-.381.186-.814.386-1.176.65-.362.264-.652.594-.75 1.037-.311-.343-.405-.768-.389-1.205.017-.437.144-.885.273-1.277.129-.057-.036-.62-.023-.889-.04-.331-.087-.676-.133-1.018" fill="#ebebeb" fill-rule="evenodd"/><g stroke-width=".71"><path d="m6.34 23.645c1.227 1.765 2.811 3.845 4.62 4.123-.707-.409-2.476-2.01-3.03-5.05.588 1.152 3.243 2.679 4.04 3.03-.396-.37-1.916-2.587-2.02-3.889l-5.095-1.566c.032.048.145 1.466 1.485 3.352" fill="#375389"/><path d="m24.482 12.11l-9.186-3.221-9.845.656-2.513 3.136c.447 2.898.169 6.04 1.726 8.568l17.405 5.513 2.397-6.691z" fill="#bcbcbc"/><path d="m24.482 11.1l-9.186-3.221-9.845.656-2.513 3.136c.447 2.898.169 6.04 1.726 8.568l17.405 5.513 2.397-6.691z" fill="#ebebeb"/><path d="m23.735 13.874l-1.363-4.477-16.67-.167-.095.116-.156.196 6.311 8.925" fill="#bcbcbc"/><path d="m23.735 12.864l-1.363-4.477-16.67-.167-.095.116-.156.196 6.311 8.925" fill="#f7f7f7"/></g><path d="m10.236 1.898c-.043.046-.099.07-.141.117-.753.857-1.323 1.943-1.795 2.889-.34.601-.693 1.315-.99 1.883-.284.447-.342.94-.314 1.443.027.503.138 1.016.197 1.506-.012.268.152.832.023.889-.13.392-.257.841-.273 1.277-.017.437.078.863.389 1.205.098-.443.388-.773.75-1.037.362-.264.794-.464 1.176-.65.862-.374 1.56-.943 2.414-1.336.562-.323 1.116-.245 1.709-.088.593.157 1.225.395 1.947.395.691 0 1.401-.2 2.109-.477.708-.276 1.416-.63 2.1-.938.318.329.886.865 1.135 1.256h-.004c.713 1.14 1.207 2.464 1.369 3.764.101.85.11 1.699-.033 2.496-.143.797-.437 1.542-.939 2.186 0 0-.008.002-.008.002 0 0 .008 0 .008 0 .01.001.467.034 1.07-.076.604-.11 1.356-.365 1.957-.936-.215 1.659-.63 3.126-1.166 4.406-.536 1.28-1.192 2.375-1.889 3.291-.696.916-1.433 1.652-2.129 2.219-.696.567-1.351.964-1.887 1.195.713.048 1.385-.054 1.992-.234.607-.18 1.149-.441 1.602-.705.906-.529 1.455-1.082 1.455-1.082.415-.591-1 1.414-2.02 2.02.932-.261 1.71-.44 2.402-.66.692-.22 1.299-.481 1.887-.91 0 0 .954-.521 1.951-1.658.133-.151.361-.361.498-.533.085-.107.163-.217.246-.324.015-.018.031-.035.045-.053 1.049-1.284 1.829-2.725 2.338-4.205.492-1.432.703-2.897.684-4.301v-.385-8.277c0-3.089-2.486-5.574-5.574-5.574h-10.621-.389-.691-.742-.547" fill="#5996d2" fill-rule="evenodd"/><g fill="#4271a3"><path d="m8.243 10.598c3.367-.097 1.253-2.184 5.747-6.06-3.661 1.896-7.146 1.893-5.742 6.06h-.004" stroke-width=".71"/><path d="m7.472 1.898c-3.089 0-5.574 2.486-5.574 5.574v6.795 3.879c.2.932.5 1.834.855 2.717.356.802.843 1.637 1.424 2.438.581.801 1.257 1.567 1.99 2.232.733.665 1.523 1.23 2.334 1.625.811.395 1.643.621 2.459.611-.414-.064-.73-.485-1.119-.713-.655-.383-1.294-.895-1.887-1.482-.593-.587-1.14-1.249-1.613-1.93-.67-.943-1.035-1.767-1.234-2.363-.2-.596-.236-.962-.252-.986l.018.006c-.448-1.417-.714-2.883-.877-4.381-.021-.335-.062-.699.059-.609.451.715 1.072.942 1.855 1.348-.371-.584-.642-1.211-.805-1.865-.162-.655-.215-1.337-.154-2.031.061-.697.288-1.382.607-2.02.32-.637.732-1.226 1.164-1.727.095-.109.239-.189.338-.297-.022-.164-.056-.325-.064-.488-.027-.503.03-.996.314-1.443.297-.568.65-1.282.99-1.883.062-.125.171-.252.236-.381.433-.848.905-1.764 1.559-2.508.041-.047.098-.072.141-.117" fill-rule="evenodd"/></g><g stroke-width=".71"><path d="m10.764 8.901c-.323.59-1.076.827-1.493.605-.426-.222-.424-.964-.094-1.554.318-.59 1.724-.325 1.731-.325.007 0 .179.686-.144 1.274" fill="#fff"/><path d="m8.849 11.592c0 0 .181-.175.087-.495-1.13.374-1.685-.708-1.681-.708.004 0-.847 2.229.169 3.239.088-.832 1.384-1.993 1.388-1.993" fill="#5c5f60"/></g>

   xmlns:dc="http://purl.org/dc/elements/1.1/"
   xmlns:cc="http://creativecommons.org/ns#"
   xmlns:rdf="http://www.w3.org/1999/02/22-rdf-syntax-ns#"
   xmlns:svg="http://www.w3.org/2000/svg"
   xmlns="http://www.w3.org/2000/svg"
   xmlns:xlink="http://www.w3.org/1999/xlink"
   xmlns:sodipodi="http://sodipodi.sourceforge.net/DTD/sodipodi-0.dtd"
   xmlns:inkscape="http://www.inkscape.org/namespaces/inkscape"
   version="1"
   width="32"
   height="32"
   id="svg12"
   sodipodi:docname="snow-top-4.svg"
   inkscape:version="0.92.1 r"&gt;
  <path d="m7.196.009c-8.161-.339-9.231 9.523-3.968 9.505.669.003 1.581-.197 2.929-1.471 3.773-4.147 9.01 4.479 14.696-1.042.61-.911 1.804-1.135 2.455-.627 1.045.677 2.87 2.991 3.88 3 2.359.513 4.095-.198 4.816-3.188.185-3.165-2.303-6.286-6.281-6.17-5.832.133-12.809-.045-18.527-.01" fill="url(#0)"/></svg>