<svg xmlns="http://www.w3.org/2000/svg" viewBox="0 0 32 32"><defs><linearGradient gradientTransform="matrix(2.54182 0 0 2.58531-153.47-277.37)" id="0" x1="67.894" y1="108.69" x2="67.854" y2="113.11" gradientUnits="userSpaceOnUse"><stop stop-color="#f9f9f9"/><stop offset="1" stop-color="#999"/></linearGradient></defs><rect width="28.2" height="28.2" x="1.898" y="1.898" fill="#7ec242" fill-rule="evenodd" rx="5.575"/><path d="m8.987177 7.481674a1.50015 1.50015 0 0 0 -1.046875 2.576172l5.941 5.939-5.939 5.939a1.50015 1.50015 0 1 0 2.121094 2.121094l5.939-5.939 5.938 5.939a1.500533 1.500533 0 1 0 2.123047 -2.121094l-5.939-5.939 5.939-5.939A1.50015 1.50015 0 0 0 22.973505 7.481674 1.50015 1.50015 0 0 0 21.942255 7.936752L16 13.876 10.06 7.937A1.50015 1.50015 0 0 0 8.987177 7.481674" fill="#fff" stroke-linejoin="round" stroke-linecap="round" stroke-width="3"/>

   xmlns:dc="http://purl.org/dc/elements/1.1/"
   xmlns:cc="http://creativecommons.org/ns#"
   xmlns:rdf="http://www.w3.org/1999/02/22-rdf-syntax-ns#"
   xmlns:svg="http://www.w3.org/2000/svg"
   xmlns="http://www.w3.org/2000/svg"
   xmlns:xlink="http://www.w3.org/1999/xlink"
   xmlns:sodipodi="http://sodipodi.sourceforge.net/DTD/sodipodi-0.dtd"
   xmlns:inkscape="http://www.inkscape.org/namespaces/inkscape"
   height="32"
   width="32"
   version="1"
   id="svg8"
   sodipodi:docname="snow-top-2.svg"
   inkscape:version="0.92.1 r"&gt;
  <path d="m24.646 6.111c2.995 2.684 1.381 7.817 3.674 8.291 2.031.613 3.541-1.385 3.66-4.503.35-8.627-3.911-9.427-6.879-9.524-28.342-2.047-1.762 4.92-.455 5.736" fill="url(#0)"/></svg>