<svg xmlns="http://www.w3.org/2000/svg" viewBox="0 0 32 32"><defs><linearGradient gradientTransform="matrix(2.62891 0 0 2.71269-160.16-291.42)" id="0" x1="67.894" y1="108.69" x2="67.854" y2="113.11" gradientUnits="userSpaceOnUse"><stop stop-color="#f9f9f9"/><stop offset="1" stop-color="#999"/></linearGradient></defs><rect width="28.2" height="28.2" x="1.898" y="1.898" fill="#4e6275" fill-rule="evenodd" rx="5.575"/><g transform="translate(-2.5-1.5)"><path d="m18.321 25.771c.506-.131 1.466-.4 1.878-.599.836-.403 1.801-.9 1.801-1.173-.531-.92-1.207-2.01-2-2.5.588-.38 1.12-.72 1-1.4 0 0-.197-.156.229-.485 1.75-1.756 4.337-3.898 5.271-5.983 0-.538-.306-.654-1.112-.632-.391.011-1.696-.014-2.9 0-2.174.025-2.984 0-2.984 0 0 0-2.273-.042-2.966.505-1.752 1.385-2.54 1.3-4.01 1.789-1.367.455-1.432-.194-1.432 3.056-.297 1.84.237 3.675-1.017 5.31-.153.201-.116.294.286.728.795.858 2.17 1.192 3.698 1.489 1.035.202 3.282.146 4.254-.106" fill="#d2943b"/><path d="m13.5 9c-2.5 0-4.5 2.287-4.5 4.799 0 1.081.379 2.473 1.01 3.253.139.356-.005.65-.009.729-.013.268.572.384 2.138-.122 1.811-.585 2.58-1.103 4.464-2.615.705-.566 1.366-1.301 2.154-1.662.683-.313 1.244-.366 1.244-.433 0-.7-.901-.835-1.4-.9h-.562c-.687-1.641-2.038-3.049-4.538-3.049" fill="#ffd548"/><circle cx="26.5" cy="13.5" r="1.5" fill="#efc286"/><path d="m17.15 21.831c-.569-.191-1.302-.709-1.868-1.322-.317-.343-.349-.425-.193-.499.116-.055.468.119.934.462.84.619 1.635.989 2.165 1.01.196.008.481.06.634.116.262.096.253.11-.166.261-.546.196-.853.191-1.505-.028" opacity=".2"/></g>

   xmlns:dc="http://purl.org/dc/elements/1.1/"
   xmlns:cc="http://creativecommons.org/ns#"
   xmlns:rdf="http://www.w3.org/1999/02/22-rdf-syntax-ns#"
   xmlns:svg="http://www.w3.org/2000/svg"
   xmlns="http://www.w3.org/2000/svg"
   xmlns:xlink="http://www.w3.org/1999/xlink"
   xmlns:sodipodi="http://sodipodi.sourceforge.net/DTD/sodipodi-0.dtd"
   xmlns:inkscape="http://www.inkscape.org/namespaces/inkscape"
   version="1"
   width="32"
   height="32"
   id="svg12"
   sodipodi:docname="snow-top-1.svg"
   inkscape:version="0.92.1 r"&gt;
  <path d="m7.288.009c-8.276-.356-9.36 9.992-4.02 9.973.679.003 1.604-.207 2.97-1.543 7.256-10.531 14.706 3.573 17.53.919 1.71-1.912 3.496-.418 4.448.115 2.1.643 3.662.041 3.785-3.231.188-3.321-1.889-6.344-5.923-6.223-5.914.14-12.989-.047-18.787-.01" fill="url(#0)"/><path fill="#f00" fill-opacity="0" d="m0 0h32v32h-32z"/></svg>