<svg xmlns="http://www.w3.org/2000/svg" xmlns:xlink="http://www.w3.org/1999/xlink" viewBox="0 0 32 32"><defs><linearGradient gradientTransform="matrix(2.59244 0 0 2.58531-157.93-277.73)" id="0" x1="67.894" y1="108.69" x2="67.854" y2="113.11" gradientUnits="userSpaceOnUse"><stop stop-color="#f9f9f9"/><stop offset="1" stop-color="#999"/></linearGradient></defs><g fill-rule="evenodd"><g fill="#bcedf7"><rect width="28.2" height="28.2" x="1.899" y="1.898" rx="5.575"/><path d="m7.474 1.898c-3.089 0-5.576 2.486-5.576 5.574v10.713c1-.207 2.15-.503 2.979-.602 1.52-.181 2.773-.192 3.865-.086 1.093.106 2.025.331 2.902.625.877.294 1.7.657 2.574 1.039.874.382 1.799.782 2.881 1.152 1.082.37 2.321.71 3.822.969 1.502.258 3.266.435 5.398.482 1.06.023 2.528-.103 3.783-.15v-14.14c0-3.089-2.488-5.574-5.576-5.574z"/></g><path d="m22.604 5.98c2.196 0 3.976 1.78 3.976 3.976 0 2.196-1.78 3.976-3.976 3.976-2.196 0-3.976-1.78-3.976-3.976 0-2.196 1.78-3.976 3.976-3.976" fill="#fff" stroke-width=".994"/></g><g transform="matrix(.71383 0 0 .71383 50.771 11.736)" stroke-width="1.401"><path fill="#986005" d="m-50.37 11.932h1.288v1.932h-1.288z" id="1"/><path d="m-46.941 12.676h-5.449l2.724-4.719z" fill="#74a10d" id="2"/><path d="m-47.37 11.02h-4.682l2.341-4.055z" fill="#98c305" id="3"/><path d="m-47.792 9.162h-3.723l1.862-3.224z" fill="#addb1e" id="4"/></g><path d="m19.317 20.559c-4.917.449-8.675 3.143-14.438 2.848-1.179-.108-2.151-.334-2.982-.646v1.768c0 .631.1 1.234.291 1.799.939-.5 1.937-.923 2.861-1.15 1.043-.257 2.082-.365 3.127-.377 2.09-.024 4.207.336 6.439.646 1.116.155 2.26.299 3.445.377 1.185.078 2.41.089 3.686-.018 1.276-.107 2.603-.331 3.992-.73 1.389-.399 2.839-.971 4.363-1.77-4.469-2.476-7.835-3.02-10.785-2.746" fill="#97c607" fill-rule="evenodd"/><g transform="matrix(1.80743 0 0 1.80743 98.44.632)" stroke-width=".553"><use xlink:href="#1"/><use xlink:href="#2"/><use xlink:href="#3"/><use xlink:href="#4"/></g><path d="m30.1 23.305c-1.524.799-2.974 1.37-4.363 1.77-1.389.399-2.716.624-3.992.73-1.276.107-2.501.096-3.686.018-1.185-.078-2.329-.222-3.445-.377-2.232-.311-4.349-.67-6.439-.646-1.045.012-2.084.12-3.127.377-.924.228-1.922.651-2.861 1.15.746 2.2 2.827 3.775 5.285 3.775h17.05c3.089 0 5.576-2.486 5.576-5.574z" fill="#74a10d" fill-rule="evenodd"/>

   xmlns:dc="http://purl.org/dc/elements/1.1/"
   xmlns:cc="http://creativecommons.org/ns#"
   xmlns:rdf="http://www.w3.org/1999/02/22-rdf-syntax-ns#"
   xmlns:svg="http://www.w3.org/2000/svg"
   xmlns="http://www.w3.org/2000/svg"
   xmlns:xlink="http://www.w3.org/1999/xlink"
   xmlns:sodipodi="http://sodipodi.sourceforge.net/DTD/sodipodi-0.dtd"
   xmlns:inkscape="http://www.inkscape.org/namespaces/inkscape"
   version="1"
   width="32"
   height="32"
   id="svg12"
   sodipodi:docname="snow-top-4.svg"
   inkscape:version="0.92.1 r"&gt;
  <path d="m7.196.009c-8.161-.339-9.231 9.523-3.968 9.505.669.003 1.581-.197 2.929-1.471 3.773-4.147 9.01 4.479 14.696-1.042.61-.911 1.804-1.135 2.455-.627 1.045.677 2.87 2.991 3.88 3 2.359.513 4.095-.198 4.816-3.188.185-3.165-2.303-6.286-6.281-6.17-5.832.133-12.809-.045-18.527-.01" fill="url(#0)"/></svg>