<svg xmlns="http://www.w3.org/2000/svg" xmlns:xlink="http://www.w3.org/1999/xlink" viewBox="0 0 32 32"><defs><radialGradient id="0" gradientUnits="userSpaceOnUse" gradientTransform="matrix(3.84537-.04602.03085 2.57762 117.31-32.946)" cx="-27.763" cy="19.764" r="14.1"><stop stop-color="#ff7730"/><stop offset="1" stop-color="#8e80cb" stop-opacity="0"/></radialGradient></defs><g fill-rule="evenodd"><g fill="#a77da8"><rect width="28.2" height="28.2" x="1.899" y="1.898" rx="5.575"/><path d="m7.474 1.898c-3.089 0-5.576 2.486-5.576 5.574v10.713c1-.207 2.15-.503 2.979-.602 1.52-.181 2.773-.192 3.865-.086 1.093.106 2.025.331 2.902.625.877.294 1.7.657 2.574 1.039.874.382 1.799.782 2.881 1.152 1.082.37 2.321.71 3.822.969 1.502.258 3.266.435 5.398.482 1.06.023 2.528-.103 3.783-.15v-14.14c0-3.089-2.488-5.574-5.576-5.574z"/></g><rect width="28.2" height="28.2" x="1.899" y="1.898" fill="url(#0)" rx="5.575"/><path d="m13.264879 29.470083a8.338983 8.338983 0 0 0 .230469 -.203125 8.338983 8.338983 0 0 0 .56836 -.609375 8.338983 8.338983 0 0 0 .505859 -.664062 8.338983 8.338983 0 0 0 .435547 -.710938 8.338983 8.338983 0 0 0 .361328 -.75 8.338983 8.338983 0 0 0 .287109 -.783203 8.338983 8.338983 0 0 0 .205078 -.808594 8.338983 8.338983 0 0 0 .125 -.824218 8.338983 8.338983 0 0 0 .04102 -.832032 8.338983 8.338983 0 0 0 -.01953 -.589843 8.338983 8.338983 0 0 0 -.101563 -.828125 8.338983 8.338983 0 0 0 -.18164 -.8125 8.338983 8.338983 0 0 0 -.263672 -.791016 8.338983 8.338983 0 0 0 -.339844 -.759766 8.338983 8.338983 0 0 0 -.414063 -.724609 8.338983 8.338983 0 0 0 -.486328 -.677734 8.338983 8.338983 0 0 0 -.548828 -.625 8.338983 8.338983 0 0 0 -.611328 -.56836 8.338983 8.338983 0 0 0 -.662109 -.505859 8.338983 8.338983 0 0 0 -.710938 -.435547 8.338983 8.338983 0 0 0 -.751953 -.361328 8.338983 8.338983 0 0 0 -.78125 -.287109 8.338983 8.338983 0 0 0 -.808594 -.205079 8.338983 8.338983 0 0 0 -.824218 -.125 8.338983 8.338983 0 0 0 -.832032 -.04101 8.338983 8.338983 0 0 0 -.589843 .01953 8.338983 8.338983 0 0 0 -.828125 .101563 8.338983 8.338983 0 0 0 -.812496 .18164 8.338983 8.338983 0 0 0 -.79102 .263672 8.338983 8.338983 0 0 0 -.76172 .339844 8.338983 8.338983 0 0 0 -.72266 .414062 8.338983 8.338983 0 0 0 -.67773 .486328 8.338983 8.338983 0 0 0 -.5957 .521485v6.619c0 3.089 2.486 5.576 5.574 5.576z" opacity=".977" fill="#fff"/></g><g transform="matrix(.71383 0 0 .71383 52.41 11.294)" stroke-width="1.401"><path fill="#986005" d="m-50.37 11.932h1.288v1.932h-1.288z" id="1"/><path d="m-46.941 12.676h-5.449l2.724-4.719z" fill="#74a10d" id="2"/><path d="m-47.37 11.02h-4.682l2.341-4.055z" fill="#98c305" id="3"/><path d="m-47.792 9.162h-3.723l1.862-3.224z" fill="#addb1e" id="4"/></g><path d="m19.317 20.559c-4.917.449-8.675 3.143-14.437 2.848-1.179-.108-2.151-.334-2.982-.646v1.768c0 .631.166 1.211.357 1.775.939-.5 1.871-.899 2.795-1.127 1.043-.257 2.082-.365 3.127-.377 2.09-.024 4.207.336 6.439.646 1.116.155 2.26.299 3.445.377 1.185.078 2.41.089 3.686-.018 1.276-.107 2.603-.331 3.992-.73 1.389-.399 2.839-.971 4.363-1.77-4.469-2.476-7.835-3.02-10.785-2.746" fill="#97c607" fill-rule="evenodd"/><g transform="matrix(1.80743 0 0 1.80743 113.4.638)" stroke-width=".553"><use xlink:href="#1"/><use xlink:href="#2"/><use xlink:href="#3"/><use xlink:href="#4"/></g><path d="m30.1 23.305c-1.524.799-2.974 1.37-4.363 1.77-1.389.399-2.716.624-3.992.73-1.276.107-2.501.096-3.686.018-1.185-.078-2.329-.222-3.445-.377-2.232-.311-4.349-.67-6.439-.646-1.045.012-2.084.12-3.127.377-.924.228-1.856.627-2.795 1.127.746 2.2 2.761 3.799 5.219 3.799h17.05c3.089 0 5.576-2.486 5.576-5.574z" fill="#74a10d" fill-rule="evenodd"/>

   xmlns:dc="http://purl.org/dc/elements/1.1/"
   xmlns:cc="http://creativecommons.org/ns#"
   xmlns:rdf="http://www.w3.org/1999/02/22-rdf-syntax-ns#"
   xmlns:svg="http://www.w3.org/2000/svg"
   xmlns="http://www.w3.org/2000/svg"
   xmlns:sodipodi="http://sodipodi.sourceforge.net/DTD/sodipodi-0.dtd"
   xmlns:inkscape="http://www.inkscape.org/namespaces/inkscape"
   height="32"
   width="32"
   version="1"
   id="svg8"
   sodipodi:docname="star-mime-2.svg"
   inkscape:version="0.92.1 r"&gt;
  <g transform="translate(152.47 194.05)" fill="#fff"><path d="m-125.38-193.25l-.077 3.548 3.072 1.831-3.548-.077-3.135 6.791 1.38-7.268-3.072-1.831 3.548.077z"/><path d="m-125.41-183.04l.042-1.955-1.692-1.01 1.955.042 1.727-3.741-.76 4 1.692 1.01-1.955-.042z"/></g></svg>