<svg xmlns="http://www.w3.org/2000/svg" xmlns:xlink="http://www.w3.org/1999/xlink" viewBox="0 0 32 32"><defs><linearGradient id="5" x1="-189.8" y1="-142.57" x2="-175.35" y2="-130.4" gradientUnits="userSpaceOnUse"><stop stop-color="#ff383f"/><stop offset="1" stop-color="#a02d26"/></linearGradient><linearGradient xlink:href="#4" id="3" x1="-188.02" y1="-134.18" x2="-190.66" y2="-126.24" gradientUnits="userSpaceOnUse"/><linearGradient id="4"><stop stop-color="#f9f9f9"/><stop offset="1" stop-color="#999"/></linearGradient><linearGradient id="6" x1="-178.12" y1="-134.12" x2="-183.59" y2="-135.1" gradientUnits="userSpaceOnUse"><stop stop-color="#7c0000"/><stop offset="1" stop-color="#7c0000" stop-opacity="0"/></linearGradient><radialGradient id="1" gradientUnits="userSpaceOnUse" gradientTransform="matrix(3.84537-.04602.03085 2.57762 108.92-1.213)" cx="-27.763" cy="19.764" r="14.1"><stop stop-color="#ff7730"/><stop offset="1" stop-color="#8e80cb" stop-opacity="0"/></radialGradient><radialGradient id="2" cx="-23.55" cy="10.598" r="14.1" gradientUnits="userSpaceOnUse" gradientTransform="matrix(1.3456-.05032.05356 1.43226 30.359 37.628)"><stop stop-color="#ffff1d"/><stop offset="1" stop-color="#ffff6f" stop-opacity="0"/></radialGradient><radialGradient xlink:href="#4" id="7" cx="-176.59" cy="-120.91" r="3.01" gradientUnits="userSpaceOnUse" gradientTransform="matrix(2.21087.05719-.05496 2.12455 207.3 145.17)"/></defs><g transform="translate(8.399-31.733)"><g fill-rule="evenodd"><g fill="#a77da8"><rect y="33.631" x="-6.5" height="28.2" width="28.2" rx="5.575"/><path d="m-.925 33.631c-3.089 0-5.576 2.486-5.576 5.574v10.713c1-.207 2.15-.503 2.979-.602 1.52-.181 2.773-.192 3.865-.086 1.093.106 2.025.331 2.902.625.877.294 1.7.657 2.574 1.039.874.382 1.799.782 2.881 1.152 1.082.37 2.321.71 3.822.969 1.502.258 3.266.435 5.398.482 1.06.023 2.528-.103 3.783-.15v-14.14c0-3.089-2.488-5.574-5.576-5.574z"/></g><rect y="33.631" x="-6.5" height="28.2" width="28.2" fill="url(#1)" rx="5.575"/><rect y="33.631" x="-6.5" height="28.2" width="28.2" opacity=".977" fill="url(#2)" rx="5.575"/><path d="m4.866276 61.20321a8.338983 8.338983 0 0 0 .230469 -.203125 8.338983 8.338983 0 0 0 .56836 -.609375 8.338983 8.338983 0 0 0 .505859 -.664062 8.338983 8.338983 0 0 0 .435547 -.710938 8.338983 8.338983 0 0 0 .361328 -.75 8.338983 8.338983 0 0 0 .287109 -.783203 8.338983 8.338983 0 0 0 .205078 -.808594 8.338983 8.338983 0 0 0 .125 -.824218 8.338983 8.338983 0 0 0 .04102 -.832032 8.338983 8.338983 0 0 0 -.01953 -.589843 8.338983 8.338983 0 0 0 -.101563 -.828125 8.338983 8.338983 0 0 0 -.18164 -.8125 8.338983 8.338983 0 0 0 -.263672 -.791016 8.338983 8.338983 0 0 0 -.339844 -.759766 8.338983 8.338983 0 0 0 -.414063 -.724609 8.338983 8.338983 0 0 0 -.486328 -.677734 8.338983 8.338983 0 0 0 -.548828 -.625 8.338983 8.338983 0 0 0 -.611328 -.56836 8.338983 8.338983 0 0 0 -.662109 -.505859 8.338983 8.338983 0 0 0 -.710938 -.435547 8.338983 8.338983 0 0 0 -.751953 -.361328 8.338983 8.338983 0 0 0 -.78125 -.287109 8.338983 8.338983 0 0 0 -.808594 -.205079 8.338983 8.338983 0 0 0 -.824218 -.125 8.338983 8.338983 0 0 0 -.832032 -.04101 8.338983 8.338983 0 0 0 -.589843 .01953 8.338983 8.338983 0 0 0 -.828125 .101563 8.338983 8.338983 0 0 0 -.812496 .18164 8.338983 8.338983 0 0 0 -.79102 .263672 8.338983 8.338983 0 0 0 -.76172 .339844 8.338983 8.338983 0 0 0 -.72266 .414062 8.338983 8.338983 0 0 0 -.67773 .486328 8.338983 8.338983 0 0 0 -.5957 .521485v6.619c0 3.089 2.486 5.576 5.574 5.576z" opacity=".977" fill="#fff"/></g><g transform="matrix(.71383 0 0 .71383 44.01 43.03)" stroke-width="1.401"><path fill="#986005" d="m-50.37 11.932h1.288v1.932h-1.288z" id="8"/><path d="m-46.941 12.676h-5.449l2.724-4.719z" fill="#74a10d" id="9"/><path d="m-47.37 11.02h-4.682l2.341-4.055z" fill="#98c305" id="A"/><path d="m-47.792 9.162h-3.723l1.862-3.224z" fill="#addb1e" id="B"/></g><path d="m10.918 52.29c-4.917.449-8.675 3.143-14.438 2.848-1.179-.108-2.151-.334-2.982-.646v1.768c0 .631.166 1.211.357 1.775.939-.5 1.871-.899 2.795-1.127 1.043-.257 2.082-.365 3.127-.377 2.09-.024 4.207.336 6.439.646 1.116.155 2.26.299 3.445.377 1.185.078 2.41.089 3.686-.018 1.276-.107 2.603-.331 3.992-.73 1.389-.399 2.839-.971 4.363-1.77-4.469-2.476-7.835-3.02-10.785-2.746" fill="#97c607" fill-rule="evenodd"/><g transform="matrix(1.80743 0 0 1.80743 105 32.371)" stroke-width=".553"><use xlink:href="#8"/><use xlink:href="#9"/><use xlink:href="#A"/><use xlink:href="#B"/></g><path d="m21.704 55.04c-1.524.799-2.974 1.37-4.363 1.77-1.389.399-2.716.624-3.992.73-1.276.107-2.501.096-3.686.018-1.185-.078-2.329-.222-3.445-.377-2.232-.311-4.349-.67-6.439-.646-1.045.012-2.084.12-3.127.377-.924.228-1.856.627-2.795 1.127.746 2.2 2.761 3.799 5.219 3.799h17.05c3.089 0 5.576-2.486 5.576-5.574z" fill="#74a10d" fill-rule="evenodd"/></g><path d="m32 .157l-.27 2.221-.122-2.378" fill="#f9f9f9" id="0"/><use xlink:href="#0"/><path d="m32 .113l-.27 1.6-.122-1.713" fill="#f9f9f9"/><g transform="matrix(-1 0 0 1-172.76 143.72)"><path d="m-190.09-143.27c-5.577-1.531-5.951 3.24-4.58 5.493 4.381 6.983 6.796 6.577 9.398 7.895 1.712 2.064 3.451 3.4 6.469 4.1 11.69 1.559 3.242-8.417.92-8.649-5.065.012-7.547-6.123-12.206-8.838" fill="url(#3)"/><path d="m-190.09-143.27c3.76.276 5.616-.626 8.93-.421 4.319.283 8.307 2.053 7.838 6.574-.347 2.567-.37 2.25.186 4.296.532 1.535-.252 4.232-.487 4.654-2.715 4.963-1.536 4.965-2.656 7.742l-.906-.418-2.508-11.358c-7.177-.909-10.754-10.11-10.398-11.07" fill="url(#5)"/><path d="m-183.3-133.33c.362.274 1.553-5.105 1.172-5.653 1.379 2.44 1.919 4.616 2.435 6.783-1.276-.283-2.289-.554-3.607-1.13" fill="url(#6)"/><circle r="3.01" cy="-120.11" cx="-176.61" fill="url(#7)"/></g></svg>