<svg xmlns="http://www.w3.org/2000/svg" xmlns:xlink="http://www.w3.org/1999/xlink" viewBox="0 0 32 32"><defs><linearGradient id="4" x1="-178.12" y1="-134.12" x2="-183.59" y2="-135.1" gradientUnits="userSpaceOnUse"><stop stop-color="#7c0000"/><stop offset="1" stop-color="#7c0000" stop-opacity="0"/></linearGradient><linearGradient id="3" x1="-189.8" y1="-142.57" x2="-175.35" y2="-130.4" gradientUnits="userSpaceOnUse"><stop stop-color="#ff383f"/><stop offset="1" stop-color="#a02d26"/></linearGradient><linearGradient id="2"><stop stop-color="#f9f9f9"/><stop offset="1" stop-color="#999"/></linearGradient><linearGradient xlink:href="#2" id="1" x1="-188.02" y1="-134.18" x2="-190.66" y2="-126.24" gradientUnits="userSpaceOnUse"/><radialGradient xlink:href="#2" id="5" cx="-176.59" cy="-120.91" r="3.01" gradientUnits="userSpaceOnUse" gradientTransform="matrix(2.21087.05719-.05496 2.12455 207.3 145.17)"/></defs><g fill-rule="evenodd"><rect width="28.2" height="28.2" x="1.898" y="1.898" fill="#f8d7ae" rx="5.575"/><path d="m21.999 9c-1.745 0-2.728.906-3.143 1.787-.414.881-.357 1.742-.357 1.742l1-.058c0 0-.03-.639.262-1.258.291-.62.808-1.213 2.238-1.213 1.43 0 1.947.593 2.238 1.213.292.619.262 1.258.262 1.258l1 .058c0 0 .057-.861-.357-1.742-.415-.88-1.398-1.787-3.143-1.787m0 3a.5 .5 0 0 0 -.5 .5 .5 .5 0 0 0 .5 .5 .5 .5 0 0 0 .5 -.5 .5 .5 0 0 0 -.5 -.5m-11.998 1c-1.745 0-2.728.907-3.143 1.787-.415.881-.357 1.742-.357 1.742v6.471h1v-6.529c0 0-.03-.639.262-1.258.292-.62.809-1.213 2.238-1.213 1.429 0 1.946.593 2.238 1.213.292.619.262 1.258.262 1.258v6.529h1v-6.529c0 0-.03-.639.262-1.258.291-.62.808-1.213 2.238-1.213 1.429 0 1.946.593 2.238 1.213.292.619.262 1.258.262 1.258v.013l-.002 2.02v.971c0 0-.057.861.357 1.742.415.88 1.398 1.787 3.143 1.787 1.745 0 2.728-.907 3.143-1.787.414-.881.357-1.742.357-1.742v-6.471h-1v6.529c0 0 .03.639-.262 1.258-.291.62-.808 1.213-2.238 1.213-1.43 0-1.947-.593-2.238-1.213-.292-.619-.262-1.258-.262-1.258v-1.029l.002-1.971c0 0 .057-.861-.357-1.742-.415-.88-1.398-1.787-3.143-1.787-1.573 0-2.524.737-3 1.527-.476-.79-1.427-1.527-3-1.527" fill="#2a567b"/></g><path d="m32 .157l-.27 2.221-.122-2.378" fill="#f9f9f9" id="0"/><use xlink:href="#0"/><path d="m32 .113l-.27 1.6-.122-1.713" fill="#f9f9f9"/><g transform="matrix(-1 0 0 1-172.76 143.72)"><path d="m-190.09-143.27c-5.577-1.531-5.951 3.24-4.58 5.493 4.381 6.983 6.796 6.577 9.398 7.895 1.712 2.064 3.451 3.4 6.469 4.1 11.69 1.559 3.242-8.417.92-8.649-5.065.012-7.547-6.123-12.206-8.838" fill="url(#1)"/><path d="m-190.09-143.27c3.76.276 5.616-.626 8.93-.421 4.319.283 8.307 2.053 7.838 6.574-.347 2.567-.37 2.25.186 4.296.532 1.535-.252 4.232-.487 4.654-2.715 4.963-1.536 4.965-2.656 7.742l-.906-.418-2.508-11.358c-7.177-.909-10.754-10.11-10.398-11.07" fill="url(#3)"/><path d="m-183.3-133.33c.362.274 1.553-5.105 1.172-5.653 1.379 2.44 1.919 4.616 2.435 6.783-1.276-.283-2.289-.554-3.607-1.13" fill="url(#4)"/><circle r="3.01" cy="-120.11" cx="-176.61" fill="url(#5)"/></g></svg>