<svg xmlns="http://www.w3.org/2000/svg" xmlns:xlink="http://www.w3.org/1999/xlink" viewBox="0 0 32 32"><defs><linearGradient xlink:href="#3" id="4" gradientUnits="userSpaceOnUse" x1="-23.24" y1="-185.08" x2="-28.704" y2="-186.05"/><linearGradient xlink:href="#3" id="2" gradientUnits="userSpaceOnUse" x1="-34.914" y1="-193.53" x2="-20.469" y2="-181.36"/><linearGradient id="3"><stop stop-color="#ffff5e"/><stop offset="1" stop-color="#f6a32d"/></linearGradient><linearGradient id="1"><stop stop-color="#f9f9f9"/><stop offset="1" stop-color="#999"/></linearGradient><linearGradient xlink:href="#1" id="0" gradientUnits="userSpaceOnUse" x1="-33.14" y1="-185.13" x2="-35.775" y2="-177.2"/><radialGradient xlink:href="#1" id="5" cx="-176.59" cy="-120.91" r="3.01" gradientUnits="userSpaceOnUse" gradientTransform="matrix(2.21087.05719-.05496 2.12455 362.18 94.22)"/></defs><rect width="28.2" height="28.2" x="1.898" y="1.898" fill="#26557c" fill-rule="evenodd" rx="5.575"/><path d="m7.525 7c-.782-.017-1.149.524-.988 1.457.052.301.315.73.883 1.441.631.791.885 1.223 1.16 1.971.434 1.179.634 1.575.986 1.943.274.287.274.288.09.872-.285.905-.344 2.72-.115 3.574.342 1.277.764 1.857 1.352 1.857.419 0 .763-.351.886-.904.043-.192.123-.466.178-.609.095-.248.121-.229.494.38.216.353.629.879.916 1.168.664.669 1.575 1.422 1.641 1.358.028-.027-.238-.422-.59-.879-.352-.457-1.015-1.519-1.475-2.359-.536-.981-.899-1.529-1.013-1.53-.371-.002-.716.58-.916 1.547-.231 1.114-.637.927-.967-.445-.19-.791-.091-1.856.264-2.854.161-.453.293-.873.293-.931 0-.058-.258-.544-.573-1.08-.315-.537-.685-1.297-.822-1.69-.333-.954-.491-1.232-1.158-2.043-.688-.835-.753-1.22-.205-1.217.425.003 1.112.29 1.802.754.438.294.586.334 1.288.334.881 0 1.07.072 2.293.877 1.244.82 2.172 1.582 2.814 2.313.57.649.882 1.214 2.561 4.656.644 1.321 1.215 1.959 2 2.232 1.218.422 1.632.613 2.168.998l.567.407-.381.074c-.21.04-.669.106-1.018.146-.727.084-1.203.386-1.203.764 0 .426 1.451 1.645 2.906 2.441.7.383 1.372.76 1.495.838.326.21.414.184.33-.091-.177-.578-.773-1.14-2.43-2.295-.972-.678-.982-.653.316-.782.926-.092 1.393-.25 1.393-.472 0-.102-.47-.644-1.045-1.203-.9-.877-1.204-1.094-2.195-1.577-1.35-.656-1.842-1.177-2.153-2.283-.464-1.65-1.712-3.587-3.371-5.23-1.712-1.697-3.347-2.635-4.845-2.782-.609-.06-.924-.152-1.239-.365-.533-.361-1.772-.768-2.377-.781m2.963 3c-.122-.008-.229.008-.302.059-.274.187-.241.415.08.556.151.067.365.302.476.522.375.739.95.244.694-.598-.081-.265-.58-.515-.948-.539" fill="#fff"/><g transform="translate(49.877 194.68)"><path d="m-35.21-194.22c-5.577-1.531-5.951 3.24-4.58 5.493 4.381 6.983 6.796 6.577 9.398 7.895 1.712 2.064 3.451 3.4 6.469 4.1 11.69 1.559 3.242-8.417.92-8.649-5.065.012-7.547-6.123-12.206-8.838" fill="url(#0)"/><path d="m-35.21-194.22c3.76.276 5.616-.626 8.93-.421 4.319.283 8.307 2.053 7.838 6.574-.347 2.567-.37 2.25.186 4.296.532 1.535-.252 4.232-.487 4.654-2.715 4.963-1.536 4.965-2.656 7.742l-.906-.418-2.508-11.358c-7.177-.909-10.754-10.11-10.398-11.07" fill="url(#2)"/><path d="m-28.419-184.29c.362.274 1.553-5.105 1.172-5.653 1.379 2.44 1.919 4.616 2.435 6.783-1.276-.283-2.289-.554-3.607-1.13" fill="url(#4)"/><circle r="3.01" cy="-171.07" cx="-21.728" fill="url(#5)"/></g></svg>