<svg xmlns="http://www.w3.org/2000/svg" viewBox="0 0 32 32"><defs><linearGradient gradientTransform="matrix(2.59244 0 0 2.58531-157.93-277.73)" id="0" x1="67.894" y1="108.69" x2="67.854" y2="113.11" gradientUnits="userSpaceOnUse"><stop stop-color="#f9f9f9"/><stop offset="1" stop-color="#999"/></linearGradient></defs><rect width="28.2" height="28.2" x="1.898" y="1.898" fill="#40a000" fill-rule="evenodd" rx="5.575"/><path d="m16.608 13.663c-1.875-.099-4.02.209-5.427 1.341-2.283 1.83-3.355 4.568-2.153 7.75.351.928 1.656 1.751 2.881 2.418 5.082 1.905 10.08-.26 12.846-3.593.949-1.17.36-2.514-.206-3.292-1.708-2.345-3.899-4.411-7.94-4.624m-.814-7.546c-3.139-.03-6.331 1.729-7.919 3.808-1.304 1.708-2.302 3.431-2.519 5.502h.001c.054 1.177.657 1.962 2.02 2.02.37.016.741.023 1.112.032.449-1.154 1.177-2.263 2.246-2.994 1.662-1.136 3.845-1.539 5.833-1.458.331.014.658.04.976.08.221-1.624.522-3.259.454-4.909-.055-1.321-1.223-2.054-2.204-2.083m6.274 2.39c-.888 1.767-1.873 3.365-2.834 4.972 2.295.716 4.345 2.335 5.775 4.555.132.204.238.401.327.594.648-.093 1.01-.694 1.108-1.363.714-4.672-.598-7.02-2.294-8.942-.79-.887-1.486-.964-2.082.184" fill="#fff"/>

   xmlns:dc="http://purl.org/dc/elements/1.1/"
   xmlns:cc="http://creativecommons.org/ns#"
   xmlns:rdf="http://www.w3.org/1999/02/22-rdf-syntax-ns#"
   xmlns:svg="http://www.w3.org/2000/svg"
   xmlns="http://www.w3.org/2000/svg"
   xmlns:xlink="http://www.w3.org/1999/xlink"
   xmlns:sodipodi="http://sodipodi.sourceforge.net/DTD/sodipodi-0.dtd"
   xmlns:inkscape="http://www.inkscape.org/namespaces/inkscape"
   version="1"
   width="32"
   height="32"
   id="svg12"
   sodipodi:docname="snow-top-4.svg"
   inkscape:version="0.92.1 r"&gt;
  <path d="m7.196.009c-8.161-.339-9.231 9.523-3.968 9.505.669.003 1.581-.197 2.929-1.471 3.773-4.147 9.01 4.479 14.696-1.042.61-.911 1.804-1.135 2.455-.627 1.045.677 2.87 2.991 3.88 3 2.359.513 4.095-.198 4.816-3.188.185-3.165-2.303-6.286-6.281-6.17-5.832.133-12.809-.045-18.527-.01" fill="url(#0)"/></svg>