<svg xmlns="http://www.w3.org/2000/svg" viewBox="0 0 32 32" xmlns:xlink="http://www.w3.org/1999/xlink"><defs><linearGradient xlink:href="#3" id="4" x1="-227.98" y1="-131.26" x2="-234.8" y2="-134.14" gradientUnits="userSpaceOnUse"/><linearGradient xlink:href="#3" id="2" x1="-241.01" y1="-141.61" x2="-226.57" y2="-129.44" gradientUnits="userSpaceOnUse"/><linearGradient id="3"><stop stop-color="#13a9ea"/><stop offset="1" stop-color="#372db5"/></linearGradient><linearGradient id="1"><stop stop-color="#f9f9f9"/><stop offset="1" stop-color="#999"/></linearGradient><linearGradient xlink:href="#1" id="0" x1="-239.23" y1="-133.21" x2="-241.87" y2="-125.28" gradientUnits="userSpaceOnUse"/><radialGradient xlink:href="#1" id="5" cx="-176.59" cy="-120.91" r="3.01" gradientUnits="userSpaceOnUse" gradientTransform="matrix(2.21087.05719-.05496 2.12455 156.08 146.14)"/></defs><rect width="28.2" height="28.2" x="1.898" y="1.898" fill="#10a0b0" fill-rule="evenodd" rx="5.575"/><path d="m16.614 13.64c-1.893-.1-4.054.211-5.48 1.354-2.305 1.848-3.388 4.612-2.174 7.825.354.937 1.672 1.768 2.909 2.442 5.131 1.923 10.18-.263 12.97-3.628.958-1.181.364-2.539-.208-3.324-1.725-2.368-3.937-4.454-8.02-4.669m-.822-7.619c-3.169-.031-6.393 1.745-7.996 3.845-1.317 1.724-2.324 3.464-2.544 5.555h.001c.055 1.188.663 1.981 2.039 2.04.374.016.748.023 1.122.032.453-1.165 1.188-2.285 2.267-3.02 1.678-1.147 3.882-1.554 5.89-1.472.335.014.665.041.985.081.223-1.64.527-3.29.458-4.957-.055-1.334-1.235-2.074-2.225-2.103m6.335 2.413c-.897 1.784-1.891 3.398-2.862 5.02 2.317.723 4.387 2.357 5.831 4.599.133.206.24.405.33.6.654-.094 1.016-.701 1.119-1.376.721-4.717-.603-7.091-2.317-9.03-.798-.896-1.5-.973-2.102.186" fill="#fff"/><g transform="matrix(-1 0 0 1-223.97 142.77)"><g fill="#f9f9f9"><path d="m-228.95-129.3l-.27 2.221-.122-2.378z"/><path d="m-228.66-130.01l-.27 2.221-.122-2.378z"/><path d="m-228.43-129.95l-.27 1.6-.122-1.713z"/></g><path d="m-241.31-142.31c-5.577-1.531-5.951 3.24-4.58 5.493 4.381 6.983 6.796 6.577 9.398 7.895 1.712 2.064 3.451 3.4 6.469 4.1 11.69 1.559 3.242-8.417.92-8.649-5.065.012-7.547-6.123-12.206-8.838" fill="url(#0)"/><path d="m-241.31-142.31c3.76.276 5.616-.626 8.93-.421 4.319.283 8.307 2.053 7.838 6.574-.347 2.567-.37 2.25.186 4.296.532 1.535-.252 4.232-.487 4.654-2.715 4.963-1.536 4.965-2.656 7.742l-.906-.418-2.508-11.358c-7.177-.909-10.754-10.11-10.398-11.07" fill="url(#2)"/><path d="m-234.52-132.37c.362.274 1.553-5.105 1.172-5.653 1.379 2.44 1.919 4.616 2.435 6.783-1.276-.283-2.289-.554-3.607-1.13" fill="url(#4)"/><circle r="3.01" cy="-119.15" cx="-227.83" fill="url(#5)"/></g></svg>