<svg xmlns="http://www.w3.org/2000/svg" viewBox="0 0 32 32"><defs><linearGradient gradientTransform="matrix(-2.65552 0 0 2.58531 193.77-277.73)" id="0" x1="67.894" y1="108.69" x2="67.854" y2="113.11" gradientUnits="userSpaceOnUse"><stop stop-color="#f9f9f9"/><stop offset="1" stop-color="#999"/></linearGradient></defs><rect width="28.2" height="28.2" x="1.898" y="1.898" fill="#e32e2e" fill-rule="evenodd" rx="5.575"/><path d="m13.169 8.46c-4.94 2.287-6.26 6.03-5.386 9.864 1.992 8.74 8.758 7.083 9.934 6.886 1.949-.327 5.843-1.258 6.628-6.12.802-4.968-2.439-6.934-4.393-7.365-2.455-.542-4.468-.199-5.583 1.531-1.035 1.606-1.121 3.59-.468 4.922.596 1.216 1.151 1.261 2.075 1.282 3.183.071 3.615-1.388 3.267-3.251-.804-3.964-2.661-5.088-2.022-8.151.653-2.063 2.799-1.776 4.248-.598" fill="none" stroke="#fff" stroke-linejoin="round" stroke-linecap="round" stroke-width="3"/>

   xmlns:dc="http://purl.org/dc/elements/1.1/"
   xmlns:cc="http://creativecommons.org/ns#"
   xmlns:rdf="http://www.w3.org/1999/02/22-rdf-syntax-ns#"
   xmlns:svg="http://www.w3.org/2000/svg"
   xmlns="http://www.w3.org/2000/svg"
   xmlns:xlink="http://www.w3.org/1999/xlink"
   xmlns:sodipodi="http://sodipodi.sourceforge.net/DTD/sodipodi-0.dtd"
   xmlns:inkscape="http://www.inkscape.org/namespaces/inkscape"
   version="1"
   width="32"
   height="32"
   id="svg12"
   sodipodi:docname="snow-top-3.svg"
   inkscape:version="0.92.1 r"&gt;
  <path d="m24.627.009c8.36-.339 9.455 9.523 4.064 9.505-.686.003-1.62-.197-3-1.471-14.665-10.216-14.549 2.967-17.708.875-1.727-1.822-1.743 4.653-4.139 5.127-2.122.613-3.699-1.385-3.824-4.503-.366-8.627 4.086-9.427 7.187-9.524 5.974.133 11.562-.045 17.419-.01" fill="url(#0)"/></svg>