<svg xmlns="http://www.w3.org/2000/svg" viewBox="0 0 32 32"><rect width="28.2" height="28.2" x="1.898" y="1.898" fill="#5294e2" fill-rule="evenodd" rx="5.575"/><path d="m16 7.371c-4.766 0-8.629 3.863-8.629 8.629 0 4.766 3.863 8.629 8.629 8.629 4.766 0 8.629-3.863 8.629-8.629 0-4.766-3.863-8.629-8.629-8.629m-.807 1.721c.094-.01.212.006.307 0 .011.045-.067.206-.174.44-.682 1.49-.722 3.234-.089 4.166.115.169.219.33.219.351 0 .021-.123.044-.263.044-.328 0-.639-.199-1.272-.701-.282-.223-.647-.41-.789-.438-.223-.044-.282-.025-.57.263-.268.268-.351.414-.351.659 0 .93 1.105 1.668 3.158 2.103 2.788.591 3.474 1.121 3.551 2.587.097 1.838-.881 3.224-3.03 4.298-.256.128-.418.179-.526.221-.048-.004-.086.004-.133 0-.018-.057-.044-.188-.044-.438 0-.976-.384-1.983-.964-2.545-.156-.151-.591-.47-.964-.701-.373-.231-.75-.499-.834-.613-.139-.19-.149-.306-.042-.657.195-.641.426-1 .876-1.406.236-.212.473-.388.526-.393.052-.004-.301-.112-.833-.221-.531-.109-1.31-.337-1.712-.482-.735-.266-1.727-.825-2.105-1.229-.016-.017-.03-.029-.044-.044.542-2.159 2.062-3.927 4.078-4.78.422-.178.857-.3 1.316-.394.229-.047.465-.065.701-.089m6.579 3.29c.165.102.788 1.45.966 2.107.229.848.213 2.314 0 3.157-.081.321-.186.62-.221.657-.035.037-.161-.176-.308-.436-.147-.261-.615-.816-1.01-1.229-1.129-1.191-1.307-1.812-.834-2.762.238-.479 1.276-1.572 1.404-1.493" fill="#1d344f"/>

   xmlns:dc="http://purl.org/dc/elements/1.1/"
   xmlns:cc="http://creativecommons.org/ns#"
   xmlns:rdf="http://www.w3.org/1999/02/22-rdf-syntax-ns#"
   xmlns:svg="http://www.w3.org/2000/svg"
   xmlns="http://www.w3.org/2000/svg"
   xmlns:sodipodi="http://sodipodi.sourceforge.net/DTD/sodipodi-0.dtd"
   xmlns:inkscape="http://www.inkscape.org/namespaces/inkscape"
   height="32"
   width="32"
   version="1"
   id="svg8"
   sodipodi:docname="star-mime-2.svg"
   inkscape:version="0.92.1 r"&gt;
  <g transform="translate(152.47 194.05)" fill="#fff"><path d="m-125.38-193.25l-.077 3.548 3.072 1.831-3.548-.077-3.135 6.791 1.38-7.268-3.072-1.831 3.548.077z"/><path d="m-125.41-183.04l.042-1.955-1.692-1.01 1.955.042 1.727-3.741-.76 4 1.692 1.01-1.955-.042z"/></g></svg>