<svg xmlns="http://www.w3.org/2000/svg" viewBox="0 0 32 32"><defs><clipPath><circle cx="286" cy="26" r="10" fill="none"/></clipPath><linearGradient gradientTransform="matrix(2.62891 0 0 2.71269-160.16-291.42)" id="0" x1="67.894" y1="108.69" x2="67.854" y2="113.11" gradientUnits="userSpaceOnUse"><stop stop-color="#f9f9f9"/><stop offset="1" stop-color="#999"/></linearGradient></defs><g transform="translate(36.426 1.021)"><g fill="#042c38" fill-rule="evenodd"><rect y=".877" x="-34.527" height="28.2" width="28.2" rx="5.575"/><path d="m-28.953.877c-3.089 0-5.574 2.488-5.574 5.576v5.342c.206-.652.423-1.284.68-1.723.389-.742.931-1.376 1.559-1.889.627-.513 1.34-.905 2.07-1.16.73-.255 1.477-.374 2.174-.344.697.03 1.342.211 1.869.555.626-.722 1.319-1.207 2.049-1.566.73-.36 1.496-.594 2.264-.818-.791.974-1.351 1.915-1.689 2.824-.338.909-.455 1.785-.357 2.627.098.842.41 1.649.928 2.422.517.772 1.24 1.51 2.16 2.211-1.192-.218-3.322-.297-5.17-.201-.252.576-.404 1.162-.465 1.746-.061.584-.032 1.166.072 1.734.209 1.138.724 2.222 1.443 3.156.72.934 1.644 1.719 2.672 2.262 1.028.542 2.16.842 3.295.803.95-.044 1.749-.22 2.428-.506.679-.286 1.238-.681 1.707-1.168.469-.487.847-1.064 1.166-1.711.319-.647.577-1.365.807-2.133.459-1.535.799-3.27 1.264-5.04.465-1.775 1.054-3.591 2.01-5.283.879.663 1.591 1.387 2.164 2.158.475.639.802 1.329 1.105 2.027v-6.32c0-3.089-2.488-5.576-5.576-5.576z"/></g><path d="m-23.315 21.335c9.402 5.85 18.14-10.791 7.774-18.798 11.678 1.52 6.07 14.08 7.315 22.26-4.373-.195-10.147 3.955-14.06 1.743-.962-.544-.592-4.344-1.027-5.205" fill="#3365ad"/><path d="m-25.06 14.01c-.953 1.86-.517 2.162-.218 2.516 1.014.896 2.666.395 5.665-1.282.144 1.147-.809 2.463-3.292 3.709-.815.407-1.215 1.037-.407 2.379l3.775 4.541-5.262-.447-4.341-11.05z" fill="#26477f"/><path d="m-15.984 6.078c4.571 2.958 3.481 7.234 4.837 10.94l.967-6.828c-1.836-2.911-2.127-3.632-5.805-4.112" fill="#4c92cf"/><path d="m-13.175 13.186c.43 3.956-.048 6.674.707 6.828l1.358-3.702c-.343-.306-1.14-2.142-2.065-3.126" fill="#233e71"/><path d="m-31.27 4.116c-1.552 2.036-2.04 4.02-1.631 5.841l2.973-2.184c-.685-.715-1.216-1.755-1.342-3.657" fill="#3e7ac4"/><path d="m-24.776 10.931c1.928-.002 3.935.359 5.631-.71-.881 1.301-1.877 2.215-3.736 3.03z" fill="#fff"/><path d="m-24.565 8.116c.94.588 1.061 1.406 5.341 1.052.314.333.317.685.079 1.052-1.466.975-3.72 1.038-5.487.654z" fill="#4c8ec8"/><path d="m-19.224 9.168c.321.605.004.898-.195 1.195 1.115.149 1.302-1.498.195-1.195" fill="#656465"/><path d="m-6.324 12.774c-.303-.699-.631-1.389-1.105-2.027-.573-.772-1.285-1.495-2.164-2.158-.956 1.693-1.545 3.508-2.01 5.283-.465 1.775-.805 3.509-1.264 5.04-.229.768-.488 1.486-.807 2.133-.319.647-.697 1.224-1.166 1.711-.469.487-1.028.882-1.707 1.168-.679.286-1.478.462-2.428.506-1.134.039-2.267-.26-3.295-.803-1.028-.542-1.952-1.327-2.672-2.262-.72-.934-1.235-2.02-1.443-3.156-.104-.569-.134-1.15-.072-1.734.061-.584.213-1.17.465-1.746 1.848-.096 3.978-.017 5.17.201-.92-.701-1.643-1.439-2.16-2.211-.517-.772-.83-1.58-.928-2.422-.098-.842.019-1.718.357-2.627.338-.909.898-1.85 1.689-2.824-.768.224-1.534.459-2.264.818-.73.36-1.423.845-2.049 1.566-.527-.344-1.173-.524-1.869-.555-.697-.03-1.444.089-2.174.344-.73.255-1.443.647-2.07 1.16-.627.513-1.17 1.146-1.559 1.889-.257.439-.474 1.071-.68 1.723v11.711c0 3.089 2.486 5.574 5.574 5.574h17.05c3.089 0 5.576-2.486 5.576-5.574z" fill="#4a8ac7" fill-rule="evenodd"/></g>

   xmlns:dc="http://purl.org/dc/elements/1.1/"
   xmlns:cc="http://creativecommons.org/ns#"
   xmlns:rdf="http://www.w3.org/1999/02/22-rdf-syntax-ns#"
   xmlns:svg="http://www.w3.org/2000/svg"
   xmlns="http://www.w3.org/2000/svg"
   xmlns:xlink="http://www.w3.org/1999/xlink"
   xmlns:sodipodi="http://sodipodi.sourceforge.net/DTD/sodipodi-0.dtd"
   xmlns:inkscape="http://www.inkscape.org/namespaces/inkscape"
   version="1"
   width="32"
   height="32"
   id="svg12"
   sodipodi:docname="snow-top-1.svg"
   inkscape:version="0.92.1 r"&gt;
  <path d="m7.288.009c-8.276-.356-9.36 9.992-4.02 9.973.679.003 1.604-.207 2.97-1.543 7.256-10.531 14.706 3.573 17.53.919 1.71-1.912 3.496-.418 4.448.115 2.1.643 3.662.041 3.785-3.231.188-3.321-1.889-6.344-5.923-6.223-5.914.14-12.989-.047-18.787-.01" fill="url(#0)"/><path fill="#f00" fill-opacity="0" d="m0 0h32v32h-32z"/></svg>