<svg xmlns="http://www.w3.org/2000/svg" viewBox="0 0 32 32"><defs><linearGradient gradientTransform="matrix(2.54182 0 0 2.58531-153.47-277.37)" id="0" x1="67.894" y1="108.69" x2="67.854" y2="113.11" gradientUnits="userSpaceOnUse"><stop stop-color="#f9f9f9"/><stop offset="1" stop-color="#999"/></linearGradient></defs><rect width="28.2" height="28.2" x="1.898" y="1.898" fill="#4f4f4f" fill-rule="evenodd" rx="5.575"/><path d="m13.12 6c-.057.002-.118.019-.176.061-.058.042-.106.118-.118.182-.023.13.005.192.059.304.247.461.492.82.588 1.094.165.38.163.733.118.973l-.294 1.459c-1.485.355-2.918.714-4.352 1.216-.279.092-.492.185-.706.304-.019-.003-.039-.003-.059 0-.075.046-.079.114-.118.182-.019.034-.053.074-.059.122-.005.048.017.126.059.182.125.178.294.252.529.365.236.113.506.229.706.304.998.376 2.281.68 3.293.79-.273 1.272-.536 2.529-.941 3.768-.099.302-.224.616-.353.912-.37.849-.839 1.625-1.294 2.371-.481.696-.885 1.375-1.412 2.01-.098.107-.257.199-.353.304-.048.052-.083.136-.118.182-.018.023-.044.033-.059.061-.015.028-.006.043 0 .122-.003.02-.003.041 0 .061.015.025.035.046.059.061.015.025.035.046.059.061.019.003.039.003.059 0 .105.017.192-.028.294-.061.102-.033.172-.062.294-.122.244-.118.558-.252.823-.425.381-.249.662-.503.882-.669.387-.293 1.26-1.132 1.706-1.702.512-.603 1.058-1.249 1.47-2.067.008-.016-.008-.045 0-.061.028-.05.191-.372.235-.486.088-.228.148-.454.176-.547l1.294-4.072 4.529-1.094c-.112.982-.238 1.933-.353 2.918-.087.811-.147 1.138-.235 2.01-.003.026.003.034 0 .061-.05.267-.196 1.019-.235 1.216-.301 1.51-.624 2.879-1.294 4.072-.16.233-.346.478-.529.669-.185-.093-.446-.223-.823-.243-.006-.001-.041.001-.059 0-.019-.003-.039-.003-.059 0-.001 0-.058.06-.059.061-.024.015-.044.036-.059.061-.025.138.02.245.059.365.039.12.07.254.118.365.34.795.739 1.481 1.117 2.188.015.025.035.046.059.061.015.025.035.046.059.061.019.003.039.003.059 0 .019.003.039.003.059 0 .024-.015.044-.036.059-.061.565-.553 1.228-1.445 1.706-2.188.938-1.455 1.732-3.081 2.294-4.923.084-.287.152-.577.235-.912l1.764-6.99c.075-.309.161-.652.176-.912.003-.02.003-.041 0-.061-.037-.09-.116-.137-.176-.182-.06-.045-.1-.082-.176-.122-.15-.081-.351-.177-.528-.246-.846-.295-1.766-.56-2.764-.79-.107-.048-.179-.067-.294-.061-.115.006-.284.036-.412.061-.255.049-.518.141-.706.182l-2.353.547c.1-.323.263-.8.118-1.398-.201-.679-.719-1.075-1.294-1.276-.49-.171-.968-.324-1.47-.486-.082-.026-.451-.161-.824-.182z" fill="#b7b7b7"/>

   xmlns:dc="http://purl.org/dc/elements/1.1/"
   xmlns:cc="http://creativecommons.org/ns#"
   xmlns:rdf="http://www.w3.org/1999/02/22-rdf-syntax-ns#"
   xmlns:svg="http://www.w3.org/2000/svg"
   xmlns="http://www.w3.org/2000/svg"
   xmlns:xlink="http://www.w3.org/1999/xlink"
   xmlns:sodipodi="http://sodipodi.sourceforge.net/DTD/sodipodi-0.dtd"
   xmlns:inkscape="http://www.inkscape.org/namespaces/inkscape"
   height="32"
   width="32"
   version="1"
   id="svg8"
   sodipodi:docname="snow-top-2.svg"
   inkscape:version="0.92.1 r"&gt;
  <path d="m24.646 6.111c2.995 2.684 1.381 7.817 3.674 8.291 2.031.613 3.541-1.385 3.66-4.503.35-8.627-3.911-9.427-6.879-9.524-28.342-2.047-1.762 4.92-.455 5.736" fill="url(#0)"/></svg>