<svg xmlns="http://www.w3.org/2000/svg" viewBox="0 0 32 32"><defs><linearGradient gradientTransform="matrix(2.59244 0 0 2.58531-157.93-277.73)" id="0" x1="67.894" y1="108.69" x2="67.854" y2="113.11" gradientUnits="userSpaceOnUse"><stop stop-color="#f9f9f9"/><stop offset="1" stop-color="#999"/></linearGradient></defs><rect width="28.2" height="28.2" x="1.898" y="1.898" fill="#dcdcbe" fill-rule="evenodd" rx="5.575"/><g transform="translate(47.664 3.238)" fill="#2a2a2a"><path d="m-42.664 6.762v1h22v-1zm0 3v1h22v-1m-22 3v1h22v-1zm0 3v1h22v-1zm0 3v1h22v-1z" opacity=".5" fill-rule="evenodd"/><path d="m16.681 13.4c-.7-.8-1.7-1.3-2.9-1.2-.1-.2-.5-2.2-.5-2.2 0 0 1.4-2.1 1.7-2.5 1.5-2.4 1.6-4.3.7-6.2-.3-.7-1.1-1.3-1.9-1.3-.6 0-1.1.5-1.4 1.1-1 1.7-1 4.9-.5 7.1 0 0-.5.5-1 1.1-1 1.1-2.1 2.3-2.5 3.9-.5 1.8-.1 3.5 1 4.8 1.2 1.5 3 2.2 5.2 2 .4 1.9.7 3.1.1 4.2-.2.4-.6.8-1.3.8-.2 0-.3 0-.5-.1.6-.3 1.1-.9 1.1-1.6 0-1-.8-1.8-1.8-1.8-1.7.1-1.8 1.8-1.8 1.8 0 .6.2 1.2.6 1.6.5.5 1.3.9 2.2.9 1.1 0 2.2-.4 2.6-2 .4-1.3-.3-3.4-.4-4.1 1.1-.5 2.1-2 2.2-3 .2-1.1-.2-2.4-.9-3.3m-3.2-11.1c.1-.2.3-.3.5-.3.1 0 .3.1.4.2.4.2.5.6.5 1.2-.1 1.5-1.4 3.3-2.1 3.9-.3-1.4-.1-4 .7-5m-2.9 15.7c-.7-.7-1-1.7-.9-2.7.2-1.6 1.3-2.9 2.2-3.9.2-.2.4-.4.5-.6.1.5.4 1.3.5 1.7-1.2.5-1.9 2.1-1.8 3.4 0 .6.2 1 .5 1.4.1.1.2.2.3.2.1 0 .3-.1.3-.2.1-.1.1-.3 0-.4-.1-.1-.1-.2-.1-.4-.1-.9.5-1.6 1.2-1.9.1.6.8 3.7.9 4.4-1.3.4-2.7 0-3.6-1m4.5.6c-.2-.7-.3-1.5-.5-2.4-.1-.6-.2-1.3-.4-1.9 1.3 0 1.7 1.1 1.8 1.5.3 1.1 0 2.2-.9 2.8" transform="matrix(.84528 0 0 .77519-47.569 2.762)"/></g>

   xmlns:dc="http://purl.org/dc/elements/1.1/"
   xmlns:cc="http://creativecommons.org/ns#"
   xmlns:rdf="http://www.w3.org/1999/02/22-rdf-syntax-ns#"
   xmlns:svg="http://www.w3.org/2000/svg"
   xmlns="http://www.w3.org/2000/svg"
   xmlns:xlink="http://www.w3.org/1999/xlink"
   xmlns:sodipodi="http://sodipodi.sourceforge.net/DTD/sodipodi-0.dtd"
   xmlns:inkscape="http://www.inkscape.org/namespaces/inkscape"
   version="1"
   width="32"
   height="32"
   id="svg12"
   sodipodi:docname="snow-top-4.svg"
   inkscape:version="0.92.1 r"&gt;
  <path d="m7.196.009c-8.161-.339-9.231 9.523-3.968 9.505.669.003 1.581-.197 2.929-1.471 3.773-4.147 9.01 4.479 14.696-1.042.61-.911 1.804-1.135 2.455-.627 1.045.677 2.87 2.991 3.88 3 2.359.513 4.095-.198 4.816-3.188.185-3.165-2.303-6.286-6.281-6.17-5.832.133-12.809-.045-18.527-.01" fill="url(#0)"/></svg>