<svg xmlns="http://www.w3.org/2000/svg" viewBox="0 0 32 32"><defs><linearGradient gradientTransform="matrix(-2.65552 0 0 2.58531 193.77-277.73)" id="0" x1="67.894" y1="108.69" x2="67.854" y2="113.11" gradientUnits="userSpaceOnUse"><stop stop-color="#f9f9f9"/><stop offset="1" stop-color="#999"/></linearGradient></defs><rect width="28.2" height="28.2" x="1.898" y="1.898" fill="#ccc" fill-rule="evenodd" rx="5.575"/><g transform="translate(88.59 10.198)" color-rendering="auto" shape-rendering="auto" color-interpolation-filters="linearRGB" image-rendering="auto" color-interpolation="sRGB" color="#000"><path d="m-83.6198-.1093a1.17606 1.17606 0 1 0 .125556 2.347292c3.787-.203 5.499 1.127 6.924 2.955 1.425 1.828 2.283 4.261 4.087 5.944 1.454 1.357 3.549 2.192 5.592 2.773 2.043.581 3.992.873 5.286.873a1.17606 1.17606 0 1 0 0 -2.351885c-.902 0-2.793-.257-4.641-.782-1.848-.526-3.694-1.355-4.633-2.231-1.156-1.078-2.12-3.473-3.834-5.671-1.714-2.199-4.461-4.094-8.905-3.855" mix-blend-mode="normal" isolation="auto" white-space="normal" fill="#4a61cc" solid-opacity="1" solid-color="#000000" vector-effect="none" shape-padding="0"/><path d="m-68.973-3.164c-1.165-.12-2.051.494-2.586 1.01-.267.257-.468.506-.608.7-.07.097-.124.179-.165.245-.007.012-.013.021-.02.032l-.775.968a1.17606 1.17606 0 0 0 .362888 1.788413c-.148.209-.302.409-.383.761-.347 1.51.361 2.849 1.222 3.768.623.665 1.383.978 2.078 1.228.347.125.676.22.965.286.288.066.435.131.862.1 1.245-.091 2.241-.476 2.966-1.067.725-.591 1.145-1.326 1.462-1.978.652-1.34.254-2.669-.043-3.618a1.17606 1.17606 0 0 0 -.02297 -.067372c-.975-2.56-3.321-3.918-5.299-4.149a1.17606 1.17606 0 0 0 -.01531 -.00307m-.247 2.343c1.033.125 2.735 1.072 3.344 2.614.24.786.316 1.547.168 1.851-.261.536-.506.919-.833 1.185-.327.266-.77.48-1.654.545.246-.018.024-.003-.162-.046-.186-.043-.438-.115-.694-.207-.512-.184-1.05-.508-1.159-.625-.441-.471-.726-1.286-.646-1.632-.073.316.075-.047.329-.25.255-.202.502-.351.502-.351a1.17606 1.17606 0 0 0 -.349108 -2.172738 1.17606 1.17606 0 0 0 .07962 -.157711c-.004.011-.009.024-.011.029-.019.043-.025.054-.031.064-.006.011-.005.01-.008.014.014-.022.041-.065.08-.118.076-.105.195-.251.331-.381.269-.258.525-.38.712-.363m-.985.348c0 0 .002.002.002.002 0 0-.001.013-.002.014a1.17606 1.17606 0 0 0 0 -.015312m-.047.291c0 .001-.002.009-.002.009 0 0-.01.026-.015.041a1.17606 1.17606 0 0 0 .01684 -.050529" mix-blend-mode="normal" isolation="auto" white-space="normal" fill="#e84343" solid-opacity="1" solid-color="#000000" vector-effect="none" shape-padding="0"/></g>

   xmlns:dc="http://purl.org/dc/elements/1.1/"
   xmlns:cc="http://creativecommons.org/ns#"
   xmlns:rdf="http://www.w3.org/1999/02/22-rdf-syntax-ns#"
   xmlns:svg="http://www.w3.org/2000/svg"
   xmlns="http://www.w3.org/2000/svg"
   xmlns:xlink="http://www.w3.org/1999/xlink"
   xmlns:sodipodi="http://sodipodi.sourceforge.net/DTD/sodipodi-0.dtd"
   xmlns:inkscape="http://www.inkscape.org/namespaces/inkscape"
   version="1"
   width="32"
   height="32"
   id="svg12"
   sodipodi:docname="snow-top-3.svg"
   inkscape:version="0.92.1 r"&gt;
  <path d="m24.627.009c8.36-.339 9.455 9.523 4.064 9.505-.686.003-1.62-.197-3-1.471-14.665-10.216-14.549 2.967-17.708.875-1.727-1.822-1.743 4.653-4.139 5.127-2.122.613-3.699-1.385-3.824-4.503-.366-8.627 4.086-9.427 7.187-9.524 5.974.133 11.562-.045 17.419-.01" fill="url(#0)"/></svg>