<svg xmlns="http://www.w3.org/2000/svg" viewBox="0 0 32 32"><defs><linearGradient gradientTransform="matrix(2.54182 0 0 2.58531-153.47-277.37)" id="0" x1="67.894" y1="108.69" x2="67.854" y2="113.11" gradientUnits="userSpaceOnUse"><stop stop-color="#f9f9f9"/><stop offset="1" stop-color="#999"/></linearGradient></defs><rect width="28.2" height="28.2" x="1.898" y="1.898" fill="#4ca341" fill-rule="evenodd" rx="5.575"/><path d="m8.04 15.03c0 0 2.348-2.822 5.958-3.114v-1.024c-3.999.34-8 3.923-8 3.923 0 0 2.501 5.998 8 6.547v-1.088c-4.04-.538-5.958-5.244-5.958-5.244m5.958 3.079v.997c-3.051-.575-4.437-3.93-4.437-3.93 0 0 2-1.717 4.437-1.995v1.094c-.002 0-.002-.001-.004-.001-1.277-.162-2.814 1.1-2.814 1.1 0 0 1.099 2.124 2.819 2.736m0-9.106v1.889c.117-.009-.305-.018-.187-.022 4.546-.162 7.509 3.945 7.509 3.945 0 0-3.402 4.377-6.947 4.377-.325 0-.089-.032-.375-.085v1.168c.244.033-.042.052.222.052 3.298 0 5.684-1.782 7.994-3.891.383.324 1.951 1.114 2.273 1.459-2.196 1.945-7.314 3.513-10.216 3.513-.28 0-.009-.018-.273-.045v1.641h11.997v-14h-11.997m0 4.177v-1.265c.116-.007-.306-.015-.187-.019 3.269-.109 5.414 2.972 5.414 2.972 0 0-2.317 3.404-4.801 3.404-.357 0-.138-.061-.427-.163v-3.835c1.273.163 1.233.757 1.998 2.107l1.459-1.518c0 0-1.242-1.724-3.337-1.724-.228 0 .094.017-.12.041" fill="#262626"/>

   xmlns:dc="http://purl.org/dc/elements/1.1/"
   xmlns:cc="http://creativecommons.org/ns#"
   xmlns:rdf="http://www.w3.org/1999/02/22-rdf-syntax-ns#"
   xmlns:svg="http://www.w3.org/2000/svg"
   xmlns="http://www.w3.org/2000/svg"
   xmlns:xlink="http://www.w3.org/1999/xlink"
   xmlns:sodipodi="http://sodipodi.sourceforge.net/DTD/sodipodi-0.dtd"
   xmlns:inkscape="http://www.inkscape.org/namespaces/inkscape"
   height="32"
   width="32"
   version="1"
   id="svg8"
   sodipodi:docname="snow-top-2.svg"
   inkscape:version="0.92.1 r"&gt;
  <path d="m24.646 6.111c2.995 2.684 1.381 7.817 3.674 8.291 2.031.613 3.541-1.385 3.66-4.503.35-8.627-3.911-9.427-6.879-9.524-28.342-2.047-1.762 4.92-.455 5.736" fill="url(#0)"/></svg>