<svg xmlns="http://www.w3.org/2000/svg" viewBox="0 0 32 32"><defs><linearGradient gradientTransform="matrix(2.59244 0 0 2.58531-157.93-277.73)" id="0" x1="67.894" y1="108.69" x2="67.854" y2="113.11" gradientUnits="userSpaceOnUse"><stop stop-color="#f9f9f9"/><stop offset="1" stop-color="#999"/></linearGradient></defs><rect width="28.2" height="28.2" x="1.898" y="1.898" fill="#4f4f4f" fill-rule="evenodd" rx="5.575"/><g transform="translate(-416-52)" fill="#fff" enable-background="new"><path d="m429.86 74.54c.951-.292 2.092-1.093 2.627-1.844l.177-.248-.221-.669c-.807-2.442.658-4.905 3.171-5.329 1.827-.308 3.743.809 4.404 2.567.157.419.162.423.111.102-.151-.95-.622-1.827-1.387-2.583-.798-.789-1.725-1.236-2.884-1.391-.355-.048-.392-.034-.526.192-.206.349-.806.933-1.249 1.216-1.194.763-3.034.763-4.23.001-1.352-.861-2.116-2.51-1.868-4.03.135-.829.501-1.565 1.083-2.181.422-.447.45-.496.207-.356-.41.235-1.371 1.279-1.644 1.786-.314.585-.57 1.619-.568 2.302.001.588.155 1.368.381 1.933.132.329.148.34.636.395.276.031.711.129.968.217 2.27.781 3.341 3.399 2.278 5.569-.724 1.479-2.401 2.431-3.969 2.254-.638-.072-.57.014.137.175.627.143 1.77.105 2.366-.078"/><path d="m432 58c-5.517 0-10 4.483-10 10 0 5.516 4.483 10 10 10 5.517 0 10-4.484 10-10 0-5.517-4.483-10-10-10m0 1.074c4.936 0 8.926 3.989 8.926 8.926 0 4.936-3.99 8.926-8.926 8.926-4.936 0-8.926-3.99-8.926-8.926 0-4.936 3.99-8.926 8.926-8.926" color="#000"/></g>

   xmlns:dc="http://purl.org/dc/elements/1.1/"
   xmlns:cc="http://creativecommons.org/ns#"
   xmlns:rdf="http://www.w3.org/1999/02/22-rdf-syntax-ns#"
   xmlns:svg="http://www.w3.org/2000/svg"
   xmlns="http://www.w3.org/2000/svg"
   xmlns:xlink="http://www.w3.org/1999/xlink"
   xmlns:sodipodi="http://sodipodi.sourceforge.net/DTD/sodipodi-0.dtd"
   xmlns:inkscape="http://www.inkscape.org/namespaces/inkscape"
   version="1"
   width="32"
   height="32"
   id="svg12"
   sodipodi:docname="snow-top-4.svg"
   inkscape:version="0.92.1 r"&gt;
  <path d="m7.196.009c-8.161-.339-9.231 9.523-3.968 9.505.669.003 1.581-.197 2.929-1.471 3.773-4.147 9.01 4.479 14.696-1.042.61-.911 1.804-1.135 2.455-.627 1.045.677 2.87 2.991 3.88 3 2.359.513 4.095-.198 4.816-3.188.185-3.165-2.303-6.286-6.281-6.17-5.832.133-12.809-.045-18.527-.01" fill="url(#0)"/></svg>