<svg xmlns="http://www.w3.org/2000/svg" xmlns:xlink="http://www.w3.org/1999/xlink" viewBox="0 0 32 32"><defs><linearGradient gradientTransform="matrix(-2.54182 0 0 2.58531 185.47-277.37)" id="1" x1="67.894" y1="108.69" x2="67.854" y2="113.11" gradientUnits="userSpaceOnUse"><stop stop-color="#f9f9f9"/><stop offset="1" stop-color="#999"/></linearGradient></defs><rect width="28.2" height="28.2" x="1.898" y="1.898" fill="#fdbb28" fill-rule="evenodd" rx="5.575"/><g transform="translate(41.958-6.937)"><circle r="8.349" cy="24.455" cx="-25.958" fill="#fff"/><path d="m-25.958 13.07c-2.359 0-4.512.718-6.099 1.923-1.587 1.205-2.25 2.929-2.25 4.846v.821c-1.576.778-3.036 2.69-3.036 5.082 0 3.061 2.25 5.544 4.554 5.544v-11.447c0-1.436.301-2.606 1.611-3.601 1.31-.995 3.161-1.65 5.22-1.65 2.059 0 3.909.655 5.22 1.65 1.31.995 1.611 2.165 1.611 3.601v11.447c2.304 0 4.554-2.485 4.554-5.546 0-2.391-1.46-4.303-3.036-5.08v-.821c0-1.918-.663-3.641-2.25-4.846-1.587-1.205-3.739-1.923-6.099-1.923m-3.795051 7.590102a1.51802 1.51802 0 0 0 -1.51802 1.518021 1.51802 1.51802 0 0 0 1.51802 1.51802 1.51802 1.51802 0 0 0 1.51802 -1.51802 1.51802 1.51802 0 0 0 -1.51802 -1.518021m7.590102 0a1.51802 1.51802 0 0 0 -1.51802 1.518021 1.51802 1.51802 0 0 0 1.51802 1.51802 1.51802 1.51802 0 0 0 1.518021 -1.51802 1.51802 1.51802 0 0 0 -1.518021 -1.518021m-.759 6.831l-6.072.015c0 1.677 1.359 3.02 3.036 3.02 1.677 0 3.036-1.359 3.036-3.036" fill="#4f4f4f"/></g>

   xmlns:dc="http://purl.org/dc/elements/1.1/"
   xmlns:cc="http://creativecommons.org/ns#"
   xmlns:rdf="http://www.w3.org/1999/02/22-rdf-syntax-ns#"
   xmlns:svg="http://www.w3.org/2000/svg"
   xmlns="http://www.w3.org/2000/svg"
   xmlns:xlink="http://www.w3.org/1999/xlink"
   xmlns:sodipodi="http://sodipodi.sourceforge.net/DTD/sodipodi-0.dtd"
   xmlns:inkscape="http://www.inkscape.org/namespaces/inkscape"
   height="32"
   width="32"
   version="1"
   id="svg8"
   sodipodi:docname="snow-top-3.svg"
   inkscape:version="0.92.1 r"&gt;
  <path fill="#00000f" fill-opacity="0" d="m0 0h32v32h-32z" id="0"/><path d="m7.354 6.111c-2.995 2.684-1.381 7.817-3.674 8.291-2.031.613-3.541-1.385-3.66-4.503-.35-8.627 3.911-9.427 6.879-9.524 28.342-2.047 1.762 4.92.455 5.736" fill="url(#1)"/><use xlink:href="#0"/></svg>