<svg xmlns="http://www.w3.org/2000/svg" xmlns:xlink="http://www.w3.org/1999/xlink" viewBox="0 0 32 32"><defs><linearGradient gradientTransform="matrix(-2.54182 0 0 2.58531 185.47-277.37)" id="1" x1="67.894" y1="108.69" x2="67.854" y2="113.11" gradientUnits="userSpaceOnUse"><stop stop-color="#f9f9f9"/><stop offset="1" stop-color="#999"/></linearGradient></defs><g transform="translate(61.874 3.58)"><g fill-rule="evenodd"><path d="m-59.904 21.305c.194 2.91 2.543 5.217 5.504 5.217h17.05c3.089 0 5.576-2.488 5.576-5.576v-.275c-.229.301-.527.542-.877.713-.743.362-1.672.465-2.416.465-.744 0-1.673-.103-2.416-.465-.371-.181-.696-.427-.928-.756-.232-.329-.371-.741-.371-1.256-.012.431-.158.802-.393 1.115-.234.313-.557.57-.926.771-.737.404-1.654.59-2.398.59-.744 0-1.673-.103-2.416-.465-.371-.181-.696-.427-.928-.756-.232-.329-.373-.741-.373-1.256-.012.431-.156.802-.391 1.115-.234.313-.559.57-.928.771-.737.404-1.652.59-2.396.59-.744 0-1.673-.103-2.416-.465-.371-.181-.698-.427-.93-.756-.232-.329-.371-.741-.371-1.256 0 .515-.139.929-.371 1.26-.232.33-.556.578-.928.76-.743.364-1.672.467-2.416.457-.806-.011-1.735-.115-2.463-.475-.033-.016-.05-.051-.082-.068" fill="#028649"/><path d="m-59.904 21.305c.032.017.049.052.082.068.727.359 1.657.464 2.463.475.744.01 1.673-.093 2.416-.457.371-.182.696-.429.928-.76.232-.33.371-.745.371-1.26 0 .515.139.927.371 1.256.232.329.558.575.93.756.743.362 1.672.465 2.416.465.744 0 1.66-.186 2.396-.59.368-.202.693-.458.928-.771.234-.313.378-.684.391-1.115 0 .515.141.927.373 1.256.232.329.556.575.928.756.743.362 1.672.465 2.416.465.744 0 1.662-.186 2.398-.59.368-.202.691-.458.926-.771.234-.313.38-.684.393-1.115 0 .515.139.927.371 1.256.232.329.556.575.928.756.743.362 1.672.465 2.416.465.744 0 1.673-.103 2.416-.465.35-.171.648-.412.877-.713v-16.777c0-3.089-2.488-5.574-5.576-5.574h-17.05c-3.089 0-5.576 2.486-5.576 5.574v17.05c0 .128.064.234.072.359" fill="#3fc778"/></g><g stroke-width=".807"><g transform="matrix(1.23869 0 0 1.23869-67.49-8.159)"><rect height="6" width="6" y="9" x="9" fill="#ecf0f1" stroke-width=".807" rx="3" id="2"/><rect height="2" width="2" y="11" x="13" fill="#494949" stroke-width=".807" rx="1" id="3"/></g><g transform="matrix(1.23869 0 0 1.23869-53.86-8.159)"><use xlink:href="#2"/><use xlink:href="#3"/></g></g></g>

   xmlns:dc="http://purl.org/dc/elements/1.1/"
   xmlns:cc="http://creativecommons.org/ns#"
   xmlns:rdf="http://www.w3.org/1999/02/22-rdf-syntax-ns#"
   xmlns:svg="http://www.w3.org/2000/svg"
   xmlns="http://www.w3.org/2000/svg"
   xmlns:xlink="http://www.w3.org/1999/xlink"
   xmlns:sodipodi="http://sodipodi.sourceforge.net/DTD/sodipodi-0.dtd"
   xmlns:inkscape="http://www.inkscape.org/namespaces/inkscape"
   height="32"
   width="32"
   version="1"
   id="svg8"
   sodipodi:docname="snow-top-3.svg"
   inkscape:version="0.92.1 r"&gt;
  <path fill="#00000f" fill-opacity="0" d="m0 0h32v32h-32z" id="0"/><path d="m7.354 6.111c-2.995 2.684-1.381 7.817-3.674 8.291-2.031.613-3.541-1.385-3.66-4.503-.35-8.627 3.911-9.427 6.879-9.524 28.342-2.047 1.762 4.92.455 5.736" fill="url(#1)"/><use xlink:href="#0"/></svg>