<svg xmlns="http://www.w3.org/2000/svg" xmlns:xlink="http://www.w3.org/1999/xlink" viewBox="0 0 32 32"><defs><linearGradient gradientTransform="matrix(2.62891 0 0 2.71269-160.16-291.42)" id="0" x1="67.894" y1="108.69" x2="67.854" y2="113.11" gradientUnits="userSpaceOnUse"><stop stop-color="#f9f9f9"/><stop offset="1" stop-color="#999"/></linearGradient></defs><rect width="28.2" height="28.2" x="1.898" y="1.898" fill="#4f4f4f" fill-rule="evenodd" rx="5.575"/><g transform="matrix(.69231 0 0 .6875.769-.5)" opacity=".5" fill="#fff"><g><g><path d="M9.5 8A.50005 .50005 0 0 0 9 8.5v5A.50005 .50005 0 0 0 9.5 14h3A.50005 .50005 0 0 0 13 13.5v-5A.50005 .50005 0 0 0 12.5 8M10 9h2v4h-2z" opacity="1" color="#000" id="6"/><path d="m16.492 8.0001a.50005 .4988 0 0 0 -.49219 .50655v4.988a.50005 .4988 0 1 0 1 0v-4.988a.50005 .4988 0 0 0 -.508 -.5064" opacity="1" fill-rule="evenodd" color="#000" id="7"/><path d="m20.492 8.0001a.50005 .4988 0 0 0 -.49219 .50655v4.988a.50005 .4988 0 1 0 1 0v-4.988a.50005 .4988 0 0 0 -.508 -.5064" opacity="1" fill-rule="evenodd" color="#000" id="8"/><path d="M24.5 8A.50005 .50005 0 0 0 24 8.5v5a.50005 .50005 0 0 0 .5 .5h3A.50005 .50005 0 0 0 28 13.5v-5A.50005 .50005 0 0 0 27.5 8M25 9h2v4h-2z" opacity="1" color="#000" id="9"/><path d="M31.5 8A.50005 .50005 0 0 0 31 8.5v5a.50005 .50005 0 0 0 .5 .5h3A.50005 .50005 0 0 0 35 13.5v-5A.50005 .50005 0 0 0 34.5 8M32 9h2v4h-2z" opacity="1" color="#000" id="A"/></g><path d="m34.5 17a.50005 .50005 0 0 1 .5 .5v5A.50005 .50005 0 0 1 34.5 23h-3A.50005 .50005 0 0 1 31 22.5v-5A.50005 .50005 0 0 1 31.5 17M34 18h-2v4h2z" opacity="1" color="#000" id="1"/><path d="m27.508 17a.50005 .4988 0 0 1 .49219 .50655v4.988a.50005 .4988 0 1 1 -1 0v-4.988a.50005 .4988 0 0 1 .508 -.506" opacity="1" fill-rule="evenodd" color="#000" id="2"/><path d="m23.508 17a.50005 .4988 0 0 1 .49219 .50655v4.988a.50005 .4988 0 1 1 -1 0v-4.988a.50005 .4988 0 0 1 .508 -.506" opacity="1" fill-rule="evenodd" color="#000" id="3"/><path d="m19.5 17a.50005 .50005 0 0 1 .5 .5v5A.50005 .50005 0 0 1 19.5 23h-3A.50005 .50005 0 0 1 16 22.5v-5A.50005 .50005 0 0 1 16.5 17M19 18h-2v4h2z" opacity="1" color="#000" id="4"/><path d="m11.508 17a.50005 .4988 0 0 1 .49219 .50655v4.988a.50005 .4988 0 1 1 -1 0v-4.988a.50005 .4988 0 0 1 .508 -.506" opacity="1" fill-rule="evenodd" color="#000" id="5"/></g><g transform="matrix(-1 0 0 1 44 17)"><g><use xlink:href="#6"/><use xlink:href="#7"/><use xlink:href="#8"/><use xlink:href="#9"/><use xlink:href="#A"/></g><use xlink:href="#1"/><use xlink:href="#2"/><use xlink:href="#3"/><use xlink:href="#4"/><use xlink:href="#5"/></g></g><path d="m23.465 21.545l-2.443 2.443 2.443-2.442a5.351406 5.351406 0 0 0 0 -.0011" opacity="1" fill="#fff" fill-rule="evenodd"/><g transform="matrix(1.68234 0 0 1.68234-19.521-18.248)" stroke-width=".594"><g fill-rule="evenodd"><g fill="#fda002"><path d="m23.495 15.367l-5.628 5.596 1.602.052-.032 1.481 1.546.065.04 1.429 5.353-5.355v-.18c0-1.647-1.27-2.949-2.88-3.087"/><path d="m17.868 20.962l1.601.053-.032 1.481 1.545.065.041 1.428 2.443-2.443a5.351406 5.351406 0 0 0 -2.917516 -3.246451"/></g><path d="m16.482 25.471l4.539-1.481v-.001l-.041-1.428-1.545-.065.032-1.481-1.601-.053-.001.001z" fill="#fff"/></g><path d="m16.482 25.47l1.703-.553-1.185-1.147z"/></g>

   xmlns:dc="http://purl.org/dc/elements/1.1/"
   xmlns:cc="http://creativecommons.org/ns#"
   xmlns:rdf="http://www.w3.org/1999/02/22-rdf-syntax-ns#"
   xmlns:svg="http://www.w3.org/2000/svg"
   xmlns="http://www.w3.org/2000/svg"
   xmlns:xlink="http://www.w3.org/1999/xlink"
   xmlns:sodipodi="http://sodipodi.sourceforge.net/DTD/sodipodi-0.dtd"
   xmlns:inkscape="http://www.inkscape.org/namespaces/inkscape"
   version="1"
   width="32"
   height="32"
   id="svg12"
   sodipodi:docname="snow-top-1.svg"
   inkscape:version="0.92.1 r"&gt;
  <path d="m7.288.009c-8.276-.356-9.36 9.992-4.02 9.973.679.003 1.604-.207 2.97-1.543 7.256-10.531 14.706 3.573 17.53.919 1.71-1.912 3.496-.418 4.448.115 2.1.643 3.662.041 3.785-3.231.188-3.321-1.889-6.344-5.923-6.223-5.914.14-12.989-.047-18.787-.01" fill="url(#0)"/><path fill="#f00" fill-opacity="0" d="m0 0h32v32h-32z"/></svg>