<svg xmlns="http://www.w3.org/2000/svg" viewBox="0 0 32 32"><defs><linearGradient gradientTransform="matrix(2.62891 0 0 2.71269-160.16-291.42)" id="0" x1="67.894" y1="108.69" x2="67.854" y2="113.11" gradientUnits="userSpaceOnUse"><stop stop-color="#f9f9f9"/><stop offset="1" stop-color="#999"/></linearGradient></defs><g fill-rule="evenodd"><g fill="#ececec"><rect width="28.2" height="28.2" x="1.898" y="1.898" rx="5.575"/><path d="m7.473 1.898c-3.089 0-5.574 2.486-5.574 5.574v16.09c.179-.041.457-.16.613-.189 1.829-.346 3.25-.513 4.488-.498 1.238.015 2.294.212 3.396.594 1.025.355 1.313.395 2.395.338.931-.049 1.953-.229 2.949-.51.996-.28 1.964-.66 2.787-1.105.748-.405 1.043-.736 1.482-1.227a12.637435 20.2199 30 0 1 -.451172 .060547 12.637435 20.2199 30 0 1 -1.373047 .007812 12.637435 20.2199 30 0 1 -1.310547 -.179687 12.637435 20.2199 30 0 1 -1.232422 -.363281 12.637435 20.2199 30 0 1 -1.142578 -.542969 12.637435 20.2199 30 0 1 -.75 -.490234 12.637435 20.2199 30 0 1 -.962891 -.837891 12.637435 20.2199 30 0 1 -.847656 -1 12.637435 20.2199 30 0 1 -.71875 -1.152344 12.637435 20.2199 30 0 1 -.585937 -1.291015 12.637435 20.2199 30 0 1 -.445313 -1.417969 12.637435 20.2199 30 0 1 -.302734 -1.533203 12.637435 20.2199 30 0 1 -.154297 -1.628907 12.637435 20.2199 30 0 1 -.005859 -1.710937 12.637435 20.2199 30 0 1 .142578 -1.775391 12.637435 20.2199 30 0 1 .289062 -1.824219 12.637435 20.2199 30 0 1 .433594 -1.849609 12.637435 20.2199 30 0 1 .474609 -1.541016h-3.594"/></g><path d="M11.06641 1.898438A12.637435 20.2199 30 0 0 10.591797 3.439453 12.637435 20.2199 30 0 0 10.158203 5.289063 12.637435 20.2199 30 0 0 9.869141 7.113281 12.637435 20.2199 30 0 0 9.726563 8.888672 12.637435 20.2199 30 0 0 9.732422 10.599609 12.637435 20.2199 30 0 0 9.886719 12.228516 12.637435 20.2199 30 0 0 10.189453 13.761719 12.637435 20.2199 30 0 0 10.634766 15.179688 12.637435 20.2199 30 0 0 11.220703 16.470703 12.637435 20.2199 30 0 0 11.939453 17.623047 12.637435 20.2199 30 0 0 12.787109 18.623047 12.637435 20.2199 30 0 0 13.75 19.460938 12.637435 20.2199 30 0 0 14.5 19.951172 12.637435 20.2199 30 0 0 15.642578 20.494141 12.637435 20.2199 30 0 0 16.875 20.857422 12.637435 20.2199 30 0 0 18.18555 21.03711 12.637435 20.2199 30 0 0 19.558594 21.0293 12.637435 20.2199 30 0 0 20.984375 20.837891 12.637435 20.2199 30 0 0 22.445312 20.460938 12.637435 20.2199 30 0 0 23.927734 19.904297 12.637435 20.2199 30 0 0 25.416016 19.17383 12.637435 20.2199 30 0 0 26.898438 18.275391 12.637435 20.2199 30 0 0 28.355469 17.220703 12.637435 20.2199 30 0 0 29.777344 16.01563 12.637435 20.2199 30 0 0 30.10156 15.699219V12.842A9.647209 15.435535 30 0 1 29.835938 13.167969 9.647209 15.435535 30 0 1 28.824219 14.257812 9.647209 15.435535 30 0 1 27.767578 15.251953 9.647209 15.435535 30 0 1 26.671875 16.13867 9.647209 15.435535 30 0 1 25.552734 16.910156 9.647209 15.435535 30 0 1 24.419922 17.560547 9.647209 15.435535 30 0 1 23.283203 18.08008 9.647209 15.435535 30 0 1 22.1543 18.464844 9.647209 15.435535 30 0 1 21.04688 18.710938 9.647209 15.435535 30 0 1 19.96875 18.816406 9.647209 15.435535 30 0 1 18.933594 18.779297 9.647209 15.435535 30 0 1 17.949219 18.601562 9.647209 15.435535 30 0 1 17.02734 18.285156 9.647209 15.435535 30 0 1 16.417969 17.976562 9.647209 15.435535 30 0 1 15.623047 17.427734 9.647209 15.435535 30 0 1 14.912109 16.751953 9.647209 15.435535 30 0 1 14.292969 15.953125 9.647209 15.435535 30 0 1 13.773438 15.04297 9.647209 15.435535 30 0 1 13.357422 14.02734 9.647209 15.435535 30 0 1 13.04883 12.917969 9.647209 15.435535 30 0 1 12.851562 11.724609 9.647209 15.435535 30 0 1 12.765625 10.460938 9.647209 15.435535 30 0 1 12.794922 9.138672 9.647209 15.435535 30 0 1 12.935547 7.771484 9.647209 15.435535 30 0 1 13.189453 6.373047 9.647209 15.435535 30 0 1 13.552734 4.957031 9.647209 15.435535 30 0 1 14.02148 3.537109 9.647209 15.435535 30 0 1 14.591797 2.126953 9.647209 15.435535 30 0 1 14.701172 1.898438H11.07" fill="#3191cd"/></g><path d="m23.08 17.968c-.517-.014-1.065.026-1.746.159-.187.035-.652.151-.892.227-.825.261-1.929.797-2.457 1.195l-.112.084c-.252.202-.483.422-.622.73l-.049.101c-.046.095-.052.1-.106.089-.032-.007-.258-.012-.501-.012-.406.001-.462.005-.682.052-.561.119-1.091.353-1.566.692l-.137.098-.096-.073c-.127-.096-.485-.27-.653-.318-.378-.108-.785-.146-1.366-.129-1.515.044-2.764.346-3.943.957-.648.336-1.315.791-1.665 1.137-.226.223-.318.389-.35.628-.02.149-.021.151-.089.175-.124.044-.61.291-.701.356-.081.058-.089.072-.089.141 0 .084.039.196.078.219.018.011.021.006.01-.021-.037-.089-.051-.198-.031-.236.031-.057.356-.242.613-.348l.223-.091.014.104c.008.058.031.144.052.191.028.063.031.088.014.093-.013.004-.139.046-.282.093-.143.048-.309.1-.368.116-.115.031-.154.062-.162.13-.003.023-.007.054-.011.068-.004.015.027.043.07.066.128.068.28.055.557-.051.127-.048.236-.083.243-.075.007.008.032.066.057.129.12.307.347.698.535.918.191.225.486.423.763.513l.097.032-.393.387c-.451.445-1.138 1.168-1.138 1.198 0 .03.092.207.155.299.07.101.193.227.323.328.056.044.108.08.114.08.006 0 .314-.299.686-.665.371-.365.865-.841 1.098-1.059l.423-.396h.231c.207-.001.618-.033.889-.068.26.369.55.922.301-.04.003-.003.092-.023.197-.045 1.595-.325 2.956-1.049 3.702-1.972.277-.342.364-.58.37-1l.003-.253.078-.027c.042-.015.232-.084.422-.154.731-.269.859-.309 1.193-.37.434-.08 1.112-.195 1.116-.189.002.002.028.052.057.11.143.284.367.533.594.659.261.145.706.283 1.137.354 1.308.215 2.996-.089 4.414-.794.112-.056.249-.129.306-.162.085-.05.115-.058.172-.048.158.029.993.226 1.01.238.146.033.367.102.367.102.013-.013.059-.002.853.207.362.096.669.169.684.163.027-.01.107-.199.147-.348.03-.111.047-.371.032-.474l-.013-.088-.283-.089c-.309-.097-1.138-.333-1.476-.419l-.213-.054-.021-.075c-.019-.072-.016-.081.073-.212.114-.166.197-.358.254-.58.037-.147.042-.219.043-.578 0-.266-.008-.46-.025-.551-.014-.077-.022-.145-.015-.151.006-.006.113-.028.236-.048.315-.05.461-.122.537-.267.034-.065.035-.073-.001-.073-.016 0-.03-.012-.03-.026 0-.014-.026-.037-.057-.05-.048-.02-.084-.016-.245.025-.166.043-.539.118-.592.118-.011 0-.026-.05-.034-.11-.008-.06-.03-.142-.051-.184l-.039-.075.062-.011c.205-.036.42-.052.647-.047l.259.005.033.086c.018.047.039.102.045.122.02.065.034.016.021-.073-.008-.05-.033-.112-.061-.144l-.049-.058h-.214c-.204 0-.58.027-.688.049-.044.009-.058-.001-.113-.086-.106-.164-.296-.296-.553-.385-.008-.003-.042-.008-.054-.011-.004 0-.011.002-.014.001-.556-.082-1.041-.149-1.558-.163zm-.15.048c.36 0 .721.013.915.038.584.075.81.127 1.01.234.069.037.11.063.092.058-.331-.098-.686-.176-1.073-.235-.387-.058-1.185-.082-1.577-.047-.991.09-1.913.353-2.961.843-.566.294-1.157.581-1.669 1.058-.17.176-.253.302-.314.482-.022.065-.046.172-.055.239l-.016.122-.002-.112c-.002-.094-.009-.113-.042-.122-.051-.013-.049-.023.027-.173.202-.395.586-.774 1.098-1.079.169-.101.512-.285.567-.304.046-.016.046-.015.011.012-.084.065.026.019.359-.15.838-.425 1.751-.703 2.717-.828.192-.025.552-.037.912-.037zm-.211.056c.255-.006.508-.003.665.011.278.024.706.08.694.091-.004.004-.097-.001-.207-.012-1.042-.103-2.038-.036-2.943.199-.341.088-.38.095-.208.038.344-.114.879-.23 1.326-.287.162-.021.418-.034.672-.04zm.532.101c.155.004.312.018.468.032.011-.005.022-.01.033-.015.305.034.508.067.671.106.021.004.042.006.063.01l-.017.005c.103.028.202.055.278.093.198.1.278.191.398.461.073.163.072.165.032.18-.12.044-.723.181-1.361.31-.806.163-1.088.23-1.338.317-.145.051-.329.134-.236.106.456-.134 1.767-.432 2.449-.557.095-.017.258-.052.361-.076l.188-.043.026.088.025.089-.271.078c-1.602.465-2.273.649-2.718.742-.363.076-.37.074-.37-.104 0-.074.008-.098.038-.114.056-.03.047-.072-.024-.116-.044-.028-.082-.035-.13-.028-.176.026-2.441.76-3.921 1.27-.248.085-.457.154-.466.154-.015 0-.026-.054-.043-.205l.104-.326-.08.026c.289-1.116 2.97-2.561 5.841-2.482zm.888.013c.014-.005.031-.004.037.002.006.006-.005.011-.025.01-.022-.001-.027-.006-.012-.012zm.703.166c.037 0 .279.087.304.109.017.015.037.059.044.098.007.039.086.292.175.563.141.427.234.789.21.814-.004.004-.027.01-.051.013-.024.003-.057.011-.074.017-.026.011-.033-.014-.043-.175-.033-.518-.24-1.107-.468-1.334-.058-.057-.101-.104-.096-.104zm.378.214c.002-.004.009.002.021.022.011.019.016.039.011.043-.005.005-.014-.005-.021-.022-.009-.024-.013-.039-.011-.043zm.063.205c-.002-.016.004-.006.02.021.015.026.034.08.042.119.018.096.002.09-.027-.01-.021-.073-.032-.115-.034-.13zm.7.215c.03-.002.042.005.056.018.028.027.025.034-.023.078-.029.027-.119.071-.199.097-.08.026-.173.053-.206.06-.057.012-.061.008-.08-.065-.023-.089-.05-.073.289-.154.085-.02.133-.032.163-.034zm-.548.129c.042 0 .049.014.079.135.018.074.046.221.062.327.033.22.028.288-.008.115-.02-.095-.119-.417-.168-.544-.009-.024-.001-.033.035-.033zm-.142.306c.044 0 .055.055.08.398.019.27-.003.633-.05.822-.065.241-.295.612-.295.612-.009.017-.05.061-.091.099l-.073.068-.337-.073c-.934-.202-2.083-.357-2.933-.398-.385-.018-.563-.017-1.049.01l-.163.009.443-.153c1.014-.35 1.199-.422 1.25-.481.026-.031.048-.077.048-.102 0-.025.006-.047.014-.047.115 0 .681-.13 1.169-.268.871-.247 1.868-.495 1.987-.495zm-7.248.265c-.012.016-.057.062-.143.147-.204.201-.346.393-.464.63-.067.134-.073.16-.081.354-.005.121.001.257.014.324.025.127.203.663.268.809.023.052.039.097.035.101-.015.015-.136-.28-.218-.529-.138-.419-.169-.678-.113-.941.069-.321.288-.616.644-.865.047-.033.069-.047.057-.03zm1.868.137l-.145.049c.049-.016.097-.032.145-.049zm-3.355.725h.157l.022.061c.012.033.018.061.015.063-.003.002-.124.014-.271.027-.481.042-1.063.195-1.474.39-.1.048-.226.114-.281.146-.106.062-.122.056-.122-.047 0-.048.109-.121.395-.262.468-.232 1.07-.378 1.559-.378zm.738.261v.117c0 .155.039.328.142.64.147.443.318.743.563.984.154.152.421.336.463.32.014-.005.022-.002.016.006-.013.021.208.121.402.18.505.155 1.534.21 2.24.119.809-.104 1.705-.379 2.459-.755.271-.135.425-.225.798-.467.157-.102.289-.183.293-.178.004.004-.02.03-.055.056-1.017.769-2.492 1.305-3.929 1.427-.27.023-.806.022-1.067-.002-.422-.039-.885-.146-1.227-.285-.42-.17-.642-.389-.859-.846-.191-.4-.435-1.214-.359-1.193.011.003.042-.025.069-.061zm-1.431.017c.022-.001.031.006.043.022.013.018.024.04.024.048 0 .008-.063.032-.14.054-.077.022-.177.052-.224.067-.116.038-.137.035-.137-.018 0-.052.052-.076.308-.144.068-.018.103-.027.126-.028zm.892.013c.128.003.237.016.29.038.067.028.068.03.091.198.013.093.016.176.009.182-.008.007-.296.112-.642.234l-.629.222-.631.115c-.347.063-.654.12-.681.126-.046.01-.052.002-.091-.102-.023-.062-.042-.128-.042-.146 0-.053.169-.216.319-.31.376-.233 1.035-.453 1.603-.534.129-.019.276-.026.403-.023zm-4.276.041c.392.01.787.069 1.052.165.202.073.456.208.483.256.012.021.04.054.063.073.023.019.069.094.103.167.034.073.075.144.091.156.046.038.135.253.196.47.2.717.204 1.268.011 1.647-.159.312-.701.85-1.17 1.162-.978.651-2.221 1.069-3.563 1.197-.503.048-1.213.026-1.498-.047-.074-.019-.072-.019.03-.01.058.005.179.018.269.029.246.03.965.025 1.298-.01.839-.088 1.632-.297 2.365-.62.318-.14.7-.348.777-.423.027-.026.137-.11.243-.185.594-.42 1.053-.933 1.163-1.3.013-.044.031-.077.039-.072.034.021.064-.203.063-.458-.001-.228-.011-.322-.072-.631-.1-.511-.12-.575-.215-.728-.101-.163-.203-.26-.386-.368-.444-.262-.999-.376-1.882-.387l-.231-.003.183-.023.183-.024-.125-.005c-.095-.004-.061-.009.144-.023.125-.009.255-.011.386-.008zm-.799.088c0 .007-.128.028-.284.047-1.592.19-2.798.619-3.985 1.42-.401.27-.674.481-.833.642-.161.163-.194.218-.233.405-.059.279.056.815.294 1.369.044.102.08.193.08.203 0 .01-.017.023-.038.028-.049.013-.124-.093-.241-.337-.088-.185-.194-.515-.168-.524.062-.022.063-.038.013-.146-.036-.078-.055-.165-.069-.307-.024-.248-.002-.338.14-.555.122-.186.282-.344.585-.579 1.05-.812 2.231-1.335 3.528-1.56.424-.074 1.212-.143 1.212-.106zm.801.07c.583.026.991.149 1.376.402.15.098.219.179.311.362.104.207.104.211.008.226-.537.082-3.041.595-4.236.869-.343.079-.372.114-.308.375.015.063.028.128.028.146.001.035-.264.13-.714.254-.553.153-2.26.58-2.314.578-.032-.001-.077.005-.101.013-.049.017-.065-.007-.07-.104-.004-.074-.033-.062.921-.37.912-.295 1.21-.387 1.587-.488.352-.094.366-.099.241-.085-.202.022-.524.113-1.221.344-1.137.377-1.523.489-1.559.453-.031-.031-.045-.428-.019-.538.051-.21.235-.423.627-.725.926-.714 1.852-1.169 2.946-1.447.573-.145 1.116-.222 1.852-.26.239-.012.453-.014.647-.005zm8.306.797c.803.005 1.57.095 2.537.272.254.046.468.085.477.085.049 0-.04.055-.291.179-.786.39-1.646.645-2.523.748-.3.035-.909.049-1.163.027-.742-.065-1.399-.277-1.7-.547-.157-.141-.374-.446-.34-.479.006-.006.118-.027.247-.046 1.114-.164 1.953-.244 2.756-.239zm-2.177 1.087c.005-.005.027.002.048.013.022.011.141.05.266.086.125.036.209.066.188.066-.08 0-.522-.146-.502-.165zm-4.195.09c.014 0 .017.071.01.215-.019.365-.11.58-.389.912-.7.834-1.91 1.483-3.328 1.786-.172.037-.317.067-.323.067-.031-.141-.078-.297-.097-.445l-.05-.123-.024-.156.168-.143c.859-.662 1.853-1.226 3-1.702.484-.201 1.011-.411 1.033-.411zm4.76.083c.013-.005.035-.005.048 0 .013.005.002.01-.024.01-.026 0-.037-.005-.024-.01zm.116.02c.013-.005.035-.005.048 0 .013.005.002.01-.024.01-.026 0-.037-.005-.024-.01zm.136.018c.014-.005.031-.004.037.002.006.006-.005.011-.025.01-.022-.001-.027-.006-.012-.012zm-7.887.186c.009 0-.11.066-.264.146-.823.43-1.568.951-2.634 1.843-.185.155-.422.36-.527.455-.105.095-.196.172-.202.172-.038-.003-.328-.12-.402-.163-.308-.177-.587-.499-.807-.935-.078-.154-.177-.385-.177-.412 0-.041.973-.321 1.981-.571.572-.142.709-.182 1.05-.306l.116-.042.05.049c.027.027.071.056.096.062.051.013.342-.036 1.162-.193.298-.057.549-.103.558-.103zm-5.336.933c.008.007.017.043.02.079l.005.066-.164.042c-.156.04-.289.052-.341.032-.03-.012-.031-.076-.002-.093.044-.027.469-.138.482-.126zm3.821 1.296c.001.023.01.086.022.139.018.083.028.096.067.096.046 0 .051.016.073.21.002.022-.038.034-.171.051-.095.012-.311.029-.48.036l-.308.012.092-.086c.05-.047.223-.195.384-.329z" fill="#666" stroke="#666" stroke-width=".3"/>

   xmlns:dc="http://purl.org/dc/elements/1.1/"
   xmlns:cc="http://creativecommons.org/ns#"
   xmlns:rdf="http://www.w3.org/1999/02/22-rdf-syntax-ns#"
   xmlns:svg="http://www.w3.org/2000/svg"
   xmlns="http://www.w3.org/2000/svg"
   xmlns:xlink="http://www.w3.org/1999/xlink"
   xmlns:sodipodi="http://sodipodi.sourceforge.net/DTD/sodipodi-0.dtd"
   xmlns:inkscape="http://www.inkscape.org/namespaces/inkscape"
   version="1"
   width="32"
   height="32"
   id="svg12"
   sodipodi:docname="snow-top-1.svg"
   inkscape:version="0.92.1 r"&gt;
  <path d="m7.288.009c-8.276-.356-9.36 9.992-4.02 9.973.679.003 1.604-.207 2.97-1.543 7.256-10.531 14.706 3.573 17.53.919 1.71-1.912 3.496-.418 4.448.115 2.1.643 3.662.041 3.785-3.231.188-3.321-1.889-6.344-5.923-6.223-5.914.14-12.989-.047-18.787-.01" fill="url(#0)"/><path fill="#f00" fill-opacity="0" d="m0 0h32v32h-32z"/></svg>