<svg xmlns="http://www.w3.org/2000/svg" xmlns:xlink="http://www.w3.org/1999/xlink" viewBox="0 0 32 32"><defs><linearGradient xlink:href="#3" id="4" x1="-227.98" y1="-131.26" x2="-234.8" y2="-134.14" gradientUnits="userSpaceOnUse"/><linearGradient xlink:href="#3" id="2" x1="-241.01" y1="-141.61" x2="-226.57" y2="-129.44" gradientUnits="userSpaceOnUse"/><linearGradient id="3"><stop stop-color="#13a9ea"/><stop offset="1" stop-color="#372db5"/></linearGradient><linearGradient id="1"><stop stop-color="#f9f9f9"/><stop offset="1" stop-color="#999"/></linearGradient><linearGradient xlink:href="#1" id="0" x1="-239.23" y1="-133.21" x2="-241.87" y2="-125.28" gradientUnits="userSpaceOnUse"/><radialGradient xlink:href="#1" id="5" cx="-176.59" cy="-120.91" r="3.01" gradientUnits="userSpaceOnUse" gradientTransform="matrix(2.21087.05719-.05496 2.12455 156.08 146.14)"/></defs><rect width="28.2" height="28.2" x="1.898" y="1.898" fill="#1d3c65" fill-rule="evenodd" rx="5.575"/><g transform="matrix(.16167 0 0 .16167-4.659 16.02)" stroke-width="6.185"><path d="m113.93-4.165c-37.03-16.732-51.01-23.757-51.31-25.781-.197-1.328.55-2.661 2.038-3.636 1.292-.847 14.707-7.247 29.811-14.223 24.637-11.379 28.03-12.684 32.962-12.684 4.934 0 8.325 1.305 32.962 12.684 15.1 6.976 28.492 13.358 29.75 14.183 4.615 3.02 3.02 5.175-7.462 10.08-57.711 27-54.12 25.988-68.75 19.377" fill="#2aaadf"/><path d="m119.47 27.95c-2.661-1.074-33.14-14.958-45.09-20.596-6.378-3.01-11.881-6.212-12.229-7.119-.891-2.321 1.492-4.058 12.527-9.132l9.545-4.389 19.377 8.962c15.317 7.084 20.32 8.962 23.877 8.962 3.557 0 8.56-1.878 23.877-8.962l19.377-8.962 9.545 4.389c5.25 2.414 10.359 5.085 11.352 5.936 3.995 3.421 3.575 3.671-40.15 23.868-13.994 6.464-11.717 5.214-15.773 7.114-5.857 2.411-10.18 2.361-16.229-.071" fill="#81ae21"/><path d="m119.86 58.45c-2.661-1.074-33.14-14.958-45.09-20.596-6.378-3.01-11.881-6.212-12.229-7.119-.891-2.321 1.492-4.058 12.527-9.132l9.545-4.389 19.377 8.962c15.317 7.084 20.32 8.962 23.877 8.962 3.557 0 8.56-1.878 23.877-8.962l19.377-8.962 9.545 4.389c5.25 2.414 10.359 5.085 11.352 5.936 3.995 3.421 3.575 3.671-40.15 23.868-13.994 6.464-11.717 5.214-15.773 7.114-5.857 2.411-10.18 2.361-16.229-.071" fill="#eb541d"/></g><g transform="matrix(-1 0 0 1-223.97 142.77)"><g fill="#f9f9f9"><path d="m-228.95-129.3l-.27 2.221-.122-2.378z"/><path d="m-228.66-130.01l-.27 2.221-.122-2.378z"/><path d="m-228.43-129.95l-.27 1.6-.122-1.713z"/></g><path d="m-241.31-142.31c-5.577-1.531-5.951 3.24-4.58 5.493 4.381 6.983 6.796 6.577 9.398 7.895 1.712 2.064 3.451 3.4 6.469 4.1 11.69 1.559 3.242-8.417.92-8.649-5.065.012-7.547-6.123-12.206-8.838" fill="url(#0)"/><path d="m-241.31-142.31c3.76.276 5.616-.626 8.93-.421 4.319.283 8.307 2.053 7.838 6.574-.347 2.567-.37 2.25.186 4.296.532 1.535-.252 4.232-.487 4.654-2.715 4.963-1.536 4.965-2.656 7.742l-.906-.418-2.508-11.358c-7.177-.909-10.754-10.11-10.398-11.07" fill="url(#2)"/><path d="m-234.52-132.37c.362.274 1.553-5.105 1.172-5.653 1.379 2.44 1.919 4.616 2.435 6.783-1.276-.283-2.289-.554-3.607-1.13" fill="url(#4)"/><circle r="3.01" cy="-119.15" cx="-227.83" fill="url(#5)"/></g></svg>