<svg xmlns="http://www.w3.org/2000/svg" viewBox="0 0 32 32"><defs><linearGradient gradientTransform="matrix(2.59244 0 0 2.58531-157.93-277.73)" id="0" x1="67.894" y1="108.69" x2="67.854" y2="113.11" gradientUnits="userSpaceOnUse"><stop stop-color="#f9f9f9"/><stop offset="1" stop-color="#999"/></linearGradient></defs><rect width="28.2" height="28.2" x="1.898" y="1.898" fill="#fff" fill-rule="evenodd" rx="5.575"/><g transform="translate(1.898-1.898)" stroke-width=".864"><path d="m14.1 5.797v5.186a5.186441 6.915254 0 0 1 5.186441 6.915254 5.186441 6.915254 0 0 1 -5.186441 6.915254 2.59322 2.59322 0 0 0 -2.59322 2.593221 2.59322 2.59322 0 0 0 2.59322 2.59322 2.59322 2.59322 0 0 0 .221166 -.01182c6.6-.118 11.881-5.46 11.881-12.09 0-6.704-5.397-12.1-12.1-12.1" fill="#ccc"/><path d="m14.10169 5.79661a2.59322 2.59322 0 0 0 -.221166 .011818C7.28 5.927 2 11.269 2 17.898 2 24.515 7.261 29.849 13.843 29.986a2.59322 2.59322 0 0 1 -2.334911 -2.579714 2.59322 2.59322 0 0 1 2.59322 -2.593221 5.186441 6.915254 0 0 1 -5.186441 -6.915254 5.186441 6.915254 0 0 1 5.186441 -6.915254 2.59322 2.59322 0 0 0 2.59322 -2.593221 2.59322 2.59322 0 0 0 -2.59322 -2.59322" fill="#e74c3c"/></g>

   xmlns:dc="http://purl.org/dc/elements/1.1/"
   xmlns:cc="http://creativecommons.org/ns#"
   xmlns:rdf="http://www.w3.org/1999/02/22-rdf-syntax-ns#"
   xmlns:svg="http://www.w3.org/2000/svg"
   xmlns="http://www.w3.org/2000/svg"
   xmlns:xlink="http://www.w3.org/1999/xlink"
   xmlns:sodipodi="http://sodipodi.sourceforge.net/DTD/sodipodi-0.dtd"
   xmlns:inkscape="http://www.inkscape.org/namespaces/inkscape"
   version="1"
   width="32"
   height="32"
   id="svg12"
   sodipodi:docname="snow-top-4.svg"
   inkscape:version="0.92.1 r"&gt;
  <path d="m7.196.009c-8.161-.339-9.231 9.523-3.968 9.505.669.003 1.581-.197 2.929-1.471 3.773-4.147 9.01 4.479 14.696-1.042.61-.911 1.804-1.135 2.455-.627 1.045.677 2.87 2.991 3.88 3 2.359.513 4.095-.198 4.816-3.188.185-3.165-2.303-6.286-6.281-6.17-5.832.133-12.809-.045-18.527-.01" fill="url(#0)"/></svg>