<svg xmlns="http://www.w3.org/2000/svg" viewBox="0 0 32 32"><defs><linearGradient gradientTransform="matrix(-2.65552 0 0 2.58531 193.77-277.73)" id="0" x1="67.894" y1="108.69" x2="67.854" y2="113.11" gradientUnits="userSpaceOnUse"><stop stop-color="#f9f9f9"/><stop offset="1" stop-color="#999"/></linearGradient></defs><g transform="translate(42.894-3.404)" fill-rule="evenodd"><path d="m-38.545 32.428l18.301-17.701c-.526-1.303-1.046-2.413-1.533-3.223-.487-.809-.94-1.319-1.334-1.424-.095-.025-.203-.033-.326-.021v-.002c-.475.04-1.153.341-1.975.84-.822.499-1.787 1.198-2.836 2.037-2.097 1.678-4.529 3.915-6.816 6.234-2.279 2.31-4.409 4.699-5.932 6.699v2.064c0 1.902 1.01 3.491 2.451 4.496" fill="#63a8d3"/><path d="m-15.52 32.615c-.019-.146-.008-.233-.029-.383-.383-2.726-1.135-6.143-2.049-9.473l-11.11 10.746h10.338c1.066 0 2-.376 2.848-.891" fill="#cde4fd"/><path d="m-17.633 22.793c.009-.028.028-.045.037-.072-.807-2.939-1.733-5.796-2.648-8.06-.009.005-.016.011-.025.016.009.022.017.033.025.055l-18.301 17.701c.902.627 1.938 1.078 3.125 1.078h6.715z" fill="#9cc7f4"/><path d="m-35.42 5.303c-3.089 0-5.576 2.486-5.576 5.574v14.99c1.522-2 3.653-4.389 5.932-6.699 2.288-2.32 4.719-4.556 6.816-6.234 1.048-.839 2.01-1.538 2.836-2.037.822-.499 1.499-.8 1.975-.84v.002c.123-.012.231-.004.326.021.394.105.847.614 1.334 1.424.479.796.991 1.893 1.508 3.168.009-.005.016-.011.025-.016.916 2.269 1.842 5.126 2.648 8.06-.009.028-.028.045-.037.072l.035-.033c0-.002-.002-.003-.002-.004h.006l-.004.004c.913 3.33 1.666 6.747 2.049 9.473.021.15.011.237.029.383 1.604-.977 2.729-2.661 2.729-4.684v-17.05c0-3.089-2.488-5.574-5.576-5.574z" fill="#007eff"/></g>

   xmlns:dc="http://purl.org/dc/elements/1.1/"
   xmlns:cc="http://creativecommons.org/ns#"
   xmlns:rdf="http://www.w3.org/1999/02/22-rdf-syntax-ns#"
   xmlns:svg="http://www.w3.org/2000/svg"
   xmlns="http://www.w3.org/2000/svg"
   xmlns:xlink="http://www.w3.org/1999/xlink"
   xmlns:sodipodi="http://sodipodi.sourceforge.net/DTD/sodipodi-0.dtd"
   xmlns:inkscape="http://www.inkscape.org/namespaces/inkscape"
   version="1"
   width="32"
   height="32"
   id="svg12"
   sodipodi:docname="snow-top-3.svg"
   inkscape:version="0.92.1 r"&gt;
  <path d="m24.627.009c8.36-.339 9.455 9.523 4.064 9.505-.686.003-1.62-.197-3-1.471-14.665-10.216-14.549 2.967-17.708.875-1.727-1.822-1.743 4.653-4.139 5.127-2.122.613-3.699-1.385-3.824-4.503-.366-8.627 4.086-9.427 7.187-9.524 5.974.133 11.562-.045 17.419-.01" fill="url(#0)"/></svg>