<svg xmlns="http://www.w3.org/2000/svg" xmlns:xlink="http://www.w3.org/1999/xlink" viewBox="0 0 32 32"><defs><rect id="3" width="28.2" x="1.898" y="1.898" rx="5.575" height="28.2"/><linearGradient id="0" x1="16.542" y1="3.186" x2="16.14" y2="18.14" gradientUnits="userSpaceOnUse"><stop stop-color="#ffa001"/><stop offset="1" stop-color="#ff7f01" stop-opacity="0"/></linearGradient><linearGradient id="1" x1="13.786" y1="29.856" x2="14.06" y2="20.795" gradientUnits="userSpaceOnUse"><stop stop-color="#f8b249"/><stop offset="1" stop-color="#f8b249" stop-opacity="0"/></linearGradient><linearGradient gradientTransform="matrix(2.59244 0 0 2.58531-157.93-277.73)" id="2" x1="67.894" y1="108.69" x2="67.854" y2="113.11" gradientUnits="userSpaceOnUse"><stop stop-color="#f9f9f9"/><stop offset="1" stop-color="#999"/></linearGradient></defs><g fill-rule="evenodd"><use fill="#443919" xlink:href="#3"/><use fill="#ffdb60" xlink:href="#3"/><use fill="url(#0)" xlink:href="#3"/></g><path d="m17.349011 8.537903a3.547519 3.47561 0 0 0 -3.546875 3.474609 3.547519 3.47561 0 0 0 .939453 2.351563 2.780488 2.996215 0 0 0 -.509765 1.724609 2.780488 2.996215 0 0 0 2.78125 2.996094 2.780488 2.996215 0 0 0 2.027343 -.951172 1.366274 1.605971 0 0 0 .632813 .183594 1.366274 1.605971 0 0 0 1.347656 -1.353516 3.379731 3.379731 0 0 0 1.384766 .298828 3.379731 3.379731 0 0 0 3.380859 -3.378906 3.379731 3.379731 0 0 0 -3.380859 -3.380859 3.379731 3.379731 0 0 0 -1.681641 .455078 3.547519 3.47561 0 0 0 -3.375 -2.419922" fill="#716300"/><path d="m21.321 19.828c-.024-.108-.204-.707-.204-.707-.468-.908-1.12-1.554-1.81-2.145-2.533.39-2.763 1.039-3.164 1.163l-.216-.084c.615-.702 1.526-.86 2.325-1.222l-1.534-.575.048-.228 2.205.707c-.082-.344-.509-.687-.899-1.031l.204-.192c.338.331.697.725 1.01.971.567.745 1.135.991 1.702 1.486l.036-1.01c-1.15-1.113-2.137-1.573-3.03-1.666l-.084-.228c.781.196 1.437.195 2.577.959-.326-.427-.605-.948-.803-1.63l.228-.048c.261 1.04.673 1.395 1.019 1.93.015-1.701.318-2.651.647-3.536l.264.24c-1.121 2.455-.24 4.995.419 6.34z" fill="#4d3a02"/><g fill-rule="evenodd"><path d="m21.14 30.08l3.633-7.457-6.678-1.186-6.746-1.051.068-.238-3.136-.017 5.474 1.271-5.254.543-.373 1.086 4.238 1.051-9.424 2.236 1.823 2.353c.117.007 2.157 1.385 2.276 1.385z" fill="#fffba0"/><path d="m21.14 30.08l3.633-7.457-6.678-1.186-6.746-1.051.068-.238-3.136-.017 5.474 1.271-5.254.543-.373 1.086 4.238 1.051-9.424 2.236 1.823 2.353c.117.007 2.134 1.407 2.252 1.408 3.531.041 9.415 0 14.12.001" fill="url(#1)"/></g><path d="m8.554 20.38l12.688.219-.031-1-3.563-.172-.531-.453-.531.438-.906-.156-1.063.594-2.047-.797-.438.219-.297.25-1.109.063z" fill="#feb202"/><g fill-rule="evenodd"><path d="m9.06 22.825l1.044.334c0 0-.617-.492-.644-.656-.027-.163.009-.37.262-.546.506-.351 4.845-.211 4.809-.37-.036-.159-6.01-1.372-7.413-1.862-.253-.191-1.805-.456-2.853-.568-.517-.189-1.762-.593-2.377-.563v3.635c1.217-.014 2.335-.047 4.097.035 1.025.124 2.049.383 3.074.56" fill="#dcba44"/><path d="m2.938 26.323c3.627-.851 6.199-1.293 9.927-2.094-.11-.216-.338-.558-1.246-.751-1.951-.619-3.683-.944-5.635-1.213-1.667-.088-2.945-.05-4.097-.035.013 1.18-.073 2.659.109 3.321z" fill="#c2a525"/><path d="m7.129 30.09l.447-.469c.249-.208.339-.406.334-.6-.005-.193-.104-.382-.234-.568-1.783-1.048-3.525-1.935-5.238-2.717-.166-.076-.274-.116-.44-.187.449 2.497 2.495 4.46 5.131 4.541" fill="#3f3303"/></g><path d="m16.207 21.457c1.646.52 3.356.84 5.225.659l1.654-1.989c-3.558-.077-5.65.45-6.879 1.33" fill="#dcba44"/><g fill-rule="evenodd"><path d="m30.1 18.859l-.391.16c-.398-.237-.762-.084-1.281-.02-.391-.205-1.691-.52-2.652-.693-.635-.461-1.512-.443-2.354-.49-.773.37-2.12.995-2.33 1.365l-.955.947c-.257.479-.244.614.053 1.117-.257.179-.655.51-.967.871-.312.361-.538.752-.453 1.053l.439.395c-1.096.907-1.623 1.693-2.338 2.945 0 0-.191.199-.096.441.059.151.497.533.623.703.184.249.072.285.178.449l1.4 1.992h5.547c3.089 0 5.576-2.486 5.576-5.574z" fill="#443919"/><g fill="#2c1c0d"><path d="m26.18 29.81c-1.558-.758-4.684-2.704-4.457-2.568.254.153 1.152 2.762 1.152 2.762 0 0-2.678-3.02-3.254-3.559-.576-.542-.152-.407-1.033-.525-.441-.059-.582.063-.66.258-.078.195-.094.463-.289.691-.195.229-.195.228-.32.186-.019-.006-.135-.002-.16-.01.134.179.422.453.529.598.184.249.072.285.178.449l1.309 1.863.129.129h5.51c.486 0 .919-.158 1.367-.273"/><path d="m19.09 23.586l.057.074c0 0 .623-.587 1.139-.791.515-.204 1.199.035 1.199.035 0 0 .094-.156 1.221-.084 1.127.072 3.969 1.066 3.969 1.066 0 0-1.476-1.233-2.746-1.809-.635-.288-1.222-.373-1.65-.385-.428-.012-.697.049-.697.049l-2.553.723c-.093.189-.28.392-.236.549l.439.395c-.066.055-.079.124-.141.178"/></g></g><path d="m13.225 29.85c.397.119.793.247 1.231.247h8.26l-4.872-2.337c-.963.083-1.926-.066-2.889.311-.994.452-1.231.79-1.733 1.167-.173.281-.095.45.003.611" fill="#443919"/><path d="m19.09507 1.899143a4.43661 4.346679 28.583389 0 0 -.05078 .046875 4.43661 4.346679 28.583389 0 0 -.287109 .326172 4.43661 4.346679 28.583389 0 0 -.253906 .351563 4.43661 4.346679 28.583389 0 0 -.15625 .263672 4.43661 4.346679 28.583389 0 0 -.1875 .392578 4.43661 4.346679 28.583389 0 0 -.146485 .408203 4.43661 4.346679 28.583389 0 0 -.105469 .421875 4.43661 4.346679 28.583389 0 0 -.06055 .431641 4.43661 4.346679 28.583389 0 0 -.01758 .435547 4.43661 4.346679 28.583389 0 0 .02734 .4375 4.43661 4.346679 28.583389 0 0 .07031 .431641 4.43661 4.346679 28.583389 0 0 .04297 .185547 3.477343 3.747137 28.583389 0 0 -.314453 .189453 3.477343 3.747137 28.583389 0 0 -.296875 .21875 3.477343 3.747137 28.583389 0 0 -.27539 .248047 3.477343 3.747137 28.583389 0 0 -.253907 .273438 3.477343 3.747137 28.583389 0 0 -.226562 .296875 3.477343 3.747137 28.583389 0 0 -.199219 .318359 3.477343 3.747137 28.583389 0 0 -.02539 .044922 3.477343 3.747137 28.583389 0 0 -.16211 .337891 3.477343 3.747137 28.583389 0 0 -.132812 .349609 3.477343 3.747137 28.583389 0 0 -.09766 .359375 3.477343 3.747137 28.583389 0 0 -.0625 .365234 3.477343 3.747137 28.583389 0 0 -.0293 .369141 3.477343 3.747137 28.583389 0 0 .0078 .367188 3.477343 3.747137 28.583389 0 0 .04102 .363281 3.477343 3.747137 28.583389 0 0 .07813 .353516 3.477343 3.747137 28.583389 0 0 .111328 .341797 3.477343 3.747137 28.583389 0 0 .142578 .326171 3.477343 3.747137 28.583389 0 0 .175781 .308594 3.477343 3.747137 28.583389 0 0 .207031 .285156 3.477343 3.747137 28.583389 0 0 .232422 .261719 3.477343 3.747137 28.583389 0 0 .257813 .234375 3.477343 3.747137 28.583389 0 0 .283203 .205078 3.477343 3.747137 28.583389 0 0 .208984 .125 3.477343 3.747137 28.583389 0 0 .314453 .148438 3.477343 3.747137 28.583389 0 0 .330079 .115234 3.477343 3.747137 28.583389 0 0 .339843 .08008 3.477343 3.747137 28.583389 0 0 .347657 .04297 3.477343 3.747137 28.583389 0 0 .353515 .0059 3.477343 3.747137 28.583389 0 0 .353516 -.03125 3.477343 3.747137 28.583389 0 0 .351562 -.06836 3.477343 3.747137 28.583389 0 0 .345703 -.101562 3.477343 3.747137 28.583389 0 0 .06055 -.02344 1.708694 2.00847 28.583389 0 0 .0957 .148438 1.708694 2.00847 28.583389 0 0 .111328 .134765 1.708694 2.00847 28.583389 0 0 .123047 .121094 1.708694 2.00847 28.583389 0 0 .134766 .105469 1.708694 2.00847 28.583389 0 0 .119141 .07226 1.708694 2.00847 28.583389 0 0 .15625 .07227 1.708694 2.00847 28.583389 0 0 .162109 .05469 1.708694 2.00847 28.583389 0 0 .169922 .03516 1.708694 2.00847 28.583389 0 0 .173828 .01563 1.708694 2.00847 28.583389 0 0 .175781 -.002 1.708694 2.00847 28.583389 0 0 .177735 -.02344 1.708694 2.00847 28.583389 0 0 .177734 -.04102 1.708694 2.00847 28.583389 0 0 .175781 -.06055 1.708694 2.00847 28.583389 0 0 .171875 -.08008 1.708694 2.00847 28.583389 0 0 .164063 -.0957 1.708694 2.00847 28.583389 0 0 .158203 -.111328 1.708694 2.00847 28.583389 0 0 .148437 -.128906 1.708694 2.00847 28.583389 0 0 .138672 -.140625 1.708694 2.00847 28.583389 0 0 .126953 -.154297 1.708694 2.00847 28.583389 0 0 .01367 -.02148 4.22677 4.22677 0 0 0 .271485 .324218 4.22677 4.22677 0 0 0 .302734 .294922 4.22677 4.22677 0 0 0 .330078 .263672 4.22677 4.22677 0 0 0 .355469 .228516 4.22677 4.22677 0 0 0 .08203 .04687 4.22677 4.22677 0 0 0 .38086 .183594 4.22677 4.22677 0 0 0 .398437 .144531 4.22677 4.22677 0 0 0 .408203 .103516 4.22677 4.22677 0 0 0 .417969 .0625 4.22677 4.22677 0 0 0 .421875 .02148 4.22677 4.22677 0 0 0 .421875 -.02148 4.22677 4.22677 0 0 0 .417969 -.06445 4.22677 4.22677 0 0 0 .410156 -.103515 4.22677 4.22677 0 0 0 .396484 -.146485 4.22677 4.22677 0 0 0 .38086 -.183593 4.22677 4.22677 0 0 0 .359375 -.220703 4.22677 4.22677 0 0 0 .335937 -.25586 4.22677 4.22677 0 0 0 .308594 -.289062 4.22677 4.22677 0 0 0 .279297 -.31836 4.22677 4.22677 0 0 0 .111328 -.15625V7.475c0-3.089-2.488-5.576-5.576-5.576z" fill="#514b01" fill-rule="evenodd"/><path d="m24.588 19.07c-.808 1.261-.343-1.5-.343-1.5.344-1.039-1.014-4.123-1.103-4.387-2.304-.721-1.085-.624-1.475-.685l-.148-.16c.626.074 1.184.407 1.792.305.073-.325-.145-.792-.332-1.244l.252-.078c.148.42.288.902.448 1.238.915 2.044.751 1.496 1.026 2.15-.091-1.859.209-2.935 1.047-4.339l1.162-.097c-2.154 1.545-1.721 7.212-1.327 8.759z" fill="#4d3a02"/>

   xmlns:dc="http://purl.org/dc/elements/1.1/"
   xmlns:cc="http://creativecommons.org/ns#"
   xmlns:rdf="http://www.w3.org/1999/02/22-rdf-syntax-ns#"
   xmlns:svg="http://www.w3.org/2000/svg"
   xmlns="http://www.w3.org/2000/svg"
   xmlns:xlink="http://www.w3.org/1999/xlink"
   xmlns:sodipodi="http://sodipodi.sourceforge.net/DTD/sodipodi-0.dtd"
   xmlns:inkscape="http://www.inkscape.org/namespaces/inkscape"
   version="1"
   width="32"
   height="32"
   id="svg12"
   sodipodi:docname="snow-top-4.svg"
   inkscape:version="0.92.1 r"&gt;
  <path d="m7.196.009c-8.161-.339-9.231 9.523-3.968 9.505.669.003 1.581-.197 2.929-1.471 3.773-4.147 9.01 4.479 14.696-1.042.61-.911 1.804-1.135 2.455-.627 1.045.677 2.87 2.991 3.88 3 2.359.513 4.095-.198 4.816-3.188.185-3.165-2.303-6.286-6.281-6.17-5.832.133-12.809-.045-18.527-.01" fill="url(#2)"/></svg>