<svg xmlns="http://www.w3.org/2000/svg" viewBox="0 0 32 32"><rect width="28.2" height="28.2" x="1.898" y="1.898" fill="#394e6f" fill-rule="evenodd" rx="5.575"/><g transform="translate(44.42 3.895)" fill="#fff" stroke="#394e6f" stroke-linejoin="round" stroke-linecap="round" stroke-width=".5"><circle cy="10.605" cx="-25.921" r="3.25"/><circle cy="17.11" cx="-18.421" r="1.75"/><circle cy="15.11" cx="-22.421" r="3.75"/><circle cy="15.605" cx="-36.921" r="3.25"/><circle cy="9.105" cx="-33.921" r="1.75"/><circle cy="13.11" cx="-33.421" r="3.75"/><circle cy="17.11" cx="-33.421" r="1.75"/><circle cy="8.605" cx="-29.921" r="3.25"/><circle cy="14.11" cx="-28.421" r="4.75"/></g>

   xmlns:dc="http://purl.org/dc/elements/1.1/"
   xmlns:cc="http://creativecommons.org/ns#"
   xmlns:rdf="http://www.w3.org/1999/02/22-rdf-syntax-ns#"
   xmlns:svg="http://www.w3.org/2000/svg"
   xmlns="http://www.w3.org/2000/svg"
   xmlns:sodipodi="http://sodipodi.sourceforge.net/DTD/sodipodi-0.dtd"
   xmlns:inkscape="http://www.inkscape.org/namespaces/inkscape"
   height="32"
   width="32"
   version="1"
   id="svg8"
   sodipodi:docname="star-mime-2.svg"
   inkscape:version="0.92.1 r"&gt;
  <g transform="translate(152.47 194.05)" fill="#fff"><path d="m-125.38-193.25l-.077 3.548 3.072 1.831-3.548-.077-3.135 6.791 1.38-7.268-3.072-1.831 3.548.077z"/><path d="m-125.41-183.04l.042-1.955-1.692-1.01 1.955.042 1.727-3.741-.76 4 1.692 1.01-1.955-.042z"/></g></svg>