<svg xmlns="http://www.w3.org/2000/svg" viewBox="0 0 32 32"><defs><linearGradient gradientTransform="matrix(2.54182 0 0 2.58531-153.47-277.37)" id="0" x1="67.894" y1="108.69" x2="67.854" y2="113.11" gradientUnits="userSpaceOnUse"><stop stop-color="#f9f9f9"/><stop offset="1" stop-color="#999"/></linearGradient></defs><g fill-rule="evenodd"><g fill="#4e91d9"><rect width="28.2" height="28.2" x="1.898" y="1.898" rx="5.575"/><path d="m15.977 15.712l-.205.256-.023.32.457-.039.047-.32z"/><path d="m16.363 15.586l-.25.006-.131.336h-.633v.326h.152c0 0 .008.069.021.16l.387-.033.242-.15.063-.303.313-.027.123-.254-.285-.061z"/></g><g fill="#83b2e4"><path d="m20.21 23.72l.139-.781-.457-.127v-3.775c0 0-1.282-.973-1.355-.973-.074 0-.68-.164-.68-.164l-.127-.713-1.668-2.088.166-.752.055-1.227 1.154-.807-.166-1.375-1.684-.125-1.318-1.506-.936-.256-.604-.113.074-.549-.77-.109v.313l-.379-.094v9.645c0 3.089 2.488 5.576 5.576 5.576z"/><path d="m16.239 1.897l.031.744.841.514-.033.771-.807.273.055.256.972.439-.02.531-.282.023c-.001-.009-.004-.014-.004-.014l-1.224-.377-.051-.393.356-.246v-.359l-.385-.096-.096.33-.676.105-.068-.023v.033l-.233.037-.192-.387-.219-.096h-.483l-.217.18v.398l.411.137.407.057-.092.041-.371.412-.162-.207-.36-.094-.976.918.127.104-1.443.801-1.357 1.41-.094.627-1.361.895-.674.676.076 1.355-.936-.436.008-.793-2.604.002-1.347.682-.586 1.078-.231.854.377.83 1.063.129 1.687-1.127.149.559-.516.973 1.284.219.129 1.982 1.759.299 1.118-1.291 1.359.273.475.664 1.302-.076.037-.385.716.346.805 1.264 1.394.02.514.898.072 1.098 1.542.586 1.941.02.569.934.862.275-.164.771-.944 1.197-.276 2.654-.852.672-1.265-.035-.42.73.313 1.377-.929 1.186h8.44c3.092 0 5.581-2.488 5.581-5.576v-6.275l-.557-.059-.512-.514h-.936l-.477.439h-1.65l-.055.146h-.919l-2.107-2.398.018-1.867.348-.129.131-.715h-.497l-.201-.75 2.438-1.758v-1.246l1.193-.662.485.047h.979l.768-.41 1.552-.121v-.781c0-.368-.142-.688-.209-1.035l-.592-.121-1.081 1.402-.213.549-.688.061-1.022.008-.612-.285-.18-1.211.219-.58 1.04-.227 1.134.227.139-.627-.481-.113.164-.977 1.142-.178.09-.125c-.074-.102-.13-.216-.211-.313l-.166.199-.854.08h-.639l.07-.76.534-.109-.045-.357-.497-.311-.348-.238v-.031c-.697-.312-1.458-.504-2.274-.504m2.119.717l.422.184-.039.477-.907.641h-.512v-.457h.002l.442-.705m-10.983 2.537h.002l.285.061-.123.254-.313.027-.063.303-.242.15-.387.033c-.013-.091-.021-.16-.021-.16h-.152v-.326h.633l.131-.336m-1.425.336l.276.217-.047.32-.457.039.023-.32z"/></g><path d="m15.777 15.993l-.002.014h.422l.027-.014z" fill="#4e91d9"/><path d="m14.06 14.966l.084.309.549.359 1.1.15v1.25l.508-.082.467-.977 1.168-.369v-.641z" fill="#83b2e4"/></g><path d="m11.909 7c-5.058.187-5.67 2.654-4.235 6.01.435 1.017 1.821.931 1.043-.102-3.266-10.172 18.44-.873 14.08 5.166-1.231 1.364-3.178 1.729-4.742 1.038-.712-.314-2.01.094-.962.683 2.125 1.196 7.162.512 7.765-2.334 1.502-7.089-9.299-10.595-12.949-10.461m6.87 5.18c-2.992 3.269-5.925 10.05-7.527 11.648-.867.866-2.073-.717-2.435-.224-.662.901.685 1.376 2.047 1.392 3.209.059 9.187-13.95 7.915-12.816z" fill="#333"/>

   xmlns:dc="http://purl.org/dc/elements/1.1/"
   xmlns:cc="http://creativecommons.org/ns#"
   xmlns:rdf="http://www.w3.org/1999/02/22-rdf-syntax-ns#"
   xmlns:svg="http://www.w3.org/2000/svg"
   xmlns="http://www.w3.org/2000/svg"
   xmlns:xlink="http://www.w3.org/1999/xlink"
   xmlns:sodipodi="http://sodipodi.sourceforge.net/DTD/sodipodi-0.dtd"
   xmlns:inkscape="http://www.inkscape.org/namespaces/inkscape"
   height="32"
   width="32"
   version="1"
   id="svg8"
   sodipodi:docname="snow-top-2.svg"
   inkscape:version="0.92.1 r"&gt;
  <path d="m24.646 6.111c2.995 2.684 1.381 7.817 3.674 8.291 2.031.613 3.541-1.385 3.66-4.503.35-8.627-3.911-9.427-6.879-9.524-28.342-2.047-1.762 4.92-.455 5.736" fill="url(#0)"/></svg>