<svg xmlns="http://www.w3.org/2000/svg" xmlns:xlink="http://www.w3.org/1999/xlink" viewBox="0 0 32 32"><defs><linearGradient xlink:href="#3" id="4" gradientUnits="userSpaceOnUse" x1="27.558" y1="-133.46" x2="22.09" y2="-134.43"/><linearGradient xlink:href="#3" id="2" gradientUnits="userSpaceOnUse" x1="15.879" y1="-141.91" x2="30.32" y2="-129.74"/><linearGradient id="3"><stop stop-color="#55c03f"/><stop offset="1" stop-color="#198b26"/></linearGradient><linearGradient id="1"><stop stop-color="#f9f9f9"/><stop offset="1" stop-color="#999"/></linearGradient><linearGradient xlink:href="#1" id="0" gradientUnits="userSpaceOnUse" x1="17.658" y1="-133.51" x2="15.02" y2="-125.58"/><radialGradient xlink:href="#1" id="5" cx="-176.59" cy="-120.91" r="3.01" gradientUnits="userSpaceOnUse" gradientTransform="matrix(2.21087.05719-.05496 2.12455 412.97 145.84)"/></defs><g transform="matrix(.6948 0 0 .6948 31.477 6)" stroke-width="1.439"><path d="m-39.31 14.15v-17.245h17.245 17.245v17.245 17.245h-17.245-17.245" fill="#d6effa"/><path d="m-39.31 14.15v-17.245h17.245 17.245v17.245 17.245h-17.245-17.245m11.654-20.828c0-1.765-.033-1.805-1.472-1.805-.606 0-1.161-.06-1.234-.133-.215-.215-1.771-.439-3.289-.473-.778-.018-1.793-.076-2.256-.13-.652-.076-.856-.058-.906.083-.036.1-.021.939.033 1.866l.097 1.684 1.617.029c.889.016 1.98.085 2.425.154.445.069 1.748.116 2.897.106l2.088-.019zm10.182 1.317c.005-.05.036-.9.068-1.89l.058-1.799-1.112.115c-.612.063-1.637.115-2.278.115-.642 0-1.105.038-1.03.084.264.163-.16.27-1.072.273-.499.001-1.514.017-2.255.035l-1.347.033-.085.394c-.107.494-.141 2.264-.048 2.505.055.144.964.184 4.581.203 2.481.013 4.516-.017 4.521-.067m3.02-.336c.142-.142.443-.226.815-.226.585 0 .878-.168.597-.342-.135-.083-.714-.129-2.249-.179-.579-.019-.755-.189-.353-.343.121-.046.871-.115 1.667-.154.797-.038 1.652-.128 1.902-.2.249-.072 1.06-.136 1.802-.144.741-.007 1.5-.057 1.685-.111.185-.054.5-.053.7.002.451.124.605-.055.591-.686l-.011-.472-2.29.035c-2.731.042-3.459-.029-3.406-.335.024-.138-.106-.257-.367-.333-.52-.153-2.664.008-2.793.21-.148.23-.123 1.498.037 1.919.092.242.096.495.01.741-.071.205-.095.504-.053.666.069.265.146.288.784.235.415-.034.801-.152.933-.285m6.909.108c.093-.031.168-.187.168-.347 0-.284-.03-.289-1.314-.202-.722.049-1.808.093-2.413.097-.946.007-1.108.042-1.163.253-.035.135-.208.272-.383.305-.175.033.863.034 2.308.004 1.445-.031 2.703-.081 2.796-.111m-22.533-3.971c-.046-.074-.307-.134-.581-.133-.371.002-.446.035-.295.133.269.174.983.174.876 0m2.29-.819c0-.157-.526-.209-2.897-.287-3.857-.127-6.115-.046-6.173.223-.05.234 1.237.291 6.105.269 2.467-.011 2.964-.046 2.964-.205m3.03.053c.532-.073.565-.096.269-.184-.613-.184-2.02-.148-2.02.052 0 .099.028.208.063.243.067.067.696.026 1.688-.11" fill="#a9d9f7"/><path d="m-39.31 14.15v-17.245h17.245 17.245v17.245 17.245h-17.245-17.245m11.617-19.377c.144-.144.087-5.88-.06-6.03-.053-.053-.614-.144-1.245-.201-.785-.072-1.292-.193-1.603-.386-.325-.201-.68-.281-1.247-.282-.48-.001-.952-.088-1.197-.222-.222-.122-.756-.267-1.187-.322-.43-.055-.885-.192-1.01-.304-.125-.112-.438-.224-.694-.25l-.466-.046-.317 1.078c-.331 1.124-.346 2.154-.083 5.538l.085 1.092 2.038.086c1.121.048 2.402.165 2.847.261.9.195 3.941.183 4.14-.015zm10.24.025c.123-.076.138-4.742.017-5.471-.096-.582-.351-.646-1.184-.298-.409.171-.959.195-3.149.141-1.46-.036-2.987-.136-3.395-.222-1.15-.242-1.246-.232-1.339.143-.046.185-.081 1.549-.079 3.03l.003 2.694 3.57.078c3.418.074 5.332.041 5.555-.097m10.141-2.204v-2.358l-.539-.041c-.296-.023-1.054-.137-1.684-.253-.63-.117-1.509-.223-1.954-.236-1.066-.032-1.29-.081-.886-.194.18-.05.35-.162.379-.248.082-.245-.739-.336-1.851-.204-.556.066-1.29.094-1.631.064-.607-.054-.623-.046-.707.377-.048.238-.087 1.517-.087 2.841v2.408l1.583.015c.871.008 1.947.06 2.391.117.445.056 1.748.095 2.897.086l2.088-.015z" fill="#95b5d5"/><path d="m-39.31 14.15v-17.245h17.245 17.245v17.245 17.245h-17.245-17.245m10.643-18.693c0-.093.152-.168.337-.168.185 0 .443-.106.573-.236.211-.211.236-.562.236-3.32v-3.084l-.741-.246c-.408-.135-.91-.248-1.116-.25-.206-.002-.592-.095-.858-.206-.266-.111-.679-.202-.918-.202-.404 0-1.757-.399-2.125-.626-.089-.055-.398-.083-.686-.062-.415.03-.602-.037-.901-.324-.31-.297-.453-.345-.799-.269-.267.059-.496.031-.624-.075-.457-.379-.657.393-.816 3.139-.061 1.066-.026 1.756.136 2.627.121.65.235 1.472.253 1.828l.033.647 1.751.038c1.373.03 2.066.117 3.21.407.802.203 1.681.35 1.954.326.278-.024.485.016.473.092-.012.074.124.135.303.135.179 0 .326-.076.326-.168zm21.474-.382c.045-.117.082-1.299.082-2.627v-2.414h-.473c-.311 0-.663-.138-1.031-.404-.47-.34-.684-.404-1.352-.404-.437 0-1.194-.101-1.684-.223-.738-.185-1.091-.2-2.074-.088-.652.075-1.459.094-1.794.043-.368-.056-.665-.037-.749.047-.087.087-.14 1.183-.14 2.925 0 3.217-.019 3.165 1.11 3.043.39-.042 1.618.004 2.729.102 1.111.098 2.757.186 3.657.196 1.378.014 1.649-.017 1.718-.196m-10.148-.209c.198-.37.122-6.101-.083-6.306-.096-.096-.494-.074-1.279.07-1.579.289-4.826.292-6.451.005-1.022-.181-1.291-.191-1.379-.052-.131.206-.153 6.353-.024 6.482.049.049 2.109.09 4.576.09 4.443 0 4.488-.003 4.64-.288m4.24-6.727c.049-.079.061-.171.027-.205-.094-.094-.504.092-.504.229 0 .169.37.151.477-.023" fill="#cab59a"/><path d="m-39.31 14.15v-17.245h17.245 17.245v17.245 17.245h-17.245-17.245m7.275-8.892c0-.074-.227-.134-.505-.133-.376.002-.453.036-.303.133.266.172.808.172.808 0zm2.964-.719c0-.082-.124-.026-.275.125-.173.173-.242.361-.186.507.076.198.116.18.275-.125.102-.197.186-.425.186-.507m-.562.248c.12-.12-.177-.533-.418-.581-.117-.023-.249.081-.298.236-.062.197-.203.277-.483.277-.217 0-.395.062-.395.137 0 .143 1.445.08 1.594-.069m3.576-.634c-.133-.216-.455-.101-.455.163 0 .234.035.248.261.108.143-.09.231-.211.194-.271m-8.808-5.155c.259-.12.68-.369.936-.554.273-.197.551-.299.674-.248.269.113.424.111.715-.01.167-.069.236-.035.236.119 0 .119.045.216.101.215.056-.001.879-.088 1.831-.194 1.64-.183 2.379-.416 2.379-.75 0-.072.091-.132.202-.132.235 0 .29-.873.064-1.013-.076-.047-.122-.183-.101-.303.025-.144-.11-.261-.401-.346-.519-.152-.589-.494-.101-.494.185 0 .459-.122.609-.272.259-.259.27-.416.236-3.321l-.036-3.049-.741-.246c-.408-.135-.91-.247-1.116-.249-.206-.002-.592-.095-.858-.206-.266-.111-.679-.202-.918-.202-.404 0-1.757-.399-2.125-.626-.089-.055-.398-.083-.686-.062-.415.03-.602-.037-.901-.324-.31-.297-.453-.345-.799-.269-.273.06-.497.031-.633-.083-.318-.264-.525.111-.662 1.194-.201 1.592-.06 6.387.202 6.878.067.126.578.185 1.836.213 1.367.03 2.061.119 3.217.411.882.223 1.652.344 1.917.301.243-.04.473-.022.511.039.145.234-.411.48-1.395.616-.88.122-1.026.18-1.026.406 0 .145-.067.377-.149.515-.127.214-.247.237-.808.156-.363-.052-1.418-.105-2.344-.116l-1.684-.021-.029 1.197-.029 1.197.703-.075c.386-.041.915-.174 1.174-.294m4.914-2.626c.111-.18.96-.324 1.164-.197.122.076.097.132-.092.206-.382.15-1.166.143-1.072-.009m3.757.295c.043-.069-.01-.24-.116-.381-.176-.232-.193-.187-.186.485.006.59.029.668.116.381.06-.198.144-.416.186-.485m19-1.591c.045-.117.082-1.299.082-2.627v-2.414h-.473c-.311 0-.663-.138-1.031-.404-.47-.34-.684-.404-1.352-.404-.437 0-1.194-.101-1.684-.223-.738-.185-1.091-.2-2.074-.088-.652.075-1.459.094-1.794.043-.368-.056-.665-.037-.749.047-.087.087-.14 1.183-.14 2.925 0 3.217-.019 3.165 1.11 3.043.39-.042 1.618.004 2.729.102 1.111.098 2.757.186 3.657.196 1.378.014 1.649-.017 1.718-.196m-10.148-.209c.198-.37.122-6.101-.083-6.306-.096-.096-.494-.074-1.279.07-1.579.289-4.826.292-6.451.005-1.022-.181-1.291-.191-1.379-.052-.131.206-.153 6.353-.024 6.482.049.049 2.109.09 4.576.09 4.443 0 4.488-.003 4.64-.288m4.24-6.727c.049-.079.061-.171.027-.205-.094-.094-.504.092-.504.229 0 .169.37.151.477-.023" fill="#67a0e0"/><path d="m-39.31 14.15v-17.245h17.245 17.245v17.245 17.245h-17.245-17.245m7.275-8.892c0-.074-.227-.134-.505-.133-.376.002-.453.036-.303.133.266.172.808.172.808 0zm2.964-.719c0-.082-.124-.026-.275.125-.173.173-.242.361-.186.507.076.198.116.18.275-.125.102-.197.186-.425.186-.507m-.562.248c.12-.12-.177-.533-.418-.581-.117-.023-.249.081-.298.236-.062.197-.203.277-.483.277-.217 0-.395.062-.395.137 0 .143 1.445.08 1.594-.069m3.576-.634c-.133-.216-.455-.101-.455.163 0 .234.035.248.261.108.143-.09.231-.211.194-.271m-8.808-5.155c.259-.12.68-.369.936-.554.273-.197.551-.299.674-.248.269.113.424.111.715-.01.167-.069.236-.035.236.119 0 .119.045.216.101.215.056-.001.879-.088 1.831-.194 1.64-.183 2.379-.416 2.379-.75 0-.072.091-.132.202-.132.235 0 .29-.873.064-1.013-.076-.047-.122-.183-.101-.303.025-.144-.11-.261-.401-.346-.519-.152-.589-.494-.101-.494.185 0 .458-.121.606-.269.253-.253.269-.448.267-3.267-.001-1.649-.054-3.08-.118-3.181-.125-.198-1.01-.407-1.757-.417-.254-.003-.709-.123-1.01-.267-.301-.144-.991-.321-1.533-.394-.542-.073-1.133-.23-1.313-.348-.18-.118-.616-.252-.968-.297-.353-.045-.772-.201-.931-.346-.35-.318-1.38-.577-1.563-.394-.211.211-.432 2.28-.421 3.926.013 1.815.179 4.169.313 4.419.067.126.578.185 1.836.213 1.367.03 2.061.119 3.217.411.882.223 1.652.344 1.917.301.243-.04.473-.022.511.039.145.234-.411.48-1.395.616-.88.122-1.026.18-1.026.406 0 .145-.067.377-.149.515-.127.214-.247.237-.808.156-.363-.052-1.418-.105-2.344-.116l-1.684-.021-.029 1.197-.029 1.197.703-.075c.386-.041.915-.174 1.174-.294m4.914-2.626c.111-.18.96-.324 1.164-.197.122.076.097.132-.092.206-.382.15-1.166.143-1.072-.009m3.757.295c.043-.069-.01-.24-.116-.381-.176-.232-.193-.187-.186.485.006.59.029.668.116.381.06-.198.144-.416.186-.485m19-1.591c.102-.265.077-5.266-.036-7.264l-.084-1.482-.382-.044c-.24-.028-.566.079-.876.288-.271.182-.792.369-1.157.415-.365.046-.76.171-.878.277-.118.107-.672.251-1.232.32-.56.069-1.206.224-1.437.343-.233.121-.946.255-1.607.304-.654.048-1.264.147-1.357.22-.126.099-.168.907-.168 3.199 0 3.529-.028 3.446 1.11 3.323.39-.042 1.618.004 2.729.102 1.111.098 2.757.186 3.657.196 1.378.014 1.649-.017 1.718-.196m-10.153-.2c.194-.363.124-6.115-.077-6.316-.097-.097-.492-.075-1.28.069-1.579.289-4.826.292-6.451.005-1.022-.181-1.291-.191-1.379-.052-.131.206-.153 6.353-.024 6.482.049.049 2.109.09 4.576.09 4.394 0 4.489-.006 4.635-.278" fill="#9a9b9f"/><path d="m-39.31 14.15v-17.245h17.245 17.245v17.245 17.245h-17.245-17.245m3.02-5.067c.325-.125.254-.322-.116-.322-.338 0-.539.165-.386.318.108.108.23.109.502.004zm29.11-.044c.11-.178-.131-.295-.398-.193-.18.069-.189.11-.046.2.234.148.348.147.443-.007m-5.989-1.895c0-.074-.095-.135-.21-.135-.116 0-.173.061-.127.135.046.074.14.135.21.135.07 0 .127-.061.127-.135m-12.606-.824c-.094-.151-.731-.157-.731-.007 0 .201.135.255.473.19.183-.035.299-.117.258-.183m8.368.141c.124-.201-.02-.31-.278-.211-.119.046-.179.144-.133.219.109.177.298.173.41-.008m-14.623-1.204c0-.074-.227-.134-.505-.133-.376.002-.453.036-.303.133.266.172.808.172.808 0m2.964-.719c0-.082-.124-.026-.275.125-.173.173-.242.361-.186.507.076.198.116.18.275-.125.102-.197.186-.425.186-.507m-.562.248c.12-.12-.177-.533-.418-.581-.117-.023-.249.081-.298.236-.062.197-.203.277-.483.277-.217 0-.395.062-.395.137 0 .143 1.445.08 1.594-.069m3.576-.634c-.133-.216-.455-.101-.455.163 0 .234.035.248.261.108.143-.09.231-.211.194-.271m-8.981-5.056c.28-.128.687-.376.905-.551.285-.23.51-.3.808-.255.227.035.514.011.636-.053.151-.079.246-.055.295.074.055.144.296.18.99.148.505-.023 1.017-.084 1.139-.134.122-.05.262-.027.311.052.164.266 1.022.07 1.824-.415.111-.067.313-.159.449-.204.216-.072.247-.242.248-1.377.001-.712.02-2.507.043-3.989.045-2.918-.006-3.626-.283-3.902-.099-.099-.56-.223-1.025-.276-.465-.053-1.01-.18-1.207-.282-.199-.102-.866-.266-1.484-.365-.618-.099-1.274-.277-1.458-.395-.184-.118-.698-.257-1.143-.309-.512-.059-.915-.191-1.099-.359-.344-.314-1.38-.58-1.559-.4-.182.182-.589 3.333-.551 4.267.103 2.531.213 3.722.41 4.423.184.653.195.915.068 1.549-.089.442-.119 1.232-.073 1.875l.08 1.111h.582c.32 0 .812-.105 1.092-.233m-.561-4.067c-.043-.07-.021-.163.049-.206.07-.043.163-.021.206.049.043.07.021.163-.049.206-.07.043-.163.021-.206-.049m10.401 2.471c.743-.119.936-.252.728-.503-.186-.224.035-.363.579-.363.17 0 .385-.091.477-.202.147-.177.029-.202-.947-.202-1.082 0-1.108-.008-.887-.253.126-.139.211-.336.189-.438-.046-.219.366-.245 4.647-.289 2.439-.025 2.957-.065 3.063-.233.141-.223.179-5.29.046-6.096l-.084-.505h-.715c-.393 0-1.098.086-1.565.191-1.666.374-2.411.389-4.04.081-.843-.159-1.832-.271-2.199-.247-.637.04-.671.062-.759.496-.116.573-.049 8.697.074 8.896.064.103.205.088.474-.05.21-.109.623-.236.917-.283m18.09-2.357c.149-.278.091-3.873-.118-7.333l-.089-1.482-.382-.044c-.24-.028-.566.079-.876.288-.271.182-.792.369-1.157.415-.365.046-.761.171-.879.279-.122.111-.768.261-1.492.349-.72.087-1.372.239-1.495.349-.135.121-.661.226-1.381.277-.71.05-1.22.151-1.311.261-.211.255-.209 6.182.003 6.437.118.143.582.189 1.936.191 1.458.003 3.538.087 6.727.272.246.014.414-.07.515-.258" fill="#75889e"/><path d="m-39.31 14.15v-17.245h17.245 17.245v17.245 17.245h-17.245-17.245m3.063-5.069c.377-.101.263-.32-.167-.32-.331 0-.529.167-.378.318.105.105.16.105.545.002zm29.14-.118c0-.214-.473-.283-.595-.086-.099.161.054.288.348.288.136 0 .247-.091.247-.202m-25.801-1.147c-.047-.075-.141-.102-.21-.059-.187.115-.152.196.085.196.116 0 .172-.062.125-.137m19.739-.671c0-.074-.091-.135-.202-.135-.111 0-.202.061-.202.135 0 .074.091.135.202.135.111 0 .202-.061.202-.135m-12.622-.663c.06-.006.072-.071.026-.145-.1-.162-.741-.182-.741-.022 0 .186.14.268.38.222.125-.024.276-.048.336-.054m8.446-.078c0-.217-.123-.25-.46-.121-.274.105-.141.323.198.323.144 0 .261-.091.261-.202m-14.685-1.145c0-.074-.227-.134-.505-.133-.376.002-.453.036-.303.133.266.172.808.172.808 0m2.964-.719c0-.082-.124-.026-.275.125-.173.173-.242.361-.186.507.076.198.116.18.275-.125.102-.197.186-.425.186-.507m-.562.248c.12-.12-.177-.533-.418-.581-.117-.023-.249.081-.298.236-.062.197-.203.277-.483.277-.217 0-.395.062-.395.137 0 .143 1.445.08 1.594-.069m3.576-.634c-.133-.216-.455-.101-.455.163 0 .234.035.248.261.108.143-.09.231-.211.194-.271m-8.981-5.056c.28-.128.687-.376.905-.551.285-.23.51-.3.808-.255.227.035.514.011.636-.053.151-.079.246-.055.295.074.055.144.296.18.99.148.505-.023 1.017-.084 1.139-.134.122-.05.262-.027.311.052.164.266 1.022.07 1.824-.415.111-.067.299-.155.417-.196.179-.061.23-.417.303-2.106.13-3 .107-6.822-.043-7.102-.131-.244-.41-.327-3.304-.977-.667-.15-1.576-.382-2.02-.516-.445-.134-1.03-.28-1.3-.325-.27-.045-.634-.189-.808-.321-.42-.317-1.713-.635-1.884-.464-.198.198-.452 2.624-.442 4.212.005.778.091 2.203.191 3.166.1.963.189 2.327.197 3.03.008.704.028 1.659.044 2.122l.029.842h.602c.331 0 .831-.105 1.111-.233m9.738-1.58c.884-.176.959-.216.875-.481-.065-.206.012-.268.432-.344.282-.051.633-.156.781-.233.148-.077 1.191-.178 2.317-.225 1.656-.068 2.096-.128 2.301-.313.139-.126.436-.229.659-.229.664 0 .73-.334.74-3.771.005-1.682-.034-3.196-.088-3.365-.109-.344-.006-.345-3.133.012-1.234.141-1.797.141-3.03 0-3.229-.369-3.038-.373-3.21.067-.162.411-.091 8.94.076 9.21.055.089.211.072.447-.049.2-.102.575-.228.834-.279m.943-1.75c0-.033.061-.097.135-.143.074-.046.135-.019.135.059 0 .078-.061.143-.135.143-.074 0-.135-.027-.135-.059m10.251.049c.244-.212.421-.258.728-.188.494.112.849.112 3.835.005 1.619-.058 2.385-.135 2.457-.248.121-.19.114-5.525-.01-7.708l-.084-1.482-.741.047c-.49.031-.835.133-1.018.302-.154.142-.572.291-.943.336-.366.044-1.046.226-1.509.405-.464.179-1.04.328-1.28.332-.24.004-1.164.177-2.053.383l-1.617.376-.093.526c-.051.289-.097 1.708-.101 3.153-.006 2.242.027 2.696.228 3.099.212.425.284.467.723.429.398-.034.501.009.56.236.094.359.504.358.918-.002" fill="#a38d65"/><path d="m-39.31 14.15v-17.245h17.245 17.245v17.245 17.245h-17.245-17.245m3.411-5.2c.35-.119.63-.299.63-.404 0-.104-.061-.189-.135-.189-.074 0-.135.061-.135.135 0 .074-.269.135-.598.135-.594 0-.841.146-.682.404.11.178.179.172.919-.08zm28.788.013c0-.214-.473-.283-.595-.086-.099.161.054.288.348.288.136 0 .247-.091.247-.202m-25.732-1.145c0-.074-.091-.135-.202-.135-.111 0-.202.061-.202.135 0 .074.091.135.202.135.111 0 .202-.061.202-.135m22.1-.201c-.092-.11-.221-.167-.288-.125-.172.106-.008.326.244.326.171 0 .18-.038.044-.201m-19.564-.507c.099-.119.083-.247-.056-.437-.168-.23-.214-.24-.324-.067-.302.477.033.922.38.504m17.34-.101c0-.242-.458-.326-.741-.135-.18.12-.18.151 0 .271.283.19.741.106.741-.135m-23.343-.298c-.221-.221-.337-.259-.449-.146-.221.221-.025.444.388.444h.359zm11.184-.329c.877-.141.54-.451-.49-.451-.637 0-1.124.269-.962.532.068.109.253.139.526.084.232-.046.649-.121.927-.166m7.78-.047c0-.236-.09-.269-.733-.269-.403 0-.771.061-.816.135-.049.08.108.135.388.135.259 0 .509.061.555.135.155.251.606.151.606-.135m-17.524-.083c.321-.16.476-.178.587-.067.203.203.366.189.366-.031 0-.412.443-.604 1.145-.495.409.064.806.05 1.01-.035.57-.237 1.255-.235 1.615.003.222.147.686.237 1.349.262 1.01.038 1.01.037.688-.211-.385-.298-.29-.512.295-.662.389-.1.435-.167.473-.676l.041-.565-.985-.01c-.541-.006-1.257-.052-1.591-.103-.564-.087-.636-.063-1.026.347-.231.242-.454.44-.496.44-.042 0-.095-.167-.119-.37-.042-.363-.061-.371-.949-.373-.633-.002-.995.064-1.198.217-.31.234-.244.566.088.439.109-.042.198-.009.198.073 0 .148-.176.202-.51.158-.122-.016-.146.083-.082.34.085.34.067.359-.287.291-.298-.057-1.888.228-2.056.369-.141.117.281.732.535.781.171.033.347.068.391.078.044.01.277-.08.517-.199m1.925-1.689c.073-.219.567-.38.775-.251.096.059.132.175.081.257-.125.202-.923.197-.856-.006m4.318-.195c.045-.045.161-.05.258-.011.107.043.076.075-.081.081-.142.006-.222-.026-.177-.071m5.274 1.751c.352-.135.241-.322-.191-.322-.269 0-.404.067-.404.202 0 .212.234.259.595.12m5.804-1.265c0-.12-.15-.219-.37-.245-.302-.035-.37.011-.37.245 0 .234.069.279.37.245.221-.025.37-.124.37-.245m-8.76-.131c.044-.072.384-.171.753-.22.37-.049.639-.123.598-.164-.135-.135-1.074-.425-1.383-.427-.257-.002-.303.07-.303.47 0 .451.163.618.334.341m2.63-.349c0-.033-.095-.059-.21-.059-.116 0-.172.062-.125.137.077.124.335.065.335-.078m4.13-1.155c-.178-.104-.291-.102-.397.004-.108.108-.041.148.249.145.348-.004.367-.022.149-.149m-15.04-2.879c.092-.111.342-.202.555-.202.213 0 .388-.055.388-.121 0-.164-1.596-.155-1.698.009-.044.072.032.215.169.319.319.241.382.241.586-.005m2.223-.342c0-.125-.166-.212-.455-.24-.542-.052-.807.144-.575.425.204.245 1.03.097 1.03-.184m3.03-.264c0-.074-.121-.135-.269-.135-.148 0-.269.061-.269.135 0 .074.121.135.269.135.148 0 .269-.061.269-.135m-5.206-.431c.321-.227.441-.247.722-.119.258.117.384.114.537-.012.248-.206 2.898-.525 3.548-.427.588.088 1.599-.169 1.7-.432.041-.107.156-.195.255-.195.099 0 .223-.07.276-.156.167-.271.235-9.07.072-9.377-.147-.275-.347-.336-3.318-1-.667-.15-1.576-.382-2.02-.516-.445-.134-1.03-.28-1.3-.325-.27-.045-.634-.189-.808-.321-.42-.317-1.713-.635-1.884-.464-.198.198-.452 2.624-.442 4.212.005.778.09 2.203.189 3.166.099.963.163 2.73.144 3.926-.033 1.998-.016 2.187.214 2.323.364.216 1.659.044 2.118-.28m9.662-1.676c.117-.101.31-.183.43-.183.337 0 .422-.268.147-.468-.226-.165-.201-.189.29-.278.295-.053.658-.16.807-.238.148-.077 1.191-.178 2.317-.225 1.656-.068 2.096-.128 2.301-.313.139-.126.436-.229.659-.229.664 0 .73-.334.74-3.771.005-1.682-.034-3.196-.088-3.365-.109-.344-.006-.345-3.133.012-1.234.141-1.797.141-3.03 0-3.23-.369-3.038-.373-3.207.067-.162.422-.121 9.03.045 9.3.115.187 1.421-.046 1.724-.308m.528-1.859c0-.033.061-.097.135-.143.074-.046.135-.019.135.059 0 .078-.061.143-.135.143-.074 0-.135-.027-.135-.059m10.251.049c.244-.212.421-.258.728-.188.494.112.849.112 3.835.005 1.619-.058 2.385-.135 2.457-.248.121-.19.114-5.525-.01-7.708l-.084-1.482-.741.047c-.49.031-.835.133-1.018.302-.154.142-.572.291-.943.336-.366.044-1.046.226-1.509.405-.464.179-1.04.328-1.28.332-.24.004-1.164.177-2.053.383l-1.617.376-.093.526c-.051.289-.097 1.708-.101 3.153-.006 2.242.027 2.696.228 3.099.212.425.284.467.723.429.398-.034.501.009.56.236.094.359.504.358.918-.002" fill="#69788b"/><path d="m-39.31 14.15v-17.245h17.245 17.245v17.245 17.245h-17.245-17.245m3.372-5.066c.789-.258 1.092-.542.727-.682-.143-.055-.265-.028-.296.066-.03.09-.309.159-.64.159-.609 0-.815.143-.687.478.093.243.091.243.895-.02zm28.801.054c.299-.299.166-.377-.635-.377-.516 0-.818-.059-.857-.168-.033-.093-.109-.122-.17-.066-.146.136.338.494.679.502.148.003.36.065.472.137.263.17.318.167.512-.027m-25.475-1.269c.071-.217-.464-.324-.629-.126-.076.092-.096.209-.044.261.137.137.615.041.673-.136m21.939.071c.05-.081.003-.236-.105-.344-.171-.171-.219-.169-.378.023-.153.185-.151.238.012.342.256.162.361.157.471-.021m-19.232-.731c.023-.02-.122-.2-.321-.4-.283-.283-.388-.323-.478-.183-.159.251-.146.436.044.626.133.133.582.107.755-.043m16.861.008c.353-.425-.254-.652-.744-.278-.226.173-.234.218-.059.335.289.193.615.17.803-.057m-23.271-.506c-.221-.221-.337-.259-.449-.146-.221.221-.025.444.388.444h.359zm11.386-.185c.349-.071.405-.393.09-.514-.338-.13-1.262-.095-1.547.058-.294.157-.347.482-.092.571.17.059.992-.001 1.549-.115m7.638.09c.042-.067.039-.219-.006-.337-.107-.28-1.359-.288-1.724-.012-.302.229-.178.299.661.376.296.027.641.06.767.072.125.012.262-.033.304-.1m-17.583-.365c.321-.16.476-.178.587-.067.203.203.366.189.366-.031 0-.412.443-.604 1.145-.495.409.064.806.05 1.01-.035.57-.237 1.255-.235 1.615.003.222.147.686.237 1.349.262 1.01.038 1.01.037.688-.211-.385-.298-.29-.512.295-.662.389-.1.435-.167.473-.676l.041-.565-.985-.01c-.541-.006-1.257-.052-1.591-.103-.564-.087-.636-.063-1.026.347-.231.242-.454.44-.496.44-.042 0-.095-.167-.119-.37-.042-.363-.061-.371-.949-.373-.633-.002-.995.064-1.198.217-.31.234-.244.566.088.439.109-.042.198-.009.198.073 0 .148-.176.202-.51.158-.122-.016-.146.083-.082.34.085.34.067.359-.287.291-.298-.057-1.888.228-2.056.369-.141.117.281.732.535.781.171.033.347.068.391.078.044.01.277-.08.517-.199m1.925-1.689c.073-.219.567-.38.775-.251.096.059.132.175.081.257-.125.202-.923.197-.856-.006m4.318-.195c.045-.045.161-.05.258-.011.107.043.076.075-.081.081-.142.006-.222-.026-.177-.071m5.274 1.751c.352-.135.241-.322-.191-.322-.269 0-.404.067-.404.202 0 .212.234.259.595.12m5.804-1.265c0-.12-.15-.219-.37-.245-.302-.035-.37.011-.37.245 0 .234.069.279.37.245.221-.025.37-.124.37-.245m-8.76-.131c.044-.072.384-.171.753-.22.37-.049.639-.123.598-.164-.135-.135-1.074-.425-1.383-.427-.257-.002-.303.07-.303.47 0 .451.163.618.334.341m2.63-.349c0-.033-.095-.059-.21-.059-.116 0-.172.062-.125.137.077.124.335.065.335-.078m4.13-1.155c-.178-.104-.291-.102-.397.004-.108.108-.041.148.249.145.348-.004.367-.022.149-.149m-15.04-2.879c.092-.111.342-.202.555-.202.213 0 .388-.055.388-.121 0-.164-1.596-.155-1.698.009-.044.072.032.215.169.319.319.241.382.241.586-.005m2.223-.342c0-.125-.166-.212-.455-.24-.542-.052-.807.144-.575.425.204.245 1.03.097 1.03-.184m3.03-.264c0-.074-.121-.135-.269-.135-.148 0-.269.061-.269.135 0 .074.121.135.269.135.148 0 .269-.061.269-.135m-5.206-.431c.321-.227.441-.247.722-.119.258.117.384.114.537-.012.248-.206 2.898-.525 3.548-.427.588.088 1.599-.169 1.7-.432.105-.274.448-.244.462.041.006.13.066.054.132-.168.183-.614.19-9.595.008-9.814-.164-.198-1.133-.486-2.779-.829-.593-.123-1.572-.371-2.175-.55-.604-.179-1.232-.326-1.396-.326-.165 0-.58-.146-.924-.325-1.232-.641-2.106-.791-2.223-.382-.037.13-.166 1.147-.288 2.261-.203 1.86-.203 2.15-.007 3.559.118.844.248 2.903.289 4.576.064 2.63.105 3.066.3 3.216.316.243 1.604.078 2.094-.268m8.843-1.387c.333-.053.7-.18.814-.28.114-.101.66-.253 1.213-.338.553-.085 1.126-.208 1.274-.273.148-.064.391-.119.539-.122 1.227-.023 4.328-.33 4.396-.435.047-.072.157-.564.246-1.093.205-1.217.144-6.873-.075-7.093-.109-.108-.751-.091-2.37.062-1.989.189-2.459.19-4.498.011-2.032-.179-2.299-.178-2.48.004-.174.175-.199.833-.173 4.611.032 4.67.081 5.388.348 5.173.088-.071.433-.173.767-.227m15.426-1.619c1.111-.049 2.294-.101 2.627-.117l.606-.028.077-1.409c.043-.775.056-3.045.029-5.05-.04-2.956-.086-3.674-.245-3.834-.153-.153-.232-.161-.359-.034-.089.089-.305.163-.478.163-.174 0-.704.182-1.18.404-.475.222-1.01.404-1.186.404-.177 0-.679.127-1.117.282-.438.155-1.432.395-2.21.532-1.528.27-2.387.501-2.674.719-.147.112-.173.873-.134 3.984.026 2.115.09 3.911.141 3.99.1.154 2.421.149 6.103-.012" fill="#88754e"/><path d="m-39.31 14.15v-17.245h17.245 17.245v17.245 17.245h-17.245-17.245m3.367-5.065c.843-.294.973-.421.791-.776-.081-.159-.256-.38-.388-.491-.175-.148-.221-.323-.169-.652.067-.429.092-.446.525-.364.357.067.455.041.455-.123 0-.291.353-.259.674.061.164.164.449.269.726.269.382 0 .472-.059.546-.356.067-.268.128-.318.244-.202.261.261.466.174.756-.317.16-.271.385-.472.529-.472.211 0 .254.113.267.704.018.779.282 1.112.764.964.384-.118.417-.167.234-.35-.296-.296-.18-.607.257-.694.33-.066.468-.021.661.218.236.291.253.293.511.059.16-.145.422-.225.653-.201.337.036.391-.008.43-.352.029-.254-.03-.435-.168-.512-.29-.163-.268-.33.056-.414.225-.059.269-.184.269-.757v-.686l-.977-.008c-1.471-.012-2.055-.144-2.055-.466 0-.191-.105-.279-.37-.309-.327-.038-.371.002-.371.337 0 .379-.002.379-.915.379-.645 0-1.021-.07-1.275-.236-.458-.3-.459-.3-.559.101-.047.185-.144.337-.217.337-.073 0-.132.125-.132.278 0 .186-.078.268-.236.249-.13-.016-.327.007-.438.051-.111.044-.323.1-.472.124-.183.03-.269.149-.269.369 0 .252-.096.35-.429.437-.285.074-.499.254-.64.535-.283.567-.276 1.271.013 1.382.171.066.187.124.067.243-.25.25-.183.462.142.451.408-.015.493.425.093.484-.361.053-.6.399-.485.699.103.269.143.27.9.006zm2.395-2.674c-.079-.414.04-.438.368-.075.134.148.209.269.167.269-.042 0-.165.034-.273.075-.132.051-.217-.037-.262-.269m26.411 2.727c.299-.299.166-.377-.635-.377-.516 0-.818-.059-.857-.168-.033-.093-.109-.122-.17-.066-.146.136.338.494.679.502.148.003.36.065.472.137.263.17.318.167.512-.027m-25.463-1.213c.089-.089.162-.21.162-.269 0-.156-.777-.133-.876.027-.216.349.399.558.714.243m22.06.027c.159 0-.158-.903-.369-1.053-.433-.309-.117-.455.354-.164.555.343.585.341.638-.029.052-.369.569-.482.896-.195.322.282.792.4.9.226.122-.197-.317-.671-.621-.671-.132 0-.281-.065-.329-.144-.059-.095-.166-.074-.319.065-.208.188-.261.186-.549-.015-.3-.21-.314-.209-.229.012.072.187.028.227-.212.193-.203-.029-.289-.121-.262-.281.022-.132-.068-.278-.202-.328-.133-.05-.314-.186-.401-.301-.142-.188-.169-.184-.255.037-.053.136-.034.451.043.7.157.513.112.602-.309.602-.425 0-.694-.358-.501-.667.177-.283-.01-.545-.388-.545-.129 0-.272-.061-.318-.135-.046-.074-.216-.133-.378-.13-.282.005-.279.018.075.308.473.387.49.665.034.551-.523-.131-.784.018-.608.347.105.196.103.351-.008.558-.12.224-.113.312.029.402.287.182.678.139.946-.103.356-.322.308-.585-.107-.585-.301 0-.328-.03-.183-.205.323-.389 1.164.118 1.01.609-.096.301.075.348.48.13.231-.123.261-.093.261.263 0 .42.328.729.651.614.099-.035.203-.064.232-.064m1.104-.303c-.085-.255-.505-.291-.505-.044 0 .125.115.212.281.212.165 0 .257-.07.225-.168m-15.258-1.181c.222-.063.847-.155 1.387-.205.643-.059.966-.144.932-.244-.028-.084-.149-.154-.27-.154-.12 0-.3-.112-.4-.249-.161-.219-.248-.23-.752-.094-.314.084-.977.187-1.475.228-.497.041-1.01.131-1.14.2-.272.145-.317.605-.067.69.22.075 1.27-.026 1.785-.172m7.415.129c.121-.196-.186-.898-.435-.994-.166-.064-.147-.124.102-.326.39-.316.276-.644-.31-.89-.426-.179-.448-.172-.694.216-.215.34-.228.449-.085.717.225.421.082.611-.461.611-.331 0-.507-.089-.671-.34-.169-.258-.277-.31-.445-.216-.142.079-.309.069-.464-.027-.316-.197-.717.165-.597.541.067.211.226.26.904.278.463.013.956.11 1.127.222.167.11.57.223.895.252.325.029.693.063.818.076.125.013.268-.041.316-.119m3.457-1.636c-.073-.073-.538-.142-1.033-.154-.692-.016-.942-.077-1.076-.261-.149-.204-.187-.209-.253-.038-.043.111-.018.239.055.284.073.045.116.244.095.442-.037.358-.032.36.86.36.494 0 .945.048 1 .106.059.058.191-.055.294-.251.122-.233.141-.402.054-.489m6.04.419c.099-.186.239-.259.409-.215.402.105.303-.126-.132-.306-.84-.348-1.631.13-1 .606.349.264.551.24.726-.086m-17.77-.667c.322-.006.847-.007 1.166-.002.319.005.683-.044.808-.109.231-.12 1.377-.006 1.811.18.182.078.236.036.236-.183 0-.231-.081-.283-.438-.28-1.069.01-2.798-.162-3.575-.356-.968-.242-1.241-.136-1.241.481 0 .462.107.569.409.408.131-.07.502-.133.824-.138m6.177.014c0-.182-.246-.308-.406-.209-.075.047-.102.141-.059.21.101.164.466.163.466-.001m1.213-1.213c0-.07-.152-.291-.337-.491-.185-.2-.337-.407-.337-.459 0-.053-.378-.135-.84-.184-.76-.079-.862-.06-1.061.204-.147.195-.298.262-.456.201-.13-.05-.32-.021-.423.064-.108.09-.387.122-.666.077-.483-.078-1.135.118-1.135.341 0 .066.379.112.842.103 1.223-.025 3.887.106 3.976.196.124.124.436.088.436-.051m.674-.007c0-.074-.091-.135-.202-.135-.111 0-.202.061-.202.135 0 .074.091.135.202.135.111 0 .202-.061.202-.135m-16.706-1.325c0-.393.258-.56.614-.398.347.158.797.049.666-.162-.046-.075-.385-.136-.754-.136-.474 0-.693-.06-.748-.204-.116-.301.201-.605.632-.605.208 0 .69-.072 1.072-.16.537-.124.753-.124.952 0 .342.213.395.203.397-.075.005-.553.178-.62 1.128-.431.557.111.891.243.891.354 0 .113.171.177.472.177.259 0 .472-.061.472-.135 0-.074-.088-.135-.195-.135-.107 0-.275-.167-.373-.37-.174-.361-.209-.371-1.321-.373-.628-.001-1.203.037-1.277.086-.239.157-1.549-.035-1.549-.228 0-.299.265-.361.6-.142.264.173.344.178.468.029.254-.306 1.178-.417 2.881-.346.696.029.83-.01 1.213-.355.237-.213.354-.3.262-.193-.22.254-.214.41.016.41.292 0 .351-.918.369-5.761.012-3.093-.029-4.536-.132-4.66-.164-.198-1.132-.487-2.779-.829-.593-.123-1.572-.371-2.175-.55-.604-.179-1.232-.326-1.396-.326-.165 0-.58-.146-.924-.325-.755-.393-1.431-.618-1.855-.618-.38 0-.382.008-.663 2.544-.199 1.795-.198 2.058.013 3.57.15 1.073.234 2.648.246 4.596.014 2.127.067 3.05.191 3.267.128.226.135.373.025.578-.081.151-.129.5-.106.775.04.486.056.5.58.5.479 0 .535.034.507.303-.02.193.041.303.168.303.11 0 .2-.105.2-.233 0-.15.122-.054.343.271.292.43.382.484.606.363.145-.078.264-.248.264-.379m-.21-2.638c.299-.244.479-.273.479-.078 0 .074-.056.135-.124.135-.068 0-.235.035-.37.078-.226.072-.225.06.015-.135m-2.01 2.706c0-.351-.264-.329-.314.026-.031.218.011.299.135.258.099-.033.18-.161.18-.284m10.441-.763c.331-.259.332-.264.042-.266-.162-.002-.333-.064-.378-.138-.164-.266-.337-.127-.337.269 0 .471.194.51.674.135m3.43-.683c-.115-.187-.196-.152-.196.085 0 .116.062.172.137.125.075-.047.102-.141.059-.21m-3.767-1.046c0-.264-.263-.241-.314.027-.032.164.015.23.133.191.1-.033.181-.131.181-.218m-.067-.992c0-.218-.04-.257-.15-.146-.082.082-.109.216-.059.296.139.225.209.175.209-.15m.977-.715c.278-.044.505-.136.505-.206 0-.22.95-.535 1.617-.535.406 0 .702-.074.809-.203.093-.112.327-.204.522-.206 1.176-.01 4.409-.322 4.48-.432.047-.072.157-.564.246-1.093.205-1.217.144-6.873-.075-7.093-.109-.108-.751-.091-2.37.062-1.989.189-2.459.19-4.498.011-2.032-.179-2.299-.178-2.48.004-.174.175-.199.833-.173 4.611.017 2.424.065 4.602.106 4.84.067.382.119.427.441.376.201-.032.593-.093.87-.136m15.12-1.753c1.111-.049 2.294-.101 2.627-.117l.606-.028.077-1.409c.043-.775.056-3.045.029-5.05-.04-2.956-.086-3.674-.245-3.834-.153-.153-.232-.161-.359-.034-.089.089-.305.163-.478.163-.174 0-.704.182-1.18.404-.475.222-1.01.404-1.186.404-.177 0-.679.127-1.117.282-.438.155-1.432.395-2.21.532-1.528.27-2.387.501-2.674.719-.147.112-.173.873-.134 3.984.026 2.115.09 3.911.141 3.99.1.154 2.421.149 6.103-.012" fill="#71674f"/><path d="m-39.17 14.15v-17.245h17.18 17.18v17.245 17.245h-17.18-17.18m3.457-5.05c.382-.119.73-.308.773-.419.085-.222-.244-.805-.551-.977-.133-.074-.165-.221-.103-.468.094-.373.263-.442.585-.238.103.065.36.068.573.007.212-.061.386-.061.386 0 0 .061.214.15.474.199.425.08.453.11.269.294-.438.438-.107.803.58.639.198-.047.436-.146.528-.218.263-.207.201-.655-.101-.734-.362-.095-.339-.226.079-.449.192-.103.436-.355.542-.562.306-.591.591-.485.591.22 0 .88.091 1.022.654 1.021.723-.001 1.44-.234 1.894-.617.265-.223.53-.324.779-.298l.377.04.111-1.264c.128-1.457.051-2.01-.246-1.767-.123.102-.493.134-1.039.091-1.352-.107-1.703-.216-1.75-.543-.063-.444-.742-.479-.906-.048-.086.227-.261.349-.573.402-.247.041-.541.112-.655.157-.113.045-.323-.004-.466-.109-.218-.16-.232-.225-.086-.401.249-.3.055-.566-.232-.318-.122.105-.431.262-.685.347-.613.206-.852-.007-.439-.391.163-.151.296-.398.296-.548 0-.215.079-.267.37-.244.599.047.893-.008 1.169-.217.31-.235.238-.33-.354-.47-.4-.095-.409-.107-.091-.119.195-.008.429-.105.522-.216.188-.227.674-.275.674-.067 0 .074.118.135.261.135.144 0 .299-.061.345-.135.046-.074.219-.135.385-.135.166 0 .369-.067.452-.15.082-.082.214-.111.291-.062.184.114-.346.654-.564.576-.193-.07-.632.139-.632.301 0 .15.914-.056 1.423-.321.217-.113.534-.207.703-.207.169 0 .51-.085.758-.189l.45-.188.153.511c.084.281.123.593.086.693-.037.1.013.413.112.695.16.459.187.141.257-3.03.144-6.541.12-10.385-.066-10.733-.217-.407-1.166-.767-2.73-1.037-.667-.115-1.686-.357-2.264-.538-.578-.181-1.215-.33-1.415-.33-.2 0-.569-.126-.821-.279-.251-.153-.827-.395-1.28-.536-.72-.226-.841-.233-.972-.059-.209.279-.638 4.199-.548 4.998.223 1.973.356 4.882.389 8.563.021 2.272.087 4.18.146 4.24.152.152.359-.219.361-.651.001-.199.069-.404.15-.454.084-.052.115-.259.071-.479-.059-.293-.027-.388.13-.388.145 0 .183.08.124.265-.067.211-.007.282.294.348.701.154.748.189.669.49-.053.203.045.429.322.744.219.249.398.498.398.553 0 .055-.367.209-.816.342-.685.203-.79.274-.654.437.234.281.049.392-.629.378l-.595-.013v1.973c0 1.942.096 2.401.466 2.239.077-.034.453-.158.835-.277zm-.763-1.012c0-.074.061-.135.135-.135.074 0 .135.061.135.135 0 .074-.061.135-.135.135-.074 0-.135-.061-.135-.135m8.157-8.748c-.1-.161.154-.321.333-.21.151.093.052.335-.137.335-.065 0-.154-.056-.196-.125m21.348 9.54c0-.216-.106-.253-.727-.253-.522 0-.748-.057-.804-.202-.128-.332-.515-.248-.466.101.034.236.221.365.851.584.854.296 1.145.238 1.145-.23m-2.868-.857c.595-.008.868-.292.525-.546-.14-.103-.322-.213-.404-.243-.238-.088.099-.554.437-.604.159-.024.289.022.289.101 0 .079-.061.144-.135.144-.074 0-.135.097-.135.217 0 .155.067.188.236.116.13-.055.418-.127.64-.159.76-.11.778-.141.377-.643-.231-.289-.495-.473-.681-.473-.18 0-.303-.082-.303-.202 0-.111.114-.202.253-.202.139 0 .328.091.421.202.213.257.539.262.539.008 0-.29.253-.391.49-.195.187.156.186.189-.014.335-.142.104-.171.194-.08.251.079.049.143.448.143.889 0 .988.264 1.075.284.093.008-.389.037-1.079.064-1.532l.049-.825-.608-.012c-.334-.007-.667-.049-.739-.093-.254-.157-.641.086-.818.514-.099.238-.269.538-.378.666-.168.196-.231.204-.408.052-.115-.099-.39-.224-.612-.277-.738-.176-1-.647-.462-.819.419-.133.206-.238-.27-.134-.344.076-.414.156-.414.476 0 .522-.191.602-.642.269-.208-.154-.618-.317-.912-.364-.294-.046-.569-.137-.611-.201-.042-.064-.491-.137-.997-.163-.835-.042-.937-.079-1.106-.402l-.186-.355h.603c.622 0 .892-.185.639-.437-.102-.102-.195-.102-.318 0-.108.09-.382.106-.722.044l-.548-.1-.006 1.11-.006 1.11.399.08c.22.044.635.042.924-.004.536-.086 1.01.124.848.379-.044.071.033.215.17.322.242.187.242.199-.012.395-.144.111-.341.202-.438.202-.394 0-.141.263.329.342.278.047.604.112.726.145.121.033.409-.099.64-.293.371-.312.42-.324.427-.105.015.504 1.243 1.191 1.811 1.014.148-.046.464-.087.702-.09m-.467-.294c-.238-.096-.21-.584.034-.584.126 0 .202.127.202.337 0 .185-.015.332-.034.326-.019-.006-.109-.041-.202-.079m-1.714-1.341c-.311-.311-.248-.479.163-.431.21.024.387.137.411.261.058.305-.326.419-.574.17m-1.621-.726c-.046-.074-.019-.135.059-.135.078 0 .143.061.143.135 0 .074-.027.135-.059.135-.033 0-.097-.061-.143-.135m-1.549 1.078c0-.074-.061-.135-.135-.135-.074 0-.135.061-.135.135 0 .074.061.135.135.135.074 0 .135-.061.135-.135m-8.659-.144c2.167-.181 2.176-.184 1.808-.576-.159-.17-.29-.372-.29-.45 0-.091-.393-.123-1.111-.09-1.45.067-1.675.094-1.796.215-.056.056-.39.101-.743.101-.676 0-.905.231-.716.722.102.266.469.276 2.849.077m6.576-.898c-.044-1.013-.057-1.05-.497-1.339-.578-.381-.741-.383-.946-.01-.237.432-.274.782-.103.989.081.098.109.242.061.319-.162.262-.721.146-.999-.207-.185-.235-.354-.322-.522-.269-.173.055-.417-.089-.809-.477-.337-.334-.64-.525-.758-.48-.108.042-1-.018-1.992-.133-.987-.115-2.037-.217-2.334-.228-.517-.018-.541-.001-.582.432-.058.605.061.904.284.718.149-.124.796-.175 1.982-.158.185.003.794-.033 1.353-.078.837-.068 1.048-.045 1.195.133.098.118.293.215.432.215.293 0 .34.244.067.349-.115.044-.173.235-.153.501l.033.43 1.264.151c.695.083 1.67.159 2.165.168l.901.017zm2.823.772c.046-.074-.011-.135-.127-.135-.116 0-.21.061-.21.135 0 .074.057.135.127.135.07 0 .164-.061.21-.135m-4.783-1.684c0-.284-.063-.337-.404-.337-.481 0-.517.158-.101.448.422.294.505.276.505-.111m-1.078.067c0-.074-.061-.135-.135-.135-.074 0-.135.061-.135.135 0 .074.061.135.135.135.074 0 .135-.061.135-.135m7.754-.502c-.131-.341-.389.013-.274.376.087.275.11.282.227.073.071-.128.093-.33.047-.449m-24.24 0c-.045-.045-.077.035-.071.177.007.157.038.189.081.081.039-.097.034-.213-.011-.258m26.998-.306c0-.18-.09-.269-.269-.269-.26 0-.365.264-.18.449.185.185.449.08.449-.18m2.829-.678c0-.511-.017-.535-.284-.392-.205.11-.325.111-.431.005-.271-.271-.632-.172-.632.173 0 .393.212.581.741.658.222.032.45.068.505.079.056.011.101-.224.101-.523m-10.401.182c-.035-.17-.159-.238-.405-.221-.439.03-.641-.352-.242-.456.349-.091.35-.309.001-.309-.148 0-.269.071-.269.158 0 .087-.136.034-.303-.117-.206-.187-.572-.302-1.139-.358-.76-.075-.855-.055-1.045.216-.18.258-.246.275-.48.129-.226-.141-.285-.135-.35.036-.094.244-.603.271-.83.044-.125-.125-.246-.098-.538.118-.229.169-.706.317-1.213.376-.613.071-.836.151-.836.301 0 .161.106.185.505.116.278-.048.898-.114 1.379-.147.48-.033.938-.084 1.017-.115.079-.03.286.021.459.114.174.093.565.144.869.114.304-.03.826-.005 1.16.057.333.061.99.129 1.46.15.765.035.848.013.803-.206m-8.06-2.345c0-.068.136-.125.303-.128.167-.003.45-.086.63-.186l.326-.181-.294-.093c-.175-.055-.466-.008-.718.118-.598.298-1.019.271-1.128-.073-.127-.402.221-.733.572-.545.189.101.355.092.594-.032.182-.095.532-.172.776-.172.505 0 .725-.243.621-.685-.057-.242-.01-.308.234-.326.168-.013.397-.037.508-.053.111-.017.279-.036.374-.044.094-.008.229-.166.3-.351.148-.388.606-.451 1.018-.139.258.195.258.198-.008.218-.148.011-.384.008-.524-.007-.177-.019-.231.035-.176.177.107.279-.193.498-.554.404-.256-.067-.283-.039-.195.2.056.153.133.289.17.303.037.014.522-.026 1.078-.088.556-.062 1.199-.096 1.43-.076.334.029.436-.023.497-.256.066-.253.147-.284.591-.226.283.037.65.111.817.165.248.081.303.048.303-.18 0-.153.092-.33.205-.393.152-.085.22-.428.263-1.327.032-.667.12-1.482.196-1.812.182-.789.187-6.466.006-6.942l-.139-.365-1.48.094c-.814.052-1.822.149-2.24.217-.534.087-1.264.065-2.456-.075-2.237-.262-2.897-.256-3.13.025-.15.181-.18 1.063-.16 4.614.033 5.944.076 8.819.133 8.928.063.121 1.257-.551 1.257-.708m-.477-1.749c-.124-.2-.033-.26.528-.351.382-.062.488-.035.488.126 0 .339-.831.524-1.016.225m5.597-.379c0-.083-.084-.151-.186-.151-.237 0-.557-.38-.429-.508.054-.054.171.002.26.125.089.122.307.244.483.269.292.043.3.063.096.232-.146.12-.224.132-.224.034m-3.907-.69c0-.163.378-.341.489-.23.04.04-.053.141-.208.223-.195.104-.281.106-.281.007m5.418-.114c-.095-.06-.136-.207-.09-.327.053-.137-.02-.281-.198-.392-.154-.096-.281-.252-.281-.345 0-.205.353-.226.476-.029.048.078.218.123.378.101.249-.034.286.018.253.364-.07.738-.174.859-.539.627m-3.912-.38c.066-.338.38-.384.38-.056 0 .165-.087.281-.212.281-.125 0-.194-.092-.168-.225m2.356-.404c-.183-.183-.08-.314.247-.314.21 0 .337.076.337.202 0 .202-.414.282-.584.112m-3.127 4.122c-.043-.069-.21-.123-.373-.121-.285.004-.287.011-.04.198.263.199.55.146.412-.077m-7.876-.111c0-.151-.35-.293-.458-.185-.162.162-.074.305.189.305.148 0 .269-.054.269-.12m8.983-.402c.036-.139.213-.32.392-.401.179-.082.325-.212.325-.289 0-.086-.147-.065-.375.053-.258.133-.447.153-.606.064-.167-.093-.325-.062-.564.113-.447.325-.447.631-.001.546.187-.036.372-.012.412.052.124.201.348.128.417-.136m5.03-.488c0-.111-.054-.202-.12-.202-.066 0-.155.091-.198.202-.047.123 0 .202.12.202.109 0 .198-.091.198-.202m10.327-1.181c-.037-.091-.065.016-.062.238.003.222.033.297.067.166.034-.131.032-.313-.005-.404m-16.12.028c0-.07-.091-.127-.202-.127-.208 0-.268.159-.116.311.108.108.318-.014.318-.184m8.218-1.541c0-.135-.135-.202-.404-.202-.631 0-.475.365.168.394.13.006.236-.08.236-.191m0-1.332c.185.004.792.025 1.347.046.556.021 1.432-.021 1.948-.092.544-.075 1.153-.081 1.451-.014.325.073.736.059 1.119-.037.333-.084.934-.125 1.334-.092l.729.06.097-1.155c.054-.635.057-2.973.008-5.195-.072-3.237-.128-4.078-.283-4.232-.137-.137-.244-.153-.368-.053-.096.077-.462.181-.812.232-.35.051-.673.15-.717.221-.133.215-1.01.529-1.476.529-.241 0-.781.152-1.2.337-.419.185-.987.337-1.263.338-.276.001-.986.125-1.579.277-.593.152-1.212.31-1.377.351-.591.148-.609.271-.579 3.917.016 1.909.046 3.637.066 3.841.02.204.045.492.054.642.015.243.076.261.589.172.315-.054.724-.095.909-.091" fill="#51514c"/><path d="m-39.17 14.15v-17.245h17.18 17.18v17.245 17.245h-17.18-17.18m3.556-4.977c.437-.152.876-.345.977-.428.274-.228.221-.483-.12-.577-.564-.155-.927-.569-.832-.948.09-.359.262-.425.581-.223.103.065.36.068.573.007.212-.061.386-.061.386 0 0 .061.226.153.501.204.413.077.46.117.269.224-.305.171-.302.75.004.844.32.098 1.261-.13 1.389-.336.127-.206-.24-.795-.495-.795-.298 0-.216-.208.162-.41.192-.103.436-.355.542-.562.316-.61.591-.483.591.273 0 1.01.185 1.163 1.259 1.063 1-.093 1.491-.294 1.386-.566-.126-.327.292-.54.733-.374.274.103.419.105.481.006.048-.078.083-1.998.077-4.266-.006-2.268.033-4.881.086-5.808.094-1.635.1-1.578.21 1.99.063 2.02.167 3.707.231 3.747.065.04.118-.021.118-.135 0-.114.243-.331.539-.482.296-.151.539-.334.539-.407 0-.073.136-.134.303-.137.167-.003.45-.086.63-.186l.326-.181-.294-.093c-.175-.055-.466-.008-.718.118-.598.298-1.019.271-1.128-.073-.127-.402.221-.733.572-.545.189.101.355.092.594-.032.182-.095.527-.172.766-.172.264 0 .505-.096.614-.245.122-.167.209-.196.273-.093.069.112.162.11.354-.01.182-.113.302-.12.401-.021.099.099.455.097 1.182-.006.572-.081 1.31-.137 1.638-.124.329.013.753-.037.943-.11.19-.073.527-.15.75-.17.222-.02.497-.045.611-.056.114-.011.22-.125.236-.255.235-1.875.355-4.225.36-7 .005-3.01-.021-3.423-.221-3.623-.206-.206-.438-.213-2.627-.078-1.555.096-2.923.105-3.883.026-1.896-.156-2.649-.16-2.876-.016-.1.063-.227.32-.283.571l-.101.455-.127-.46c-.07-.253-.216-.504-.324-.557-.968-.474-1.553-.651-2.419-.73-.556-.051-1.274-.208-1.597-.35-.322-.142-.989-.321-1.482-.398-.493-.077-1.199-.282-1.569-.456-1.419-.666-2.267-.875-2.436-.602-.061.098-.213 1.12-.339 2.27-.215 1.969-.185 3.761.082 4.943.036.161.07 3.885.074 8.275.005 5.194.056 8.07.146 8.241.084.158.226.23.363.186.123-.04.581-.197 1.018-.349zm-.861-1.086c0-.074.061-.135.135-.135.074 0 .135.061.135.135 0 .074-.061.135-.135.135-.074 0-.135-.061-.135-.135m-.213-2.982c-.203-.328-.192-1.347.017-1.556.108-.108.197-.371.197-.583 0-.213.067-.428.148-.478.084-.052.115-.259.071-.479-.059-.293-.027-.388.13-.388.145 0 .183.08.124.265-.067.211-.007.282.294.348.701.154.748.189.669.49-.053.203.045.429.322.744.219.249.398.498.398.553 0 .055-.367.209-.816.342-.685.203-.79.274-.654.437.2.241.146.298-.375.403-.273.055-.449.022-.523-.098m3.785-1.648c-.218-.16-.232-.225-.086-.401.249-.3.055-.566-.232-.318-.122.105-.431.262-.685.347-.613.206-.852-.007-.439-.391.163-.151.296-.398.296-.548 0-.215.079-.267.37-.244.599.047.893-.008 1.169-.217.31-.235.238-.33-.354-.47-.4-.095-.409-.107-.091-.119.195-.008.429-.105.522-.216.188-.227.674-.275.674-.067 0 .074.118.135.261.135.144 0 .299-.061.345-.135.046-.074.219-.135.385-.135.166 0 .369-.067.452-.15.082-.082.214-.111.291-.062.184.114-.346.654-.564.576-.193-.07-.632.139-.632.301 0 .15.914-.056 1.423-.321.217-.113.534-.207.703-.207.169 0 .51-.085.758-.189l.45-.188.133.491c.073.27.126.976.118 1.569l-.015 1.078-.876-.019c-1.275-.028-1.728-.155-1.778-.5-.063-.444-.742-.479-.906-.048-.086.227-.261.349-.573.402-.247.041-.541.112-.655.157-.113.045-.323-.004-.466-.109m1.548-1.957c0-.151-.35-.293-.458-.185-.162.162-.074.305.189.305.148 0 .269-.054.269-.12m24.391 7.79c.21-.393.186-23.404-.025-23.658-.195-.235-.447-.226-.654.024-.092.111-.346.202-.563.202-.217 0-.742.172-1.166.382-.444.22-1.108.417-1.566.464-.484.05-.943.19-1.17.359-.222.164-.582.277-.885.278-1.406.003-3.435.605-3.615 1.072-.106.276-.09 7.02.021 8.796.104 1.675.079 1.655 1.471 1.166 1.41-.496 3.503-.833 4.104-.661.282.081.529.078.691-.009.171-.092.252-.09.252.005 0 .077.228.139.507.139.395 0 .536-.066.64-.3.126-.285 1.363-.872 1.516-.72.075.075.108.602.227 3.647.072 1.827.053 2.196-.123 2.418-.161.203-.244.226-.369.101-.278-.278-.646-.194-.646.149 0 .412.242.633.691.633.401 0 .601.345.459.79-.07.22-.156.237-.682.139-.76-.142-.94-.071-1.16.461-.098.235-.267.533-.376.66-.168.196-.231.204-.408.052-.115-.099-.39-.224-.612-.277-.738-.176-1-.647-.462-.819.419-.133.206-.238-.27-.134-.344.076-.414.156-.414.476 0 .522-.191.602-.642.269-.208-.154-.618-.317-.912-.364-.294-.046-.569-.137-.611-.201-.042-.064-.491-.137-.997-.163-.835-.042-.937-.079-1.106-.402l-.186-.355h.603c.627 0 .892-.185.634-.443-.11-.11-.19-.11-.301.001-.167.167-1.029.08-1.298-.132-.126-.099-.168-.041-.168.229 0 .207.058.326.135.278.21-.13.158.198-.067.423-.258.258-.254.381.018.653.164.164.182.259.067.373-.084.084-.152.277-.151.429.001.153.046.215.101.138.128-.178 1.935-.213 2.146-.041.088.072.13.21.093.306-.037.096.041.216.173.267.405.156-.055.33-.784.296-.648-.03-.863.115-.66.443.133.215.978.409 1.799.413.538.003.701-.059.972-.367.319-.362.326-.364.33-.067.002.167.065.303.139.303.074 0 .135.123.135.273 0 .469 1.366.776 1.811.407.116-.096.348-.136.53-.09.211.053.385.007.502-.134.151-.182.14-.244-.071-.398-.137-.1-.317-.207-.399-.238-.238-.088.099-.554.437-.604.159-.024.289.022.289.101 0 .079-.061.144-.135.144-.074 0-.135.097-.135.217 0 .155.067.188.236.116.13-.055.418-.127.64-.159.76-.11.778-.141.377-.643-.231-.289-.495-.473-.681-.473-.18 0-.303-.082-.303-.202 0-.111.114-.202.253-.202.139 0 .328.091.421.202.234.282.494.252.578-.067.039-.148.13-.269.202-.269.072 0 .163.121.202.269.039.148.013.269-.056.269-.078 0-.077.093.003.242.156.292.23 2.078.095 2.297-.053.086-.301.156-.551.156-.336 0-.477-.07-.54-.269-.129-.407-1.145-.337-1.145.079 0 .21.938.729 1.316.729.137 0 .367.089.511.198.362.274.563.254.738-.073m-3.347-1.634c-.225-.225-.202-.512.04-.512.126 0 .202.127.202.337 0 .384-.02.398-.243.175m-1.707-1.268c-.311-.311-.248-.479.163-.431.21.024.387.137.411.261.058.305-.326.419-.574.17m-1.621-.726c-.046-.074-.019-.135.059-.135.078 0 .143.061.143.135 0 .074-.027.135-.059.135-.033 0-.097-.061-.143-.135m-8.353 1.025c.148 0 1.282.047 2.521.105l2.251.106.088-.35c.052-.207.019-.433-.079-.552-.104-.125-.14-.408-.094-.745.069-.515.046-.561-.451-.874-.645-.407-.746-.41-.956-.028-.237.432-.274.782-.103.989.081.098.109.242.061.319-.162.262-.721.146-.999-.207-.185-.235-.354-.322-.522-.269-.173.055-.417-.089-.809-.477-.337-.334-.64-.525-.758-.48-.108.042-1-.018-1.992-.133-.987-.115-2.037-.217-2.333-.228-.513-.018-.544.004-.662.479-.091.364-.077.555.05.709.153.184.193.186.325.012.138-.182.584-.229 1.969-.21.185.003.794-.033 1.353-.078.837-.068 1.048-.045 1.195.133.098.118.293.215.432.215.304 0 .336.246.047.357-.134.051-.177.172-.122.344.069.218.029.257-.228.22-.172-.025-.375-.171-.451-.325-.127-.255-.235-.276-1.216-.234-1.348.057-1.574.085-1.787.223-.094.061-.458.092-.808.07-.609-.038-.639-.023-.68.338-.092.798-.099.796 2.301.679 1.204-.059 2.31-.107 2.458-.107m7.545-.217c.046-.074-.011-.135-.127-.135-.116 0-.21.061-.21.135 0 .074.057.135.127.135.07 0 .164-.061.21-.135m-4.783-1.684c0-.284-.063-.337-.404-.337-.481 0-.517.158-.101.448.422.294.505.276.505-.111m-1.078.067c0-.074-.061-.135-.135-.135-.074 0-.135.061-.135.135 0 .074.061.135.135.135.074 0 .135-.061.135-.135m7.754-.502c-.131-.341-.389.013-.274.376.087.275.11.282.227.073.071-.128.093-.33.047-.449m2.755-.306c0-.18-.09-.269-.269-.269-.26 0-.365.264-.18.449.185.185.449.08.449-.18m-7.572-.496c-.035-.17-.159-.238-.405-.221-.439.03-.641-.352-.242-.456.349-.091.35-.309.001-.309-.148 0-.269.071-.269.158 0 .087-.136.034-.303-.117-.206-.187-.572-.302-1.139-.358-.76-.075-.855-.055-1.045.216-.18.258-.246.275-.48.129-.226-.141-.285-.135-.35.036-.094.244-.603.271-.83.044-.125-.125-.246-.098-.538.118-.229.169-.706.317-1.213.376-.613.071-.836.151-.836.301 0 .161.106.185.505.116.278-.048.898-.114 1.379-.147.48-.033.938-.084 1.017-.115.079-.03.286.021.459.114.174.093.565.144.869.114.304-.03.826-.005 1.16.057.333.061.99.129 1.46.15.765.035.848.013.803-.206m.925-1.154c-.037-.093-.068-.017-.068.168 0 .185.031.261.068.168.037-.093.037-.244 0-.337m-7.03-.784c-.043-.069-.21-.123-.373-.121-.285.004-.287.011-.04.198.263.199.55.146.412-.077m1.108-.513c.036-.139.213-.32.392-.401.179-.082.325-.212.325-.289 0-.086-.147-.065-.375.053-.258.133-.447.153-.606.064-.167-.093-.325-.062-.564.113-.447.325-.447.631-.001.546.187-.036.372-.012.412.052.124.201.348.128.417-.136m5.933-.791c-.031-.204-.056-.037-.056.37 0 .408.025.574.056.37.031-.204.031-.537 0-.741m-.905.303c0-.111-.054-.202-.12-.202-.066 0-.155.091-.198.202-.047.123 0 .202.12.202.109 0 .198-.091.198-.202m1.082-1.145c.048-.353-.001-.539-.139-.539-.074 0-.135.224-.135.498 0 .474.212.505.274.04" fill="#5c5331"/><path d="m-39.17 14.15v-17.245h17.18 17.18v17.245 17.245h-17.18-17.18m3.603-4.99c.856-.293 1.22-.631 1.514-1.403.159-.418.495-.394.433.031-.06.417.378.6 1.065.446.69-.155.8-.315.634-.916-.104-.378-.085-.516.104-.724.333-.368.432-.324.591.268.156.579.326.689 1.059.684.862-.006 1.532-.229 1.839-.614.233-.293.363-.349.644-.278.211.053.39.026.447-.066.052-.085.091-2.01.085-4.278-.006-2.268.033-4.881.085-5.808.093-1.638.099-1.585.208 1.954.062 2 .141 3.686.176 3.745.035.059.147.039.248-.045.898-.745 1.963-.802 2.202-.116.102.294.222.391.48.391.203 0 .344.076.344.187 0 .196-.606.371-1.26.365-.306-.003-.415.079-.539.409-.148.395-.181.41-.747.332-.737-.101-.957.066-.957.728 0 .554.247.86.589.729.344-.132.265.265-.084.418-.38.167-.516 1.096-.179 1.225.114.044 1.194.028 2.4-.036 1.238-.065 3.211-.064 4.532.003 1.881.095 2.361.084 2.449-.058.06-.097.076-.604.036-1.127-.062-.802-.125-.991-.402-1.204l-.329-.253.311-.158c.219-.111.3-.255.273-.488-.021-.182-.051-.482-.067-.667-.032-.363-.163-.405-2.065-.659-.453-.061-.893-.153-.977-.205-.241-.149-.179-.501.101-.574.172-.045.232-.15.186-.324-.037-.142-.015-.256.049-.255.197.005.679.454.772.719.069.196.129.217.274.097.198-.164.122-.777-.161-1.307-.109-.204-.109-.319 0-.428.243-.243.585.042.835.697.28.734 1.091 1.372 1.01.792-.019-.13.013-.375.07-.545.065-.193.042-.385-.061-.509-.145-.175-.196-.171-.418.03-.295.267-.572.094-.492-.309.035-.177.167-.25.45-.25.381 0 .403-.031.436-.606.019-.333.108-1.364.197-2.29.089-.926.164-3.213.167-5.081.005-3.01-.021-3.423-.221-3.623-.206-.206-.438-.213-2.627-.078-1.555.096-2.923.105-3.883.026-1.896-.156-2.649-.16-2.876-.016-.1.063-.227.32-.283.571l-.101.455-.127-.46c-.07-.253-.216-.504-.324-.557-.968-.474-1.553-.651-2.419-.73-.556-.051-1.274-.208-1.597-.35-.322-.142-.989-.321-1.482-.398-.493-.077-1.199-.282-1.569-.456-1.419-.666-2.267-.875-2.436-.602-.061.098-.213 1.12-.339 2.27-.215 1.969-.185 3.761.082 4.943.036.161.07 3.885.074 8.275.005 5.194.056 8.07.146 8.241.085.158.226.23.363.185.123-.04.603-.203 1.065-.361zm.405-1.488c-.254-.278-.309-.528-.117-.528.114 0 .554.585.554.736 0 .143-.207.044-.438-.209m15.931-2.144c0-.074.061-.135.135-.135.074 0 .135.061.135.135 0 .074-.061.135-.135.135-.074 0-.135-.061-.135-.135m-1.652-1.293c-.053-.276.003-.37.288-.479.325-.125 1.176-.078 1.327.073.145.145-.138.347-.607.431-.275.05-.6.141-.721.204-.171.088-.235.037-.286-.23m-15.593-.054c0-.074.027-.135.059-.135.033 0 .097.061.143.135.046.074.019.135-.059.135-.078 0-.143-.061-.143-.135m.876-.135c-.046-.074-.019-.135.059-.135.078 0 .143.061.143.135 0 .074-.027.135-.059.135-.033 0-.097-.061-.143-.135m12.731.043c-.259-.03-.562-.091-.674-.137-.111-.046-.323-.07-.472-.055-.195.02-.158-.033.135-.193.298-.163.659-.208 1.377-.173.836.041 1.436.248 1.242.429-.108.101-1.133.182-1.608.128m-6.231-.558c-.409-.047-.499-.351-.144-.487.211-.081.211-.102-.002-.315-.193-.193-.271-.201-.507-.054-.233.145-.332.139-.608-.042-.181-.119-.383-.182-.449-.142-.127.078-.546-.275-.546-.46 0-.188.32-.376.808-.476.259-.053.606-.181.77-.285.164-.104.393-.189.509-.189.275 0 .409.358.219.587-.167.201-.069.356.223.356.14 0 .171-.094.109-.339-.07-.28-.023-.362.266-.473.481-.183.637-.046.54.471-.057.306-.021.488.123.607.277.23.279 1.209.003 1.232-.529.044-.975.047-1.314.008m-6.371-.168c-.049-.079-.056-.176-.017-.216.097-.096.359.074.359.232 0 .172-.233.161-.342-.017m2.797-.147c.033-.1.168-.202.3-.228.154-.03.218.019.18.135-.033.1-.168.202-.3.228-.154.03-.218-.019-.18-.135m-1.197-.597c-.044-.115-.022-.267.05-.339.18-.18.578-.005.493.216-.107.278-.453.356-.543.123m1.236-.191c-.11-.178.037-.404.263-.404.197 0 .373.33.244.458-.126.126-.415.095-.507-.054m6.613-1.733c-.058-.094-.069-.207-.025-.252.121-.121.252.057.187.252-.046.137-.077.137-.162-.001m1.942-.288c-.121-.078-.138-.131-.042-.133.088-.001.198.059.244.133.103.167.057.167-.202 0m2.776-.078c-.167-.435-.091-.55.324-.489.461.068.597.216.48.522-.065.17-.119.179-.281.044-.139-.116-.2-.12-.2-.015 0 .226-.229.182-.322-.062m14.339 8.96c.21-.393.186-23.404-.025-23.658-.195-.235-.447-.226-.654.024-.092.111-.346.202-.563.202-.217 0-.742.172-1.166.382-.444.22-1.108.417-1.566.464-.484.05-.943.19-1.17.359-.222.164-.582.277-.885.278-1.406.003-3.435.605-3.615 1.072-.106.276-.09 7.02.021 8.796.104 1.675.079 1.655 1.471 1.166 1.41-.496 3.503-.833 4.104-.661.276.079.529.078.681-.003.155-.083.257-.082.286.001.024.072.235.169.468.215.371.074.447.037.606-.296.127-.264.384-.455.841-.625.362-.134.695-.207.741-.161.046.046.099.821.118 1.722.019.901.069 2.2.111 2.886.065 1.075.045 1.258-.145 1.331-.121.047-.359.011-.528-.08-.169-.091-.453-.144-.631-.119-.306.043-.323.096-.323.985 0 1.127-.247 1.314-.674.511-.219-.412-.355-.516-.725-.551-.424-.041-.451-.02-.389.302.079.411-.056.541-.763.734-.598.163-.885.029-.885-.416 0-.354-.505-1.048-.763-1.048-.113 0-.355.118-.538.262-.483.38-1.302 0-1.161-.539.051-.195-.001-.262-.2-.262-.336 0-.601-.306-.546-.63.03-.178-.043-.246-.265-.246-.402 0-.564-.276-.566-.969-.001-.311-.059-.6-.129-.643-.076-.047-.124.492-.121 1.348.005 1.169.04 1.413.195 1.354.217-.083.86.176.86.346 0 .062-.237.113-.526.113h-.526l-.047.674c-.026.37-.026.974 0 1.34l.046.667.627.041c.681.044.856.284.257.353-.439.051-.448.082-.118.412.139.139.276.324.306.411.121.363 2.33.567 2.659.245.139-.135.243-.086.532.252.439.513.783.629 1.803.606.598-.014.806.032.867.191.094.245 1 .736 1.363.736.137 0 .367.089.511.198.362.274.563.254.738-.073m-.952-.757c-.611-.096-.918-1.321-.332-1.321.232 0 .262.077.225.573-.044.593.089.721.381.369.129-.156.213-.168.355-.049.141.117.149.199.033.338-.084.101-.191.175-.237.164-.047-.011-.238-.044-.425-.073m-.058-2.187c-.043-.069-.021-.16.047-.203.159-.098.553.049.553.208 0 .159-.501.155-.601-.005m-6.944-.338c0-.142.259-.202.335-.078.047.075-.01.137-.125.137-.116 0-.21-.027-.21-.059m4.581-.479c-.771-.304-.804-.605-.067-.613.296-.003.648-.056.78-.118.341-.158.424-.015.282.481-.152.529-.234.549-.995.25m-1.673-.252c-.058-.094-.069-.207-.025-.252.121-.121.252.057.187.252-.046.137-.077.137-.162-.001m4.167-.676c-.525-.111-.607-.492-.132-.611.525-.132.895.026.845.361-.048.327-.163.367-.714.251m-7.04-.113c-.441-.055-.562-.214-.291-.381.081-.05.214-.023.296.059.227.227.342.182.39-.152.024-.166.147-.322.275-.346.187-.036.228.049.214.436-.013.352-.075.475-.232.459-.118-.012-.411-.046-.652-.076m1.407-.258c-.047-.047-.053-.139-.013-.204.086-.139.324-.019.324.164 0 .145-.183.169-.311.041m2.221-.52c-.035-.198-.329-.164-.399.047-.039.116.026.165.181.135.133-.026.231-.107.218-.181m-1.102-.749c0-.078-.061-.105-.135-.059-.074.046-.135.11-.135.143 0 .033.061.059.135.059.074 0 .135-.064.135-.143m-1.554-1.333c.104-.168-.361-.411-.787-.411-.186 0-.375-.061-.421-.135-.046-.074-.207-.135-.359-.135-.196 0-.252.062-.194.213.045.117.082.237.082.266 0 .029.177.018.394-.026.254-.051.504-.002.704.138.357.25.472.267.582.089m-2.281-1.901c.117-.19-.042-.801-.209-.801-.073 0-.132.212-.132.472 0 .459.164.617.342.329m8.584-.587c.019-.068-.042-.149-.135-.18-.093-.031-.168.045-.168.168 0 .228.242.237.303.011" fill="#433c2c"/><path d="m-39.17 14.15v-17.245h17.18 17.18v17.245 17.245h-17.18-17.18m3.676-4.985c.382 0 .985-.361 1.28-.766.244-.335.302-.354.627-.206.446.203.854.207 1.411.012.419-.146.431-.172.391-.838-.033-.548.003-.696.178-.732.142-.029.25.076.305.297.153.612.574.765 1.706.623.829-.104 1.048-.185 1.276-.471.189-.237.406-.345.692-.345.475 0 .578-.215.581-1.208.002-.551.02-.583.217-.386.169.169.183.275.067.492-.081.152-.148.424-.148.605 0 .635.214.679 2.936.604 1.386-.038 3.4-.03 4.474.019 1.074.048 2.06.038 2.189-.024.195-.092.236-.295.236-1.18 0-.947-.032-1.086-.282-1.219l-.282-.151.288-.268c.207-.193.261-.35.192-.561-.053-.161-.086-.44-.072-.621.028-.39-.169-.541-.718-.55-.222-.004-.54-.082-.707-.175-.278-.154-.286-.192-.102-.454.22-.314.632-.291 1.036.058.298.257.519.107.507-.344-.058-2.181.283-9.742.423-9.383.057.145.114 3.356.126 7.135.013 3.779.065 7.02.116 7.207.051.185.212.356.357.38.145.024.387.191.538.371.223.266.473.352 1.344.463.588.075 1.261.1 1.495.056.336-.063.468-.02.626.206.237.338.884.547 1.698.547.428 0 .695.09.982.331.217.182.619.371.895.419.276.048.636.172.8.275.493.309.805.232.968-.237.164-.47.193-22.694.03-23.275-.05-.178-.198-.39-.329-.472-.191-.118-.284-.09-.468.14-.158.197-.435.309-.884.356-.387.04-.827.197-1.078.383-.303.225-.685.339-1.338.4-.668.062-.996.162-1.221.374-.244.23-.475.289-1.122.289-1.064 0-2.162.213-2.418.469-.112.112-.286.204-.387.204-.442 0-.606.407-.616 1.525-.015 1.714-.202 1.85-.314.227-.053-.774-.168-1.493-.256-1.599-.132-.159-.522-.174-2.316-.085-2.617.129-2.234.129-4.87-.001l-2.174-.107-.193.369-.193.369-.229-.349c-.126-.192-.34-.349-.477-.349-.136 0-.404-.123-.595-.273-.258-.203-.634-.294-1.466-.355-.756-.055-1.342-.185-1.806-.4-.378-.175-1.075-.358-1.549-.406-.488-.049-1.015-.193-1.213-.332-.193-.135-.596-.3-.895-.367-.3-.067-.686-.221-.859-.342-.409-.287-.751-.279-.912.022-.18.337-.479 3.231-.476 4.608.002.63.074 1.751.161 2.492.103.878.16 4 .162 8.983.004 8.615-.034 8.296.917 7.787.273-.146.607-.266.741-.266zm27.13-1.441c-.161-.161-.087-.445.116-.445.111 0 .202.087.202.194 0 .225-.192.377-.318.251m-8.03-1.523c0-.074.095-.135.21-.135.116 0 .173.061.127.135-.046.074-.14.135-.21.135-.07 0-.127-.061-.127-.135m6.298-.695c-.43-.157-.477-.323-.12-.416.317-.083.693.122.693.378 0 .223-.058.227-.573.039m-1.912-1.044c-.181-.292.084-.484.668-.484.75 0 .808.268.1.464-.619.172-.672.173-.767.019m4.068.03c-.294-.077-.305-.256-.023-.364.36-.138.697-.091.774.107.126.328-.136.418-.751.257m-12.9-.284c0-.246.355-.431.827-.431.723 0 .753.213.054.389-.709.179-.882.187-.882.043m11.685.027c-.044-.044-.05-.159-.014-.255.141-.369-1.417-.825-1.632-.478-.05.081-.204.073-.412-.021-.273-.124-.38-.107-.605.096-.213.192-.309.211-.435.085-.126-.126-.125-.22.003-.426.297-.475.207-.58-.422-.494-.323.044-.808.045-1.078.001-.41-.067-.491-.134-.491-.411 0-.182.134-.44.299-.573.25-.203.271-.276.125-.451-.095-.115-.366-.248-.602-.295-.787-.158-.9-.217-.9-.471 0-.139.061-.29.135-.336.074-.046.135-.292.135-.547 0-.532.177-.583.674-.194.429.335.539.335.539 0 0-.148-.061-.269-.135-.269-.074 0-.135-.095-.135-.21 0-.116.059-.173.132-.129.121.075 1.012-.103 1.485-.296.111-.046.354-.099.539-.119.185-.02.627-.069.982-.109.494-.056.663-.026.722.126.042.109.228.199.413.199.306 0 .332.044.282.472-.03.259-.007.472.053.472.14 0 .134.155-.016.391-.066.104-.307.184-.537.177-.275-.008-.417.053-.417.179 0 .319.571.358 1.145.078.405-.198.584-.226.72-.113.138.114.212.095.31-.079.149-.267.495-.291.8-.057.236.181.403 1.368.294 2.084-.073.475-.332.563-.744.25-.13-.099-.391-.149-.581-.113-.274.052-.361.003-.425-.241-.075-.287-.091-.291-.255-.067-.11.15-.278.212-.451.167-.202-.053-.276-.008-.276.168 0 .303.342.597.548.47.212-.131.4.208.311.562-.04.159-.007.33.073.38.08.05.146.177.146.284 0 .198-.161.258-.305.114m-2.12-1.267c0-.074-.136-.134-.303-.133-.245.002-.264.027-.101.133.261.169.404.169.404 0m.539-1.896c0-.21-.073-.268-.293-.236-.371.055-.474.337-.153.42.423.11.445.1.445-.185m.943-1.591c0-.065-.086-.189-.19-.276-.211-.175-.427.024-.281.259.103.166.472.179.472.016m-4.581 4.572c0-.078.061-.143.135-.143.074 0 .135.027.135.059 0 .033-.061.097-.135.143-.074.046-.135.019-.135-.059m-8.723-.105c-.533-.066-.581-.299-.067-.326.573-.029 1.434.038 1.574.123.069.042.009.122-.135.179-.274.107-.646.114-1.372.023m-3.913-3.01l.027-3.02.074 2.313c.04 1.272.124 2.363.186 2.425.062.061.2-.009.308-.156.108-.147.269-.274.359-.282.09-.008.329-.024.53-.035.266-.015.345-.076.289-.223-.054-.14.009-.202.202-.202.184 0 .255.064.207.188-.04.104-.008.228.072.277.2.124.181.612-.024.613-.093 0-.362.182-.599.404-.301.282-.566.404-.882.404-.249 0-.525.073-.614.162-.126.126-.156-.51-.134-2.863m-2.252 2.429c-.051-.083.019-.233.157-.335.241-.179.241-.191-.02-.391-.148-.114-.36-.17-.472-.125-.502.203-.719.114-.84-.345-.132-.501.014-.702.432-.592.135.035.271-.03.318-.151.045-.117.179-.213.299-.213.17 0 .198.086.131.393-.07.32-.035.409.19.48.391.124.563-.027.467-.409-.072-.287-.037-.329.28-.329.334 0 .355.032.271.416-.072.327-.029.473.199.686.188.176.276.396.249.629-.039.335-.091.361-.804.398-.457.024-.8-.02-.856-.11m.81-.671c.046-.074.023-.135-.051-.135-.074 0-.172.061-.218.135-.046.074-.023.135.051.135.074 0 .172-.061.218-.135m-1.01-.808c0-.074-.064-.135-.143-.135-.078 0-.105.061-.059.135.046.074.11.135.143.135.033 0 .059-.061.059-.135m14.954 1.213c0-.074.061-.135.135-.135.074 0 .135.061.135.135 0 .074-.061.135-.135.135-.074 0-.135-.061-.135-.135m-.614-.82c-.127-.206.149-.444.402-.347.116.045.211.174.211.287 0 .235-.476.282-.614.06m-4.809-.289c-.45-.153-.456-.237-.039-.541.317-.231.327-.228.52.16.231.462.088.575-.481.381m3.868-.652c-.049-.079-.056-.176-.017-.216.097-.096.359.074.359.232 0 .172-.233.161-.342-.017m.075-1.035c.001-.13.054-.318.118-.419.162-.256.327.038.216.386-.105.331-.337.354-.334.032m.267-1.377c0-.117.681-.542.869-.542.201 0 .031.237-.317.442-.449.265-.552.284-.552.1m1.378-.435c.031-.096.265-.194.518-.218.537-.05.403.161-.192.301-.282.067-.369.045-.326-.084m1.346-.262c.07-.211.363-.245.399-.047.013.074-.085.156-.218.181-.155.03-.22-.019-.181-.135m5.056-.623c-.375-.048-.511-.363-.202-.469.199-.069.775.168.775.319 0 .16-.164.203-.573.151" fill="#32322a"/><path d="m-39.17 14.15v-17.245h17.18 17.18v17.245 17.245h-17.18-17.18m3.166-4.581c.222-.147.495-.268.606-.269.558-.005 1.233-.306 1.345-.6.112-.296.171-.31 1-.243 1.302.105 1.863-.364 1.423-1.187-.087-.162-.09-.261-.009-.261.072 0 .169.121.216.27.149.469.561.579 1.807.483 1-.077 1.193-.133 1.428-.417.323-.39-.111-.367 6.251-.329 4.293.026 4.788.007 4.933-.192.144-.197.181-.199.331-.018.093.112.315.204.493.204.218 0 .364.106.447.324.112.296.224.332 1.276.42.634.053 1.316.065 1.516.026.28-.054.448.02.729.321.336.36.44.39 1.321.39.526 0 .956.056.956.125 0 .278.434.527 1.072.615.371.051.822.209 1 .35.18.141.446.257.592.257.65 0 .633.316.672-12.02.024-7.732-.01-11.747-.104-12.1-.185-.686-.569-.82-1.057-.367-.251.233-.575.357-1.086.413-.432.048-.843.185-1.01.337-.195.176-.575.281-1.225.337-.698.06-.998.149-1.155.34-.174.212-.472.276-1.66.357-1.245.085-1.502.144-1.828.419-.209.176-.477.32-.596.32-.118 0-.288.117-.378.261-.16.256-.166.257-.343.004-.172-.245-.407-.257-4.915-.257-3.047 0-4.794.05-4.902.139-.174.145-.322.087-1.266-.498-.346-.214-.791-.316-1.667-.383-.864-.065-1.294-.163-1.549-.351-.242-.178-.685-.288-1.399-.348-.792-.067-1.149-.164-1.474-.405-.237-.175-.62-.317-.854-.317-.249 0-.522-.108-.661-.262-.13-.144-.42-.302-.643-.351-.708-.156-.891.185-1.055 1.963-.275 2.977-.3 3.792-.139 4.511.11.491.172 3.323.203 9.189.032 6.106.088 8.562.201 8.772.195.365.628.374 1.157.023zm18.867-5.245c-.043-.069-.016-.163.059-.21.075-.047.137.01.137.125 0 .237-.081.271-.196.085m-3.135-.36c.045-.045.161-.05.258-.011.107.043.076.075-.081.081-.142.006-.222-.026-.177-.071m-6.099-.637c0-.25.129-.353.341-.271.225.086.101.451-.154.451-.103 0-.188-.081-.188-.18m-2.77-.077c.102-.165 1.246-.548 1.344-.45.043.043.078.189.078.325 0 .21-.113.247-.749.247-.413 0-.715-.055-.673-.122m18.214-.215c.087-.226.264-.264.377-.081.041.066-.021.157-.138.202-.303.116-.326.105-.239-.121m-19.26-.559c-.138-.138-.111-.721.034-.721.183 0 .327.545.182.689-.068.068-.165.082-.215.031m1.12-.047c0-.074.061-.135.135-.135.074 0 .135.061.135.135 0 .074-.061.135-.135.135-.074 0-.135-.061-.135-.135m17.14.043c-.131-.053-.114-.116.067-.251.206-.153.217-.223.073-.458-.196-.321-.166-.328.824-.192.498.068.625.138.625.346 0 .197-.064.24-.264.176-.175-.056-.344.009-.501.193-.232.271-.474.326-.824.185m-5.125-.313c0-.185.031-.261.068-.168.037.093.037.244 0 .337-.037.093-.068.017-.068-.168m3.709.028c-.33-.364-.283-.455.21-.407.333.032.438.106.438.31 0 .356-.365.411-.648.097m5.566-.068c0-.108.097-.277.215-.375.188-.156.209-.138.168.141-.051.35-.383.552-.383.234m-10.61-.05c-.287-.115-.185-.335.135-.29.167.024.288.104.269.178-.041.164-.179.202-.404.112m8.709-.103c-.157-.161.045-.732.365-1.033l.323-.304v.5c0 .452-.025.487-.261.36-.224-.12-.267-.09-.303.21-.023.192-.079.312-.124.266m-.659-.885c0-.074.091-.135.202-.135.111 0 .202.061.202.135 0 .074-.091.135-.202.135-.111 0-.202-.061-.202-.135m2.391-.228c-.294-.077-.309-.426-.023-.536.254-.098.666.272.536.481-.095.153-.124.157-.513.055" fill="#010101"/></g><path d="m7.473 1.898c-3.089 0-5.574 2.486-5.574 5.574v17.05c0 3.089 2.486 5.574 5.574 5.574h17.05c3.089 0 5.574-2.486 5.574-5.574v-17.05c0-3.089-2.486-5.574-5.574-5.574h-17.05m-2.686 4.188h22.52v19.887h-22.52v-19.887" fill-rule="evenodd"/><g transform="translate(-.916 143.06)"><path d="m15.583-142.61c-5.577-1.531-5.951 3.24-4.58 5.493 4.381 6.983 6.796 6.577 9.398 7.895 1.712 2.064 3.451 3.4 6.469 4.1 11.69 1.559 3.242-8.417.92-8.649-5.065.012-7.547-6.123-12.206-8.838" fill="url(#0)"/><path d="m15.583-142.61c3.76.276 5.616-.626 8.93-.421 4.319.283 8.307 2.053 7.838 6.574-.347 2.567-.37 2.25.186 4.296.532 1.535-.252 4.232-.487 4.654-2.715 4.963-1.536 4.965-2.656 7.742l-.906-.418-2.508-11.358c-7.177-.909-10.754-10.11-10.398-11.07" fill="url(#2)"/><path d="m22.374-132.67c.362.274 1.553-5.105 1.172-5.653 1.379 2.44 1.919 4.616 2.435 6.783-1.276-.283-2.289-.554-3.607-1.13" fill="url(#4)"/><circle r="3.01" cy="-119.45" cx="29.06" fill="url(#5)"/></g></svg>