<svg xmlns="http://www.w3.org/2000/svg" viewBox="0 0 32 32"><defs><linearGradient gradientTransform="matrix(2.54182 0 0 2.58531-153.47-277.37)" id="0" x1="67.894" y1="108.69" x2="67.854" y2="113.11" gradientUnits="userSpaceOnUse"><stop stop-color="#f9f9f9"/><stop offset="1" stop-color="#999"/></linearGradient></defs><rect width="28.2" height="28.2" x="1.898" y="1.898" fill="#4bae4f" fill-rule="evenodd" rx="5.575"/><path d="m9.756 25.01c-.35-.108-.632-.497-.707-.974-.048-.307-.049-8.438-.001-8.771.061-.424.286-.766.611-.927.145-.072.235-.091.437-.091h.255l.019-1.144c.019-1.15.039-1.369.184-1.943.481-1.91 1.985-3.487 3.837-4.02.575-.167.903-.209 1.609-.209.706 0 1.034.043 1.609.209 1.852.537 3.356 2.114 3.837 4.02.144.573.165.793.184 1.943l.019 1.144h.255c.202 0 .292.019.437.091.324.162.549.503.611.927.048.332.048 8.464 0 8.771-.075.48-.363.87-.722.976-.258.076-12.224.074-12.472-.002m7.119-2.413c.055-.04.136-.143.18-.229.078-.153.08-.178.08-1.445v-1.289l.123-.161c.246-.322.358-.836.267-1.222-.152-.644-.625-1.086-1.259-1.178-.874-.126-1.595.349-1.791 1.178-.091.386.021.9.267 1.222l.123.161v1.28c0 1.35.008 1.428.17 1.61.132.149.236.165 1.01.156.677-.008.741-.014.834-.082m2.415-9.459c-.012-1-.021-1.136-.09-1.384-.327-1.181-1.234-2.09-2.402-2.407-.406-.11-1.19-.11-1.596 0-1.168.317-2.075 1.226-2.402 2.407-.069.249-.078.385-.09 1.384l-.014 1.108h3.304 3.304z" fill="#fff"/>

   xmlns:dc="http://purl.org/dc/elements/1.1/"
   xmlns:cc="http://creativecommons.org/ns#"
   xmlns:rdf="http://www.w3.org/1999/02/22-rdf-syntax-ns#"
   xmlns:svg="http://www.w3.org/2000/svg"
   xmlns="http://www.w3.org/2000/svg"
   xmlns:xlink="http://www.w3.org/1999/xlink"
   xmlns:sodipodi="http://sodipodi.sourceforge.net/DTD/sodipodi-0.dtd"
   xmlns:inkscape="http://www.inkscape.org/namespaces/inkscape"
   height="32"
   width="32"
   version="1"
   id="svg8"
   sodipodi:docname="snow-top-2.svg"
   inkscape:version="0.92.1 r"&gt;
  <path d="m24.646 6.111c2.995 2.684 1.381 7.817 3.674 8.291 2.031.613 3.541-1.385 3.66-4.503.35-8.627-3.911-9.427-6.879-9.524-28.342-2.047-1.762 4.92-.455 5.736" fill="url(#0)"/></svg>