<svg xmlns="http://www.w3.org/2000/svg" viewBox="0 0 32 32" xmlns:xlink="http://www.w3.org/1999/xlink"><defs><linearGradient id="4" x1="-178.12" y1="-134.12" x2="-183.59" y2="-135.1" gradientUnits="userSpaceOnUse"><stop stop-color="#7c0000"/><stop offset="1" stop-color="#7c0000" stop-opacity="0"/></linearGradient><linearGradient id="3" x1="-189.8" y1="-142.57" x2="-175.35" y2="-130.4" gradientUnits="userSpaceOnUse"><stop stop-color="#ff383f"/><stop offset="1" stop-color="#a02d26"/></linearGradient><linearGradient id="2"><stop stop-color="#f9f9f9"/><stop offset="1" stop-color="#999"/></linearGradient><linearGradient xlink:href="#2" id="1" x1="-188.02" y1="-134.18" x2="-190.66" y2="-126.24" gradientUnits="userSpaceOnUse"/><radialGradient xlink:href="#2" id="5" cx="-176.59" cy="-120.91" r="3.01" gradientUnits="userSpaceOnUse" gradientTransform="matrix(2.21087.05719-.05496 2.12455 207.3 145.17)"/></defs><rect width="28.2" height="28.2" x="1.898" y="1.898" fill="#4bae4f" fill-rule="evenodd" rx="5.575"/><path d="m12.268 25.414c-.082-.044-.579-.512-1.106-1.04l-.957-.96-.321.312c-.177.172-.426.367-.555.435-.212.111-.274.123-.661.123-.397 0-.446-.009-.712-.14-.343-.169-.632-.478-.765-.818-.129-.329-.126-.824.006-1.171.093-.245.263-.422 4.04-4.201l3.94-3.946-.152-.356c-.681-1.592-.505-3.422.47-4.886.299-.45.9-1.058 1.343-1.361 2.333-1.593 5.548-1.014 7.135 1.284 1.891 2.739.789 6.454-2.292 7.725-1.212.5-2.739.483-3.952-.043l-.339-.147-1.645 1.645-1.645 1.645.963.958c.606.603.992 1.021 1.043 1.128.097.208.103.44.016.651-.081.196-2.903 3.041-3.138 3.164-.202.105-.518.104-.715-.002m7.985-11.856c.664-.178 1.163-.648 1.385-1.307.077-.228.09-.347.077-.704-.014-.394-.029-.456-.175-.751-.558-1.129-1.93-1.478-2.947-.751-.781.559-1.042 1.672-.59 2.518.242.453.752.86 1.248.995.257.07.739.07 1 0" fill="#fff"/><path d="m32 .157l-.27 2.221-.122-2.378" fill="#f9f9f9" id="0"/><use xlink:href="#0"/><path d="m32 .113l-.27 1.6-.122-1.713" fill="#f9f9f9"/><g transform="matrix(-1 0 0 1-172.76 143.72)"><path d="m-190.09-143.27c-5.577-1.531-5.951 3.24-4.58 5.493 4.381 6.983 6.796 6.577 9.398 7.895 1.712 2.064 3.451 3.4 6.469 4.1 11.69 1.559 3.242-8.417.92-8.649-5.065.012-7.547-6.123-12.206-8.838" fill="url(#1)"/><path d="m-190.09-143.27c3.76.276 5.616-.626 8.93-.421 4.319.283 8.307 2.053 7.838 6.574-.347 2.567-.37 2.25.186 4.296.532 1.535-.252 4.232-.487 4.654-2.715 4.963-1.536 4.965-2.656 7.742l-.906-.418-2.508-11.358c-7.177-.909-10.754-10.11-10.398-11.07" fill="url(#3)"/><path d="m-183.3-133.33c.362.274 1.553-5.105 1.172-5.653 1.379 2.44 1.919 4.616 2.435 6.783-1.276-.283-2.289-.554-3.607-1.13" fill="url(#4)"/><circle r="3.01" cy="-120.11" cx="-176.61" fill="url(#5)"/></g></svg>