<svg xmlns="http://www.w3.org/2000/svg" viewBox="0 0 32 32"><defs><linearGradient gradientTransform="matrix(2.59244 0 0 2.58531-157.93-277.73)" id="0" x1="67.894" y1="108.69" x2="67.854" y2="113.11" gradientUnits="userSpaceOnUse"><stop stop-color="#f9f9f9"/><stop offset="1" stop-color="#999"/></linearGradient></defs><rect width="28.2" height="28.2" x="1.898" y="1.898" fill="#225670" fill-rule="evenodd" rx="5.575"/><g transform="translate(36.787 17.863)"><path d="m-30.581-5.829l.077 3.389c.077.539.527 1.513 1.21 2.283.948 1.067 2.339 1.739 3.893 1.739h9.211l3.454 4.56c1.727 2.28 3.673.403 3.454-1.14l-.575-10.831" fill="#5f7c8a"/><path d="m-26.517-10.929h11.501c2.867 0 5.175 2.265 5.175 5.078 0 1.289-.485 2.463-1.286 3.357-.947 1.056-2.336 1.721-3.889 1.721h-9.201l-4.6 6.771c-1.741 2.292-3.813.968-3.45-1.128l.575-10.72c.151-2.809 2.308-5.078 5.175-5.078" fill="#7f96a1"/><g fill="#dfe5e8"><path transform="matrix(0 1-1 0 0 0)" d="m-6.808 24.07h1.648v4.945h-1.648z"/><g transform="matrix(.82407 0 0 .82407-33.958-15.873)" stroke-width="1.213"><circle r="1" cx="21" cy="12"/><circle r="1" cx="25" cy="12"/><g transform="matrix(0 1-1 0 0 0)"><circle r="1" cx="10" cy="-23"/><circle r="1" cx="14" cy="-23"/></g></g><path transform="scale(-1-1)" stroke-width="1" d="m25.717 3.512h1.648v4.944h-1.648z"/></g></g>

   xmlns:dc="http://purl.org/dc/elements/1.1/"
   xmlns:cc="http://creativecommons.org/ns#"
   xmlns:rdf="http://www.w3.org/1999/02/22-rdf-syntax-ns#"
   xmlns:svg="http://www.w3.org/2000/svg"
   xmlns="http://www.w3.org/2000/svg"
   xmlns:xlink="http://www.w3.org/1999/xlink"
   xmlns:sodipodi="http://sodipodi.sourceforge.net/DTD/sodipodi-0.dtd"
   xmlns:inkscape="http://www.inkscape.org/namespaces/inkscape"
   version="1"
   width="32"
   height="32"
   id="svg12"
   sodipodi:docname="snow-top-4.svg"
   inkscape:version="0.92.1 r"&gt;
  <path d="m7.196.009c-8.161-.339-9.231 9.523-3.968 9.505.669.003 1.581-.197 2.929-1.471 3.773-4.147 9.01 4.479 14.696-1.042.61-.911 1.804-1.135 2.455-.627 1.045.677 2.87 2.991 3.88 3 2.359.513 4.095-.198 4.816-3.188.185-3.165-2.303-6.286-6.281-6.17-5.832.133-12.809-.045-18.527-.01" fill="url(#0)"/></svg>