<svg xmlns="http://www.w3.org/2000/svg" viewBox="0 0 32 32"><defs><linearGradient gradientTransform="matrix(2.54182 0 0 2.58531-153.47-277.37)" id="0" x1="67.894" y1="108.69" x2="67.854" y2="113.11" gradientUnits="userSpaceOnUse"><stop stop-color="#f9f9f9"/><stop offset="1" stop-color="#999"/></linearGradient></defs><g transform="translate(41.684 3.895)"><g fill-rule="evenodd"><g fill="#ececec"><path d="m-19.571 5.918h5.24c.806 0 1.534.325 2.061.852.426.426.591 1.043.688 1.668v-4.859c0-3.089-2.486-5.574-5.574-5.574h-4.932c.625.097 1.24.264 1.666.689.526.526.852 1.252.852 2.059z"/><path d="m-39.786 15.701v4.93c0 3.089 2.488 5.576 5.576 5.576h5.111c-.707-.059-1.376-.29-1.848-.762-.526-.526-.852-1.254-.852-2.061v-5.166h-5.24c-.806 0-1.532-.325-2.059-.852-.426-.426-.593-1.041-.689-1.666"/></g><path d="m-39.786 15.701c.097.625.264 1.24.689 1.666.526.526 1.252.852 2.059.852h5.24v-9.389c0-.806.325-1.534.852-2.061.526-.526 1.254-.852 2.061-.852h9.314v-5.166c0-.806-.325-1.532-.852-2.059-.426-.426-1.041-.593-1.666-.689h-12.12c-3.089 0-5.576 2.486-5.576 5.574z" fill="#2e72be"/></g><rect x="-22.294" y="15.496" width="20.377" height="20.377" transform="matrix(0-1-1 0 0 0)" rx="2.911" fill="#459df7"/><path d="m-11.583 8.437c-.097-.625-.262-1.242-.688-1.668-.526-.526-1.254-.852-2.061-.852h-14.555c-.806 0-1.534.325-2.061.852-.526.526-.852 1.254-.852 2.061v14.555c0 .806.325 1.534.852 2.061.472.472 1.14.703 1.848.762h11.941c3.089 0 5.574-2.488 5.574-5.576z" fill="#90c2fa" fill-rule="evenodd"/><g transform="translate(-.316.421)"><path d="m-22.18212 11.632361a6.830459 4.426898 38.859039 0 0 -3.155875 1.736608 6.830459 4.426898 38.859039 0 0 3.644742 7.773558 6.830459 4.426898 38.859039 0 0 7.662834 -.247064 6.830459 4.426898 38.859039 0 0 -3.644742 -7.773558 6.830459 4.426898 38.859039 0 0 -4.506959 -1.489544" fill="#f34e51"/><path d="m-20.942004 13.633491a4.300986 3.122949 32.31312 0 1 1.859346 .32815 4.300986 3.122949 32.31312 0 1 3.353072 4.652194 4.300986 3.122949 32.31312 0 1 -4.556178 1.688602 4.300986 3.122949 32.31312 0 1 -3.353072 -4.652196 4.300986 3.122949 32.31312 0 1 2.696832 -2.01675" fill="#fff"/><path d="m-27.684 10.632l6 5" fill="none" stroke="#f34e51" stroke-linejoin="round" stroke-linecap="round" stroke-width="2"/></g></g>

   xmlns:dc="http://purl.org/dc/elements/1.1/"
   xmlns:cc="http://creativecommons.org/ns#"
   xmlns:rdf="http://www.w3.org/1999/02/22-rdf-syntax-ns#"
   xmlns:svg="http://www.w3.org/2000/svg"
   xmlns="http://www.w3.org/2000/svg"
   xmlns:xlink="http://www.w3.org/1999/xlink"
   xmlns:sodipodi="http://sodipodi.sourceforge.net/DTD/sodipodi-0.dtd"
   xmlns:inkscape="http://www.inkscape.org/namespaces/inkscape"
   height="32"
   width="32"
   version="1"
   id="svg8"
   sodipodi:docname="snow-top-2.svg"
   inkscape:version="0.92.1 r"&gt;
  <path d="m24.646 6.111c2.995 2.684 1.381 7.817 3.674 8.291 2.031.613 3.541-1.385 3.66-4.503.35-8.627-3.911-9.427-6.879-9.524-28.342-2.047-1.762 4.92-.455 5.736" fill="url(#0)"/></svg>