<svg xmlns="http://www.w3.org/2000/svg" viewBox="0 0 32 32"><defs><linearGradient gradientTransform="matrix(2.59244 0 0 2.58531-157.93-277.73)" id="0" x1="67.894" y1="108.69" x2="67.854" y2="113.11" gradientUnits="userSpaceOnUse"><stop stop-color="#f9f9f9"/><stop offset="1" stop-color="#999"/></linearGradient></defs><path d="m7.473 1.898c-3.089 0-5.574 2.486-5.574 5.574v17.05c0 3.089 2.486 5.574 5.574 5.574h.188v-2.244c0-.629.126-1.226.355-1.77.229-.543.56-1.031.971-1.441.41-.41.898-.744 1.441-.973.543-.229 1.143-.355 1.771-.355h7.602c.629 0 1.228.126 1.771.355.543.229 1.031.562 1.441.973.41.41.742.898.971 1.441.229.543.355 1.141.355 1.77v2.244h.188c3.089 0 5.574-2.486 5.574-5.574v-17.05c0-3.089-2.486-5.574-5.574-5.574z" fill="#c4191f" fill-rule="evenodd"/><g transform="matrix(.63184 0 0 .63184 45.952 4.991)" fill="#dc4749" stroke-width="1.583"><path d="m-49.787 5.816c18.16 4.586 24.607 14.668 3.114 24.19-1.772.785 4.466.557 2.588 1.993 26.15-11.281 13.472-22.14-5.702-26.18"/><path d="m-55.59 5.574c16.751 4.452 25.916 8.936 13.213 20.958 19.863-10.1 1.844-19.393-13.213-20.958"/><path d="m-66.758 5.834c18.581 3.939 36.992 9.314 15.621 23.766 31.681-15.181 1.349-23.02-15.621-23.766"/></g><path d="m24.34 30.1v-2.244c0-.629-.126-1.226-.355-1.77-.229-.543-.56-1.031-.971-1.441-.41-.41-.898-.744-1.441-.973-.543-.229-1.143-.355-1.771-.355h-7.602c-.629 0-1.228.126-1.771.355-.543.229-1.031.562-1.441.973-.41.41-.742.898-.971 1.441-.229.543-.355 1.141-.355 1.77v2.244z" fill="#ccc" fill-rule="evenodd"/><path d="m16.308 19.323l1.883-1.882c-.561 1.701.054 3.749 2.045 3.597 1.633-.494 2.825-1.338 4.195-2.39.221-.251.33-.602.188-.602-1.566 1.302-4.534 2.956-5.127 1.561-1.353-5.099 7.637-9.462 4.853-12.602-4.564 2.755-4.694 8.802-8.469 11.996 1.66-4.068 2.474-8.561 4.349-11.886-.629-.297-.904-.068-1.536.182-1.26 2.386-1.985 5.097-3.271 7.02-1.947 2.897-2.041 3.03-2.552 3.638-1.199 1.428-2.658 2.35-3.618 2.288-.616-.04-1.033-.457-1.131-1.131-.037-.252-.034-.353.018-.654.721-2.249 1.739-3.234 2.94-4.947-.461-.034-.913.146-1.349.259-1.429 1.239-2.635 3.442-2.665 5.33 0 .665.115 1.049.428 1.431.174.213.628.51.866.567.237.057.953.025 1.258-.056 1.142-.303 2.678-1.732 4.72-4.39.921-1.199 1.473-1.902 1.542-1.965.073-.066.074-.065.074.088-.54 2.226-1.355 4.115-1.699 6.391.035.021.089.038.119.039.03.001.902-.846 1.938-1.881m4.528-5.657c.589-2.103 1.473-4.054 2.773-5.62-.206 2.272-1.463 3.867-2.74 5.682-.02.021-.033-.003-.033-.062" fill="#fff" stroke-width="1"/><text x="10.925" y="28.841" font-family="sans-serif" fill="#c4191f" word-spacing="0" line-height="1.25" letter-spacing="0" font-size="5.31"><tspan x="10.925" y="28.841" font-family="Geometria">PDF</tspan></text>

   xmlns:dc="http://purl.org/dc/elements/1.1/"
   xmlns:cc="http://creativecommons.org/ns#"
   xmlns:rdf="http://www.w3.org/1999/02/22-rdf-syntax-ns#"
   xmlns:svg="http://www.w3.org/2000/svg"
   xmlns="http://www.w3.org/2000/svg"
   xmlns:xlink="http://www.w3.org/1999/xlink"
   xmlns:sodipodi="http://sodipodi.sourceforge.net/DTD/sodipodi-0.dtd"
   xmlns:inkscape="http://www.inkscape.org/namespaces/inkscape"
   version="1"
   width="32"
   height="32"
   id="svg12"
   sodipodi:docname="snow-top-4.svg"
   inkscape:version="0.92.1 r"&gt;
  <path d="m7.196.009c-8.161-.339-9.231 9.523-3.968 9.505.669.003 1.581-.197 2.929-1.471 3.773-4.147 9.01 4.479 14.696-1.042.61-.911 1.804-1.135 2.455-.627 1.045.677 2.87 2.991 3.88 3 2.359.513 4.095-.198 4.816-3.188.185-3.165-2.303-6.286-6.281-6.17-5.832.133-12.809-.045-18.527-.01" fill="url(#0)"/></svg>