<svg xmlns="http://www.w3.org/2000/svg" xmlns:xlink="http://www.w3.org/1999/xlink" viewBox="0 0 32 32"><defs><linearGradient xlink:href="#3" id="4" gradientUnits="userSpaceOnUse" x1="-23.24" y1="-185.08" x2="-28.704" y2="-186.05"/><linearGradient xlink:href="#3" id="2" gradientUnits="userSpaceOnUse" x1="-34.914" y1="-193.53" x2="-20.469" y2="-181.36"/><linearGradient id="3"><stop stop-color="#ffff5e"/><stop offset="1" stop-color="#f6a32d"/></linearGradient><linearGradient id="1"><stop stop-color="#f9f9f9"/><stop offset="1" stop-color="#999"/></linearGradient><linearGradient xlink:href="#1" id="0" gradientUnits="userSpaceOnUse" x1="-33.14" y1="-185.13" x2="-35.775" y2="-177.2"/><radialGradient xlink:href="#1" id="5" cx="-176.59" cy="-120.91" r="3.01" gradientUnits="userSpaceOnUse" gradientTransform="matrix(2.21087.05719-.05496 2.12455 362.18 94.22)"/></defs><g transform="translate(48.11-3.932)"><g fill-rule="evenodd"><g fill="#ececec"><path d="m-25.992 13.744h5.24c.806 0 1.534.325 2.061.852.426.426.591 1.043.688 1.668v-4.859c0-3.089-2.486-5.574-5.574-5.574h-4.932c.625.097 1.24.264 1.666.689.526.526.852 1.252.852 2.059z"/><path d="m-46.21 23.527v4.93c0 3.089 2.488 5.576 5.576 5.576h5.111c-.707-.059-1.376-.29-1.848-.762-.526-.526-.852-1.254-.852-2.061v-5.166h-5.24c-.806 0-1.532-.325-2.059-.852-.426-.426-.593-1.041-.689-1.666"/></g><path d="m-46.21 23.527c.097.625.264 1.24.689 1.666.526.526 1.252.852 2.059.852h5.24v-9.389c0-.806.325-1.534.852-2.061.526-.526 1.254-.852 2.061-.852h9.314v-5.166c0-.806-.325-1.532-.852-2.059-.426-.426-1.041-.593-1.666-.689h-12.12c-3.089 0-5.576 2.486-5.576 5.574z" fill="#db7da0"/></g><rect x="-30.12" y="21.917" width="20.377" height="20.377" transform="matrix(0-1-1 0 0 0)" rx="2.911" fill="#a6eb7d"/><path d="m-18 16.264c-.097-.625-.262-1.242-.688-1.668-.526-.526-1.254-.852-2.061-.852h-14.555c-.806 0-1.534.325-2.061.852-.526.526-.852 1.254-.852 2.061v14.555c0 .806.325 1.534.852 2.061.472.472 1.14.703 1.848.762h11.941c3.089 0 5.574-2.488 5.574-5.576z" fill="#5fa6fa" fill-rule="evenodd"/><g fill="#fff" color-rendering="auto" shape-rendering="auto" color-interpolation-filters="linearRGB" image-rendering="auto" color-interpolation="sRGB" color="#000"><path d="m-29.566107 19.909871a.509474 .509474 0 0 0 -.501463 .517382v8.151a.509474 .509474 0 0 0 .394007 .501464 .509474 .509474 0 0 0 .328338 -.03184c.204.013 1.024.098 2.066-.374 1.164-.528 2.344-1.795 2.32-4.169-.024-2.371-1.198-3.63-2.35-4.159-1.01-.463-1.769-.382-1.998-.368a.509474 .509474 0 0 0 -.258692 -.06766m.517 1.116c.294 0 .662-.052 1.313.247.874.401 1.736 1.18 1.757 3.242.021 2.058-.836 2.828-1.721 3.23-.663.301-1.05.249-1.349.249z" mix-blend-mode="normal" isolation="auto" white-space="normal" solid-opacity="1" solid-color="#000000" vector-effect="none" shape-padding="0"/><path d="m-23.445072 19.91783a.509474 .509474 0 0 0 -.282571 .09153 .509474 .509474 0 0 0 -.004 .002 .509474 .509474 0 0 0 -.03582 .02785 .509474 .509474 0 0 0 -.03383 .02985 .509474 .509474 0 0 0 -.006 .006 .509474 .509474 0 0 0 -.006 .006 .509474 .509474 0 0 0 -.05771 .07761 .509474 .509474 0 0 0 -.07562 .358189v3.898a.509474 .509474 0 0 0 0 .177104v3.992a.509474 .509474 0 1 0 1.018846 0v-3.566h3.566a.509474 .509474 0 1 0 0 -1.018846h-3.566v-3.057h3.566a.509474 .509474 0 1 0 0 -1.018846h-4a.509474 .509474 0 0 0 -.08358 -.0061" mix-blend-mode="normal" isolation="auto" white-space="normal" solid-opacity="1" solid-color="#000000" vector-effect="none" shape-padding="0"/><path d="m-35.671223 19.91783a.509474 .509474 0 0 0 -.366148 .163174 .509474 .509474 0 0 0 -.01194 .01194 .509474 .509474 0 0 0 -.123377 .427836v3.898a.509474 .509474 0 0 0 0 .177104v3.988a.509474 .509474 0 1 0 1.018846 0v-3.59c.362.027.796.097 1.624-.062.559-.107 1.145-.298 1.626-.687.481-.388.826-1.01.826-1.775 0-.766-.345-1.385-.826-1.773-.481-.388-1.067-.579-1.626-.687-1.021-.196-1.838-.093-2-.076a.509474 .509474 0 0 0 -.139295 -.01791m.517 1.041c.307-.021.732-.08 1.431.054.46.088.894.248 1.178.478.284.229.448.491.448.981 0 .49-.164.754-.448.983-.284.229-.718.389-1.178.478-.699.134-1.123.075-1.431.054z" mix-blend-mode="normal" isolation="auto" white-space="normal" solid-opacity="1" solid-color="#000000" vector-effect="none" shape-padding="0"/></g></g><g transform="translate(49.877 194.68)"><path d="m-35.21-194.22c-5.577-1.531-5.951 3.24-4.58 5.493 4.381 6.983 6.796 6.577 9.398 7.895 1.712 2.064 3.451 3.4 6.469 4.1 11.69 1.559 3.242-8.417.92-8.649-5.065.012-7.547-6.123-12.206-8.838" fill="url(#0)"/><path d="m-35.21-194.22c3.76.276 5.616-.626 8.93-.421 4.319.283 8.307 2.053 7.838 6.574-.347 2.567-.37 2.25.186 4.296.532 1.535-.252 4.232-.487 4.654-2.715 4.963-1.536 4.965-2.656 7.742l-.906-.418-2.508-11.358c-7.177-.909-10.754-10.11-10.398-11.07" fill="url(#2)"/><path d="m-28.419-184.29c.362.274 1.553-5.105 1.172-5.653 1.379 2.44 1.919 4.616 2.435 6.783-1.276-.283-2.289-.554-3.607-1.13" fill="url(#4)"/><circle r="3.01" cy="-171.07" cx="-21.728" fill="url(#5)"/></g></svg>