<svg xmlns="http://www.w3.org/2000/svg" viewBox="0 0 32 32"><defs><linearGradient gradientTransform="matrix(2.59244 0 0 2.58531-157.93-277.73)" id="0" x1="67.894" y1="108.69" x2="67.854" y2="113.11" gradientUnits="userSpaceOnUse"><stop stop-color="#f9f9f9"/><stop offset="1" stop-color="#999"/></linearGradient></defs><g fill-rule="evenodd"><g fill="#4eaf44"><path d="m1.898 17.615c.129-.096.289-.221.314-.221.064 0 .578-.315.805-.492.047-.037.489-.263.982-.502.493-.239 1.264-.612 1.713-.83.449-.218.841-.396.873-.396.032 0 .301-.148.598-.33.297-.182.623-.357.723-.389.309-.098 1.9-1.169 2.607-1.756.776-.644 1.85-1.803 2.07-2.232.081-.158.178-.307.213-.33.067-.045.225-.349.67-1.281.55-1.206.897-2.715.916-4.201.01-.743-.062-1.48-.232-2.172-.053-.213-.182-.381-.254-.584h-6.424c-3.089 0-5.574 2.486-5.574 5.574v10.143"/><path d="m27.412 29.19c-.221-.069-.601-.177-.934-.264-1.068-.278-3.447-1.354-4.244-1.922-.231-.165-.453-.301-.494-.301-.041 0-.279-.152-.527-.34-1.089-.819-2.297-1.596-3.586-2.25-1.289-.654-2.657-1.187-4.061-1.52-.9-.198-2.681-.215-3.547-.033-1.187.249-2.305.63-3.264 1.102-.959.472-1.761 1.035-2.32 1.645-.545.594-1.086 1.652-1.164 2.279-.032.258.197.552.279.906 1.01.996 2.388 1.613 3.922 1.613h17.05c1.082 0 2.031-.387 2.885-.916"/></g><g fill="#fff"><path d="m30.1 24.15v-1.998c-.064-.005-.126.028-.189.02-.775-.106-1.556-.362-2.314-.75-.759-.388-1.496-.91-2.182-1.551-.939-.878-1.264-1.234-1.711-1.877-.842-1.213-1.355-2.475-1.789-4.398-.185-.819-.147-4.886.059-6.402.232-1.708.199-3.556-.07-5.293h-2.145c.007.042.037.111.043.15.149 1.055.174 3.322.051 4.361-.211 1.775-.29 4.223-.186 5.732.114 1.644.222 2.262.621 3.559.285.926.989 2.466 1.301 2.848.105.129.278.377.385.553.106.176.221.32.254.32.033 0 .124.107.203.236.193.315.771.93 1.352 1.439.262.229.604.531.762.672.158.141.411.334.561.428.15.094.402.272.561.395.477.37 1.232.746 2.027 1.039.795.293 1.629.502 2.262.541.056.003.093-.026.146-.023"/><path d="m1.971 24.879c.092 1.405.643 2.681 1.58 3.609-.083-.354-.311-.649-.279-.906.078-.627.619-1.685 1.164-2.279.559-.61 1.361-1.173 2.32-1.645.959-.472 2.076-.853 3.264-1.102.866-.182 2.647-.165 3.547.033 1.403.332 2.772.865 4.061 1.52 1.289.654 2.497 1.431 3.586 2.25.249.188.487.34.527.34.041 0 .263.136.494.301.797.568 3.176 1.644 4.244 1.922.333.087.713.195.934.264.829-.514 1.495-1.233 1.973-2.074-1.063-.206-2.683-.587-3.26-.83-.282-.119-.659-.271-.838-.338-.179-.067-.629-.293-1-.504-.371-.21-.696-.383-.721-.383-.025 0-.232-.134-.461-.299-.229-.164-.443-.299-.475-.299-.032 0-.277-.162-.545-.361-.268-.2-.551-.402-.629-.449-.405-.244-1.508-.94-1.707-1.076-.448-.308-1.484-.848-2.59-1.35-.769-.349-1.254-.509-2.775-.922-.75-.204-.946-.221-2.604-.223-1.86-.002-2.267.052-3.457.453-.258.087-.667.218-.908.291-.527.161-2.112.899-2.152 1-.016.04-.063.074-.105.074-.092 0-1.015.582-1.176.742-.063.062-.252.219-.422.348-.338.256-.924.868-1.127 1.176-.071.108-.247.363-.389.566-.019.028-.052.111-.074.148"/><path d="m16.338 1.898h-2.441c.072.203.201.371.254.584.171.692.242 1.429.232 2.172-.019 1.486-.366 2.995-.916 4.201-.445.933-.603 1.237-.67 1.281-.035.023-.132.172-.213.33-.22.43-1.294 1.589-2.07 2.232-.707.587-2.298 1.658-2.607 1.756-.1.032-.426.207-.723.389-.297.182-.566.33-.598.33-.032 0-.424.179-.873.396-.449.218-1.22.591-1.713.83-.493.239-.935.465-.982.502-.227.178-.74.492-.805.492-.026 0-.185.125-.314.221v2.576c.056-.046.108-.107.154-.137.138-.088.45-.316.693-.504.55-.426.93-.664 1.693-1.07.99-.527 1.077-.571 1.963-.975.938-.428 1.137-.53 2.391-1.221 1.478-.814 2.14-1.235 2.68-1.703.206-.179.416-.339.469-.357.221-.077 1.572-1.443 2.133-2.156.633-.804 1.438-2.319 1.92-3.617.112-.303.305-1.193.529-2.434.181-1 .215-2.472.076-3.328-.048-.3-.172-.452-.262-.791"/></g><path d="m16.338 1.898c.09.339.213.491.262.791.138.856.105 2.326-.076 3.328-.224 1.241-.417 2.131-.529 2.434-.482 1.298-1.287 2.813-1.92 3.617-.561.713-1.912 2.079-2.133 2.156-.053.018-.263.179-.469.357-.539.468-1.202.889-2.68 1.703-1.254.691-1.453.793-2.391 1.221-.886.404-.972.448-1.963.975-.763.406-1.144.645-1.693 1.07-.243.188-.555.415-.693.504-.047.03-.098.091-.154.137v4.336c0 .125.064.229.072.352.023-.037.055-.121.074-.148.142-.204.317-.458.389-.566.203-.308.789-.92 1.127-1.176.169-.128.359-.285.422-.348.161-.16 1.083-.742 1.176-.742.042 0 .09-.034.105-.074.04-.103 1.625-.841 2.152-1 .241-.074.65-.204.908-.291 1.19-.401 1.597-.455 3.457-.453 1.658.002 1.854.019 2.604.223 1.522.413 2.01.573 2.775.922 1.106.501 2.142 1.042 2.59 1.35.199.137 1.302.832 1.707 1.076.078.047.361.25.629.449.268.2.513.361.545.361.032 0 .246.134.475.299.229.164.436.299.461.299.025 0 .35.172.721.383.371.21.821.437 1 .504.179.067.556.219.838.338.577.243 2.197.624 3.26.83.434-.765.717-1.628.717-2.584v-.379c-.054-.002-.091.027-.146.023-.633-.039-1.467-.248-2.262-.541-.795-.293-1.551-.669-2.027-1.039-.158-.123-.411-.301-.561-.395-.15-.094-.403-.287-.561-.428-.158-.141-.5-.442-.762-.672-.581-.51-1.159-1.124-1.352-1.439-.079-.129-.17-.236-.203-.236-.033 0-.147-.144-.254-.32-.106-.176-.28-.424-.385-.553-.312-.381-1.015-1.921-1.301-2.848-.399-1.297-.507-1.915-.621-3.559-.104-1.51-.026-3.957.186-5.732.124-1.039.098-3.307-.051-4.361-.006-.04-.036-.108-.043-.15h-3.422" fill="#f08d25"/><path d="m21.904 1.898c.27 1.737.302 3.585.07 5.293-.206 1.517-.243 5.583-.059 6.402.434 1.923.947 3.185 1.789 4.398.447.643.771.999 1.711 1.877.686.641 1.423 1.163 2.182 1.551.759.388 1.539.644 2.314.75.064.009.126-.024.189-.02v-14.678c0-3.089-2.486-5.574-5.574-5.574h-2.623" fill="#4eaf44"/></g>

   xmlns:dc="http://purl.org/dc/elements/1.1/"
   xmlns:cc="http://creativecommons.org/ns#"
   xmlns:rdf="http://www.w3.org/1999/02/22-rdf-syntax-ns#"
   xmlns:svg="http://www.w3.org/2000/svg"
   xmlns="http://www.w3.org/2000/svg"
   xmlns:xlink="http://www.w3.org/1999/xlink"
   xmlns:sodipodi="http://sodipodi.sourceforge.net/DTD/sodipodi-0.dtd"
   xmlns:inkscape="http://www.inkscape.org/namespaces/inkscape"
   version="1"
   width="32"
   height="32"
   id="svg12"
   sodipodi:docname="snow-top-4.svg"
   inkscape:version="0.92.1 r"&gt;
  <path d="m7.196.009c-8.161-.339-9.231 9.523-3.968 9.505.669.003 1.581-.197 2.929-1.471 3.773-4.147 9.01 4.479 14.696-1.042.61-.911 1.804-1.135 2.455-.627 1.045.677 2.87 2.991 3.88 3 2.359.513 4.095-.198 4.816-3.188.185-3.165-2.303-6.286-6.281-6.17-5.832.133-12.809-.045-18.527-.01" fill="url(#0)"/></svg>