<svg xmlns="http://www.w3.org/2000/svg" viewBox="0 0 32 32"><defs><linearGradient gradientTransform="matrix(2.62891 0 0 2.71269-160.16-291.42)" id="0" x1="67.894" y1="108.69" x2="67.854" y2="113.11" gradientUnits="userSpaceOnUse"><stop stop-color="#f9f9f9"/><stop offset="1" stop-color="#999"/></linearGradient></defs><g fill-rule="evenodd"><path d="m30.01758 7.05664a23.595343 23.616422 0 0 1 -.04883 1.412109 23.595343 23.616422 0 0 1 -.31836 2.339844 23.595343 23.616422 0 0 1 -.548828 2.294922 23.595343 23.616422 0 0 1 -.773437 2.230468 23.595343 23.616422 0 0 1 -.994141 2.140626 23.595343 23.616422 0 0 1 -1.203125 2.03125 23.595343 23.616422 0 0 1 -1.398437 1.90039 23.595343 23.616422 0 0 1 -1.582032 1.751953 23.595343 23.616422 0 0 1 -1.064453 1 23.595343 23.616422 0 0 1 -1.845703 1.46875 23.595343 23.616422 0 0 1 -1.984375 1.279297 23.595343 23.616422 0 0 1 -2.099609 1.074219 23.595343 23.616422 0 0 1 -2.197266 .857422 23.595343 23.616422 0 0 1 -2.271484 .634765 23.595343 23.616422 0 0 1 -2.324219 .404297 23.595343 23.616422 0 0 1 -2.212891 .160157c.113.007.209.064.324.064h17.05c3.089 0 5.574-2.486 5.574-5.574V7.475c0-.148-.073-.272-.084-.418" fill="#7de63e"/><path d="m24.849609 1.962891a23.595343 23.616422 0 0 0 -2.21289 .160156 23.595343 23.616422 0 0 0 -2.322266 .404297 23.595343 23.616422 0 0 0 -2.273438 .634766 23.595343 23.616422 0 0 0 -2.195312 .859375 23.595343 23.616422 0 0 0 -2.101563 1.074219 23.595343 23.616422 0 0 0 -1.982421 1.277344 23.595343 23.616422 0 0 0 -1.845704 1.470703 23.595343 23.616422 0 0 0 -1.066406 1 23.595343 23.616422 0 0 0 -1.580078 1.751953 23.595343 23.616422 0 0 0 -1.400391 1.900391 23.595343 23.616422 0 0 0 -1.201171 2.03125 23.595343 23.616422 0 0 0 -.994141 2.140625 23.595343 23.616422 0 0 0 -.775391 2.228515 23.595343 23.616422 0 0 0 -.548828 2.296876 23.595343 23.616422 0 0 0 -.316406 2.339843 23.595343 23.616422 0 0 0 -.04883 1.417969c.218 2.765 2.387 4.919 5.166 5.086a23.595343 23.616422 0 0 0 2.212891 -.160157 23.595343 23.616422 0 0 0 2.324219 -.404297 23.595343 23.616422 0 0 0 2.271484 -.634765 23.595343 23.616422 0 0 0 2.197266 -.857422 23.595343 23.616422 0 0 0 2.099609 -1.074219 23.595343 23.616422 0 0 0 1.984375 -1.279297 23.595343 23.616422 0 0 0 1.845703 -1.46875 23.595343 23.616422 0 0 0 1.064453 -1 23.595343 23.616422 0 0 0 1.582032 -1.751953 23.595343 23.616422 0 0 0 1.398437 -1.90039 23.595343 23.616422 0 0 0 1.203125 -2.03125 23.595343 23.616422 0 0 0 .994141 -2.140626 23.595343 23.616422 0 0 0 .773437 -2.230468 23.595343 23.616422 0 0 0 .548828 -2.294922 23.595343 23.616422 0 0 0 .31836 -2.339844 23.595343 23.616422 0 0 0 .04883 -1.412109C29.803 4.288 27.632 2.129 24.85 1.963" fill="#5abb3e"/><path d="m7.475 1.898c-3.089 0-5.576 2.488-5.576 5.576v17.05c0 .151.074.276.086.424a23.595343 23.616422 0 0 1 .04883 -1.417969 23.595343 23.616422 0 0 1 .316406 -2.339843 23.595343 23.616422 0 0 1 .548828 -2.296876 23.595343 23.616422 0 0 1 .775391 -2.228515 23.595343 23.616422 0 0 1 .994141 -2.140625 23.595343 23.616422 0 0 1 1.201171 -2.03125 23.595343 23.616422 0 0 1 1.400391 -1.900391 23.595343 23.616422 0 0 1 1.580078 -1.751953 23.595343 23.616422 0 0 1 1.066406 -1 23.595343 23.616422 0 0 1 1.845704 -1.470703 23.595343 23.616422 0 0 1 1.982421 -1.277344 23.595343 23.616422 0 0 1 2.101563 -1.074219 23.595343 23.616422 0 0 1 2.195312 -.859375 23.595343 23.616422 0 0 1 2.273438 -.634766 23.595343 23.616422 0 0 1 2.322266 -.404297 23.595343 23.616422 0 0 1 2.21289 -.160156c-.113-.007-.208-.064-.322-.064z" fill="#7de63e"/></g><circle cy="16" cx="16" r="6.02" fill="#3f832c"/><circle cy="16" cx="16" r="4.02" fill="#ffc20c"/><circle r="3.01" cx="24.03" cy="7.971" fill="#3f832c"/><circle r="2.01" cx="24.03" cy="7.971" fill="#ffc20c"/><circle r="3.01" cx="7.97" cy="24.03" fill="#3f832c"/><circle r="2.01" cx="7.97" cy="24.03" fill="#ffc20c"/>

   xmlns:dc="http://purl.org/dc/elements/1.1/"
   xmlns:cc="http://creativecommons.org/ns#"
   xmlns:rdf="http://www.w3.org/1999/02/22-rdf-syntax-ns#"
   xmlns:svg="http://www.w3.org/2000/svg"
   xmlns="http://www.w3.org/2000/svg"
   xmlns:xlink="http://www.w3.org/1999/xlink"
   xmlns:sodipodi="http://sodipodi.sourceforge.net/DTD/sodipodi-0.dtd"
   xmlns:inkscape="http://www.inkscape.org/namespaces/inkscape"
   version="1"
   width="32"
   height="32"
   id="svg12"
   sodipodi:docname="snow-top-1.svg"
   inkscape:version="0.92.1 r"&gt;
  <path d="m7.288.009c-8.276-.356-9.36 9.992-4.02 9.973.679.003 1.604-.207 2.97-1.543 7.256-10.531 14.706 3.573 17.53.919 1.71-1.912 3.496-.418 4.448.115 2.1.643 3.662.041 3.785-3.231.188-3.321-1.889-6.344-5.923-6.223-5.914.14-12.989-.047-18.787-.01" fill="url(#0)"/><path fill="#f00" fill-opacity="0" d="m0 0h32v32h-32z"/></svg>