<svg xmlns="http://www.w3.org/2000/svg" viewBox="0 0 32 32"><defs><linearGradient gradientTransform="matrix(-2.65552 0 0 2.58531 193.77-277.73)" id="0" x1="67.894" y1="108.69" x2="67.854" y2="113.11" gradientUnits="userSpaceOnUse"><stop stop-color="#f9f9f9"/><stop offset="1" stop-color="#999"/></linearGradient></defs><g transform="translate(50.04-.453)" fill-rule="evenodd"><g fill="#ff8e20"><path d="m-36.36 6.314l-1.529 9.357h4.16c.849 0 1.586-.107 2.23-.311.645-.203 1.197-.503 1.674-.895.476-.391.865-.861 1.17-1.434.305-.572.523-1.246.654-2.049.13-.796.131-1.466.014-2.035-.118-.569-.354-1.037-.703-1.428-.349-.391-.803-.695-1.381-.898-.578-.204-1.28-.309-2.129-.309z"/><path d="m-40.32 30.555h14.805c3.089 0 5.574-2.486 5.574-5.574v-17.05c0-3.089-2.486-5.576-5.574-5.576h-.967c1 .392 1.939.849 2.609 1.547 0 0 0 .002 0 .002.802.82 1.334 1.839 1.604 3.03.27 1.19.277 2.551.031 4.055-.248 1.516-.702 2.886-1.361 4.082-.659 1.197-1.523 2.22-2.594 3.041l-.002.002c-1.065.821-2.298 1.421-3.689 1.816-1.391.396-2.939.588-4.633.588h-4.16z"/><path d="m-41.26 2.352h-1.313c-3.089 0-5.576 2.488-5.576 5.576v17.05c0 1.904 1.01 3.497 2.455 4.502z"/></g><path d="m-41.26 2.352l-4.434 27.13c.901.625 1.937 1.072 3.121 1.072h2.248l1.643-10.04h4.16c1.694 0 3.242-.192 4.633-.588 1.391-.396 2.625-.995 3.689-1.816l.002-.002c1.071-.821 1.935-1.844 2.594-3.041.659-1.197 1.114-2.566 1.361-4.082.246-1.504.239-2.865-.031-4.055-.27-1.19-.802-2.209-1.604-3.03 0 0 0-.002 0-.002-.671-.698-1.605-1.155-2.609-1.547zm4.898 3.963h4.16c.849 0 1.551.105 2.129.309.578.204 1.032.507 1.381.898.349.391.585.859.703 1.428.118.569.116 1.239-.014 2.035-.131.803-.35 1.477-.654 2.049-.305.572-.694 1.043-1.17 1.434-.477.391-1.029.691-1.674.895-.645.203-1.382.311-2.23.311h-4.16z" fill="#fff"/></g>

   xmlns:dc="http://purl.org/dc/elements/1.1/"
   xmlns:cc="http://creativecommons.org/ns#"
   xmlns:rdf="http://www.w3.org/1999/02/22-rdf-syntax-ns#"
   xmlns:svg="http://www.w3.org/2000/svg"
   xmlns="http://www.w3.org/2000/svg"
   xmlns:xlink="http://www.w3.org/1999/xlink"
   xmlns:sodipodi="http://sodipodi.sourceforge.net/DTD/sodipodi-0.dtd"
   xmlns:inkscape="http://www.inkscape.org/namespaces/inkscape"
   version="1"
   width="32"
   height="32"
   id="svg12"
   sodipodi:docname="snow-top-3.svg"
   inkscape:version="0.92.1 r"&gt;
  <path d="m24.627.009c8.36-.339 9.455 9.523 4.064 9.505-.686.003-1.62-.197-3-1.471-14.665-10.216-14.549 2.967-17.708.875-1.727-1.822-1.743 4.653-4.139 5.127-2.122.613-3.699-1.385-3.824-4.503-.366-8.627 4.086-9.427 7.187-9.524 5.974.133 11.562-.045 17.419-.01" fill="url(#0)"/></svg>