<svg xmlns="http://www.w3.org/2000/svg" viewBox="0 0 32 32"><defs><linearGradient gradientTransform="matrix(2.59244 0 0 2.58531-157.93-277.73)" id="0" x1="67.894" y1="108.69" x2="67.854" y2="113.11" gradientUnits="userSpaceOnUse"><stop stop-color="#f9f9f9"/><stop offset="1" stop-color="#999"/></linearGradient></defs><rect width="28.2" height="28.2" x="1.898" y="1.898" fill="#ea4141" fill-rule="evenodd" rx="5.575"/><g transform="translate(0-.5)" fill="#fff"><path d="m15 19c-2.1 2.8-1.978 5.02-2.5 8-.701-3.157-.4-5.2-2.5-8l2.5.5z"/><path d="m22 19c-2.1 2.8-1.978 5.02-2.5 8-.701-3.157-.4-5.2-2.5-8l2.5.5z"/><path d="m10 13c2.8 2.1 9.02 1.978 12 2.5-3.157.701-9.2.4-12 2.5l.5-2.5z"/><path d="m10 6c2.8 2.1 9.02 1.978 12 2.5-3.157.701-9.2.4-12 2.5l.5-2.5"/><path d="m12 9.5c2.8 2.1 5.02 1.978 8 2.5-3.157.701-5.2.4-8 2.5l.5-2.5"/></g>

   xmlns:dc="http://purl.org/dc/elements/1.1/"
   xmlns:cc="http://creativecommons.org/ns#"
   xmlns:rdf="http://www.w3.org/1999/02/22-rdf-syntax-ns#"
   xmlns:svg="http://www.w3.org/2000/svg"
   xmlns="http://www.w3.org/2000/svg"
   xmlns:xlink="http://www.w3.org/1999/xlink"
   xmlns:sodipodi="http://sodipodi.sourceforge.net/DTD/sodipodi-0.dtd"
   xmlns:inkscape="http://www.inkscape.org/namespaces/inkscape"
   version="1"
   width="32"
   height="32"
   id="svg12"
   sodipodi:docname="snow-top-4.svg"
   inkscape:version="0.92.1 r"&gt;
  <path d="m7.196.009c-8.161-.339-9.231 9.523-3.968 9.505.669.003 1.581-.197 2.929-1.471 3.773-4.147 9.01 4.479 14.696-1.042.61-.911 1.804-1.135 2.455-.627 1.045.677 2.87 2.991 3.88 3 2.359.513 4.095-.198 4.816-3.188.185-3.165-2.303-6.286-6.281-6.17-5.832.133-12.809-.045-18.527-.01" fill="url(#0)"/></svg>