<svg xmlns="http://www.w3.org/2000/svg" xmlns:xlink="http://www.w3.org/1999/xlink" viewBox="0 0 32 32"><defs><linearGradient xlink:href="#3" id="4" gradientUnits="userSpaceOnUse" x1="-23.24" y1="-185.08" x2="-28.704" y2="-186.05"/><linearGradient xlink:href="#3" id="2" gradientUnits="userSpaceOnUse" x1="-34.914" y1="-193.53" x2="-20.469" y2="-181.36"/><linearGradient id="3"><stop stop-color="#ffff5e"/><stop offset="1" stop-color="#f6a32d"/></linearGradient><linearGradient id="1"><stop stop-color="#f9f9f9"/><stop offset="1" stop-color="#999"/></linearGradient><linearGradient xlink:href="#1" id="0" gradientUnits="userSpaceOnUse" x1="-33.14" y1="-185.13" x2="-35.775" y2="-177.2"/><radialGradient xlink:href="#1" id="5" cx="-176.59" cy="-120.91" r="3.01" gradientUnits="userSpaceOnUse" gradientTransform="matrix(2.21087.05719-.05496 2.12455 362.18 94.22)"/></defs><rect width="28.2" height="28.2" x="1.898" y="1.898" fill="#0286c2" fill-rule="evenodd" rx="5.575"/><path d="m11.02 8.5c-1.235-.014-2.707 1.277-2.973 4.945-.284 3.913.829 4.299 2.035 4.299 1.01 0 1.812-.503 2.697-1.537.134-.156.284-.238.342-.18.059.059.103.104.098.1-.005-.004-.07.15-.133.348-.174.543-.439 1.599-.172 2.341.07.195.216.167.276-.031.141-.472.414-1.284.71-1.693.121-.167.261-.072.254.135-.038 1.259.368 3.553 2.221 5.01 1.938 1.526 4.762 1.486 6.293.834.187-.08.48-.075.68-.039.123.023.279.036.474.026.567-.033-.38-.514-.443-.772-.063-.258.443-.308.545-1.129.103-.822-.543-.031-.543-.031 0 0-.475.557-2.367.435-1.744-.11-3.822-1.01-3.752-4.169.005-.208.069-.393.131-.418.061-.025.233.068.339.244.264.434.499 1.139.627 1.566.06.198.205.227.276.033.232-.645.062-1.529-.102-2.105-.055-.199.004-.45.135-.574.131-.125.332-.104.465.052.89 1.044 1.701 1.555 2.711 1.555 1.206 0 2.319-.386 2.035-4.299-.284-3.913-1.942-5.121-3.219-4.927-.823.124-1.393.548-1.693.835-.149.142-.25.287-.25.303 0 .016-.118-.089-.276-.22-.688-.575-1.552-.918-2.492-.918-.927 0-1.782.334-2.467.894-.158.13-.274.24-.275.232 0-.008-.102-.147-.25-.289-.301-.286-.87-.713-1.693-.837-.08-.013-.162-.019-.244-.02m3.482 3c.276 0 .5.224.5.5 0 .276-.224.5-.5.5-.276 0-.5-.224-.5-.5 0-.276.224-.5.5-.5m3 0c.276 0 .5.224.5.5 0 .276-.224.5-.5.5-.276 0-.5-.224-.5-.5 0-.276.224-.5.5-.5" fill="#ececec"/><g transform="translate(49.877 194.68)"><path d="m-35.21-194.22c-5.577-1.531-5.951 3.24-4.58 5.493 4.381 6.983 6.796 6.577 9.398 7.895 1.712 2.064 3.451 3.4 6.469 4.1 11.69 1.559 3.242-8.417.92-8.649-5.065.012-7.547-6.123-12.206-8.838" fill="url(#0)"/><path d="m-35.21-194.22c3.76.276 5.616-.626 8.93-.421 4.319.283 8.307 2.053 7.838 6.574-.347 2.567-.37 2.25.186 4.296.532 1.535-.252 4.232-.487 4.654-2.715 4.963-1.536 4.965-2.656 7.742l-.906-.418-2.508-11.358c-7.177-.909-10.754-10.11-10.398-11.07" fill="url(#2)"/><path d="m-28.419-184.29c.362.274 1.553-5.105 1.172-5.653 1.379 2.44 1.919 4.616 2.435 6.783-1.276-.283-2.289-.554-3.607-1.13" fill="url(#4)"/><circle r="3.01" cy="-171.07" cx="-21.728" fill="url(#5)"/></g></svg>