<svg xmlns="http://www.w3.org/2000/svg" xmlns:xlink="http://www.w3.org/1999/xlink" viewBox="0 0 32 32"><defs><linearGradient gradientTransform="matrix(-2.54182 0 0 2.58531 185.47-277.37)" id="1" x1="67.894" y1="108.69" x2="67.854" y2="113.11" gradientUnits="userSpaceOnUse"><stop stop-color="#f9f9f9"/><stop offset="1" stop-color="#999"/></linearGradient></defs><rect width="28.2" height="28.2" x="1.898" y="1.898" fill="#54b23f" fill-rule="evenodd" rx="5.575"/><path d="m16 7.233c-6.181 0-11.158 5.479-11.158 8.767 0 3.288 4.976 8.767 11.158 8.767 6.181 0 11.158-5.479 11.158-8.767 0-3.288-4.976-8.767-11.158-8.767" fill="#4f4f4f"/><path d="m15.24 9.188c-.334 0-.603.373-.603.837v.702a5.449619 5.449619 0 0 0 -1.401233 .582769l-.499-.499c-.328-.328-.781-.401-1.018-.165l-1.074 1.074c-.236.236-.163.69.165 1.018l.499.499a5.449619 5.449619 0 0 0 -.57875 1.401233h-.706c-.464 0-.837.269-.837.603v1.519c0 .334.373.602.837.602h.702a5.449619 5.449619 0 0 0 .582748 1.400961l-.499.499c-.328.328-.401.782-.165 1.018l1.074 1.074c.236.236.69.163 1.018-.165l.499-.499a5.449619 5.449619 0 0 0 1.401233 .578341v.706c0 .464.268.837.603.837h1.519c.334 0 .602-.373.602-.837v-.702a5.449619 5.449619 0 0 0 1.40096 -.582748l.499.499c.328.328.782.401 1.018.165l1.074-1.074c.236-.236.163-.69-.165-1.018l-.499-.499a5.449619 5.449619 0 0 0 .57834 -1.401233h.706c.464 0 .837-.268.837-.603v-1.519c0-.334-.373-.602-.837-.602h-.702a5.449619 5.449619 0 0 0 -.582748 -1.40096l.499-.499c.328-.328.401-.782.165-1.018l-1.074-1.074c-.236-.236-.69-.163-1.018.165l-.499.499a5.449619 5.449619 0 0 0 -1.401234 -.578749v-.706c0-.464-.268-.837-.603-.837h-1.519m.759909 4.08754a2.724809 2.724809 0 0 1 2.724809 2.72481 2.724809 2.724809 0 0 1 -2.724809 2.724809 2.724809 2.724809 0 0 1 -2.72481 -2.724809 2.724809 2.724809 0 0 1 2.72481 -2.72481" fill="#54b23f"/>

   xmlns:dc="http://purl.org/dc/elements/1.1/"
   xmlns:cc="http://creativecommons.org/ns#"
   xmlns:rdf="http://www.w3.org/1999/02/22-rdf-syntax-ns#"
   xmlns:svg="http://www.w3.org/2000/svg"
   xmlns="http://www.w3.org/2000/svg"
   xmlns:xlink="http://www.w3.org/1999/xlink"
   xmlns:sodipodi="http://sodipodi.sourceforge.net/DTD/sodipodi-0.dtd"
   xmlns:inkscape="http://www.inkscape.org/namespaces/inkscape"
   height="32"
   width="32"
   version="1"
   id="svg8"
   sodipodi:docname="snow-top-3.svg"
   inkscape:version="0.92.1 r"&gt;
  <path fill="#00000f" fill-opacity="0" d="m0 0h32v32h-32z" id="0"/><path d="m7.354 6.111c-2.995 2.684-1.381 7.817-3.674 8.291-2.031.613-3.541-1.385-3.66-4.503-.35-8.627 3.911-9.427 6.879-9.524 28.342-2.047 1.762 4.92.455 5.736" fill="url(#1)"/><use xlink:href="#0"/></svg>