<svg xmlns="http://www.w3.org/2000/svg" viewBox="0 0 32 32"><g transform="translate(42.842 6.105)"><g stroke-width="1.198"><path d="m-12.741 15.751c-1.041-.338-1.909-.66-2.248-.688-.689-.054-1.595.164-2.416.404-.821.24-1.558.501-1.91.527-.352.026-1.569.002-2.33-.068-.761-.07-1.416-.16-1.699-.186-.283-.026-1.083-.122-1.545-.186-.462-.064-.869-.123-1.215-.154-.346-.032-1.873-.145-2.984-.213-1.111-.068-2.153-.125-2.57-.125-.418-.005-1.756.038-2.564.086-.808.049-1.504.097-1.889.084-.384-.013-1.616-.224-2.441-.379-.825-.156-1.629-.27-2.309-.131-.018.004-.062.041-.082.047v2.648h28.2z"/><path d="m-35.37-4.139c-.772 0-1.506.154-2.174.436-.667.281-1.27.69-1.773 1.193-.504.504-.91 1.104-1.191 1.771-.281.667-.438 1.402-.438 2.174v13.336c.02-.006.064-.043.082-.047.68-.139 1.483-.025 2.309.131.825.155 2.057.366 2.441.379.385.013 1.08-.035 1.889-.084.808-.048 2.147-.091 2.564-.086.418 0 1.459.057 2.57.125 1.111.068 2.638.181 2.984.213.346.032.753.091 1.215.154.462.063 1.262.159 1.545.186.283.026.938.116 1.699.186.761.07 1.978.094 2.33.068.352-.026 1.089-.287 1.91-.527.821-.24 1.727-.459 2.416-.404.339.027 1.207.35 2.248.688v-14.316c0-.772-.154-1.506-.436-2.174-.281-.667-.69-1.268-1.193-1.771-.504-.504-1.104-.912-1.771-1.193-.667-.281-1.402-.436-2.174-.436z" fill="#8c93dd"/></g><path d="m-20.82 1.848c2.196 0 3.976 1.78 3.976 3.976 0 2.196-1.78 3.976-3.976 3.976-2.196 0-3.976-1.78-3.976-3.976 0-2.196 1.78-3.976 3.976-3.976" fill="#fffca3" fill-rule="evenodd" stroke-width=".994"/><path d="m-40.944 17.419v.934c0 .772.156 1.506.438 2.174.281.667.688 1.27 1.191 1.773.504.504 1.106.91 1.773 1.191.667.281 1.402.438 2.174.438h17.05c.772 0 1.506-.156 2.174-.438.667-.281 1.268-.688 1.771-1.191.504-.504.912-1.106 1.193-1.773.281-.667.436-1.402.436-2.174v-.934z" fill="#5184b0" stroke-width="1.198"/></g>

   xmlns:dc="http://purl.org/dc/elements/1.1/"
   xmlns:cc="http://creativecommons.org/ns#"
   xmlns:rdf="http://www.w3.org/1999/02/22-rdf-syntax-ns#"
   xmlns:svg="http://www.w3.org/2000/svg"
   xmlns="http://www.w3.org/2000/svg"
   xmlns:sodipodi="http://sodipodi.sourceforge.net/DTD/sodipodi-0.dtd"
   xmlns:inkscape="http://www.inkscape.org/namespaces/inkscape"
   height="32"
   width="32"
   version="1"
   id="svg8"
   sodipodi:docname="star-mime-2.svg"
   inkscape:version="0.92.1 r"&gt;
  <g transform="translate(152.47 194.05)" fill="#fff"><path d="m-125.38-193.25l-.077 3.548 3.072 1.831-3.548-.077-3.135 6.791 1.38-7.268-3.072-1.831 3.548.077z"/><path d="m-125.41-183.04l.042-1.955-1.692-1.01 1.955.042 1.727-3.741-.76 4 1.692 1.01-1.955-.042z"/></g></svg>