<svg xmlns="http://www.w3.org/2000/svg" xmlns:xlink="http://www.w3.org/1999/xlink" viewBox="0 0 32 32"><defs><linearGradient gradientTransform="matrix(-2.54182 0 0 2.58531 185.47-277.37)" id="1" x1="67.894" y1="108.69" x2="67.854" y2="113.11" gradientUnits="userSpaceOnUse"><stop stop-color="#f9f9f9"/><stop offset="1" stop-color="#999"/></linearGradient></defs><g transform="translate(44.526-7.158)"><g stroke-width=".7"><path d="m-14.526 14.13c-.054-.579-.12-1.157-.336-1.67-.281-.667-.69-1.268-1.193-1.771-.504-.504-1.104-.912-1.771-1.193-.512-.216-1.089-.28-1.666-.334h-9.03v14h14z" fill="#6655e4"/><g fill="#cf4f8c"><path d="m-37.561 9.158c-.577.054-1.154.118-1.666.334-.667.281-1.268.69-1.771 1.193-.504.504-.912 1.104-1.193 1.771-.216.512-.28 1.089-.334 1.666v9.04h14v-14"/><path d="m-19.491 37.16c.577-.054 1.154-.118 1.666-.334.667-.281 1.268-.69 1.771-1.193.504-.504.912-1.104 1.193-1.771.216-.512.28-1.089.334-1.666v-9.04h-14v14z"/></g><path d="m-42.526 32.19c.054.579.12 1.157.336 1.67.281.667.69 1.268 1.193 1.771.504.504 1.104.912 1.771 1.193.512.216 1.089.28 1.666.334h9.03v-14h-14z" fill="#6655e4"/></g><rect y="12.446" x="-39.24" height="21.424" width="21.424" fill="#3f3f3f" fill-rule="evenodd" rx="4.235"/></g><g transform="matrix(.78544 0 0 .78986 4.222 3.377)" stroke-width="2.539" fill="none" stroke="#fff" stroke-linecap="round"><path d="m9 23h8"/><path d="m9 13c0 0 4 .465 4-2 0-2.465-4-2-4-2m0 8v-8" stroke-linejoin="bevel"/><path d="m17 16c0 0 .504 1 2 1 1.496 0 2-1 2-2 0-4.214-4 .211-3.988-3.991-.012-1.01.472-2.01 1.988-2.01 1.516 0 2 1 2 1" stroke-linejoin="round"/></g>

   xmlns:dc="http://purl.org/dc/elements/1.1/"
   xmlns:cc="http://creativecommons.org/ns#"
   xmlns:rdf="http://www.w3.org/1999/02/22-rdf-syntax-ns#"
   xmlns:svg="http://www.w3.org/2000/svg"
   xmlns="http://www.w3.org/2000/svg"
   xmlns:xlink="http://www.w3.org/1999/xlink"
   xmlns:sodipodi="http://sodipodi.sourceforge.net/DTD/sodipodi-0.dtd"
   xmlns:inkscape="http://www.inkscape.org/namespaces/inkscape"
   height="32"
   width="32"
   version="1"
   id="svg8"
   sodipodi:docname="snow-top-3.svg"
   inkscape:version="0.92.1 r"&gt;
  <path fill="#00000f" fill-opacity="0" d="m0 0h32v32h-32z" id="0"/><path d="m7.354 6.111c-2.995 2.684-1.381 7.817-3.674 8.291-2.031.613-3.541-1.385-3.66-4.503-.35-8.627 3.911-9.427 6.879-9.524 28.342-2.047 1.762 4.92.455 5.736" fill="url(#1)"/><use xlink:href="#0"/></svg>