<svg xmlns="http://www.w3.org/2000/svg" viewBox="0 0 32 32"><defs><linearGradient gradientTransform="matrix(2.62891 0 0 2.71269-160.16-291.42)" id="0" x1="67.894" y1="108.69" x2="67.854" y2="113.11" gradientUnits="userSpaceOnUse"><stop stop-color="#f9f9f9"/><stop offset="1" stop-color="#999"/></linearGradient></defs><rect width="28.2" height="28.2" x="1.898" y="1.898" fill="#387068" fill-rule="evenodd" rx="5.575"/><g transform="translate(0 .5)" fill="#ffcd59"><path d="m16.357 19c-2.151-.02-4.139.068-5.865.263-3.091.35-4.36.505-4.443.547-.149.075.025.154.724.325.424.104.704.22.783.325.097.129.151.144.255.073.204-.138.69.03 1.12.388.387.322.477.357.573.23.032-.042.214-.078.405-.079.191-.001.41-.033.487-.073.097-.05.236-.026.452.078.172.083.453.151.624.151.171 0 .56.105.865.232.305.127.932.375 1.393.551.462.176 1.161.468 1.553.651.393.183.757.334.809.335.052.001.242-.072.423-.164.758-.383 3.293-1.375 3.515-1.375.132 0 .268-.038.302-.084.035-.046.166-.061.295-.035.175.036.312-.01.558-.187.4-.287.957-.327 1.145-.08.163.213.267.195.615-.108.408-.354.858-.531 1.2-.469.204.037.351.003.581-.135.17-.102.498-.233.731-.29.546-.134.599-.158.504-.235-.104-.084-1.756-.356-2.762-.455-2.378-.234-4.692-.361-6.843-.381m-1.527.527c.204-.006.369.039.369.138 0 .22-1.122 1.01-1.675 1.178-.614.188-.634.189-.866-.001-.368-.301-.177-.51.737-.804.319-.102.691-.258.828-.346.16-.103.404-.159.608-.165m2.483.006c.342.002 1.347.343 1.728.611.191.134.21.197.154.503-.035.192-.113.348-.172.346-.149-.005-.889-.374-1.31-.651-.325-.215-.627-.686-.504-.787.018-.015.054-.022.103-.022m-4.626.055c.13.061-.222.318-.504.369-.146.026-.319.099-.383.163-.065.064-.226.161-.36.216-.377.155-.686.186-1.019.101-.269-.069-.44-.287-.225-.287.045 0 .245-.093.446-.206.269-.151.579-.231 1.167-.298.44-.051.834-.076.876-.056m7.094.032c.101-.004.247.001.426.017.429.037.647.099.824.234.132.101.386.244.564.317.306.126.314.139.147.239-.209.125-.162.129-.747-.06-.553-.179-1.371-.599-1.371-.705 0-.023.057-.038.159-.042m-3.625.028l.229.231c.126.127.299.361.386.52.087.159.186.289.22.289.148 0 1.125.582 1.125.671 0 .109-.474.332-.705.332-.082 0-.37.121-.639.269-.581.32-.747.328-1.245.054-.207-.114-.588-.294-.847-.4-.259-.106-.47-.244-.47-.307 0-.062.243-.245.54-.406.334-.181.608-.403.719-.581.099-.158.294-.373.433-.479l.253-.193m-6.507.137c.2.022.174.138-.117.284-.171.085-.353.153-.405.15-.2-.012-.611-.164-.611-.225 0-.063.148-.096.859-.196.116-.016.208-.019.275-.012m13.313.063c.188-.003.423.017.614.062l.235.055-.301.129c-.166.071-.356.128-.423.127-.169-.003-.452-.188-.452-.295 0-.048.14-.076.327-.079m-3.146.695c.152.003.287.069.23.144-.076.1-.395.1-.471 0-.032-.043.007-.098.088-.123.048-.015.102-.021.153-.02m-7.724.029c.069 0 .143.043.164.096.023.057-.043.097-.164.097-.121 0-.188-.04-.164-.097.022-.053.095-.096.164-.096"/><path d="m25.404 18.755c-1.507-.321-1.526-.339-1.297-1.272.179-.732.537-1.483.705-1.483.274 0 .623.24.782.54.1.188.269.409.376.491.139.107.195.273.195.583 0 .504.193.87.569 1.079.147.082.267.187.267.235 0 .13-.355.092-1.596-.172"/><path d="m9.864 12l-.479.224c-.62.29-.908.66-1.073 1.385-.073.323-.214.67-.313.773-.099.103-.303.58-.454 1.06-.151.479-.327.94-.394 1.023-.108.136-.138.122-.283-.135-.088-.157-.202-.285-.254-.285-.177 0-.619.76-.799 1.375-.205.698-.4 1.085-.69 1.377-.148.148-.163.202-.061.203.118.001 3.03-.404 4.364-.608.415-.063.431-.078.593-.56.091-.272.312-.748.492-1.058l.327-.565-.012-1.567c-.014-1.697.008-1.62-.637-2.297l-.328-.345m.888 5.162c-.042.007-.084.041-.122.108-.177.314-.325.83-.264.921.078.116.207.116.445-.001.143-.07.189-.189.189-.482 0-.337-.122-.566-.248-.546"/><path d="m21.689 17.86c-2.622-.432-5.613-.554-7.994-.326-.81.078-1.329.092-1.379.037-.044-.048-.142-.473-.219-.944-.132-.808-.131-.907.014-1.769.218-1.297.323-1.637.64-2.072.285-.391.576-.496.734-.266.187.273.534 1.701.534 2.197 0 .816.163.475.263-.548.097-1 .124-1.137.526-2.621.162-.599.322-1.387.355-1.751.036-.391.12-.749.206-.874.08-.116.195-.346.255-.511.189-.518.257-.528 1.014-.149l.691.347.203.705c.111.388.282.926.378 1.195.097.269.325 1.129.508 1.91.204.87.386 1.463.472 1.533.158.127.505 1.118.593 1.694.032.21.115.459.184.554.113.155.121.117.073-.388-.029-.308-.09-.719-.136-.913-.102-.435.015-1.214.251-1.663.092-.176.251-.656.352-1.067.237-.959.312-1.049.688-.836.726.41.874.623 1.169 1.682.153.548.35 1.133.44 1.299.188.352.495 1.795.497 2.339.003.653-.267 1.389-.491 1.343-.032-.006-.401-.068-.82-.138"/></g>

   xmlns:dc="http://purl.org/dc/elements/1.1/"
   xmlns:cc="http://creativecommons.org/ns#"
   xmlns:rdf="http://www.w3.org/1999/02/22-rdf-syntax-ns#"
   xmlns:svg="http://www.w3.org/2000/svg"
   xmlns="http://www.w3.org/2000/svg"
   xmlns:xlink="http://www.w3.org/1999/xlink"
   xmlns:sodipodi="http://sodipodi.sourceforge.net/DTD/sodipodi-0.dtd"
   xmlns:inkscape="http://www.inkscape.org/namespaces/inkscape"
   version="1"
   width="32"
   height="32"
   id="svg12"
   sodipodi:docname="snow-top-1.svg"
   inkscape:version="0.92.1 r"&gt;
  <path d="m7.288.009c-8.276-.356-9.36 9.992-4.02 9.973.679.003 1.604-.207 2.97-1.543 7.256-10.531 14.706 3.573 17.53.919 1.71-1.912 3.496-.418 4.448.115 2.1.643 3.662.041 3.785-3.231.188-3.321-1.889-6.344-5.923-6.223-5.914.14-12.989-.047-18.787-.01" fill="url(#0)"/><path fill="#f00" fill-opacity="0" d="m0 0h32v32h-32z"/></svg>