<svg xmlns="http://www.w3.org/2000/svg" viewBox="0 0 32 32"><defs><linearGradient gradientTransform="matrix(2.54182 0 0 2.58531-153.47-277.37)" id="0" x1="67.894" y1="108.69" x2="67.854" y2="113.11" gradientUnits="userSpaceOnUse"><stop stop-color="#f9f9f9"/><stop offset="1" stop-color="#999"/></linearGradient></defs><rect width="28.2" height="28.2" x="1.898" y="1.898" fill="#41a5c7" fill-rule="evenodd" rx="5.575"/><path d="m16 6.5c-1.657 0-3 1.343-3 3 .002 1.27.803 2.401 2 2.824v1.176h-2.75v2h2.75v5.5c0 .75-.783.565-1.277.5-2.214-.29-3.665.007-4.698-.951l1.171-.069-1.293-1.207-1.295-1.205c-.488 1.105-.545 2.203-.607 3.383l.801-.789c.385 1.588 5.642 2.589 6.385 3.242l1.814 1.596 1.814-1.596c.744-.655 6-1.657 6.379-3.246l.807.793c0-1.201-.261-2.254-.607-3.383l-1.295 1.205-1.098 1.207.98.068c-1.032.956-2.476.661-4.681.952-.501.066-1.299.25-1.299-.5v-5.5h2.75v-2h-2.75v-1.174c1.198-.423 1.999-1.555 2-2.826 0-1.657-1.343-3-3-3zm0 2c.552 0 1 .448 1 1 0 .552-.448 1-1 1-.552 0-1-.448-1-1 0-.552.448-1 1-1" fill="#fff"/>

   xmlns:dc="http://purl.org/dc/elements/1.1/"
   xmlns:cc="http://creativecommons.org/ns#"
   xmlns:rdf="http://www.w3.org/1999/02/22-rdf-syntax-ns#"
   xmlns:svg="http://www.w3.org/2000/svg"
   xmlns="http://www.w3.org/2000/svg"
   xmlns:xlink="http://www.w3.org/1999/xlink"
   xmlns:sodipodi="http://sodipodi.sourceforge.net/DTD/sodipodi-0.dtd"
   xmlns:inkscape="http://www.inkscape.org/namespaces/inkscape"
   height="32"
   width="32"
   version="1"
   id="svg8"
   sodipodi:docname="snow-top-2.svg"
   inkscape:version="0.92.1 r"&gt;
  <path d="m24.646 6.111c2.995 2.684 1.381 7.817 3.674 8.291 2.031.613 3.541-1.385 3.66-4.503.35-8.627-3.911-9.427-6.879-9.524-28.342-2.047-1.762 4.92-.455 5.736" fill="url(#0)"/></svg>