<svg xmlns="http://www.w3.org/2000/svg" viewBox="0 0 32 32" xmlns:xlink="http://www.w3.org/1999/xlink"><defs><linearGradient xlink:href="#3" id="4" gradientUnits="userSpaceOnUse" x1="-23.24" y1="-185.08" x2="-28.704" y2="-186.05"/><linearGradient xlink:href="#3" id="2" gradientUnits="userSpaceOnUse" x1="-34.914" y1="-193.53" x2="-20.469" y2="-181.36"/><linearGradient id="3"><stop stop-color="#ffff5e"/><stop offset="1" stop-color="#f6a32d"/></linearGradient><linearGradient id="1"><stop stop-color="#f9f9f9"/><stop offset="1" stop-color="#999"/></linearGradient><linearGradient xlink:href="#1" id="0" gradientUnits="userSpaceOnUse" x1="-33.14" y1="-185.13" x2="-35.775" y2="-177.2"/><radialGradient xlink:href="#1" id="5" cx="-176.59" cy="-120.91" r="3.01" gradientUnits="userSpaceOnUse" gradientTransform="matrix(2.21087.05719-.05496 2.12455 362.18 94.22)"/></defs><rect width="28.2" height="28.2" x="1.898" y="1.898" fill="#f2f2f2" fill-rule="evenodd" rx="5.575"/><g transform="matrix(.88027 0 0 .88027 1.916 1.916)" stroke-width="1.108"><path d="m16.15 16.05c2.983 5.428 1.609 15.754-3.598 12.746-1.522-.881-2.117-1.807-2.217-2.672-.799.346-1.897.296-3.424-.583-5.783-3.339 3.046-9.361 9.235-9.49" fill="#37a0f2"/><path d="m16.15 16.05c.21-.005.421-.016.635-.034 6.101-.524 13.637-6.552 8.604-9.456-1.524-.878-2.623-.93-3.422-.585-.1-.865-.693-1.791-2.217-2.673-5.526-3.191-6.502 6.401-3.975 11.992.117.259.067.539.199.78" fill="#e74c3c"/><path d="m15.951 16.1c.131 6.192 6.484 14.448 9.489 9.239.878-1.524.93-2.623.584-3.422.865-.1 1.791-.692 2.673-2.217 3.339-5.783-7.318-6.583-12.743-3.601" fill="#fecd38"/><path d="m15.951 16.1c-5.428 2.983-15.754 1.609-12.746-3.598.881-1.523 1.807-2.117 2.672-2.217-.346-.8-.296-1.898.583-3.424 3.339-5.783 9.36 3.046 9.49 9.236" fill="#a4c639"/></g><g transform="translate(49.877 194.68)"><path d="m-35.21-194.22c-5.577-1.531-5.951 3.24-4.58 5.493 4.381 6.983 6.796 6.577 9.398 7.895 1.712 2.064 3.451 3.4 6.469 4.1 11.69 1.559 3.242-8.417.92-8.649-5.065.012-7.547-6.123-12.206-8.838" fill="url(#0)"/><path d="m-35.21-194.22c3.76.276 5.616-.626 8.93-.421 4.319.283 8.307 2.053 7.838 6.574-.347 2.567-.37 2.25.186 4.296.532 1.535-.252 4.232-.487 4.654-2.715 4.963-1.536 4.965-2.656 7.742l-.906-.418-2.508-11.358c-7.177-.909-10.754-10.11-10.398-11.07" fill="url(#2)"/><path d="m-28.419-184.29c.362.274 1.553-5.105 1.172-5.653 1.379 2.44 1.919 4.616 2.435 6.783-1.276-.283-2.289-.554-3.607-1.13" fill="url(#4)"/><circle r="3.01" cy="-171.07" cx="-21.728" fill="url(#5)"/></g></svg>