<svg xmlns="http://www.w3.org/2000/svg" xmlns:xlink="http://www.w3.org/1999/xlink" viewBox="0 0 32 32"><defs><linearGradient xlink:href="#3" id="4" gradientUnits="userSpaceOnUse" x1="27.558" y1="-133.46" x2="22.09" y2="-134.43"/><linearGradient xlink:href="#3" id="2" gradientUnits="userSpaceOnUse" x1="15.879" y1="-141.91" x2="30.32" y2="-129.74"/><linearGradient id="3"><stop stop-color="#55c03f"/><stop offset="1" stop-color="#198b26"/></linearGradient><linearGradient id="1"><stop stop-color="#f9f9f9"/><stop offset="1" stop-color="#999"/></linearGradient><linearGradient xlink:href="#1" id="0" gradientUnits="userSpaceOnUse" x1="17.658" y1="-133.51" x2="15.02" y2="-125.58"/><radialGradient xlink:href="#1" id="5" cx="-176.59" cy="-120.91" r="3.01" gradientUnits="userSpaceOnUse" gradientTransform="matrix(2.21087.05719-.05496 2.12455 412.97 145.84)"/></defs><g fill="#c12d25"><rect width="28.2" height="28.2" x="1.898" y="1.898" fill-rule="evenodd" rx="5.575"/><rect rx="12.11" transform="matrix(0-1-1 0 0 0)" height="24.21" width="24.21" y="-28.11" x="-28.11"/></g><path d="m16 3.895c-.892 0-1.758.102-2.594.284v5.56l-3.932-3.933c-1.475.943-2.726 2.195-3.67 3.67l3.933 3.932h-5.56c-.181.836-.284 1.702-.284 2.594 0 .892.102 1.758.284 2.594h5.56l-3.933 3.932c.943 1.475 2.195 2.726 3.67 3.67l3.932-3.933v5.56c.836.181 1.702.284 2.594.284.892 0 1.758-.102 2.594-.284v-5.56l3.932 3.933c1.475-.943 2.726-2.195 3.67-3.67l-3.933-3.932h5.56c.181-.836.284-1.702.284-2.594 0-.892-.102-1.758-.284-2.594h-5.56l3.933-3.932c-.943-1.475-2.195-2.726-3.67-3.67l-3.932 3.933v-5.56c-.836-.181-1.702-.284-2.594-.284" fill="#fff"/><g transform="matrix(0-1-1 0 0 0)"><rect rx="10.376" height="20.752" width="20.752" y="-26.376" x="-26.376" fill="#ffcb05"/><rect rx="8.647" height="17.293" width="17.293" y="-24.647" x="-24.647" fill="#c12d25"/></g><g transform="matrix(.86466 0 0 .86466 1.301 2.165)" stroke-width="1.157" fill="#fffcf7"><path d="m12 11h2v10h-2z"/><path transform="matrix(0 1-1 0 0 0)" d="m11-16h2v6h-2z"/><path d="m17 11h2v10h-2z"/><path transform="matrix(0 1-1 0 0 0)" d="m15-23h2v6h-2z"/><path d="m21 11h2v10h-2z"/></g><g transform="translate(-.916 143.06)"><path d="m15.583-142.61c-5.577-1.531-5.951 3.24-4.58 5.493 4.381 6.983 6.796 6.577 9.398 7.895 1.712 2.064 3.451 3.4 6.469 4.1 11.69 1.559 3.242-8.417.92-8.649-5.065.012-7.547-6.123-12.206-8.838" fill="url(#0)"/><path d="m15.583-142.61c3.76.276 5.616-.626 8.93-.421 4.319.283 8.307 2.053 7.838 6.574-.347 2.567-.37 2.25.186 4.296.532 1.535-.252 4.232-.487 4.654-2.715 4.963-1.536 4.965-2.656 7.742l-.906-.418-2.508-11.358c-7.177-.909-10.754-10.11-10.398-11.07" fill="url(#2)"/><path d="m22.374-132.67c.362.274 1.553-5.105 1.172-5.653 1.379 2.44 1.919 4.616 2.435 6.783-1.276-.283-2.289-.554-3.607-1.13" fill="url(#4)"/><circle r="3.01" cy="-119.45" cx="29.06" fill="url(#5)"/></g></svg>