<svg xmlns="http://www.w3.org/2000/svg" viewBox="0 0 32 32"><rect width="28.2" height="28.2" x="1.898" y="1.898" fill="#ff3939" fill-rule="evenodd" rx="5.575"/><g transform="translate(33.05 5.368)"><path d="m-15.03 11.378c3.498-.117 5.618-.482 5.805-.999.038-.107.028-.133-.086-.229l-.129-.109.108-.068c.06-.038.204-.155.321-.26.773-.697.596-1.958-.358-2.556-.128-.08-.223-.169-.211-.196.428-.962.515-1.316.542-2.209.024-.774-.027-1.166-.23-1.773-.568-1.699-2.109-3.149-3.948-3.714-.695-.214-1.04-.264-1.812-.263-.646 0-.77.013-1.168.116-1.697.441-2.874 1.43-3.869 3.251-.125.229-.234.417-.242.417-.008 0-.198-.178-.424-.396-.63-.608-1.179-.877-1.876-.919-.477-.029-.788.036-1.238.256-.661.323-1.197.997-1.372 1.726-.191.793.054 1.692.653 2.401l.168.198-.124.084c-.308.209-.747.696-.891.989-.29.59-.215 1.307.191 1.847.218.29.538.516.783.554.092.014.174.038.183.052.009.015-.002.156-.025.314-.051.368.011.497.325.675 1.071.604 4.853.948 8.924.812" fill="#ffe9b5"/><path d="m-15.256 22.17c1.464-.19 2.764-.599 3.713-1.168.335-.201.947-.677 1-.78.024-.044.322-2.304.664-5.02.642-5.113.66-5.314.479-5.347-.038-.007-.093.032-.123.087-.225.416-1.522.729-3.866.933-1.064.093-4.575.131-5.909.064-2.805-.139-4.612-.427-5.272-.841-.116-.073-.224-.12-.239-.105-.015.015.255 2.31.601 5.1l.629 5.073.163.167c.209.214.853.641 1.31.868 1.053.523 2.562.905 4.091 1.036.629.053 2.114.019 2.757-.064z" fill="#fff"/><path d="m-11.62453 5.591301a1.163167 1.163167 0 0 1 -1.163167 1.163167 1.163167 1.163167 0 0 1 -1.163167 -1.163167 1.163167 1.163167 0 0 1 1.163167 -1.163167 1.163167 1.163167 0 0 1 1.163167 1.163167" fill="#1b1b1b"/><path d="m-14.726 8.305c0 .857-1.041 1.551-2.326 1.551-1.285 0-2.326-.694-2.326-1.551 2.389.246 4.653 0 4.653 0" fill="#952525"/><path d="m-20.15442 5.591301a1.163167 1.163167 0 0 1 -1.163167 1.163167 1.163167 1.163167 0 0 1 -1.163166 -1.163167 1.163167 1.163167 0 0 1 1.163166 -1.163167 1.163167 1.163167 0 0 1 1.163167 1.163167" fill="#1b1b1b"/><path d="m-10.900265 11.466068a8.529889 2.326333 0 0 1 -2.356653 .474052l-.574 9.181c.876-.219 1.664-.514 2.288-.889.027-.016.068-.05.098-.07l.544-8.697m-12.304.002l.541 8.631c.191.12.389.244.56.329.516.256 1.143.477 1.827.653l-.572-9.142a8.529889 2.326333 0 0 1 -2.356265 -.47147m4.601.676v9.246c.197.025.392.057.591.074.573.049 1.801.019 2.511-.048v-9.27a8.529889 2.326333 0 0 1 -1.550889 .03938 8.529889 2.326333 0 0 1 -1.550889 -.04089" fill="#ff3939"/></g>

   xmlns:dc="http://purl.org/dc/elements/1.1/"
   xmlns:cc="http://creativecommons.org/ns#"
   xmlns:rdf="http://www.w3.org/1999/02/22-rdf-syntax-ns#"
   xmlns:svg="http://www.w3.org/2000/svg"
   xmlns="http://www.w3.org/2000/svg"
   xmlns:sodipodi="http://sodipodi.sourceforge.net/DTD/sodipodi-0.dtd"
   xmlns:inkscape="http://www.inkscape.org/namespaces/inkscape"
   height="32"
   width="32"
   version="1"
   id="svg8"
   sodipodi:docname="star-mime-2.svg"
   inkscape:version="0.92.1 r"&gt;
  <g transform="translate(152.47 194.05)" fill="#fff"><path d="m-125.38-193.25l-.077 3.548 3.072 1.831-3.548-.077-3.135 6.791 1.38-7.268-3.072-1.831 3.548.077z"/><path d="m-125.41-183.04l.042-1.955-1.692-1.01 1.955.042 1.727-3.741-.76 4 1.692 1.01-1.955-.042z"/></g></svg>