<svg xmlns="http://www.w3.org/2000/svg" viewBox="0 0 32 32"><g transform="translate(-.596)"><rect y="1.898" x="1.898" height="28.2" width="28.2" fill="#f2f2f2" fill-rule="evenodd" rx="5.575"/><g fill="#56aad4"><circle r="14.11" cx="16" cy="16"/><g fill-rule="evenodd"><path d="m23.285 1.898h-9.367l8.092 8.092-.002.002a8.5 8.5 0 0 1 .269532 .283204 8.5 8.5 0 0 1 .537109 .658203 8.5 8.5 0 0 1 .470703 .707031z"/><path d="m30.1 12.203v-4.73c0-3.089-2.486-5.574-5.574-5.574h-.027v14.1a8.5 8.5 0 0 1 -.01172 .390625 8.5 8.5 0 0 1 -.08398 .845703 8.5 8.5 0 0 1 -.169922 .832031zm-1.996093-8.130859a17 17 0 0 1 .458984 .503906c-.153-.168-.3-.342-.459-.504m1.052734 1.179688a17 17 0 0 1 .464844 .609375c-.153-.205-.303-.412-.465-.609m.951 1.287c.145.215.279.436.414.658a17 17 0 0 0 -.414063 -.658203m.83 1.381c.124.229.243.46.357.695a17 17 0 0 0 -.357422 -.695313"/><path d="m30.1 23.285v-9.367l-8.092 8.092-.002-.002a8.5 8.5 0 0 1 -.283203 .269532 8.5 8.5 0 0 1 -.658203 .537109 8.5 8.5 0 0 1 -.707031 .470703z"/><path d="m19.799 30.1h4.729c3.089 0 5.574-2.486 5.574-5.574v-.027h-14.1a8.5 8.5 0 0 1 -.390625 -.01172 8.5 8.5 0 0 1 -.84375 -.08398 8.5 8.5 0 0 1 -.833984 -.169922zm8.126953-1.996093a17 17 0 0 1 -.46875 .427734c.157-.143.318-.28.469-.428m-1.191406 1.066406a17 17 0 0 1 -.558594 .423828c.187-.14.378-.277.559-.424"/><path d="m8.715 30.1h9.367l-8.092-8.092.002-.002a8.5 8.5 0 0 1 -.267575 -.283157 8.5 8.5 0 0 1 -.539063 -.658203 8.5 8.5 0 0 1 -.470703 -.707031"/><path d="m1.898 19.797v4.73c0 3.089 2.486 5.574 5.574 5.574h.027v-14.1a8.5 8.5 0 0 1 .011719 -.390625 8.5 8.5 0 0 1 .083984 -.84375 8.5 8.5 0 0 1 .169922 -.833984zm.455 6.311c.161.217.319.436.49.645a17 17 0 0 1 -.490234 -.644531m1.08 1.316c.153.169.302.34.461.502a17 17 0 0 1 -.460937 -.501953"/><path d="m1.898 8.715v9.367l8.092-8.092.002.002a8.5 8.5 0 0 1 .285157 -.269531 8.5 8.5 0 0 1 .65625 -.537109 8.5 8.5 0 0 1 .707031 -.470703z"/><path d="m12.203 1.898h-4.73c-3.089 0-5.574 2.486-5.574 5.574v.027h14.1a8.5 8.5 0 0 1 .390625 .011719 8.5 8.5 0 0 1 .845703 .083984 8.5 8.5 0 0 1 .832031 .169922zm-6.342.479c-.205.153-.412.303-.609.465a17 17 0 0 1 .609375 -.464844m-1.285 1.059c-.168.153-.342.3-.504.459a17 17 0 0 1 .503906 -.458984"/></g></g><path d="m12.203 1.898l5.865 5.867a8.5 8.5 0 0 0 -.832031 -.169922 8.5 8.5 0 0 0 -.845703 -.083984 8.5 8.5 0 0 0 -.390625 -.011719h-14.1v1.215h9.742a8.5 8.5 0 0 0 -.707031 .470703 8.5 8.5 0 0 0 -.65625 .537109 8.5 8.5 0 0 0 -.285156 .269531l-.002-.002-8.092 8.092v1.715l5.867-5.865a8.5 8.5 0 0 0 -.169922 .833984 8.5 8.5 0 0 0 -.083984 .84375 8.5 8.5 0 0 0 -.011719 .390625v14.1h1.215v-9.742a8.5 8.5 0 0 0 .470703 .707031 8.5 8.5 0 0 0 .539063 .658203 8.5 8.5 0 0 0 .267578 .283203l-.002.002 8.092 8.092h1.717l-5.867-5.867a8.5 8.5 0 0 0 .833984 .169922 8.5 8.5 0 0 0 .84375 .08398 8.5 8.5 0 0 0 .390622 .011677h14.1v-1.215h-9.742a8.5 8.5 0 0 0 .707031 -.470703 8.5 8.5 0 0 0 .658203 -.537109 8.5 8.5 0 0 0 .283203 -.269532l.002.002 8.092-8.092v-1.715l-5.867 5.865a8.5 8.5 0 0 0 .169922 -.832031 8.5 8.5 0 0 0 .08398 -.845703 8.5 8.5 0 0 0 .011677 -.390671v-14.1h-1.215v9.742a8.5 8.5 0 0 0 -.470703 -.707031 8.5 8.5 0 0 0 -.537109 -.658203 8.5 8.5 0 0 0 -.269532 -.283204l.002-.002-8.092-8.092z" fill="#f2f2f2" fill-rule="evenodd"/></g><g transform="matrix(.75 0 0 .75 4.272 5.563)" stroke-width="1.333"><circle r="8" cy="23" cx="24" fill="#ba22ff"/><path d="m26.81 28h-4.79v-1.05l1.68-1.811q.317-.342.576-.63.259-.288.444-.562.186-.273.288-.557.103-.283.103-.61 0-.361-.22-.562-.215-.2-.581-.2-.386 0-.742.19-.356.19-.747.542l-.821-.971q.22-.2.459-.381.239-.186.527-.327.288-.142.635-.225.347-.088.776-.088.513 0 .918.142.41.142.698.405.288.259.439.63.156.371.156.835 0 .42-.146.806-.146.381-.4.752-.254.366-.591.732-.332.361-.713.737l-.859.864v.068h2.91v1.27" transform="matrix(1.0396 0 0 .96669-.871-.067)" fill="#fff"/></g>

   xmlns:dc="http://purl.org/dc/elements/1.1/"
   xmlns:cc="http://creativecommons.org/ns#"
   xmlns:rdf="http://www.w3.org/1999/02/22-rdf-syntax-ns#"
   xmlns:svg="http://www.w3.org/2000/svg"
   xmlns="http://www.w3.org/2000/svg"
   xmlns:sodipodi="http://sodipodi.sourceforge.net/DTD/sodipodi-0.dtd"
   xmlns:inkscape="http://www.inkscape.org/namespaces/inkscape"
   height="32"
   width="32"
   version="1"
   id="svg8"
   sodipodi:docname="star-mime-2.svg"
   inkscape:version="0.92.1 r"&gt;
  <g transform="translate(152.47 194.05)" fill="#fff"><path d="m-125.38-193.25l-.077 3.548 3.072 1.831-3.548-.077-3.135 6.791 1.38-7.268-3.072-1.831 3.548.077z"/><path d="m-125.41-183.04l.042-1.955-1.692-1.01 1.955.042 1.727-3.741-.76 4 1.692 1.01-1.955-.042z"/></g></svg>