<svg xmlns="http://www.w3.org/2000/svg" xmlns:xlink="http://www.w3.org/1999/xlink" viewBox="0 0 32 32"><defs><linearGradient xlink:href="#3" id="4" gradientUnits="userSpaceOnUse" x1="27.558" y1="-133.46" x2="22.09" y2="-134.43"/><linearGradient xlink:href="#3" id="2" gradientUnits="userSpaceOnUse" x1="15.879" y1="-141.91" x2="30.32" y2="-129.74"/><linearGradient id="3"><stop stop-color="#55c03f"/><stop offset="1" stop-color="#198b26"/></linearGradient><linearGradient id="1"><stop stop-color="#f9f9f9"/><stop offset="1" stop-color="#999"/></linearGradient><linearGradient xlink:href="#1" id="0" gradientUnits="userSpaceOnUse" x1="17.658" y1="-133.51" x2="15.02" y2="-125.58"/><radialGradient xlink:href="#1" id="5" cx="-176.59" cy="-120.91" r="3.01" gradientUnits="userSpaceOnUse" gradientTransform="matrix(2.21087.05719-.05496 2.12455 412.97 145.84)"/></defs><rect y="1.898" x="1.898" height="28.2" width="28.2" fill="#f2f2f2" fill-rule="evenodd" rx="5.575"/><g fill="#56aad4"><circle r="14.11" cx="16" cy="16"/><g fill-rule="evenodd"><path d="m23.285 1.898h-9.367l8.092 8.092-.002.002a8.5 8.5 0 0 1 .269532 .283204 8.5 8.5 0 0 1 .537109 .658203 8.5 8.5 0 0 1 .470703 .707031v-9.742"/><path d="m30.1 12.203v-4.73c0-3.089-2.486-5.574-5.574-5.574h-.027v14.1a8.5 8.5 0 0 1 -.011719 .390625 8.5 8.5 0 0 1 -.083984 .845703 8.5 8.5 0 0 1 -.169922 .832031l5.867-5.865m-1.996093-8.130859a17 17 0 0 1 .458984 .503906c-.153-.168-.3-.342-.459-.504m1.052734 1.179688a17 17 0 0 1 .464844 .609375c-.153-.205-.303-.412-.465-.609m.951 1.287c.145.215.279.436.414.658a17 17 0 0 0 -.414063 -.658203m.83 1.381c.124.229.243.46.357.695a17 17 0 0 0 -.357422 -.695313"/><path d="m30.1 23.285v-9.367l-8.092 8.092-.002-.002a8.5 8.5 0 0 1 -.283203 .269532 8.5 8.5 0 0 1 -.658203 .537109 8.5 8.5 0 0 1 -.707031 .470703h9.742"/><path d="m19.799 30.1h4.729c3.089 0 5.574-2.486 5.574-5.574v-.027h-14.1a8.5 8.5 0 0 1 -.390625 -.011719 8.5 8.5 0 0 1 -.84375 -.083984 8.5 8.5 0 0 1 -.833984 -.169922l5.867 5.867m8.126953-1.996093a17 17 0 0 1 -.46875 .427734c.157-.143.318-.28.469-.428m-1.191406 1.066406a17 17 0 0 1 -.558594 .423828c.187-.14.378-.277.559-.424"/><path d="m8.715 30.1h9.367l-8.092-8.092.002-.002a8.5 8.5 0 0 1 -.267578 -.283203 8.5 8.5 0 0 1 -.539063 -.658203 8.5 8.5 0 0 1 -.470703 -.707031v9.742"/><path d="m1.898 19.797v4.73c0 3.089 2.486 5.574 5.574 5.574h.027v-14.1a8.5 8.5 0 0 1 .011719 -.390625 8.5 8.5 0 0 1 .083984 -.84375 8.5 8.5 0 0 1 .169922 -.833984l-5.867 5.865m.455 6.311c.161.217.319.436.49.645a17 17 0 0 1 -.490234 -.644531m1.08 1.316c.153.169.302.34.461.502a17 17 0 0 1 -.460937 -.501953"/><path d="m1.898 8.715v9.367l8.092-8.092.002.002a8.5 8.5 0 0 1 .285156 -.269531 8.5 8.5 0 0 1 .65625 -.537109 8.5 8.5 0 0 1 .707031 -.470703h-9.742"/><path d="m12.203 1.898h-4.73c-3.089 0-5.574 2.486-5.574 5.574v.027h14.1a8.5 8.5 0 0 1 .390625 .011719 8.5 8.5 0 0 1 .845703 .083984 8.5 8.5 0 0 1 .832031 .169922l-5.865-5.867m-6.342.479c-.205.153-.412.303-.609.465a17 17 0 0 1 .609375 -.464844m-1.285 1.059c-.168.153-.342.3-.504.459a17 17 0 0 1 .503906 -.458984"/></g></g><path d="m12.203 1.898l5.865 5.867a8.5 8.5 0 0 0 -.832031 -.169922 8.5 8.5 0 0 0 -.845703 -.083984 8.5 8.5 0 0 0 -.390625 -.011719h-14.1v1.215h9.742a8.5 8.5 0 0 0 -.707031 .470703 8.5 8.5 0 0 0 -.65625 .537109 8.5 8.5 0 0 0 -.285156 .269531l-.002-.002-8.092 8.092v1.715l5.867-5.865a8.5 8.5 0 0 0 -.169922 .833984 8.5 8.5 0 0 0 -.083984 .84375 8.5 8.5 0 0 0 -.011719 .390625v14.1h1.215v-9.742a8.5 8.5 0 0 0 .470703 .707031 8.5 8.5 0 0 0 .539063 .658203 8.5 8.5 0 0 0 .267578 .283203l-.002.002 8.092 8.092h1.717l-5.867-5.867a8.5 8.5 0 0 0 .833984 .169922 8.5 8.5 0 0 0 .84375 .083984 8.5 8.5 0 0 0 .390625 .011719h14.1v-1.215h-9.742a8.5 8.5 0 0 0 .707031 -.470703 8.5 8.5 0 0 0 .658203 -.537109 8.5 8.5 0 0 0 .283203 -.269532l.002.002 8.092-8.092v-1.715l-5.867 5.865a8.5 8.5 0 0 0 .169922 -.832031 8.5 8.5 0 0 0 .083984 -.845703 8.5 8.5 0 0 0 .011719 -.390625v-14.1h-1.215v9.742a8.5 8.5 0 0 0 -.470703 -.707031 8.5 8.5 0 0 0 -.537109 -.658203 8.5 8.5 0 0 0 -.269532 -.283204l.002-.002-8.092-8.092h-1.715" fill="#f2f2f2" fill-rule="evenodd"/><g transform="translate(-.916 143.06)"><path d="m15.583-142.61c-5.577-1.531-5.951 3.24-4.58 5.493 4.381 6.983 6.796 6.577 9.398 7.895 1.712 2.064 3.451 3.4 6.469 4.1 11.69 1.559 3.242-8.417.92-8.649-5.065.012-7.547-6.123-12.206-8.838" fill="url(#0)"/><path d="m15.583-142.61c3.76.276 5.616-.626 8.93-.421 4.319.283 8.307 2.053 7.838 6.574-.347 2.567-.37 2.25.186 4.296.532 1.535-.252 4.232-.487 4.654-2.715 4.963-1.536 4.965-2.656 7.742l-.906-.418-2.508-11.358c-7.177-.909-10.754-10.11-10.398-11.07" fill="url(#2)"/><path d="m22.374-132.67c.362.274 1.553-5.105 1.172-5.653 1.379 2.44 1.919 4.616 2.435 6.783-1.276-.283-2.289-.554-3.607-1.13" fill="url(#4)"/><circle r="3.01" cy="-119.45" cx="29.06" fill="url(#5)"/></g></svg>