<svg xmlns="http://www.w3.org/2000/svg" xmlns:xlink="http://www.w3.org/1999/xlink" viewBox="0 0 32 32"><defs><linearGradient xlink:href="#3" id="4" gradientUnits="userSpaceOnUse" x1="-23.24" y1="-185.08" x2="-28.704" y2="-186.05"/><linearGradient xlink:href="#3" id="2" gradientUnits="userSpaceOnUse" x1="-34.914" y1="-193.53" x2="-20.469" y2="-181.36"/><linearGradient id="3"><stop stop-color="#ffff5e"/><stop offset="1" stop-color="#f6a32d"/></linearGradient><linearGradient id="1"><stop stop-color="#f9f9f9"/><stop offset="1" stop-color="#999"/></linearGradient><linearGradient xlink:href="#1" id="0" gradientUnits="userSpaceOnUse" x1="-33.14" y1="-185.13" x2="-35.775" y2="-177.2"/><radialGradient xlink:href="#1" id="5" cx="-176.59" cy="-120.91" r="3.01" gradientUnits="userSpaceOnUse" gradientTransform="matrix(2.21087.05719-.05496 2.12455 362.18 94.22)"/></defs><rect width="28.2" height="28.2" x="1.898" y="1.898" fill="#0093cd" fill-rule="evenodd" rx="5.575"/><g transform="translate(43.684-1.368)"><g transform="matrix(.8382-.54537.54537.8382 0 0)"><rect x="-44.572" y="-6.487" width="23.789" height="11.895" rx="3.568" fill="#4f4f4f"/><path fill="#0093cd" d="m-38.624-4.788h11.895v8.496h-11.895z"/></g><g transform="matrix(.71215-.46336.46336.71215-46.04 13.298)" fill="none" stroke="#fff" stroke-width=".588"><path d="m9.85 18.8v-3.15h2.8v-2.8h-3.15"/><path d="m17 12.85h-1.75v5.6h-1.75"/><path d="m17.85 18.8v-3.15h2.8v-2.8h-3.15"/></g><g transform="matrix(.71215-.46336.46336.71215-46.49 13.388)" fill="#697e83" stroke-width="1.177"><path d="m5.4 13c-.332 0-.6.268-.6.6v1.2h-1.2c-.332 0-.6.268-.6.6v1.2c0 .332.268.6.6.6h1.2v1.2c0 .332.268.6.6.6h1.2c.332 0 .6-.268.6-.6v-1.2h1.2c.332 0 .6-.268.6-.6v-1.2c0-.332-.268-.6-.6-.6h-1.2v-1.2c0-.332-.268-.6-.6-.6z"/><g transform="matrix(0 1-1 0 0 0)"><circle r="1" cx="14" cy="-26"/><circle r="1" cx="18" cy="-26"/></g><g transform="scale(-1-1)"><circle r="1" cx="-28" cy="-16"/><circle r="1" cx="-24" cy="-16"/></g></g></g><g transform="translate(49.877 194.68)"><path d="m-35.21-194.22c-5.577-1.531-5.951 3.24-4.58 5.493 4.381 6.983 6.796 6.577 9.398 7.895 1.712 2.064 3.451 3.4 6.469 4.1 11.69 1.559 3.242-8.417.92-8.649-5.065.012-7.547-6.123-12.206-8.838" fill="url(#0)"/><path d="m-35.21-194.22c3.76.276 5.616-.626 8.93-.421 4.319.283 8.307 2.053 7.838 6.574-.347 2.567-.37 2.25.186 4.296.532 1.535-.252 4.232-.487 4.654-2.715 4.963-1.536 4.965-2.656 7.742l-.906-.418-2.508-11.358c-7.177-.909-10.754-10.11-10.398-11.07" fill="url(#2)"/><path d="m-28.419-184.29c.362.274 1.553-5.105 1.172-5.653 1.379 2.44 1.919 4.616 2.435 6.783-1.276-.283-2.289-.554-3.607-1.13" fill="url(#4)"/><circle r="3.01" cy="-171.07" cx="-21.728" fill="url(#5)"/></g></svg>