<svg xmlns="http://www.w3.org/2000/svg" viewBox="0 0 32 32"><defs><linearGradient gradientTransform="matrix(2.62891 0 0 2.71269-160.16-291.42)" id="0" x1="67.894" y1="108.69" x2="67.854" y2="113.11" gradientUnits="userSpaceOnUse"><stop stop-color="#f9f9f9"/><stop offset="1" stop-color="#999"/></linearGradient></defs><rect width="28.2" height="28.2" x="1.898" y="1.898" fill="#3c6eb4" fill-rule="evenodd" rx="5.575"/><path d="m20.01 7c-.1-.006-.26.058-.553.186-.347.151-1.136.275-1.754.275-2.186.045-3.936.794-5.354 2.205-1.924 1.929-2.53 4.354-1.652 6.607.203.52.326 1.049.273 1.176-.053.126-.423.477-.82.779-.864.657-1.462 1.717-1.611 2.855-.09.684-.028 1.01.354 1.824.819 1.748 2.677 2.496 4.656 1.877 1.146-.359 2.293-1.632 3.211-3.564.793-1.669.827-1.709 1.678-2.01 1.435-.507 2.34-1.066 3.238-2 1.593-1.663 2.184-3.818 1.613-5.877-.257-.925-.473-1.244-1.635-2.422-.736-.746-1.388-1.501-1.451-1.678-.053-.149-.093-.224-.193-.23m-3.867 2c.681.003 1.208.208 1.352.617.047.134-.152.767-.443 1.404-.751 1.64-.99 2.541-1.443 5.434-.562 3.588-1.177 5.137-2.408 6.068-.776.587-1.729.637-2.238.119-.441-.448-.568-1.01-.363-1.598.162-.466.319-.541 1.502-.715.823-.121 1.402-.691 1.402-1.438 0-.47-.189-.74-.828-1.416-.989-1.046-1.421-2.051-1.426-3.318-.007-1.983.963-3.669 2.621-4.555.758-.405 1.592-.606 2.273-.604zm2.533 1c.204-.03.463.208.83.707 1.449 1.97 1.3 4.951-.332 6.664-.696.73-.859.774-1.342.381-.279-.227-.332-.434-.33-1.266.003-1.275.382-4.396.678-5.582.143-.575.292-.874.496-.904" fill="#fff" stroke-width=".687"/>

   xmlns:dc="http://purl.org/dc/elements/1.1/"
   xmlns:cc="http://creativecommons.org/ns#"
   xmlns:rdf="http://www.w3.org/1999/02/22-rdf-syntax-ns#"
   xmlns:svg="http://www.w3.org/2000/svg"
   xmlns="http://www.w3.org/2000/svg"
   xmlns:xlink="http://www.w3.org/1999/xlink"
   xmlns:sodipodi="http://sodipodi.sourceforge.net/DTD/sodipodi-0.dtd"
   xmlns:inkscape="http://www.inkscape.org/namespaces/inkscape"
   version="1"
   width="32"
   height="32"
   id="svg12"
   sodipodi:docname="snow-top-1.svg"
   inkscape:version="0.92.1 r"&gt;
  <path d="m7.288.009c-8.276-.356-9.36 9.992-4.02 9.973.679.003 1.604-.207 2.97-1.543 7.256-10.531 14.706 3.573 17.53.919 1.71-1.912 3.496-.418 4.448.115 2.1.643 3.662.041 3.785-3.231.188-3.321-1.889-6.344-5.923-6.223-5.914.14-12.989-.047-18.787-.01" fill="url(#0)"/><path fill="#f00" fill-opacity="0" d="m0 0h32v32h-32z"/></svg>