<svg xmlns="http://www.w3.org/2000/svg" viewBox="0 0 32 32"><defs><linearGradient gradientTransform="matrix(2.62891 0 0 2.71269-160.16-291.42)" id="0" x1="67.894" y1="108.69" x2="67.854" y2="113.11" gradientUnits="userSpaceOnUse"><stop stop-color="#f9f9f9"/><stop offset="1" stop-color="#999"/></linearGradient></defs><g transform="translate(33.45 4.422)"><rect y="-2.524" x="-31.552" height="28.2" width="28.2" fill="#8e8e8e" fill-rule="evenodd" rx="5.575"/><g transform="matrix(.91814 0 0 .91814-1.141-4.42)" stroke-width="1.089"><path d="m-25.283 8.785c-1.977 0-3.568 1.591-3.568 3.568v9.463c0 1.977 1.591 3.568 3.568 3.568h1.926c.164 1.21 1.185 2.141 2.441 2.141h6.307c1.256 0 2.278-.93 2.441-2.141h1.926c1.977 0 3.568-1.591 3.568-3.568v-9.463c0-1.977-1.591-3.568-3.568-3.568z" fill="#474747"/><rect width="20.18" height="14.5" x="-27.854" y="9.835" ry="2.594" rx="2.703" fill="#232323"/></g></g><g opacity=".8" fill="#8e8e8e" enable-background="new" stroke-width="1.303"><path d="m636 528c-1.657 0-3 1.343-3 3 0 .231.044.44.094.656l-3.219 2c-.51-.42-1.16-.66-1.87-.66-1.657 0-3 1.343-3 3 0 1.657 1.343 3 3 3 .709 0 1.361-.245 1.875-.656l3.219 2c-.06.22-.1.43-.1.66 0 1.657 1.343 3 3 3 1.657 0 3-1.343 3-3 0-1.657-1.343-3-3-3-.709 0-1.361.245-1.875.656l-3.219-2c.049-.216.094-.425.094-.656 0-.231-.044-.44-.094-.656l3.219-2c.52.41 1.17.65 1.88.65 1.657 0 3-1.343 3-3 0-1.657-1.343-3-3-3z" stroke-width="1.303" transform="matrix(.44743 0 0 .44743-266.78-224.01)"/></g>

   xmlns:dc="http://purl.org/dc/elements/1.1/"
   xmlns:cc="http://creativecommons.org/ns#"
   xmlns:rdf="http://www.w3.org/1999/02/22-rdf-syntax-ns#"
   xmlns:svg="http://www.w3.org/2000/svg"
   xmlns="http://www.w3.org/2000/svg"
   xmlns:xlink="http://www.w3.org/1999/xlink"
   xmlns:sodipodi="http://sodipodi.sourceforge.net/DTD/sodipodi-0.dtd"
   xmlns:inkscape="http://www.inkscape.org/namespaces/inkscape"
   version="1"
   width="32"
   height="32"
   id="svg12"
   sodipodi:docname="snow-top-1.svg"
   inkscape:version="0.92.1 r"&gt;
  <path d="m7.288.009c-8.276-.356-9.36 9.992-4.02 9.973.679.003 1.604-.207 2.97-1.543 7.256-10.531 14.706 3.573 17.53.919 1.71-1.912 3.496-.418 4.448.115 2.1.643 3.662.041 3.785-3.231.188-3.321-1.889-6.344-5.923-6.223-5.914.14-12.989-.047-18.787-.01" fill="url(#0)"/><path fill="#f00" fill-opacity="0" d="m0 0h32v32h-32z"/></svg>