<svg xmlns="http://www.w3.org/2000/svg" viewBox="0 0 32 32"><defs><linearGradient gradientTransform="matrix(2.59244 0 0 2.58531-157.93-277.73)" id="0" x1="67.894" y1="108.69" x2="67.854" y2="113.11" gradientUnits="userSpaceOnUse"><stop stop-color="#f9f9f9"/><stop offset="1" stop-color="#999"/></linearGradient></defs><rect width="28.2" height="28.2" x="1.898" y="1.898" fill="#999" fill-rule="evenodd" rx="5.575"/><g fill="#666"><rect transform="matrix(0-1 1 0 0 0)" rx=".37" ry=".361" y="5.223" x="-23.994" height="7.164" width="10.781"/><rect rx=".629" ry=".656" y="7.996" x="8.127" height="13.01" width="18.307"/></g><path d="m5.381 24.367c-.079-.039-.195-.139-.258-.222l-.115-.151-.011-5.289c-.011-5.206-.01-5.292.074-5.457.047-.092.149-.213.227-.268l.141-.101h3.344c3.326 0 3.345 0 3.466.09.067.05.165.154.218.232l.097.142v5.294 5.294l-.094.167c-.06.107-.159.199-.272.253-.173.084-.265.086-3.426.085-2.919-.001-3.262-.008-3.391-.071m3.526-.444c.022 0 .078-.039.126-.086.203-.203.032-.603-.258-.603-.268 0-.447.357-.285.569.068.089.242.164.321.138.032-.01.075-.019.097-.019m3.052-.944c.03-.056.045-1.481.045-4.317 0-3.763-.008-4.245-.067-4.33l-.067-.096h-3.057c-2.025 0-3.085.015-3.141.045-.081.044-.083.138-.083 4.361 0 3.3.012 4.329.052 4.369.039.039.8.052 3.163.052 3.03 0 3.112-.002 3.156-.083m-2.364-9.175c.046-.025.083-.072.083-.106 0-.123-.17-.151-.92-.151-.627 0-.765.011-.821.068-.037.037-.068.075-.068.083 0 .008.03.046.068.083.056.056.194.068.821.068.437 0 .788-.019.836-.045m3.984 10.482c-.051-.133-.029-.829.028-.866.03-.019.499-.045 1.044-.056l.99-.022.022-.395c.012-.217.038-.411.057-.431.02-.02.805-.041 1.744-.048 1.437-.01 1.722-.002 1.794.05.071.052.089.128.107.443l.022.38 1.304.022c1.096.018 1.311.032 1.345.086.06.096.053.79-.01.852-.039.039-1.039.052-4.236.052-3.776 0-4.187-.007-4.211-.068m-1.209-2.726c-.202-.124-.232-.271-.232-1.156 0-.906.036-1.053.286-1.157.118-.049 2.576-.059 7.671-.059h6.115v-5.317c0-5.26-.001-5.318-.086-5.403-.086-.086-.144-.086-8.755-.086h-8.669l-.082.091c-.077.085-.083.184-.091 1.647-.005.856-.01 2.799-.011 2.853-.001.096.123.587-.378.086l-.377-.012-.013-2.899c-.008-1.073.004-1.757.031-1.853.064-.223.332-.511.582-.628l.218-.101h8.765c9.759 0 8.999-.025 9.329.296.091.088.203.236.249.33.083.167.084.297.084 6.413v6.243l-.093.173c-.118.22-.29.392-.51.51l-.173.093-6.157.011c-5.997.011-7.575.009-7.705-.071m5.255-.947c.41-.25.224-.866-.262-.866-.361 0-.573.374-.404.713.11.221.433.295.666.153" fill="#fff"/>

   xmlns:dc="http://purl.org/dc/elements/1.1/"
   xmlns:cc="http://creativecommons.org/ns#"
   xmlns:rdf="http://www.w3.org/1999/02/22-rdf-syntax-ns#"
   xmlns:svg="http://www.w3.org/2000/svg"
   xmlns="http://www.w3.org/2000/svg"
   xmlns:xlink="http://www.w3.org/1999/xlink"
   xmlns:sodipodi="http://sodipodi.sourceforge.net/DTD/sodipodi-0.dtd"
   xmlns:inkscape="http://www.inkscape.org/namespaces/inkscape"
   version="1"
   width="32"
   height="32"
   id="svg12"
   sodipodi:docname="snow-top-4.svg"
   inkscape:version="0.92.1 r"&gt;
  <path d="m7.196.009c-8.161-.339-9.231 9.523-3.968 9.505.669.003 1.581-.197 2.929-1.471 3.773-4.147 9.01 4.479 14.696-1.042.61-.911 1.804-1.135 2.455-.627 1.045.677 2.87 2.991 3.88 3 2.359.513 4.095-.198 4.816-3.188.185-3.165-2.303-6.286-6.281-6.17-5.832.133-12.809-.045-18.527-.01" fill="url(#0)"/></svg>