<svg xmlns="http://www.w3.org/2000/svg" viewBox="0 0 32 32"><rect width="28.2" height="28.2" x="1.898" y="1.898" fill="#fecd38" fill-rule="evenodd" rx="5.575"/><path d="m13.01 7c-1.381 0-2.5 1.119-2.5 2.5 0 1.381 1.119 2.5 2.5 2.5 1.381 0 2.5-1.119 2.5-2.5 0-1.381-1.119-2.5-2.5-2.5m-2 6c-.404 0-.768.242-.924.615l-2.5 5c-.553 1.247 1.349 2.04 1.846.77l1.109-2.66-.035.275v7c0 .554.446 1 1 1h.004c.554 0 1-.446 1-1l-.004-4h1l.004 4c.001.554.446 1 1 1 .554 0 1-.446 1-1l-.004-7-.037-.299 1.117 2.684c.223.569.9.807 1.43.502l1.529-.082c-.013.065-.039.126-.039.195v4.5c0 .277.223.5.5.5.277 0 .5-.223.5-.5l-.004-2.5h1l.004 2.5c0 .277.223.5.5.5.277 0 .5-.223.5-.5v-3.791l1.143 1.145c.471.491 1.198-.236.707-.707l-1.996-2c-.094-.094-.221-.146-.354-.146h-1.865l-1.627.021c0-.14-.029-.278-.086-.406l-2.5-5c-.155-.372-.519-.615-.922-.615zm9.996 1.75c-.964 0-1.75.786-1.75 1.75 0 .964.786 1.75 1.75 1.75.964 0 1.75-.786 1.75-1.75 0-.964-.786-1.75-1.75-1.75" fill="#333"/>

   xmlns:dc="http://purl.org/dc/elements/1.1/"
   xmlns:cc="http://creativecommons.org/ns#"
   xmlns:rdf="http://www.w3.org/1999/02/22-rdf-syntax-ns#"
   xmlns:svg="http://www.w3.org/2000/svg"
   xmlns="http://www.w3.org/2000/svg"
   xmlns:sodipodi="http://sodipodi.sourceforge.net/DTD/sodipodi-0.dtd"
   xmlns:inkscape="http://www.inkscape.org/namespaces/inkscape"
   height="32"
   width="32"
   version="1"
   id="svg8"
   sodipodi:docname="star-mime-2.svg"
   inkscape:version="0.92.1 r"&gt;
  <g transform="translate(152.47 194.05)" fill="#fff"><path d="m-125.38-193.25l-.077 3.548 3.072 1.831-3.548-.077-3.135 6.791 1.38-7.268-3.072-1.831 3.548.077z"/><path d="m-125.41-183.04l.042-1.955-1.692-1.01 1.955.042 1.727-3.741-.76 4 1.692 1.01-1.955-.042z"/></g></svg>