<svg xmlns="http://www.w3.org/2000/svg" viewBox="0 0 32 32"><defs><linearGradient gradientTransform="matrix(2.54182 0 0 2.58531-153.47-277.37)" id="0" x1="67.894" y1="108.69" x2="67.854" y2="113.11" gradientUnits="userSpaceOnUse"><stop stop-color="#f9f9f9"/><stop offset="1" stop-color="#999"/></linearGradient></defs><g fill-rule="evenodd"><g fill="#999"><path d="m19.19 18.305v11.797h5.34c3.089 0 5.576-2.488 5.576-5.576v-6.221z"/><path d="m13.424 1.898h-5.951c-3.089 0-5.574 2.486-5.574 5.574v5.271h11.525z"/></g><path d="m13.424 1.898v10.846h5.762v5.561h10.916v-10.832c0-3.089-2.488-5.574-5.576-5.574z" fill="#c2c2c2"/></g><path d="m25.45 11.02v.638h-5.993c.057.897.326 1.582.808 2.054.486.468 1.162.701 2.026.701.501 0 .985-.061 1.452-.184.472-.123.94-.307 1.403-.553v1.233c-.468.198-.947.349-1.438.453-.491.104-.989.156-1.495.156-1.266 0-2.269-.368-3.01-1.105-.737-.737-1.105-1.733-1.105-2.989 0-1.299.349-2.328 1.048-3.089.704-.765 1.651-1.148 2.841-1.148 1.067 0 1.91.345 2.529 1.034.623.685.935 1.617.935 2.798m-1.303-.383c-.009-.713-.21-1.282-.602-1.707-.387-.425-.902-.638-1.544-.638-.727 0-1.311.205-1.75.616-.434.411-.685.989-.751 1.736l4.647-.007m-1.573-6.319h1.438v1.431h-1.438v-1.431m-2.77 0h1.438v1.431h-1.438v-1.431" fill="#9d9d9d"/><path d="m19.19 30.1v-17.357h-17.287v11.781c0 3.089 2.486 5.576 5.574 5.576z" fill="#d3d3d3" fill-rule="evenodd"/><path d="m11.437 22.857c-1.1 0-1.862.122-2.286.367-.424.245-.636.662-.636 1.253 0 .47.158.845.474 1.123.321.274.755.41 1.302.41.755 0 1.359-.259 1.813-.777.459-.523.688-1.217.688-2.08v-.295h-1.354m2.716-.547v4.6h-1.361v-1.224c-.31.49-.698.852-1.161 1.087-.464.231-1.031.346-1.702.346-.849 0-1.524-.23-2.028-.691-.498-.466-.747-1.087-.747-1.864 0-.907.311-1.591.932-2.052.627-.461 1.559-.691 2.797-.691h1.909v-.13c0-.609-.207-1.08-.622-1.411-.409-.336-.987-.504-1.732-.504-.474 0-.935.055-1.384.166-.449.11-.881.276-1.295.497v-1.224c.498-.187.982-.326 1.45-.418.469-.096.925-.144 1.369-.144 1.199 0 2.094.302 2.686.907.592.605.888 1.521.888 2.75m-4.587-7.191l2.087 2.692h-1.132l-2.412-2.692h1.458" fill="#7e7e7e"/>

   xmlns:dc="http://purl.org/dc/elements/1.1/"
   xmlns:cc="http://creativecommons.org/ns#"
   xmlns:rdf="http://www.w3.org/1999/02/22-rdf-syntax-ns#"
   xmlns:svg="http://www.w3.org/2000/svg"
   xmlns="http://www.w3.org/2000/svg"
   xmlns:xlink="http://www.w3.org/1999/xlink"
   xmlns:sodipodi="http://sodipodi.sourceforge.net/DTD/sodipodi-0.dtd"
   xmlns:inkscape="http://www.inkscape.org/namespaces/inkscape"
   height="32"
   width="32"
   version="1"
   id="svg8"
   sodipodi:docname="snow-top-2.svg"
   inkscape:version="0.92.1 r"&gt;
  <path d="m24.646 6.111c2.995 2.684 1.381 7.817 3.674 8.291 2.031.613 3.541-1.385 3.66-4.503.35-8.627-3.911-9.427-6.879-9.524-28.342-2.047-1.762 4.92-.455 5.736" fill="url(#0)"/></svg>