<svg xmlns="http://www.w3.org/2000/svg" xmlns:xlink="http://www.w3.org/1999/xlink" viewBox="0 0 32 32"><defs><linearGradient id="4" x1="-178.12" y1="-134.12" x2="-183.59" y2="-135.1" gradientUnits="userSpaceOnUse"><stop stop-color="#7c0000"/><stop offset="1" stop-color="#7c0000" stop-opacity="0"/></linearGradient><linearGradient id="3" x1="-189.8" y1="-142.57" x2="-175.35" y2="-130.4" gradientUnits="userSpaceOnUse"><stop stop-color="#ff383f"/><stop offset="1" stop-color="#a02d26"/></linearGradient><linearGradient id="2"><stop stop-color="#f9f9f9"/><stop offset="1" stop-color="#999"/></linearGradient><linearGradient xlink:href="#2" id="1" x1="-188.02" y1="-134.18" x2="-190.66" y2="-126.24" gradientUnits="userSpaceOnUse"/><radialGradient xlink:href="#2" id="5" cx="-176.59" cy="-120.91" r="3.01" gradientUnits="userSpaceOnUse" gradientTransform="matrix(2.21087.05719-.05496 2.12455 207.3 145.17)"/></defs><g transform="translate(45.967-7.187)" fill-rule="evenodd"><path d="m-18.742188 9.875a14.03366 13.972264 0 0 1 -.349609 .816406 14.03366 13.972264 0 0 1 -.675781 1.22461 14.03366 13.972264 0 0 1 -.794922 1.148437 14.03366 13.972264 0 0 1 -.908203 1.066406 14.03366 13.972264 0 0 1 -1.00977 .970703 14.03366 13.972264 0 0 1 -1.099609 .863282 14.03366 13.972264 0 0 1 -1.183594 .751953 14.03366 13.972264 0 0 1 -1.251953 .628906 14.03366 13.972264 0 0 1 -1.308594 .501953 14.03366 13.972264 0 0 1 -1.353515 .371094 14.03366 13.972264 0 0 1 -.94336 .173828 14.03366 13.972264 0 0 1 .158203 1.386719 14.03366 13.972264 0 0 1 .0293 .832031 14.03366 13.972264 0 0 1 -.07227 1.394531 14.03366 13.972264 0 0 1 -.208985 1.38086 14.03366 13.972264 0 0 1 -.347656 1.353515 14.03366 13.972264 0 0 1 -.482422 1.3125 14.03366 13.972264 0 0 1 -.609375 1.257813 14.03366 13.972264 0 0 1 -.734375 1.189453 14.03366 13.972264 0 0 1 -.849609 1.111328 14.03366 13.972264 0 0 1 -.957031 1.021484 14.03366 13.972264 0 0 1 -1.054688 .921876 14.03366 13.972264 0 0 1 -1.140625 .810546 14.03366 13.972264 0 0 1 -1.216797 .695313 14.03366 13.972264 0 0 1 -1.28125 .570312 14.03366 13.972264 0 0 1 -1.332031 .439453 14.03366 13.972264 0 0 1 -1.369141 .304688 14.03366 13.972264 0 0 1 -1.392578 .167969 14.03366 13.972264 0 0 1 -.6875 .02734c.978 1.598 2.659 2.719 4.678 2.719h17.05c3.089 0 5.574-2.488 5.574-5.576V14.66c0-2.088-1.186-3.83-2.877-4.785" fill="#dfbe57"/><path d="m-38.492 9.08c-3.089 0-5.576 2.488-5.576 5.576v17.05c0 1.07.38 2.01.898 2.857a14.03366 13.972264 0 0 0 .6875 -.02734 14.03366 13.972264 0 0 0 1.392578 -.167969 14.03366 13.972264 0 0 0 1.369141 -.304688 14.03366 13.972264 0 0 0 1.332031 -.439453 14.03366 13.972264 0 0 0 1.28125 -.570312 14.03366 13.972264 0 0 0 1.216797 -.695313 14.03366 13.972264 0 0 0 1.140625 -.810546 14.03366 13.972264 0 0 0 1.054688 -.921876 14.03366 13.972264 0 0 0 .957031 -1.021484 14.03366 13.972264 0 0 0 .849609 -1.111328 14.03366 13.972264 0 0 0 .734375 -1.189453 14.03366 13.972264 0 0 0 .609375 -1.257813 14.03366 13.972264 0 0 0 .482422 -1.3125 14.03366 13.972264 0 0 0 .347656 -1.353515 14.03366 13.972264 0 0 0 .208985 -1.38086 14.03366 13.972264 0 0 0 .07227 -1.394531 14.03366 13.972264 0 0 0 -.0293 -.832031 14.03366 13.972264 0 0 0 -.158203 -1.386719 14.03366 13.972264 0 0 0 .94336 -.173828 14.03366 13.972264 0 0 0 1.353515 -.371094 14.03366 13.972264 0 0 0 1.308594 -.501953 14.03366 13.972264 0 0 0 1.251953 -.628906 14.03366 13.972264 0 0 0 1.183594 -.751953 14.03366 13.972264 0 0 0 1.099609 -.863282 14.03366 13.972264 0 0 0 1.00977 -.970703 14.03366 13.972264 0 0 0 .908203 -1.066406 14.03366 13.972264 0 0 0 .794922 -1.148437 14.03366 13.972264 0 0 0 .675781 -1.22461 14.03366 13.972264 0 0 0 .349607 -.816409c-.81-.458-1.697-.791-2.697-.791" fill="#858585"/></g><path d="m32 .157l-.27 2.221-.122-2.378" fill="#f9f9f9" id="0"/><use xlink:href="#0"/><path d="m32 .113l-.27 1.6-.122-1.713" fill="#f9f9f9"/><g transform="matrix(-1 0 0 1-172.76 143.72)"><path d="m-190.09-143.27c-5.577-1.531-5.951 3.24-4.58 5.493 4.381 6.983 6.796 6.577 9.398 7.895 1.712 2.064 3.451 3.4 6.469 4.1 11.69 1.559 3.242-8.417.92-8.649-5.065.012-7.547-6.123-12.206-8.838" fill="url(#1)"/><path d="m-190.09-143.27c3.76.276 5.616-.626 8.93-.421 4.319.283 8.307 2.053 7.838 6.574-.347 2.567-.37 2.25.186 4.296.532 1.535-.252 4.232-.487 4.654-2.715 4.963-1.536 4.965-2.656 7.742l-.906-.418-2.508-11.358c-7.177-.909-10.754-10.11-10.398-11.07" fill="url(#3)"/><path d="m-183.3-133.33c.362.274 1.553-5.105 1.172-5.653 1.379 2.44 1.919 4.616 2.435 6.783-1.276-.283-2.289-.554-3.607-1.13" fill="url(#4)"/><circle r="3.01" cy="-120.11" cx="-176.61" fill="url(#5)"/></g></svg>