<svg xmlns="http://www.w3.org/2000/svg" viewBox="0 0 32 32" xmlns:xlink="http://www.w3.org/1999/xlink"><defs><linearGradient gradientTransform="matrix(-2.54182 0 0 2.58531 185.47-277.37)" id="1" x1="67.894" y1="108.69" x2="67.854" y2="113.11" gradientUnits="userSpaceOnUse"><stop stop-color="#f9f9f9"/><stop offset="1" stop-color="#999"/></linearGradient></defs><g fill-rule="evenodd"><path d="m29.936 25.357h-27.869c.414 2.674 2.614 4.744 5.408 4.744h17.05c2.794 0 4.994-2.07 5.408-4.744" fill="#29809c"/><path d="m7.475 1.898c-3.089 0-5.576 2.488-5.576 5.576v17.05c0 .295.124.548.168.83h27.869c.044-.282.166-.535.166-.83v-17.05c0-3.089-2.486-5.576-5.574-5.576z" fill="#4ab3e4"/></g><path d="m13.5 16.01v5.334c0 .369.334.666.75.666h10.5c.416 0 .75-.297.75-.666v-5.334z" fill="#fff"/><path d="m14.25 14.01h10.5c.416 0 .75.297.75.667v1.333h-12v-1.333c0-.369.335-.667.75-.667" fill="#4f4f4f"/><g fill="#fff"><rect rx=".375" height="3" width="3" y="7.01" x="6.5"/><rect rx=".375" height="3" width="3" y="11.01" x="6.5"/><rect rx=".375" height="3" width="3" y="15.01" x="6.5"/><rect rx=".375" height="3" width="3" y="19.01" x="6.5"/></g>

   xmlns:dc="http://purl.org/dc/elements/1.1/"
   xmlns:cc="http://creativecommons.org/ns#"
   xmlns:rdf="http://www.w3.org/1999/02/22-rdf-syntax-ns#"
   xmlns:svg="http://www.w3.org/2000/svg"
   xmlns="http://www.w3.org/2000/svg"
   xmlns:xlink="http://www.w3.org/1999/xlink"
   xmlns:sodipodi="http://sodipodi.sourceforge.net/DTD/sodipodi-0.dtd"
   xmlns:inkscape="http://www.inkscape.org/namespaces/inkscape"
   height="32"
   width="32"
   version="1"
   id="svg8"
   sodipodi:docname="snow-top-3.svg"
   inkscape:version="0.92.1 r"&gt;
  <path fill="#00000f" fill-opacity="0" d="m0 0h32v32h-32z" id="0"/><path d="m7.354 6.111c-2.995 2.684-1.381 7.817-3.674 8.291-2.031.613-3.541-1.385-3.66-4.503-.35-8.627 3.911-9.427 6.879-9.524 28.342-2.047 1.762 4.92.455 5.736" fill="url(#1)"/><use xlink:href="#0"/></svg>