<svg xmlns="http://www.w3.org/2000/svg" viewBox="0 0 32 32"><defs><linearGradient gradientTransform="matrix(2.62891 0 0 2.71269-160.16-291.42)" id="0" x1="67.894" y1="108.69" x2="67.854" y2="113.11" gradientUnits="userSpaceOnUse"><stop stop-color="#f9f9f9"/><stop offset="1" stop-color="#999"/></linearGradient></defs><g fill="#5b5b5b"><rect width="28.2" height="28.2" x="1.898" y="1.898" fill-rule="evenodd" rx="5.575"/><rect width="22" height="15.714" x="5" y="8.143" rx="1.1" stroke-width=".786"/></g><g stroke-width=".786"><g fill="#ccc"><circle cx="7.75" cy="11.679" r="1.179"/><circle cx="11.679" cy="11.679" r="1.179"/><circle cx="15.607" cy="11.679" r="1.179"/><circle cx="19.536" cy="11.679" r="1.179"/></g><circle cx="23.464" cy="11.679" r="1.179" fill="#ff8834"/><g fill="#ccc"><circle cx="10.11" cy="16.393" r="1.179"/><circle cx="14.04" cy="16.393" r="1.179"/></g><circle cx="17.964" cy="16.393" r="1.179" fill="#ff8834"/><g fill="#ccc"><circle cx="21.893" cy="16.393" r="1.179"/><rect width="15.714" height="2.357" x="8.143" y="19.929" rx=".589"/></g></g>

   xmlns:dc="http://purl.org/dc/elements/1.1/"
   xmlns:cc="http://creativecommons.org/ns#"
   xmlns:rdf="http://www.w3.org/1999/02/22-rdf-syntax-ns#"
   xmlns:svg="http://www.w3.org/2000/svg"
   xmlns="http://www.w3.org/2000/svg"
   xmlns:xlink="http://www.w3.org/1999/xlink"
   xmlns:sodipodi="http://sodipodi.sourceforge.net/DTD/sodipodi-0.dtd"
   xmlns:inkscape="http://www.inkscape.org/namespaces/inkscape"
   version="1"
   width="32"
   height="32"
   id="svg12"
   sodipodi:docname="snow-top-1.svg"
   inkscape:version="0.92.1 r"&gt;
  <path d="m7.288.009c-8.276-.356-9.36 9.992-4.02 9.973.679.003 1.604-.207 2.97-1.543 7.256-10.531 14.706 3.573 17.53.919 1.71-1.912 3.496-.418 4.448.115 2.1.643 3.662.041 3.785-3.231.188-3.321-1.889-6.344-5.923-6.223-5.914.14-12.989-.047-18.787-.01" fill="url(#0)"/><path fill="#f00" fill-opacity="0" d="m0 0h32v32h-32z"/></svg>