<svg xmlns="http://www.w3.org/2000/svg" xmlns:xlink="http://www.w3.org/1999/xlink" viewBox="0 0 32 32"><defs><linearGradient xlink:href="#3" id="4" gradientUnits="userSpaceOnUse" x1="-23.24" y1="-185.08" x2="-28.704" y2="-186.05"/><linearGradient xlink:href="#3" id="2" gradientUnits="userSpaceOnUse" x1="-34.914" y1="-193.53" x2="-20.469" y2="-181.36"/><linearGradient id="3"><stop stop-color="#ffff5e"/><stop offset="1" stop-color="#f6a32d"/></linearGradient><linearGradient id="1"><stop stop-color="#f9f9f9"/><stop offset="1" stop-color="#999"/></linearGradient><linearGradient xlink:href="#1" id="0" gradientUnits="userSpaceOnUse" x1="-33.14" y1="-185.13" x2="-35.775" y2="-177.2"/><radialGradient xlink:href="#1" id="5" cx="-176.59" cy="-120.91" r="3.01" gradientUnits="userSpaceOnUse" gradientTransform="matrix(2.21087.05719-.05496 2.12455 362.18 94.22)"/></defs><g transform="translate(46.644 3.39)" fill-rule="evenodd"><path d="m-27.505-1.491h-11.666c-3.089 0-5.574 2.486-5.574 5.574v17.05c0 3.089 2.486 5.574 5.574 5.574h17.05c3.089 0 5.574-2.486 5.574-5.574v-17.05c0-3.089-2.486-5.574-5.574-5.574h-3.506c-.45.481-.963.969-1.324 1.439-.643.837-1.154 1.659-1.568 2.475-.829 1.63-1.27 3.23-1.602 4.854l-1.371-.279c.345-1.69.839-3.428 1.742-5.203.452-.888 1.01-1.783 1.695-2.689.15-.197.382-.398.545-.596" fill="#999"/><path d="m-27.505-1.491c-.163.198-.395.399-.545.596-.69.906-1.244 1.802-1.695 2.689-.904 1.775-1.397 3.513-1.742 5.203l1.371.279c.331-1.623.773-3.223 1.602-4.854.414-.815.926-1.637 1.568-2.475.361-.47.874-.959 1.324-1.439z" fill="#666"/><path d="m-20.339 26.354l-1.664-2.09c-1.766-2.217-1.837-2.294-2.063-2.256-.785.134-1.539.136-2.027.004-.609-.165-1.294-.593-1.701-1.061-.327-.376-.72-1.132-.795-1.529l-.047-.254h-2.045-2.043l-.172.525c-.264.808-.717 1.432-1.322 1.844-.605.412-1.36.612-2.227.574l-.721-.031-1.973 2.281c-1.038 1.2-1.48 1.72-1.813 1.992.565.192 1.147.357 1.779.357h17.05c.631 0 1.213-.166 1.777-.357" fill="#999"/><path d="m-16.543 18.805c-.015-.062-.029-.125-.043-.182-.107-.45-.565-2.394-1.018-4.32-.654-2.782-.883-3.632-1.113-4.125-.274-.586-.625-1.118-1.053-1.596-.427-.478-.932-.901-1.506-1.266-1.149-.729-2.582-1.226-4.275-1.475-.999-.147-9.403-.145-10.23.002-1.305.232-2.322.513-3.182.904-.859.391-1.562.892-2.234 1.561-.677.673-.831.878-1.146 1.518-.384.778-.418.901-1.799 6.539-.189.773-.391 1.598-.604 2.467v2.305c0 2.457 1.597 4.47 3.795 5.217.333-.272.775-.792 1.813-1.992l1.973-2.281.721.031c.867.038 1.622-.162 2.227-.574.605-.412 1.058-1.035 1.322-1.844l.172-.525h2.043 2.045l.047.254c.075.398.468 1.153.795 1.529.407.468 1.092.896 1.701 1.061.488.132 1.242.13 2.027-.004.225-.039.296.039 2.063 2.256l1.664 2.09c2.199-.746 3.797-2.759 3.797-5.217zm-7.547-10.04c.383.258.508.681.336 1.131-.113.295-.33.497-.588.586-.258.088-.553.062-.822-.102-.287-.175-.45-.446-.477-.73-.027-.284.081-.583.33-.811.349-.32.815-.348 1.221-.074m-13.553.289h1.012 1.012v.971.971l.992.021.992.021.021.992.023.994h-1.016-1.014v1.012 1.012h-1.012-1.012v-1.012-1.012h-.973-.975v-1.014-1.012h.975.973v-.973zm5.994 6.928h1.012 1.012v.545.545h-1.012-1.012v-.545zm-4.221 1.061c.453.077.871.361 1.096.826.155.321.188.645.129.941-.059.296-.21.565-.42.773-.209.209-.477.357-.773.414-.296.057-.619.023-.938-.135-.463-.229-.745-.648-.82-1.1-.075-.452.056-.939.42-1.303.365-.365.854-.495 1.307-.418" fill="#333"/><g fill="#e6e6e6"><path d="m-25.509 17.06c-.416.099-.785.376-.992.805-.187.387-.201.797-.07 1.158.13.361.406.672.801.859.452.215.947.165 1.346-.07.399-.236.701-.657.771-1.18.052-.388-.251-1.083-.57-1.307-.405-.284-.869-.364-1.285-.266"/><path d="m-25.509 17.06c.416-.099.881-.018 1.285.266.319.224.622.919.57 1.307-.07.523-.372.944-.771 1.18-.399.236-.894.285-1.346.07-.395-.188-.67-.498-.801-.859-.13-.361-.117-.771.07-1.158.208-.429.576-.706.992-.805"/><path d="m-35.869 17.04c-.453-.077-.941.053-1.307.418-.364.364-.495.851-.42 1.303.075.452.357.87.82 1.1.319.158.641.192.938.135.296-.057.564-.206.773-.414.209-.209.361-.477.42-.773.059-.296.026-.621-.129-.941-.225-.465-.643-.749-1.096-.826"/><path d="m-31.648 15.977v.545.545h1.012 1.012v-.545-.545h-1.012z"/><path d="m-24.82 12.577c-.41.055-.687.336-.783.674-.096.338-.012.731.303 1.01.272.239.623.3.928.215.305-.085.566-.315.66-.656.101-.364.013-.7-.193-.932-.207-.232-.534-.36-.914-.309"/><path d="m-24.82 12.577c.38-.051.707.077.914.309.207.232.294.568.193.932-.094.341-.355.571-.66.656-.305.085-.655.024-.928-.215-.315-.277-.399-.67-.303-1.01.096-.338.373-.619.783-.674"/><path d="m-26.22 10.673c-.409-.209-.778-.14-1.123.205-.223.223-.258.311-.258.645 0 .446.193.752.578.92.325.142.409.136.791-.049.374-.181.562-.516.564-.854.002-.337-.181-.678-.553-.867"/><path d="m-26.22 10.673c.371.189.555.53.553.867-.002.337-.191.673-.564.854-.382.185-.466.19-.791.049-.385-.168-.578-.474-.578-.92 0-.334.034-.421.258-.645.345-.345.714-.414 1.123-.205"/><path d="m-22.283 10.634c-.389-.162-.769-.076-1.09.244-.223.223-.258.311-.258.645 0 .446.191.752.576.92.311.136.46.135.787-.002.383-.16.571-.531.568-.902-.003-.371-.199-.743-.584-.904"/></g><path d="m-22.283 10.634c.385.161.581.533.584.904.003.371-.186.742-.568.902-.327.137-.476.137-.787.002-.385-.168-.576-.474-.576-.92 0-.334.034-.421.258-.645.321-.321.701-.407 1.09-.244" fill="#ffca58"/><path d="m-37.642 9.05v.973.973h-.973-.975v1.012 1.014h.975.973v1.012 1.012h1.012 1.012v-1.012-1.012h1.014 1.016l-.023-.994-.021-.992-.992-.021-.992-.021v-.971-.971h-1.012z" fill="#e6e6e6"/><path d="m-24.09 8.761c-.406-.273-.872-.246-1.221.074-.249.228-.357.526-.33.811.027.284.19.555.477.73.269.164.565.19.822.102.258-.088.475-.291.588-.586.172-.45.047-.873-.336-1.131" fill="#ee5353"/></g><g transform="translate(49.877 194.68)"><path d="m-35.21-194.22c-5.577-1.531-5.951 3.24-4.58 5.493 4.381 6.983 6.796 6.577 9.398 7.895 1.712 2.064 3.451 3.4 6.469 4.1 11.69 1.559 3.242-8.417.92-8.649-5.065.012-7.547-6.123-12.206-8.838" fill="url(#0)"/><path d="m-35.21-194.22c3.76.276 5.616-.626 8.93-.421 4.319.283 8.307 2.053 7.838 6.574-.347 2.567-.37 2.25.186 4.296.532 1.535-.252 4.232-.487 4.654-2.715 4.963-1.536 4.965-2.656 7.742l-.906-.418-2.508-11.358c-7.177-.909-10.754-10.11-10.398-11.07" fill="url(#2)"/><path d="m-28.419-184.29c.362.274 1.553-5.105 1.172-5.653 1.379 2.44 1.919 4.616 2.435 6.783-1.276-.283-2.289-.554-3.607-1.13" fill="url(#4)"/><circle r="3.01" cy="-171.07" cx="-21.728" fill="url(#5)"/></g></svg>