<svg xmlns="http://www.w3.org/2000/svg" xmlns:xlink="http://www.w3.org/1999/xlink" viewBox="0 0 32 32"><defs><linearGradient gradientTransform="matrix(-2.54182 0 0 2.58531 185.47-277.37)" id="1" x1="67.894" y1="108.69" x2="67.854" y2="113.11" gradientUnits="userSpaceOnUse"><stop stop-color="#f9f9f9"/><stop offset="1" stop-color="#999"/></linearGradient></defs><g fill-rule="evenodd"><g fill="#05b4f2"><rect width="28.2" height="28.2" x="1.898" y="1.898" rx="5.575"/><path d="m15.865 30.1h8.662c3.089 0 5.574-2.486 5.574-5.574v-17.05c0-3.089-2.486-5.574-5.574-5.574h-8.662v28.2"/></g><path d="m15.865 30.1v-28.2h-8.393c-3.089 0-5.574 2.486-5.574 5.574v17.05c0 3.089 2.486 5.574 5.574 5.574h8.393" fill="#0599f2"/></g><path d="m8.869 24.05c0-.479.055-.635.274-.78.126-.083.161-.089.574-.099l.44-.011v-.4c0-.341.01-.421.071-.546.096-.199.299-.325.57-.354l.206-.022.038-.517c.105-1.427.462-2.511 1.12-3.4.222-.3.65-.733 1.194-1.209.724-.634.717-.8-.063-1.47-.533-.458-1.033-.983-1.258-1.322-.594-.893-.925-2-1-3.372l-.022-.385-.208-.022c-.273-.029-.475-.155-.571-.354-.061-.125-.071-.205-.071-.548v-.402h-.402c-.479 0-.635-.055-.78-.274-.083-.126-.089-.161-.099-.574l-.011-.44h7.136 7.136l-.011.44c-.01.413-.016.448-.099.574-.145.219-.302.274-.78.274h-.402v.402c0 .344-.01.424-.071.548-.097.2-.299.325-.571.354l-.207.022-.023.368c-.065 1.056-.264 1.937-.599 2.655-.37.795-.802 1.32-1.698 2.069-.458.383-.593.551-.594.736 0 .21.104.345.599.773.586.507.834.751 1.08 1.062.723.914 1.122 2.109 1.212 3.625l.023.385.208.022c.273.029.475.155.571.354.06.125.071.205.071.546v.4l.44.011c.413.01.448.016.574.099.219.145.274.302.274.78v.402h-7.131-7.131m4.57-2.831c.055-.621.23-1.186.515-1.66.21-.35.356-.539.837-1.087.928-1.058 1.05-1.331.977-2.18-.042-.482-.158-.921-.346-1.302-.17-.345-.337-.573-.818-1.118-.348-.394-.472-.587-.492-.766l-.011-.099 1.927-.008 1.927-.009-.018.134c-.031.232-.174.465-.538.874-.475.534-.62.727-.79 1.048-.365.691-.482 1.622-.273 2.172.138.362.28.558 1.08 1.485.751.87 1.039 1.513 1.142 2.55l.019.19h.687.687l-.014-.223c-.097-1.524-.416-2.462-1.114-3.285-.104-.123-.419-.424-.699-.67-.669-.587-.788-.713-.924-.989-.202-.408-.208-.932-.014-1.326.13-.265.311-.462.856-.935.783-.678 1.05-.998 1.357-1.626.318-.651.495-1.453.534-2.428l.009-.206h-3.949-3.949l.013.239c.054.975.201 1.66.494 2.312.279.622.593 1.021 1.263 1.606.616.539.832.772.967 1.05.106.216.109.235.109.636 0 .399-.004.421-.107.631-.152.309-.323.504-.818.936-.719.626-1.063 1.031-1.338 1.574-.274.542-.495 1.399-.542 2.108-.01.154-.026.351-.036.437l-.017.157h.692.692z" fill="#fff"/>

   xmlns:dc="http://purl.org/dc/elements/1.1/"
   xmlns:cc="http://creativecommons.org/ns#"
   xmlns:rdf="http://www.w3.org/1999/02/22-rdf-syntax-ns#"
   xmlns:svg="http://www.w3.org/2000/svg"
   xmlns="http://www.w3.org/2000/svg"
   xmlns:xlink="http://www.w3.org/1999/xlink"
   xmlns:sodipodi="http://sodipodi.sourceforge.net/DTD/sodipodi-0.dtd"
   xmlns:inkscape="http://www.inkscape.org/namespaces/inkscape"
   height="32"
   width="32"
   version="1"
   id="svg8"
   sodipodi:docname="snow-top-3.svg"
   inkscape:version="0.92.1 r"&gt;
  <path fill="#00000f" fill-opacity="0" d="m0 0h32v32h-32z" id="0"/><path d="m7.354 6.111c-2.995 2.684-1.381 7.817-3.674 8.291-2.031.613-3.541-1.385-3.66-4.503-.35-8.627 3.911-9.427 6.879-9.524 28.342-2.047 1.762 4.92.455 5.736" fill="url(#1)"/><use xlink:href="#0"/></svg>