<svg xmlns="http://www.w3.org/2000/svg" xmlns:xlink="http://www.w3.org/1999/xlink" viewBox="0 0 32 32"><defs><linearGradient id="4" x1="-178.12" y1="-134.12" x2="-183.59" y2="-135.1" gradientUnits="userSpaceOnUse"><stop stop-color="#7c0000"/><stop offset="1" stop-color="#7c0000" stop-opacity="0"/></linearGradient><linearGradient id="3" x1="-189.8" y1="-142.57" x2="-175.35" y2="-130.4" gradientUnits="userSpaceOnUse"><stop stop-color="#ff383f"/><stop offset="1" stop-color="#a02d26"/></linearGradient><linearGradient id="2"><stop stop-color="#f9f9f9"/><stop offset="1" stop-color="#999"/></linearGradient><linearGradient xlink:href="#2" id="1" x1="-188.02" y1="-134.18" x2="-190.66" y2="-126.24" gradientUnits="userSpaceOnUse"/><radialGradient xlink:href="#2" id="5" cx="-176.59" cy="-120.91" r="3.01" gradientUnits="userSpaceOnUse" gradientTransform="matrix(2.21087.05719-.05496 2.12455 207.3 145.17)"/></defs><flowRoot font-family="sans-serif" word-spacing="0" line-height="1.25" letter-spacing="0" font-size="40"><flowRegion><path d="m-726.78-237.02h477.29v225.63h-477.29z"/></flowRegion><flowPara/></flowRoot><g transform="translate(41.12-4.303)"><rect y="6.201" x="-39.22" height="28.2" width="28.2" fill="#5f7c8a" fill-rule="evenodd" rx="5.575"/><path d="m-25.611 26.341v.501.735l-1.64.014c-1.748.016-1.696.01-2.057.208-.162.088-.401.297-.481.419l-.068.104-1.716.019-1.717.019-.167.114c-.484.329-.434 1.037.09 1.275.141.064.285.07 1.83.071h1.677l.056.11c.124.239.582.538.932.608.093.019 1.937.03 4.112.027l3.943-.005.209-.086c.292-.121.489-.266.644-.474l.133-.18h1.63c1 0 1.684-.016 1.771-.04.294-.082.522-.387.521-.699-.002-.319-.234-.61-.562-.701-.082-.023-.786-.038-1.749-.038h-1.612l-.151-.191c-.168-.213-.398-.374-.682-.477-.17-.062-.36-.07-1.811-.082l-1.621-.013v-.735-.503z" fill="#112938"/><path d="m-17.318 12.196c.767 0 1.385.618 1.385 1.385v11.562c0 .767-.618 1.385-1.385 1.385h-15.63c-.767 0-1.385-.618-1.385-1.385v-10.665-3.327c0-.616.496-1.111 1.111-1.111h5.968c.616 0 1.119.244 1.51.72l1.183 1.441z" fill="#8fa9ff"/><g transform="matrix(.44432 0 0 .44432-16.865 16.659)" stroke-width="2.251" fill="#1d344f"><g stroke-width="2.759"><path d="m-20.09-2.61c2.031 0 3.678 1.647 3.678 3.678 0 2.031-1.647 3.678-3.678 3.678-2.031 0-3.678-1.647-3.678-3.678 0-2.031 1.647-3.678 3.678-3.678"/><path d="m-20.09 6.789c7.356-.004 7.356 4.904 7.356 4.904v1.225h-14.712v-1.225c0 0 0-4.901 7.356-4.905"/></g><g stroke-width="2.251"><path d="m-12.799.779c1.105 0 2 .895 2 2 0 1.105-.895 2-2 2-1.105 0-2-.895-2-2 0-1.105.895-2 2-2"/><path d="m-12.799 5.779c4-.002 4 3.201 4 3.201v.799h-8v-.799c0 0 0-3.198 4-3.201"/></g></g></g><path d="m32 .157l-.27 2.221-.122-2.378" fill="#f9f9f9" id="0"/><use xlink:href="#0"/><path d="m32 .113l-.27 1.6-.122-1.713" fill="#f9f9f9"/><g transform="matrix(-1 0 0 1-172.76 143.72)"><path d="m-190.09-143.27c-5.577-1.531-5.951 3.24-4.58 5.493 4.381 6.983 6.796 6.577 9.398 7.895 1.712 2.064 3.451 3.4 6.469 4.1 11.69 1.559 3.242-8.417.92-8.649-5.065.012-7.547-6.123-12.206-8.838" fill="url(#1)"/><path d="m-190.09-143.27c3.76.276 5.616-.626 8.93-.421 4.319.283 8.307 2.053 7.838 6.574-.347 2.567-.37 2.25.186 4.296.532 1.535-.252 4.232-.487 4.654-2.715 4.963-1.536 4.965-2.656 7.742l-.906-.418-2.508-11.358c-7.177-.909-10.754-10.11-10.398-11.07" fill="url(#3)"/><path d="m-183.3-133.33c.362.274 1.553-5.105 1.172-5.653 1.379 2.44 1.919 4.616 2.435 6.783-1.276-.283-2.289-.554-3.607-1.13" fill="url(#4)"/><circle r="3.01" cy="-120.11" cx="-176.61" fill="url(#5)"/></g></svg>