<svg xmlns="http://www.w3.org/2000/svg" viewBox="0 0 32 32"><defs><linearGradient gradientTransform="matrix(2.59244 0 0 2.58531-157.93-277.73)" id="0" x1="67.894" y1="108.69" x2="67.854" y2="113.11" gradientUnits="userSpaceOnUse"><stop stop-color="#f9f9f9"/><stop offset="1" stop-color="#999"/></linearGradient></defs><g transform="translate(33.45 4.422)"><rect y="-2.524" x="-31.552" height="28.2" width="28.2" fill="#8e8e8e" fill-rule="evenodd" rx="5.575"/><g transform="matrix(.91814 0 0 .91814-1.141-4.42)" stroke-width="1.089"><path d="m-25.283 8.785c-1.977 0-3.568 1.591-3.568 3.568v9.463c0 1.977 1.591 3.568 3.568 3.568h1.926c.164 1.21 1.185 2.141 2.441 2.141h6.307c1.256 0 2.278-.93 2.441-2.141h1.926c1.977 0 3.568-1.591 3.568-3.568v-9.463c0-1.977-1.591-3.568-3.568-3.568z" fill="#474747"/><rect width="20.18" height="14.5" x="-27.854" y="9.835" ry="2.594" rx="2.703" fill="#232323"/></g></g>

   xmlns:dc="http://purl.org/dc/elements/1.1/"
   xmlns:cc="http://creativecommons.org/ns#"
   xmlns:rdf="http://www.w3.org/1999/02/22-rdf-syntax-ns#"
   xmlns:svg="http://www.w3.org/2000/svg"
   xmlns="http://www.w3.org/2000/svg"
   xmlns:xlink="http://www.w3.org/1999/xlink"
   xmlns:sodipodi="http://sodipodi.sourceforge.net/DTD/sodipodi-0.dtd"
   xmlns:inkscape="http://www.inkscape.org/namespaces/inkscape"
   version="1"
   width="32"
   height="32"
   id="svg12"
   sodipodi:docname="snow-top-4.svg"
   inkscape:version="0.92.1 r"&gt;
  <path d="m7.196.009c-8.161-.339-9.231 9.523-3.968 9.505.669.003 1.581-.197 2.929-1.471 3.773-4.147 9.01 4.479 14.696-1.042.61-.911 1.804-1.135 2.455-.627 1.045.677 2.87 2.991 3.88 3 2.359.513 4.095-.198 4.816-3.188.185-3.165-2.303-6.286-6.281-6.17-5.832.133-12.809-.045-18.527-.01" fill="url(#0)"/></svg>