<svg xmlns="http://www.w3.org/2000/svg" xmlns:xlink="http://www.w3.org/1999/xlink" viewBox="0 0 32 32"><defs><linearGradient xlink:href="#3" id="4" x1="-227.98" y1="-131.26" x2="-234.8" y2="-134.14" gradientUnits="userSpaceOnUse"/><linearGradient xlink:href="#3" id="2" x1="-241.01" y1="-141.61" x2="-226.57" y2="-129.44" gradientUnits="userSpaceOnUse"/><linearGradient id="3"><stop stop-color="#13a9ea"/><stop offset="1" stop-color="#372db5"/></linearGradient><linearGradient id="1"><stop stop-color="#f9f9f9"/><stop offset="1" stop-color="#999"/></linearGradient><linearGradient xlink:href="#1" id="0" x1="-239.23" y1="-133.21" x2="-241.87" y2="-125.28" gradientUnits="userSpaceOnUse"/><radialGradient xlink:href="#1" id="5" cx="-176.59" cy="-120.91" r="3.01" gradientUnits="userSpaceOnUse" gradientTransform="matrix(2.21087.05719-.05496 2.12455 156.08 146.14)"/></defs><rect width="28.2" height="28.2" x="1.898" y="1.898" fill="#5f7c8a" fill-rule="evenodd" rx="5.575"/><path d="m15.1 25.692c-1.804-.204-3.54-.974-4.898-2.17-1.407-1.24-2.409-2.966-2.822-4.864-.101-.464-.117-.699-.119-1.75-.001-1.07.012-1.281.119-1.777.371-1.73 1.135-3.164 2.356-4.418 1.15-1.182 2.546-1.987 4.176-2.409l.634-.164.016-.381.016-.381h-1.01-1.01v-.253c0-1.136.922-2.213 2.089-2.44.213-.041.752-.055 1.61-.041 1.199.019 1.313.03 1.607.144.414.161.826.436 1.063.708.36.413.653 1.177.653 1.704v.178h-.977-.977v.391.391l.409.091c1.01.224 2.119.717 3.075 1.364.688.465 1.684 1.446 2.179 2.146.43.607.983 1.698 1.196 2.36.565 1.754.564 3.787-.003 5.525-.704 2.158-2.275 4.01-4.324 5.092-1.51.799-3.365 1.149-5.068.956m.274-2.647c.018-.46.045-.627.12-.742.268-.408.911-.398 1.157.018.066.112.086.284.086.732 0 .678-.055.634.631.504.858-.163 1.885-.605 2.642-1.137.218-.153.611-.494.874-.759 2.285-2.299 2.633-5.843.838-8.539-.992-1.49-2.52-2.518-4.313-2.902-.702-.15-1.958-.161-2.598-.021-2.045.445-3.662 1.605-4.647 3.332-.386.677-.742 1.719-.833 2.44l-.028.224h.555c.785 0 1.028.136 1.1.617.04.262-.106.539-.349.664-.139.071-.312.092-.748.092-.312 0-.568.009-.568.021 0 .011.037.219.081.462.511 2.773 2.655 4.964 5.389 5.507.636.126.584.17.61-.512m7.577-12.911l-1.204-1.205.658-.64c.689-.671.843-.759 1.182-.676.091.022.476.366 1.03.918l.884.883v.285.285l-.673.678-.673.678z" fill="#f2f2f2"/><path d="m16.14 13.694v-3.168h.277c.432 0 1.231.147 1.754.322 2.215.741 3.881 2.661 4.276 4.928.045.256.081.605.081.775v.31h-3.194-3.194z" fill="#72dba9"/><g transform="matrix(-1 0 0 1-223.97 142.77)"><g fill="#f9f9f9"><path d="m-228.95-129.3l-.27 2.221-.122-2.378z"/><path d="m-228.66-130.01l-.27 2.221-.122-2.378z"/><path d="m-228.43-129.95l-.27 1.6-.122-1.713z"/></g><path d="m-241.31-142.31c-5.577-1.531-5.951 3.24-4.58 5.493 4.381 6.983 6.796 6.577 9.398 7.895 1.712 2.064 3.451 3.4 6.469 4.1 11.69 1.559 3.242-8.417.92-8.649-5.065.012-7.547-6.123-12.206-8.838" fill="url(#0)"/><path d="m-241.31-142.31c3.76.276 5.616-.626 8.93-.421 4.319.283 8.307 2.053 7.838 6.574-.347 2.567-.37 2.25.186 4.296.532 1.535-.252 4.232-.487 4.654-2.715 4.963-1.536 4.965-2.656 7.742l-.906-.418-2.508-11.358c-7.177-.909-10.754-10.11-10.398-11.07" fill="url(#2)"/><path d="m-234.52-132.37c.362.274 1.553-5.105 1.172-5.653 1.379 2.44 1.919 4.616 2.435 6.783-1.276-.283-2.289-.554-3.607-1.13" fill="url(#4)"/><circle r="3.01" cy="-119.15" cx="-227.83" fill="url(#5)"/></g></svg>