<svg xmlns="http://www.w3.org/2000/svg" viewBox="0 0 32 32"><defs><linearGradient gradientTransform="matrix(2.59244 0 0 2.58531-157.93-277.73)" id="0" x1="67.894" y1="108.69" x2="67.854" y2="113.11" gradientUnits="userSpaceOnUse"><stop stop-color="#f9f9f9"/><stop offset="1" stop-color="#999"/></linearGradient></defs><g transform="translate(40.26 34.624)" stroke-width="1.046"><path d="m-19.539-4.523h3.82c.772 0 1.506-.156 2.174-.438.667-.281 1.268-.688 1.771-1.191.504-.504.912-1.106 1.193-1.773.281-.667.438-1.402.438-2.174v-3.82h-9.396z" fill="#9b26af"/><path d="m-38.37-13.919v3.822c0 .772.156 1.506.438 2.174.281.667.69 1.268 1.193 1.771.504.504 1.104.91 1.771 1.191.667.281 1.402.438 2.174.438h3.822v-9.396z" fill="#fe9700"/><path fill="#f34235" d="m-28.962-13.919h9.41v9.41h-9.41z"/><path fill="#feac33" d="m-38.37-23.329h9.41v9.41h-9.41z"/><path fill="#f5685d" d="m-28.962-23.329h9.41v9.41h-9.41z"/><path fill="#af51bf" d="m-19.552-23.329h9.41v9.41h-9.41z"/><path d="m-10.156-23.33v-3.82c0-.772-.154-1.506-.436-2.174-.281-.667-.69-1.268-1.193-1.771-.504-.504-1.104-.912-1.771-1.193-.667-.281-1.402-.438-2.174-.438h-3.822v9.396z" fill="#c37dcf"/><path fill="#f88e86" d="m-28.962-32.739h9.41v9.41h-9.41z"/><path d="m-28.962-32.726h-3.822c-.772 0-1.506.156-2.174.438-.667.281-1.268.688-1.771 1.191-.504.504-.912 1.104-1.193 1.771-.281.667-.436 1.402-.436 2.174v3.822h9.396z" fill="#fec166"/></g>

   xmlns:dc="http://purl.org/dc/elements/1.1/"
   xmlns:cc="http://creativecommons.org/ns#"
   xmlns:rdf="http://www.w3.org/1999/02/22-rdf-syntax-ns#"
   xmlns:svg="http://www.w3.org/2000/svg"
   xmlns="http://www.w3.org/2000/svg"
   xmlns:xlink="http://www.w3.org/1999/xlink"
   xmlns:sodipodi="http://sodipodi.sourceforge.net/DTD/sodipodi-0.dtd"
   xmlns:inkscape="http://www.inkscape.org/namespaces/inkscape"
   version="1"
   width="32"
   height="32"
   id="svg12"
   sodipodi:docname="snow-top-4.svg"
   inkscape:version="0.92.1 r"&gt;
  <path d="m7.196.009c-8.161-.339-9.231 9.523-3.968 9.505.669.003 1.581-.197 2.929-1.471 3.773-4.147 9.01 4.479 14.696-1.042.61-.911 1.804-1.135 2.455-.627 1.045.677 2.87 2.991 3.88 3 2.359.513 4.095-.198 4.816-3.188.185-3.165-2.303-6.286-6.281-6.17-5.832.133-12.809-.045-18.527-.01" fill="url(#0)"/></svg>