<svg xmlns="http://www.w3.org/2000/svg" viewBox="0 0 32 32"><rect width="28.2" height="28.2" x="1.898" y="1.898" fill="#3f6170" fill-rule="evenodd" rx="5.575"/><path d="m14.05 6.459c-.202.022-.381.187-.418.387l-.402 2.043c-.723.283-1.402.671-1.998 1.148l-1.982-.672c-.206-.071-.456.021-.566.209l-1.908 3.311c-.107.19-.062.453.104.596l1.582 1.387c-.056.372-.09.746-.09 1.133 0 .387.034.761.09 1.133l-1.582 1.387c-.166.143-.211.407-.104.598l1.908 3.309c.111.188.36.28.566.209l1.982-.672c.596.477 1.275.866 1.998 1.148l.402 2.043c.041.214.245.384.463.387h3.816c.218-.003.422-.173.463-.387l.402-2.043c.723-.283 1.402-.671 1.998-1.148l1.982.672c.206.071.456-.021.566-.209l1.908-3.309c.107-.19.062-.455-.104-.598l-1.582-1.387c.056-.372.09-.745.09-1.133 0-.387-.034-.761-.09-1.133l1.582-1.387c.166-.143.211-.405.104-.596l-1.908-3.311c-.111-.188-.36-.28-.566-.209l-1.982.672c-.596-.477-1.276-.866-1.998-1.148l-.402-2.043c-.041-.214-.245-.384-.463-.387h-3.816c-.015 0-.03 0-.045 0m1.953 5.451c2.258 0 4.09 1.831 4.09 4.09 0 2.258-1.831 4.09-4.09 4.09-2.258 0-4.09-1.831-4.09-4.09 0-2.258 1.831-4.09 4.09-4.09" fill="#fff" stroke-width=".682"/>

   xmlns:dc="http://purl.org/dc/elements/1.1/"
   xmlns:cc="http://creativecommons.org/ns#"
   xmlns:rdf="http://www.w3.org/1999/02/22-rdf-syntax-ns#"
   xmlns:svg="http://www.w3.org/2000/svg"
   xmlns="http://www.w3.org/2000/svg"
   xmlns:sodipodi="http://sodipodi.sourceforge.net/DTD/sodipodi-0.dtd"
   xmlns:inkscape="http://www.inkscape.org/namespaces/inkscape"
   height="32"
   width="32"
   version="1"
   id="svg8"
   sodipodi:docname="star-mime-2.svg"
   inkscape:version="0.92.1 r"&gt;
  <g transform="translate(152.47 194.05)" fill="#fff"><path d="m-125.38-193.25l-.077 3.548 3.072 1.831-3.548-.077-3.135 6.791 1.38-7.268-3.072-1.831 3.548.077z"/><path d="m-125.41-183.04l.042-1.955-1.692-1.01 1.955.042 1.727-3.741-.76 4 1.692 1.01-1.955-.042z"/></g></svg>