<svg xmlns="http://www.w3.org/2000/svg" viewBox="0 0 32 32"><g transform="translate(69.7 2.305)"><g fill-rule="evenodd"><path d="m-41.22 1.223c-1.01-1.01-2.401-1.629-3.945-1.629h-17.05c-3.089 0-5.576 2.486-5.576 5.574v17.05c0 3.089 2.488 5.576 5.576 5.576h8.525v-14.1" fill="#ebebeb"/><path d="m-41.22 1.223l-12.473 12.473v14.1h8.527c3.089 0 5.574-2.488 5.574-5.576v-17.05c0-1.544-.621-2.938-1.629-3.945" fill="#c4c4c4"/></g><g stroke-width=".344"><path d="m-53.694 2.697c-3.047 0-5.789 1.234-7.777 3.223-1.99 1.987-3.224 4.73-3.224 7.776 0 6.094 4.906 11 11 11v-11l7.777-7.777c-1.987-1.99-4.73-3.224-7.776-3.224z" fill="#ebebeb"/><path d="m-46.13 5.639l-8.06 7.563.988.988 7.563-8.06-.493-.493" fill="#5e5e5e"/></g><path d="m-53.694 13.697v11" fill="none" stroke="#f34235" stroke-width=".688"/><g fill="#3f3f3f"><path d="m-58.943 7.946l-.494.494 5.249 5.751.988-.988z" stroke-width=".344"/><circle cy="13.697" cx="-53.694" r=".688" stroke-width=".688"/></g></g>

   xmlns:dc="http://purl.org/dc/elements/1.1/"
   xmlns:cc="http://creativecommons.org/ns#"
   xmlns:rdf="http://www.w3.org/1999/02/22-rdf-syntax-ns#"
   xmlns:svg="http://www.w3.org/2000/svg"
   xmlns="http://www.w3.org/2000/svg"
   xmlns:sodipodi="http://sodipodi.sourceforge.net/DTD/sodipodi-0.dtd"
   xmlns:inkscape="http://www.inkscape.org/namespaces/inkscape"
   height="32"
   width="32"
   version="1"
   id="svg8"
   sodipodi:docname="star-mime-2.svg"
   inkscape:version="0.92.1 r"&gt;
  <g transform="translate(152.47 194.05)" fill="#fff"><path d="m-125.38-193.25l-.077 3.548 3.072 1.831-3.548-.077-3.135 6.791 1.38-7.268-3.072-1.831 3.548.077z"/><path d="m-125.41-183.04l.042-1.955-1.692-1.01 1.955.042 1.727-3.741-.76 4 1.692 1.01-1.955-.042z"/></g></svg>