<svg xmlns="http://www.w3.org/2000/svg" viewBox="0 0 32 32"><g fill-rule="evenodd"><rect width="28.2" height="28.2" x="1.898" y="1.898" fill="#5db43e" rx="5.575"/><path d="m30.1 9.936c-9.183-2.768-11.649 16.375-28.2 8.284v6.308c0 3.089 2.486 5.574 5.574 5.574h17.05c3.089 0 5.574-2.486 5.574-5.574z" fill="#72cf60"/></g><g transform="translate(0-.449)"><rect y="17.22" x="6.882" height="7.05" width="18.237" fill="#f9f9f9" rx="3.525"/><g fill="#999"><circle r="2.493" cy="20.794" cx="10.643"/><circle r="2.493" cy="20.794" cx="16.08"/></g><rect y="8.628" x="6.882" height="7.05" width="18.237" fill="#f9f9f9" rx="3.525"/></g>

   xmlns:dc="http://purl.org/dc/elements/1.1/"
   xmlns:cc="http://creativecommons.org/ns#"
   xmlns:rdf="http://www.w3.org/1999/02/22-rdf-syntax-ns#"
   xmlns:svg="http://www.w3.org/2000/svg"
   xmlns="http://www.w3.org/2000/svg"
   xmlns:sodipodi="http://sodipodi.sourceforge.net/DTD/sodipodi-0.dtd"
   xmlns:inkscape="http://www.inkscape.org/namespaces/inkscape"
   height="32"
   width="32"
   version="1"
   id="svg8"
   sodipodi:docname="star-mime-2.svg"
   inkscape:version="0.92.1 r"&gt;
  <g transform="translate(152.47 194.05)" fill="#fff"><path d="m-125.38-193.25l-.077 3.548 3.072 1.831-3.548-.077-3.135 6.791 1.38-7.268-3.072-1.831 3.548.077z"/><path d="m-125.41-183.04l.042-1.955-1.692-1.01 1.955.042 1.727-3.741-.76 4 1.692 1.01-1.955-.042z"/></g></svg>