<svg xmlns="http://www.w3.org/2000/svg" viewBox="0 0 32 32"><defs><linearGradient gradientTransform="matrix(2.54182 0 0 2.58531-153.47-277.37)" id="0" x1="67.894" y1="108.69" x2="67.854" y2="113.11" gradientUnits="userSpaceOnUse"><stop stop-color="#f9f9f9"/><stop offset="1" stop-color="#999"/></linearGradient></defs><rect width="28.2" height="28.2" x="1.898" y="1.898" fill="#8e8e8e" fill-rule="evenodd" rx="5.575"/><g transform="translate(42.87 2.794)"><path d="m-29.991 2.481c-1.564 0-2.823 1.259-2.823 2.823v7.486c0 1.564 1.259 2.823 2.823 2.823h1.523c.129.957.937 1.693 1.931 1.693h4.989c.994 0 1.802-.736 1.931-1.693h1.523c1.564 0 2.823-1.259 2.823-2.823v-7.486c0-1.564-1.259-2.823-2.823-2.823z" fill="#474747"/><rect rx="2.138" ry="2.052" y="3.312" x="-32.02" height="11.47" width="15.966" fill="#266ad7"/><path d="m-35.648 9.106c-1.564 0-2.823 1.259-2.823 2.823v7.486c0 1.564 1.259 2.823 2.823 2.823h1.523c.129.957.937 1.693 1.931 1.693h4.989c.994 0 1.802-.736 1.931-1.693h1.523c1.564 0 2.823-1.259 2.823-2.823v-7.486c0-1.564-1.259-2.823-2.823-2.823z" fill="#474747"/><rect rx="2.138" ry="2.052" y="9.936" x="-37.681" height="11.47" width="15.966" fill="#ffbe47"/></g>

   xmlns:dc="http://purl.org/dc/elements/1.1/"
   xmlns:cc="http://creativecommons.org/ns#"
   xmlns:rdf="http://www.w3.org/1999/02/22-rdf-syntax-ns#"
   xmlns:svg="http://www.w3.org/2000/svg"
   xmlns="http://www.w3.org/2000/svg"
   xmlns:xlink="http://www.w3.org/1999/xlink"
   xmlns:sodipodi="http://sodipodi.sourceforge.net/DTD/sodipodi-0.dtd"
   xmlns:inkscape="http://www.inkscape.org/namespaces/inkscape"
   height="32"
   width="32"
   version="1"
   id="svg8"
   sodipodi:docname="snow-top-2.svg"
   inkscape:version="0.92.1 r"&gt;
  <path d="m24.646 6.111c2.995 2.684 1.381 7.817 3.674 8.291 2.031.613 3.541-1.385 3.66-4.503.35-8.627-3.911-9.427-6.879-9.524-28.342-2.047-1.762 4.92-.455 5.736" fill="url(#0)"/></svg>