<svg xmlns="http://www.w3.org/2000/svg" xmlns:xlink="http://www.w3.org/1999/xlink" viewBox="0 0 32 32"><defs><linearGradient xlink:href="#3" id="4" gradientUnits="userSpaceOnUse" x1="27.558" y1="-133.46" x2="22.09" y2="-134.43"/><linearGradient xlink:href="#3" id="2" gradientUnits="userSpaceOnUse" x1="15.879" y1="-141.91" x2="30.32" y2="-129.74"/><linearGradient id="3"><stop stop-color="#55c03f"/><stop offset="1" stop-color="#198b26"/></linearGradient><linearGradient id="1"><stop stop-color="#f9f9f9"/><stop offset="1" stop-color="#999"/></linearGradient><linearGradient xlink:href="#1" id="0" gradientUnits="userSpaceOnUse" x1="17.658" y1="-133.51" x2="15.02" y2="-125.58"/><radialGradient xlink:href="#1" id="5" cx="-176.59" cy="-120.91" r="3.01" gradientUnits="userSpaceOnUse" gradientTransform="matrix(2.21087.05719-.05496 2.12455 412.97 145.84)"/></defs><g fill-rule="evenodd"><path d="m22 22v7.5c0 .235-.152.404-.248.602h2.775c3.089 0 5.574-2.486 5.574-5.574v-2.775c-.198.096-.366.248-.602.248" fill="#4f4f4f"/><path d="m10 10h-7.5c-.235 0-.404.152-.602.248v14.279c0 3.089 2.486 5.574 5.574 5.574h14.279c.096-.198.248-.366.248-.602v-7.5h-10.5c-.415 0-.791-.166-1.063-.438-.271-.271-.438-.647-.438-1.063" fill="#2297fd"/><path d="m7.473 1.898c-3.089 0-5.574 2.486-5.574 5.574v2.775c.198-.096.366-.248.602-.248h7.5v-7.5c0-.235.152-.404.248-.602z" fill="#4f4f4f"/></g><path d="m13.312 24.814h-4.616l-.728 2.186h-2.967l4.24-12h3.52l4.24 12h-2.967l-.721-2.186m-3.88-2.226h3.136l-1.564-4.775" fill="#fff"/><path d="m10.248 1.898c-.096.198-.248.366-.248.602v18c0 .416.166.791.438 1.063.271.271.647.438 1.063.438h18c.235 0 .404-.152.602-.248v-14.279c0-3.089-2.486-5.574-5.574-5.574z" fill="#f3af3f" fill-rule="evenodd"/><path d="m20.866 10.646q.74 0 1.123-.322.382-.322.382-.948 0-.619-.382-.94-.382-.33-1.123-.33h-1.733v2.54h1.733m.106 5.248q.944 0 1.416-.394.48-.394.48-1.19 0-.78-.472-1.165-.472-.394-1.424-.394h-1.839v3.143h1.839m2.913-4.316q1.01.289 1.562 1.069.553.78.553 1.913 0 1.736-1.188 2.588-1.188.852-3.613.852h-5.199v-12h4.703q2.531 0 3.662.756 1.139.756 1.139 2.419 0 .876-.415 1.495-.415.611-1.204.908" fill="#fff"/><g transform="translate(-.916 143.06)"><path d="m15.583-142.61c-5.577-1.531-5.951 3.24-4.58 5.493 4.381 6.983 6.796 6.577 9.398 7.895 1.712 2.064 3.451 3.4 6.469 4.1 11.69 1.559 3.242-8.417.92-8.649-5.065.012-7.547-6.123-12.206-8.838" fill="url(#0)"/><path d="m15.583-142.61c3.76.276 5.616-.626 8.93-.421 4.319.283 8.307 2.053 7.838 6.574-.347 2.567-.37 2.25.186 4.296.532 1.535-.252 4.232-.487 4.654-2.715 4.963-1.536 4.965-2.656 7.742l-.906-.418-2.508-11.358c-7.177-.909-10.754-10.11-10.398-11.07" fill="url(#2)"/><path d="m22.374-132.67c.362.274 1.553-5.105 1.172-5.653 1.379 2.44 1.919 4.616 2.435 6.783-1.276-.283-2.289-.554-3.607-1.13" fill="url(#4)"/><circle r="3.01" cy="-119.45" cx="29.06" fill="url(#5)"/></g></svg>