<svg xmlns="http://www.w3.org/2000/svg" xmlns:xlink="http://www.w3.org/1999/xlink" viewBox="0 0 32 32"><defs><linearGradient gradientTransform="matrix(-2.54182 0 0 2.58531 185.47-277.37)" id="1" x1="67.894" y1="108.69" x2="67.854" y2="113.11" gradientUnits="userSpaceOnUse"><stop stop-color="#f9f9f9"/><stop offset="1" stop-color="#999"/></linearGradient></defs><rect width="28.2" height="28.2" x="1.898" y="1.898" fill="#8e8e8e" fill-rule="evenodd" rx="5.575"/><path d="m10.978 25.78c-.245-.06-.408-.268-.409-.52 0-.172.068-.297.281-.516.414-.425.966-1.086 1.433-1.712.28-.376.921-1.32.906-1.335-.005-.005-.075.012-.156.036-.454.136-.934.194-1.47.177-.976-.031-1.822-.302-2.638-.844-.313-.208-.438-.311-.749-.617-.658-.647-1.12-1.46-1.346-2.371-.121-.487-.166-1.114-.119-1.629.203-2.191 1.772-3.96 3.947-4.448.193-.043.225-.057.222-.094-.076-.838-.048-1.285.119-1.931.097-.373.168-.574.321-.896.485-1.027 1.295-1.849 2.322-2.356 1.385-.684 3-.693 4.39-.026 1.026.493 1.839 1.297 2.332 2.308.407.833.57 1.681.507 2.635l-.011.171.253.043c1.018.172 1.916.628 2.663 1.352.587.569 1.019 1.254 1.269 2.01.419 1.275.328 2.621-.26 3.807-.548 1.107-1.438 1.945-2.57 2.421-.583.245-1.117.356-1.799.372-.624.015-1.047-.04-1.575-.203-.125-.039-.231-.065-.237-.059-.016.016.433.73.718 1.141.491.709 1.067 1.427 1.585 1.977.149.158.286.323.305.368.086.199.023.473-.138.61-.177.149.257.137-5.132.141-2.692.002-4.926-.004-4.964-.013" fill="#ccc"/><path d="m10.978 25.78c-.245-.06-.408-.268-.409-.52 0-.172.068-.297.281-.516.414-.425.966-1.086 1.433-1.712.28-.376.921-1.32.906-1.335-.005-.005-.075.012-.156.036-.454.136-.934.194-1.47.177-.976-.031-1.822-.302-2.638-.844-.313-.208-.438-.311-.749-.617-.658-.647-1.12-1.46-1.346-2.371-.121-.487-.166-1.114-.119-1.629.203-2.191 1.772-3.96 3.947-4.448.193-.043.225-.057.222-.094-.076-.838-.048-1.285.119-1.931.097-.373.168-.574.321-.896.485-1.027 1.295-1.849 2.322-2.356 1.385-.684 3-.693 4.39-.026 1.026.493 1.839 1.297 2.332 2.308.407.833.57 1.681.507 2.635l-.011.171.253.043c1.018.172 1.916.628 2.663 1.352.587.569 1.019 1.254 1.269 2.01.419 1.275.328 2.621-.26 3.807-.548 1.107-1.438 1.945-2.57 2.421-.583.245-1.117.356-1.799.372-.624.015-1.047-.04-1.575-.203-.125-.039-.231-.065-.237-.059-.016.016.433.73.718 1.141.491.709 1.067 1.427 1.585 1.977.149.158.286.323.305.368.086.199.023.473-.138.61-.177.149.257.137-5.132.141-2.692.002-4.926-.004-4.964-.013m8.499-1.088c-.012-.016-.089-.111-.172-.213-.505-.621-1.238-1.679-1.636-2.361-.435-.746-.93-1.733-.977-1.95-.073-.331.184-.64.533-.641.159-.001.28.054.431.194.147.136.508.4.702.513.348.202.803.373 1.216.457.323.066 1.154.059 1.48-.012.549-.119 1.08-.347 1.497-.641.318-.225.779-.694.985-1 .652-.978.848-2.095.564-3.216-.351-1.386-1.464-2.486-2.871-2.839-.275-.069-.495-.098-.834-.109-.338-.011-.429-.036-.554-.155-.168-.159-.195-.319-.118-.685.269-1.276-.112-2.595-1.021-3.533-.533-.551-1.112-.892-1.834-1.083-.354-.094-.613-.126-1.01-.126-.405 0-.68.036-1.05.138-1.604.44-2.76 1.856-2.88 3.53-.03.415.008.812.119 1.249.067.265.035.432-.115.594-.106.114-.213.153-.492.177-1.038.091-1.884.494-2.596 1.238-.665.694-1.031 1.56-1.067 2.53-.026.704.1 1.284.418 1.919.528 1.053 1.493 1.81 2.654 2.078.472.109 1.144.121 1.583.027.62-.132 1.182-.404 1.72-.832.216-.172.288-.204.455-.204.41 0 .65.386.487.781-.029.07-.161.328-.295.575-.61 1.127-1.293 2.156-2.115 3.187-.187.235-.34.431-.34.436 0 .005 1.61.009 3.577.009 2.858 0 3.572-.006 3.555-.029" fill="#333"/>

   xmlns:dc="http://purl.org/dc/elements/1.1/"
   xmlns:cc="http://creativecommons.org/ns#"
   xmlns:rdf="http://www.w3.org/1999/02/22-rdf-syntax-ns#"
   xmlns:svg="http://www.w3.org/2000/svg"
   xmlns="http://www.w3.org/2000/svg"
   xmlns:xlink="http://www.w3.org/1999/xlink"
   xmlns:sodipodi="http://sodipodi.sourceforge.net/DTD/sodipodi-0.dtd"
   xmlns:inkscape="http://www.inkscape.org/namespaces/inkscape"
   height="32"
   width="32"
   version="1"
   id="svg8"
   sodipodi:docname="snow-top-3.svg"
   inkscape:version="0.92.1 r"&gt;
  <path fill="#00000f" fill-opacity="0" d="m0 0h32v32h-32z" id="0"/><path d="m7.354 6.111c-2.995 2.684-1.381 7.817-3.674 8.291-2.031.613-3.541-1.385-3.66-4.503-.35-8.627 3.911-9.427 6.879-9.524 28.342-2.047 1.762 4.92.455 5.736" fill="url(#1)"/><use xlink:href="#0"/></svg>