<svg xmlns="http://www.w3.org/2000/svg" viewBox="0 0 32 32"><rect width="28.2" height="28.2" x="1.898" y="1.898" fill="#ec6295" fill-rule="evenodd" rx="5.575"/><g transform="translate(54.706 2.238)" fill="#f5f5f5"><path d="m-33.706 3.762v15h3v-15m-3 17v3h3v-3z"/><path d="m-38.20629 3.762238a8.5 7.5 0 0 0 -8.5 7.5 8.5 7.5 0 0 0 8.5 7.5 8.5 7.5 0 0 0 2.5 -.334v-2.268a5.5 5.5 0 0 1 -2.5 .602 5.5 5.5 0 0 1 -5.5 -5.5 5.5 5.5 0 0 1 5.5 -5.5 5.5 5.5 0 0 1 2.5 .6074v-2.268a8.5 7.5 0 0 0 -2.5 -.3398"/></g>

   xmlns:dc="http://purl.org/dc/elements/1.1/"
   xmlns:cc="http://creativecommons.org/ns#"
   xmlns:rdf="http://www.w3.org/1999/02/22-rdf-syntax-ns#"
   xmlns:svg="http://www.w3.org/2000/svg"
   xmlns="http://www.w3.org/2000/svg"
   xmlns:sodipodi="http://sodipodi.sourceforge.net/DTD/sodipodi-0.dtd"
   xmlns:inkscape="http://www.inkscape.org/namespaces/inkscape"
   height="32"
   width="32"
   version="1"
   id="svg8"
   sodipodi:docname="star-mime-2.svg"
   inkscape:version="0.92.1 r"&gt;
  <g transform="translate(152.47 194.05)" fill="#fff"><path d="m-125.38-193.25l-.077 3.548 3.072 1.831-3.548-.077-3.135 6.791 1.38-7.268-3.072-1.831 3.548.077z"/><path d="m-125.41-183.04l.042-1.955-1.692-1.01 1.955.042 1.727-3.741-.76 4 1.692 1.01-1.955-.042z"/></g></svg>