<svg xmlns="http://www.w3.org/2000/svg" xmlns:xlink="http://www.w3.org/1999/xlink" viewBox="0 0 32 32"><defs><linearGradient gradientTransform="matrix(-2.54182 0 0 2.58531 185.47-277.37)" id="1" x1="67.894" y1="108.69" x2="67.854" y2="113.11" gradientUnits="userSpaceOnUse"><stop stop-color="#f9f9f9"/><stop offset="1" stop-color="#999"/></linearGradient></defs><g fill-rule="evenodd"><path d="m7.473 1.898c-3.089 0-5.574 2.486-5.574 5.574v17.05c0 3.089 2.486 5.574 5.574 5.574h16.734l-9.508-9.504 2.537-.07.115-2.744 2.629.057.092-2.844 9.936 9.992c.014-.16.094-.297.094-.461v-17.05c0-3.089-2.486-5.574-5.574-5.574h-17.05" fill="#2d427b"/><circle cx="16" cy="16" r="8.742" fill="#d7e2ec"/><path d="m30.01 24.988l-9.936-9.992-.092 2.844-2.629-.057-.115 2.744-2.537.07 9.508 9.504h.32c2.925 0 5.236-2.254 5.48-5.113" fill="#fda002"/><path d="m19.04 24.936l-4.338-4.338 4.336 4.338a9.500758 9.500758 0 0 0 .001953 0" fill="#fff"/><path d="m20.07 14.998l-.094 2.842-2.629-.057-.115 2.742-2.535.072 4.338 4.338a9.500758 9.500758 0 0 0 5.763672 -5.179688l-4.729-4.758" fill="#fda002"/><path d="m12.07 12.539l2.629 8.06h.002l2.535-.072.115-2.742 2.629.057.094-2.842-.002-.002-8-2.457" fill="#fff"/></g><path d="m12.07 12.539l.995 3.02 2-2.069z"/>

   xmlns:dc="http://purl.org/dc/elements/1.1/"
   xmlns:cc="http://creativecommons.org/ns#"
   xmlns:rdf="http://www.w3.org/1999/02/22-rdf-syntax-ns#"
   xmlns:svg="http://www.w3.org/2000/svg"
   xmlns="http://www.w3.org/2000/svg"
   xmlns:xlink="http://www.w3.org/1999/xlink"
   xmlns:sodipodi="http://sodipodi.sourceforge.net/DTD/sodipodi-0.dtd"
   xmlns:inkscape="http://www.inkscape.org/namespaces/inkscape"
   height="32"
   width="32"
   version="1"
   id="svg8"
   sodipodi:docname="snow-top-3.svg"
   inkscape:version="0.92.1 r"&gt;
  <path fill="#00000f" fill-opacity="0" d="m0 0h32v32h-32z" id="0"/><path d="m7.354 6.111c-2.995 2.684-1.381 7.817-3.674 8.291-2.031.613-3.541-1.385-3.66-4.503-.35-8.627 3.911-9.427 6.879-9.524 28.342-2.047 1.762 4.92.455 5.736" fill="url(#1)"/><use xlink:href="#0"/></svg>