<svg xmlns="http://www.w3.org/2000/svg" viewBox="0 0 32 32"><rect width="28.2" height="28.2" x="1.898" y="1.898" fill="#5b5b5b" fill-rule="evenodd" rx="5.575"/><g transform="translate(41.06 6.49)"><path d="m-26.551 2.068h2.977v6.698h-2.977z" fill="#b7b7b7"/><path d="m-27.721 8.02h5.316c.589 0 1.063.443 1.063.992v9.923c0 .55-.474.993-1.064.993h-5.316c-.589 0-1.063-.443-1.063-.992v-9.924c0-.549.474-.992 1.064-.992" fill="#fff"/><path d="m-25.06-.909l1.489.744-.569 2.233h-1.84l-.569-2.233z" fill="#b7b7b7"/><g fill="#5b5b5b"><path d="m-26.552 6.161h2.977v.372h-2.977z"/><path d="m-26.552 4.673h2.977v.372h-2.977z"/></g></g>

   xmlns:dc="http://purl.org/dc/elements/1.1/"
   xmlns:cc="http://creativecommons.org/ns#"
   xmlns:rdf="http://www.w3.org/1999/02/22-rdf-syntax-ns#"
   xmlns:svg="http://www.w3.org/2000/svg"
   xmlns="http://www.w3.org/2000/svg"
   xmlns:sodipodi="http://sodipodi.sourceforge.net/DTD/sodipodi-0.dtd"
   xmlns:inkscape="http://www.inkscape.org/namespaces/inkscape"
   height="32"
   width="32"
   version="1"
   id="svg8"
   sodipodi:docname="star-mime-2.svg"
   inkscape:version="0.92.1 r"&gt;
  <g transform="translate(152.47 194.05)" fill="#fff"><path d="m-125.38-193.25l-.077 3.548 3.072 1.831-3.548-.077-3.135 6.791 1.38-7.268-3.072-1.831 3.548.077z"/><path d="m-125.41-183.04l.042-1.955-1.692-1.01 1.955.042 1.727-3.741-.76 4 1.692 1.01-1.955-.042z"/></g></svg>