<svg xmlns="http://www.w3.org/2000/svg" viewBox="0 0 32 32"><g fill-rule="evenodd"><path d="m19.14 1.898h-11.666c-3.089 0-5.574 2.486-5.574 5.574v17.05c0 3.089 2.486 5.574 5.574 5.574h17.05c3.089 0 5.574-2.486 5.574-5.574v-17.05c0-3.089-2.486-5.574-5.574-5.574h-3.506c-.45.481-.963.969-1.324 1.439-.643.837-1.154 1.659-1.568 2.475-.829 1.63-1.27 3.23-1.602 4.854l-1.371-.279c.345-1.69.839-3.428 1.742-5.203.452-.888 1.01-1.783 1.695-2.689.15-.197.382-.398.545-.596" fill="#83a7e6"/><path d="m19.14 1.898c-.163.198-.395.399-.545.596-.69.906-1.244 1.802-1.695 2.689-.904 1.775-1.397 3.513-1.742 5.203l1.371.279c.331-1.623.773-3.223 1.602-4.854.414-.815.926-1.637 1.568-2.475.361-.47.874-.959 1.324-1.439h-1.883" fill="#003870"/><path d="m26.305 29.744l-1.664-2.09c-1.766-2.217-1.837-2.294-2.063-2.256-.785.134-1.539.136-2.027.004-.609-.165-1.294-.593-1.701-1.061-.327-.376-.72-1.132-.795-1.529l-.047-.254h-2.045-2.043l-.172.525c-.264.808-.717 1.432-1.322 1.844-.605.412-1.36.612-2.227.574l-.721-.031-1.973 2.281c-1.038 1.2-1.48 1.72-1.813 1.992.565.192 1.147.357 1.779.357h17.05c.631 0 1.213-.166 1.777-.357" fill="#83a7e6"/><path d="m30.1 22.2c-.015-.062-.029-.125-.043-.182-.107-.45-.565-2.394-1.018-4.32-.654-2.782-.883-3.632-1.113-4.125-.274-.586-.625-1.118-1.053-1.596-.427-.478-.932-.901-1.506-1.266-1.149-.729-2.582-1.226-4.275-1.475-.999-.147-9.403-.145-10.23.002-1.305.232-2.322.513-3.182.904-.859.391-1.562.892-2.234 1.561-.677.673-.831.878-1.146 1.518-.384.778-.418.901-1.799 6.539-.189.773-.391 1.598-.604 2.467v2.305c0 2.457 1.597 4.47 3.795 5.217.333-.272.775-.792 1.813-1.992l1.973-2.281.721.031c.867.038 1.622-.162 2.227-.574.605-.412 1.058-1.035 1.322-1.844l.172-.525h2.043 2.045l.047.254c.075.398.468 1.153.795 1.529.407.468 1.092.896 1.701 1.061.488.132 1.242.13 2.027-.004.225-.039.296.039 2.063 2.256l1.664 2.09c2.199-.746 3.797-2.759 3.797-5.217v-2.332m-7.547-10.04c.383.258.508.681.336 1.131-.113.295-.33.497-.588.586-.258.088-.553.062-.822-.102-.287-.175-.45-.446-.477-.73-.027-.284.081-.583.33-.811.349-.32.815-.348 1.221-.074m-13.553.289h1.012 1.012v.971.971l.992.021.992.021.021.992.023.994h-1.016-1.014v1.012 1.012h-1.012-1.012v-1.012-1.012h-.973-.975v-1.014-1.012h.975.973v-.973-.973m5.994 6.928h1.012 1.012v.545.545h-1.012-1.012v-.545-.545m-4.221 1.061c.453.077.871.361 1.096.826.155.321.188.645.129.941-.059.296-.21.565-.42.773-.209.209-.477.357-.773.414-.296.057-.619.023-.938-.135-.463-.229-.745-.648-.82-1.1-.075-.452.056-.939.42-1.303.365-.365.854-.495 1.307-.418" fill="#0061ac"/><g fill="#e6e6e6"><path d="m21.13 20.449c-.416.099-.785.376-.992.805-.187.387-.201.797-.07 1.158.13.361.406.672.801.859.452.215.947.165 1.346-.07.399-.236.701-.657.771-1.18.052-.388-.251-1.083-.57-1.307-.405-.284-.869-.364-1.285-.266"/><path d="m21.13 20.449c.416-.099.881-.018 1.285.266.319.224.622.919.57 1.307-.07.523-.372.944-.771 1.18-.399.236-.894.285-1.346.07-.395-.188-.67-.498-.801-.859-.13-.361-.117-.771.07-1.158.208-.429.576-.706.992-.805"/><path d="m10.775 20.428c-.453-.077-.941.053-1.307.418-.364.364-.495.851-.42 1.303.075.452.357.87.82 1.1.319.158.641.192.938.135.296-.057.564-.206.773-.414.209-.209.361-.477.42-.773.059-.296.026-.621-.129-.941-.225-.465-.643-.749-1.096-.826"/><path d="m14.996 19.367v.545.545h1.012 1.012v-.545-.545h-1.012-1.012"/><path d="m21.824 15.967c-.41.055-.687.336-.783.674-.096.338-.013.731.303 1.01.272.239.623.3.928.215.305-.085.566-.315.66-.656.101-.364.013-.7-.193-.932-.207-.232-.534-.36-.914-.309"/><path d="m21.824 15.967c.38-.051.707.077.914.309.207.232.294.568.193.932-.094.341-.355.571-.66.656-.305.085-.655.024-.928-.215-.315-.277-.399-.67-.303-1.01.096-.338.373-.619.783-.674"/><path d="m20.424 14.06c-.409-.209-.778-.14-1.123.205-.223.223-.258.311-.258.645 0 .446.193.752.578.92.325.142.409.136.791-.049.374-.181.562-.516.564-.854.002-.337-.181-.678-.553-.867"/><path d="m20.424 14.06c.371.189.555.53.553.867-.002.337-.191.673-.564.854-.382.185-.466.19-.791.049-.385-.168-.578-.474-.578-.92 0-.334.034-.421.258-.645.345-.345.714-.414 1.123-.205"/><path d="m24.361 14.02c-.389-.162-.769-.076-1.09.244-.223.223-.258.311-.258.645 0 .446.191.752.576.92.311.136.46.135.787-.002.383-.16.571-.531.568-.902-.003-.371-.199-.743-.584-.904"/><path d="m24.361 14.02c.385.161.581.533.584.904.003.371-.186.742-.568.902-.327.137-.476.137-.787.002-.385-.168-.576-.474-.576-.92 0-.334.034-.421.258-.645.321-.321.701-.407 1.09-.244"/><path d="m9 12.439v.973.973h-.973-.975v1.012 1.014h.975.973v1.012 1.012h1.012 1.012v-1.012-1.012h1.014 1.016l-.023-.994-.021-.992-.992-.021-.992-.021v-.971-.971h-1.012-1.012"/><path d="m22.555 12.15c-.406-.273-.872-.246-1.221.074-.249.228-.357.526-.33.811.027.284.19.555.477.73.269.164.565.19.822.102.258-.088.475-.291.588-.586.172-.45.047-.873-.336-1.131"/></g></g>

   xmlns:dc="http://purl.org/dc/elements/1.1/"
   xmlns:cc="http://creativecommons.org/ns#"
   xmlns:rdf="http://www.w3.org/1999/02/22-rdf-syntax-ns#"
   xmlns:svg="http://www.w3.org/2000/svg"
   xmlns="http://www.w3.org/2000/svg"
   xmlns:sodipodi="http://sodipodi.sourceforge.net/DTD/sodipodi-0.dtd"
   xmlns:inkscape="http://www.inkscape.org/namespaces/inkscape"
   height="32"
   width="32"
   version="1"
   id="svg8"
   sodipodi:docname="star-mime-2.svg"
   inkscape:version="0.92.1 r"&gt;
  <g transform="translate(152.47 194.05)" fill="#fff"><path d="m-125.38-193.25l-.077 3.548 3.072 1.831-3.548-.077-3.135 6.791 1.38-7.268-3.072-1.831 3.548.077z"/><path d="m-125.41-183.04l.042-1.955-1.692-1.01 1.955.042 1.727-3.741-.76 4 1.692 1.01-1.955-.042z"/></g></svg>