<svg xmlns="http://www.w3.org/2000/svg" viewBox="0 0 32 32"><defs><linearGradient gradientTransform="matrix(2.62891 0 0 2.71269-160.16-291.42)" id="0" x1="67.894" y1="108.69" x2="67.854" y2="113.11" gradientUnits="userSpaceOnUse"><stop stop-color="#f9f9f9"/><stop offset="1" stop-color="#999"/></linearGradient></defs><rect width="28.2" height="28.2" x="1.898" y="1.898" fill="#e75177" fill-rule="evenodd" rx="5.575"/><g transform="translate(40.28-3.916)"><path d="m-27.22 10.378c-.22 0-.399.19-.399.424 0 .192.119.353.284.405.247.896.829 1.74 1.632 2.353a1.669243 2.150859 0 0 0 -.246412 1.119506 1.669243 2.150859 0 0 0 .556414 1.600248v10.767c0 .934.444 1.614 1.113 1.614.669 0 1.111-.707 1.113-1.613v-10.768a1.669243 2.150859 0 0 0 .556415 -1.599453 1.669243 2.150859 0 0 0 -.245617 -1.119585c.803-.613 1.384-1.457 1.631-2.352.165-.053.284-.214.284-.405 0-.234-.179-.424-.399-.424-.221 0-.4.19-.4.424 0 .129.055.244.14.321-.225.791-.746 1.538-1.461 2.09a1.669243 2.150859 0 0 0 -1.219342 -.684787 1.669243 2.150859 0 0 0 -1.218547 .684707c-.715-.552-1.236-1.299-1.461-2.09.085-.078.14-.192.14-.321 0-.234-.18-.424-.4-.424" fill="#4f4f4f"/><path d="m8.301 7c-3.479 0-6.301 3.336-6.301 7.451.003 3.194 1.725 6.03 4.283 7.05-.056.354-.084.714-.084 1.076 0 2.993 1.882 5.42 4.201 5.42 2.32 0 4.2-2.427 4.2-5.42v-8.129c0-4.115-2.82-7.451-6.299-7.451m15.398 0c-3.479 0-6.299 3.336-6.299 7.451v8.129c0 2.993 1.88 5.42 4.2 5.42 2.319 0 4.201-2.427 4.201-5.42 0-.362-.029-.722-.084-1.076 2.558-1.022 4.28-3.859 4.283-7.05 0-4.115-2.821-7.451-6.301-7.451z" transform="matrix(.79489 0 0 .79488-36.998 7.198)" fill="#fff" stroke-width="1.258"/><g fill="#ff85aa" stroke-width="1"><ellipse rx="2.64" transform="matrix(.96859-.24866.26933.96305 0 0)" ry="4.071" cy="11" cx="-34.28"/><ellipse rx="2.64" ry="4.071" transform="matrix(-.96859-.24866-.26933.96305 0 0)" cy="23.08" cx="12.494"/><path d="m-27.551848 25.486147a2.02052 1.547164 73.66299 0 1 -.962262 2.339755 2.02052 1.547164 73.66299 0 1 -2.03191 -1.556748 2.02052 1.547164 73.66299 0 1 .962262 -2.339755 2.02052 1.547164 73.66299 0 1 2.03191 1.556748"/><path d="m-21.00749 25.486147a1.547164 2.02052 16.33701 0 0 .962262 2.339755 1.547164 2.02052 16.33701 0 0 2.03191 -1.556748 1.547164 2.02052 16.33701 0 0 -.962262 -2.339755 1.547164 2.02052 16.33701 0 0 -2.03191 1.556748"/><path d="m-30.807912 15.14835a4.070879 2.638869 73.48653 0 0 -.5294 .05279 4.070879 2.638869 73.48653 0 0 -1.460899 4.576757 4.070879 2.638869 73.48653 0 0 3.653022 3.263346 4.070879 2.638869 73.48653 0 0 1.460898 -4.576757 4.070879 2.638869 73.48653 0 0 -3.123621 -3.31613m13.05649-.000006a2.638869 4.070879 16.513468 0 0 -3.123621 3.316131 2.638869 4.070879 16.513468 0 0 1.460898 4.576756 2.638869 4.070879 16.513468 0 0 3.653022 -3.263345 2.638869 4.070879 16.513468 0 0 -1.460899 -4.576757 2.638869 4.070879 16.513468 0 0 -.5294 -.05279m-11.524173 8.742107a2.02052 1.547164 73.66299 0 0 -.307395 .03881 2.02052 1.547164 73.66299 0 0 -.962547 2.339611 2.02052 1.547164 73.66299 0 0 2.030664 1.557152 2.02052 1.547164 73.66299 0 0 .962547 -2.339611 2.02052 1.547164 73.66299 0 0 -1.723269 -1.595964m9.991859.000002a1.547164 2.02052 16.33701 0 0 -1.723269 1.595965 1.547164 2.02052 16.33701 0 0 .962547 2.339611 1.547164 2.02052 16.33701 0 0 2.030663 -1.557153 1.547164 2.02052 16.33701 0 0 -.962546 -2.339611 1.547164 2.02052 16.33701 0 0 -.307395 -.03881"/></g></g>

   xmlns:dc="http://purl.org/dc/elements/1.1/"
   xmlns:cc="http://creativecommons.org/ns#"
   xmlns:rdf="http://www.w3.org/1999/02/22-rdf-syntax-ns#"
   xmlns:svg="http://www.w3.org/2000/svg"
   xmlns="http://www.w3.org/2000/svg"
   xmlns:xlink="http://www.w3.org/1999/xlink"
   xmlns:sodipodi="http://sodipodi.sourceforge.net/DTD/sodipodi-0.dtd"
   xmlns:inkscape="http://www.inkscape.org/namespaces/inkscape"
   version="1"
   width="32"
   height="32"
   id="svg12"
   sodipodi:docname="snow-top-1.svg"
   inkscape:version="0.92.1 r"&gt;
  <path d="m7.288.009c-8.276-.356-9.36 9.992-4.02 9.973.679.003 1.604-.207 2.97-1.543 7.256-10.531 14.706 3.573 17.53.919 1.71-1.912 3.496-.418 4.448.115 2.1.643 3.662.041 3.785-3.231.188-3.321-1.889-6.344-5.923-6.223-5.914.14-12.989-.047-18.787-.01" fill="url(#0)"/><path fill="#f00" fill-opacity="0" d="m0 0h32v32h-32z"/></svg>