<svg xmlns="http://www.w3.org/2000/svg" viewBox="0 0 32 32"><defs><linearGradient gradientTransform="matrix(2.59244 0 0 2.58531-157.93-277.73)" id="0" x1="67.894" y1="108.69" x2="67.854" y2="113.11" gradientUnits="userSpaceOnUse"><stop stop-color="#f9f9f9"/><stop offset="1" stop-color="#999"/></linearGradient></defs><g transform="translate(15.441 3.804)"><path d="m-7.968-1.906c-3.089 0-5.574 2.486-5.574 5.574v14.04c.522.319 1.193.633 2.041.898.903.283 1.968.516 3.148.656 1.18.141 2.477.188 3.84.102 1.363-.087 2.792-.308 4.242-.707 1.45-.399 2.921-.974 4.363-1.77 1.442-.795 2.856-1.811 4.195-3.088 1.339-1.277 2.603-2.816 3.744-4.66.986-1.594 1.828-3.531 2.6-5.607-.079-3.02-2.506-5.434-5.545-5.434z" fill="#ececec" fill-rule="evenodd"/><g transform="matrix(.88592 0 0 1.07566-12.973 5.327)" stroke-width="1.024" fill="#c6c6c6"><rect width="13.08" height="8.881" x="3.864" rx=".537"/><g transform="translate(18.457-9.568)" stroke-width="1.024" color-rendering="auto" shape-rendering="auto" color-interpolation-filters="linearRGB" image-rendering="auto" color-interpolation="sRGB" color="#000"><path d="m0 9.568v.5h9.18v-.5" mix-blend-mode="normal" isolation="auto" white-space="normal" solid-opacity="1" solid-color="#000000" vector-effect="none" shape-padding="0"/><path d="m0 11.621v.5h9.18v-.5z" mix-blend-mode="normal" isolation="auto" white-space="normal" solid-opacity="1" solid-color="#000000" vector-effect="none" shape-padding="0"/><path d="m0 13.676v.5h9.18v-.5z" mix-blend-mode="normal" isolation="auto" white-space="normal" solid-opacity="1" solid-color="#000000" vector-effect="none" shape-padding="0"/><path d="m0 17.783v.5h9.18v-.5z" mix-blend-mode="normal" isolation="auto" white-space="normal" solid-opacity="1" solid-color="#000000" vector-effect="none" shape-padding="0"/><path d="m0 15.73v.5h9.18v-.5z" mix-blend-mode="normal" isolation="auto" white-space="normal" solid-opacity="1" solid-color="#000000" vector-effect="none" shape-padding="0"/></g></g><g fill-rule="evenodd"><path d="m-7.183 26.297c-.216-.76-.363-1.537-.75-2.256-.617-1.147-1.435-2.246-2.408-3.309-.935-1.021-2.025-2-3.201-2.967v2.957c0 3.089 2.486 5.574 5.574 5.574z" fill="#ececec"/><path d="m14.632 3.528c-.772 2.076-1.613 4.01-2.6 5.607-1.141 1.844-2.405 3.383-3.744 4.66-1.339 1.277-2.753 2.292-4.195 3.088-1.442.795-2.913 1.371-4.363 1.77-1.45.399-2.879.62-4.242.707-1.363.087-2.659.039-3.84-.102-1.18-.141-2.246-.373-3.148-.656-.848-.266-1.519-.58-2.041-.898v.063c1.176.963 2.266 1.946 3.201 2.967.973 1.062 1.791 2.162 2.408 3.309.387.719.534 1.496.75 2.256h16.27c3.089 0 5.574-2.486 5.574-5.574v-17.05c0-.05-.028-.091-.029-.141" fill="#bd0c1e"/></g><g transform="matrix(.99387 0 0 1.0062-15.441-3.804)" aria-label="PDF" stroke="none" stroke-width=".4" fill="#fff" color-rendering="auto" shape-rendering="auto" color-interpolation-filters="linearRGB" image-rendering="auto" color-interpolation="sRGB" color="#000"><path d="m15.369 23.12v.199 5.178h1.074v-2h.646c.587 0 1.062-.134 1.395-.428.335-.294.5-.734.5-1.264 0-.526-.165-.963-.5-1.256-.333-.296-.807-.43-1.395-.43zm1.074.953h.646c.279 0 .463.067.59.188.127.12.193.285.193.545 0 .262-.067.429-.193.549-.127.12-.311.189-.59.189h-.646z" mix-blend-mode="normal" isolation="auto" white-space="normal" solid-opacity="1" solid-color="#000000" vector-effect="none" shape-padding="0"/><path d="m19.49 23.12v.199 5.178h1.584c.988 0 1.746-.206 2.252-.654.506-.449.748-1.146.748-2.039 0-.888-.241-1.582-.744-2.029-.504-.449-1.264-.654-2.256-.654zm1.074.953h.613c.657 0 1.099.149 1.365.41h.002c.268.259.42.686.42 1.32 0 .639-.151 1.069-.42 1.33h-.002c-.266.261-.709.41-1.365.41h-.613z" mix-blend-mode="normal" isolation="auto" white-space="normal" solid-opacity="1" solid-color="#000000" vector-effect="none" shape-padding="0"/><path d="m24.744 23.12v.199 5.178h1.074v-2.377h1.973v-.967h-1.973v-1.066h2.186v-.967z" mix-blend-mode="normal" isolation="auto" white-space="normal" solid-opacity="1" solid-color="#000000" vector-effect="none" shape-padding="0"/></g></g>

   xmlns:dc="http://purl.org/dc/elements/1.1/"
   xmlns:cc="http://creativecommons.org/ns#"
   xmlns:rdf="http://www.w3.org/1999/02/22-rdf-syntax-ns#"
   xmlns:svg="http://www.w3.org/2000/svg"
   xmlns="http://www.w3.org/2000/svg"
   xmlns:xlink="http://www.w3.org/1999/xlink"
   xmlns:sodipodi="http://sodipodi.sourceforge.net/DTD/sodipodi-0.dtd"
   xmlns:inkscape="http://www.inkscape.org/namespaces/inkscape"
   version="1"
   width="32"
   height="32"
   id="svg12"
   sodipodi:docname="snow-top-4.svg"
   inkscape:version="0.92.1 r"&gt;
  <path d="m7.196.009c-8.161-.339-9.231 9.523-3.968 9.505.669.003 1.581-.197 2.929-1.471 3.773-4.147 9.01 4.479 14.696-1.042.61-.911 1.804-1.135 2.455-.627 1.045.677 2.87 2.991 3.88 3 2.359.513 4.095-.198 4.816-3.188.185-3.165-2.303-6.286-6.281-6.17-5.832.133-12.809-.045-18.527-.01" fill="url(#0)" stroke="none"/></svg>