<svg xmlns="http://www.w3.org/2000/svg" viewBox="0 0 32 32"><defs><linearGradient gradientTransform="matrix(2.59244 0 0 2.58531-157.93-277.73)" id="0" x1="67.894" y1="108.69" x2="67.854" y2="113.11" gradientUnits="userSpaceOnUse"><stop stop-color="#f9f9f9"/><stop offset="1" stop-color="#999"/></linearGradient></defs><rect width="28.2" height="28.2" x="1.898" y="1.898" fill="#28287b" fill-rule="evenodd" rx="5.575"/><path d="m16.611 6.5c-.359 0-.728.015-1.108.047-3.359.282-5.769 1.98-7.715 3.992-1.373 1.421-2.393 3.413-2.68 5.409-.416 2.896.366 5.481 2.342 7.345 1.676 1.58 4.327 2.138 7.109 2.2 1.951.043 3.783-.117 5.424-.495.82-.189 1.623-.431 2.14-.74.517-.31.867-.709.878-1.198v-.002-.002c0-.796-.46-1.45-1.129-1.982-1.935-1.366-3.52-2.153-5.667-3.237-.592-.28-1.126-.647-1.205-1.233-.101-.749 1.041-.976 1.598-1.037.776-.07 1.43-.039 2.219.04.79.079 1.673.786 1.943.892l.021.008.022.003c.054.007.134-.023.169-.062.035-.039.042-.07.047-.091.009-.042.006-.062.005-.083-.003-.043-.011-.083-.023-.134-.023-.102-.061-.24-.112-.405-.179-1.026-.786-2.5-1.21-3.381-.101-.18-.201-.337-.304-.462-.103-.124-.205-.225-.355-.264-.197-.053-.481-.067-.862-.062-.382.005-.921.033-1.447.085-1.052.103-2.185.299-3.39.588-1.205.289-2.341.667-3.135 1.154-.397.244-.812.515-.999.833-.188.319-.234 1.094-.089 1.465.307.807 1.186 1.413 2.146 1.933 2.01 1.092 3.779 1.788 5.674 2.958.698.379 1.165.943 1.06 1.513-.11.6-.832.901-1.455 1.107-1.121.371-2.252.332-3.246.298-2.304-.099-4.46-.583-6.04-2.375-.983-1.113-1.117-2.257-1.224-3.896-.105-1.605.522-3.396 1.421-4.729 1.999-2.962 4.603-4.678 8.05-5.135 4.071-.52 6.853.94 8.633 2.513.89.787 1.527 1.738 1.938 2.347.206.305.355.557.452.729.049.086.084.152.108.195.012.022.02.037.029.053.005.008-.003.007.032.042.009.009.064.043.064.044 0 0 .233-.078.233-.078 0 0 .027-.088.026-.103-.001-.016-.002-.023-.003-.029-.01-.052-.015-.05-.024-.071-.009-.021-.02-.047-.035-.077-.029-.062-.071-.144-.127-.246-.111-.204-.275-.482-.497-.81-.443-.655-1.114-1.641-2.039-2.466-1.618-1.444-4.02-2.809-7.308-2.901-.117-.003-.236-.005-.356-.005" fill="#9868ff"/>

   xmlns:dc="http://purl.org/dc/elements/1.1/"
   xmlns:cc="http://creativecommons.org/ns#"
   xmlns:rdf="http://www.w3.org/1999/02/22-rdf-syntax-ns#"
   xmlns:svg="http://www.w3.org/2000/svg"
   xmlns="http://www.w3.org/2000/svg"
   xmlns:xlink="http://www.w3.org/1999/xlink"
   xmlns:sodipodi="http://sodipodi.sourceforge.net/DTD/sodipodi-0.dtd"
   xmlns:inkscape="http://www.inkscape.org/namespaces/inkscape"
   version="1"
   width="32"
   height="32"
   id="svg12"
   sodipodi:docname="snow-top-4.svg"
   inkscape:version="0.92.1 r"&gt;
  <path d="m7.196.009c-8.161-.339-9.231 9.523-3.968 9.505.669.003 1.581-.197 2.929-1.471 3.773-4.147 9.01 4.479 14.696-1.042.61-.911 1.804-1.135 2.455-.627 1.045.677 2.87 2.991 3.88 3 2.359.513 4.095-.198 4.816-3.188.185-3.165-2.303-6.286-6.281-6.17-5.832.133-12.809-.045-18.527-.01" fill="url(#0)"/></svg>