<svg xmlns="http://www.w3.org/2000/svg" xmlns:xlink="http://www.w3.org/1999/xlink" viewBox="0 0 32 32"><defs><linearGradient id="4" x1="-178.12" y1="-134.12" x2="-183.59" y2="-135.1" gradientUnits="userSpaceOnUse"><stop stop-color="#7c0000"/><stop offset="1" stop-color="#7c0000" stop-opacity="0"/></linearGradient><linearGradient id="3" x1="-189.8" y1="-142.57" x2="-175.35" y2="-130.4" gradientUnits="userSpaceOnUse"><stop stop-color="#ff383f"/><stop offset="1" stop-color="#a02d26"/></linearGradient><linearGradient id="2"><stop stop-color="#f9f9f9"/><stop offset="1" stop-color="#999"/></linearGradient><linearGradient xlink:href="#2" id="1" x1="-188.02" y1="-134.18" x2="-190.66" y2="-126.24" gradientUnits="userSpaceOnUse"/><radialGradient xlink:href="#2" id="5" cx="-176.59" cy="-120.91" r="3.01" gradientUnits="userSpaceOnUse" gradientTransform="matrix(2.21087.05719-.05496 2.12455 207.3 145.17)"/></defs><rect width="28.2" height="28.2" x="1.898" y="1.898" fill="#7ec242" fill-rule="evenodd" rx="5.575"/><g transform="matrix(.87732 0 0 .87732 1.523 1.524)" fill="#fff"><path d="m22 14h-.997l-.003-2h1v-3h2.997v3h2l.005 2h-2l-.005 4.885c0 .513.102 1.115 1.501 1.115h.501l.003 2.997c0 0-3.201.008-3.201 0-1.265.003-1.801-1.197-1.8-1.815 0-1.448 0-7.182 0-7.182"/><path d="m8.889 6c-1.444 0-2.889 1.401-2.889 2.801v11.398c0 1.4 1.444 2.799 2.889 2.799h2.953c.047.008.112-.024.158.057v2.525c0 .699.874 1.416 1.445 1.416-.001.008 3.557 0 3.557 0l-.004-2.996h-.666c-1.443 0-1.324-.457-1.324-.971 0-.028-.01-.001-.016-.027.005-.001.011-.003.016-.004h1.104c1.444 0 2.889-1.399 2.889-2.799v-11.398c0-1.4-1.444-2.801-2.889-2.801h-3.584zm2.211 3h2.801c1.163 0 2.1.92 2.1 2.063v6.875c0 1.143-.936 2.063-2.1 2.063h-2.801c-1.163 0-2.1-.92-2.1-2.063v-6.875c0-1.143.936-2.063 2.1-2.063"/></g><path d="m32 .157l-.27 2.221-.122-2.378" fill="#f9f9f9" id="0"/><use xlink:href="#0"/><path d="m32 .113l-.27 1.6-.122-1.713" fill="#f9f9f9"/><g transform="matrix(-1 0 0 1-172.76 143.72)"><path d="m-190.09-143.27c-5.577-1.531-5.951 3.24-4.58 5.493 4.381 6.983 6.796 6.577 9.398 7.895 1.712 2.064 3.451 3.4 6.469 4.1 11.69 1.559 3.242-8.417.92-8.649-5.065.012-7.547-6.123-12.206-8.838" fill="url(#1)"/><path d="m-190.09-143.27c3.76.276 5.616-.626 8.93-.421 4.319.283 8.307 2.053 7.838 6.574-.347 2.567-.37 2.25.186 4.296.532 1.535-.252 4.232-.487 4.654-2.715 4.963-1.536 4.965-2.656 7.742l-.906-.418-2.508-11.358c-7.177-.909-10.754-10.11-10.398-11.07" fill="url(#3)"/><path d="m-183.3-133.33c.362.274 1.553-5.105 1.172-5.653 1.379 2.44 1.919 4.616 2.435 6.783-1.276-.283-2.289-.554-3.607-1.13" fill="url(#4)"/><circle r="3.01" cy="-120.11" cx="-176.61" fill="url(#5)"/></g></svg>