<svg xmlns="http://www.w3.org/2000/svg" viewBox="0 0 32 32"><defs><linearGradient gradientTransform="matrix(2.59244 0 0 2.58531-157.93-277.73)" id="0" x1="67.894" y1="108.69" x2="67.854" y2="113.11" gradientUnits="userSpaceOnUse"><stop stop-color="#f9f9f9"/><stop offset="1" stop-color="#999"/></linearGradient></defs><rect width="28.2" height="28.2" x="1.898" y="1.898" fill="#666" fill-rule="evenodd" rx="5.575"/><path d="m23.09988 23.09988a10.04074 10.04074 0 0 1 -7.099878 2.940866v-10.04z" fill="#ee813a"/><path d="M29.727295 7.099878A10.04074 10.04074 0 0 1 22.627417 10.04074 10.04074 10.04074 0 0 1 15.527538 7.099878L22.627 0" transform="matrix(.70711.70711-.70711.70711 0 0)" fill="#fff"/><path d="M7.099878-15.527539A10.04074 10.04074 0 0 1 0 -12.586673V-22.627" transform="matrix(-.70711.70711-.70711-.70711 0 0)" fill="#fad62f"/><path d="m-8.900122-8.900122a10.04074 10.04074 0 0 1 -14.199756 0 10.04074 10.04074 0 0 1 0 -14.199756L-16-16" transform="scale(-1-1)" fill="#97cd78"/><circle cx="16" cy="16" r="3.315" fill="#5aa142"/>

   xmlns:dc="http://purl.org/dc/elements/1.1/"
   xmlns:cc="http://creativecommons.org/ns#"
   xmlns:rdf="http://www.w3.org/1999/02/22-rdf-syntax-ns#"
   xmlns:svg="http://www.w3.org/2000/svg"
   xmlns="http://www.w3.org/2000/svg"
   xmlns:xlink="http://www.w3.org/1999/xlink"
   xmlns:sodipodi="http://sodipodi.sourceforge.net/DTD/sodipodi-0.dtd"
   xmlns:inkscape="http://www.inkscape.org/namespaces/inkscape"
   version="1"
   width="32"
   height="32"
   id="svg12"
   sodipodi:docname="snow-top-4.svg"
   inkscape:version="0.92.1 r"&gt;
  <path d="m7.196.009c-8.161-.339-9.231 9.523-3.968 9.505.669.003 1.581-.197 2.929-1.471 3.773-4.147 9.01 4.479 14.696-1.042.61-.911 1.804-1.135 2.455-.627 1.045.677 2.87 2.991 3.88 3 2.359.513 4.095-.198 4.816-3.188.185-3.165-2.303-6.286-6.281-6.17-5.832.133-12.809-.045-18.527-.01" fill="url(#0)"/></svg>