<svg xmlns="http://www.w3.org/2000/svg" height="32" width="32" viewBox="-1250 -1050 160 160"><defs><linearGradient gradientTransform="matrix(2.62891 0 0 2.71269-160.16-291.42)" id="0" x1="67.894" y1="108.69" x2="67.854" y2="113.11" gradientUnits="userSpaceOnUse"><stop stop-color="#f9f9f9"/><stop offset="1" stop-color="#999"/></linearGradient></defs><rect width="141.02" height="141.02" x="-1240.51" y="-1040.51" fill="#1b61a4" fill-rule="evenodd" rx="27.876"/><path d="m-1170-1026.23c-8.86 0-16.652 3.672-21.73 9.461-5.078 5.789-7.557 13.385-7.557 21.21v46.15h15v-46.15c0-4.651 1.484-8.641 3.832-11.318 2.349-2.677 5.452-4.354 10.455-4.354 5 0 8.105 1.676 10.453 4.354 2.349 2.677 3.832 6.667 3.832 11.318v46.15h15v-46.15c0-7.826-2.478-15.421-7.557-21.21-5.078-5.789-12.868-9.461-21.728-9.461" shape-rendering="auto" mix-blend-mode="normal" isolation="auto" color-interpolation-filters="linearRGB" white-space="normal" fill="#e6e6e6" solid-opacity="1" image-rendering="auto" solid-color="#000000" color="#000" color-rendering="auto" vector-effect="none" shape-padding="0" color-interpolation="sRGB"/><path d="m-1170-913.77l-36.733-37.993a23.349917 24.15094 0 1 1 36.7326 -29.15279 23.349917 24.15094 0 1 1 36.7325 29.15279z" fill="#f9f9f9"/><g transform="matrix(.79221 0 0 .79221-243.12-200.78)" stroke-width="1.262" fill="#272727"><circle r="10" cy="960" transform="scale(1-1)" cx="-1170"/><path d="m-1170.33-959.75l-9.667 29.75h20l-10-29.75z"/></g>

   xmlns:dc="http://purl.org/dc/elements/1.1/"
   xmlns:cc="http://creativecommons.org/ns#"
   xmlns:rdf="http://www.w3.org/1999/02/22-rdf-syntax-ns#"
   xmlns:svg="http://www.w3.org/2000/svg"
   xmlns="http://www.w3.org/2000/svg"
   xmlns:xlink="http://www.w3.org/1999/xlink"
   xmlns:sodipodi="http://sodipodi.sourceforge.net/DTD/sodipodi-0.dtd"
   xmlns:inkscape="http://www.inkscape.org/namespaces/inkscape"
   version="1"
   width="32"
   height="32"
   id="svg12"
   sodipodi:docname="snow-top-1.svg"
   inkscape:version="0.92.1 r"&gt;
  </svg>