<svg xmlns="http://www.w3.org/2000/svg" viewBox="0 0 32 32"><defs><linearGradient gradientTransform="matrix(2.62891 0 0 2.71269-160.16-291.42)" id="0" x1="67.894" y1="108.69" x2="67.854" y2="113.11" gradientUnits="userSpaceOnUse"><stop stop-color="#f9f9f9"/><stop offset="1" stop-color="#999"/></linearGradient></defs><g transform="translate(47.805-2.945)" fill-rule="evenodd"><path d="m-45.906 26.367c1.554-1.727 3.121-3.255 4.707-4.5 1.702-1.336 3.422-2.408 5.164-3.244 1.742-.836 3.506-1.436 5.293-1.826 1.787-.39 3.597-.57 5.434-.57 1.01 0 2.281.453 3.305.551-1.637-.72-4.594-2.373-8.01-3.846-1.706-.737-3.525-1.428-5.35-1.936-1.824-.507-3.653-.832-5.379-.832-.964 0-1.886.032-2.795.186-.794.134-1.579.422-2.373.803z" fill="#fff"/><path d="m-34.13 20.08c-.841.058-1.65.244-2.432.527-.781.284-1.534.664-2.264 1.115-1.459.903-2.822 2.085-4.121 3.316 1.557-.617 3.02-1 4.402-1.139 1.38-.135 2.676-.02 3.896.367.422.134 1.682.698 2.801 1.254 1.418.705 2.478 1.179 3.43 1.508.952.329 1.795.513 2.781.639 1.178.12 2.333.032 3.482-.164 1.15-.196 2.294-.501 3.453-.813l-2.662-.943c-1.242-.53-2.748-1.336-4.896-2.578-1.454-.785-2.718-1.606-3.971-2.207-.626-.3-1.25-.545-1.893-.703-.642-.158-1.305-.228-2.01-.18" fill="#7ed1f3"/><path d="m-40.33 4.844c-3.089 0-5.574 2.488-5.574 5.576v.732c.794-.38 1.579-.669 2.373-.803.909-.154 1.831-.186 2.795-.186 1.725 0 3.555.325 5.379.832 1.824.507 3.644 1.199 5.35 1.936 3.412 1.473 6.369 3.126 8.01 3.846-1.024-.098-2.296-.551-3.305-.551-1.836 0-3.647.18-5.434.57-1.787.39-3.551.99-5.293 1.826-1.742.836-3.462 1.908-5.164 3.244-1.586 1.245-3.153 2.773-4.707 4.5v1.105c0 3.089 2.486 5.574 5.574 5.574h17.05c3.089 0 5.576-2.486 5.576-5.574v-17.05c0-3.089-2.488-5.576-5.576-5.576zm6.205 15.24c.703-.049 1.365.022 2.01.18.642.158 1.266.403 1.893.703 1.253.601 2.516 1.422 3.971 2.207 2.148 1.242 3.654 2.048 4.896 2.578l2.662.943c-1.159.311-2.303.616-3.453.813-1.15.196-2.304.284-3.482.164-.986-.126-1.83-.31-2.781-.639-.952-.329-2.01-.803-3.43-1.508-1.118-.556-2.379-1.12-2.801-1.254-1.22-.387-2.516-.502-3.896-.367-1.38.135-2.845.522-4.402 1.139 1.299-1.231 2.662-2.413 4.121-3.316.729-.451 1.482-.832 2.264-1.115.781-.284 1.591-.469 2.432-.527" fill="#0286c2"/></g>

   xmlns:dc="http://purl.org/dc/elements/1.1/"
   xmlns:cc="http://creativecommons.org/ns#"
   xmlns:rdf="http://www.w3.org/1999/02/22-rdf-syntax-ns#"
   xmlns:svg="http://www.w3.org/2000/svg"
   xmlns="http://www.w3.org/2000/svg"
   xmlns:xlink="http://www.w3.org/1999/xlink"
   xmlns:sodipodi="http://sodipodi.sourceforge.net/DTD/sodipodi-0.dtd"
   xmlns:inkscape="http://www.inkscape.org/namespaces/inkscape"
   version="1"
   width="32"
   height="32"
   id="svg12"
   sodipodi:docname="snow-top-1.svg"
   inkscape:version="0.92.1 r"&gt;
  <path d="m7.288.009c-8.276-.356-9.36 9.992-4.02 9.973.679.003 1.604-.207 2.97-1.543 7.256-10.531 14.706 3.573 17.53.919 1.71-1.912 3.496-.418 4.448.115 2.1.643 3.662.041 3.785-3.231.188-3.321-1.889-6.344-5.923-6.223-5.914.14-12.989-.047-18.787-.01" fill="url(#0)"/><path fill="#f00" fill-opacity="0" d="m0 0h32v32h-32z"/></svg>