<svg xmlns="http://www.w3.org/2000/svg" viewBox="0 0 32 32"><rect width="28.2" height="28.2" x="1.898" y="1.898" fill="#02a8f3" fill-rule="evenodd" rx="5.575"/><path d="m17.501 6c-.554 0-1 .446-1 1v7.185l-1.063 1.063a5 5 0 0 0 -4.938 -4.248 5 5 0 0 0 -5 5 5 5 0 0 0 5 5 5 5 0 0 0 3 -1.0078v5.01c0 .554.446 1 1 1 .554 0 1-.446 1-1v-6.986l1.09-1.09a5 5 0 0 0 4.91 4.076 5 5 0 0 0 5 -5 5 5 0 0 0 -5 -5 5 5 0 0 0 -3 1.008v-5.01c0-.554-.446-1-1-1m-6.9993 6.9999a3 3 0 0 1 3 3 3 3 0 0 1 -3 3 3 3 0 0 1 -3 -3 3 3 0 0 1 3 -3m11 0a3 3 0 0 1 3 3 3 3 0 0 1 -3 3 3 3 0 0 1 -3 -3 3 3 0 0 1 3 -3" fill="#015479"/>

   xmlns:dc="http://purl.org/dc/elements/1.1/"
   xmlns:cc="http://creativecommons.org/ns#"
   xmlns:rdf="http://www.w3.org/1999/02/22-rdf-syntax-ns#"
   xmlns:svg="http://www.w3.org/2000/svg"
   xmlns="http://www.w3.org/2000/svg"
   xmlns:sodipodi="http://sodipodi.sourceforge.net/DTD/sodipodi-0.dtd"
   xmlns:inkscape="http://www.inkscape.org/namespaces/inkscape"
   height="32"
   width="32"
   version="1"
   id="svg8"
   sodipodi:docname="star-mime-2.svg"
   inkscape:version="0.92.1 r"&gt;
  <g transform="translate(152.47 194.05)" fill="#fff"><path d="m-125.38-193.25l-.077 3.548 3.072 1.831-3.548-.077-3.135 6.791 1.38-7.268-3.072-1.831 3.548.077z"/><path d="m-125.41-183.04l.042-1.955-1.692-1.01 1.955.042 1.727-3.741-.76 4 1.692 1.01-1.955-.042z"/></g></svg>