<svg xmlns="http://www.w3.org/2000/svg" viewBox="0 0 32 32"><defs><linearGradient gradientTransform="matrix(2.54182 0 0 2.58531-153.47-277.37)" id="0" x1="67.894" y1="108.69" x2="67.854" y2="113.11" gradientUnits="userSpaceOnUse"><stop stop-color="#f9f9f9"/><stop offset="1" stop-color="#999"/></linearGradient></defs><rect width="28.2" height="28.2" x="1.898" y="1.898" fill="#4c636b" fill-rule="evenodd" rx="5.575"/><circle cy="15" cx="11" r="7" fill="#3d4f56"/><path d="m6.0503 10.05a7 7 0 0 0 -.65186 .76235l2.159 2.159a4 4 0 0 0 .61458 4.857199 4 4 0 0 0 4.8558 .6132l2.159 2.159a7 7 0 0 0 .76373 -.65048 7 7 0 0 0 .65186 -.76235l-2.159-2.158a4 4 0 0 0 -.615 -4.857 4 4 0 0 0 -4.8554 -.614l-2.159-2.158a7 7 0 0 0 -.7641 .650999z" fill="#ee5858"/><circle cy="15" cx="11" r="2" fill="#f3c4c4"/><rect rx="1" height="2" width="8" y="9" x="20" fill="#3d4f56"/><g fill="#58c4ee"><circle cy="22.5" cx="26.5" r="1.5"/><circle cy="22.5" cx="22.5" r="1.5"/></g><g fill="#3d4f56"><rect rx="1" height="2" width="8" y="12" x="20"/><rect rx="1" height="2" width="8" y="15" x="20"/><rect rx="1" height="2" width="8" y="18" x="20"/></g>

   xmlns:dc="http://purl.org/dc/elements/1.1/"
   xmlns:cc="http://creativecommons.org/ns#"
   xmlns:rdf="http://www.w3.org/1999/02/22-rdf-syntax-ns#"
   xmlns:svg="http://www.w3.org/2000/svg"
   xmlns="http://www.w3.org/2000/svg"
   xmlns:xlink="http://www.w3.org/1999/xlink"
   xmlns:sodipodi="http://sodipodi.sourceforge.net/DTD/sodipodi-0.dtd"
   xmlns:inkscape="http://www.inkscape.org/namespaces/inkscape"
   height="32"
   width="32"
   version="1"
   id="svg8"
   sodipodi:docname="snow-top-2.svg"
   inkscape:version="0.92.1 r"&gt;
  <path d="m24.646 6.111c2.995 2.684 1.381 7.817 3.674 8.291 2.031.613 3.541-1.385 3.66-4.503.35-8.627-3.911-9.427-6.879-9.524-28.342-2.047-1.762 4.92-.455 5.736" fill="url(#0)"/></svg>