<svg xmlns="http://www.w3.org/2000/svg" viewBox="0 0 32 32"><defs><linearGradient gradientTransform="matrix(2.59244 0 0 2.58531-157.93-277.73)" id="0" x1="67.894" y1="108.69" x2="67.854" y2="113.11" gradientUnits="userSpaceOnUse"><stop stop-color="#f9f9f9"/><stop offset="1" stop-color="#999"/></linearGradient></defs><rect width="28.2" height="28.2" x="1.898" y="1.898" fill="#cd8652" fill-rule="evenodd" rx="5.575"/><g transform="matrix(.04573 0 0 .0445 4.954 5.252)" fill="#fff" stroke-width="1.396"><path d="m377.6 125.4c8.05-7.326 18.943-9.08 27.08-4.883l1.56-1.553c4.904-12.03 13.757-25.333 26.03-37.604 12.283-12.276 25.584-21.14 37.606-26.04 0 0 2.368-2.369 5.298-5.298 2.925-2.93 1.154-9.438-3.96-14.547l-30.08-30.08c-5.1-5.109-11.59-6.906-14.48-4.01l-5.238 5.236c-4.889 12.06-13.773 25.441-26.12 37.784-12.331 12.331-25.708 21.22-37.782 26.11l-1.082 1.078c5.178 8.233 3.574 19.979-4.168 28.487l-80.78 80.3c-3.494-.226-9.117-3.047-16.635-14.697-13.442-20.827-44.812-32.687-70.65 12.13-25.836 44.817-4.408 52.23-77.991 60.774l.016.024c-25.982 1.429-50.592 11.36-69.37 30.14-44.54 44.544-39.464 121.84 11.34 172.66 50.806 50.806 128.11 55.879 172.65 11.328.797-.797 1.557-1.639 2.324-2.46l.014.032c0 0 .293-.316.775-.866 3.573-3.903 6.777-8.03 9.636-12.343 11.461-16.27 27.822-45.524 24.16-76.08-5.538-46.13 37.694-44.02 55.619-55.623 17.921-11.598 24.25-21.607 24.77-33.22 0 0-21.352 15.03-40.855-4.476-15.677-15.678-8.708-42.39-1.947-56.53l82.25-85.77z" fill="#fff" stroke-width="1.396"/></g>

   xmlns:dc="http://purl.org/dc/elements/1.1/"
   xmlns:cc="http://creativecommons.org/ns#"
   xmlns:rdf="http://www.w3.org/1999/02/22-rdf-syntax-ns#"
   xmlns:svg="http://www.w3.org/2000/svg"
   xmlns="http://www.w3.org/2000/svg"
   xmlns:xlink="http://www.w3.org/1999/xlink"
   xmlns:sodipodi="http://sodipodi.sourceforge.net/DTD/sodipodi-0.dtd"
   xmlns:inkscape="http://www.inkscape.org/namespaces/inkscape"
   version="1"
   width="32"
   height="32"
   id="svg12"
   sodipodi:docname="snow-top-4.svg"
   inkscape:version="0.92.1 r"&gt;
  <path d="m7.196.009c-8.161-.339-9.231 9.523-3.968 9.505.669.003 1.581-.197 2.929-1.471 3.773-4.147 9.01 4.479 14.696-1.042.61-.911 1.804-1.135 2.455-.627 1.045.677 2.87 2.991 3.88 3 2.359.513 4.095-.198 4.816-3.188.185-3.165-2.303-6.286-6.281-6.17-5.832.133-12.809-.045-18.527-.01" fill="url(#0)"/></svg>