<svg xmlns="http://www.w3.org/2000/svg" xmlns:xlink="http://www.w3.org/1999/xlink" viewBox="0 0 32 32"><defs><linearGradient xlink:href="#3" id="4" gradientUnits="userSpaceOnUse" x1="-23.24" y1="-185.08" x2="-28.704" y2="-186.05"/><linearGradient xlink:href="#3" id="2" gradientUnits="userSpaceOnUse" x1="-34.914" y1="-193.53" x2="-20.469" y2="-181.36"/><linearGradient id="3"><stop stop-color="#ffff5e"/><stop offset="1" stop-color="#f6a32d"/></linearGradient><linearGradient id="1"><stop stop-color="#f9f9f9"/><stop offset="1" stop-color="#999"/></linearGradient><linearGradient xlink:href="#1" id="0" gradientUnits="userSpaceOnUse" x1="-33.14" y1="-185.13" x2="-35.775" y2="-177.2"/><radialGradient xlink:href="#1" id="5" cx="-176.59" cy="-120.91" r="3.01" gradientUnits="userSpaceOnUse" gradientTransform="matrix(2.21087.05719-.05496 2.12455 362.18 94.22)"/></defs><g fill-rule="evenodd"><rect width="28.2" height="28.2" x="1.898" y="1.898" fill="#5a4080" rx="5.575"/><g transform="translate(47.11-1.23)"><path d="m-29.21 31.33c.165-.719.354-1.378.42-2.322.098-1.42.084-2.818-.041-3.352-.167-.657-.598-1.837-.57-1.883.029-.046.734.025 1.332.025.707 0 1.225.025 1.6-.088.317-.096.695-.252.92-.24.5.025 1.066-.076 1.549-.295.483-.218.882-.554 1.049-.998.104-.276.539-.633.654-.791.188-.259.287-.473.166-.881-.17-.576-.867-.914-1.604-1.586-.558-.51-.837-.564-.865-1.109-.021-.401.086-.68-.131-.885-.246-.232-.87-.083-.91-.088-.129-.15-.255-.304-.289-.475-.034-.17.022-.357.26-.574.36-.329.57-.476.57-.836 0-.354-.209-.457-.521-.73-.206-.181-.427-.328-.492-.328-.066 0-.398-.264-.736-.586-.328-.313-.608-.446-.869-.502-.261-.056-.504-.033-.76-.033-.206 0-.361-.1-.465-.275-.104-.175-.156-.426-.156-.725.275-.996.818-1.881 1.396-2.574.578-.694 1.191-1.196 1.604-1.426-1.045-.148-1.948.036-2.764.416-.815.38-1.543.955-2.236 1.584-.065-.731.921-2.524 1-2.998-.74.388-1.322 1.058-1.803 1.795-.481.738-.86 1.542-1.195 2.203-.426-.576-.335-1.784-.5-2.5-.655.862-1.126 2.035-1.5 3.207-.374 1.172-.65 2.345-.914 3.207-.373 1.226-.798 2.216-1.299 3.01-.501.792-1.079 1.386-1.758 1.824-.807.521-1.53.788-3.094 1.143-.243.072-1.796.617-3.045 1.051v4.04c0 3.089 2.488 5.574 5.576 5.574z" fill="#7abccb"/><path d="m-39.631 3.129c-3.089 0-5.576 2.488-5.576 5.576v13.01c1.249-.434 2.802-.979 3.045-1.051 1.563-.354 2.287-.622 3.094-1.143.679-.438 1.257-1.032 1.758-1.824.501-.792.925-1.782 1.299-3.01.264-.862.54-2.035.914-3.207.374-1.172.845-2.345 1.5-3.207.165.716.074 1.924.5 2.5.335-.661.714-1.465 1.195-2.203.48-.737 1.063-1.407 1.803-1.795 0 0 0-.002 0-.002 0 0 0 .002 0 .002-.079.474-1.065 2.267-1 2.998.694-.629 1.421-1.204 2.236-1.584.815-.38 1.719-.564 2.764-.416-.413.23-1.025.732-1.604 1.426-.578.694-1.121 1.579-1.396 2.574 0 .299.053.549.156.725.104.175.258.275.465.275.256 0 .498-.023.76.033.261.056.541.189.869.502.339.322.671.586.736.586.066 0 .286.147.492.328.312.274.521.377.521.73 0 .36-.21.507-.57.836-.238.217-.294.404-.26.574.034.17.16.324.289.475.041.005.664-.144.91.088.217.205.11.484.131.885.028.545.307.599.865 1.109.737.672 1.434 1.01 1.604 1.586.121.408.022.621-.166.881-.115.158-.551.515-.654.791-.167.444-.566.78-1.049.998-.483.218-1.049.32-1.549.295-.225-.011-.603.144-.92.24-.374.113-.893.088-1.6.088-.599 0-1.303-.072-1.332-.025-.028.046.403 1.226.57 1.883.125.533.139 1.931.041 3.352-.065.944-.255 1.603-.42 2.322h6.631c3.089 0 5.574-2.486 5.574-5.574v-17.05c0-3.089-2.486-5.576-5.574-5.576z" fill="#5a4080"/></g></g><g transform="translate(49.877 194.68)"><path d="m-35.21-194.22c-5.577-1.531-5.951 3.24-4.58 5.493 4.381 6.983 6.796 6.577 9.398 7.895 1.712 2.064 3.451 3.4 6.469 4.1 11.69 1.559 3.242-8.417.92-8.649-5.065.012-7.547-6.123-12.206-8.838" fill="url(#0)"/><path d="m-35.21-194.22c3.76.276 5.616-.626 8.93-.421 4.319.283 8.307 2.053 7.838 6.574-.347 2.567-.37 2.25.186 4.296.532 1.535-.252 4.232-.487 4.654-2.715 4.963-1.536 4.965-2.656 7.742l-.906-.418-2.508-11.358c-7.177-.909-10.754-10.11-10.398-11.07" fill="url(#2)"/><path d="m-28.419-184.29c.362.274 1.553-5.105 1.172-5.653 1.379 2.44 1.919 4.616 2.435 6.783-1.276-.283-2.289-.554-3.607-1.13" fill="url(#4)"/><circle r="3.01" cy="-171.07" cx="-21.728" fill="url(#5)"/></g></svg>