<svg xmlns="http://www.w3.org/2000/svg" viewBox="0 0 32 32" xmlns:xlink="http://www.w3.org/1999/xlink"><defs><linearGradient xlink:href="#3" id="4" gradientUnits="userSpaceOnUse" x1="-23.24" y1="-185.08" x2="-28.704" y2="-186.05"/><linearGradient xlink:href="#3" id="2" gradientUnits="userSpaceOnUse" x1="-34.914" y1="-193.53" x2="-20.469" y2="-181.36"/><linearGradient id="3"><stop stop-color="#ffff5e"/><stop offset="1" stop-color="#f6a32d"/></linearGradient><linearGradient id="1"><stop stop-color="#f9f9f9"/><stop offset="1" stop-color="#999"/></linearGradient><linearGradient xlink:href="#1" id="0" gradientUnits="userSpaceOnUse" x1="-33.14" y1="-185.13" x2="-35.775" y2="-177.2"/><radialGradient xlink:href="#1" id="5" cx="-176.59" cy="-120.91" r="3.01" gradientUnits="userSpaceOnUse" gradientTransform="matrix(2.21087.05719-.05496 2.12455 362.18 94.22)"/></defs><g fill-rule="evenodd"><g fill="#ccc"><path d="m15.701 20.463c-1.257 0-2.479.251-3.387.727-.454.238-.83.532-1.092.879-.262.347-.41.745-.41 1.193 0 .449.225.957.602 1.467.377.509.905 1.02 1.512 1.475.607.455 1.292.854 1.982 1.139.691.285 1.387.455 2.02.455.503 0 .986-.216 1.424-.559.438-.343.833-.812 1.166-1.318.665-1.013 1.078-2.174 1.078-2.77 0-.318-.148-.643-.41-.955-.262-.312-.638-.609-1.092-.865-.908-.513-2.132-.867-3.389-.867"/><path d="m24.26 11.934c-.675 0-1.288.204-1.73.533-.442.329-.715.784-.715 1.287 0 .503.272.958.715 1.287.442.329 1.055.533 1.73.533.675 0 1.286-.204 1.729-.533.442-.329.715-.784.715-1.287 0-.503-.272-.958-.715-1.287-.442-.329-1.053-.533-1.729-.533"/></g><path d="m29.03 4.361c-.315.264-1.22 1.055-3.217 2.33-1.15.735-2.524 1.534-4.057 2.275-1.532.742-3.223 1.427-5.01 1.936-.129.492-.341 1.107-.66 1.752-.319.645-.747 1.32-1.309 1.934-.562.614-1.256 1.166-2.113 1.564-.857.399-1.875.645-3.08.645-.712 0-1.356-.083-1.939-.23-.583-.147-1.106-.36-1.574-.621-.936-.522-1.654-1.236-2.205-2.01-.551-.774-.935-1.606-1.203-2.361-.268-.755-.421-1.434-.508-1.9-.119-.085-.142-.13-.262-.234v15.09c0 3.089 2.486 5.574 5.574 5.574h17.05c3.089 0 5.574-2.486 5.574-5.574v-17.05c0-1.181-.447-2.212-1.068-3.111m-4.773 7.572c.675 0 1.286.204 1.729.533.442.329.715.784.715 1.287 0 .503-.272.958-.715 1.287-.442.329-1.053.533-1.729.533-.675 0-1.288-.204-1.73-.533-.442-.329-.715-.784-.715-1.287 0-.503.272-.958.715-1.287.442-.329 1.055-.533 1.73-.533m-8.559 8.529c1.257 0 2.48.354 3.389.867.454.256.83.554 1.092.865.262.312.41.637.41.955 0 .595-.413 1.757-1.078 2.77-.333.506-.728.976-1.166 1.318-.438.343-.921.559-1.424.559-.628 0-1.325-.17-2.02-.455-.691-.285-1.376-.684-1.982-1.139-.607-.455-1.135-.965-1.512-1.475-.377-.509-.602-1.018-.602-1.467 0-.449.148-.847.41-1.193.262-.347.638-.641 1.092-.879.908-.475 2.13-.727 3.387-.727" fill="#4f4f4f"/><path d="m28.23 3.363c-.278.235-1.96 1.688-5.061 3.412-1.67.929-3.648 1.868-5.822 2.594-1.087.363-2.223.672-3.395.9-1.171.228-2.377.376-3.605.414-1.347.042-2.513-.107-3.508-.344-.995-.237-1.818-.563-2.48-.879-1.267-.604-2.358-1.674-2.459-1.771v1.75c.119.104.143.149.262.234.087.466.24 1.145.508 1.9.268.755.652 1.588 1.203 2.361.551.774 1.269 1.488 2.205 2.01.468.261.991.474 1.574.621.583.147 1.228.23 1.939.23 1.205 0 2.223-.246 3.08-.645.857-.399 1.552-.951 2.113-1.564.562-.614.989-1.289 1.309-1.934.319-.645.531-1.26.66-1.752 1.785-.509 3.476-1.194 5.01-1.936 1.532-.742 2.906-1.541 4.057-2.275 1.997-1.275 2.902-2.066 3.217-2.33-.247-.358-.482-.708-.805-.998" fill="#ccc"/><path d="m7.473 1.898c-3.089 0-5.574 2.486-5.574 5.574v.217c.101.098 1.192 1.168 2.459 1.771.662.315 1.486.642 2.48.879.995.237 2.161.386 3.508.344 1.228-.038 2.434-.186 3.605-.414 1.171-.228 2.308-.538 3.395-.9 2.174-.726 4.152-1.665 5.822-2.594 3.1-1.724 4.782-3.177 5.061-3.412-.987-.888-2.263-1.465-3.701-1.465h-17.05" fill="#4f4f4f"/></g><g transform="translate(49.877 194.68)"><path d="m-35.21-194.22c-5.577-1.531-5.951 3.24-4.58 5.493 4.381 6.983 6.796 6.577 9.398 7.895 1.712 2.064 3.451 3.4 6.469 4.1 11.69 1.559 3.242-8.417.92-8.649-5.065.012-7.547-6.123-12.206-8.838" fill="url(#0)"/><path d="m-35.21-194.22c3.76.276 5.616-.626 8.93-.421 4.319.283 8.307 2.053 7.838 6.574-.347 2.567-.37 2.25.186 4.296.532 1.535-.252 4.232-.487 4.654-2.715 4.963-1.536 4.965-2.656 7.742l-.906-.418-2.508-11.358c-7.177-.909-10.754-10.11-10.398-11.07" fill="url(#2)"/><path d="m-28.419-184.29c.362.274 1.553-5.105 1.172-5.653 1.379 2.44 1.919 4.616 2.435 6.783-1.276-.283-2.289-.554-3.607-1.13" fill="url(#4)"/><circle r="3.01" cy="-171.07" cx="-21.728" fill="url(#5)"/></g></svg>