<svg xmlns="http://www.w3.org/2000/svg" viewBox="0 0 32 32"><g transform="translate(35.389.406)"><g fill-rule="evenodd"><path d="m-5.288 15.6h-14.11l12.471 12.473c1.012-1.01 1.639-2.405 1.639-3.953z" fill="#ffac29"/><path d="m-19.397 15.6v14.1h8.533c1.54 0 2.93-.62 3.938-1.623z" fill="#73ff44"/><path d="m-19.383 15.6l-.014-.014v.014z" fill="#ccc"/><path d="m-19.397 15.586l-12.473 12.471c1.01 1.013 2.404 1.639 3.953 1.639h8.52v-14.1" fill="#80ffe5"/><path d="m-19.411 15.6h-14.08v8.52c0 1.54.619 2.93 1.621 3.938z" fill="#53bdff"/><path d="m-19.411 15.6l.014-.014-12.463-12.465c0 0-.002 0-.002 0-1.01 1.01-1.629 2.401-1.629 3.945v8.533z" fill="#5964ff"/><path d="m-6.919 3.121l-12.471 12.473.006.006h14.1v-8.533c0-1.544-.621-2.938-1.629-3.945 0 0-.002 0-.002 0" fill="#ff7221"/><path d="m-19.397 1.492v14.09l.008.008 12.471-12.473c-1.01-1.01-2.402-1.629-3.945-1.629" fill="#ff3636"/><path d="m-19.397 15.586v-14.09h-8.52c-1.544 0-2.936.622-3.943 1.629z" fill="#e647ff"/></g><circle r="6.356" cx="-19.39" cy="15.593" fill="#fff" stroke-width=".908"/></g>

   xmlns:dc="http://purl.org/dc/elements/1.1/"
   xmlns:cc="http://creativecommons.org/ns#"
   xmlns:rdf="http://www.w3.org/1999/02/22-rdf-syntax-ns#"
   xmlns:svg="http://www.w3.org/2000/svg"
   xmlns="http://www.w3.org/2000/svg"
   xmlns:sodipodi="http://sodipodi.sourceforge.net/DTD/sodipodi-0.dtd"
   xmlns:inkscape="http://www.inkscape.org/namespaces/inkscape"
   height="32"
   width="32"
   version="1"
   id="svg8"
   sodipodi:docname="star-mime-2.svg"
   inkscape:version="0.92.1 r"&gt;
  <g transform="translate(152.47 194.05)" fill="#fff"><path d="m-125.38-193.25l-.077 3.548 3.072 1.831-3.548-.077-3.135 6.791 1.38-7.268-3.072-1.831 3.548.077z"/><path d="m-125.41-183.04l.042-1.955-1.692-1.01 1.955.042 1.727-3.741-.76 4 1.692 1.01-1.955-.042z"/></g></svg>