<svg xmlns="http://www.w3.org/2000/svg" xmlns:xlink="http://www.w3.org/1999/xlink" viewBox="0 0 32 32"><defs><linearGradient xlink:href="#3" id="4" gradientUnits="userSpaceOnUse" x1="-23.24" y1="-185.08" x2="-28.704" y2="-186.05"/><linearGradient xlink:href="#3" id="2" gradientUnits="userSpaceOnUse" x1="-34.914" y1="-193.53" x2="-20.469" y2="-181.36"/><linearGradient id="3"><stop stop-color="#ffff5e"/><stop offset="1" stop-color="#f6a32d"/></linearGradient><linearGradient id="1"><stop stop-color="#f9f9f9"/><stop offset="1" stop-color="#999"/></linearGradient><linearGradient xlink:href="#1" id="0" gradientUnits="userSpaceOnUse" x1="-33.14" y1="-185.13" x2="-35.775" y2="-177.2"/><radialGradient xlink:href="#1" id="5" cx="-176.59" cy="-120.91" r="3.01" gradientUnits="userSpaceOnUse" gradientTransform="matrix(2.21087.05719-.05496 2.12455 362.18 94.22)"/></defs><rect width="28.2" height="28.2" x="1.898" y="1.898" fill="#4f4f4f" fill-rule="evenodd" rx="5.575"/><path d="m26.659 5c-.04 0-.12.003-.206.008-.114.007-.215.012-.223.012-.009 0-.05.05-.093.11-.043.061-.087.115-.098.122-.012.006-.085.035-.163.064-.131.049-.146.052-.192.04-.063-.016-.156-.011-.956.052l-.372.029-.184.174c-.101.096-.19.182-.198.191-.008.009-.065.033-.127.054-.224.073-.41.181-.54.313-.092.093-.123.143-.197.321-.031.074-.059.137-.062.14-.003.003-.049-.023-.103-.058-.29-.188-.573-.275-.891-.275-.447 0-.847.12-1.149.346-.292.219-.532.492-.668.762-.052.102-.106.315-.132.516-.027.21-.019.557.017.722.061.279.293.793.552 1.222.308.509.559.83 1.168 1.491.236.256.286.309.777.812.383.393.508.539.668.783.348.531.529 1.037.476 1.329-.028.152-.129.306-.271.412-.096.072-.31.179-.436.218-.106.033-.238.059-.248.049-.004-.004.013-.084.036-.178.077-.306.106-.58.089-.845-.029-.457-.211-.915-.477-1.204-.21-.228-.591-.482-.869-.58-.162-.057-.25-.07-.436-.063-.201.007-.31.032-.454.103-.185.091-.276.217-.275.381 0 .074.006.097.035.151.043.08.12.158.185.186.028.012.102.028.166.034.16.016.282.05.418.115.134.064.227.131.348.249.147.145.228.289.273.487.026.113.026.358 0 .462-.026.105-.085.255-.115.293l-.024.031-.224-.219c-.296-.289-.701-.668-.816-.764-.409-.342-.827-.582-1.163-.669-.054-.014-.105-.031-.112-.038-.007-.007-.019-.054-.027-.105-.065-.425-.253-.913-.484-1.258-.136-.203-.254-.341-.491-.577-.347-.345-.673-.588-1.016-.755l-.176-.086-.033-.119c-.1-.359-.292-.746-.518-1.047-.107-.142-.333-.375-.468-.482-.358-.284-.75-.45-1.242-.524-.203-.031-.616-.042-.819-.022-.412.04-.76.161-1.015.353-.514.385-.977 1.044-1.185 1.684-.166.512-.735 2.816-1.027 4.163-.038.173-.073.251-.187.409-.11.154-.207.254-.296.308-.059.036-.074.04-.149.039-.101-.001-.199-.04-.238-.095-.07-.098-.101-.28-.091-.535.007-.176.021-.272.096-.656.081-.414.008-.717-.233-.967-.118-.122-.302-.229-.474-.276-.109-.03-.325-.027-.446.005-.328.088-.592.286-.767.577-.031.051-.068.122-.083.157-.045.107-.046.107-.123-.008-.037-.056-.105-.139-.15-.184-.082-.081-.083-.081-.24-.132-.087-.028-.197-.071-.246-.095-.119-.059-.216-.089-.336-.104-.056-.007-.225-.033-.376-.058-.262-.043-.281-.048-.399-.103-.137-.064-.124-.051-.265-.27-.089-.139-.155-.197-.248-.219-.178-.043-.396.124-.414.315-.006.063-.01.072-.04.088-.06.031-.129.102-.157.161-.075.16.001.381.154.448.039.017.343.068.408.068.008 0 .067.038.13.085.112.083.116.088.213.247.054.089.126.194.159.233.033.039.071.092.084.118.041.08.161.229.229.284.036.029.088.084.115.121.14.19.306.271.624.306l.133.015.095.068c.132.095.306.178.445.214.157.04.328.035.499-.016.063-.019.116-.031.119-.027.003.004.01.07.018.146.046.497.252.902.62 1.221.323.28.572.395 1.01.464.155.025.459.028.595.006.249-.04.554-.179.799-.362.289-.216.563-.592.852-1.165.303-.601.463-1.084.676-2.037.107-.48.211-1.019.274-1.424.023-.145.057-.328.077-.407.103-.417.287-.797.541-1.122.095-.121.289-.305.363-.345.17-.091.409-.088.621.009.081.037.481.331.477.351-.001.008-.068.041-.149.073-.345.138-.633.322-.856.549-.251.255-.449.571-.554.885-.059.177-.073.275-.073.512 0 .283.035.495.117.706.114.293.358.537.635.633.164.057.28.039.38-.058.089-.086.13-.198.114-.307-.004-.029-.033-.096-.067-.154-.113-.196-.171-.374-.182-.557-.01-.179.042-.442.119-.601.048-.098.165-.23.285-.32.15-.113.379-.21.535-.228l.066-.008-.008.108c-.008.112-.014.148-.105.65-.029.163-.061.356-.071.429-.076.589-.04 1.167.094 1.514.003.008-.028.038-.074.07-.427.299-.81.747-1.042 1.218-.268.545-.432 1.18-.432 1.678v.146l-.09.074c-.127.104-.307.287-.416.422-.43.532-.643 1.141-.621 1.776.01.289.047.482.151.789.191.563.478.995.842 1.268.109.082.464.255.658.321.409.139.83.203 1.24.188.191-.007.215-.011 1.575-.269.76-.144 1.725-.327 2.145-.407.42-.08.817-.156.881-.17.289-.062.62.008.808.171.095.082.147.216.127.323-.016.086-.166.214-.35.297-.168.077-.327.122-.655.186-.252.049-.297.063-.426.129-.256.133-.462.371-.527.609-.032.119-.036.369-.008.475.087.32.323.583.651.727.18.079.433.125.597.109.044-.004.081-.003.084.003.004.006-.019.053-.05.105-.031.052-.074.135-.095.184-.045.106-.046.127-.025.484.014.247.034.361.084.489.013.033.029.106.036.162.023.179.043.276.073.35l.029.072-.014.184-.014.184-.095.15c-.103.162-.131.226-.131.298 0 .084.024.138.093.207.109.109.242.156.361.127.055-.013.063-.012.101.012.023.014.064.033.091.041.09.028.169.021.259-.022.1-.048.163-.108.201-.191.042-.091.033-.187-.032-.356l-.049-.128.033-.215c.033-.212.034-.215.075-.261.063-.07.091-.113.127-.201.018-.044.067-.124.109-.179.087-.114.173-.277.208-.396.013-.046.054-.158.089-.25l.065-.167-.006-.112c-.005-.087-.016-.141-.05-.244l-.044-.132.02-.164c.023-.188.024-.276.007-.414-.026-.208-.091-.365-.214-.516-.042-.051-.076-.101-.076-.11 0-.01.045-.042.105-.075.213-.117.449-.318.602-.513.231-.294.385-.854.344-1.255-.035-.345-.138-.657-.297-.898-.175-.265-.45-.501-.773-.661-.258-.128-.515-.191-.992-.243-.187-.02-.915-.02-1.126 0-.648.062-1.458.224-2.316.461-.148.041-.34.09-.427.109-.177.039-1.152.166-1.267.165-.079-.001-.328-.038-.441-.066-.236-.059-.434-.15-.521-.238-.063-.064-.152-.232-.178-.336-.009-.036-.02-.105-.025-.154-.008-.084-.004-.105.06-.362.037-.15.073-.273.079-.273.006 0 .056.043.111.095.452.417 1.022.603 1.493.644.634.019 1.453-.268 1.722-.762.171-.33.174-.661.006-.816-.066-.062-.144-.088-.257-.088-.134 0-.231.052-.299.161-.08.127-.103.157-.177.23-.13.128-.34.239-.555.294-.137.035-.337.038-.449.006-.105-.03-.28-.113-.366-.173-.121-.086-.31-.305-.315-.364-.002-.021.324-.122.755-.235.44-.115.727-.219 1.048-.378.308-.153.499-.283.699-.477.068-.066.129-.12.136-.12.007 0 .046.015.087.033.201.09.548.192.791.233.326.055.584.058.899.013.581-.084 1.068-.241 1.473-.474.057-.033.11-.059.119-.059.009 0 .094.026.189.057.309.102.571.149.896.16.466.016.887-.072 1.275-.264.283-.14.458-.267.676-.491.392-.402.674-.865.785-1.288.052-.198.063-.321.047-.531-.052-.684-.303-1.332-.739-1.906-.372-.489-1.232-1.478-2.26-2.601-.371-.404-.361-.394-.501-.564-.179-.218-.248-.377-.282-.648-.026-.216.045-.374.194-.432.172-.067.528.145.839.501.243.278.354.373.537.463.322.158.636.15.948-.025.137-.077.288-.231.351-.358.073-.147.108-.297.115-.493.011-.282-.046-.502-.197-.762-.021-.036-.035-.069-.032-.072.003-.003.111-.012.239-.019.224-.012.235-.014.303-.048.038-.019.099-.055.134-.08.035-.025.114-.078.175-.119.124-.083.227-.179.336-.312.055-.067.092-.099.145-.127.093-.05.171-.126.213-.212l.035-.07.123-.043c.116-.041.13-.043.275-.044.233-.001.335-.029.42-.113.073-.073.092-.124.092-.248 0-.126-.02-.18-.098-.269-.037-.042-.046-.062-.052-.12-.014-.12-.094-.25-.165-.268-.003-.001-.012-.001-.026-.001m-9.772 6.073c.01-.002.029.01.069.041.203.156.41.367.574.584.337.448.512.962.49 1.434-.011.237-.07.407-.188.54-.098.111-.211.148-.355.116-.273-.061-.471-.271-.567-.6-.093-.319-.119-.979-.061-1.553.01-.099.018-.261.018-.36 0-.099.005-.187.011-.197.002-.003.005-.005.008-.006m2.112 3.187c.157.002.329.045.511.132.184.088.618.389.963.668.294.239.548.457.545.467-.009.026-.283.096-.512.13-.115.017-.577.031-.68.021-.134-.014-.373-.057-.482-.087-.303-.085-.651-.301-.802-.5-.096-.126-.169-.308-.169-.419 0-.056.048-.146.112-.21.136-.137.312-.204.514-.202m-2.131.547c.015 0 .029.001.044.002.168.013.301.061.367.13.064.068.087.241.05.382-.118.454-.692.885-1.68 1.261-.171.065-.449.148-.495.148-.011 0-.013-.012-.007-.042.031-.164.135-.438.252-.664.283-.546.682-.95 1.12-1.134.134-.056.246-.083.349-.083" fill="#3ffe3f"/><g transform="translate(49.877 194.68)"><path d="m-35.21-194.22c-5.577-1.531-5.951 3.24-4.58 5.493 4.381 6.983 6.796 6.577 9.398 7.895 1.712 2.064 3.451 3.4 6.469 4.1 11.69 1.559 3.242-8.417.92-8.649-5.065.012-7.547-6.123-12.206-8.838" fill="url(#0)"/><path d="m-35.21-194.22c3.76.276 5.616-.626 8.93-.421 4.319.283 8.307 2.053 7.838 6.574-.347 2.567-.37 2.25.186 4.296.532 1.535-.252 4.232-.487 4.654-2.715 4.963-1.536 4.965-2.656 7.742l-.906-.418-2.508-11.358c-7.177-.909-10.754-10.11-10.398-11.07" fill="url(#2)"/><path d="m-28.419-184.29c.362.274 1.553-5.105 1.172-5.653 1.379 2.44 1.919 4.616 2.435 6.783-1.276-.283-2.289-.554-3.607-1.13" fill="url(#4)"/><circle r="3.01" cy="-171.07" cx="-21.728" fill="url(#5)"/></g></svg>