<svg xmlns="http://www.w3.org/2000/svg" viewBox="0 0 32 32"><defs><linearGradient gradientTransform="matrix(2.54182 0 0 2.58531-153.47-277.37)" id="0" x1="67.894" y1="108.69" x2="67.854" y2="113.11" gradientUnits="userSpaceOnUse"><stop stop-color="#f9f9f9"/><stop offset="1" stop-color="#999"/></linearGradient></defs><rect width="28.2" height="28.2" x="1.898" y="1.898" fill="#d54747" fill-rule="evenodd" rx="5.575"/><path d="m16.02 8.01c-.779-.008-1.553.103-2.303.301-3.497.901-5.768 4.208-5.715 7.686h-2l3 4.01 3-4.01h-2c-.007-1.456.229-2.907 1.238-3.994 1.761-1.992 5.255-2.807 7.777-1.342.838 1.053 2.697-.104 1.721-1.184-1.389-1.038-2.966-1.463-4.719-1.467m6.982 3.986l-3 4.01h2c.007 1.456-.229 2.907-1.238 3.994-1.898 2.191-5.255 2.807-7.777 1.342-.838-1.053-2.697.102-1.721 1.182 1.389 1.038 2.966 1.465 4.719 1.469l.002-.002c.779.008 1.551-.101 2.301-.299 3.497-.901 5.768-4.208 5.715-7.686h2z" fill="#fff"/>

   xmlns:dc="http://purl.org/dc/elements/1.1/"
   xmlns:cc="http://creativecommons.org/ns#"
   xmlns:rdf="http://www.w3.org/1999/02/22-rdf-syntax-ns#"
   xmlns:svg="http://www.w3.org/2000/svg"
   xmlns="http://www.w3.org/2000/svg"
   xmlns:xlink="http://www.w3.org/1999/xlink"
   xmlns:sodipodi="http://sodipodi.sourceforge.net/DTD/sodipodi-0.dtd"
   xmlns:inkscape="http://www.inkscape.org/namespaces/inkscape"
   height="32"
   width="32"
   version="1"
   id="svg8"
   sodipodi:docname="snow-top-2.svg"
   inkscape:version="0.92.1 r"&gt;
  <path d="m24.646 6.111c2.995 2.684 1.381 7.817 3.674 8.291 2.031.613 3.541-1.385 3.66-4.503.35-8.627-3.911-9.427-6.879-9.524-28.342-2.047-1.762 4.92-.455 5.736" fill="url(#0)"/></svg>