<?xml version="1.0" encoding="UTF-8" standalone="no"?>
<svg
   xmlns:dc="http://purl.org/dc/elements/1.1/"
   xmlns:cc="http://creativecommons.org/ns#"
   xmlns:rdf="http://www.w3.org/1999/02/22-rdf-syntax-ns#"
   xmlns:svg="http://www.w3.org/2000/svg"
   xmlns="http://www.w3.org/2000/svg"
   xmlns:sodipodi="http://sodipodi.sourceforge.net/DTD/sodipodi-0.dtd"
   xmlns:inkscape="http://www.inkscape.org/namespaces/inkscape"
   height="32"
   width="32"
   version="1"
   id="svg12"
   sodipodi:docname="recoll.svg"
   inkscape:version="0.92.1 r">
  <metadata
     id="metadata18">
    <rdf:RDF>
      <cc:Work
         rdf:about="">
        <dc:format>image/svg+xml</dc:format>
        <dc:type
           rdf:resource="http://purl.org/dc/dcmitype/StillImage" />
        <dc:title />
      </cc:Work>
    </rdf:RDF>
  </metadata>
  <defs
     id="defs16">
    <linearGradient
       gradientTransform="matrix(2.62891,0,0,2.71269,-160.16236,-291.42003)"
       id="0"
       x1="67.893997"
       y1="108.69"
       x2="67.853996"
       y2="113.11"
       gradientUnits="userSpaceOnUse">
      <stop
         stop-color="#f9f9f9"
         id="stop2" />
      <stop
         offset="1"
         stop-color="#999"
         id="stop4" />
    </linearGradient>
  </defs>
  <sodipodi:namedview
     pagecolor="#ffffff"
     bordercolor="#666666"
     borderopacity="1"
     objecttolerance="10"
     gridtolerance="10"
     guidetolerance="10"
     inkscape:pageopacity="0"
     inkscape:pageshadow="2"
     inkscape:window-width="1680"
     inkscape:window-height="966"
     id="namedview14"
     showgrid="false"
     inkscape:zoom="10.429825"
     inkscape:cx="-16.533592"
     inkscape:cy="7.7523874"
     inkscape:window-x="0"
     inkscape:window-y="0"
     inkscape:window-maximized="1"
     inkscape:current-layer="svg12" />
  <rect
     style="opacity:1;fill:#2bc3ef;fill-opacity:1;fill-rule:evenodd;stroke:none;stroke-width:1.03534329;stroke-linecap:round;stroke-linejoin:bevel;stroke-miterlimit:4;stroke-dasharray:none;stroke-dashoffset:0;stroke-opacity:1"
     id="rect4497-3"
     width="28.203388"
     height="28.203388"
     x="1.8983059"
     y="1.8983059"
     ry="5.575182" />
  <path
     style="opacity:1;fill:#f2f2f1;fill-opacity:1;fill-rule:evenodd;stroke:none;stroke-width:0.65161371;stroke-linecap:round;stroke-linejoin:bevel;stroke-miterlimit:4;stroke-dasharray:none;stroke-dashoffset:0;stroke-opacity:1"
     d="m 19.254868,7.0981152 h -8.653835 c -1.9439031,0 -3.5094734,1.5643412 -3.5094734,3.5082438 v 10.732476 c 0,1.943904 1.5655703,3.509474 3.5094734,3.509474 h 10.732475 c 1.943904,0 3.508245,-1.56557 3.508245,-3.509474 v -8.653834 z"
     id="path4508"
     inkscape:connector-curvature="0" />
  <path
     style="opacity:1;fill:#b1e1f3;fill-opacity:1;fill-rule:evenodd;stroke:none;stroke-width:0.65161371;stroke-linecap:round;stroke-linejoin:bevel;stroke-miterlimit:4;stroke-dasharray:none;stroke-dashoffset:0;stroke-opacity:1"
     d="M 24.841753,12.685001 19.254868,7.0981154 v 2.0786411 c 0,1.9439025 1.564341,3.5082445 3.508245,3.5082445 z"
     id="rect4497-3-3"
     inkscape:connector-curvature="0" />
  <path
     d="m 16.857182,13.996192 v 0.805851 h 3.568512 v -0.805851 z m -5.295839,2.417551 v 0.805851 h 8.864351 v -0.805851 z m 0,2.417551 v 0.80585 h 8.864351 v -0.80585 z m 0,2.41755 v 0.805851 h 6.446801 v -0.805851 z"
     id="path12"
     inkscape:connector-curvature="0"
     style="opacity:1;fill:#a0bec7;fill-opacity:1;stroke-width:0.80585021"
     sodipodi:nodetypes="cccccccccccccccccscc" />
  <rect
     style="opacity:1;fill:#fbb116;fill-opacity:1;stroke:none;stroke-width:0.90850067;stroke-linecap:round;stroke-linejoin:bevel;stroke-miterlimit:4;stroke-dasharray:none;stroke-opacity:1"
     id="rect4513"
     width="4.5288563"
     height="4.6019015"
     x="11.45804"
     y="10.210649"
     ry="0.77742499" />
  <path
     style="color:#000000;font-style:normal;font-variant:normal;font-weight:normal;font-stretch:normal;font-size:medium;line-height:normal;font-family:sans-serif;font-variant-ligatures:normal;font-variant-position:normal;font-variant-caps:normal;font-variant-numeric:normal;font-variant-alternates:normal;font-feature-settings:normal;text-indent:0;text-align:start;text-decoration:none;text-decoration-line:none;text-decoration-style:solid;text-decoration-color:#000000;letter-spacing:normal;word-spacing:normal;text-transform:none;writing-mode:lr-tb;direction:ltr;text-orientation:mixed;dominant-baseline:auto;baseline-shift:baseline;text-anchor:start;white-space:normal;shape-padding:0;clip-rule:nonzero;display:inline;overflow:visible;visibility:visible;opacity:1;isolation:auto;mix-blend-mode:normal;color-interpolation:sRGB;color-interpolation-filters:linearRGB;solid-color:#000000;solid-opacity:1;vector-effect:none;fill:#3d4651;fill-opacity:1;fill-rule:nonzero;stroke:none;stroke-width:2.15485883;stroke-linecap:round;stroke-linejoin:miter;stroke-miterlimit:4;stroke-dasharray:none;stroke-dashoffset:0;stroke-opacity:1;color-rendering:auto;image-rendering:auto;shape-rendering:auto;text-rendering:auto;enable-background:accumulate"
     d="m 21.148865,15.690573 c -1.496249,-1.496249 -3.93794,-1.496249 -5.434188,0 -1.496249,1.496249 -1.496248,3.937939 0,5.434187 1.258331,1.258332 3.177539,1.444433 4.648522,0.586275 l 3.556328,3.556327 a 1.0775372,1.0775372 0 1 0 1.523715,-1.523715 l -3.603944,-3.603944 c 0.729216,-1.441977 0.511558,-3.247139 -0.690433,-4.44913 z m -0.723171,0.72317 c 1.105633,1.105631 1.105633,2.882217 1e-6,3.987848 -1.105631,1.105632 -2.882217,1.105632 -3.987849,0 -1.10563,-1.105631 -1.10563,-2.882217 1e-6,-3.987848 1.105631,-1.105631 2.882217,-1.105631 3.987847,0 z"
     id="path4565"
     inkscape:connector-curvature="0" />
  <path
     inkscape:connector-curvature="0"
     style="fill:url(#0)"
     d="m 7.2856394,0.0089794 c -8.27599973,-0.356 -9.3599997,9.9919996 -4.0199997,9.9729999 0.679,0.003 1.6039997,-0.2069999 2.9699997,-1.5429999 7.2559996,-10.531 14.7059996,3.5729996 17.5299996,0.919 1.71,-1.912 3.496,-0.418 4.448,0.115 2.1,0.6429996 3.662,0.041 3.785,-3.231 0.188,-3.321 -1.889,-6.344 -5.923,-6.223 -5.914,0.14 -12.989,-0.047 -18.7869996,-0.01"
     id="path29" />
</svg>
