<svg xmlns="http://www.w3.org/2000/svg" width="32" height="32" viewBox="0 0 8.47 8.47"><defs><linearGradient gradientTransform="matrix(2.54182 0 0 2.58531-153.47-277.37)" id="0" x1="67.894" y1="108.69" x2="67.854" y2="113.11" gradientUnits="userSpaceOnUse"><stop stop-color="#f9f9f9"/><stop offset="1" stop-color="#999"/></linearGradient></defs><rect width="7.465" height="7.465" x=".502" y=".502" fill="#ff6a33" fill-rule="evenodd" rx="1.476"/><path d="M4.501651 1.98579A.132305 .132305 0 0 0 4.368842 2.098962L4.142 3.577A2.116667 1.455208 0 0 0 2.753437 3.990319 .529167 .529167 0 0 0 2.382917 3.83839 .529167 .529167 0 0 0 1.85375 4.367557 .529167 .529167 0 0 0 2.139004 4.836779 2.116667 1.455208 0 0 0 2.118334 5.02902 2.116667 1.455208 0 0 0 4.235 6.484223 2.116667 1.455208 0 0 0 6.351667 5.02902 2.116667 1.455208 0 0 0 6.33048 4.837296 .529167 .529167 0 0 0 6.61625 4.367557 .529167 .529167 0 0 0 6.087084 3.83839 .529167 .529167 0 0 0 5.71553 3.990836 2.116667 1.455208 0 0 0 4.408116 3.578974L4.609 2.279 5.297 2.432A.396875 .396875 0 0 0 5.690209 2.780057 .396875 .396875 0 0 0 6.087084 2.383182 .396875 .396875 0 0 0 5.690209 1.986307 .396875 .396875 0 0 0 5.354312 2.172342L4.529 1.989a.132305 .132305 0 0 0 -.027389 -.00362M3.573542 4.367557a.396875 .396875 0 0 1 .396875 .396875 .396875 .396875 0 0 1 -.396875 .396875 .396875 .396875 0 0 1 -.396875 -.396875 .396875 .396875 0 0 1 .396875 -.396875m1.322917 0a.396875 .396875 0 0 1 .396875 .396875 .396875 .396875 0 0 1 -.396875 .396875 .396875 .396875 0 0 1 -.396875 -.396875 .396875 .396875 0 0 1 .396875 -.396875m.257348 1.318266a.132764 .132764 0 0 1 .10542 .225826c0 0-.087.092-.252.168C4.843 6.156 4.589 6.226 4.232 6.22 3.877 6.214 3.628 6.144 3.465 6.072 3.301 6 3.214 5.915 3.214 5.915a.132305 .132305 0 0 1 .082166 -.226343 .132305 .132305 0 0 1 .01292 -.000529 .132305 .132305 0 0 1 .094568 .041341c0 0 .038.042.168.1.13.057.343.119.666.125.321.005.529-.056.658-.115.129-.059.166-.105.166-.105a.132764 .132764 0 0 1 .091467 -.048059" fill="#fff" stroke-width=".265"/>

   xmlns:dc="http://purl.org/dc/elements/1.1/"
   xmlns:cc="http://creativecommons.org/ns#"
   xmlns:rdf="http://www.w3.org/1999/02/22-rdf-syntax-ns#"
   xmlns:svg="http://www.w3.org/2000/svg"
   xmlns="http://www.w3.org/2000/svg"
   xmlns:xlink="http://www.w3.org/1999/xlink"
   xmlns:sodipodi="http://sodipodi.sourceforge.net/DTD/sodipodi-0.dtd"
   xmlns:inkscape="http://www.inkscape.org/namespaces/inkscape"
   height="32"
   width="32"
   version="1"
   id="svg8"
   sodipodi:docname="snow-top-2.svg"
   inkscape:version="0.92.1 r"&gt;
  </svg>