<svg xmlns="http://www.w3.org/2000/svg" viewBox="0 0 32 32"><defs><linearGradient gradientTransform="matrix(-2.65552 0 0 2.58531 193.77-277.73)" id="0" x1="67.894" y1="108.69" x2="67.854" y2="113.11" gradientUnits="userSpaceOnUse"><stop stop-color="#f9f9f9"/><stop offset="1" stop-color="#999"/></linearGradient></defs><rect width="28.2" height="28.2" x="1.898" y="1.898" fill="#2a0001" fill-rule="evenodd" rx="5.575"/><g fill="#980001"><ellipse cx="11.553" cy="15.892" rx="4.89" ry="4.698" fill-opacity=".707"/><ellipse cx="12.803" cy="18.889" rx="4.89" ry="4.698" fill-opacity=".747"/><ellipse cx="16.1" cy="21.458" rx="6.449" ry="5.105" fill-opacity=".687"/><ellipse cx="14.574" cy="11.961" rx="4.89" ry="4.698" fill-opacity=".647"/><ellipse cx="18.12" cy="12.345" rx="4.89" ry="4.698" fill-opacity=".719"/><ellipse cx="19.762" cy="14.454" rx="4.517" ry="4.698" fill-opacity=".771"/><ellipse cx="11.937" cy="12.68" rx="4.89" ry="4.698" fill-opacity=".683"/></g><g fill-rule="evenodd"><ellipse cx="13.94" cy="14.411" rx="6.547" ry="6.531" fill="#fff"/><ellipse cx="17.09" cy="17.825" rx="8.06" ry="8.04" fill="#a40205"/><ellipse cx="17.13" cy="17.865" rx="7.953" ry="7.935" fill="#000205"/></g>

   xmlns:dc="http://purl.org/dc/elements/1.1/"
   xmlns:cc="http://creativecommons.org/ns#"
   xmlns:rdf="http://www.w3.org/1999/02/22-rdf-syntax-ns#"
   xmlns:svg="http://www.w3.org/2000/svg"
   xmlns="http://www.w3.org/2000/svg"
   xmlns:xlink="http://www.w3.org/1999/xlink"
   xmlns:sodipodi="http://sodipodi.sourceforge.net/DTD/sodipodi-0.dtd"
   xmlns:inkscape="http://www.inkscape.org/namespaces/inkscape"
   version="1"
   width="32"
   height="32"
   id="svg12"
   sodipodi:docname="snow-top-3.svg"
   inkscape:version="0.92.1 r"&gt;
  <path d="m24.627.009c8.36-.339 9.455 9.523 4.064 9.505-.686.003-1.62-.197-3-1.471-14.665-10.216-14.549 2.967-17.708.875-1.727-1.822-1.743 4.653-4.139 5.127-2.122.613-3.699-1.385-3.824-4.503-.366-8.627 4.086-9.427 7.187-9.524 5.974.133 11.562-.045 17.419-.01" fill="url(#0)"/></svg>