<svg xmlns="http://www.w3.org/2000/svg" viewBox="0 0 32 32"><rect width="28.2" height="28.2" x="1.898" y="1.898" fill="#426ea7" fill-rule="evenodd" rx="5.575"/><g transform="translate(.5.5)" fill="#fff"><path d="m22 13.761c-1.738 4.428-13.169 5.107-13.756 3.325-1.017-3.426 1.237-6.948 5.04-7.866 3.799-.918 7.703 1.116 8.721 4.541"/><path d="m22 15c0 0-9.428 6.822-15.479 4.638-1.052-.827.944-2.207.941-2.522-2.315.92-3.462 2.116-3.462 3.557.985 3.207 9.924-.32 11.41-.992 2.942-1.413 6.59-4.681 6.59-4.681"/><path d="m10 22c0 0 11.56-2.67 14.158-8.375.122-1.281-1.893-.799-2.123-1 3.239-1.485 5.121.042 4.954 1-.302 1.744-3.896 4.593-8.591 6.453-3.085 1.176-8.398 1.923-8.398 1.923"/></g>

   xmlns:dc="http://purl.org/dc/elements/1.1/"
   xmlns:cc="http://creativecommons.org/ns#"
   xmlns:rdf="http://www.w3.org/1999/02/22-rdf-syntax-ns#"
   xmlns:svg="http://www.w3.org/2000/svg"
   xmlns="http://www.w3.org/2000/svg"
   xmlns:sodipodi="http://sodipodi.sourceforge.net/DTD/sodipodi-0.dtd"
   xmlns:inkscape="http://www.inkscape.org/namespaces/inkscape"
   height="32"
   width="32"
   version="1"
   id="svg8"
   sodipodi:docname="star-mime-2.svg"
   inkscape:version="0.92.1 r"&gt;
  <g transform="translate(152.47 194.05)" fill="#fff"><path d="m-125.38-193.25l-.077 3.548 3.072 1.831-3.548-.077-3.135 6.791 1.38-7.268-3.072-1.831 3.548.077z"/><path d="m-125.41-183.04l.042-1.955-1.692-1.01 1.955.042 1.727-3.741-.76 4 1.692 1.01-1.955-.042z"/></g></svg>