<svg xmlns="http://www.w3.org/2000/svg" viewBox="0 0 32 32"><defs><linearGradient gradientTransform="matrix(-2.65552 0 0 2.58531 193.77-277.73)" id="0" x1="67.894" y1="108.69" x2="67.854" y2="113.11" gradientUnits="userSpaceOnUse"><stop stop-color="#f9f9f9"/><stop offset="1" stop-color="#999"/></linearGradient></defs><rect width="28.2" height="28.2" x="1.898" y="1.898" fill="#e74c3c" fill-rule="evenodd" rx="5.575"/><g transform="matrix(.72357 0 0 .72357 4.785 4.423)" stroke-width="1.382"><path d="m15.5 3c-4.694 0-8.5 3.813-8.5 8.517-.017 2.551 2.235 4.78 3.269 7.207.461 1.082 1.308 3.276 1.308 3.276h7.846c0 0 .847-2.194 1.308-3.276 1.034-2.427 3.224-4.684 3.269-7.207 0-4.704-3.806-8.517-8.5-8.517" fill="#fff"/><path d="m19.423 22l-1.308 5.7c-.161.702-.583 1.3-1.307 1.3h-2.615c-.724 0-1.156-.596-1.308-1.3l-1.308-5.7" fill="#4f4f4f"/><path d="m11.834 23l.223 1h6.886l.223-1zm.447 2l.223 1h5.992l.223-1zm.448 2l.156.699c.023.106.064.202.099.301h5.03c.036-.099.078-.195.101-.301l.156-.699" opacity=".2" fill="#fff"/></g>

   xmlns:dc="http://purl.org/dc/elements/1.1/"
   xmlns:cc="http://creativecommons.org/ns#"
   xmlns:rdf="http://www.w3.org/1999/02/22-rdf-syntax-ns#"
   xmlns:svg="http://www.w3.org/2000/svg"
   xmlns="http://www.w3.org/2000/svg"
   xmlns:xlink="http://www.w3.org/1999/xlink"
   xmlns:sodipodi="http://sodipodi.sourceforge.net/DTD/sodipodi-0.dtd"
   xmlns:inkscape="http://www.inkscape.org/namespaces/inkscape"
   version="1"
   width="32"
   height="32"
   id="svg12"
   sodipodi:docname="snow-top-3.svg"
   inkscape:version="0.92.1 r"&gt;
  <path d="m24.627.009c8.36-.339 9.455 9.523 4.064 9.505-.686.003-1.62-.197-3-1.471-14.665-10.216-14.549 2.967-17.708.875-1.727-1.822-1.743 4.653-4.139 5.127-2.122.613-3.699-1.385-3.824-4.503-.366-8.627 4.086-9.427 7.187-9.524 5.974.133 11.562-.045 17.419-.01" fill="url(#0)"/></svg>