<svg xmlns="http://www.w3.org/2000/svg" viewBox="0 0 32 32"><defs><linearGradient gradientTransform="matrix(2.59244 0 0 2.58531-157.93-277.73)" id="0" x1="67.894" y1="108.69" x2="67.854" y2="113.11" gradientUnits="userSpaceOnUse"><stop stop-color="#f9f9f9"/><stop offset="1" stop-color="#999"/></linearGradient></defs><g transform="translate(37.26 1.677)" fill-rule="evenodd"><rect y=".22" x="-35.36" height="28.2" width="28.2" fill="#008295" rx="5.575"/><path d="m-28.17 28.426v-28.2h-1.611c-3.089 0-5.574 2.486-5.574 5.574v17.05c0 3.089 2.486 5.576 5.574 5.576z" fill="#006877"/><path d="m-17.785 7.322c-2.953 0-5.477 1.837-6.495 4.421-.054.131-.102.266-.148.401-.009.028-.02.055-.028.083-.221.677-.348 1.395-.348 2.145 0 3.834 3.131 6.95 6.981 6.95 2.925 0 5.431-1.8 6.469-4.345 0-.001.001-.001.001-.002.075-.175.137-.356.198-.538.225-.682.352-1.409.352-2.165 0-3.833-3.131-6.95-6.981-6.95m-.502 1.085v2.339c-.667-.023-1.304-.094-1.893-.205.088-.206.181-.405.282-.586.466-.836 1.029-1.357 1.611-1.548m.997.039c.052.009.106.015.158.024.525.229 1.03.725 1.454 1.485.099.178.19.373.278.575-.586.114-1.223.188-1.889.214v-2.299m-3.125.479c-.125.174-.246.354-.354.549-.145.259-.274.541-.393.834-.292-.085-.562-.182-.814-.286.455-.445.983-.814 1.562-1.096zm5.361.149c.272.109.481.21.69.312.266.185.516.389.748.614-.249.105-.517.203-.806.29-.117-.287-.244-.562-.386-.816-.077-.139-.161-.27-.246-.399m2.09 1.675c.636.862 1.044 1.899 1.137 3.03h-1.877c-.037-.908-.173-1.766-.394-2.547.398-.122.772-.261 1.114-.42.009-.022.014-.042.02-.063m-9.691.066c.358.166.752.309 1.171.434-.218.776-.353 1.628-.39 2.529h-1.871c.091-1.101.48-2.115 1.089-2.964m7.589.662c.198.695.327 1.473.364 2.302h-2.588v-2.042c.783-.029 1.532-.117 2.224-.26m-5.448.015c.694.139 1.443.223 2.227.247v2.04h-2.587c.037-.822.164-1.595.36-2.287m-3.229 3.28h1.871c.037.926.178 1.801.407 2.594-.41.121-.794.262-1.146.422-.632-.859-1.038-1.891-1.132-3.02m2.869 0h2.587v2.11c-.777.024-1.521.106-2.209.243-.207-.708-.34-1.505-.378-2.353m3.584 0h2.588c-.038.854-.173 1.656-.382 2.367-.687-.141-1.43-.228-2.207-.256v-2.111m3.586 0h1.877c-.095 1.138-.509 2.181-1.154 3.046-.002-.003-.002-.007-.004-.01-.347-.161-.727-.302-1.132-.425.232-.797.374-1.679.412-2.612m-4.584 3.102v2.269c-.581-.192-1.144-.711-1.611-1.546-.091-.163-.174-.339-.255-.523.582-.108 1.209-.177 1.866-.2m.997.002c.656.026 1.283.097 1.863.208-.079.179-.162.352-.251.512-.466.836-1.03 1.355-1.612 1.546v-2.267m-3.846.429c.112.27.233.532.367.773.106.19.222.366.343.536-.55-.27-1.052-.619-1.491-1.036.244-.098.501-.192.781-.272m6.69.018c.277.082.531.176.772.275-.436.41-.933.754-1.477 1.02.122-.171.238-.349.345-.54.132-.236.25-.491.36-.755" fill="#fff"/></g>

   xmlns:dc="http://purl.org/dc/elements/1.1/"
   xmlns:cc="http://creativecommons.org/ns#"
   xmlns:rdf="http://www.w3.org/1999/02/22-rdf-syntax-ns#"
   xmlns:svg="http://www.w3.org/2000/svg"
   xmlns="http://www.w3.org/2000/svg"
   xmlns:xlink="http://www.w3.org/1999/xlink"
   xmlns:sodipodi="http://sodipodi.sourceforge.net/DTD/sodipodi-0.dtd"
   xmlns:inkscape="http://www.inkscape.org/namespaces/inkscape"
   version="1"
   width="32"
   height="32"
   id="svg12"
   sodipodi:docname="snow-top-4.svg"
   inkscape:version="0.92.1 r"&gt;
  <path d="m7.196.009c-8.161-.339-9.231 9.523-3.968 9.505.669.003 1.581-.197 2.929-1.471 3.773-4.147 9.01 4.479 14.696-1.042.61-.911 1.804-1.135 2.455-.627 1.045.677 2.87 2.991 3.88 3 2.359.513 4.095-.198 4.816-3.188.185-3.165-2.303-6.286-6.281-6.17-5.832.133-12.809-.045-18.527-.01" fill="url(#0)"/></svg>