<svg xmlns="http://www.w3.org/2000/svg" xmlns:xlink="http://www.w3.org/1999/xlink" viewBox="0 0 32 32"><defs><linearGradient gradientTransform="matrix(-2.54182 0 0 2.58531 185.47-277.37)" id="1" x1="67.894" y1="108.69" x2="67.854" y2="113.11" gradientUnits="userSpaceOnUse"><stop stop-color="#f9f9f9"/><stop offset="1" stop-color="#999"/></linearGradient></defs><g fill-rule="evenodd"><g fill="#a0002f"><rect width="28.2" height="28.2" x="1.898" y="1.898" rx="5.575"/><path d="m9.707 30.1l6.293-14.1-14.1-6.293v14.82c0 3.089 2.486 5.574 5.574 5.574z"/></g><path d="m30.1 22.293l-14.1-6.293-6.293 14.1h14.82c3.089 0 5.574-2.486 5.574-5.574z" fill="#c3283a"/><path d="m22.293 1.898l-6.293 14.1 14.1 6.293v-14.82c0-3.089-2.486-5.574-5.574-5.574z" fill="#a0002f"/><path d="m1.898 9.707l14.1 6.293 6.293-14.1h-14.82c-3.089 0-5.574 2.486-5.574 5.574z" fill="#c3283a"/></g><path d="m7.219 22.757v-2.024h2.024 2.024v2.024 2.024h-2.024-2.024zm4.733 0v-2.024h2.024 2.024v2.024 2.024h-2.024-2.024m4.733-2.024v-2.024h2.024 2.024v2.024 2.024h-2.024-2.024zm-9.467-4.733v-2.024h2.024 2.024v2.024 2.024h-2.024-2.024zm4.733 0v-2.024h2.024 2.024v2.024 2.024h-2.024-2.024m7.536-4.069c-.355-1.049-.639-1.913-.632-1.92.017-.017 3.765-1.283 3.797-1.283.028 0 1.322 3.803 1.3 3.82-.009.007-3.14 1.065-3.786 1.279-.019.006-.324-.847-.679-1.897zm-12.269-2.688v-2.024h2.024 2.024v2.024 2.024h-2.024-2.024zm7.624-1.505c-.872-.634-1.602-1.17-1.623-1.191-.028-.028.276-.471 1.13-1.646.642-.884 1.183-1.613 1.201-1.619.028-.009 3.08 2.179 3.221 2.31.039.036-.153.318-1.125 1.658-.645.888-1.183 1.621-1.196 1.628-.013.007-.737-.506-1.609-1.14m5.889-2.542v-2.024h2.024 2.024v2.024 2.024h-2.024-2.024z" fill="#fff"/>

   xmlns:dc="http://purl.org/dc/elements/1.1/"
   xmlns:cc="http://creativecommons.org/ns#"
   xmlns:rdf="http://www.w3.org/1999/02/22-rdf-syntax-ns#"
   xmlns:svg="http://www.w3.org/2000/svg"
   xmlns="http://www.w3.org/2000/svg"
   xmlns:xlink="http://www.w3.org/1999/xlink"
   xmlns:sodipodi="http://sodipodi.sourceforge.net/DTD/sodipodi-0.dtd"
   xmlns:inkscape="http://www.inkscape.org/namespaces/inkscape"
   height="32"
   width="32"
   version="1"
   id="svg8"
   sodipodi:docname="snow-top-3.svg"
   inkscape:version="0.92.1 r"&gt;
  <path fill="#00000f" fill-opacity="0" d="m0 0h32v32h-32z" id="0"/><path d="m7.354 6.111c-2.995 2.684-1.381 7.817-3.674 8.291-2.031.613-3.541-1.385-3.66-4.503-.35-8.627 3.911-9.427 6.879-9.524 28.342-2.047 1.762 4.92.455 5.736" fill="url(#1)"/><use xlink:href="#0"/></svg>