<svg xmlns="http://www.w3.org/2000/svg" viewBox="0 0 32 32"><g transform="translate(42.32 1.895)" fill-rule="evenodd"><path d="m-26.316 28.21h8.527c3.089 0 5.574-2.488 5.574-5.576v-17.05c0-3.089-2.486-5.574-5.574-5.574h-8.527z" fill="#ccc"/><path d="m-26.316 28.21v-28.2h-8.525c-3.089 0-5.576 2.486-5.576 5.574v17.05c0 3.089 2.488 5.576 5.576 5.576z" fill="#aeaeae"/></g><g transform="translate(42.42 1.895)"><g transform="translate(-42.11-.842)"><path opacity=".6" d="m4 6h6v1h-6z"/><path opacity=".6" d="m4 9h9v1h-9z"/><path opacity=".6" d="m4 12h10v1h-10z"/><path opacity=".6" d="m4 15h7v1h-7z"/><path opacity=".6" d="m4 18h9v1h-9z"/></g><path d="m-24.737 5.105v18h3v-8l3 8h3.999v-3h-2l-2-5h4v-10m-7 3h4v4h-4z" fill="#c2352a"/></g>

   xmlns:dc="http://purl.org/dc/elements/1.1/"
   xmlns:cc="http://creativecommons.org/ns#"
   xmlns:rdf="http://www.w3.org/1999/02/22-rdf-syntax-ns#"
   xmlns:svg="http://www.w3.org/2000/svg"
   xmlns="http://www.w3.org/2000/svg"
   xmlns:sodipodi="http://sodipodi.sourceforge.net/DTD/sodipodi-0.dtd"
   xmlns:inkscape="http://www.inkscape.org/namespaces/inkscape"
   height="32"
   width="32"
   version="1"
   id="svg8"
   sodipodi:docname="star-mime-2.svg"
   inkscape:version="0.92.1 r"&gt;
  <g transform="translate(152.47 194.05)" fill="#fff"><path d="m-125.38-193.25l-.077 3.548 3.072 1.831-3.548-.077-3.135 6.791 1.38-7.268-3.072-1.831 3.548.077z"/><path d="m-125.41-183.04l.042-1.955-1.692-1.01 1.955.042 1.727-3.741-.76 4 1.692 1.01-1.955-.042z"/></g></svg>