<svg xmlns="http://www.w3.org/2000/svg" viewBox="0 0 32 32"><defs><linearGradient gradientTransform="matrix(-2.65552 0 0 2.58531 193.77-277.73)" id="0" x1="67.894" y1="108.69" x2="67.854" y2="113.11" gradientUnits="userSpaceOnUse"><stop stop-color="#f9f9f9"/><stop offset="1" stop-color="#999"/></linearGradient></defs><g fill-rule="evenodd"><g fill="#52845f"><rect width="28.2" height="28.2" x="1.898" y="1.898" rx="5.575"/><path d="m23 30.1v-11.811-3.605-1.498h-14v4h8.6c.387 0 .737.157.99.41.253.253.41.602.41.988v11.516h4"/></g><path d="m26 29.805v-11.514-3.605-2.803c0-.462-.197-.885-.508-1.193-.311-.309-.736-.502-1.191-.502h-16.602c-.455 0-.88.193-1.191.502-.311.309-.508.732-.508 1.193v6.607c0 .462.197.889.508 1.199.311.31.736.504 1.191.498h8.301v9.914h3v-11.516c0-.387-.157-.735-.41-.988-.253-.253-.604-.41-.99-.41h-8.6v-4h14v1.498 3.605 11.811h1.527c.523 0 .993-.163 1.473-.297" fill="#fbc295"/><path d="m7.473 1.898c-3.089 0-5.574 2.486-5.574 5.574v17.05c0 3.089 2.486 5.574 5.574 5.574h8.527v-9.914h-8.301c-.455.006-.88-.188-1.191-.498-.311-.31-.508-.738-.508-1.199v-6.607c0-.462.197-.885.508-1.193.311-.309.736-.502 1.191-.502h16.602c.455 0 .88.193 1.191.502.311.309.508.732.508 1.193v2.803 3.605 11.514c2.351-.655 4.102-2.712 4.102-5.277v-17.05c0-3.089-2.486-5.574-5.574-5.574h-17.05" fill="#52845f"/></g>

   xmlns:dc="http://purl.org/dc/elements/1.1/"
   xmlns:cc="http://creativecommons.org/ns#"
   xmlns:rdf="http://www.w3.org/1999/02/22-rdf-syntax-ns#"
   xmlns:svg="http://www.w3.org/2000/svg"
   xmlns="http://www.w3.org/2000/svg"
   xmlns:xlink="http://www.w3.org/1999/xlink"
   xmlns:sodipodi="http://sodipodi.sourceforge.net/DTD/sodipodi-0.dtd"
   xmlns:inkscape="http://www.inkscape.org/namespaces/inkscape"
   version="1"
   width="32"
   height="32"
   id="svg12"
   sodipodi:docname="snow-top-3.svg"
   inkscape:version="0.92.1 r"&gt;
  <path d="m24.627.009c8.36-.339 9.455 9.523 4.064 9.505-.686.003-1.62-.197-3-1.471-14.665-10.216-14.549 2.967-17.708.875-1.727-1.822-1.743 4.653-4.139 5.127-2.122.613-3.699-1.385-3.824-4.503-.366-8.627 4.086-9.427 7.187-9.524 5.974.133 11.562-.045 17.419-.01" fill="url(#0)"/></svg>