<svg xmlns="http://www.w3.org/2000/svg" viewBox="0 0 32 32"><defs><linearGradient gradientTransform="matrix(2.62891 0 0 2.71269-160.16-291.42)" id="0" x1="67.894" y1="108.69" x2="67.854" y2="113.11" gradientUnits="userSpaceOnUse"><stop stop-color="#f9f9f9"/><stop offset="1" stop-color="#999"/></linearGradient></defs><g fill-rule="evenodd"><g fill="#7bc9a4"><rect width="27.26" height="27.26" x="2.372" y="2.372" rx="5.388"/><path d="m14.912 1.897c1.029.055 2.037.203 2.941.57 1.046.425 1.988 1.041 2.779 1.801.791.76 1.431 1.665 1.873 2.67.442 1.01.688 2.109.688 3.27 0 1.083-.375 2.303-1.035 3.469-.661 1.166-1.607 2.279-2.754 3.152l-2.709-3.719c-.399-.611-.95-1.102-1.588-1.441-.638-.339-1.364-.527-2.115-.527-.601 0-1.173.118-1.695.332-.523.214-.994.523-1.391.904-.396.381-.717.834-.939 1.336-.222.502-.346 1.054-.346 1.631v.002c.002.866.282 1.708.803 2.416l.002.002v.002l.613.844h-1.418v6.535c0 .434-.1.826-.277 1.17-.178.344-.434.639-.746.881-.624.483-1.473.75-2.377.75-.903 0-1.755-.267-2.379-.75-.224-.173-.375-.404-.533-.631.813 2.069 2.802 3.537 5.166 3.537h17.05c3.089 0 5.574-2.488 5.574-5.576v-17.05c0-3.089-2.486-5.576-5.574-5.576zm-1.92 10.18c.554.001 1.091.13 1.568.369.477.239.897.589 1.215 1.025l6.801 9.334c.401.548.616 1.203.617 1.873 0 .451-.095.881-.268 1.271-.172.391-.421.744-.729 1.039-.308.296-.673.534-1.08.699-.407.165-.855.258-1.324.258-.554-.001-1.091-.132-1.568-.371-.477-.239-.895-.587-1.213-1.023l-6.801-9.336c-.401-.548-.618-1.203-.619-1.873 0-.451.095-.881.268-1.271.172-.391.421-.744.729-1.039.308-.296.675-.534 1.082-.699.407-.165.853-.256 1.322-.256"/></g><path d="m12.992 12.08c-.47 0-.915.091-1.322.256-.407.165-.774.404-1.082.699-.308.296-.556.648-.729 1.039-.172.391-.268.82-.268 1.271.001.67.218 1.325.619 1.873l6.801 9.336c.318.436.736.784 1.213 1.023.477.239 1.014.37 1.568.371.47 0 .917-.093 1.324-.258.407-.165.772-.404 1.08-.699.308-.296.556-.648.729-1.039.172-.391.268-.82.268-1.271-.001-.67-.216-1.325-.617-1.873l-6.801-9.334c-.318-.436-.737-.786-1.215-1.025-.477-.239-1.014-.368-1.568-.369" fill="#b47bb5"/><path d="m8 1.897c.46.373.861.816 1.133 1.336.29.555.455 1.18.455 1.842 0 .577-.124 1.129-.346 1.631-.222.502-.543.955-.939 1.336-.396.381-.866.689-1.389.902-.523.214-1.097.332-1.697.332-.689 0-1.338-.158-1.916-.438-.547-.265-1.015-.652-1.406-1.102v16.789c0 .724.161 1.405.41 2.039.158.226.31.458.533.631.624.483 1.476.75 2.379.75.904 0 1.753-.267 2.377-.75.312-.242.568-.537.746-.881.178-.344.277-.736.277-1.17v-6.535h1.418l-.613-.844v-.002l-.002-.002c-.521-.708-.801-1.55-.803-2.416v-.002c0-.577.124-1.129.346-1.631.222-.502.543-.955.939-1.336.396-.381.868-.691 1.391-.904.523-.214 1.095-.332 1.695-.332.752 0 1.477.188 2.115.527.638.339 1.189.83 1.588 1.441l2.709 3.719c1.146-.873 2.093-1.986 2.754-3.152.661-1.166 1.035-2.386 1.035-3.469 0-1.16-.245-2.264-.688-3.27-.442-1.01-1.082-1.91-1.873-2.67-.791-.76-1.733-1.376-2.779-1.801-.904-.367-1.912-.516-2.941-.57" fill="#fff"/><path d="m2.115 6.399c-.072.36-.217.693-.217 1.074v.264c.391.449.859.837 1.406 1.102.578.279 1.227.438 1.916.438.601 0 1.175-.118 1.697-.332.523-.214.992-.521 1.389-.902.396-.381.717-.834.939-1.336.222-.502.346-1.054.346-1.631 0-.662-.165-1.287-.455-1.842-.272-.52-.672-.963-1.133-1.336h-.529c-.322 0-.6.13-.906.182a3.400591 3.267309 0 0 1 .19336 .083984 3.400591 3.267309 0 0 1 .294922 .162109 3.400591 3.267309 0 0 1 .277344 .189453 3.400591 3.267309 0 0 1 .255859 .216797 3.400591 3.267309 0 0 1 .230469 .238281 3.400591 3.267309 0 0 1 .207031 .259766 3.400591 3.267309 0 0 1 .177734 .279297 3.400591 3.267309 0 0 1 .146485 .292969 3.400591 3.267309 0 0 1 .117187 .306641 3.400591 3.267309 0 0 1 .08398 .316406 3.400591 3.267309 0 0 1 .05078 .324219 3.400591 3.267309 0 0 1 .01758 .326172 3.400591 3.267309 0 0 1 -.0078 .230469 3.400591 3.267309 0 0 1 -.04102 .324219 3.400591 3.267309 0 0 1 -.07617 .318359 3.400591 3.267309 0 0 1 -.105469 .310547 3.400591 3.267309 0 0 1 -.140625 .298828 3.400591 3.267309 0 0 1 -.167969 .283203 3.400591 3.267309 0 0 1 -.197265 .265625 3.400591 3.267309 0 0 1 -.22461 .244141 3.400591 3.267309 0 0 1 -.25 .222656 3.400591 3.267309 0 0 1 -.269531 .199219 3.400591 3.267309 0 0 1 -.291016 .169922 3.400591 3.267309 0 0 1 -.304687 .142578 3.400591 3.267309 0 0 1 -.320313 .111328 3.400591 3.267309 0 0 1 -.328124 .080078 3.400591 3.267309 0 0 1 -.335938 .048828 3.400591 3.267309 0 0 1 -.339844 .017578 3.400591 3.267309 0 0 1 -.242187 -.007813 3.400591 3.267309 0 0 1 -.337891 -.041016 3.400591 3.267309 0 0 1 -.330078 -.070313 3.400591 3.267309 0 0 1 -.324219 -.103516 3.400591 3.267309 0 0 1 -.308593 -.132813 3.400591 3.267309 0 0 1 -.294922 -.164062 3.400591 3.267309 0 0 1 -.277344 -.189453 3.400591 3.267309 0 0 1 -.25586 -.214844 3.400591 3.267309 0 0 1 -.230468 -.240234 3.400591 3.267309 0 0 1 -.207032 -.259766 3.400591 3.267309 0 0 1 -.175781 -.277344 3.400591 3.267309 0 0 1 -.121093 -.242188" fill="#7bc9a4"/><path d="M2.115246 6.399412A3.400591 3.267309 0 0 0 2.236339 6.641599 3.400591 3.267309 0 0 0 2.41212 6.918943 3.400591 3.267309 0 0 0 2.619152 7.178709 3.400591 3.267309 0 0 0 2.84962 7.418943 3.400591 3.267309 0 0 0 3.10548 7.633787 3.400591 3.267309 0 0 0 3.382824 7.82324 3.400591 3.267309 0 0 0 3.677746 7.987303 3.400591 3.267309 0 0 0 3.986339 8.120115 3.400591 3.267309 0 0 0 4.310558 8.223631 3.400591 3.267309 0 0 0 4.640636 8.293943 3.400591 3.267309 0 0 0 4.978527 8.334959 3.400591 3.267309 0 0 0 5.220714 8.342769 3.400591 3.267309 0 0 0 5.560558 8.325194 3.400591 3.267309 0 0 0 5.896496 8.276366 3.400591 3.267309 0 0 0 6.22462 8.196288 3.400591 3.267309 0 0 0 6.544933 8.08496 3.400591 3.267309 0 0 0 6.84962 7.942382 3.400591 3.267309 0 0 0 7.140636 7.77246 3.400591 3.267309 0 0 0 7.410167 7.573241 3.400591 3.267309 0 0 0 7.660167 7.350585 3.400591 3.267309 0 0 0 7.884777 7.106444 3.400591 3.267309 0 0 0 8.08204 6.840819 3.400591 3.267309 0 0 0 8.250011 6.557616 3.400591 3.267309 0 0 0 8.390636 6.258788 3.400591 3.267309 0 0 0 8.496105 5.948241 3.400591 3.267309 0 0 0 8.572275 5.629882 3.400591 3.267309 0 0 0 8.613295 5.305663 3.400591 3.267309 0 0 0 8.621095 5.075194 3.400591 3.267309 0 0 0 8.603515 4.749022 3.400591 3.267309 0 0 0 8.552735 4.424803 3.400591 3.267309 0 0 0 8.468755 4.108397 3.400591 3.267309 0 0 0 8.351568 3.801756 3.400591 3.267309 0 0 0 8.205083 3.508788 3.400591 3.267309 0 0 0 8.02735 3.229491 3.400591 3.267309 0 0 0 7.820318 2.969725 3.400591 3.267309 0 0 0 7.589849 2.731444 3.400591 3.267309 0 0 0 7.33399 2.514647 3.400591 3.267309 0 0 0 7.05665 2.325194 3.400591 3.267309 0 0 0 6.761724 2.163084 3.400591 3.267309 0 0 0 6.568364 2.0791C4.296 2.463 2.568 4.151 2.115 6.399" fill="#b47bb5"/></g>

   xmlns:dc="http://purl.org/dc/elements/1.1/"
   xmlns:cc="http://creativecommons.org/ns#"
   xmlns:rdf="http://www.w3.org/1999/02/22-rdf-syntax-ns#"
   xmlns:svg="http://www.w3.org/2000/svg"
   xmlns="http://www.w3.org/2000/svg"
   xmlns:xlink="http://www.w3.org/1999/xlink"
   xmlns:sodipodi="http://sodipodi.sourceforge.net/DTD/sodipodi-0.dtd"
   xmlns:inkscape="http://www.inkscape.org/namespaces/inkscape"
   version="1"
   width="32"
   height="32"
   id="svg12"
   sodipodi:docname="snow-top-1.svg"
   inkscape:version="0.92.1 r"&gt;
  <path d="m7.288.009c-8.276-.356-9.36 9.992-4.02 9.973.679.003 1.604-.207 2.97-1.543 7.256-10.531 14.706 3.573 17.53.919 1.71-1.912 3.496-.418 4.448.115 2.1.643 3.662.041 3.785-3.231.188-3.321-1.889-6.344-5.923-6.223-5.914.14-12.989-.047-18.787-.01" fill="url(#0)"/><path fill="#f00" fill-opacity="0" d="m0 0h32v32h-32z"/></svg>