<svg xmlns="http://www.w3.org/2000/svg" viewBox="0 0 32 32"><defs><linearGradient gradientTransform="matrix(2.59244 0 0 2.58531-157.93-277.73)" id="0" x1="67.894" y1="108.69" x2="67.854" y2="113.11" gradientUnits="userSpaceOnUse"><stop stop-color="#f9f9f9"/><stop offset="1" stop-color="#999"/></linearGradient></defs><rect width="28.2" height="28.2" x="1.898" y="1.898" fill="#ccc" fill-rule="evenodd" rx="5.575"/><path d="M16 6.9877A12 8.5 0 0 0 4 15.4877a12 8.5 0 0 0 12 8.5 12 8.5 0 0 0 12 -8.5 12 8.5 0 0 0 -12 -8.5m2 3a9 5.5 0 0 1 9 5.5 9 5.5 0 0 1 -9 5.5 9 5.5 0 0 1 -9 -5.5 9 5.5 0 0 1 9 -5.5" fill="#808080"/><path d="m23.1 19.488c0 0 .387-.111.773.086.134.068.366.205.533.385.164.176.244.354.244.354l2.35 4.7h-5c0 0-1.117-3.266-2.163-4.664-.208-.17-.382-.352-.587-.336h-1.25v4.997h-4v-13.997h7.578c.822 0 4.3.5 4.422 4-.122 3.5-2.9 4.5-2.9 4.5zm-5.1-5.501v3h3c0 0 1 .036 1-1.5 0-1.613-1-1.499-1-1.499z" fill="#1e62b2" fill-rule="evenodd"/>

   xmlns:dc="http://purl.org/dc/elements/1.1/"
   xmlns:cc="http://creativecommons.org/ns#"
   xmlns:rdf="http://www.w3.org/1999/02/22-rdf-syntax-ns#"
   xmlns:svg="http://www.w3.org/2000/svg"
   xmlns="http://www.w3.org/2000/svg"
   xmlns:xlink="http://www.w3.org/1999/xlink"
   xmlns:sodipodi="http://sodipodi.sourceforge.net/DTD/sodipodi-0.dtd"
   xmlns:inkscape="http://www.inkscape.org/namespaces/inkscape"
   version="1"
   width="32"
   height="32"
   id="svg12"
   sodipodi:docname="snow-top-4.svg"
   inkscape:version="0.92.1 r"&gt;
  <path d="m7.196.009c-8.161-.339-9.231 9.523-3.968 9.505.669.003 1.581-.197 2.929-1.471 3.773-4.147 9.01 4.479 14.696-1.042.61-.911 1.804-1.135 2.455-.627 1.045.677 2.87 2.991 3.88 3 2.359.513 4.095-.198 4.816-3.188.185-3.165-2.303-6.286-6.281-6.17-5.832.133-12.809-.045-18.527-.01" fill="url(#0)"/></svg>