<svg xmlns="http://www.w3.org/2000/svg" viewBox="0 0 32 32"><rect width="28.2" height="28.2" x="1.898" y="1.898" fill="#007eff" fill-rule="evenodd" rx="5.575"/><g transform="matrix(.91817 0 0 .91817 42.97 1.618)" stroke-width="1.089"><path d="m-29.61 6.094c-1 .001-2.01.059-2.954.187-1.396.189-2.694.515-3.87 1.021-1.345.556-2.314 1.346-2.646 2.195-.19.498-.14.501-.152.581-.012.08-.017.125-.021.167-.049.371-.03.737-.021 1.088.658 3.536 2.117 7.648 4.088 10.113.591.712 1.045 1.184 1.84 1.808.781.612 1.549 1.084 2.51 1.548.104.05.199.095.282.134.042.019.078.036.127.057.025.011.049.022.106.044.028.011.061.025.14.052.04.013.088.03.187.056.05.013.209.047.21.047 0 0 .489.044.489.044.001 0 .499-.043.609-.068.11-.025.173-.045.224-.061.102-.032.15-.052.191-.068.081-.032.12-.051.158-.068.076-.034.133-.061.196-.092.127-.062.27-.134.421-.211 1.022-.443 1.929-1.228 2.754-1.843.216-.191.377-.356.616-.6l.004-.004c2.87-2.937 4.134-6.768 4.64-10.887.089-.71-.095-1.464-.195-1.836-.288-.892-.926-1.267-1.625-1.69-.314-.176-.652-.346-1.02-.505-1.176-.506-2.474-.832-3.87-1.021-1.024-.139-2.124-.196-3.211-.186-.067-.001-.135-.001-.203-.001" fill="#f2f2f2"/><path d="m-29.602 8.828c-.894.001-1.798.055-2.588.162-1.196.162-2.272.443-3.157.823-.5.215-1.138.574-1.17.657-.011.028-.027.266-.036.529.068.55.149 1.087.244 1.61.045.324.177.976.305 1.482.182.714.299.961.597 1.257.181.179.318.275.59.409.393.194.854.322 1.69.468.516.09 1.01.207 1.415.338 2.591.833 4.872 2.706 4.985 4.094.008.094.019.186.024.204.015.047.178-.097.625-.552 2.328-2.382 3.414-5.52 3.88-9.31-.009-.263-.025-.501-.036-.529-.032-.084-.67-.442-1.17-.657-.885-.381-1.961-.661-3.157-.823-.857-.116-1.849-.17-2.816-.161-.076-.001-.151-.001-.227-.001m-4.353 8.281c-.158-.001-.281.008-.349.028-.059.017-.144.068-.19.114-.126.126-.106.237.104.588.385.642.859 1.312 1.314 1.861.281.338 1.118 1.164 1.423 1.403.676.53 1.144.818 2.01 1.235.185.089.343.162.351.162.039 0 1.01-.499 1.255-.644.429-.255.758-.48.843-.577.042-.048.104-.147.138-.22.12-.261.069-.609-.14-.961-.722-1.218-3.03-2.435-5.394-2.849-.495-.087-1.016-.138-1.365-.14" fill="#0087db"/></g><g transform="matrix(.77622 0 0 .77622 4.741 4.301)" stroke-width="1.288"><circle r="5" cy="7" cx="6" fill="#e6e6e6"/><circle cx="6" cy="7" r="3" fill="#4f4f4f"/></g>

   xmlns:dc="http://purl.org/dc/elements/1.1/"
   xmlns:cc="http://creativecommons.org/ns#"
   xmlns:rdf="http://www.w3.org/1999/02/22-rdf-syntax-ns#"
   xmlns:svg="http://www.w3.org/2000/svg"
   xmlns="http://www.w3.org/2000/svg"
   xmlns:sodipodi="http://sodipodi.sourceforge.net/DTD/sodipodi-0.dtd"
   xmlns:inkscape="http://www.inkscape.org/namespaces/inkscape"
   height="32"
   width="32"
   version="1"
   id="svg8"
   sodipodi:docname="star-mime-2.svg"
   inkscape:version="0.92.1 r"&gt;
  <g transform="translate(152.47 194.05)" fill="#fff"><path d="m-125.38-193.25l-.077 3.548 3.072 1.831-3.548-.077-3.135 6.791 1.38-7.268-3.072-1.831 3.548.077z"/><path d="m-125.41-183.04l.042-1.955-1.692-1.01 1.955.042 1.727-3.741-.76 4 1.692 1.01-1.955-.042z"/></g></svg>