<svg xmlns="http://www.w3.org/2000/svg" viewBox="0 0 32 32"><defs><linearGradient gradientTransform="matrix(-2.65552 0 0 2.58531 193.77-277.73)" id="0" x1="67.894" y1="108.69" x2="67.854" y2="113.11" gradientUnits="userSpaceOnUse"><stop stop-color="#f9f9f9"/><stop offset="1" stop-color="#999"/></linearGradient></defs><rect width="28.2" height="28.2" x="1.898" y="1.898" fill="#c1272d" fill-rule="evenodd" rx="5.575"/><g transform="translate(41.16.316)"><path d="m-34.744 6.738c.754 1.056 1.299 3.086 1.594 5.424a9.586345 6.390896 0 0 0 -1.594387 3.522445 9.586345 6.390896 0 0 0 1.683147 3.606273c-.249 2.303-.789 4.297-1.683 5.34 2.6 0 4.933-1.116 6.568-2.886a9.586345 6.390896 0 0 0 3.01783 .330383 9.586345 6.390896 0 0 0 9.586047 -6.390698 9.586345 6.390896 0 0 0 -9.586047 -6.390699 9.586345 6.390896 0 0 0 -3.01619 .333671c-1.635-1.772-3.969-2.89-6.57-2.89" fill="#fff"/><path d="m-25.16 10.571c-2.417 0-4.585.668-6.07 1.658-1.485.99-2.238 2.208-2.238 3.454.003.9.4 1.82 1.294 2.689a1.278307 1.278307 0 0 1 .380709 1.054747c-.138 1.28-.345 2.475-.684 3.542 1.296-.406 2.457-1.112 3.36-2.091a1.278307 1.278307 0 0 1 1.218264 -.380707c.878.196 1.807.298 2.741.3 2.416 0 4.583-.668 6.068-1.658 1.485-.99 2.238-2.208 2.238-3.455 0-1.247-.753-2.465-2.238-3.455-1.485-.99-3.653-1.658-6.07-1.658" fill="#c1272d"/><path d="m-28.992433 14.406032a1.278179 1.278179 0 0 0 -1.278179 1.278179 1.278179 1.278179 0 0 0 1.278179 1.278179 1.278179 1.278179 0 0 0 1.27818 -1.278179 1.278179 1.278179 0 0 0 -1.27818 -1.278179m3.834538 0a1.278179 1.278179 0 0 0 -1.278179 1.278179 1.278179 1.278179 0 0 0 1.278179 1.278179 1.278179 1.278179 0 0 0 1.278179 -1.278179 1.278179 1.278179 0 0 0 -1.278179 -1.278179m3.834538 0a1.278179 1.278179 0 0 0 -1.27818 1.278179 1.278179 1.278179 0 0 0 1.27818 1.278179 1.278179 1.278179 0 0 0 1.278179 -1.278179 1.278179 1.278179 0 0 0 -1.278179 -1.278179" fill="#fff"/></g>

   xmlns:dc="http://purl.org/dc/elements/1.1/"
   xmlns:cc="http://creativecommons.org/ns#"
   xmlns:rdf="http://www.w3.org/1999/02/22-rdf-syntax-ns#"
   xmlns:svg="http://www.w3.org/2000/svg"
   xmlns="http://www.w3.org/2000/svg"
   xmlns:xlink="http://www.w3.org/1999/xlink"
   xmlns:sodipodi="http://sodipodi.sourceforge.net/DTD/sodipodi-0.dtd"
   xmlns:inkscape="http://www.inkscape.org/namespaces/inkscape"
   version="1"
   width="32"
   height="32"
   id="svg12"
   sodipodi:docname="snow-top-3.svg"
   inkscape:version="0.92.1 r"&gt;
  <path d="m24.627.009c8.36-.339 9.455 9.523 4.064 9.505-.686.003-1.62-.197-3-1.471-14.665-10.216-14.549 2.967-17.708.875-1.727-1.822-1.743 4.653-4.139 5.127-2.122.613-3.699-1.385-3.824-4.503-.366-8.627 4.086-9.427 7.187-9.524 5.974.133 11.562-.045 17.419-.01" fill="url(#0)"/></svg>