<svg xmlns="http://www.w3.org/2000/svg" viewBox="0 0 32 32"><defs><clipPath><circle cx="286" cy="26" r="10" fill="none"/></clipPath><linearGradient gradientTransform="matrix(2.54182 0 0 2.58531-153.47-277.37)" id="0" x1="67.894" y1="108.69" x2="67.854" y2="113.11" gradientUnits="userSpaceOnUse"><stop stop-color="#f9f9f9"/><stop offset="1" stop-color="#999"/></linearGradient></defs><rect width="28.2" height="28.2" x="1.898" y="1.898" fill="#37a0f2" fill-rule="evenodd" rx="5.575"/><g fill="#fff"><path d="m-16.725 11.189a1.5 1.5 0 0 0 -1.5 1.5 1.5 1.5 0 0 0 .45508 1.0742l-1.816 3.934a1.5 1.5 0 0 0 -.13867 -.0078 1.5 1.5 0 0 0 -1.1602 .55469l-4.242-1.514a1.5 1.5 0 0 0 -.43555 -1 1.5 1.5 0 0 0 -2.1211 0 1.5 1.5 0 0 0 0 2.1211 1.5 1.5 0 0 0 1 .4375l1.514 4.238a1.5 1.5 0 0 0 -.55469 1.1621h-1l-1.123.135-3.877.467v4.801l3.873.465a11.5 11.5 0 0 0 1.2344 2.9746l-2.41 3.07 3.393 3.393 3.07-2.41a11.5 11.5 0 0 0 2.9746 1.2305l.465 3.877h4.801v-.002l.465-3.873a11.5 11.5 0 0 0 2.9746 -1.2324l3.071 2.41 3.393-3.394-2.41-3.071-.699-.89-.768-.768a1.5 1.5 0 0 0 .57422 -1.1816 1.5 1.5 0 0 0 -.00781 -.13867l3.932-1.816a1.5 1.5 0 0 0 1.0762 .45508 1.5 1.5 0 0 0 1.5 -1.5 1.5 1.5 0 0 0 -1.5 -1.5 1.5 1.5 0 0 0 -1.0742 .45508l-3.934-1.814a1.5 1.5 0 0 0 .00781 -.14062 1.5 1.5 0 0 0 -.55273 -1.1621l1.514-4.24a1.5 1.5 0 0 0 .99805 -.43555 1.5 1.5 0 0 0 0 -2.1211 1.5 1.5 0 0 0 -2.1211 0 1.5 1.5 0 0 0 -.4375 1l-4.238 1.512a1.5 1.5 0 0 0 -1.1621 -.55274 1.5 1.5 0 0 0 -.13867 .0078l-1.815-3.934a1.5 1.5 0 0 0 .45312 -1.0742 1.5 1.5 0 0 0 -1.5 -1.5m.138 2.992l1.815 3.934a1.5 1.5 0 0 0 -.36524 .57422h-3.176a1.5 1.5 0 0 0 -.36719 -.57422l1.814-3.932a1.5 1.5 0 0 0 .14062 .0059 1.5 1.5 0 0 0 .13867 -.0078m-8.836 3.504l4.197 1.5a1.5 1.5 0 0 0 0 .0039 1.5 1.5 0 0 0 .14844 .64453l-2.504 2.504a1.5 1.5 0 0 0 -.64453 -.14844 1.5 1.5 0 0 0 -.0039 0l-1.5-4.197a1.5 1.5 0 0 0 .16602 -.14063 1.5 1.5 0 0 0 .14062 -.16602m17.39495.00006a1.5 1.5 0 0 0 .14062 .16602 1.5 1.5 0 0 0 .16602 .14258l-1.5 4.195a1.5 1.5 0 0 0 -.00391 0 1.5 1.5 0 0 0 -.64453 .14844l-2.504-2.504a1.5 1.5 0 0 0 .14844 -.64453 1.5 1.5 0 0 0 0 -.0039l4.197-1.5m-10.285 2h3.174a1.5 1.5 0 0 0 1.4141 1 1.5 1.5 0 0 0 .64453 -.14648l2.504 2.502a1.5 1.5 0 0 0 -.14844 .64453 1.5 1.5 0 0 0 1 1.4141v3.174a1.5 1.5 0 0 0 -1 1.4121 1.5 1.5 0 0 0 .35352 .96484 7.5 7.5 0 0 1 -6.3535 3.5352 7.5 7.5 0 0 1 -7.5 -7.5 7.5 7.5 0 0 1 .1582 -1.5098 1.5 1.5 0 0 0 1.3418 -1.4902 1.5 1.5 0 0 0 -.14844 -.64648l2.502-2.502a1.5 1.5 0 0 0 .64648 .14844 1.5 1.5 0 0 0 1.4121 -1m10.16 5.04l3.936 1.816a1.5 1.5 0 0 0 -.00781 .13867 1.5 1.5 0 0 0 .00781 .13867l-3.934 1.814a1.5 1.5 0 0 0 -.57422 -.36523v-3.176a1.5 1.5 0 0 0 .57227 -.36719" transform="matrix(.62295 0 0 .62295 26.26-.471)" fill-rule="evenodd" color="#000"/></g>

   xmlns:dc="http://purl.org/dc/elements/1.1/"
   xmlns:cc="http://creativecommons.org/ns#"
   xmlns:rdf="http://www.w3.org/1999/02/22-rdf-syntax-ns#"
   xmlns:svg="http://www.w3.org/2000/svg"
   xmlns="http://www.w3.org/2000/svg"
   xmlns:xlink="http://www.w3.org/1999/xlink"
   xmlns:sodipodi="http://sodipodi.sourceforge.net/DTD/sodipodi-0.dtd"
   xmlns:inkscape="http://www.inkscape.org/namespaces/inkscape"
   height="32"
   width="32"
   version="1"
   id="svg8"
   sodipodi:docname="snow-top-2.svg"
   inkscape:version="0.92.1 r"&gt;
  <path d="m24.646 6.111c2.995 2.684 1.381 7.817 3.674 8.291 2.031.613 3.541-1.385 3.66-4.503.35-8.627-3.911-9.427-6.879-9.524-28.342-2.047-1.762 4.92-.455 5.736" fill="url(#0)"/></svg>