<svg xmlns="http://www.w3.org/2000/svg" viewBox="0 0 32 32"><defs><linearGradient gradientTransform="matrix(2.54182 0 0 2.58531-153.47-277.37)" id="0" x1="67.894" y1="108.69" x2="67.854" y2="113.11" gradientUnits="userSpaceOnUse"><stop stop-color="#f9f9f9"/><stop offset="1" stop-color="#999"/></linearGradient></defs><rect width="28.2" height="28.2" x="1.898" y="1.898" fill="#007eff" fill-rule="evenodd" rx="5.575"/><path d="m15.71 27.18c-.15-.107-.35-.249-.445-.315l-.172-.12v-1.479c0-.814-.014-1.487-.03-1.497-.032-.02-.024-.024-.953.534l-.654.393-.381-.247-.381-.247v-.545-.545l.391-.222c.215-.122.554-.316.754-.432.464-.268.514-.296.918-.527l.336-.191v-.977c0-.683-.012-.977-.04-.977-.022 0-.23.117-.464.261-.233.143-.489.3-.569.348-.08.048-.293.175-.473.283l-.327.196-.01-.988c-.005-.543-.025-1-.043-1.021-.02-.02-.081-.004-.154.04-.066.04-.485.257-.929.482l-.809.409-.01 1.438-.01 1.438-.364.265c-.2.146-.376.265-.39.266-.015.001-.166-.108-.336-.242l-.309-.243v-.938c0-.578-.014-.938-.035-.938-.019 0-.187.087-.373.194-.186.107-.624.355-.974.551-.839.471-.9.505-1.086.611l-.159.091-.186-.066c-.102-.036-.366-.139-.586-.228l-.4-.162-.01-.584-.01-.584.101-.072c.056-.039.191-.121.301-.18.11-.06.38-.212.6-.337.22-.125.465-.265.545-.31.128-.072.682-.388.979-.558.059-.034.112-.077.118-.096.006-.019-.302-.182-.686-.362-.384-.18-.764-.362-.845-.405l-.148-.078v-.554-.554l.487-.27c.284-.157.51-.261.543-.248.052.02.702.402 1.734 1.018.24.143.503.298.584.343l.148.082.824-.485c.453-.267.824-.496.824-.51.001-.024-.659-.421-1.372-.825-.185-.105-.336-.202-.336-.215 0-.014.119-.095.264-.182.145-.087.402-.245.572-.351.17-.106.415-.258.543-.337.129-.079.24-.158.246-.177.012-.037-.116-.116-.939-.578-.293-.164-.57-.325-.616-.357-.09-.063-.131-.046-.652.265-.09.054-.319.188-.509.299-.19.111-.572.334-.849.497-.277.163-.525.296-.551.296-.026 0-.254-.099-.506-.22l-.459-.22.01-.532.01-.532.169-.099c.093-.055.24-.139.327-.188.9-.503 1.159-.659 1.149-.689-.006-.019-.158-.113-.338-.208-.179-.095-.441-.235-.581-.311-.14-.076-.385-.209-.545-.294-.16-.086-.479-.259-.709-.386l-.418-.23v-.597-.597l.555-.254.555-.254.19.102c.105.056.558.306 1.01.556 1.093.606 1.403.771 1.451.771.028 0 .04-.275.04-.92v-.92l.1-.092c.055-.051.211-.178.347-.281l.247-.189.135.08c.074.044.28.17.457.281l.322.2-.025 1.457-.026 1.457.14.076c.208.114.856.485 1.248.714.19.111.358.194.373.185.015-.009.027-.467.027-1.018 0-.939.004-1 .064-.977.035.013.374.193.754.4.815.443.984.529 1.035.529.025 0 .038-.325.038-.978v-.977l-.336-.191c-.185-.105-.385-.219-.445-.254-.06-.034-.281-.163-.491-.285-.21-.123-.549-.317-.754-.432l-.373-.209v-.546-.546l.381-.247.381-.247.654.393c.929.558.921.553.953.534.016-.01.03-.684.031-1.497l.002-1.479.171-.12c.094-.066.297-.209.452-.317l.281-.197.454.317.454.317v1.479c0 .816.015 1.488.033 1.499.018.011.12-.027.227-.083.107-.057.391-.206.631-.331.24-.125.555-.293.699-.372l.263-.144.5.271.5.271.01.493.01.493-1.437.717-1.437.717v.976c0 .692.012.976.041.976.022 0 .264-.125.536-.278.273-.153.586-.328.696-.388.11-.061.29-.163.4-.228l.2-.117.009 1.01c.005.553.017 1.027.027 1.054.013.034.296-.095.963-.436l.945-.484v-1.551-1.551l.341-.203.341-.203.368.202.368.202v.979c0 .684.012.979.04.979.036 0 .912-.447.996-.508.02-.014.192-.109.382-.209.19-.1.493-.26.673-.355.18-.095.405-.216.501-.268l.174-.096.19.105c.104.057.341.194.527.303l.337.198-.01.547-.01.547-.254.146c-.14.08-.304.174-.364.208-.06.034-.289.165-.509.291-.22.126-.482.275-.582.333-.1.057-.333.189-.518.292-.185.104-.336.198-.336.209 0 .011.206.135.458.275.252.14.567.316.7.392.133.076.295.162.36.191l.118.053v.542.542l-.371.189c-.204.104-.401.207-.437.23-.051.032-.088.027-.165-.02-.055-.033-.239-.141-.409-.239-.17-.098-.554-.322-.854-.498-1.199-.703-1.165-.685-1.261-.634-.082.043-.728.462-1.329.86-.351.233-.388.164.318.607.879.553 1.021.649.992.677-.016.015-.307.186-.647.38-.904.515-1.045.604-1.012.636.017.016.419.228.893.47l.863.442.428-.233c.235-.128.665-.364.955-.523.29-.159.67-.366.845-.461l.318-.171.437.277.437.277v.504.504l-.155.087c-.085.048-.428.241-.763.429-.335.188-.603.358-.597.378.011.035.689.46 1.605 1.01.24.143.53.323.645.401l.209.14v.557.557l-.282.12c-.155.066-.412.176-.572.244-.16.068-.315.126-.345.129-.045.003-2.054-1.08-2.45-1.322-.063-.038-.126-.07-.141-.07-.015 0-.027.423-.027.939v.939l-.33.247c-.38.284-.326.286-.787-.032l-.3-.207-.01-1.442-.009-1.442-.091-.047c-.05-.026-.344-.184-.654-.351-1.01-.543-1.12-.6-1.142-.578-.012.012-.022.446-.022.965v.943l-.087-.057c-.048-.032-.175-.105-.282-.163-.107-.058-.26-.143-.34-.188-.636-.363-1.107-.618-1.141-.618-.029 0-.041.284-.041.977v.977l.336.191c.397.226.447.254.909.521.195.112.514.296.709.408.195.112.375.22.401.241.035.029.044.183.036.619l-.01.581-.374.198-.374.198-.788-.472c-.434-.26-.801-.464-.817-.454-.016.01-.029.683-.029 1.497v1.479l-.172.12c-.614.431-.738.515-.745.513-.005-.002-.131-.09-.281-.198zm1.413-10.11c.094-.18.256-.483.359-.674l.188-.346-.308-.581c-.169-.319-.343-.65-.386-.734l-.079-.153-.788-.01c-.433-.006-.815-.005-.848.001-.033.006-.099.08-.147.164-.048.084-.228.399-.4.701-.172.302-.313.571-.313.597 0 .039.404.7.76 1.245l.09.137.85-.01.85-.01z" fill="#fff"/>

   xmlns:dc="http://purl.org/dc/elements/1.1/"
   xmlns:cc="http://creativecommons.org/ns#"
   xmlns:rdf="http://www.w3.org/1999/02/22-rdf-syntax-ns#"
   xmlns:svg="http://www.w3.org/2000/svg"
   xmlns="http://www.w3.org/2000/svg"
   xmlns:xlink="http://www.w3.org/1999/xlink"
   xmlns:sodipodi="http://sodipodi.sourceforge.net/DTD/sodipodi-0.dtd"
   xmlns:inkscape="http://www.inkscape.org/namespaces/inkscape"
   height="32"
   width="32"
   version="1"
   id="svg8"
   sodipodi:docname="snow-top-2.svg"
   inkscape:version="0.92.1 r"&gt;
  <path d="m24.646 6.111c2.995 2.684 1.381 7.817 3.674 8.291 2.031.613 3.541-1.385 3.66-4.503.35-8.627-3.911-9.427-6.879-9.524-28.342-2.047-1.762 4.92-.455 5.736" fill="url(#0)"/></svg>