<svg xmlns="http://www.w3.org/2000/svg" viewBox="0 0 32 32"><defs><linearGradient gradientTransform="matrix(2.54182 0 0 2.58531-153.47-277.37)" id="0" x1="67.894" y1="108.69" x2="67.854" y2="113.11" gradientUnits="userSpaceOnUse"><stop stop-color="#f9f9f9"/><stop offset="1" stop-color="#999"/></linearGradient></defs><rect width="28.2" height="28.2" x="1.898" y="1.898" fill="#75aadb" fill-rule="evenodd" rx="5.575"/><g fill="#fff"><path d="m19.713 25.428h4.218c1.441.515 4.597 5.244 6.312 8.571h2.281c1.475 0 2.904 0 2.904-1.428 0-1.429-1.429-1.429-2.904-1.429h-.446c-1.441-2.299-2.71-4.45-4.322-5.857 2.504-1.372 3.387-2.697 3.387-4.858.001-3.603-2.768-6.429-7.228-6.429h-7.65c-.836.001-2.265.001-2.264 1.429.001 1.429 1.427 1.429 2.856 1.428v14.283h-.592c-.837.003-2.265.003-2.264 1.432.002 1.429 1.427 1.429 2.264 1.429h5.146c1.16 0 2.588 0 2.588-1.429 0-1.429-1.429-1.429-2.588-1.431h-1.696v-5.712zm0-2.857v-5.714h4.338c2.806 0 4.235 1.428 4.235 3.146 0 2.568-2.207 2.568-5.47 2.568z" transform="matrix(.7 0 0 .7-1.3-.8)"/></g>

   xmlns:dc="http://purl.org/dc/elements/1.1/"
   xmlns:cc="http://creativecommons.org/ns#"
   xmlns:rdf="http://www.w3.org/1999/02/22-rdf-syntax-ns#"
   xmlns:svg="http://www.w3.org/2000/svg"
   xmlns="http://www.w3.org/2000/svg"
   xmlns:xlink="http://www.w3.org/1999/xlink"
   xmlns:sodipodi="http://sodipodi.sourceforge.net/DTD/sodipodi-0.dtd"
   xmlns:inkscape="http://www.inkscape.org/namespaces/inkscape"
   height="32"
   width="32"
   version="1"
   id="svg8"
   sodipodi:docname="snow-top-2.svg"
   inkscape:version="0.92.1 r"&gt;
  <path d="m24.646 6.111c2.995 2.684 1.381 7.817 3.674 8.291 2.031.613 3.541-1.385 3.66-4.503.35-8.627-3.911-9.427-6.879-9.524-28.342-2.047-1.762 4.92-.455 5.736" fill="url(#0)"/></svg>