<svg xmlns="http://www.w3.org/2000/svg" viewBox="0 0 32 32" xmlns:xlink="http://www.w3.org/1999/xlink"><defs><linearGradient xlink:href="#3" id="4" gradientUnits="userSpaceOnUse" x1="27.558" y1="-133.46" x2="22.09" y2="-134.43"/><linearGradient xlink:href="#3" id="2" gradientUnits="userSpaceOnUse" x1="15.879" y1="-141.91" x2="30.32" y2="-129.74"/><linearGradient id="3"><stop stop-color="#55c03f"/><stop offset="1" stop-color="#198b26"/></linearGradient><linearGradient id="1"><stop stop-color="#f9f9f9"/><stop offset="1" stop-color="#999"/></linearGradient><linearGradient xlink:href="#1" id="0" gradientUnits="userSpaceOnUse" x1="17.658" y1="-133.51" x2="15.02" y2="-125.58"/><radialGradient xlink:href="#1" id="5" cx="-176.59" cy="-120.91" r="3.01" gradientUnits="userSpaceOnUse" gradientTransform="matrix(2.21087.05719-.05496 2.12455 412.97 145.84)"/></defs><rect width="28.2" height="28.2" x="1.898" y="1.898" fill="#38738f" fill-rule="evenodd" rx="5.575"/><path d="M16 5.51773A10.48227 10.48227 0 0 0 5.517731 16 10.48227 10.48227 0 0 0 16 26.482269 10.48227 10.48227 0 0 0 26.482269 16 10.48227 10.48227 0 0 0 16 5.51773" fill="#fff"/><g transform="matrix(.75035 0 0 .75035 3.672 4.562)" fill="#38738f" stroke-width="1.333"><path d="m12 11h3v13.295l-1.5 1.705-1.5-1.705"/><path d="m12.551 10v.006c-.567.004-1.012.014-1.537.135-.534.123-1.014.227-1.014.893l.699.332c0 0 .366-.275.701-.332.383-.065.812.153 1.15.365v.301h.449 1c0 0 .96-.775 1.6-.666.335.057.701.332.701.332l.699-.332c0-.667-.48-.771-1.014-.893-.665-.153-1.127-.131-1.986-.141h-1z"/><path transform="matrix(0 1-1 0 0 0)" d="m6.6-14h4v1h-4z"/><path d="m15 6c0 .552-.672 1-1.5 1-.828 0-1.5-.448-1.5-1"/><path transform="matrix(.70711.70711-.70711.70711 0 0)" d="m19.45 2.48h2.121v2.121h-2.121z"/><path d="m17.66 10c.2.303.34.674.34 1.033a1.0001 1.0001 0 0 1 -.306641 .720703c.822.572 1.307 1.608 1.307 2.629 0 1.892-1.055 2.059-3 2.617 1.167 2.854 3.494 5.379 5.795 6.686 1.963 1.187 3.762 2.02 6.205 2.314-2.698-3.293-6.899-4.743-9-8 1.404-.736 3-1.372 3-3.805 0-1.974-1.8-4.195-3.139-4.195"/></g><g transform="translate(-.916 143.06)"><path d="m15.583-142.61c-5.577-1.531-5.951 3.24-4.58 5.493 4.381 6.983 6.796 6.577 9.398 7.895 1.712 2.064 3.451 3.4 6.469 4.1 11.69 1.559 3.242-8.417.92-8.649-5.065.012-7.547-6.123-12.206-8.838" fill="url(#0)"/><path d="m15.583-142.61c3.76.276 5.616-.626 8.93-.421 4.319.283 8.307 2.053 7.838 6.574-.347 2.567-.37 2.25.186 4.296.532 1.535-.252 4.232-.487 4.654-2.715 4.963-1.536 4.965-2.656 7.742l-.906-.418-2.508-11.358c-7.177-.909-10.754-10.11-10.398-11.07" fill="url(#2)"/><path d="m22.374-132.67c.362.274 1.553-5.105 1.172-5.653 1.379 2.44 1.919 4.616 2.435 6.783-1.276-.283-2.289-.554-3.607-1.13" fill="url(#4)"/><circle r="3.01" cy="-119.45" cx="29.06" fill="url(#5)"/></g></svg>