<svg xmlns="http://www.w3.org/2000/svg" xmlns:xlink="http://www.w3.org/1999/xlink" viewBox="0 0 32 32"><defs><linearGradient gradientTransform="matrix(-2.54182 0 0 2.58531 185.47-277.37)" id="1" x1="67.894" y1="108.69" x2="67.854" y2="113.11" gradientUnits="userSpaceOnUse"><stop stop-color="#f9f9f9"/><stop offset="1" stop-color="#999"/></linearGradient></defs><rect width="28.2" height="28.2" x="1.898" y="1.898" fill="#ff4848" fill-rule="evenodd" rx="5.575"/><path d="m9.681 1.888c.058.21.152.569.152.569l.173.522-.006.002.012.035c.043.138.08.277.108.419.028.142.05.289.063.433.012.144.018.287.015.431-.002.144-.012.286-.029.427-.017.142-.041.28-.073.417-.032.137-.072.275-.119.406-.046.13-.098.256-.159.378-.061.122-.131.236-.207.347l.014-.004c-.08.112-.154.232-.221.352-.067.121-.126.244-.179.372-.053.128-.101.256-.14.39-.039.133-.067.27-.091.408-.023.138-.04.281-.047.421-.007.141-.006.281.004.423.01.143.03.288.057.431.027.143.061.283.106.425.038.118.082.234.13.345.048.111.102.217.159.321.116.208.249.399.4.575.151.176.319.336.498.477.178.141.367.264.568.368.202.104.416.186.634.25.218.063.441.107.669.126.229.02.457.019.689-.007.116-.014.234-.034.35-.059.117-.026.235-.06.351-.099.116-.038.23-.077.339-.126.109-.048.213-.106.314-.165.204-.118.392-.255.565-.407.173-.153.33-.321.469-.502.139-.181.26-.376.362-.581.103-.205.183-.419.246-.64.062-.221.109-.453.128-.685.02-.232.017-.464-.009-.701-.014-.118-.032-.238-.057-.356-.025-.118-.058-.239-.097-.356-.045-.142-.101-.278-.161-.41-.06-.132-.128-.257-.203-.378-.075-.121-.155-.239-.242-.348-.088-.109-.181-.212-.28-.309-.099-.097-.203-.189-.31-.274-.109-.085-.224-.163-.341-.234-.117-.071-.238-.136-.363-.193-.124-.057-.253-.107-.383-.15l.021-.008c-.125-.044-.248-.094-.368-.156-.121-.061-.239-.133-.353-.211-.114-.077-.225-.163-.331-.254-.106-.091-.209-.189-.305-.293-.097-.104-.187-.212-.273-.327-.086-.115-.165-.236-.238-.36-.074-.124-.144-.252-.204-.384-.045-.1-.083-.203-.12-.307l.006-.002-.223-.669c0 0-.025-.095-.031-.114zm10.04 7.06c-.14-.006-.282-.001-.424.01-.143.011-.285.031-.427.059-.143.029-.284.063-.425.11-.117.039-.233.085-.343.134-.11.049-.218.103-.321.161-.206.118-.395.254-.57.406-.174.152-.331.319-.471.498-.139.18-.264.373-.366.575-.102.203-.182.416-.244.634-.061.219-.101.446-.118.673-.018.229-.011.459.017.691.015.116.032.232.059.349.026.116.06.233.101.348.039.116.082.229.131.337.05.109.108.214.167.315.12.203.258.389.412.56.154.172.325.328.508.465.182.138.377.258.583.359.205.101.418.179.639.24.222.06.452.101.683.118.232.018.469.015.705-.013.119-.015.235-.035.353-.061.118-.026.237-.061.355-.101.141-.046.278-.101.409-.163.131-.061.256-.128.376-.205.12-.076.234-.157.343-.246.108-.089.213-.181.308-.281.097-.1.186-.208.27-.318.084-.109.158-.223.228-.341.071-.117.135-.239.192-.364.056-.125.104-.253.145-.384l.008.02c.043-.126.094-.247.154-.368.059-.122.13-.242.207-.357.076-.115.161-.226.252-.333.09-.107.186-.21.289-.307.103-.098.209-.193.323-.279.114-.087.235-.165.359-.24.123-.075.25-.142.381-.204.1-.045.201-.086.303-.124l.004.006c.604-.122 1.165-.126 1.813-.126v-1.403c-.655.001-1.332.008-2.132.16l-.004-.006-.033.012c-.138.045-.28.084-.421.114-.142.03-.284.05-.427.066-.144.014-.287.022-.431.021-.143-.001-.287-.012-.429-.027-.141-.016-.28-.036-.417-.068-.137-.03-.274-.073-.405-.118-.131-.045-.256-.093-.378-.154-.122-.06-.239-.13-.351-.205l.006.016c-.113-.079-.233-.155-.354-.22-.122-.066-.245-.121-.373-.173-.128-.052-.26-.1-.393-.138-.134-.037-.268-.065-.406-.087-.137-.022-.278-.037-.419-.043m-10.406 4.03c-.117.003-.236.009-.354.023-.118.015-.236.037-.354.063-.118.026-.235.057-.352.097-.142.046-.276.101-.408.163-.131.061-.258.132-.378.209-.12.076-.234.155-.343.244-.109.089-.213.185-.309.285-.096.1-.186.202-.27.311-.083.109-.16.223-.23.341-.07.117-.131.239-.187.364-.056.125-.108.253-.15.384l-.006-.018c-.043.126-.095.247-.156.368-.06.122-.127.242-.203.357-.18.224-.426.343-.701.409v2.239h.425c.144.001.286.008.427.023.142.016.28.038.417.07.137.03.275.069.406.114.131.045.256.1.378.159.122.06.239.125.35.199l-.006-.013c.113.079.233.152.354.219.121.066.244.123.372.174.128.052.26.099.394.136.134.037.268.062.406.085.138.022.281.041.421.047.141.006.281.001.423-.01.142-.011.285-.028.427-.056.143-.029.284-.066.425-.113.117-.038.235-.085.345-.133.11-.049.216-.103.319-.162.207-.117.397-.253.572-.405.174-.152.331-.322.471-.502.139-.18.262-.371.364-.573.102-.203.18-.416.242-.634.061-.219.103-.441.12-.669.018-.229.015-.461-.013-.693-.015-.116-.034-.234-.061-.351-.026-.116-.062-.233-.103-.348-.039-.116-.082-.227-.131-.335-.05-.109-.11-.212-.169-.313-.12-.203-.256-.391-.41-.562-.154-.172-.325-.328-.507-.465-.183-.138-.378-.256-.584-.357-.205-.101-.419-.181-.641-.242-.222-.06-.451-.101-.684-.118-.116-.009-.232-.013-.348-.01zm7.148 3.051c-.116.002-.232.008-.349.022-.116.013-.234.031-.35.056-.117.026-.233.06-.349.099-.116.038-.23.081-.339.13-.109.049-.211.105-.313.163-.204.118-.393.255-.566.407-.173.153-.33.321-.469.502-.139.182-.262.377-.364.582-.103.205-.183.42-.246.641-.062.222-.109.45-.128.681-.02.232-.017.468.009.705.014.119.034.236.059.355.025.118.056.239.095.356.045.143.101.278.161.41.06.132.128.259.203.38.075.121.155.235.242.344.088.11.181.216.28.313.099.098.205.187.312.271.109.085.222.161.339.233.117.072.238.137.363.195.124.057.253.109.383.152l-.021.004c.125.043.248.098.368.159.121.061.239.129.353.207.114.078.227.164.333.256.106.091.207.189.303.293.097.104.192.214.277.329.086.115.163.234.236.358.074.125.142.251.202.382.045.101.083.204.12.307l-.008.004.229.671c0 0 .615 1.865.68 4.115h1.396c-.066-2.514-.758-4.573-.758-4.573l-.175-.518.008-.002-.012-.037c-.043-.138-.078-.279-.106-.421-.028-.142-.052-.283-.066-.427-.012-.144-.015-.289-.013-.432.002-.144.012-.288.029-.429.017-.142.041-.282.073-.419.032-.137.072-.273.119-.404.046-.13.098-.256.159-.378.06-.121.131-.237.207-.348l-.016.008c.081-.113.153-.234.221-.355.067-.121.126-.244.179-.372.052-.128.101-.258.139-.392.039-.133.068-.267.091-.405.023-.138.038-.278.045-.419.007-.141.01-.283 0-.425-.009-.142-.031-.286-.058-.429-.027-.143-.061-.285-.107-.427-.037-.117-.08-.232-.128-.342-.048-.111-.104-.22-.161-.324-.116-.207-.249-.399-.4-.575-.15-.175-.317-.335-.496-.477-.178-.141-.368-.264-.568-.368-.202-.104-.414-.188-.632-.252-.218-.064-.441-.106-.669-.126-.114-.01-.229-.013-.345-.012" fill="#fff"/>

   xmlns:dc="http://purl.org/dc/elements/1.1/"
   xmlns:cc="http://creativecommons.org/ns#"
   xmlns:rdf="http://www.w3.org/1999/02/22-rdf-syntax-ns#"
   xmlns:svg="http://www.w3.org/2000/svg"
   xmlns="http://www.w3.org/2000/svg"
   xmlns:xlink="http://www.w3.org/1999/xlink"
   xmlns:sodipodi="http://sodipodi.sourceforge.net/DTD/sodipodi-0.dtd"
   xmlns:inkscape="http://www.inkscape.org/namespaces/inkscape"
   height="32"
   width="32"
   version="1"
   id="svg8"
   sodipodi:docname="snow-top-3.svg"
   inkscape:version="0.92.1 r"&gt;
  <path fill="#00000f" fill-opacity="0" d="m0 0h32v32h-32z" id="0"/><path d="m7.354 6.111c-2.995 2.684-1.381 7.817-3.674 8.291-2.031.613-3.541-1.385-3.66-4.503-.35-8.627 3.911-9.427 6.879-9.524 28.342-2.047 1.762 4.92.455 5.736" fill="url(#1)"/><use xlink:href="#0"/></svg>