<svg xmlns="http://www.w3.org/2000/svg" xmlns:xlink="http://www.w3.org/1999/xlink" viewBox="0 0 32 32"><defs><filter x="-.056" width="1.111" y="-.495" height="1.99" id="2"><feGaussianBlur stdDeviation=".7267"/></filter><filter x="-.053" width="1.106" y="-.958" height="2.916" id="1"><feGaussianBlur stdDeviation=".94177"/></filter><linearGradient id="6"><stop stop-color="#55c03f"/><stop offset="1" stop-color="#198b26"/></linearGradient><linearGradient xlink:href="#6" id="7" gradientUnits="userSpaceOnUse" x1="27.558" y1="-133.46" x2="22.09" y2="-134.43"/><linearGradient xlink:href="#6" id="5" gradientUnits="userSpaceOnUse" x1="15.879" y1="-141.91" x2="30.32" y2="-129.74"/><linearGradient id="4"><stop stop-color="#f9f9f9"/><stop offset="1" stop-color="#999"/></linearGradient><linearGradient xlink:href="#4" id="3" gradientUnits="userSpaceOnUse" x1="17.658" y1="-133.51" x2="15.02" y2="-125.58"/><linearGradient id="0" x1="19.973" y1="32.474" x2="20.02" y2="36.19" gradientUnits="userSpaceOnUse"><stop stop-color="#fff"/><stop offset="1" stop-color="#fff" stop-opacity="0"/></linearGradient><radialGradient xlink:href="#4" id="8" cx="-176.59" cy="-120.91" r="3.01" gradientUnits="userSpaceOnUse" gradientTransform="matrix(2.21087.05719-.05496 2.12455 412.97 145.84)"/></defs><g fill-rule="evenodd"><g fill="#a33849"><rect width="28.2" height="28.2" x="1.898" y="1.898" rx="5.575"/><path d="m4.082 28.846c-.014-.209-.086-.352-.088-.578-.016-1.571.26-3.432.26-3.432l3.242-17.197.604.008-2.938-5.219c-1.92.879-3.264 2.788-3.264 5.04v17.05c0 1.786.885 3.3 2.184 4.318"/></g><path d="m27.82 28.912c.028-.261.132-.446.131-.734-.004-1.57-.523-3.412-.523-3.412l-3.613-16.914-.375-.006-.477.793-14.352-.082-.512-.91-.604-.008-3.242 17.197c0 0-.276 1.86-.26 3.432.002.226.074.369.088.578.947.743 2.088 1.256 3.391 1.256h17.05c1.26 0 2.363-.49 3.295-1.189" fill="#b3b3b3"/><path d="m26.74 2.363l-3.301 5.482.375.006 3.613 16.914c0 0 .52 1.842.523 3.412.001.288-.103.473-.131.734 1.352-1.015 2.281-2.556 2.281-4.385v-17.05c0-2.299-1.384-4.254-3.361-5.109" fill="#a33849"/><path d="m5.162 2.428l3.449 6.129 14.352.082 3.777-6.275c-.68-.294-1.425-.465-2.215-.465h-17.05c-.832 0-1.603.205-2.311.529" fill="#9a9c97"/><g color="#000"><path d="m8.691 10.971l-1.496 11.287c-.053.336-.027.778.319.778h16.738c.279 0 .439-.265.372-.778l-2.131-11.222z" fill="#808080"/><g stroke-linecap="round"><path d="m4.612 34.19h33.738" transform="matrix(.60138 0 0 .80067 2.958-2.202)" opacity=".5" stroke-width="1.966" filter="url(#1)" fill="#fff" stroke="url(#0)"/><g stroke-linejoin="round"><path d="m9.613 22.562h23.19" transform="matrix(.60138 0 0 .80067 2.958-2.202)" stroke-opacity=".553" stroke-width="2.937" filter="url(#2)" fill="none" stroke="#fce94f"/><path d="m8.739 15.863h14.05" stroke-width=".694" fill="#fff" stroke="#fff"/></g></g><g fill="#f9f9f9"><g color-rendering="auto" shape-rendering="auto" color-interpolation-filters="linearRGB" image-rendering="auto" color-interpolation="sRGB"><path d="m11.847656 26.75a.835196 .835196 0 1 0 0 1.669922h2.414a.835196 .835196 0 1 0 0 -1.669922z" mix-blend-mode="normal" isolation="auto" white-space="normal" solid-opacity="1" solid-color="#000000" vector-effect="none" shape-padding="0"/><path d="m16.658203 26.75a.835196 .835196 0 1 0 0 1.669922h.01a.835196 .835196 0 1 0 0 -1.669922z" mix-blend-mode="normal" isolation="auto" white-space="normal" solid-opacity="1" solid-color="#000000" vector-effect="none" shape-padding="0"/><path d="m19.0625 26.75a.835196 .835196 0 1 0 0 1.669922h.01a.835196 .835196 0 1 0 0 -1.669922z" mix-blend-mode="normal" isolation="auto" white-space="normal" solid-opacity="1" solid-color="#000000" vector-effect="none" shape-padding="0"/><path d="m21.46875 26.75a.835196 .835196 0 1 0 0 1.669922h.01a.835196 .835196 0 1 0 0 -1.669922z" mix-blend-mode="normal" isolation="auto" white-space="normal" solid-opacity="1" solid-color="#000000" vector-effect="none" shape-padding="0"/></g><path d="m11.799 27.532h2.527" opacity=".369"/></g></g></g><g transform="translate(-.916 143.06)"><path d="m15.583-142.61c-5.577-1.531-5.951 3.24-4.58 5.493 4.381 6.983 6.796 6.577 9.398 7.895 1.712 2.064 3.451 3.4 6.469 4.1 11.69 1.559 3.242-8.417.92-8.649-5.065.012-7.547-6.123-12.206-8.838" fill="url(#3)"/><path d="m15.583-142.61c3.76.276 5.616-.626 8.93-.421 4.319.283 8.307 2.053 7.838 6.574-.347 2.567-.37 2.25.186 4.296.532 1.535-.252 4.232-.487 4.654-2.715 4.963-1.536 4.965-2.656 7.742l-.906-.418-2.508-11.358c-7.177-.909-10.754-10.11-10.398-11.07" fill="url(#5)"/><path d="m22.374-132.67c.362.274 1.553-5.105 1.172-5.653 1.379 2.44 1.919 4.616 2.435 6.783-1.276-.283-2.289-.554-3.607-1.13" fill="url(#7)"/><circle r="3.01" cy="-119.45" cx="29.06" fill="url(#8)"/></g></svg>