<svg xmlns="http://www.w3.org/2000/svg" viewBox="0 0 32 32"><defs><filter x="-.056" width="1.111" y="-.495" height="1.99" id="2"><feGaussianBlur stdDeviation=".7267"/></filter><filter x="-.053" width="1.106" y="-.958" height="2.916" id="1"><feGaussianBlur stdDeviation=".94177"/></filter><linearGradient id="0" x1="19.973" y1="32.474" x2="20.02" y2="36.19" gradientUnits="userSpaceOnUse"><stop stop-color="#fff"/><stop offset="1" stop-color="#fff" stop-opacity="0"/></linearGradient><linearGradient gradientTransform="matrix(2.62891 0 0 2.71269-160.16-291.42)" id="3" x1="67.894" y1="108.69" x2="67.854" y2="113.11" gradientUnits="userSpaceOnUse"><stop stop-color="#f9f9f9"/><stop offset="1" stop-color="#999"/></linearGradient></defs><g fill-rule="evenodd"><rect width="28.2" height="28.2" x="1.898" y="1.898" fill="#3465a4" rx="5.575"/><g transform="translate(50.914-12.441)"><path d="m-46.832 41.29c-.014-.209-.086-.352-.088-.578-.016-1.571.26-3.432.26-3.432l3.242-17.197.604.008-2.938-5.219c-1.92.879-3.264 2.788-3.264 5.04v17.05c0 1.786.885 3.3 2.184 4.318" fill="#3465a4"/><path d="m-23.09 41.35c.028-.261.132-.446.131-.734-.004-1.57-.523-3.412-.523-3.412l-3.613-16.914-.375-.006-.477.793-14.352-.082-.512-.91-.604-.008-3.242 17.197c0 0-.276 1.86-.26 3.432.002.226.074.369.088.578.947.743 2.088 1.256 3.391 1.256h17.05c1.26 0 2.363-.49 3.295-1.189" fill="#555753"/><path d="m-24.17 14.805l-3.301 5.482.375.006 3.613 16.914c0 0 .52 1.842.523 3.412.001.288-.103.473-.131.734 1.352-1.015 2.281-2.556 2.281-4.385v-17.05c0-2.299-1.384-4.254-3.361-5.109" fill="#3465a4"/><path d="m-45.752 14.869l3.449 6.129 14.352.082 3.777-6.275c-.68-.294-1.425-.465-2.215-.465h-17.05c-.832 0-1.603.205-2.311.529" fill="#9a9c97"/><g color="#000"><path d="m-42.22 23.413l-1.496 11.287c-.053.336-.027.778.319.778h16.738c.279 0 .439-.265.372-.778l-2.131-11.222z" fill="#3465a4"/><g fill="#888a85" stroke="#555753" stroke-width=".694"><ellipse cx="-40.42" cy="21" rx=".771" ry="1.062"/><ellipse cx="-29.59" cy="21" rx=".771" ry="1.062"/></g><g stroke-linecap="round"><path transform="matrix(.60138 0 0 .80067-47.956 10.239)" d="m4.612 34.19h33.738" opacity=".5" stroke-width="1.966" filter="url(#1)" fill="#fff" stroke="url(#0)"/><g stroke-linejoin="round"><path transform="matrix(.60138 0 0 .80067-47.956 10.239)" d="m9.613 22.562h23.19" stroke-opacity=".553" stroke-width="2.937" filter="url(#2)" fill="none" stroke="#fce94f"/><path d="m-42.18 28.3h14.05" stroke-width=".694" fill="#fff" stroke="#fff"/><g stroke-opacity=".684" fill="none" stroke-width="1.67"><path d="m-39.07 40.03h2.415" stroke="#fce94f"/><g stroke="#babdb6"><path d="m-34.26 40.03h.009"/><path d="m-31.851 40.03h.009"/><path d="m-29.445 40.03h.009"/></g></g></g></g><path d="m-39.11 39.973h2.527" opacity=".369" fill="#9a9c97"/></g></g></g>

   xmlns:dc="http://purl.org/dc/elements/1.1/"
   xmlns:cc="http://creativecommons.org/ns#"
   xmlns:rdf="http://www.w3.org/1999/02/22-rdf-syntax-ns#"
   xmlns:svg="http://www.w3.org/2000/svg"
   xmlns="http://www.w3.org/2000/svg"
   xmlns:xlink="http://www.w3.org/1999/xlink"
   xmlns:sodipodi="http://sodipodi.sourceforge.net/DTD/sodipodi-0.dtd"
   xmlns:inkscape="http://www.inkscape.org/namespaces/inkscape"
   version="1"
   width="32"
   height="32"
   id="svg12"
   sodipodi:docname="snow-top-1.svg"
   inkscape:version="0.92.1 r"&gt;
  <path d="m7.288.009c-8.276-.356-9.36 9.992-4.02 9.973.679.003 1.604-.207 2.97-1.543 7.256-10.531 14.706 3.573 17.53.919 1.71-1.912 3.496-.418 4.448.115 2.1.643 3.662.041 3.785-3.231.188-3.321-1.889-6.344-5.923-6.223-5.914.14-12.989-.047-18.787-.01" fill="url(#3)"/><path fill="#f00" fill-opacity="0" d="m0 0h32v32h-32z"/></svg>