<svg xmlns="http://www.w3.org/2000/svg" viewBox="0 0 32 32"><defs><linearGradient gradientTransform="matrix(2.59244 0 0 2.58531-157.93-277.73)" id="0" x1="67.894" y1="108.69" x2="67.854" y2="113.11" gradientUnits="userSpaceOnUse"><stop stop-color="#f9f9f9"/><stop offset="1" stop-color="#999"/></linearGradient></defs><rect width="28.2" height="28.2" x="1.898" y="1.898" fill="#e74c3c" fill-rule="evenodd" rx="5.575"/><path d="m4 16.367c0-6.06 3.135-9.189 4.97-9.189 1.835 0 2.135.906 2.135 2.394 0 2.889-3.402 1.702-3.402 7.124 0 1.796.787 4.02 2.835 4.02 1.643 0 2.247-1.958 3.08-5.463 1.382-5.269 2.781-9.247 7.502-9.247 4.587 0 6.879 3.86 6.879 9.923 0 6.06-3.551 9.923-5.386 9.923-1.834 0-2.305-.732-2.305-2.22 0-2.889 3.855-2.474 3.855-7.896 0-1.796-.787-4.44-2.835-4.44-1.643 0-2.224.115-3.232 3.957-.548 4.105-1.852 10.753-6.841 10.753-4.587 0-7.257-3.57-7.257-9.633" fill="#fff"/>

   xmlns:dc="http://purl.org/dc/elements/1.1/"
   xmlns:cc="http://creativecommons.org/ns#"
   xmlns:rdf="http://www.w3.org/1999/02/22-rdf-syntax-ns#"
   xmlns:svg="http://www.w3.org/2000/svg"
   xmlns="http://www.w3.org/2000/svg"
   xmlns:xlink="http://www.w3.org/1999/xlink"
   xmlns:sodipodi="http://sodipodi.sourceforge.net/DTD/sodipodi-0.dtd"
   xmlns:inkscape="http://www.inkscape.org/namespaces/inkscape"
   version="1"
   width="32"
   height="32"
   id="svg12"
   sodipodi:docname="snow-top-4.svg"
   inkscape:version="0.92.1 r"&gt;
  <path d="m7.196.009c-8.161-.339-9.231 9.523-3.968 9.505.669.003 1.581-.197 2.929-1.471 3.773-4.147 9.01 4.479 14.696-1.042.61-.911 1.804-1.135 2.455-.627 1.045.677 2.87 2.991 3.88 3 2.359.513 4.095-.198 4.816-3.188.185-3.165-2.303-6.286-6.281-6.17-5.832.133-12.809-.045-18.527-.01" fill="url(#0)"/></svg>