<svg xmlns="http://www.w3.org/2000/svg" viewBox="0 0 32 32"><defs><linearGradient gradientTransform="matrix(2.62891 0 0 2.71269-160.16-291.42)" id="0" x1="67.894" y1="108.69" x2="67.854" y2="113.11" gradientUnits="userSpaceOnUse"><stop stop-color="#f9f9f9"/><stop offset="1" stop-color="#999"/></linearGradient></defs><rect width="28.2" height="28.2" x="1.898" y="1.898" fill="#997954" fill-rule="evenodd" rx="5.575"/><g transform="translate(87.95-.189)"><g fill-rule="evenodd"><path d="m-68.32 2.164c-.004-.025-.008-.05-.02-.076h-.264c.064.015.131.027.195.043.032.008.056.025.088.033" fill="#007eff"/><path d="m-80.59 18.922c-.067.024-.124.075-.191.098-.371-.86-.916-1.741-1.449-2.74-.533-.999-1.053-2.118-1.377-3.449-.007-.028-.015-.052-.021-.08-.041-.173-.059-.338-.09-.508-.332.334-1.196 1.424-1.256 1.383-.113-.077-.662-2.238-1.068-3.494v14.586c0 3.089 2.488 5.574 5.576 5.574h17.05c3.089 0 5.574-2.486 5.574-5.574v-14.299c-.36 1.096-.877 3.136-.98 3.207-.06.041-.924-1.049-1.256-1.383-.03.17-.049.335-.09.508-.007.028-.015.052-.021.08-.324 1.331-.846 2.45-1.379 3.449-.533.999-1.078 1.88-1.449 2.74-.045-.015-.084-.05-.129-.066-.002.194-.012.392-.051.5-.002-.001-.002-.002-.004-.002-.008.024-.017.051-.025.074-.867 2.511-1.254 4.412-1.84 5.824-.293.706-.636 1.289-1.113 1.766-.477.477-1.089.848-1.92 1.127-1.337.445-2.417.658-3.801.639-1.383.019-2.462-.194-3.799-.639-.831-.279-1.443-.65-1.92-1.127-.477-.477-.82-1.06-1.113-1.766-.586-1.412-.973-3.313-1.84-5.824-.008-.024-.021-.048-.029-.072-.055-.152-.028-.343.01-.531" fill="#997954"/><path d="m-80.59 18.922c-.038.188-.064.379-.01.531.008.024.021.048.029.072.867 2.511 1.254 4.412 1.84 5.824.293.706.636 1.289 1.113 1.766.477.477 1.089.848 1.92 1.127 1.337.445 2.415.658 3.799.639 1.383.019 2.464-.194 3.801-.639.831-.279 1.443-.65 1.92-1.127.477-.477.82-1.06 1.113-1.766.586-1.412.973-3.313 1.84-5.824.008-.024.017-.051.025-.074.002 0 .002.001.004.002.039-.108.048-.306.051-.5-.995-.353-1.962-.827-2.848-1.449-.926-.651-1.771-1.444-2.484-2.359-.713-.916-1.296-1.954-1.701-3.104-.405-1.149-.631-2.41-.631-3.762-.004-1.015.046-2.15.201-3.268.144-1.034.409-2.031.777-2.924h-4.135c.369.893.634 1.89.777 2.924.155 1.118.205 2.253.201 3.268 0 1.352-.226 2.612-.631 3.762-.405 1.149-.988 2.188-1.701 3.104-.713.916-1.558 1.708-2.484 2.359-.867.609-1.815 1.067-2.787 1.418" fill="#d7cec7"/><path d="m-69.834 2.088c-.369.893-.634 1.89-.777 2.924-.155 1.118-.205 2.253-.201 3.268 0 1.352.226 2.612.631 3.762.405 1.149.988 2.188 1.701 3.104.713.916 1.558 1.708 2.484 2.359.926.651 1.934 1.16 2.977 1.516.371-.86.916-1.741 1.449-2.74.533-.999 1.055-2.118 1.379-3.449.007-.028.015-.052.021-.08.041-.173.059-.338.09-.508-.799-.804-1.603-1.601-3.03-3.326-2.01-2.442-3.977-4.92-3.977-4.92 0 0-.739-.787-1.197-1.688-.024-.048-.029-.096-.037-.145-.031-.008-.056-.025-.088-.033-.064-.016-.131-.028-.195-.043z" fill="#de8c4a"/><path d="m-75.2 2.088h-.266c-.011.026-.015.051-.02.076.032-.008.058-.025.09-.033.064-.016.131-.027.195-.043" fill="#007eff"/><path d="m-75.2 2.088c-.065.015-.131.027-.195.043-.032.008-.058.025-.09.033-.008.048-.013.096-.037.145-.458.901-1.195 1.688-1.195 1.688 0 0-1.963 2.478-3.977 4.92-1.423 1.725-2.226 2.522-3.03 3.326.03.17.049.335.09.508.007.028.015.052.021.08.324 1.331.844 2.45 1.377 3.449.533.999 1.078 1.88 1.449 2.74 1.043-.355 2.052-.865 2.979-1.516.926-.651 1.771-1.444 2.484-2.359.713-.916 1.296-1.954 1.701-3.104.405-1.149.631-2.41.631-3.762.004-1.015-.046-2.15-.201-3.268-.144-1.034-.409-2.031-.777-2.924z" fill="#de8c4a"/><g fill="#86522b"><path d="m-86.05 10.131c.407 1.256.956 3.417 1.068 3.494.203.14 2.268-2.267 4.281-4.709 2.01-2.442 3.977-4.92 3.977-4.92 0 0 .737-.787 1.195-1.688.037-.073.024-.146.057-.221h-5c-3.089 0-5.576 2.488-5.576 5.576z"/><path d="m-68.34 2.088c.033.075.019.147.057.221.458.901 1.197 1.688 1.197 1.688 0 0 1.963 2.478 3.977 4.92 2.01 2.442 4.078 4.849 4.281 4.709.103-.071.62-2.111.98-3.207v-2.754c0-3.089-2.486-5.576-5.574-5.576z"/></g></g><g fill="#3f3f3f"><path d="m-72.7 21.256c-.762 0-1.379.553-1.379 1.235 0 .689 1.419 2.033 2.179 2.033.76 0 2.179-1.343 2.179-2.033 0-.682-.617-1.235-1.379-1.235h-.8z"/><circle r="2.179" cy="13.631" cx="-78.44"/></g><circle r=".545" cy="13.09" cx="-78.982" fill="#fff"/><path d="m-69.72 27.325c0 .859-.975 1.556-2.179 1.556-1.203 0-2.179-.697-2.179-1.556 0-.185.045-.363.128-.528.303-.6 1.062-.266 2.01-.266.943 0 1.791-.335 2.094.264.084.165.129.344.129.529" fill="#d86f6f"/><path d="m-75.71 26.16c0 0 .964.537 1.867.777.561.149 1.945-.778 1.945-.778 0 0 1.385.927 1.945.778.904-.24 1.867-.777 1.867-.777" fill="none" stroke="#79431b" stroke-linejoin="round" stroke-linecap="round"/><g transform="scale(-1 1)"><circle r="2.179" cy="13.631" cx="65.37" fill="#3f3f3f"/><circle r=".545" cy="13.09" cx="65.91" fill="#fff"/></g></g>

   xmlns:dc="http://purl.org/dc/elements/1.1/"
   xmlns:cc="http://creativecommons.org/ns#"
   xmlns:rdf="http://www.w3.org/1999/02/22-rdf-syntax-ns#"
   xmlns:svg="http://www.w3.org/2000/svg"
   xmlns="http://www.w3.org/2000/svg"
   xmlns:xlink="http://www.w3.org/1999/xlink"
   xmlns:sodipodi="http://sodipodi.sourceforge.net/DTD/sodipodi-0.dtd"
   xmlns:inkscape="http://www.inkscape.org/namespaces/inkscape"
   version="1"
   width="32"
   height="32"
   id="svg12"
   sodipodi:docname="snow-top-1.svg"
   inkscape:version="0.92.1 r"&gt;
  <path d="m7.288.009c-8.276-.356-9.36 9.992-4.02 9.973.679.003 1.604-.207 2.97-1.543 7.256-10.531 14.706 3.573 17.53.919 1.71-1.912 3.496-.418 4.448.115 2.1.643 3.662.041 3.785-3.231.188-3.321-1.889-6.344-5.923-6.223-5.914.14-12.989-.047-18.787-.01" fill="url(#0)"/><path fill="#f00" fill-opacity="0" d="m0 0h32v32h-32z"/></svg>