<svg xmlns="http://www.w3.org/2000/svg" viewBox="0 0 32 32"><defs><linearGradient gradientTransform="matrix(-2.65552 0 0 2.58531 193.77-277.73)" id="0" x1="67.894" y1="108.69" x2="67.854" y2="113.11" gradientUnits="userSpaceOnUse"><stop stop-color="#f9f9f9"/><stop offset="1" stop-color="#999"/></linearGradient></defs><rect width="28.2" height="28.2" x="1.898" y="1.898" fill="#569cde" fill-rule="evenodd" rx="5.575"/><g transform="translate(43.692-.447)"><path d="m-29.16592 7.796047a7.372417 7.208777 0 0 0 -7.373138 7.208777 7.372417 7.208777 0 0 0 .246901 1.833913c-1.311.629-2.213 1.956-2.213 3.501v.864c0 2.157 1.752 3.893 3.928 3.893h13.77c2.176 0 3.928-1.737 3.928-3.893v-.864c0-1.634-1.01-3.03-2.441-3.604a4.423594 4.325266 0 0 0 .966697 -2.691758 4.423594 4.325266 0 0 0 -4.424027 -4.325482 4.423594 4.325266 0 0 0 -1.208191 .16609 7.372417 7.208777 0 0 0 -5.180948 -2.088455" fill="#fff"/><path d="m-27.691727 11.400436a5.767022 5.767022 0 0 0 -5.767022 5.767022 5.767022 5.767022 0 0 0 5.767022 5.767022 5.767022 5.767022 0 0 0 5.767022 -5.767022 5.767022 5.767022 0 0 0 -5.767022 -5.767022m0 1.441755a4.325266 4.325266 0 0 1 4.325266 4.325267 4.325266 4.325266 0 0 1 -4.325266 4.325266 4.325266 4.325266 0 0 1 -4.325267 -4.325266 4.325266 4.325266 0 0 1 4.325267 -4.325267" fill="#aaceee"/><g fill="#569cde"><path d="m-27.691727 14.283947a2.883511 2.883511 0 0 0 -2.883511 2.883511 2.883511 2.883511 0 0 0 2.883511 2.883511 2.883511 2.883511 0 0 0 2.883511 -2.883511 2.883511 2.883511 0 0 0 -2.883511 -2.883511"/><circle r="1.081" cx="-32.377" cy="11.04"/></g></g>

   xmlns:dc="http://purl.org/dc/elements/1.1/"
   xmlns:cc="http://creativecommons.org/ns#"
   xmlns:rdf="http://www.w3.org/1999/02/22-rdf-syntax-ns#"
   xmlns:svg="http://www.w3.org/2000/svg"
   xmlns="http://www.w3.org/2000/svg"
   xmlns:xlink="http://www.w3.org/1999/xlink"
   xmlns:sodipodi="http://sodipodi.sourceforge.net/DTD/sodipodi-0.dtd"
   xmlns:inkscape="http://www.inkscape.org/namespaces/inkscape"
   version="1"
   width="32"
   height="32"
   id="svg12"
   sodipodi:docname="snow-top-3.svg"
   inkscape:version="0.92.1 r"&gt;
  <path d="m24.627.009c8.36-.339 9.455 9.523 4.064 9.505-.686.003-1.62-.197-3-1.471-14.665-10.216-14.549 2.967-17.708.875-1.727-1.822-1.743 4.653-4.139 5.127-2.122.613-3.699-1.385-3.824-4.503-.366-8.627 4.086-9.427 7.187-9.524 5.974.133 11.562-.045 17.419-.01" fill="url(#0)"/></svg>