<svg xmlns="http://www.w3.org/2000/svg" xmlns:xlink="http://www.w3.org/1999/xlink" viewBox="0 0 32 32"><defs><clipPath><circle cx="286" cy="26" r="10" fill="none"/></clipPath><linearGradient xlink:href="#4" id="5" gradientUnits="userSpaceOnUse" x1="-23.24" y1="-185.08" x2="-28.704" y2="-186.05"/><linearGradient id="4"><stop stop-color="#ffff5e"/><stop offset="1" stop-color="#f6a32d"/></linearGradient><linearGradient xlink:href="#4" id="3" gradientUnits="userSpaceOnUse" x1="-34.914" y1="-193.53" x2="-20.469" y2="-181.36"/><linearGradient xlink:href="#2" id="1" gradientUnits="userSpaceOnUse" x1="-33.14" y1="-185.13" x2="-35.775" y2="-177.2"/><linearGradient id="0" x1="-45.12" y1="-6.136" x2="-37.53" y2="-3.408" gradientUnits="userSpaceOnUse"><stop stop-color="#fff"/><stop offset="1" stop-color="#ccc"/></linearGradient><linearGradient id="2"><stop stop-color="#f9f9f9"/><stop offset="1" stop-color="#999"/></linearGradient><radialGradient xlink:href="#2" id="6" cx="-176.59" cy="-120.91" r="3.01" gradientUnits="userSpaceOnUse" gradientTransform="matrix(2.21087.05719-.05496 2.12455 362.18 94.22)"/></defs><g transform="translate(59.35 17.939)"><g fill-rule="evenodd"><rect y="-16.03" x="-57.45" height="28.2" width="28.2" fill="#37a0f2" rx="5.575"/><path d="m-43.547-16.05c-.545 1.073-1.194 2.143-1.691 3.217-1.48 3.196-2.737 6.392-3.682 9.574-1 3.406-1.904 6.933-2.781 10.355 1.429.123.54-.008 1.643.002.756-1.207 1.665-2.324 2.678-3.344 1.012-1.02 2.127-1.943 3.291-2.766 1.164-.823 2.38-1.543 3.592-2.16 1.212-.617 2.42-1.128 3.574-1.529.025-1.745-.051-3.623.041-5.445.046-.911.134-1.809.297-2.67.163-.861.403-1.686.75-2.451.371-.832.921-1.802 1.436-2.752-.056-.002-.103-.031-.16-.031z" fill="url(#0)"/></g><path d="m-50.41 6.981c1.109-4.987 3.083-10.489 4.908-14.701" stroke-opacity=".404" fill="none" stroke="#637f75" stroke-linecap="round" stroke-width=".4"/><ellipse transform="matrix(.95961.28135-.28135.95961 0 0)" ry="1.043" rx=".656" cy="9.48" cx="-46.27" fill="#c0cbc7"/></g><g transform="translate(49.877 194.68)"><path d="m-35.21-194.22c-5.577-1.531-5.951 3.24-4.58 5.493 4.381 6.983 6.796 6.577 9.398 7.895 1.712 2.064 3.451 3.4 6.469 4.1 11.69 1.559 3.242-8.417.92-8.649-5.065.012-7.547-6.123-12.206-8.838" fill="url(#1)"/><path d="m-35.21-194.22c3.76.276 5.616-.626 8.93-.421 4.319.283 8.307 2.053 7.838 6.574-.347 2.567-.37 2.25.186 4.296.532 1.535-.252 4.232-.487 4.654-2.715 4.963-1.536 4.965-2.656 7.742l-.906-.418-2.508-11.358c-7.177-.909-10.754-10.11-10.398-11.07" fill="url(#3)"/><path d="m-28.419-184.29c.362.274 1.553-5.105 1.172-5.653 1.379 2.44 1.919 4.616 2.435 6.783-1.276-.283-2.289-.554-3.607-1.13" fill="url(#5)"/><circle r="3.01" cy="-171.07" cx="-21.728" fill="url(#6)"/></g></svg>