<svg xmlns="http://www.w3.org/2000/svg" viewBox="0 0 32 32" xmlns:xlink="http://www.w3.org/1999/xlink"><defs><linearGradient xlink:href="#3" id="4" gradientUnits="userSpaceOnUse" x1="-23.24" y1="-185.08" x2="-28.704" y2="-186.05"/><linearGradient xlink:href="#3" id="2" gradientUnits="userSpaceOnUse" x1="-34.914" y1="-193.53" x2="-20.469" y2="-181.36"/><linearGradient id="3"><stop stop-color="#ffff5e"/><stop offset="1" stop-color="#f6a32d"/></linearGradient><linearGradient id="1"><stop stop-color="#f9f9f9"/><stop offset="1" stop-color="#999"/></linearGradient><linearGradient xlink:href="#1" id="0" gradientUnits="userSpaceOnUse" x1="-33.14" y1="-185.13" x2="-35.775" y2="-177.2"/><radialGradient xlink:href="#1" id="5" cx="-176.59" cy="-120.91" r="3.01" gradientUnits="userSpaceOnUse" gradientTransform="matrix(2.21087.05719-.05496 2.12455 362.18 94.22)"/></defs><g fill-rule="evenodd"><rect width="28.2" height="28.2" x="1.898" y="1.898" fill="#3a68b6" rx="5.575"/><g transform="translate(46.631 2.105)"><path d="m-22.21 15.903c.25.086.742.376.965.429 2.511.605 3.814.687 4.715.645v-1.713c-.285-.089-.496-.208-.893-.24-.706-.057-1.594 0-2.686.262-.652.156-1.455.368-2.102.617" fill="#595afd"/><path d="m-44.732 15.982v6.439c0 3.089 2.486 5.574 5.574 5.574h17.05c3.089 0 5.576-2.486 5.576-5.574v-5.445c-.901.043-2.204-.039-4.715-.645-.223-.054-.716-.344-.965-.429-1.444.556-2.717 1.284-4.093 1.886-.997.436-1.969.808-2.902 1.01-.933.198-1.828.222-2.674-.039-1.192-.368-2.674-1.215-4.1-1.979-.53.072-1.049.184-1.592.197-.995.025-2.01-.063-3.039-.309-2.181-.522-3.324-.695-4.123-.684" fill="#4882e3"/><path d="m-44.732 15.982c.799-.011 1.942.162 4.123.684 1.028.246 2.044.334 3.039.309.542-.014 1.062-.125 1.592-.197-.597-.32-1.134-.508-1.717-.828-.987-.542-1.93-1.055-2.75-1.439-.82-.384-1.519-.641-2.01-.668-.599-.033-1.147.09-1.623.277-.259.102-.437.235-.65.359z" fill="#595afd"/><path d="m-16.529 12.861c-.467.02-.912-.003-1.453.178-.756.252-2.359.68-4.23 1.033-1.872.353-4.01.631-5.848.58-1.178-.077-2.292-.366-3.371-.756-1.079-.39-2.125-.881-3.166-1.361-1.041-.48-2.076-.949-3.139-1.297-1.062-.348-2.151-.574-3.295-.566h-.002c-.65.004-1.322.195-2.02.471-.542.215-1.111.495-1.684.764v2.572c.214-.125.391-.258.65-.359.476-.187 1.024-.31 1.623-.277.495.027 1.193.284 2.01.668.82.384 1.763.897 2.75 1.439 1.975 1.084 4.125 2.285 5.816 2.807.846.261 1.741.237 2.674.039.933-.198 1.906-.57 2.902-1.01 1.994-.872 4.09-2 6.195-2.504 1.092-.261 1.98-.318 2.686-.262.397.032.608.152.893.24z" fill="#9d83c0"/><path d="m-16.529 11.768c-1.058.288-2.431.675-4.104 1.059-1.897.435-3.982.82-5.791.9-1.609-.082-3.116-.407-4.59-.785-1.474-.378-2.915-.808-4.395-1.1-.323-.063-.681-.01-1.01-.059.606.249 1.215.474 1.818.752 1.041.48 2.087.972 3.166 1.361 1.079.39 2.193.679 3.371.756 1.836.05 3.976-.227 5.848-.58 1.872-.353 3.475-.781 4.23-1.033.542-.181.986-.158 1.453-.178z" fill="#7767c0"/><path d="m-39.16-.207c-3.089 0-5.574 2.488-5.574 5.576v6.537c.573-.269 1.141-.548 1.684-.764.694-.276 1.365-.467 2.02-.471h.002c1.144-.007 2.232.219 3.295.566.447.146.881.364 1.32.545.327.048.685-.005 1.01.059 1.48.291 2.921.722 4.395 1.1 1.474.378 2.981.703 4.59.785 1.809-.08 3.895-.465 5.791-.9 1.672-.384 3.046-.771 4.104-1.059v-6.398c0-3.089-2.488-5.576-5.576-5.576z" fill="#3a68b6"/></g></g><path d="m21.822 6.473c-1.236-.061-2.445.647-3.164 1.637 0 0-.001.001-.001.001-.858 1.198-1.311 2.857-1.686 4.229-.519 1.923-1.395 3.741-2.498 5.403-2.286 3.427-5.258 6.41-9.12 7.916-.025.01-.047.024-.066.043l-.155.145c-.147.138-.033.383.167.361 2.709-.318 4.452-2.334 6.45-3.935 1.606-.157 3.452-.258 5-.673.001 0 .002-.001.002-.001 2.182-.613 4.549-1.581 6.04-3.42 1.484-1.82 1.734-4.354 1.191-6.548-.184-.877-.941-1.776-1.899-1.966-.026-.091-.051-.18-.076-.271.208-.228.879-.473 1.086-.771.229-.332.39-.991.272-1.446-.006-.024-.017-.047-.031-.067-.253-.365-1.098-.634-1.514-.635" fill="#50beee"/><g transform="translate(49.877 194.68)"><path d="m-35.21-194.22c-5.577-1.531-5.951 3.24-4.58 5.493 4.381 6.983 6.796 6.577 9.398 7.895 1.712 2.064 3.451 3.4 6.469 4.1 11.69 1.559 3.242-8.417.92-8.649-5.065.012-7.547-6.123-12.206-8.838" fill="url(#0)"/><path d="m-35.21-194.22c3.76.276 5.616-.626 8.93-.421 4.319.283 8.307 2.053 7.838 6.574-.347 2.567-.37 2.25.186 4.296.532 1.535-.252 4.232-.487 4.654-2.715 4.963-1.536 4.965-2.656 7.742l-.906-.418-2.508-11.358c-7.177-.909-10.754-10.11-10.398-11.07" fill="url(#2)"/><path d="m-28.419-184.29c.362.274 1.553-5.105 1.172-5.653 1.379 2.44 1.919 4.616 2.435 6.783-1.276-.283-2.289-.554-3.607-1.13" fill="url(#4)"/><circle r="3.01" cy="-171.07" cx="-21.728" fill="url(#5)"/></g></svg>