<svg xmlns="http://www.w3.org/2000/svg" viewBox="0 0 32 32"><defs><linearGradient gradientTransform="matrix(2.54182 0 0 2.58531-153.47-277.37)" id="0" x1="67.894" y1="108.69" x2="67.854" y2="113.11" gradientUnits="userSpaceOnUse"><stop stop-color="#f9f9f9"/><stop offset="1" stop-color="#999"/></linearGradient></defs><rect width="28.2" height="28.2" x="1.898" y="1.898" fill="#4f4f4f" fill-rule="evenodd" rx="5.575"/><path d="m7.711 5.974v1h-.5c-.831 0-1.5.669-1.5 1.5 0 .831.669 1.5 1.5 1.5h.5v1h-1.908c.206.582.754 1 1.408 1h.5v1h1v-1h.5c.831 0 1.5-.669 1.5-1.5 0-.831-.669-1.5-1.5-1.5h-.5v-1h1.908c-.206-.582-.754-1-1.408-1h-.5v-1h-1m-.5 2h.5v1h-.5c-.277 0-.5-.223-.5-.5 0-.277.223-.5.5-.5m1.5 2h.5c.277 0 .5.223.5.5 0 .277-.223.513-.5.5h-.5zm4 2v1h6v-1z" fill="#fff"/><g transform="matrix(.75 0 0 .75 4.421 4.96)" stroke-width="1.333"><circle r="8" cy="23" cx="24" fill="#bb46da" fill-rule="evenodd"/><g transform="translate(-404-46.998)" fill="#fff" enable-background="new" color="#000"><path d="m424 66h.672c4.05 0 7.33 3.278 7.33 7.328v.672h-.672c-.364 0-.656-.305-.656-.672 0-3.314-2.686-6-6-6-.36 0-.67-.289-.67-.656v-.672z"/><path d="m424 68.67h.672c2.577 0 4.656 2.079 4.656 4.656v.672h-.656c-.36 0-.67-.305-.67-.672 0-1.841-1.49-3.328-3.33-3.328-.36 0-.67-.305-.67-.672v-.656z"/><path d="m425.33 71.33c.736 0 1.344.607 1.344 1.344 0 .736-.61 1.328-1.34 1.328-.74 0-1.33-.592-1.33-1.328 0-.736.592-1.344 1.328-1.344z"/></g></g>

   xmlns:dc="http://purl.org/dc/elements/1.1/"
   xmlns:cc="http://creativecommons.org/ns#"
   xmlns:rdf="http://www.w3.org/1999/02/22-rdf-syntax-ns#"
   xmlns:svg="http://www.w3.org/2000/svg"
   xmlns="http://www.w3.org/2000/svg"
   xmlns:xlink="http://www.w3.org/1999/xlink"
   xmlns:sodipodi="http://sodipodi.sourceforge.net/DTD/sodipodi-0.dtd"
   xmlns:inkscape="http://www.inkscape.org/namespaces/inkscape"
   height="32"
   width="32"
   version="1"
   id="svg8"
   sodipodi:docname="snow-top-2.svg"
   inkscape:version="0.92.1 r"&gt;
  <path d="m24.646 6.111c2.995 2.684 1.381 7.817 3.674 8.291 2.031.613 3.541-1.385 3.66-4.503.35-8.627-3.911-9.427-6.879-9.524-28.342-2.047-1.762 4.92-.455 5.736" fill="url(#0)"/></svg>