<svg xmlns="http://www.w3.org/2000/svg" viewBox="0 0 32 32"><defs><linearGradient gradientTransform="matrix(2.54182 0 0 2.58531-153.47-277.37)" id="0" x1="67.894" y1="108.69" x2="67.854" y2="113.11" gradientUnits="userSpaceOnUse"><stop stop-color="#f9f9f9"/><stop offset="1" stop-color="#999"/></linearGradient></defs><rect width="28.2" height="28.2" x="1.898" y="1.898" fill="#3e50b4" fill-rule="evenodd" rx="5.575"/><g transform="translate(41.579 2.842)"><path d="m-32.781741 3.579644a1.694595 1.50322 0 0 0 -1.74468 1.502331V21.234a1.694595 1.50322 0 0 0 2.542406 1.302061l7.884-4.04 7.884-4.04a1.694595 1.50322 0 0 0 0 -2.604053l-7.884-4.04-7.884-4.04a1.694595 1.50322 0 0 0 -.797863 -.20027" fill="#fff"/><path d="m-25.695259 9.05268a.726294 .644229 0 0 1 .747847 .643846v6.922a.726294 .644229 0 0 1 -1.089612 .558018l-3.379-1.731-3.379-1.73a.726294 .644229 0 0 1 0 -1.116023l3.379-1.73 3.379-1.731a.726294 .644229 0 0 1 .341862 -.085848" fill="#3e50b4"/></g>

   xmlns:dc="http://purl.org/dc/elements/1.1/"
   xmlns:cc="http://creativecommons.org/ns#"
   xmlns:rdf="http://www.w3.org/1999/02/22-rdf-syntax-ns#"
   xmlns:svg="http://www.w3.org/2000/svg"
   xmlns="http://www.w3.org/2000/svg"
   xmlns:xlink="http://www.w3.org/1999/xlink"
   xmlns:sodipodi="http://sodipodi.sourceforge.net/DTD/sodipodi-0.dtd"
   xmlns:inkscape="http://www.inkscape.org/namespaces/inkscape"
   height="32"
   width="32"
   version="1"
   id="svg8"
   sodipodi:docname="snow-top-2.svg"
   inkscape:version="0.92.1 r"&gt;
  <path d="m24.646 6.111c2.995 2.684 1.381 7.817 3.674 8.291 2.031.613 3.541-1.385 3.66-4.503.35-8.627-3.911-9.427-6.879-9.524-28.342-2.047-1.762 4.92-.455 5.736" fill="url(#0)"/></svg>