<svg xmlns="http://www.w3.org/2000/svg" viewBox="0 0 32 32"><defs><linearGradient gradientTransform="matrix(2.62891 0 0 2.71269-160.16-291.42)" id="0" x1="67.894" y1="108.69" x2="67.854" y2="113.11" gradientUnits="userSpaceOnUse"><stop stop-color="#f9f9f9"/><stop offset="1" stop-color="#999"/></linearGradient></defs><rect width="28.2" height="28.2" x="1.898" y="1.898" fill="#37a0f2" fill-rule="evenodd" rx="5.575"/><g transform="translate(45.24-.526)"><path d="m-22.2 5.58c-3.06.036-7.78.893-9.255 2.665h-.003c-1.177 1.725-1.327 8.477-1.021 8.06 2.506-3.428 8.511-7.661 12.1-9.362 1.937-.923.562-1.392-1.818-1.364m-2.954 5.591c-2.071.15-5.713 3.704-5.201 3.684 4.235-.147 6.881.097 10.185 1.132.49.153-.528-4.468-4.984-4.816m-2.24 3.7c-.109.006-.154.035-.118.088 2.42 3.505 3.65 5.878 4.582 9.238.138.498 3.436-2.873 1.307-6.833-1.092-1.464-5.01-2.533-5.771-2.492m1.26 2.808c-.024-.006-.041.005-.049.036-1.072 4.133-2.062 6.62-3.989 9.517-.288.427 4.397.767 6-3.44l.001.002c.421-1.917-1.604-6.02-1.963-6.116m-1.177 2.641c-.01-.002-.022 0-.036.006-3.824 1.843-6.347 2.688-9.789 3.068-.508.059 2.255 3.885 6.479 2.408l.004-.001c1.781-.943 3.647-5.404 3.343-5.481" fill="#fff"/><path d="m-33.627 9.437c-.773.132-3.875 2.288-3.161 6.162l.001.002c.678 1.979 5.02 4.61 4.873 4.115-1.234-4.085-1.68-6.728-1.542-10.212.003-.065-.06-.086-.171-.067m-4.982 6.101c-.398-.053-1.332 4.333 2.39 6.562 1.924.791 6.749-.767 6.281-.982-3.862-1.755-6.126-3.16-8.634-5.56-.012-.011-.023-.018-.036-.019" fill="#4f4f4f"/></g>

   xmlns:dc="http://purl.org/dc/elements/1.1/"
   xmlns:cc="http://creativecommons.org/ns#"
   xmlns:rdf="http://www.w3.org/1999/02/22-rdf-syntax-ns#"
   xmlns:svg="http://www.w3.org/2000/svg"
   xmlns="http://www.w3.org/2000/svg"
   xmlns:xlink="http://www.w3.org/1999/xlink"
   xmlns:sodipodi="http://sodipodi.sourceforge.net/DTD/sodipodi-0.dtd"
   xmlns:inkscape="http://www.inkscape.org/namespaces/inkscape"
   version="1"
   width="32"
   height="32"
   id="svg12"
   sodipodi:docname="snow-top-1.svg"
   inkscape:version="0.92.1 r"&gt;
  <path d="m7.288.009c-8.276-.356-9.36 9.992-4.02 9.973.679.003 1.604-.207 2.97-1.543 7.256-10.531 14.706 3.573 17.53.919 1.71-1.912 3.496-.418 4.448.115 2.1.643 3.662.041 3.785-3.231.188-3.321-1.889-6.344-5.923-6.223-5.914.14-12.989-.047-18.787-.01" fill="url(#0)"/><path fill="#f00" fill-opacity="0" d="m0 0h32v32h-32z"/></svg>