<svg xmlns="http://www.w3.org/2000/svg" viewBox="0 0 32 32" xmlns:xlink="http://www.w3.org/1999/xlink"><defs><linearGradient gradientTransform="matrix(-2.54182 0 0 2.58531 185.47-277.37)" id="1" x1="67.894" y1="108.69" x2="67.854" y2="113.11" gradientUnits="userSpaceOnUse"><stop stop-color="#f9f9f9"/><stop offset="1" stop-color="#999"/></linearGradient></defs><rect width="28.2" height="28.2" x="1.898" y="1.898" fill="#661e1a" fill-rule="evenodd" rx="5.575"/><path d="m15.701 6.5c-2.115-.001-3.716.968-4.479 2.711-.255.582-.303.792-.338 1.461-.071 1.372.351 2.481 1.268 3.334.669.622.923.768 3.189 1.826 2.799 1.307 3.277 1.584 3.926 2.285.882.954 1.334 2.258 1.115 3.217-.281 1.23-1.062 2.471-2 2.961-1.412.736-3.297.715-4.594-.051-.532-.314-1.458-.93-1.779-1.516-.143-.26-.336-.805-.43-1.211-.39-1.696.462-2.715 1.809-3.03.892-.207 2.139.133 2.672.908.289.421.292 1.012-.059 1.531-.038-.8-.697-1.43-1.498-1.43-.828 0-1.5.672-1.5 1.5 0 .828.672 1.5 1.5 1.5 1.957-.037 2.444-1.897 2.467-3.135 0-1.821-4.074-2.68-5.9-.6-1.044 1.202-1.429 2.564-.668 4.539.136.352.226.324.254.715.027.388.077.613.111.674.049.087.232.091.861.016.747-.089.851.059 1.576.262 1.23.585 2.622.613 3.953.428 1.911-.287 3.628-1.42 4.314-2.848.42-.874.539-1.452.531-2.588-.012-1.769-.436-3.01-1.389-4.04-.651-.706-1.289-1.081-3.352-1.977-2.489-1.08-3.29-1.544-4.059-2.355-.598-.631-.731-1.866-.324-2.807.218-.504.858-1.115 1.41-1.346.626-.261 1.658-.324 2.311-.141 1.098.309 2.145 1.141 2.563 2.033.252.539.333 1.835.176 2.648-.056.288-.079.547-.053.576.093.102.6-.065.926-.305.371-.274.656-.691.799-1.172.135-.453-.079-1.443-.23-2.16-.07-.333-.121-.835-.111-1.117.017-.53-.077-.71-.33-.633-.066.02-.389.084-.719.143-.599.106-.4.035-1.119-.277-.894-.388-1.663-.535-2.797-.535" fill="#fff"/>

   xmlns:dc="http://purl.org/dc/elements/1.1/"
   xmlns:cc="http://creativecommons.org/ns#"
   xmlns:rdf="http://www.w3.org/1999/02/22-rdf-syntax-ns#"
   xmlns:svg="http://www.w3.org/2000/svg"
   xmlns="http://www.w3.org/2000/svg"
   xmlns:xlink="http://www.w3.org/1999/xlink"
   xmlns:sodipodi="http://sodipodi.sourceforge.net/DTD/sodipodi-0.dtd"
   xmlns:inkscape="http://www.inkscape.org/namespaces/inkscape"
   height="32"
   width="32"
   version="1"
   id="svg8"
   sodipodi:docname="snow-top-3.svg"
   inkscape:version="0.92.1 r"&gt;
  <path fill="#00000f" fill-opacity="0" d="m0 0h32v32h-32z" id="0"/><path d="m7.354 6.111c-2.995 2.684-1.381 7.817-3.674 8.291-2.031.613-3.541-1.385-3.66-4.503-.35-8.627 3.911-9.427 6.879-9.524 28.342-2.047 1.762 4.92.455 5.736" fill="url(#1)"/><use xlink:href="#0"/></svg>