<svg xmlns="http://www.w3.org/2000/svg" viewBox="0 0 32 32"><defs><filter x="-.056" width="1.111" y="-.495" height="1.99" id="0"><feGaussianBlur stdDeviation=".7267"/></filter><filter x="-.053" width="1.106" y="-.958" height="2.916" id="2"><feGaussianBlur stdDeviation=".94177"/></filter><linearGradient id="1" x1="19.973" y1="32.474" x2="20.02" y2="36.19" gradientUnits="userSpaceOnUse"><stop stop-color="#fff"/><stop offset="1" stop-color="#fff" stop-opacity="0"/></linearGradient></defs><g transform="translate(62.956 7.892)" fill-rule="evenodd"><rect y="-5.994" x="-61.06" height="28.2" width="28.2" fill="#a33849" rx="5.575"/><path d="m-58.874 20.953c-.014-.209-.086-.352-.088-.578-.016-1.571.26-3.432.26-3.432l3.242-17.197.604.008-2.938-5.219c-1.92.879-3.264 2.788-3.264 5.04v17.05c0 1.786.885 3.3 2.184 4.318" fill="#0864d2"/><path d="m-35.14 21.02c.028-.261.132-.446.131-.734-.004-1.57-.523-3.412-.523-3.412l-3.613-16.914-.375-.006-.477.793-14.352-.082-.512-.91-.604-.008-3.242 17.197c0 0-.276 1.86-.26 3.432.002.226.074.369.088.578.947.743 2.088 1.256 3.391 1.256h17.05c1.26 0 2.363-.49 3.295-1.189" fill="#b3b3b3"/><path d="m-36.22-5.529l-3.301 5.482.375.006 3.613 16.914c0 0 .52 1.842.523 3.412.001.288-.103.473-.131.734 1.352-1.015 2.281-2.556 2.281-4.385v-17.05c0-2.299-1.384-4.254-3.361-5.109" fill="#0864d2"/><path d="m-57.794-5.465l3.449 6.129 14.352.082 3.777-6.275c-.68-.294-1.425-.465-2.215-.465h-17.05c-.832 0-1.603.205-2.311.529" fill="#9a9c97"/><g color="#000"><path d="m-54.27 3.079l-1.496 11.287c-.053.336-.027.778.319.778h16.738c.279 0 .439-.265.372-.778l-2.131-11.222" fill="#808080"/><g stroke-linecap="round"><path transform="matrix(.60138 0 0 .80067-59.999-10.09)" d="m4.612 34.19h33.738" opacity=".5" stroke-width="1.966" filter="url(#2)" fill="#fff" stroke="url(#1)"/><g stroke-linejoin="round"><path transform="matrix(.60138 0 0 .80067-59.999-10.09)" d="m9.613 22.562h23.19" stroke-opacity=".553" stroke-width="2.937" filter="url(#0)" fill="none" stroke="#fce94f"/><path d="m-54.22 7.971h14.05" stroke-width=".694" fill="#fff" stroke="#fff"/></g></g><g fill="#f9f9f9"><g color-rendering="auto" shape-rendering="auto" color-interpolation-filters="linearRGB" image-rendering="auto" color-interpolation="sRGB"><path d="m-51.10865 18.857525a.835196 .835196 0 1 0 0 1.669922h2.414a.835196 .835196 0 1 0 0 -1.669922z" mix-blend-mode="normal" isolation="auto" white-space="normal" solid-opacity="1" solid-color="#000000" vector-effect="none" shape-padding="0"/><path d="m-46.29811 18.857525a.835196 .835196 0 1 0 0 1.669922h.01a.835196 .835196 0 1 0 0 -1.669922z" mix-blend-mode="normal" isolation="auto" white-space="normal" solid-opacity="1" solid-color="#000000" vector-effect="none" shape-padding="0"/><path d="m-43.89381 18.857525a.835196 .835196 0 1 0 0 1.669922h.01a.835196 .835196 0 1 0 0 -1.669922z" mix-blend-mode="normal" isolation="auto" white-space="normal" solid-opacity="1" solid-color="#000000" vector-effect="none" shape-padding="0"/><path d="m-41.48756 18.857525a.835196 .835196 0 1 0 0 1.669922h.01a.835196 .835196 0 1 0 0 -1.669922z" mix-blend-mode="normal" isolation="auto" white-space="normal" solid-opacity="1" solid-color="#000000" vector-effect="none" shape-padding="0"/></g><path d="m-51.16 19.639h2.527" opacity=".369"/></g></g></g>

   xmlns:dc="http://purl.org/dc/elements/1.1/"
   xmlns:cc="http://creativecommons.org/ns#"
   xmlns:rdf="http://www.w3.org/1999/02/22-rdf-syntax-ns#"
   xmlns:svg="http://www.w3.org/2000/svg"
   xmlns="http://www.w3.org/2000/svg"
   xmlns:sodipodi="http://sodipodi.sourceforge.net/DTD/sodipodi-0.dtd"
   xmlns:inkscape="http://www.inkscape.org/namespaces/inkscape"
   height="32"
   width="32"
   version="1"
   id="svg8"
   sodipodi:docname="star-mime-2.svg"
   inkscape:version="0.92.1 r"&gt;
  <g transform="translate(152.47 194.05)" fill="#fff"><path d="m-125.38-193.25l-.077 3.548 3.072 1.831-3.548-.077-3.135 6.791 1.38-7.268-3.072-1.831 3.548.077z"/><path d="m-125.41-183.04l.042-1.955-1.692-1.01 1.955.042 1.727-3.741-.76 4 1.692 1.01-1.955-.042z"/></g></svg>