<svg xmlns="http://www.w3.org/2000/svg" viewBox="0 0 32 32"><defs><linearGradient gradientTransform="matrix(-2.65552 0 0 2.58531 193.77-277.73)" id="0" x1="67.894" y1="108.69" x2="67.854" y2="113.11" gradientUnits="userSpaceOnUse"><stop stop-color="#f9f9f9"/><stop offset="1" stop-color="#999"/></linearGradient></defs><rect width="28.2" height="28.2" x="1.898" y="1.898" fill="#ccc" fill-rule="evenodd" rx="5.575"/><g fill="#4893d5"><path d="m10.187 5.795c-3.859 2.065-6.186 5.793-6.192 9.962.008 5.742 4.565 10.764 10.615 11.622.434.043.565.024.885 0 2.931 0 5.308-2.23 5.308-4.981-.003-1.888-1.136-3.574-2.861-4.414 0 0-1.906-.82-2.749-1.244-1.221-.573-2.566-1.08-3.846-1.814-.64-.367-1.287-.796-1.868-1.458-.581-.662-1.061-1.654-1.061-2.692 0-2.01.775-3.547 1.769-4.981"/><path d="m21.813 26.2c3.86-2.065 6.186-5.793 6.192-9.962-.008-5.742-4.565-10.764-10.615-11.622-.434-.043-.565-.024-.885 0-2.931 0-5.308 2.23-5.308 4.981.003 1.888 1.136 3.574 2.861 4.414 0 0 1.906.82 2.749 1.244 1.221.573 2.566 1.08 3.846 1.814.64.367 1.287.796 1.868 1.458.581.662 1.061 1.654 1.061 2.692 0 2.01-.775 3.547-1.769 4.981"/></g>

   xmlns:dc="http://purl.org/dc/elements/1.1/"
   xmlns:cc="http://creativecommons.org/ns#"
   xmlns:rdf="http://www.w3.org/1999/02/22-rdf-syntax-ns#"
   xmlns:svg="http://www.w3.org/2000/svg"
   xmlns="http://www.w3.org/2000/svg"
   xmlns:xlink="http://www.w3.org/1999/xlink"
   xmlns:sodipodi="http://sodipodi.sourceforge.net/DTD/sodipodi-0.dtd"
   xmlns:inkscape="http://www.inkscape.org/namespaces/inkscape"
   version="1"
   width="32"
   height="32"
   id="svg12"
   sodipodi:docname="snow-top-3.svg"
   inkscape:version="0.92.1 r"&gt;
  <path d="m24.627.009c8.36-.339 9.455 9.523 4.064 9.505-.686.003-1.62-.197-3-1.471-14.665-10.216-14.549 2.967-17.708.875-1.727-1.822-1.743 4.653-4.139 5.127-2.122.613-3.699-1.385-3.824-4.503-.366-8.627 4.086-9.427 7.187-9.524 5.974.133 11.562-.045 17.419-.01" fill="url(#0)"/></svg>