<svg xmlns="http://www.w3.org/2000/svg" viewBox="0 0 32 32"><defs><linearGradient gradientTransform="matrix(2.54182 0 0 2.58531-153.47-277.37)" id="0" x1="67.894" y1="108.69" x2="67.854" y2="113.11" gradientUnits="userSpaceOnUse"><stop stop-color="#f9f9f9"/><stop offset="1" stop-color="#999"/></linearGradient></defs><rect width="28.2" height="28.2" x="1.898" y="1.898" fill="#303bb5" fill-rule="evenodd" rx="5.575"/><g fill="#fff"><path d="m8.456 16.258c1.234-1.095 2.77-1.861 4.622-2.283-1.141-.829-1.823-1.563-2.526-2.539-.322-.44.024-.688.468-1.035 2.662-1.019 7.339-1.597 9.705.15.63.51-.763 1.361-1.44 1.625 2.483.441 4.403 1.151 5.492 2.826 1.71-2.536 1.029-6.218-.913-7.419-1.942-1.201-8.603-3.734-16.04-.228-3.359 1.62-1.943 5.463.628 8.902"/><path d="m9.498 17.18c3.483-.86 7.01-1.727 11.864 0-2.202-4.45-7.968-2.726-11.864 0"/><path d="m18.456 14.11c4.952 1.99 7.02 7.137.262 9.2-3.385 1.113-8.979.22-10.482-.908-1.183-.905.184-2.352 1.846-2.946-2.039.006-3.133.508-3.799 1.644-.348.793-.254 1.298-.168 1.626 2.364 5.718 19.541 4.727 20.03-2.382.136-3.827-4.344-6.093-7.687-6.234"/></g><g transform="matrix(1.16874 0 0 1.16874-2.7-2.881)" fill-rule="evenodd"><circle r="2.952" cy="19.579" cx="15.909" fill="#c3b694"/><circle r="2.365" cy="19.597" cx="15.926" fill="#082585"/><path d="m16.421 21.477l-.459-.895-.391.927-.025-1.01-.754.665.413-.917-.968.272.77-.647-.991-.175.975-.248-.817-.587.986.199-.481-.884.802.607-.05-1 .459.895.391-.927.025 1.01.754-.665-.413.917.968-.272-.77.647.991.175-.975.248.817.587-.986-.199.481.884-.802-.607z" fill="#fff"/></g>

   xmlns:dc="http://purl.org/dc/elements/1.1/"
   xmlns:cc="http://creativecommons.org/ns#"
   xmlns:rdf="http://www.w3.org/1999/02/22-rdf-syntax-ns#"
   xmlns:svg="http://www.w3.org/2000/svg"
   xmlns="http://www.w3.org/2000/svg"
   xmlns:xlink="http://www.w3.org/1999/xlink"
   xmlns:sodipodi="http://sodipodi.sourceforge.net/DTD/sodipodi-0.dtd"
   xmlns:inkscape="http://www.inkscape.org/namespaces/inkscape"
   height="32"
   width="32"
   version="1"
   id="svg8"
   sodipodi:docname="snow-top-2.svg"
   inkscape:version="0.92.1 r"&gt;
  <path d="m24.646 6.111c2.995 2.684 1.381 7.817 3.674 8.291 2.031.613 3.541-1.385 3.66-4.503.35-8.627-3.911-9.427-6.879-9.524-28.342-2.047-1.762 4.92-.455 5.736" fill="url(#0)"/></svg>