<svg xmlns="http://www.w3.org/2000/svg" viewBox="0 0 32 32"><rect width="28.2" height="28.2" x="1.898" y="1.898" fill="#ffc947" fill-rule="evenodd" rx="5.575"/><g transform="translate(47.37 9.158)" fill="#b38d32"><path d="m-31.368421.461538a6.380567 6.380567 0 0 0 -5.911675 3.987854h-1.266l-.798 1.595h1.653a6.380567 6.380567 0 0 0 -.05767 .797571l-.798 1.595h1.01a6.380567 6.380567 0 0 0 6.168732 4.785425 6.380567 6.380567 0 0 0 4.980032 -2.392713h-2.339a4.785425 4.785425 0 0 1 -2.640757 .797571 4.785425 4.785425 0 0 1 -4.506275 -3.190283h5.304l.798-1.595h-6.381a4.785425 4.785425 0 0 1 .07178 -.797571h6.309l.798-1.595h-6.531a4.785425 4.785425 0 0 1 4.138595 -2.392713 4.785425 4.785425 0 0 1 2.639162 .797571h2.334a6.380567 6.380567 0 0 0 -4.973652 -2.392713"/><path d="m-31.368-3.526c-5.744 0-10.368 4.624-10.368 10.368 0 5.744 4.624 10.368 10.368 10.368 5.744 0 10.368-4.624 10.368-10.368 0-5.744-4.624-10.368-10.368-10.368m0 1.595c4.888 0 8.773 3.885 8.773 8.773 0 4.888-3.885 8.773-8.773 8.773-4.888 0-8.773-3.885-8.773-8.773 0-4.888 3.885-8.773 8.773-8.773"/></g>

   xmlns:dc="http://purl.org/dc/elements/1.1/"
   xmlns:cc="http://creativecommons.org/ns#"
   xmlns:rdf="http://www.w3.org/1999/02/22-rdf-syntax-ns#"
   xmlns:svg="http://www.w3.org/2000/svg"
   xmlns="http://www.w3.org/2000/svg"
   xmlns:sodipodi="http://sodipodi.sourceforge.net/DTD/sodipodi-0.dtd"
   xmlns:inkscape="http://www.inkscape.org/namespaces/inkscape"
   height="32"
   width="32"
   version="1"
   id="svg8"
   sodipodi:docname="star-mime-2.svg"
   inkscape:version="0.92.1 r"&gt;
  <g transform="translate(152.47 194.05)" fill="#fff"><path d="m-125.38-193.25l-.077 3.548 3.072 1.831-3.548-.077-3.135 6.791 1.38-7.268-3.072-1.831 3.548.077z"/><path d="m-125.41-183.04l.042-1.955-1.692-1.01 1.955.042 1.727-3.741-.76 4 1.692 1.01-1.955-.042z"/></g></svg>