<svg xmlns="http://www.w3.org/2000/svg" viewBox="0 0 32 32"><defs><linearGradient gradientTransform="matrix(2.54182 0 0 2.58531-153.47-277.37)" id="0" x1="67.894" y1="108.69" x2="67.854" y2="113.11" gradientUnits="userSpaceOnUse"><stop stop-color="#f9f9f9"/><stop offset="1" stop-color="#999"/></linearGradient></defs><g fill-rule="evenodd"><rect width="28.2" height="28.2" x="1.898" y="1.898" fill-opacity="0" rx="5.575"/><path d="m30.1 19.303l-4.486 1.287 2.355 8.221c1.27-1.02 2.131-2.52 2.131-4.283v-5.225" fill="#d5100d"/><path d="m12.172 30.1l-1.5-5.225-8.02 2.297c.947 1.72 2.708 2.928 4.818 2.928h4.699" fill="#390f39"/><path d="m10.66 24.881l-4.275-14.906c-.008-.001-.014-.001-.021-.002l-4.465 1.281v13.273c0 .978.317 1.849.756 2.646l8.01-2.293" fill="#48c39e"/><path d="m25.602 20.553l-14.93 4.283c-.004.015-.002.028-.006.043l.006-.002 1.5 5.225h12.355c1.325 0 2.489-.524 3.443-1.291l-2.354-8.213c0 0-.002 0-.002 0l-.014-.045" fill="#d81768"/><path d="m21.338 5.68l-.01.002-14.943 4.285-.021.006c.008.001.014.001.021.002l4.275 14.906.006-.002c.004-.015.002-.028.006-.043l14.93-4.283-4.264-14.873" fill="#fff"/><path d="m21.338 5.68l4.277 14.918c.001 0 .001 0 .002 0l-.002-.008 4.486-1.287v-11.83c0-1.505-.606-2.855-1.568-3.855l-7.195 2.063" fill="#ecb524"/><path d="m6.385 9.967l14.943-4.285-1.084-3.783h-12.771c-1.174 0-2.199.443-3.096 1.059l2.01 7.01" fill="#81d2e0"/><path d="m20.244 1.898l1.084 3.783 7.205-2.064c-1.013-1.053-2.422-1.719-4.01-1.719h-4.283" fill="#77971f"/><path d="m1.898 11.254l4.486-1.287-2.01-7.01c-1.462 1-2.479 2.601-2.479 4.516v3.781" fill="#20a48e"/></g><path d="m19.741 18.02c0 .962-.317 1.699-.95 2.212-.629.513-1.558.77-2.788.77-.851 0-1.59-.141-2.219-.423-.624-.282-1.133-.737-1.526-1.366l1.505-1.151c.222.314.432.55.631.707.199.157.435.28.707.367.273.088.587.132.943.132.532 0 .945-.09 1.241-.27.3-.185.451-.465.451-.839 0-.213-.053-.391-.16-.534-.102-.143-.257-.266-.465-.367-.208-.106-.569-.227-1.082-.361-.499-.134-.971-.268-1.415-.402-.439-.139-.821-.317-1.144-.534-.319-.217-.571-.49-.756-.818-.185-.328-.277-.742-.277-1.241 0-.911.307-1.62.922-2.129.615-.513 1.496-.77 2.642-.77 1.66 0 2.834.569 3.523 1.706l-1.491 1.165c-.264-.407-.559-.698-.888-.874-.328-.176-.719-.264-1.172-.264-.453 0-.823.083-1.11.25-.282.162-.423.418-.423.77 0 .31.148.548.444.714.296.162.811.326 1.546.492.407.106.809.222 1.207.347.398.12.751.289 1.061.506.314.217.566.502.756.853.19.351.284.802.284 1.352" fill="#5a3856"/>

   xmlns:dc="http://purl.org/dc/elements/1.1/"
   xmlns:cc="http://creativecommons.org/ns#"
   xmlns:rdf="http://www.w3.org/1999/02/22-rdf-syntax-ns#"
   xmlns:svg="http://www.w3.org/2000/svg"
   xmlns="http://www.w3.org/2000/svg"
   xmlns:xlink="http://www.w3.org/1999/xlink"
   xmlns:sodipodi="http://sodipodi.sourceforge.net/DTD/sodipodi-0.dtd"
   xmlns:inkscape="http://www.inkscape.org/namespaces/inkscape"
   height="32"
   width="32"
   version="1"
   id="svg8"
   sodipodi:docname="snow-top-2.svg"
   inkscape:version="0.92.1 r"&gt;
  <path d="m24.646 6.111c2.995 2.684 1.381 7.817 3.674 8.291 2.031.613 3.541-1.385 3.66-4.503.35-8.627-3.911-9.427-6.879-9.524-28.342-2.047-1.762 4.92-.455 5.736" fill="url(#0)"/></svg>