<svg xmlns="http://www.w3.org/2000/svg" xmlns:xlink="http://www.w3.org/1999/xlink" viewBox="0 0 32 32"><defs><linearGradient gradientTransform="matrix(2.54182 0 0 2.58531-153.47-277.37)" id="3" x1="67.894" y1="108.69" x2="67.854" y2="113.11" gradientUnits="userSpaceOnUse"><stop stop-color="#f9f9f9"/><stop offset="1" stop-color="#999"/></linearGradient><linearGradient xlink:href="#0" id="2" x1="-12.346" y1="-16.03" x2="-13.11" y2="-13.935" gradientUnits="userSpaceOnUse"/><linearGradient id="0"><stop stop-color="#d3e2ff"/><stop offset="1" stop-color="#d3e2ff" stop-opacity="0"/></linearGradient><linearGradient xlink:href="#0" id="1" x1="19.722" y1="16.05" x2="18.954" y2="18.15" gradientUnits="userSpaceOnUse"/></defs><rect width="28.2" height="28.2" x="1.898" y="1.898" fill="#6c92f1" fill-rule="evenodd" rx="5.575"/><g transform="matrix(1.06553 0 0 1.06553-2.095-.164)" stroke-width=".939"><path d="m14.318 10.907l-.176 8.648 5.385 4.815 3.603-2.253-.122-9.162z" fill="#fff"/><g transform="matrix(.74095 0 0 .74095 31.84 5.109)" stroke-width="1.267"><path d="m-16.216 14.15c0 0-.022 9.08.066 9.104.088.022 3.977-2.143 3.977-2.143l.088-9.656z" fill="#a7ceff"/><g fill="#84a0fe" color-rendering="auto" shape-rendering="auto" color-interpolation-filters="linearRGB" image-rendering="auto" color-interpolation="sRGB" color="#000"><path d="m-23.968 7.127v.287 12.486l7.04 6.231.448.072.002-12.435zm.433.96l6.628 5.875v11.619l-6.628-5.875z" mix-blend-mode="normal" isolation="auto" white-space="normal" solid-opacity="1" solid-color="#000000" vector-effect="none" shape-padding="0"/><path d="m-16.921 13.735v.27l.095 11.99.351.209 5.072-3.041v-12.736m-5.055 3.57l4.593-2.754v11.658l-4.593 2.754z" mix-blend-mode="normal" isolation="auto" white-space="normal" solid-opacity="1" solid-color="#000000" vector-effect="none" shape-padding="0"/></g><path d="m-18.734 4.469v7.578l1.813 1.688 5.353-2.937z" fill="#f7b11f"/><path d="m-23.703 7.5l4.969-3.03v7.578z" fill="#ffd04d"/><path d="m-23.271 8.152l-.125 9.469 6.188 5.594v-9.656z" fill="#b0d5ff"/><path d="m-18.668 4.268l-5.234 3.237-.014.29 7.197 6.379 5.506-3.301zm-.057.617l6.67 5.912-4.605 2.76-6.668-5.91z" shape-rendering="auto" mix-blend-mode="normal" isolation="auto" color-interpolation-filters="linearRGB" white-space="normal" fill="#84a0fe" solid-opacity="1" image-rendering="auto" solid-color="#000000" color="#000" color-rendering="auto" vector-effect="none" shape-padding="0" color-interpolation="sRGB"/><path d="m-18.734 4.469l7.167 6.329 2.912-3.251-7.078-6.25z" fill="#ffe692"/><path d="m-15.664.955l-3.389 3.639.191.17 7.244 6.42 3.389-3.639zm.033.697l6.687 5.928-2.707 2.906-6.688-5.928z" shape-rendering="auto" mix-blend-mode="normal" isolation="auto" color-interpolation-filters="linearRGB" white-space="normal" fill="#84a0fe" solid-opacity="1" image-rendering="auto" solid-color="#000000" color="#000" color-rendering="auto" vector-effect="none" shape-padding="0" color-interpolation="sRGB"/><path d="m-25.391 4.781l4.922-2.953 1.734 2.641-4.969 3.03" fill="#ffe692"/><path d="m-20.336 1.385l-5.484 3.289.131.215 1.854 3.061 5.484-3.287zm-.17.686l1.467 2.42-4.627 2.775-1.467-2.422z" shape-rendering="auto" mix-blend-mode="normal" isolation="auto" color-interpolation-filters="linearRGB" white-space="normal" fill="#84a0fe" solid-opacity="1" image-rendering="auto" solid-color="#000000" color="#000" color-rendering="auto" vector-effect="none" shape-padding="0" color-interpolation="sRGB"/><path d="m-12.628 11.516l1.061-.718 3.513 1.01-4.784 3.049-3.621-.856z" fill="#ffe692"/><path d="m-11.674 10.566l-5.247 3.168.213.384 3.868.977.09-.053 5.57-3.34zm.078.535l3.131.791-4.451 2.668-3.129-.789z" shape-rendering="auto" mix-blend-mode="normal" isolation="auto" color-interpolation-filters="linearRGB" white-space="normal" fill="#84a0fe" solid-opacity="1" image-rendering="auto" solid-color="#000000" color="#000" color-rendering="auto" vector-effect="none" shape-padding="0" color-interpolation="sRGB"/><path d="m-22.937 12.157l4.95 4.464.133 6.276c0 0-5.568-4.464-5.392-4.552.177-.088.309-6.187.309-6.187" fill="#88baff"/><g transform="translate(-42.29 3.129)" stroke-width="1.267"><circle cx="16" cy="16" r="6.58" fill="#fff"/><path d="m22.613431 16.04356a6.579604 6.579604 0 0 1 -.926269 3.366154l-5.653-3.366z" fill="url(#1)"/><g transform="matrix(-.1863-.98249.98249-.1863 1.237-1.148)" stroke-width="1.267"><path d="m-13.06715 11.335109a6.579604 6.579604 0 0 1 -2.429607 5.105753l-4.15-5.106z" fill="#d3e2ff"/><path d="m-13.06715 11.335108a6.579604 6.579604 0 0 1 -.792338 3.130295l-5.787-3.13z" fill="#c3d6ff"/></g><g transform="matrix(.15009.98867-.98867.15009-2.226 2.588)" stroke-width="1.267"><path d="m22.623166-16.03383a6.579604 6.579604 0 0 1 -2.429608 5.105753l-4.15-5.106z" fill="#d3e2ff"/><path d="m22.623166-16.03383a6.579604 6.579604 0 0 1 -.792339 3.130295l-5.787-3.13z" fill="#c3d6ff"/></g><path d="m-9.454225-16.04356a6.579604 6.579604 0 0 1 -.926269 3.366154l-5.653-3.366z" transform="scale(-1-1)" fill="url(#2)"/><g fill="#84a0fe"><path d="m16.13 9.304c-3.736 0-6.768 3.03-6.768 6.768 0 3.736 3.03 6.77 6.768 6.77 3.736 0 6.77-3.034 6.77-6.77 0-3.736-3.034-6.768-6.77-6.768m0 .377c3.532 0 6.391 2.859 6.391 6.391 0 3.532-2.859 6.391-6.391 6.391-3.532 0-6.391-2.859-6.391-6.391 0-3.532 2.859-6.391 6.391-6.391" shape-rendering="auto" mix-blend-mode="normal" isolation="auto" color-interpolation-filters="linearRGB" white-space="normal" solid-opacity="1" image-rendering="auto" solid-color="#000000" color="#000" color-rendering="auto" vector-effect="none" shape-padding="0" color-interpolation="sRGB"/><circle cx="16" cy="16" r="2.106" fill-opacity=".574"/></g><circle cx="16" cy="16" r="1.184" fill="#fffffe"/></g><g fill="#88baff"><path d="m-15.479 20.686l.011 2.519 2.74-1.237.033-2.663z"/><path d="m-15.492 19.861v.594l2.797-1.359v-.594z"/><path d="m-15.485 18.97v.594l2.797-1.359v-.594z"/></g></g></g>

   xmlns:dc="http://purl.org/dc/elements/1.1/"
   xmlns:cc="http://creativecommons.org/ns#"
   xmlns:rdf="http://www.w3.org/1999/02/22-rdf-syntax-ns#"
   xmlns:svg="http://www.w3.org/2000/svg"
   xmlns="http://www.w3.org/2000/svg"
   xmlns:xlink="http://www.w3.org/1999/xlink"
   xmlns:sodipodi="http://sodipodi.sourceforge.net/DTD/sodipodi-0.dtd"
   xmlns:inkscape="http://www.inkscape.org/namespaces/inkscape"
   height="32"
   width="32"
   version="1"
   id="svg8"
   sodipodi:docname="snow-top-2.svg"
   inkscape:version="0.92.1 r"&gt;
  <path d="m24.646 6.111c2.995 2.684 1.381 7.817 3.674 8.291 2.031.613 3.541-1.385 3.66-4.503.35-8.627-3.911-9.427-6.879-9.524-28.342-2.047-1.762 4.92-.455 5.736" fill="url(#3)"/></svg>