<svg xmlns="http://www.w3.org/2000/svg" viewBox="0 0 32 32"><defs><linearGradient gradientTransform="matrix(2.54182 0 0 2.58531-153.47-277.37)" id="0" x1="67.894" y1="108.69" x2="67.854" y2="113.11" gradientUnits="userSpaceOnUse"><stop stop-color="#f9f9f9"/><stop offset="1" stop-color="#999"/></linearGradient></defs><rect width="28.2" height="28.2" x="1.898" y="1.898" fill="#8e8e8e" fill-rule="evenodd" rx="5.575"/><g transform="translate(47.66 1.248)"><path d="m-24.702127 14.751773a6.957447 6.957447 0 0 1 -6.957447 6.957447 6.957447 6.957447 0 0 1 -6.957447 -6.957447 6.957447 6.957447 0 0 1 6.957447 -6.957447 6.957447 6.957447 0 0 1 6.957447 6.957447" fill="#4f4f4f"/><path d="m-31.66 3.929c-5.996 0-10.823 4.827-10.823 10.823 0 5.996 4.827 10.823 10.823 10.823 5.996 0 10.823-4.827 10.823-10.823 0-5.996-4.827-10.823-10.823-10.823m0 2.319149a3.092199 3.092199 0 0 1 3.092198 3.092199 3.092199 3.092199 0 0 1 -3.092198 3.092199 3.092199 3.092199 0 0 1 -3.092199 -3.092199 3.092199 3.092199 0 0 1 3.092199 -3.092199m-5.411348 5.411348a3.092199 3.092199 0 0 1 3.092199 3.092198 3.092199 3.092199 0 0 1 -3.092199 3.092199 3.092199 3.092199 0 0 1 -3.092198 -3.092199 3.092199 3.092199 0 0 1 3.092198 -3.092198m10.822695 0a3.092199 3.092199 0 0 1 3.092199 3.092198 3.092199 3.092199 0 0 1 -3.092199 3.092199 3.092199 3.092199 0 0 1 -3.092198 -3.092199 3.092199 3.092199 0 0 1 3.092198 -3.092198m-5.411347 5.411347a3.092199 3.092199 0 0 1 3.092198 3.092199 3.092199 3.092199 0 0 1 -3.092198 3.092198 3.092199 3.092199 0 0 1 -3.092199 -3.092198 3.092199 3.092199 0 0 1 3.092199 -3.092199" fill="#ccc"/><path d="m-30.32065 13.978723a.386525 .386525 0 0 0 -.527993 -.141468 .386525 .386525 0 0 0 -.141468 .527993 .386525 .386525 0 0 0 .527993 .141468 .386525 .386525 0 0 0 .141468 -.527993m-1.583979-.424404a.386525 .386525 0 0 0 -.527993 -.141468 .386525 .386525 0 0 0 -.141468 .527993 .386525 .386525 0 0 0 .527993 .141468 .386525 .386525 0 0 0 .141468 -.527993m1.159575 2.00846a.386525 .386525 0 0 0 -.527993 -.141469 .386525 .386525 0 0 0 -.141468 .527993 .386525 .386525 0 0 0 .527993 .141468 .386525 .386525 0 0 0 .141468 -.527992m-1.583979-.424405a.386525 .386525 0 0 0 -.527993 -.141468 .386525 .386525 0 0 0 -.141468 .527993 .386525 .386525 0 0 0 .527993 .141468 .386525 .386525 0 0 0 .141468 -.527993" fill="#4f4f4f"/></g>

   xmlns:dc="http://purl.org/dc/elements/1.1/"
   xmlns:cc="http://creativecommons.org/ns#"
   xmlns:rdf="http://www.w3.org/1999/02/22-rdf-syntax-ns#"
   xmlns:svg="http://www.w3.org/2000/svg"
   xmlns="http://www.w3.org/2000/svg"
   xmlns:xlink="http://www.w3.org/1999/xlink"
   xmlns:sodipodi="http://sodipodi.sourceforge.net/DTD/sodipodi-0.dtd"
   xmlns:inkscape="http://www.inkscape.org/namespaces/inkscape"
   height="32"
   width="32"
   version="1"
   id="svg8"
   sodipodi:docname="snow-top-2.svg"
   inkscape:version="0.92.1 r"&gt;
  <path d="m24.646 6.111c2.995 2.684 1.381 7.817 3.674 8.291 2.031.613 3.541-1.385 3.66-4.503.35-8.627-3.911-9.427-6.879-9.524-28.342-2.047-1.762 4.92-.455 5.736" fill="url(#0)"/></svg>