<svg xmlns="http://www.w3.org/2000/svg" viewBox="0 0 32 32"><defs><linearGradient gradientTransform="matrix(2.59244 0 0 2.58531-157.93-277.73)" id="0" x1="67.894" y1="108.69" x2="67.854" y2="113.11" gradientUnits="userSpaceOnUse"><stop stop-color="#f9f9f9"/><stop offset="1" stop-color="#999"/></linearGradient></defs><rect width="28.2" height="28.2" x="1.898" y="1.898" fill="#66b744" fill-rule="evenodd" rx="5.575"/><g transform="translate(51.48-4.633)"><rect x="1.563" y="30.743" width="17.866" height="17.866" rx="1.787" transform="matrix(-.70711-.70711-.70711.70711 0 0)" fill="#fff"/><path d="m-35.474 11.09c-1.517 0-2.813.181-3.907.551l-3.46 3.46c-.194.811-.282 1.699-.21 2.277.376 3.01 3.529 4.99 7.578 4.99 2.892 0 4.336 1.487 4.394 1.95.029.232.054 1.24-.48 1.606-.534.366-1.977.781-3.914.781-2.376 0-5.212-1.506-5.212-1.506-.897-.534-1.982-.143-2.418.703l3.557 3.557c1.16.386 2.566.717 4.074.717 1.517 0 2.813-.181 3.907-.551l3.46-3.46c.194-.811.282-1.699.21-2.277-.376-3.01-3.529-4.99-7.578-4.99-2.892 0-4.249-1.487-4.307-1.95-.029-.232-.054-1.24.48-1.606.534-.366 1.89-.781 3.828-.781 2.376 0 5.212 1.506 5.212 1.506.897.534 1.982.143 2.418-.703l-3.557-3.557c-1.16-.386-2.566-.717-4.074-.717" fill="#66b744" fill-rule="evenodd"/></g>

   xmlns:dc="http://purl.org/dc/elements/1.1/"
   xmlns:cc="http://creativecommons.org/ns#"
   xmlns:rdf="http://www.w3.org/1999/02/22-rdf-syntax-ns#"
   xmlns:svg="http://www.w3.org/2000/svg"
   xmlns="http://www.w3.org/2000/svg"
   xmlns:xlink="http://www.w3.org/1999/xlink"
   xmlns:sodipodi="http://sodipodi.sourceforge.net/DTD/sodipodi-0.dtd"
   xmlns:inkscape="http://www.inkscape.org/namespaces/inkscape"
   version="1"
   width="32"
   height="32"
   id="svg12"
   sodipodi:docname="snow-top-4.svg"
   inkscape:version="0.92.1 r"&gt;
  <path d="m7.196.009c-8.161-.339-9.231 9.523-3.968 9.505.669.003 1.581-.197 2.929-1.471 3.773-4.147 9.01 4.479 14.696-1.042.61-.911 1.804-1.135 2.455-.627 1.045.677 2.87 2.991 3.88 3 2.359.513 4.095-.198 4.816-3.188.185-3.165-2.303-6.286-6.281-6.17-5.832.133-12.809-.045-18.527-.01" fill="url(#0)"/></svg>