<svg xmlns="http://www.w3.org/2000/svg" viewBox="0 0 32 32"><defs><linearGradient gradientTransform="matrix(2.62891 0 0 2.71269-160.16-291.42)" id="0" x1="67.894" y1="108.69" x2="67.854" y2="113.11" gradientUnits="userSpaceOnUse"><stop stop-color="#f9f9f9"/><stop offset="1" stop-color="#999"/></linearGradient></defs><rect width="28.2" height="28.2" x="1.898" y="1.898" fill="#5db43e" fill-rule="evenodd" rx="5.575"/><g fill="#fff"><path d="m16.02 5.424c2.104.005 4.237.698 5.904 2.071 1.171 1.428-1.061 2.956-2.066 1.564-3.03-1.937-7.295-1.255-9.572 1.641-1.211 1.437-1.894 3.355-1.886 5.28h2c-1.067 1.692-2.134 3.384-3.2 5.077l-3.2-5.077h2c-.064-4.597 3.062-8.969 7.258-10.16.9-.261 1.828-.407 2.762-.397m8.78 5.501c1.066 1.692 2.132 3.386 3.199 5.078h-2c.057 4.652-3.148 9.07-7.418 10.201-2.881.851-6.139.23-8.506-1.717-1.208-1.451 1.055-2.965 2.07-1.561 2.932 1.882 7.04 1.285 9.353-1.403 1.34-1.461 2.112-3.485 2.102-5.521h-2l3.2-5.077z" stroke-width="1.05"/><path d="m14.745 10.979l-.111 1.323a3.945129 3.945129 0 0 0 -1.152973 .666864l-1.202-.566-1.255 2.174 1.091.758a3.945129 3.945129 0 0 0 -.06025 .665447 3.945129 3.945129 0 0 0 .05736 .668258l-1.089.755 1.255 2.174 1.199-.565a3.945129 3.945129 0 0 0 1.155774 .662647l.111 1.325h2.511l.111-1.323a3.945129 3.945129 0 0 0 1.152998 -.666863l1.202.566 1.255-2.174-1.091-.758a3.945129 3.945129 0 0 0 .06025 -.665445 3.945129 3.945129 0 0 0 -.05736 -.66826l1.089-.755-1.255-2.174-1.199.565a3.945129 3.945129 0 0 0 -1.156087 -.662773l-.11-1.326h-2.511m1.255304 3.586881a1.434627 1.434627 0 0 1 1.434752 1.434752 1.434627 1.434627 0 0 1 -1.434752 1.434751 1.434627 1.434627 0 0 1 -1.434753 -1.434751 1.434627 1.434627 0 0 1 1.434753 -1.434752z"/></g>

   xmlns:dc="http://purl.org/dc/elements/1.1/"
   xmlns:cc="http://creativecommons.org/ns#"
   xmlns:rdf="http://www.w3.org/1999/02/22-rdf-syntax-ns#"
   xmlns:svg="http://www.w3.org/2000/svg"
   xmlns="http://www.w3.org/2000/svg"
   xmlns:xlink="http://www.w3.org/1999/xlink"
   xmlns:sodipodi="http://sodipodi.sourceforge.net/DTD/sodipodi-0.dtd"
   xmlns:inkscape="http://www.inkscape.org/namespaces/inkscape"
   version="1"
   width="32"
   height="32"
   id="svg12"
   sodipodi:docname="snow-top-1.svg"
   inkscape:version="0.92.1 r"&gt;
  <path d="m7.288.009c-8.276-.356-9.36 9.992-4.02 9.973.679.003 1.604-.207 2.97-1.543 7.256-10.531 14.706 3.573 17.53.919 1.71-1.912 3.496-.418 4.448.115 2.1.643 3.662.041 3.785-3.231.188-3.321-1.889-6.344-5.923-6.223-5.914.14-12.989-.047-18.787-.01" fill="url(#0)"/><path fill="#f00" fill-opacity="0" d="m0 0h32v32h-32z"/></svg>