<svg xmlns="http://www.w3.org/2000/svg" viewBox="0 0 32 32"><defs><linearGradient gradientTransform="matrix(2.59244 0 0 2.58531-157.93-277.73)" id="0" x1="67.894" y1="108.69" x2="67.854" y2="113.11" gradientUnits="userSpaceOnUse"><stop stop-color="#f9f9f9"/><stop offset="1" stop-color="#999"/></linearGradient></defs><g transform="translate(47.865-11.391)" fill-rule="evenodd"><path d="m-36.08 21.436v3.059h8.152v-3.059z" fill="#ccc"/><path d="m-17.764 24.494h-8.123v-3.059l-2.037-2.037h-8.152l-2.037 2.037v3.059h-7.854v11.422c0 3.089 2.488 5.576 5.576 5.576h17.05c3.089 0 5.574-2.488 5.574-5.576zm-18.313-3.059h8.152v3.059h-8.152z" fill="#808080"/><path d="m-40.39 13.289c-3.089 0-5.576 2.486-5.576 5.574v5.631h7.854v-3.059l2.037-2.037h8.152l2.037 2.037v3.059h8.123v-5.631c0-3.089-2.486-5.574-5.574-5.574z" fill="#ccc"/></g><g transform="matrix(.8 0 0 .8 3 3.571)" stroke-width=".667"><circle r="7.5" cy="23.5" cx="24.5" fill="#4ab3e4" fill-rule="evenodd"/><path d="m26 18.96v4.04l1.5-.04-3 4.04-3-4.04h1.5v-4zm-5 8.04h7v1h-7z" fill="#fff"/></g>

   xmlns:dc="http://purl.org/dc/elements/1.1/"
   xmlns:cc="http://creativecommons.org/ns#"
   xmlns:rdf="http://www.w3.org/1999/02/22-rdf-syntax-ns#"
   xmlns:svg="http://www.w3.org/2000/svg"
   xmlns="http://www.w3.org/2000/svg"
   xmlns:xlink="http://www.w3.org/1999/xlink"
   xmlns:sodipodi="http://sodipodi.sourceforge.net/DTD/sodipodi-0.dtd"
   xmlns:inkscape="http://www.inkscape.org/namespaces/inkscape"
   version="1"
   width="32"
   height="32"
   id="svg12"
   sodipodi:docname="snow-top-4.svg"
   inkscape:version="0.92.1 r"&gt;
  <path d="m7.196.009c-8.161-.339-9.231 9.523-3.968 9.505.669.003 1.581-.197 2.929-1.471 3.773-4.147 9.01 4.479 14.696-1.042.61-.911 1.804-1.135 2.455-.627 1.045.677 2.87 2.991 3.88 3 2.359.513 4.095-.198 4.816-3.188.185-3.165-2.303-6.286-6.281-6.17-5.832.133-12.809-.045-18.527-.01" fill="url(#0)"/></svg>