<svg xmlns="http://www.w3.org/2000/svg" xmlns:xlink="http://www.w3.org/1999/xlink" viewBox="0 0 32 32"><defs><linearGradient gradientTransform="matrix(-2.54182 0 0 2.58531 185.47-277.37)" id="1" x1="67.894" y1="108.69" x2="67.854" y2="113.11" gradientUnits="userSpaceOnUse"><stop stop-color="#f9f9f9"/><stop offset="1" stop-color="#999"/></linearGradient></defs><rect width="28.2" height="28.2" x="1.898" y="1.898" fill="#e73c4f" fill-rule="evenodd" rx="5.575"/><path d="m16.803 1.921l.008 9.986.014 10.986h3.03l.008-2.889c.006-2.287.013-2.887.039-2.877.018.007.51.883 1.096 1.945.585 1.063 1.14 2.052 1.23 2.199.186.305.551.727.789.908.497.38 1.016.575 1.816.684.429.058 1.877.079 1.922.027.019-.022.026-.545.021-1.656l-.008-1.623-.535-.02c-.607-.022-.738-.051-1.084-.246-.269-.152-.58-.481-.811-.854-.082-.133-.496-.879-.92-1.658-.747-1.374-.769-1.42-.729-1.49.023-.04.953-1.539 2.068-3.33 1.115-1.791 2.035-3.276 2.043-3.299.012-.036-.273-.043-1.795-.043h-1.813l-1.631 2.621c-.898 1.442-1.647 2.626-1.664 2.633-.029.011-.03-8.346-.014-11.992-.097 0-.19-.012-.286-.012h-2.797zm-6.744 7c-.374.003-.739.021-.914.055-1.441.274-2.462 1.048-3.01 2.289-.175.393-.282.774-.35 1.236-.045.308-.049.441-.037.941.01.409.027.667.063.867.242 1.365.934 2.23 2.139 2.682.389.146.632.201 1.672.375.578.096 1.019.183 1.111.221.398.163.583.457.617.973.042.635-.267 1.07-.891 1.25-.25.072-.707.113-1.029.092-1.058-.07-1.748-.33-2.346-.887l-.07-.067-.904 1.059c-.498.582-.906 1.083-.906 1.111 0 .071.418.491.738.742.809.635 1.667.934 3.03 1.053.286.025 1.34-.012 1.584-.055 1.831-.321 3.094-1.416 3.508-3.045.192-.757.188-1.902-.01-2.75-.145-.623-.334-1.013-.701-1.446-.384-.451-.714-.685-1.293-.912-.391-.153-.719-.226-1.762-.396-1.112-.183-1.244-.229-1.498-.506-.287-.314-.337-.732-.145-1.19.136-.323.414-.557.815-.685.209-.067 1.045-.073 1.379-.012.448.083.869.287 1.168.57.087.082.173.15.191.15.05 0 1.783-2.037 1.783-2.096 0-.068-.335-.399-.66-.654-.627-.492-1.373-.793-2.302-.928-.208-.03-.59-.042-.963-.039" fill="#fff"/>

   xmlns:dc="http://purl.org/dc/elements/1.1/"
   xmlns:cc="http://creativecommons.org/ns#"
   xmlns:rdf="http://www.w3.org/1999/02/22-rdf-syntax-ns#"
   xmlns:svg="http://www.w3.org/2000/svg"
   xmlns="http://www.w3.org/2000/svg"
   xmlns:xlink="http://www.w3.org/1999/xlink"
   xmlns:sodipodi="http://sodipodi.sourceforge.net/DTD/sodipodi-0.dtd"
   xmlns:inkscape="http://www.inkscape.org/namespaces/inkscape"
   height="32"
   width="32"
   version="1"
   id="svg8"
   sodipodi:docname="snow-top-3.svg"
   inkscape:version="0.92.1 r"&gt;
  <path fill="#00000f" fill-opacity="0" d="m0 0h32v32h-32z" id="0"/><path d="m7.354 6.111c-2.995 2.684-1.381 7.817-3.674 8.291-2.031.613-3.541-1.385-3.66-4.503-.35-8.627 3.911-9.427 6.879-9.524 28.342-2.047 1.762 4.92.455 5.736" fill="url(#1)"/><use xlink:href="#0"/></svg>