<svg xmlns="http://www.w3.org/2000/svg" viewBox="0 0 32 32"><defs><linearGradient gradientTransform="matrix(2.59244 0 0 2.58531-157.93-277.73)" id="0" x1="67.894" y1="108.69" x2="67.854" y2="113.11" gradientUnits="userSpaceOnUse"><stop stop-color="#f9f9f9"/><stop offset="1" stop-color="#999"/></linearGradient></defs><rect width="28.2" height="28.2" x="1.898" y="1.898" fill="#f83" fill-rule="evenodd" rx="5.575"/><path d="m5.249 16.98c-.046 0-.082.037-.088.09l-.161 1.279.161 1.257c.006.053.042.09.088.09.045 0 .081-.037.088-.089l.191-1.258-.191-1.279c-.007-.053-.043-.09-.088-.09m.905-.699c-.008-.055-.045-.093-.092-.093-.047 0-.085.039-.092.093 0 .001-.216 2.068-.216 2.068l.216 2.022c.006.054.045.093.092.093.046 0 .084-.038.091-.093l.246-2.023zm3.408-1.908c-.089 0-.162.076-.166.173l-.172 3.805.172 2.459c.004.096.078.172.166.172.088 0 .161-.076.167-.172v.002l.195-2.459-.195-3.805c-.005-.097-.078-.173-.167-.173m-1.764 1.323c-.068 0-.124.057-.129.133l-.194 2.521.194 2.439c.005.076.061.132.129.132.067 0 .123-.057.129-.132l.22-2.439-.221-2.521c-.006-.076-.061-.133-.129-.133m3.556 5.286c.11 0 .199-.093.204-.212l.169-2.417-.169-5.065c-.004-.119-.094-.212-.204-.212-.111 0-.201.093-.204.212 0 0-.15 5.065-.15 5.065l.15 2.418c.004.118.093.211.204.211m3.67.011c.151 0 .276-.131.279-.291v.002-.002l.118-2.348-.118-5.85c-.003-.16-.128-.291-.279-.291-.152 0-.277.13-.279.291l-.105 5.848c0 .004.105 2.352.105 2.352.002.159.128.289.279.289m-1.849-.009c.132 0 .238-.111.242-.252v.002l.143-2.381-.144-5.102c-.004-.141-.11-.252-.242-.252-.133 0-.239.11-.242.252l-.128 5.102.128 2.38c.003.14.109.25.242.25m-4.499-.022c.078 0 .142-.066.148-.152l.208-2.459-.208-2.34c-.006-.086-.069-.152-.148-.152-.079 0-.143.066-.148.153l-.183 2.338.183 2.459c.005.087.068.152.148.152m-1.75-.135c.057 0 .104-.047.11-.113l.233-2.364-.233-2.453c-.007-.066-.053-.113-.111-.113-.058 0-.104.048-.11.113 0 0-.205 2.454-.205 2.454l.205 2.364c.006.066.052.113.11.113m7.169-7.662c-.143 0-.258.119-.261.272l-.116 4.916.116 2.365c.003.151.117.27.261.27.143 0 .257-.119.26-.271v.002l.131-2.365-.131-4.916c-.003-.152-.117-.271-.26-.271m-3.641 7.821c.099 0 .181-.084.185-.192l.182-2.442-.182-4.675c-.005-.108-.086-.192-.185-.192-.1 0-.181.084-.185.192 0 0-.161 4.675-.161 4.675l.161 2.443c.004.107.085.191.185.191m2.029-.231v-.002l.156-2.402-.156-5.236c-.004-.13-.102-.232-.223-.232-.122 0-.22.102-.223.232l-.139 5.236.139 2.403c.003.129.101.231.223.231.121 0 .219-.102.223-.231v.002m11.81-5.422c-.371 0-.724.079-1.047.22-.215-2.553-2.26-4.555-4.755-4.555-.61 0-1.206.126-1.731.339-.204.083-.259.168-.261.333v8.989c.002.173.131.318.292.335.007.002 7.453.005 7.501.005 1.494 0 2.706-1.268 2.706-2.832 0-1.564-1.211-2.833-2.706-2.833m-8.346-3.671c-.163 0-.296.14-.298.311l-.122 6.38.122 2.316c.002.169.136.309.298.309.162 0 .296-.139.298-.311v.003l.133-2.316-.133-6.381c-.002-.171-.136-.311-.298-.311" fill="#fff"/>

   xmlns:dc="http://purl.org/dc/elements/1.1/"
   xmlns:cc="http://creativecommons.org/ns#"
   xmlns:rdf="http://www.w3.org/1999/02/22-rdf-syntax-ns#"
   xmlns:svg="http://www.w3.org/2000/svg"
   xmlns="http://www.w3.org/2000/svg"
   xmlns:xlink="http://www.w3.org/1999/xlink"
   xmlns:sodipodi="http://sodipodi.sourceforge.net/DTD/sodipodi-0.dtd"
   xmlns:inkscape="http://www.inkscape.org/namespaces/inkscape"
   version="1"
   width="32"
   height="32"
   id="svg12"
   sodipodi:docname="snow-top-4.svg"
   inkscape:version="0.92.1 r"&gt;
  <path d="m7.196.009c-8.161-.339-9.231 9.523-3.968 9.505.669.003 1.581-.197 2.929-1.471 3.773-4.147 9.01 4.479 14.696-1.042.61-.911 1.804-1.135 2.455-.627 1.045.677 2.87 2.991 3.88 3 2.359.513 4.095-.198 4.816-3.188.185-3.165-2.303-6.286-6.281-6.17-5.832.133-12.809-.045-18.527-.01" fill="url(#0)"/></svg>