<svg xmlns="http://www.w3.org/2000/svg" viewBox="0 0 32 32"><defs><linearGradient gradientTransform="matrix(2.54182 0 0 2.58531-153.47-277.37)" id="0" x1="67.894" y1="108.69" x2="67.854" y2="113.11" gradientUnits="userSpaceOnUse"><stop stop-color="#f9f9f9"/><stop offset="1" stop-color="#999"/></linearGradient></defs><g fill-rule="evenodd"><rect width="28.2" height="28.2" x="1.898" y="1.898" fill="#5b3a2b" rx="5.575"/><g transform="translate(42.11.736)"><g fill="#5b3a2b"><path d="m-32.82 29.365h15.242c3.089 0 5.574-2.488 5.574-5.576v-17.05c0-1.26-.49-2.361-1.189-3.293.204.441.455.86.455 1.398 0 .631-.302 1.226-.658 1.611-.356.385-.758.63-1.188.838-.858.416-1.87.676-3.045.895-1.772.329-3.421.447-5.643.574 2.202.257 3.833.509 5.561.789 1.141.185 2.106.375 2.885.613.39.119.732.239 1.09.453.179.107.415.262.613.502.198.24.359.566.383 1.016.025.462-.17.895-.371 1.152-.201.257-.401.397-.584.51-.366.225-.705.344-1.096.463-.781.238-1.753.425-2.906.611-2.307.373-3.624.719-6.598 1.104-2.974.385-6.24.813-8.314 1.311-.636.153-.962.301-1.391.455.5.233.977.467 1.725.734 1.855.664 4.724 1.341 7.254 1.938.134-.035.237-.089.371-.123 1.509-.379 2.595-.618 3.609-.758 1.014-.139 1.956-.18 3.18-.156 1.223.024 2.316.163 3.293.65.488.243.944.566 1.279.979.335.412.55.915.551 1.521 0 .027-.001.053-.002.08-.035.662-.474 1.085-.914 1.396-.44.311-.875.438-1.322.531-.895.186-1.903.192-3.082.121-2.358-.141-3.661-.433-6.65-1.098-.089-.02-.157-.05-.246-.07-2.487.679-5.323 1.476-7.162 2.277-1.057.461-1.925.914-2.451 1.266-.166.111-.223.169-.311.244.081.523.366.952.826 1.324.546.441 1.1.656 1.1.656.056.021.08.086.133.113"/><path d="m-22.385 1.162h-12.246c-3.089 0-5.576 2.486-5.576 5.574v17.05c0 1.945 1.047 3.57 2.549 4.566-.143-.448-.255-.921-.238-1.455.023-.721.365-1.15.666-1.479.301-.328.637-.587 1.023-.846.773-.517 1.753-1.014 2.91-1.518.825-.359 2-.64 2.971-.988-.96-.286-2.13-.532-2.945-.824-1.142-.409-2.104-.808-2.867-1.23-.382-.211-.713-.421-1.027-.713-.293-.272-.656-.696-.699-1.406-.055-.609.17-1.236.486-1.615.341-.409.724-.651 1.133-.865.817-.428 1.792-.723 2.947-1 2.311-.555 5.624-.979 8.625-1.367 2.295-.297 2.648-.564 4.58-.834-1.895-.261-2.203-.52-4.451-.781-2.948-.342-6.216-.695-8.496-1.113-1.14-.209-2.103-.426-2.893-.713-.395-.144-.747-.293-1.111-.563-.182-.135-.4-.338-.57-.607-.17-.269-.293-.606-.283-1.01.01-.411.188-.598.465-.68.277-.082.656-.057 1.066-.041 0 0 6.173.22 11.994.006 1.201-.047 2.707-.077 4.223-.34.758-.132 1.518-.322 2.244-.602.726-.279 1.419-.647 2.039-1.137.005-.002.001-.003.006-.006-.071-.216-.184-.524-.842-1.012-.793-.589-1.994-1.188-3.217-1.678-1.199-.481-1.574-.523-2.465-.781"/></g><path d="m-22.385 1.162c.891.258 1.266.301 2.465.781 1.223.49 2.423 1.089 3.217 1.678.658.488.77.796.842 1.012-.005.002-.001.003-.006.006-.62.49-1.313.857-2.039 1.137-.726.279-1.486.47-2.244.602-1.516.263-3.02.293-4.223.34-5.821.214-11.994-.006-11.994-.006-.411-.016-.789-.041-1.066.041-.277.082-.455.269-.465.68-.01.399.113.736.283 1.01.17.269.388.472.57.607.364.27.716.419 1.111.563.79.287 1.753.504 2.893.713 2.28.418 5.548.771 8.496 1.113 2.248.261 2.556.52 4.451.781-1.932.27-2.285.537-4.58.834-3 .388-6.314.813-8.625 1.367-1.155.277-2.131.572-2.947 1-.408.214-.792.457-1.133.865-.316.379-.541 1.01-.486 1.615.043.71.406 1.134.699 1.406.315.292.646.502 1.027.713.763.423 1.725.822 2.867 1.23.815.292 1.985.538 2.945.824-.969.348-2.146.629-2.971.988-1.157.504-2.137 1-2.91 1.518-.387.258-.722.518-1.023.846-.301.328-.643.758-.666 1.479-.017.534.095 1.01.238 1.455.883.586 1.884 1.01 3.03 1.01h1.811c-.053-.028-.077-.092-.133-.113 0 0-.554-.215-1.1-.656-.461-.372-.745-.801-.826-1.324.087-.075.145-.134.311-.244.527-.352 1.394-.805 2.451-1.266 1.839-.801 4.675-1.598 7.162-2.277.089.02.157.05.246.07 2.99.665 4.292.956 6.65 1.098 1.179.071 2.187.065 3.082-.121.448-.093.882-.22 1.322-.531.44-.311.879-.734.914-1.396.001-.027.002-.053.002-.08-.001-.606-.216-1.109-.551-1.521-.335-.412-.791-.735-1.279-.979-.977-.487-2.07-.627-3.293-.65-1.223-.024-2.165.017-3.18.156-1.014.139-2.1.379-3.609.758-.135.034-.237.088-.371.123-2.53-.597-5.399-1.273-7.254-1.938-.747-.268-1.225-.501-1.725-.734.429-.154.755-.302 1.391-.455 2.075-.498 5.341-.926 8.314-1.311 2.974-.385 4.291-.73 6.598-1.104 1.154-.187 2.125-.374 2.906-.611.391-.119.73-.238 1.096-.463.183-.113.383-.253.584-.51.201-.257.396-.69.371-1.152-.024-.449-.185-.776-.383-1.016-.198-.24-.434-.395-.613-.502-.358-.215-.7-.334-1.09-.453-.779-.238-1.744-.428-2.885-.613-1.728-.28-3.359-.532-5.561-.789 2.222-.127 3.871-.245 5.643-.574 1.175-.218 2.186-.479 3.045-.895.429-.208.831-.453 1.188-.838.356-.385.658-.98.658-1.611 0-.539-.251-.957-.455-1.398-1.015-1.352-2.556-2.281-4.385-2.281z" fill="#f19037"/></g></g>

   xmlns:dc="http://purl.org/dc/elements/1.1/"
   xmlns:cc="http://creativecommons.org/ns#"
   xmlns:rdf="http://www.w3.org/1999/02/22-rdf-syntax-ns#"
   xmlns:svg="http://www.w3.org/2000/svg"
   xmlns="http://www.w3.org/2000/svg"
   xmlns:xlink="http://www.w3.org/1999/xlink"
   xmlns:sodipodi="http://sodipodi.sourceforge.net/DTD/sodipodi-0.dtd"
   xmlns:inkscape="http://www.inkscape.org/namespaces/inkscape"
   height="32"
   width="32"
   version="1"
   id="svg8"
   sodipodi:docname="snow-top-2.svg"
   inkscape:version="0.92.1 r"&gt;
  <path d="m24.646 6.111c2.995 2.684 1.381 7.817 3.674 8.291 2.031.613 3.541-1.385 3.66-4.503.35-8.627-3.911-9.427-6.879-9.524-28.342-2.047-1.762 4.92-.455 5.736" fill="url(#0)"/></svg>