<svg xmlns="http://www.w3.org/2000/svg" viewBox="0 0 32 32"><defs><linearGradient gradientTransform="matrix(2.59244 0 0 2.58531-157.93-277.73)" id="0" x1="67.894" y1="108.69" x2="67.854" y2="113.11" gradientUnits="userSpaceOnUse"><stop stop-color="#f9f9f9"/><stop offset="1" stop-color="#999"/></linearGradient></defs><rect width="28.2" height="28.2" x="1.898" y="1.898" fill="#81d547" fill-rule="evenodd" rx="5.575"/><path d="m16.02 8c1.753.004 3.531.528 4.92 1.567.976 1.08-.884 2.236-1.722 1.183-2.522-1.465-6.079-.949-7.976 1.241-1.01 1.087-1.578 2.538-1.572 3.994h1.667c-.889 1.28-1.778 2.56-2.667 3.84l-2.667-3.84h1.667c-.053-3.477 2.551-6.784 6.05-7.685.75-.197 1.523-.308 2.302-.3m7.317 4.161c.888 1.28 1.777 2.561 2.666 3.841h-1.667c.047 3.519-2.624 6.863-6.182 7.716-2.401.644-5.116.174-7.089-1.299-1.01-1.098.879-2.243 1.725-1.181 2.444 1.424 5.865.972 7.794-1.061 1.117-1.105 1.76-2.636 1.751-4.176h-1.667l2.667-3.841" fill="#fff"/><g transform="matrix(.75 0 0 .75 4.316 5.592)" stroke-width="1.333"><circle r="8" cy="23" cx="24" fill="#8561c5"/><path d="m28 18l-6 1v5.27a2 2 0 0 0 -1 -.27 2 2 0 0 0 -2 2 2 2 0 0 0 2 2 2 2 0 0 0 2 -2v-5.166l4-.668v3.104a2 2 0 0 0 -1 -.27 2 2 0 0 0 -2 2 2 2 0 0 0 2 2 2 2 0 0 0 2 -2v-7" fill="#fff"/></g>

   xmlns:dc="http://purl.org/dc/elements/1.1/"
   xmlns:cc="http://creativecommons.org/ns#"
   xmlns:rdf="http://www.w3.org/1999/02/22-rdf-syntax-ns#"
   xmlns:svg="http://www.w3.org/2000/svg"
   xmlns="http://www.w3.org/2000/svg"
   xmlns:xlink="http://www.w3.org/1999/xlink"
   xmlns:sodipodi="http://sodipodi.sourceforge.net/DTD/sodipodi-0.dtd"
   xmlns:inkscape="http://www.inkscape.org/namespaces/inkscape"
   version="1"
   width="32"
   height="32"
   id="svg12"
   sodipodi:docname="snow-top-4.svg"
   inkscape:version="0.92.1 r"&gt;
  <path d="m7.196.009c-8.161-.339-9.231 9.523-3.968 9.505.669.003 1.581-.197 2.929-1.471 3.773-4.147 9.01 4.479 14.696-1.042.61-.911 1.804-1.135 2.455-.627 1.045.677 2.87 2.991 3.88 3 2.359.513 4.095-.198 4.816-3.188.185-3.165-2.303-6.286-6.281-6.17-5.832.133-12.809-.045-18.527-.01" fill="url(#0)"/></svg>