<svg xmlns="http://www.w3.org/2000/svg" viewBox="0 0 32 32"><rect width="28.2" height="28.2" x="1.898" y="1.898" fill="#1ed760" fill-rule="evenodd" rx="5.575"/><path d="m14.06 10c-1.696 0-3.336.174-4.734.521-.718.178-.772.199-.971.367-.246.207-.351.434-.352.76 0 .404.193.716.557.896.298.147.491.142 1.143-.023.659-.167 1.593-.327 2.412-.414.832-.088 3.457-.073 4.297.023 2.276.263 3.898.695 5.469 1.458.402.195.8.371.885.391.45.103.985-.172 1.172-.602.093-.214.085-.607-.016-.818-.124-.261-.377-.447-1.049-.773-1.143-.554-2.372-.971-3.745-1.266-1.619-.348-3.372-.521-5.068-.521m-.679 4c-.302.004-.562.015-.738.033-1.141.115-2.621.429-3.091.656-.495.239-.669 1.01-.365 1.501.117.189.466.398.664.398.075 0 .434-.084.799-.185 1.066-.295 1.78-.392 3.081-.417.843-.016 1.584-.002 2.076.055 2.089.241 3.925.652 5.696 1.695.244.143.495.261.56.26.527-.001.986-.652.896-1.178-.079-.459-.276-.651-1.182-1.156-1.5-.837-3.447-1.274-5.404-1.562-.335-.049-1.018-.083-1.703-.096-.343-.007-.987-.008-1.289-.004m1.111 4c-.242.004-.45.015-.591.033-.912.115-2.098.429-2.474.656-.396.239-.535 1.01-.292 1.501.093.189.373.398.531.398.06 0 .348-.084.641-.185.853-.295 1.423-.392 2.464-.417.675-.016.682-.002 1.076.055 1.671.241 2.599.652 4.02 1.695.195.143.399.261.451.26.422-.001.786-.553.714-1.078-.063-.459-.218-.651-.943-1.156-1.2-.837-2.218-1.373-3.784-1.662-.268-.049-.814-.083-1.362-.097-.274-.007-.204-.008-.445-.004" fill="#fff"/>

   xmlns:dc="http://purl.org/dc/elements/1.1/"
   xmlns:cc="http://creativecommons.org/ns#"
   xmlns:rdf="http://www.w3.org/1999/02/22-rdf-syntax-ns#"
   xmlns:svg="http://www.w3.org/2000/svg"
   xmlns="http://www.w3.org/2000/svg"
   xmlns:sodipodi="http://sodipodi.sourceforge.net/DTD/sodipodi-0.dtd"
   xmlns:inkscape="http://www.inkscape.org/namespaces/inkscape"
   height="32"
   width="32"
   version="1"
   id="svg8"
   sodipodi:docname="star-mime-2.svg"
   inkscape:version="0.92.1 r"&gt;
  <g transform="translate(152.47 194.05)" fill="#fff"><path d="m-125.38-193.25l-.077 3.548 3.072 1.831-3.548-.077-3.135 6.791 1.38-7.268-3.072-1.831 3.548.077z"/><path d="m-125.41-183.04l.042-1.955-1.692-1.01 1.955.042 1.727-3.741-.76 4 1.692 1.01-1.955-.042z"/></g></svg>