<svg xmlns="http://www.w3.org/2000/svg" viewBox="0 0 32 32"><defs><linearGradient gradientTransform="matrix(2.59244 0 0 2.58531-157.93-277.73)" id="0" x1="67.894" y1="108.69" x2="67.854" y2="113.11" gradientUnits="userSpaceOnUse"><stop stop-color="#f9f9f9"/><stop offset="1" stop-color="#999"/></linearGradient></defs><rect width="28.2" height="28.2" x="1.898" y="1.898" fill="#3c5771" fill-rule="evenodd" rx="5.575"/><g transform="translate(42.13-1)"><path d="m-26.13158 5.421053a1.5 1.5 0 0 0 -1.5 1.5 1.5 1.5 0 0 0 1.5 1.5 1.5 1.5 0 0 0 1.5 -1.5 1.5 1.5 0 0 0 -1.5 -1.5m-6.03516 2a1.5 1.5 0 0 0 -.714844 .199219 1.5 1.5 0 0 0 -.548828 2.050781 1.5 1.5 0 0 0 2.048828 .548828 1.5 1.5 0 0 0 .548828 -2.048828 1.5 1.5 0 0 0 -1.333984 -.75m12.07031 0a1.5 1.5 0 0 0 -1.333984 .75 1.5 1.5 0 0 0 .548828 2.048828 1.5 1.5 0 0 0 2.048828 -.548828 1.5 1.5 0 0 0 -.548828 -2.050781 1.5 1.5 0 0 0 -.714844 -.199219M-36.09447 11.421053a1.5 1.5 0 0 0 -.107421 .002 1.5 1.5 0 0 0 -1.228516 .748047 1.5 1.5 0 0 0 .550781 2.048828 1.5 1.5 0 0 0 2.048828 -.548828 1.5 1.5 0 0 0 -.548828 -2.048828 1.5 1.5 0 0 0 -.714844 -.201172m19.925782-.000047a1.5 1.5 0 0 0 -.714844 .201172 1.5 1.5 0 0 0 -.548828 2.048828 1.5 1.5 0 0 0 2.048828 .548828 1.5 1.5 0 0 0 .550781 -2.048828 1.5 1.5 0 0 0 -1.228516 -.748047 1.5 1.5 0 0 0 -.107421 -.002m-20.962891 6.00005a1.5 1.5 0 0 0 -1.5 1.5 1.5 1.5 0 0 0 1.5 1.5 1.5 1.5 0 0 0 1.5 -1.5 1.5 1.5 0 0 0 -1.5 -1.5m22 0a1.5 1.5 0 0 0 -1.5 1.5 1.5 1.5 0 0 0 1.5 1.5 1.5 1.5 0 0 0 1.5 -1.5 1.5 1.5 0 0 0 -1.5 -1.5m-20.03516 5a1.5 1.5 0 0 0 -.712891 .201172 1.5 1.5 0 0 0 -.550781 2.048828 1.5 1.5 0 0 0 2.050781 .548828 1.5 1.5 0 0 0 .548828 -2.048828 1.5 1.5 0 0 0 -1.335937 -.75m17.96289 0a1.5 1.5 0 0 0 -1.228515 .75 1.5 1.5 0 0 0 .548828 2.048828 1.5 1.5 0 0 0 2.050781 -.548828 1.5 1.5 0 0 0 -.550781 -2.048828 1.5 1.5 0 0 0 -.712891 -.201172 1.5 1.5 0 0 0 -.107422 0" fill="#64dedc"/><path d="m-17.438 20.25l-8.116-.622.776-2.898z" fill="#f0f2f7"/><circle transform="matrix(-.25882.96593-.96593-.25882 0 0)" cx="24.07" cy="20.603" r="2.5" fill="#24303e"/></g>

   xmlns:dc="http://purl.org/dc/elements/1.1/"
   xmlns:cc="http://creativecommons.org/ns#"
   xmlns:rdf="http://www.w3.org/1999/02/22-rdf-syntax-ns#"
   xmlns:svg="http://www.w3.org/2000/svg"
   xmlns="http://www.w3.org/2000/svg"
   xmlns:xlink="http://www.w3.org/1999/xlink"
   xmlns:sodipodi="http://sodipodi.sourceforge.net/DTD/sodipodi-0.dtd"
   xmlns:inkscape="http://www.inkscape.org/namespaces/inkscape"
   version="1"
   width="32"
   height="32"
   id="svg12"
   sodipodi:docname="snow-top-4.svg"
   inkscape:version="0.92.1 r"&gt;
  <path d="m7.196.009c-8.161-.339-9.231 9.523-3.968 9.505.669.003 1.581-.197 2.929-1.471 3.773-4.147 9.01 4.479 14.696-1.042.61-.911 1.804-1.135 2.455-.627 1.045.677 2.87 2.991 3.88 3 2.359.513 4.095-.198 4.816-3.188.185-3.165-2.303-6.286-6.281-6.17-5.832.133-12.809-.045-18.527-.01" fill="url(#0)"/></svg>