<svg xmlns="http://www.w3.org/2000/svg" xmlns:xlink="http://www.w3.org/1999/xlink" viewBox="0 0 32 32"><defs><linearGradient gradientTransform="matrix(-2.54182 0 0 2.58531 185.47-277.37)" id="1" x1="67.894" y1="108.69" x2="67.854" y2="113.11" gradientUnits="userSpaceOnUse"><stop stop-color="#f9f9f9"/><stop offset="1" stop-color="#999"/></linearGradient></defs><rect width="28.2" height="28.2" x="1.898" y="1.898" fill="#ccc" fill-rule="evenodd" rx="5.575"/><g transform="translate(32.949 6.237)"><path d="m-22.22218 4.796825a3.389831 3.389831 0 0 0 -2.9375 1.695313 3.389831 3.389831 0 0 0 0 3.388672 3.389831 3.389831 0 0 0 2.050781 1.574219 3.389831 3.389831 0 0 0 .283203 .06445 3.389831 3.389831 0 0 0 .19336 .03125 3.389831 3.389831 0 0 0 .0918 .01172 3.389831 3.389831 0 0 0 2.052734 -.431641 3.389831 3.389831 0 0 0 1.695312 -2.935547h-3.43z" fill="#ff5e42"/><g fill="#666"><rect y="5.582" x="-16.995" height="1.307" width="8.711" rx=".653"/><rect y="9.502" x="-16.995" height="1.307" width="8.711" rx=".653"/><rect y="13.422" x="-24.835" height="1.307" width="13.07" rx=".653"/></g></g>

   xmlns:dc="http://purl.org/dc/elements/1.1/"
   xmlns:cc="http://creativecommons.org/ns#"
   xmlns:rdf="http://www.w3.org/1999/02/22-rdf-syntax-ns#"
   xmlns:svg="http://www.w3.org/2000/svg"
   xmlns="http://www.w3.org/2000/svg"
   xmlns:xlink="http://www.w3.org/1999/xlink"
   xmlns:sodipodi="http://sodipodi.sourceforge.net/DTD/sodipodi-0.dtd"
   xmlns:inkscape="http://www.inkscape.org/namespaces/inkscape"
   height="32"
   width="32"
   version="1"
   id="svg8"
   sodipodi:docname="snow-top-3.svg"
   inkscape:version="0.92.1 r"&gt;
  <path fill="#00000f" fill-opacity="0" d="m0 0h32v32h-32z" id="0"/><path d="m7.354 6.111c-2.995 2.684-1.381 7.817-3.674 8.291-2.031.613-3.541-1.385-3.66-4.503-.35-8.627 3.911-9.427 6.879-9.524 28.342-2.047 1.762 4.92.455 5.736" fill="url(#1)"/><use xlink:href="#0"/></svg>