<svg xmlns="http://www.w3.org/2000/svg" xmlns:xlink="http://www.w3.org/1999/xlink" viewBox="0 0 32 32"><defs><linearGradient xlink:href="#3" id="4" gradientUnits="userSpaceOnUse" x1="27.558" y1="-133.46" x2="22.09" y2="-134.43"/><linearGradient xlink:href="#3" id="2" gradientUnits="userSpaceOnUse" x1="15.879" y1="-141.91" x2="30.32" y2="-129.74"/><linearGradient id="3"><stop stop-color="#55c03f"/><stop offset="1" stop-color="#198b26"/></linearGradient><linearGradient id="1"><stop stop-color="#f9f9f9"/><stop offset="1" stop-color="#999"/></linearGradient><linearGradient xlink:href="#1" id="0" gradientUnits="userSpaceOnUse" x1="17.658" y1="-133.51" x2="15.02" y2="-125.58"/><radialGradient xlink:href="#1" id="5" cx="-176.59" cy="-120.91" r="3.01" gradientUnits="userSpaceOnUse" gradientTransform="matrix(2.21087.05719-.05496 2.12455 412.97 145.84)"/></defs><rect width="28.2" height="28.2" x="1.898" y="1.898" fill="#00a6db" fill-rule="evenodd" fill-opacity="0" rx="5.575"/><path d="m20.349 4.595l-2.966 2.966 4.494 4.477-4.466 4.483 2.966 2.966 7.432-7.46-2.966-2.966-.006.005zm-10.206016.13031a1.474059 1.474059 0 0 0 -1.474186 1.474048 1.474059 1.474059 0 0 0 1.474186 1.474047 1.474059 1.474059 0 0 0 1.474047 -1.474047 1.474059 1.474059 0 0 0 -1.474047 -1.474048m-3.671312 8.7052a2.28062 2.28062 0 0 0 -2.280542 2.280688 2.28062 2.28062 0 0 0 2.280542 2.280546 2.28062 2.28062 0 0 0 2.280694 -2.280546 2.28062 2.28062 0 0 0 -2.280694 -2.280688m6.619411 8.788765a2.97593 2.97593 0 0 0 -2.975999 2.975856 2.97593 2.97593 0 0 0 2.975999 2.975997 2.97593 2.97593 0 0 0 2.975854 -2.975997 2.97593 2.97593 0 0 0 -2.975854 -2.975856z" fill="#fff"/><g transform="translate(-.916 143.06)"><path d="m15.583-142.61c-5.577-1.531-5.951 3.24-4.58 5.493 4.381 6.983 6.796 6.577 9.398 7.895 1.712 2.064 3.451 3.4 6.469 4.1 11.69 1.559 3.242-8.417.92-8.649-5.065.012-7.547-6.123-12.206-8.838" fill="url(#0)"/><path d="m15.583-142.61c3.76.276 5.616-.626 8.93-.421 4.319.283 8.307 2.053 7.838 6.574-.347 2.567-.37 2.25.186 4.296.532 1.535-.252 4.232-.487 4.654-2.715 4.963-1.536 4.965-2.656 7.742l-.906-.418-2.508-11.358c-7.177-.909-10.754-10.11-10.398-11.07" fill="url(#2)"/><path d="m22.374-132.67c.362.274 1.553-5.105 1.172-5.653 1.379 2.44 1.919 4.616 2.435 6.783-1.276-.283-2.289-.554-3.607-1.13" fill="url(#4)"/><circle r="3.01" cy="-119.45" cx="29.06" fill="url(#5)"/></g></svg>