<svg xmlns="http://www.w3.org/2000/svg" viewBox="0 0 32 32"><defs><clipPath id="0"><path d="m-24 13c0 1.105-.672 2-1.5 2-.828 0-1.5-.895-1.5-2 0-1.105.672-2 1.5-2 .828 0 1.5.895 1.5 2" transform="matrix(15.333 0 0 11.5 415-125.54)" fill="#1890d0"/></clipPath><linearGradient gradientTransform="matrix(-2.65552 0 0 2.58531 193.77-277.73)" id="1" x1="67.894" y1="108.69" x2="67.854" y2="113.11" gradientUnits="userSpaceOnUse"><stop stop-color="#f9f9f9"/><stop offset="1" stop-color="#999"/></linearGradient></defs><g transform="matrix(.65116 0 0 .65116.372.372)" stroke-width="1.536"><rect y="2.5" x="2.5" height="43" width="43" fill="#285da4" fill-rule="evenodd" rx="8.5"/><g clip-path="url(#0)" stroke-width="1.536" transform="translate(.974-.248)"><path d="m6.281 14.5c-.074.145-.148.289-.219.434 1.125.625 4.367 2.254 5.906 3.219 1.945 1.191 4.574 3.621 4.781 4.03-2.023 3.523-1.105 6.641-1.344 6.973-.172.277-1.762 2.023-1.25 2.281.508.254 1.316-.145 1.438-.223.254-.156.516-.383.406.066-.215.918-1.191 3.125.156 2.656.164-.094 2.332-2.484 2.594-2.566 4.313 1.125 9.137.609 10.03.191.465.031 1.781.859 2.531 1.254.75.391 2.793 1.371 2.188-.41-.188-.563-1.531-2-1.313-2.094.48-.191 1.668.496 2.125.625 1.367.383 1.551-.148.688-1.316-.852-1.168-.98-.988-1.25-1.527-.211-.434 0-.914.156-1.031.277-.211 4.359-2.477 5.316-3.344 1.418-1.289 0-2.898-.348-3.125-2.941-2.117-5.961-1.664-6-2-.02-.383-.012-1.488-.063-1.871-.293-2.594-1.492-1.941-1.656-1.941-1.199.188-.758 2.023-.25 3.75.039.441-.418.246-.688-.219-.922-2.473-1.309-2.43-1.563-2.504-.246-.055-1.113.473-1.098 1.473.004.285.344 1.645.344 2.063-.566.496-.594 1.621-1.188 2.031-1.73.359-5.887-.855-6.406-.91-1.797-.336-2.582 1.012-2.871.688-2.332-2.672-5.895-4.656-7.438-5-.598-.129-2.617-1.02-3.344-1.469-.117-.07-.25-.121-.379-.188m32.07 2.344c-.563.605-.465 2.867-.348 2.848.574-.117.52-3.03.348-2.848m1.629.344c-.066-.184-1.547 1.895-1.285 2.66.117.332 1.484-2.078 1.285-2.66m-7.691 3.535c.02-.02.043.008.066.031.172.57.363 1.113 1.496 1.25.133.016-.629.461-1.152.188-.477-.289-.52-1.34-.41-1.469m2.938 2.871c.105-.016.18-.012.254 0 .277.07-2.01 1.262-2.188 1.098-.109-.105 1.219-.965 1.938-1.098m.594.754c.238.02-1.324 1.637-1.5 1.469-.129-.117 1.012-1.508 1.5-1.469" fill="#f9f9f9" stroke-width="1.536"/></g></g>

   xmlns:dc="http://purl.org/dc/elements/1.1/"
   xmlns:cc="http://creativecommons.org/ns#"
   xmlns:rdf="http://www.w3.org/1999/02/22-rdf-syntax-ns#"
   xmlns:svg="http://www.w3.org/2000/svg"
   xmlns="http://www.w3.org/2000/svg"
   xmlns:xlink="http://www.w3.org/1999/xlink"
   xmlns:sodipodi="http://sodipodi.sourceforge.net/DTD/sodipodi-0.dtd"
   xmlns:inkscape="http://www.inkscape.org/namespaces/inkscape"
   version="1"
   width="32"
   height="32"
   id="svg12"
   sodipodi:docname="snow-top-3.svg"
   inkscape:version="0.92.1 r"&gt;
  <path d="m24.627.009c8.36-.339 9.455 9.523 4.064 9.505-.686.003-1.62-.197-3-1.471-14.665-10.216-14.549 2.967-17.708.875-1.727-1.822-1.743 4.653-4.139 5.127-2.122.613-3.699-1.385-3.824-4.503-.366-8.627 4.086-9.427 7.187-9.524 5.974.133 11.562-.045 17.419-.01" fill="url(#1)"/></svg>