<svg xmlns="http://www.w3.org/2000/svg" viewBox="0 0 32 32"><defs><linearGradient gradientTransform="matrix(2.59244 0 0 2.58531-157.93-277.73)" id="0" x1="67.894" y1="108.69" x2="67.854" y2="113.11" gradientUnits="userSpaceOnUse"><stop stop-color="#f9f9f9"/><stop offset="1" stop-color="#999"/></linearGradient></defs><rect width="28.2" height="28.2" x="1.898" y="1.898" fill="#929292" fill-rule="evenodd" rx="5.575"/><g transform="translate(0 .381)"><rect x="-23.23" y="-26.657" width="15.224" height="21.313" ry="4.263" rx="4.349" transform="matrix(0-1-1 0 0 0)" fill="#4f4f4f"/><path d="m23.612 17.577v-3.915c0-1.446-1.358-2.61-3.045-2.61h-9.134c-1.687 0-3.045 1.164-3.045 2.61v3.915c0 1.446 1.358 2.61 3.045 2.61h1.903l2.664-1.522 2.664 1.522h1.903c1.687 0 3.045-1.164 3.045-2.61" fill="#48aad5"/><g fill="#929292" stroke-linejoin="round" stroke-linecap="round" stroke-width=".235" transform="matrix(0 1-1 0 0 0)"><rect ry=".571" rx=".476" y="-6.866" x="13.336" height="2.284" width="3.806"/><rect width="3.806" height="2.284" x="13.336" y="-27.418" rx=".476" ry=".571"/></g></g>

   xmlns:dc="http://purl.org/dc/elements/1.1/"
   xmlns:cc="http://creativecommons.org/ns#"
   xmlns:rdf="http://www.w3.org/1999/02/22-rdf-syntax-ns#"
   xmlns:svg="http://www.w3.org/2000/svg"
   xmlns="http://www.w3.org/2000/svg"
   xmlns:xlink="http://www.w3.org/1999/xlink"
   xmlns:sodipodi="http://sodipodi.sourceforge.net/DTD/sodipodi-0.dtd"
   xmlns:inkscape="http://www.inkscape.org/namespaces/inkscape"
   version="1"
   width="32"
   height="32"
   id="svg12"
   sodipodi:docname="snow-top-4.svg"
   inkscape:version="0.92.1 r"&gt;
  <path d="m7.196.009c-8.161-.339-9.231 9.523-3.968 9.505.669.003 1.581-.197 2.929-1.471 3.773-4.147 9.01 4.479 14.696-1.042.61-.911 1.804-1.135 2.455-.627 1.045.677 2.87 2.991 3.88 3 2.359.513 4.095-.198 4.816-3.188.185-3.165-2.303-6.286-6.281-6.17-5.832.133-12.809-.045-18.527-.01" fill="url(#0)"/></svg>