<svg xmlns="http://www.w3.org/2000/svg" xmlns:xlink="http://www.w3.org/1999/xlink" viewBox="0 0 32 32"><defs><linearGradient xlink:href="#3" id="4" gradientUnits="userSpaceOnUse" x1="-23.24" y1="-185.08" x2="-28.704" y2="-186.05"/><linearGradient xlink:href="#3" id="2" gradientUnits="userSpaceOnUse" x1="-34.914" y1="-193.53" x2="-20.469" y2="-181.36"/><linearGradient id="3"><stop stop-color="#ffff5e"/><stop offset="1" stop-color="#f6a32d"/></linearGradient><linearGradient id="1"><stop stop-color="#f9f9f9"/><stop offset="1" stop-color="#999"/></linearGradient><linearGradient xlink:href="#1" id="0" gradientUnits="userSpaceOnUse" x1="-33.14" y1="-185.13" x2="-35.775" y2="-177.2"/><radialGradient xlink:href="#1" id="5" cx="-176.59" cy="-120.91" r="3.01" gradientUnits="userSpaceOnUse" gradientTransform="matrix(2.21087.05719-.05496 2.12455 362.18 94.22)"/></defs><rect width="28.2" height="28.2" x="1.898" y="1.898" fill="#276ed6" fill-rule="evenodd" rx="5.575"/><path d="m15.602 5.246c-.968 0-1.901.141-2.788.387 4.372 1.213 7.567 5.199 7.567 9.968 0 4.769-3.195 8.755-7.567 9.968.887.246 1.82.387 2.788.387 5.737 0 10.355-4.619 10.355-10.355 0-5.737-4.619-10.355-10.355-10.355" fill="#ffc947"/><path d="m10.424 17.195l1.354 2.622 3.03.421-2.191 2.041.517 2.882-2.708-1.361-2.708 1.361.517-2.882-2.191-2.041 3.03-.421z" fill="#478aff"/><path d="m14.407 12.416l1.108 2.098 2.477.336-1.792 1.633.423 2.306-2.215-1.089-2.215 1.089.423-2.306-1.792-1.633 2.477-.336z" fill="#6fa4ff" stroke-width=".591"/><path d="m11.619 9.229l.738 1.311 1.651.21-1.195 1.021.282 1.441-1.477-.68-1.477.68.282-1.441-1.195-1.021 1.651-.21z" fill="#90b9ff" stroke-width=".382"/><path d="m14.216 6.139c-.478.066-.946.165-1.402.291 4.25 1.179 7.377 4.979 7.551 9.57.005-.133.017-.264.017-.398 0-4.242-2.53-7.86-6.165-9.462m-4.174 5.305l-.812.103 1.061.907.134-.683zm3.155 0l-.382.326.134.683 1.061-.907-.813-.103m-1.577 1.087l-1.305.601-.171.876 1.476-.68 1.477.68-.171-.876zm-.036 3.01l-.761.104 1.666 1.518.126-.683zm5.648 0l-1.032.939.126.683 1.666-1.518zm8.707.457c-.21 5.549-4.733 9.957-10.336 9.957-.471 0-.933-.033-1.386-.096-.452.199-.918.371-1.402.506.887.246 1.82.387 2.788.387 5.737 0 10.355-4.619 10.355-10.355 0-.135-.015-.265-.02-.398m-11.53 1.699l-2.055 1.01-.16.876 2.215-1.089 2.215 1.089-.16-.876zm-7.62 3.231l-.744.104 2.068 1.928.123-.683m5.828-1.349l-1.447 1.349.123.683 2.068-1.928zm-3.637 2.869l-2.55 1.282-.157.876 2.707-1.361 2.707 1.361-.057-.323c-.086-.022-.174-.041-.26-.064.08-.022.156-.053.235-.076l-.075-.413z" fill-opacity=".157"/><g transform="translate(49.877 194.68)"><path d="m-35.21-194.22c-5.577-1.531-5.951 3.24-4.58 5.493 4.381 6.983 6.796 6.577 9.398 7.895 1.712 2.064 3.451 3.4 6.469 4.1 11.69 1.559 3.242-8.417.92-8.649-5.065.012-7.547-6.123-12.206-8.838" fill="url(#0)"/><path d="m-35.21-194.22c3.76.276 5.616-.626 8.93-.421 4.319.283 8.307 2.053 7.838 6.574-.347 2.567-.37 2.25.186 4.296.532 1.535-.252 4.232-.487 4.654-2.715 4.963-1.536 4.965-2.656 7.742l-.906-.418-2.508-11.358c-7.177-.909-10.754-10.11-10.398-11.07" fill="url(#2)"/><path d="m-28.419-184.29c.362.274 1.553-5.105 1.172-5.653 1.379 2.44 1.919 4.616 2.435 6.783-1.276-.283-2.289-.554-3.607-1.13" fill="url(#4)"/><circle r="3.01" cy="-171.07" cx="-21.728" fill="url(#5)"/></g></svg>