<svg xmlns="http://www.w3.org/2000/svg" xmlns:xlink="http://www.w3.org/1999/xlink" viewBox="0 0 32 32"><defs><linearGradient gradientTransform="matrix(-2.54182 0 0 2.58531 185.47-277.37)" id="1" x1="67.894" y1="108.69" x2="67.854" y2="113.11" gradientUnits="userSpaceOnUse"><stop stop-color="#f9f9f9"/><stop offset="1" stop-color="#999"/></linearGradient></defs><rect width="28.2" height="28.2" x="1.898" y="1.898" fill="#050505" fill-rule="evenodd" fill-opacity=".2" rx="5.575"/><path d="m16 5.179c-.567 0-1.134.211-1.558.635l-8.628 8.629c-.847.847-.846 2.266.001 3.113l8.628 8.629c.847.847 2.267.849 3.114.001l8.628-8.629c.847-.847.847-2.267 0-3.114l-8.628-8.629c-.424-.424-.991-.635-1.558-.635" fill="#67428d"/><g fill="#8b93ff" stroke-width="1.386"><path d="m24.956 23.844v.089c3.584.467 5.514 2.194 5.514 5.183 0 2.02-.685 3.604-2.055 4.766-1.37 1.152-3.351 1.727-5.942 1.727-2.403 0-4.324-.392-5.763-1.176v-2.532c1.827.953 3.728 1.43 5.704 1.43 3.515 0 5.272-1.435 5.272-4.304 0-2.561-1.891-3.842-5.674-3.842h-1.174v-2.166h1.174c1.588 0 2.407-.46 3.281-1.215.874-.755 1.311-1.752 1.311-2.993 0-1.013-.338-1.812-1.013-2.398-.675-.596-1.579-.894-2.71-.894-1.767 0-3.062.601-4.71 1.802l-1.371-1.862c1.857-1.489 3.608-2.234 6.08-2.234 2.045 0 3.343.491 4.485 1.474 1.152.983 1.727 2.293 1.727 3.932 0 1.37-.132 2.517-.946 3.44-.814.923-1.68 1.514-3.189 1.772" stroke-width="1.386" transform="matrix(.52425 0 0 .51567 3.633 3.409)"/></g>

   xmlns:dc="http://purl.org/dc/elements/1.1/"
   xmlns:cc="http://creativecommons.org/ns#"
   xmlns:rdf="http://www.w3.org/1999/02/22-rdf-syntax-ns#"
   xmlns:svg="http://www.w3.org/2000/svg"
   xmlns="http://www.w3.org/2000/svg"
   xmlns:xlink="http://www.w3.org/1999/xlink"
   xmlns:sodipodi="http://sodipodi.sourceforge.net/DTD/sodipodi-0.dtd"
   xmlns:inkscape="http://www.inkscape.org/namespaces/inkscape"
   height="32"
   width="32"
   version="1"
   id="svg8"
   sodipodi:docname="snow-top-3.svg"
   inkscape:version="0.92.1 r"&gt;
  <path fill="#00000f" fill-opacity="0" d="m0 0h32v32h-32z" id="0"/><path d="m7.354 6.111c-2.995 2.684-1.381 7.817-3.674 8.291-2.031.613-3.541-1.385-3.66-4.503-.35-8.627 3.911-9.427 6.879-9.524 28.342-2.047 1.762 4.92.455 5.736" fill="url(#1)"/><use xlink:href="#0"/></svg>