<svg xmlns="http://www.w3.org/2000/svg" viewBox="0 0 32 32"><defs><linearGradient gradientTransform="matrix(2.62891 0 0 2.71269-160.16-291.42)" id="0" x1="67.894" y1="108.69" x2="67.854" y2="113.11" gradientUnits="userSpaceOnUse"><stop stop-color="#f9f9f9"/><stop offset="1" stop-color="#999"/></linearGradient></defs><rect width="28.2" height="28.2" x="1.898" y="1.898" fill="#3c8cf8" fill-rule="evenodd" rx="5.575"/><path d="m23.973 6.645l-10.849 2.501c-1.529.193-1.471 1.759-1.471 1.759v1.449 5.227c-.353-.102-.719-.154-1.087-.156-2.201 0-3.985 1.784-3.985 3.985 0 2.201 1.784 3.985 3.985 3.985 2.059-.001 3.779-1.571 3.966-3.622h.018v-.362-9.666l7.969-1.895v5.559c-.353-.102-.719-.154-1.087-.156-2.201 0-3.985 1.784-3.985 3.985 0 2.201 1.784 3.985 3.985 3.985 2.059-.001 3.779-1.571 3.966-3.622h.018v-10.36-1.232c0 0 .019-1.67-1.445-1.362" fill="#fff"/><g transform="matrix(.75 0 0 .75 4.097 4.747)" stroke-width="1.333"><circle r="8" cy="23" cx="24" fill="#f5c839" stroke-width="1.778"/><path d="m21 18v2h-2v2h2v2h-2v2h2v2h2v-2h2v2h2v-2h2v-2h-2v-2h2v-2h-2v-2h-2v2h-2v-2zm2 4h2v2h-2z" fill="#fff" stroke-width="1.333"/></g>

   xmlns:dc="http://purl.org/dc/elements/1.1/"
   xmlns:cc="http://creativecommons.org/ns#"
   xmlns:rdf="http://www.w3.org/1999/02/22-rdf-syntax-ns#"
   xmlns:svg="http://www.w3.org/2000/svg"
   xmlns="http://www.w3.org/2000/svg"
   xmlns:xlink="http://www.w3.org/1999/xlink"
   xmlns:sodipodi="http://sodipodi.sourceforge.net/DTD/sodipodi-0.dtd"
   xmlns:inkscape="http://www.inkscape.org/namespaces/inkscape"
   version="1"
   width="32"
   height="32"
   id="svg12"
   sodipodi:docname="snow-top-1.svg"
   inkscape:version="0.92.1 r"&gt;
  <path d="m7.288.009c-8.276-.356-9.36 9.992-4.02 9.973.679.003 1.604-.207 2.97-1.543 7.256-10.531 14.706 3.573 17.53.919 1.71-1.912 3.496-.418 4.448.115 2.1.643 3.662.041 3.785-3.231.188-3.321-1.889-6.344-5.923-6.223-5.914.14-12.989-.047-18.787-.01" fill="url(#0)"/><path fill="#f00" fill-opacity="0" d="m0 0h32v32h-32z"/></svg>