<svg xmlns="http://www.w3.org/2000/svg" viewBox="0 0 32 32"><rect width="28.2" height="28.2" x="1.898" y="1.898" fill="#ffc04b" fill-rule="evenodd" rx="5.575"/><path d="m6.527 6.485c-.656 0-1.184.676-1.184 1.332v13.321c0 .656.529 1.307 1.184 1.332h9.853l2.664 3.045 2.664-3.045h3.764c.656 0 1.184-.676 1.184-1.332v-13.321c0-.656-.528-1.332-1.184-1.332z" fill="#4f4f4f"/><g transform="matrix(.76119 0 0 .76119 3.821 2.679)" fill="#ffc04b" stroke-width="1.314"><path d="m10 11v-1h12v1z"/><path d="m10 14v-1h12v1z"/><path d="m10 17v-1h12v1z"/><path d="m10 20v-1h8v1z"/></g>

   xmlns:dc="http://purl.org/dc/elements/1.1/"
   xmlns:cc="http://creativecommons.org/ns#"
   xmlns:rdf="http://www.w3.org/1999/02/22-rdf-syntax-ns#"
   xmlns:svg="http://www.w3.org/2000/svg"
   xmlns="http://www.w3.org/2000/svg"
   xmlns:sodipodi="http://sodipodi.sourceforge.net/DTD/sodipodi-0.dtd"
   xmlns:inkscape="http://www.inkscape.org/namespaces/inkscape"
   height="32"
   width="32"
   version="1"
   id="svg8"
   sodipodi:docname="star-mime-2.svg"
   inkscape:version="0.92.1 r"&gt;
  <g transform="translate(152.47 194.05)" fill="#fff"><path d="m-125.38-193.25l-.077 3.548 3.072 1.831-3.548-.077-3.135 6.791 1.38-7.268-3.072-1.831 3.548.077z"/><path d="m-125.41-183.04l.042-1.955-1.692-1.01 1.955.042 1.727-3.741-.76 4 1.692 1.01-1.955-.042z"/></g></svg>