<svg xmlns="http://www.w3.org/2000/svg" viewBox="0 0 32 32" xmlns:xlink="http://www.w3.org/1999/xlink"><defs><linearGradient gradientTransform="matrix(-2.54182 0 0 2.58531 185.47-277.37)" id="1" x1="67.894" y1="108.69" x2="67.854" y2="113.11" gradientUnits="userSpaceOnUse"><stop stop-color="#f9f9f9"/><stop offset="1" stop-color="#999"/></linearGradient></defs><rect width="28.2" height="28.2" x="1.898" y="1.898" fill="#c79027" fill-rule="evenodd" rx="5.575"/><rect rx=".647" ry=".965" height="5.525" width="1.381" y="9.781" x="10.475" fill="#41b941" stroke-width=".73"/><path d="m15.03 9.788c-.536 0-1.105.426-1.105.956v1.117c-1.794.567-2.97 2.151-3.453 3.107-.483-.956-3.453-1.381-3.453-1.381v2.417h-.691v2.762h.691v2.072c-.019 0 2.97-.425 3.453-1.381.483.956 3.108 2.762 6.975 2.762 3.867 0 8.218-2.091 8.218-5.259-.004-2.252-1.895-4.173-4.834-5.101v-1.115c0-.53-.431-.956-.967-.956z" fill="#ffca1d"/><g fill="#fff"><circle r="1.381" cx="17.381" cy="16.694"/><circle r="1.381" cx="20.834" cy="16.694"/><circle r="1.381" cx="13.928" cy="16.694"/></g><path d="m10.475 14.968c-.483-.956-3.453-1.381-3.453-1.381v2.417h-.691v2.762h.691v2.072c-.019 0 2.97-.425 3.453-1.381z" fill-opacity="0"/>

   xmlns:dc="http://purl.org/dc/elements/1.1/"
   xmlns:cc="http://creativecommons.org/ns#"
   xmlns:rdf="http://www.w3.org/1999/02/22-rdf-syntax-ns#"
   xmlns:svg="http://www.w3.org/2000/svg"
   xmlns="http://www.w3.org/2000/svg"
   xmlns:xlink="http://www.w3.org/1999/xlink"
   xmlns:sodipodi="http://sodipodi.sourceforge.net/DTD/sodipodi-0.dtd"
   xmlns:inkscape="http://www.inkscape.org/namespaces/inkscape"
   height="32"
   width="32"
   version="1"
   id="svg8"
   sodipodi:docname="snow-top-3.svg"
   inkscape:version="0.92.1 r"&gt;
  <path fill="#00000f" fill-opacity="0" d="m0 0h32v32h-32z" id="0"/><path d="m7.354 6.111c-2.995 2.684-1.381 7.817-3.674 8.291-2.031.613-3.541-1.385-3.66-4.503-.35-8.627 3.911-9.427 6.879-9.524 28.342-2.047 1.762 4.92.455 5.736" fill="url(#1)"/><use xlink:href="#0"/></svg>