<svg xmlns="http://www.w3.org/2000/svg" viewBox="0 0 32 32"><defs><linearGradient gradientTransform="matrix(2.54182 0 0 2.58531-153.47-277.37)" id="0" x1="67.894" y1="108.69" x2="67.854" y2="113.11" gradientUnits="userSpaceOnUse"><stop stop-color="#f9f9f9"/><stop offset="1" stop-color="#999"/></linearGradient></defs><rect width="28.2" height="28.2" x="1.898" y="1.898" fill="#9dc1b4" fill-rule="evenodd" rx="5.575"/><g transform="translate(42.11-.894)"><path d="m-17.08 7.821c.626 0 1.129.645 1.129 1.27v12.702c0 .626-.504 1.246-1.129 1.27h-9.395l-2.54 2.903-2.54-2.903h-3.589c-.626 0-1.129-.645-1.129-1.27v-12.702c0-.626.503-1.27 1.129-1.27z" fill="#3a8268"/><g transform="matrix(.72582 0 0 .72582-37.727 4.192)" fill="#9dc1b4" stroke-width="1.378"><path d="m10 11v-1h12v1z"/><path d="m10 14v-1h12v1z"/><path d="m10 17v-1h12v1z"/><path d="m10 20v-1h8v1z"/></g></g><g transform="matrix(1.03332 0 0 1.03332 42.775-.361)" stroke-width=".968"><circle r="5.807" cy="21.611" cx="-20.307" fill="#772bbe" fill-rule="evenodd"/><path d="m-23.21 23.22v1.293h1.293l3.266-3.266-1.293-1.293zm5.704-3.113c.137-.137.137-.352 0-.489l-.808-.808c-.137-.137-.352-.137-.489 0l-.676.68 1.293 1.293z" fill="#fff"/></g>

   xmlns:dc="http://purl.org/dc/elements/1.1/"
   xmlns:cc="http://creativecommons.org/ns#"
   xmlns:rdf="http://www.w3.org/1999/02/22-rdf-syntax-ns#"
   xmlns:svg="http://www.w3.org/2000/svg"
   xmlns="http://www.w3.org/2000/svg"
   xmlns:xlink="http://www.w3.org/1999/xlink"
   xmlns:sodipodi="http://sodipodi.sourceforge.net/DTD/sodipodi-0.dtd"
   xmlns:inkscape="http://www.inkscape.org/namespaces/inkscape"
   height="32"
   width="32"
   version="1"
   id="svg8"
   sodipodi:docname="snow-top-2.svg"
   inkscape:version="0.92.1 r"&gt;
  <path d="m24.646 6.111c2.995 2.684 1.381 7.817 3.674 8.291 2.031.613 3.541-1.385 3.66-4.503.35-8.627-3.911-9.427-6.879-9.524-28.342-2.047-1.762 4.92-.455 5.736" fill="url(#0)"/></svg>