<svg xmlns="http://www.w3.org/2000/svg" viewBox="0 0 32 32"><rect width="28.2" height="28.2" x="1.898" y="1.898" fill="#d99800" fill-rule="evenodd" rx="5.575"/><g transform="matrix(.84413 0 0 .84413 2.493 2.494)" stroke-width="1.185"><path d="m16 3l-3.808 3.808h-5.385v5.385l-3.807 3.808 3.808 3.808v5.385h5.385l3.808 3.808 3.808-3.808h5.385v-5.385l3.808-3.808-3.808-3.808v-5.385h-5.385l-3.808-3.808" fill="#fec006"/><path d="m11.03 3.989l-2.062 4.975-4.975 2.062 2.06 4.975-2.06 4.975 4.975 2.062 2.062 4.975 4.975-2.06 4.975 2.06 2.062-4.975 4.975-2.062-2.06-4.976 2.059-4.975-4.974-2.062-2.062-4.975-4.975 2.06-4.974-2.06z" fill="#fecd38"/><rect x="-26" y="-26" width="20" height="20" rx="10" transform="matrix(0-1-1 0 0 0)" fill="#4d4d4d"/></g>

   xmlns:dc="http://purl.org/dc/elements/1.1/"
   xmlns:cc="http://creativecommons.org/ns#"
   xmlns:rdf="http://www.w3.org/1999/02/22-rdf-syntax-ns#"
   xmlns:svg="http://www.w3.org/2000/svg"
   xmlns="http://www.w3.org/2000/svg"
   xmlns:sodipodi="http://sodipodi.sourceforge.net/DTD/sodipodi-0.dtd"
   xmlns:inkscape="http://www.inkscape.org/namespaces/inkscape"
   height="32"
   width="32"
   version="1"
   id="svg8"
   sodipodi:docname="star-mime-2.svg"
   inkscape:version="0.92.1 r"&gt;
  <g transform="translate(152.47 194.05)" fill="#fff"><path d="m-125.38-193.25l-.077 3.548 3.072 1.831-3.548-.077-3.135 6.791 1.38-7.268-3.072-1.831 3.548.077z"/><path d="m-125.41-183.04l.042-1.955-1.692-1.01 1.955.042 1.727-3.741-.76 4 1.692 1.01-1.955-.042z"/></g></svg>