<svg xmlns="http://www.w3.org/2000/svg" viewBox="0 0 32 32"><defs><linearGradient gradientTransform="matrix(2.59244 0 0 2.58531-157.93-277.73)" id="0" x1="67.894" y1="108.69" x2="67.854" y2="113.11" gradientUnits="userSpaceOnUse"><stop stop-color="#f9f9f9"/><stop offset="1" stop-color="#999"/></linearGradient></defs><rect width="28.2" height="28.2" x="1.898" y="1.898" fill="#9f3830" fill-rule="evenodd" rx="5.575"/><g transform="translate(45.37-7.04)"><path d="m-29.373 13.1c-2.97.082-6.291.538-8.854 1.195-.699.182-.961.283-1.086.474v17.27c0 .621 3.728.932 4.329.942.641-.011 3.481-.321 3.481-.942v-1.898h2.13 2.13v1.898c0 .621 2.84.932 3.481.942.602-.011 4.329-.321 4.329-.942v-17.27c-.125-.191-.387-.292-1.086-.474-2.563-.656-5.885-1.113-8.854-1.195" fill="#e84343"/><path d="m-35.04 21.27c.862-.086.859-.095 2.391-.223.166-.484.317-.774-.288-1.675-.666-1-1.735-.572-2.169.187-.371.852-.271 1.387.066 1.711" fill="#2f2f2f" stroke-width=".648"/><path d="m-33.633 19.778c0 .195-.159.355-.355.355-.196 0-.355-.161-.355-.355 0-.195.159-.355.355-.355.196 0 .355.161.355.355" fill="#fff" stroke-width=".975"/><g stroke-width=".685"><path d="m-26.31 21.618c.872.016 2.143-.003 2.254-.003.356-.252.606-1.233-.023-2.199-.69-1.079-1.803-.614-2.254.201-.385.915-.122 1.521.023 1.996" opacity=".2"/><path d="m-26.31 20.908c.872.016 2.143-.003 2.254-.003.356-.252.606-1.233-.023-2.199-.69-1.079-1.803-.614-2.254.201-.385.915-.122 1.521.023 1.996" fill="#2f2f2f"/></g><path d="m-25.11 19.14c0 .198-.159.355-.356.355-.195 0-.354-.157-.354-.355 0-.195.159-.355.354-.355.197 0 .356.161.356.355" fill="#fff" stroke-width=".976"/><path d="m-35.05 22.563c3.774-.24 7.555-.362 11.36 0-.627 3.911-2.922 3.954-5.207 4.02-2.57.17-5.699-1.012-6.154-4.02" fill="#2f2f2f" stroke-width=".775"/><path d="m-34.34 23.826c.046.218-.077.445.13.583 1.279.852 3.678 1.444 5.306 1.476 2.155.011 3.854-.381 4.432-1.123.126-.163.047-.71.057-.952l-1.214-.029 1.214-.11v-.58h-5.661l-.007.665h-1.411l-.011-.71h-2.832l.002.684.932.031" fill="#fff" stroke-width=".702"/><g stroke-width=".64"><path d="m-35.755 21.886v.027c-.011.033-.011.07 0 .104.011.042.038.076.066.109.105.116.267.188.432.205.167.017.693-.018.842-.091.13-.062.242-.149.372-.213.126-.059.261-.091.406-.099.207-.009.413.039.624.018.103-.009.205-.035.289-.091.041-.027.079-.06.105-.097.03-.044.047-.085.05-.134.006-.057-.011-.112-.038-.164-.026-.05-.068-.096-.113-.134-.092-.079-.203-.136-.308-.2-.056-.035-.114-.074-.184-.092-.081-.022-.171-.007-.257-.017-.092-.009-.175-.042-.261-.064-.176-.047-.364-.05-.547-.02-.18.028-.351.096-.507.184-.149.084-.641.194-.708.337-.013.028-.023.059-.038.087-.052.126-.131.242-.226.344" opacity=".2"/><path d="m-35.755 21.18v.027c-.011.033-.011.07 0 .104.011.042.038.076.066.109.105.116.267.188.432.205.167.017.693-.018.842-.091.13-.062.242-.149.372-.213.126-.059.261-.091.406-.099.207-.009.413.039.624.018.103-.009.205-.035.289-.091.041-.027.079-.06.105-.097.03-.044.047-.085.05-.134.006-.057-.011-.112-.038-.164-.026-.05-.068-.096-.113-.134-.092-.079-.203-.136-.308-.2-.056-.035-.114-.074-.184-.092-.081-.022-.171-.007-.257-.017-.092-.009-.175-.042-.261-.064-.176-.047-.364-.05-.547-.02-.18.028-.351.096-.507.184-.149.084-.641.194-.708.337-.013.028-.023.059-.038.087-.052.126-.131.242-.226.344" fill="#cd5d82"/></g><g stroke-linejoin="round" stroke-linecap="round" stroke-width=".408"><path d="m-33.778 14.433l.832-.567c.15-.102.358-.045.453.108l.457.91 1.436 2.135c.1.149-.212.461-.364.559l-.689.446c-.152.099-.358.045-.453-.108l-.866-1.625-1.028-1.421c-.106-.146.072-.337.222-.439" fill="#e6e6e6"/><path d="m-30.797 14.05l.646.764c.116.138.075.346-.072.451l-.889.522-2.054 1.579c-.144.11-.487-.168-.6-.309l-.512-.635c-.113-.141-.075-.346.072-.451l1.582-.979 1.361-1.122c.14-.115.349.042.465.18" fill="#efefef"/></g></g>

   xmlns:dc="http://purl.org/dc/elements/1.1/"
   xmlns:cc="http://creativecommons.org/ns#"
   xmlns:rdf="http://www.w3.org/1999/02/22-rdf-syntax-ns#"
   xmlns:svg="http://www.w3.org/2000/svg"
   xmlns="http://www.w3.org/2000/svg"
   xmlns:xlink="http://www.w3.org/1999/xlink"
   xmlns:sodipodi="http://sodipodi.sourceforge.net/DTD/sodipodi-0.dtd"
   xmlns:inkscape="http://www.inkscape.org/namespaces/inkscape"
   version="1"
   width="32"
   height="32"
   id="svg12"
   sodipodi:docname="snow-top-4.svg"
   inkscape:version="0.92.1 r"&gt;
  <path d="m7.196.009c-8.161-.339-9.231 9.523-3.968 9.505.669.003 1.581-.197 2.929-1.471 3.773-4.147 9.01 4.479 14.696-1.042.61-.911 1.804-1.135 2.455-.627 1.045.677 2.87 2.991 3.88 3 2.359.513 4.095-.198 4.816-3.188.185-3.165-2.303-6.286-6.281-6.17-5.832.133-12.809-.045-18.527-.01" fill="url(#0)"/></svg>