<svg xmlns="http://www.w3.org/2000/svg" viewBox="0 0 32 32"><defs><linearGradient gradientTransform="matrix(2.54182 0 0 2.58531-153.47-277.37)" id="0" x1="67.894" y1="108.69" x2="67.854" y2="113.11" gradientUnits="userSpaceOnUse"><stop stop-color="#f9f9f9"/><stop offset="1" stop-color="#999"/></linearGradient></defs><g transform="translate(58.21 6.842)"><path d="m-50.736-4.943c-3.089 0-5.576 2.486-5.576 5.574v17.05c0 .173.082.319.098.488.03-.321.135-.627.354-.842.247-.243.587-.395.965-.395h1.303c.378 0 .718.151.965.395.247.243.398.579.398.951v1.678c0-.696.29-1.358.809-1.961.519-.603 1.267-1.146 2.186-1.602.919-.456 2.01-.825 3.207-1.08 1.2-.255 2.512-.395 3.875-.395 1.363 0 2.675.14 3.875.395 1.2.255 2.288.624 3.207 1.08.919.456 1.667.999 2.186 1.602.517.601.805 1.263.807 1.957v-1.674c0-.372.152-.708.398-.951.246-.243.586-.394.963-.395h.002 1.303c.378 0 .718.151.965.395.171.169.216.421.277.66.006-.107.063-.198.063-.307v-17.05c0-3.089-2.486-5.574-5.574-5.574z" fill="#fecd38" fill-rule="evenodd"/><path d="m24 4c-7.384 0-13.371 5.833-13.371 13.03 0 1.266.192 2.487.539 3.645 0 0-2.047 7.287-1.387 10.883.192 1.048.587 2.056 1.109 3.01 2.034-2.741 7.26-4.561 13.11-4.565 5.844.002 11.07 1.818 13.11 4.557.521-.947.915-1.953 1.107-2.998.661-3.596-1.387-10.883-1.387-10.883.348-1.158.539-2.378.539-3.645.001-7.197-5.982-13.03-13.368-13.03" transform="matrix(.70527 0 0 .70526-59.08-6.04)" stroke-width=".993" fill="#4f4f4f"/><g stroke-width="1"><g fill="#fff"><circle r="2.02" cx="-47.19" cy="3.839"/><circle r="2.02" cx="-37.12" cy="3.839"/><ellipse cx="-42.15" cy="14.417" ry="7.758" rx="7.05"/></g><g fill="#303030"><circle r="1.01" cx="-47.19" cy="3.839"/><circle r="1.01" cx="-37.12" cy="3.839"/></g><path d="m-44.17 4.846h4.03c-.323 3.105-2.02 6.05-2.02 6.05 0 0-2.02-3.49-2.02-6.05" fill="#cd5252"/><path d="m-42.15435 10.891169a4.03008 4.03008 0 0 0 -4.03008 4.03008 4.03008 4.03008 0 0 0 4.03008 4.03008 4.03008 4.03008 0 0 0 4.03008 -4.03008 4.03008 4.03008 0 0 0 -4.03008 -4.03008m0 1.61203a2.418046 2.418046 0 0 1 1.571126 .580895l-1.571.907-1.57-.906a2.418046 2.418046 0 0 1 1.569714 -.582346m2.376738 1.976087a2.418046 2.418046 0 0 1 .04131 .442301 2.418046 2.418046 0 0 1 -1.61203 2.2779v-1.814l1.571-.907m-4.753.002l1.57.905v1.812a2.418046 2.418046 0 0 1 -1.61203 -2.275985 2.418046 2.418046 0 0 1 .04232 -.441293" fill="#303030"/><g fill="#4f4f4f"><ellipse cx="-33.873" cy="-26.818" ry="4.427" transform="matrix(.70175-.71242.86961.49374 0 0)" rx="2.504"/><ellipse cx="9.218" cy="35.36" ry="4.427" transform="matrix(-.70175-.71242-.86961.49374 0 0)" rx="2.504"/></g></g><g fill-rule="evenodd"><path d="m-32.08 19.955c-.001-.694-.289-1.356-.807-1.957-.519-.603-1.267-1.146-2.186-1.602-.919-.456-2.01-.825-3.207-1.08-1.2-.255-2.512-.395-3.875-.395-1.363 0-2.675.14-3.875.395-1.2.255-2.288.624-3.207 1.08-.919.456-1.667.999-2.186 1.602-.519.603-.809 1.265-.809 1.961-.003 1.014 0 1.945 0 3 .485.137.964.301 1.494.301h17.05c.57 0 1.087-.165 1.604-.322v-1.971c0 0-.006-.518 0-1z" fill="#f5432a"/><g fill="#fff"><path d="m-40.475 18.615c-.186 0-.336.3-.336.672v1.342c0 .372.15.672.336.672.186 0 .336-.3.336-.672v-1.342c0-.372-.15-.672-.336-.672"/><path d="m-40.475 18.615c.186 0 .336.3.336.672v1.342c0 .372-.15.672-.336.672-.186 0-.336-.3-.336-.672v-1.342c0-.372.15-.672.336-.672"/><path d="m-43.834 18.615c-.186 0-.336.3-.336.672v1.342c0 .372.15.672.336.672.186 0 .336-.3.336-.672v-1.342c0-.372-.15-.672-.336-.672"/><path d="m-43.834 18.615c.186 0 .336.3.336.672v1.342c0 .372-.15.672-.336.672-.186 0-.336-.3-.336-.672v-1.342c0-.372.15-.672.336-.672"/><path d="m-42.49 17.943c-.186 0-.336.45-.336 1.01v2.02c0 .558.15 1.01.336 1.01.185 0 .336-.45.336-1.01 0 .558.151 1.01.336 1.01.186 0 .336-.45.336-1.01v-2.02c0-.558-.15-1.01-.336-1.01-.186 0-.336.45-.336 1.01 0-.558-.15-1.01-.336-1.01"/><path d="m-42.49 17.943c.186 0 .336.45.336 1.01 0-.558.15-1.01.336-1.01.186 0 .336.45.336 1.01v2.02c0 .558-.15 1.01-.336 1.01-.185 0-.336-.45-.336-1.01 0 .558-.151 1.01-.336 1.01-.186 0-.336-.45-.336-1.01v-2.02c0-.558.15-1.01.336-1.01"/><path d="m-36.613281 18.14453a1.511279 1.410527 0 0 0 -.107422 .0039 1.511279 1.410527 0 0 0 -.148438 .01758 1.511279 1.410527 0 0 0 -.148437 .03125 1.511279 1.410527 0 0 0 -.142578 .04297 1.511279 1.410527 0 0 0 -.138672 .05859 1.511279 1.410527 0 0 0 -.13086 .07031 1.511279 1.410527 0 0 0 -.123046 .08203 1.511279 1.410527 0 0 0 -.113282 .09375 1.511279 1.410527 0 0 0 -.103515 .101562 1.511279 1.410527 0 0 0 -.08984 .113282 1.511279 1.410527 0 0 0 -.08008 .11914 1.511279 1.410527 0 0 0 -.06641 .126953 1.511279 1.410527 0 0 0 -.05078 .132813 1.511279 1.410527 0 0 0 -.03711 .136719 1.511279 1.410527 0 0 0 -.02344 .138671 1.511279 1.410527 0 0 0 -.0078 .142579 1.511279 1.410527 0 0 0 .0039 .09961 1.511279 1.410527 0 0 0 .01953 .138672 1.511279 1.410527 0 0 0 .0332 .138672 1.511279 1.410527 0 0 0 .04687 .132812 1.511279 1.410527 0 0 0 .0625 .128906 1.511279 1.410527 0 0 0 .07422 .123047 1.511279 1.410527 0 0 0 .08789 .115235 1.511279 1.410527 0 0 0 .09961 .105468 1.511279 1.410527 0 0 0 .111328 .0957 1.511279 1.410527 0 0 0 .119141 .08594 1.511279 1.410527 0 0 0 .128906 .07227 1.511279 1.410527 0 0 0 .136719 .0625 1.511279 1.410527 0 0 0 .140625 .04883 1.511279 1.410527 0 0 0 .146485 .0332 1.511279 1.410527 0 0 0 .15039 .02148 1.511279 1.410527 0 0 0 .150391 .0078 1.511279 1.410527 0 0 0 .107422 -.0039 1.511279 1.410527 0 0 0 .15039 -.01758 1.511279 1.410527 0 0 0 .146485 -.03125 1.511279 1.410527 0 0 0 .144531 -.04297 1.511279 1.410527 0 0 0 .136719 -.05859 1.511279 1.410527 0 0 0 .130859 -.07031 1.511279 1.410527 0 0 0 .123047 -.08203 1.511279 1.410527 0 0 0 .113281 -.0918 1.511279 1.410527 0 0 0 .103516 -.103515 1.511279 1.410527 0 0 0 .0918 -.113282 1.511279 1.410527 0 0 0 .07813 -.11914 1.511279 1.410527 0 0 0 .06641 -.126953 1.511279 1.410527 0 0 0 .05078 -.132813 1.511279 1.410527 0 0 0 .03711 -.136718 1.511279 1.410527 0 0 0 .02344 -.138672 1.511279 1.410527 0 0 0 .0078 -.140625 1.511279 1.410527 0 0 0 -.0039 -.09961 1.511279 1.410527 0 0 0 -.01758 -.140625 1.511279 1.410527 0 0 0 -.0332 -.138672 1.511279 1.410527 0 0 0 -.04883 -.132812 1.511279 1.410527 0 0 0 -.06055 -.128906 1.511279 1.410527 0 0 0 -.07617 -.123047 1.511279 1.410527 0 0 0 -.08789 -.113281 1.511279 1.410527 0 0 0 -.09961 -.107422 1.511279 1.410527 0 0 0 -.109375 -.0957 1.511279 1.410527 0 0 0 -.121094 -.08398 1.511279 1.410527 0 0 0 -.128906 -.07422 1.511279 1.410527 0 0 0 -.136719 -.0625 1.511279 1.410527 0 0 0 -.140625 -.04687 1.511279 1.410527 0 0 0 -.146484 -.03516 1.511279 1.410527 0 0 0 -.150391 -.02148 1.511279 1.410527 0 0 0 -.15039 -.0078"/><path d="m-36.613281 18.14453a1.511279 1.410527 0 0 1 .15039 .0078 1.511279 1.410527 0 0 1 .150391 .02148 1.511279 1.410527 0 0 1 .146484 .03516 1.511279 1.410527 0 0 1 .140625 .04687 1.511279 1.410527 0 0 1 .136719 .0625 1.511279 1.410527 0 0 1 .128906 .07422 1.511279 1.410527 0 0 1 .121094 .08398 1.511279 1.410527 0 0 1 .109375 .0957 1.511279 1.410527 0 0 1 .09961 .107422 1.511279 1.410527 0 0 1 .08789 .113281 1.511279 1.410527 0 0 1 .07617 .123047 1.511279 1.410527 0 0 1 .06055 .128906 1.511279 1.410527 0 0 1 .04883 .132812 1.511279 1.410527 0 0 1 .0332 .138672 1.511279 1.410527 0 0 1 .01758 .140625 1.511279 1.410527 0 0 1 .0039 .09961 1.511279 1.410527 0 0 1 -.0078 .140625 1.511279 1.410527 0 0 1 -.02344 .138672 1.511279 1.410527 0 0 1 -.03711 .136718 1.511279 1.410527 0 0 1 -.05078 .132813 1.511279 1.410527 0 0 1 -.06641 .126953 1.511279 1.410527 0 0 1 -.07813 .11914 1.511279 1.410527 0 0 1 -.0918 .113282 1.511279 1.410527 0 0 1 -.103516 .103515 1.511279 1.410527 0 0 1 -.113281 .0918 1.511279 1.410527 0 0 1 -.123047 .08203 1.511279 1.410527 0 0 1 -.130859 .07031 1.511279 1.410527 0 0 1 -.136719 .05859 1.511279 1.410527 0 0 1 -.144531 .04297 1.511279 1.410527 0 0 1 -.146485 .03125 1.511279 1.410527 0 0 1 -.15039 .01758 1.511279 1.410527 0 0 1 -.107422 .0039 1.511279 1.410527 0 0 1 -.150391 -.0078 1.511279 1.410527 0 0 1 -.15039 -.02148 1.511279 1.410527 0 0 1 -.146485 -.0332 1.511279 1.410527 0 0 1 -.140625 -.04883 1.511279 1.410527 0 0 1 -.136719 -.0625 1.511279 1.410527 0 0 1 -.128906 -.07227 1.511279 1.410527 0 0 1 -.119141 -.08594 1.511279 1.410527 0 0 1 -.111328 -.0957 1.511279 1.410527 0 0 1 -.09961 -.105468 1.511279 1.410527 0 0 1 -.08789 -.115235 1.511279 1.410527 0 0 1 -.07422 -.123047 1.511279 1.410527 0 0 1 -.0625 -.128906 1.511279 1.410527 0 0 1 -.04687 -.132812 1.511279 1.410527 0 0 1 -.0332 -.138672 1.511279 1.410527 0 0 1 -.01953 -.138672 1.511279 1.410527 0 0 1 -.0039 -.09961 1.511279 1.410527 0 0 1 .0078 -.142579 1.511279 1.410527 0 0 1 .02344 -.138671 1.511279 1.410527 0 0 1 .03711 -.136719 1.511279 1.410527 0 0 1 .05078 -.132813 1.511279 1.410527 0 0 1 .06641 -.126953 1.511279 1.410527 0 0 1 .08008 -.11914 1.511279 1.410527 0 0 1 .08984 -.113282 1.511279 1.410527 0 0 1 .103515 -.101562 1.511279 1.410527 0 0 1 .113282 -.09375 1.511279 1.410527 0 0 1 .123046 -.08203 1.511279 1.410527 0 0 1 .13086 -.07031 1.511279 1.410527 0 0 1 .138672 -.05859 1.511279 1.410527 0 0 1 .142578 -.04297 1.511279 1.410527 0 0 1 .148437 -.03125 1.511279 1.410527 0 0 1 .148438 -.01758 1.511279 1.410527 0 0 1 .107422 -.0039"/><path d="m-47.785533 18.381991a1.511279 1.410527 0 0 1 .15039 .0078 1.511279 1.410527 0 0 1 .150391 .02148 1.511279 1.410527 0 0 1 .146484 .03516 1.511279 1.410527 0 0 1 .140625 .04687 1.511279 1.410527 0 0 1 .136719 .0625 1.511279 1.410527 0 0 1 .128906 .07422 1.511279 1.410527 0 0 1 .121094 .08398 1.511279 1.410527 0 0 1 .109375 .0957 1.511279 1.410527 0 0 1 .09961 .107422 1.511279 1.410527 0 0 1 .08789 .113281 1.511279 1.410527 0 0 1 .07617 .123047 1.511279 1.410527 0 0 1 .06055 .128906 1.511279 1.410527 0 0 1 .04883 .132812 1.511279 1.410527 0 0 1 .0332 .138672 1.511279 1.410527 0 0 1 .01758 .140625 1.511279 1.410527 0 0 1 .0039 .09961 1.511279 1.410527 0 0 1 -.0078 .140625 1.511279 1.410527 0 0 1 -.02344 .138672 1.511279 1.410527 0 0 1 -.03711 .136718 1.511279 1.410527 0 0 1 -.05078 .132813 1.511279 1.410527 0 0 1 -.06641 .126953 1.511279 1.410527 0 0 1 -.07813 .11914 1.511279 1.410527 0 0 1 -.0918 .113282 1.511279 1.410527 0 0 1 -.103516 .103515 1.511279 1.410527 0 0 1 -.113281 .0918 1.511279 1.410527 0 0 1 -.123047 .08203 1.511279 1.410527 0 0 1 -.130859 .07031 1.511279 1.410527 0 0 1 -.136719 .05859 1.511279 1.410527 0 0 1 -.144531 .04297 1.511279 1.410527 0 0 1 -.146485 .03125 1.511279 1.410527 0 0 1 -.15039 .01758 1.511279 1.410527 0 0 1 -.107422 .0039 1.511279 1.410527 0 0 1 -.150391 -.0078 1.511279 1.410527 0 0 1 -.15039 -.02148 1.511279 1.410527 0 0 1 -.146485 -.0332 1.511279 1.410527 0 0 1 -.140625 -.04883 1.511279 1.410527 0 0 1 -.136719 -.0625 1.511279 1.410527 0 0 1 -.128906 -.07227 1.511279 1.410527 0 0 1 -.119141 -.08594 1.511279 1.410527 0 0 1 -.111328 -.0957 1.511279 1.410527 0 0 1 -.09961 -.105468 1.511279 1.410527 0 0 1 -.08789 -.115235 1.511279 1.410527 0 0 1 -.07422 -.123047 1.511279 1.410527 0 0 1 -.0625 -.128906 1.511279 1.410527 0 0 1 -.04687 -.132812 1.511279 1.410527 0 0 1 -.0332 -.138672 1.511279 1.410527 0 0 1 -.01953 -.138672 1.511279 1.410527 0 0 1 -.0039 -.09961 1.511279 1.410527 0 0 1 .0078 -.142579 1.511279 1.410527 0 0 1 .02344 -.138671 1.511279 1.410527 0 0 1 .03711 -.136719 1.511279 1.410527 0 0 1 .05078 -.132813 1.511279 1.410527 0 0 1 .06641 -.126953 1.511279 1.410527 0 0 1 .08008 -.11914 1.511279 1.410527 0 0 1 .08984 -.113282 1.511279 1.410527 0 0 1 .103515 -.101562 1.511279 1.410527 0 0 1 .113282 -.09375 1.511279 1.410527 0 0 1 .123046 -.08203 1.511279 1.410527 0 0 1 .13086 -.07031 1.511279 1.410527 0 0 1 .138672 -.05859 1.511279 1.410527 0 0 1 .142578 -.04297 1.511279 1.410527 0 0 1 .148437 -.03125 1.511279 1.410527 0 0 1 .148438 -.01758 1.511279 1.410527 0 0 1 .107422 -.0039"/></g><g fill="#303030"><path d="m-28.17 17.99c-.061-.239-.106-.492-.277-.66-.247-.243-.587-.395-.965-.395h-1.303c0 0-.002 0-.002 0-.377.001-.717.152-.963.395-.246.243-.398.579-.398.951v4.656c2.187-.666 3.773-2.572 3.908-4.947"/><path d="m-52.23 22.959v-4.678c0-.372-.152-.708-.398-.951-.247-.243-.587-.395-.965-.395h-1.303c-.378 0-.718.151-.965.395-.218.215-.323.521-.354.842.211 2.328 1.802 4.171 3.984 4.787"/></g></g></g>

   xmlns:dc="http://purl.org/dc/elements/1.1/"
   xmlns:cc="http://creativecommons.org/ns#"
   xmlns:rdf="http://www.w3.org/1999/02/22-rdf-syntax-ns#"
   xmlns:svg="http://www.w3.org/2000/svg"
   xmlns="http://www.w3.org/2000/svg"
   xmlns:xlink="http://www.w3.org/1999/xlink"
   xmlns:sodipodi="http://sodipodi.sourceforge.net/DTD/sodipodi-0.dtd"
   xmlns:inkscape="http://www.inkscape.org/namespaces/inkscape"
   height="32"
   width="32"
   version="1"
   id="svg8"
   sodipodi:docname="snow-top-2.svg"
   inkscape:version="0.92.1 r"&gt;
  <path d="m24.646 6.111c2.995 2.684 1.381 7.817 3.674 8.291 2.031.613 3.541-1.385 3.66-4.503.35-8.627-3.911-9.427-6.879-9.524-28.342-2.047-1.762 4.92-.455 5.736" fill="url(#0)"/></svg>