<svg xmlns="http://www.w3.org/2000/svg" viewBox="0 0 32 32"><defs><linearGradient gradientTransform="matrix(2.62891 0 0 2.71269-160.16-291.42)" id="0" x1="67.894" y1="108.69" x2="67.854" y2="113.11" gradientUnits="userSpaceOnUse"><stop stop-color="#f9f9f9"/><stop offset="1" stop-color="#999"/></linearGradient></defs><rect width="28.2" height="28.2" x="1.898" y="1.898" fill="#6eaa36" fill-rule="evenodd" rx="5.575"/><path d="m15.643 4.801c-4.295 0-6.75 1.759-8.351 3.74 1.227.337 2.085.617 2.361.708.003-.186.033-1.857.033-1.857l.024-.053.062-.019c.378.055 8.43 1.245 11.822 3.222.42.247.626.505.886.771.937.969 2.182 5 2.314 5.837l-.053.086c-.048.018-.167.1-.321.206-.791.553-2.642 1.848-5.01 1.638-2.133-.19-4.916-1.414-8.274-3.625.148.349.846 2.01.962 2.284l.048.057c.486.251 5.151 2.629 7.465 2.581 1.868-.037 3.861-.948 4.659-1.427l.254-.048c.071.056.06.164.038.264-.049.229-.159.648-.235.843l-.062.162c-.091.241-.179.474-.349.613-.471.428-1.224.767-2.399 1.282-1.818.795-4.765 1.294-7.503 1.278-.979-.024-1.928-.132-2.761-.227-1.738-.197-3.15-.357-3.994.298 2.052 2.319 5.05 3.783 8.389 3.783 6.185 0 11.205-5.01 11.205-11.2 0-6.185-5.02-11.2-11.205-11.2h-.001zm2.961 5.928c-.857.013-1.664.333-2.294.924-.675.625-1.063 1.48-1.096 2.399-.062 1.896 1.431 3.496 3.328 3.567.924.03 1.798-.299 2.471-.929.671-.627 1.058-1.476 1.092-2.394.065-1.899-1.427-3.499-3.328-3.567-.058-.002-.116-.001-.173 0m-.091 1.016c.079-.005.155-.003.235 0 1.325.046 2.366 1.157 2.322 2.485-.02.639-.292 1.238-.76 1.677-.47.436-1.081.661-1.724.641-1.324-.049-2.362-1.164-2.318-2.49.021-.641.296-1.235.762-1.672.409-.383.931-.607 1.484-.641m.631 1.202c-.59 0-1.068.32-1.068.713 0 .391.477.713 1.068.713.589 0 1.063-.322 1.063-.713 0-.394-.474-.713-1.063-.713" fill="#fff"/>

   xmlns:dc="http://purl.org/dc/elements/1.1/"
   xmlns:cc="http://creativecommons.org/ns#"
   xmlns:rdf="http://www.w3.org/1999/02/22-rdf-syntax-ns#"
   xmlns:svg="http://www.w3.org/2000/svg"
   xmlns="http://www.w3.org/2000/svg"
   xmlns:xlink="http://www.w3.org/1999/xlink"
   xmlns:sodipodi="http://sodipodi.sourceforge.net/DTD/sodipodi-0.dtd"
   xmlns:inkscape="http://www.inkscape.org/namespaces/inkscape"
   version="1"
   width="32"
   height="32"
   id="svg12"
   sodipodi:docname="snow-top-1.svg"
   inkscape:version="0.92.1 r"&gt;
  <path d="m7.288.009c-8.276-.356-9.36 9.992-4.02 9.973.679.003 1.604-.207 2.97-1.543 7.256-10.531 14.706 3.573 17.53.919 1.71-1.912 3.496-.418 4.448.115 2.1.643 3.662.041 3.785-3.231.188-3.321-1.889-6.344-5.923-6.223-5.914.14-12.989-.047-18.787-.01" fill="url(#0)"/><path fill="#f00" fill-opacity="0" d="m0 0h32v32h-32z"/></svg>