<svg xmlns="http://www.w3.org/2000/svg" xmlns:xlink="http://www.w3.org/1999/xlink" viewBox="0 0 32 32"><defs><linearGradient id="4" x1="-178.12" y1="-134.12" x2="-183.59" y2="-135.1" gradientUnits="userSpaceOnUse"><stop stop-color="#7c0000"/><stop offset="1" stop-color="#7c0000" stop-opacity="0"/></linearGradient><linearGradient id="3" x1="-189.8" y1="-142.57" x2="-175.35" y2="-130.4" gradientUnits="userSpaceOnUse"><stop stop-color="#ff383f"/><stop offset="1" stop-color="#a02d26"/></linearGradient><linearGradient id="2"><stop stop-color="#f9f9f9"/><stop offset="1" stop-color="#999"/></linearGradient><linearGradient xlink:href="#2" id="1" x1="-188.02" y1="-134.18" x2="-190.66" y2="-126.24" gradientUnits="userSpaceOnUse"/><radialGradient xlink:href="#2" id="5" cx="-176.59" cy="-120.91" r="3.01" gradientUnits="userSpaceOnUse" gradientTransform="matrix(2.21087.05719-.05496 2.12455 207.3 145.17)"/></defs><rect width="28.2" height="28.2" x="1.898" y="1.898" fill="#355681" fill-rule="evenodd" rx="5.575"/><path d="m18.704 21.21c-3.42-.449-6.559-2.073-8.562-4.429l-.227-.267v-.53-.53l.322.024c1.791.135 3.982-.501 5.365-1.556.342-.261.776-.726.984-1.056l.181-.287.556.298c.306.164.569.31.584.324.035.033-.164.372-.423.721-.991 1.336-2.868 2.364-4.971 2.721-.186.032-.338.068-.338.082 0 .038.705.616 1.059.869.174.124.343.225.376.225.103 0 .676-.19.875-.291.28-.141.506-.292.679-.454.085-.079.154-.136.154-.125 0 .082-.572.922-.803 1.179-.12.134-.142.174-.106.197.128.083.816.419 1.154.563l.386.165.211-.055c.588-.154 1.489-.708 2.262-1.393.126-.111.234-.197.241-.191.016.016-.312.707-.499 1.049-.139.255-.479.779-.646.995-.036.046-.054.09-.04.098.09.052 1.059.247 1.442.29l.192.022.205-.294c.723-1.038 1.451-2.528 2.02-4.128.098-.277.19-.515.204-.53.035-.035 1.258.386 1.258.434 0 .109-.379 1.121-.705 1.883-.596 1.391-1.328 2.696-2.089 3.719l-.239.322-.314-.003c-.173-.002-.509-.029-.747-.06m1.501-8.215c-1.589-.714-2.893-1.311-2.898-1.327-.012-.035.139-.265.289-.44.169-.197.545-.434.843-.531.213-.069.318-.085.604-.087.353-.002.412.009.809.161.117.044.218.075.225.068.007-.007.623-1.194 1.37-2.637.747-1.443 1.369-2.636 1.384-2.652.023-.024 1.134.449 1.2.511.012.012-.451 1.272-1.029 2.8-.578 1.528-1.052 2.782-1.052 2.787 0 .004.124.068.275.142.692.337 1.116 1.054 1.065 1.802-.016.239-.121.656-.172.688-.013.008-1.324-.569-2.912-1.284m-8.906.2c-.45-.088-.943-.48-1.148-.913-.319-.674-.195-1.386.336-1.916.374-.374.88-.547 1.389-.474.737.106 1.334.703 1.44 1.44.045.316-.015.673-.165.978-.124.251-.451.584-.71.722-.33.176-.761.237-1.141.163m-2.536-4.679c-.58-.121-.943-.773-.735-1.324.084-.224.278-.445.485-.554.142-.075.196-.085.459-.085.264 0 .317.01.459.085.345.182.562.558.54.936-.036.62-.609 1.067-1.208.943m3.068.004c-.329-.107-.503-.334-.503-.66 0-.196.032-.28.163-.429.271-.309.723-.309.995 0 .131.149.163.233.163.429 0 .176-.064.353-.166.463-.149.16-.468.257-.651.197" fill="#fff" stroke-width=".031"/><text x="9.757" y="27.465" font-family="sans-serif" fill="#f9f9f9" word-spacing="0" line-height="1.25" letter-spacing="0" font-size="6.01"><tspan x="9.757" y="27.465" stroke-width=".15">SVG</tspan></text><path d="m32 .157l-.27 2.221-.122-2.378" fill="#f9f9f9" id="0"/><use xlink:href="#0"/><path d="m32 .113l-.27 1.6-.122-1.713" fill="#f9f9f9"/><g transform="matrix(-1 0 0 1-172.76 143.72)"><path d="m-190.09-143.27c-5.577-1.531-5.951 3.24-4.58 5.493 4.381 6.983 6.796 6.577 9.398 7.895 1.712 2.064 3.451 3.4 6.469 4.1 11.69 1.559 3.242-8.417.92-8.649-5.065.012-7.547-6.123-12.206-8.838" fill="url(#1)"/><path d="m-190.09-143.27c3.76.276 5.616-.626 8.93-.421 4.319.283 8.307 2.053 7.838 6.574-.347 2.567-.37 2.25.186 4.296.532 1.535-.252 4.232-.487 4.654-2.715 4.963-1.536 4.965-2.656 7.742l-.906-.418-2.508-11.358c-7.177-.909-10.754-10.11-10.398-11.07" fill="url(#3)"/><path d="m-183.3-133.33c.362.274 1.553-5.105 1.172-5.653 1.379 2.44 1.919 4.616 2.435 6.783-1.276-.283-2.289-.554-3.607-1.13" fill="url(#4)"/><circle r="3.01" cy="-120.11" cx="-176.61" fill="url(#5)"/></g></svg>