<svg xmlns="http://www.w3.org/2000/svg" viewBox="0 0 32 32"><defs><linearGradient gradientTransform="matrix(-2.65552 0 0 2.58531 193.77-277.73)" id="0" x1="67.894" y1="108.69" x2="67.854" y2="113.11" gradientUnits="userSpaceOnUse"><stop stop-color="#f9f9f9"/><stop offset="1" stop-color="#999"/></linearGradient></defs><g fill-rule="evenodd"><g fill="#ccc"><path d="m11.906 6.531c.411-.625.905-1.175 1.512-1.541.685-.413 1.465-.653 2.268-.701.963-.058 1.958.158 2.865.682.605.349 1.112.8 1.51 1.318.398.518.688 1.102.859 1.717.171.615.224 1.261.148 1.9-.064.539-.271 1.064-.523 1.574.806-.393 1.661-.634 2.508-.566.795.063 1.57.319 2.256.748.686.429 1.284 1.031 1.721 1.787.349.605.561 1.249.646 1.896.086.647.046 1.298-.113 1.916-.159.618-.435 1.203-.82 1.719-.329.441-.778.797-1.26 1.115.567.037 1.125.12 1.623.334.592.254 1.124.622 1.57 1.078.447.456.807.998 1.057 1.602.209.505.287 1.07.324 1.645.003-.08.045-.146.045-.227v-17.05c0-3.089-2.486-5.574-5.574-5.574h-17.05c-.08 0-.147.042-.227.045.574.037 1.14.116 1.645.324.604.249 1.146.61 1.602 1.057.456.447.824.979 1.078 1.57.216.502.3 1.065.336 1.637"/><rect width="28.2" height="28.2" x="1.898" y="1.898" rx="5.575"/></g><path d="m6.923933 22.834608a2.240985 2.240985 0 0 0 -.158407 .0066 2.240985 2.240985 0 0 0 -.223505 .02821 2.240985 2.240985 0 0 0 -.219165 .04774 2.240985 2.240985 0 0 0 -.212656 .07161 2.240985 2.240985 0 0 0 -.203976 .09114 2.240985 2.240985 0 0 0 -.193126 .110668 2.240985 2.240985 0 0 0 -.182276 .130198 2.240985 2.240985 0 0 0 -.169257 .147556 2.240985 2.240985 0 0 0 -.151897 .164917 2.240985 2.240985 0 0 0 -.136707 .177936 2.240985 2.240985 0 0 0 -.117178 .190956 2.240985 2.240985 0 0 0 -.097648 .201807 2.240985 2.240985 0 0 0 -.075948 .210485 2.240985 2.240985 0 0 0 -.054249 .216995 2.240985 2.240985 0 0 0 -.034719 .221336 2.240985 2.240985 0 0 0 -.010855 .223505 2.240985 2.240985 0 0 0 .00651 .158407 2.240985 2.240985 0 0 0 .026039 .223505 2.240985 2.240985 0 0 0 .049909 .216995 2.240985 2.240985 0 0 0 .069438 .212657 2.240985 2.240985 0 0 0 .091138 .206145 2.240985 2.240985 0 0 0 .112838 .193126 2.240985 2.240985 0 0 0 .130197 .182276 2.240985 2.240985 0 0 0 .147557 .169257 2.240985 2.240985 0 0 0 .162747 .151897 2.240985 2.240985 0 0 0 .180106 .136707 2.240985 2.240985 0 0 0 .190956 .117177 2.240985 2.240985 0 0 0 .201806 .09548 2.240985 2.240985 0 0 0 .210486 .07812 2.240985 2.240985 0 0 0 .216995 .05425 2.240985 2.240985 0 0 0 .221335 .03472 2.240985 2.240985 0 0 0 .223505 .01089 2.240985 2.240985 0 0 0 .158407 -.0066 2.240985 2.240985 0 0 0 .221336 -.02604 2.240985 2.240985 0 0 0 .219165 -.04991 2.240985 2.240985 0 0 0 .212656 -.06944 2.240985 2.240985 0 0 0 .20398 -.09117 2.240985 2.240985 0 0 0 .195296 -.112837 2.240985 2.240985 0 0 0 .182276 -.130198 2.240985 2.240985 0 0 0 .167086 -.147556 2.240985 2.240985 0 0 0 .154067 -.162747 2.240985 2.240985 0 0 0 .134537 -.180106 2.240985 2.240985 0 0 0 .117178 -.190956 2.240985 2.240985 0 0 0 .097648 -.201806 2.240985 2.240985 0 0 0 .075948 -.210486 2.240985 2.240985 0 0 0 .056418 -.216996 2.240985 2.240985 0 0 0 .03255 -.221335 2.240985 2.240985 0 0 0 .010855 -.223505 2.240985 2.240985 0 0 0 -.00434 -.158407 2.240985 2.240985 0 0 0 -.02821 -.221335A2.240985 2.240985 0 0 0 9.08304 24.477263 2.240985 2.240985 0 0 0 9.01143 24.264608 2.240985 2.240985 0 0 0 8.920291 24.06063 2.240985 2.240985 0 0 0 8.809624 23.865336 2.240985 2.240985 0 0 0 8.679426 23.68306 2.240985 2.240985 0 0 0 8.53187 23.515973 2.240985 2.240985 0 0 0 8.366953 23.361906 2.240985 2.240985 0 0 0 8.189017 23.22737 2.240985 2.240985 0 0 0 7.998061 23.11019 2.240985 2.240985 0 0 0 7.796255 23.01254 2.240985 2.240985 0 0 0 7.585769 22.936596 2.240985 2.240985 0 0 0 7.368774 22.880176 2.240985 2.240985 0 0 0 7.147438 22.847627 2.240985 2.240985 0 0 0 6.923933 22.834608" fill="#fff"/><path d="m2.809 22.289c-.078.118-.231.183-.299.307-.038.071-.022.16-.057.232.097-.196.235-.359.355-.539" fill="#8e8e8e"/><path d="m25.482 20.1c.482-.318.93-.674 1.26-1.115.385-.516.661-1.101.82-1.719.159-.618.199-1.269.113-1.916-.086-.647-.297-1.292-.646-1.896-.437-.756-1.034-1.358-1.721-1.787-.686-.429-1.461-.685-2.256-.748-.954-.076-1.937.125-2.826.639l-15.896 9.176c-.115.066-.155.194-.262.268.274-.193.515-.433.826-.566.592-.254 1.243-.396 1.928-.396h18.355c.108 0 .198.056.305.063" fill="#e74949"/><path d="m20.545 11.48c.252-.51.46-1.035.523-1.574.075-.64.023-1.286-.148-1.9-.171-.615-.461-1.199-.859-1.717-.398-.518-.905-.969-1.51-1.318-.907-.524-1.903-.74-2.865-.682-.802.049-1.582.288-2.268.701-.685.413-1.277.999-1.705 1.74l-9.1 15.756c.069-.062.141-.122.191-.197.174-.261.298-.559.516-.781.212-.216.497-.338.744-.512.107-.074.147-.201.262-.268l15.896-9.176c.1-.058.216-.022.318-.072" fill="#4d4e99"/><path d="m11.906 6.531c-.036-.572-.12-1.134-.336-1.637-.254-.592-.622-1.124-1.078-1.57-.456-.447-.998-.807-1.602-1.057-.505-.209-1.07-.287-1.645-.324-2.976.125-5.348 2.521-5.348 5.529v17.05c0 .08.042.147.045.227.037-.574.116-1.14.324-1.645.044-.106.135-.179.186-.281.035-.072.018-.162.057-.232.024-.044.069-.075.107-.109l9.1-15.756c.049-.084.14-.119.193-.199" fill="#4f4f4f"/><path d="m30.12 24.753c-.037-.576-.116-1.144-.325-1.65-.25-.606-.612-1.15-1.06-1.607-.448-.457-.982-.827-1.576-1.082-.594-.255-1.248-.398-1.935-.398h-18.422c-.687 0-1.341.143-1.935.398-.594.255-1.128.625-1.576 1.082-.448.457-.81 1-1.06 1.607-.209.507-.288 1.074-.325 1.65.125 2.987 2.53 5.367 5.549 5.367h17.12c3.02 0 5.424-2.38 5.549-5.367m-23.21638-1.701436a2.024345 2.024345 0 0 1 .201899 .01176 2.024345 2.024345 0 0 1 .199939 .02941 2.024345 2.024345 0 0 1 .196018 .05096 2.024345 2.024345 0 0 1 .190138 .06861 2.024345 2.024345 0 0 1 .182297 .08821 2.024345 2.024345 0 0 1 .172496 .105849 2.024345 2.024345 0 0 1 .160735 .121531 2.024345 2.024345 0 0 1 .148974 .139173 2.024345 2.024345 0 0 1 .133292 .150934 2.024345 2.024345 0 0 1 .117611 .164655 2.024345 2.024345 0 0 1 .099969 .176416 2.024345 2.024345 0 0 1 .082327 .184257 2.024345 2.024345 0 0 1 .064686 .192098 2.024345 2.024345 0 0 1 .043124 .197979 2.024345 2.024345 0 0 1 .025483 .199938 2.024345 2.024345 0 0 1 .00392 .143093 2.024345 2.024345 0 0 1 -.00981 .201899 2.024345 2.024345 0 0 1 -.029403 .199938 2.024345 2.024345 0 0 1 -.050964 .196018 2.024345 2.024345 0 0 1 -.068606 .190138 2.024345 2.024345 0 0 1 -.088209 .182297 2.024345 2.024345 0 0 1 -.10585 .172496 2.024345 2.024345 0 0 1 -.121531 .162695 2.024345 2.024345 0 0 1 -.139173 .147014 2.024345 2.024345 0 0 1 -.150934 .133292 2.024345 2.024345 0 0 1 -.164655 .117611 2.024345 2.024345 0 0 1 -.176416 .101929 2.024345 2.024345 0 0 1 -.184257 .08233 2.024345 2.024345 0 0 1 -.192098 .06273 2.024345 2.024345 0 0 1 -.197978 .04508 2.024345 2.024345 0 0 1 -.199939 .02352 2.024345 2.024345 0 0 1 -.143093 .0059 2.024345 2.024345 0 0 1 -.201898 -.0098 2.024345 2.024345 0 0 1 -.199929 -.031391 2.024345 2.024345 0 0 1 -.196018 -.049005 2.024345 2.024345 0 0 1 -.190137 -.070566 2.024345 2.024345 0 0 1 -.182297 -.086248 2.024345 2.024345 0 0 1 -.172496 -.105849 2.024345 2.024345 0 0 1 -.162695 -.123492 2.024345 2.024345 0 0 1 -.147014 -.137212 2.024345 2.024345 0 0 1 -.133292 -.152895 2.024345 2.024345 0 0 1 -.117611 -.164654 2.024345 2.024345 0 0 1 -.101929 -.174456 2.024345 2.024345 0 0 1 -.082327 -.186218 2.024345 2.024345 0 0 1 -.062726 -.192098 2.024345 2.024345 0 0 1 -.045084 -.196018 2.024345 2.024345 0 0 1 -.023522 -.201899 2.024345 2.024345 0 0 1 -.00588 -.143093 2.024345 2.024345 0 0 1 .00981 -.201898 2.024345 2.024345 0 0 1 .031363 -.199939 2.024345 2.024345 0 0 1 .049004 -.196018 2.024345 2.024345 0 0 1 .068606 -.190137 2.024345 2.024345 0 0 1 .088209 -.182297 2.024345 2.024345 0 0 1 .10585 -.172496 2.024345 2.024345 0 0 1 .123491 -.160735 2.024345 2.024345 0 0 1 .137213 -.148974 2.024345 2.024345 0 0 1 .152894 -.133292 2.024345 2.024345 0 0 1 .164655 -.117611 2.024345 2.024345 0 0 1 .174456 -.09997 2.024345 2.024345 0 0 1 .184257 -.08233 2.024345 2.024345 0 0 1 .192098 -.06468 2.024345 2.024345 0 0 1 .197978 -.04312 2.024345 2.024345 0 0 1 .201899 -.02548 2.024345 2.024345 0 0 1 .143093 -.0059" fill="#ffc255"/></g>

   xmlns:dc="http://purl.org/dc/elements/1.1/"
   xmlns:cc="http://creativecommons.org/ns#"
   xmlns:rdf="http://www.w3.org/1999/02/22-rdf-syntax-ns#"
   xmlns:svg="http://www.w3.org/2000/svg"
   xmlns="http://www.w3.org/2000/svg"
   xmlns:xlink="http://www.w3.org/1999/xlink"
   xmlns:sodipodi="http://sodipodi.sourceforge.net/DTD/sodipodi-0.dtd"
   xmlns:inkscape="http://www.inkscape.org/namespaces/inkscape"
   version="1"
   width="32"
   height="32"
   id="svg12"
   sodipodi:docname="snow-top-3.svg"
   inkscape:version="0.92.1 r"&gt;
  <path d="m24.627.009c8.36-.339 9.455 9.523 4.064 9.505-.686.003-1.62-.197-3-1.471-14.665-10.216-14.549 2.967-17.708.875-1.727-1.822-1.743 4.653-4.139 5.127-2.122.613-3.699-1.385-3.824-4.503-.366-8.627 4.086-9.427 7.187-9.524 5.974.133 11.562-.045 17.419-.01" fill="url(#0)"/></svg>