<svg xmlns="http://www.w3.org/2000/svg" viewBox="0 0 32 32" xmlns:xlink="http://www.w3.org/1999/xlink"><defs><linearGradient gradientTransform="matrix(-2.54182 0 0 2.58531 185.47-277.37)" id="1" x1="67.894" y1="108.69" x2="67.854" y2="113.11" gradientUnits="userSpaceOnUse"><stop stop-color="#f9f9f9"/><stop offset="1" stop-color="#999"/></linearGradient></defs><g fill-rule="evenodd"><rect width="28.2" height="28.2" x="1.898" y="1.898" fill="#196260" rx="5.575"/><g transform="translate(88.51 10.518)"><path d="m-72.57-8.62l-1.959 2.451 2.025 2.531v9.119h9.119l2.531-2.025 2.451 1.959v-1.428-7.03c0-3.089-2.488-5.574-5.576-5.574h-7.133z" fill="#196260"/><path d="m-86.61 5.548l2.451 1.959 2.531-2.025h9.119v-9.119l-2.025-2.531 1.959-2.451h-1.428-7.03c-3.089 0-5.574 2.488-5.574 5.576v7.133z" fill="#5d7dbd"/><path d="m-58.4 5.415l-2.451-1.959-2.531 2.025h-9.119v9.119l2.025 2.531-1.959 2.451h1.428 7.03c3.089 0 5.574-2.488 5.574-5.576v-7.133" fill="#3f96b9"/><path d="m-72.44 19.583l1.959-2.451-2.025-2.531v-9.119h-9.119l-2.531 2.025-2.451-1.959v1.428 7.03c0 3.089 2.488 5.574 5.576 5.574h7.133z" fill="#97c33d"/></g></g><circle cx="16" r="9" cy="16" fill="#f9f9f9"/>

   xmlns:dc="http://purl.org/dc/elements/1.1/"
   xmlns:cc="http://creativecommons.org/ns#"
   xmlns:rdf="http://www.w3.org/1999/02/22-rdf-syntax-ns#"
   xmlns:svg="http://www.w3.org/2000/svg"
   xmlns="http://www.w3.org/2000/svg"
   xmlns:xlink="http://www.w3.org/1999/xlink"
   xmlns:sodipodi="http://sodipodi.sourceforge.net/DTD/sodipodi-0.dtd"
   xmlns:inkscape="http://www.inkscape.org/namespaces/inkscape"
   height="32"
   width="32"
   version="1"
   id="svg8"
   sodipodi:docname="snow-top-3.svg"
   inkscape:version="0.92.1 r"&gt;
  <path fill="#00000f" fill-opacity="0" d="m0 0h32v32h-32z" id="0"/><path d="m7.354 6.111c-2.995 2.684-1.381 7.817-3.674 8.291-2.031.613-3.541-1.385-3.66-4.503-.35-8.627 3.911-9.427 6.879-9.524 28.342-2.047 1.762 4.92.455 5.736" fill="url(#1)"/><use xlink:href="#0"/></svg>