<svg xmlns="http://www.w3.org/2000/svg" height="32" width="32" viewBox="0 0 8.47 8.47" xmlns:xlink="http://www.w3.org/1999/xlink"><defs><linearGradient xlink:href="#3" id="4" gradientUnits="userSpaceOnUse" x1="27.558" y1="-133.46" x2="22.09" y2="-134.43"/><linearGradient xlink:href="#3" id="2" gradientUnits="userSpaceOnUse" x1="15.879" y1="-141.91" x2="30.32" y2="-129.74"/><linearGradient id="3"><stop stop-color="#55c03f"/><stop offset="1" stop-color="#198b26"/></linearGradient><linearGradient id="1"><stop stop-color="#f9f9f9"/><stop offset="1" stop-color="#999"/></linearGradient><linearGradient xlink:href="#1" id="0" gradientUnits="userSpaceOnUse" x1="17.658" y1="-133.51" x2="15.02" y2="-125.58"/><radialGradient xlink:href="#1" id="5" cx="-176.59" cy="-120.91" r="3.01" gradientUnits="userSpaceOnUse" gradientTransform="matrix(2.21087.05719-.05496 2.12455 412.97 145.84)"/></defs><rect width="7.465" height="7.465" x=".502" y=".502" fill="#0d69bc" fill-rule="evenodd" rx="1.476"/><g transform="matrix(.79268 0 0 .79268.879.879)" stroke-width="1.262"><path d="m4.244.529c-.026-.001-.051.009-.068.026-.257.248-.517.526-.753.79-.582.671-1.023 1.36-1.343 2.097-.298.687-.472 1.281-.631 2.147-.035.19-.07.419-.094.604-.012.092-.022.173-.027.233-.003.03-.004.055-.005.074 0 .01 0 .018.001.029.001.005.001.011.004.02.003.009.001.028.041.052.022.013.025.01.03.011.005.001.01.002.014.003.009.001.018.002.029.003.021.002.048.004.076.005.223.011.551.064.769.123.147.04.244.073.387.132.033.014.064.026.086.035.011.005.021.008.028.011.003.001.006.002.009.003.001 0 .001 0 .001.001.001 0 .002.001.004.002.002 0 .003.001.006.001.001 0 .002.001.003.002-.001 0-.003 0-.004 0 .006.003.014.007.024.012.024.012.058.029.094.048.351.183.614.371 1.034.743.055.049.107.093.146.126.019.016.036.03.049.04.006.005.012.009.018.013.003.002.006.004.011.007.002.001.005.003.011.005.005.002.011.007.036.008.03.001.036-.005.042-.007.006-.003.009-.004.012-.006.005-.003.008-.005.011-.007.006-.004.012-.009.019-.014.014-.011.032-.025.053-.043.043-.035.099-.083.159-.137.347-.305.515-.433.757-.582.528-.324.998-.468 1.72-.524l.059-.005c.047-.004.083-.04.083-.084v-.032c0-.066-.017-.204-.04-.373-.023-.17-.052-.363-.079-.51-.158-.873-.338-1.489-.64-2.184-.272-.627-.661-1.26-1.126-1.833-.001-.001-.002-.003-.003-.004-.313-.343-.616-.703-.947-1.037-.017-.017-.04-.027-.064-.027" fill="#0278dc" stroke-width=".011"/><path d="m4.244.531c-.026-.001-.05.009-.068.026-.217.21-.435.441-.64.667l.7 4.056.693-4.049c-.202-.228-.406-.455-.621-.672-.017-.017-.04-.027-.064-.027m-.008 4.749l2.13-1.876c-.146-.329-.326-.659-.531-.982m-1.599 2.857l2.635-.379c-.065-.268-.138-.518-.221-.762m-2.414 1.141l2.817 1.335h.008c.047-.004.083-.04.083-.084v-.027c0-.066-.017-.203-.04-.372-.012-.085-.026-.168-.04-.256l-.051-.188m-2.777-.407l1.032 1.858.056-.02c.196-.117.386-.21.584-.283m-1.673-1.556l-.437 2.321c.053.045.103.086.161.137.055.049.107.093.146.126.019.016.036.03.049.04.006.005.012.009.017.013.003.002.006.004.011.007.001 0 .002.001.003.001l.051.009.144-.086c.041-.034.09-.076.145-.124.053-.047.083-.068.128-.107zm0 0l-1.657 1.564c.031.012.06.022.096.037.033.014.064.026.086.035.011.005.02.008.027.011.003.001.007.002.009.003.001 0 .001 0 .001 0 .001 0 .002.001.004.002.002 0 .003.001.006.001.001 0 .002.001.004.001-.001 0-.003 0-.004 0 .006.003.014.007.024.012.024.012.057.029.094.048.094.049.181.098.266.151zm0 0l-2.795.367c-.032.179-.064.384-.086.553-.012.092-.022.173-.027.233-.003.029-.004.053-.005.073 0 0 0 .001 0 .001 0 .008 0 .015.001.024.001.005.001.011.004.02.003.009.001.028.041.052.022.013.025.01.031.011.005.001.009.002.014.003.009.001.018.002.029.003.021.002.048.004.076.005.041.002.088.007.134.011zm0 0l-2.417-1.141c-.08.233-.15.473-.213.73m2.63.411l-1.594-2.874c-.194.303-.361.613-.507.931" fill="#48a0f8" fill-rule="evenodd" stroke-width="1.262"/></g><g transform="translate(-.916 143.06)"/></svg>