<svg xmlns="http://www.w3.org/2000/svg" viewBox="0 0 32 32"><defs><linearGradient gradientTransform="matrix(-2.65552 0 0 2.58531 193.77-277.73)" id="0" x1="67.894" y1="108.69" x2="67.854" y2="113.11" gradientUnits="userSpaceOnUse"><stop stop-color="#f9f9f9"/><stop offset="1" stop-color="#999"/></linearGradient></defs><rect width="28.2" height="28.2" x="1.898" y="1.898" fill="#2293da" fill-rule="evenodd" rx="5.575"/><path d="m18.13157 8.539504a4.973664 4.973664 0 0 0 -4.621177 3.148785 3.552617 3.552617 0 0 0 -2.484057 -1.017215 3.552617 3.552617 0 0 0 -3.552618 3.552617 3.552617 3.552617 0 0 0 .346935 1.52374 4.263141 4.263141 0 0 0 -1.767982 3.449924 4.263141 4.263141 0 0 0 4.263142 4.263141h9.947A5.684188 5.684188 0 0 0 25.947329 17.776309 5.684188 5.684188 0 0 0 23.0525 12.826236 4.973664 4.973664 0 0 0 18.13157 8.539504" fill="#46b4ff"/><g transform="matrix(.71052 0 0 .71052 4.632 4.285)" stroke-width="1.407" fill="#fff"><path d="m16 13a5 5 0 0 0 -4.894531 4h2.07A3 3 0 0 1 16 15a3 3 0 0 1 2.826172 2h2.072A5 5 0 0 0 16 13m-4.898438 6A5 5 0 0 0 16 23 5 5 0 0 0 20.894531 19H18.824A3 3 0 0 1 16 21 3 3 0 0 1 13.173828 19"/><path d="m21 17h-4l4-4z"/><path d="m11 18h4l-4 4z"/></g>

   xmlns:dc="http://purl.org/dc/elements/1.1/"
   xmlns:cc="http://creativecommons.org/ns#"
   xmlns:rdf="http://www.w3.org/1999/02/22-rdf-syntax-ns#"
   xmlns:svg="http://www.w3.org/2000/svg"
   xmlns="http://www.w3.org/2000/svg"
   xmlns:xlink="http://www.w3.org/1999/xlink"
   xmlns:sodipodi="http://sodipodi.sourceforge.net/DTD/sodipodi-0.dtd"
   xmlns:inkscape="http://www.inkscape.org/namespaces/inkscape"
   version="1"
   width="32"
   height="32"
   id="svg12"
   sodipodi:docname="snow-top-3.svg"
   inkscape:version="0.92.1 r"&gt;
  <path d="m24.627.009c8.36-.339 9.455 9.523 4.064 9.505-.686.003-1.62-.197-3-1.471-14.665-10.216-14.549 2.967-17.708.875-1.727-1.822-1.743 4.653-4.139 5.127-2.122.613-3.699-1.385-3.824-4.503-.366-8.627 4.086-9.427 7.187-9.524 5.974.133 11.562-.045 17.419-.01" fill="url(#0)"/></svg>