<svg xmlns="http://www.w3.org/2000/svg" viewBox="0 0 32 32"><rect width="28.2" height="28.2" x="1.898" y="1.898" fill="#eac046" fill-rule="evenodd" rx="5.575"/><path d="m14.344 5.788v2.88c-3.643.83-6.229 4.068-6.233 7.805 0 4.426 3.588 8.01 8.01 8.01 4.078-.005 7.502-3.071 7.955-7.123 0 0 .059-.89-.831-.89-.89 0-.962.89-.962.89-.443 3.064-3.066 5.339-6.162 5.343-3.442 0-6.233-2.791-6.233-6.233.003-2.754 1.813-5.18 4.452-5.967v2.405l3.562-3.562z" fill="#fff" stroke-width=".89"/>

   xmlns:dc="http://purl.org/dc/elements/1.1/"
   xmlns:cc="http://creativecommons.org/ns#"
   xmlns:rdf="http://www.w3.org/1999/02/22-rdf-syntax-ns#"
   xmlns:svg="http://www.w3.org/2000/svg"
   xmlns="http://www.w3.org/2000/svg"
   xmlns:sodipodi="http://sodipodi.sourceforge.net/DTD/sodipodi-0.dtd"
   xmlns:inkscape="http://www.inkscape.org/namespaces/inkscape"
   height="32"
   width="32"
   version="1"
   id="svg8"
   sodipodi:docname="star-mime-2.svg"
   inkscape:version="0.92.1 r"&gt;
  <g transform="translate(152.47 194.05)" fill="#fff"><path d="m-125.38-193.25l-.077 3.548 3.072 1.831-3.548-.077-3.135 6.791 1.38-7.268-3.072-1.831 3.548.077z"/><path d="m-125.41-183.04l.042-1.955-1.692-1.01 1.955.042 1.727-3.741-.76 4 1.692 1.01-1.955-.042z"/></g></svg>