<svg xmlns="http://www.w3.org/2000/svg" viewBox="0 0 32 32" xmlns:xlink="http://www.w3.org/1999/xlink"><rect width="28.2" height="28.2" x="1.898" y="1.898" fill="#5f7c8a" fill-rule="evenodd" rx="5.575"/><g transform="translate(.026-.268)"><g transform="matrix(.48252 0 0 .48252 5.568 5.976)"><path d="m13.13 1c-.297.032-.558.275-.613.569l-.591 2.997c-1.06.415-2.057.984-2.931 1.684l-2.909-.984c-.302-.104-.669.031-.831.306l-2.8 4.856c-.158.279-.09.666.153.875l2.319 2.034c-.082.545-.131 1.094-.131 1.662 0 .568.05 1.117.131 1.663l-2.319 2.034c-.243.209-.311.596-.153.875l2.8 4.856c.162.275.529.41.831.306l2.909-.984c.874.7 1.871 1.27 2.931 1.684l.591 2.997c.06.314.359.564.678.569h5.6c.319-.004.618-.255.678-.569l.591-2.997c1.06-.415 2.057-.984 2.931-1.684l2.909.984c.302.104.669-.031.831-.306l2.8-4.856c.158-.279.09-.666-.153-.875l-2.319-2.034c.082-.545.131-1.094.131-1.662 0-.568-.05-1.117-.131-1.662l2.319-2.034c.243-.209.311-.596.153-.875l-2.8-4.856c-.162-.275-.529-.41-.831-.306l-2.909.984c-.875-.7-1.871-1.27-2.931-1.685l-.591-2.997c-.06-.314-.359-.564-.678-.569h-5.6c-.022-.001-.044-.001-.066 0" fill="#fff" id="0"/><path d="m16 9c3.314 0 6 2.686 6 6 0 3.314-2.686 6-6 6-3.314 0-6-2.686-6-6 0-3.314 2.686-6 6-6" fill="#5f7c8a" id="1"/></g><g transform="matrix(.34693 0 0 .34693 14.957 16.02)"><use xlink:href="#0"/><use xlink:href="#1"/></g></g>

   xmlns:dc="http://purl.org/dc/elements/1.1/"
   xmlns:cc="http://creativecommons.org/ns#"
   xmlns:rdf="http://www.w3.org/1999/02/22-rdf-syntax-ns#"
   xmlns:svg="http://www.w3.org/2000/svg"
   xmlns="http://www.w3.org/2000/svg"
   xmlns:sodipodi="http://sodipodi.sourceforge.net/DTD/sodipodi-0.dtd"
   xmlns:inkscape="http://www.inkscape.org/namespaces/inkscape"
   height="32"
   width="32"
   version="1"
   id="svg8"
   sodipodi:docname="star-mime-2.svg"
   inkscape:version="0.92.1 r"&gt;
  <g transform="translate(152.47 194.05)" fill="#fff"><path d="m-125.38-193.25l-.077 3.548 3.072 1.831-3.548-.077-3.135 6.791 1.38-7.268-3.072-1.831 3.548.077z"/><path d="m-125.41-183.04l.042-1.955-1.692-1.01 1.955.042 1.727-3.741-.76 4 1.692 1.01-1.955-.042z"/></g></svg>