<svg xmlns="http://www.w3.org/2000/svg" viewBox="0 0 32 32" xmlns:xlink="http://www.w3.org/1999/xlink"><rect width="28.2" height="28.2" x="1.898" y="1.898" fill="#48aeff" fill-rule="evenodd" rx="5.575"/><g transform="translate(38.15)"><g transform="translate(-38.15)"><rect y="10" x="10" height="13" width="3" fill="#fff" rx="1.444" id="0"/><path d="M11.44642 9.00106A.997969 .742728 0 0 0 10.635886 9.371383L7.134 13.886A.997969 .742728 0 0 0 7.997947 15h7a.997969 .742728 0 0 0 .864114 -1.114261L12.364 9.371A.997969 .742728 0 0 0 11.44642 9.00106" fill="#fff" id="1"/></g><g transform="matrix(1 0 0-1-29.15 32)"><use xlink:href="#0"/><use xlink:href="#1"/></g></g>

   xmlns:dc="http://purl.org/dc/elements/1.1/"
   xmlns:cc="http://creativecommons.org/ns#"
   xmlns:rdf="http://www.w3.org/1999/02/22-rdf-syntax-ns#"
   xmlns:svg="http://www.w3.org/2000/svg"
   xmlns="http://www.w3.org/2000/svg"
   xmlns:sodipodi="http://sodipodi.sourceforge.net/DTD/sodipodi-0.dtd"
   xmlns:inkscape="http://www.inkscape.org/namespaces/inkscape"
   height="32"
   width="32"
   version="1"
   id="svg8"
   sodipodi:docname="star-mime-2.svg"
   inkscape:version="0.92.1 r"&gt;
  <g transform="translate(152.47 194.05)" fill="#fff"><path d="m-125.38-193.25l-.077 3.548 3.072 1.831-3.548-.077-3.135 6.791 1.38-7.268-3.072-1.831 3.548.077z"/><path d="m-125.41-183.04l.042-1.955-1.692-1.01 1.955.042 1.727-3.741-.76 4 1.692 1.01-1.955-.042z"/></g></svg>