<svg xmlns="http://www.w3.org/2000/svg" xmlns:xlink="http://www.w3.org/1999/xlink" viewBox="0 0 32 32"><defs><linearGradient gradientTransform="matrix(-2.54182 0 0 2.58531 185.47-277.37)" id="1" x1="67.894" y1="108.69" x2="67.854" y2="113.11" gradientUnits="userSpaceOnUse"><stop stop-color="#f9f9f9"/><stop offset="1" stop-color="#999"/></linearGradient></defs><rect width="28.2" height="28.2" x="1.898" y="1.898" fill="#3e913a" fill-rule="evenodd" rx="5.575"/><path d="m19.2 23.95c1.548-.598 2.787-1.686 3.486-3.063.37-.729.574-1.439.66-2.302.023-.226.022-.918-.001-1.158-.115-1.214-.478-2.394-1.09-3.552l-.138-.261h-5.683-5.683l-.138.261c-.613 1.158-.975 2.339-1.09 3.552-.023.24-.023.932-.001 1.158.086.863.29 1.573.66 2.302.699 1.377 1.95 2.475 3.489 3.063l.174.067h2.591 2.591l.171-.066m4.835-3.555c.77-.387 1.426-.874 1.868-1.39.26-.303.406-.517.556-.813.18-.356.283-.683.348-1.111.03-.195.034-.637.007-.786-.093-.52-.335-.989-.717-1.384-.448-.464-.977-.733-1.642-.833-.193-.029-.69-.033-.928-.007-.089.01-.17.02-.178.023-.01.003.019.088.082.239.054.129.128.314.163.411l.065.176h.286c.304 0 .43.014.64.069.588.156 1.061.576 1.285 1.141.094.239.117.427.087.721-.066.65-.34 1.211-.846 1.73-.263.27-.593.535-.904.727-.058.036-.105.074-.105.085 0 .039-.097.453-.144.618-.026.09-.072.236-.102.324-.03.088-.052.162-.05.165.003.003.105-.046.228-.107m-15.02-.053c0-.003-.009-.031-.02-.062-.084-.239-.2-.713-.257-1.053-.193-1.15-.103-2.394.265-3.66l.041-.141-.093-.096c-.136-.14-.195-.217-.294-.382-.136-.227-.209-.411-.347-.879-.12-.406-.174-.563-.25-.724-.146-.309-.346-.494-.616-.567-.08-.022-.171-.024-1.016-.024h-.928l-.076.035c-.16.075-.249.216-.249.393 0 .091.005.114.047.196.039.077.064.106.147.168.113.086.158.145.242.324.126.267.208.558.538 1.922.297 1.227.607 2.051 1.046 2.784.395.659.876 1.17 1.468 1.56.164.108.352.219.352.207m12.57-7.619c-.159-.208-.514-.564-.751-.752-.619-.493-1.324-.853-2.134-1.087-.233-.067-.612-.155-.762-.177-.035-.005-.064-.012-.064-.014 0-.003.03-.058.067-.123.262-.457.299-1.026.098-1.516-.177-.433-.551-.796-.987-.961-.407-.153-.872-.147-1.273.017-.433.177-.796.551-.961.987-.182.483-.139 1.029.116 1.474.037.065.066.12.064.122-.002.002-.08.017-.173.034-.979.177-1.943.596-2.682 1.164-.301.231-.666.588-.852.831-.017.023.23.024 5.147.024 4.917 0 5.164-.001 5.146-.024m-5.329-2.164c-.153-.032-.308-.118-.427-.237-.342-.342-.342-.878 0-1.22.342-.342.878-.342 1.22 0 .342.342.342.878 0 1.22-.212.212-.5.298-.793.237" fill="#fff"/>

   xmlns:dc="http://purl.org/dc/elements/1.1/"
   xmlns:cc="http://creativecommons.org/ns#"
   xmlns:rdf="http://www.w3.org/1999/02/22-rdf-syntax-ns#"
   xmlns:svg="http://www.w3.org/2000/svg"
   xmlns="http://www.w3.org/2000/svg"
   xmlns:xlink="http://www.w3.org/1999/xlink"
   xmlns:sodipodi="http://sodipodi.sourceforge.net/DTD/sodipodi-0.dtd"
   xmlns:inkscape="http://www.inkscape.org/namespaces/inkscape"
   height="32"
   width="32"
   version="1"
   id="svg8"
   sodipodi:docname="snow-top-3.svg"
   inkscape:version="0.92.1 r"&gt;
  <path fill="#00000f" fill-opacity="0" d="m0 0h32v32h-32z" id="0"/><path d="m7.354 6.111c-2.995 2.684-1.381 7.817-3.674 8.291-2.031.613-3.541-1.385-3.66-4.503-.35-8.627 3.911-9.427 6.879-9.524 28.342-2.047 1.762 4.92.455 5.736" fill="url(#1)"/><use xlink:href="#0"/></svg>