<svg xmlns="http://www.w3.org/2000/svg" xmlns:xlink="http://www.w3.org/1999/xlink" viewBox="0 0 32 32"><defs><linearGradient xlink:href="#3" id="4" gradientUnits="userSpaceOnUse" x1="27.558" y1="-133.46" x2="22.09" y2="-134.43"/><linearGradient xlink:href="#3" id="2" gradientUnits="userSpaceOnUse" x1="15.879" y1="-141.91" x2="30.32" y2="-129.74"/><linearGradient id="3"><stop stop-color="#55c03f"/><stop offset="1" stop-color="#198b26"/></linearGradient><linearGradient id="1"><stop stop-color="#f9f9f9"/><stop offset="1" stop-color="#999"/></linearGradient><linearGradient xlink:href="#1" id="0" gradientUnits="userSpaceOnUse" x1="17.658" y1="-133.51" x2="15.02" y2="-125.58"/><radialGradient xlink:href="#1" id="5" cx="-176.59" cy="-120.91" r="3.01" gradientUnits="userSpaceOnUse" gradientTransform="matrix(2.21087.05719-.05496 2.12455 412.97 145.84)"/></defs><rect width="28.2" height="28.2" x="1.898" y="1.898" fill="#3d6080" fill-rule="evenodd" rx="5.575"/><g transform="translate(43.46-1.193)"><g fill-rule="evenodd"><path d="m-28.717 31.29v-2.045l2.791-.035c.607 0 1.193-.253 1.627-.658.434-.405.717-.96.717-1.564v-2.891l1.23-.018c.579-.008.996-.172 1.201-.463.205-.29.198-.708-.072-1.223l-2.346-3.701-.014-.713v-1.916c0-.032-.002-.064-.002-.096.01-.162.011-.326.014-.488 0-.063-.011-.123-.014-.186.003-.067.006-.132.008-.199 0-1.419-.288-2.772-.809-4-.52-1.23-1.273-2.337-2.203-3.268-.93-.93-2.038-1.683-3.268-2.203-1.23-.52-2.583-.809-4-.809-.727.002-2.351-.014-3.961.043-1.01.036-1.646.188-2.416.305-.794.963-1.33 2.151-1.33 3.502v17.05c0 3.089 2.488 5.574 5.576 5.574z" fill="#7a9bbb"/><path d="m-35.988 3.092c-1.738 0-3.225.836-4.246 2.074.77-.117 1.41-.269 2.416-.305 1.61-.057 3.234-.041 3.961-.043 1.419 0 2.772.288 4 .809 1.23.52 2.337 1.273 3.268 2.203.93.93 1.683 2.038 2.203 3.268.52 1.23.809 2.583.809 4-.002.067-.005.132-.008.199.003.063.014.123.014.186-.003.162-.003.326-.014.488 0 .032.002.064.002.096v1.916l.014.713 2.346 3.701c.27.515.277.932.072 1.223-.205.29-.622.455-1.201.463l-1.23.018v2.891c0 .605-.283 1.16-.717 1.564-.434.405-1.02.658-1.627.658l-2.791.035v2.045h9.781c3.089 0 5.574-2.486 5.574-5.574v-17.05c0-3.089-2.486-5.576-5.574-5.576z" fill="#3d6080"/></g><g fill="#4c4c4c"><rect x="-37.711" y="4.819" width="3.855" height="7.71" rx="1.927"/><circle cy="26.02" cx="-24.22" r="1.927"/></g><path d="m-35.784 15.741l11.565 10.28" fill="none" stroke="#4c4c4c"/><path d="m-31.28657 15.741226a4.497348 4.497348 0 0 1 -4.497348 4.497348 4.497348 4.497348 0 0 1 -4.497348 -4.497348 4.497348 4.497348 0 0 1 4.497348 -4.497348 4.497348 4.497348 0 0 1 4.497348 4.497348" fill="#4cff83"/></g><g transform="translate(-.916 143.06)"><path d="m15.583-142.61c-5.577-1.531-5.951 3.24-4.58 5.493 4.381 6.983 6.796 6.577 9.398 7.895 1.712 2.064 3.451 3.4 6.469 4.1 11.69 1.559 3.242-8.417.92-8.649-5.065.012-7.547-6.123-12.206-8.838" fill="url(#0)"/><path d="m15.583-142.61c3.76.276 5.616-.626 8.93-.421 4.319.283 8.307 2.053 7.838 6.574-.347 2.567-.37 2.25.186 4.296.532 1.535-.252 4.232-.487 4.654-2.715 4.963-1.536 4.965-2.656 7.742l-.906-.418-2.508-11.358c-7.177-.909-10.754-10.11-10.398-11.07" fill="url(#2)"/><path d="m22.374-132.67c.362.274 1.553-5.105 1.172-5.653 1.379 2.44 1.919 4.616 2.435 6.783-1.276-.283-2.289-.554-3.607-1.13" fill="url(#4)"/><circle r="3.01" cy="-119.45" cx="29.06" fill="url(#5)"/></g></svg>