<svg xmlns="http://www.w3.org/2000/svg" viewBox="0 0 32 32"><defs><linearGradient gradientTransform="matrix(2.59244 0 0 2.58531-157.93-277.73)" id="0" x1="67.894" y1="108.69" x2="67.854" y2="113.11" gradientUnits="userSpaceOnUse"><stop stop-color="#f9f9f9"/><stop offset="1" stop-color="#999"/></linearGradient></defs><rect width="28.2" height="28.2" x="1.898" y="1.898" fill="#7d122b" fill-rule="evenodd" rx="5.575"/><g transform="translate(40.864-1.01)"><path d="m-24.14393 11.602793a7.925559 7.925559 0 0 0 -7.925559 7.92556 7.925559 7.925559 0 0 0 7.925559 7.925559 7.925559 7.925559 0 0 0 7.92556 -7.925559 7.925559 7.925559 0 0 0 -7.92556 -7.92556" fill="#ba122b"/><path d="m-24.14393 6.559255a6.484549 6.484549 0 0 0 -6.484549 6.484548 6.484549 6.484549 0 0 0 6.484549 6.48455 6.484549 6.484549 0 0 0 6.484548 -6.48455 6.484549 6.484549 0 0 0 -6.484548 -6.484548" fill="#e9314e"/><path d="m-28.466968 10.161783a5.04354 5.04354 0 0 0 -5.04354 5.04354 5.04354 5.04354 0 0 0 5.04354 5.04354 5.04354 5.04354 0 0 0 5.04354 -5.04354 5.04354 5.04354 0 0 0 -5.04354 -5.04354" fill="#ef6e82"/><g transform="matrix(.72051 0 0 .72051-36.39 5.118)" stroke-width="1.388" fill="#fff"><path d="m17 11a9 9 0 0 0 -9 9 9 9 0 0 0 9 9 9 9 0 0 0 9 -9 9 9 0 0 0 -9 -9m0 2a7 7 0 0 1 7 7 7 7 0 0 1 -7 7 7 7 0 0 1 -7 -7 7 7 0 0 1 7 -7"/><path d="m11 9a5 5 0 0 0 -5 5 5 5 0 0 0 5 5 5 5 0 0 0 5 -5 5 5 0 0 0 -5 -5m0 2a3 3 0 0 1 3 3 3 3 0 0 1 -3 3 3 3 0 0 1 -3 -3 3 3 0 0 1 3 -3"/><path d="m17 4a7 7 0 0 0 -7 7 7 7 0 0 0 7 7 7 7 0 0 0 7 -7 7 7 0 0 0 -7 -7m0 2a5 5 0 0 1 5 5 5 5 0 0 1 -5 5 5 5 0 0 1 -5 -5 5 5 0 0 1 5 -5"/></g></g>

   xmlns:dc="http://purl.org/dc/elements/1.1/"
   xmlns:cc="http://creativecommons.org/ns#"
   xmlns:rdf="http://www.w3.org/1999/02/22-rdf-syntax-ns#"
   xmlns:svg="http://www.w3.org/2000/svg"
   xmlns="http://www.w3.org/2000/svg"
   xmlns:xlink="http://www.w3.org/1999/xlink"
   xmlns:sodipodi="http://sodipodi.sourceforge.net/DTD/sodipodi-0.dtd"
   xmlns:inkscape="http://www.inkscape.org/namespaces/inkscape"
   version="1"
   width="32"
   height="32"
   id="svg12"
   sodipodi:docname="snow-top-4.svg"
   inkscape:version="0.92.1 r"&gt;
  <path d="m7.196.009c-8.161-.339-9.231 9.523-3.968 9.505.669.003 1.581-.197 2.929-1.471 3.773-4.147 9.01 4.479 14.696-1.042.61-.911 1.804-1.135 2.455-.627 1.045.677 2.87 2.991 3.88 3 2.359.513 4.095-.198 4.816-3.188.185-3.165-2.303-6.286-6.281-6.17-5.832.133-12.809-.045-18.527-.01" fill="url(#0)"/></svg>