<svg xmlns="http://www.w3.org/2000/svg" viewBox="0 0 32 32" xmlns:xlink="http://www.w3.org/1999/xlink"><defs><linearGradient gradientTransform="matrix(-2.54182 0 0 2.58531 185.47-277.37)" id="1" x1="67.894" y1="108.69" x2="67.854" y2="113.11" gradientUnits="userSpaceOnUse"><stop stop-color="#f9f9f9"/><stop offset="1" stop-color="#999"/></linearGradient></defs><rect width="28.2" height="28.2" x="1.898" y="1.898" fill="#80bbb2" fill-rule="evenodd" rx="5.575"/><g transform="translate(44.08-1.194)"><path d="m-28.06 6.538c-.205-.005-.408.046-.586.148l-8.395 4.776c-.347.197-.56.562-.56.956v9.553c0 .394.213.759.56.956l8.395 4.776c.347.197.773.197 1.12 0l8.395-4.776c.347-.197.56-.562.56-.956v-9.553c0-.394-.213-.759-.56-.956l-8.395-4.776c-.163-.093-.346-.143-.534-.148" fill="#9ed5ca" stroke-width=".697"/><circle r="3.045" cy="14.91" cx="-30.746" fill="#ffd16d"/><path d="m-27.320896 14.14925a3.425373 3.425373 0 0 0 -2.852991 1.532795 3.425373 3.425373 0 0 0 -.191785 -.01041 3.425373 3.425373 0 0 0 -3.425373 3.425374 3.425373 3.425373 0 0 0 3.425373 3.425373h6.47a2.283582 2.283582 0 0 0 2.283582 -2.283582 2.283582 2.283582 0 0 0 -2.283582 -2.283582 2.283582 2.283582 0 0 0 -.02379 .0015 3.425373 3.425373 0 0 0 .02379 -.382119 3.425373 3.425373 0 0 0 -3.425373 -3.425374" fill="#e8f3f2"/></g>

   xmlns:dc="http://purl.org/dc/elements/1.1/"
   xmlns:cc="http://creativecommons.org/ns#"
   xmlns:rdf="http://www.w3.org/1999/02/22-rdf-syntax-ns#"
   xmlns:svg="http://www.w3.org/2000/svg"
   xmlns="http://www.w3.org/2000/svg"
   xmlns:xlink="http://www.w3.org/1999/xlink"
   xmlns:sodipodi="http://sodipodi.sourceforge.net/DTD/sodipodi-0.dtd"
   xmlns:inkscape="http://www.inkscape.org/namespaces/inkscape"
   height="32"
   width="32"
   version="1"
   id="svg8"
   sodipodi:docname="snow-top-3.svg"
   inkscape:version="0.92.1 r"&gt;
  <path fill="#00000f" fill-opacity="0" d="m0 0h32v32h-32z" id="0"/><path d="m7.354 6.111c-2.995 2.684-1.381 7.817-3.674 8.291-2.031.613-3.541-1.385-3.66-4.503-.35-8.627 3.911-9.427 6.879-9.524 28.342-2.047 1.762 4.92.455 5.736" fill="url(#1)"/><use xlink:href="#0"/></svg>