<svg xmlns="http://www.w3.org/2000/svg" xmlns:xlink="http://www.w3.org/1999/xlink" viewBox="0 0 32 32"><defs><linearGradient xlink:href="#3" id="4" x1="-227.98" y1="-131.26" x2="-234.8" y2="-134.14" gradientUnits="userSpaceOnUse"/><linearGradient xlink:href="#3" id="2" x1="-241.01" y1="-141.61" x2="-226.57" y2="-129.44" gradientUnits="userSpaceOnUse"/><linearGradient id="3"><stop stop-color="#13a9ea"/><stop offset="1" stop-color="#372db5"/></linearGradient><linearGradient id="1"><stop stop-color="#f9f9f9"/><stop offset="1" stop-color="#999"/></linearGradient><linearGradient xlink:href="#1" id="0" x1="-239.23" y1="-133.21" x2="-241.87" y2="-125.28" gradientUnits="userSpaceOnUse"/><radialGradient xlink:href="#1" id="5" cx="-176.59" cy="-120.91" r="3.01" gradientUnits="userSpaceOnUse" gradientTransform="matrix(2.21087.05719-.05496 2.12455 156.08 146.14)"/></defs><rect width="28.2" height="28.2" x="1.898" y="1.898" fill="#846037" fill-rule="evenodd" rx="5.575"/><g transform="translate(46.943-5.572)"><path d="m-31.21 20.551c-.328.187-.702.287-1.082.287-.04 0-.077-.008-.116-.01v4.096l-.935-1.043a.979504 .979504 0 0 1 -.77946 .385689 .979504 .979504 0 0 1 -.02424 .210844l1.739 1.901v3.107c-1.208.387-1.469 1.303-1.469 2.373h5.877c0-1.07-.262-1.986-1.469-2.373v-1.013l1.775-1.715a.979504 1.049516 0 0 1 -.06024 -.356303 .979504 1.049516 0 0 1 .132236 -.526742 .979504 1.049516 0 0 1 -.0059 -.0081 .979504 1.049516 0 0 1 -.126359 .0096 .979504 1.049516 0 0 1 -.413606 -.09844l-1.301 1.239v-6.289c-.211.066-.429.11-.658.11-.381-.001-.754-.1-1.083-.287" fill="#a57959"/><path d="m-31.21 11.287c-.574.001-1.125.225-1.531.624-.206-.062-.419-.093-.634-.093-1.196 0-2.166.95-2.166 2.122.001.5.182.984.511 1.366-.652.383-1.051 1.073-1.052 1.818.001.989.698 1.845 1.682 2.066.226.963 1.1 1.646 2.108 1.647.38-.001.754-.1 1.082-.287.329.187.702.287 1.083.287.781-.001 1.501-.413 1.884-1.079 1.087-.129 1.904-1.032 1.906-2.105-.001-.06-.004-.12-.01-.181.354-.388.55-.89.551-1.411-.002-.989-.699-1.846-1.682-2.066-.204-.871-.944-1.524-1.85-1.631-.383-.665-1.103-1.077-1.882-1.078m-3.891427 11.0197a.979504 .979504 0 0 0 -.980019 .980019 .979504 .979504 0 0 0 .132016 .489274 .979504 .979504 0 0 0 -.132016 .489275 .979504 .979504 0 0 0 .980019 .980018 .979504 .979504 0 0 0 .978549 -.980018 .979504 .979504 0 0 0 .980018 -.978549 .979504 .979504 0 0 0 -.980018 -.980019 .979504 .979504 0 0 0 -.489275 .132237 .979504 .979504 0 0 0 -.489274 -.132237m7.346465 1.469293a.979504 1.049516 0 0 0 -.980019 1.049076 .979504 1.049516 0 0 0 .980019 1.04981 .979504 1.049516 0 0 0 .126359 -.0096 .979504 1.049516 0 0 0 .0059 .0081 .979504 1.049516 0 0 0 -.132236 .526742 .979504 1.049516 0 0 0 .978549 1.049075 .979504 1.049516 0 0 0 .980018 -1.049075 .979504 1.049516 0 0 0 -.132236 -.525272 .979504 1.049516 0 0 0 .132236 -.524538 .979504 1.049516 0 0 0 -.980018 -1.049075 .979504 1.049516 0 0 0 -.126359 .01028 .979504 1.049516 0 0 0 -.85219 -.535558" fill="#1c8d43"/></g><g transform="matrix(-1 0 0 1-223.97 142.77)"><g fill="#f9f9f9"><path d="m-228.95-129.3l-.27 2.221-.122-2.378z"/><path d="m-228.66-130.01l-.27 2.221-.122-2.378z"/><path d="m-228.43-129.95l-.27 1.6-.122-1.713z"/></g><path d="m-241.31-142.31c-5.577-1.531-5.951 3.24-4.58 5.493 4.381 6.983 6.796 6.577 9.398 7.895 1.712 2.064 3.451 3.4 6.469 4.1 11.69 1.559 3.242-8.417.92-8.649-5.065.012-7.547-6.123-12.206-8.838" fill="url(#0)"/><path d="m-241.31-142.31c3.76.276 5.616-.626 8.93-.421 4.319.283 8.307 2.053 7.838 6.574-.347 2.567-.37 2.25.186 4.296.532 1.535-.252 4.232-.487 4.654-2.715 4.963-1.536 4.965-2.656 7.742l-.906-.418-2.508-11.358c-7.177-.909-10.754-10.11-10.398-11.07" fill="url(#2)"/><path d="m-234.52-132.37c.362.274 1.553-5.105 1.172-5.653 1.379 2.44 1.919 4.616 2.435 6.783-1.276-.283-2.289-.554-3.607-1.13" fill="url(#4)"/><circle r="3.01" cy="-119.15" cx="-227.83" fill="url(#5)"/></g></svg>