<svg xmlns="http://www.w3.org/2000/svg" viewBox="0 0 32 32"><defs><linearGradient gradientTransform="matrix(2.54182 0 0 2.58531-153.47-277.37)" id="0" x1="67.894" y1="108.69" x2="67.854" y2="113.11" gradientUnits="userSpaceOnUse"><stop stop-color="#f9f9f9"/><stop offset="1" stop-color="#999"/></linearGradient></defs><rect width="28.2" height="28.2" x="1.898" y="1.898" fill="#5f5a7c" fill-rule="evenodd" rx="5.575"/><g transform="matrix(.84648 0 0 .84648 2.456 2.456)" stroke-width="1.181"><g stroke-width="1.181"><path d="m29 13.09c0 6.555-7.573 16.908-14.174 16.908-6.601 0-12.256-10.346-11.8-17.371.309-4.773 6.096-10.74 9.472-10.627 1.133.113-.905 1.276.453.897 1.03-.287 2.116-.441 3.239-.441 6.601 0 12.81 4.079 12.81 10.634" fill="#343054"/><path d="m26.04 13.982c0 4.944-1.344 11.159-6.294 14.353-1.612 1.04-3.293 1.665-4.915 1.665-1.328 0-2.618-.419-3.827-1.145-4.802-2.884-4.977-10.493-4.614-16.11 1.062-5.731 3.833-5.406 7.04-6.333 1.03-.287 3.856-.36 4.978-.36 6.601 0 7.632 1.37 7.632 7.924" fill="#2e2e37"/><path d="m23.09 18.379c0 2.576-2.314 4.9-3.543 7.154-1.474 2.703-1.145 3.277-4.127 3.277-5.467 0-7.273-5.056-7.273-10.723 0-2.954.144-6.593 2.071-8.465 1.77-1.719 4.757-2.155 7.374-2.155 2.901 0 4.327 2.148 5.177 3.489.751 1.186.321 4.764.321 7.423" fill="#dabc9c"/><g transform="matrix(.68421 0 0 .69999-.421-.8)" fill="#405168"><path d="m27.705 11.136a3.8893 8.4884 68.075 0 1 -6.4042 6.7784 3.8893 8.4884 68.075 0 1 -9.339 -.42544 3.8893 8.4884 68.075 0 1 6.4042 -6.7784 3.8893 8.4884 68.075 0 1 9.339 .42544"/><path d="m27.712 11.794c1.566-1.476 5.787-2.4 9.01.99 3.225 3.39 2.486 12.487.92 13.963-1.566 1.476-1.215-6.567-4.44-9.957-3.226-3.39-7.06-3.521-5.492-4.997"/><path d="m12.744 16.563c2.049 1.076 2.356 4.68.685 8.05-1.671 3.371.423 8.845-1.626 7.77-2.049-1.075-4.325-6.833-2.654-10.204 1.671-3.371 1.545-6.692 3.595-5.617"/></g><g fill="#fff"><path d="m17.588 7.085c.411.882-.803 1.784-3.251 2.85-2.24.973-4.646 1.353-5.833.92.033.075.08.146.141.21.803.826 3.637.547 6.329-.624 2.691-1.171 4.222-2.789 3.419-3.615-.119-.12-.596.335-.806.26" opacity=".1"/><path d="m25.04 16.573c.61-.212.166-1.802-.523-3.342-.386-.862-.955-1.836-1.635-2.594-.567-.632-1.275-1.128-1.992-1.575-.744-.464-1.419-.8-2.368-1.132.08-.029.588-.567.687-.571.929-.024-.932-.774.259.387.458.446 3.252 1.469 4.351 2.817.936 1.148 1.275 2.712 1.641 4.159.163.643 1.14 1.955.237 1.979-.189.003-.41-.04-.657-.127" opacity=".1"/></g></g><path d="m28.03 11.788c.397 2.607-.625 6.314-1.873 8.625-1.854 3.433-4.198 5.638-6.743 7.876 0 0 3.633-6.501 4.722-10.04.523-1.702 1.04-3.511.836-5.282-.153-1.329-.584-2.401-1.559-3.297-.815-.75-2.02-1.198-3.107-1.373-1.179-.189-2.394-.222-3.579-.082-1.796.212-3.693.451-5.25 1.385-.846.507-1.633 1.259-2.029 2.173-.995 2.3-.911 5.04-.518 7.52.511 3.229 3.51 9.949 3.51 9.949l-.17-.07c0 0-1.71-.806-3.081-2.193-1.339-1.354-2.33-3.275-3.02-4.56-1.389-2.604-1.602-5.446-1.109-8.366.308-2.813 1.508-5.138 3.41-6.667 3.784-2.719 8.247-3.355 12.396-2.404 3.644.742 6.558 3.236 7.159 6.809z" fill="#7f90bc" stroke="#33374a" stroke-linejoin="round" stroke-linecap="round" stroke-width=".572"/><g fill="#302100" stroke-width="1.181"><rect x="10.47" y="19.59" width="4.02" height=".75" ry=".375" rx=".496" transform="matrix(.90028-.43531.41651.90913 0 0)"/><rect x="13.86" y="9.01" width="3.579" height=".72" transform="matrix(.93556.35317-.34569.93835 0 0)" rx=".442" ry=".36"/><ellipse cx="11.628" cy="16.779" ry="2.417" rx=".934"/><ellipse cx="18.19" cy="16.422" ry="2.544" transform="matrix(.99995-.00976.06573.99784 0 0)" rx=".992"/><path d="m17.267 19.07c.398.484 1.46.736 1.696 1.441.209.625-.044 1.398-.433 1.93-.225.307-.606.553-.985.574-.576.032-1.413-.146-1.584-.699-.045-.147.096-.348.242-.392.362-.109.665.579 1.029.477.647-.18 1.24-1.01 1.132-1.671-.1-.619-1.209-.581-1.491-1.141-.214-.425-.491-1.34-.024-1.429.119.263.242.689.418.91"/><rect x="21.22" y="24.65" width="5.252" height=".613" ry=".306" rx=".648" transform="matrix(.99425.10712-.33376.94266 0 0)"/></g></g>

   xmlns:dc="http://purl.org/dc/elements/1.1/"
   xmlns:cc="http://creativecommons.org/ns#"
   xmlns:rdf="http://www.w3.org/1999/02/22-rdf-syntax-ns#"
   xmlns:svg="http://www.w3.org/2000/svg"
   xmlns="http://www.w3.org/2000/svg"
   xmlns:xlink="http://www.w3.org/1999/xlink"
   xmlns:sodipodi="http://sodipodi.sourceforge.net/DTD/sodipodi-0.dtd"
   xmlns:inkscape="http://www.inkscape.org/namespaces/inkscape"
   height="32"
   width="32"
   version="1"
   id="svg8"
   sodipodi:docname="snow-top-2.svg"
   inkscape:version="0.92.1 r"&gt;
  <path d="m24.646 6.111c2.995 2.684 1.381 7.817 3.674 8.291 2.031.613 3.541-1.385 3.66-4.503.35-8.627-3.911-9.427-6.879-9.524-28.342-2.047-1.762 4.92-.455 5.736" fill="url(#0)"/></svg>