<svg xmlns="http://www.w3.org/2000/svg" xmlns:xlink="http://www.w3.org/1999/xlink" viewBox="0 0 32 32"><defs><linearGradient id="4" x1="-178.12" y1="-134.12" x2="-183.59" y2="-135.1" gradientUnits="userSpaceOnUse"><stop stop-color="#7c0000"/><stop offset="1" stop-color="#7c0000" stop-opacity="0"/></linearGradient><linearGradient id="3" x1="-189.8" y1="-142.57" x2="-175.35" y2="-130.4" gradientUnits="userSpaceOnUse"><stop stop-color="#ff383f"/><stop offset="1" stop-color="#a02d26"/></linearGradient><linearGradient id="2"><stop stop-color="#f9f9f9"/><stop offset="1" stop-color="#999"/></linearGradient><linearGradient xlink:href="#2" id="1" x1="-188.02" y1="-134.18" x2="-190.66" y2="-126.24" gradientUnits="userSpaceOnUse"/><radialGradient xlink:href="#2" id="5" cx="-176.59" cy="-120.91" r="3.01" gradientUnits="userSpaceOnUse" gradientTransform="matrix(2.21087.05719-.05496 2.12455 207.3 145.17)"/></defs><rect width="28.2" height="28.2" x="1.898" y="1.898" fill="#8e8e8e" fill-rule="evenodd" rx="5.575"/><path d="m18.19 21.319c-.006-.006-.011-.064-.011-.13 0-.189-.03-.3-.16-.602-.043-.1-.113-.274-.156-.387-.108-.285-.318-.762-.37-.838-.023-.035-.059-.102-.079-.15-.02-.048-.049-.112-.065-.142-.097-.192-.378-.911-.515-1.32-.041-.122-.114-.316-.163-.432-.049-.116-.125-.319-.168-.451-.044-.132-.132-.368-.196-.525-.143-.349-.351-.978-.386-1.17-.014-.078-.033-.172-.041-.209-.008-.036-.015-.118-.015-.182 0-.114.035-.376.054-.407.021-.034.053-.014.114.075.169.242.286.285.869.32.323.02.5.047.595.094.16.078.288.268.45.668.269.665.357.895.507 1.333.063.185.106.286.121.289.059.012.376-.483.525-.819.187-.422.508-1.268.576-1.518.053-.194.232-.463.527-.793.088-.098.19-.201.227-.23.149-.115.527-.166.785-.107.056.013.227.028.379.033.199.007.282.016.295.031.021.026-.015.159-.086.315-.028.061-.067.164-.086.229-.019.065-.041.125-.048.134-.007.009-.035.083-.062.166-.028.083-.056.157-.063.166-.043.053-.33.922-.423 1.278-.034.132-.081.311-.104.398-.023.087-.069.258-.103.379-.034.122-.067.247-.073.277-.006.031-.03.091-.053.134-.123.23-.351.753-.61 1.399-.278.693-.331.814-.451 1.027-.113.201-.48.772-.528.821-.014.015-.046.058-.072.097-.082.127-.269.353-.379.46-.128.124-.207.176-.371.247-.121.052-.168.062-.188.042m-2.301-.707c-.013-.01-.037-.056-.056-.104-.018-.048-.061-.132-.094-.186-.033-.054-.062-.104-.062-.111 0-.007-.022-.048-.049-.091-.027-.043-.081-.153-.119-.244-.187-.444-.321-.75-.397-.901l-.083-.166-.391-.005c-.215-.003-.435 0-.489.006-.148.015-.163.035-.239.308-.035.126-.073.265-.086.308-.046.162-.197.569-.237.639-.052.091-.186.224-.281.28-.097.058-.258.101-.376.101-.053 0-.202-.021-.332-.047-.143-.029-.284-.047-.36-.047-.124 0-.125 0-.22-.072-.1-.076-.112-.099-.07-.135.055-.046.141-.313.193-.598.017-.092.045-.234.062-.316.037-.173.04-.259.011-.284-.012-.01-.072-.024-.135-.032-.062-.008-.121-.022-.129-.03-.011-.011.001-.038.037-.083.04-.051.053-.083.053-.13 0-.055-.009-.07-.074-.128l-.074-.065.064-.103c.035-.057.075-.123.09-.147.096-.16.241-.357.286-.388.046-.032.064-.035.132-.025.043.006.099.012.124.013.051.002.034.038.189-.418.04-.117.1-.292.133-.387.033-.096.086-.256.117-.356.031-.1.099-.313.15-.474.051-.161.107-.346.124-.411.017-.065.062-.19.1-.277.037-.087.113-.265.168-.395.102-.244.361-.773.468-.956.066-.113.21-.285.24-.285.01 0 .028.015.039.033.028.046.082.035.284-.056.188-.085.407-.142.407-.107 0 .007-.035.052-.078.101-.112.127-.216.29-.244.383-.014.044-.028.152-.033.239l-.008.158.081.237c.089.261.196.497.425.941.179.347.493.984.546 1.107.072.166.263.546.338.673.042.07.093.161.115.203.046.089.208.248.301.296.118.061.152.095.176.178.04.137.033.17-.063.281-.047.055-.086.114-.086.131 0 .017.046.124.103.237.278.554.523 1.05.523 1.056 0 .004-.069.011-.153.017-.245.016-.327.068-.705.442-.173.171-.2.192-.262.202-.042.006-.078.004-.092-.007m-1.266-2.778c.012-.02-.05-.177-.138-.346-.075-.144-.085-.158-.122-.158-.038 0-.04.004-.102.224-.053.189-.064.266-.044.287.018.018.393.012.405-.007m7.5 2.663c-.068-.014-.287-.125-.362-.184-.108-.084-.164-.109-.264-.118-.12-.011-.156 0-.241.075-.079.069-.082.07-.138.048-.055-.021-.061-.057-.041-.239.035-.325.13-.598.27-.778.039-.05.085-.129.102-.174.086-.227.211-.859.286-1.45.026-.204.064-.475.085-.601.099-.591.13-1.114.078-1.292-.024-.08-.094-.166-.207-.253-.08-.062-.08-.089.006-.184.109-.121.205-.303.402-.761.011-.026.043-.119.071-.206.073-.229.147-.417.169-.426.01-.004.083.024.161.063.249.123.319.134.848.134.466 0 .957-.035 1.157-.083.132-.032.708-.025.873.009.168.035.561.159.67.211.093.044.341.274.448.416.086.113.17.252.16.263-.005.005-.056-.021-.115-.057-.099-.061-.113-.065-.191-.058-.104.01-.121.026-.278.253-.165.24-.374.522-.438.59-.049.053-.057.056-.119.046-.037-.006-.141-.033-.231-.06-.22-.065-.347-.072-.618-.029-.367.057-.571.079-.752.079-.235.001-.225-.012-.295.373-.03.165-.063.366-.073.447-.017.131-.016.15.007.173.027.027.053.029.808.065.264.013.349.023.477.057.086.023.164.048.173.056.016.013.039.127.061.3.021.164.194.408.312.439.071.018.064.063-.014.092-.291.107-.279.105-.634.117-.288.01-.736.053-1.15.11-.06.008-.122.015-.137.016-.015 0-.049.02-.075.044-.038.035-.056.073-.086.191-.051.2-.076.446-.048.474.015.015.114.025.355.035.689.029 1.08.049 1.422.071.194.013.511.023.705.023.337 0 .355.002.383.033.029.032.028.033-.025.074-.108.082-.278.269-.319.351-.051.101-.091.234-.125.413-.056.291-.114.442-.199.514-.125.107-.402.197-.607.197-.073 0-.225.007-.337.015-.413.031-.814.049-1.455.064-.361.009-.706.019-.766.022-.06.004-.127.003-.149-.002m-13.993-.102c-.35-.053-.435-.072-.722-.167-.326-.109-.645-.254-.676-.309-.014-.024-.033-.045-.043-.045-.01 0-.033-.019-.052-.043-.018-.024-.074-.07-.122-.103-.049-.033-.176-.148-.282-.253-.313-.312-.428-.474-.561-.784-.104-.244-.133-.356-.167-.642-.015-.123-.037-.297-.05-.388-.034-.243-.049-.416-.077-.909-.042-.75-.046-1.067-.017-1.258.014-.091.043-.291.065-.442.021-.152.05-.345.063-.427.013-.083.038-.243.055-.356.054-.363.116-.624.191-.8.038-.09.1-.235.136-.322.082-.196.297-.714.515-1.03.131-.19.294-.358.469-.509.241-.208.601-.445.789-.537.18-.089.524-.229.801-.295.294-.07.655-.109.899-.103.515.015.57.012.848.07.194.04.39.095.564.192.281.156.535.368.746.61.145.166.474.657.568.847.038.077.085.189.104.25.02.061.052.151.073.201.02.05.059.199.086.332.045.224.048.258.039.455-.011.258-.039.41-.107.576-.044.109-.069.143-.19.265-.146.147-.3.26-.518.381-.184.102-.739.376-.763.376-.014 0-.03.007-.035.015-.012.019-.18.072-.276.086-.066.01-.077.006-.123-.037-.044-.041-.049-.055-.04-.099.015-.073.028-.081.122-.077.082.004.086.002.139-.064.109-.136.113-.145.109-.303-.006-.215-.046-.521-.08-.61-.045-.114-.181-.386-.255-.506-.085-.139-.141-.197-.363-.377-.103-.083-.195-.16-.203-.17-.009-.01-.069-.048-.134-.084-.205-.113-.406-.123-.593-.027-.169.087-.546.506-.724.807-.242.408-.385.848-.434 1.334-.009.09-.016.387-.016.659 0 .636.016.728.18 1.02.038.069.07.131.07.138 0 .008.014.031.032.052.017.021.077.108.133.194.061.094.152.206.228.281.07.069.13.125.134.125.004 0 .055.042.114.094.123.107.269.182.493.253.264.083.389.098.867.101.373.003.448-.001.556-.026.068-.016.163-.036.211-.044.093-.015.158-.027.22-.04.022-.005.057-.008.078-.008.021 0 .051-.007.065-.014.014-.008.078-.018.141-.022.063-.004.154-.012.202-.018.083-.01.155.008.155.038 0 .007-.025.055-.056.106-.117.196-.354.657-.393.766-.039.108-.035.296.008.37.046.079.043.103-.021.179-.03.036-.055.072-.055.081 0 .009-.009.022-.021.029-.012.007-.03.03-.041.051-.058.112-.497.609-.586.664-.141.087-.626.196-1.174.262-.135.016-.369.028-.61.031-.36.004-.415.001-.688-.04m10.675-6.298c-.006-.006-.541-.066-.929-.104-.403-.04-.656-.098-.711-.165-.031-.037.002-.197.169-.831.026-.1.063-.281.081-.403.018-.122.047-.285.065-.362.023-.101.03-.174.025-.257-.006-.096-.003-.116.016-.116.013 0 .105.014.205.031.1.017.294.042.432.056.138.014.296.032.352.04.056.008.263.022.46.031.197.009.364.02.372.025.008.005.053.088.1.184.078.159.084.178.062.2-.065.065-.649.046-1.111-.036-.29-.052-.274-.056-.303.092-.041.212-.022.238.186.262.24.028.374.053.376.07.001.009 0 .057-.001.106-.002.079.003.096.047.146.027.031.044.065.038.074-.008.013-.092.014-.302.005-.345-.015-.408-.013-.436.015-.03.03-.054.266-.031.29.04.04.456.115.733.133.149.009.352.027.451.04.099.013.209.023.245.023.08 0 .097.022.053.069-.018.019-.033.043-.033.052 0 .009-.018.043-.039.075-.058.086-.063.127-.025.189.018.029.028.058.022.064-.011.011-.558.015-.569.004m-2.274-.414c-.093-.065-.147-.069-.298-.022-.155.048-.156.046-.155-.267.001-.148.013-.33.029-.45l.028-.201-.051-.06c-.074-.087-.162-.143-.282-.178-.123-.037-.147-.039-.169-.011-.009.011-.028.109-.041.217-.053.432-.061.447-.286.522-.084.028-.173.06-.199.071-.19.085-.305.12-.305.093 0-.005.035-.074.077-.154.092-.172.1-.208.133-.552.027-.281.02-.362-.035-.412-.052-.047-.188-.107-.245-.107-.037 0-.056-.007-.056-.021 0-.023.237-.185.371-.253.095-.048.083-.014.168-.477.067-.364.065-.356.084-.356.008 0 .07.053.139.117.069.064.175.147.236.183.061.036.118.075.127.086.012.014.01.059-.007.153-.013.073-.028.166-.033.207l-.01.075.121.076c.067.042.167.106.223.143.056.037.111.067.123.067.046 0 .099-.182.1-.342.001-.142.011-.144.213-.061.139.057.189.071.268.071.053 0 .1.006.104.012.004.007-.006.122-.021.257-.016.135-.036.384-.046.553-.022.393-.028.44-.074.576-.06.177-.085.279-.092.378-.01.143-.021.148-.14.065m-2.909-.161c-.017-.005-.045-.019-.062-.031-.017-.012-.065-.022-.106-.022-.07 0-.074-.003-.067-.036.029-.129.085-.448.093-.534.006-.057.02-.281.033-.498.012-.217.027-.466.033-.553.012-.183-.008-.281-.061-.312-.026-.015-.142-.019-.479-.015-.47.005-.488.002-.452-.066.01-.018.013-.076.008-.133-.006-.084-.018-.116-.066-.187-.032-.047-.085-.11-.119-.141-.033-.031-.061-.063-.061-.071 0-.03.52-.019.774.017.236.033.297.033.641.003.152-.014.311-.054.329-.084.005-.008.022-.015.037-.015.023 0 .031.017.039.085.006.047.019.097.029.111.027.037.206.056.539.057.317.001.322.003.284.1-.011.028-.057.098-.103.155-.121.151-.176.175-.459.194-.125.008-.233.02-.239.025-.011.01-.053.508-.07.832-.006.111.001.286.018.483.021.238.023.33.01.4-.02.108-.066.18-.133.208-.052.022-.341.043-.393.029" fill="#ccc"/><path d="m32 .157l-.27 2.221-.122-2.378" fill="#f9f9f9" id="0"/><use xlink:href="#0"/><path d="m32 .113l-.27 1.6-.122-1.713" fill="#f9f9f9"/><g transform="matrix(-1 0 0 1-172.76 143.72)"><path d="m-190.09-143.27c-5.577-1.531-5.951 3.24-4.58 5.493 4.381 6.983 6.796 6.577 9.398 7.895 1.712 2.064 3.451 3.4 6.469 4.1 11.69 1.559 3.242-8.417.92-8.649-5.065.012-7.547-6.123-12.206-8.838" fill="url(#1)"/><path d="m-190.09-143.27c3.76.276 5.616-.626 8.93-.421 4.319.283 8.307 2.053 7.838 6.574-.347 2.567-.37 2.25.186 4.296.532 1.535-.252 4.232-.487 4.654-2.715 4.963-1.536 4.965-2.656 7.742l-.906-.418-2.508-11.358c-7.177-.909-10.754-10.11-10.398-11.07" fill="url(#3)"/><path d="m-183.3-133.33c.362.274 1.553-5.105 1.172-5.653 1.379 2.44 1.919 4.616 2.435 6.783-1.276-.283-2.289-.554-3.607-1.13" fill="url(#4)"/><circle r="3.01" cy="-120.11" cx="-176.61" fill="url(#5)"/></g></svg>