<svg xmlns="http://www.w3.org/2000/svg" xmlns:xlink="http://www.w3.org/1999/xlink" viewBox="0 0 32 32"><defs><clipPath><path d="m108.81 58c-1.56 0-2.81 1.254-2.81 2.812v24.375c0 1.559 1.25 2.813 2.81 2.813h24.375c1.57 0 2.82-1.254 2.82-2.812v-24.375c0-1.559-1.25-2.813-2.81-2.813h-24.375zm7.188 4.5h10v8.75h5l-10 13.75-10-13.75h5v-8.75"/></clipPath><filter color-interpolation-filters="sRGB"><feGaussianBlur stdDeviation="1.71"/></filter><filter color-interpolation-filters="sRGB"><feGaussianBlur stdDeviation="1.2"/></filter><filter color-interpolation-filters="sRGB"><feGaussianBlur stdDeviation=".637"/></filter><linearGradient id="1"><stop stop-color="#fff"/><stop offset="1" stop-color="#fff" stop-opacity="0"/></linearGradient><linearGradient x2="0" y1="92.54" y2="7.02" gradientTransform="scale(1.0059.99417)" gradientUnits="userSpaceOnUse"><stop/><stop offset="1" stop-opacity=".588"/></linearGradient><linearGradient x1="-88" x2="-58" gradientUnits="userSpaceOnUse"><stop stop-color="#499119"/><stop offset="1" stop-color="#8fd625"/></linearGradient><linearGradient x2="0" y1="71.38" y2="62.54" gradientUnits="userSpaceOnUse" xlink:href="#1"/><linearGradient x2="0" y1="72.38" y2="63.54" gradientUnits="userSpaceOnUse"><stop/><stop offset="1" stop-opacity="0"/></linearGradient><linearGradient gradientTransform="matrix(-2.54182 0 0 2.58531 185.47-277.37)" id="2" x1="67.894" y1="108.69" x2="67.854" y2="113.11" gradientUnits="userSpaceOnUse"><stop stop-color="#f9f9f9"/><stop offset="1" stop-color="#999"/></linearGradient><linearGradient x2="0" y1="58" y2="79.09" gradientUnits="userSpaceOnUse" xlink:href="#1"/></defs><rect width="28.2" height="28.2" x="1.898" y="1.898" fill="#b7b7b7" fill-rule="evenodd" rx="5.575"/><path d="m16 7c-1.662 0-3 1.338-3 3v6.01a5 5 0 0 0 -2 3.992188 5 5 0 0 0 5 5 5 5 0 0 0 5 -5 5 5 0 0 0 -2 -3.992188v-6.01c0-1.662-1.338-3-3-3m0 2c.589 0 1 .411 1 1v7.01l.801.6c.755.566 1.197 1.451 1.199 2.395-.001 1.68-1.32 2.998-3 2.998-1.68 0-2.999-1.318-3-2.998v-.002c.003-.943.445-1.827 1.199-2.393l.801-.6v-7.01c0-.589.411-1 1-1z" fill="#4d4d4d"/><path d="m15 13v4.01l-.801.6c-.754.566-1.197 1.45-1.199 2.393v.002c.001 1.68 1.32 2.998 3 2.998 1.68 0 2.999-1.318 3-2.998-.002-.944-.444-1.828-1.199-2.395l-.801-.6v-4.01" fill="#f75f5f"/>

   xmlns:dc="http://purl.org/dc/elements/1.1/"
   xmlns:cc="http://creativecommons.org/ns#"
   xmlns:rdf="http://www.w3.org/1999/02/22-rdf-syntax-ns#"
   xmlns:svg="http://www.w3.org/2000/svg"
   xmlns="http://www.w3.org/2000/svg"
   xmlns:xlink="http://www.w3.org/1999/xlink"
   xmlns:sodipodi="http://sodipodi.sourceforge.net/DTD/sodipodi-0.dtd"
   xmlns:inkscape="http://www.inkscape.org/namespaces/inkscape"
   height="32"
   width="32"
   version="1"
   id="svg8"
   sodipodi:docname="snow-top-3.svg"
   inkscape:version="0.92.1 r"&gt;
  <path fill="#00000f" fill-opacity="0" d="m0 0h32v32h-32z" id="0"/><path d="m7.354 6.111c-2.995 2.684-1.381 7.817-3.674 8.291-2.031.613-3.541-1.385-3.66-4.503-.35-8.627 3.911-9.427 6.879-9.524 28.342-2.047 1.762 4.92.455 5.736" fill="url(#2)"/><use xlink:href="#0"/></svg>