<svg xmlns="http://www.w3.org/2000/svg" viewBox="0 0 32 32"><defs><linearGradient gradientTransform="matrix(2.54182 0 0 2.58531-153.47-277.37)" id="0" x1="67.894" y1="108.69" x2="67.854" y2="113.11" gradientUnits="userSpaceOnUse"><stop stop-color="#f9f9f9"/><stop offset="1" stop-color="#999"/></linearGradient></defs><g transform="translate(82.66 4.526)"><path d="m-68.53-2.629h-6.941c-1.483 0-2.808.597-3.805 1.535.041.071.123.242.246.537.146.35.415.996.598 1.436.458 1.098.512 1.372.508 2.572-.003 1.01-.019 1.142-.402 3.57-.077.49-.138 1.091-.143 1.422-.007.52.006.599.121.824.079.154.193.284.299.344.171.095.17.094.586-.035.229-.071.681-.195 1-.277.323-.083.764-.207.977-.275.4-.128 1.477-.574 1.477-.611 0-.012-.056-.126-.123-.256-.197-.381-.307-.843-.328-1.336-.021-.493.048-1.018.207-1.523.1-.318.157-.397.281-.398.13-.002.165.176.09.453-.095.348-.095.709.002 1.168.173.818.388 1.225.754 1.43.185.104.282.119.676.119.632 0 .604.017 2.051-1.16.504-.41 1.068-.738 1.76-1.014.692-.276 1.513-.498 2.527-.693 1.718-.331 2.915-.406 4.547-.279.899.07 1.516.082 2.053.01.537-.072.994-.227 1.57-.494.764-.354 1.075-.403 1.342-.209.342.249.438.705.23 1.104-.295.565-.991 1.16-2.438 2.088-1.077.691-1.364.903-2.068 1.521-.239.21-.633.542-.875.738-.496.401-.895.863-1.475 1.709-.5.73-.812 1.064-1.398 1.494-.803.589-1.464.867-2.277.961-.611.07-1.942.027-2.457-.082-.947-.199-1.978-.621-3.604-1.475-.889-.467-1.685-.652-3.588-.828-.871-.081-.948-.081-1.113-.004-.243.113-.228.236.063.539.303.316 1.081.702 1.701.844.707.162 1.2.319 1.73.6.53.281 1.097.686 1.949 1.35.946.736 1.394 1.042 1.795 1.221.361.161.829.275 1.117.275.128 0 .526.033.885.074 1.01.115 1.88.315 2.459.535.579.22.863.461.691.664-.085.1-.186.097-1.051-.049-.408-.069-.866-.125-1.018-.125-.151 0-.697.079-1.211.178-1.098.211-2.181.272-2.727.15-.451-.101-.876-.327-1.387-.742-1.163-.945-2.04-1.527-3.84-2.545-1.411-.798-1.861-1.079-2.357-1.473-.712-.564-1.167-1.227-1.375-2.041-.208-.814-.171-1.777.098-2.941.082-.357.276-1.121.432-1.697.332-1.235.438-1.862.436-2.604-.003-1.015-.211-1.756-.824-2.955l-.205-.398c-.434.794-.746 1.661-.746 2.633v17.05c0 3.089 2.486 5.576 5.574 5.576h6.994c-.992-.15-1.977-.272-3.082-.666-1.569-.559-3.178-1.336-4.619-2.258-.861-.55-1.814-1.386-2.01-1.762-.109-.209-.129-.422-.074-.598.055-.176.185-.315.377-.371.419-.123.964.103 2.27.941.859.551 2.118 1.191 3.064 1.559 1.635.634 3.161 1.023 4.613 1.168 1.452.145 2.831.048 4.174-.289 1.51-.379 4.248-1.34 5.352-1.879.913-.446 1.738-.971 2.498-1.596.76-.625 1.455-1.349 2.109-2.191.327-.42.653-.701.963-.963v-13.725c0-3.089-2.486-5.576-5.574-5.576h-8.465c-.152.41-.242.739-.531 1.332-.276.564-.598 1.253-.717 1.527-.382.885-.448 1.01-.799 1.531-.311.463-.626.817-.904 1.033-.279.216-.521.293-.689.201-.073-.04-.189-.151-.256-.246-.103-.148-.118-.219-.098-.475.029-.364.206-.756.666-1.482.368-.581 1.094-1.969 1.508-2.885.09-.2.108-.353.172-.537m-5.43.338h.404l.184.762c.286 1.186.337 1.544.254 1.756-.059.151-.265.091-.424-.123-.082-.111-.222-.397-.311-.637-.147-.397-.512-1.62-.512-1.719 0-.023.182-.039.404-.039m14.59 1.664c.31-.012.626-.012.949 0 .917.034 2.05.176 2.656.336.876.231 1.777.695 2.283 1.176.461.437.593.815.377 1.074-.084.101-.139.118-.395.113-.164-.003-.654-.087-1.09-.186-1.468-.334-3.392-.562-4.344-.516-1.139.055-2.912.412-4.01.807-1.881.676-2.717.846-3.143.637-.382-.188-.527-.663-.301-.986.134-.19.535-.489.912-.676.393-.195 2.888-1.154 3.482-1.34.822-.257 1.692-.403 2.621-.439" fill="#ff7f2a" fill-rule="evenodd"/><path d="m-79.16 5.246c3.038-2.888 8.239-1.391 9.584-1.421 1.346-.03 8.736-4.61 17.31-2l-.109 4.555c-6.907-.002-5.087 12.15-13.702 10.896l-5.394-.474-7.689-4.956z" fill="#fff"/><g fill-rule="evenodd"><path d="m-67.7 8.844c-.544 0-.902.35-1 .76-.051.205-.036.425.051.623.087.198.248.374.49.492.443.216.913.124 1.242-.242.247-.275.322-.615.211-.939-.151-.44-.513-.693-.99-.693"/><path d="m-66.22 6.211c-.076-.01-.157.002-.305.031-.483.097-1.478.438-1.934.662-.497.244-1.031.591-1.467.951-.175.145-.505.418-.732.605-.228.188-.544.405-.703.484l-.291.145-.037.389c-.044.461.007.945.143 1.408.135.463.354.905.641 1.275.178.23.218.252.525.314.812.164 2.035.189 2.99.061.566-.076 1.102-.336 1.734-.834.676-.532 1.436-1.26 1.734-1.66.236-.317.241-.33.209-.6-.081-.678-.327-1.306-.707-1.84-.38-.534-.897-.975-1.518-1.281-.135-.067-.207-.101-.283-.111m-1.48 2.633c.477 0 .839.253.99.693.111.325.036.664-.211.939-.329.367-.799.458-1.242.242-.243-.118-.403-.294-.49-.492-.087-.198-.101-.418-.051-.623.101-.41.46-.76 1-.76" fill="#8dde81"/><g fill="#4f4f4f"><path d="m-59.37-.627c-.929.037-1.799.183-2.621.439-.594.186-3.089 1.145-3.482 1.34-.378.187-.779.485-.912.676-.226.323-.081.799.301.986.425.209 1.261.039 3.143-.637 1.098-.395 2.871-.751 4.01-.807.952-.046 2.875.182 4.344.516.436.099.926.183 1.09.186.255.005.311-.012.395-.113.216-.26.084-.637-.377-1.074-.507-.481-1.407-.945-2.283-1.176-.606-.16-1.74-.302-2.656-.336-.323-.012-.64-.012-.949 0"/><path d="m-73.963-2.291c-.222 0-.404.016-.404.039 0 .099.364 1.322.512 1.719.089.239.228.526.311.637.158.214.365.274.424.123.083-.212.032-.57-.254-1.756l-.184-.762z"/><path d="m-80.3.314l.205.398c.614 1.199.821 1.94.824 2.955.002.741-.103 1.369-.436 2.604-.155.577-.349 1.34-.432 1.697-.269 1.164-.306 2.128-.098 2.941.208.814.663 1.477 1.375 2.041.497.393.947.675 2.357 1.473 1.8 1.018 2.677 1.6 3.84 2.545.511.415.936.642 1.387.742.545.122 1.628.061 2.727-.15.514-.099 1.059-.178 1.211-.178.151 0 .609.056 1.018.125.865.145.966.149 1.051.049.172-.203-.112-.444-.691-.664-.579-.22-1.452-.42-2.459-.535-.359-.041-.757-.074-.885-.074-.288 0-.757-.114-1.117-.275-.401-.179-.849-.485-1.795-1.221-.853-.663-1.419-1.069-1.949-1.35-.53-.281-1.024-.438-1.73-.6-.62-.142-1.399-.528-1.701-.844-.29-.304-.305-.426-.063-.539.166-.077.242-.077 1.113.004 1.903.176 2.699.361 3.588.828 1.626.854 2.657 1.275 3.604 1.475.515.109 1.846.152 2.457.082.814-.094 1.475-.372 2.277-.961.586-.43.898-.764 1.398-1.494.58-.846.979-1.308 1.475-1.709.242-.196.636-.529.875-.738.704-.618.992-.83 2.068-1.521 1.446-.928 2.143-1.523 2.438-2.088.208-.398.112-.854-.23-1.104-.266-.194-.578-.145-1.342.209-.577.267-1.034.422-1.57.494-.537.072-1.154.06-2.053-.01-1.632-.126-2.829-.052-4.547.279-1.014.195-1.835.418-2.527.693-.692.276-1.256.604-1.76 1.014-1.447 1.177-1.418 1.16-2.051 1.16-.393 0-.491-.016-.676-.119-.366-.205-.581-.611-.754-1.43-.097-.458-.097-.82-.002-1.168.076-.277.04-.455-.09-.453-.125.002-.181.08-.281.398-.159.506-.228 1.03-.207 1.523.021.493.131.955.328 1.336.067.13.123.244.123.256 0 .038-1.077.483-1.477.611-.213.068-.653.193-.977.275-.323.083-.775.206-1 .277-.416.129-.415.131-.586.035-.106-.059-.22-.189-.299-.344-.115-.225-.128-.304-.121-.824.004-.331.065-.932.143-1.422.383-2.429.399-2.564.402-3.57.004-1.201-.05-1.474-.508-2.572-.183-.439-.452-1.086-.598-1.436-.123-.295-.205-.466-.246-.537-.426.401-.741.891-1.023 1.408m14.08 5.896c.076.01.148.045.283.111.621.307 1.137.747 1.518 1.281.38.534.626 1.161.707 1.84.032.27.027.283-.209.6-.298.401-1.058 1.128-1.734 1.66-.632.498-1.168.758-1.734.834-.955.129-2.178.103-2.99-.061-.308-.062-.348-.085-.525-.314-.287-.371-.505-.813-.641-1.275-.135-.463-.187-.947-.143-1.408l.037-.389.291-.145c.159-.079.476-.297.703-.484.228-.188.557-.461.732-.605.436-.36.97-.707 1.467-.951.456-.224 1.451-.565 1.934-.662.148-.03.228-.042.305-.031"/></g><path d="m-53.03 20.9l-5.127 3.156c-1.527.56-3.183 1.03-4.758 1.352-.592.121-1.048.093-1.605.168h6.098c2.769 0 4.949-2.037 5.393-4.676" fill="#ff7f2a"/><g fill="#4f4f4f"><path d="m-52.846 16.672c-.31.262-.636.543-.963.963-.654.842-1.349 1.567-2.109 2.191-.76.625-1.585 1.15-2.498 1.596-1.104.539-3.841 1.5-5.352 1.879-1.342.337-2.721.434-4.174.289-1.452-.145-2.978-.534-4.613-1.168-.947-.367-2.206-1.01-3.064-1.559-1.306-.838-1.85-1.064-2.27-.941-.192.056-.322.195-.377.371-.055.176-.035.388.074.598.196.375 1.149 1.211 2.01 1.762 1.441.922 3.05 1.699 4.619 2.258 1.105.394 2.09.516 3.082.666h3.963c.558-.075 1.014-.047 1.605-.168 1.575-.321 3.231-.792 4.758-1.352l5.127-3.156c.051-.305.182-.581.182-.9z"/><path d="m-68.53-2.629c-.064.184-.082.338-.172.537-.414.915-1.14 2.304-1.508 2.885-.46.727-.637 1.118-.666 1.482-.02.256-.006.326.098.475.067.095.183.206.256.246.168.092.411.015.689-.201.279-.216.593-.57.904-1.033.351-.522.417-.646.799-1.531.118-.275.441-.963.717-1.527.29-.593.38-.922.531-1.332z"/></g></g></g>

   xmlns:dc="http://purl.org/dc/elements/1.1/"
   xmlns:cc="http://creativecommons.org/ns#"
   xmlns:rdf="http://www.w3.org/1999/02/22-rdf-syntax-ns#"
   xmlns:svg="http://www.w3.org/2000/svg"
   xmlns="http://www.w3.org/2000/svg"
   xmlns:xlink="http://www.w3.org/1999/xlink"
   xmlns:sodipodi="http://sodipodi.sourceforge.net/DTD/sodipodi-0.dtd"
   xmlns:inkscape="http://www.inkscape.org/namespaces/inkscape"
   height="32"
   width="32"
   version="1"
   id="svg8"
   sodipodi:docname="snow-top-2.svg"
   inkscape:version="0.92.1 r"&gt;
  <path d="m24.646 6.111c2.995 2.684 1.381 7.817 3.674 8.291 2.031.613 3.541-1.385 3.66-4.503.35-8.627-3.911-9.427-6.879-9.524-28.342-2.047-1.762 4.92-.455 5.736" fill="url(#0)"/></svg>