<svg xmlns="http://www.w3.org/2000/svg" xmlns:xlink="http://www.w3.org/1999/xlink" viewBox="0 0 32 32"><defs><linearGradient id="7" x1="13.884" y1="10.406" x2="14.819" y2="15.969" gradientUnits="userSpaceOnUse"><stop stop-color="#fe9212"/><stop offset="1" stop-color="#fe9212" stop-opacity="0"/></linearGradient><linearGradient gradientTransform="matrix(-2.54182 0 0 2.58531 185.47-277.37)" id="B" x1="67.894" y1="108.69" x2="67.854" y2="113.11" gradientUnits="userSpaceOnUse"><stop stop-color="#f9f9f9"/><stop offset="1" stop-color="#999"/></linearGradient><linearGradient id="8" x1="12.262" y1="4.875" x2="13.743" y2="9.716" gradientUnits="userSpaceOnUse"><stop stop-color="#7e8c93"/><stop offset="1" stop-color="#7e8c93" stop-opacity="0"/></linearGradient><linearGradient xlink:href="#1" id="A" x1="10.486" x2="19.02" gradientUnits="userSpaceOnUse"/><linearGradient xlink:href="#1" id="9" x1="7.785" x2="10.897" gradientUnits="userSpaceOnUse"/><linearGradient xlink:href="#2" id="6" x1="8.483" y1="24.14" x2="6.498" y2="28.01" gradientUnits="userSpaceOnUse"/><linearGradient id="1"><stop stop-color="#565c66"/><stop offset="1" stop-color="#565c66" stop-opacity="0"/></linearGradient><linearGradient xlink:href="#2" id="5" x1="15.809" y1="21.618" x2="17.642" y2="28.819" gradientUnits="userSpaceOnUse"/><linearGradient id="2"><stop stop-color="#86959c"/><stop offset="1" stop-color="#86959c" stop-opacity="0"/></linearGradient><linearGradient xlink:href="#2" id="4" x1="23.364" y1="20.17" x2="25.937" y2="27.07" gradientUnits="userSpaceOnUse"/><linearGradient xlink:href="#2" id="3" x1="3.454" x2="8.02" gradientUnits="userSpaceOnUse"/></defs><g fill-rule="evenodd"><rect width="28.2" height="28.2" x="1.898" y="1.898" fill="#282838" rx="5.575"/><path d="m29.452 25.15c-.032-.597-.069-.924-.132-1.142-.211-.735-.506-1.427-.847-2.02-.341-.589-.727-1.074-1.125-1.393-1.024-.821-2.257-1.463-4.048-2.106-.366-.131-.68-.298-1.416-.75-.776-.477-1.14-.666-2.035-1.062-.599-.266-1.6-.664-2.223-.884-.623-.221-1.173-.427-1.224-.459-.123-.078-.231-.316-.287-.637-.061-.348.004-.917.235-2.085.263-1.33.263-1.556.015-2.898-.416-2.249-.667-2.958-1.328-3.761-.085-.104-.291-.293-.459-.421-.497-.379-1.128-.655-1.792-.809-.664-.154-1.36-.185-1.988-.067-1.073.201-2.091.766-2.881 1.525-.79.76-1.352 1.717-1.511 2.701-.097.604-.04 1.087.3 2.533.169.72.329 1.362.354 1.429.075.198.277.459.694.899l.392.415.597 1.316c.328.724.585 1.346.572 1.381-.013.035-.286.287-.606.562-.651.559-.897.794-1.276 1.213-.254.281-.271.29-.568.344-.596.108-1.374.599-2.093 1.322-.843.848-1.339 1.796-1.525 2.908-.078.467-.078.485.025 2.762-.082 2.097 2.201 3.121 3.709 3.143h18.296c.848.152 3.452-1.343 4.176-3.962" fill="#33333f"/></g><path d="m20.469 20.799c.014.041.016.022.036.096.14.533.307.791.937 1.455.692.73 1.022 1.25 1.196 1.889.193.707.561 1.205 1.245 1.687.416.294 1.019.609 1.438.753.491.169 1.296.539 1.656.761.514.316.758.438 1.104.551.408.133.578.113.867-.1.248-.184.362-.326.405-.509l.033-.136c0 0 0 0-.034-2.131-.047-.835-.055-.887-.223-1.394-.204-.614-.756-1.788-.821-1.748-.024.015-.035.002-.023-.03.012-.032-.009-.097-.047-.145-.038-.047-.057-.056-.042-.02.016.036-.003.026-.04-.02-.038-.047-.069-.111-.069-.143 0-.095-.135-.274-.185-.244-.027.017-.033.007-.014-.023.046-.074-.475-.598-.894-.9-.495-.356-1.2-.775-1.76-1.044-.532-.256-1.639-.705-1.808-.735-.06-.011-.236-.071-.39-.133-.416-.169-.656-.141-.788.092-.062.109-.08.114-.478.117-.372.003-.436.016-.623.126-.54.317-.683.563-.728 1.245l-.02.312z" fill="url(#4)"/><path d="m9.832 28.582c-.163-1.02-.127-2.047-.018-2.609.037-.192-.001-.321-.001-.357.001-.17-.152-.401-.49-.741-.364-.366-.492-.558-1.091-1.628-.23-.411-.584-.791-.911-.978-.283-.161-.81-.29-1.023-.25-.172.032-.384.256-.542.573-.056.113-.14.243-.187.289-.046.046-.186.293-.31.548l-.225.464.007.698c.006.561.026.767.101 1.047.052.192.111.483.132.646.527 3.02 2.876 2.606 4.612 2.641z" fill="url(#6)"/><path d="m5.077 26.373l.128-.194-.079-.315c-.171-.679-.217-1.564-.1-1.927.156-.485.852-1.559 1.122-1.729.111-.07.184-.081.42-.061.304.026.693.142.897.269.068.042.218.167.334.276l.21.199-.026-.236c-.015-.13-.069-.404-.12-.61-.073-.291-.094-.51-.096-.984-.002-.552.01-.649.124-1.024l.126-.414-.072-.457c-.04-.252-.073-.506-.074-.566-.001-.098-.026-.082-.25.16-.242.261-.258.271-.589.337-.618.124-1.239.501-1.941 1.179-.69.666-1.129 1.322-1.399 2.093-.076.216-.146.51-.156.654-.01.144-.037.516-.06.828-.025.341-.026.791-.004 1.133.021.312.052.955.068 1.43.176.851 1.151.841 1.538-.04" fill="url(#3)"/><path d="m11.289 25.12c.343-.157.737-.434 1.071-.751.312-.297 2.201-1.936 2.451-2.127.092-.07.169-.174.186-.248.038-.172.301-.706.468-.952.075-.11.522-.591.995-1.071 1.201-1.218 1.264-1.302 1.476-1.961.139-.432.407-.973.584-1.18.083-.097.231-.212.329-.257.275-.124.287-.114-.478-.388-.378-.135-.428-.144-.545-.09-.347.158-.647.465-.698.714-.012.061-.101.386-.198.721-.224.78-.416 1.174-.707 1.449-.361.34-1.554.986-2.49 1.346-.877.338-1.966.817-2.053.904-.051.051-.105.145-.12.211-.024.105-.01.126.123.182.087.037.201.14.273.248.108.163.123.226.123.523 0 .305-.013.355-.132.525-.072.103-.22.252-.327.331-.107.079-.216.16-.242.181-.026.021-.09.051-.142.068-.052.017-.095.054-.095.084 0 .113-.223.51-.349.623-.089.08-.117.132-.087.162.078.078.048.19-.105.39-.115.151-.135.201-.087.22.077.029.081.164.008.241-.099.105.491.029.77-.098" fill="url(#A)"/><path d="m9.718 24.847c.04-.015.046-.083.024-.248-.033-.251-.023-.293.072-.293.05 0 .054-.019.019-.084-.077-.144-.056-.308.039-.308.08 0 .081-.007.013-.179-.066-.167-.065-.183.004-.234.069-.05.064-.066-.056-.194-.153-.164-.219-.371-.22-.69 0-.264.067-.451.233-.648.182-.216.563-.448.787-.479.184-.025.199-.037.199-.153 0-.069.023-.162.051-.207.081-.13-.289-.678-.822-1.216-.347-.35-.483-.523-.6-.764-.369-.757-.369-1.277 0-1.839.339-.517.126-.481-.384.063-.114.122-.217.217-.231.211-.052-.022-.639.52-.76.703-.139.21-.168.452-.087.747.095.351.082.578-.067 1.176-.081.324-.148.66-.148.748-.001.275.137 1.184.204 1.344.035.084.13.345.211.581.241.704.834 1.722 1.231 2.114l.205.203.014-.166c.008-.091.038-.175.068-.187" fill="url(#9)"/><g fill="#232729"><path d="m12.728 20.563c1.254-.507 1.938-.816 2.48-1.119.242-.136.529-.294.636-.351.107-.057.24-.146.295-.198.168-.158.473-.852.665-1.515.101-.347.198-.642.216-.654.018-.012.066-.085.105-.162.096-.187.268-.341.504-.453.233-.109.243-.102-.449-.34-.722-.249-.925-.367-1.026-.595-.045-.101-.095-.247-.112-.325-.023-.107-.041-.126-.072-.081-.029.042-.035.021-.02-.07.038-.229.069-.656.044-.599-.013.03-.046.042-.072.026-.03-.019-.037-.002-.019.046.016.041.011.064-.01.051-.021-.013-.131.134-.244.326-.113.193-.213.343-.223.333-.009-.009.114-.231.275-.492l.292-.475.012-.474c.014-.524.055-.679.065-.241.004.154.014.231.024.171.01-.06.065-.334.122-.61.179-.865.244-1.307.246-1.65.001-.285-.221-1.729-.296-1.922-.014-.036-.059.131-.101.37-.042.24-.126.553-.187.697-.276.651-.472 1.445-.552 2.235-.025.247-.058 1.08-.073 1.852-.02 1.042-.042 1.426-.084 1.495-.031.05-.152.139-.267.196-.194.097-.259.104-.864.101-.739-.003-.837-.031-.858-.247-.013-.136-.034-.15-.536-.369-.288-.126-.542-.229-.565-.229-.084-.002.441.488.674.628.421.254.781.347 1.352.349.482.002.514-.003.793-.141.16-.079.332-.195.381-.257.049-.063.1-.103.112-.091.047.047-.385.378-.582.447-.664.23-1.753.064-2.249-.343-.105-.086-.402-.236-.703-.353-1.509-.591-2.764-1.584-3.3-2.608-.131-.252-.14-.295-.14-.725 0-.429.009-.474.137-.719.175-.332.269-.418.66-.596l.318-.145-.247-.196c-.293-.232-.751-.718-.941-.998-.23-.339-.378-.605-.351-.631.014-.014.084.077.155.203.21.37.659.919 1.014 1.239.182.163.351.305.377.314.026.009-.129-.18-.345-.42-.216-.24-.494-.571-.619-.736-.41-.54-.827-1.525-.836-1.975-.001-.084-.02-.193-.04-.241-.029-.068-.038-.05-.04.087-.004.372.101.874.284 1.347.023.059.017.074-.019.052-.031-.019-.15.067-.305.222-.216.217-.27.304-.368.602-.093.281-.11.311-.09.155.041-.314.174-.563.441-.824l.25-.245-.1-.349c-.055-.192-.112-.468-.126-.615-.027-.283.016-.771.065-.741.016.01.033-.062.036-.159l.007-.177-.116.148c-.252.322-.58.863-.705 1.161-.24.576-.283.804-.278 1.494.004.573.019.689.16 1.242.085.335.185.688.222.784.037.096.068.224.069.285.004.241.189.988.287 1.157.242.419 1.153 1.233 1.833 1.638.093.055.287.175.431.266.144.091.438.264.654.385.538.302.818.492 1.185.807.314.269.813.588 1.014.648.059.017.132.057.163.088.085.085.641.201 1.083.226.582.033.936-.083 1.407-.46.261-.209.338-.353.447-.835.108-.477.194-.63.148-.262-.056.446-.163.791-.301.97-.438.57-1.312.813-2.226.619-.168-.036-.341-.065-.385-.065-.113 0-.837-.367-.979-.496-.603-.55-1.796-1.363-1.796-1.225 0 .008.081.236.181.508.221.603.46 1.131.789 1.739.77 1.424.817 1.874.266 2.553-.081.1-.129.194-.107.207.022.014.075.118.117.232.042.114.082.214.088.223.007.009.116-.071.243-.178.399-.336 1.328-.905 1.478-.905.091 0 .949-.444 1.263-.654.153-.102.478-.387.722-.633.398-.401.467-.495.661-.898.213-.444.352-.946.422-1.529.017-.138.048-.239.069-.226.022.013.031.038.021.054-.01.016-.031.196-.046.4-.015.204-.055.478-.087.61-.033.132-.071.308-.086.392-.057.331-.312.769-.72 1.231-.27.307-1.323.99-2.122 1.377-.556.27-.978.527-1.355.827-.212.169-.224.189-.178.29.027.06.06.109.072.109.012 0 .456-.175.985-.389"/><path d="m11.11 20.757c.07-.053.074-.08.03-.215-.028-.084-.179-.326-.337-.537-.401-.537-.495-.791-.625-1.686-.032-.223-.102-.413-.268-.731-.124-.236-.237-.414-.253-.396-.016.019-.081.154-.145.301-.336.769-.104 1.539.701 2.334.233.23.502.547.598.704.096.157.184.286.196.286.012 0 .058-.027.102-.061"/><path d="m11.239 19.953c.17-.202.307-.523.327-.768.028-.332-.076-.624-.542-1.537-.443-.867-.727-1.499-.941-2.099-.073-.204-.161-.404-.197-.445-.035-.041-.197-.153-.358-.249-.162-.096-.477-.313-.699-.481-.223-.169-.411-.3-.419-.293-.018.018 1.179 2.664 1.264 2.794.035.054.185.331.333.617.228.441.278.578.328.911.073.48.234.963.407 1.219.212.315.325.459.358.459.017 0 .08-.057.139-.128"/><path d="m13.536 15.727c0-.368-.081-.864-.193-1.174-.037-.104-.055-.21-.04-.235.016-.025.008-.033-.018-.017-.025.016-.057-.002-.072-.039-.016-.042-.008-.056.022-.038.15.093-.247-.672-.588-1.133-.346-.466-.989-1.089-1.473-1.426-1.149-.799-1.749-1.339-1.974-1.777-.056-.109-.256-.356-.444-.548-.188-.192-.408-.427-.488-.523l-.146-.174.143.261c.079.144.249.405.38.581.223.3.856 1.041.942 1.102.021.015.026.048.011.073-.015.025-.005.06.023.077.035.022.039.012.014-.03-.02-.034.07.035.2.152.131.117.311.262.401.322.09.06.163.117.163.128 0 .03-.3-.159-.554-.349l-.227-.17-.127.091c-.303.216-.747.795-.747.974 0 .032.098.133.218.225.12.092.232.188.248.215.039.063-.191-.087-.395-.258-.154-.129-.158-.139-.109-.283.078-.226.241-.466.464-.683l.202-.196-.267.135c-.217.11-.295.18-.42.38-.295.472-.324 1-.081 1.485.263.521.933 1.251 1.56 1.699.413.295.759.493.821.469.031-.012.11.028.176.089.066.061.137.1.158.087.021-.013.038-.002.038.025 0 .027.017.038.037.026.02-.013.174.043.341.123.167.08.35.16.407.178l.103.033-.118-.14c-.065-.077-.105-.163-.089-.191.016-.028.013-.036-.007-.018-.04.036-.196-.087-.196-.155 0-.024.034-.014.076.022.073.063.975.472 1.176.534.09.028.096.019.072-.114-.014-.079-.032-.168-.041-.198-.009-.029-.233-.162-.497-.294-.265-.133-.481-.25-.481-.261 0-.011.196.071.436.181.24.111.449.188.465.172.016-.016-.009-.122-.055-.236l-.084-.206-.843-.428c-.918-.466-.885-.464-.703-.043.069.159.124.206.42.357.188.096.326.175.307.177-.019.001-.153-.058-.298-.131-.146-.073-.271-.127-.279-.119-.008.008.063.129.157.269.094.14.16.272.147.293-.013.021-.002.078.023.126.026.048.032.087.013.087-.047-.002-.428-.661-.421-.727.003-.029-.009-.049-.028-.044-.019.005-.166-.164-.326-.377-.335-.442-.722-.843-.979-1.013-.097-.064-.168-.126-.157-.137.035-.035.526.367.757.62.123.134.324.38.449.547.124.167.232.303.24.303.008 0-.029-.074-.082-.163-.053-.09-.099-.212-.102-.272-.003-.06-.018-.187-.032-.283-.015-.102-.013-.129.006-.065.026.087.184.186.803.5.424.215.785.377.803.359.018-.018-.05-.154-.151-.304-.141-.21-.152-.237-.048-.119.178.201.545.964.604 1.255.026.127.047.317.047.423 0 .198.066.279.229.282.066.001.076-.044.076-.343"/></g><path d="m14.819 15.969c.323-.138.328-.151.329-.764.002-.747.074-2.287.132-2.793.075-.653.201-1.182.48-2.01.302-.897.342-1.161.24-1.559-.039-.154-.079-.288-.089-.297-.009-.009-.058.005-.108.032-.097.052-.26.346-.353.634-.031.096-.118.272-.195.392-.403.631-1.103.928-2.07.879-.604-.031-1.28-.179-2.754-.603-.669-.192-1.227-.34-1.239-.327-.04.04.143.394.345.666.23.311.714.725 1.448 1.24.929.652 1.814 1.619 2.214 2.419.223.445.422 1.346.422 1.909 0 .126.015.244.033.263.061.062.98 0 1.164-.079" fill="#fefa12"/><path d="m13.884 10.406c.339-.054.837-.284 1.041-.481.292-.283.482-.695.652-1.413.041-.174.041-.174.046-.031l.004.143.128-.094c.07-.052.155-.084.188-.071.05.019.052-.017.009-.223-.311-1.51-.941-2.443-2.01-2.986-.336-.17-.978-.375-1.174-.375-.094 0-.192-.022-.219-.049-.029-.029-.287-.058-.63-.071-.67-.025-1.114.041-1.725.257-.634.224-1.578.744-1.578.869 0 .024-.02.032-.044.017-.024-.015-.211.136-.414.336l-.37.364v.528c0 .589.075.912.3 1.3.171.294.923 1.089.965 1.021.043-.07.241-.03.866.176.278.091.613.197.745.236l.24.069-.155-.141c-.085-.077-.474-.404-.863-.725-.727-.6-1.284-1.174-1.445-1.488-.125-.245-.261-.797-.256-1.039.004-.169.013-.145.059.15.073.468.179.779.363 1.057.153.233.809.87 1.302 1.264.465.372 1.011.835 1.039.879.015.024.256.114.536.2.752.232.703.225.575.078-.094-.109-.088-.107.046.017.133.123.209.151.544.203.481.075.869.082 1.239.023" fill="url(#8)"/><path d="m20.389 20.582l-.006-.471c-.006-.423.005-.495.105-.707.121-.256.296-.422.644-.613.2-.109.267-.122.616-.12.365.002.397-.005.476-.105.046-.059.15-.134.229-.168.08-.033.145-.069.145-.079 0-.053-.697-.43-.887-.479-1.54-.534-2.592 1.461-2.499 1.842-.309.609-.486.87-.768 1.129-.171.157-.293.244-.791.559l-.131.083.305.025c.214.018.09.028-.414.033-1.064.013-1.494.128-2.201.595-.357.235-.697.52-2.417 2.026-1.133.992-1.488 1.201-2.113 1.248-.168.013-.354.042-.414.066-.439.172-.574 1.446-.328 3.095.032.215.07.402.084.416.08.08 2.778.083 3.6.209 1.383.211 2.83.238 3.974-.109 1.079-.327 1.435-.11 2.467-.852 1.182-.85 2.16-1.64 2.944-2.377l.26-.244-.134-.17c-.225-.285-.439-.716-.557-1.127-.062-.215-.16-.489-.217-.61-.161-.339-.521-.824-.762-1.027-.12-.101-.209-.2-.196-.22.012-.02-.102-.161-.253-.314-.475-.538-.498-.679-.76-1.534" fill="url(#5)"/><path d="m12.851 10.696l1.627-.252c-.005.139-.075.169.14.489.113.169.132.182.315.377.292.311-.469 3.02.118 4.382l-1.01.321c-.121-.981-.153-1.932-1-3.163-.166-.485-.444-1-.118-1.342.176-.261.205-.529-.071-.812" fill="url(#7)"/>

   xmlns:dc="http://purl.org/dc/elements/1.1/"
   xmlns:cc="http://creativecommons.org/ns#"
   xmlns:rdf="http://www.w3.org/1999/02/22-rdf-syntax-ns#"
   xmlns:svg="http://www.w3.org/2000/svg"
   xmlns="http://www.w3.org/2000/svg"
   xmlns:xlink="http://www.w3.org/1999/xlink"
   xmlns:sodipodi="http://sodipodi.sourceforge.net/DTD/sodipodi-0.dtd"
   xmlns:inkscape="http://www.inkscape.org/namespaces/inkscape"
   height="32"
   width="32"
   version="1"
   id="svg8"
   sodipodi:docname="snow-top-3.svg"
   inkscape:version="0.92.1 r"&gt;
  <path fill="#00000f" fill-opacity="0" d="m0 0h32v32h-32z" id="0"/><path d="m7.354 6.111c-2.995 2.684-1.381 7.817-3.674 8.291-2.031.613-3.541-1.385-3.66-4.503-.35-8.627 3.911-9.427 6.879-9.524 28.342-2.047 1.762 4.92.455 5.736" fill="url(#B)"/><use xlink:href="#0"/></svg>