<svg xmlns="http://www.w3.org/2000/svg" viewBox="0 0 32 32" xmlns:xlink="http://www.w3.org/1999/xlink"><defs><linearGradient gradientTransform="matrix(-2.54182 0 0 2.58531 185.47-277.37)" id="1" x1="67.894" y1="108.69" x2="67.854" y2="113.11" gradientUnits="userSpaceOnUse"><stop stop-color="#f9f9f9"/><stop offset="1" stop-color="#999"/></linearGradient></defs><g transform="translate(45.42-1.898)"><g fill-rule="evenodd"><path d="m-15.322 17.336h-28.2v9.03c0 3.089 2.486 5.574 5.574 5.574h17.05c3.089 0 5.574-2.486 5.574-5.574z" fill="#334d5c"/><path d="m-15.322 12.09h-28.2v5.25h28.2z" fill="#d07e34"/><path d="m-37.951 3.734c-3.089 0-5.574 2.486-5.574 5.574v2.777h28.2v-2.777c0-3.089-2.486-5.574-5.574-5.574z" fill="#808080"/><path d="m-15.322 16.559h-28.2v9.93c0 3.089 2.486 5.574 5.574 5.574h17.05c3.089 0 5.576-2.486 5.576-5.574z" fill="#eaad43"/><g fill="#cb7f2c"><circle r="1.025" cy="19.903" cx="-37.39"/><circle r="1.025" cy="19.919" cx="-20.969"/></g></g><path d="m-37.34 20.289c.765 11.787 15.731 10.67 16.302 0" fill="none" stroke="#fff" stroke-linecap="round" stroke-width="1.291"/></g><circle cx="22.763" cy="22.254" r="5" fill="#00b200" fill-rule="evenodd"/><g aria-label="RPM" fill="#fff"><path d="m20.515 22.525q.118.04.229.171.113.131.225.36l.373.741h-.394l-.347-.696q-.134-.273-.262-.362-.125-.089-.343-.089h-.4v1.147h-.367v-2.713h.829q.465 0 .694.194.229.194.229.587 0 .256-.12.425-.118.169-.345.234m-.92-1.139v.963h.462q.265 0 .4-.122.136-.124.136-.362 0-.238-.136-.358-.134-.122-.4-.122z"/><path d="m22.18 21.385v1.019h.462q.256 0 .396-.133.14-.133.14-.378 0-.244-.14-.376-.14-.133-.396-.133zm-.367-.302h.829q.456 0 .689.207.234.205.234.603 0 .402-.234.607-.233.205-.689.205h-.462v1.09h-.367z"/><path d="m24.06 21.08h.547l.692 1.846.696-1.846h.547v2.713h-.358v-2.382l-.7 1.861h-.369l-.7-1.861v2.382h-.356z"/></g>

   xmlns:dc="http://purl.org/dc/elements/1.1/"
   xmlns:cc="http://creativecommons.org/ns#"
   xmlns:rdf="http://www.w3.org/1999/02/22-rdf-syntax-ns#"
   xmlns:svg="http://www.w3.org/2000/svg"
   xmlns="http://www.w3.org/2000/svg"
   xmlns:xlink="http://www.w3.org/1999/xlink"
   xmlns:sodipodi="http://sodipodi.sourceforge.net/DTD/sodipodi-0.dtd"
   xmlns:inkscape="http://www.inkscape.org/namespaces/inkscape"
   height="32"
   width="32"
   version="1"
   id="svg8"
   sodipodi:docname="snow-top-3.svg"
   inkscape:version="0.92.1 r"&gt;
  <path fill="#00000f" fill-opacity="0" d="m0 0h32v32h-32z" id="0"/><path d="m7.354 6.111c-2.995 2.684-1.381 7.817-3.674 8.291-2.031.613-3.541-1.385-3.66-4.503-.35-8.627 3.911-9.427 6.879-9.524 28.342-2.047 1.762 4.92.455 5.736" fill="url(#1)"/><use xlink:href="#0"/></svg>