<svg xmlns="http://www.w3.org/2000/svg" viewBox="0 0 32 32"><defs><linearGradient gradientTransform="matrix(2.59244 0 0 2.58531-157.93-277.73)" id="0" x1="67.894" y1="108.69" x2="67.854" y2="113.11" gradientUnits="userSpaceOnUse"><stop stop-color="#f9f9f9"/><stop offset="1" stop-color="#999"/></linearGradient></defs><rect width="28.2" height="28.2" x="1.898" y="1.898" fill="#7a509e" fill-rule="evenodd" rx="5.575"/><circle cx="-16" cy="16" r="10" transform="scale(-1 1)" fill="#fae8a2"/><path d="m16.9445 6.0537a9.999999 9.999999 0 0 1 3.619 1.0498c-.05.16.009.341.192.5.125.108.227.276.227.374 0 .3-.271.76-.488.827-.288.089-.191.396.179.565.171.079.381.304.468.502C21.23 10.07 21.355 10.265 21.424 10.306c.069.041.125.196.125.344 0 .207-.095.308-.407.432-.223.089-.49.155-.593.145-.596-.056-.637.291-.116.969.276.36.41.45.598.405.175-.042.271.008.352.181.084.184.222.247.593.273.364.025.527.1.664.299.1.146.244.264.32.264.077 0 .257.098.4.217.292.242.406.267.509.108.135-.21.428-.104.862.313.384.368.431.466.373.786-.103.569-.412 1.073-.764 1.249-.307.154-.313.17-.127.367.107.113.291.235.408.27.338.103.148.232-.456.309-.618.078-.81.302-.521.608.161.171.152.203-.106.364-.505.317-.907.123-.433-.209.305-.213.092-.3-.355-.145-.357.123-.427.116-.637-.067-.433-.375-.902.18-.507.598.252.267.175.587-.151.632-.144.02-.443.154-.665.298-.222.144-.464.262-.537.262-.073 0-.279.146-.458.326-.363.363-.564.409-.667.153-.123-.307-.073-.465.258-.827.264-.288.692-1.053.692-1.236 0-.113-.436-.017-.68.149-.152.105-.399.239-.549.3-.159.065-.324.267-.399.488-.117.347-.164.377-.58.377H17.417L17.349 20.12c-.082.977-.16 1.175-.496 1.256-.247.059-.511.442-.511.741 0 .079.177.274.395.433.269.197.385.363.367.527-.023.204.024.236.314.215.186-.014.511.052.718.145.247.111.514.146.764.102.288-.052.386-.032.386.081 0 .083.101.238.224.345.304.263.178.403-.288.319-.29-.052-.403-.029-.453.096-.107.265.163.645.414.583.159-.04.235.015.285.202.017.067.049.123.086.171a9.999999 9.999999 0 0 1 -1.5825 .4675c.05-.096.107-.183.163-.221.258-.182.085-.655-.27-.74-.361-.087-.305-.322.088-.366.345-.039.711-.388.596-.566-.078-.119-.407-.102-1.073.056-.301.071-.506-.072-1.204-.835-.403-.442-.714-.626-1.055-.626-.13 0-.594-.119-1.031-.265-.825-.276-1.148-.267-1.117.035.063.627-.341.606-.998-.051-.274-.273-.524-.471-.557-.441-.126.12.101.707.364.945.335.301.351.491.056.642-.161.083-.229.25-.255.627l-.034.514h-.418c-.146 0-.268.02-.366.058A9.999999 9.999999 0 0 1 6.0155 16.3135c.153-.327.142-.524 0-.747a9.999999 9.999999 0 0 1 .045 -.5605c.091-.005.184-.008.291-.004.504.021.935-.178.935-.431 0-.053.179-.274.397-.489.248-.244.375-.46.338-.572-.034-.102.039-.267.168-.378.126-.109.229-.284.229-.389 0-.168.107-.188.877-.17l.877.021-.015.864C10.132 14.973 9.907 15.366 9.211 15.11c-.319-.117-1.101-.028-1.323.148-.08.064-.197.296-.258.516-.062.22-.291.6-.51.845-.443.496-.478.689-.223 1.271.221.508.46.45.413-.102l-.035-.41.375.07c.207.04.468.192.584.344.166.215.243.247.368.148.087-.069.157-.215.157-.323 0-.108.107-.228.237-.267.13-.04.309-.236.396-.438.14-.322.137-.421-.027-.811-.165-.396-.167-.462-.014-.608.14-.134.213-.139.396-.028.185.111.272.102.492-.045.146-.098.403-.18.569-.18.338 0 .44-.164.44-.707 0-.502.299-.684 1.01-.618.494.046.603.013 1-.294.246-.19.636-.646.866-1.015.23-.369.477-.755.55-.857.104-.148.079-.289-.125-.691l-.257-.505.543.073c.966.13 1.162.255.746.479-.162.086-.169.131-.044.275.082.094.12.243.085.332-.036.088.009.296.1.462.091.166.166.399.169.518.009.373.648.669 1.358.63 1.077-.059 1.165-.043 1.547.313.478.444.54.65.317 1.063-.215.4-.599.559-1.262.527-.593-.03-.66.023-.524.415.116.333.503.461.765.253.202-.161.898-.037 1.112.199.09.098.223.356.295.572.125.373.162.396.721.45.559.055.613.037 1.015-.334.448-.413.524-.729.308-1.273-.096-.241-.167-.281-.423-.233-.507.092-.707-.084-.707-.625 0-.262.051-.508.113-.545.062-.037.113-.176.113-.309 0-.133.064-.306.142-.381.113-.11.097-.169-.084-.297-.124-.088-.328-.146-.453-.132-.125.015-.469-.039-.765-.12-.428-.116-.555-.203-.613-.428-.11-.428-.378-.771-.604-.771-.355 0-.363-.836-.017-2.052.051-.18.192-.293.439-.355.201-.05.419-.187.485-.305.066-.118.186-.214.267-.214.081 0 .241-.098.354-.217.113-.12.348-.217.526-.217.422 0 .43-.291.011-.444-.442-.162-1.131.05-1.298.4-.226.475-.476.277-.556-.44C18.377 6.937 18.07 6.682 17.11 6.682H16.413l.304-.304c.095-.095.173-.211.227-.324m-3.595.314c.02.018.039.032.057.052.232.237.341.271.7.216.626-.095.546.157-.148.461-.374.165-.616.352-.697.542-.395.916-.667 1.409-.803 1.459-.276.101-.441-.102-.502-.623-.07-.597-.273-.724-.636-.397-.141.127-.338.23-.438.23-.31 0-.54.125-.54.293 0 .089-.105.302-.233.475-.189.255-.318.316-.672.316-.434 0-.701.082-1.245.382-.008.005-.017.006-.025.011A9.999999 9.999999 0 0 1 13.3495 6.368151M25.997999 15.95715a9.999999 9.999999 0 0 1 .0019 .043 9.999999 9.999999 0 0 1 -.1953 1.921c-.362.148-.462.089-.5-.248-.019-.174-.111-.372-.203-.441-.143-.105-.117-.16.176-.36.19-.13.377-.355.415-.502.037-.142.163-.297.306-.414zm-3.148 3.306c.093-.009.206.041.331.16.264.253.224.762-.075.962-.343.23-.476.163-.519-.262-.053-.524.058-.84.263-.861m-1.697 1.512c.102.003.215.076.327.23.119.163.152.373.107.693-.056.393-.032.477.174.582.265.135.321.537.105.744-.215.206-.42.152-.494-.13-.105-.402-.694-.449-1.096-.088-.172.154-.311.232-.311.173 0-.059.178-.273.396-.476.334-.31.395-.442.395-.841 0-.563.172-.895.398-.889m2.78695 1.291a9.999999 9.999999 0 0 1 -.23145 .292c.068-.105.146-.206.231-.292m-3.37 1.535c.05.017.072.081.072.192 0 .113.072.232.16.264.117.043.144.178.099.502-.009.061-.011.109-.014.16a9.999999 9.999999 0 0 1 -.416 .2135c.007-.173-.024-.377-.115-.631-.154-.433-.159-.541-.034-.617.117-.071.197-.099.248-.082" fill="#c8ba82"/>

   xmlns:dc="http://purl.org/dc/elements/1.1/"
   xmlns:cc="http://creativecommons.org/ns#"
   xmlns:rdf="http://www.w3.org/1999/02/22-rdf-syntax-ns#"
   xmlns:svg="http://www.w3.org/2000/svg"
   xmlns="http://www.w3.org/2000/svg"
   xmlns:xlink="http://www.w3.org/1999/xlink"
   xmlns:sodipodi="http://sodipodi.sourceforge.net/DTD/sodipodi-0.dtd"
   xmlns:inkscape="http://www.inkscape.org/namespaces/inkscape"
   version="1"
   width="32"
   height="32"
   id="svg12"
   sodipodi:docname="snow-top-4.svg"
   inkscape:version="0.92.1 r"&gt;
  <path d="m7.196.009c-8.161-.339-9.231 9.523-3.968 9.505.669.003 1.581-.197 2.929-1.471 3.773-4.147 9.01 4.479 14.696-1.042.61-.911 1.804-1.135 2.455-.627 1.045.677 2.87 2.991 3.88 3 2.359.513 4.095-.198 4.816-3.188.185-3.165-2.303-6.286-6.281-6.17-5.832.133-12.809-.045-18.527-.01" fill="url(#0)"/></svg>