<svg xmlns="http://www.w3.org/2000/svg" xmlns:xlink="http://www.w3.org/1999/xlink" viewBox="0 0 32 32"><defs><linearGradient id="4" x1="-178.12" y1="-134.12" x2="-183.59" y2="-135.1" gradientUnits="userSpaceOnUse"><stop stop-color="#7c0000"/><stop offset="1" stop-color="#7c0000" stop-opacity="0"/></linearGradient><linearGradient id="3" x1="-189.8" y1="-142.57" x2="-175.35" y2="-130.4" gradientUnits="userSpaceOnUse"><stop stop-color="#ff383f"/><stop offset="1" stop-color="#a02d26"/></linearGradient><linearGradient id="2"><stop stop-color="#f9f9f9"/><stop offset="1" stop-color="#999"/></linearGradient><linearGradient xlink:href="#2" id="1" x1="-188.02" y1="-134.18" x2="-190.66" y2="-126.24" gradientUnits="userSpaceOnUse"/><radialGradient xlink:href="#2" id="5" cx="-176.59" cy="-120.91" r="3.01" gradientUnits="userSpaceOnUse" gradientTransform="matrix(2.21087.05719-.05496 2.12455 207.3 145.17)"/></defs><rect width="28.2" height="28.2" x="1.898" y="1.898" fill="#7d4698" fill-rule="evenodd" rx="5.575"/><g stroke-width=".787"><path d="M16 4.983051A11.01695 11.01695 0 0 0 4.983051 16 11.01695 11.01695 0 0 0 16 27.01695m6.2-20.12c.08.054.153.117.231.173A11.01695 11.01695 0 0 0 22.20026 6.894879m.857.649c.103.086.199.181.299.271A11.01695 11.01695 0 0 0 23.05773 7.543631m.791.731c.099.101.191.209.286.314A11.01695 11.01695 0 0 0 23.848501 8.274149m.725.814c.089.11.169.227.254.341A11.01695 11.01695 0 0 0 24.573639 9.08859m.632.866c.082.124.155.254.231.382A11.01695 11.01695 0 0 0 25.20518 9.954665m.557.95c.062.118.117.241.174.361A11.01695 11.01695 0 0 0 25.76248 10.904661m.457.994c.048.12.089.243.133.365a11.01695 11.01695 0 0 0 -.133408 -.364721zm.356 1.035c.038.131.069.263.102.396A11.01695 11.01695 0 0 0 26.575841 12.93376m.274 1.165c.003.018.007.035.01.053a11.01695 11.01695 0 0 0 -.0097 -.05272zm.132 1.069c.003.037.006.073.009.11a11.01695 11.01695 0 0 0 -.0086 -.109739m-1.877 7.03c-.054.08-.117.153-.173.231a11.01695 11.01695 0 0 0 .173215 -.231314m-.649.857c-.086.103-.181.199-.271.299a11.01695 11.01695 0 0 0 .27112 -.299093m-.731.791c-.101.099-.209.191-.314.286a11.01695 11.01695 0 0 0 .314155 -.286182m-.814.725c-.11.089-.227.169-.341.254a11.01695 11.01695 0 0 0 .341052 -.253907m-.866.632c-.124.082-.254.155-.382.231a11.01695 11.01695 0 0 0 .381935 -.231312m-.95.557c-.118.062-.241.117-.361.174a11.01695 11.01695 0 0 0 .361494 -.174291m-.994.457c-.12.048-.243.089-.365.133a11.01695 11.01695 0 0 0 .364721 -.133408m-1.035.356c-.131.038-.263.069-.396.102a11.01695 11.01695 0 0 0 .395921 -.102208m-1.165.274c-.018.003-.035.007-.053.01a11.01695 11.01695 0 0 0 .05272 -.0097m-1.069.132c-.037.003-.073.006-.11.009a11.01695 11.01695 0 0 0 .109739 -.0086" fill="#ffe2ac"/><circle cx="16" cy="16" r="8.656" fill="#ccb58a"/><circle r="6.295" cx="16" cy="16" fill="#a3916e"/><circle cx="16" cy="16" r="3.935" fill="#827458"/><path d="m27.02 16c0 6.084-4.932 11.02-11.02 11.02v-22.03c6.084 0 11.02 4.932 11.02 11.02" fill="#7d4698"/></g><path d="m32 .157l-.27 2.221-.122-2.378" fill="#f9f9f9" id="0"/><use xlink:href="#0"/><path d="m32 .113l-.27 1.6-.122-1.713" fill="#f9f9f9"/><g transform="matrix(-1 0 0 1-172.76 143.72)"><path d="m-190.09-143.27c-5.577-1.531-5.951 3.24-4.58 5.493 4.381 6.983 6.796 6.577 9.398 7.895 1.712 2.064 3.451 3.4 6.469 4.1 11.69 1.559 3.242-8.417.92-8.649-5.065.012-7.547-6.123-12.206-8.838" fill="url(#1)"/><path d="m-190.09-143.27c3.76.276 5.616-.626 8.93-.421 4.319.283 8.307 2.053 7.838 6.574-.347 2.567-.37 2.25.186 4.296.532 1.535-.252 4.232-.487 4.654-2.715 4.963-1.536 4.965-2.656 7.742l-.906-.418-2.508-11.358c-7.177-.909-10.754-10.11-10.398-11.07" fill="url(#3)"/><path d="m-183.3-133.33c.362.274 1.553-5.105 1.172-5.653 1.379 2.44 1.919 4.616 2.435 6.783-1.276-.283-2.289-.554-3.607-1.13" fill="url(#4)"/><circle r="3.01" cy="-120.11" cx="-176.61" fill="url(#5)"/></g></svg>