<svg xmlns="http://www.w3.org/2000/svg" viewBox="0 0 32 32"><defs><linearGradient gradientTransform="matrix(2.62891 0 0 2.71269-160.16-291.42)" id="0" x1="67.894" y1="108.69" x2="67.854" y2="113.11" gradientUnits="userSpaceOnUse"><stop stop-color="#f9f9f9"/><stop offset="1" stop-color="#999"/></linearGradient></defs><rect width="28.2" height="28.2" x="1.898" y="1.898" fill="#4f4f4f" fill-rule="evenodd" rx="5.575"/><g transform="translate(32.619 10.161)"><path d="m-16.618881-5.167832a1.5 1.5 0 0 0 -1.5 1.5 1.5 1.5 0 0 0 1.5 1.5 1.5 1.5 0 0 0 1.5 -1.5 1.5 1.5 0 0 0 -1.5 -1.5m-6.03516 2a1.5 1.5 0 0 0 -.714844 .199219 1.5 1.5 0 0 0 -.548828 2.050781 1.5 1.5 0 0 0 2.048828 .548828 1.5 1.5 0 0 0 .548828 -2.048828 1.5 1.5 0 0 0 -1.333984 -.75m12.07031 0a1.5 1.5 0 0 0 -1.333984 .75 1.5 1.5 0 0 0 .548828 2.048828 1.5 1.5 0 0 0 2.048828 -.548828 1.5 1.5 0 0 0 -.548828 -2.050781 1.5 1.5 0 0 0 -.714844 -.199219m-15.998047 4a1.5 1.5 0 0 0 -.107422 .001953 1.5 1.5 0 0 0 -1.228515 .748047 1.5 1.5 0 0 0 .550781 2.048828 1.5 1.5 0 0 0 2.048828 -.548828 1.5 1.5 0 0 0 -.548828 -2.048828 1.5 1.5 0 0 0 -.714844 -.201172m19.925782 0a1.5 1.5 0 0 0 -.714844 .201172 1.5 1.5 0 0 0 -.548828 2.048828 1.5 1.5 0 0 0 2.048828 .548828 1.5 1.5 0 0 0 .550781 -2.048828 1.5 1.5 0 0 0 -1.228516 -.748047 1.5 1.5 0 0 0 -.107421 -.001953M-27.618881 6.832168a1.5 1.5 0 0 0 -1.5 1.5 1.5 1.5 0 0 0 1.5 1.5 1.5 1.5 0 0 0 1.5 -1.5 1.5 1.5 0 0 0 -1.5 -1.5m22 0a1.5 1.5 0 0 0 -1.5 1.5 1.5 1.5 0 0 0 1.5 1.5 1.5 1.5 0 0 0 1.5 -1.5 1.5 1.5 0 0 0 -1.5 -1.5M-25.654037 11.832168a1.5 1.5 0 0 0 -.712891 .201172 1.5 1.5 0 0 0 -.550781 2.048828 1.5 1.5 0 0 0 2.050781 .548828 1.5 1.5 0 0 0 .548828 -2.048828 1.5 1.5 0 0 0 -1.335937 -.75m17.96289 0a1.5 1.5 0 0 0 -1.228515 .75 1.5 1.5 0 0 0 .548828 2.048828 1.5 1.5 0 0 0 2.050781 -.548828 1.5 1.5 0 0 0 -.550781 -2.048828 1.5 1.5 0 0 0 -.712891 -.201172 1.5 1.5 0 0 0 -.107422 0" fill="#ff5757"/><g transform="translate(-33.12-8.168)" fill="#ffa6a6"><path d="m25.19 17.829l-8.116-.622.776-2.898z"/><circle cx="10.701" cy="-19.949" r="2.5" transform="matrix(-.25882.96593-.96593-.25882 0 0)"/></g></g>

   xmlns:dc="http://purl.org/dc/elements/1.1/"
   xmlns:cc="http://creativecommons.org/ns#"
   xmlns:rdf="http://www.w3.org/1999/02/22-rdf-syntax-ns#"
   xmlns:svg="http://www.w3.org/2000/svg"
   xmlns="http://www.w3.org/2000/svg"
   xmlns:xlink="http://www.w3.org/1999/xlink"
   xmlns:sodipodi="http://sodipodi.sourceforge.net/DTD/sodipodi-0.dtd"
   xmlns:inkscape="http://www.inkscape.org/namespaces/inkscape"
   version="1"
   width="32"
   height="32"
   id="svg12"
   sodipodi:docname="snow-top-1.svg"
   inkscape:version="0.92.1 r"&gt;
  <path d="m7.288.009c-8.276-.356-9.36 9.992-4.02 9.973.679.003 1.604-.207 2.97-1.543 7.256-10.531 14.706 3.573 17.53.919 1.71-1.912 3.496-.418 4.448.115 2.1.643 3.662.041 3.785-3.231.188-3.321-1.889-6.344-5.923-6.223-5.914.14-12.989-.047-18.787-.01" fill="url(#0)"/><path fill="#f00" fill-opacity="0" d="m0 0h32v32h-32z"/></svg>