<svg xmlns="http://www.w3.org/2000/svg" viewBox="0 0 32 32" xmlns:xlink="http://www.w3.org/1999/xlink"><defs><linearGradient xlink:href="#3" id="4" gradientUnits="userSpaceOnUse" x1="27.558" y1="-133.46" x2="22.09" y2="-134.43"/><linearGradient xlink:href="#3" id="2" gradientUnits="userSpaceOnUse" x1="15.879" y1="-141.91" x2="30.32" y2="-129.74"/><linearGradient id="3"><stop stop-color="#55c03f"/><stop offset="1" stop-color="#198b26"/></linearGradient><linearGradient id="1"><stop stop-color="#f9f9f9"/><stop offset="1" stop-color="#999"/></linearGradient><linearGradient xlink:href="#1" id="0" gradientUnits="userSpaceOnUse" x1="17.658" y1="-133.51" x2="15.02" y2="-125.58"/><radialGradient xlink:href="#1" id="5" cx="-176.59" cy="-120.91" r="3.01" gradientUnits="userSpaceOnUse" gradientTransform="matrix(2.21087.05719-.05496 2.12455 412.97 145.84)"/></defs><rect width="28.2" height="28.2" x="1.898" y="1.898" fill="#bad632" fill-rule="evenodd" rx="5.575"/><g transform="translate(42.33 5.696)"><path d="m-26.327511-.294389a10.597976 9.840978 0 0 0 -10.597976 9.840978 10.597976 9.840978 0 0 0 3.784992 7.537432v3.818l2.817-2.246a10.597976 9.840978 0 0 0 3.996194 .732017 10.597976 9.840978 0 0 0 10.597976 -9.840977 10.597976 9.840978 0 0 0 -10.597976 -9.840978" fill="#fff"/><path d="m-26.327511 2.733605a6.812984 6.812984 0 0 0 -6.812984 6.812984 6.812984 6.812984 0 0 0 6.812984 6.812984 6.812984 6.812984 0 0 0 .756998 -.05027v3.043a10.597976 9.840978 0 0 0 2.270995 -.378499v-3.327a6.812984 6.812984 0 0 0 3.784991 -6.100649 6.812984 6.812984 0 0 0 -6.812984 -6.812984" fill="#578418"/><path d="m-26.327511 5.761598a3.784991 3.784991 0 0 0 -3.784991 3.784991v5.658a6.812984 6.812984 0 0 0 2.270994 .975847v-3.167a3.784991 3.784991 0 0 0 1.513997 .317939 3.784991 3.784991 0 0 0 3.784991 -3.784991 3.784991 3.784991 0 0 0 -3.784991 -3.784991" fill="#252920"/></g><g transform="translate(-.916 143.06)"><path d="m15.583-142.61c-5.577-1.531-5.951 3.24-4.58 5.493 4.381 6.983 6.796 6.577 9.398 7.895 1.712 2.064 3.451 3.4 6.469 4.1 11.69 1.559 3.242-8.417.92-8.649-5.065.012-7.547-6.123-12.206-8.838" fill="url(#0)"/><path d="m15.583-142.61c3.76.276 5.616-.626 8.93-.421 4.319.283 8.307 2.053 7.838 6.574-.347 2.567-.37 2.25.186 4.296.532 1.535-.252 4.232-.487 4.654-2.715 4.963-1.536 4.965-2.656 7.742l-.906-.418-2.508-11.358c-7.177-.909-10.754-10.11-10.398-11.07" fill="url(#2)"/><path d="m22.374-132.67c.362.274 1.553-5.105 1.172-5.653 1.379 2.44 1.919 4.616 2.435 6.783-1.276-.283-2.289-.554-3.607-1.13" fill="url(#4)"/><circle r="3.01" cy="-119.45" cx="29.06" fill="url(#5)"/></g></svg>