<svg xmlns="http://www.w3.org/2000/svg" xmlns:xlink="http://www.w3.org/1999/xlink" viewBox="0 0 32 32"><defs><linearGradient xlink:href="#3" id="4" gradientUnits="userSpaceOnUse" x1="-23.24" y1="-185.08" x2="-28.704" y2="-186.05"/><linearGradient xlink:href="#3" id="2" gradientUnits="userSpaceOnUse" x1="-34.914" y1="-193.53" x2="-20.469" y2="-181.36"/><linearGradient id="3"><stop stop-color="#ffff5e"/><stop offset="1" stop-color="#f6a32d"/></linearGradient><linearGradient id="1"><stop stop-color="#f9f9f9"/><stop offset="1" stop-color="#999"/></linearGradient><linearGradient xlink:href="#1" id="0" gradientUnits="userSpaceOnUse" x1="-33.14" y1="-185.13" x2="-35.775" y2="-177.2"/><radialGradient xlink:href="#1" id="5" cx="-176.59" cy="-120.91" r="3.01" gradientUnits="userSpaceOnUse" gradientTransform="matrix(2.21087.05719-.05496 2.12455 362.18 94.22)"/></defs><rect width="28.2" height="28.2" x="1.898" y="1.898" fill="#65c57a" fill-rule="evenodd" rx="5.575"/><g transform="translate(47.628-.594)"><path d="m-31.628 6.149c-1.653 0-2.984 1.331-2.984 2.984v3.484l-1.322-1.322c-.895-.895-2.336-.895-3.231 0-.895.895-.895 2.336 0 3.231l4.306 4.306-4.306 4.306c-.895.895-.895 2.336 0 3.231.895.895 2.336.895 3.231 0l2.757-2.757c.452.275.979.443 1.549.443.57 0 1.097-.168 1.549-.443l2.757 2.757c.895.895 2.336.895 3.231 0 .895-.895.895-2.336 0-3.231l-4.306-4.306 4.306-4.306c.895-.895.895-2.336 0-3.231-.895-.895-2.336-.895-3.231 0l-1.322 1.322v-3.484c0-1.653-1.331-2.984-2.984-2.984" fill="#2d5a37"/><rect x="-26.293" y="24.17" width="15.668" height="14.922" ry="7.461" rx="7.834" transform="matrix(0-1-1 0 0 0)" fill="#6d7481"/><path d="m-36.08306 14.333894a.746182 .746182 0 0 0 -.756308 .757765h-.002v2.868a.746182 .746182 0 0 0 -.0015 .0073 .746182 .746182 0 0 0 -.0029 .02623 .746182 .746182 0 0 0 -.0043 .06121 .746182 .746182 0 0 0 .0015 .06703 .746182 .746182 0 0 0 .0029 .03497 .746182 .746182 0 0 0 .0043 .03789v2.866a.746182 .746182 0 0 0 .01022 .12678 .746182 .746182 0 0 0 .01602 .07287 .746182 .746182 0 0 0 .02186 .06995 .746182 .746182 0 0 0 0 .0029 .746182 .746182 0 0 0 .02769 .06412 .746182 .746182 0 0 0 .0015 .0043 .746182 .746182 0 0 0 .03644 .06266 .746182 .746182 0 0 0 .04226 .06121 .746182 .746182 0 0 0 .04809 .05683 .746182 .746182 0 0 0 .04954 .04954 .746182 .746182 0 0 0 .0043 .0029 .746182 .746182 0 0 0 .0015 .0015 .746182 .746182 0 0 0 .05683 .04372 .746182 .746182 0 0 0 .06121 .03934 .746182 .746182 0 0 0 .0043 .0029 .746182 .746182 0 0 0 .04518 .02186 .746182 .746182 0 0 0 .02768 .01312 .746182 .746182 0 0 0 .06121 .02332 .746182 .746182 0 0 0 .128238 .02914 .746182 .746182 0 0 0 .03644 .0043 .746182 .746182 0 0 0 .01166 0 .746182 .746182 0 0 0 .05537 .0029 .746182 .746182 0 0 0 .05392 -.0029 .746182 .746182 0 0 0 .0087 0 .746182 .746182 0 0 0 .0029 0 .746182 .746182 0 0 0 .03644 -.0043 .746182 .746182 0 0 0 .128237 -.02914 .746182 .746182 0 0 0 .06703 -.02623 .746182 .746182 0 0 0 .0015 0 .746182 .746182 0 0 0 .0043 -.0015 .746182 .746182 0 0 0 .06121 -.03206 .746182 .746182 0 0 0 .0015 0 .746182 .746182 0 0 0 .0029 -.0015 .746182 .746182 0 0 0 .118036 -.08307 .746182 .746182 0 0 0 .0059 -.0043 .746182 .746182 0 0 0 .04954 -.04955 .746182 .746182 0 0 0 .04809 -.05683 .746182 .746182 0 0 0 .04226 -.06121 .746182 .746182 0 0 0 .03643 -.06265 .746182 .746182 0 0 0 .0015 -.0045 .746182 .746182 0 0 0 .02768 -.06412 .746182 .746182 0 0 0 0 -.0029 .746182 .746182 0 0 0 .02186 -.06995 .746182 .746182 0 0 0 .01602 -.07287 .746182 .746182 0 0 0 .01022 -.126779V18.822h1.491v2.238a.746182 .746182 0 0 0 .01022 .126779 .746182 .746182 0 0 0 .01602 .07287 .746182 .746182 0 0 0 .02186 .06995 .746182 .746182 0 0 0 0 .0029 .746182 .746182 0 0 0 .02768 .06412 .746182 .746182 0 0 0 .0015 .0045 .746182 .746182 0 0 0 .03643 .06265 .746182 .746182 0 0 0 .04226 .06121 .746182 .746182 0 0 0 .04809 .05683 .746182 .746182 0 0 0 .04955 .04955 .746182 .746182 0 0 0 .0043 .0029 .746182 .746182 0 0 0 .0015 .0015 .746182 .746182 0 0 0 .05683 .04372 .746182 .746182 0 0 0 .06121 .03934 .746182 .746182 0 0 0 .0029 .0015 .746182 .746182 0 0 0 .0015 .0015 .746182 .746182 0 0 0 .04518 .02186 .746182 .746182 0 0 0 .01895 .01022 .746182 .746182 0 0 0 .0087 .0029 .746182 .746182 0 0 0 .06121 .02332 .746182 .746182 0 0 0 .128237 .02914 .746182 .746182 0 0 0 .03643 .0045 .746182 .746182 0 0 0 .01166 0 .746182 .746182 0 0 0 .05537 .0029 .746182 .746182 0 0 0 .05392 -.0029 .746182 .746182 0 0 0 .0087 0 .746182 .746182 0 0 0 .0029 0 .746182 .746182 0 0 0 .03643 -.0045 .746182 .746182 0 0 0 .128236 -.02914 .746182 .746182 0 0 0 .06703 -.02624 .746182 .746182 0 0 0 .0015 0 .746182 .746182 0 0 0 .0043 -.0015 .746182 .746182 0 0 0 .06121 -.03206 .746182 .746182 0 0 0 .0015 0 .746182 .746182 0 0 0 .0029 -.0015 .746182 .746182 0 0 0 .118036 -.08307 .746182 .746182 0 0 0 .0015 -.0015 .746182 .746182 0 0 0 .0043 -.0029 .746182 .746182 0 0 0 .04954 -.04955 .746182 .746182 0 0 0 .04809 -.05683 .746182 .746182 0 0 0 .04226 -.06121 .746182 .746182 0 0 0 .03643 -.06266 .746182 .746182 0 0 0 0 -.0015 .746182 .746182 0 0 0 .0015 -.0029 .746182 .746182 0 0 0 .02769 -.06412 .746182 .746182 0 0 0 0 -.0015 .746182 .746182 0 0 0 0 -.0015 .746182 .746182 0 0 0 .02186 -.06995 .746182 .746182 0 0 0 .01602 -.07286 .746182 .746182 0 0 0 .01022 -.12678v-2.866a.746182 .746182 0 0 0 .0043 -.03789 .746182 .746182 0 0 0 .0029 -.03497 .746182 .746182 0 0 0 .0015 -.0408 .746182 .746182 0 0 0 -.0015 -.04372 .746182 .746182 0 0 0 0 -.0029 .746182 .746182 0 0 0 0 -.0073 .746182 .746182 0 0 0 -.0073 -.06121 .746182 .746182 0 0 0 0 -.0059v-2.868h-.002a.746182 .746182 0 0 0 -.756718 -.75761 .746182 .746182 0 0 0 -.502747 .206928 .746182 .746182 0 0 0 -.05246 .05391 .746182 .746182 0 0 0 -.03644 .04663 .746182 .746182 0 0 0 -.02477 .03351 .746182 .746182 0 0 0 -.0087 .01312 .746182 .746182 0 0 0 -.110749 .518778v2.123h-1.491v-2.123a.746182 .746182 0 0 0 -.110749 -.518778 .746182 .746182 0 0 0 -.0015 -.0029 .746182 .746182 0 0 0 -.02186 -.03205 .746182 .746182 0 0 0 -.01022 -.01166 .746182 .746182 0 0 0 -.03644 -.04663 .746182 .746182 0 0 0 -.05246 -.05391 .746182 .746182 0 0 0 -.502748 -.206929m6.693703 1.514167a2.238321 2.238321 0 0 0 -2.238321 2.238321 2.238321 2.238321 0 0 0 2.238321 2.238322 2.238321 2.238321 0 0 0 .553752 -.07287c-.017.062-.027.136-.047.192-.107.308-.242.491-.375.58-.133.089-.306.151-.724.063a.74624 .74624 0 1 0 -.308935 1.460155c.701.149 1.367.05 1.864-.283.497-.333.782-.833.954-1.33.346-.996.321-2.101.321-2.847a.746182 .746182 0 0 0 -.0043 -.08598 2.238321 2.238321 0 0 0 -2.23395 -2.152344m-.000072 1.492229a.746107 .746107 0 0 1 .746107 .746107 .746107 .746107 0 0 1 -.746107 .746108 .746107 .746107 0 0 1 -.746107 -.746108 .746107 .746107 0 0 1 .746107 -.746107" fill="#c4c4c4"/></g><g transform="translate(49.877 194.68)"><path d="m-35.21-194.22c-5.577-1.531-5.951 3.24-4.58 5.493 4.381 6.983 6.796 6.577 9.398 7.895 1.712 2.064 3.451 3.4 6.469 4.1 11.69 1.559 3.242-8.417.92-8.649-5.065.012-7.547-6.123-12.206-8.838" fill="url(#0)"/><path d="m-35.21-194.22c3.76.276 5.616-.626 8.93-.421 4.319.283 8.307 2.053 7.838 6.574-.347 2.567-.37 2.25.186 4.296.532 1.535-.252 4.232-.487 4.654-2.715 4.963-1.536 4.965-2.656 7.742l-.906-.418-2.508-11.358c-7.177-.909-10.754-10.11-10.398-11.07" fill="url(#2)"/><path d="m-28.419-184.29c.362.274 1.553-5.105 1.172-5.653 1.379 2.44 1.919 4.616 2.435 6.783-1.276-.283-2.289-.554-3.607-1.13" fill="url(#4)"/><circle r="3.01" cy="-171.07" cx="-21.728" fill="url(#5)"/></g></svg>