<svg xmlns="http://www.w3.org/2000/svg" viewBox="0 0 32 32"><defs><linearGradient gradientTransform="matrix(2.59244 0 0 2.58531-157.93-277.73)" id="0" x1="67.894" y1="108.69" x2="67.854" y2="113.11" gradientUnits="userSpaceOnUse"><stop stop-color="#f9f9f9"/><stop offset="1" stop-color="#999"/></linearGradient></defs><rect width="28.2" height="28.2" x="1.898" y="1.898" fill="#258dcb" fill-rule="evenodd" rx="5.575"/><g transform="matrix(.70355 0 0 .70355 4.743 5.095)" stroke-width="1.421"><path d="m18.424 1l-4.254 5.998a11.914893 11.836739 0 0 0 -3.441822 1.88415c-4.234-1.01-8.728 2.372-8.728 2.372l4.36 8.95a11.914893 11.836739 0 0 0 11.725233 9.795351 11.914893 11.836739 0 0 0 11.914893 -11.836732 11.914893 11.836739 0 0 0 -4.776429 -9.458987c-.725-4.946-6.8-7.704-6.8-7.704" fill="#50beee"/><g fill="#fff"><path d="m5.143 12c-.358.002-.739.041-1.143.125 0 0 2.508.277 3.756 1.973-.526 2.217-1.213 3.902-1.213 3.902l2.456-4.288c0 0-1.351-1.729-3.857-1.712"/><path d="m18 3l-2 4 1.22-.391c0 0 .615-1.668.78-3.609"/><path d="m12.693343 18.758263a2.500221 2.508876 0 0 0 -.542995 2.590961 2.500221 2.508876 0 0 0 3.204562 1.499472 2.500221 2.508876 0 0 0 1.494314 -3.215642 2.500221 2.508876 0 0 0 -2.0751 -1.633059l-.008.169-.124 2.715-1.834-2z"/><path d="m20.693343 14.758263a2.500221 2.508876 0 0 0 -.542995 2.590961 2.500221 2.508876 0 0 0 3.204562 1.499472 2.500221 2.508876 0 0 0 1.494314 -3.215642 2.500221 2.508876 0 0 0 -2.075101 -1.633059l-.008.169-.124 2.715-1.834-2z"/><path d="m24.290604 22.0003a.723823 .794508 0 0 0 -.07163 .0018 .723823 .794508 0 0 0 -.488155 .269975c-.298.362-.896.444-1.535.348-.571-.086-1.01-.266-1.104-.308a.723823 .794508 0 0 0 -.339259 -.09922 .723823 .794508 0 0 0 -.759562 .849232c-.035.188-.117.596-.322 1.107-.26.648-.642 1.166-1.079 1.255a.724558 .795314 0 0 0 .263868 1.564033c1.163-.236 1.793-1.313 2.14-2.177.112-.279.193-.54.26-.781.222.064.466.125.741.166.853.128 2.02.104 2.81-.86a.723823 .794508 0 0 0 -.515485 -1.335449"/></g></g>

   xmlns:dc="http://purl.org/dc/elements/1.1/"
   xmlns:cc="http://creativecommons.org/ns#"
   xmlns:rdf="http://www.w3.org/1999/02/22-rdf-syntax-ns#"
   xmlns:svg="http://www.w3.org/2000/svg"
   xmlns="http://www.w3.org/2000/svg"
   xmlns:xlink="http://www.w3.org/1999/xlink"
   xmlns:sodipodi="http://sodipodi.sourceforge.net/DTD/sodipodi-0.dtd"
   xmlns:inkscape="http://www.inkscape.org/namespaces/inkscape"
   version="1"
   width="32"
   height="32"
   id="svg12"
   sodipodi:docname="snow-top-4.svg"
   inkscape:version="0.92.1 r"&gt;
  <path d="m7.196.009c-8.161-.339-9.231 9.523-3.968 9.505.669.003 1.581-.197 2.929-1.471 3.773-4.147 9.01 4.479 14.696-1.042.61-.911 1.804-1.135 2.455-.627 1.045.677 2.87 2.991 3.88 3 2.359.513 4.095-.198 4.816-3.188.185-3.165-2.303-6.286-6.281-6.17-5.832.133-12.809-.045-18.527-.01" fill="url(#0)"/></svg>