<svg xmlns="http://www.w3.org/2000/svg" viewBox="0 0 32 32"><defs><linearGradient gradientTransform="matrix(-2.65552 0 0 2.58531 193.77-277.73)" id="0" x1="67.894" y1="108.69" x2="67.854" y2="113.11" gradientUnits="userSpaceOnUse"><stop stop-color="#f9f9f9"/><stop offset="1" stop-color="#999"/></linearGradient></defs><rect width="28.2" height="28.2" x="1.898" y="1.898" fill="#4f4f4f" fill-rule="evenodd" rx="5.575"/><path fill="#808080" d="m10 4.5h12v10h-12z"/><g transform="translate(0 .5)" fill="#fff"><path d="m6 4h3v3h-3z"/><path d="m6 9h3v3h-3z"/><path d="m6 14h3v3h-3z"/><path d="m6 19h3v3h-3z"/><path d="m6 24h3v3h-3z"/><path d="m23 4h3v3h-3z"/><path d="m23 9h3v3h-3z"/><path d="m23 14h3v3h-3z"/><path d="m23 19h3v3h-3z"/><path d="m23 24h3v3h-3z"/></g><path fill="#808080" d="m10 17.5h12v10h-12z"/><g transform="matrix(.75 0 0 .75 4.562 5.335)" stroke-width="1.333"><circle r="8" cy="23" cx="24" fill="#4269cd" fill-rule="evenodd"/><path d="m24 19c-2.209 0-4 1.791-4 4 0 2.209 1.791 4 4 4 1.814 0 3.349-1.202 3.839-2.857h-1.232c-.442 1.01-1.438 1.714-2.607 1.714-1.578 0-2.857-1.279-2.857-2.857 0-1.578 1.279-2.857 2.857-2.857.789 0 1.495.329 2.01.848l-1.438 1.438h3.429v-3.428l-1.173 1.173c-.725-.723-1.722-1.173-2.827-1.173" fill="#fff"/></g>

   xmlns:dc="http://purl.org/dc/elements/1.1/"
   xmlns:cc="http://creativecommons.org/ns#"
   xmlns:rdf="http://www.w3.org/1999/02/22-rdf-syntax-ns#"
   xmlns:svg="http://www.w3.org/2000/svg"
   xmlns="http://www.w3.org/2000/svg"
   xmlns:xlink="http://www.w3.org/1999/xlink"
   xmlns:sodipodi="http://sodipodi.sourceforge.net/DTD/sodipodi-0.dtd"
   xmlns:inkscape="http://www.inkscape.org/namespaces/inkscape"
   version="1"
   width="32"
   height="32"
   id="svg12"
   sodipodi:docname="snow-top-3.svg"
   inkscape:version="0.92.1 r"&gt;
  <path d="m24.627.009c8.36-.339 9.455 9.523 4.064 9.505-.686.003-1.62-.197-3-1.471-14.665-10.216-14.549 2.967-17.708.875-1.727-1.822-1.743 4.653-4.139 5.127-2.122.613-3.699-1.385-3.824-4.503-.366-8.627 4.086-9.427 7.187-9.524 5.974.133 11.562-.045 17.419-.01" fill="url(#0)"/></svg>