<svg xmlns="http://www.w3.org/2000/svg" viewBox="0 0 32 32"><g transform="translate(42.894-3.404)" fill-rule="evenodd"><path d="m-38.545 32.428l18.301-17.701c-.526-1.303-1.046-2.413-1.533-3.223-.487-.809-.94-1.319-1.334-1.424-.095-.025-.203-.033-.326-.021v-.002c-.475.04-1.153.341-1.975.84-.822.499-1.787 1.198-2.836 2.037-2.097 1.678-4.529 3.915-6.816 6.234-2.279 2.31-4.409 4.699-5.932 6.699v2.064c0 1.902 1.01 3.491 2.451 4.496" fill="#63a8d3"/><path d="m-15.52 32.615c-.019-.146-.008-.233-.029-.383-.383-2.726-1.135-6.143-2.049-9.473l-11.11 10.746h10.338c1.066 0 2-.376 2.848-.891" fill="#cde4fd"/><path d="m-17.633 22.793c.009-.028.028-.045.037-.072-.807-2.939-1.733-5.796-2.648-8.06-.009.005-.016.011-.025.016.009.022.017.033.025.055l-18.301 17.701c.902.627 1.938 1.078 3.125 1.078h6.715z" fill="#9cc7f4"/><path d="m-35.42 5.303c-3.089 0-5.576 2.486-5.576 5.574v14.99c1.522-2 3.653-4.389 5.932-6.699 2.288-2.32 4.719-4.556 6.816-6.234 1.048-.839 2.01-1.538 2.836-2.037.822-.499 1.499-.8 1.975-.84v.002c.123-.012.231-.004.326.021.394.105.847.614 1.334 1.424.479.796.991 1.893 1.508 3.168.009-.005.016-.011.025-.016.916 2.269 1.842 5.126 2.648 8.06-.009.028-.028.045-.037.072l.035-.033c0-.002-.002-.003-.002-.004h.006l-.004.004c.913 3.33 1.666 6.747 2.049 9.473.021.15.011.237.029.383 1.604-.977 2.729-2.661 2.729-4.684v-17.05c0-3.089-2.488-5.574-5.576-5.574z" fill="#007eff"/></g>

   xmlns:dc="http://purl.org/dc/elements/1.1/"
   xmlns:cc="http://creativecommons.org/ns#"
   xmlns:rdf="http://www.w3.org/1999/02/22-rdf-syntax-ns#"
   xmlns:svg="http://www.w3.org/2000/svg"
   xmlns="http://www.w3.org/2000/svg"
   xmlns:sodipodi="http://sodipodi.sourceforge.net/DTD/sodipodi-0.dtd"
   xmlns:inkscape="http://www.inkscape.org/namespaces/inkscape"
   height="32"
   width="32"
   version="1"
   id="svg8"
   sodipodi:docname="star-mime-2.svg"
   inkscape:version="0.92.1 r"&gt;
  <g transform="translate(152.47 194.05)" fill="#fff"><path d="m-125.38-193.25l-.077 3.548 3.072 1.831-3.548-.077-3.135 6.791 1.38-7.268-3.072-1.831 3.548.077z"/><path d="m-125.41-183.04l.042-1.955-1.692-1.01 1.955.042 1.727-3.741-.76 4 1.692 1.01-1.955-.042z"/></g></svg>