<svg xmlns="http://www.w3.org/2000/svg" viewBox="0 0 32 32"><defs><linearGradient gradientTransform="matrix(2.54182 0 0 2.58531-153.47-277.37)" id="0" x1="67.894" y1="108.69" x2="67.854" y2="113.11" gradientUnits="userSpaceOnUse"><stop stop-color="#f9f9f9"/><stop offset="1" stop-color="#999"/></linearGradient></defs><rect width="28.2" height="28.2" x="1.898" y="1.898" fill="#9b6bca" fill-rule="evenodd" rx="5.575"/><path d="m6.384 5.21c.771 1.067 1.165 2.199 0 3.854-.122 1.447.384 2.287 2.115 2.257.41-.028 1.06-.109 1.401-.431.542-.663.332-1.01.108-1.057-.232-.069-.793.279-.254.536.114.464-1.181.416-1.42.026-.899-1.609 1.492-2.766 4.215-1.716.558 4.392 1.191 9.988.507 15.216-.447 1.038-.927 1.661-2.049 2.126v.771c1.541-.771 5.395-.771 7.707-.771v-.771c-.997-.18-1.788-1.106-1.906-2.037-.387-5.182-.67-8.978.364-14.15h3.83c.478.011.673.407.795 1.541h1.541c-.538-1.284-.771-2.312-.771-3.854-5.757.89-9.96.099-16.185-1.541m16.462 12.341c-1.066-.01-1.879.341-2.476 1.242-.103.208-.142.356-.154.595-.014.278.043.5.191.744.045.074.165.209.229.257.148.112.379.222.492.235.03.003.072.01.095.015.366-.013.557-.32.557-.717 0-.501.92-1.504 1.234-.152-.079.855-.531 1.026-1.137 1.456-.067.041-.104.092-.104.148.196.409.383.79.527 1.219.049.12.079.152.138.152.026 0 .048-.015.09-.059.234-.322.382-.765.622-.348.076.143.11.243.163.47.012.052.016.126.021.298.005.168 0 .228-.036.455-.355.938-.925 1.39-2.097 1.123-.112-.06-.218-.163-.218-.212 0-.033.06-.046.184-.045.158.002.259-.026.328-.087.013-.011.039-.03.059-.044.036-.025.096-.096.126-.151.009-.016.018-.033.021-.036.025-.025.067-.149.078-.26.024-.245-.003-.235-.107-.42-.117-.21-.387-.4-.644-.455-.124-.026-.145-.03-.266-.03-.524-.007-.993.427-1.24 1.112-.059.335-.064.378-.044.611.018.206.056.362.135.551.03.072.09.195.113.233.006.01.032.055.059.101.047.083.122.19.158.226.01.01.018.023.018.029 0 .017.261.28.351.352.031.025.064.052.074.062.095.093.429.284.581.333.027.008.094.031.149.051.093.034.345.102.412.111.016.002.066.014.111.024.045.01.13.025.188.033.058.009.191.017.295.018.226.003.654-.018.712-.033.023-.006.057-.013.077-.017.036-.006.27-.052.301-.06.06-.015.111-.031.205-.059.058-.017.128-.036.154-.042.026-.006.052-.015.059-.02.007-.005.041-.018.077-.03.117-.039.35-.151.483-.233.042-.026.086-.052.096-.059.011-.006.051-.034.09-.062.039-.027.075-.05.078-.05.013 0 .135-.089.193-.14.018-.016.06-.051.092-.078.116-.098.284-.273.315-.328.006-.01.028-.038.048-.062.082-.096.148-.186.148-.199 0-.005.025-.047.054-.092.029-.045.053-.084.053-.087 0-.003.019-.047.042-.096.023-.049.05-.106.059-.125.059-.125.135-.412.152-.572.003-.032.011-.095.017-.14.011-.086.009-.407-.003-.467-.004-.019-.013-.088-.02-.152-.022-.202-.084-.468-.148-.635-.023-.061-.05-.134-.06-.163-.01-.029-.026-.064-.035-.077-.009-.013-.017-.03-.017-.039 0-.029-.15-.318-.221-.428-.038-.058-.072-.114-.077-.123-.01-.022-.035-.062-.044-.069-.003-.003-.02-.025-.035-.05-.015-.024-.033-.051-.041-.059-.008-.008-.026-.032-.042-.054-.016-.022-.031-.044-.035-.047-.004-.003-.022-.024-.041-.047-.04-.049-.178-.202-.307-.339-.138-.147-.252-.149-.26-.19-.009-.04.021-.094.092-.167.08-.083.169-.208.22-.309.008-.016.021-.034.027-.041.012-.013.145-.272.161-.315.005-.013.015-.045.023-.071.008-.026.023-.072.035-.104.032-.09.071-.294.08-.409.016-.209.004-.546-.023-.667-.018-.081-.106-.332-.135-.388-.015-.029-.043-.086-.063-.128-.058-.122-.117-.203-.259-.357-.072-.078-.296-.274-.364-.319-.125-.082-.208-.132-.278-.164-.139-.064-.202-.091-.241-.105-.023-.008-.047-.02-.053-.026-.006-.005-.018-.009-.027-.009-.009 0-.034-.008-.054-.017-.094-.041-.294-.102-.536-.125z" fill="#fff"/>

   xmlns:dc="http://purl.org/dc/elements/1.1/"
   xmlns:cc="http://creativecommons.org/ns#"
   xmlns:rdf="http://www.w3.org/1999/02/22-rdf-syntax-ns#"
   xmlns:svg="http://www.w3.org/2000/svg"
   xmlns="http://www.w3.org/2000/svg"
   xmlns:xlink="http://www.w3.org/1999/xlink"
   xmlns:sodipodi="http://sodipodi.sourceforge.net/DTD/sodipodi-0.dtd"
   xmlns:inkscape="http://www.inkscape.org/namespaces/inkscape"
   height="32"
   width="32"
   version="1"
   id="svg8"
   sodipodi:docname="snow-top-2.svg"
   inkscape:version="0.92.1 r"&gt;
  <path d="m24.646 6.111c2.995 2.684 1.381 7.817 3.674 8.291 2.031.613 3.541-1.385 3.66-4.503.35-8.627-3.911-9.427-6.879-9.524-28.342-2.047-1.762 4.92-.455 5.736" fill="url(#0)"/></svg>