<svg xmlns="http://www.w3.org/2000/svg" xmlns:xlink="http://www.w3.org/1999/xlink" viewBox="0 0 32 32"><defs><linearGradient xlink:href="#3" id="4" gradientUnits="userSpaceOnUse" x1="-23.24" y1="-185.08" x2="-28.704" y2="-186.05"/><linearGradient xlink:href="#3" id="2" gradientUnits="userSpaceOnUse" x1="-34.914" y1="-193.53" x2="-20.469" y2="-181.36"/><linearGradient id="3"><stop stop-color="#ffff5e"/><stop offset="1" stop-color="#f6a32d"/></linearGradient><linearGradient id="1"><stop stop-color="#f9f9f9"/><stop offset="1" stop-color="#999"/></linearGradient><linearGradient xlink:href="#1" id="0" gradientUnits="userSpaceOnUse" x1="-33.14" y1="-185.13" x2="-35.775" y2="-177.2"/><radialGradient xlink:href="#1" id="5" cx="-176.59" cy="-120.91" r="3.01" gradientUnits="userSpaceOnUse" gradientTransform="matrix(2.21087.05719-.05496 2.12455 362.18 94.22)"/></defs><rect width="28.2" height="28.2" x="1.898" y="1.898" fill="#fecd38" fill-rule="evenodd" rx="5.575"/><path d="m6.493 5.343c.762 1.054 1.151 2.172 0 3.806-.121 1.429.379 2.259 2.089 2.229.405-.027 1.047-.107 1.384-.425.535-.655.328-.998.107-1.044-.229-.068-.783.275-.251.529.112.458-1.166.411-1.402.025-.888-1.589 1.474-2.732 4.163-1.695.551 4.338 1.176 9.864.501 15.03-.442 1.025-.915 1.641-2.023 2.099v.761c1.522-.761 5.328-.761 7.612-.761v-.761c-.985-.177-1.766-1.092-1.882-2.01-.383-5.118-.662-8.867.36-13.974h3.782c.472.011.665.402.785 1.522h1.522c-.531-1.269-.761-2.284-.761-3.806-5.686.879-9.836.098-15.985-1.522m15.71 12.179c-.287.001-.571.029-.849.079-.537.096-1.215.393-1.351.92-.125.483-.155 1.146.672 1.337l.281-.052v-.761c.46-.94 1.522-.999 2.157-.296.787 1.429-.227 3.092-.96 4.16-.72 1.188-1.731 1.4-2.719 2.226v.761c0 0 3.38.209 4.567.761.167-.69 1.815-2.026 1.479-2.688-.449-.574-1.479-.357-1.479.404l.666-.015c.122-.257.057-.306.217-.15.094.462-.394.696-.712.841-.932.085-2.455.085-2.46.045 2.059-2.054 4.742-4.568 2.927-6.68-.702-.654-1.575-.896-2.435-.892z" fill="#fff"/><g transform="translate(49.877 194.68)"><path d="m-35.21-194.22c-5.577-1.531-5.951 3.24-4.58 5.493 4.381 6.983 6.796 6.577 9.398 7.895 1.712 2.064 3.451 3.4 6.469 4.1 11.69 1.559 3.242-8.417.92-8.649-5.065.012-7.547-6.123-12.206-8.838" fill="url(#0)"/><path d="m-35.21-194.22c3.76.276 5.616-.626 8.93-.421 4.319.283 8.307 2.053 7.838 6.574-.347 2.567-.37 2.25.186 4.296.532 1.535-.252 4.232-.487 4.654-2.715 4.963-1.536 4.965-2.656 7.742l-.906-.418-2.508-11.358c-7.177-.909-10.754-10.11-10.398-11.07" fill="url(#2)"/><path d="m-28.419-184.29c.362.274 1.553-5.105 1.172-5.653 1.379 2.44 1.919 4.616 2.435 6.783-1.276-.283-2.289-.554-3.607-1.13" fill="url(#4)"/><circle r="3.01" cy="-171.07" cx="-21.728" fill="url(#5)"/></g></svg>