<svg xmlns="http://www.w3.org/2000/svg" xmlns:xlink="http://www.w3.org/1999/xlink" viewBox="0 0 32 32"><defs><linearGradient xlink:href="#3" id="4" x1="-227.98" y1="-131.26" x2="-234.8" y2="-134.14" gradientUnits="userSpaceOnUse"/><linearGradient xlink:href="#3" id="2" x1="-241.01" y1="-141.61" x2="-226.57" y2="-129.44" gradientUnits="userSpaceOnUse"/><linearGradient id="3"><stop stop-color="#13a9ea"/><stop offset="1" stop-color="#372db5"/></linearGradient><linearGradient id="1"><stop stop-color="#f9f9f9"/><stop offset="1" stop-color="#999"/></linearGradient><linearGradient xlink:href="#1" id="0" x1="-239.23" y1="-133.21" x2="-241.87" y2="-125.28" gradientUnits="userSpaceOnUse"/><radialGradient xlink:href="#1" id="5" cx="-176.59" cy="-120.91" r="3.01" gradientUnits="userSpaceOnUse" gradientTransform="matrix(2.21087.05719-.05496 2.12455 156.08 146.14)"/></defs><rect width="28.2" height="28.2" x="1.898" y="1.898" fill="#fecd38" fill-rule="evenodd" rx="5.575"/><path d="m7.354 4.985c.787 1.089 1.19 2.245 0 3.934-.125 1.477.392 2.335 2.159 2.303.418-.028 1.082-.111 1.431-.439.553-.677.339-1.032.111-1.079-.237-.07-.81.285-.26.547.116.474-1.205.425-1.449.026-.918-1.643 1.523-2.824 4.303-1.752.57 4.483 1.216 10.196.518 15.533-.457 1.06-.946 1.696-2.091 2.17v.787c1.574-.787 5.507-.787 7.868-.787v-.787c-1.018-.183-1.826-1.129-1.945-2.079-.395-5.29-.684-9.165.372-14.443h3.909c.488.011.688.416.811 1.574h1.574c-.549-1.311-.787-2.36-.787-3.934-5.877.908-10.167.101-16.522-1.574" fill="#fff"/><g transform="matrix(-1 0 0 1-223.97 142.77)"><g fill="#f9f9f9"><path d="m-228.95-129.3l-.27 2.221-.122-2.378z"/><path d="m-228.66-130.01l-.27 2.221-.122-2.378z"/><path d="m-228.43-129.95l-.27 1.6-.122-1.713z"/></g><path d="m-241.31-142.31c-5.577-1.531-5.951 3.24-4.58 5.493 4.381 6.983 6.796 6.577 9.398 7.895 1.712 2.064 3.451 3.4 6.469 4.1 11.69 1.559 3.242-8.417.92-8.649-5.065.012-7.547-6.123-12.206-8.838" fill="url(#0)"/><path d="m-241.31-142.31c3.76.276 5.616-.626 8.93-.421 4.319.283 8.307 2.053 7.838 6.574-.347 2.567-.37 2.25.186 4.296.532 1.535-.252 4.232-.487 4.654-2.715 4.963-1.536 4.965-2.656 7.742l-.906-.418-2.508-11.358c-7.177-.909-10.754-10.11-10.398-11.07" fill="url(#2)"/><path d="m-234.52-132.37c.362.274 1.553-5.105 1.172-5.653 1.379 2.44 1.919 4.616 2.435 6.783-1.276-.283-2.289-.554-3.607-1.13" fill="url(#4)"/><circle r="3.01" cy="-119.15" cx="-227.83" fill="url(#5)"/></g></svg>