<svg xmlns="http://www.w3.org/2000/svg" viewBox="0 0 32 32"><defs><linearGradient gradientTransform="matrix(2.62891 0 0 2.71269-160.16-291.42)" id="0" x1="67.894" y1="108.69" x2="67.854" y2="113.11" gradientUnits="userSpaceOnUse"><stop stop-color="#f9f9f9"/><stop offset="1" stop-color="#999"/></linearGradient></defs><rect width="28.2" height="28.2" x="1.898" y="1.898" fill="#b3b3b3" fill-rule="evenodd" rx="5.575"/><g transform="translate(37.558 4.526)"><path d="m-21.575.171c-2.168 0-4.04 2.02-4.04 4.521 0 5.651-3.229 6.217-3.229 10.173 0 4.37 3.253 7.912 7.266 7.912 4.01 0 7.266-3.542 7.266-7.912 0-3.956-3.229-4.521-3.229-10.173 0-2.505-1.869-4.521-4.04-4.521" fill="#4f4f4f"/><path d="m-21.575 6.63c-1.445 0-2.422 1.224-2.422 2.745 0 3.431-2.422 3.774-2.422 6.176 0 2.653 2.169 4.804 4.844 4.804 2.675 0 4.844-2.151 4.844-4.804 0-2.402-2.422-2.745-2.422-6.176 0-1.521-.977-2.745-2.422-2.745" fill="#fff"/><g fill="#eab108"><path d="m-25.19 22.76c-.243-.039-.458-.111-.93-.315-.702-.303-1.029-.401-2.313-.694-.641-.146-.879-.211-1.435-.391-.202-.065-.472-.149-.599-.185-.345-.099-.437-.138-.564-.238-.173-.136-.253-.346-.222-.579.02-.15.072-.293.216-.595.193-.403.671-.549.701-.945.017-.234.003-.496-.056-1.043-.035-.324-.043-.443-.044-.649-.001-.223.002-.068.025-.153.086-.32.152-.505.458-.584.089-.023-.097-.027.319-.035.259-.008.408-.015.442-.023.179-.041.31-.108.431-.224.116-.11.195-.707.346-.976.235-.415.7-.411 1.079-.426.108.023.143.037.261.105.119.068.152.095.255.205.259.276.383.447.965 1.328.461.698.602.922.788 1.249.202.357.567.93.703 1.103.023.03.163.208.312.396.149.189.285.365.302.392.279.389.475.837.545 1.284.023.156.024.182.011.36-.017.226-.031.323-.056.373-.01.02-.031.074-.048.12-.213.595-.745 1.041-1.361 1.142-.131.022-.391.022-.53 0"/><path d="m-15.753 22.491c.186-.13.334-.277.641-.633.456-.531.445-.744 1.388-1.504.471-.379.642-.529 1.028-.901.141-.135.33-.313.42-.394.245-.221.305-.29.369-.422.087-.18.066-.383-.056-.559-.079-.113-.182-.208-.426-.394-.327-.248-.421-.462-.61-.771-.111-.182.034-.643-.144-1.11-.105-.276-.148-.376-.233-.543-.092-.181-.111-.212-.166-.272-.204-.224-.432-.3-.718-.24-.083.018-.132.038-.48.2-.217.101-.412.187-.442.194-.165.04-.302.038-.451-.008-.142-.042-.254.253-.491.097-.162-.106-.336-.239-.461-.273-.173-.048-.172-.048-.334-.03-.156.019-.27.064-.397.163-.08.062-.103.089-.173.192-.07.104-.087.139-.126.27-.1.329-.132.518-.249 1.468-.093.753-.117.992-.135 1.333-.02.371-.085.984-.125 1.179-.007.033-.049.235-.094.448-.045.213-.085.411-.088.44-.07.429-.047.871.081 1.261.045.136.055.157.14.296.108.177.16.249.201.279.016.012.057.047.09.078.424.395 1.05.539 1.603.37.118-.036.333-.142.439-.216z"/></g><circle cx="-23.19" cy="4.207" r="1.615" fill="#fff"/><circle cx="-23.19" cy="4.207" r=".807" fill="#323232"/><path d="m-19.15 6.226c0 1.561-1.084 2.826-2.422 2.826-1.338 0-2.422-1.265-2.422-2.826z" fill="#f77d00"/><circle cx="-19.96" cy="4.207" r="1.615" fill="#fff"/><circle cx="-19.96" cy="4.207" r=".807" fill="#323232"/><path d="m-19.15 6.361c0 .269-1.084 1.884-2.422 1.884-1.338 0-2.422-1.615-2.422-1.884 0-.743 1.084-1.346 2.422-1.346 1.338 0 2.422.602 2.422 1.346" fill="#eab108"/><path d="m-15.559 17.16c-.93 0-.937-.772-1.122-1.684-.207-1.014-.339-1.6 1.28-1.684 1.401-.461 1.618 3.313-.158 3.367" fill="#4f4f4f"/></g>

   xmlns:dc="http://purl.org/dc/elements/1.1/"
   xmlns:cc="http://creativecommons.org/ns#"
   xmlns:rdf="http://www.w3.org/1999/02/22-rdf-syntax-ns#"
   xmlns:svg="http://www.w3.org/2000/svg"
   xmlns="http://www.w3.org/2000/svg"
   xmlns:xlink="http://www.w3.org/1999/xlink"
   xmlns:sodipodi="http://sodipodi.sourceforge.net/DTD/sodipodi-0.dtd"
   xmlns:inkscape="http://www.inkscape.org/namespaces/inkscape"
   version="1"
   width="32"
   height="32"
   id="svg12"
   sodipodi:docname="snow-top-1.svg"
   inkscape:version="0.92.1 r"&gt;
  <path d="m7.288.009c-8.276-.356-9.36 9.992-4.02 9.973.679.003 1.604-.207 2.97-1.543 7.256-10.531 14.706 3.573 17.53.919 1.71-1.912 3.496-.418 4.448.115 2.1.643 3.662.041 3.785-3.231.188-3.321-1.889-6.344-5.923-6.223-5.914.14-12.989-.047-18.787-.01" fill="url(#0)"/><path fill="#f00" fill-opacity="0" d="m0 0h32v32h-32z"/></svg>