<svg xmlns="http://www.w3.org/2000/svg" viewBox="0 0 32 32"><rect width="28.2" height="28.2" x="1.898" y="1.898" fill="#af6835" fill-rule="evenodd" rx="5.575"/><g transform="translate(50.746-3.343)"><path d="m-27.699 17.486c.191-.647.297-1.329.297-2.037 0-4.02-3.287-7.284-7.343-7.284-4.054 0-7.342 3.261-7.342 7.284 0 .708.106 1.39.297 2.037-.925.737-4.513 3.93-3.037 8.07 0 0 1.249-.106 2.275-1.988.312 1.204.892 2.298 1.683 3.213-1.159.339-1.945.996-1.945 1.75 0 1.1 1.674 1.992 3.738 1.992 1.401 0 2.621-.412 3.26-1.018.352.046.707.078 1.071.078.365 0 .721-.032 1.071-.078.641.607 1.86 1.018 3.261 1.018 2.064 0 3.739-.892 3.739-1.992 0-.753-.787-1.411-1.946-1.75.791-.914 1.372-2.01 1.684-3.213 1.025 1.881 2.273 1.988 2.273 1.988 1.478-4.141-2.11-7.334-3.034-8.07" fill="#4f4f4f"/><g fill="#fff"><circle r="1.491" cx="-38.473" cy="13.381"/><circle r="1.491" cx="-31.02" cy="13.381"/><ellipse cx="-34.746" cy="21.579" ry="5.962" rx="5.217"/></g><g fill="#303030"><circle r=".745" cx="-37.727" cy="14.13"/><circle r=".745" cx="-30.27" cy="14.13"/></g><path d="m-36.24 14.13h2.981c-.239 2.296-1.491 4.472-1.491 4.472 0 0-1.491-2.581-1.491-4.472" fill="#cd5252"/><path d="m377.6 125.4c8.05-7.326 18.943-9.08 27.08-4.883l1.56-1.553c4.904-12.03 13.757-25.333 26.03-37.604 12.283-12.276 25.584-21.14 37.606-26.04 0 0 2.368-2.369 5.298-5.298 2.925-2.93 1.154-9.438-3.96-14.547l-30.1-30.09c-5.1-5.109-11.59-6.906-14.48-4.01l-5.238 5.236c-4.889 12.06-13.773 25.441-26.12 37.784-12.331 12.331-25.708 21.22-37.782 26.11l-1.082 1.078c5.178 8.233 3.574 19.979-4.168 28.487l-80.78 80.3c-3.494-.226-9.117-3.047-16.635-14.697-13.442-20.827-44.812-32.687-70.65 12.13-25.836 44.817-4.408 52.23-77.991 60.774l.016.024c-25.982 1.429-50.592 11.36-69.37 30.14-44.54 44.544-39.464 121.84 11.34 172.66 50.806 50.806 128.11 55.879 172.65 11.328.797-.797 1.557-1.639 2.324-2.46l.014.032c0 0 .293-.316.775-.866 3.573-3.903 6.777-8.03 9.636-12.343 11.461-16.27 27.822-45.524 24.16-76.08-5.538-46.13 37.694-44.02 55.619-55.623 17.921-11.598 24.25-21.607 24.77-33.22 0 0-21.352 15.03-40.855-4.476-15.677-15.678-8.708-42.39-1.947-56.53l82.25-85.77z" stroke-width="1.342" transform="matrix(.02943.01726-.01654.02909-37.623 11.198)" fill="#cd8652"/><circle r="1.491" cx="-37.727" cy="23.07" fill="#212121" stroke-width="1"/></g>

   xmlns:dc="http://purl.org/dc/elements/1.1/"
   xmlns:cc="http://creativecommons.org/ns#"
   xmlns:rdf="http://www.w3.org/1999/02/22-rdf-syntax-ns#"
   xmlns:svg="http://www.w3.org/2000/svg"
   xmlns="http://www.w3.org/2000/svg"
   xmlns:sodipodi="http://sodipodi.sourceforge.net/DTD/sodipodi-0.dtd"
   xmlns:inkscape="http://www.inkscape.org/namespaces/inkscape"
   height="32"
   width="32"
   version="1"
   id="svg8"
   sodipodi:docname="star-mime-2.svg"
   inkscape:version="0.92.1 r"&gt;
  <g transform="translate(152.47 194.05)" fill="#fff"><path d="m-125.38-193.25l-.077 3.548 3.072 1.831-3.548-.077-3.135 6.791 1.38-7.268-3.072-1.831 3.548.077z"/><path d="m-125.41-183.04l.042-1.955-1.692-1.01 1.955.042 1.727-3.741-.76 4 1.692 1.01-1.955-.042z"/></g></svg>