<svg xmlns="http://www.w3.org/2000/svg" viewBox="0 0 32 32"><defs><linearGradient gradientTransform="matrix(2.62891 0 0 2.71269-160.16-291.42)" id="0" x1="67.894" y1="108.69" x2="67.854" y2="113.11" gradientUnits="userSpaceOnUse"><stop stop-color="#f9f9f9"/><stop offset="1" stop-color="#999"/></linearGradient></defs><rect width="28.2" height="28.2" x="1.898" y="1.898" fill="#e6e6e6" fill-rule="evenodd" rx="5.575"/><path d="m15.985 5.555c-2 0-3.73 1.863-3.73 4.178 0 5.222-2.984 5.745-2.984 9.4 0 4.04 3.01 7.311 6.714 7.311 3.708 0 6.714-3.273 6.714-7.311 0-3.656-2.984-4.178-2.984-9.4 0-2.315-1.727-4.178-3.73-4.178" fill="#5095ab"/><path d="m15.985 11.524c-1.335 0-2.238 1.131-2.238 2.536 0 3.171-2.238 3.488-2.238 5.707 0 2.452 2 4.439 4.476 4.439 2.472 0 4.476-1.987 4.476-4.439 0-2.219-2.238-2.536-2.238-5.707 0-1.405-.903-2.536-2.238-2.536" fill="#fff"/><g fill="#eab108"><path d="m12.641 26.429c-.225-.036-.424-.103-.859-.291-.648-.28-.951-.371-2.138-.642-.592-.135-.813-.195-1.326-.361-.187-.06-.436-.138-.554-.171-.319-.092-.404-.128-.521-.22-.16-.126-.234-.319-.205-.535.018-.138.067-.271.2-.55.178-.373.62-.507.647-.874.016-.216.003-.459-.052-.964-.032-.299-.04-.409-.04-.6 0-.207.002-.063.023-.142.08-.296.141-.466.423-.54.082-.022-.089-.025.295-.032.239-.008.377-.013.408-.021.166-.038.286-.1.399-.207.107-.102.18-.654.32-.902.218-.384.647-.38.997-.394.099.021.132.034.241.097.11.063.14.088.236.19.24.255.354.413.891 1.227.426.645.556.852.728 1.155.187.33.524.859.649 1.019.021.028.151.192.288.366.137.174.263.337.279.362.258.36.439.773.503 1.186.022.144.022.168.01.333-.015.209-.029.299-.051.344-.009.019-.029.069-.044.111-.197.549-.689.962-1.258 1.055-.121.02-.361.02-.49 0"/><path d="m21.365 26.18c.172-.121.309-.256.592-.585.422-.491.411-.687 1.283-1.39.435-.35.593-.489.95-.833.13-.125.305-.289.388-.364.227-.204.282-.268.341-.39.08-.167.061-.354-.052-.517-.073-.105-.168-.193-.394-.364-.302-.229-.389-.427-.564-.712-.103-.168.031-.594-.133-1.026-.097-.255-.137-.348-.215-.502-.085-.167-.103-.196-.153-.251-.189-.207-.399-.277-.664-.222-.077.016-.122.035-.443.185-.201.093-.38.173-.409.18-.153.037-.279.035-.417-.008-.131-.039-.235.234-.454.09-.15-.098-.311-.221-.426-.252-.16-.044-.159-.044-.309-.028-.144.018-.25.059-.367.15-.074.057-.095.082-.16.177-.065.096-.08.129-.117.249-.093.304-.122.478-.23 1.356-.086.696-.108.916-.125 1.231-.018.343-.078.909-.116 1.09-.006.031-.046.217-.087.414-.042.197-.078.38-.081.407-.065.396-.043.805.075 1.166.042.125.051.145.13.274.1.163.148.23.186.258.015.011.052.043.083.072.392.365.97.498 1.481.342.109-.033.308-.131.406-.199z"/></g><circle r="1.492" cx="14.493" cy="9.285" fill="#fff"/><circle r=".746" cy="9.285" cx="14.493" fill="#323232"/><path d="m18.223 11.151c0 1.442-1 2.611-2.238 2.611-1.236 0-2.238-1.169-2.238-2.611z" fill="#f77d00"/><circle cy="9.285" cx="17.477" r="1.492" fill="#fff"/><circle cx="17.477" cy="9.285" r=".746" fill="#323232"/><path d="m18.223 11.275c0 .249-1 1.741-2.238 1.741-1.236 0-2.238-1.492-2.238-1.741 0-.687 1-1.243 2.238-1.243 1.236 0 2.238.557 2.238 1.243" fill="#eab108"/><path d="m21.544 21.259c-.859 0-.866-.714-1.037-1.556-.191-.937-.313-1.478 1.183-1.556 1.295-.426 1.495 3.062-.146 3.112" fill="#5095ab"/>

   xmlns:dc="http://purl.org/dc/elements/1.1/"
   xmlns:cc="http://creativecommons.org/ns#"
   xmlns:rdf="http://www.w3.org/1999/02/22-rdf-syntax-ns#"
   xmlns:svg="http://www.w3.org/2000/svg"
   xmlns="http://www.w3.org/2000/svg"
   xmlns:xlink="http://www.w3.org/1999/xlink"
   xmlns:sodipodi="http://sodipodi.sourceforge.net/DTD/sodipodi-0.dtd"
   xmlns:inkscape="http://www.inkscape.org/namespaces/inkscape"
   version="1"
   width="32"
   height="32"
   id="svg12"
   sodipodi:docname="snow-top-1.svg"
   inkscape:version="0.92.1 r"&gt;
  <path d="m7.288.009c-8.276-.356-9.36 9.992-4.02 9.973.679.003 1.604-.207 2.97-1.543 7.256-10.531 14.706 3.573 17.53.919 1.71-1.912 3.496-.418 4.448.115 2.1.643 3.662.041 3.785-3.231.188-3.321-1.889-6.344-5.923-6.223-5.914.14-12.989-.047-18.787-.01" fill="url(#0)"/><path fill="#f00" fill-opacity="0" d="m0 0h32v32h-32z"/></svg>