<svg xmlns="http://www.w3.org/2000/svg" xmlns:xlink="http://www.w3.org/1999/xlink" viewBox="0 0 32 32"><defs><linearGradient id="4" x1="-178.12" y1="-134.12" x2="-183.59" y2="-135.1" gradientUnits="userSpaceOnUse"><stop stop-color="#7c0000"/><stop offset="1" stop-color="#7c0000" stop-opacity="0"/></linearGradient><linearGradient id="3" x1="-189.8" y1="-142.57" x2="-175.35" y2="-130.4" gradientUnits="userSpaceOnUse"><stop stop-color="#ff383f"/><stop offset="1" stop-color="#a02d26"/></linearGradient><linearGradient id="2"><stop stop-color="#f9f9f9"/><stop offset="1" stop-color="#999"/></linearGradient><linearGradient xlink:href="#2" id="1" x1="-188.02" y1="-134.18" x2="-190.66" y2="-126.24" gradientUnits="userSpaceOnUse"/><radialGradient xlink:href="#2" id="5" cx="-176.59" cy="-120.91" r="3.01" gradientUnits="userSpaceOnUse" gradientTransform="matrix(2.21087.05719-.05496 2.12455 207.3 145.17)"/></defs><rect width="28.2" height="28.2" x="1.898" y="1.898" fill="#54abed" fill-rule="evenodd" rx="5.575"/><g stroke-width=".84"><path d="m6.25 7.983c-.646 0-1.166.515-1.166 1.155v13.688c0 .64.52 1.113 1.166 1.113h7.231l2.519 2.519 2.519-2.519h7.231c.646 0 1.166-.473 1.166-1.113v-13.688c0-.64-.52-1.155-1.166-1.155z" fill="#fff"/><path d="m22.718 11.792c-.494.219-1.026.367-1.583.434.569-.341 1.01-.881 1.212-1.525-.533.316-1.123.545-1.75.669-.503-.536-1.219-.87-2.01-.87-1.522 0-2.757 1.234-2.757 2.756 0 .216.024.426.071.628-2.291-.115-4.322-1.212-5.682-2.88-.237.407-.373.881-.373 1.386 0 .956.487 1.8 1.226 2.294-.452-.014-.877-.138-1.249-.345 0 .011 0 .023 0 .035 0 1.336.95 2.45 2.211 2.703-.231.063-.475.097-.726.097-.178 0-.35-.017-.519-.049.351 1.095 1.369 1.892 2.575 1.914-.943.739-2.132 1.18-3.424 1.18-.223 0-.442-.013-.658-.038 1.221.783 2.67 1.239 4.226 1.239 5.07 0 7.843-4.2 7.843-7.843 0-.12-.003-.238-.008-.357.539-.389 1.01-.874 1.376-1.427" fill="#54abed"/></g><path d="m32 .157l-.27 2.221-.122-2.378" fill="#f9f9f9" id="0"/><use xlink:href="#0"/><path d="m32 .113l-.27 1.6-.122-1.713" fill="#f9f9f9"/><g transform="matrix(-1 0 0 1-172.76 143.72)"><path d="m-190.09-143.27c-5.577-1.531-5.951 3.24-4.58 5.493 4.381 6.983 6.796 6.577 9.398 7.895 1.712 2.064 3.451 3.4 6.469 4.1 11.69 1.559 3.242-8.417.92-8.649-5.065.012-7.547-6.123-12.206-8.838" fill="url(#1)"/><path d="m-190.09-143.27c3.76.276 5.616-.626 8.93-.421 4.319.283 8.307 2.053 7.838 6.574-.347 2.567-.37 2.25.186 4.296.532 1.535-.252 4.232-.487 4.654-2.715 4.963-1.536 4.965-2.656 7.742l-.906-.418-2.508-11.358c-7.177-.909-10.754-10.11-10.398-11.07" fill="url(#3)"/><path d="m-183.3-133.33c.362.274 1.553-5.105 1.172-5.653 1.379 2.44 1.919 4.616 2.435 6.783-1.276-.283-2.289-.554-3.607-1.13" fill="url(#4)"/><circle r="3.01" cy="-120.11" cx="-176.61" fill="url(#5)"/></g></svg>