<svg xmlns="http://www.w3.org/2000/svg" viewBox="0 0 32 32" xmlns:xlink="http://www.w3.org/1999/xlink"><defs><linearGradient xlink:href="#3" id="4" gradientUnits="userSpaceOnUse" x1="-23.24" y1="-185.08" x2="-28.704" y2="-186.05"/><linearGradient xlink:href="#3" id="2" gradientUnits="userSpaceOnUse" x1="-34.914" y1="-193.53" x2="-20.469" y2="-181.36"/><linearGradient id="3"><stop stop-color="#ffff5e"/><stop offset="1" stop-color="#f6a32d"/></linearGradient><linearGradient id="1"><stop stop-color="#f9f9f9"/><stop offset="1" stop-color="#999"/></linearGradient><linearGradient xlink:href="#1" id="0" gradientUnits="userSpaceOnUse" x1="-33.14" y1="-185.13" x2="-35.775" y2="-177.2"/><radialGradient xlink:href="#1" id="5" cx="-176.59" cy="-120.91" r="3.01" gradientUnits="userSpaceOnUse" gradientTransform="matrix(2.21087.05719-.05496 2.12455 362.18 94.22)"/></defs><rect width="28.2" height="28.2" x="1.898" y="1.898" fill="#e6e6e6" fill-rule="evenodd" rx="5.575"/><g transform="matrix(.55023 0 0 .55023-17.14 41.938)" stroke-width="1.817"><path d="m62.822-28.527c1.643-.186 2.73-.413 4.074-.85 3.401-1.105 6.07-3.051 7.866-5.745 1.184-1.772 1.883-3.643 2.255-6.03.097-.624.209-3.845.133-3.845-.021 0-.07.12-.109.266-.128.482-.681 1.801-1.1 2.623-.759 1.493-1.559 2.586-2.689 3.676-.762.736-1.211 1.088-2.044 1.604-2.511 1.557-5.82 2.285-9.483 2.085-2.467-.135-4.326-.598-6.05-1.508-.319-.168-.591-.306-.606-.306-.05 0 .227.915.446 1.469.853 2.166 2.635 4.34 4.616 5.63.576.375 1.721 1.023 1.813 1.025.034.001.428-.04.875-.09" fill="#98999e"/><path d="m60.1-28.418c-.002-.026-.258-.213-.567-.417-.957-.629-2.202-1.798-3.01-2.824-1.331-1.695-2.113-3.431-2.504-5.559-.137-.748-.138-.777-.138-8.643v-7.893h-1.047-1.047l-.016 3.892-.016 3.892h-1.063-1.063v-2.313-2.313l-1.046-.017-1.046-.017-.017 1.049-.017 1.049h-1.047-1.047l-.016-5.783-.016-5.783-.716-.021c-.394-.012-.866-.002-1.05.02l-.334.042.022 9.138c.024 9.925.002 9.267.367 11.01.55 2.637 2 5.232 3.966 7.088.526.497 1.954 1.633 2.052 1.633.017 0 .154.083.303.184.15.101.566.338.925.526 2.02 1.061 4.468 1.751 6.999 1.974.43.038.88.078 1 .089.456.043 1.188.039 1.183-.006m-10.498-25.366v-1.032h-1.032-1.032v1.032 1.032h1.032 1.032zm2.126-3.126v-1.032h-1.032-1.032v1.032 1.032h1.032 1.032zm2.132-1.672c.003-.043.008-.514.011-1.047l.005-.969-1.042-.017-1.042-.017v1.064 1.064h1.032c.78 0 1.033-.019 1.037-.078m-4.257-2.02v-1.032h-1.032-1.032v1.032 1.032h1.032 1.032zm2.126-2.126v-1.032h-1.032-1.032v1.032 1.032h1.032 1.032zm-6.391-2.128l.017-1.03h-1.033-1.033v1.027c0 1.211-.137 1.086 1.157 1.054l.875-.022z" fill="#1d97d8"/><path d="m67.67-36.23c1.288-.348 2.563-.947 3.658-1.717 1.906-1.34 3.396-3.309 4.432-5.855.275-.676.547-1.5 1.139-3.447l.274-.901v-8.877-8.877l-1.047.044c-3.901.163-6.377.883-7.853 2.284-.615.583-1.03 1.23-1.286 2.01-.361 1.089-.335.231-.379 12.534-.042 11.825-.031 11.313-.285 12.89l-.042.262.398-.093c.219-.051.665-.165.992-.253" fill="#050507"/></g><g transform="translate(49.877 194.68)"><path d="m-35.21-194.22c-5.577-1.531-5.951 3.24-4.58 5.493 4.381 6.983 6.796 6.577 9.398 7.895 1.712 2.064 3.451 3.4 6.469 4.1 11.69 1.559 3.242-8.417.92-8.649-5.065.012-7.547-6.123-12.206-8.838" fill="url(#0)"/><path d="m-35.21-194.22c3.76.276 5.616-.626 8.93-.421 4.319.283 8.307 2.053 7.838 6.574-.347 2.567-.37 2.25.186 4.296.532 1.535-.252 4.232-.487 4.654-2.715 4.963-1.536 4.965-2.656 7.742l-.906-.418-2.508-11.358c-7.177-.909-10.754-10.11-10.398-11.07" fill="url(#2)"/><path d="m-28.419-184.29c.362.274 1.553-5.105 1.172-5.653 1.379 2.44 1.919 4.616 2.435 6.783-1.276-.283-2.289-.554-3.607-1.13" fill="url(#4)"/><circle r="3.01" cy="-171.07" cx="-21.728" fill="url(#5)"/></g></svg>