<svg xmlns="http://www.w3.org/2000/svg" viewBox="0 0 32 32"><defs><linearGradient gradientTransform="matrix(2.59244 0 0 2.58531-157.93-277.73)" id="0" x1="67.894" y1="108.69" x2="67.854" y2="113.11" gradientUnits="userSpaceOnUse"><stop stop-color="#f9f9f9"/><stop offset="1" stop-color="#999"/></linearGradient></defs><rect width="28.2" height="28.2" x="1.898" y="1.898" fill="#7ec639" fill-rule="evenodd" rx="5.575"/><g transform="translate(46.09 3.343)" fill="#4d4d4d"><path d="m-21.801343 11.656716a8 8 0 0 0 -2.895 -5.1992c-.325.122-.67.199-1.035.199-1.258 0-2.34-.795-2.783-1.902a8 8 0 0 0 -1.217 -.0977 8 8 0 0 0 -3.104 .627l1.521 2.637a5 5 0 0 1 1.582 -.264 5 5 0 0 1 4.8945 4h3.035m-.001 2h-3.03a5 5 0 0 1 -4.8984 4 5 5 0 0 1 -1.582 -.26172l-1.518 2.629a8 8 0 0 0 3.099 .633 8 8 0 0 0 1.221 -.105c.444-1.104 1.524-1.895 2.779-1.895.366 0 .713.077 1.039.199a8 8 0 0 0 2.889 -5.199m-1.9278-10.0004a2 2 0 0 0 -2 -2 2 2 0 0 0 -2 2 2 2 0 0 0 2 2 2 2 0 0 0 2 -2m0 18a2 2 0 0 0 -2 -2 2 2 0 0 0 -2 2 2 2 0 0 0 2 2 2 2 0 0 0 2 -2m-9.312-12.736l-1.518-2.629a8 8 0 0 0 -2.918 4.4122c.459.528.748 1.206.748 1.953 0 .746-.288 1.424-.746 1.951a8 8 0 0 0 2.9141 4.418l1.52-2.631a5 5 0 0 1 -1.688 -3.738 5 5 0 0 1 1.688 -3.736m-4.68806 3.7357a2 2 0 0 0 -2 -2 2 2 0 0 0 -2 2 2 2 0 0 0 2 2 2 2 0 0 0 2 -2" stroke-width="4"/><path d="m-30.731 8.657l-.088 1.054a3.1429 3.1429 0 0 0 -.91852 .53126l-.958-.451-1 1.732.869.604a3.1429 3.1429 0 0 0 -.048 .53013 3.1429 3.1429 0 0 0 .0457 .53237l-.867.602 1 1.732.955-.45a3.1429 3.1429 0 0 0 .92075 .5279l.088 1.056h2l.088-1.054a3.1429 3.1429 0 0 0 .91854 -.53126l.958.451 1-1.732-.869-.604a3.1429 3.1429 0 0 0 .048 -.53013 3.1429 3.1429 0 0 0 -.0457 -.53237l.867-.602-1-1.732-.955.45a3.1429 3.1429 0 0 0 -.92076 -.5279l-.088-1.056h-2m1.00001 2.8572a1.1429 1.1429 0 0 1 1.1429 1.1428 1.1429 1.1429 0 0 1 -1.1429 1.1428 1.1429 1.1429 0 0 1 -1.1429 -1.1428 1.1429 1.1429 0 0 1 1.1428 -1.1428"/></g>

   xmlns:dc="http://purl.org/dc/elements/1.1/"
   xmlns:cc="http://creativecommons.org/ns#"
   xmlns:rdf="http://www.w3.org/1999/02/22-rdf-syntax-ns#"
   xmlns:svg="http://www.w3.org/2000/svg"
   xmlns="http://www.w3.org/2000/svg"
   xmlns:xlink="http://www.w3.org/1999/xlink"
   xmlns:sodipodi="http://sodipodi.sourceforge.net/DTD/sodipodi-0.dtd"
   xmlns:inkscape="http://www.inkscape.org/namespaces/inkscape"
   version="1"
   width="32"
   height="32"
   id="svg12"
   sodipodi:docname="snow-top-4.svg"
   inkscape:version="0.92.1 r"&gt;
  <path d="m7.196.009c-8.161-.339-9.231 9.523-3.968 9.505.669.003 1.581-.197 2.929-1.471 3.773-4.147 9.01 4.479 14.696-1.042.61-.911 1.804-1.135 2.455-.627 1.045.677 2.87 2.991 3.88 3 2.359.513 4.095-.198 4.816-3.188.185-3.165-2.303-6.286-6.281-6.17-5.832.133-12.809-.045-18.527-.01" fill="url(#0)"/></svg>