<svg xmlns="http://www.w3.org/2000/svg" viewBox="0 0 32 32" xmlns:xlink="http://www.w3.org/1999/xlink"><defs><linearGradient xlink:href="#3" id="4" gradientUnits="userSpaceOnUse" x1="27.558" y1="-133.46" x2="22.09" y2="-134.43"/><linearGradient xlink:href="#3" id="2" gradientUnits="userSpaceOnUse" x1="15.879" y1="-141.91" x2="30.32" y2="-129.74"/><linearGradient id="3"><stop stop-color="#55c03f"/><stop offset="1" stop-color="#198b26"/></linearGradient><linearGradient id="1"><stop stop-color="#f9f9f9"/><stop offset="1" stop-color="#999"/></linearGradient><linearGradient xlink:href="#1" id="0" gradientUnits="userSpaceOnUse" x1="17.658" y1="-133.51" x2="15.02" y2="-125.58"/><radialGradient xlink:href="#1" id="5" cx="-176.59" cy="-120.91" r="3.01" gradientUnits="userSpaceOnUse" gradientTransform="matrix(2.21087.05719-.05496 2.12455 412.97 145.84)"/></defs><rect width="28.2" height="28.2" x="1.898" y="1.898" fill="#243a85" fill-rule="evenodd" rx="5.575"/><path d="m16.394 25.03c-2.32-.302-4.54-.985-5.875-2.137-.379-.326-1.135-1.118-1.069-1.14.216.042.669.242 1.11.254.441.012.673-.454.89-.809v-3.732c0-4.115.094-4.045-.197-4.299-.353-.309-1.398-.212-2.102.259-1.074.719-2.354 2.315-3.263 3.973-.161.295-.307.548-.324.564-.017.016-.02-.304-.007-.711.035-1.121.244-1.905.814-3.063.52-1.056.782-1.338 1.892-2.546 1.841-2.01 3.658-3.391 5.455-4.16.425-.182 1.741-.531 1.832-.531.015 0-.62.37-.769.479-.891.65-1.198 1.103-1.328 1.895-.096.586.236 1.299.495 1.588.134.15.183.176.369.194.255-.027.869-.133 1.132-.155v9.3c0 .7.299.744.994.744.707 0 1.307-.532 2.01-.986v-7.833l-.248-.897c-.102-.37-.379-.813-.752-1.328.716.013 1.174.87 1.8 1.1 1.825-1.445 3.116-2.618 5.2-3.1-.908 1.438-1.03 2.051-2 3.45v8.37c.099.119.619.269.862.29 1.647-.234 2.044-1.161 3.138-2.11.032.032-.849 1.695-1.221 2.252-1.134 1.699-2.766 2.76-4.275 3.72-.283.18-.286.181-.385.103-.713-.325-1.119-.501-1.949-1.13-.81.771-1.204 1.335-2.049 2.154-.027-.003-.106-.014-.176-.023" fill="#fff"/><g transform="translate(-.916 143.06)"><path d="m15.583-142.61c-5.577-1.531-5.951 3.24-4.58 5.493 4.381 6.983 6.796 6.577 9.398 7.895 1.712 2.064 3.451 3.4 6.469 4.1 11.69 1.559 3.242-8.417.92-8.649-5.065.012-7.547-6.123-12.206-8.838" fill="url(#0)"/><path d="m15.583-142.61c3.76.276 5.616-.626 8.93-.421 4.319.283 8.307 2.053 7.838 6.574-.347 2.567-.37 2.25.186 4.296.532 1.535-.252 4.232-.487 4.654-2.715 4.963-1.536 4.965-2.656 7.742l-.906-.418-2.508-11.358c-7.177-.909-10.754-10.11-10.398-11.07" fill="url(#2)"/><path d="m22.374-132.67c.362.274 1.553-5.105 1.172-5.653 1.379 2.44 1.919 4.616 2.435 6.783-1.276-.283-2.289-.554-3.607-1.13" fill="url(#4)"/><circle r="3.01" cy="-119.45" cx="29.06" fill="url(#5)"/></g></svg>