<svg xmlns="http://www.w3.org/2000/svg" viewBox="0 0 32 32"><rect width="28.2" height="28.2" x="1.898" y="1.898" fill="#999" fill-rule="evenodd" rx="5.575"/><path d="m15.361 23.566c-.92-.124-1.541-.262-1.59-.354-.084-.157-.42-1.961-.573-3.071-.084-.609-.206-1.843-.185-1.864.007-.007.211.109.452.259 2.057 1.276 4.413 2.373 6.709 3.124.285.093.544.179.575.19.071.026.02.068-.533.442-.977.661-2.112 1.081-3.351 1.241-.412.053-1.217.07-1.503.032m-2.365-.601c-1.687-.733-3.035-2.027-3.829-3.675-.217-.45-.453-1.091-.531-1.438l-.036-.162.471-.422c1.014-.907 2.357-1.977 3.177-2.53l.278-.187v1.386c.002 2.442.222 4.58.691 6.692.053.239.09.441.083.449-.008.008-.145-.043-.305-.113m7.255-1.707c-.935-.311-2.051-.74-2.78-1.068-.884-.397-.978-.443-.978-.472 0-.016.186-.128.412-.247.344-.182 1.076-.601 1.659-.951 1.318-.791 3.244-2.239 4.512-3.39.193-.175.367-.319.387-.319.049 0 .125.736.125 1.206 0 .806-.224 1.968-.523 2.721-.394.989-.987 1.91-1.65 2.562l-.262.257zm-.79-5.21c-.004-1.8-.085-2.954-.326-4.631-.097-.673-.345-2.035-.44-2.413l-.025-.101.194.077c.373.147.965.464 1.337.716 1.525 1.033 2.642 2.572 3.096 4.272l.091.342-.479.431c-.263.237-.715.629-1 .87-.714.597-2.338 1.809-2.423 1.809-.011 0-.022-.617-.023-1.371m-10.958 1.112c-.01-.016-.039-.27-.065-.566-.115-1.322.165-2.761.777-3.985.345-.689.902-1.468 1.396-1.949l.225-.22.959.322c.527.177 1.278.45 1.668.607.864.346 2.033.873 2.033.916 0 .017-.121.092-.269.167-.433.218-1.484.829-2.097 1.22-1.556.99-2.93 2.033-4.215 3.199-.355.322-.38.34-.412.288m10.367-3.475c-.09-.084-1.15-.711-1.859-1.1-1.526-.836-3.364-1.635-5.062-2.2-.359-.119-.678-.226-.709-.237-.07-.025-.017-.069.517-.43 1.111-.751 2.297-1.16 3.714-1.279.81-.068 1.5.001 2.627.264.049.011.105.057.123.102.096.231.377 1.712.534 2.823.088.621.231 1.905.231 2.078 0 .047-.054.037-.116-.021" fill="#fff"/><path d="m16 6.518c-5.23 0-9.482 4.252-9.482 9.482 0 5.23 4.252 9.482 9.482 9.482 5.23 0 9.482-4.252 9.482-9.482 0-5.23-4.252-9.482-9.482-9.482m0 1.161c4.603 0 8.322 3.719 8.322 8.322 0 4.603-3.719 8.322-8.322 8.322-4.603 0-8.322-3.719-8.322-8.322 0-4.603 3.719-8.322 8.322-8.322" shape-rendering="auto" mix-blend-mode="normal" isolation="auto" color-interpolation-filters="linearRGB" white-space="normal" fill="#487aae" solid-opacity="1" image-rendering="auto" solid-color="#000000" color="#000" fill-rule="evenodd" color-rendering="auto" vector-effect="none" shape-padding="0" color-interpolation="sRGB"/>

   xmlns:dc="http://purl.org/dc/elements/1.1/"
   xmlns:cc="http://creativecommons.org/ns#"
   xmlns:rdf="http://www.w3.org/1999/02/22-rdf-syntax-ns#"
   xmlns:svg="http://www.w3.org/2000/svg"
   xmlns="http://www.w3.org/2000/svg"
   xmlns:sodipodi="http://sodipodi.sourceforge.net/DTD/sodipodi-0.dtd"
   xmlns:inkscape="http://www.inkscape.org/namespaces/inkscape"
   height="32"
   width="32"
   version="1"
   id="svg8"
   sodipodi:docname="star-mime-2.svg"
   inkscape:version="0.92.1 r"&gt;
  <g transform="translate(152.47 194.05)" fill="#fff"><path d="m-125.38-193.25l-.077 3.548 3.072 1.831-3.548-.077-3.135 6.791 1.38-7.268-3.072-1.831 3.548.077z"/><path d="m-125.41-183.04l.042-1.955-1.692-1.01 1.955.042 1.727-3.741-.76 4 1.692 1.01-1.955-.042z"/></g></svg>