<svg xmlns="http://www.w3.org/2000/svg" viewBox="0 0 32 32"><defs><linearGradient gradientTransform="matrix(2.62891 0 0 2.71269-160.16-291.42)" id="0" x1="67.894" y1="108.69" x2="67.854" y2="113.11" gradientUnits="userSpaceOnUse"><stop stop-color="#f9f9f9"/><stop offset="1" stop-color="#999"/></linearGradient></defs><rect width="28.2" height="28.2" x="1.898" y="1.898" fill="#29dc47" fill-rule="evenodd" rx="5.575"/><path d="m14.32 24.21c-1.241-.779-2.257-1.444-2.258-1.477-.002-.064 4.503-2.899 4.607-2.899.034 0 .062.332.062.738v.738l.369-.069c1.168-.219 2.392-1.01 3.179-2.048 1.431-1.891 1.442-4.477.027-6.369-.254-.339-.449-.644-.435-.678.015-.034.447-.445.961-.914l.934-.853.501.549c.688.754 1.381 2.206 1.632 3.422.253 1.225.252 2.063-.002 3.293-.633 3.069-3.17 5.626-6.18 6.229l-.934.187-.03.794c-.017.437-.063.789-.104.783-.04-.006-1.089-.648-2.329-1.427m-4.676-3.249c-1.033-1.315-1.733-3.32-1.733-4.967 0-2.385 1.284-4.969 3.184-6.407 1.081-.818 2.666-1.484 3.82-1.605l.311-.033.03-.812c.017-.446.067-.797.112-.779.228.093 4.578 2.845 4.579 2.897.002.063-4.513 2.897-4.614 2.897-.031 0-.056-.327-.056-.727 0-.851 0-.851-1.038-.483-.871.308-1.471.693-2.093 1.342-1.835 1.914-2.01 4.809-.412 6.924.236.312.425.593.421.623-.01.071-1.838 1.708-1.939 1.738-.042.012-.3-.262-.573-.609" fill-opacity=".668"/>

   xmlns:dc="http://purl.org/dc/elements/1.1/"
   xmlns:cc="http://creativecommons.org/ns#"
   xmlns:rdf="http://www.w3.org/1999/02/22-rdf-syntax-ns#"
   xmlns:svg="http://www.w3.org/2000/svg"
   xmlns="http://www.w3.org/2000/svg"
   xmlns:xlink="http://www.w3.org/1999/xlink"
   xmlns:sodipodi="http://sodipodi.sourceforge.net/DTD/sodipodi-0.dtd"
   xmlns:inkscape="http://www.inkscape.org/namespaces/inkscape"
   version="1"
   width="32"
   height="32"
   id="svg12"
   sodipodi:docname="snow-top-1.svg"
   inkscape:version="0.92.1 r"&gt;
  <path d="m7.288.009c-8.276-.356-9.36 9.992-4.02 9.973.679.003 1.604-.207 2.97-1.543 7.256-10.531 14.706 3.573 17.53.919 1.71-1.912 3.496-.418 4.448.115 2.1.643 3.662.041 3.785-3.231.188-3.321-1.889-6.344-5.923-6.223-5.914.14-12.989-.047-18.787-.01" fill="url(#0)"/><path fill="#f00" fill-opacity="0" d="m0 0h32v32h-32z"/></svg>