<svg xmlns="http://www.w3.org/2000/svg" viewBox="0 0 32 32"><defs><linearGradient gradientTransform="matrix(2.59244 0 0 2.58531-157.93-277.73)" id="0" x1="67.894" y1="108.69" x2="67.854" y2="113.11" gradientUnits="userSpaceOnUse"><stop stop-color="#f9f9f9"/><stop offset="1" stop-color="#999"/></linearGradient></defs><rect width="28.2" height="28.2" x="1.898" y="1.898" fill="#dfd4d3" fill-rule="evenodd" rx="5.575"/><path d="m13.539 26.508c-.1-.033-1.165-.468-2.943-1.202-.429-.177-.802-.342-.829-.367-.027-.025.159-.533.414-1.13l.463-1.085-.201-.148c-.11-.082-.489-.445-.84-.807l-.64-.659-1.063.448c-.584.246-1.084.427-1.111.403-.062-.058-.98-2.261-.98-2.353 0-.043 1.13-.068 3.02-.068h3.02l.393.359c.546.499 1.34.946 2.026 1.14.816.231 2.113.234 2.906.006 1.836-.528 3.22-1.937 3.709-3.775.194-.729.179-2.022-.031-2.695-.565-1.808-1.822-3.058-3.655-3.633-.741-.233-2.129-.23-2.881.005-.782.244-1.563.676-2.082 1.152l-.458.42h-2.993c-2.821 0-2.991-.007-2.948-.124.295-.812.947-2.284 1.012-2.285.046-.001.539.19 1.095.425.556.235 1.031.418 1.055.408.024-.011.21-.203.412-.427.202-.224.551-.574.775-.776.224-.202.417-.405.429-.449.011-.045-.173-.539-.409-1.099-.236-.56-.405-1.041-.375-1.07.092-.089 3.732-1.556 3.803-1.532.037.012.262.483.501 1.047l.435 1.025h1.182 1.182l.448-1.048c.523-1.224.33-1.159 1.725-.583 2.282.942 2.623 1.093 2.61 1.153-.008.035-.203.519-.435 1.075l-.421 1.01.85.844.85.844 1.016-.425c.559-.234 1.051-.425 1.094-.425.043 0 .109.072.146.16.788 1.851 1.485 3.632 1.44 3.677-.032.032-.521.248-1.086.479-.843.345-1.024.444-1.01.552.011.072.025.601.032 1.174l.011 1.042 1.05.439c.577.241 1.05.467 1.05.501 0 .034-.163.45-.362.923-.199.474-.484 1.184-.632 1.577-.317.84-.549 1.39-.589 1.39-.015 0-.476-.189-1.024-.421-.548-.231-1.042-.431-1.097-.443-.056-.012-.263.169-.46.403-.198.234-.552.585-.788.78-.236.195-.431.378-.433.407-.002.029.188.5.422 1.047.234.547.425 1.034.424 1.083-.001.048-.424.26-.94.471-.516.211-1.337.549-1.825.752-.488.203-.954.391-1.038.417-.138.043-.184-.033-.522-.859-.58-1.416-.361-1.253-1.693-1.257l-1.142-.004-.067.177c-.18.479-.789 1.875-.838 1.918-.03.027-.103.034-.161.015" fill="#813352"/><path d="m1.898 19.603h13.895c.499 0 .973-.099 1.404-.281.431-.182.819-.446 1.145-.771.326-.326.59-.713.771-1.145.182-.431.281-.905.281-1.404 0-.499-.099-.975-.281-1.406-.182-.431-.446-.819-.771-1.145-.326-.326-.713-.588-1.145-.77-.431-.182-.905-.283-1.404-.283h-13.895" fill="#d1c0bf" fill-rule="evenodd"/><circle r="2.227" cy="16" cx="16" fill="#373737"/><circle r="1.625" cy="16" cx="16" fill="#ff8600"/><path d="m4.02 18.365c-.122-.122-.122-4.602 0-4.723.058-.058.402-.085 1.085-.085.683 0 1.027.027 1.085.085.055.055.085.334.085.78v.695h-.355-.355v-.426-.426h-.496-.496v1.738 1.738h.496.496v-.461-.461h.355.355v.698c0 .947.018.933-1.215.933-.649 0-.983-.027-1.041-.085m3.01-.048c-.099-.109-.116-.253-.1-.798l.021-.665.337-.022.337-.022v.465.465h.461.461v-.404-.404l-.816-.826-.816-.826v-.745c0-1-.026-.98 1.215-.98.649 0 .983.027 1.041.085.054.054.085.326.085.745v.66h-.355-.355v-.39-.39h-.461-.461v.382.382l.816.779.816.779v.814c0 1.077.032 1.049-1.183 1.049-.812 0-.938-.016-1.043-.133m2.982.003c-.104-.115-.117-.382-.117-2.329 0-2.041.009-2.208.13-2.317.108-.097.298-.117 1.121-.117.676 0 1.018.027 1.076.085.055.055.085.334.085.78v.695h-.355-.355v-.426-.426h-.496-.496v1.738 1.738h.496.496v-.461-.461h.355.355v.698c0 .947.019.933-1.218.933-.839 0-.973-.016-1.076-.13" fill="#813352"/>

   xmlns:dc="http://purl.org/dc/elements/1.1/"
   xmlns:cc="http://creativecommons.org/ns#"
   xmlns:rdf="http://www.w3.org/1999/02/22-rdf-syntax-ns#"
   xmlns:svg="http://www.w3.org/2000/svg"
   xmlns="http://www.w3.org/2000/svg"
   xmlns:xlink="http://www.w3.org/1999/xlink"
   xmlns:sodipodi="http://sodipodi.sourceforge.net/DTD/sodipodi-0.dtd"
   xmlns:inkscape="http://www.inkscape.org/namespaces/inkscape"
   version="1"
   width="32"
   height="32"
   id="svg12"
   sodipodi:docname="snow-top-4.svg"
   inkscape:version="0.92.1 r"&gt;
  <path d="m7.196.009c-8.161-.339-9.231 9.523-3.968 9.505.669.003 1.581-.197 2.929-1.471 3.773-4.147 9.01 4.479 14.696-1.042.61-.911 1.804-1.135 2.455-.627 1.045.677 2.87 2.991 3.88 3 2.359.513 4.095-.198 4.816-3.188.185-3.165-2.303-6.286-6.281-6.17-5.832.133-12.809-.045-18.527-.01" fill="url(#0)"/></svg>