<svg xmlns="http://www.w3.org/2000/svg" viewBox="0 0 32 32"><defs><linearGradient gradientTransform="matrix(-2.65552 0 0 2.58531 193.77-277.73)" id="0" x1="67.894" y1="108.69" x2="67.854" y2="113.11" gradientUnits="userSpaceOnUse"><stop stop-color="#f9f9f9"/><stop offset="1" stop-color="#999"/></linearGradient></defs><rect width="28.2" height="28.2" x="1.898" y="1.898" fill="#8e8e8e" fill-rule="evenodd" rx="5.575"/><g transform="matrix(.79957 0 0 .79957 37.906 9.288)" stroke-width="1.251"><path d="m-22.2 14.895h-19.2c0 0 4.2 6 16.8 6 8.4 0 11.2-4.2 11.2-6.3 0-1.817 0-2.7-1.4-2.7h-6c-1.4 0-1.4 1.321-1.4 3" fill="#784421" stroke-width="1.33"/><path d="m-24.397-.105v15c0 0-6-3.428-6-7.5 0-4.072 6-7.5 6-7.5" fill="#ccc" stroke-width="1.057"/><path d="m-24.397-.105v-4l5 2z" fill="#c83737" stroke-width="2.283"/><path d="m-33.397 4.895v10c0 0-4-2.285-4-5 0-2.715 4-5 4-5" fill="#ccc" stroke-width=".705"/><g stroke-linejoin="round" stroke-linecap="round" stroke-width="1.532"><path d="m-21.397 13.561c0 0 0-.667.5-.667.5 0 .5.667.5.667v1.333h-1z" opacity=".4"/><path d="m-18.397 13.561c0 0 0-.667.5-.667.5 0 .5.667.5.667v1.333h-1z" opacity=".4"/><path d="m-15.397 13.561c0 0 0-.667.5-.667.5 0 .5.667.5.667v1.333h-1z" opacity=".4"/></g></g>

   xmlns:dc="http://purl.org/dc/elements/1.1/"
   xmlns:cc="http://creativecommons.org/ns#"
   xmlns:rdf="http://www.w3.org/1999/02/22-rdf-syntax-ns#"
   xmlns:svg="http://www.w3.org/2000/svg"
   xmlns="http://www.w3.org/2000/svg"
   xmlns:xlink="http://www.w3.org/1999/xlink"
   xmlns:sodipodi="http://sodipodi.sourceforge.net/DTD/sodipodi-0.dtd"
   xmlns:inkscape="http://www.inkscape.org/namespaces/inkscape"
   version="1"
   width="32"
   height="32"
   id="svg12"
   sodipodi:docname="snow-top-3.svg"
   inkscape:version="0.92.1 r"&gt;
  <path d="m24.627.009c8.36-.339 9.455 9.523 4.064 9.505-.686.003-1.62-.197-3-1.471-14.665-10.216-14.549 2.967-17.708.875-1.727-1.822-1.743 4.653-4.139 5.127-2.122.613-3.699-1.385-3.824-4.503-.366-8.627 4.086-9.427 7.187-9.524 5.974.133 11.562-.045 17.419-.01" fill="url(#0)"/></svg>