<svg xmlns="http://www.w3.org/2000/svg" viewBox="0 0 32 32"><defs><linearGradient gradientTransform="matrix(-2.65552 0 0 2.58531 193.77-277.73)" id="0" x1="67.894" y1="108.69" x2="67.854" y2="113.11" gradientUnits="userSpaceOnUse"><stop stop-color="#f9f9f9"/><stop offset="1" stop-color="#999"/></linearGradient></defs><g transform="translate(40.543 1.151)"><g stroke-width="1.198"><path d="m-10.441 20.705c-1.041-.338-1.909-.66-2.248-.688-.689-.054-1.595.164-2.416.404-.821.24-1.558.501-1.91.527-.352.026-1.569.002-2.33-.068-.761-.07-1.416-.16-1.699-.186-.283-.026-1.083-.122-1.545-.186-.462-.064-.869-.123-1.215-.154-.346-.032-1.873-.145-2.984-.213-1.111-.068-2.153-.125-2.57-.125-.418-.005-1.756.038-2.564.086-.808.049-1.504.097-1.889.084-.384-.013-1.616-.224-2.441-.379-.825-.156-1.629-.27-2.309-.131-.018.004-.062.041-.082.047v2.648h28.2z" fill="#ffbf47"/><path d="m-33.07.814c-.772 0-1.506.154-2.174.436-.667.281-1.27.69-1.773 1.193-.504.504-.91 1.104-1.191 1.771-.281.667-.438 1.402-.438 2.174v13.336c.02-.006.064-.043.082-.047.68-.139 1.483-.025 2.309.131.825.155 2.057.366 2.441.379.385.013 1.08-.035 1.889-.084.808-.048 2.147-.091 2.564-.086.418 0 1.459.057 2.57.125 1.111.068 2.638.181 2.984.213.346.032.753.091 1.215.154.462.063 1.262.159 1.545.186.283.026.938.116 1.699.186.761.07 1.978.094 2.33.068.352-.026 1.089-.287 1.91-.527.821-.24 1.727-.459 2.416-.404.339.027 1.207.35 2.248.688v-14.316c0-.772-.154-1.506-.436-2.174-.281-.667-.69-1.268-1.193-1.771-.504-.504-1.104-.912-1.771-1.193-.667-.281-1.402-.436-2.174-.436" fill="#ffd36a"/></g><path d="m-18.521 6.802c2.196 0 3.976 1.78 3.976 3.976 0 2.196-1.78 3.976-3.976 3.976-2.196 0-3.976-1.78-3.976-3.976 0-2.196 1.78-3.976 3.976-3.976" fill="#fffee4" fill-rule="evenodd" stroke-width=".994"/><path d="m-38.645 22.373v.934c0 .772.156 1.506.438 2.174.281.667.688 1.27 1.191 1.773.504.504 1.106.91 1.773 1.191.667.281 1.402.438 2.174.438h17.05c.772 0 1.506-.156 2.174-.438.667-.281 1.268-.688 1.771-1.191.504-.504.912-1.106 1.193-1.773.281-.667.436-1.402.436-2.174v-.934z" fill="#d2892e" stroke-width="1.198"/></g><g transform="matrix(.66667 0 0 .66667 6.248 7.142)" stroke-width="2.25"><circle r="7.5" cx="24.5" cy="23.5" fill="#7bbe4d" fill-rule="evenodd"/><g fill="#fff"><rect x="23" y="21" width="3" height="7" ry=".453" rx=".444"/><path transform="matrix(.52605 0 0 .43388 5.419 8.728)" d="m36.27 23.674l3.327 5.762 3.327 5.762h-6.653-6.653l3.327-5.762z"/></g></g>

   xmlns:dc="http://purl.org/dc/elements/1.1/"
   xmlns:cc="http://creativecommons.org/ns#"
   xmlns:rdf="http://www.w3.org/1999/02/22-rdf-syntax-ns#"
   xmlns:svg="http://www.w3.org/2000/svg"
   xmlns="http://www.w3.org/2000/svg"
   xmlns:xlink="http://www.w3.org/1999/xlink"
   xmlns:sodipodi="http://sodipodi.sourceforge.net/DTD/sodipodi-0.dtd"
   xmlns:inkscape="http://www.inkscape.org/namespaces/inkscape"
   version="1"
   width="32"
   height="32"
   id="svg12"
   sodipodi:docname="snow-top-3.svg"
   inkscape:version="0.92.1 r"&gt;
  <path d="m24.627.009c8.36-.339 9.455 9.523 4.064 9.505-.686.003-1.62-.197-3-1.471-14.665-10.216-14.549 2.967-17.708.875-1.727-1.822-1.743 4.653-4.139 5.127-2.122.613-3.699-1.385-3.824-4.503-.366-8.627 4.086-9.427 7.187-9.524 5.974.133 11.562-.045 17.419-.01" fill="url(#0)"/></svg>