<svg xmlns="http://www.w3.org/2000/svg" viewBox="0 0 32 32" xmlns:xlink="http://www.w3.org/1999/xlink"><defs><linearGradient xlink:href="#3" id="4" gradientUnits="userSpaceOnUse" x1="-23.24" y1="-185.08" x2="-28.704" y2="-186.05"/><linearGradient xlink:href="#3" id="2" gradientUnits="userSpaceOnUse" x1="-34.914" y1="-193.53" x2="-20.469" y2="-181.36"/><linearGradient id="3"><stop stop-color="#ffff5e"/><stop offset="1" stop-color="#f6a32d"/></linearGradient><linearGradient id="1"><stop stop-color="#f9f9f9"/><stop offset="1" stop-color="#999"/></linearGradient><linearGradient xlink:href="#1" id="0" gradientUnits="userSpaceOnUse" x1="-33.14" y1="-185.13" x2="-35.775" y2="-177.2"/><radialGradient xlink:href="#1" id="5" cx="-176.59" cy="-120.91" r="3.01" gradientUnits="userSpaceOnUse" gradientTransform="matrix(2.21087.05719-.05496 2.12455 362.18 94.22)"/></defs><g fill-rule="evenodd"><rect width="28.2" height="28.2" x="1.898" y="1.898" fill="#7cca3e" rx="5.575"/><path d="m5 11.127v7.4c0 .128.016.255.049.379 0 0 .223.854.887 1.639.663.785 1.911 1.582 3.564 1.582 1.654 0 2.901-.797 3.564-1.582.663-.785.887-1.639.887-1.639.032-.124.049-.251.049-.379v-2.749c.391.445.361.465.805.937.286.304.609.559.908.859-.006.028-.016.056-.021.084-.676 3.391-.691 7.732-.691 8.468h3c0-.494.214-2.985.471-5.193.829.622 1.655 1.148 2.77 1.191 1.721.068 3.243-.585 4.246-1.637 1-1.052 1.514-2.447 1.514-3.861 0-3-2.495-5.5-5.5-5.5-3.571.043-3.854 2.484-4.793 3.202-1.257-1.377-2.275-2.673-2.707-3.202h-3c0 0 0 .7 0 1.5v5.602c-.018.054-.042.163-.227.381-.224.265-.477.518-1.273.518-.796 0-1.049-.252-1.273-.518-.184-.218-.208-.327-.227-.381v-7.102zm16.5 3c1.195 0 2.5 1.305 2.5 2.5 0 .686-.255 1.342-.684 1.791-.429.449-1.01.748-1.957.711.047.002-.774-.292-1.629-.971-.18-.143-.387-.382-.576-.547.249-.821.454-1.756.781-2.297.545-.902.957-1.188 1.564-1.188" fill="#fff"/></g><g transform="translate(49.877 194.68)"><path d="m-35.21-194.22c-5.577-1.531-5.951 3.24-4.58 5.493 4.381 6.983 6.796 6.577 9.398 7.895 1.712 2.064 3.451 3.4 6.469 4.1 11.69 1.559 3.242-8.417.92-8.649-5.065.012-7.547-6.123-12.206-8.838" fill="url(#0)"/><path d="m-35.21-194.22c3.76.276 5.616-.626 8.93-.421 4.319.283 8.307 2.053 7.838 6.574-.347 2.567-.37 2.25.186 4.296.532 1.535-.252 4.232-.487 4.654-2.715 4.963-1.536 4.965-2.656 7.742l-.906-.418-2.508-11.358c-7.177-.909-10.754-10.11-10.398-11.07" fill="url(#2)"/><path d="m-28.419-184.29c.362.274 1.553-5.105 1.172-5.653 1.379 2.44 1.919 4.616 2.435 6.783-1.276-.283-2.289-.554-3.607-1.13" fill="url(#4)"/><circle r="3.01" cy="-171.07" cx="-21.728" fill="url(#5)"/></g></svg>