<svg xmlns="http://www.w3.org/2000/svg" viewBox="0 0 32 32" xmlns:xlink="http://www.w3.org/1999/xlink"><defs><path id="0" d="m2 9h6v12h-6" stroke-width="1.279" fill="#fff"/><path id="1" d="m3 10h4v10h-4" fill="#b0b0b0" stroke-width="1.279"/></defs><rect width="28.2" height="28.2" x="1.898" y="1.898" fill="#2a74c2" fill-rule="evenodd" rx="5.575"/><g transform="matrix(.78203 0 0 .78203 3.411 3.881)" stroke-width="1.279"><g transform="matrix(.96593-.25882.25882.96593-3.261 2.37)"><use xlink:href="#0"/><path d="m2 22h6v3h-6" fill="#fff" stroke-width="1.279"/><use xlink:href="#1"/><path d="m3 23h4v1h-4" fill="#b0b0b0" stroke-width="1.279"/></g><g transform="matrix(.96593.25882-.25882.96593 16.539-5.219)"><use xlink:href="#0"/><path d="m2 22h6v3h-6" fill="#fff" stroke-width="1.279" id="2"/><use xlink:href="#1"/><path d="m3 23h4v1h-4" fill="#b0b0b0" stroke-width="1.279" id="3"/></g><g transform="matrix(.86603.5-.5.86603 28.768 1.349)"><use xlink:href="#0"/><use xlink:href="#2"/><use xlink:href="#1"/><use xlink:href="#3"/></g></g>

   xmlns:dc="http://purl.org/dc/elements/1.1/"
   xmlns:cc="http://creativecommons.org/ns#"
   xmlns:rdf="http://www.w3.org/1999/02/22-rdf-syntax-ns#"
   xmlns:svg="http://www.w3.org/2000/svg"
   xmlns="http://www.w3.org/2000/svg"
   xmlns:sodipodi="http://sodipodi.sourceforge.net/DTD/sodipodi-0.dtd"
   xmlns:inkscape="http://www.inkscape.org/namespaces/inkscape"
   height="32"
   width="32"
   version="1"
   id="svg8"
   sodipodi:docname="star-mime-2.svg"
   inkscape:version="0.92.1 r"&gt;
  <g transform="translate(152.47 194.05)" fill="#fff"><path d="m-125.38-193.25l-.077 3.548 3.072 1.831-3.548-.077-3.135 6.791 1.38-7.268-3.072-1.831 3.548.077z"/><path d="m-125.41-183.04l.042-1.955-1.692-1.01 1.955.042 1.727-3.741-.76 4 1.692 1.01-1.955-.042z"/></g></svg>