<svg xmlns="http://www.w3.org/2000/svg" viewBox="0 0 32 32"><defs><linearGradient gradientTransform="matrix(2.62891 0 0 2.71269-160.16-291.42)" id="0" x1="67.894" y1="108.69" x2="67.854" y2="113.11" gradientUnits="userSpaceOnUse"><stop stop-color="#f9f9f9"/><stop offset="1" stop-color="#999"/></linearGradient></defs><path d="m7.473 1.898c-3.089 0-5.574 2.486-5.574 5.574v8.916h28.2v-8.916c0-3.089-2.486-5.574-5.574-5.574z" fill="#8e8e8e" fill-rule="evenodd"/><g stroke-width=".635"><path fill="#e6e6e6" d="m7.108 6.797h17.79v10.657h-17.79z"/><g fill="#666"><path d="m8.887 11.06h4.447v3.197h-4.447z"/><path d="m18.671 11.06h4.447v3.197h-4.447z"/></g></g><path d="m30.1 16.389h-28.2v8.139c0 3.089 2.486 5.574 5.574 5.574h17.05c3.089 0 5.574-2.486 5.574-5.574z" fill="#4d4d4d" fill-rule="evenodd"/><g fill="#666" stroke-width=".635"><rect width="17.05" height="2.131" x="7.477" y="20.651" rx="1.066"/><rect width="12.789" height="2.131" x="9.608" y="24.914" rx="1.066"/></g><g transform="matrix(.66667 0 0 .66667 6.533 7.358)"><circle r="7.5" cx="24.5" cy="23.5" fill="#3cd240"/><path d="m21 24l3.5 4 3.5-4h-2v-5h-3v5z" fill="#fff"/></g>

   xmlns:dc="http://purl.org/dc/elements/1.1/"
   xmlns:cc="http://creativecommons.org/ns#"
   xmlns:rdf="http://www.w3.org/1999/02/22-rdf-syntax-ns#"
   xmlns:svg="http://www.w3.org/2000/svg"
   xmlns="http://www.w3.org/2000/svg"
   xmlns:xlink="http://www.w3.org/1999/xlink"
   xmlns:sodipodi="http://sodipodi.sourceforge.net/DTD/sodipodi-0.dtd"
   xmlns:inkscape="http://www.inkscape.org/namespaces/inkscape"
   version="1"
   width="32"
   height="32"
   id="svg12"
   sodipodi:docname="snow-top-1.svg"
   inkscape:version="0.92.1 r"&gt;
  <path d="m7.288.009c-8.276-.356-9.36 9.992-4.02 9.973.679.003 1.604-.207 2.97-1.543 7.256-10.531 14.706 3.573 17.53.919 1.71-1.912 3.496-.418 4.448.115 2.1.643 3.662.041 3.785-3.231.188-3.321-1.889-6.344-5.923-6.223-5.914.14-12.989-.047-18.787-.01" fill="url(#0)"/><path fill="#f00" fill-opacity="0" d="m0 0h32v32h-32z"/></svg>