<svg xmlns="http://www.w3.org/2000/svg" viewBox="0 0 32 32"><defs><linearGradient gradientTransform="matrix(-2.65552 0 0 2.58531 193.77-277.73)" id="0" x1="67.894" y1="108.69" x2="67.854" y2="113.11" gradientUnits="userSpaceOnUse"><stop stop-color="#f9f9f9"/><stop offset="1" stop-color="#999"/></linearGradient></defs><rect width="28.2" height="28.2" x="1.898" y="1.898" fill="#256ed5" fill-rule="evenodd" rx="5.575"/><g transform="translate(-1.925-.173)"><path d="m12.59 11.392c4.151-.052 6.137-1.046 8.136-2.034 2.496 1.625 5.257 1.922 8.03 2.136 1.515 12.557-3.993 14.839-7.933 16.578-6.981-2.384-9.695-7.967-8.238-16.68" fill="#fff"/><path d="m14.338 12.987c3.247-.041 4.8-.818 6.364-1.591 1.952 1.271 4.112 1.504 6.285 1.671 1.185 9.822-3.123 11.607-6.205 12.967-5.46-1.864-7.583-6.232-6.444-13.05" fill="#c73439"/><g fill="#fff" stroke="none"><path d="m-53.3 53.757c-.628 0-1.146.519-1.146 1.146 0 .635.528 1.146 1.146 1.146.621 0 1.146-.51 1.146-1.146 0-.631-.516-1.146-1.146-1.146m-.32 3.068l-.041.01-2.361.51v1.014l1.049.195-.736 3.723-.002.004c-.058.319-.088.579-.088.789 0 .368.09.714.33.963.24.248.588.35.953.35.609 0 1.313-.183 2.104-.514l.246-.104v-1.244l-.523.168c-.408.132-.708.189-.9.189-.158 0-.229-.036-.242-.047-.013-.01-.021.001-.021-.092 0-.038.01-.133.035-.271v-.004l1.086-5.639z" shape-rendering="auto" mix-blend-mode="normal" isolation="auto" color-interpolation-filters="linearRGB" white-space="normal" solid-opacity="1" image-rendering="auto" solid-color="#000000" color="#000" color-rendering="auto" vector-effect="none" shape-padding="0" color-interpolation="sRGB" transform="matrix(1.53196 0 0 1.53196 92.66-78.08)" aria-label="i" stroke-width=".522"/><path d="m18.648 15.02l-1.726 1.726 1.965 1.965-1.965 1.967 1.726 1.726 1.967-1.965 1.965 1.965 1.726-1.726-1.967-1.967 1.967-1.965-1.726-1.726-1.965 1.967z"/></g></g>

   xmlns:dc="http://purl.org/dc/elements/1.1/"
   xmlns:cc="http://creativecommons.org/ns#"
   xmlns:rdf="http://www.w3.org/1999/02/22-rdf-syntax-ns#"
   xmlns:svg="http://www.w3.org/2000/svg"
   xmlns="http://www.w3.org/2000/svg"
   xmlns:xlink="http://www.w3.org/1999/xlink"
   xmlns:sodipodi="http://sodipodi.sourceforge.net/DTD/sodipodi-0.dtd"
   xmlns:inkscape="http://www.inkscape.org/namespaces/inkscape"
   version="1"
   width="32"
   height="32"
   id="svg12"
   sodipodi:docname="snow-top-3.svg"
   inkscape:version="0.92.1 r"&gt;
  <path d="m24.627.009c8.36-.339 9.455 9.523 4.064 9.505-.686.003-1.62-.197-3-1.471-14.665-10.216-14.549 2.967-17.708.875-1.727-1.822-1.743 4.653-4.139 5.127-2.122.613-3.699-1.385-3.824-4.503-.366-8.627 4.086-9.427 7.187-9.524 5.974.133 11.562-.045 17.419-.01" fill="url(#0)" stroke="none"/></svg>