<svg xmlns="http://www.w3.org/2000/svg" xmlns:xlink="http://www.w3.org/1999/xlink" viewBox="0 0 32 32"><defs><linearGradient gradientTransform="matrix(-2.54182 0 0 2.58531 185.47-277.37)" id="1" x1="67.894" y1="108.69" x2="67.854" y2="113.11" gradientUnits="userSpaceOnUse"><stop stop-color="#f9f9f9"/><stop offset="1" stop-color="#999"/></linearGradient></defs><rect width="28.2" height="28.2" x="1.898" y="1.898" fill="#4f4f4f" fill-rule="evenodd" rx="5.575"/><g transform="translate(47.26-1.263)"><path d="m-31.26 7.211c-2.9 0-4.833 2.01-4.833 4.953v3.086h-2.031c0 0-.868.003-.868 1.01v10.05c0 1.01.868 1.01.868 1.01h13.729c0 0 .868 0 .868-1.01v-10.05c0-1.01-.868-1.01-.868-1.01l-2.029.006-.006-3.125c.003-2.91-1.93-4.92-4.83-4.92" fill="#fff"/><g fill="#4f4f4f"><path d="m-31.26 9.53c1.708 0 3.093 1.358 3.093 3.066 0 2.062-2.191 4.64-2.706 4.667 0 0 .218-1.574-.387-1.574-1.708 0-3.093-1.385-3.093-3.093 0-1.708 1.385-3.066 3.093-3.066"/><path d="m-31.26 18.81c.961 0 1.74.779 1.74 1.74 0 .814-.561 1.492-1.316 1.682h.156c.58 0 .935.529 1.282.998.325.438.458 1.045.458 1.267v.4c-.001.012 0 .025 0 .037 0 .462-.376.836-.841.836h-2.958c-.465 0-.841-.375-.841-.837 0-.012.002-.024.002-.036-.001 0-.002-.2-.002-.4 0-.221.102-.839.412-1.287.328-.473.748-.978 1.328-.978h.156c-.755-.189-1.316-.868-1.316-1.682 0-.961.779-1.74 1.74-1.74"/></g></g>

   xmlns:dc="http://purl.org/dc/elements/1.1/"
   xmlns:cc="http://creativecommons.org/ns#"
   xmlns:rdf="http://www.w3.org/1999/02/22-rdf-syntax-ns#"
   xmlns:svg="http://www.w3.org/2000/svg"
   xmlns="http://www.w3.org/2000/svg"
   xmlns:xlink="http://www.w3.org/1999/xlink"
   xmlns:sodipodi="http://sodipodi.sourceforge.net/DTD/sodipodi-0.dtd"
   xmlns:inkscape="http://www.inkscape.org/namespaces/inkscape"
   height="32"
   width="32"
   version="1"
   id="svg8"
   sodipodi:docname="snow-top-3.svg"
   inkscape:version="0.92.1 r"&gt;
  <path fill="#00000f" fill-opacity="0" d="m0 0h32v32h-32z" id="0"/><path d="m7.354 6.111c-2.995 2.684-1.381 7.817-3.674 8.291-2.031.613-3.541-1.385-3.66-4.503-.35-8.627 3.911-9.427 6.879-9.524 28.342-2.047 1.762 4.92.455 5.736" fill="url(#1)"/><use xlink:href="#0"/></svg>