<svg xmlns="http://www.w3.org/2000/svg" viewBox="0 0 32 32"><defs><linearGradient gradientTransform="matrix(-2.65552 0 0 2.58531 193.77-277.73)" id="0" x1="67.894" y1="108.69" x2="67.854" y2="113.11" gradientUnits="userSpaceOnUse"><stop stop-color="#f9f9f9"/><stop offset="1" stop-color="#999"/></linearGradient></defs><rect width="28.2" height="28.2" x="1.898" y="1.898" fill="#8e8e8e" fill-rule="evenodd" rx="5.575"/><g transform="translate(50.39-.671)"><g transform="matrix(.91814 0 0 .91814-18.08.002)" stroke-width="1.089"><path d="m-25.283 8.785c-1.977 0-3.568 1.591-3.568 3.568v9.463c0 1.977 1.591 3.568 3.568 3.568h1.926c.164 1.21 1.185 2.141 2.441 2.141h6.307c1.256 0 2.278-.93 2.441-2.141h1.926c1.977 0 3.568-1.591 3.568-3.568v-9.463c0-1.977-1.591-3.568-3.568-3.568z" fill="#474747"/><rect width="20.18" height="14.5" x="-27.854" y="9.835" ry="2.594" rx="2.703" fill="#232323"/></g><g fill="#c0ca33" stroke-width="1"><path d="m-31.09 12.703c-.822 0-1.488.666-1.488 1.488 0 .822.666 1.488 1.488 1.488.822 0 1.488-.666 1.488-1.488 0-.822-.666-1.488-1.488-1.488"/><path d="m-37.656 17.562c-1.636 0-3.272 1.19-3.272 4.201v.558h13.09c0 0-1.091-3.569-2.727-3.569-1.636 0-1.636 1.785-2.727 1.785-1.09 0-2.726-2.974-4.362-2.974"/></g></g>

   xmlns:dc="http://purl.org/dc/elements/1.1/"
   xmlns:cc="http://creativecommons.org/ns#"
   xmlns:rdf="http://www.w3.org/1999/02/22-rdf-syntax-ns#"
   xmlns:svg="http://www.w3.org/2000/svg"
   xmlns="http://www.w3.org/2000/svg"
   xmlns:xlink="http://www.w3.org/1999/xlink"
   xmlns:sodipodi="http://sodipodi.sourceforge.net/DTD/sodipodi-0.dtd"
   xmlns:inkscape="http://www.inkscape.org/namespaces/inkscape"
   version="1"
   width="32"
   height="32"
   id="svg12"
   sodipodi:docname="snow-top-3.svg"
   inkscape:version="0.92.1 r"&gt;
  <path d="m24.627.009c8.36-.339 9.455 9.523 4.064 9.505-.686.003-1.62-.197-3-1.471-14.665-10.216-14.549 2.967-17.708.875-1.727-1.822-1.743 4.653-4.139 5.127-2.122.613-3.699-1.385-3.824-4.503-.366-8.627 4.086-9.427 7.187-9.524 5.974.133 11.562-.045 17.419-.01" fill="url(#0)"/></svg>