<svg xmlns="http://www.w3.org/2000/svg" xmlns:xlink="http://www.w3.org/1999/xlink" viewBox="0 0 32 32"><defs><linearGradient id="4" x1="-178.12" y1="-134.12" x2="-183.59" y2="-135.1" gradientUnits="userSpaceOnUse"><stop stop-color="#7c0000"/><stop offset="1" stop-color="#7c0000" stop-opacity="0"/></linearGradient><linearGradient id="3" x1="-189.8" y1="-142.57" x2="-175.35" y2="-130.4" gradientUnits="userSpaceOnUse"><stop stop-color="#ff383f"/><stop offset="1" stop-color="#a02d26"/></linearGradient><linearGradient id="2"><stop stop-color="#f9f9f9"/><stop offset="1" stop-color="#999"/></linearGradient><linearGradient xlink:href="#2" id="1" x1="-188.02" y1="-134.18" x2="-190.66" y2="-126.24" gradientUnits="userSpaceOnUse"/><radialGradient xlink:href="#2" id="5" cx="-176.59" cy="-120.91" r="3.01" gradientUnits="userSpaceOnUse" gradientTransform="matrix(2.21087.05719-.05496 2.12455 207.3 145.17)"/></defs><rect width="28.2" height="28.2" x="1.898" y="1.898" fill="#7f4fc8" fill-rule="evenodd" rx="5.575"/><g transform="matrix(.70711-.70711.70711.70711 27.16-20.657)"><path d="m-36.96 11.12c-1.121 0-2.122.062-2.811.768h-2.106c-1.914 0-3.455 1.694-3.455 3.609v5.068c0 1.914 1.541 3.609 3.455 3.609h2.106c.688.706 1.689.768 2.811.768h6.292c1.121 0 2.122-.062 2.811-.768h2.106c1.914 0 3.455-1.694 3.455-3.609v-5.068c0-1.914-1.541-3.609-3.455-3.609h-2.106c-.688-.706-1.689-.768-2.811-.768z" fill="#fff"/><g fill="#7f4fc8"><circle r="1.152" cx="-24.22" cy="16.875"/><circle r="1.152" cx="18.41" cy="27.29" transform="matrix(0 1-1 0 0 0)"/></g><path fill="#7b92ed" d="m-38.421 13.419h9.214v9.214h-9.214z"/><circle transform="matrix(0 1-1 0 0 0)" cy="25.368" cx="13.419" r=".768" fill="#52ff41"/><path d="m-42.26 14.955c-.425 0-.768.342-.768.768v.768h-.768c-.425 0-.768.342-.768.768v.768c0 .425.342.768.768.768h.768v.768c0 .425.342.768.768.768h.768c.425 0 .768-.342.768-.768v-.768h.768c.425 0 .768-.342.768-.768v-.768c0-.425-.342-.768-.768-.768h-.768v-.768c0-.425-.342-.768-.768-.768z" fill="#7f4fc8"/></g><path d="m32 .157l-.27 2.221-.122-2.378" fill="#f9f9f9" id="0"/><use xlink:href="#0"/><path d="m32 .113l-.27 1.6-.122-1.713" fill="#f9f9f9"/><g transform="matrix(-1 0 0 1-172.76 143.72)"><path d="m-190.09-143.27c-5.577-1.531-5.951 3.24-4.58 5.493 4.381 6.983 6.796 6.577 9.398 7.895 1.712 2.064 3.451 3.4 6.469 4.1 11.69 1.559 3.242-8.417.92-8.649-5.065.012-7.547-6.123-12.206-8.838" fill="url(#1)"/><path d="m-190.09-143.27c3.76.276 5.616-.626 8.93-.421 4.319.283 8.307 2.053 7.838 6.574-.347 2.567-.37 2.25.186 4.296.532 1.535-.252 4.232-.487 4.654-2.715 4.963-1.536 4.965-2.656 7.742l-.906-.418-2.508-11.358c-7.177-.909-10.754-10.11-10.398-11.07" fill="url(#3)"/><path d="m-183.3-133.33c.362.274 1.553-5.105 1.172-5.653 1.379 2.44 1.919 4.616 2.435 6.783-1.276-.283-2.289-.554-3.607-1.13" fill="url(#4)"/><circle r="3.01" cy="-120.11" cx="-176.61" fill="url(#5)"/></g></svg>