<svg xmlns="http://www.w3.org/2000/svg" viewBox="0 0 32 32"><rect width="28.2" height="28.2" x="1.898" y="1.898" fill="#7d529d" fill-rule="evenodd" rx="5.575"/><path d="m17.374 8c-.351 0-.643.281-.646.621-.002.342.29.629.643.631 1.527.011 2.783.494 3.795 1.446 1 .943 1.522 2.25 1.535 3.955v.002c.004.339.295.619.648.619 0 0 .007-.001.007-.002.353-.003.646-.288.643-.629v-.002c-.008-.995-.17-1.909-.486-2.713-.32-.813-.806-1.531-1.44-2.129-1.253-1.178-2.853-1.787-4.695-1.8h-.006zm-6.56 1.47c-.246-.042-.513.004-.78.132h-.021l-.03.017c-.494.281-.957.657-1.39 1.129l-.034.037v.034c-.3.374-.498.751-.544 1.128-.015.064-.014.122-.014.183 0 .172.025.346.078.517l.014.048.03.017c.171.588.56 1.502 1.411 3.051.566 1.027 1.145 1.884 1.72 2.607.303.38.646.775 1.044 1.173.005.005.022.022.04.038.006.006.015.019.037.041l.04.04h.003c.014.014.023.024.026.027l.007.009.007.007c.398.394.791.739 1.175 1.04.721.575 1.579 1.158 2.605 1.726 1.551.855 2.474 1.242 3.058 1.41l.021.026.036.013c.166.055.338.081.509.078.069.004.13-.001.189-.014.4-.047.797-.236 1.189-.565l.004-.006.004-.003c.006-.006.003-.003.006-.007.003-.003.005-.007.009-.01.464-.424.839-.884 1.121-1.378l.018-.031v-.03c.259-.539.156-1.09-.264-1.44-.01-.009-.212-.178-.463-.382-.256-.209-.56-.454-.766-.605-.388-.287-.989-.659-1.331-.849h-.001c-.657-.368-1.344-.154-1.646.237l-.53.663c-.214.269-.641.244-.652.243-3.594-.925-4.56-4.538-4.567-4.564-.001-.011-.026-.439.243-.656l.661-.528c.392-.3.613-.987.243-1.646-.193-.341-.566-.946-.849-1.331h-.001c-.153-.206-.398-.512-.607-.769-.104-.128-.199-.246-.268-.329-.035-.042-.063-.076-.083-.099-.01-.012-.018-.02-.024-.027-.003-.003-.005-.006-.007-.009-.183-.217-.416-.35-.673-.393zm6.598 1.44c-.347-.024-.658.235-.683.57-.025.335.245.633.591.658.856.06 1.434.312 1.868.771v.002c.443.468.645 1 .628 1.732v.003c-.008.336.274.62.622.628h.016c.343 0 .629-.271.636-.602.023-1-.303-1.898-.962-2.592-.663-.697-1.6-1.088-2.717-1.168z" fill="#fff"/>

   xmlns:dc="http://purl.org/dc/elements/1.1/"
   xmlns:cc="http://creativecommons.org/ns#"
   xmlns:rdf="http://www.w3.org/1999/02/22-rdf-syntax-ns#"
   xmlns:svg="http://www.w3.org/2000/svg"
   xmlns="http://www.w3.org/2000/svg"
   xmlns:sodipodi="http://sodipodi.sourceforge.net/DTD/sodipodi-0.dtd"
   xmlns:inkscape="http://www.inkscape.org/namespaces/inkscape"
   height="32"
   width="32"
   version="1"
   id="svg8"
   sodipodi:docname="star-mime-2.svg"
   inkscape:version="0.92.1 r"&gt;
  <g transform="translate(152.47 194.05)" fill="#fff"><path d="m-125.38-193.25l-.077 3.548 3.072 1.831-3.548-.077-3.135 6.791 1.38-7.268-3.072-1.831 3.548.077z"/><path d="m-125.41-183.04l.042-1.955-1.692-1.01 1.955.042 1.727-3.741-.76 4 1.692 1.01-1.955-.042z"/></g></svg>