<svg xmlns="http://www.w3.org/2000/svg" viewBox="0 0 32 32"><defs><linearGradient gradientTransform="matrix(2.62891 0 0 2.71269-160.16-291.42)" id="0" x1="67.894" y1="108.69" x2="67.854" y2="113.11" gradientUnits="userSpaceOnUse"><stop stop-color="#f9f9f9"/><stop offset="1" stop-color="#999"/></linearGradient></defs><rect width="28.2" height="28.2" x="1.898" y="1.898" fill="#32434d" fill-rule="evenodd" rx="5.575"/><path d="m15.999955 6.0039a10 10 0 0 0 -10 10 10 10 0 0 0 6.4844 9.3495c-.005-.142-.005-.325-.015-.431-.029-.331.051-1.812.123-2.263.025-.156.115-.462.201-.681.17-.433.362-1.082.431-1.465.024-.133.085-.389.137-.568.079-.273.088-.392.062-.756-.024-.332-.015-.48.039-.646.091-.283.087-.382-.02-.636-.055-.132-.089-.322-.09-.503l-.003-.292-.086.111c-.047.061-.117.236-.156.389-.171.671-.434 1.06-1.196 1.78-.275.26-.518.52-.539.577-.297.791-.325.904-.302 1.208.013.167.037.351.054.407.041.138-.096.196-.207.087-.046-.044-.114-.064-.156-.048-.06.026-.07.079-.053.273.026.291.04.311.23.305.124 0 .156.017.197.135.027.079.032.141.009.141-.023 0-.042.063-.042.146 0 .14-.007.146-.198.146-.172 0-.202.014-.215.108-.009.069-.05.116-.114.125-.133.021-.497-.371-.639-.687-.142-.317-.116-.806.075-1.417.075-.24.16-.569.191-.729.072-.379.157-.55.29-.586.083-.021.159-.144.331-.523.123-.272.27-.636.328-.81.124-.376.258-.6.619-1.029.148-.176.294-.403.325-.506.031-.105.15-.406.263-.673l.206-.485.029-.874c.016-.481.052-.953.08-1.047.028-.094.163-.317.299-.496.147-.192.248-.372.248-.44 0-.137.21-.465.371-.579.063-.044.173-.095.243-.113.253-.061.287-.08.334-.173.038-.077.018-.157-.095-.395-.078-.165-.169-.344-.203-.397-.054-.084-.051-.103.027-.162.049-.038.215-.097.37-.129.262-.059.282-.069.294-.203.012-.129-.015-.16-.27-.322-.59-.373-.802-.616-.799-.91.003-.332.18-.521.688-.733.258-.108.326-.157.338-.248.008-.061.033-.134.056-.159.023-.027.042-.137.042-.248 0-.332.096-.768.197-.89.187-.224.335-.272.816-.27.378 0 .481.019.645.11.22.124.263.211.413.832.055.227.136.448.182.491.046.043.095.132.11.197.021.088.095.146.297.233.525.225.806.622.709 1-.084.329-.514.701-.808.701-.047 0-.086.034-.086.073 0 .039.028.072.062.072.043 0 .069.103.089.359.016.198.052.417.081.487.051.121.068.125.44.125.33 0 .438.021.745.155.198.086.377.184.397.219.02.037.132.117.248.182.294.163.716.648 1.038 1.193.15.254.315.513.365.575.05.061.09.146.09.186 0 .041.047.142.102.227.056.085.104.234.108.335.009.237.187.637.634 1.43.278.493.369.7.394.891.017.137.044.825.06 1.528.028 1.23.034 1.283.129 1.393.099.114.099.114.059 1.304-.022.655-.061 1.248-.086 1.319-.025.071-.107.163-.18.204-.074.041-.145.114-.159.164-.014.049-.149.152-.299.23-.15.078-.283.157-.294.177-.011.02.065.217.168.439.107.229.234.417.398.617a10 10 0 0 0 4.3239 -8.2204 10 10 0 0 0 -10 -10zm2.697 9.485c-.018 0-.028.114-.023.254.009.206-.011.287-.102.422-.062.092-.206.364-.32.607l-.207.44.856 1.821c.945 2.01 1.038 2.184 1.133 2.184.036 0 .144-.124.24-.278h.002c.097-.154.247-.373.335-.487.11-.141.178-.295.216-.485.031-.153.069-.301.087-.327.112-.167.09-.367-.098-.882-.215-.591-.303-1.041-.306-1.554l-.003-.349-.319-.137c-.254-.11-.399-.219-.715-.538-.218-.22-.429-.401-.467-.401-.039 0-.094-.049-.123-.108-.054-.111-.126-.181-.186-.182zm-.123 4.603c-.064-.052-.054.14-.047.517.009.427.15 1.106.237 1.137.03.011.106.077.17.146l.116.125.059 1.89c.025.81.053 1.252.077 1.564a10 10 0 0 0 2.0252 -.942c-.549-.316-1.047-.946-1.414-1.836-.12-.291-.455-1.032-.742-1.647-.282-.604-.417-.901-.481-.954m2.113 1.308c-.03-.013-.058-.011-.095.014-.204.118-.198.244.032.771.143.328.228.471.252.43.02-.036.036-.263.036-.508.001-.409-.008-.457-.114-.593-.048-.062-.081-.098-.111-.113m-5.198 2.439c-.045 0-.065.055-.065.182 0 .18-.14 1.029-.228 1.384-.013.054-.06.345-.095.553a10 10 0 0 0 .77073 .039c-.002-.328-.101-.914-.2-1.167-.051-.13-.07-.297-.062-.529.014-.357-.014-.462-.121-.462" fill="#fff"/>

   xmlns:dc="http://purl.org/dc/elements/1.1/"
   xmlns:cc="http://creativecommons.org/ns#"
   xmlns:rdf="http://www.w3.org/1999/02/22-rdf-syntax-ns#"
   xmlns:svg="http://www.w3.org/2000/svg"
   xmlns="http://www.w3.org/2000/svg"
   xmlns:xlink="http://www.w3.org/1999/xlink"
   xmlns:sodipodi="http://sodipodi.sourceforge.net/DTD/sodipodi-0.dtd"
   xmlns:inkscape="http://www.inkscape.org/namespaces/inkscape"
   version="1"
   width="32"
   height="32"
   id="svg12"
   sodipodi:docname="snow-top-1.svg"
   inkscape:version="0.92.1 r"&gt;
  <path d="m7.288.009c-8.276-.356-9.36 9.992-4.02 9.973.679.003 1.604-.207 2.97-1.543 7.256-10.531 14.706 3.573 17.53.919 1.71-1.912 3.496-.418 4.448.115 2.1.643 3.662.041 3.785-3.231.188-3.321-1.889-6.344-5.923-6.223-5.914.14-12.989-.047-18.787-.01" fill="url(#0)"/><path fill="#f00" fill-opacity="0" d="m0 0h32v32h-32z"/></svg>