<svg xmlns="http://www.w3.org/2000/svg" viewBox="0 0 32 32"><rect width="28.2" height="28.2" x="1.898" y="1.898" fill="#4795d1" fill-rule="evenodd" rx="5.575"/><path d="m16 6c-5.523 0-10 4.477-10 10 0 5.523 4.477 10 10 10 5.523 0 10-4.477 10-10 0-5.523-4.477-10-10-10m-.936 1.994c.109-.011.246.006.355 0 .013.052-.077.239-.201.51-.79 1.726-.837 3.748-.104 4.828.133.196.254.382.254.406 0 .024-.143.051-.305.051-.38 0-.74-.231-1.475-.813-.326-.258-.75-.475-.914-.508-.258-.052-.326-.029-.66.305-.311.311-.406.479-.406.764 0 1.078 1.281 1.933 3.66 2.438 3.231.685 4.03 1.299 4.115 2.998.112 2.131-1.021 3.737-3.506 4.98-.297.148-.485.208-.609.256-.055-.005-.099.005-.154 0-.021-.066-.051-.218-.051-.508 0-1.132-.445-2.298-1.117-2.949-.18-.175-.685-.545-1.117-.813-.433-.268-.87-.578-.967-.711-.161-.22-.173-.355-.049-.762.226-.743.493-1.159 1.016-1.629.274-.246.549-.45.609-.455.061-.005-.349-.13-.965-.256-.616-.126-1.519-.39-1.984-.559-.852-.308-2-.956-2.439-1.424-.019-.02-.035-.033-.051-.051.628-2.502 2.39-4.551 4.727-5.539.489-.207.993-.348 1.525-.457.265-.054.539-.076.813-.104zm7.625 3.813c.191.118.913 1.68 1.119 2.441.266.983.247 2.682 0 3.658-.094.372-.216.718-.256.762-.04.043-.187-.203-.357-.506-.171-.302-.713-.946-1.166-1.424-1.308-1.38-1.515-2.1-.967-3.201.276-.555 1.479-1.822 1.627-1.73" fill="#fff"/>

   xmlns:dc="http://purl.org/dc/elements/1.1/"
   xmlns:cc="http://creativecommons.org/ns#"
   xmlns:rdf="http://www.w3.org/1999/02/22-rdf-syntax-ns#"
   xmlns:svg="http://www.w3.org/2000/svg"
   xmlns="http://www.w3.org/2000/svg"
   xmlns:sodipodi="http://sodipodi.sourceforge.net/DTD/sodipodi-0.dtd"
   xmlns:inkscape="http://www.inkscape.org/namespaces/inkscape"
   height="32"
   width="32"
   version="1"
   id="svg8"
   sodipodi:docname="star-mime-2.svg"
   inkscape:version="0.92.1 r"&gt;
  <g transform="translate(152.47 194.05)" fill="#fff"><path d="m-125.38-193.25l-.077 3.548 3.072 1.831-3.548-.077-3.135 6.791 1.38-7.268-3.072-1.831 3.548.077z"/><path d="m-125.41-183.04l.042-1.955-1.692-1.01 1.955.042 1.727-3.741-.76 4 1.692 1.01-1.955-.042z"/></g></svg>