<svg xmlns="http://www.w3.org/2000/svg" viewBox="0 0 32 32"><defs><linearGradient gradientTransform="matrix(-2.65552 0 0 2.58531 193.77-277.73)" id="0" x1="67.894" y1="108.69" x2="67.854" y2="113.11" gradientUnits="userSpaceOnUse"><stop stop-color="#f9f9f9"/><stop offset="1" stop-color="#999"/></linearGradient></defs><g transform="translate(94.24-24.543)" fill-rule="evenodd"><path d="m-64.13 37.02h-28.21v12.05c0 3.089 2.488 5.576 5.576 5.576h17.05c3.089 0 5.576-2.488 5.576-5.576z" fill="#8e8e8e"/><path d="m-64.13 33.547h-28.21v3.471h28.21z" fill="#ffcd54"/><path d="m-64.52 30.12h-27.443c-.217.596-.381 1.222-.381 1.895v1.531h28.21v-1.531c0-.673-.164-1.298-.381-1.895" fill="#89e058"/><path d="m-86.76 26.441c-2.416 0-4.418 1.539-5.195 3.68h27.443c-.778-2.14-2.78-3.68-5.195-3.68z" fill="#5895dc"/></g><rect rx="1" y="18.719" x="11" height="3" width="10" fill="#ececec"/>

   xmlns:dc="http://purl.org/dc/elements/1.1/"
   xmlns:cc="http://creativecommons.org/ns#"
   xmlns:rdf="http://www.w3.org/1999/02/22-rdf-syntax-ns#"
   xmlns:svg="http://www.w3.org/2000/svg"
   xmlns="http://www.w3.org/2000/svg"
   xmlns:xlink="http://www.w3.org/1999/xlink"
   xmlns:sodipodi="http://sodipodi.sourceforge.net/DTD/sodipodi-0.dtd"
   xmlns:inkscape="http://www.inkscape.org/namespaces/inkscape"
   version="1"
   width="32"
   height="32"
   id="svg12"
   sodipodi:docname="snow-top-3.svg"
   inkscape:version="0.92.1 r"&gt;
  <path d="m24.627.009c8.36-.339 9.455 9.523 4.064 9.505-.686.003-1.62-.197-3-1.471-14.665-10.216-14.549 2.967-17.708.875-1.727-1.822-1.743 4.653-4.139 5.127-2.122.613-3.699-1.385-3.824-4.503-.366-8.627 4.086-9.427 7.187-9.524 5.974.133 11.562-.045 17.419-.01" fill="url(#0)"/></svg>