<svg xmlns="http://www.w3.org/2000/svg" viewBox="0 0 32 32"><defs><linearGradient gradientTransform="matrix(2.62891 0 0 2.71269-160.16-291.42)" id="0" x1="67.894" y1="108.69" x2="67.854" y2="113.11" gradientUnits="userSpaceOnUse"><stop stop-color="#f9f9f9"/><stop offset="1" stop-color="#999"/></linearGradient></defs><rect width="28.2" height="28.2" x="1.898" y="1.898" fill="#ccc" fill-rule="evenodd" rx="5.575"/><path d="m22.795 7.5c-.361 0-.726.078-1.019.228-.427.22-.858.687-1.049 1.137-.203.478-.232 1.321-.061 1.77.072.19.197.515.277.724.181.471.246 1.507.131 2.088-.129.655-.53 1.412-1 1.887-1.412 1.427-3.546 1.452-4.948.058-.484-.481-.552-.596-2.736-4.584-.741-1.354-1.406-2.488-1.544-2.634-.434-.47-1.038-.638-1.59-.641-1.188-.02-2.01.931-2.207 1.952-.144.817-.211.676 3.627 7.673 2.422 4.416 3.574 6.452 3.762 6.652.669.709 1.621.885 2.513.463.234-.111.5-.31.669-.502.332-.376 7.198-12.847 7.309-13.276.117-.45.088-1.088-.069-1.53-.195-.55-.735-1.114-1.267-1.325-.239-.095-.517-.141-.797-.141" fill="#c2352a"/>

   xmlns:dc="http://purl.org/dc/elements/1.1/"
   xmlns:cc="http://creativecommons.org/ns#"
   xmlns:rdf="http://www.w3.org/1999/02/22-rdf-syntax-ns#"
   xmlns:svg="http://www.w3.org/2000/svg"
   xmlns="http://www.w3.org/2000/svg"
   xmlns:xlink="http://www.w3.org/1999/xlink"
   xmlns:sodipodi="http://sodipodi.sourceforge.net/DTD/sodipodi-0.dtd"
   xmlns:inkscape="http://www.inkscape.org/namespaces/inkscape"
   version="1"
   width="32"
   height="32"
   id="svg12"
   sodipodi:docname="snow-top-1.svg"
   inkscape:version="0.92.1 r"&gt;
  <path d="m7.288.009c-8.276-.356-9.36 9.992-4.02 9.973.679.003 1.604-.207 2.97-1.543 7.256-10.531 14.706 3.573 17.53.919 1.71-1.912 3.496-.418 4.448.115 2.1.643 3.662.041 3.785-3.231.188-3.321-1.889-6.344-5.923-6.223-5.914.14-12.989-.047-18.787-.01" fill="url(#0)"/><path fill="#f00" fill-opacity="0" d="m0 0h32v32h-32z"/></svg>