<svg xmlns="http://www.w3.org/2000/svg" xmlns:xlink="http://www.w3.org/1999/xlink" viewBox="0 0 32 32"><defs><linearGradient xlink:href="#3" id="4" gradientUnits="userSpaceOnUse" x1="-23.24" y1="-185.08" x2="-28.704" y2="-186.05"/><linearGradient xlink:href="#3" id="2" gradientUnits="userSpaceOnUse" x1="-34.914" y1="-193.53" x2="-20.469" y2="-181.36"/><linearGradient id="3"><stop stop-color="#ffff5e"/><stop offset="1" stop-color="#f6a32d"/></linearGradient><linearGradient id="1"><stop stop-color="#f9f9f9"/><stop offset="1" stop-color="#999"/></linearGradient><linearGradient xlink:href="#1" id="0" gradientUnits="userSpaceOnUse" x1="-33.14" y1="-185.13" x2="-35.775" y2="-177.2"/><radialGradient xlink:href="#1" id="5" cx="-176.59" cy="-120.91" r="3.01" gradientUnits="userSpaceOnUse" gradientTransform="matrix(2.21087.05719-.05496 2.12455 362.18 94.22)"/></defs><g fill-rule="evenodd"><rect width="28.2" height="28.2" x="1.898" y="1.898" fill="#6184a6" rx="5.575"/><path d="m15.764 22.445h1.315c0 0 .397-.045.6-.272.187-.208.181-.598.181-.598 0 0-.026-1.828.793-2.097.807-.265 1.844 1.766 2.943 2.547.831.591 1.462.462 1.462.462l2.938-.043c0 0 1.537-.098.808-1.35-.06-.102-.425-.926-2.185-2.618-1.843-1.77-1.596-1.484.623-4.547 1.352-1.866 1.892-3 1.723-3.492-.161-.465-1.155-.342-1.155-.342l-3.308.021c0 0-.245-.035-.427.078-.178.11-.292.368-.292.368 0 0-.524 1.444-1.222 2.672-1.473 2.591-2.062 2.728-2.303 2.567-.56-.375-.42-1.506-.42-2.31 0-2.511.368-3.558-.716-3.829-.36-.09-.624-.149-1.544-.159-1.18-.012-2.179.004-2.745.291-.376.191-.667.616-.49.641.219.03.714.138.976.508.339.478.327 1.55.327 1.55 0 0 .195 2.956-.455 3.323-.446.252-1.057-.262-2.371-2.613-.673-1.204-1.181-2.535-1.181-2.535 0 0-.098-.249-.273-.382-.211-.161-.507-.213-.507-.213l-3.144.021c0 0-.472.014-.645.226-.154.189-.012.58-.012.58 0 0 2.461 5.964 5.248 8.969 2.556 2.756 5.457 2.575 5.457 2.575" fill="#fff"/></g><g transform="translate(49.877 194.68)"><path d="m-35.21-194.22c-5.577-1.531-5.951 3.24-4.58 5.493 4.381 6.983 6.796 6.577 9.398 7.895 1.712 2.064 3.451 3.4 6.469 4.1 11.69 1.559 3.242-8.417.92-8.649-5.065.012-7.547-6.123-12.206-8.838" fill="url(#0)"/><path d="m-35.21-194.22c3.76.276 5.616-.626 8.93-.421 4.319.283 8.307 2.053 7.838 6.574-.347 2.567-.37 2.25.186 4.296.532 1.535-.252 4.232-.487 4.654-2.715 4.963-1.536 4.965-2.656 7.742l-.906-.418-2.508-11.358c-7.177-.909-10.754-10.11-10.398-11.07" fill="url(#2)"/><path d="m-28.419-184.29c.362.274 1.553-5.105 1.172-5.653 1.379 2.44 1.919 4.616 2.435 6.783-1.276-.283-2.289-.554-3.607-1.13" fill="url(#4)"/><circle r="3.01" cy="-171.07" cx="-21.728" fill="url(#5)"/></g></svg>