<svg xmlns="http://www.w3.org/2000/svg" viewBox="0 0 32 32"><defs><linearGradient gradientTransform="matrix(-2.65552 0 0 2.58531 193.77-277.73)" id="0" x1="67.894" y1="108.69" x2="67.854" y2="113.11" gradientUnits="userSpaceOnUse"><stop stop-color="#f9f9f9"/><stop offset="1" stop-color="#999"/></linearGradient></defs><rect width="28.2" height="28.2" x="1.898" y="1.898" fill="#6184a6" fill-rule="evenodd" rx="5.575"/><g transform="matrix(.82743 0 0 .82743 2.886 2.761)" fill="#fff"><path d="m15.764 17.945h1.315c0 0 .397-.045.6-.272.187-.208.181-.598.181-.598 0 0-.026-1.828.793-2.097.807-.265 1.844 1.766 2.943 2.548.831.591 1.462.462 1.462.462l2.938-.043c0 0 1.537-.098.808-1.35-.06-.102-.425-.926-2.185-2.618-1.843-1.77-1.596-1.484.623-4.547 1.352-1.866 1.892-3 1.723-3.492-.161-.465-1.155-.342-1.155-.342l-3.308.021c0 0-.245-.035-.427.078-.178.11-.292.368-.292.368 0 0-.524 1.444-1.222 2.672-1.473 2.591-2.062 2.728-2.303 2.567-.56-.375-.42-1.506-.42-2.31 0-2.511.368-3.558-.716-3.829-.36-.09-.624-.149-1.544-.159-1.18-.012-2.179.004-2.745.291-.376.191-.667.616-.49.641.219.03.714.138.976.508.339.478.327 1.55.327 1.55 0 0 .195 2.956-.455 3.323-.446.252-1.057-.262-2.371-2.613-.673-1.204-1.181-2.535-1.181-2.535 0 0-.098-.249-.273-.382-.211-.161-.507-.213-.507-.213l-3.144.021c0 0-.472.014-.645.226-.154.189-.012.58-.012.58 0 0 2.461 5.964 5.248 8.969 2.556 2.756 5.457 2.575 5.457 2.575" fill-rule="evenodd"/><g transform="matrix(.75 0 0 .75-2-3)"><path d="m12.743 37.733q0 .522-.181.942-.176.415-.522.713-.341.293-.841.452-.495.16-1.139.16-.564 0-1.091-.117-.522-.117-.969-.351v-1.533q.255.122.516.24.261.112.527.202.271.09.538.144.271.053.538.053.271 0 .463-.059.197-.064.314-.17.122-.112.176-.261.059-.154.059-.335 0-.218-.096-.383-.091-.17-.261-.314-.165-.149-.404-.287-.235-.139-.527-.293-.245-.128-.548-.309-.303-.181-.575-.447-.266-.271-.447-.649-.181-.383-.181-.916 0-.522.17-.931.176-.415.495-.697.319-.287.772-.436.458-.149 1.022-.149.282 0 .548.037.271.037.532.106.266.069.532.17.266.101.548.234l-.532 1.283q-.24-.112-.447-.197-.208-.085-.405-.144-.197-.059-.389-.085-.186-.032-.378-.032-.415 0-.639.224-.218.218-.218.586 0 .197.064.351.069.149.213.282.149.133.378.271.234.138.564.314.399.213.735.436.335.218.575.49.245.266.378.607.133.341.133.798"/><path d="m18.624 39.894l-.532-1.852h-2.683l-.538 1.852h-1.666l2.528-7.814h2.02l2.539 7.814h-1.666m-.916-3.236l-.5-1.703q-.032-.096-.096-.314-.064-.218-.138-.479-.069-.266-.133-.532-.064-.266-.09-.452-.021.117-.059.277-.032.16-.08.341-.043.176-.09.357-.048.181-.09.341-.043.16-.08.282-.032.122-.048.181l-.495 1.703h1.9"/><path d="m24.958 32.11h1.666l-2.427 7.782h-1.799l-2.422-7.782h1.666l1.32 4.684q.027.09.069.303.048.213.096.468.053.255.101.511.048.255.075.431.027-.176.075-.431.048-.255.101-.506.053-.255.101-.468.053-.213.08-.309l1.299-4.684"/><path d="m32.08 39.894h-4.482v-7.782h4.482v1.352h-2.832v1.709h2.635v1.352h-2.635v2.01h2.832v1.363"/><path d="m35.36 35.566h.447q.687 0 .985-.271.298-.277.298-.809 0-.554-.319-.788-.319-.234-.99-.234h-.42v2.102m0 1.341v2.986h-1.65v-7.782h2.129q1.496 0 2.209.58.713.575.713 1.751 0 .399-.106.724-.106.325-.287.58-.176.25-.41.442-.229.186-.484.314.591.947 1.059 1.693.202.319.389.623.192.303.341.543.149.24.245.383l.09.149h-1.831l-1.687-2.986h-.719"/></g></g>

   xmlns:dc="http://purl.org/dc/elements/1.1/"
   xmlns:cc="http://creativecommons.org/ns#"
   xmlns:rdf="http://www.w3.org/1999/02/22-rdf-syntax-ns#"
   xmlns:svg="http://www.w3.org/2000/svg"
   xmlns="http://www.w3.org/2000/svg"
   xmlns:xlink="http://www.w3.org/1999/xlink"
   xmlns:sodipodi="http://sodipodi.sourceforge.net/DTD/sodipodi-0.dtd"
   xmlns:inkscape="http://www.inkscape.org/namespaces/inkscape"
   version="1"
   width="32"
   height="32"
   id="svg12"
   sodipodi:docname="snow-top-3.svg"
   inkscape:version="0.92.1 r"&gt;
  <path d="m24.627.009c8.36-.339 9.455 9.523 4.064 9.505-.686.003-1.62-.197-3-1.471-14.665-10.216-14.549 2.967-17.708.875-1.727-1.822-1.743 4.653-4.139 5.127-2.122.613-3.699-1.385-3.824-4.503-.366-8.627 4.086-9.427 7.187-9.524 5.974.133 11.562-.045 17.419-.01" fill="url(#0)"/></svg>