<svg xmlns="http://www.w3.org/2000/svg" viewBox="0 0 32 32"><defs><linearGradient gradientTransform="matrix(2.62891 0 0 2.71269-160.16-291.42)" id="0" x1="67.894" y1="108.69" x2="67.854" y2="113.11" gradientUnits="userSpaceOnUse"><stop stop-color="#f9f9f9"/><stop offset="1" stop-color="#999"/></linearGradient></defs><rect width="28.2" height="28.2" x="1.898" y="1.898" fill="#fff" fill-rule="evenodd" rx="5.575"/><g transform="matrix(.64179 0 0 .64179 5.732 5.735)"><g fill-rule="evenodd"><g fill="#f80"><path d="m6.9 18.988c-.565 0-1.075.34-1.292.861l-3.5 8.212c-.384.922.293 1.938 1.292 1.939h25.2c.999 0 1.676-1.017 1.292-1.939l-3.5-8.212c-.217-.521-.727-.861-1.292-.861"/><path d="m16 1.988c-.636-.007-1.284.101-1.925.358-.397.16-.699.492-.82.902l-1.288 4.353c2.037 4.38 6.131 1.435 8.06 0l-1.288-4.353c-.128-.434-.459-.78-.887-.927-.593-.204-1.217-.326-1.852-.334m-5.689 11.213l-1.554 5.25c.503 4.456 8.331 3.525 14.428-.179l-1.5-5.071c-3.85 1.531-5.411-2.935-11.374 0z"/></g><path d="m11.968 7.602l-3.21 10.848 1.554-5.249c4.287 1.925 7.524 1.531 11.374 0l1.5 5.071c-6.093 3.691-12.92 1.062-14.428.178l-1.101 3.72c-.171.578.047 1.2.541 1.545 2.158 1.504 4.959 2.11 7.749 2.084 2.789-.027 5.587-.69 7.784-2.038.539-.331.789-.983.61-1.59l-4.312-14.568c-1.93 1.4-6.131 1.4-8.06 0" fill="#fff"/></g><path d="m15.893 1.992c-1.486 0-2.475.453-2.475 1.051 0 .164.106.335.279.498.39-.331 1.169-.549 2.195-.549 1.027 0 1.967.277 2.457.645.208-.165.359-.331.359-.471 0-.598-1.33-1.174-2.816-1.174" opacity=".2" fill="#fff"/></g>

   xmlns:dc="http://purl.org/dc/elements/1.1/"
   xmlns:cc="http://creativecommons.org/ns#"
   xmlns:rdf="http://www.w3.org/1999/02/22-rdf-syntax-ns#"
   xmlns:svg="http://www.w3.org/2000/svg"
   xmlns="http://www.w3.org/2000/svg"
   xmlns:xlink="http://www.w3.org/1999/xlink"
   xmlns:sodipodi="http://sodipodi.sourceforge.net/DTD/sodipodi-0.dtd"
   xmlns:inkscape="http://www.inkscape.org/namespaces/inkscape"
   version="1"
   width="32"
   height="32"
   id="svg12"
   sodipodi:docname="snow-top-1.svg"
   inkscape:version="0.92.1 r"&gt;
  <path d="m7.288.009c-8.276-.356-9.36 9.992-4.02 9.973.679.003 1.604-.207 2.97-1.543 7.256-10.531 14.706 3.573 17.53.919 1.71-1.912 3.496-.418 4.448.115 2.1.643 3.662.041 3.785-3.231.188-3.321-1.889-6.344-5.923-6.223-5.914.14-12.989-.047-18.787-.01" fill="url(#0)"/><path fill="#f00" fill-opacity="0" d="m0 0h32v32h-32z"/></svg>