<svg xmlns="http://www.w3.org/2000/svg" viewBox="0 0 32 32"><defs><linearGradient gradientTransform="matrix(2.59244 0 0 2.58531-157.93-277.73)" id="0" x1="67.894" y1="108.69" x2="67.854" y2="113.11" gradientUnits="userSpaceOnUse"><stop stop-color="#f9f9f9"/><stop offset="1" stop-color="#999"/></linearGradient></defs><g fill-rule="evenodd"><g fill="#4f4f4f"><path d="m24.832 1.959v14.488c0 .623.3 1.127.672 1.127h1.375c.372 0 .67-.504.67-1.127v-13.541c-.798-.529-1.698-.89-2.717-.947"/><path d="m20.756 1.898v14.549c0 .623.3 1.127.672 1.127h1.375c.372 0 .67-.504.67-1.127v-14.549h-2.717"/><path d="m16.68 1.898v14.549c0 .623.3 1.127.672 1.127h1.373c.372 0 .672-.504.672-1.127v-14.549h-2.717"/><path d="m8.525 1.898v14.549c0 .623.3 1.127.672 1.127h1.375c.372 0 .672-.504.672-1.127v-14.549h-2.719"/></g><path d="m26.19 17.574v12.193c2.255-.713 3.91-2.743 3.91-5.24v-17.05c0-1.947-1.049-3.57-2.553-4.566v13.541c0 .623-.298 1.127-.67 1.127h-.688" fill="#d8d8d8"/><path d="m22.12 17.574v12.527h2.412c.591 0 1.13-.165 1.664-.334v-12.193h-.688c-.372 0-.672-.504-.672-1.127v-14.488c-.107-.006-.197-.061-.305-.061h-1.055v14.549c0 .623-.298 1.127-.67 1.127h-.688" fill="#f0f0f0"/><path d="m18.04 17.574v12.527h4.076v-12.527h-.688c-.372 0-.672-.504-.672-1.127v-14.549h-1.359v14.549c0 .623-.3 1.127-.672 1.127h-.686" fill="#d8d8d8"/><path d="m13.961 1.898v28.2h4.078v-12.527h-.688c-.372 0-.672-.504-.672-1.127v-14.549h-2.719" fill="#f0f0f0"/><path d="m9.885 17.574v12.527h4.076v-28.2h-2.717v14.549c0 .623-.3 1.127-.672 1.127h-.688" fill="#d8d8d8"/><path d="m5.809 17.574v12.193c.534.169 1.073.334 1.664.334h2.412v-12.527h-.688c-.372 0-.672-.504-.672-1.127v-14.549h-1.053c-.108 0-.198.055-.305.061v14.488c0 .623-.299 1.127-.672 1.127h-.688" fill="#f0f0f0"/><path d="m5.809 29.768v-12.193h-.686c-.373 0-.674-.504-.674-1.127v-13.539c-1.503.997-2.551 2.618-2.551 4.564v17.05c0 2.498 1.655 4.527 3.91 5.24" fill="#d8d8d8"/><path d="m4.449 2.908v13.539c0 .623.301 1.127.674 1.127h1.373c.373 0 .672-.504.672-1.127v-14.488c-1.02.058-1.92.419-2.719.949" fill="#4f4f4f"/></g>

   xmlns:dc="http://purl.org/dc/elements/1.1/"
   xmlns:cc="http://creativecommons.org/ns#"
   xmlns:rdf="http://www.w3.org/1999/02/22-rdf-syntax-ns#"
   xmlns:svg="http://www.w3.org/2000/svg"
   xmlns="http://www.w3.org/2000/svg"
   xmlns:xlink="http://www.w3.org/1999/xlink"
   xmlns:sodipodi="http://sodipodi.sourceforge.net/DTD/sodipodi-0.dtd"
   xmlns:inkscape="http://www.inkscape.org/namespaces/inkscape"
   version="1"
   width="32"
   height="32"
   id="svg12"
   sodipodi:docname="snow-top-4.svg"
   inkscape:version="0.92.1 r"&gt;
  <path d="m7.196.009c-8.161-.339-9.231 9.523-3.968 9.505.669.003 1.581-.197 2.929-1.471 3.773-4.147 9.01 4.479 14.696-1.042.61-.911 1.804-1.135 2.455-.627 1.045.677 2.87 2.991 3.88 3 2.359.513 4.095-.198 4.816-3.188.185-3.165-2.303-6.286-6.281-6.17-5.832.133-12.809-.045-18.527-.01" fill="url(#0)"/></svg>