<svg xmlns="http://www.w3.org/2000/svg" xmlns:xlink="http://www.w3.org/1999/xlink" viewBox="0 0 32 32"><defs><linearGradient gradientTransform="matrix(-2.54182 0 0 2.58531 185.47-277.37)" id="1" x1="67.894" y1="108.69" x2="67.854" y2="113.11" gradientUnits="userSpaceOnUse"><stop stop-color="#f9f9f9"/><stop offset="1" stop-color="#999"/></linearGradient></defs><rect width="28.2" height="28.2" x="1.898" y="1.898" fill="#4e91d9" fill-rule="evenodd" rx="5.575"/><path d="m7.429 6c-.791 0-1.429.637-1.429 1.429v6.429c0 .791.637 1.429 1.429 1.429.791 0 1.429-.637 1.429-1.429v-2.991l2.143 2.143v2.277h2.857v-.714c0-.396.319-.714.714-.714h.714v-2.857h-2.277l-2.143-2.143h2.991c.791 0 1.429-.637 1.429-1.429 0-.791-.637-1.429-1.429-1.429h-6.429m10.714 0c-.791 0-1.429.637-1.429 1.429 0 .791.637 1.429 1.429 1.429h2.991l-2.143 2.143h-2.277v2.857h.714c.396 0 .714.319.714.714v.714h2.857v-2.277l2.143-2.143v2.991c0 .791.637 1.429 1.429 1.429.791 0 1.429-.637 1.429-1.429v-6.429c0-.791-.637-1.429-1.429-1.429h-6.429zm-7.143 10.714v2.857c0 .792.637 1.429 1.429 1.429h2.857v-2.857h-.714c-.396 0-.714-.319-.714-.714v-.714h-2.857m7.142 0v.714c0 .396-.319.714-.714.714h-.714v2.857h2.277l2.143 2.143h-2.991c-.791 0-1.429.637-1.429 1.429 0 .791.637 1.429 1.429 1.429h6.429c.791.001 1.428-.636 1.428-1.428v-6.429c0-.791-.637-1.429-1.429-1.429-.791 0-1.429.637-1.429 1.429v2.991l-2.143-2.142v-2.277h-2.857z" fill="#fae695"/>

   xmlns:dc="http://purl.org/dc/elements/1.1/"
   xmlns:cc="http://creativecommons.org/ns#"
   xmlns:rdf="http://www.w3.org/1999/02/22-rdf-syntax-ns#"
   xmlns:svg="http://www.w3.org/2000/svg"
   xmlns="http://www.w3.org/2000/svg"
   xmlns:xlink="http://www.w3.org/1999/xlink"
   xmlns:sodipodi="http://sodipodi.sourceforge.net/DTD/sodipodi-0.dtd"
   xmlns:inkscape="http://www.inkscape.org/namespaces/inkscape"
   height="32"
   width="32"
   version="1"
   id="svg8"
   sodipodi:docname="snow-top-3.svg"
   inkscape:version="0.92.1 r"&gt;
  <path fill="#00000f" fill-opacity="0" d="m0 0h32v32h-32z" id="0"/><path d="m7.354 6.111c-2.995 2.684-1.381 7.817-3.674 8.291-2.031.613-3.541-1.385-3.66-4.503-.35-8.627 3.911-9.427 6.879-9.524 28.342-2.047 1.762 4.92.455 5.736" fill="url(#1)"/><use xlink:href="#0"/></svg>