<svg xmlns="http://www.w3.org/2000/svg" viewBox="0 0 32 32"><defs><linearGradient gradientTransform="matrix(2.62891 0 0 2.71269-160.16-291.42)" id="1" x1="67.894" y1="108.69" x2="67.854" y2="113.11" gradientUnits="userSpaceOnUse"><stop stop-color="#f9f9f9"/><stop offset="1" stop-color="#999"/></linearGradient><radialGradient id="0" gradientUnits="userSpaceOnUse" cy="11.491" cx="15.5" gradientTransform="matrix(1 0 0 1.1525 0-1.752)" r="6.5"><stop/><stop stop-opacity="0" offset="1"/></radialGradient></defs><rect width="28.2" height="28.2" x="1.898" y="1.898" fill="#4d4d4d" fill-rule="evenodd" rx="5.575"/><g transform="matrix(.70496 0 0 .70496 4.721 4.721)" stroke-width="2.01"><path d="m6 13v1.666c0 4.336 3.933 7.877 9 8.293v4.04h-7v2h16v-2h-7v-4.04c5.067-.416 9-3.957 9-8.293v-1.666h-2v1.334c0 3.693-3.568 6.666-8 6.666-4.432 0-8-2.973-8-6.666v-1.334" fill="#d846d8"/><rect x="-19" y="-23" width="16" height="14" transform="matrix(0-1-1 0 0 0)" rx="6.667" ry="7" fill="#909090"/><path d="M13.5 4A.5 .5 0 0 0 13 4.5 .5 .5 0 0 0 13.5 5 .5 .5 0 0 0 14 4.5 .5 .5 0 0 0 13.5 4m2 0A.5 .5 0 0 0 15 4.5 .5 .5 0 0 0 15.5 5 .5 .5 0 0 0 16 4.5 .5 .5 0 0 0 15.5 4m2 0A.5 .5 0 0 0 17 4.5 .5 .5 0 0 0 17.5 5 .5 .5 0 0 0 18 4.5 .5 .5 0 0 0 17.5 4m2 0A.5 .5 0 0 0 19 4.5 .5 .5 0 0 0 19.5 5 .5 .5 0 0 0 20 4.5 .5 .5 0 0 0 19.5 4M11.93 4.242C11.655 4.429 11.394 4.635 11.15 4.857A.5 .5 0 0 0 11.5 5 .5 .5 0 0 0 12 4.5 .5 .5 0 0 0 11.93 4.2422M11.5 6A.5 .5 0 0 0 11 6.5 .5 .5 0 0 0 11.5 7 .5 .5 0 0 0 12 6.5 .5 .5 0 0 0 11.5 6m2 0A.5 .5 0 0 0 13 6.5 .5 .5 0 0 0 13.5 7 .5 .5 0 0 0 14 6.5 .5 .5 0 0 0 13.5 6m2 0A.5 .5 0 0 0 15 6.5 .5 .5 0 0 0 15.5 7 .5 .5 0 0 0 16 6.5 .5 .5 0 0 0 15.5 6m2 0A.5 .5 0 0 0 17 6.5 .5 .5 0 0 0 17.5 7 .5 .5 0 0 0 18 6.5 .5 .5 0 0 0 17.5 6m2 0A.5 .5 0 0 0 19 6.5 .5 .5 0 0 0 19.5 7 .5 .5 0 0 0 20 6.5 .5 .5 0 0 0 19.5 6m2 0A.5 .5 0 0 0 21 6.5 .5 .5 0 0 0 21.5 7 .5 .5 0 0 0 22 6.5 .5 .5 0 0 0 21.5 6M9.959 6.301C9.822 6.524 9.696 6.753 9.586 6.992A.5 .5 0 0 0 10 6.5 .5 .5 0 0 0 9.959 6.3008M9.5 8A.5 .5 0 0 0 9.2012 8.0996C9.147 8.315 9.104 8.534 9.07 8.758A.5 .5 0 0 0 9.5 9 .5 .5 0 0 0 10 8.5 .5 .5 0 0 0 9.5 8m2 0A.5 .5 0 0 0 11 8.5 .5 .5 0 0 0 11.5 9 .5 .5 0 0 0 12 8.5 .5 .5 0 0 0 11.5 8m2 0A.5 .5 0 0 0 13 8.5 .5 .5 0 0 0 13.5 9 .5 .5 0 0 0 14 8.5 .5 .5 0 0 0 13.5 8m2 0A.5 .5 0 0 0 15 8.5 .5 .5 0 0 0 15.5 9 .5 .5 0 0 0 16 8.5 .5 .5 0 0 0 15.5 8m2 0A.5 .5 0 0 0 17 8.5 .5 .5 0 0 0 17.5 9 .5 .5 0 0 0 18 8.5 .5 .5 0 0 0 17.5 8m2 0A.5 .5 0 0 0 19 8.5 .5 .5 0 0 0 19.5 9 .5 .5 0 0 0 20 8.5 .5 .5 0 0 0 19.5 8m2 0A.5 .5 0 0 0 21 8.5 .5 .5 0 0 0 21.5 9 .5 .5 0 0 0 22 8.5 .5 .5 0 0 0 21.5 8m-12 2A.5 .5 0 0 0 9 10.5 .5 .5 0 0 0 9.5 11 .5 .5 0 0 0 10 10.5 .5 .5 0 0 0 9.5 10m2 0A.5 .5 0 0 0 11 10.5 .5 .5 0 0 0 11.5 11 .5 .5 0 0 0 12 10.5 .5 .5 0 0 0 11.5 10m2 0A.5 .5 0 0 0 13 10.5 .5 .5 0 0 0 13.5 11 .5 .5 0 0 0 14 10.5 .5 .5 0 0 0 13.5 10m2 0A.5 .5 0 0 0 15 10.5 .5 .5 0 0 0 15.5 11 .5 .5 0 0 0 16 10.5 .5 .5 0 0 0 15.5 10m2 0A.5 .5 0 0 0 17 10.5 .5 .5 0 0 0 17.5 11 .5 .5 0 0 0 18 10.5 .5 .5 0 0 0 17.5 10m2 0A.5 .5 0 0 0 19 10.5 .5 .5 0 0 0 19.5 11 .5 .5 0 0 0 20 10.5 .5 .5 0 0 0 19.5 10m2 0A.5 .5 0 0 0 21 10.5 .5 .5 0 0 0 21.5 11 .5 .5 0 0 0 22 10.5 .5 .5 0 0 0 21.5 10m-12 2a.5 .5 0 0 0 -.4941 .436c.001.062.007.123.01.185A.5 .5 0 0 0 9.5 13 .5 .5 0 0 0 10 12.5 .5 .5 0 0 0 9.5 12m2 0A.5 .5 0 0 0 11 12.5 .5 .5 0 0 0 11.5 13 .5 .5 0 0 0 12 12.5 .5 .5 0 0 0 11.5 12m2 0A.5 .5 0 0 0 13 12.5 .5 .5 0 0 0 13.5 13 .5 .5 0 0 0 14 12.5 .5 .5 0 0 0 13.5 12m2 0A.5 .5 0 0 0 15 12.5 .5 .5 0 0 0 15.5 13 .5 .5 0 0 0 16 12.5 .5 .5 0 0 0 15.5 12m2 0A.5 .5 0 0 0 17 12.5 .5 .5 0 0 0 17.5 13 .5 .5 0 0 0 18 12.5 .5 .5 0 0 0 17.5 12m2 0A.5 .5 0 0 0 19 12.5 .5 .5 0 0 0 19.5 13 .5 .5 0 0 0 20 12.5 .5 .5 0 0 0 19.5 12m2 0A.5 .5 0 0 0 21 12.5 .5 .5 0 0 0 21.5 13 .5 .5 0 0 0 22 12.5 .5 .5 0 0 0 21.5 12m-12 2a.5 .5 0 0 0 -.2539 .068c.089.318.197.629.332.926A.5 .5 0 0 0 10 14.5 .5 .5 0 0 0 9.5 14m2 0A.5 .5 0 0 0 11 14.5 .5 .5 0 0 0 11.5 15 .5 .5 0 0 0 12 14.5 .5 .5 0 0 0 11.5 14m2 0A.5 .5 0 0 0 13 14.5 .5 .5 0 0 0 13.5 15 .5 .5 0 0 0 14 14.5 .5 .5 0 0 0 13.5 14m2 0A.5 .5 0 0 0 15 14.5 .5 .5 0 0 0 15.5 15 .5 .5 0 0 0 16 14.5 .5 .5 0 0 0 15.5 14m2 0A.5 .5 0 0 0 17 14.5 .5 .5 0 0 0 17.5 15 .5 .5 0 0 0 18 14.5 .5 .5 0 0 0 17.5 14m2 0A.5 .5 0 0 0 19 14.5 .5 .5 0 0 0 19.5 15 .5 .5 0 0 0 20 14.5 .5 .5 0 0 0 19.5 14m2 0A.5 .5 0 0 0 21 14.5 .5 .5 0 0 0 21.5 15 .5 .5 0 0 0 22 14.5 .5 .5 0 0 0 21.5 14m-10 2A.5 .5 0 0 0 11 16.5 .5 .5 0 0 0 11.5 17 .5 .5 0 0 0 12 16.5 .5 .5 0 0 0 11.5 16m2 0A.5 .5 0 0 0 13 16.5 .5 .5 0 0 0 13.5 17 .5 .5 0 0 0 14 16.5 .5 .5 0 0 0 13.5 16m2 0A.5 .5 0 0 0 15 16.5 .5 .5 0 0 0 15.5 17 .5 .5 0 0 0 16 16.5 .5 .5 0 0 0 15.5 16m2 0A.5 .5 0 0 0 17 16.5 .5 .5 0 0 0 17.5 17 .5 .5 0 0 0 18 16.5 .5 .5 0 0 0 17.5 16m2 0A.5 .5 0 0 0 19 16.5 .5 .5 0 0 0 19.5 17 .5 .5 0 0 0 20 16.5 .5 .5 0 0 0 19.5 16m2 0a.5 .5 0 0 0 -.5 .5 .5 .5 0 0 0 .145 .352c.232-.24.451-.49.644-.76A.5 .5 0 0 0 21.5 16m-8 2a.5 .5 0 0 0 -.48 .363c.3.135.61.255.933.348A.5 .5 0 0 0 14 18.5 .5 .5 0 0 0 13.5 18m2 0a.5 .5 0 0 0 -.5 .5 .5 .5 0 0 0 .318 .467c.104.009.21.01.315.015A.5 .5 0 0 0 16 18.5 .5 .5 0 0 0 15.5 18m2 0a.5 .5 0 0 0 -.5 .5 .5 .5 0 0 0 .195 .396c.253-.041.502-.094.744-.16A.5 .5 0 0 0 18 18.5 .5 .5 0 0 0 17.5 18m2 0a.5 .5 0 0 0 -.475 .344c.214-.098.421-.206.621-.323A.5 .5 0 0 0 19.5 18" opacity=".7" fill="url(#0)"/></g>

   xmlns:dc="http://purl.org/dc/elements/1.1/"
   xmlns:cc="http://creativecommons.org/ns#"
   xmlns:rdf="http://www.w3.org/1999/02/22-rdf-syntax-ns#"
   xmlns:svg="http://www.w3.org/2000/svg"
   xmlns="http://www.w3.org/2000/svg"
   xmlns:xlink="http://www.w3.org/1999/xlink"
   xmlns:sodipodi="http://sodipodi.sourceforge.net/DTD/sodipodi-0.dtd"
   xmlns:inkscape="http://www.inkscape.org/namespaces/inkscape"
   version="1"
   width="32"
   height="32"
   id="svg12"
   sodipodi:docname="snow-top-1.svg"
   inkscape:version="0.92.1 r"&gt;
  <path d="m7.288.009c-8.276-.356-9.36 9.992-4.02 9.973.679.003 1.604-.207 2.97-1.543 7.256-10.531 14.706 3.573 17.53.919 1.71-1.912 3.496-.418 4.448.115 2.1.643 3.662.041 3.785-3.231.188-3.321-1.889-6.344-5.923-6.223-5.914.14-12.989-.047-18.787-.01" fill="url(#1)"/><path fill="#f00" fill-opacity="0" d="m0 0h32v32h-32z"/></svg>