<svg xmlns="http://www.w3.org/2000/svg" viewBox="0 0 32 32"><defs><linearGradient gradientTransform="matrix(2.59244 0 0 2.58531-157.93-277.73)" id="0" x1="67.894" y1="108.69" x2="67.854" y2="113.11" gradientUnits="userSpaceOnUse"><stop stop-color="#f9f9f9"/><stop offset="1" stop-color="#999"/></linearGradient></defs><rect width="28.2" height="28.2" x="1.898" y="1.898" fill="#72a7ce" fill-rule="evenodd" rx="5.575"/><g><path d="m23.999 8c0 0-2.399-.067-4.797 1.133-.733.333-1.532.866-2.199 1.532-1.077 1.077-2.751 3.061-4.069 4.664h-2.927l-1.333 1.999 2.26.611c.007.081.028.195.091.348l-.351.772c0 0-.133.267.866 1.333 1.067 1.067 1.4.933 1.4.933l.828-.376c.124.039.216.052.276.052l.628 2.323 1.999-1.333v-3.02c1.614-1.305 3.595-2.946 4.664-3.98.666-.666 1.199-1.466 1.598-2.199 1.132-2.398 1.066-4.797 1.066-4.797" fill="#ffca68"/><path d="m19.335 13.997c-.734 0-1.333-.6-1.333-1.333 0-.734.599-1.333 1.333-1.333.733 0 1.333.599 1.333 1.333 0 .733-.6 1.333-1.333 1.333" fill="#fff"/><path d="m12.339 21.993c.133.067.2.133.333.2-.133.133-.267.333-.4.466-1.533 1.532-4.263 1.333-4.263 1.333 0 0-.2-2.732 1.333-4.264.133-.134.333-.266.466-.4.067.133.133.2.2.333-.999 1.265-.866 3.198-.866 3.198 0 0 1.931.133 3.198-.866" fill="#ffca68"/></g>

   xmlns:dc="http://purl.org/dc/elements/1.1/"
   xmlns:cc="http://creativecommons.org/ns#"
   xmlns:rdf="http://www.w3.org/1999/02/22-rdf-syntax-ns#"
   xmlns:svg="http://www.w3.org/2000/svg"
   xmlns="http://www.w3.org/2000/svg"
   xmlns:xlink="http://www.w3.org/1999/xlink"
   xmlns:sodipodi="http://sodipodi.sourceforge.net/DTD/sodipodi-0.dtd"
   xmlns:inkscape="http://www.inkscape.org/namespaces/inkscape"
   version="1"
   width="32"
   height="32"
   id="svg12"
   sodipodi:docname="snow-top-4.svg"
   inkscape:version="0.92.1 r"&gt;
  <path d="m7.196.009c-8.161-.339-9.231 9.523-3.968 9.505.669.003 1.581-.197 2.929-1.471 3.773-4.147 9.01 4.479 14.696-1.042.61-.911 1.804-1.135 2.455-.627 1.045.677 2.87 2.991 3.88 3 2.359.513 4.095-.198 4.816-3.188.185-3.165-2.303-6.286-6.281-6.17-5.832.133-12.809-.045-18.527-.01" fill="url(#0)"/></svg>