<svg xmlns="http://www.w3.org/2000/svg" viewBox="0 0 32 32"><defs><linearGradient gradientTransform="matrix(2.62891 0 0 2.71269-160.16-291.42)" id="0" x1="67.894" y1="108.69" x2="67.854" y2="113.11" gradientUnits="userSpaceOnUse"><stop stop-color="#f9f9f9"/><stop offset="1" stop-color="#999"/></linearGradient></defs><rect width="28.2" height="28.2" x="1.898" y="1.898" fill="#4f4f4f" fill-rule="evenodd" rx="5.575"/><g transform="translate(43.13-4.53)"><path d="m-26.13433 9.02985a8 8 0 0 0 -8 8 8 8 0 0 0 .006 .156c-.002.049-.012.096-.012.145.002.126.004.253.012.379 0 .025-.002.049-.002.074v1.492l-.01.555-1.826 2.881c-.42.801-.023 1.298.879 1.31l.957.014v2.25c0 .941.879 1.73 1.824 1.73l2.172.028v3.935c.332.023.662.051 1 .051 2.987 0 5.745-.933 8.01-2.516v-5.884c0-.13-.008-.238-.01-.36a8 8 0 0 0 2.996 -6.24 8 8 0 0 0 -8 -8" fill="#6084ff"/><g transform="translate(-45.13 2.03)" fill="#fff"><path d="M19.5 10A4.5 4.5 0 0 0 15 14.5 4.5 4.5 0 0 0 19.5 19 4.5 4.5 0 0 0 24 14.5 4.5 4.5 0 0 0 19.5 10m0 2A2.5 2.5 0 0 1 22 14.5 2.5 2.5 0 0 1 19.5 17 2.5 2.5 0 0 1 17 14.5 2.5 2.5 0 0 1 19.5 12"/><circle r="1.5" cx="19.5" cy="14.5"/></g></g>

   xmlns:dc="http://purl.org/dc/elements/1.1/"
   xmlns:cc="http://creativecommons.org/ns#"
   xmlns:rdf="http://www.w3.org/1999/02/22-rdf-syntax-ns#"
   xmlns:svg="http://www.w3.org/2000/svg"
   xmlns="http://www.w3.org/2000/svg"
   xmlns:xlink="http://www.w3.org/1999/xlink"
   xmlns:sodipodi="http://sodipodi.sourceforge.net/DTD/sodipodi-0.dtd"
   xmlns:inkscape="http://www.inkscape.org/namespaces/inkscape"
   version="1"
   width="32"
   height="32"
   id="svg12"
   sodipodi:docname="snow-top-1.svg"
   inkscape:version="0.92.1 r"&gt;
  <path d="m7.288.009c-8.276-.356-9.36 9.992-4.02 9.973.679.003 1.604-.207 2.97-1.543 7.256-10.531 14.706 3.573 17.53.919 1.71-1.912 3.496-.418 4.448.115 2.1.643 3.662.041 3.785-3.231.188-3.321-1.889-6.344-5.923-6.223-5.914.14-12.989-.047-18.787-.01" fill="url(#0)"/><path fill="#f00" fill-opacity="0" d="m0 0h32v32h-32z"/></svg>