<svg xmlns="http://www.w3.org/2000/svg" viewBox="0 0 32 32"><defs><linearGradient gradientTransform="matrix(2.54182 0 0 2.58531-153.47-277.37)" id="0" x1="67.894" y1="108.69" x2="67.854" y2="113.11" gradientUnits="userSpaceOnUse"><stop stop-color="#f9f9f9"/><stop offset="1" stop-color="#999"/></linearGradient></defs><rect width="28.2" height="28.2" x="1.898" y="1.898" fill="#4f4f4f" fill-rule="evenodd" rx="5.575"/><path d="m13.205 25.712c-1.759-.436-3.265-1.335-4.804-2.869-1.216-1.211-1.403-1.48-1.878-2.69-.47-1.2-.527-1.508-.522-2.849.007-2.138.424-3.427 1.623-5.02 1.128-1.497 1.636-1.911 3.429-2.791 1.257-.616 2.069-.856 3.842-1.134.722-.113.746-.363.077-.829-.856-.597-1.77-1.43-1.676-1.526.101-.103 3.47 1.063 5.01 1.736 1.962.855 4.377 2.526 5.482 3.793.434.498.637 1.021.397 1.021-.111 0-1.531-.643-2.967-1.344-.601-.293-1.162-.49-1.247-.437-.085.053.018.171.229.262.211.091.418.213.462.271.043.058.379.196.746.306.367.11.667.261.667.334 0 .073.088.137.196.142.108.005.546.176.973.379l.777.37-.62.174c-.958.268-1.375.218-3.149-.381-2.075-.7-4.186-.87-6.086-.49-1.874.374-2.045.664-1.117 1.889.716.945 1.439 1.177 2.515.809.441-.151.904-.208 1.152-.143.378.1.387.12.102.225-.286.106-.274.136.157.371.318.174.381.258.194.262-.299.007-.369.245-.118.402.297.185.161.418-.181.309-.273-.087-.318-.057-.237.158.08.21.036.245-.212.166-.234-.075-.314-.027-.317.187-.003.221-.105.165-.442-.244-.418-.508-.502-.538-1.919-.676-1.75-.171-2.218-.335-2.743-.964l-.391-.469-.419.921c-.545 1.2-.674 2.988-.298 4.13.852 2.584 2.644 3.682 4.473 2.741 1.242-.638 1.594-1.818.861-2.884-.424-.617-.428-1.296-.005-.942.254.213.412.078.425-.363.009-.295.027-.289.171.066l.161.396.241-.356c.298-.441.514-.462.405-.04-.093.358.104.414.412.119.168-.162.186-.13.094.174-.1.332-.073.361.257.267.316-.089.294-.039-.161.352l-.529.456.113 1.742.113 1.742-.48.407c-.476.404-.477.408-.121.498.512.129 2.706-.148 3.633-.458 1.557-.522 3.405-1.93 4.169-3.175.96-1.565 1.494-4.605 1.033-5.882-.196-.544-.203-.673-.033-.673.424 0 .866 1.729.872 3.409.007 2.075-.746 4.01-2.203 5.654-2.286 2.585-6.929 3.893-10.592 2.985" fill="#fecd38"/>

   xmlns:dc="http://purl.org/dc/elements/1.1/"
   xmlns:cc="http://creativecommons.org/ns#"
   xmlns:rdf="http://www.w3.org/1999/02/22-rdf-syntax-ns#"
   xmlns:svg="http://www.w3.org/2000/svg"
   xmlns="http://www.w3.org/2000/svg"
   xmlns:xlink="http://www.w3.org/1999/xlink"
   xmlns:sodipodi="http://sodipodi.sourceforge.net/DTD/sodipodi-0.dtd"
   xmlns:inkscape="http://www.inkscape.org/namespaces/inkscape"
   height="32"
   width="32"
   version="1"
   id="svg8"
   sodipodi:docname="snow-top-2.svg"
   inkscape:version="0.92.1 r"&gt;
  <path d="m24.646 6.111c2.995 2.684 1.381 7.817 3.674 8.291 2.031.613 3.541-1.385 3.66-4.503.35-8.627-3.911-9.427-6.879-9.524-28.342-2.047-1.762 4.92-.455 5.736" fill="url(#0)"/></svg>