<svg xmlns="http://www.w3.org/2000/svg" xmlns:xlink="http://www.w3.org/1999/xlink" viewBox="0 0 32 32"><defs><linearGradient xlink:href="#3" id="4" gradientUnits="userSpaceOnUse" x1="-23.24" y1="-185.08" x2="-28.704" y2="-186.05"/><linearGradient xlink:href="#3" id="2" gradientUnits="userSpaceOnUse" x1="-34.914" y1="-193.53" x2="-20.469" y2="-181.36"/><linearGradient id="3"><stop stop-color="#ffff5e"/><stop offset="1" stop-color="#f6a32d"/></linearGradient><linearGradient id="1"><stop stop-color="#f9f9f9"/><stop offset="1" stop-color="#999"/></linearGradient><linearGradient xlink:href="#1" id="0" gradientUnits="userSpaceOnUse" x1="-33.14" y1="-185.13" x2="-35.775" y2="-177.2"/><radialGradient xlink:href="#1" id="5" cx="-176.59" cy="-120.91" r="3.01" gradientUnits="userSpaceOnUse" gradientTransform="matrix(2.21087.05719-.05496 2.12455 362.18 94.22)"/></defs><g transform="translate(55.05 4.811)"><g fill-rule="evenodd"><path d="m-25.2 20.982c-.041-.409-.087-.819-.244-1.182-.207-.478-.508-.909-.879-1.27-.371-.361-.815-.652-1.307-.854-.492-.201-1.033-.313-1.602-.313h-19.721c-.569 0-1.11.111-1.602.313-.492.201-.935.493-1.307.854-.371.361-.67.792-.877 1.27-.128.296-.147.636-.199.963.503 2.564 2.647 4.527 5.363 4.527h17.05c2.638 0 4.733-1.854 5.318-4.309" fill="#666"/><path d="m-53.15 12.06v7.652c0 .373.142.697.211 1.049.052-.327.071-.667.199-.963.207-.478.506-.909.877-1.27.371-.361.815-.652 1.307-.854.492-.201 1.033-.313 1.602-.313h19.721c.569 0 1.11.111 1.602.313.492.201.935.493 1.307.854.371.361.672.792.879 1.27.157.363.203.773.244 1.182.1-.419.256-.817.256-1.268v-7.652" fill="#38592b"/><path d="m-47.576-2.912c-3.089 0-5.574 2.486-5.574 5.574v11.22h28.2v-11.22c0-3.089-2.486-5.574-5.574-5.574z" fill="#e6e6e6"/></g><g transform="matrix(1.33034 0 0 1.33034-58.38-7.911)" fill="#b3b3b3" stroke-width=".752"><circle r="2" cy="22" cx="7"/><circle r="2" cy="22" cx="12"/><circle r="2" cy="22" cx="17"/><circle r="2" cy="22" cx="22"/></g><path d="m-40.551 8.312c-3.242 0-5.871 2.19-5.871 4.892.002.234.025.468.068.699h11.608c.042-.231.064-.465.066-.699-.002-.474-.086-.711-.25-1.165h9.942v-1.864h-10.753c-1.096-1.312-2.892-1.862-4.81-1.864" fill="#5b7338" stroke-width="1"/></g><g transform="translate(49.877 194.68)"><path d="m-35.21-194.22c-5.577-1.531-5.951 3.24-4.58 5.493 4.381 6.983 6.796 6.577 9.398 7.895 1.712 2.064 3.451 3.4 6.469 4.1 11.69 1.559 3.242-8.417.92-8.649-5.065.012-7.547-6.123-12.206-8.838" fill="url(#0)"/><path d="m-35.21-194.22c3.76.276 5.616-.626 8.93-.421 4.319.283 8.307 2.053 7.838 6.574-.347 2.567-.37 2.25.186 4.296.532 1.535-.252 4.232-.487 4.654-2.715 4.963-1.536 4.965-2.656 7.742l-.906-.418-2.508-11.358c-7.177-.909-10.754-10.11-10.398-11.07" fill="url(#2)"/><path d="m-28.419-184.29c.362.274 1.553-5.105 1.172-5.653 1.379 2.44 1.919 4.616 2.435 6.783-1.276-.283-2.289-.554-3.607-1.13" fill="url(#4)"/><circle r="3.01" cy="-171.07" cx="-21.728" fill="url(#5)"/></g></svg>