<svg xmlns="http://www.w3.org/2000/svg" viewBox="0 0 32 32"><defs><linearGradient gradientTransform="matrix(-2.65552 0 0 2.58531 193.77-277.73)" id="0" x1="67.894" y1="108.69" x2="67.854" y2="113.11" gradientUnits="userSpaceOnUse"><stop stop-color="#f9f9f9"/><stop offset="1" stop-color="#999"/></linearGradient></defs><rect width="28.2" height="28.2" x="1.898" y="1.898" fill="#4f4f4f" fill-rule="evenodd" rx="5.575"/><g transform="translate(44.3 11.02)"><rect transform="matrix(.86603.5-.5.86603 0 0)" ry=".194" rx=".19" y="7.142" x="-22.18" height="4.36" width="1.453" fill="#ffd38d"/><path d="m-24.893-3.707c-.233-.134-.528-.055-.662.177l-.658 1.141a8.719067 8.719067 0 0 0 -9.638929 4.100868 8.719067 8.719067 0 0 0 3.191179 11.910246 8.719067 8.719067 0 0 0 11.910246 -3.191179 8.719067 8.719067 0 0 0 -1.268625 -10.396035l.659-1.142c.134-.232.055-.528-.177-.662l-3.356-1.938" fill="#fff"/><path d="m-29.401-.468c-.128-.001-.245.004-.348.013-.963.086-2.218.943-3.282 2.244-1.029 1.257-1.326 2.262-.887 3 .494.833 1.067 1.307 1.865 1.545.683.204.887.328 1.472.894.944.914 1.269 1.016 3.254 1.022.838.003 1.848-.032 2.244-.075.585-.064.832-.139 1.316-.403 1.282-.701 1.489-1.177 1.111-2.55-.118-.428-.31-1.333-.427-2.01-.117-.678-.264-1.338-.328-1.466-.284-.571-1.197-1.12-2.77-1.667-.862-.3-2.319-.54-3.219-.546m-.558 2.906c.763.032.935.701.931 1.273 0 .808-.116 1.12-.534 1.429-.312.231-1.073.278-1.301.081-.238-.206-.345-.592-.345-1.247 0-.987.446-1.535 1.249-1.535m3.87 0h.002c.188-.003.389.057.63.177.249.125.529.327.622.448.222.289.223.94.004 1.665-.331 1.094-.988 1.535-1.893 1.266-.348-.103-.759-.594-.833-.996-.12-.65.413-2.026.914-2.363.191-.128.367-.194.555-.197m-6.372 4.36c-.306-.002-.63.1-.942.307-.382.253-1.129 1.135-1.327 1.568-.375.82.248 2.088 1.182 2.405.329.111.334.111.632-.033.354-.171.527-.4 1.141-1.51.414-.75.525-1.03.555-1.412.034-.432.012-.508-.228-.817-.259-.334-.619-.506-1.012-.508m3.02 2.18c-.705 0-1.206.443-1.533 1.352-.283.788-.315 1.457-.081 1.692.408.408 1.918.738 2.378.519.192-.091.252-.227.343-.781.087-.53-.034-1.713-.223-2.17-.168-.407-.466-.613-.886-.613m3.309 0c-.063 0-.137.003-.224.01-.523.04-.805.218-1.057.666-.168.299-.184.408-.149 1.013.043.755.159 1.142.363 1.198.219.06 1.203-.028 1.635-.148.531-.147.893-.435.893-.711 0-.294-.765-1.691-1.035-1.889-.135-.099-.236-.137-.426-.139" fill="#4f4f4f"/></g>

   xmlns:dc="http://purl.org/dc/elements/1.1/"
   xmlns:cc="http://creativecommons.org/ns#"
   xmlns:rdf="http://www.w3.org/1999/02/22-rdf-syntax-ns#"
   xmlns:svg="http://www.w3.org/2000/svg"
   xmlns="http://www.w3.org/2000/svg"
   xmlns:xlink="http://www.w3.org/1999/xlink"
   xmlns:sodipodi="http://sodipodi.sourceforge.net/DTD/sodipodi-0.dtd"
   xmlns:inkscape="http://www.inkscape.org/namespaces/inkscape"
   version="1"
   width="32"
   height="32"
   id="svg12"
   sodipodi:docname="snow-top-3.svg"
   inkscape:version="0.92.1 r"&gt;
  <path d="m24.627.009c8.36-.339 9.455 9.523 4.064 9.505-.686.003-1.62-.197-3-1.471-14.665-10.216-14.549 2.967-17.708.875-1.727-1.822-1.743 4.653-4.139 5.127-2.122.613-3.699-1.385-3.824-4.503-.366-8.627 4.086-9.427 7.187-9.524 5.974.133 11.562-.045 17.419-.01" fill="url(#0)"/></svg>