<svg xmlns="http://www.w3.org/2000/svg" viewBox="0 0 32 32"><defs><linearGradient gradientTransform="matrix(2.54182 0 0 2.58531-153.47-277.37)" id="0" x1="67.894" y1="108.69" x2="67.854" y2="113.11" gradientUnits="userSpaceOnUse"><stop stop-color="#f9f9f9"/><stop offset="1" stop-color="#999"/></linearGradient></defs><rect width="28.2" height="28.2" x="1.898" y="1.898" fill="#435672" fill-rule="evenodd" rx="5.575"/><g fill="#99bde0" color-rendering="auto" shape-rendering="auto" color-interpolation-filters="linearRGB" image-rendering="auto" color-interpolation="sRGB" color="#000"><path d="m1.924 9.85h28.14v-.613h-28.14" mix-blend-mode="normal" isolation="auto" white-space="normal" solid-opacity="1" solid-color="#000000" vector-effect="none" shape-padding="0"/><path d="m1.924 19.799h2.715l2.699 4.438h17.473l2.553-4.512h2.701v-.613h-2.777l-2.809-2.182h-16.928l-2.846 2.256h-2.641l-.141-.156m5.84-1.486h16.504l2.518 1.955-2.334 4.125h-16.768l-2.469-4.061z" mix-blend-mode="normal" isolation="auto" white-space="normal" solid-opacity="1" solid-color="#000000" vector-effect="none" shape-padding="0"/></g><path d="m20.01 10.898c-.279 0-.526.045-.736.137-.21.092-.376.223-.5.395-.122.171-.196.362-.221.57-.022.206-.035.557-.035 1.055v.848c0 .51.013.868.037 1.072.024.204.102.393.23.566.129.173.298.303.508.391.212.086.452.129.717.129.279 0 .524-.047.734-.139.21-.092.376-.223.498-.395.124-.171.198-.36.221-.566.024-.208.037-.561.037-1.059v-.848c0-.51-.013-.866-.037-1.07-.024-.204-.102-.393-.23-.566-.129-.173-.298-.303-.51-.389-.21-.088-.448-.131-.713-.131m-15.812.104l.574 4.955h1.602c.188-1.316.306-2.182.357-2.596.112.969.242 1.835.389 2.596h1.609l.572-4.955h-1.252c-.167 1.147-.286 2.318-.357 3.516l-.141-1.881c-.075-.945-.122-1.49-.141-1.635h-1.34c-.19 1.402-.309 2.534-.355 3.396l-.135-1.668-.131-1.729h-1.252m5.668 0l-.656 4.955h1.334l.078-.891h.461l.064.891h1.318l-.736-4.955h-1.863m2.826 0v4.955h1.289v-2.234c.177 0 .287.031.328.094.043.063.062.229.063.494v1.646h1.197v-1.307c0-.4-.011-.645-.033-.732-.02-.09-.074-.187-.162-.293-.088-.106-.259-.191-.514-.254.282-.027.469-.108.564-.24.096-.133.145-.39.145-.775 0-.422-.068-.73-.205-.922-.135-.194-.309-.314-.525-.361-.214-.047-.626-.07-1.234-.07h-.912m3.275 0v.992h.875l-.992 3.242v.721h2.375v-.992h-.961l.961-2.971v-.992h-2.258m6.02 0v4.955h1.078v-2.254l.67 2.254h1.129v-4.955h-1.078v2.23l-.721-2.23h-1.078m3.391 0v4.955h2.234v-.992h-.945v-1.09h.805v-.941h-.805v-.939h.859v-.992h-2.148m-5.357.734c.08 0 .132.032.156.098.027.063.039.211.039.441v2.275c0 .292-.013.477-.037.555-.024.078-.08.117-.168.117-.086 0-.142-.034-.166-.102-.022-.067-.033-.246-.033-.533v-2.313c0-.255.018-.408.053-.459.037-.053.089-.08.156-.08m-6.04.113c.149 0 .252.025.307.074.057.049.084.152.084.309v.271c0 .218-.029.348-.088.389-.057.039-.158.059-.303.059v-1.102m-3.131.26c.065.824.13 1.517.195 2.078h-.439c.033-.439.114-1.132.244-2.078m1.34 6.553c-.19 0-.352.03-.488.09-.136.06-.247.15-.332.268-.085.117-.139.237-.16.359-.022.121-.033.286-.033.496v.137h.84v-.357c0-.165.017-.276.051-.332.036-.056.089-.084.16-.084.071 0 .124.025.158.076.036.049.053.127.053.229 0 .133-.058.319-.174.557-.114.236-.477.853-1.088 1.852v.535h2.063v-.639h-1.027c.525-.777.841-1.286.947-1.525.108-.24.162-.467.162-.682 0-.283-.095-.517-.287-.701-.19-.185-.471-.277-.844-.277m4.309 0c-.252 0-.467.051-.645.154-.176.104-.295.243-.355.414-.059.172-.088.429-.088.773v1.311c0 .264.018.456.055.578.037.121.099.236.188.346.088.11.207.192.355.244.148.051.334.076.559.076.17 0 .323-.025.461-.074.138-.049.256-.131.354-.244.097-.113.16-.233.191-.363.031-.13.047-.337.047-.621v-1.252c0-.284-.016-.491-.045-.621-.028-.13-.082-.246-.162-.35-.08-.104-.201-.191-.363-.262-.162-.073-.345-.109-.551-.109m2.549 0c-.252 0-.467.051-.645.154-.176.104-.293.243-.354.414-.059.172-.09.429-.09.773v1.311c0 .264.02.456.057.578.037.121.099.236.188.346.088.11.207.192.355.244.148.051.334.076.559.076.17 0 .323-.025.461-.074.138-.049.254-.131.352-.244.097-.113.162-.233.193-.363.031-.13.047-.337.047-.621v-1.252c0-.284-.016-.491-.045-.621-.028-.13-.082-.246-.162-.35-.08-.104-.201-.191-.363-.262-.162-.073-.347-.109-.553-.109m-4.553.072c-.235.303-.578.502-1.031.6v.438h.092c.216 0 .356.016.418.047.063.029.101.074.115.133.014.059.021.233.021.523v2.01h.936v-3.752h-.551m2.023.504c.071 0 .116.025.135.076.02.049.029.176.029.375v1.859c0 .184-.01.301-.031.354-.022.053-.067.08-.137.08-.07 0-.115-.024-.137-.068-.02-.045-.031-.177-.031-.395v-1.83c0-.193.012-.317.033-.369.023-.054.069-.082.139-.082m2.551 0c.071 0 .116.025.135.076.02.049.029.176.029.375v1.859c0 .184-.01.301-.031.354-.022.053-.069.08-.139.08-.07 0-.115-.024-.137-.068-.02-.045-.029-.177-.029-.395v-1.83c0-.193.012-.317.033-.369.023-.054.069-.082.139-.082" fill="#dce7f5"/>

   xmlns:dc="http://purl.org/dc/elements/1.1/"
   xmlns:cc="http://creativecommons.org/ns#"
   xmlns:rdf="http://www.w3.org/1999/02/22-rdf-syntax-ns#"
   xmlns:svg="http://www.w3.org/2000/svg"
   xmlns="http://www.w3.org/2000/svg"
   xmlns:xlink="http://www.w3.org/1999/xlink"
   xmlns:sodipodi="http://sodipodi.sourceforge.net/DTD/sodipodi-0.dtd"
   xmlns:inkscape="http://www.inkscape.org/namespaces/inkscape"
   height="32"
   width="32"
   version="1"
   id="svg8"
   sodipodi:docname="snow-top-2.svg"
   inkscape:version="0.92.1 r"&gt;
  <path d="m24.646 6.111c2.995 2.684 1.381 7.817 3.674 8.291 2.031.613 3.541-1.385 3.66-4.503.35-8.627-3.911-9.427-6.879-9.524-28.342-2.047-1.762 4.92-.455 5.736" fill="url(#0)"/></svg>