<svg xmlns="http://www.w3.org/2000/svg" viewBox="0 0 32 32"><defs><linearGradient gradientTransform="matrix(-2.65552 0 0 2.58531 193.77-277.73)" id="0" x1="67.894" y1="108.69" x2="67.854" y2="113.11" gradientUnits="userSpaceOnUse"><stop stop-color="#f9f9f9"/><stop offset="1" stop-color="#999"/></linearGradient></defs><rect width="28.2" height="28.2" x="1.898" y="1.898" fill="#41a6cc" fill-rule="evenodd" rx="5.575"/><g transform="matrix(1.0074 0 0 1.0074-.118-.963)" stroke-width=".993"><path d="M16.295507 8.094539A8.707553 8.707553 0 0 0 7.587955 16.802091 8.707553 8.707553 0 0 0 16.295507 25.509643 8.707553 8.707553 0 0 0 25.00306 16.802091 8.707553 8.707553 0 0 0 16.295507 8.094539" fill="#354358"/><path d="m17.14 4.596c-.253.002-.736.044-.983.112-.825.229-1.594 1.302-1.879 2.083-.043.117-.098.225-.123.237-.025.013-.124.037-.219.057-.976.204-2.168.652-2.985 1.12-1.837 1.052-3.247 2.545-4.164 4.41-.518 1.054-.812 2.02-.981 3.23-.072.514-.072 2.069 0 2.583.326 2.316 1.296 4.301 2.891 5.917 1.817 1.841 4.151 2.89 6.79 3.053.328.02 1.321-.012 1.707-.055 1.077-.122 2.224-.451 3.21-.92 3.215-1.529 5.406-4.595 5.81-8.124.02-.174.037-.65.037-1.061.063-1.175-.42-2.342-.904-3.201-.5-1.036-.597-1.934-.67-3.039.01-.067.009-.137-.002-.154-1.325.407-2.459 1.478-3.157 2.469-.472.753-.78 1.521-.782 2.198.066 1.728 1.545 2.972 1.577 4.532 0 1.656-.998 3.257-2.183 4.402-.238.23-.296.273-.322.246-.009-.009.029-.11.082-.226.825-1.81.651-3.979-.616-5.499-.177-.212-.874-.902-.974-.963.045.239.069.482.069.726 0 2.178-1.765 3.943-3.943 3.943-2.178 0-3.943-1.765-3.943-3.943 0-2.178 1.765-3.943 3.943-3.943.249.001.497.025.741.072.013.001.026.001.039.002.037-.031.06-.06.06-.069 0-.061-.971-1.033-1.24-1.242-.547-.424-1.171-.935-1.89-1.121-.193-.05-.294-.09-.294-.116 0-.073.684-.277 1.443-.43.922-.186 1.521-.231 3.309-.25.75-.008 1.489-.027 1.644-.043 1.927-.311 3.477-1.573 4.168-2.984.019-.064.017-.065-.282-.065-.633 0-1.271-.132-1.877-.399-.786-.446-1.477-.962-2.318-1.143-.217-.047-.806-.055-1.135-.1-.077-.661.216-1.621.499-2.047.07-.1.123-.198.117-.214-.011-.032-.118-.044-.27-.043" fill="#fff"/></g>

   xmlns:dc="http://purl.org/dc/elements/1.1/"
   xmlns:cc="http://creativecommons.org/ns#"
   xmlns:rdf="http://www.w3.org/1999/02/22-rdf-syntax-ns#"
   xmlns:svg="http://www.w3.org/2000/svg"
   xmlns="http://www.w3.org/2000/svg"
   xmlns:xlink="http://www.w3.org/1999/xlink"
   xmlns:sodipodi="http://sodipodi.sourceforge.net/DTD/sodipodi-0.dtd"
   xmlns:inkscape="http://www.inkscape.org/namespaces/inkscape"
   version="1"
   width="32"
   height="32"
   id="svg12"
   sodipodi:docname="snow-top-3.svg"
   inkscape:version="0.92.1 r"&gt;
  <path d="m24.627.009c8.36-.339 9.455 9.523 4.064 9.505-.686.003-1.62-.197-3-1.471-14.665-10.216-14.549 2.967-17.708.875-1.727-1.822-1.743 4.653-4.139 5.127-2.122.613-3.699-1.385-3.824-4.503-.366-8.627 4.086-9.427 7.187-9.524 5.974.133 11.562-.045 17.419-.01" fill="url(#0)"/></svg>