<svg xmlns="http://www.w3.org/2000/svg" viewBox="0 0 32 32" xmlns:xlink="http://www.w3.org/1999/xlink"><defs><linearGradient gradientTransform="matrix(-2.54182 0 0 2.58531 185.47-277.37)" id="1" x1="67.894" y1="108.69" x2="67.854" y2="113.11" gradientUnits="userSpaceOnUse"><stop stop-color="#f9f9f9"/><stop offset="1" stop-color="#999"/></linearGradient></defs><rect width="28.2" height="28.2" x="1.898" y="1.898" fill="#f3b616" fill-rule="evenodd" rx="5.575"/><path d="m24.62 4.862c.439 0 .685.346.736 1.038l-.555 3.258h.136l.291-.241h.078v.072c-.401.306-.788 1.142-1.163 2.51-.142 1.175-.381 2.261-.717 3.258-.297 1.03-.446 1.979-.446 2.848l-.562 1.714c0 .145.213.29.639.434-.078.338-.194.507-.349.507v.097h.136v.072c0 .177-.22.265-.659.265l.078.097v.338h-.136c.09.338.284.507.581.507v.169h-.581v.097c.194 0 .291.145.291.434l-.814.338.078.097v.072c0 .113-.097.169-.291.169v.097c.245 0 .368.056.368.169-.349.145-.807.861-1.376 2.148-.581 1.142-1.085 1.714-1.512 1.714h-.155c-.323-.257-.588-1.11-.795-2.558-.827-2.204-1.24-3.5-1.24-3.886 0-.998-.265-1.881-.795-3.01-.142-.499-.239-1.371-.291-2.127h-.349c-.878 1.657-1.337 2.923-1.376 3.856-.245.547-.439 1.207-.581 1.979.53.177.795.346.795.507v.097c-.413-.064-.704-.185-.872-.362-.181.434-.42 1.374-.717 3.353-.233.917-.523 1.259-.872 1.259-.982-.402-1.802-.945-2.461-1.862-.103 0-.271-.459-.504-1.376-.142 0-.239-.459-.291-1.376-.491-1.303-.827-2.524-1.01-4.198v-2.51h-.078l-.349.097v-.097c0-.113.116-.169.349-.169l-.078-1.448v-1.134l-.562-3.62v-1.366c.245-.965.672-1.448 1.279-1.448l.233.241-.233-.072c.943 1.287 1.499 2.195 1.667 3.08h.659v.169h-.504v.193c.194.74.336 1.11.426 1.11h.155l.349-.097.078.097.078-.097.078.097v.072c-.258.193-.433.459-.523.796h-.058v.169h.136c.181 2.687.517 5.079 1.01 6.463l.291.266h.155c.194 0 .601-1.055 1.221-2.938.4-.853.691-1.477.872-2.121l-.078-.265c.4-.627.814-.913 1.24-.913h.136c.271 0 .465.149.581.503.362.531.652 1.204.872 2.266l1.085 2.243c.142.177.213.378.213.603.4.949.762 2.099 1.085 2.405h.233c.271 0 .633-1.697 1.085-4.046.078 0 .291-.627.639-1.883v-.097l-.369-.169-.291.097h-.368v-.193l.736-.072h.582c.556-2.076 1.066-3.685 1.531-4.827.155-2.349.368-3.524.639-3.524l1.059-.434" fill="#fff"/>

   xmlns:dc="http://purl.org/dc/elements/1.1/"
   xmlns:cc="http://creativecommons.org/ns#"
   xmlns:rdf="http://www.w3.org/1999/02/22-rdf-syntax-ns#"
   xmlns:svg="http://www.w3.org/2000/svg"
   xmlns="http://www.w3.org/2000/svg"
   xmlns:xlink="http://www.w3.org/1999/xlink"
   xmlns:sodipodi="http://sodipodi.sourceforge.net/DTD/sodipodi-0.dtd"
   xmlns:inkscape="http://www.inkscape.org/namespaces/inkscape"
   height="32"
   width="32"
   version="1"
   id="svg8"
   sodipodi:docname="snow-top-3.svg"
   inkscape:version="0.92.1 r"&gt;
  <path fill="#00000f" fill-opacity="0" d="m0 0h32v32h-32z" id="0"/><path d="m7.354 6.111c-2.995 2.684-1.381 7.817-3.674 8.291-2.031.613-3.541-1.385-3.66-4.503-.35-8.627 3.911-9.427 6.879-9.524 28.342-2.047 1.762 4.92.455 5.736" fill="url(#1)"/><use xlink:href="#0"/></svg>