<svg xmlns="http://www.w3.org/2000/svg" viewBox="0 0 32 32" xmlns:xlink="http://www.w3.org/1999/xlink"><defs><linearGradient xlink:href="#3" id="4" x1="-227.98" y1="-131.26" x2="-234.8" y2="-134.14" gradientUnits="userSpaceOnUse"/><linearGradient xlink:href="#3" id="2" x1="-241.01" y1="-141.61" x2="-226.57" y2="-129.44" gradientUnits="userSpaceOnUse"/><linearGradient id="3"><stop stop-color="#13a9ea"/><stop offset="1" stop-color="#372db5"/></linearGradient><linearGradient id="1"><stop stop-color="#f9f9f9"/><stop offset="1" stop-color="#999"/></linearGradient><linearGradient xlink:href="#1" id="0" x1="-239.23" y1="-133.21" x2="-241.87" y2="-125.28" gradientUnits="userSpaceOnUse"/><radialGradient xlink:href="#1" id="5" cx="-176.59" cy="-120.91" r="3.01" gradientUnits="userSpaceOnUse" gradientTransform="matrix(2.21087.05719-.05496 2.12455 156.08 146.14)"/></defs><rect width="28.2" height="28.2" x="1.898" y="1.898" fill="#fff" fill-rule="evenodd" rx="5.575"/><g transform="matrix(.64125 0 0 .64125 5.099 5.74)"><path d="M16 1A14 13 0 0 0 2 14 14 13 0 0 0 7 23.957V29l3.721-2.967A14 13 0 0 0 16 27 14 13 0 0 0 30 14 14 13 0 0 0 16 1" fill="#50bcff"/><circle r="2" cy="11" cx="9" fill="#3f3f3f"/><circle r="2" cy="12" cx="23" opacity=".1"/><circle cx="23" cy="11" r="2" fill="#3f3f3f"/><path d="m22.003 10.99993a10 9.5 0 0 1 .853 .041c.206.016.408.043.61.07a10 9.5 0 0 1 .3203 .0459c.288.049.57.11.849.181a10 9.5 0 0 1 .0547 .0137c4.221 1.099 7.31 4.711 7.31 8.998 0 .031-.003.062-.003.093A10 9.5 0 0 1 32 20.4997 10 9.5 0 0 1 28.0986 28.0137V31l-2.751-1.561A10 9.5 0 0 1 22 29.9995 10 9.5 0 0 1 12.025 20.9845c-.008-.111-.014-.221-.018-.333a10 9.5 0 0 1 -.007 -.152 10 9.5 0 0 1 .002 -.062c0-.029-.002-.059-.002-.088 0-4.843 3.938-8.833 9-9.302a10 9.5 0 0 1 .832 -.0401c.056-.001.111-.008.167-.008.001 0 .001 0 .002 0" fill="#ccc"/><g fill="#3f3f3f"><circle cx="17" cy="19" r="2"/><circle r="2" cy="19" cx="27"/></g></g><g transform="matrix(-1 0 0 1-223.97 142.77)"><g fill="#f9f9f9"><path d="m-228.95-129.3l-.27 2.221-.122-2.378z"/><path d="m-228.66-130.01l-.27 2.221-.122-2.378z"/><path d="m-228.43-129.95l-.27 1.6-.122-1.713z"/></g><path d="m-241.31-142.31c-5.577-1.531-5.951 3.24-4.58 5.493 4.381 6.983 6.796 6.577 9.398 7.895 1.712 2.064 3.451 3.4 6.469 4.1 11.69 1.559 3.242-8.417.92-8.649-5.065.012-7.547-6.123-12.206-8.838" fill="url(#0)"/><path d="m-241.31-142.31c3.76.276 5.616-.626 8.93-.421 4.319.283 8.307 2.053 7.838 6.574-.347 2.567-.37 2.25.186 4.296.532 1.535-.252 4.232-.487 4.654-2.715 4.963-1.536 4.965-2.656 7.742l-.906-.418-2.508-11.358c-7.177-.909-10.754-10.11-10.398-11.07" fill="url(#2)"/><path d="m-234.52-132.37c.362.274 1.553-5.105 1.172-5.653 1.379 2.44 1.919 4.616 2.435 6.783-1.276-.283-2.289-.554-3.607-1.13" fill="url(#4)"/><circle r="3.01" cy="-119.15" cx="-227.83" fill="url(#5)"/></g></svg>