<svg xmlns="http://www.w3.org/2000/svg" xmlns:xlink="http://www.w3.org/1999/xlink" viewBox="0 0 32 32"><defs><linearGradient gradientTransform="matrix(-2.54182 0 0 2.58531 185.47-277.37)" id="1" x1="67.894" y1="108.69" x2="67.854" y2="113.11" gradientUnits="userSpaceOnUse"><stop stop-color="#f9f9f9"/><stop offset="1" stop-color="#999"/></linearGradient></defs><rect width="28.2" height="28.2" x="1.898" y="1.898" fill="#ffb706" fill-rule="evenodd" rx="5.575"/><g transform="matrix(.71116 0 0 .71116 4.621 4.621)" stroke-width="1.406"><path d="m324.48 51.943l-146.49-51.658c-1.076-.38-2.25-.38-3.326 0l-146.49 51.658c-1.999.705-3.337 2.595-3.337 4.715 0 52.28 13.834 112.71 37.956 165.8 19.566 43.07 54.751 100.52 111.25 129.62.719.37 1.504.555 2.29.555.786 0 1.571-.185 2.29-.555 56.5-29.11 91.68-86.56 111.25-129.62 24.12-53.09 37.955-113.53 37.955-165.8 0-2.12-1.338-4.01-3.337-4.715z" transform="matrix(.07261 0 0 .07373 3.197 3)" fill="#4f4f4f"/><path d="m324.48 51.943l-146.49-51.658c-1.076-.38-2.25-.38-3.326 0l-146.49 51.658c-1.999.705-3.337 2.595-3.337 4.715 0 52.28 13.834 112.71 37.956 165.8 19.566 43.07 54.751 100.52 111.25 129.62.719.37 1.504.555 2.29.555.786 0 1.571-.185 2.29-.555 56.5-29.11 91.68-86.56 111.25-129.62 24.12-53.09 37.955-113.53 37.955-165.8 0-2.12-1.338-4.01-3.337-4.715z" transform="matrix(.03961 0 0 .0397 9.02 9)" fill="#ffb706"/><path d="m10.413 9.41l2.298-1.327 10.612 18.381.509 3.535-2.807-2.209" fill="#fff"/><path d="m8.748 2c-.083.01-.165.038-.242.083l-1.183.681c-.309.178-.414.571-.236.88l2 3.463-1.741 1.01c-.309.178-.414.571-.236.88l.683 1.183c.178.309.571.414.88.236l5.778-3.336c.309-.178.414-.571.236-.88l-.683-1.183c-.178-.309-.571-.414-.88-.236l-1.74 1-1.999-3.463c-.134-.232-.388-.349-.637-.317" fill="#3f3f3f"/><path d="m21.619 9.41l-2.298-1.327-10.612 18.381-.509 3.535 2.807-2.209" fill="#fff"/><path d="m23.285 2c.083.01.165.038.242.083l1.183.681c.309.178.414.571.236.88l-2 3.463 1.741 1.01c.309.178.414.571.236.88l-.683 1.183c-.178.309-.571.414-.88.236l-5.778-3.336c-.309-.178-.414-.571-.236-.88l.683-1.183c.178-.309.571-.414.88-.236l1.74 1 1.999-3.463c.134-.232.388-.349.637-.317" fill="#3f3f3f"/></g>

   xmlns:dc="http://purl.org/dc/elements/1.1/"
   xmlns:cc="http://creativecommons.org/ns#"
   xmlns:rdf="http://www.w3.org/1999/02/22-rdf-syntax-ns#"
   xmlns:svg="http://www.w3.org/2000/svg"
   xmlns="http://www.w3.org/2000/svg"
   xmlns:xlink="http://www.w3.org/1999/xlink"
   xmlns:sodipodi="http://sodipodi.sourceforge.net/DTD/sodipodi-0.dtd"
   xmlns:inkscape="http://www.inkscape.org/namespaces/inkscape"
   height="32"
   width="32"
   version="1"
   id="svg8"
   sodipodi:docname="snow-top-3.svg"
   inkscape:version="0.92.1 r"&gt;
  <path fill="#00000f" fill-opacity="0" d="m0 0h32v32h-32z" id="0"/><path d="m7.354 6.111c-2.995 2.684-1.381 7.817-3.674 8.291-2.031.613-3.541-1.385-3.66-4.503-.35-8.627 3.911-9.427 6.879-9.524 28.342-2.047 1.762 4.92.455 5.736" fill="url(#1)"/><use xlink:href="#0"/></svg>