<svg xmlns="http://www.w3.org/2000/svg" xmlns:xlink="http://www.w3.org/1999/xlink" viewBox="0 0 32 32"><defs><linearGradient xlink:href="#3" id="4" gradientUnits="userSpaceOnUse" x1="27.558" y1="-133.46" x2="22.09" y2="-134.43"/><linearGradient xlink:href="#3" id="2" gradientUnits="userSpaceOnUse" x1="15.879" y1="-141.91" x2="30.32" y2="-129.74"/><linearGradient id="3"><stop stop-color="#55c03f"/><stop offset="1" stop-color="#198b26"/></linearGradient><linearGradient id="1"><stop stop-color="#f9f9f9"/><stop offset="1" stop-color="#999"/></linearGradient><linearGradient xlink:href="#1" id="0" gradientUnits="userSpaceOnUse" x1="17.658" y1="-133.51" x2="15.02" y2="-125.58"/><radialGradient xlink:href="#1" id="5" cx="-176.59" cy="-120.91" r="3.01" gradientUnits="userSpaceOnUse" gradientTransform="matrix(2.21087.05719-.05496 2.12455 412.97 145.84)"/></defs><g transform="translate(61.28-6.355)"><rect y="8.253" x="-59.38" height="28.2" width="28.2" fill="#067bff" fill-rule="evenodd" rx="5.575"/><g stroke-width="1.406"><path d="m324.48 51.943l-146.49-51.658c-1.076-.38-2.25-.38-3.326 0l-146.49 51.658c-1.999.705-3.337 2.595-3.337 4.715 0 52.28 13.834 112.71 37.956 165.8 19.566 43.07 54.751 100.52 111.25 129.62.719.37 1.504.555 2.29.555.786 0 1.571-.185 2.29-.555 56.5-29.11 91.68-86.56 111.25-129.62 24.12-53.09 37.955-113.53 37.955-165.8 0-2.12-1.338-4.01-3.337-4.715z" transform="matrix(.05164 0 0 .05243-54.38 13.11)" fill="#4f4f4f"/><path d="m324.48 51.943l-146.49-51.658c-1.076-.38-2.25-.38-3.326 0l-146.49 51.658c-1.999.705-3.337 2.595-3.337 4.715 0 52.28 13.834 112.71 37.956 165.8 19.566 43.07 54.751 100.52 111.25 129.62.719.37 1.504.555 2.29.555.786 0 1.571-.185 2.29-.555 56.5-29.11 91.68-86.56 111.25-129.62 24.12-53.09 37.955-113.53 37.955-165.8 0-2.12-1.338-4.01-3.337-4.715z" transform="matrix(.02817 0 0 .02823-50.24 17.376)" fill="#067bff"/></g><g stroke-width="1"><path d="m-49.25 17.668l1.634-.943 7.547 13.07.362 2.514-1.996-1.571z" fill="#fff"/><path d="m-50.43 12.402c-.059.007-.117.027-.172.059l-.841.485c-.22.127-.295.406-.168.626l1.422 2.463-1.238.715c-.22.127-.295.406-.168.626l.486.841c.127.22.406.295.626.168l4.109-2.372c.22-.127.295-.406.168-.626l-.486-.841c-.127-.22-.406-.295-.626-.168l-1.237.714-1.422-2.463c-.095-.165-.276-.248-.453-.226" fill="#3f3f3f"/><path d="m-41.28 17.668l-1.634-.943-7.547 13.07-.362 2.514 1.996-1.571z" fill="#fff"/><path d="m-40.1 12.402c.059.007.117.027.172.059l.841.485c.22.127.295.406.168.626l-1.422 2.463 1.238.715c.22.127.295.406.168.626l-.486.841c-.127.22-.406.295-.626.168l-4.109-2.372c-.22-.127-.295-.406-.168-.626l.486-.841c.127-.22.406-.295.626-.168l1.237.714 1.422-2.463c.095-.165.276-.248.453-.226" fill="#3f3f3f"/></g></g><g transform="translate(-.916 143.06)"><path d="m15.583-142.61c-5.577-1.531-5.951 3.24-4.58 5.493 4.381 6.983 6.796 6.577 9.398 7.895 1.712 2.064 3.451 3.4 6.469 4.1 11.69 1.559 3.242-8.417.92-8.649-5.065.012-7.547-6.123-12.206-8.838" fill="url(#0)"/><path d="m15.583-142.61c3.76.276 5.616-.626 8.93-.421 4.319.283 8.307 2.053 7.838 6.574-.347 2.567-.37 2.25.186 4.296.532 1.535-.252 4.232-.487 4.654-2.715 4.963-1.536 4.965-2.656 7.742l-.906-.418-2.508-11.358c-7.177-.909-10.754-10.11-10.398-11.07" fill="url(#2)"/><path d="m22.374-132.67c.362.274 1.553-5.105 1.172-5.653 1.379 2.44 1.919 4.616 2.435 6.783-1.276-.283-2.289-.554-3.607-1.13" fill="url(#4)"/><circle r="3.01" cy="-119.45" cx="29.06" fill="url(#5)"/></g></svg>