<svg xmlns="http://www.w3.org/2000/svg" viewBox="0 0 32 32"><rect width="28.2" height="28.2" x="1.898" y="1.898" fill="#47ad5d" fill-rule="evenodd" rx="5.575"/><path d="m16.271 6.746c-.223 0-.442.01-.661.026-.027.002-.055.004-.083.006-3.306.261-6.106 2.246-7.52 5.06 0 0-.001.001-.001.001-.092.182-.185.364-.265.553-.433.978-.669 2.02-.711 3.104-.002.035-.002.071-.004.106-.003.104-.008.206-.008.311 0 .03-.001.058-.001.088 0 1.076.191 2.103.525 3.062.135.43.29.865.478 1.305.466 1.096.524 1.394.451 2.31-.051.638-.224 1.288-.44 1.655-.196.332-.352.676-.352.763 0 .27 1.559.175 2.94-.178 1.618-.414 1.759-.414 3.086.003.607.19 1.3.293 2.081.321.033.002.065.001.098.003.107.003.21.01.32.01.009 0 .017-.001.026-.001.014 0 .028.001.043.001.258 0 .514-.013.767-.034 2.288-.163 4.125-1.01 5.779-2.661 1.363-1.36 2.207-3.04 2.541-4.798.031-.161.056-.322.079-.485.014-.1.027-.2.037-.301.022-.216.036-.436.044-.656.002-.055.003-.111.004-.167.001-.051.004-.102.004-.154 0-5.04-3.991-9.114-8.999-9.248-.039-.001-.077-.002-.116-.003-.047-.001-.093-.004-.139-.004m-2.967 4.631c.573.024.75.015 1.276 1.31.457 1.125.457 1.14-.066 1.753-.178.208-.324.428-.324.488.443 1.402 1.834 2.471 3.202 2.84.117 0 .272-.146.631-.593.578-.718.495-.715 1.837-.068 1.055.508 1.094.646 1.01 1.184-.111.706-.435 1.122-1.128 1.454-.672.321-1.382.295-2.53-.094-1.877-.636-3.18-1.657-4.516-3.537-.778-1.095-1.047-1.753-1.051-2.573-.003-.646.134-1.066.518-1.589.371-.506.556-.599 1.143-.575" fill="#fff" stroke-width=".661"/>

   xmlns:dc="http://purl.org/dc/elements/1.1/"
   xmlns:cc="http://creativecommons.org/ns#"
   xmlns:rdf="http://www.w3.org/1999/02/22-rdf-syntax-ns#"
   xmlns:svg="http://www.w3.org/2000/svg"
   xmlns="http://www.w3.org/2000/svg"
   xmlns:sodipodi="http://sodipodi.sourceforge.net/DTD/sodipodi-0.dtd"
   xmlns:inkscape="http://www.inkscape.org/namespaces/inkscape"
   height="32"
   width="32"
   version="1"
   id="svg8"
   sodipodi:docname="star-mime-2.svg"
   inkscape:version="0.92.1 r"&gt;
  <g transform="translate(152.47 194.05)" fill="#fff"><path d="m-125.38-193.25l-.077 3.548 3.072 1.831-3.548-.077-3.135 6.791 1.38-7.268-3.072-1.831 3.548.077z"/><path d="m-125.41-183.04l.042-1.955-1.692-1.01 1.955.042 1.727-3.741-.76 4 1.692 1.01-1.955-.042z"/></g></svg>