<svg xmlns="http://www.w3.org/2000/svg" xmlns:xlink="http://www.w3.org/1999/xlink" viewBox="0 0 32 32"><defs><linearGradient id="4" x1="-178.12" y1="-134.12" x2="-183.59" y2="-135.1" gradientUnits="userSpaceOnUse"><stop stop-color="#7c0000"/><stop offset="1" stop-color="#7c0000" stop-opacity="0"/></linearGradient><linearGradient id="3" x1="-189.8" y1="-142.57" x2="-175.35" y2="-130.4" gradientUnits="userSpaceOnUse"><stop stop-color="#ff383f"/><stop offset="1" stop-color="#a02d26"/></linearGradient><linearGradient id="2"><stop stop-color="#f9f9f9"/><stop offset="1" stop-color="#999"/></linearGradient><linearGradient xlink:href="#2" id="1" x1="-188.02" y1="-134.18" x2="-190.66" y2="-126.24" gradientUnits="userSpaceOnUse"/><radialGradient xlink:href="#2" id="5" cx="-176.59" cy="-120.91" r="3.01" gradientUnits="userSpaceOnUse" gradientTransform="matrix(2.21087.05719-.05496 2.12455 207.3 145.17)"/></defs><rect width="28.2" height="28.2" x="1.898" y="1.898" fill="#47ad5d" fill-rule="evenodd" rx="5.575"/><g transform="matrix(.66101 0 0 .66101 42.888 2.646)"><path d="m-40.678 6.203c-.337 0-.67.016-1 .04-.042.003-.083.006-.124.01-5 .395-9.237 3.397-11.377 7.654 0 .001-.001.002-.001.003-.138.276-.28.55-.401.835-.655 1.48-1.011 3.051-1.076 4.695-.003.053-.003.107-.005.16-.004.157-.013.313-.012.472 0 .045-.002.088-.002.133 0 1.628.289 3.183.796 4.633.204.65.439 1.307.722 1.973.706 1.658.793 2.11.682 3.494-.077.965-.339 1.95-.666 2.505-.296.502-.534 1.021-.534 1.153 0 .408 2.359.265 4.448-.269 2.447-.627 2.661-.626 4.668.004.918.288 1.965.444 3.147.487.049.002.099.002.149.004.162.004.317.015.484.015.014 0 .026-.001.04-.001.022 0 .043.001.064.001.391 0 .777-.019 1.159-.051 3.461-.246 6.241-1.527 8.743-4.02 2.061-2.058 3.338-4.599 3.843-7.257.047-.243.085-.488.119-.736.02-.152.042-.303.057-.455.034-.327.054-.658.066-.991.003-.084.006-.168.007-.252.002-.077.006-.155.006-.233 0-7.627-6.04-13.787-13.614-13.99-.059-.002-.118-.003-.176-.004-.071-.002-.14-.006-.21-.006" fill="#fff"/><g transform="translate(-56.678 4.203)" fill="#47ad5d"><circle r="2" cx="16" cy="16"/><circle r="2" cx="8" cy="16"/><circle r="2" cx="24" cy="16"/></g></g><path d="m32 .157l-.27 2.221-.122-2.378" fill="#f9f9f9" id="0"/><use xlink:href="#0"/><path d="m32 .113l-.27 1.6-.122-1.713" fill="#f9f9f9"/><g transform="matrix(-1 0 0 1-172.76 143.72)"><path d="m-190.09-143.27c-5.577-1.531-5.951 3.24-4.58 5.493 4.381 6.983 6.796 6.577 9.398 7.895 1.712 2.064 3.451 3.4 6.469 4.1 11.69 1.559 3.242-8.417.92-8.649-5.065.012-7.547-6.123-12.206-8.838" fill="url(#1)"/><path d="m-190.09-143.27c3.76.276 5.616-.626 8.93-.421 4.319.283 8.307 2.053 7.838 6.574-.347 2.567-.37 2.25.186 4.296.532 1.535-.252 4.232-.487 4.654-2.715 4.963-1.536 4.965-2.656 7.742l-.906-.418-2.508-11.358c-7.177-.909-10.754-10.11-10.398-11.07" fill="url(#3)"/><path d="m-183.3-133.33c.362.274 1.553-5.105 1.172-5.653 1.379 2.44 1.919 4.616 2.435 6.783-1.276-.283-2.289-.554-3.607-1.13" fill="url(#4)"/><circle r="3.01" cy="-120.11" cx="-176.61" fill="url(#5)"/></g></svg>