<svg xmlns="http://www.w3.org/2000/svg" xmlns:xlink="http://www.w3.org/1999/xlink" viewBox="0 0 32 32"><defs><clipPath><path d="m160 247c-7.913 0-15.04 2.812-20.945 7.172l20.94 22.82 20.78-22.9c-5.88-4.31-12.93-7.09-20.78-7.09z"/></clipPath><linearGradient gradientTransform="matrix(-2.54182 0 0 2.58531 185.47-277.37)" id="1" x1="67.894" y1="108.69" x2="67.854" y2="113.11" gradientUnits="userSpaceOnUse"><stop stop-color="#f9f9f9"/><stop offset="1" stop-color="#999"/></linearGradient></defs><rect width="28.2" height="28.2" x="1.898" y="1.898" fill="#999" fill-rule="evenodd" rx="5.575"/><g transform="translate(-.227.002)"><path d="m16.272 7.7c-4.379 0-8.321 1.556-11.59 3.969l11.59 12.628 11.501-12.673c-3.256-2.386-7.155-3.924-11.501-3.924" fill="#4f4f4f"/><path d="m16.227 11.02c-3.488 0-6.726 1.144-9.326 3.076l9.375 10.205 9.278-10.205c-2.6-1.932-5.838-3.076-9.326-3.076" fill="#797979"/><path d="m16.227 14.335c-2.616 0-5.04.858-6.995 2.307l7.03 7.654 6.958-7.654c-1.95-1.449-4.378-2.307-6.995-2.307" fill="#ccc"/></g>

   xmlns:dc="http://purl.org/dc/elements/1.1/"
   xmlns:cc="http://creativecommons.org/ns#"
   xmlns:rdf="http://www.w3.org/1999/02/22-rdf-syntax-ns#"
   xmlns:svg="http://www.w3.org/2000/svg"
   xmlns="http://www.w3.org/2000/svg"
   xmlns:xlink="http://www.w3.org/1999/xlink"
   xmlns:sodipodi="http://sodipodi.sourceforge.net/DTD/sodipodi-0.dtd"
   xmlns:inkscape="http://www.inkscape.org/namespaces/inkscape"
   height="32"
   width="32"
   version="1"
   id="svg8"
   sodipodi:docname="snow-top-3.svg"
   inkscape:version="0.92.1 r"&gt;
  <path fill="#00000f" fill-opacity="0" d="m0 0h32v32h-32z" id="0"/><path d="m7.354 6.111c-2.995 2.684-1.381 7.817-3.674 8.291-2.031.613-3.541-1.385-3.66-4.503-.35-8.627 3.911-9.427 6.879-9.524 28.342-2.047 1.762 4.92.455 5.736" fill="url(#1)"/><use xlink:href="#0"/></svg>