<svg xmlns="http://www.w3.org/2000/svg" xmlns:xlink="http://www.w3.org/1999/xlink" viewBox="0 0 32 32"><defs><linearGradient xlink:href="#3" id="4" x1="-227.98" y1="-131.26" x2="-234.8" y2="-134.14" gradientUnits="userSpaceOnUse"/><linearGradient xlink:href="#3" id="2" x1="-241.01" y1="-141.61" x2="-226.57" y2="-129.44" gradientUnits="userSpaceOnUse"/><linearGradient id="3"><stop stop-color="#13a9ea"/><stop offset="1" stop-color="#372db5"/></linearGradient><linearGradient id="1"><stop stop-color="#f9f9f9"/><stop offset="1" stop-color="#999"/></linearGradient><linearGradient xlink:href="#1" id="0" x1="-239.23" y1="-133.21" x2="-241.87" y2="-125.28" gradientUnits="userSpaceOnUse"/><radialGradient xlink:href="#1" id="5" cx="-176.59" cy="-120.91" r="3.01" gradientUnits="userSpaceOnUse" gradientTransform="matrix(2.21087.05719-.05496 2.12455 156.08 146.14)"/></defs><rect width="28.2" height="28.2" x="1.898" y="1.898" fill="#5b5b5b" fill-rule="evenodd" rx="5.575"/><g transform="translate(36.23 1.493)" color-rendering="auto" shape-rendering="auto" color-interpolation-filters="linearRGB" image-rendering="auto" color-interpolation="sRGB" color="#000"><path d="m-27.613174 5.141378a1.670429 1.670429 0 0 0 -1.64547 1.69375V18.19a1.670429 1.670429 0 0 0 2.475381 1.464089l5.876-3.232 5.876 3.232a1.670429 1.670429 0 0 0 2.475381 -1.464089V6.835a1.670429 1.670429 0 1 0 -3.340524 0v8.534l-4.206-2.314a1.670429 1.670429 0 0 0 -1.610236 0l-4.206 2.314V6.835a1.670429 1.670429 0 0 0 -1.695054 -1.69375" mix-blend-mode="normal" isolation="auto" white-space="normal" fill="#508d4c" solid-opacity="1" solid-color="#000000" vector-effect="none" shape-padding="0"/><path d="m-20.932127 8.481902a1.670429 1.670429 0 0 0 -1.645469 1.69375v12.03a1.670429 1.670429 0 0 0 1.670262 1.670262h8.02a1.670429 1.670429 0 1 0 0 -3.340524h-6.347V10.176a1.670429 1.670429 0 0 0 -1.695055 -1.69375" mix-blend-mode="normal" isolation="auto" white-space="normal" fill="#ff6f57" solid-opacity="1" solid-color="#000000" vector-effect="none" shape-padding="0"/></g><g transform="matrix(-1 0 0 1-223.97 142.77)"><g fill="#f9f9f9"><path d="m-228.95-129.3l-.27 2.221-.122-2.378z"/><path d="m-228.66-130.01l-.27 2.221-.122-2.378z"/><path d="m-228.43-129.95l-.27 1.6-.122-1.713z"/></g><path d="m-241.31-142.31c-5.577-1.531-5.951 3.24-4.58 5.493 4.381 6.983 6.796 6.577 9.398 7.895 1.712 2.064 3.451 3.4 6.469 4.1 11.69 1.559 3.242-8.417.92-8.649-5.065.012-7.547-6.123-12.206-8.838" fill="url(#0)"/><path d="m-241.31-142.31c3.76.276 5.616-.626 8.93-.421 4.319.283 8.307 2.053 7.838 6.574-.347 2.567-.37 2.25.186 4.296.532 1.535-.252 4.232-.487 4.654-2.715 4.963-1.536 4.965-2.656 7.742l-.906-.418-2.508-11.358c-7.177-.909-10.754-10.11-10.398-11.07" fill="url(#2)"/><path d="m-234.52-132.37c.362.274 1.553-5.105 1.172-5.653 1.379 2.44 1.919 4.616 2.435 6.783-1.276-.283-2.289-.554-3.607-1.13" fill="url(#4)"/><circle r="3.01" cy="-119.15" cx="-227.83" fill="url(#5)"/></g></svg>