<svg xmlns="http://www.w3.org/2000/svg" viewBox="0 0 32 32"><rect width="28.2" height="28.2" x="1.898" y="1.898" fill="#ccc" fill-rule="evenodd" rx="5.575"/><path d="m19.11 9.5c-.711-.001-1.553.002-2.07.006l-.051.035v.373c0 .045.019.077.057.105.038.029.077.047.119.047l.164.017c.423.018.623.132.681.204.101.127.148.267-.096.815l-1.463 2.994-1.322-2.778c-.434-.888-.54-1.165.113-1.217l.261-.035c.126 0 .187-.045.187-.134v-.39l-.096-.035c0 0-2.462.004-3.568.006l-.051.035v.39c0 .087.09.111.261.134.612.083.597.148 1.203 1.38.091.185.357.74.357.74l1.378 2.784c0 0 .298.676.403.914l-2 4.1-.113-.029c0 0-3.11-6.735-4.01-8.987-.094-.233-.136-.406-.136-.513 0-.229.199-.35.601-.367l.471-.023c.124 0 .187-.049.187-.151v-.367l-.045-.041c0 0-3.723-.005-4.492 0l-.04.042v.384c0 .07.082.115.255.134.473.026.786.104.936.233.149.13.307.459.516.973 1.13 2.788 3.533 7.767 4.702 10.6.337.774.757.894 1.271-.023.554-1.055 1.524-3.093 2.309-4.759.011-.162.011.15.153.052.733 1.658 1.618 3.654 2.11 4.694.381.807.813.885 1.254.023 1.151-2.629 4.521-10.536 4.521-10.536.146-.388.346-.686.607-.903.26-.215.661-.336 1.203-.361.11 0 .164-.051.164-.151v-.373l-.04-.041h-4.135l-.051.041v.373c0 .044.019.077.057.105.038.029.077.047.119.047l.346.017c.424.018.539.104.703.25.163.15.184.404.057.763l-3.659 8.917-.142-.041-2.326-4.875c.002-.004.057-.116.057-.116l1.9-3.652c.221-.385.436-.731.545-.891.198-.293.309-.347.851-.373.11 0 .165-.049.165-.151v-.367l-.04-.041c0 0-.582-.005-1.293-.006" fill="#4d4d4d"/>

   xmlns:dc="http://purl.org/dc/elements/1.1/"
   xmlns:cc="http://creativecommons.org/ns#"
   xmlns:rdf="http://www.w3.org/1999/02/22-rdf-syntax-ns#"
   xmlns:svg="http://www.w3.org/2000/svg"
   xmlns="http://www.w3.org/2000/svg"
   xmlns:sodipodi="http://sodipodi.sourceforge.net/DTD/sodipodi-0.dtd"
   xmlns:inkscape="http://www.inkscape.org/namespaces/inkscape"
   height="32"
   width="32"
   version="1"
   id="svg8"
   sodipodi:docname="star-mime-2.svg"
   inkscape:version="0.92.1 r"&gt;
  <g transform="translate(152.47 194.05)" fill="#fff"><path d="m-125.38-193.25l-.077 3.548 3.072 1.831-3.548-.077-3.135 6.791 1.38-7.268-3.072-1.831 3.548.077z"/><path d="m-125.41-183.04l.042-1.955-1.692-1.01 1.955.042 1.727-3.741-.76 4 1.692 1.01-1.955-.042z"/></g></svg>