<svg xmlns="http://www.w3.org/2000/svg" viewBox="0 0 32 32"><defs><linearGradient gradientTransform="matrix(-2.65552 0 0 2.58531 193.77-277.73)" id="0" x1="67.894" y1="108.69" x2="67.854" y2="113.11" gradientUnits="userSpaceOnUse"><stop stop-color="#f9f9f9"/><stop offset="1" stop-color="#999"/></linearGradient></defs><rect width="28.2" height="28.2" x="1.898" y="1.898" fill="#a0002f" fill-rule="evenodd" rx="5.575"/><g transform="translate(50.38-.454)"><g transform="translate(-50.38.454)" fill-rule="evenodd"><path d="m9.707 30.1l6.293-14.1-14.1-6.293v14.82c0 3.089 2.486 5.574 5.574 5.574z" fill="#a0002f"/><path d="m30.1 22.293l-14.1-6.293-6.293 14.1h14.82c3.089 0 5.574-2.486 5.574-5.574z" fill="#c3283a"/><path d="m22.293 1.898l-6.293 14.1 14.1 6.293v-14.82c0-3.089-2.486-5.574-5.574-5.574z" fill="#a0002f"/><path d="m1.898 9.707l14.1 6.293 6.293-14.1h-14.82c-3.089 0-5.574 2.486-5.574 5.574z" fill="#c3283a"/></g><g transform="translate(-50.11.817)"><path d="m12.06 25.882c.043-.046.187-.141.319-.21.228-.12.267-.128.799-.175.679-.059 1.216-.161 1.456-.274.363-.172.578-.481.693-1 .052-.231.064-.491.076-1.601.014-1.362-.037-3.277-.095-3.572-.063-.315-.113-.374-.667-.787-.598-.446-1.318-1.137-1.639-1.574-.579-.79-.902-1.598-1.066-2.67-.045-.292-.061-.607-.061-1.191 0-1.31.121-2.156.684-4.8.204-.957.264-1.163.376-1.286l.07-.078h2.716 2.716l.072.078c.103.111.156.301.392 1.39.646 2.982.797 4.464.599 5.883-.249 1.791-1.081 3.068-2.839 4.354-.214.157-.41.326-.436.376-.089.175-.127.475-.16 1.273-.047 1.145-.048 3.521-.002 3.879.103.802.331 1.169.851 1.373.226.088.705.169 1.36.229.489.045.553.059.778.17.135.067.282.161.328.209l.083.088h-3.741-3.741z" fill="#fff"/><path d="m12.391 13.316c-.183 5.21 6.292 6.529 6.775.002-1.499 2.162-5.139-2.01-6.775-.002" fill="#bb002f"/></g><g transform="matrix(.625 0 0 .625-42.63 8.32)" stroke-width="2.56"><circle cy="23" cx="23" r="8" fill="#fa6257"/><path d="m21.964 19l-.088 1.054a3.1429 3.1429 0 0 0 -.91853 .53126l-.958-.451-1 1.732.869.604a3.1429 3.1429 0 0 0 -.048 .53013 3.1429 3.1429 0 0 0 .04573 .53237l-.867.602 1 1.732.955-.45a3.1429 3.1429 0 0 0 .92075 .5279l.088 1.056h2l.088-1.054a3.1429 3.1429 0 0 0 .91853 -.53125l.958.451 1-1.732-.869-.604a3.1429 3.1429 0 0 0 .048 -.53 3.1429 3.1429 0 0 0 -.046 -.532l.867-.602-1-1.732-.955.45a3.1429 3.1429 0 0 0 -.92075 -.5279l-.088-1.056h-2m1.0001 2.85616a1.1429 1.1429 0 0 1 1.143 1.143 1.1429 1.1429 0 0 1 -1.143 1.143 1.1429 1.1429 0 0 1 -1.143 -1.143 1.1429 1.1429 0 0 1 1.143 -1.143" fill="#fff"/></g></g>

   xmlns:dc="http://purl.org/dc/elements/1.1/"
   xmlns:cc="http://creativecommons.org/ns#"
   xmlns:rdf="http://www.w3.org/1999/02/22-rdf-syntax-ns#"
   xmlns:svg="http://www.w3.org/2000/svg"
   xmlns="http://www.w3.org/2000/svg"
   xmlns:xlink="http://www.w3.org/1999/xlink"
   xmlns:sodipodi="http://sodipodi.sourceforge.net/DTD/sodipodi-0.dtd"
   xmlns:inkscape="http://www.inkscape.org/namespaces/inkscape"
   version="1"
   width="32"
   height="32"
   id="svg12"
   sodipodi:docname="snow-top-3.svg"
   inkscape:version="0.92.1 r"&gt;
  <path d="m24.627.009c8.36-.339 9.455 9.523 4.064 9.505-.686.003-1.62-.197-3-1.471-14.665-10.216-14.549 2.967-17.708.875-1.727-1.822-1.743 4.653-4.139 5.127-2.122.613-3.699-1.385-3.824-4.503-.366-8.627 4.086-9.427 7.187-9.524 5.974.133 11.562-.045 17.419-.01" fill="url(#0)"/></svg>