<svg xmlns="http://www.w3.org/2000/svg" xmlns:xlink="http://www.w3.org/1999/xlink" viewBox="0 0 32 32"><defs><linearGradient xlink:href="#3" id="4" gradientUnits="userSpaceOnUse" x1="-23.24" y1="-185.08" x2="-28.704" y2="-186.05"/><linearGradient xlink:href="#3" id="2" gradientUnits="userSpaceOnUse" x1="-34.914" y1="-193.53" x2="-20.469" y2="-181.36"/><linearGradient id="3"><stop stop-color="#ffff5e"/><stop offset="1" stop-color="#f6a32d"/></linearGradient><linearGradient id="1"><stop stop-color="#f9f9f9"/><stop offset="1" stop-color="#999"/></linearGradient><linearGradient xlink:href="#1" id="0" gradientUnits="userSpaceOnUse" x1="-33.14" y1="-185.13" x2="-35.775" y2="-177.2"/><radialGradient xlink:href="#1" id="5" cx="-176.59" cy="-120.91" r="3.01" gradientUnits="userSpaceOnUse" gradientTransform="matrix(2.21087.05719-.05496 2.12455 362.18 94.22)"/></defs><g transform="translate(58.667-4.539)"><g transform="translate(-58.667 4.539)" fill-rule="evenodd"><path d="m9.707 30.1l6.293-14.1-14.1-6.293v14.82c0 3.089 2.486 5.574 5.574 5.574z" fill="#a0002f"/><path d="m30.1 22.293l-14.1-6.293-6.293 14.1h14.82c3.089 0 5.574-2.486 5.574-5.574z" fill="#c3283a"/><path d="m22.293 1.898l-6.293 14.1 14.1 6.293v-14.82c0-3.089-2.486-5.574-5.574-5.574z" fill="#a0002f"/><path d="m1.898 9.707l14.1 6.293 6.293-14.1h-14.82c-3.089 0-5.574 2.486-5.574 5.574z" fill="#c3283a"/></g><g transform="translate(-58.4 4.902)"><path d="m12.06 25.882c.043-.046.187-.141.319-.21.228-.12.267-.128.799-.175.679-.059 1.216-.161 1.456-.274.363-.172.578-.481.693-1 .052-.231.064-.491.076-1.601.014-1.362-.037-3.277-.095-3.572-.063-.315-.113-.374-.667-.787-.598-.446-1.318-1.137-1.639-1.574-.579-.79-.902-1.598-1.066-2.67-.045-.292-.061-.607-.061-1.191 0-1.31.121-2.156.684-4.8.204-.957.264-1.163.376-1.286l.07-.078h2.716 2.716l.072.078c.103.111.156.301.392 1.39.646 2.982.797 4.464.599 5.883-.249 1.791-1.081 3.068-2.839 4.354-.214.157-.41.326-.436.376-.089.175-.127.475-.16 1.273-.047 1.145-.048 3.521-.002 3.879.103.802.331 1.169.851 1.373.226.088.705.169 1.36.229.489.045.553.059.778.17.135.067.282.161.328.209l.083.088h-3.741-3.741z" fill="#fff"/><path d="m12.391 13.316c-.183 5.21 6.292 6.529 6.775.002-1.499 2.162-5.139-2.01-6.775-.002" fill="#bb002f"/></g><g transform="matrix(.625 0 0 .625-50.744 12.178)" stroke-width="2.56"><circle cy="23" cx="23" r="8" fill="#fa6257"/><path d="m23 26.292l-3.09 1.708.59-3.618-2.5-2.562 3.455-.528 1.545-3.292 1.545 3.292 3.455.528-2.5 2.562.59 3.618" fill="#fff"/></g></g><g transform="translate(49.877 194.68)"><path d="m-35.21-194.22c-5.577-1.531-5.951 3.24-4.58 5.493 4.381 6.983 6.796 6.577 9.398 7.895 1.712 2.064 3.451 3.4 6.469 4.1 11.69 1.559 3.242-8.417.92-8.649-5.065.012-7.547-6.123-12.206-8.838" fill="url(#0)"/><path d="m-35.21-194.22c3.76.276 5.616-.626 8.93-.421 4.319.283 8.307 2.053 7.838 6.574-.347 2.567-.37 2.25.186 4.296.532 1.535-.252 4.232-.487 4.654-2.715 4.963-1.536 4.965-2.656 7.742l-.906-.418-2.508-11.358c-7.177-.909-10.754-10.11-10.398-11.07" fill="url(#2)"/><path d="m-28.419-184.29c.362.274 1.553-5.105 1.172-5.653 1.379 2.44 1.919 4.616 2.435 6.783-1.276-.283-2.289-.554-3.607-1.13" fill="url(#4)"/><circle r="3.01" cy="-171.07" cx="-21.728" fill="url(#5)"/></g></svg>