<svg xmlns="http://www.w3.org/2000/svg" viewBox="0 0 32 32"><defs><linearGradient gradientTransform="matrix(2.62891 0 0 2.71269-160.16-291.42)" id="0" x1="67.894" y1="108.69" x2="67.854" y2="113.11" gradientUnits="userSpaceOnUse"><stop stop-color="#f9f9f9"/><stop offset="1" stop-color="#999"/></linearGradient></defs><rect width="28.2" height="28.2" x="1.898" y="1.898" fill="#a0002f" fill-rule="evenodd" rx="5.575"/><g transform="translate(41.872-1.702)"><g transform="translate(-41.872 1.702)" fill-rule="evenodd"><path d="m9.707 30.1l6.293-14.1-14.1-6.293v14.82c0 3.089 2.486 5.574 5.574 5.574z" fill="#a0002f"/><path d="m30.1 22.293l-14.1-6.293-6.293 14.1h14.82c3.089 0 5.574-2.486 5.574-5.574z" fill="#c3283a"/><path d="m22.293 1.898l-6.293 14.1 14.1 6.293v-14.82c0-3.089-2.486-5.574-5.574-5.574z" fill="#a0002f"/><path d="m1.898 9.707l14.1 6.293 6.293-14.1h-14.82c-3.089 0-5.574 2.486-5.574 5.574z" fill="#c3283a"/></g><g transform="translate(-41.604 2.065)"><path d="m12.06 25.882c.043-.046.187-.141.319-.21.228-.12.267-.128.799-.175.679-.059 1.216-.161 1.456-.274.363-.172.578-.481.693-1 .052-.231.064-.491.076-1.601.014-1.362-.037-3.277-.095-3.572-.063-.315-.113-.374-.667-.787-.598-.446-1.318-1.137-1.639-1.574-.579-.79-.902-1.598-1.066-2.67-.045-.292-.061-.607-.061-1.191 0-1.31.121-2.156.684-4.8.204-.957.264-1.163.376-1.286l.07-.078h2.716 2.716l.072.078c.103.111.156.301.392 1.39.646 2.982.797 4.464.599 5.883-.249 1.791-1.081 3.068-2.839 4.354-.214.157-.41.326-.436.376-.089.175-.127.475-.16 1.273-.047 1.145-.048 3.521-.002 3.879.103.802.331 1.169.851 1.373.226.088.705.169 1.36.229.489.045.553.059.778.17.135.067.282.161.328.209l.083.088h-3.741-3.741z" fill="#fff"/><path d="m12.391 13.316c-.183 5.21 6.292 6.529 6.775.002-1.499 2.162-5.139-2.01-6.775-.002" fill="#bb002f"/></g><g transform="matrix(.625 0 0 .625-33.779 9.909)" stroke-width="2.56"><circle cy="23" cx="23" r="8" fill="#fa6257"/><path d="m21.517 26.874c0-.208.03-.383.089-.527.06-.143.142-.259.248-.347.106-.088.231-.152.374-.192.143-.039.296-.06.46-.06.155 0 .302.02.441.06.139.04.261.104.368.192.106.088.189.204.251.347.062.144.093.319.093.527 0 .199-.031.369-.093.51-.062.141-.146.258-.251.351-.106.092-.229.16-.368.202-.139.042-.286.063-.441.063-.163 0-.317-.021-.46-.063-.144-.042-.269-.11-.374-.202-.106-.093-.189-.21-.248-.351-.059-.141-.089-.311-.089-.51m.219-2.265v-.49c0-.225.023-.43.07-.613.046-.184.117-.357.212-.523.095-.165.217-.327.367-.483.15-.157.332-.319.543-.487.185-.146.342-.276.47-.391.128-.114.232-.228.311-.341.079-.112.137-.23.172-.354.036-.124.053-.268.053-.43 0-.252-.085-.46-.255-.623-.17-.163-.43-.245-.778-.245-.304 0-.632.064-.984.192-.35.128-.714.285-1.089.47l-.675-1.463c.189-.111.396-.215.619-.314.223-.099.455-.188.695-.265.241-.077.485-.138.732-.182.247-.044.49-.066.729-.066.45 0 .856.054 1.218.162.362.108.669.266.921.473.252.208.445.46.579.755.135.296.202.633.202 1.013 0 .278-.031.527-.093.745-.061.219-.154.422-.274.609-.122.188-.274.369-.457.543-.183.174-.396.359-.639.553-.185.146-.337.273-.454.381-.117.108-.209.211-.274.308-.066.098-.111.198-.136.302-.024.103-.037.226-.037.367v.397h-1.748z" fill="#fff"/></g></g>

   xmlns:dc="http://purl.org/dc/elements/1.1/"
   xmlns:cc="http://creativecommons.org/ns#"
   xmlns:rdf="http://www.w3.org/1999/02/22-rdf-syntax-ns#"
   xmlns:svg="http://www.w3.org/2000/svg"
   xmlns="http://www.w3.org/2000/svg"
   xmlns:xlink="http://www.w3.org/1999/xlink"
   xmlns:sodipodi="http://sodipodi.sourceforge.net/DTD/sodipodi-0.dtd"
   xmlns:inkscape="http://www.inkscape.org/namespaces/inkscape"
   version="1"
   width="32"
   height="32"
   id="svg12"
   sodipodi:docname="snow-top-1.svg"
   inkscape:version="0.92.1 r"&gt;
  <path d="m7.288.009c-8.276-.356-9.36 9.992-4.02 9.973.679.003 1.604-.207 2.97-1.543 7.256-10.531 14.706 3.573 17.53.919 1.71-1.912 3.496-.418 4.448.115 2.1.643 3.662.041 3.785-3.231.188-3.321-1.889-6.344-5.923-6.223-5.914.14-12.989-.047-18.787-.01" fill="url(#0)"/><path fill="#f00" fill-opacity="0" d="m0 0h32v32h-32z"/></svg>