<svg xmlns="http://www.w3.org/2000/svg" viewBox="0 0 32 32"><defs><linearGradient gradientTransform="matrix(2.59244 0 0 2.58531-157.93-277.73)" id="0" x1="67.894" y1="108.69" x2="67.854" y2="113.11" gradientUnits="userSpaceOnUse"><stop stop-color="#f9f9f9"/><stop offset="1" stop-color="#999"/></linearGradient></defs><g fill-rule="evenodd"><path d="m9.707 30.1l6.293-14.1-14.1-6.293v14.82c0 3.089 2.486 5.574 5.574 5.574z" fill="#a0002f"/><path d="m30.1 22.293l-14.1-6.293-6.293 14.1h14.82c3.089 0 5.574-2.486 5.574-5.574z" fill="#c3283a"/><path d="m22.293 1.898l-6.293 14.1 14.1 6.293v-14.82c0-3.089-2.486-5.574-5.574-5.574z" fill="#a0002f"/><path d="m1.898 9.707l14.1 6.293 6.293-14.1h-14.82c-3.089 0-5.574 2.486-5.574 5.574z" fill="#c3283a"/></g><path d="m15.859 24.17c-.078-.03-.142-.089-.179-.164l-.031-.064-.003-.775-.003-.775-.125-.008c-.24-.015-.557-.06-.837-.119-1.032-.217-1.98-.68-2.798-1.367l-.149-.125-.536.534c-.604.602-.597.597-.742.597-.105 0-.186-.036-.261-.116-.073-.078-.099-.142-.1-.245-.001-.145-.007-.137.596-.742l.534-.536-.093-.108c-.385-.448-.73-.991-.973-1.532-.303-.672-.5-1.451-.546-2.154l-.007-.114-.775-.003-.775-.003-.064-.031c-.077-.038-.134-.101-.165-.185-.019-.05-.023-.08-.019-.157.007-.145.066-.239.185-.297l.063-.031.776-.003.776-.003v-.05c0-.079.032-.373.063-.573.101-.66.305-1.297.611-1.903.235-.466.556-.944.871-1.3l.072-.081-.534-.536c-.604-.606-.588-.585-.588-.742 0-.073.006-.106.024-.146.034-.074.096-.138.169-.174.054-.027.076-.031.158-.031.157 0 .136-.016.742.587l.536.534.126-.108c.247-.211.579-.45.878-.63.199-.12.663-.347.901-.441.568-.224 1.118-.358 1.728-.42.09-.009.189-.017.22-.017h.056l.003-.771.003-.771.031-.063c.034-.069.092-.128.166-.167.04-.021.065-.025.154-.025.089 0 .113.004.154.025.074.039.132.098.166.167l.031.063.003.771.003.771h.056c.031 0 .129.008.22.017.609.062 1.16.196 1.728.42.24.095.703.322.901.442.302.183.631.419.878.629l.127.108.53-.529c.605-.603.59-.592.747-.592.081 0 .104.004.158.031.073.036.135.1.169.174.018.04.024.073.024.146 0 .157.017.136-.587.742l-.534.536.082.094c.316.362.643.852.87 1.307.37.739.607 1.598.659 2.388l.008.119.775.003.775.003.064.031c.119.059.187.174.187.319 0 .145-.068.261-.187.319l-.064.031-.775.003-.775.003-.008.119c-.004.066-.02.214-.034.331-.158 1.248-.686 2.431-1.506 3.376l-.071.082.534.536c.603.605.597.597.596.742 0 .061-.007.098-.024.136-.033.073-.112.154-.188.192-.054.027-.078.032-.148.032-.145 0-.138.006-.742-.597l-.536-.534-.149.125c-.817.686-1.766 1.15-2.798 1.367-.28.059-.597.104-.837.119l-.125.008-.003.775-.003.775-.031.064c-.059.121-.174.187-.322.186-.052 0-.1-.008-.137-.022m-1.257-7.824c.683-.076 1.27-.494 1.566-1.113.198-.415.24-.927.113-1.369-.182-.634-.666-1.132-1.295-1.333-.207-.066-.336-.085-.589-.085-.253 0-.382.019-.589.085-.474.152-.875.477-1.118.908-.344.609-.332 1.375.032 1.972.164.27.403.507.674.67.356.214.798.311 1.208.265" fill="#fff"/>

   xmlns:dc="http://purl.org/dc/elements/1.1/"
   xmlns:cc="http://creativecommons.org/ns#"
   xmlns:rdf="http://www.w3.org/1999/02/22-rdf-syntax-ns#"
   xmlns:svg="http://www.w3.org/2000/svg"
   xmlns="http://www.w3.org/2000/svg"
   xmlns:xlink="http://www.w3.org/1999/xlink"
   xmlns:sodipodi="http://sodipodi.sourceforge.net/DTD/sodipodi-0.dtd"
   xmlns:inkscape="http://www.inkscape.org/namespaces/inkscape"
   version="1"
   width="32"
   height="32"
   id="svg12"
   sodipodi:docname="snow-top-4.svg"
   inkscape:version="0.92.1 r"&gt;
  <path d="m7.196.009c-8.161-.339-9.231 9.523-3.968 9.505.669.003 1.581-.197 2.929-1.471 3.773-4.147 9.01 4.479 14.696-1.042.61-.911 1.804-1.135 2.455-.627 1.045.677 2.87 2.991 3.88 3 2.359.513 4.095-.198 4.816-3.188.185-3.165-2.303-6.286-6.281-6.17-5.832.133-12.809-.045-18.527-.01" fill="url(#0)"/></svg>