<svg xmlns="http://www.w3.org/2000/svg" xmlns:xlink="http://www.w3.org/1999/xlink" viewBox="0 0 32 32"><defs><linearGradient xlink:href="#3" id="4" gradientUnits="userSpaceOnUse" x1="-23.24" y1="-185.08" x2="-28.704" y2="-186.05"/><linearGradient xlink:href="#3" id="2" gradientUnits="userSpaceOnUse" x1="-34.914" y1="-193.53" x2="-20.469" y2="-181.36"/><linearGradient id="3"><stop stop-color="#ffff5e"/><stop offset="1" stop-color="#f6a32d"/></linearGradient><linearGradient id="1"><stop stop-color="#f9f9f9"/><stop offset="1" stop-color="#999"/></linearGradient><linearGradient xlink:href="#1" id="0" gradientUnits="userSpaceOnUse" x1="-33.14" y1="-185.13" x2="-35.775" y2="-177.2"/><radialGradient xlink:href="#1" id="5" cx="-176.59" cy="-120.91" r="3.01" gradientUnits="userSpaceOnUse" gradientTransform="matrix(2.21087.05719-.05496 2.12455 362.18 94.22)"/></defs><g fill-rule="evenodd"><path d="m6.84 3.03c-.158-.008-.318-.002-.48.023l-1.563.244c-.326.05-.625.166-.889.33-.131.082-.253.175-.365.279-.113.105-.215.22-.305.344-.18.247-.313.527-.389.828-.076.301-.095.623-.045.949l.064.387a2.38889 2.38889 0 0 0 .044921 .234375 2.38889 2.38889 0 0 0 0 .00195 2.38889 2.38889 0 0 0 .072266 .226563 2.38889 2.38889 0 0 0 .091797 .21875 2.38889 2.38889 0 0 0 .115234 .208984 2.38889 2.38889 0 0 0 0 .00195 2.38889 2.38889 0 0 0 .134766 .193359 2.38889 2.38889 0 0 0 .154297 .183594 2.38889 2.38889 0 0 0 0 .00195 2.38889 2.38889 0 0 0 .173828 .162109 2.38889 2.38889 0 0 0 0 .00195 2.38889 2.38889 0 0 0 .185547 .148437 2.38889 2.38889 0 0 0 .199218 .130859 2.38889 2.38889 0 0 0 .00195 0 2.38889 2.38889 0 0 0 .210937 .109375 2.38889 2.38889 0 0 0 .222656 .083984 2.38889 2.38889 0 0 0 .232422 .060547 2.38889 2.38889 0 0 0 0 .00195 2.38889 2.38889 0 0 0 .066407 .017578l.203 1.313 1.289-1.406.879-.139c.651-.101 1.199-.454 1.559-.947.36-.493.53-1.125.43-1.777l-.059-.391c-.025-.163-.066-.32-.121-.469-.11-.298-.278-.564-.486-.789-.104-.113-.217-.214-.34-.305-.165-.122-.35-.215-.541-.291-.068-.027-.135-.052-.205-.072-.044-.013-.086-.027-.131-.037-.131-.03-.264-.053-.4-.061-.004 0-.008-.002-.012-.002" fill="#febf02"/><path d="m20.523 2.894c-.155-.007-.313.002-.473.027l-1.541.248c-.64.103-1.174.456-1.525.943-.351.487-.518 1.107-.416 1.748l.063.383c.08.504.316.946.65 1.283.334.337.766.571 1.24.658l.203 1.293 1.258-1.393.869-.141c.64-.103 1.176-.45 1.527-.938.351-.487.516-1.111.414-1.752l-.061-.385c-.102-.64-.452-1.178-.938-1.531-.364-.265-.805-.425-1.271-.445" fill="#fe5ebd"/><path d="m29.449 4.532l-6.59 3.561.268.496a.561481 .561481 0 0 1 .03516 -.017578 .561481 .561481 0 0 1 .05078 -.023437 .561481 .561481 0 0 1 .05469 -.013672 .561481 .561481 0 0 1 .002 0 .561481 .561481 0 0 1 .05664 -.011719 .561481 .561481 0 0 1 .05078 -.00195 .561481 .561481 0 0 1 .05664 0 .561481 .561481 0 0 1 .05664 .00586 .561481 .561481 0 0 1 .0039 .00195 .561481 .561481 0 0 1 .05273 .013672 .561481 .561481 0 0 1 .05273 .015625 .561481 .561481 0 0 1 .04883 .025391 .561481 .561481 0 0 1 .04883 .027344 .561481 .561481 0 0 1 .04688 .03125 .561481 .561481 0 0 1 .002 .00391 .561481 .561481 0 0 1 .04101 .037109 .561481 .561481 0 0 1 .03711 .039063 .561481 .561481 0 0 1 .0332 .042969 .561481 .561481 0 0 1 .0293 .046875 .559751 .559751 0 0 1 .01563 .037109 .559751 .559751 0 0 1 .02344 .050781 .559751 .559751 0 0 1 0 .00195 .559751 .559751 0 0 1 .01563 .052734 .559751 .559751 0 0 1 0 .00391 .559751 .559751 0 0 1 .0098 .054687 .559751 .559751 0 0 1 .0039 .054688 .559751 .559751 0 0 1 0 .054687 .559751 .559751 0 0 1 -.0059 .054688 .559751 .559751 0 0 1 -.002 .00195 .559751 .559751 0 0 1 -.01172 .052734 .559751 .559751 0 0 1 -.01563 .052734 .559751 .559751 0 0 1 -.002 .00391 .559751 .559751 0 0 1 -.02344 .050781 .559751 .559751 0 0 1 -.0293 .044922 .559751 .559751 0 0 1 -.002 .00195 .559751 .559751 0 0 1 -.0332 .044922 .559751 .559751 0 0 1 -.03711 .041016 .559751 .559751 0 0 1 -.03906 .037109 .559751 .559751 0 0 1 -.002 .00195 .559751 .559751 0 0 1 -.04297 .033203 .559751 .559751 0 0 1 -.04687 .029297l1.6 2.955a.561481 .561481 0 0 1 .03516 -.01563 .561481 .561481 0 0 1 .05469 -.01953 .561481 .561481 0 0 1 .05274 -.01758 .561481 .561481 0 0 1 .05664 -.0098 .561481 .561481 0 0 1 .002 0 .561481 .561481 0 0 1 .05273 -.0039 .561481 .561481 0 0 1 .05664 0 .561481 .561481 0 0 1 .05469 .0078 .561481 .561481 0 0 1 .05469 .01563 .561481 .561481 0 0 1 .002 0 .561481 .561481 0 0 1 .05273 .01367 .561481 .561481 0 0 1 .05078 .02539 .561481 .561481 0 0 1 .04883 .02734 .561481 .561481 0 0 1 .04297 .0332 .561481 .561481 0 0 1 .04297 .03711 .561481 .561481 0 0 1 .03906 .04102 .561481 .561481 0 0 1 .002 .002 .561481 .561481 0 0 1 .03125 .04297 .561481 .561481 0 0 1 .0332 .04687 .559751 .559751 0 0 1 .01563 .0332 .559751 .559751 0 0 1 .02148 .05273 .559751 .559751 0 0 1 0 .002 .559751 .559751 0 0 1 .01563 .05274 .559751 .559751 0 0 1 .0059 .05664 .559751 .559751 0 0 1 .002 .002 .559751 .559751 0 0 1 .0078 .05469 .559751 .559751 0 0 1 -.002 .05664 .559751 .559751 0 0 1 -.0059 .05469 .559751 .559751 0 0 1 -.01367 .05274 .559751 .559751 0 0 1 -.02149 .05273 .559751 .559751 0 0 1 0 .002 .559751 .559751 0 0 1 -.02148 .05078 .559751 .559751 0 0 1 -.02539 .05078 .559751 .559751 0 0 1 -.0332 .04297 .559751 .559751 0 0 1 -.03711 .04297 .559751 .559751 0 0 1 -.04102 .03711 .559751 .559751 0 0 1 -.04492 .03516 .559751 .559751 0 0 1 -.04687 .02734l.264.494 4.121-2.229v-4.627c0-.967-.309-1.83-.738-2.621m-.765664 1.5625a.456041 .456041 0 0 1 0 .00195 .456041 .456041 0 0 1 .04492 .00391 .456041 .456041 0 0 1 .04688 .00391 .456041 .456041 0 0 1 0 .00195 .456041 .456041 0 0 1 .04297 .011719 .456041 .456041 0 0 1 .04102 .017578 .456041 .456041 0 0 1 .04102 .019531 .456041 .456041 0 0 1 .002 .00195 .456041 .456041 0 0 1 .03711 .023437 .456041 .456041 0 0 1 .03516 .029297 .456041 .456041 0 0 1 0 .00195 .456041 .456041 0 0 1 .0332 .029297 .456041 .456041 0 0 1 .0293 .035156 .456041 .456041 0 0 1 0 .00195 .456041 .456041 0 0 1 .02539 .037109 .456041 .456041 0 0 1 .02148 .039063 .451175 .451175 0 0 1 .01563 .033203 .451175 .451175 0 0 1 .01367 .042969 .451175 .451175 0 0 1 .0078 .041016 .451175 .451175 0 0 1 .0039 .044922 .451175 .451175 0 0 1 0 .00195 .451175 .451175 0 0 1 .0039 .044922 .451175 .451175 0 0 1 0 .00195 .451175 .451175 0 0 1 -.0039 .041016 .451175 .451175 0 0 1 -.0059 .042969 .451175 .451175 0 0 1 -.002 .00391 .451175 .451175 0 0 1 -.01367 .042969 .451175 .451175 0 0 1 -.01562 .041016 .451175 .451175 0 0 1 -.01953 .039063 .451175 .451175 0 0 1 -.002 .00391 .451175 .451175 0 0 1 -.02539 .037109 .451175 .451175 0 0 1 -.0293 .033203 .451175 .451175 0 0 1 -.02734 .033203 .451175 .451175 0 0 1 -.002 .00195 .451175 .451175 0 0 1 -.03711 .021484 .451175 .451175 0 0 1 -.002 .00195 .451175 .451175 0 0 1 -.03711 .025391 .451175 .451175 0 0 1 -.03711 .021484c-.227.107-.5.011-.607-.215a.451175 .451175 0 0 1 -.01172 -.029297 .451175 .451175 0 0 1 -.01563 -.042969 .451175 .451175 0 0 1 -.002 -.00391 .451175 .451175 0 0 1 -.0078 -.041016 .451175 .451175 0 0 1 -.0039 -.044922 .451175 .451175 0 0 1 0 -.00195 .451175 .451175 0 0 1 0 -.041016 .451175 .451175 0 0 1 .0039 -.044922 .451175 .451175 0 0 1 0 -.00195 .451175 .451175 0 0 1 .0078 -.044922 .451175 .451175 0 0 1 0 -.00195 .451175 .451175 0 0 1 .01367 -.041016 .451175 .451175 0 0 1 .01563 -.042969 .451175 .451175 0 0 1 .02148 -.037109 .451175 .451175 0 0 1 .02148 -.039063 .451175 .451175 0 0 1 .0293 -.037109 .451175 .451175 0 0 1 .0332 -.029297 .451175 .451175 0 0 1 .0332 -.029297 .451175 .451175 0 0 1 .03906 -.025391 .451175 .451175 0 0 1 .03711 -.021484 .456041 .456041 0 0 1 .0293 -.013672 .456041 .456041 0 0 1 .04297 -.011719 .456041 .456041 0 0 1 .04492 -.013672 .456041 .456041 0 0 1 .002 0 .456041 .456041 0 0 1 .04102 -.00391 .456041 .456041 0 0 1 .04687 -.00195m-1.642387.7754a.456149 .456149 0 0 1 0 .00195 .456149 .456149 0 0 1 .04102 .00391 .456149 .456149 0 0 1 .04687 .00195 .456149 .456149 0 0 1 0 .00195 .456149 .456149 0 0 1 .04492 .011719 .456149 .456149 0 0 1 .002 .00195 .456149 .456149 0 0 1 .04102 .015625 .456149 .456149 0 0 1 .03906 .021484 .456149 .456149 0 0 1 .03711 .025391 .456149 .456149 0 0 1 .03711 .025391 .456149 .456149 0 0 1 .002 .00391 .456149 .456149 0 0 1 .0332 .029297 .456149 .456149 0 0 1 .0293 .035156 .456149 .456149 0 0 1 0 .00391 .456149 .456149 0 0 1 .02539 .037109 .456149 .456149 0 0 1 .02148 .039063 .451283 .451283 0 0 1 .01172 .033203 .451283 .451283 0 0 1 .01367 .041016 .451283 .451283 0 0 1 .01172 .042969 .451283 .451283 0 0 1 .0039 .044922 .451283 .451283 0 0 1 0 .00195 .451283 .451283 0 0 1 0 .044922 .451283 .451283 0 0 1 -.0039 .042969 .451283 .451283 0 0 1 -.0059 .042969 .451283 .451283 0 0 1 -.002 .00391 .451283 .451283 0 0 1 -.01367 .041016 .451283 .451283 0 0 1 -.01367 .041016 .451283 .451283 0 0 1 -.002 .00195 .451283 .451283 0 0 1 -.01953 .039063 .451283 .451283 0 0 1 -.002 .00195 .451283 .451283 0 0 1 -.02344 .037109 .451283 .451283 0 0 1 -.002 .00195 .451283 .451283 0 0 1 -.02539 .033203 .451283 .451283 0 0 1 -.03125 .03125 .451283 .451283 0 0 1 -.002 .00195 .451283 .451283 0 0 1 -.0332 .025391 .451283 .451283 0 0 1 -.03711 .023438 .451283 .451283 0 0 1 -.002 .00195 .451283 .451283 0 0 1 -.03906 .019531 .451283 .451283 0 0 1 -.002 .00195c-.227.107-.496.011-.603-.215a.451175 .451175 0 0 1 -.01563 -.029297 .451175 .451175 0 0 1 -.01172 -.044922 .451175 .451175 0 0 1 -.002 -.00195 .451175 .451175 0 0 1 -.0078 -.041016 .451175 .451175 0 0 1 -.0059 -.044922 .451175 .451175 0 0 1 -.002 -.00195 .451175 .451175 0 0 1 0 -.042969 .451175 .451175 0 0 1 .0039 -.044922 .451175 .451175 0 0 1 .0078 -.044922 .451175 .451175 0 0 1 0 -.00195 .451175 .451175 0 0 1 .01367 -.042969 .451175 .451175 0 0 1 .01563 -.041016 .451175 .451175 0 0 1 .02149 -.039063 .451175 .451175 0 0 1 .02539 -.037109 .451175 .451175 0 0 1 .0293 -.033203 .451175 .451175 0 0 1 .0293 -.033203 .451175 .451175 0 0 1 .0332 -.03125 .451175 .451175 0 0 1 .03906 -.025391 .451175 .451175 0 0 1 .04101 -.019531 .456149 .456149 0 0 1 .02539 -.013672 .456149 .456149 0 0 1 .04492 -.011719 .456149 .456149 0 0 1 .002 0 .456149 .456149 0 0 1 .04297 -.013672 .456149 .456149 0 0 1 .04492 -.00391 .456149 .456149 0 0 1 .04687 -.00195m-1.767474.583978a.561481 .561481 0 0 1 .05664 .00195 .561481 .561481 0 0 1 0 .00195 .561481 .561481 0 0 1 .05664 .00391 .561481 .561481 0 0 1 .002 .00195 .561481 .561481 0 0 1 .05273 .013672 .561481 .561481 0 0 1 .05078 .019531 .561481 .561481 0 0 1 .05078 .021484 .561481 .561481 0 0 1 .05078 .023437 .561481 .561481 0 0 1 0 .00195 .561481 .561481 0 0 1 .04492 .033203 .561481 .561481 0 0 1 .002 .00195 .561481 .561481 0 0 1 .04297 .035156 .561481 .561481 0 0 1 0 .00195 .561481 .561481 0 0 1 .03711 .041016 .561481 .561481 0 0 1 .03125 .044922 .561481 .561481 0 0 1 .03125 .044922 .561481 .561481 0 0 1 0 .00195 .559751 .559751 0 0 1 .01563 .039063 .559751 .559751 0 0 1 .02148 .048828 .559751 .559751 0 0 1 .01563 .052734 .559751 .559751 0 0 1 0 .00391 .559751 .559751 0 0 1 .0098 .054687 .559751 .559751 0 0 1 0 .00195 .559751 .559751 0 0 1 .0059 .050781 .559751 .559751 0 0 1 -.002 .054687 .559751 .559751 0 0 1 -.002 .00195 .559751 .559751 0 0 1 -.0059 .054687 .559751 .559751 0 0 1 -.002 .00195 .559751 .559751 0 0 1 -.0059 .054687 .559751 .559751 0 0 1 0 .00391 .559751 .559751 0 0 1 -.02148 .050781 .559751 .559751 0 0 1 -.02149 .050781 .559751 .559751 0 0 1 -.0293 .046875 .559751 .559751 0 0 1 0 .00195 .559751 .559751 0 0 1 -.0332 .042969 .559751 .559751 0 0 1 -.03711 .041016 .559751 .559751 0 0 1 -.04102 .037109 .559751 .559751 0 0 1 -.04492 .035156 .559751 .559751 0 0 1 0 .00195 .559751 .559751 0 0 1 -.04687 .025391 .561481 .561481 0 0 1 -.0332 .017578 .561481 .561481 0 0 1 -.05469 .017578 .561481 .561481 0 0 1 0 .00195 .561481 .561481 0 0 1 -.05273 .017578 .561481 .561481 0 0 1 -.05469 .013672 .561481 .561481 0 0 1 -.05664 0 .561481 .561481 0 0 1 -.05664 0 .561481 .561481 0 0 1 -.05469 -.00781 .561481 .561481 0 0 1 -.05469 -.00977 .561481 .561481 0 0 1 -.05469 -.019531 .561481 .561481 0 0 1 -.002 0 .561481 .561481 0 0 1 -.05078 -.021484 .561481 .561481 0 0 1 -.04883 -.03125 .561481 .561481 0 0 1 -.04297 -.03125 .561481 .561481 0 0 1 -.04297 -.037109 .561481 .561481 0 0 1 -.03516 -.039063 .561481 .561481 0 0 1 -.03516 -.044922 .561481 .561481 0 0 1 -.002 -.00391 .561481 .561481 0 0 1 -.02539 -.044922 .559751 .559751 0 0 1 -.02148 -.039063 .559751 .559751 0 0 1 -.02149 -.050781 .559751 .559751 0 0 1 -.01172 -.052734 .559751 .559751 0 0 1 -.01172 -.054687 .559751 .559751 0 0 1 -.0039 -.056641 .559751 .559751 0 0 1 0 -.00195 .559751 .559751 0 0 1 -.002 -.056641 .559751 .559751 0 0 1 .0098 -.052734 .559751 .559751 0 0 1 .01172 -.054687 .559751 .559751 0 0 1 .01758 -.052734 .559751 .559751 0 0 1 .02148 -.050781 .559751 .559751 0 0 1 .03125 -.046875 .559751 .559751 0 0 1 .03125 -.048828 .559751 .559751 0 0 1 .03516 -.042969 .559751 .559751 0 0 1 .04297 -.037109 .559751 .559751 0 0 1 .04687 -.029297 .559751 .559751 0 0 1 .04687 -.033203 .561481 .561481 0 0 1 .0332 -.015625 .561481 .561481 0 0 1 .05078 -.021484 .561481 .561481 0 0 1 .05469 -.015625 .561481 .561481 0 0 1 .002 0 .561481 .561481 0 0 1 .05469 -.00781 .561481 .561481 0 0 1 .05469 -.00781m3.295 2.689c.177-.008.351.088.432.258a.451283 .451283 0 0 1 .01172 .0293 .451283 .451283 0 0 1 .01758 .04102 .451283 .451283 0 0 1 .0078 .04297 .451283 .451283 0 0 1 0 .0039 .451283 .451283 0 0 1 .0039 .04492 .451283 .451283 0 0 1 0 .002 .451283 .451283 0 0 1 0 .04101 .451283 .451283 0 0 1 0 .04492 .451283 .451283 0 0 1 0 .002 .451283 .451283 0 0 1 -.0078 .04297 .451283 .451283 0 0 1 -.01172 .04297 .451283 .451283 0 0 1 -.002 .002 .451283 .451283 0 0 1 -.01367 .04102 .451283 .451283 0 0 1 -.002 .002 .451283 .451283 0 0 1 -.02148 .03711 .451283 .451283 0 0 1 -.02344 .03711 .451283 .451283 0 0 1 -.002 .002 .451283 .451283 0 0 1 -.0293 .0332 .451283 .451283 0 0 1 -.03125 .03125 .451283 .451283 0 0 1 -.002 .002 .451283 .451283 0 0 1 -.0332 .02734 .451283 .451283 0 0 1 -.002 .002 .451283 .451283 0 0 1 -.03711 .02539 .451283 .451283 0 0 1 -.03711 .02149c-.227.107-.5.011-.607-.215a.451175 .451175 0 0 1 -.01172 -.0332 .451175 .451175 0 0 1 -.01562 -.04297 .451175 .451175 0 0 1 -.002 0 .451175 .451175 0 0 1 -.0078 -.04101 .451175 .451175 0 0 1 -.0039 -.04492 .451175 .451175 0 0 1 0 -.002 .451175 .451175 0 0 1 -.0039 -.04492 .451175 .451175 0 0 1 -.002 -.002 .451175 .451175 0 0 1 .0059 -.04492 .451175 .451175 0 0 1 .0078 -.04297 .451175 .451175 0 0 1 .01172 -.04102 .451175 .451175 0 0 1 .01758 -.04297 .451175 .451175 0 0 1 .02148 -.04102 .451175 .451175 0 0 1 0 -.002 .451175 .451175 0 0 1 .02539 -.03711 .451175 .451175 0 0 1 .0293 -.0332 .451175 .451175 0 0 1 .0293 -.0332 .451175 .451175 0 0 1 .03711 -.02539 .451175 .451175 0 0 1 .03906 -.02539 .451175 .451175 0 0 1 .03711 -.02148c.057-.027.117-.04.176-.043m-1.642.773c.177-.008.351.09.432.26a.451283 .451283 0 0 1 .01172 .0293 .451283 .451283 0 0 1 .01367 .04297 .451283 .451283 0 0 1 0 .002 .451283 .451283 0 0 1 .0078 .04297 .451283 .451283 0 0 1 .0078 .04297 .451283 .451283 0 0 1 0 .0039 .451283 .451283 0 0 1 0 .04102 .451283 .451283 0 0 1 -.002 .04492 .451283 .451283 0 0 1 -.002 .002 .451283 .451283 0 0 1 -.0059 .04297 .451283 .451283 0 0 1 -.002 .0039 .451283 .451283 0 0 1 -.01367 .04102 .451283 .451283 0 0 1 -.01367 .04101 .451283 .451283 0 0 1 -.002 .002 .451283 .451283 0 0 1 -.02149 .03711 .451283 .451283 0 0 1 -.02344 .03711 .451283 .451283 0 0 1 -.002 .002 .451283 .451283 0 0 1 -.02734 .03516 .451283 .451283 0 0 1 -.002 .002 .451283 .451283 0 0 1 -.0293 .0293 .451283 .451283 0 0 1 -.0332 .0293 .451283 .451283 0 0 1 -.03711 .02344 .451283 .451283 0 0 1 -.002 .002 .451283 .451283 0 0 1 -.03906 .01953 .451283 .451283 0 0 1 -.002 .002c-.227.107-.5.011-.607-.215a.451175 .451175 0 0 1 -.01172 -.0332 .451175 .451175 0 0 1 -.01367 -.04297 .451175 .451175 0 0 1 -.01172 -.04102 .451175 .451175 0 0 1 -.0039 -.04492 .451175 .451175 0 0 1 -.002 -.002 .451175 .451175 0 0 1 0 -.04687 .451175 .451175 0 0 1 .0059 -.04101 .451175 .451175 0 0 1 .0078 -.04492 .451175 .451175 0 0 1 0 -.002 .451175 .451175 0 0 1 .01172 -.04297 .451175 .451175 0 0 1 .01758 -.04102 .451175 .451175 0 0 1 .02148 -.04101 .451175 .451175 0 0 1 0 -.002 .451175 .451175 0 0 1 .02539 -.03711 .451175 .451175 0 0 1 .02539 -.03516 .451175 .451175 0 0 1 .0332 -.0332 .451175 .451175 0 0 1 .0332 -.02539 .451175 .451175 0 0 1 .03906 -.02539 .451175 .451175 0 0 1 .04102 -.01953c.057-.027.117-.042.176-.045" fill="#ff8900"/><path d="m15.267344 1.57923a1.16968 1.16968 0 0 0 -.04297 .029297 1.16968 1.16968 0 0 0 -.0918 .068359 1.16968 1.16968 0 0 0 -.002 .00195 1.16968 1.16968 0 0 0 -.08398 .080078 1.16968 1.16968 0 0 0 -.07422 .087891 1.16968 1.16968 0 0 0 -.002 .00195 1.16968 1.16968 0 0 0 -.06641 .095703 1.16968 1.16968 0 0 0 -.0293 .046875c-.16.283-.189.606-.109.898.08.292.269.554.551.715.281.161.602.191.891.109.289-.081.545-.273.705-.557.16-.283.192-.606.113-.896-.076-.279-.265-.52-.527-.682z" fill="#9c00fe"/><path d="m9.717 1.579h-2.158c-3.089 0-5.574 2.486-5.574 5.574v5.863l.857-.811a.559859 .559859 0 0 0 .037109 .03711 .559859 .559859 0 0 1 .00195 0 .559859 .559859 0 0 0 .044922 .0332 .559859 .559859 0 0 1 .00195 0 .559859 .559859 0 0 0 .044922 .03125 .559859 .559859 0 0 0 .050781 .02344 .559859 .559859 0 0 0 .048828 .02148 .559859 .559859 0 0 0 .00391 0 .559859 .559859 0 0 0 .052734 .01367 .559859 .559859 0 0 0 .054688 .0078 .559859 .559859 0 0 0 .054687 .0039 .559859 .559859 0 0 0 .00391 0 .559859 .559859 0 0 0 .054688 0 .559859 .559859 0 0 0 .054687 -.0078 .559859 .559859 0 0 1 .00195 -.002 .559859 .559859 0 0 0 .052735 -.01172 .559859 .559859 0 0 0 .050781 -.01953 .559859 .559859 0 0 0 .050781 -.02148 .559859 .559859 0 0 1 .00195 -.002 .559859 .559859 0 0 0 .046876 -.02734 .559859 .559859 0 0 0 .042968 -.0332 .559859 .559859 0 0 0 .033203 -.02539 .561373 .561373 0 0 1 .00195 -.002 .561373 .561373 0 0 0 .03711 -.04102 .561373 .561373 0 0 0 .033203 -.04297 .561373 .561373 0 0 1 .00195 -.002 .561373 .561373 0 0 0 .027344 -.04687 .561373 .561373 0 0 1 .00195 -.002 .561373 .561373 0 0 0 .023437 -.04883 .561373 .561373 0 0 0 .021485 -.05078 .561373 .561373 0 0 0 .011719 -.05469 .561373 .561373 0 0 0 .00976 -.05469 .561373 .561373 0 0 0 .00391 -.05469 .561373 .561373 0 0 0 .00195 -.0039 .561373 .561373 0 0 0 -.00195 -.05469 .561373 .561373 0 0 0 -.00977 -.05469 .561373 .561373 0 0 1 0 -.002 .561373 .561373 0 0 0 -.011719 -.05469 .561373 .561373 0 0 0 -.021484 -.04883 .561373 .561373 0 0 0 -.021485 -.05078 .561373 .561373 0 0 0 0 -.0039 .561373 .561373 0 0 0 -.029296 -.04687 .561373 .561373 0 0 1 0 -.002 .561373 .561373 0 0 0 -.033204 -.04492 .561373 .561373 0 0 0 -.02539 -.0293l.404-.383 6.166 6.52-.408.383a.559751 .559751 0 0 0 -.039062 -.03906 .559751 .559751 0 0 0 -.044922 -.0332 .559751 .559751 0 0 0 -.046875 -.0293 .559751 .559751 0 0 1 0 -.002 .559751 .559751 0 0 0 -.050782 -.02344 .559751 .559751 0 0 0 -.050781 -.02148 .559751 .559751 0 0 0 -.054687 -.01172 .559751 .559751 0 0 0 -.054688 -.0078 .559751 .559751 0 0 1 -.00195 -.002 .559751 .559751 0 0 0 -.056641 -.0059 .559751 .559751 0 0 0 -.054687 0 .559751 .559751 0 0 0 -.054687 .01172 .559751 .559751 0 0 0 -.054688 .01172 .559751 .559751 0 0 0 -.050781 .02148 .559751 .559751 0 0 1 -.00195 0 .559751 .559751 0 0 0 -.052735 .02148 .559751 .559751 0 0 0 -.046875 .0293 .559751 .559751 0 0 0 -.046875 .0332 .559751 .559751 0 0 0 -.029297 .02539 .561481 .561481 0 0 0 -.037109 .04297 .561481 .561481 0 0 0 -.033203 .04102 .561481 .561481 0 0 1 0 .002 .561481 .561481 0 0 0 -.029297 .04883 .561481 .561481 0 0 0 -.025391 .05078 .561481 .561481 0 0 0 -.021484 .05078 .561481 .561481 0 0 0 -.013672 .05469 .561481 .561481 0 0 0 -.011719 .05469 .561481 .561481 0 0 0 0 .05469 .561481 .561481 0 0 1 0 .002 .561481 .561481 0 0 0 0 .05664 .561481 .561481 0 0 0 .00781 .05469 .561481 .561481 0 0 0 .013672 .05469 .561481 .561481 0 0 0 .015625 .05078 .561481 .561481 0 0 1 .00195 .002 .561481 .561481 0 0 0 .023437 .05273 .561481 .561481 0 0 0 .029297 .04687 .561481 .561481 0 0 1 .00195 0 .561481 .561481 0 0 0 .03125 .04687 .561481 .561481 0 0 0 .025391 .0293l-2.441 2.311a.559751 .559751 0 0 0 -.039063 -.03711 .559751 .559751 0 0 0 -.044922 -.0332 .559751 .559751 0 0 0 -.046875 -.0293 .559751 .559751 0 0 1 0 -.002 .559751 .559751 0 0 0 -.050781 -.02344 .559751 .559751 0 0 0 -.050781 -.02148 .559751 .559751 0 0 1 0 -.002 .559751 .559751 0 0 0 -.054688 -.01563 .559751 .559751 0 0 0 -.054687 -.0078 .559751 .559751 0 0 1 -.00195 -.002 .559751 .559751 0 0 0 -.056641 -.002 .559751 .559751 0 0 0 -.054687 .0039 .559751 .559751 0 0 0 -.054688 .0078 .559751 .559751 0 0 0 -.054687 .01367 .559751 .559751 0 0 0 -.050782 .01563 .559751 .559751 0 0 0 -.050781 .02539 .559751 .559751 0 0 1 -.00195 0 .559751 .559751 0 0 0 -.048828 .0293 .559751 .559751 0 0 0 -.044922 .03516 .559751 .559751 0 0 0 -.03125 .02539 .561481 .561481 0 0 0 -.037109 .04102 .561481 .561481 0 0 0 -.033204 .04297 .561481 .561481 0 0 0 -.029296 .04492 .561481 .561481 0 0 0 -.025391 .05078 .561481 .561481 0 0 1 0 .002 .561481 .561481 0 0 0 -.021484 .05273 .561481 .561481 0 0 0 -.013672 .05469 .561481 .561481 0 0 0 -.011719 .05469 .561481 .561481 0 0 0 0 .05469 .561481 .561481 0 0 0 0 .05469 .561481 .561481 0 0 0 .00195 .0039 .561481 .561481 0 0 0 .00586 .05664 .561481 .561481 0 0 0 .013672 .05469 .561481 .561481 0 0 0 .015625 .04883 .561481 .561481 0 0 1 .00195 0 .561481 .561481 0 0 0 .023438 .05078 .561481 .561481 0 0 1 .00195 .002 .561481 .561481 0 0 0 .027344 .04883 .561481 .561481 0 0 0 .035156 .04297 .561481 .561481 0 0 0 .025391 .0293l-.41.387-3.354-3.549v5.561c0 2.461 1.604 4.478 3.809 5.221.15-.289.361-.603.715-.92.419-.376.952-.737 1.531-1 .871-.401 1.833-.586 2.531-.553.233.011.436.046.598.105.415.152.676.779.625 1.463-.005.069-.011.104-.018.121-.008.022-.024.029-.131.033-.215.013-.455.033-.871.064-.242.019-.405.03-.523.037-.142.008-.14.01-.189-.102l-.186-.404-.125-.273-.295.055a4.334609 4.334609 0 0 0 -.203125 .04297 4.334609 4.334609 0 0 0 -.412109 .117188 4.334609 4.334609 0 0 1 -.00195 0 4.334609 4.334609 0 0 0 -.402344 .164062 4.343044 4.343044 0 0 0 -.185547 .08984 4.343044 4.343044 0 0 0 -.375 .222656 4.343044 4.343044 0 0 0 -.349609 .25586l-.234.189.125.273.168.377h4.357a.882451 .882451 0 0 1 -.002 -.03125 .882451 .882451 0 0 0 .002 -.002 .882451 .882451 0 0 1 .0059 -.08789 .882451 .882451 0 0 1 .01172 -.08398 .882451 .882451 0 0 1 .002 -.0039 .882451 .882451 0 0 1 .01953 -.08398 .882451 .882451 0 0 1 .03516 -.08008 .882451 .882451 0 0 1 .03711 -.08008 .882451 .882451 0 0 0 .002 -.002 .882451 .882451 0 0 1 .04492 -.07422 .882451 .882451 0 0 1 .05469 -.06641 .882451 .882451 0 0 0 .002 -.002 .882451 .882451 0 0 1 .05664 -.06641c.176-.169.406-.253.633-.248.227.005.451.097.621.273a.882559 .882559 0 0 1 .04297 .05078 .882559 .882559 0 0 0 .002 .002 .882559 .882559 0 0 1 .05273 .07031 .882559 .882559 0 0 0 .002 0 .882559 .882559 0 0 1 .04492 .07617 .882559 .882559 0 0 1 .03711 .08008 .882559 .882559 0 0 1 .0293 .07812 .882559 .882559 0 0 1 .002 .0039 .882559 .882559 0 0 1 .01953 .08594 .882559 .882559 0 0 1 .01367 .08398 .882559 .882559 0 0 1 .0039 .08789 .882559 .882559 0 0 1 -.002 .01953h2.336l-1.561-1.619a.882559 .882559 0 0 1 -.04492 -.04687 .882559 .882559 0 0 1 -.05078 -.07031 .882559 .882559 0 0 0 0 -.002 .882559 .882559 0 0 1 -.04687 -.07422 .882559 .882559 0 0 1 -.03711 -.08008 .882559 .882559 0 0 0 0 -.002 .882559 .882559 0 0 1 -.0293 -.08203 .882559 .882559 0 0 1 -.02148 -.08398 .882559 .882559 0 0 1 0 -.0039 .882559 .882559 0 0 1 -.01367 -.08594 .882559 .882559 0 0 1 -.0039 -.08789 .882559 .882559 0 0 1 .0039 -.08789 .882559 .882559 0 0 1 .01367 -.08398 .882559 .882559 0 0 1 .002 -.0059 .882559 .882559 0 0 1 .02344 -.08398 .882559 .882559 0 0 1 .0293 -.08008 .882559 .882559 0 0 1 .03711 -.08008 .882559 .882559 0 0 1 .04687 -.07422 .882559 .882559 0 0 1 .05469 -.06836 .882559 .882559 0 0 1 .002 -.0039 .882559 .882559 0 0 1 .06055 -.0625 .888507 .888507 0 0 1 .04297 -.03906 .888507 .888507 0 0 0 .002 -.002 .888507 .888507 0 0 1 .07031 -.05273 .888507 .888507 0 0 1 .07422 -.04687 .888507 .888507 0 0 1 .08008 -.03711 .888507 .888507 0 0 0 .002 0 .888507 .888507 0 0 1 .08203 -.0293 .888507 .888507 0 0 1 .08594 -.02148 .888507 .888507 0 0 1 .08789 -.01172 .888507 .888507 0 0 1 .08789 -.0059 .888507 .888507 0 0 1 .08789 .0039 .888507 .888507 0 0 1 .0039 0 .888507 .888507 0 0 1 .08594 .01367 .888507 .888507 0 0 1 .08398 .02148 .888507 .888507 0 0 0 .002 0 .888507 .888507 0 0 1 .08203 .0332 .888507 .888507 0 0 1 .08008 .03711 .888507 .888507 0 0 0 .002 0 .888507 .888507 0 0 1 .07422 .04687 .888507 .888507 0 0 0 .002 0 .888507 .888507 0 0 1 .06836 .05469 .888507 .888507 0 0 1 .06445 .05859 .882559 .882559 0 0 1 .04492 .05078 .882559 .882559 0 0 0 .002 0 .882559 .882559 0 0 1 .04883 .07227 .882559 .882559 0 0 0 .002 0 .882559 .882559 0 0 1 .04492 .07617 .882559 .882559 0 0 1 .03711 .08008 .882559 .882559 0 0 1 .03125 .08008 .882559 .882559 0 0 0 .002 0 .882559 .882559 0 0 1 .01758 .08789 .882559 .882559 0 0 1 .01367 .08398 .882559 .882559 0 0 1 .0039 .08789 .882559 .882559 0 0 1 -.0039 .08984 .882559 .882559 0 0 1 -.01367 .08789 .882559 .882559 0 0 1 -.02539 .08398 .882559 .882559 0 0 1 -.0293 .08398 .882559 .882559 0 0 1 -.03711 .08008 .882559 .882559 0 0 1 -.04687 .07227 .882559 .882559 0 0 1 -.05469 .07031 .882559 .882559 0 0 1 -.0625 .06445 .883533 .883533 0 0 1 -.0293 .0293 .883533 .883533 0 0 1 -.06836 .05469 .883533 .883533 0 0 1 -.07617 .04687 .883533 .883533 0 0 1 -.07422 .03711 .883533 .883533 0 0 0 -.002 0 .883533 .883533 0 0 1 -.08398 .0332 .883533 .883533 0 0 1 -.08398 .02539 .883533 .883533 0 0 1 -.08789 .01367l1.305 1.354h2.727l-.315-.24a.920193 .920193 0 0 1 -.05859 -.04687 .920193 .920193 0 0 1 -.0625 -.06641 .920193 .920193 0 0 0 0 -.002 .920193 .920193 0 0 1 -.05859 -.07031 .920193 .920193 0 0 1 -.05078 -.07617 .920193 .920193 0 0 0 0 -.002 .920193 .920193 0 0 1 -.04687 -.07813 .920193 .920193 0 0 1 -.0332 -.08398 .920193 .920193 0 0 1 -.02539 -.08789 .920193 .920193 0 0 1 0 -.0039 .920193 .920193 0 0 1 -.02148 -.08789 .920193 .920193 0 0 1 -.0039 -.08984 .920193 .920193 0 0 1 0 -.0918 .920193 .920193 0 0 1 0 -.0039 .920193 .920193 0 0 1 .0078 -.08984 .920193 .920193 0 0 1 .02149 -.08789 .920193 .920193 0 0 1 .02539 -.08789 .920193 .920193 0 0 1 .03711 -.08398 .920193 .920193 0 0 0 .002 -.002 .920193 .920193 0 0 1 .04492 -.07813 .920193 .920193 0 0 1 .05078 -.07617l.74-.961-1.957-.121c-.202-.014-.305-.244-.182-.404l2.152-2.793c.062-.08.155-.11.242-.096.087.014.167.073.199.168l.625 1.85.74-.961c.156-.203.381-.324.617-.355.236-.031.484.028.688.184l3.336 2.547a.920085 .920085 0 0 1 .05859 .04687 .920085 .920085 0 0 0 .002 0 .920085 .920085 0 0 1 .0625 .06641 .920085 .920085 0 0 0 .002 0 .920085 .920085 0 0 1 .05664 .07227 .920085 .920085 0 0 1 .05078 .07617 .920085 .920085 0 0 1 .04492 .08008 .920085 .920085 0 0 1 .03516 .08398 .920085 .920085 0 0 1 .02539 .08789 .920085 .920085 0 0 0 .002 .002 .920085 .920085 0 0 1 .01367 .0918 .920085 .920085 0 0 1 .0098 .08789 .920085 .920085 0 0 1 0 .0918 .920085 .920085 0 0 0 0 .002 .920085 .920085 0 0 1 -.0098 .0918 .920085 .920085 0 0 1 -.02148 .08789 .920085 .920085 0 0 1 -.02344 .08789 .920085 .920085 0 0 1 -.03906 .08398 .920085 .920085 0 0 1 -.04687 .08008 .920085 .920085 0 0 1 -.05078 .07617l-.797 1.033c2.716-.377 4.83-2.602 4.83-5.426v-12.426l-4.121 2.229-.264-.494a.559751 .559751 0 0 0 .04687 -.02734 .559751 .559751 0 0 0 .04492 -.03516 .559751 .559751 0 0 0 .04102 -.03711 .559751 .559751 0 0 0 .03711 -.04297 .559751 .559751 0 0 0 .0332 -.04297 .559751 .559751 0 0 0 .02539 -.05078 .559751 .559751 0 0 0 .02148 -.05078 .559751 .559751 0 0 1 0 -.002 .559751 .559751 0 0 0 .02149 -.05273 .559751 .559751 0 0 0 .01367 -.05274 .559751 .559751 0 0 0 .0059 -.05469 .559751 .559751 0 0 0 .002 -.05664 .559751 .559751 0 0 0 -.0078 -.05469 .559751 .559751 0 0 1 -.002 -.002 .559751 .559751 0 0 0 -.0059 -.05664 .559751 .559751 0 0 0 -.01563 -.05274 .559751 .559751 0 0 1 0 -.002 .559751 .559751 0 0 0 -.02148 -.05273 .559751 .559751 0 0 0 -.01563 -.0332 .561481 .561481 0 0 0 -.0332 -.04687 .561481 .561481 0 0 0 -.03125 -.04297 .561481 .561481 0 0 1 -.002 -.002 .561481 .561481 0 0 0 -.03906 -.04102 .561481 .561481 0 0 0 -.04297 -.03711 .561481 .561481 0 0 0 -.04297 -.0332 .561481 .561481 0 0 0 -.04883 -.02734 .561481 .561481 0 0 0 -.05078 -.02539 .561481 .561481 0 0 0 -.05273 -.01367 .561481 .561481 0 0 1 -.002 0 .561481 .561481 0 0 0 -.05469 -.01563 .561481 .561481 0 0 0 -.05469 -.0078 .561481 .561481 0 0 0 -.05664 0 .561481 .561481 0 0 0 -.05273 .0039 .561481 .561481 0 0 1 -.002 0 .561481 .561481 0 0 0 -.05664 .0098 .561481 .561481 0 0 0 -.05274 .01758 .561481 .561481 0 0 0 -.05469 .01953 .561481 .561481 0 0 0 -.03516 .01563l-1.6-2.955a.559751 .559751 0 0 0 .04687 -.029297 .559751 .559751 0 0 0 .04297 -.033203 .559751 .559751 0 0 1 .002 -.00195 .559751 .559751 0 0 0 .03906 -.037109 .559751 .559751 0 0 0 .03711 -.041016 .559751 .559751 0 0 0 .0332 -.044922 .559751 .559751 0 0 1 .002 -.00195 .559751 .559751 0 0 0 .0293 -.044922 .559751 .559751 0 0 0 .02344 -.050781 .559751 .559751 0 0 0 .002 -.00391 .559751 .559751 0 0 0 .01563 -.052734 .559751 .559751 0 0 0 .01172 -.052734 .559751 .559751 0 0 1 .002 -.00195 .559751 .559751 0 0 0 .0059 -.054688 .559751 .559751 0 0 0 0 -.054687 .559751 .559751 0 0 0 -.0039 -.054688 .559751 .559751 0 0 0 -.0098 -.054687 .559751 .559751 0 0 0 0 -.00391 .559751 .559751 0 0 0 -.01563 -.052734 .559751 .559751 0 0 1 0 -.00195 .559751 .559751 0 0 0 -.02344 -.050781 .559751 .559751 0 0 0 -.01563 -.037109 .561481 .561481 0 0 0 -.0293 -.046875 .561481 .561481 0 0 0 -.0332 -.042969 .561481 .561481 0 0 0 -.03711 -.039063 .561481 .561481 0 0 0 -.04101 -.037109 .561481 .561481 0 0 0 -.002 -.00391 .561481 .561481 0 0 0 -.04688 -.03125 .561481 .561481 0 0 0 -.04883 -.027344 .561481 .561481 0 0 0 -.04883 -.025391 .561481 .561481 0 0 0 -.05273 -.015625 .561481 .561481 0 0 0 -.05273 -.013672 .561481 .561481 0 0 0 -.0039 -.00195 .561481 .561481 0 0 0 -.05664 -.00586 .561481 .561481 0 0 0 -.05664 0 .561481 .561481 0 0 0 -.05078 .00195 .561481 .561481 0 0 0 -.05664 .011719 .561481 .561481 0 0 1 -.002 0 .561481 .561481 0 0 0 -.05469 .013672 .561481 .561481 0 0 0 -.05078 .023437 .561481 .561481 0 0 0 -.03516 .017578l-.268-.496 6.59-3.561c-.943-1.736-2.716-2.953-4.838-2.953h-8.113c.262.162.452.403.527.682.079.291.047.613-.113.896-.16.284-.416.475-.705.557-.289.081-.609.052-.891-.109-.282-.161-.471-.423-.551-.715-.08-.292-.05-.615.109-.898a1.16968 1.16968 0 0 1 .0293 -.046875 1.16968 1.16968 0 0 1 .06641 -.095703 1.16968 1.16968 0 0 0 .002 -.00195 1.16968 1.16968 0 0 1 .07422 -.087891 1.16968 1.16968 0 0 1 .08398 -.080078 1.16968 1.16968 0 0 0 .002 -.00195 1.16968 1.16968 0 0 1 .0918 -.068359 1.16968 1.16968 0 0 1 .04297 -.029297h-3.395l-.949 1.684 3.467 1.984c.282.161.473.42.553.711.08.291.048.613-.111.896-.16.284-.417.474-.707.555-.29.08-.611.05-.893-.111-.282-.161-.47-.422-.549-.713-.079-.291-.048-.613.111-.896a1.16968 1.16968 0 0 1 .02539 -.046875 1.16968 1.16968 0 0 1 .06641 -.095703 1.16968 1.16968 0 0 0 .002 -.00195 1.16968 1.16968 0 0 1 .07422 -.087891 1.16968 1.16968 0 0 1 .08398 -.080078 1.16968 1.16968 0 0 0 .002 -.00195 1.16968 1.16968 0 0 1 .0918 -.068359 1.16968 1.16968 0 0 0 .002 -.00195 1.16968 1.16968 0 0 1 .09766 -.0625 1.16968 1.16968 0 0 1 .101563 -.054687l-4.279-2.445.115-.203m15.27-.508c.414-.038.782.265.824.678l.039.375.119 1.215a.462638 .462638 0 0 1 .0039 .042969 .462638 .462638 0 0 1 0 .046875 .462638 .462638 0 0 1 -.0078 .041016 .462638 .462638 0 0 0 0 .00195 .462638 .462638 0 0 1 -.01367 .044922 .462638 .462638 0 0 1 -.01172 .042969 .462638 .462638 0 0 1 -.02148 .041016 .462638 .462638 0 0 1 -.02148 .042969 .462638 .462638 0 0 1 -.0293 .037109 .462638 .462638 0 0 1 -.0293 .033203 .462638 .462638 0 0 1 -.0332 .029297 .462638 .462638 0 0 0 -.002 .00195 .462638 .462638 0 0 1 -.03711 .029297 .462638 .462638 0 0 1 -.04101 .019531 .462638 .462638 0 0 1 -.04297 .021484 .462638 .462638 0 0 1 -.04102 .017578 .462638 .462638 0 0 1 -.04687 .00781 .462638 .462638 0 0 1 -.04687 .00781c-.259.024-.487-.166-.514-.424l-.129-1.311a.185682 .185682 0 0 1 -.0059 -.017578 .185682 .185682 0 0 1 .0059 -.015625 .185682 .185682 0 0 1 0 -.00391 .185682 .185682 0 0 1 0 -.017578 .185682 .185682 0 0 1 .0039 -.017578 .185682 .185682 0 0 1 .0078 -.015625 .185682 .185682 0 0 1 .0039 -.017578 .185682 .185682 0 0 0 .002 -.00195 .185682 .185682 0 0 1 .01172 -.013672 .185682 .185682 0 0 1 .0078 -.013672 .185682 .185682 0 0 1 .002 -.00391 .185682 .185682 0 0 1 .01172 -.013672 .185682 .185682 0 0 1 .01172 -.011719 .185682 .185682 0 0 0 .002 -.00195 .185682 .185682 0 0 1 .01563 -.00586 .185682 .185682 0 0 1 .01563 -.00977 .185682 .185682 0 0 0 .002 -.00195 .185682 .185682 0 0 1 .01562 -.00586 .185682 .185682 0 0 1 .01563 -.00781 .185682 .185682 0 0 1 .01758 -.00391 .185682 .185682 0 0 1 .0039 -.00195 .185682 .185682 0 0 1 .01758 .00195 .190116 .190116 0 0 1 .0078 -.00586 .190116 .190116 0 0 1 .0039 -.00195 .190116 .190116 0 0 1 .01758 .00195 .190116 .190116 0 0 1 .01758 .00586 .190116 .190116 0 0 0 .002 0 .190116 .190116 0 0 1 .01758 .00391 .190116 .190116 0 0 1 .01758 .00391 .190116 .190116 0 0 1 .01758 .00781 .190116 .190116 0 0 1 .01563 .00977 .190116 .190116 0 0 0 .002 0 .190116 .190116 0 0 1 .01563 .011719 .190116 .190116 0 0 1 .01172 .013672 .190116 .190116 0 0 1 .01367 .011719 .190116 .190116 0 0 0 .002 0 .190116 .190116 0 0 1 .0098 .017578 .190116 .190116 0 0 1 .0098 .015625 .190116 .190116 0 0 1 .0078 .017578 .190116 .190116 0 0 1 .0078 .017578 .190116 .190116 0 0 1 .0059 .015625 .190116 .190116 0 0 0 .002 .00195 .190116 .190116 0 0 1 .002 .019531l.131 1.311a.093652 .093652 0 0 0 0 .00781 .093652 .093652 0 0 0 .0039 .00781 .093652 .093652 0 0 0 0 .00781 .093652 .093652 0 0 1 .002 0 .093652 .093652 0 0 0 .002 .00977 .093652 .093652 0 0 0 .0039 .00781 .093652 .093652 0 0 0 .0039 .00195 .093652 .093652 0 0 0 .0059 .00586 .093652 .093652 0 0 0 .0039 .00586 .093652 .093652 0 0 1 .002 0 .093652 .093652 0 0 0 .0059 .00781 .093652 .093652 0 0 0 .0078 .00391 .093652 .093652 0 0 1 .002 0 .093652 .093652 0 0 0 .0078 .00391 .093652 .093652 0 0 1 .002 0 .093652 .093652 0 0 0 .0059 .00586 .093652 .093652 0 0 0 .0078 .00391 .093652 .093652 0 0 1 .002 0 .093652 .093652 0 0 0 .0078 .00391 .093652 .093652 0 0 0 .0078 0 .093652 .093652 0 0 0 .0078 0 .093652 .093652 0 0 1 .002 0 .093652 .093652 0 0 0 .0078 0 .091381 .091381 0 0 0 .0039 0 .091381 .091381 0 0 0 .0078 0 .091381 .091381 0 0 0 .0078 -.00391 .091381 .091381 0 0 1 .002 -.00195 .091381 .091381 0 0 0 .0078 -.00195 .091381 .091381 0 0 0 .0078 0 .091381 .091381 0 0 1 .002 -.00195 .091381 .091381 0 0 0 .0059 -.00391 .091381 .091381 0 0 0 .0039 -.00781 .091381 .091381 0 0 1 .002 -.00195 .091381 .091381 0 0 0 .0078 -.00195 .091381 .091381 0 0 1 .002 -.00195 .091381 .091381 0 0 0 .002 -.00781 .091381 .091381 0 0 1 .002 -.00195 .091381 .091381 0 0 0 .0059 -.00586 .091381 .091381 0 0 0 .0039 -.00391 .091381 .091381 0 0 1 .002 -.00195 .091381 .091381 0 0 0 .0039 -.00586 .091381 .091381 0 0 1 .002 -.00195 .091381 .091381 0 0 0 .002 -.00781 .091381 .091381 0 0 0 0 -.00781 .091381 .091381 0 0 0 0 -.00391 .091381 .091381 0 0 0 0 -.00781 .091381 .091381 0 0 1 .002 -.00195 .091381 .091381 0 0 0 .002 -.00781 .091381 .091381 0 0 0 -.0039 -.00781l-.124-1.217-.037-.371a.380016 .380016 0 0 0 0 -.021484 .380016 .380016 0 0 0 -.0078 -.037109 .380016 .380016 0 0 0 0 -.00391 .380016 .380016 0 0 0 -.01367 -.035156 .380016 .380016 0 0 0 -.01563 -.033203 .380016 .380016 0 0 0 -.01758 -.033203 .380016 .380016 0 0 0 -.02149 -.029297 .380016 .380016 0 0 1 0 -.00195 .380016 .380016 0 0 0 -.02539 -.027344 .380016 .380016 0 0 1 0 -.00195 .380016 .380016 0 0 0 -.0293 -.023437 .380016 .380016 0 0 1 0 -.00195 .380016 .380016 0 0 0 -.0293 -.023437 .380016 .380016 0 0 0 -.0293 -.021484 .380016 .380016 0 0 0 -.0039 -.00391 .380016 .380016 0 0 0 -.03516 -.013672 .380016 .380016 0 0 0 -.0332 -.011719 .380016 .380016 0 0 0 -.03711 -.00781 .380016 .380016 0 0 1 -.002 -.00195 .380016 .380016 0 0 0 -.03711 -.00781 .380016 .380016 0 0 0 -.03711 0 .380016 .380016 0 0 0 -.03711 0 .371689 .371689 0 0 0 -.03125 .00586 .371689 .371689 0 0 0 -.0332 .00781 .371689 .371689 0 0 0 -.03711 .011719 .371689 .371689 0 0 0 -.0332 .013672 .371689 .371689 0 0 0 -.03125 .021484 .371689 .371689 0 0 0 -.0332 .019531 .371689 .371689 0 0 0 -.02539 .025391 .371689 .371689 0 0 0 -.02539 .025391 .371689 .371689 0 0 0 -.02539 .029297 .371689 .371689 0 0 0 -.01563 .035156 .371689 .371689 0 0 0 -.01758 .033203 .371689 .371689 0 0 0 -.01172 .033203 .371689 .371689 0 0 1 0 .00195 .371689 .371689 0 0 0 -.0098 .037109 .371689 .371689 0 0 0 -.0078 .033203 .371689 .371689 0 0 0 0 .037109 .371689 .371689 0 0 1 0 .00195 .371689 .371689 0 0 0 0 .037109l.127 1.213.037.375c.036.362.358.627.721.594a.650483 .650483 0 0 0 .05469 -.00977 .650483 .650483 0 0 0 .0625 -.011719 .650483 .650483 0 0 0 .05859 -.021484 .650483 .650483 0 0 1 .002 -.00195 .650483 .650483 0 0 0 .05859 -.023437 .650483 .650483 0 0 1 .002 -.00195 .650483 .650483 0 0 0 .05664 -.03125 .650483 .650483 0 0 0 .05078 -.039063 .650483 .650483 0 0 1 .002 -.00195 .650483 .650483 0 0 0 .04883 -.039063 .650483 .650483 0 0 1 0 -.00195 .650483 .650483 0 0 0 .04102 -.048828 .650483 .650483 0 0 1 .002 -.00195 .650483 .650483 0 0 0 .04102 -.048828 .650483 .650483 0 0 0 .0332 -.054687 .650483 .650483 0 0 0 .02539 -.058594 .650483 .650483 0 0 0 .02539 -.058594 .650483 .650483 0 0 1 .002 -.00195 .650483 .650483 0 0 0 .01367 -.0625 .650483 .650483 0 0 0 .002 -.00391 .650483 .650483 0 0 0 .0078 -.0625 .650483 .650483 0 0 0 .0039 -.064453 .650483 .650483 0 0 0 -.0039 -.0625l-.135-1.309a.185791 .185791 0 0 1 0 -.017578 .185791 .185791 0 0 1 0 -.017578 .185791 .185791 0 0 1 .0039 -.015625 .185791 .185791 0 0 1 .002 -.00391 .185791 .185791 0 0 1 .002 -.017578 .185791 .185791 0 0 1 .0039 -.017578 .185791 .185791 0 0 1 .0098 -.015625 .185791 .185791 0 0 0 .002 -.00195 .185791 .185791 0 0 1 .0059 -.015625 .185791 .185791 0 0 1 .01172 -.011719 .185791 .185791 0 0 1 .0039 -.00391 .185791 .185791 0 0 1 .0098 -.013672 .185791 .185791 0 0 1 .01172 -.013672 .185791 .185791 0 0 0 .002 -.00195 .185791 .185791 0 0 1 .01563 -.00586 .185791 .185791 0 0 0 .002 -.00195 .185791 .185791 0 0 1 .01563 -.00586 .185791 .185791 0 0 1 .01562 -.00977 .185791 .185791 0 0 0 .002 -.00195 .185791 .185791 0 0 1 .01563 -.00586 .185791 .185791 0 0 1 .01758 -.00391 .185791 .185791 0 0 1 .01563 0 .190116 .190116 0 0 1 .01367 -.00391 .190116 .190116 0 0 1 .01563 0 .190116 .190116 0 0 1 .0039 0 .190116 .190116 0 0 1 .01758 .00391 .190116 .190116 0 0 1 .01758 .00391 .190116 .190116 0 0 1 .0039 0 .190116 .190116 0 0 1 .01758 .00391 .190116 .190116 0 0 1 .01562 .00977 .190116 .190116 0 0 0 .002 0 .190116 .190116 0 0 1 .01563 .00781 .190116 .190116 0 0 1 .01172 .013672 .190116 .190116 0 0 0 .002 0 .190116 .190116 0 0 1 .01563 .011719 .190116 .190116 0 0 1 .01172 .013672 .190116 .190116 0 0 0 .002 0 .190116 .190116 0 0 1 .01172 .015625 .190116 .190116 0 0 0 .002 0 .190116 .190116 0 0 1 .0059 .017578 .190116 .190116 0 0 1 .0098 .015625 .190116 .190116 0 0 0 .002 0 .190116 .190116 0 0 1 .0059 .017578 .190116 .190116 0 0 1 .0039 .017578 .190116 .190116 0 0 1 0 .019531l.135 1.307c.029.283-.059.55-.227.754-.168.204-.415.345-.699.371-.285.026-.553-.067-.758-.236-.205-.169-.346-.415-.375-.699l-.039-.375-.121-1.213a.743162 .743162 0 0 1 -.0039 -.0625 .743162 .743162 0 0 1 0 -.072266 .743162 .743162 0 0 1 .002 -.00391 .743162 .743162 0 0 1 .0098 -.072266 .743162 .743162 0 0 1 .01758 -.070312 .743162 .743162 0 0 0 .002 -.00195 .743162 .743162 0 0 1 .01758 -.070312 .743162 .743162 0 0 1 .002 -.00391 .743162 .743162 0 0 1 .0332 -.064453 .743162 .743162 0 0 1 .03711 -.0625 .743162 .743162 0 0 1 .04297 -.058594 .743162 .743162 0 0 0 .002 -.00195 .743162 .743162 0 0 1 .04883 -.052734 .743162 .743162 0 0 0 .002 -.00195 .743162 .743162 0 0 1 .05274 -.048828 .743162 .743162 0 0 0 .002 -.00195 .743162 .743162 0 0 1 .05664 -.044922 .743162 .743162 0 0 1 .0625 -.037109 .743162 .743162 0 0 1 .06836 -.029297 .743162 .743162 0 0 0 .002 -.00195 .743162 .743162 0 0 1 .06836 -.023437 .743162 .743162 0 0 1 .07227 -.017578 .743162 .743162 0 0 1 .07226 -.011719zm-3.924.863c.466.02.907.18 1.271.445.485.353.835.891.938 1.531l.061.385c.102.641-.063 1.265-.414 1.752-.351.487-.887.835-1.527.938l-.869.141-1.258 1.393-.203-1.293c-.474-.088-.906-.321-1.24-.658-.334-.337-.57-.779-.65-1.283l-.063-.383c-.102-.641.065-1.261.416-1.748.351-.487.885-.841 1.525-.943l1.541-.248c.16-.026.317-.034.473-.027m-13.684.139c.004 0 .008.002.012.002.136.008.27.03.4.061.045.01.087.024.131.037.07.021.137.045.205.072.191.076.376.169.541.291.123.091.236.192.34.305.209.225.376.491.486.789.055.149.096.306.121.469l.059.391c.1.653-.07 1.284-.43 1.777-.36.493-.907.846-1.559.947l-.879.139-1.289 1.406-.203-1.313a2.38889 2.38889 0 0 1 -.066407 -.017578 2.38889 2.38889 0 0 0 0 -.00195 2.38889 2.38889 0 0 1 -.232422 -.060547 2.38889 2.38889 0 0 1 -.222656 -.083984 2.38889 2.38889 0 0 1 -.210937 -.109375 2.38889 2.38889 0 0 0 -.00195 0 2.38889 2.38889 0 0 1 -.199218 -.130859 2.38889 2.38889 0 0 1 -.185547 -.148438 2.38889 2.38889 0 0 0 0 -.00195 2.38889 2.38889 0 0 1 -.173828 -.162109 2.38889 2.38889 0 0 0 0 -.00195 2.38889 2.38889 0 0 1 -.154297 -.183594 2.38889 2.38889 0 0 1 -.134766 -.193359 2.38889 2.38889 0 0 0 0 -.00195 2.38889 2.38889 0 0 1 -.115234 -.208984 2.38889 2.38889 0 0 1 -.091797 -.21875 2.38889 2.38889 0 0 1 -.072266 -.226563 2.38889 2.38889 0 0 0 0 -.00195 2.38889 2.38889 0 0 1 -.044921 -.234375l-.064-.387c-.05-.326-.031-.648.045-.949.076-.301.209-.581.389-.828.09-.124.192-.239.305-.344.112-.104.234-.198.365-.279.263-.164.563-.28.889-.33l1.563-.244c.162-.025.323-.032.48-.023m-.359 19.256l.324.215-.455.691.742.484.395-.598.33.215-.396.602 1.035.682-.227.35-2.434-1.604zm20.516.236l.34.201-1.414 2.375-.346-.201zm.996093.568359a.668003 .668003 0 0 1 .06641 0 .668003 .668003 0 0 1 .0039 .002 .668003 .668003 0 0 1 .06445 .0098 .704555 .704555 0 0 1 .0293 .0078 .704555 .704555 0 0 1 .06641 .01953 .704555 .704555 0 0 1 .0039 0 .704555 .704555 0 0 1 .06445 .02539 .704555 .704555 0 0 0 .002 0 .704555 .704555 0 0 1 .06055 .03516 .702176 .702176 0 0 1 .0293 .01563 .702176 .702176 0 0 1 .05469 .04297 .702176 .702176 0 0 1 .05078 .04688 .702176 .702176 0 0 1 .04687 .04883 .659892 .659892 0 0 1 .0332 .04297 .659892 .659892 0 0 1 .0332 .05469 .659892 .659892 0 0 1 .0293 .05859 .659892 .659892 0 0 0 .002 .002 .659892 .659892 0 0 1 .02344 .06055c.026.08.035.164.025.256-.01.092-.047.189-.105.287l-.744 1.25c-.057.096-.126.173-.203.227-.077.054-.157.086-.24.102-.083.016-.165.016-.248 0a.699797 .699797 0 0 1 -.0332 -.0078 .699797 .699797 0 0 1 -.06836 -.01758 .699797 .699797 0 0 0 -.002 0 .699797 .699797 0 0 1 -.06445 -.0293 .699797 .699797 0 0 1 -.05859 -.0293 .702176 .702176 0 0 1 -.0293 -.02148 .702176 .702176 0 0 1 -.06055 -.03711 .702176 .702176 0 0 1 -.05078 -.05078 .702176 .702176 0 0 1 -.04492 -.05078c-.053-.065-.097-.139-.123-.219-.026-.08-.032-.163-.021-.256.01-.093.044-.188.102-.283l.072-.121.34.201-.07.123c-.049.082-.065.153-.043.219a.281065 .281065 0 0 0 .0039 .0078 .281065 .281065 0 0 1 .002 .002 .281065 .281065 0 0 0 .01172 .02344 .281065 .281065 0 0 0 .01172 .02539 .281065 .281065 0 0 0 .002 .0039 .281065 .281065 0 0 0 .01563 .02148 .281065 .281065 0 0 0 .01758 .02148 .281065 .281065 0 0 0 .01953 .01563 .281065 .281065 0 0 0 .02149 .01758 .281065 .281065 0 0 1 .002 .002 .281065 .281065 0 0 0 .02344 .01367 .282579 .282579 0 0 0 .0039 .0078 .282579 .282579 0 0 0 .02539 .01172 .282579 .282579 0 0 0 .02539 .0059 .282579 .282579 0 0 0 .0039 .002 .282579 .282579 0 0 0 .02539 .0098 .282579 .282579 0 0 1 .002 0 .282579 .282579 0 0 0 .02734 .0039 .282579 .282579 0 0 0 .02539 .0039 .282579 .282579 0 0 0 .0039 0 .282579 .282579 0 0 0 .02734 0 .282579 .282579 0 0 1 .002 -.002 .282579 .282579 0 0 0 .02734 -.002c.069-.012.126-.061.176-.143l.746-1.252c.049-.082.063-.157.041-.223-.023-.066-.063-.115-.125-.152a.282795 .282795 0 0 0 -.0098 -.0039 .282795 .282795 0 0 0 -.02539 -.01172 .282795 .282795 0 0 0 -.02344 -.01367 .282795 .282795 0 0 1 -.002 -.002 .282795 .282795 0 0 0 -.0293 -.0059 .282795 .282795 0 0 0 -.02539 -.0039 .282795 .282795 0 0 1 0 -.002 .282795 .282795 0 0 0 -.0293 .002 .282795 .282795 0 0 1 0 -.002 .282795 .282795 0 0 0 -.0293 .002 .282795 .282795 0 0 0 -.02539 .0039c-.069.012-.127.056-.176.139l-.27.447.273.158-.182.301-.609-.363.445-.746c.059-.098.127-.17.203-.223.077-.052.157-.09.24-.105a.668003 .668003 0 0 1 .04492 -.0039 .668003 .668003 0 0 0 .002 -.002 .668003 .668003 0 0 1 .06641 -.002zm-22.422.572l2.436 1.602-.229.346-2.434-1.602zm-.156.924h.002c.098.015.191.053.289.117l.127.084-.232.346-.121-.08c-.084-.055-.162-.071-.232-.051-.071.02-.13.063-.172.127-.042.064-.056.128-.047.201.005.036.018.071.041.104.023.032.056.062.098.09l1.285.848c.084.055.16.07.23.051a.295016 .295016 0 0 0 .00976 0 .295016 .295016 0 0 1 .00195 0 .295016 .295016 0 0 0 .025391 -.01172 .295016 .295016 0 0 0 .00195 -.002 .295016 .295016 0 0 0 .025391 -.01172 .295016 .295016 0 0 1 .00195 -.002 .295016 .295016 0 0 0 .023437 -.01563 .295016 .295016 0 0 1 .00195 -.002 .295016 .295016 0 0 0 .023438 -.01563 .295016 .295016 0 0 0 .019531 -.01953 .295016 .295016 0 0 0 .017578 -.02148 .295016 .295016 0 0 1 .00195 -.002 .295016 .295016 0 0 0 .017578 -.02148 .295016 .295016 0 0 0 .00195 -.002c.042-.063.055-.129.047-.201v-.002c-.005-.036-.019-.07-.041-.102-.023-.032-.056-.064-.098-.092h-.002l-.457-.303-.182.277-.309-.201.414-.623.762.5c.1.066.181.142.232.225.052.083.08.168.092.256.012.088.007.176-.014.262-.021.086-.053.164-.1.234v.002a.737431 .737431 0 0 1 -.021485 .0293 .737431 .737431 0 0 1 -.046875 .05469 .737431 .737431 0 0 1 -.050781 .04883 .737431 .737431 0 0 0 0 .002 .737431 .737431 0 0 1 -.027344 .02539 .737431 .737431 0 0 1 -.027343 .02344 .697526 .697526 0 0 1 -.044922 .03125 .697526 .697526 0 0 1 -.060547 .0332 .697526 .697526 0 0 0 -.00195 .002 .697526 .697526 0 0 1 -.064453 .02734 .697526 .697526 0 0 1 -.0625 .02148c-.086.023-.179.026-.275.012-.097-.015-.195-.055-.295-.121l-1.283-.842c-.098-.064-.176-.141-.229-.225-.053-.084-.084-.168-.096-.256a.693633 .693633 0 0 1 -.00976 -.05469 .693633 .693633 0 0 0 0 -.002 .693633 .693633 0 0 1 0 -.06836 .693633 .693633 0 0 1 0 -.002 .693633 .693633 0 0 1 .00781 -.06055 .693633 .693633 0 0 1 .00195 -.0059 .693633 .693633 0 0 0 0 -.002 .693633 .693633 0 0 1 .011719 -.06641 .733429 .733429 0 0 1 .00977 -.03711 .733429 .733429 0 0 0 0 -.002 .733429 .733429 0 0 1 .02539 -.06641 .733429 .733429 0 0 0 .00195 -.002 .733429 .733429 0 0 1 .027344 -.06641 .733429 .733429 0 0 1 .037109 -.0625 .737431 .737431 0 0 1 .021485 -.0293 .737431 .737431 0 0 1 .046875 -.05469 .737431 .737431 0 0 1 .048828 -.05469 .737431 .737431 0 0 1 .054688 -.04687 .696552 .696552 0 0 1 .046874 -.0293 .696552 .696552 0 0 1 .058594 -.0332 .696552 .696552 0 0 1 .00391 -.002 .696552 .696552 0 0 1 .060547 -.02539 .696552 .696552 0 0 1 .00391 -.002 .696552 .696552 0 0 1 .0625 -.02148c.085-.023.18-.027.277-.012" fill="#f9f9f9"/><path d="m9.717 1.579l-.539.959-.115.203 4.279 2.445a1.16968 1.16968 0 0 0 -.101563 .054687 1.16968 1.16968 0 0 0 -.09766 .0625 1.16968 1.16968 0 0 0 -.002 .00195 1.16968 1.16968 0 0 0 -.0918 .068359 1.16968 1.16968 0 0 0 -.002 .00195 1.16968 1.16968 0 0 0 -.08398 .080078 1.16968 1.16968 0 0 0 -.07422 .087891 1.16968 1.16968 0 0 0 -.002 .00195 1.16968 1.16968 0 0 0 -.06641 .095703 1.16968 1.16968 0 0 0 -.02539 .046875c-.16.283-.19.605-.111.896.079.291.267.552.549.713.281.161.603.192.893.111.29-.08.547-.271.707-.555.16-.284.191-.606.111-.896-.08-.291-.271-.55-.553-.711l-3.467-1.984.949-1.684z" fill="#9c00fe"/><path d="m13.233 7.959c.085-.11.26-.082.305.049l.43 1.275.511-.662c.216-.279.619-.333.9-.119l2.301 1.757a.634652 .634652 0 0 1 .04066 .03194 .634652 .634652 0 0 1 .04358 .04648 .634652 .634652 0 0 1 .04066 .04938 .634652 .634652 0 0 1 .03486 .05229 .634652 .634652 0 0 1 .03194 .05519 .634652 .634652 0 0 1 .02324 .05809 .634652 .634652 0 0 1 .01743 .06101 .634652 .634652 0 0 1 .0116 .06391 .634652 .634652 0 0 1 .0058 .06101 .634652 .634652 0 0 1 0 .06391 .634652 .634652 0 0 1 -.0058 .06391 .634652 .634652 0 0 1 -.01458 .06101 .634652 .634652 0 0 1 -.01743 .06101 .634652 .634652 0 0 1 -.02615 .05809 .634652 .634652 0 0 1 -.03194 .0552 .634652 .634652 0 0 1 -.03486 .05229l-1.766 2.289c-.216.28-.619.333-.9.119l-2.301-1.757a.634727 .634727 0 0 1 -.04066 -.03194 .634727 .634727 0 0 1 -.04358 -.04648 .634727 .634727 0 0 1 -.04066 -.04937 .634727 .634727 0 0 1 -.03486 -.05229 .634727 .634727 0 0 1 -.03194 -.05519 .634727 .634727 0 0 1 -.02324 -.05809 .634727 .634727 0 0 1 -.01743 -.06101 .634727 .634727 0 0 1 -.01457 -.06391 .634727 .634727 0 0 1 -.003 -.06101 .634727 .634727 0 0 1 0 -.06391 .634727 .634727 0 0 1 .0058 -.06391 .634727 .634727 0 0 1 .01458 -.06101 .634727 .634727 0 0 1 .01743 -.06101 .634727 .634727 0 0 1 .02614 -.05809 .634727 .634727 0 0 1 .03194 -.0552 .634727 .634727 0 0 1 .03486 -.05229l.511-.662-1.351-.084c-.139-.009-.21-.169-.125-.279z" fill="#0046ef"/><g fill="#5a1df9"><path d="m5.414 24.589c-.097-.015-.192-.012-.277.012a.696552 .696552 0 0 0 -.0625 .02148 .696552 .696552 0 0 0 -.00391 .002 .696552 .696552 0 0 0 -.060547 .02539 .696552 .696552 0 0 0 -.00391 .002 .696552 .696552 0 0 0 -.058594 .0332 .696552 .696552 0 0 0 -.046874 .0293 .737431 .737431 0 0 0 -.054688 .04687 .737431 .737431 0 0 0 -.048828 .05469 .737431 .737431 0 0 0 -.046875 .05469 .737431 .737431 0 0 0 -.021485 .0293 .733429 .733429 0 0 0 -.037109 .0625 .733429 .733429 0 0 0 -.027344 .06641 .733429 .733429 0 0 0 -.00195 .002 .733429 .733429 0 0 0 -.02539 .06641 .733429 .733429 0 0 0 0 .002 .733429 .733429 0 0 0 -.00977 .03711 .693633 .693633 0 0 0 -.011719 .06641 .693633 .693633 0 0 0 0 .002 .693633 .693633 0 0 0 -.00195 .0059 .693633 .693633 0 0 0 -.00781 .06055 .693633 .693633 0 0 1 0 .002 .693633 .693633 0 0 0 0 .06836 .693633 .693633 0 0 0 0 .002 .693633 .693633 0 0 0 .00976 .05469c.012.088.043.172.096.256.053.084.13.16.229.225l1.283.842c.1.066.198.106.295.121.096.014.19.012.275-.012a.697526 .697526 0 0 0 .0625 -.02148 .697526 .697526 0 0 0 .064453 -.02734 .697526 .697526 0 0 0 .00195 -.002 .697526 .697526 0 0 0 .060547 -.0332 .697526 .697526 0 0 0 .044922 -.03125 .737431 .737431 0 0 0 .027343 -.02344 .737431 .737431 0 0 0 .027344 -.02539 .737431 .737431 0 0 0 0 -.002 .737431 .737431 0 0 0 .050781 -.04883 .737431 .737431 0 0 0 .046875 -.05469 .737431 .737431 0 0 0 .021485 -.0293v-.002c.046-.07.079-.148.1-.234.02-.086.026-.174.014-.262-.012-.088-.04-.173-.092-.256-.051-.083-.132-.159-.232-.225l-.762-.5-.414.623.309.201.182-.277.457.303h.002c.042.027.075.06.098.092.022.032.036.066.041.102v.002c.009.072-.005.138-.047.201a.295016 .295016 0 0 0 -.00195 .002 .295016 .295016 0 0 1 -.017578 .02148 .295016 .295016 0 0 1 -.00195 .002 .295016 .295016 0 0 1 -.017578 .02148 .295016 .295016 0 0 1 -.019531 .01953 .295016 .295016 0 0 1 -.023438 .01563 .295016 .295016 0 0 1 -.00195 .002 .295016 .295016 0 0 1 -.023437 .01563 .295016 .295016 0 0 1 -.00195 .002 .295016 .295016 0 0 1 -.025391 .01172 .295016 .295016 0 0 0 -.00195 .002 .295016 .295016 0 0 1 -.025391 .01172 .295016 .295016 0 0 1 -.00195 0 .295016 .295016 0 0 1 -.00976 0c-.07.02-.147.004-.23-.051l-1.285-.848c-.042-.028-.075-.057-.098-.09-.023-.032-.036-.067-.041-.104-.009-.073.005-.137.047-.201.042-.064.101-.106.172-.127.071-.02.148-.005.232.051l.121.08.232-.346-.127-.084c-.098-.064-.191-.102-.289-.117z"/><path d="m5.57 23.665l-.227.346 2.434 1.602.229-.346z"/></g><g fill="#febf02"><path d="m27.992 23.09v.002a.668003 .668003 0 0 0 -.06641 .002 .668003 .668003 0 0 0 -.002 .002 .668003 .668003 0 0 0 -.04492 .0039c-.083.015-.164.053-.24.105-.077.052-.145.125-.203.223l-.445.746.609.363.182-.301-.273-.158.27-.447c.049-.082.107-.127.176-.139a.282795 .282795 0 0 1 .02539 -.0039 .282795 .282795 0 0 1 .0293 -.002 .282795 .282795 0 0 1 0 .002 .282795 .282795 0 0 1 .0293 -.002 .282795 .282795 0 0 1 0 .002 .282795 .282795 0 0 1 .02539 .0039 .282795 .282795 0 0 1 .0293 .0059 .282795 .282795 0 0 1 .002 .002 .282795 .282795 0 0 1 .02344 .01367 .282795 .282795 0 0 1 .02539 .01172 .282795 .282795 0 0 1 .0098 .0039c.062.037.102.086.125.152.022.066.008.14-.041.223l-.746 1.252c-.049.082-.107.131-.176.143a.282579 .282579 0 0 1 -.02734 .002 .282579 .282579 0 0 1 -.002 .002 .282579 .282579 0 0 1 -.02734 0 .282579 .282579 0 0 1 -.0039 0 .282579 .282579 0 0 1 -.02539 -.0039 .282579 .282579 0 0 1 -.02734 -.0039 .282579 .282579 0 0 1 -.002 0 .282579 .282579 0 0 1 -.02539 -.0098 .282579 .282579 0 0 1 -.0039 -.002 .282579 .282579 0 0 1 -.02539 -.0059 .282579 .282579 0 0 1 -.02539 -.01172 .282579 .282579 0 0 1 -.0039 -.0078 .281065 .281065 0 0 1 -.02344 -.01367 .281065 .281065 0 0 1 -.002 -.002 .281065 .281065 0 0 1 -.02149 -.01758 .281065 .281065 0 0 1 -.01953 -.01563 .281065 .281065 0 0 1 -.01758 -.02148 .281065 .281065 0 0 1 -.01563 -.02148 .281065 .281065 0 0 1 -.002 -.0039 .281065 .281065 0 0 1 -.01172 -.02539 .281065 .281065 0 0 1 -.01172 -.02344 .281065 .281065 0 0 1 -.002 -.002 .281065 .281065 0 0 1 -.0039 -.0078c-.022-.066-.006-.136.043-.219l.07-.123-.34-.201-.072.121c-.057.096-.091.19-.102.283-.01.093-.005.176.021.256.026.08.07.154.123.219a.702176 .702176 0 0 0 .04492 .05078 .702176 .702176 0 0 0 .05078 .05078 .702176 .702176 0 0 0 .06055 .03711 .702176 .702176 0 0 0 .0293 .02148 .699797 .699797 0 0 0 .05859 .0293 .699797 .699797 0 0 0 .06445 .0293 .699797 .699797 0 0 0 .002 0 .699797 .699797 0 0 0 .06836 .01758 .699797 .699797 0 0 0 .0332 .0078c.083.016.165.016.248 0 .083-.015.163-.048.24-.102.077-.053.146-.131.203-.227l.744-1.25c.058-.098.096-.195.105-.287.01-.092.001-.176-.025-.256a.659892 .659892 0 0 0 -.02344 -.06055 .659892 .659892 0 0 0 -.002 -.002 .659892 .659892 0 0 0 -.0293 -.05859 .659892 .659892 0 0 0 -.0332 -.05469 .659892 .659892 0 0 0 -.0332 -.04297 .702176 .702176 0 0 0 -.04687 -.04883 .702176 .702176 0 0 0 -.05078 -.04688 .702176 .702176 0 0 0 -.05469 -.04297 .702176 .702176 0 0 0 -.0293 -.01563 .704555 .704555 0 0 0 -.06055 -.03516 .704555 .704555 0 0 0 -.002 0 .704555 .704555 0 0 0 -.06445 -.02539 .704555 .704555 0 0 0 -.0039 0 .704555 .704555 0 0 0 -.06641 -.01953 .704555 .704555 0 0 0 -.0293 -.0078 .668003 .668003 0 0 0 -.06445 -.0098 .668003 .668003 0 0 0 -.0039 -.002 .668003 .668003 0 0 0 -.06641 0"/><path d="m26.996 22.525l-1.42 2.375.346.201 1.414-2.375z"/></g><path d="m6.48 22.288l-.686 1.037 2.434 1.604.227-.35-1.035-.682.396-.602-.33-.215-.395.598-.742-.484.455-.691z" fill="#5a1df9"/><path d="m26.322 22.13l-.607 1.012-.586-.346-.193.316.59.348-.43.721-.678-.4-.189.32 1.02.604 1.414-2.371z" fill="#febf02"/><g fill="#5a1df9"><path d="m18.306 20.53l-.602.127a2.465024 2.465024 0 0 0 .01758 .08398 2.465024 2.465024 0 0 0 .05859 .238281 2.465024 2.465024 0 0 0 0 .002 2.465024 2.465024 0 0 0 .08398 .230469 2.465024 2.465024 0 0 0 .105469 .21875 2.465024 2.465024 0 0 0 .130859 .208984 2.465024 2.465024 0 0 0 0 .002 2.465024 2.465024 0 0 0 .146485 .197265 2.465024 2.465024 0 0 0 0 .002 2.465024 2.465024 0 0 0 .169922 .177735 2.465024 2.465024 0 0 0 0 .002 2.465024 2.465024 0 0 0 .183593 .164062 2.465024 2.465024 0 0 0 .199219 .144532 2.465024 2.465024 0 0 0 .07031 .04492 2.465024 2.465024 0 0 0 .21875 .113282 2.465024 2.465024 0 0 0 .002 .002 2.465024 2.465024 0 0 0 .226562 .0957 2.465024 2.465024 0 0 0 .236328 .07031 2.465024 2.465024 0 0 0 0 .002 2.465024 2.465024 0 0 0 .240235 .04688 2.465024 2.465024 0 0 0 .246093 .02148 2.465024 2.465024 0 0 0 .002 .002 2.465024 2.465024 0 0 0 .24414 -.0039 2.465024 2.465024 0 0 0 .244141 -.02539 2.465024 2.465024 0 0 0 .242187 -.05078 2.465024 2.465024 0 0 0 .002 0l-.131-.602c-.491.137-1.04.073-1.508-.23a1.852823 1.852823 0 0 1 -.08008 -.05469 1.852823 1.852823 0 0 1 -.142579 -.115234 1.852823 1.852823 0 0 1 -.132812 -.128906 1.852823 1.852823 0 0 1 -.002 -.002 1.852823 1.852823 0 0 1 -.117188 -.142578 1.852823 1.852823 0 0 1 -.105468 -.15039 1.852823 1.852823 0 0 1 -.08789 -.164063 1.852823 1.852823 0 0 1 -.002 -.002 1.852823 1.852823 0 0 1 -.07031 -.167969 1.852823 1.852823 0 0 1 -.05078 -.175781 1.852823 1.852823 0 0 1 -.03906 -.181641"/><path d="m20.67 18.02c-.023.003-.045.012-.068.016-.034.006-.065.013-.098.021-.124.031-.243.078-.352.146-.021.014-.04.03-.061.045-.115.083-.221.183-.303.309l-.689 1.061c-.087.134-.142.28-.17.43-.03.16-.029.323.006.48.067.304.25.585.535.77.142.092.297.153.453.182.156.028.315.027.467-.004.152-.031.297-.091.428-.178.065-.043.127-.094.184-.15.056-.057.107-.12.152-.189l.691-1.066c.09-.139.147-.291.174-.445.053-.309-.016-.632-.195-.895-.09-.131-.207-.247-.35-.34-.142-.092-.297-.151-.453-.18-.117-.021-.235-.024-.352-.012"/><path d="m25.04 14.187c-.059.012-.117.039-.174.074-.016.01-.033.025-.049.037-.037.027-.073.059-.109.096-.081.083-.16.198-.238.326-.077.127-.156.285-.232.455-.025.057-.051.101-.076.162-.106.254-.213.539-.324.867-.193.571-.351 1.148-.453 1.67-.103.522-.15.987-.127 1.336.004.053.017.104.039.148.023.045.054.085.092.117.037.032.078.058.125.074.048.017.099.023.152.02.158-.011.289-.118.338-.26v-.002c.016-.048.023-.099.02-.152-.038-.57.187-1.65.543-2.703.1-.295.201-.567.303-.805-.025.181-.053.39-.096.641-.02.117-.043.24-.072.408-.037.209-.058.317-.076.418-.189 1.079-.293 1.791-.27 2.266.006.119.021.222.043.313.022.091.052.168.092.234l.002.002c.04.066.09.122.148.168.06.047.129.086.209.117.24.093.413.054.559-.102.145-.156.262-.429.389-.805.129-.383.222-.734.467-1.715l.029-.113c.216-.861.341-1.315.477-1.691.018-.051.033-.101.051-.145 0 .068-.004.145-.01.229-.028.408-.104.852-.295 1.785l-.023.135c-.219 1.072-.343 1.75-.34 2.199.002.337.075.545.232.695.052.05.114.093.186.133h.002c.079.044.156.078.23.102.075.024.15.04.221.045.424.03.763-.27.967-.791.171-.438.267-.989.371-1.945.007-.067.016-.14.025-.227.09-.85.149-1.315.219-1.602.004.029.008.062.012.094.082.691.052 1.67-.07 2.23-.023.105-.002.208.051.291.027.042.06.078.102.107.041.029.087.051.139.063.103.023.206 0 .289-.053.042-.027.078-.061.107-.102.029-.041.051-.088.063-.141.036-.163.064-.352.086-.557.022-.204.036-.422.043-.645.015-.446.001-.906-.045-1.293-.054-.457-.142-.78-.305-.973-.172-.203-.363-.252-.545-.189-.091.031-.179.09-.262.172-.082.081-.158.184-.225.305-.052.095-.095.19-.133.303v.002c-.037.113-.07.242-.1.404-.06.326-.111.783-.188 1.502l-.025.223c-.097.885-.183 1.398-.32 1.748-.121.308-.174.335-.338.244.03.017.028.01.018-.051-.019-.113-.02-.283 0-.502.034-.379.105-.781.281-1.643l.029-.129c.198-.97.281-1.437.313-1.893.013-.184.016-.352.004-.502v-.002c-.012-.15-.039-.283-.082-.396-.043-.114-.103-.208-.184-.283-.08-.075-.179-.129-.301-.162-.236-.065-.414-.009-.566.154-.075.081-.145.188-.211.32-.067.133-.13.291-.195.473-.147.41-.274.88-.496 1.768l-.031.119c-.173.693-.269 1.06-.354 1.348.031-.367.1-.818.221-1.508.017-.1.033-.213.07-.422.03-.17.052-.289.072-.408.211-1.238.275-1.807.045-2.064-.039-.043-.084-.078-.141-.105-.056-.027-.121-.048-.195-.063-.067-.013-.132-.013-.195 0z"/><path d="m21.506 9.628c-.483-.022-.966.187-1.275.604l-1.457 1.963-.447.605c-.34.459-.46 1.012-.383 1.537.078.525.354 1.023.813 1.365.458.342 1.01.463 1.533.387.524-.076 1.019-.35 1.359-.809l1.566-2.117a.377962 .377962 0 0 0 .01367 -.02148 .377962 .377962 0 0 0 .02149 -.0293 .377962 .377962 0 0 0 .01172 -.0332 .377962 .377962 0 0 0 .01367 -.03711 .377962 .377962 0 0 0 0 -.002 .377962 .377962 0 0 0 .0078 -.03711 .377962 .377962 0 0 0 .0039 -.03906 .377962 .377962 0 0 0 .0039 -.03711 .377962 .377962 0 0 0 -.0039 -.03711 .377962 .377962 0 0 0 -.0078 -.03516 .377962 .377962 0 0 0 -.0078 -.03711 .377962 .377962 0 0 0 -.01758 -.0332 .377962 .377962 0 0 0 -.01563 -.03516 .377962 .377962 0 0 0 -.002 0 .377962 .377962 0 0 0 -.01953 -.0332 .377962 .377962 0 0 0 -.002 0 .377962 .377962 0 0 0 -.01953 -.0293 .377962 .377962 0 0 0 -.02734 -.02539 .377962 .377962 0 0 0 -.002 0 .377962 .377962 0 0 0 -.02539 -.02539 .375042 .375042 0 0 0 -.02539 -.01563 .375042 .375042 0 0 0 -.0332 -.01758 .375042 .375042 0 0 0 -.002 0 .375042 .375042 0 0 0 -.0332 -.01758 .375042 .375042 0 0 0 -.0332 -.01172 .375042 .375042 0 0 0 -.03711 -.0039 .375042 .375042 0 0 0 -.03711 -.0059 .375042 .375042 0 0 0 -.002 0 .375042 .375042 0 0 0 -.03711 -.0039 .375042 .375042 0 0 0 -.03711 .002 .375042 .375042 0 0 0 -.002 .002 .375042 .375042 0 0 0 -.0332 .0098 .375042 .375042 0 0 0 -.03516 .0059 .375042 .375042 0 0 0 -.002 .002 .375042 .375042 0 0 0 -.0332 .01563 .375042 .375042 0 0 0 -.002 .002 .375042 .375042 0 0 0 -.0332 .01563 .375042 .375042 0 0 0 -.03125 .01953 .375042 .375042 0 0 0 -.002 .002 .375042 .375042 0 0 0 -.02539 .02148 .375042 .375042 0 0 0 -.02734 .02344 .375042 .375042 0 0 0 -.002 .002 .375042 .375042 0 0 0 -.02148 .0293l-1.57 2.113c-.216.292-.53.467-.863.516-.333.049-.685-.029-.977-.246-.292-.218-.468-.534-.518-.867-.05-.333.025-.684.242-.977l.451-.607 1.457-1.961c.247-.333.716-.401 1.049-.152.334.249.404.719.156 1.053l-.447.607-1.457 1.967c-.061.082-.175.096-.26.033-.084-.063-.104-.179-.043-.262l1.57-2.117a.377853 .377853 0 0 0 .01758 -.02148 .377853 .377853 0 0 0 .01563 -.03516 .377853 .377853 0 0 0 .01758 -.0332 .377853 .377853 0 0 0 .01367 -.03711 .377853 .377853 0 0 0 .0078 -.03711 .377853 .377853 0 0 0 0 -.002 .377853 .377853 0 0 0 .0039 -.0332 .377853 .377853 0 0 0 0 -.03711 .377853 .377853 0 0 0 -.002 -.03906 .377853 .377853 0 0 0 -.002 0 .377853 .377853 0 0 0 -.0039 -.03711 .377853 .377853 0 0 0 -.01172 -.03711 .377853 .377853 0 0 0 -.002 0 .377853 .377853 0 0 0 -.01172 -.03516 .377853 .377853 0 0 0 -.01758 -.0332 .377853 .377853 0 0 0 -.01953 -.0332 .377853 .377853 0 0 0 -.002 0 .377853 .377853 0 0 0 -.02344 -.0293 .377853 .377853 0 0 0 -.002 0 .377853 .377853 0 0 0 -.02539 -.02539 .377853 .377853 0 0 0 -.02734 -.02539 .377853 .377853 0 0 0 -.002 0 .375042 .375042 0 0 0 -.02539 -.01367 .375042 .375042 0 0 0 -.0293 -.02149 .375042 .375042 0 0 0 -.0332 -.01172 .375042 .375042 0 0 0 -.03516 -.01367 .375042 .375042 0 0 0 -.002 0 .375042 .375042 0 0 0 -.03516 -.0078 .375042 .375042 0 0 0 -.0039 0 .375042 .375042 0 0 0 -.0332 -.0039 .375042 .375042 0 0 0 -.03711 -.002 .375042 .375042 0 0 0 -.002 .002 .375042 .375042 0 0 0 -.03711 0 .375042 .375042 0 0 0 -.03516 .0059 .375042 .375042 0 0 0 -.002 .002 .375042 .375042 0 0 0 -.03516 .0078 .375042 .375042 0 0 0 -.0039 .002 .375042 .375042 0 0 0 -.0332 .01563 .375042 .375042 0 0 0 -.0332 .01758 .375042 .375042 0 0 0 -.0293 .02149 .375042 .375042 0 0 0 -.0293 .01953 .375042 .375042 0 0 0 -.02344 .02734 .375042 .375042 0 0 0 -.002 .002 .375042 .375042 0 0 0 -.02344 .02734 .375042 .375042 0 0 0 -.002 .0039l-1.572 2.117c-.155.209-.209.458-.174.695.035.238.161.464.369.619.209.156.46.213.697.18.237-.033.461-.157.615-.365l1.457-1.967.451-.605c.247-.334.337-.737.281-1.119-.056-.382-.259-.741-.592-.99-.25-.186-.54-.283-.83-.297"/></g><path d="m21.506 9.628c.29.013.58.11.83.297.333.249.536.609.592.99.056.382-.034.786-.281 1.119l-.451.605-1.457 1.967c-.154.208-.378.332-.615.365-.237.033-.488-.024-.697-.18-.208-.156-.334-.382-.369-.619-.035-.238.019-.487.174-.695l1.572-2.117c.001-.001.001-.003.002-.004.007-.009.015-.019.023-.027.001-.001.001-.001.002-.002.007-.009.015-.019.023-.027.009-.007.019-.013.029-.02.009-.008.019-.015.029-.021.011-.006.022-.012.033-.018.011-.006.022-.011.033-.016.001-.001.003-.001.004-.002.012-.003.023-.006.035-.008.001-.001.001-.001.002-.002.012-.002.023-.005.035-.006.012-.001.025-.001.037 0 .001-.001.001-.001.002-.002.012 0 .025.001.037.002.011.001.022.002.033.004.001 0 .003 0 .004 0 .012.002.024.005.035.008.001 0 .001 0 .002 0 .012.004.024.008.035.014.011.003.022.007.033.012.01.007.02.014.029.021.009.004.017.009.025.014.001 0 .001 0 .002 0 .009.008.019.016.027.025.009.008.017.017.025.025.001 0 .001 0 .002 0 .008.009.016.019.023.029.001 0 .001 0 .002 0 .007.011.014.022.02.033.006.011.012.022.018.033.005.012.008.023.012.035.001 0 .001 0 .002 0 .005.012.009.025.012.037.002.012.003.025.004.037.001 0 .001 0 .002 0 .001.013.002.026.002.039.001.012.001.025 0 .037-.001.011-.002.022-.004.033 0 .001 0 .001 0 .002-.002.012-.005.025-.008.037-.004.013-.009.025-.014.037-.005.011-.011.022-.018.033-.005.012-.01.024-.016.035-.006.007-.011.015-.018.021l-1.57 2.117c-.061.082-.042.199.043.262.085.063.199.049.26-.033l1.457-1.967.447-.607c.247-.333.177-.804-.156-1.053-.333-.249-.802-.181-1.049.152l-1.457 1.961-.451.607c-.217.292-.292.643-.242.977.05.333.225.649.518.867.291.217.644.295.977.246.333-.049.647-.224.863-.516l1.57-2.113c.007-.01.014-.02.021-.029.001-.001.001-.001.002-.002.009-.008.018-.016.027-.023.008-.008.017-.015.025-.021.001-.001.001-.001.002-.002.01-.007.021-.014.031-.02.011-.006.022-.011.033-.016.001-.001.001-.001.002-.002.011-.006.022-.011.033-.016.001-.001.001-.001.002-.002.012-.002.023-.005.035-.006.011-.004.022-.007.033-.01.001-.001.001-.001.002-.002.012-.001.025-.002.037-.002.012.001.025.002.037.004.001 0 .001 0 .002 0 .012.001.025.003.037.006.012.001.025.002.037.004.011.003.022.007.033.012.011.005.022.011.033.018.001 0 .001 0 .002 0 .011.005.022.011.033.018.009.005.017.01.025.016.009.008.017.017.025.025.001 0 .001 0 .002 0 .009.008.019.016.027.025.007.009.013.019.02.029.001 0 .001 0 .002 0 .007.011.014.022.02.033.001 0 .001 0 .002 0 .006.011.011.023.016.035.006.011.012.022.018.033.003.012.006.025.008.037.003.012.006.023.008.035.002.012.003.025.004.037-.001.012-.002.025-.004.037-.001.013-.002.026-.004.039-.002.012-.005.025-.008.037 0 .001 0 .001 0 .002-.004.013-.009.025-.014.037-.003.011-.007.022-.012.033-.007.01-.014.02-.021.029-.004.007-.009.014-.014.021l-1.566 2.117c-.34.459-.836.732-1.359.809-.524.076-1.075-.045-1.533-.387-.459-.342-.735-.84-.813-1.365-.078-.525.042-1.078.383-1.537l.447-.605 1.457-1.963c.309-.417.792-.626 1.275-.604m3.532 4.559h.002c.063-.013.128-.013.195 0 .074.015.14.035.195.063.056.027.102.062.141.105.23.258.166.827-.045 2.064-.02.119-.042.238-.072.408-.037.209-.053.322-.07.422-.121.689-.19 1.141-.221 1.508.085-.287.18-.654.354-1.348l.031-.119c.222-.887.349-1.358.496-1.768.065-.182.128-.339.195-.473.066-.132.135-.239.211-.32.152-.163.33-.219.566-.154.122.033.221.087.301.162.08.075.14.169.184.283.043.114.07.246.082.396v.002c.012.15.009.318-.004.502-.032.456-.114.922-.313 1.893l-.029.129c-.176.861-.247 1.264-.281 1.643-.02.219-.019.389 0 .502.01.06.012.067-.018.051.164.091.217.064.338-.244.137-.35.224-.863.32-1.748l.025-.223c.076-.719.128-1.176.188-1.502.03-.162.062-.292.1-.404v-.002c.037-.113.08-.208.133-.303.067-.121.142-.223.225-.305.083-.082.17-.141.262-.172.182-.062.373-.013.545.189.163.193.251.516.305.973.046.387.06.847.045 1.293-.007.223-.021.441-.043.645-.022.205-.05.394-.086.557-.011.052-.034.1-.063.141-.029.041-.066.075-.107.102-.083.053-.186.075-.289.053-.052-.011-.098-.034-.139-.063-.041-.029-.075-.065-.102-.107-.053-.083-.074-.186-.051-.291.122-.56.152-1.54.07-2.23-.003-.032-.008-.064-.012-.094-.07.287-.129.751-.219 1.602-.009.087-.018.16-.025.227-.104.957-.2 1.508-.371 1.945-.204.521-.543.821-.967.791-.071-.005-.145-.021-.221-.045-.075-.024-.152-.058-.23-.102h-.002c-.072-.04-.133-.083-.186-.133-.157-.15-.23-.358-.232-.695-.003-.449.121-1.127.34-2.199l.023-.135c.191-.933.267-1.377.295-1.785.006-.083.01-.16.01-.229-.017.044-.032.094-.051.145-.135.376-.261.831-.477 1.691l-.029.113c-.245.98-.338 1.332-.467 1.715-.126.376-.243.649-.389.805-.145.156-.319.195-.559.102-.08-.031-.149-.07-.209-.117-.059-.046-.109-.102-.148-.168l-.002-.002c-.04-.067-.069-.144-.092-.234-.022-.091-.037-.194-.043-.313-.023-.474.081-1.187.27-2.266.018-.101.039-.209.076-.418.03-.168.052-.291.072-.408.043-.25.071-.459.096-.641-.102.237-.203.509-.303.805-.356 1.053-.581 2.133-.543 2.703.003.053-.003.105-.02.152v.002c-.049.142-.18.249-.338.26-.054.004-.105-.003-.152-.02-.047-.016-.088-.042-.125-.074-.038-.033-.069-.072-.092-.117-.022-.045-.035-.095-.039-.148-.023-.348.024-.814.127-1.336.102-.521.26-1.098.453-1.67.111-.328.218-.613.324-.867.026-.061.051-.106.076-.162.077-.17.155-.328.232-.455.078-.128.158-.244.238-.326.036-.037.072-.068.109-.096.016-.012.032-.027.049-.037.057-.035.114-.062.174-.074" fill="#fb0807"/><path d="m10.133 8.974c-.035 0-.101.011-.227.047-.617.177-1.16.48-1.547.844-.387.363-.619.787-.615 1.201.006.646.293 1.525.791 2.455.498.93 1.209 1.912 2.064 2.76.853.846 1.843 1.547 2.781 2.041.938.494 1.824.779 2.475.785h.021c.414 0 .839-.232 1.203-.615.364-.383.669-.918.848-1.525.083-.284.092-.258-.172-.371-.36-.159-.773-.348-1.482-.672a98.91239 98.91239 0 0 1 -.914062 -.404297c-.149-.065-.2-.086-.232-.086-.018 0-.044.013-.088.047-.026.02-.048.039-.094.084l-.58.578-.404.398-.488-.289c-.538-.318-1.087-.727-1.6-1.234-.514-.51-.934-1.062-1.248-1.584l-.289-.48.398-.398.586-.586c.163-.159.163-.156.055-.4-.091-.203-.219-.482-.412-.896-.331-.712-.522-1.127-.688-1.496-.079-.185-.098-.201-.143-.201" fill="#5a1df9"/><path d="m10.133 8.974c.045 0 .063.016.143.201.166.369.357.784.688 1.496.193.414.321.694.412.896.109.244.108.241-.055.4l-.586.586-.398.398.289.48c.314.522.734 1.074 1.248 1.584.512.508 1.062.917 1.6 1.234l.488.289.404-.398.58-.578c.046-.045.067-.063.094-.084.043-.034.07-.047.088-.047.033 0 .084.021.232.086a98.91239 98.91239 0 0 0 .914062 .404297c.71.324 1.123.513 1.482.672.264.114.254.087.172.371-.179.608-.483 1.142-.848 1.525-.364.383-.789.615-1.203.615h-.021c-.651-.006-1.537-.292-2.475-.785-.938-.494-1.928-1.195-2.781-2.041-.855-.848-1.566-1.83-2.064-2.76-.498-.93-.785-1.809-.791-2.455-.004-.414.228-.838.615-1.201.387-.363.929-.666 1.547-.844.125-.035.192-.047.227-.047" fill="#00c800"/><path d="m1.984 18.646l3.354 3.549.41-.387c-.009-.009-.017-.019-.025-.029-.012-.014-.024-.028-.035-.043-.01-.016-.019-.032-.027-.049-.001-.001-.001-.001-.002-.002-.009-.017-.016-.033-.023-.051-.001 0-.001 0-.002 0-.006-.016-.011-.032-.016-.049-.005-.018-.01-.036-.014-.055-.003-.019-.005-.038-.006-.057-.001-.001-.001-.003-.002-.004-.001-.018-.001-.036 0-.055-.001-.018-.001-.036 0-.055.003-.018.007-.037.012-.055.004-.018.008-.037.014-.055.006-.018.013-.036.021-.053 0-.001 0-.001 0-.002.008-.017.016-.034.025-.051.009-.015.019-.03.029-.045.01-.015.021-.029.033-.043.012-.014.024-.028.037-.041.01-.009.021-.017.031-.025.014-.012.029-.024.045-.035.016-.011.032-.02.049-.029.001 0 .001 0 .002 0 .016-.009.033-.018.051-.025.017-.006.034-.011.051-.016.018-.006.036-.01.055-.014.018-.003.036-.006.055-.008.018-.002.036-.003.055-.004.019 0 .038 0 .057.002.001.001.001.001.002.002.018.002.037.004.055.008.018.004.037.009.055.016 0 .001 0 .001 0 .002.017.006.034.013.051.021.017.007.034.015.051.023 0 .001 0 .001 0 .002.016.009.032.019.047.029.016.01.031.021.045.033.014.012.027.024.039.037l2.441-2.311c-.009-.009-.017-.019-.025-.029-.011-.015-.022-.031-.031-.047-.001 0-.001 0-.002 0-.011-.015-.02-.031-.029-.047-.009-.017-.017-.035-.023-.053-.001-.001-.001-.001-.002-.002-.006-.017-.011-.034-.016-.051-.005-.018-.01-.036-.014-.055-.004-.018-.006-.036-.008-.055-.001-.019-.001-.038 0-.057 0-.001 0-.001 0-.002-.001-.018-.001-.036 0-.055.003-.018.007-.037.012-.055.004-.018.008-.037.014-.055.006-.017.013-.034.021-.051.008-.017.016-.034.025-.051.009-.017.019-.033.029-.049 0-.001 0-.001 0-.002.01-.014.021-.028.033-.041.012-.015.024-.029.037-.043.009-.009.019-.017.029-.025.015-.012.031-.023.047-.033.015-.011.031-.02.047-.029.017-.008.035-.015.053-.021.001 0 .001 0 .002 0 .017-.008.034-.015.051-.021.018-.005.036-.009.055-.012.018-.005.036-.009.055-.012.018-.001.036-.001.055 0 .019.001.038.003.057.006.001.001.001.001.002.002.018.002.037.004.055.008.018.003.037.007.055.012.017.006.034.013.051.021.017.007.034.015.051.023 0 .001 0 .001 0 .002.016.009.032.019.047.029.016.01.031.021.045.033.014.012.027.025.039.039l.408-.383-6.166-6.52-.404.383c.009.009.017.019.025.029.012.014.023.029.033.045 0 .001 0 .001 0 .002.011.015.02.031.029.047 0 .001 0 .003 0 .004.008.017.015.034.021.051.008.016.015.032.021.049.005.018.009.036.012.055 0 .001 0 .001 0 .002.004.018.007.036.01.055.002.018.002.036.002.055-.001.001-.001.003-.002.004 0 .018-.002.037-.004.055-.002.018-.006.037-.01.055-.003.018-.007.037-.012.055-.006.017-.013.034-.021.051-.007.017-.015.033-.023.049-.001.001-.001.001-.002.002-.008.016-.017.032-.027.047-.001.001-.001.001-.002.002-.01.015-.021.029-.033.043-.012.014-.024.028-.037.041-.001.001-.001.001-.002.002-.011.009-.022.017-.033.025-.014.012-.028.023-.043.033-.015.01-.031.019-.047.027-.001.001-.001.001-.002.002-.017.008-.034.015-.051.021-.017.007-.034.014-.051.02-.017.005-.035.009-.053.012-.001.001-.001.001-.002.002-.018.004-.036.006-.055.008-.018.001-.036.001-.055 0-.001 0-.003 0-.004 0-.018 0-.037-.002-.055-.004-.018-.002-.037-.004-.055-.008-.018-.004-.035-.008-.053-.014-.001 0-.003 0-.004 0-.017-.006-.033-.014-.049-.021-.017-.007-.034-.015-.051-.023-.015-.01-.03-.02-.045-.031-.001 0-.001 0-.002 0-.016-.01-.031-.021-.045-.033-.001 0-.001 0-.002 0-.013-.012-.025-.024-.037-.037l-.857.811zm2.658.658c.001 0 .001 0 .002 0 .001 0 .001 0 .002 0 .018.001.037.003.055.006.019.002.038.004.057.008.018.004.035.008.053.014.001.001.001.001.002.002.017.006.034.013.051.021.017.008.033.016.049.025.015.009.03.019.045.029.016.01.031.021.045.033.001.001.001.001.002.002.013.012.025.024.037.037.009.009.017.019.025.029.012.014.023.029.033.045 0 .001 0 .001 0 .002.011.014.022.029.031.045 0 .001 0 .001 0 .002.009.016.018.032.025.049.006.017.011.035.016.053 0 .001 0 .001 0 .002.005.017.01.035.014.053 0 .001 0 .001 0 .002.003.018.006.036.008.055.002.018.003.036.004.055 0 .001 0 .001 0 .002 0 .018 0 .037-.002.055-.001.001-.001.003-.002.004-.002.018-.004.037-.008.055-.004.018-.01.035-.016.053-.001.001-.001.001-.002.002-.005.017-.011.034-.018.051-.007.017-.015.033-.023.049-.001.001-.001.001-.002.002-.009.015-.019.03-.029.045-.01.015-.021.029-.033.043-.001.001-.003.003-.004.004-.012.013-.024.025-.037.037-.01.01-.02.02-.031.029-.014.012-.028.023-.043.033-.001.001-.001.001-.002.002-.015.009-.031.018-.047.025-.016.009-.032.016-.049.023-.001.001-.001.001-.002.002-.017.005-.035.01-.053.014-.001.001-.001.001-.002.002-.017.006-.035.011-.053.016-.001.001-.001.001-.002.002-.018.002-.036.003-.055.004-.018.002-.036.003-.055.004-.018 0-.037-.002-.055-.004-.018-.002-.037-.004-.055-.008-.018-.005-.035-.011-.053-.018-.001 0-.001 0-.002 0-.018-.005-.035-.011-.053-.018-.001 0-.001 0-.002 0-.017-.007-.034-.015-.051-.023-.015-.01-.03-.02-.045-.031-.001 0-.001 0-.002 0-.014-.012-.028-.024-.041-.037-.014-.012-.028-.024-.041-.037-.001 0-.001 0-.002 0-.009-.009-.017-.019-.025-.029-.012-.014-.023-.028-.033-.043-.01-.016-.019-.032-.027-.049-.001-.001-.001-.001-.002-.002-.008-.017-.015-.034-.021-.051-.008-.017-.015-.034-.021-.051-.005-.018-.009-.036-.012-.055-.004-.019-.006-.038-.008-.057-.001-.001-.001-.001-.002-.002-.001-.018-.001-.036 0-.055.001-.018.003-.037.006-.055.002-.018.004-.037.008-.055.003-.018.007-.037.012-.055.006-.018.013-.036.021-.053 0-.001 0-.001 0-.002.008-.017.016-.034.025-.051.009-.016.019-.032.029-.047.011-.014.023-.028.035-.041.012-.015.024-.029.037-.043.011-.009.022-.017.033-.025.014-.012.028-.023.043-.033.016-.011.032-.02.049-.029.001 0 .001 0 .002 0 .016-.009.033-.018.051-.025.016-.007.032-.012.049-.018.018-.005.036-.009.055-.012.019-.004.038-.006.057-.008.018-.003.036-.005.055-.006" fill="#febf02"/><path d="m7.584 29.782l-.168-.377-.125-.273.234-.189a4.343044 4.343044 0 0 1 .349609 -.25586 4.343044 4.343044 0 0 1 .375 -.222656 4.343044 4.343044 0 0 1 .185547 -.08984 4.334609 4.334609 0 0 1 .402344 -.164062 4.334609 4.334609 0 0 1 .00195 0 4.334609 4.334609 0 0 1 .412109 -.117188 4.334609 4.334609 0 0 1 .203125 -.04297l.295-.055.125.273.186.404c.049.111.047.11.189.102.118-.007.281-.018.523-.037.417-.031.657-.051.871-.064.107-.005.123-.011.131-.033.007-.017.012-.052.018-.121.051-.684-.21-1.311-.625-1.463-.162-.059-.365-.094-.598-.105-.699-.033-1.66.151-2.531.553-.579.267-1.112.628-1.531 1-.354.317-.564.631-.715.92.562.189 1.138.355 1.766.355z" fill="#00c800"/><g fill="#5a1df9"><path d="m13.71461 29.782354a.882559 .882559 0 0 0 .002 -.01953 .882559 .882559 0 0 0 -.0039 -.08789 .882559 .882559 0 0 0 -.01367 -.08398 .882559 .882559 0 0 0 -.01953 -.08594 .882559 .882559 0 0 0 -.002 -.0039 .882559 .882559 0 0 0 -.0293 -.07812 .882559 .882559 0 0 0 -.03711 -.08008 .882559 .882559 0 0 0 -.04492 -.07617 .882559 .882559 0 0 0 -.002 0 .882559 .882559 0 0 0 -.05273 -.07031 .882559 .882559 0 0 0 -.002 -.002 .882559 .882559 0 0 0 -.04297 -.05078c-.17-.176-.394-.269-.621-.273-.227-.005-.456.079-.633.248a.882451 .882451 0 0 0 -.05664 .06641 .882451 .882451 0 0 0 -.002 .002 .882451 .882451 0 0 0 -.05469 .06641 .882451 .882451 0 0 0 -.04492 .07422 .882451 .882451 0 0 0 -.002 .002 .882451 .882451 0 0 0 -.03711 .08008 .882451 .882451 0 0 0 -.03516 .08008 .882451 .882451 0 0 0 -.01953 .08398 .882451 .882451 0 0 0 -.002 .0039 .882451 .882451 0 0 0 -.01172 .08398 .882451 .882451 0 0 0 -.0059 .08789 .882451 .882451 0 0 0 -.002 .002 .882451 .882451 0 0 0 .002 .03125z"/><path d="m16.541 29.782l-1.305-1.354a.883533 .883533 0 0 0 .08789 -.01367 .883533 .883533 0 0 0 .08398 -.02539 .883533 .883533 0 0 0 .08398 -.0332 .883533 .883533 0 0 0 .002 0 .883533 .883533 0 0 0 .07422 -.03711 .883533 .883533 0 0 0 .07617 -.04687 .883533 .883533 0 0 0 .06836 -.05469 .883533 .883533 0 0 0 .0293 -.0293 .882559 .882559 0 0 0 .0625 -.06445 .882559 .882559 0 0 0 .05469 -.07031 .882559 .882559 0 0 0 .04687 -.07227 .882559 .882559 0 0 0 .03711 -.08008 .882559 .882559 0 0 0 .0293 -.08398 .882559 .882559 0 0 0 .02539 -.08398 .882559 .882559 0 0 0 .01367 -.08789 .882559 .882559 0 0 0 .0039 -.08984 .882559 .882559 0 0 0 -.0039 -.08789 .882559 .882559 0 0 0 -.01367 -.08398 .882559 .882559 0 0 0 -.01758 -.08789 .882559 .882559 0 0 0 -.002 0 .882559 .882559 0 0 0 -.03125 -.08008 .882559 .882559 0 0 0 -.03711 -.08008 .882559 .882559 0 0 0 -.04492 -.07617 .882559 .882559 0 0 0 -.002 0 .882559 .882559 0 0 0 -.04883 -.07227 .882559 .882559 0 0 0 -.002 0 .882559 .882559 0 0 0 -.04492 -.05078 .888507 .888507 0 0 0 -.06445 -.05859 .888507 .888507 0 0 0 -.06836 -.05469 .888507 .888507 0 0 0 -.002 0 .888507 .888507 0 0 0 -.07422 -.04687 .888507 .888507 0 0 0 -.002 0 .888507 .888507 0 0 0 -.08008 -.03711 .888507 .888507 0 0 0 -.08203 -.0332 .888507 .888507 0 0 0 -.002 0 .888507 .888507 0 0 0 -.08398 -.02148 .888507 .888507 0 0 0 -.08594 -.01367 .888507 .888507 0 0 0 -.0039 0 .888507 .888507 0 0 0 -.08789 -.0039 .888507 .888507 0 0 0 -.08789 .0059 .888507 .888507 0 0 0 -.08789 .01172 .888507 .888507 0 0 0 -.08594 .02148 .888507 .888507 0 0 0 -.08203 .0293 .888507 .888507 0 0 0 -.002 0 .888507 .888507 0 0 0 -.08008 .03711 .888507 .888507 0 0 0 -.07422 .04687 .888507 .888507 0 0 0 -.07031 .05273 .888507 .888507 0 0 0 -.002 .002 .888507 .888507 0 0 0 -.04297 .03906 .882559 .882559 0 0 0 -.06055 .0625 .882559 .882559 0 0 0 -.002 .0039 .882559 .882559 0 0 0 -.05469 .06836 .882559 .882559 0 0 0 -.04687 .07422 .882559 .882559 0 0 0 -.03711 .08008 .882559 .882559 0 0 0 -.0293 .08008 .882559 .882559 0 0 0 -.02344 .08398 .882559 .882559 0 0 0 -.002 .0059 .882559 .882559 0 0 0 -.01367 .08398 .882559 .882559 0 0 0 -.0039 .08789 .882559 .882559 0 0 0 .0039 .08789 .882559 .882559 0 0 0 .01367 .08594 .882559 .882559 0 0 0 0 .0039 .882559 .882559 0 0 0 .02148 .08398 .882559 .882559 0 0 0 .0293 .08203 .882559 .882559 0 0 0 0 .002 .882559 .882559 0 0 0 .03711 .08008 .882559 .882559 0 0 0 .04687 .07422 .882559 .882559 0 0 0 0 .002 .882559 .882559 0 0 0 .05078 .07031 .882559 .882559 0 0 0 .04492 .04687l1.561 1.619z"/></g><path d="m25.357 29.632l.797-1.033a.920085 .920085 0 0 0 .05078 -.07617 .920085 .920085 0 0 0 .04687 -.08008 .920085 .920085 0 0 0 .03906 -.08398 .920085 .920085 0 0 0 .02344 -.08789 .920085 .920085 0 0 0 .02148 -.08789 .920085 .920085 0 0 0 .0098 -.0918 .920085 .920085 0 0 0 0 -.002 .920085 .920085 0 0 0 0 -.0918 .920085 .920085 0 0 0 -.0098 -.08789 .920085 .920085 0 0 0 -.01367 -.0918 .920085 .920085 0 0 0 -.002 -.002 .920085 .920085 0 0 0 -.02539 -.08789 .920085 .920085 0 0 0 -.03516 -.08398 .920085 .920085 0 0 0 -.04492 -.08008 .920085 .920085 0 0 0 -.05078 -.07617 .920085 .920085 0 0 0 -.05664 -.07227 .920085 .920085 0 0 0 -.002 0 .920085 .920085 0 0 0 -.0625 -.06641 .920085 .920085 0 0 0 -.002 0 .920085 .920085 0 0 0 -.05859 -.04687l-3.336-2.547c-.204-.155-.451-.215-.688-.184-.236.031-.461.153-.617.355l-.74.961-.625-1.85c-.033-.095-.112-.154-.199-.168-.087-.014-.18.016-.242.096l-2.152 2.793c-.123.16-.021.391.182.404l1.957.121-.74.961a.920193 .920193 0 0 0 -.05078 .07617 .920193 .920193 0 0 0 -.04492 .07813 .920193 .920193 0 0 0 -.002 .002 .920193 .920193 0 0 0 -.03711 .08398 .920193 .920193 0 0 0 -.02539 .08789 .920193 .920193 0 0 0 -.02149 .08789 .920193 .920193 0 0 0 -.0078 .08984 .920193 .920193 0 0 0 0 .0039 .920193 .920193 0 0 0 0 .0918 .920193 .920193 0 0 0 .0039 .08984 .920193 .920193 0 0 0 .02148 .08789 .920193 .920193 0 0 0 0 .0039 .920193 .920193 0 0 0 .02539 .08789 .920193 .920193 0 0 0 .0332 .08398 .920193 .920193 0 0 0 .04687 .07813 .920193 .920193 0 0 0 0 .002 .920193 .920193 0 0 0 .05078 .07617 .920193 .920193 0 0 0 .05859 .07031 .920193 .920193 0 0 0 0 .002 .920193 .920193 0 0 0 .0625 .06641 .920193 .920193 0 0 0 .05859 .04687l.314.24h5.344c.265 0 .491-.115.746-.15" fill="#2391d3"/><path d="m12.01 23.49c.762.283 1.61-.103 1.894-.863.284-.76-.104-1.606-.866-1.889-.762-.283-1.61.103-1.894.863-.284.76.103 1.606.866 1.889m.143 1.307l-1.109-.412c-.151-.056-.254-.231-.23-.394l.044-.302-.711-.264c-.304-.113-.458-.451-.344-.757l1.027-2.749c.114-.305.453-.46.757-.347l3.315 1.232c.304.113.458.451.344.756l-1.027 2.749c-.114.305-.453.46-.757.347l-.711-.264-.165.257c-.088.138-.284.203-.433.148m1.199-2.375c.17-.456-.062-.963-.519-1.133-.457-.17-.966.062-1.136.518-.17.456.062.963.519 1.133.457.17.966-.062 1.137-.518" fill="#fe5ebd"/><g fill="#00c800"><path d="m27.597422 3.270636a.361199 .361199 0 0 0 -.03516 .00586 .361199 .361199 0 0 0 -.03516 .00195 .361199 .361199 0 0 0 -.002 .00195 .361199 .361199 0 0 0 -.0332 .011719 .361199 .361199 0 0 0 -.0332 .011719 .361199 .361199 0 0 0 -.002 .00195 .361199 .361199 0 0 0 -.0293 .015625 .361199 .361199 0 0 0 -.02734 .019531 .361199 .361199 0 0 0 -.002 .00195 .361199 .361199 0 0 0 -.02734 .019531 .361199 .361199 0 0 0 -.002 .00195 .361199 .361199 0 0 0 -.01563 .017578l-.76.777a.353629 .353629 0 0 0 -.01953 .025391 .353629 .353629 0 0 0 -.01953 .027344 .353629 .353629 0 0 0 -.002 .00391 .353629 .353629 0 0 0 -.01563 .03125 .353629 .353629 0 0 0 -.002 .00195 .353629 .353629 0 0 0 -.01563 .029297 .353629 .353629 0 0 0 -.0098 .033203 .353629 .353629 0 0 0 -.0078 .033203 .353629 .353629 0 0 0 -.002 .035156 .353629 .353629 0 0 0 -.002 .00391 .353629 .353629 0 0 0 -.0039 .033203 .353629 .353629 0 0 0 .0039 .033203 .353629 .353629 0 0 0 .0078 .033203 .353629 .353629 0 0 0 0 .00586 .353629 .353629 0 0 0 .0078 .033203 .353629 .353629 0 0 0 .01367 .03125 .353629 .353629 0 0 0 0 .00195 .353629 .353629 0 0 0 .01758 .029297 .353629 .353629 0 0 0 .01563 .029297 .353629 .353629 0 0 0 .02344 .025391 .353629 .353629 0 0 0 .002 .00391 .353629 .353629 0 0 0 .02149 .021484 .361308 .361308 0 0 0 .02539 .021484 .361308 .361308 0 0 0 .0293 .019531 .361308 .361308 0 0 0 0 .00195 .361308 .361308 0 0 0 .0332 .015625 .361308 .361308 0 0 0 0 .00195 .361308 .361308 0 0 0 .0293 .015625 .361308 .361308 0 0 0 .03711 .00586 .361308 .361308 0 0 0 .002 .00195 .361308 .361308 0 0 0 .0332 .00977 .361308 .361308 0 0 0 .03711 .00391 .361308 .361308 0 0 0 .03516 0 .361308 .361308 0 0 0 .03711 -.00391 .361308 .361308 0 0 0 .0332 -.00391 .361308 .361308 0 0 0 .0332 -.013672 .361308 .361308 0 0 0 .03516 -.011719 .361308 .361308 0 0 0 .0332 -.017578 .361308 .361308 0 0 0 .0293 -.021484 .361308 .361308 0 0 0 .0293 -.021484 .361308 .361308 0 0 0 .01367 -.015625L27.871 3.874a.353413 .353413 0 0 0 .02344 -.027344 .353413 .353413 0 0 0 .002 -.00195 .353413 .353413 0 0 0 .02149 -.025391 .353413 .353413 0 0 0 .01563 -.033203 .353413 .353413 0 0 0 0 -.00195 .353413 .353413 0 0 0 .01367 -.029297 .353413 .353413 0 0 0 .01172 -.033203 .353413 .353413 0 0 0 .0098 -.033203 .353413 .353413 0 0 0 .0039 -.035156 .353413 .353413 0 0 0 0 -.00391 .353413 .353413 0 0 0 0 -.033203 .353413 .353413 0 0 0 -.002 -.035156 .353413 .353413 0 0 0 -.002 -.00195 .353413 .353413 0 0 0 -.0059 -.033203 .353413 .353413 0 0 0 -.0059 -.035156 .353413 .353413 0 0 0 -.002 0 .353413 .353413 0 0 0 -.01563 -.03125 .353413 .353413 0 0 0 -.002 -.00195 .353413 .353413 0 0 0 -.01172 -.029297 .353413 .353413 0 0 0 -.01953 -.029297 .353413 .353413 0 0 0 -.002 0 .353413 .353413 0 0 0 -.01953 -.029297 .353413 .353413 0 0 0 -.002 0 .353413 .353413 0 0 0 -.02148 -.021484 .361199 .361199 0 0 0 -.02734 -.021484 .361199 .361199 0 0 0 -.002 0 .361199 .361199 0 0 0 -.02734 -.021484 .361199 .361199 0 0 0 -.002 0 .361199 .361199 0 0 0 -.0293 -.015625 .361199 .361199 0 0 0 -.03125 -.017578 .361199 .361199 0 0 0 -.002 0 .361199 .361199 0 0 0 -.0332 -.00781 .361199 .361199 0 0 0 -.0332 -.00977 .361199 .361199 0 0 0 -.0059 0 .361199 .361199 0 0 0 -.0332 -.00391 .361199 .361199 0 0 0 -.03516 0 .361199 .361199 0 0 0 -.002 0"/><path d="m27.597422 3.270636a.361199 .361199 0 0 0 .002 0 .361199 .361199 0 0 1 .03516 0 .361199 .361199 0 0 1 .0332 .00391 .361199 .361199 0 0 1 .0059 0 .361199 .361199 0 0 1 .0332 .00977 .361199 .361199 0 0 1 .0332 .00781 .361199 .361199 0 0 0 .002 0 .361199 .361199 0 0 1 .03125 .017578 .361199 .361199 0 0 1 .0293 .015625 .361199 .361199 0 0 0 .002 0 .361199 .361199 0 0 1 .02734 .021484 .361199 .361199 0 0 0 .002 0 .361199 .361199 0 0 1 .02734 .021484 .353413 .353413 0 0 1 .02148 .021484 .353413 .353413 0 0 0 .002 0 .353413 .353413 0 0 1 .01953 .029297 .353413 .353413 0 0 0 .002 0 .353413 .353413 0 0 1 .01953 .029297 .353413 .353413 0 0 1 .01172 .029297 .353413 .353413 0 0 0 .002 .00195 .353413 .353413 0 0 1 .01563 .03125 .353413 .353413 0 0 0 .002 0 .353413 .353413 0 0 1 .0059 .035156 .353413 .353413 0 0 1 .0059 .033203 .353413 .353413 0 0 0 .002 .00195 .353413 .353413 0 0 1 .002 .035156 .353413 .353413 0 0 1 0 .033203 .353413 .353413 0 0 1 0 .00391 .353413 .353413 0 0 1 -.0039 .035156 .353413 .353413 0 0 1 -.0098 .033203 .353413 .353413 0 0 1 -.01172 .033203 .353413 .353413 0 0 1 -.01367 .029297 .353413 .353413 0 0 0 0 .00195 .353413 .353413 0 0 1 -.01563 .033203 .353413 .353413 0 0 1 -.02149 .025391 .353413 .353413 0 0 0 -.002 .00195 .353413 .353413 0 0 1 -.02344 .027344l-.758.779a.361308 .361308 0 0 1 -.01367 .015625 .361308 .361308 0 0 1 -.0293 .021484 .361308 .361308 0 0 1 -.0293 .021484 .361308 .361308 0 0 1 -.0332 .017578 .361308 .361308 0 0 1 -.03516 .011719 .361308 .361308 0 0 1 -.0332 .013672 .361308 .361308 0 0 1 -.0332 .00391 .361308 .361308 0 0 1 -.03711 .00391 .361308 .361308 0 0 1 -.03516 0 .361308 .361308 0 0 1 -.03711 -.00391 .361308 .361308 0 0 1 -.0332 -.00977 .361308 .361308 0 0 0 -.002 -.00195 .361308 .361308 0 0 1 -.03711 -.00586 .361308 .361308 0 0 1 -.0293 -.015625 .361308 .361308 0 0 0 0 -.00195 .361308 .361308 0 0 1 -.0332 -.015625 .361308 .361308 0 0 0 0 -.00195 .361308 .361308 0 0 1 -.0293 -.019531 .361308 .361308 0 0 1 -.02539 -.021484 .353629 .353629 0 0 1 -.02149 -.021484 .353629 .353629 0 0 1 -.002 -.00391 .353629 .353629 0 0 1 -.02344 -.025391 .353629 .353629 0 0 1 -.01563 -.029297 .353629 .353629 0 0 1 -.01758 -.029297 .353629 .353629 0 0 0 0 -.00195 .353629 .353629 0 0 1 -.01367 -.03125 .353629 .353629 0 0 1 -.0078 -.033203 .353629 .353629 0 0 1 0 -.00586 .353629 .353629 0 0 1 -.0078 -.033203 .353629 .353629 0 0 1 -.0039 -.033203 .353629 .353629 0 0 1 .0039 -.033203 .353629 .353629 0 0 1 .002 -.00391 .353629 .353629 0 0 1 .002 -.035156 .353629 .353629 0 0 1 .0078 -.033203 .353629 .353629 0 0 1 .0098 -.033203 .353629 .353629 0 0 1 .01563 -.029297 .353629 .353629 0 0 0 .002 -.00195 .353629 .353629 0 0 1 .01563 -.03125 .353629 .353629 0 0 1 .002 -.00391 .353629 .353629 0 0 1 .01953 -.027344 .353629 .353629 0 0 1 .01953 -.025391l.76-.777a.361199 .361199 0 0 1 .01563 -.017578 .361199 .361199 0 0 0 .002 -.00195 .361199 .361199 0 0 1 .02734 -.019531 .361199 .361199 0 0 0 .002 -.00195 .361199 .361199 0 0 1 .02734 -.019531 .361199 .361199 0 0 1 .0293 -.015625 .361199 .361199 0 0 0 .002 -.00195 .361199 .361199 0 0 1 .0332 -.011719 .361199 .361199 0 0 1 .0332 -.011719 .361199 .361199 0 0 0 .002 -.00195 .361199 .361199 0 0 1 .03516 -.00195 .361199 .361199 0 0 1 .03516 -.00586"/><path d="m24.447031 2.030402a.743162 .743162 0 0 0 -.07226 .011719 .743162 .743162 0 0 0 -.07227 .017578 .743162 .743162 0 0 0 -.06836 .023437 .743162 .743162 0 0 0 -.002 .00195 .743162 .743162 0 0 0 -.06836 .029297 .743162 .743162 0 0 0 -.0625 .037109 .743162 .743162 0 0 0 -.05664 .044922 .743162 .743162 0 0 0 -.002 .00195 .743162 .743162 0 0 0 -.05274 .048828 .743162 .743162 0 0 0 -.002 .00195 .743162 .743162 0 0 0 -.04883 .052734 .743162 .743162 0 0 0 -.002 .00195 .743162 .743162 0 0 0 -.04297 .058594 .743162 .743162 0 0 0 -.03711 .0625 .743162 .743162 0 0 0 -.0332 .064453 .743162 .743162 0 0 0 -.002 .00391 .743162 .743162 0 0 0 -.01758 .070312 .743162 .743162 0 0 0 -.002 .00195 .743162 .743162 0 0 0 -.01758 .070312 .743162 .743162 0 0 0 -.0098 .072266 .743162 .743162 0 0 0 -.002 .00391 .743162 .743162 0 0 0 0 .072266 .743162 .743162 0 0 0 .0039 .0625l.121 1.213.039.375c.029.284.17.53.375.699.205.169.473.262.758.236.284-.026.532-.167.699-.371C25.937 4.795 26.02 4.529 25.996 4.245L25.861 2.939a.190116 .190116 0 0 0 0 -.019531 .190116 .190116 0 0 0 -.0039 -.017578 .190116 .190116 0 0 0 -.0059 -.017578 .190116 .190116 0 0 0 -.002 0 .190116 .190116 0 0 0 -.0098 -.015625 .190116 .190116 0 0 0 -.0059 -.017578 .190116 .190116 0 0 0 -.002 0 .190116 .190116 0 0 0 -.01172 -.015625 .190116 .190116 0 0 0 -.002 0 .190116 .190116 0 0 0 -.01172 -.013672 .190116 .190116 0 0 0 -.01563 -.011719 .190116 .190116 0 0 0 -.002 0 .190116 .190116 0 0 0 -.01172 -.013672 .190116 .190116 0 0 0 -.01563 -.00781 .190116 .190116 0 0 0 -.002 0 .190116 .190116 0 0 0 -.01562 -.00977 .190116 .190116 0 0 0 -.01758 -.00391 .190116 .190116 0 0 0 -.0039 0 .190116 .190116 0 0 0 -.01758 -.00391 .190116 .190116 0 0 0 -.01758 -.00391 .190116 .190116 0 0 0 -.0039 0 .190116 .190116 0 0 0 -.01563 0 .190116 .190116 0 0 0 -.01367 .00391 .185791 .185791 0 0 0 -.01563 0 .185791 .185791 0 0 0 -.01758 .00391 .185791 .185791 0 0 0 -.01563 .00586 .185791 .185791 0 0 0 -.002 .00195 .185791 .185791 0 0 0 -.01562 .00977 .185791 .185791 0 0 0 -.01563 .00586 .185791 .185791 0 0 0 -.002 .00195 .185791 .185791 0 0 0 -.01563 .00586 .185791 .185791 0 0 0 -.002 .00195 .185791 .185791 0 0 0 -.01172 .013672 .185791 .185791 0 0 0 -.0098 .013672 .185791 .185791 0 0 0 -.0039 .00391 .185791 .185791 0 0 0 -.01172 .011719 .185791 .185791 0 0 0 -.0059 .015625 .185791 .185791 0 0 0 -.002 .00195 .185791 .185791 0 0 0 -.0098 .015625 .185791 .185791 0 0 0 -.0039 .017578 .185791 .185791 0 0 0 -.002 .017578 .185791 .185791 0 0 0 -.002 .00391 .185791 .185791 0 0 0 -.0039 .015625 .185791 .185791 0 0 0 0 .017578 .185791 .185791 0 0 0 0 .017578l.135 1.309a.650483 .650483 0 0 1 .0039 .0625 .650483 .650483 0 0 1 -.0039 .064453 .650483 .650483 0 0 1 -.0078 .0625 .650483 .650483 0 0 1 -.002 .00391 .650483 .650483 0 0 1 -.01367 .0625 .650483 .650483 0 0 1 -.002 .00195 .650483 .650483 0 0 1 -.02539 .058594 .650483 .650483 0 0 1 -.02539 .058594 .650483 .650483 0 0 1 -.0332 .054687 .650483 .650483 0 0 1 -.04102 .048828 .650483 .650483 0 0 1 -.002 .00195 .650483 .650483 0 0 1 -.04102 .048828 .650483 .650483 0 0 1 0 .00195 .650483 .650483 0 0 1 -.04883 .039063 .650483 .650483 0 0 1 -.002 .00195 .650483 .650483 0 0 1 -.05078 .039063 .650483 .650483 0 0 1 -.05664 .03125 .650483 .650483 0 0 1 -.002 .00195 .650483 .650483 0 0 1 -.05859 .023437 .650483 .650483 0 0 1 -.002 .00195 .650483 .650483 0 0 1 -.05859 .021484 .650483 .650483 0 0 1 -.0625 .011719 .650483 .650483 0 0 1 -.05469 .00977c-.362.033-.684-.232-.721-.594l-.037-.375-.127-1.213a.371689 .371689 0 0 1 0 -.037109 .371689 .371689 0 0 1 0 -.00195 .371689 .371689 0 0 1 0 -.037109 .371689 .371689 0 0 1 .0078 -.033203 .371689 .371689 0 0 1 .0098 -.037109 .371689 .371689 0 0 1 0 -.00195 .371689 .371689 0 0 1 .01172 -.033203 .371689 .371689 0 0 1 .01758 -.033203 .371689 .371689 0 0 1 .01563 -.035156 .371689 .371689 0 0 1 .02539 -.029297 .371689 .371689 0 0 1 .02539 -.025391 .371689 .371689 0 0 1 .02539 -.025391 .371689 .371689 0 0 1 .0332 -.019531 .371689 .371689 0 0 1 .03125 -.021484 .371689 .371689 0 0 1 .0332 -.013672 .371689 .371689 0 0 1 .03711 -.011719 .371689 .371689 0 0 1 .0332 -.00781 .371689 .371689 0 0 1 .03125 -.00586 .380016 .380016 0 0 1 .03711 0 .380016 .380016 0 0 1 .03711 0 .380016 .380016 0 0 1 .03711 .00781 .380016 .380016 0 0 1 .002 .00195 .380016 .380016 0 0 1 .03711 .00781 .380016 .380016 0 0 1 .0332 .011719 .380016 .380016 0 0 1 .03516 .013672 .380016 .380016 0 0 1 .0039 .00391 .380016 .380016 0 0 1 .0293 .021484 .380016 .380016 0 0 1 .0293 .023437 .380016 .380016 0 0 1 0 .00195 .380016 .380016 0 0 1 .0293 .023437 .380016 .380016 0 0 1 0 .00195 .380016 .380016 0 0 1 .02539 .027344 .380016 .380016 0 0 1 0 .00195 .380016 .380016 0 0 1 .02149 .029297 .380016 .380016 0 0 1 .01758 .033203 .380016 .380016 0 0 1 .01563 .033203 .380016 .380016 0 0 1 .01367 .035156 .380016 .380016 0 0 1 0 .00391 .380016 .380016 0 0 1 .0078 .037109 .380016 .380016 0 0 1 0 .021484l.037.371.123 1.217a.091381 .091381 0 0 1 .0039 .00781 .091381 .091381 0 0 1 -.002 .00781 .091381 .091381 0 0 1 -.002 .00195 .091381 .091381 0 0 1 0 .00781 .091381 .091381 0 0 1 0 .00391 .091381 .091381 0 0 1 0 .00781 .091381 .091381 0 0 1 -.002 .00781 .091381 .091381 0 0 1 -.002 .00195 .091381 .091381 0 0 1 -.0039 .00586 .091381 .091381 0 0 1 -.002 .00195 .091381 .091381 0 0 1 -.0039 .00391 .091381 .091381 0 0 1 -.0059 .00586 .091381 .091381 0 0 1 -.002 .00195 .091381 .091381 0 0 1 -.002 .00781 .091381 .091381 0 0 1 -.002 .00195 .091381 .091381 0 0 1 -.0078 .00195 .091381 .091381 0 0 1 -.002 .00195 .091381 .091381 0 0 1 -.0039 .00781 .091381 .091381 0 0 1 -.0059 .00391 .091381 .091381 0 0 1 -.002 .00195 .091381 .091381 0 0 1 -.0078 0 .091381 .091381 0 0 1 -.0078 .00195 .091381 .091381 0 0 1 -.002 .00195 .091381 .091381 0 0 1 -.0078 .00391 .091381 .091381 0 0 1 -.0078 0 .091381 .091381 0 0 1 -.0039 0 .093652 .093652 0 0 1 -.0078 0 .093652 .093652 0 0 1 -.002 0 .093652 .093652 0 0 1 -.0078 0 .093652 .093652 0 0 1 -.0078 0 .093652 .093652 0 0 1 -.0078 -.00391 .093652 .093652 0 0 1 -.002 0 .093652 .093652 0 0 1 -.0078 -.00391 .093652 .093652 0 0 1 -.0059 -.00586 .093652 .093652 0 0 1 -.002 0 .093652 .093652 0 0 1 -.0078 -.00391 .093652 .093652 0 0 1 -.002 0 .093652 .093652 0 0 1 -.0078 -.00391 .093652 .093652 0 0 1 -.0059 -.00781 .093652 .093652 0 0 1 -.002 0 .093652 .093652 0 0 1 -.0039 -.00586 .093652 .093652 0 0 1 -.0059 -.00586 .093652 .093652 0 0 1 -.0039 -.00195 .093652 .093652 0 0 1 -.0039 -.00781 .093652 .093652 0 0 1 -.002 -.00977 .093652 .093652 0 0 1 -.002 0 .093652 .093652 0 0 1 0 -.00781 .093652 .093652 0 0 1 -.0039 -.00781 .093652 .093652 0 0 1 0 -.00781L24.74 3.04a.190116 .190116 0 0 0 -.002 -.019531 .190116 .190116 0 0 0 -.002 -.00195 .190116 .190116 0 0 0 -.0059 -.015625 .190116 .190116 0 0 0 -.0078 -.017578 .190116 .190116 0 0 0 -.0078 -.017578 .190116 .190116 0 0 0 -.0098 -.015625 .190116 .190116 0 0 0 -.0098 -.017578 .190116 .190116 0 0 0 -.002 0 .190116 .190116 0 0 0 -.01367 -.011719 .190116 .190116 0 0 0 -.01172 -.013672 .190116 .190116 0 0 0 -.01563 -.011719 .190116 .190116 0 0 0 -.002 0 .190116 .190116 0 0 0 -.01563 -.00977 .190116 .190116 0 0 0 -.01758 -.00781 .190116 .190116 0 0 0 -.01758 -.00391 .190116 .190116 0 0 0 -.01758 -.00391 .190116 .190116 0 0 0 -.002 0 .190116 .190116 0 0 0 -.01758 -.00586 .190116 .190116 0 0 0 -.01758 -.00195 .190116 .190116 0 0 0 -.0039 .00195 .190116 .190116 0 0 0 -.0078 .00586 .185682 .185682 0 0 0 -.01758 -.00195 .185682 .185682 0 0 0 -.0039 .00195 .185682 .185682 0 0 0 -.01758 .00391 .185682 .185682 0 0 0 -.01563 .00781 .185682 .185682 0 0 0 -.01562 .00586 .185682 .185682 0 0 0 -.002 .00195 .185682 .185682 0 0 0 -.01563 .00977 .185682 .185682 0 0 0 -.01563 .00586 .185682 .185682 0 0 0 -.002 .00195 .185682 .185682 0 0 0 -.01172 .011719 .185682 .185682 0 0 0 -.01172 .013672 .185682 .185682 0 0 0 -.002 .00391 .185682 .185682 0 0 0 -.0078 .013672 .185682 .185682 0 0 0 -.01172 .013672 .185682 .185682 0 0 0 -.002 .00195 .185682 .185682 0 0 0 -.0039 .017578 .185682 .185682 0 0 0 -.0078 .015625 .185682 .185682 0 0 0 -.0039 .017578 .185682 .185682 0 0 0 0 .017578 .185682 .185682 0 0 0 0 .00391 .185682 .185682 0 0 0 -.0059 .015625 .185682 .185682 0 0 0 .0059 .017578l.129 1.311c.026.258.255.448.514.424a.462638 .462638 0 0 0 .04687 -.00781 .462638 .462638 0 0 0 .04687 -.00781 .462638 .462638 0 0 0 .04102 -.017578 .462638 .462638 0 0 0 .04297 -.021484 .462638 .462638 0 0 0 .04101 -.019531 .462638 .462638 0 0 0 .03711 -.029297 .462638 .462638 0 0 0 .002 -.00195 .462638 .462638 0 0 0 .0332 -.029297 .462638 .462638 0 0 0 .0293 -.033203 .462638 .462638 0 0 0 .0293 -.037109 .462638 .462638 0 0 0 .02148 -.042969 .462638 .462638 0 0 0 .02148 -.041016 .462638 .462638 0 0 0 .01172 -.042969 .462638 .462638 0 0 0 .01367 -.044922 .462638 .462638 0 0 0 0 -.00195 .462638 .462638 0 0 0 .0078 -.041016 .462638 .462638 0 0 0 0 -.046875 .462638 .462638 0 0 0 -.0039 -.042969l-.119-1.215-.039-.375C25.23 2.296 24.861 1.993 24.447 2.03"/></g></g><g transform="translate(49.877 194.68)"><path d="m-35.21-194.22c-5.577-1.531-5.951 3.24-4.58 5.493 4.381 6.983 6.796 6.577 9.398 7.895 1.712 2.064 3.451 3.4 6.469 4.1 11.69 1.559 3.242-8.417.92-8.649-5.065.012-7.547-6.123-12.206-8.838" fill="url(#0)"/><path d="m-35.21-194.22c3.76.276 5.616-.626 8.93-.421 4.319.283 8.307 2.053 7.838 6.574-.347 2.567-.37 2.25.186 4.296.532 1.535-.252 4.232-.487 4.654-2.715 4.963-1.536 4.965-2.656 7.742l-.906-.418-2.508-11.358c-7.177-.909-10.754-10.11-10.398-11.07" fill="url(#2)"/><path d="m-28.419-184.29c.362.274 1.553-5.105 1.172-5.653 1.379 2.44 1.919 4.616 2.435 6.783-1.276-.283-2.289-.554-3.607-1.13" fill="url(#4)"/><circle r="3.01" cy="-171.07" cx="-21.728" fill="url(#5)"/></g></svg>