<svg xmlns="http://www.w3.org/2000/svg" xmlns:xlink="http://www.w3.org/1999/xlink" viewBox="0 0 32 32"><defs><linearGradient xlink:href="#3" id="4" x1="-227.98" y1="-131.26" x2="-234.8" y2="-134.14" gradientUnits="userSpaceOnUse"/><linearGradient xlink:href="#3" id="2" x1="-241.01" y1="-141.61" x2="-226.57" y2="-129.44" gradientUnits="userSpaceOnUse"/><linearGradient id="3"><stop stop-color="#13a9ea"/><stop offset="1" stop-color="#372db5"/></linearGradient><linearGradient id="1"><stop stop-color="#f9f9f9"/><stop offset="1" stop-color="#999"/></linearGradient><linearGradient xlink:href="#1" id="0" x1="-239.23" y1="-133.21" x2="-241.87" y2="-125.28" gradientUnits="userSpaceOnUse"/><radialGradient xlink:href="#1" id="5" cx="-176.59" cy="-120.91" r="3.01" gradientUnits="userSpaceOnUse" gradientTransform="matrix(2.21087.05719-.05496 2.12455 156.08 146.14)"/></defs><path d="m7.473 1.898c-3.089 0-5.574 2.486-5.574 5.574v8.916h28.2v-8.916c0-3.089-2.486-5.574-5.574-5.574z" fill="#8e8e8e" fill-rule="evenodd"/><g stroke-width=".635"><path fill="#e6e6e6" d="m7.108 6.797h17.79v10.657h-17.79z"/><g fill="#666"><path d="m8.887 11.06h4.447v3.197h-4.447z"/><path d="m18.671 11.06h4.447v3.197h-4.447z"/></g></g><path d="m30.1 16.389h-28.2v8.139c0 3.089 2.486 5.574 5.574 5.574h17.05c3.089 0 5.574-2.486 5.574-5.574z" fill="#4d4d4d" fill-rule="evenodd"/><g fill="#666" stroke-width=".635"><rect width="17.05" height="2.131" x="7.477" y="20.651" rx="1.066"/><rect width="12.789" height="2.131" x="9.608" y="24.914" rx="1.066"/></g><g transform="matrix(.75 0 0 .75 4.701 5.446)" stroke-width="1.333"><circle r="8" cy="23" cx="24" fill="#48aeff"/><g fill="#fff"><path d="m20.21 19h2.571c.119 0 .214.096.214.214v2.571c0 .119-.096.214-.214.214h-2.572c-.119 0-.214-.096-.214-.214v-2.572c0-.119.096-.214.214-.214"/><path d="m25.21 19h2.571c.119 0 .214.096.214.214v2.571c0 .119-.096.214-.214.214h-2.571c-.119 0-.214-.096-.214-.214v-2.571c0-.119.096-.214.214-.214"/><path d="m20.21 24h2.571c.119 0 .214.096.214.214v2.571c0 .119-.096.214-.214.214h-2.572c-.119 0-.214-.096-.214-.214v-2.572c0-.119.096-.214.214-.214"/><path d="m25.21 24h2.571c.119 0 .214.096.214.214v2.571c0 .119-.096.214-.214.214h-2.571c-.119 0-.214-.096-.214-.214v-2.571c0-.119.096-.214.214-.214"/></g></g><g transform="matrix(-1 0 0 1-223.97 142.77)"><g fill="#f9f9f9"><path d="m-228.95-129.3l-.27 2.221-.122-2.378z"/><path d="m-228.66-130.01l-.27 2.221-.122-2.378z"/><path d="m-228.43-129.95l-.27 1.6-.122-1.713z"/></g><path d="m-241.31-142.31c-5.577-1.531-5.951 3.24-4.58 5.493 4.381 6.983 6.796 6.577 9.398 7.895 1.712 2.064 3.451 3.4 6.469 4.1 11.69 1.559 3.242-8.417.92-8.649-5.065.012-7.547-6.123-12.206-8.838" fill="url(#0)"/><path d="m-241.31-142.31c3.76.276 5.616-.626 8.93-.421 4.319.283 8.307 2.053 7.838 6.574-.347 2.567-.37 2.25.186 4.296.532 1.535-.252 4.232-.487 4.654-2.715 4.963-1.536 4.965-2.656 7.742l-.906-.418-2.508-11.358c-7.177-.909-10.754-10.11-10.398-11.07" fill="url(#2)"/><path d="m-234.52-132.37c.362.274 1.553-5.105 1.172-5.653 1.379 2.44 1.919 4.616 2.435 6.783-1.276-.283-2.289-.554-3.607-1.13" fill="url(#4)"/><circle r="3.01" cy="-119.15" cx="-227.83" fill="url(#5)"/></g></svg>