<svg xmlns="http://www.w3.org/2000/svg" viewBox="0 0 32 32"><defs><linearGradient gradientTransform="matrix(-2.65552 0 0 2.58531 193.77-277.73)" id="0" x1="67.894" y1="108.69" x2="67.854" y2="113.11" gradientUnits="userSpaceOnUse"><stop stop-color="#f9f9f9"/><stop offset="1" stop-color="#999"/></linearGradient></defs><rect width="28.2" height="28.2" x="1.898" y="1.898" fill="#248afd" fill-rule="evenodd" rx="5.575"/><path d="m16 5.492c-5.795 0-10.508 4.714-10.508 10.508 0 5.795 4.714 10.508 10.508 10.508 5.794 0 10.508-4.714 10.508-10.508 0-5.794-4.714-10.508-10.508-10.508m0 .809c2.525 0 4.913 1.14 6.639 2.721-.042-.002-.083-.008-.126-.008-.953 0-2.154.917-2.154 1.809.02 2.551 2.152 3.252 2.191 4.688 0 .83-.319 1.794-.738 3.136l-.968 3.233-3.506-10.252c.584-.031.935-.093.935-.093.523-.062.462-.83-.062-.8 0 0-1.397.123-2.411.123-.953 0-2.905-.123-2.905-.123-.523-.031-.584.769-.062.8 0 0 .846.062 1.368.093l1.511 3.965-2.124 6.367-3.532-10.332c.585-.031 1.198-.092 1.198-.092.522-.062.461-.83-.062-.8 0 0-1.659.123-2.673.123-.182 0-.484-.004-.712-.011 1.735-2.633 4.803-4.547 8.192-4.547m8.512 5.04c.758 1.382 1.188 2.968 1.188 4.655 0 3.578-1.939 6.702-4.823 8.384l2.964-8.566c.554-1.384.737-2.49.737-3.474 0-.357-.024-.689-.066-.998m-17.372.707l4.627 12.677c-3.236-1.572-5.467-4.89-5.467-8.729 0-1.406.302-2.742.84-3.948m9.03 4.795l2.982 8.169c.019.048.043.093.069.135-1.01.355-2.092.549-3.222.549-.952 0-1.871-.139-2.74-.395z" fill="#fff" stroke-width=".876"/>

   xmlns:dc="http://purl.org/dc/elements/1.1/"
   xmlns:cc="http://creativecommons.org/ns#"
   xmlns:rdf="http://www.w3.org/1999/02/22-rdf-syntax-ns#"
   xmlns:svg="http://www.w3.org/2000/svg"
   xmlns="http://www.w3.org/2000/svg"
   xmlns:xlink="http://www.w3.org/1999/xlink"
   xmlns:sodipodi="http://sodipodi.sourceforge.net/DTD/sodipodi-0.dtd"
   xmlns:inkscape="http://www.inkscape.org/namespaces/inkscape"
   version="1"
   width="32"
   height="32"
   id="svg12"
   sodipodi:docname="snow-top-3.svg"
   inkscape:version="0.92.1 r"&gt;
  <path d="m24.627.009c8.36-.339 9.455 9.523 4.064 9.505-.686.003-1.62-.197-3-1.471-14.665-10.216-14.549 2.967-17.708.875-1.727-1.822-1.743 4.653-4.139 5.127-2.122.613-3.699-1.385-3.824-4.503-.366-8.627 4.086-9.427 7.187-9.524 5.974.133 11.562-.045 17.419-.01" fill="url(#0)"/></svg>