<svg xmlns="http://www.w3.org/2000/svg" viewBox="0 0 32 32"><defs><linearGradient gradientTransform="matrix(2.62891 0 0 2.71269-160.16-291.42)" id="0" x1="67.894" y1="108.69" x2="67.854" y2="113.11" gradientUnits="userSpaceOnUse"><stop stop-color="#f9f9f9"/><stop offset="1" stop-color="#999"/></linearGradient></defs><g transform="translate(101.29-6.145)" fill-rule="evenodd"><g fill="#4269b0"><path d="m-88.92 16.793c-.816-.056-1.084.007-1.084.25 0 .096-.065.299-.145.451-.137.263-.134.277.072.309.22.034.342.083.4.232.058.15.054.401.02.842-.035.452-.086 1.342-.111 1.979-.025.636-.069 1.353-.098 1.592-.029.239-.093 1.193-.143 2.121-.049.928-.118 1.87-.152 2.096-.061.402-.056.41.217.41.153 0 .421.042.596.092.259.074.349.059.482-.082.185-.196.132-.121 1.523-2.131.569-.822 1.211-1.742 1.428-2.045.216-.303.607-.855.867-1.229.26-.374.504-.68.543-.68.039 0 .064 1.509.057 3.352l-.012 3.35.48.057c.265.031.554.064.641.072.102.01.428-.38.916-1.1.417-.614.859-1.256.982-1.424.258-.352 1.637-2.33 2.66-3.818 1.907-2.772 1.773-2.609 2.139-2.609.185 0 .35-.054.369-.121.019-.066.089-.308.158-.537.099-.33.102-.432.008-.49-.132-.082-3.292-.309-3.396-.244-.072.045-.377.932-.377 1.098 0 .059.205.102.48.102.265 0 .482.03.482.066 0 .036-.158.308-.35.604-.192.295-.842 1.295-1.443 2.223-.602.928-1.141 1.742-1.197 1.809-.186.218-.314.135-.254-.164.031-.157.082-.731.113-1.277.031-.546.071-1.232.09-1.523.151-2.347.169-3.061.078-3.117-.055-.034-.469-.09-.922-.125l-.822-.063-.713 1.098c-.391.604-1.251 1.953-1.912 2.998-.661 1.045-1.26 1.902-1.334 1.904-.109.003-.123-.161-.074-.887.033-.491.083-1.477.113-2.193.042-1.01.054-1.488.137-1.719.082-.23.234-.213.559-.23l.547-.027.174-.482c.095-.265.172-.508.172-.541 0-.033-.51-.09-1.133-.127-.623-.037-1.447-.091-1.832-.117"/><path d="m-76.29 36.15c-.644-.079-1.126-.138-3.26-.393-3.585-.427-4.078-.487-4.869-.584-1.839-.226-4.365-.52-5.398-.627-.292-.03-.791-.092-1.109-.137-.318-.045-.607-.054-.643-.02-.036.034-.111.387-.166.785-.055.398-.129.865-.164 1.037-.007.033.028.009.023.035h15.1c.171 0 .315-.083.482-.098"/><path d="m-71.41 31.777c-.226-.025-.421-.049-.658-.074-.557-.059-1.337-.146-1.734-.193-.398-.047-1.18-.133-1.736-.189-.557-.057-1.599-.169-2.314-.248-.716-.079-1.908-.206-2.65-.285-2.182-.232-2.299-.245-2.652-.291-.186-.024-.598-.068-.916-.098-.318-.03-.948-.095-1.398-.145-.451-.049-1.253-.134-1.783-.188-.53-.054-1.18-.122-1.445-.15-1.579-.172-2.086-.193-2.162-.098-.044.056-.108.339-.139.631-.031.292-.093.731-.139.977l-.082.445.537.063c.296.034.992.125 1.549.205.557.08 1.381.188 1.832.242.451.054 1.168.142 1.592.193.424.052 1.139.134 1.59.184.451.05 1.71.203 2.797.34 1.087.137 2.693.336 3.568.441 2.888.349 3.223.391 3.904.48.302.04.854.103 1.332.156.564-.683.923-1.496 1.109-2.398"/><path d="m-71.19 27.21c-.096-.011-.189-.024-.301-.035-4.218-.42-4.156-.419-4.242-.096-.035.133-.093.594-.129 1.023l-.066.781.701.064c.385.035.852.082 1.037.104.186.022.793.088 1.35.148.557.06 1.251.145 1.543.189.03.005.074.003.107.006z"/><path d="m-71.19 22.611c-.257-.022-.511-.044-.781-.068-1.885-.169-3.127-.257-3.191-.227-.081.038-.323 1.952-.256 2.02.031.031.483.096 1 .145.521.049 1.424.135 2.01.191.368.036.806.075 1.217.111z"/><path d="m-71.19 18.03c-.55-.035-1.123-.072-1.621-.104-.859-.055-1.596-.106-1.639-.113-.252-.043-.307.059-.363.66-.033.358-.084.808-.111 1-.031.217-.04.329.117.395.157.066.48.088 1.117.125.547.032 1.313.098 1.701.148.23.03.52.041.799.057z"/></g><path d="m-71.19 14.354l-21.17-1.395-3.891 22.682c.74.362 1.547.605 2.43.605h1.949c.005-.026-.03-.002-.023-.035.035-.172.109-.639.164-1.037.055-.398.13-.751.166-.785.036-.034.324-.026.643.02.318.045.818.106 1.109.137 1.033.107 3.56.401 5.398.627.791.097 1.284.157 4.869.584 2.134.254 2.616.313 3.26.393 1.529-.137 2.842-.857 3.762-1.973-.478-.053-1.03-.117-1.332-.156-.681-.089-1.017-.131-3.904-.48-.875-.106-2.481-.305-3.568-.441-1.087-.137-2.346-.29-2.797-.34-.451-.05-1.166-.132-1.59-.184-.424-.052-1.141-.139-1.592-.193-.451-.054-1.275-.163-1.832-.242-.557-.08-1.253-.171-1.549-.205l-.537-.063.082-.445c.045-.245.108-.685.139-.977.031-.292.094-.575.139-.631.076-.096.583-.074 2.162.098.265.029.915.097 1.445.15.53.054 1.332.138 1.783.188.451.049 1.08.115 1.398.145.318.03.73.074.916.098.353.046.47.059 2.652.291.742.079 1.934.206 2.65.285.716.079 1.758.191 2.314.248.557.057 1.339.142 1.736.189.398.047 1.178.134 1.734.193.238.025.432.049.658.074.076-.369.221-.713.221-1.105v-1.281c-.033-.003-.078-.001-.107-.006-.292-.044-.986-.129-1.543-.189-.557-.06-1.164-.127-1.35-.148-.186-.022-.652-.068-1.037-.104l-.701-.064.066-.781c.036-.43.093-.891.129-1.023.087-.324.024-.324 4.242.096.112.011.205.024.301.035v-2.422c-.411-.037-.849-.075-1.217-.111-.583-.057-1.486-.143-2.01-.191-.521-.049-.973-.114-1-.145-.067-.067.175-1.982.256-2.02.064-.03 1.307.058 3.191.227.27.024.524.046.781.068v-2.418c-.279-.016-.569-.027-.799-.057-.388-.05-1.154-.116-1.701-.148-.638-.037-.96-.059-1.117-.125-.157-.066-.148-.177-.117-.395.027-.192.078-.642.111-1 .056-.601.112-.703.363-.66.043.007.78.058 1.639.113.498.032 1.071.068 1.621.104zm-17.729 2.439c.385.026 1.209.08 1.832.117.623.037 1.133.094 1.133.127 0 .033-.077.276-.172.541l-.174.482-.547.027c-.324.017-.476 0-.559.23-.082.23-.094.709-.137 1.719-.03.716-.08 1.703-.113 2.193-.049.726-.035.89.074.887.074-.002.673-.859 1.334-1.904.661-1.045 1.521-2.394 1.912-2.998l.713-1.098.822.063c.453.035.867.091.922.125.091.056.072.77-.078 3.117-.019.292-.059.977-.09 1.523-.031.546-.082 1.121-.113 1.277-.06.299.068.382.254.164.057-.066.595-.881 1.197-1.809.602-.928 1.251-1.928 1.443-2.223.192-.295.35-.567.35-.604 0-.036-.217-.066-.482-.066-.276 0-.48-.043-.48-.102 0-.165.305-1.053.377-1.098.105-.065 3.264.162 3.396.244.094.058.091.161-.008.49-.069.229-.14.471-.158.537-.019.067-.184.121-.369.121-.366 0-.232-.163-2.139 2.609-1.024 1.488-2.402 3.466-2.66 3.818-.123.168-.566.81-.982 1.424-.488.719-.814 1.109-.916 1.1-.087-.008-.375-.041-.641-.072l-.48-.057.012-3.35c.007-1.843-.018-3.352-.057-3.352-.039 0-.283.306-.543.68-.26.374-.651.926-.867 1.229-.216.303-.859 1.223-1.428 2.045-1.392 2.01-1.338 1.935-1.523 2.131-.133.141-.223.156-.482.082-.175-.05-.443-.092-.596-.092-.273 0-.278-.008-.217-.41.034-.225.103-1.168.152-2.096.049-.928.114-1.882.143-2.121.029-.239.072-.955.098-1.592.025-.636.076-1.527.111-1.979.034-.441.039-.692-.02-.842-.058-.15-.181-.199-.4-.232-.206-.032-.21-.045-.072-.309.079-.152.145-.355.145-.451 0-.243.268-.306 1.084-.25" fill="#f2f7fa"/><path d="m-93.82 8.04c-3.089 0-5.576 2.488-5.576 5.576v17.05c0 2.206 1.296 4.064 3.146 4.969l3.891-22.682 21.17 1.395v-.734c0-3.089-2.486-5.576-5.574-5.576z" fill="#4269b0"/></g>

   xmlns:dc="http://purl.org/dc/elements/1.1/"
   xmlns:cc="http://creativecommons.org/ns#"
   xmlns:rdf="http://www.w3.org/1999/02/22-rdf-syntax-ns#"
   xmlns:svg="http://www.w3.org/2000/svg"
   xmlns="http://www.w3.org/2000/svg"
   xmlns:xlink="http://www.w3.org/1999/xlink"
   xmlns:sodipodi="http://sodipodi.sourceforge.net/DTD/sodipodi-0.dtd"
   xmlns:inkscape="http://www.inkscape.org/namespaces/inkscape"
   version="1"
   width="32"
   height="32"
   id="svg12"
   sodipodi:docname="snow-top-1.svg"
   inkscape:version="0.92.1 r"&gt;
  <path d="m7.288.009c-8.276-.356-9.36 9.992-4.02 9.973.679.003 1.604-.207 2.97-1.543 7.256-10.531 14.706 3.573 17.53.919 1.71-1.912 3.496-.418 4.448.115 2.1.643 3.662.041 3.785-3.231.188-3.321-1.889-6.344-5.923-6.223-5.914.14-12.989-.047-18.787-.01" fill="url(#0)"/><path fill="#f00" fill-opacity="0" d="m0 0h32v32h-32z"/></svg>