<svg xmlns="http://www.w3.org/2000/svg" viewBox="0 0 32 32"><g transform="matrix(1 0 0-1 54.1 30.916)" fill-rule="evenodd"><path d="m-39.05 29.02v-10.484c0-.277-.223-.5-.5-.5h-12.652v5.408c0 3.089 2.486 5.576 5.574 5.576z" fill="#ececec"/><path d="m-46.629.814c-3.089 0-5.574 2.486-5.574 5.574v11.645h12.652c.277 0 .5.223.5.5v10.484h9.477c3.089 0 5.574-2.488 5.574-5.576v-17.05c0-3.089-2.486-5.574-5.574-5.574z" fill="#4ab3e4"/></g>

   xmlns:dc="http://purl.org/dc/elements/1.1/"
   xmlns:cc="http://creativecommons.org/ns#"
   xmlns:rdf="http://www.w3.org/1999/02/22-rdf-syntax-ns#"
   xmlns:svg="http://www.w3.org/2000/svg"
   xmlns="http://www.w3.org/2000/svg"
   xmlns:sodipodi="http://sodipodi.sourceforge.net/DTD/sodipodi-0.dtd"
   xmlns:inkscape="http://www.inkscape.org/namespaces/inkscape"
   height="32"
   width="32"
   version="1"
   id="svg8"
   sodipodi:docname="star-mime-2.svg"
   inkscape:version="0.92.1 r"&gt;
  <g transform="translate(152.47 194.05)" fill="#fff"><path d="m-125.38-193.25l-.077 3.548 3.072 1.831-3.548-.077-3.135 6.791 1.38-7.268-3.072-1.831 3.548.077z"/><path d="m-125.41-183.04l.042-1.955-1.692-1.01 1.955.042 1.727-3.741-.76 4 1.692 1.01-1.955-.042z"/></g></svg>