<svg xmlns="http://www.w3.org/2000/svg" xmlns:xlink="http://www.w3.org/1999/xlink" viewBox="0 0 32 32"><defs><linearGradient xlink:href="#3" id="4" gradientUnits="userSpaceOnUse" x1="27.558" y1="-133.46" x2="22.09" y2="-134.43"/><linearGradient xlink:href="#3" id="2" gradientUnits="userSpaceOnUse" x1="15.879" y1="-141.91" x2="30.32" y2="-129.74"/><linearGradient id="3"><stop stop-color="#55c03f"/><stop offset="1" stop-color="#198b26"/></linearGradient><linearGradient id="1"><stop stop-color="#f9f9f9"/><stop offset="1" stop-color="#999"/></linearGradient><linearGradient xlink:href="#1" id="0" gradientUnits="userSpaceOnUse" x1="17.658" y1="-133.51" x2="15.02" y2="-125.58"/><radialGradient xlink:href="#1" id="5" cx="-176.59" cy="-120.91" r="3.01" gradientUnits="userSpaceOnUse" gradientTransform="matrix(2.21087.05719-.05496 2.12455 412.97 145.84)"/></defs><rect width="28.2" height="28.2" x="1.898" y="1.898" fill="#fecd38" fill-rule="evenodd" rx="5.575"/><path d="m15.922 6c-3.265 0-5.213 2.037-5.213 2.037l2.996 5.693a4 4 0 0 1 2.295 -.73 4 4 0 0 1 2.184 .654l2.959-5.617c0 0-1.957-2.037-5.221-2.037m.078 9c-1.104 0-2 .896-2 2 0 1.105.896 2 2 2 1.105 0 2-.895 2-2 0-1.105-.895-2-2-2m4.055 1.881c-.01.293-.058.588-.129.879a4 4 0 0 1 -.03 .129c-.005.02-.009.041-.015.062a4 4 0 0 1 -1.998 2.574l3.672 5.393c0 0 2.815-.609 4.447-3.324 1.632-2.715.769-5.354.769-5.354v-.002zm-8.112.082l-6.716.359c0 0-.859 2.647.773 5.362 1.632 2.715 4.443 3.316 4.443 3.316l3.682-5.408c-.357-.213-.682-.479-.973-.785a4 4 0 0 1 -.15 -.166c-.043-.051-.09-.098-.131-.151a4 4 0 0 1 -.004 -.004 4 4 0 0 1 -.277 -.404c-.009-.014-.021-.026-.029-.041-.018-.029-.029-.059-.045-.088a4 4 0 0 1 -.131 -.252c-.274-.56-.422-1.15-.442-1.738" fill="#3f3f3f"/><g transform="translate(-.916 143.06)"><path d="m15.583-142.61c-5.577-1.531-5.951 3.24-4.58 5.493 4.381 6.983 6.796 6.577 9.398 7.895 1.712 2.064 3.451 3.4 6.469 4.1 11.69 1.559 3.242-8.417.92-8.649-5.065.012-7.547-6.123-12.206-8.838" fill="url(#0)"/><path d="m15.583-142.61c3.76.276 5.616-.626 8.93-.421 4.319.283 8.307 2.053 7.838 6.574-.347 2.567-.37 2.25.186 4.296.532 1.535-.252 4.232-.487 4.654-2.715 4.963-1.536 4.965-2.656 7.742l-.906-.418-2.508-11.358c-7.177-.909-10.754-10.11-10.398-11.07" fill="url(#2)"/><path d="m22.374-132.67c.362.274 1.553-5.105 1.172-5.653 1.379 2.44 1.919 4.616 2.435 6.783-1.276-.283-2.289-.554-3.607-1.13" fill="url(#4)"/><circle r="3.01" cy="-119.45" cx="29.06" fill="url(#5)"/></g></svg>