<svg xmlns="http://www.w3.org/2000/svg" xmlns:xlink="http://www.w3.org/1999/xlink" viewBox="0 0 32 32"><defs><linearGradient xlink:href="#3" id="4" gradientUnits="userSpaceOnUse" x1="27.558" y1="-133.46" x2="22.09" y2="-134.43"/><linearGradient xlink:href="#3" id="2" gradientUnits="userSpaceOnUse" x1="15.879" y1="-141.91" x2="30.32" y2="-129.74"/><linearGradient id="3"><stop stop-color="#55c03f"/><stop offset="1" stop-color="#198b26"/></linearGradient><linearGradient id="1"><stop stop-color="#f9f9f9"/><stop offset="1" stop-color="#999"/></linearGradient><linearGradient xlink:href="#1" id="0" gradientUnits="userSpaceOnUse" x1="17.658" y1="-133.51" x2="15.02" y2="-125.58"/><radialGradient xlink:href="#1" id="5" cx="-176.59" cy="-120.91" r="3.01" gradientUnits="userSpaceOnUse" gradientTransform="matrix(2.21087.05719-.05496 2.12455 412.97 145.84)"/></defs><rect width="28.2" height="28.2" x="1.898" y="1.898" fill="#4b5e83" fill-rule="evenodd" rx="5.575"/><path d="M16 4.15625A11.844039 11.844039 0 0 0 14.966797 4.208984 11.844039 11.844039 0 0 0 14.474609 4.269531 11.844039 11.844039 0 0 0 13.783203 4.373047 11.844039 11.844039 0 0 0 13.316406 4.478516 11.844039 11.844039 0 0 0 12.638672 4.652344 11.844039 11.844039 0 0 0 12.195312 4.798828 11.844039 11.844039 0 0 0 11.496094 5.056641 11.844039 11.844039 0 0 0 11.148438 5.212891 11.844039 11.844039 0 0 0 10.417969 5.564453 11.844039 11.844039 0 0 0 10.111328 5.742188 11.844039 11.844039 0 0 0 9.392578 6.181641 11.844039 11.844039 0 0 0 9.07422 6.410156 11.844039 11.844039 0 0 0 8.527344 6.818359 11.844039 11.844039 0 0 0 8.525391 6.820313H5.771V10.05A11.844039 11.844039 0 0 0 5.769531 10.05469 11.844039 11.844039 0 0 0 5.275391 11.00586 11.844039 11.844039 0 0 0 5.208984 11.144531 11.844039 11.844039 0 0 0 4.859375 12.02344 11.844039 11.844039 0 0 0 4.767578 12.273438 11.844039 11.844039 0 0 0 4.537109 13.08008 11.844039 11.844039 0 0 0 4.443359 13.445312 11.844039 11.844039 0 0 0 4.308594 14.203125 11.844039 11.844039 0 0 0 4.244141 14.621094 11.844039 11.844039 0 0 0 4.191406 15.294922 11.844039 11.844039 0 0 0 4.15625 16 11.844039 11.844039 0 0 0 4.212891 17.05664 11.844039 11.844039 0 0 0 4.259766 17.443359 11.844039 11.844039 0 0 0 4.386719 18.271484 11.844039 11.844039 0 0 0 4.443359 18.529297 11.844039 11.844039 0 0 0 4.679688 19.441406 11.844039 11.844039 0 0 0 4.734375 19.611328 11.844039 11.844039 0 0 0 5.103516 20.609375 11.844039 11.844039 0 0 0 5.771484 21.941406V25.18H8.529A11.844039 11.844039 0 0 0 9.472656 25.873047 11.844039 11.844039 0 0 0 9.542969 25.916016 11.844039 11.844039 0 0 0 10.472656 26.466797 11.844039 11.844039 0 0 0 10.667969 26.560547 11.844039 11.844039 0 0 0 11.537109 26.962891 11.844039 11.844039 0 0 0 11.779297 27.05078 11.844039 11.844039 0 0 0 12.642578 27.351562 11.844039 11.844039 0 0 0 12.990234 27.439453 11.844039 11.844039 0 0 0 13.767578 27.625 11.844039 11.844039 0 0 0 14.253906 27.699219 11.844039 11.844039 0 0 0 14.929688 27.791016 11.844039 11.844039 0 0 0 16 27.84375 11.844039 11.844039 0 0 0 17.0332 27.791016 11.844039 11.844039 0 0 0 17.525391 27.730469 11.844039 11.844039 0 0 0 18.216797 27.626953 11.844039 11.844039 0 0 0 18.683594 27.521484 11.844039 11.844039 0 0 0 19.361328 27.347656 11.844039 11.844039 0 0 0 19.804688 27.20117 11.844039 11.844039 0 0 0 20.503906 26.943359 11.844039 11.844039 0 0 0 20.851562 26.787109 11.844039 11.844039 0 0 0 21.582031 26.435547 11.844039 11.844039 0 0 0 21.888672 26.25781 11.844039 11.844039 0 0 0 22.607422 25.818359 11.844039 11.844039 0 0 0 22.925781 25.589844 11.844039 11.844039 0 0 0 23.472656 25.18164 11.844039 11.844039 0 0 0 23.474609 25.17969H26.23V21.949A11.844039 11.844039 0 0 0 26.23047 21.945312 11.844039 11.844039 0 0 0 26.724609 20.994141 11.844039 11.844039 0 0 0 26.791016 20.855469 11.844039 11.844039 0 0 0 27.14063 19.976562 11.844039 11.844039 0 0 0 27.23242 19.726562 11.844039 11.844039 0 0 0 27.462891 18.919922 11.844039 11.844039 0 0 0 27.556641 18.554688 11.844039 11.844039 0 0 0 27.691406 17.796875 11.844039 11.844039 0 0 0 27.755859 17.378906 11.844039 11.844039 0 0 0 27.808594 16.705078 11.844039 11.844039 0 0 0 27.84375 16 11.844039 11.844039 0 0 0 27.787109 14.943359 11.844039 11.844039 0 0 0 27.740234 14.556641 11.844039 11.844039 0 0 0 27.613281 13.728516 11.844039 11.844039 0 0 0 27.556641 13.470703 11.844039 11.844039 0 0 0 27.320312 12.558594 11.844039 11.844039 0 0 0 27.26563 12.388672 11.844039 11.844039 0 0 0 26.896484 11.390625 11.844039 11.844039 0 0 0 26.22852 10.05859V6.82H23.471A11.844039 11.844039 0 0 0 22.527344 6.126953 11.844039 11.844039 0 0 0 22.517578 6.119141 11.844039 11.844039 0 0 0 22.457031 6.083984 11.844039 11.844039 0 0 0 21.527344 5.533203 11.844039 11.844039 0 0 0 21.332031 5.439453 11.844039 11.844039 0 0 0 20.462891 5.03711 11.844039 11.844039 0 0 0 20.220703 4.949219 11.844039 11.844039 0 0 0 19.357422 4.648438 11.844039 11.844039 0 0 0 19.00977 4.560547 11.844039 11.844039 0 0 0 18.232422 4.375 11.844039 11.844039 0 0 0 17.746094 4.300781 11.844039 11.844039 0 0 0 17.07031 4.208984 11.844039 11.844039 0 0 0 16 4.15625" fill="#ffd144"/><circle cx="16" cy="16" r="9.577" fill="#4b5e83"/><path d="m9.6 9.461l2.713 11.836-.248 1.232 3.441.01-.287-1.141.781-2.826.781 2.826-.287 1.141v.002l.002-.002 3.439-.01-.248-1.232 2.713-11.836h-2.877l.096 1.221-1.682 7.312-1.938-7.695-1.938 7.695-1.682-7.312.096-1.221h-2.877m3.91 11.807h.553l-.553.002v-.002m4.428 0h.553v.002l-.553-.002" fill="#fff"/><g transform="translate(-.916 143.06)"><path d="m15.583-142.61c-5.577-1.531-5.951 3.24-4.58 5.493 4.381 6.983 6.796 6.577 9.398 7.895 1.712 2.064 3.451 3.4 6.469 4.1 11.69 1.559 3.242-8.417.92-8.649-5.065.012-7.547-6.123-12.206-8.838" fill="url(#0)"/><path d="m15.583-142.61c3.76.276 5.616-.626 8.93-.421 4.319.283 8.307 2.053 7.838 6.574-.347 2.567-.37 2.25.186 4.296.532 1.535-.252 4.232-.487 4.654-2.715 4.963-1.536 4.965-2.656 7.742l-.906-.418-2.508-11.358c-7.177-.909-10.754-10.11-10.398-11.07" fill="url(#2)"/><path d="m22.374-132.67c.362.274 1.553-5.105 1.172-5.653 1.379 2.44 1.919 4.616 2.435 6.783-1.276-.283-2.289-.554-3.607-1.13" fill="url(#4)"/><circle r="3.01" cy="-119.45" cx="29.06" fill="url(#5)"/></g></svg>