<svg xmlns="http://www.w3.org/2000/svg" viewBox="0 0 32 32"><defs><linearGradient gradientTransform="matrix(-2.65552 0 0 2.58531 193.77-277.73)" id="0" x1="67.894" y1="108.69" x2="67.854" y2="113.11" gradientUnits="userSpaceOnUse"><stop stop-color="#f9f9f9"/><stop offset="1" stop-color="#999"/></linearGradient></defs><rect width="28.2" height="28.2" x="1.898" y="1.898" fill="#fe9700" fill-rule="evenodd" rx="5.575"/><g transform="translate(43.05-3.692)"><path d="m-30.41 9.906c-.626 0-1.129.504-1.129 1.129v10.539c0 .626.504 1.129 1.129 1.129h10.539c.626 0 1.129-.504 1.129-1.129v-9.41l2.258-2.258z" fill="#feea3a"/><g fill="#fff"><path d="m-37.561 16.681l2.258 2.258v9.41c0 .626.504 1.129 1.129 1.129h10.539c.626 0 1.129-.504 1.129-1.129v-10.539c0-.626-.504-1.129-1.129-1.129z"/><path d="m-23.682 16.681c.626 0 1.129.504 1.129 1.129v.753c0-.626-.504-1.129-1.129-1.129h-13.174l-.753-.753z" opacity=".1"/></g><path d="m-30.432 18.94l-.398 2.258h-2.214v.753h2.082l-.4 2.258h-1.682v.753h1.55l-.398 2.258h.753l.398-2.258h1.882l-.398 2.258h.753l.398-2.258h2.591v-.753h-2.458l.4-2.258h2.058v-.753h-1.926l.398-2.258h-.753l-.398 2.258h-1.882l.398-2.258zm.222 3.01h1.882l-.4 2.258h-1.882z" fill="#fe9700" fill-rule="evenodd"/></g>

   xmlns:dc="http://purl.org/dc/elements/1.1/"
   xmlns:cc="http://creativecommons.org/ns#"
   xmlns:rdf="http://www.w3.org/1999/02/22-rdf-syntax-ns#"
   xmlns:svg="http://www.w3.org/2000/svg"
   xmlns="http://www.w3.org/2000/svg"
   xmlns:xlink="http://www.w3.org/1999/xlink"
   xmlns:sodipodi="http://sodipodi.sourceforge.net/DTD/sodipodi-0.dtd"
   xmlns:inkscape="http://www.inkscape.org/namespaces/inkscape"
   version="1"
   width="32"
   height="32"
   id="svg12"
   sodipodi:docname="snow-top-3.svg"
   inkscape:version="0.92.1 r"&gt;
  <path d="m24.627.009c8.36-.339 9.455 9.523 4.064 9.505-.686.003-1.62-.197-3-1.471-14.665-10.216-14.549 2.967-17.708.875-1.727-1.822-1.743 4.653-4.139 5.127-2.122.613-3.699-1.385-3.824-4.503-.366-8.627 4.086-9.427 7.187-9.524 5.974.133 11.562-.045 17.419-.01" fill="url(#0)"/></svg>