<svg xmlns="http://www.w3.org/2000/svg" viewBox="0 0 32 32"><defs><linearGradient gradientTransform="matrix(2.59244 0 0 2.58531-157.93-277.73)" id="0" x1="67.894" y1="108.69" x2="67.854" y2="113.11" gradientUnits="userSpaceOnUse"><stop stop-color="#f9f9f9"/><stop offset="1" stop-color="#999"/></linearGradient></defs><rect width="28.2" height="28.2" x="1.898" y="1.898" fill="#008366" fill-rule="evenodd" rx="5.575"/><path d="m12.732 4.509c-.364.03-.501.087-.638.261-.147.187-.273.231-.811.281-.409.038-.697.113-.806.211-.211.188-.41.645-.41.942 0 .211.021.22.343.168.19-.03.485-.008.663.051.261.086.301.129.218.23-.06.072-.263.052-.487.052-.448 0-.495.125-.183.489l.201.234.346-.185c.394-.211.672-.162.949-.006.106.06.581.131 1.058.157.81.045.595.064.791.292.127.148.302.355.301.525-.002.574-.403 1.591-1.593 3.01-.602.717-.721 2.03-.723 2.376 0 .106-.038.215-.084.243-.087.054-.141-.276-.223-1.359-.082-1.072-.282-1.671-.744-2.148-.271-.28-.522-.447-.774-.514-.441-.118-.468-.208-.109-.357.145-.06.264-.144.264-.185 0-.107-.402-.194-.661-.145-.266.051-.273.004-.033-.251.471-.502-.331-.386-1.162.168-.746.497-1.202 1.01-1.271 1.379-.044.233-.183.437-.497.726-.581.536-.712.807-.638 1.306.109.727.192.787.532.383.213-.253.706-.516.797-.425.088.089-.14.404-.406.562-.336.199-.333.339.011.459.327.114.387.084.572-.282.213-.422.463-.66.815-.774.174-.056.502-.275.73-.486.227-.211.457-.383.509-.383.181 0 .514.42.604.759.05.187.134.93.187 1.652.164 2.226.387 2.54 1.197 4.305.26.566.472 1.085.472 1.154 0 .093-.679.14-1.194.185-1.22.107-1.732.521-1.821 1.475-.032.344-.002.544.116.768.243.462.388.453.324-.02-.055-.405.091-.663.201-.354.081.228.392.555.529.555.139 0 .14-.013.031-.302-.096-.253-.038-.279.208-.093.235.178.314.091.254-.279-.095-.586.841-1.097 1.953-.766.541.16.69.175.929.088.456-.165 1.102-.126 1.399.124.299.252.057.911-.152 1.209-.212.304-.545.432-1.377.533-.422.052-.859.155-.974.23-.228.15-.412.485-.412.754 0 .231.105.217.335-.048.105-.121.27-.219.367-.219.22 0 .221.047.001.327-.158.201-.249.727-.126.727.027 0 .18-.138.339-.307.159-.169.374-.307.477-.307.219 0 .231.067.053.302-.132.175-.181.756-.063.75.036-.002.145-.13.243-.285.165-.264.372-.398 1.069-.692.154-.065.74-.606 1.303-1.202 1.01-1.064.993-1.088.965-1.45l-.029-.369 1.019-.107c.902-.322 1.382-.348 1.907-.076.697.361 1.355.988 1.26 1.576-.07.433-.308 1.255-.91 1.313-1.431-.027-3.427.891-3.202 2.226.186.896 1.347 1.49 2.513 1.756.367.084.856.112 1.472.086 1.543-.065 2.529-.145 3.355-.994.302-.311.692-1.052.834-1.414l.766.418v-2.01l-2 .878 1.048.604c-.123.103-.285.353-.469.542-.812.839-1.368.837-2.383.973-.833.112-1.746-.006-2.314-.257-.465-.206-.826-.651-.826-.983 0-.312.372-.597.82-.612 1.214-.041 1.44-.152 1.44-.152.874-.266 1.702-1.784 1.702-2.74 0-.244.038-.544.085-.667.069-.183.029-.34-.218-.856-.206-.43-.285-.501-.248-.645.044-.175-.038-.305-.462-.734-.459-.464-.504-.684-.407-.838.06-.095.109-.193.109-.218 0-.024-.228-.159-.506-.299-.278-.14-.602-.334-.721-.431-.187-.152-.201-.195-.098-.32.066-.079.097-.167.068-.195-.028-.028-.359-.109-.734-.18-.847-.16-.978-.229-1.013-.533-.015-.133-.059-.239-.096-.234-.038.004-.458.079-.935.167-.937.172-1.15.149-1.15-.128 0-.228.002-.229-.585.084-.957.511-1.735.197-1.494-.607.061-.202.224-.535.364-.738.559-.814 1.625-1.073 3.585-1.163 1.092-.05 1.584-.099 1.904-.244.506-.229 1.667-1.033 1.884-1.436.093-.172.198-.313.236-.313.183 0 .42-.375.42-.667 0-.395.181-.366.287.046.106.409.286.208.275-.307-.009-.437.056-.487.253-.194.213.317.282.105.16-.486-.117-.569-.879-1.961-1.194-2.361-.1-.127-.892-.253-1.027-.281-.185-.038-.43-.192-.696-.635-.2-.333-.459-.642-.603-.717-.227-.118-.292-.117-.638.015-.42.16-.457.226-.24.407.175.145.47.815.47 1.066 0 .179-.003.18-.183.017-.101-.091-.383-.306-.455-.476-.124-.296-.136-.302-.257-.139-.222.301-.16.717.14.931.293.209.557.668.656 1.141.035.169.139.432.23.583.343.565.277 1.887-.251 2.138-.184.087-.776.166-1.687.223-2.094.132-3.045.404-4.049 1.39-.48.472-.512.489-.455.25.091-.384.131-.899.999-2.034 1.114-1.457 1.257-1.807 1.256-2.853-.003-.893-.411-1.91-1.358-2.678-.195-.135-.333-.28-.307-.323.026-.042.207-.077.402-.077.412 0 .42-.135.022-.368-.331-.194-1.431-.365-2.027-.316" fill="#badc86"/>

   xmlns:dc="http://purl.org/dc/elements/1.1/"
   xmlns:cc="http://creativecommons.org/ns#"
   xmlns:rdf="http://www.w3.org/1999/02/22-rdf-syntax-ns#"
   xmlns:svg="http://www.w3.org/2000/svg"
   xmlns="http://www.w3.org/2000/svg"
   xmlns:xlink="http://www.w3.org/1999/xlink"
   xmlns:sodipodi="http://sodipodi.sourceforge.net/DTD/sodipodi-0.dtd"
   xmlns:inkscape="http://www.inkscape.org/namespaces/inkscape"
   version="1"
   width="32"
   height="32"
   id="svg12"
   sodipodi:docname="snow-top-4.svg"
   inkscape:version="0.92.1 r"&gt;
  <path d="m7.196.009c-8.161-.339-9.231 9.523-3.968 9.505.669.003 1.581-.197 2.929-1.471 3.773-4.147 9.01 4.479 14.696-1.042.61-.911 1.804-1.135 2.455-.627 1.045.677 2.87 2.991 3.88 3 2.359.513 4.095-.198 4.816-3.188.185-3.165-2.303-6.286-6.281-6.17-5.832.133-12.809-.045-18.527-.01" fill="url(#0)"/></svg>