<svg xmlns="http://www.w3.org/2000/svg" xmlns:xlink="http://www.w3.org/1999/xlink" viewBox="0 0 32 32"><defs><linearGradient gradientTransform="matrix(-2.54182 0 0 2.58531 185.47-277.37)" id="1" x1="67.894" y1="108.69" x2="67.854" y2="113.11" gradientUnits="userSpaceOnUse"><stop stop-color="#f9f9f9"/><stop offset="1" stop-color="#999"/></linearGradient></defs><g transform="translate(33.23 4.14)"><g fill-rule="evenodd"><path d="m-3.129 17.827h-28.2v2.561c0 3.089 2.488 5.574 5.576 5.574h17.05c3.089 0 5.574-2.486 5.574-5.574z" fill="#ccc"/><path d="m-25.756-2.241c-3.089 0-5.576 2.488-5.576 5.576v14.492h28.2v-14.492c0-3.089-2.486-5.576-5.574-5.576z" fill="#696992"/></g><path d="m-20.449 4.08c-.245 0-.444.199-.444.445v9.11c0 .338.361.552.657.39l8.335-4.555c.307-.169.307-.611 0-.78l-7.502-4.099-.833-.455c-.065-.036-.139-.055-.213-.055" fill="#fff"/><rect x="-13.231" y="20.639" width="8" height="2" fill="#999" rx="1"/><rect x="-29.23" y="20.639" width="16" height="2" opacity=".99" fill="#696992" rx="1"/><circle r="2" cy="21.64" cx="-13.231" fill="#fff"/></g>

   xmlns:dc="http://purl.org/dc/elements/1.1/"
   xmlns:cc="http://creativecommons.org/ns#"
   xmlns:rdf="http://www.w3.org/1999/02/22-rdf-syntax-ns#"
   xmlns:svg="http://www.w3.org/2000/svg"
   xmlns="http://www.w3.org/2000/svg"
   xmlns:xlink="http://www.w3.org/1999/xlink"
   xmlns:sodipodi="http://sodipodi.sourceforge.net/DTD/sodipodi-0.dtd"
   xmlns:inkscape="http://www.inkscape.org/namespaces/inkscape"
   height="32"
   width="32"
   version="1"
   id="svg8"
   sodipodi:docname="snow-top-3.svg"
   inkscape:version="0.92.1 r"&gt;
  <path fill="#00000f" fill-opacity="0" d="m0 0h32v32h-32z" id="0"/><path d="m7.354 6.111c-2.995 2.684-1.381 7.817-3.674 8.291-2.031.613-3.541-1.385-3.66-4.503-.35-8.627 3.911-9.427 6.879-9.524 28.342-2.047 1.762 4.92.455 5.736" fill="url(#1)"/><use xlink:href="#0"/></svg>