<svg xmlns="http://www.w3.org/2000/svg" xmlns:xlink="http://www.w3.org/1999/xlink" viewBox="0 0 32 32"><defs><linearGradient gradientTransform="matrix(-2.54182 0 0 2.58531 185.47-277.37)" id="1" x1="67.894" y1="108.69" x2="67.854" y2="113.11" gradientUnits="userSpaceOnUse"><stop stop-color="#f9f9f9"/><stop offset="1" stop-color="#999"/></linearGradient></defs><rect width="28.2" height="28.2" x="1.898" y="1.898" fill="#c2352a" fill-rule="evenodd" rx="5.575"/><path d="m11.664 10c-.047.001-.1.004-.161.008-.231.014-4.598.777-4.876.852-.294.08-.545.248-.606.407-.104.271.198 1.151.598 1.743.687 1.017 1.688 1.666 3.792 2.457 1.156.434 1.396.544 1.548.709.199.218.034.323-1.492.954-2.385.986-2.858 1.824-3.314 3.065-.135.367-.198 1.336-.102 1.58.123.316.198.313 2.503-.095 2.315-.41 1.824-.434 2.02-.605.239-.508.306-.88.416-1.372.139-.453.489-.926.869-1.176 1.444-.949 4.162-.476 5.633.98.554.548.902.831 1.18 1.682.16.491.323.704.576.751.233.043.238.142 3.184-.38 1.639-.29 2.321-.631 2.417-.701.207-.151.208-.519.001-1.128-.354-1.046-.969-1.909-2.107-2.713-.563-.398-1.274-.774-2.478-1.312-1.145-.512-1.261-.65-1.261-.809 0-.131.021-.19.929-.444 1.99-.556 3.066-1.483 3.066-2.927 0-.634-.128-1.145-.327-1.311-.265-.221-.548-.228-1.66-.04-3.566.602-3.763.726-3.929.977-.088.133-.084.164.077.766.092.345.167.71.166.811-.001.213-.155.569-.3.696-.355.31-1.16.576-1.984.576-.997 0-1.748-.374-2.494-1.116-.539-.536-.814-.988-1.182-1.942-.323-.838-.367-.947-.698-.942" fill="#fff" stroke-width=".987"/>

   xmlns:dc="http://purl.org/dc/elements/1.1/"
   xmlns:cc="http://creativecommons.org/ns#"
   xmlns:rdf="http://www.w3.org/1999/02/22-rdf-syntax-ns#"
   xmlns:svg="http://www.w3.org/2000/svg"
   xmlns="http://www.w3.org/2000/svg"
   xmlns:xlink="http://www.w3.org/1999/xlink"
   xmlns:sodipodi="http://sodipodi.sourceforge.net/DTD/sodipodi-0.dtd"
   xmlns:inkscape="http://www.inkscape.org/namespaces/inkscape"
   height="32"
   width="32"
   version="1"
   id="svg8"
   sodipodi:docname="snow-top-3.svg"
   inkscape:version="0.92.1 r"&gt;
  <path fill="#00000f" fill-opacity="0" d="m0 0h32v32h-32z" id="0"/><path d="m7.354 6.111c-2.995 2.684-1.381 7.817-3.674 8.291-2.031.613-3.541-1.385-3.66-4.503-.35-8.627 3.911-9.427 6.879-9.524 28.342-2.047 1.762 4.92.455 5.736" fill="url(#1)"/><use xlink:href="#0"/></svg>