<svg xmlns="http://www.w3.org/2000/svg" xmlns:xlink="http://www.w3.org/1999/xlink" viewBox="0 0 32 32"><defs><linearGradient gradientTransform="matrix(-2.54182 0 0 2.58531 185.47-277.37)" id="1" x1="67.894" y1="108.69" x2="67.854" y2="113.11" gradientUnits="userSpaceOnUse"><stop stop-color="#f9f9f9"/><stop offset="1" stop-color="#999"/></linearGradient></defs><g fill-rule="evenodd"><rect width="28.2" height="28.2" x="1.898" y="1.898" fill="#f58411" rx="5.575"/><path d="m19.255 8.774l-2.832 3.423c-1.558 1.882-2.833 3.46-2.833 3.506 0 .046 1.333 1.757 2.961 3.803l2.96 3.721h3.101c2.468 0 3.085-.022 3.02-.111-.168-.222-5.645-7.12-5.769-7.265-.115-.135.133-.465 2.611-3.458 1.507-1.82 2.794-3.379 2.86-3.464.113-.147-.043-.155-2.978-.155zm-12.09 0c0 0 5.238 6.923 5.132 6.899.012.034-1.201 1.597-2.695 3.475-1.495 1.877-2.836 3.563-2.979 3.746l-.26.333h6.212l1.453-1.822c1.01-1.264 1.428-1.854 1.372-1.928-.045-.058-.736-.934-1.539-1.944l-1.458-1.835 1.526-1.841c.84-1.012 1.519-1.848 1.509-1.857z" fill="#fff" shape-rendering="geometricPrecision" image-rendering="optimizeQuality" stroke-width=".931"/></g>

   xmlns:dc="http://purl.org/dc/elements/1.1/"
   xmlns:cc="http://creativecommons.org/ns#"
   xmlns:rdf="http://www.w3.org/1999/02/22-rdf-syntax-ns#"
   xmlns:svg="http://www.w3.org/2000/svg"
   xmlns="http://www.w3.org/2000/svg"
   xmlns:xlink="http://www.w3.org/1999/xlink"
   xmlns:sodipodi="http://sodipodi.sourceforge.net/DTD/sodipodi-0.dtd"
   xmlns:inkscape="http://www.inkscape.org/namespaces/inkscape"
   height="32"
   width="32"
   version="1"
   id="svg8"
   sodipodi:docname="snow-top-3.svg"
   inkscape:version="0.92.1 r"&gt;
  <path fill="#00000f" fill-opacity="0" d="m0 0h32v32h-32z" id="0"/><path d="m7.354 6.111c-2.995 2.684-1.381 7.817-3.674 8.291-2.031.613-3.541-1.385-3.66-4.503-.35-8.627 3.911-9.427 6.879-9.524 28.342-2.047 1.762 4.92.455 5.736" fill="url(#1)"/><use xlink:href="#0"/></svg>