<svg xmlns="http://www.w3.org/2000/svg" viewBox="0 0 32 32"><defs><linearGradient gradientTransform="matrix(2.62891 0 0 2.71269-160.16-291.42)" id="0" x1="67.894" y1="108.69" x2="67.854" y2="113.11" gradientUnits="userSpaceOnUse"><stop stop-color="#f9f9f9"/><stop offset="1" stop-color="#999"/></linearGradient></defs><g transform="translate(.015)" fill-rule="evenodd"><g fill="#8e8e8e"><path d="m16 8.431641a7.568707 7.568707 0 0 0 -.535156 .019531 7.568707 7.568707 0 0 0 -.751953 .089844 7.568707 7.568707 0 0 0 -.738282 .166016 7.568707 7.568707 0 0 0 -.716797 .238281 7.568707 7.568707 0 0 0 -.691406 .308594 7.568707 7.568707 0 0 0 -.65625 .376953 7.568707 7.568707 0 0 0 -.615234 .439453 7.568707 7.568707 0 0 0 -.56836 .5 7.568707 7.568707 0 0 0 -.515624 .554688 7.568707 7.568707 0 0 0 -.457032 .601562 7.568707 7.568707 0 0 0 -.396484 .644532 7.568707 7.568707 0 0 0 -.328125 .68164 7.568707 7.568707 0 0 0 -.259766 .710938 7.568707 7.568707 0 0 0 -.1875 .732422A7.568707 7.568707 0 0 0 8.46875 15.244141 7.568707 7.568707 0 0 0 8.431641 16a7.568707 7.568707 0 0 0 .019531 .535156 7.568707 7.568707 0 0 0 .089844 .751953 7.568707 7.568707 0 0 0 .166016 .738282 7.568707 7.568707 0 0 0 .238281 .716797 7.568707 7.568707 0 0 0 .308594 .691406 7.568707 7.568707 0 0 0 .376953 .65625 7.568707 7.568707 0 0 0 .439453 .615234 7.568707 7.568707 0 0 0 .5 .56836 7.568707 7.568707 0 0 0 .554688 .515624 7.568707 7.568707 0 0 0 .601562 .457032 7.568707 7.568707 0 0 0 .644532 .396484 7.568707 7.568707 0 0 0 .68164 .328125 7.568707 7.568707 0 0 0 .710938 .259766 7.568707 7.568707 0 0 0 .732422 .1875 7.568707 7.568707 0 0 0 .748047 .113281 7.568707 7.568707 0 0 0 .755859 .03711 7.568707 7.568707 0 0 0 .535156 -.01953 7.568707 7.568707 0 0 0 .751953 -.08984 7.568707 7.568707 0 0 0 .738282 -.166015 7.568707 7.568707 0 0 0 .716797 -.238281 7.568707 7.568707 0 0 0 .691406 -.308594 7.568707 7.568707 0 0 0 .65625 -.376953 7.568707 7.568707 0 0 0 .615234 -.439453 7.568707 7.568707 0 0 0 .56836 -.5 7.568707 7.568707 0 0 0 .515624 -.554688 7.568707 7.568707 0 0 0 .457032 -.601562 7.568707 7.568707 0 0 0 .396484 -.644532 7.568707 7.568707 0 0 0 .328125 -.68164 7.568707 7.568707 0 0 0 .259766 -.710938 7.568707 7.568707 0 0 0 .1875 -.732422A7.568707 7.568707 0 0 0 23.53125 16.755859 7.568707 7.568707 0 0 0 23.568359 16a7.568707 7.568707 0 0 0 -.01953 -.535156 7.568707 7.568707 0 0 0 -.08984 -.751953 7.568707 7.568707 0 0 0 -.166015 -.738282 7.568707 7.568707 0 0 0 -.238281 -.716797 7.568707 7.568707 0 0 0 -.308594 -.691406 7.568707 7.568707 0 0 0 -.376953 -.65625 7.568707 7.568707 0 0 0 -.439453 -.615234 7.568707 7.568707 0 0 0 -.5 -.56836A7.568707 7.568707 0 0 0 20.875 10.210938 7.568707 7.568707 0 0 0 20.273438 9.753906 7.568707 7.568707 0 0 0 19.628906 9.357422 7.568707 7.568707 0 0 0 18.947266 9.0293 7.568707 7.568707 0 0 0 18.236328 8.769531 7.568707 7.568707 0 0 0 17.503906 8.582031 7.568707 7.568707 0 0 0 16.755859 8.46875 7.568707 7.568707 0 0 0 16 8.431641"/><path d="m22.832 19.234c.002-.004.007-.006.01-.01.005-.008.005-.021.01-.029a7.568707 7.568707 0 0 1 -.01953 .03906"/></g><path d="m4.17 28.904c.704.296 1.404.613 2.145.791 1.072.257 2.173.389 3.283.389.94 0 1.858-.094 2.746-.27.888-.176 1.746-.433 2.564-.768 1.638-.669 3.12-1.637 4.381-2.838 1.26-1.201 2.299-2.633 3.047-4.229.374-.798.674-1.637.895-2.508.221-.871.362-1.776.412-2.703-.026.246-.161.418-.211.648a7.568707 7.568707 0 0 1 -.01367 .08594 7.568707 7.568707 0 0 1 -.1875 .732422 7.568707 7.568707 0 0 1 -.259766 .710938 7.568707 7.568707 0 0 1 -.119141 .248046c-.005.008-.005.021-.01.029-.002.004-.007.006-.01.01a7.568707 7.568707 0 0 1 -.189453 .394531 7.568707 7.568707 0 0 1 -.396484 .644532 7.568707 7.568707 0 0 1 -.457032 .601562 7.568707 7.568707 0 0 1 -.515624 .554688 7.568707 7.568707 0 0 1 -.56836 .5 7.568707 7.568707 0 0 1 -.615234 .439453 7.568707 7.568707 0 0 1 -.65625 .376953 7.568707 7.568707 0 0 1 -.691406 .308594 7.568707 7.568707 0 0 1 -.716797 .238281 7.568707 7.568707 0 0 1 -.738282 .166015 7.568707 7.568707 0 0 1 -.751953 .08984 7.568707 7.568707 0 0 1 -.234375 .0078c.018.019-.444.125-.301.125-.972 0-1.921-.098-2.838-.285-.917-.188-1.802-.466-2.644-.822-.842-.356-1.641-.791-2.391-1.297-.749-.506-1.449-1.084-2.086-1.721-.637-.637-1.213-1.335-1.719-2.084-.506-.749-.943-1.55-1.299-2.393-.356-.842-.633-1.726-.82-2.643-.188-.917-.287-1.868-.287-2.84 0-1.11.131-2.211.389-3.283.178-.741.495-1.44.791-2.145-.704.933-1.197 2.038-1.197 3.303v17.05c0 1.824.925 3.361 2.271 4.377" fill="#ff5757"/><path d="m19.234 9.168c-.004-.002-.006-.007-.01-.01-.008-.005-.021-.005-.029-.01a7.568707 7.568707 0 0 1 .03906 .019531" fill="#8e8e8e"/><path d="m3.096 4.17c-.359.474-.837 1.222-1.05 2.01-.298 1.1-.131 2.312-.13 3.42 0 .972.1 1.923.287 2.84.188.917.464 1.8.82 2.643.356.842.793 1.643 1.299 2.393.506.749 1.082 1.447 1.719 2.084.637.637 1.337 1.215 2.086 1.721.749.506 1.548.941 2.391 1.297.842.356 1.728.635 2.645.822.917.188 1.866.285 2.838.285-.143 0 .319-.106.301-.125-.1.006-.2.01-.301.012-.252 0-.505-.012-.756-.037-.251-.025-.501-.063-.748-.113-.247-.05-.492-.113-.732-.188-.241-.075-.478-.161-.711-.26-.233-.098-.46-.207-.682-.328-.221-.121-.436-.254-.645-.396-.208-.142-.409-.295-.602-.457-.193-.163-.379-.335-.555-.516-.176-.181-.343-.371-.5-.568-.157-.198-.303-.403-.439-.615-.137-.212-.262-.431-.377-.656-.114-.225-.217-.456-.309-.691-.091-.235-.171-.474-.238-.717-.068-.243-.123-.49-.166-.738-.042-.249-.072-.5-.09-.752-.013-.178-.019-.357-.02-.535.003-.143.01-.285.021-.428-.05-.113-.109-.227-.098-.34 0-.003.004-.007.004-.01.051-.927.189-1.831.41-2.701.221-.871.522-1.708.896-2.506.748-1.595 1.787-3.03 3.047-4.227 1.26-1.2 2.744-2.168 4.381-2.836.819-.334 1.675-.594 2.563-.77.887-.176 1.807-.268 2.746-.268 1.119 0 2.246.029 3.288.279.761.183 1.425.597 2.134.897-.932-.701-2.035-1.193-3.297-1.193h-17.05c-1.824 0-3.361.925-4.377 2.271" fill="#baff41"/><path d="m28.904 27.83c.472-.687.849-1.329 1.022-2.07.252-1.074.157-2.247.157-3.358 0-.94-.094-1.858-.27-2.746-.176-.888-.433-1.746-.768-2.564-.669-1.638-1.637-3.12-2.838-4.381-1.201-1.26-2.633-2.297-4.229-3.045-.798-.374-1.637-.676-2.508-.896-.871-.221-1.776-.362-2.703-.412.246.026.418.161.648.211.029.004.057.009.086.014.247.05.492.113.732.188.241.075.478.161.711.26.083.038.166.078.248.119.008.005.021.005.029.01.004.002.006.007.01.01.133.059.265.123.395.189.221.121.436.254.645.396.208.142.409.295.602.457.193.163.379.335.555.516.176.181.343.371.5.568.157.198.303.403.439.615.137.212.262.431.377.656.114.225.217.456.309.691.091.235.171.474.238.717.068.243.123.49.166.738.042.249.072.5.09.752.013.178.019.357.02.535 0 .252-.012.505-.037.756-.023.222-.057.443-.1.662.05-.23.185-.402.211-.648-.05.927-.192 1.832-.412 2.703-.221.871-.521 1.71-.895 2.508-.748 1.596-1.786 3.03-3.047 4.229-1.26 1.201-2.743 2.169-4.381 2.838-.819.334-1.677.592-2.564.768-.888.176-1.806.27-2.746.27-1.11 0-2.211-.131-3.283-.389-.741-.178-1.44-.495-2.145-.791.933.704 2.038 1.197 3.303 1.197h17.05c1.824 0 3.361-.925 4.377-2.271" fill="#ff8514"/><path d="m22.402 1.916c-.939 0-1.859.092-2.746.268-.887.176-1.744.435-2.563.77-1.637.668-3.121 1.636-4.381 2.836-1.26 1.2-2.298 2.632-3.047 4.227-.374.797-.676 1.635-.896 2.506-.221.871-.359 1.774-.41 2.701 0 .003-.004.007-.004.01-.011.113.048.226.098.34.003-.109.008-.219.016-.328.025-.251.063-.501.113-.748.05-.247.113-.492.188-.732.075-.241.161-.478.26-.711.098-.233.207-.46.328-.682.121-.221.254-.436.396-.645.142-.208.295-.409.457-.602.163-.193.335-.379.516-.555.181-.176.371-.343.568-.5.198-.157.403-.303.615-.439.212-.137.431-.262.656-.377.225-.114.456-.217.691-.309.235-.091.474-.171.717-.238.243-.068.49-.123.738-.166.249-.042.5-.072.752-.09.178-.013.357-.019.535-.02.252 0 .505.012.756.037.222.023.443.057.662.1-.23-.05-.402-.185-.648-.211.927.05 1.832.192 2.703.412.871.221 1.71.522 2.508.896 1.596.748 3.03 1.785 4.229 3.045 1.201 1.26 2.169 2.743 2.838 4.381.334.819.592 1.677.768 2.564.176.888.27 1.806.27 2.746 0 1.11-.131 2.211-.389 3.283-.178.741-.495 1.44-.791 2.145.704-.933 1.197-2.038 1.197-3.303v-17.05c0-1.827-.928-3.365-2.277-4.381-.513-.37-1.553-1.039-2.536-1.133-1.067-.103-1.767-.042-2.886-.042" fill="#ffc42e"/></g>

   xmlns:dc="http://purl.org/dc/elements/1.1/"
   xmlns:cc="http://creativecommons.org/ns#"
   xmlns:rdf="http://www.w3.org/1999/02/22-rdf-syntax-ns#"
   xmlns:svg="http://www.w3.org/2000/svg"
   xmlns="http://www.w3.org/2000/svg"
   xmlns:xlink="http://www.w3.org/1999/xlink"
   xmlns:sodipodi="http://sodipodi.sourceforge.net/DTD/sodipodi-0.dtd"
   xmlns:inkscape="http://www.inkscape.org/namespaces/inkscape"
   version="1"
   width="32"
   height="32"
   id="svg12"
   sodipodi:docname="snow-top-1.svg"
   inkscape:version="0.92.1 r"&gt;
  <path d="m7.288.009c-8.276-.356-9.36 9.992-4.02 9.973.679.003 1.604-.207 2.97-1.543 7.256-10.531 14.706 3.573 17.53.919 1.71-1.912 3.496-.418 4.448.115 2.1.643 3.662.041 3.785-3.231.188-3.321-1.889-6.344-5.923-6.223-5.914.14-12.989-.047-18.787-.01" fill="url(#0)"/><path fill="#f00" fill-opacity="0" d="m0 0h32v32h-32z"/></svg>