<svg xmlns="http://www.w3.org/2000/svg" viewBox="0 0 32 32"><defs><linearGradient gradientTransform="matrix(2.59244 0 0 2.58531-157.93-277.73)" id="0" x1="67.894" y1="108.69" x2="67.854" y2="113.11" gradientUnits="userSpaceOnUse"><stop stop-color="#f9f9f9"/><stop offset="1" stop-color="#999"/></linearGradient></defs><rect width="28.2" height="28.2" x="1.898" y="1.898" fill="#4f4f4f" fill-rule="evenodd" rx="5.575"/><g transform="translate(38.737 4.895)"><path d="m-18.219 5.391c-.425.022-.897.121-1.427.276l-.459-.281-8.772 5.263c1.338-.513 2.456-.756 3.142-.812l-2.265 2.567 1.76-.965c-.721 2.01-1.569 3.892-3.514 4.751-.011.025-.011.055-.021.081 1.481 1.658 3.487 2.832 5.77 3.151l1.251 1.729.048-.014 1.236-1.715c2.407-.336 4.513-1.617 6.01-3.42-.077-.016-.156-.031-.261-.028-2.77.024-4.996-.426-5.263-3.452-.072-.383-.133-2.848 3.947-4.066-.411-.265-1.781-.283-2.755-.286-.042-.361.046-1.732 3.194-1.907-.494-.475-.913-.909-1.623-.872m-2.63 1.066c.202.082.228.205.264.338-.352.068-.847.227-.985.046-.063-.062.368-.291.725-.379z" fill="#ee4f47"/><path d="m-27.534 1c-3.9 1.752-6.606 5.571-6.606 10.01 0 6.097 5.106 11.04 11.404 11.04 6.297 0 11.403-4.945 11.403-11.04 0-4.383-2.64-8.165-6.462-9.939l-.119.115c3.02 1.64 4.827 4.76 4.827 8.349 0 4.82-3.597 9.218-8.382 9.885l-1.266 1.754-1.268-1.754c-4.785-.667-8.382-5.065-8.382-9.885 0-3.627 1.854-6.773 4.922-8.398-.021-.043-.05-.092-.071-.138" fill="#309be8"/></g>

   xmlns:dc="http://purl.org/dc/elements/1.1/"
   xmlns:cc="http://creativecommons.org/ns#"
   xmlns:rdf="http://www.w3.org/1999/02/22-rdf-syntax-ns#"
   xmlns:svg="http://www.w3.org/2000/svg"
   xmlns="http://www.w3.org/2000/svg"
   xmlns:xlink="http://www.w3.org/1999/xlink"
   xmlns:sodipodi="http://sodipodi.sourceforge.net/DTD/sodipodi-0.dtd"
   xmlns:inkscape="http://www.inkscape.org/namespaces/inkscape"
   version="1"
   width="32"
   height="32"
   id="svg12"
   sodipodi:docname="snow-top-4.svg"
   inkscape:version="0.92.1 r"&gt;
  <path d="m7.196.009c-8.161-.339-9.231 9.523-3.968 9.505.669.003 1.581-.197 2.929-1.471 3.773-4.147 9.01 4.479 14.696-1.042.61-.911 1.804-1.135 2.455-.627 1.045.677 2.87 2.991 3.88 3 2.359.513 4.095-.198 4.816-3.188.185-3.165-2.303-6.286-6.281-6.17-5.832.133-12.809-.045-18.527-.01" fill="url(#0)"/></svg>