<svg xmlns="http://www.w3.org/2000/svg" viewBox="0 0 32 32"><g fill-rule="evenodd"><path d="m1.898 7.762v16.766c0 3.089 2.488 5.574 5.576 5.574h17.05c3.089 0 5.574-2.486 5.574-5.574v-16.766" fill="#ccc"/><g fill="#f7c13e"><path d="m22.633 1.898c-.03.081-.133.078-.133.174v2.781c0 .337.209.609.469.609h1.063c.26 0 .469-.272.469-.609v-2.781c0-.096-.103-.093-.133-.174h-1.734"/><path d="m17.633 1.898c-.03.081-.133.078-.133.174v2.781c0 .337.209.609.469.609h1.063c.26 0 .469-.272.469-.609v-2.781c0-.096-.103-.093-.133-.174h-1.734"/><path d="m12.633 1.898c-.03.081-.133.078-.133.174v2.781c0 .337.209.609.469.609h1.063c.26 0 .469-.272.469-.609v-2.781c0-.096-.103-.093-.133-.174h-1.734"/></g><path d="m7.633 1.898h-.158c-3.089 0-5.576 2.488-5.576 5.576v.287h28.2v-.287c0-3.089-2.486-5.576-5.574-5.576h-.16c.03.081.133.078.133.174v2.781c0 .337-.209.609-.469.609h-1.063c-.26 0-.469-.272-.469-.609v-2.781c0-.096.103-.093.133-.174h-3.266c.03.081.133.078.133.174v2.781c0 .337-.209.609-.469.609h-1.063c-.26 0-.469-.272-.469-.609v-2.781c0-.096.103-.093.133-.174h-3.266c.03.081.133.078.133.174v2.781c0 .337-.209.609-.469.609h-1.063c-.26 0-.469-.272-.469-.609v-2.781c0-.096.103-.093.133-.174h-3.266c.03.081.133.078.133.174v2.781c0 .337-.209.609-.469.609h-1.063c-.26 0-.469-.272-.469-.609v-2.781c0-.096.103-.093.133-.174" fill="#4f4f4f"/><path d="m7.633 1.898c-.03.081-.133.078-.133.174v2.781c0 .337.209.609.469.609h1.063c.26 0 .469-.272.469-.609v-2.781c0-.096-.103-.093-.133-.174h-1.734" fill="#f7c13e"/></g><path d="m11.489423 12.992002a.999953 .999953 0 0 0 -.696361 1.716931l3.793 3.793-3.793 3.793a.999953 .999953 0 1 0 1.414168 1.412906l3.793-3.793 3.792 3.793a.999953 .999953 0 1 0 1.414168 -1.412906l-3.793-3.793 3.793-3.793A.999955 .999955 0 0 0 19.79277 13.2948L16 17.09 12.207 13.295a.999953 .999953 0 0 0 -.717807 -.302798" fill="#4f4f4f"/>

   xmlns:dc="http://purl.org/dc/elements/1.1/"
   xmlns:cc="http://creativecommons.org/ns#"
   xmlns:rdf="http://www.w3.org/1999/02/22-rdf-syntax-ns#"
   xmlns:svg="http://www.w3.org/2000/svg"
   xmlns="http://www.w3.org/2000/svg"
   xmlns:sodipodi="http://sodipodi.sourceforge.net/DTD/sodipodi-0.dtd"
   xmlns:inkscape="http://www.inkscape.org/namespaces/inkscape"
   height="32"
   width="32"
   version="1"
   id="svg8"
   sodipodi:docname="star-mime-2.svg"
   inkscape:version="0.92.1 r"&gt;
  <g transform="translate(152.47 194.05)" fill="#fff"><path d="m-125.38-193.25l-.077 3.548 3.072 1.831-3.548-.077-3.135 6.791 1.38-7.268-3.072-1.831 3.548.077z"/><path d="m-125.41-183.04l.042-1.955-1.692-1.01 1.955.042 1.727-3.741-.76 4 1.692 1.01-1.955-.042z"/></g></svg>