<?xml version="1.0" encoding="UTF-8" standalone="no"?>
<svg
   xmlns:dc="http://purl.org/dc/elements/1.1/"
   xmlns:cc="http://creativecommons.org/ns#"
   xmlns:rdf="http://www.w3.org/1999/02/22-rdf-syntax-ns#"
   xmlns:svg="http://www.w3.org/2000/svg"
   xmlns="http://www.w3.org/2000/svg"
   xmlns:xlink="http://www.w3.org/1999/xlink"
   xmlns:sodipodi="http://sodipodi.sourceforge.net/DTD/sodipodi-0.dtd"
   xmlns:inkscape="http://www.inkscape.org/namespaces/inkscape"
   viewBox="0 0 32 32"
   version="1.1"
   id="svg18"
   sodipodi:docname="yandex-browser-beta.svg"
   inkscape:version="0.92.1 r"><metadata
   id="metadata24">
  <rdf:RDF>
    <cc:Work
       rdf:about="">
      <dc:format>image/svg+xml</dc:format>
      <dc:type
         rdf:resource="http://purl.org/dc/dcmitype/StillImage" />
    </cc:Work>
  </rdf:RDF>
</metadata>
<defs
   id="defs22">
  <linearGradient
     xlink:href="#2"
     id="1"
     x1="-188.02"
     y1="-134.17999"
     x2="-190.66"
     y2="-126.24"
     gradientUnits="userSpaceOnUse" />
  <linearGradient
     id="2">
    <stop
       stop-color="#f9f9f9"
       id="stop12" />
    <stop
       offset="1"
       stop-color="#999"
       id="stop14" />
  </linearGradient>
  <linearGradient
     id="3"
     x1="-189.8"
     y1="-142.57001"
     x2="-175.35001"
     y2="-130.39999"
     gradientUnits="userSpaceOnUse">
    <stop
       stop-color="#ff383f"
       id="stop7" />
    <stop
       offset="1"
       stop-color="#a02d26"
       id="stop9" />
  </linearGradient>
  <linearGradient
     id="4"
     x1="-178.12"
     y1="-134.12"
     x2="-183.59"
     y2="-135.10001"
     gradientUnits="userSpaceOnUse">
    <stop
       stop-color="#7c0000"
       id="stop2" />
    <stop
       offset="1"
       stop-color="#7c0000"
       stop-opacity="0"
       id="stop4" />
  </linearGradient>
  <radialGradient
     xlink:href="#2"
     id="5"
     cx="-176.59"
     cy="-120.91"
     r="3.01"
     gradientUnits="userSpaceOnUse"
     gradientTransform="matrix(2.21087,0.05719,-0.05496,2.12455,207.3,145.17)" />
</defs>
<sodipodi:namedview
   pagecolor="#ffffff"
   bordercolor="#666666"
   borderopacity="1"
   objecttolerance="10"
   gridtolerance="10"
   guidetolerance="10"
   inkscape:pageopacity="0"
   inkscape:pageshadow="2"
   inkscape:window-width="1680"
   inkscape:window-height="966"
   id="namedview20"
   showgrid="false"
   inkscape:zoom="14.75"
   inkscape:cx="15.666461"
   inkscape:cy="14.711664"
   inkscape:window-x="0"
   inkscape:window-y="0"
   inkscape:window-maximized="1"
   inkscape:current-layer="svg18" />
<rect
   width="28.2"
   height="28.2"
   x="1.898"
   y="1.898"
   fill="#fff"
   fill-rule="evenodd"
   rx="5.575"
   id="rect2"
   style="fill:#f2f2f2" />
<g
   transform="matrix(.83151 0 0 .83151 2.69 1.579)"
   fill="#fa424e"
   id="g10"
   style="fill:#e63538;fill-opacity:1">
  <path
     d="m14 15h4v12h-4z"
     id="path4"
     style="fill:#e63538;fill-opacity:1" />
  <path
     d="m22.485 7.686l2.829 2.829-8.486 8.485-2.828-2.828"
     id="path6"
     style="fill:#e63538;fill-opacity:1" />
  <path
     d="m9.528 7.686l-2.828 2.829 8.485 8.485 2.829-2.828"
     id="path8"
     style="fill:#e63538;fill-opacity:1" />
</g>


   xmlns:dc=&quot;http://purl.org/dc/elements/1.1/&quot;
   xmlns:cc=&quot;http://creativecommons.org/ns#&quot;
   xmlns:rdf=&quot;http://www.w3.org/1999/02/22-rdf-syntax-ns#&quot;
   xmlns:svg=&quot;http://www.w3.org/2000/svg&quot;
   xmlns=&quot;http://www.w3.org/2000/svg&quot;
   xmlns:sodipodi=&quot;http://sodipodi.sourceforge.net/DTD/sodipodi-0.dtd&quot;
   xmlns:inkscape=&quot;http://www.inkscape.org/namespaces/inkscape&quot;
   height=&quot;32&quot;
   width=&quot;32&quot;
   version=&quot;1&quot;
   id=&quot;svg8&quot;
   sodipodi:docname=&quot;star-mime-2.svg&quot;
   inkscape:version=&quot;0.92.1 r&quot;&gt;
  <g
   transform="matrix(-1,0,0,1,-172.75668,143.72161)"
   id="g66">
  <path
     style="fill:url(#1)"
     inkscape:connector-curvature="0"
     d="m -190.09,-143.27 c -5.577,-1.531 -5.951,3.24 -4.58,5.493 4.381,6.983 6.796,6.577 9.398,7.895 1.712,2.064 3.451,3.4 6.469,4.1 11.69,1.559 3.242,-8.417 0.92,-8.649 -5.065,0.012 -7.547,-6.123 -12.206,-8.838"
     id="path58" />
  <path
     style="fill:url(#3)"
     inkscape:connector-curvature="0"
     d="m -190.09,-143.27 c 3.76,0.276 5.616,-0.626 8.93,-0.421 4.319,0.283 8.307,2.053 7.838,6.574 -0.347,2.567 -0.37,2.25 0.186,4.296 0.532,1.535 -0.252,4.232 -0.487,4.654 -2.715,4.963 -1.536,4.965 -2.656,7.742 l -0.906,-0.418 -2.508,-11.358 c -7.177,-0.909 -10.754,-10.11 -10.398,-11.07"
     id="path60" />
  <path
     style="fill:url(#4)"
     inkscape:connector-curvature="0"
     d="m -183.3,-133.33 c 0.362,0.274 1.553,-5.105 1.172,-5.653 1.379,2.44 1.919,4.616 2.435,6.783 -1.276,-0.283 -2.289,-0.554 -3.607,-1.13"
     id="path62" />
  <circle
     style="fill:url(#5)"
     r="3.01"
     cy="-120.11"
     cx="-176.61"
     id="circle64" />
</g>
</svg>
