<svg xmlns="http://www.w3.org/2000/svg" viewBox="0 0 32 32"><defs><linearGradient gradientTransform="matrix(2.54182 0 0 2.58531-153.47-277.37)" id="0" x1="67.894" y1="108.69" x2="67.854" y2="113.11" gradientUnits="userSpaceOnUse"><stop stop-color="#f9f9f9"/><stop offset="1" stop-color="#999"/></linearGradient></defs><rect width="28.2" height="28.2" x="1.898" y="1.898" fill="#fabd7f" fill-rule="evenodd" rx="5.575"/><g transform="translate(65.34 11.83)"><path d="m-53.3-3.966c-.504 0-.91.414-.91.929v9.266l-2.806-2.865c-.356-.364-.93-.364-1.286 0l-.643.657c-.356.364-.356.949 0 1.313l4.89 4.992a5.458395 5.572146 0 0 0 5.30465 4.282519 5.458395 5.572146 0 0 0 5.458394 -5.572146v-12.07c0-.514-.406-.929-.91-.929h-.91c-.504 0-.91.414-.91.929v5.239c0-.33-.406-.596-.91-.596h-.91c-.504 0-.91.266-.91.596v.004c0-.332-.406-.599-.91-.599h-.91c-.504 0-.91.267-.91.599v-5.243c0-.514-.406-.929-.91-.929h-.91" fill="#fff" stroke-width=".46"/><path d="m20.09 4.656c-1.105 0-2.094.687-2.094 2.344 0 1.657.895 3 2 3 1.105 0 2-1.343 2-3 0-1.657-.802-2.344-1.906-2.344m17.906 0c-1.105 0-2 .687-2 2.344 0 1.657.895 3 2 3 1.105 0 2-1.343 2-3 0-1.657-.895-2.344-2-2.344m-29.24 15.655c-.277.022-.577.164-.936.371-.957.552-1.977 1.356-1.148 2.791.828 1.435 2.276 2.15 3.232 1.598.957-.552 1.061-2.163.232-3.598-.518-.897-.919-1.198-1.381-1.162z" transform="matrix(.45487 0 0 .46435-61.943-5.824)" fill="#facea2"/><path d="m-53.3-3.966c-.504 0-.91.414-.91.929v9.266l-2.806-2.865c-.356-.364-.93-.364-1.286 0l-.643.657c-.356.364-.356.949 0 1.313l4.89 4.992c.585 2.509 2.779 4.28 5.305 4.283 3.01 0 5.458-2.495 5.458-5.572v-12.07c0-.514-.406-.929-.91-.929h-.91c-.504 0-.91.414-.91.929v5.239c0-.33-.406-.596-.91-.596h-.91c-.504 0-.91.266-.91.596v.004c0-.332-.406-.599-.91-.599h-.91c-.504 0-.91.267-.91.599v-5.243c0-.514-.406-.929-.91-.929zm0 .697h.91c.138 0 .227.091.227.232v8.215c.013.817 1.155.901 1.345.108.041-.022.126-2.982.247-2.982h.91c.121 0 .206 2.496.247 2.518.17.708 1.156.708 1.326 0 .042-.022.126-2.518.247-2.518h.91c.121 0 .206 3.1.248 3.122.194.79 1.331.703 1.344-.111v-8.35c0-.141.09-.232.227-.232h.91c.138 0 .227.091.227.232v12.07c0 2.701-2.13 4.875-4.775 4.876-2.214-.002-4.13-1.549-4.642-3.747-.029-.125-.092-.24-.181-.331l-4.89-4.992c-.097-.1-.097-.229 0-.328l.643-.657c.097-.1.224-.1.322 0l2.806 2.865c.43.439 1.164.128 1.165-.492v-9.266c0-.141.09-.232.227-.232" fill="#e8a560" stroke-width=".46"/></g>

   xmlns:dc="http://purl.org/dc/elements/1.1/"
   xmlns:cc="http://creativecommons.org/ns#"
   xmlns:rdf="http://www.w3.org/1999/02/22-rdf-syntax-ns#"
   xmlns:svg="http://www.w3.org/2000/svg"
   xmlns="http://www.w3.org/2000/svg"
   xmlns:xlink="http://www.w3.org/1999/xlink"
   xmlns:sodipodi="http://sodipodi.sourceforge.net/DTD/sodipodi-0.dtd"
   xmlns:inkscape="http://www.inkscape.org/namespaces/inkscape"
   height="32"
   width="32"
   version="1"
   id="svg8"
   sodipodi:docname="snow-top-2.svg"
   inkscape:version="0.92.1 r"&gt;
  <path d="m24.646 6.111c2.995 2.684 1.381 7.817 3.674 8.291 2.031.613 3.541-1.385 3.66-4.503.35-8.627-3.911-9.427-6.879-9.524-28.342-2.047-1.762 4.92-.455 5.736" fill="url(#0)"/></svg>