<svg xmlns="http://www.w3.org/2000/svg" viewBox="0 0 32 32"><rect width="28.2" height="28.2" x="1.898" y="1.898" fill="#e9a84a" fill-rule="evenodd" rx="5.575"/><path d="m8 7c-.831 0-1.5.669-1.5 1.5v15c0 .831.669 1.5 1.5 1.5.831 0 1.5-.669 1.5-1.5v-15c0-.831-.669-1.5-1.5-1.5" fill="#a47634"/><path d="m10.5 12.500001a2.5 2.5 0 0 1 -2.5 2.5 2.5 2.5 0 0 1 -2.5 -2.5 2.5 2.5 0 0 1 2.5 -2.5 2.5 2.5 0 0 1 2.5 2.5" fill="#fff"/><path d="m24 7c-.831 0-1.5.669-1.5 1.5v15c0 .831.669 1.5 1.5 1.5.831 0 1.5-.669 1.5-1.5v-15c0-.831-.669-1.5-1.5-1.5" fill="#a47634"/><path d="M26.5 15.500001A2.5 2.5 0 0 1 24 18a2.5 2.5 0 0 1 -2.5 -2.499999 2.5 2.5 0 0 1 2.5 -2.5 2.5 2.5 0 0 1 2.5 2.5" fill="#fff"/><path d="m16 7c-.831 0-1.5.669-1.5 1.5v15c0 .831.669 1.5 1.5 1.5.831 0 1.5-.669 1.5-1.5v-15c0-.831-.669-1.5-1.5-1.5" fill="#a47634"/><path d="M18.5 19.5A2.5 2.5 0 0 1 16 22 2.5 2.5 0 0 1 13.5 19.5 2.5 2.5 0 0 1 16 17a2.5 2.5 0 0 1 2.5 2.5" fill="#fff"/>

   xmlns:dc="http://purl.org/dc/elements/1.1/"
   xmlns:cc="http://creativecommons.org/ns#"
   xmlns:rdf="http://www.w3.org/1999/02/22-rdf-syntax-ns#"
   xmlns:svg="http://www.w3.org/2000/svg"
   xmlns="http://www.w3.org/2000/svg"
   xmlns:sodipodi="http://sodipodi.sourceforge.net/DTD/sodipodi-0.dtd"
   xmlns:inkscape="http://www.inkscape.org/namespaces/inkscape"
   height="32"
   width="32"
   version="1"
   id="svg8"
   sodipodi:docname="star-mime-2.svg"
   inkscape:version="0.92.1 r"&gt;
  <g transform="translate(152.47 194.05)" fill="#fff"><path d="m-125.38-193.25l-.077 3.548 3.072 1.831-3.548-.077-3.135 6.791 1.38-7.268-3.072-1.831 3.548.077z"/><path d="m-125.41-183.04l.042-1.955-1.692-1.01 1.955.042 1.727-3.741-.76 4 1.692 1.01-1.955-.042z"/></g></svg>