<svg xmlns="http://www.w3.org/2000/svg" xmlns:xlink="http://www.w3.org/1999/xlink" viewBox="0 0 32 32"><defs><linearGradient id="4" x1="-178.12" y1="-134.12" x2="-183.59" y2="-135.1" gradientUnits="userSpaceOnUse"><stop stop-color="#7c0000"/><stop offset="1" stop-color="#7c0000" stop-opacity="0"/></linearGradient><linearGradient id="3" x1="-189.8" y1="-142.57" x2="-175.35" y2="-130.4" gradientUnits="userSpaceOnUse"><stop stop-color="#ff383f"/><stop offset="1" stop-color="#a02d26"/></linearGradient><linearGradient id="2"><stop stop-color="#f9f9f9"/><stop offset="1" stop-color="#999"/></linearGradient><linearGradient xlink:href="#2" id="1" x1="-188.02" y1="-134.18" x2="-190.66" y2="-126.24" gradientUnits="userSpaceOnUse"/><radialGradient xlink:href="#2" id="5" cx="-176.59" cy="-120.91" r="3.01" gradientUnits="userSpaceOnUse" gradientTransform="matrix(2.21087.05719-.05496 2.12455 207.3 145.17)"/></defs><rect width="28.2" height="28.2" x="1.898" y="1.898" fill="#5b5b5b" fill-rule="evenodd" rx="5.575"/><g transform="matrix(.85763 0 0 .85763 2.278 2.278)" fill="#8e8e8e" stroke-width="1.166"><g transform="matrix(0 1-1 0 0 0)"><path d="m20-29h1v26h-1z"/><path d="m23-29h1v26h-1z"/><path d="m26-29h1v26h-1z"/><path d="m11-29h1v26h-1z"/><path d="m14-29h1v26h-1z"/><path d="m17-29h1v26h-1z"/><path d="m8-29h1v26h-1z"/><path d="m5-29h1v26h-1z"/></g><g transform="scale(-1-1)"><path d="m-12-29h1v26h-1z"/><path d="m-9-29h1v26h-1z"/><path d="m-6-29h1v26h-1z"/><path d="m-21-29h1v26h-1z"/><path d="m-18-29h1v26h-1z"/><path d="m-15-29h1v26h-1z"/><path d="m-24-29h1v26h-1z"/><path d="m-27-29h1v26h-1z"/></g></g><g stroke-width="1"><rect width="20.583" height="20.583" x="-26.292" y="-26.292" rx="1.072" transform="matrix(0-1-1 0 0 0)" fill="#b7b7b7"/><g fill="#666"><path d="m8.281 11.712h5.146v.858h-5.146z"/><path d="m14.285 11.712h2.573v.858h-2.573z"/><path d="m17.715 11.712h6v.858h-6z"/><path d="m8.281 15.14h6.861v.858h-6.861z"/><path d="m16 15.14h6.861v.858h-6.861z"/><path d="m8.281 18.573h2.573v.858h-2.573z"/><path d="m11.712 18.573h2.573v.858h-2.573z"/><path d="m15.14 18.573h5.146v.858h-5.146z"/></g></g><path d="m32 .157l-.27 2.221-.122-2.378" fill="#f9f9f9" id="0"/><use xlink:href="#0"/><path d="m32 .113l-.27 1.6-.122-1.713" fill="#f9f9f9"/><g transform="matrix(-1 0 0 1-172.76 143.72)"><path d="m-190.09-143.27c-5.577-1.531-5.951 3.24-4.58 5.493 4.381 6.983 6.796 6.577 9.398 7.895 1.712 2.064 3.451 3.4 6.469 4.1 11.69 1.559 3.242-8.417.92-8.649-5.065.012-7.547-6.123-12.206-8.838" fill="url(#1)"/><path d="m-190.09-143.27c3.76.276 5.616-.626 8.93-.421 4.319.283 8.307 2.053 7.838 6.574-.347 2.567-.37 2.25.186 4.296.532 1.535-.252 4.232-.487 4.654-2.715 4.963-1.536 4.965-2.656 7.742l-.906-.418-2.508-11.358c-7.177-.909-10.754-10.11-10.398-11.07" fill="url(#3)"/><path d="m-183.3-133.33c.362.274 1.553-5.105 1.172-5.653 1.379 2.44 1.919 4.616 2.435 6.783-1.276-.283-2.289-.554-3.607-1.13" fill="url(#4)"/><circle r="3.01" cy="-120.11" cx="-176.61" fill="url(#5)"/></g></svg>