<svg xmlns="http://www.w3.org/2000/svg" viewBox="0 0 32 32"><defs><linearGradient gradientTransform="matrix(-2.65552 0 0 2.58531 193.77-277.73)" id="0" x1="67.894" y1="108.69" x2="67.854" y2="113.11" gradientUnits="userSpaceOnUse"><stop stop-color="#f9f9f9"/><stop offset="1" stop-color="#999"/></linearGradient></defs><rect width="28.2" height="28.2" x="1.898" y="1.898" fill="#2caac6" fill-rule="evenodd" rx="5.575"/><path d="m6.698 12.03v3.967c0 .881-.07 2.396.51 3.102.964 1.616 3.03 5.113 3.824 6.714.259.479.833.606 1.558.606h3.409 3.409c.725 0 1.3-.127 1.558-.606.793-1.601 2.86-5.098 3.824-6.714.58-.706.51-2.221.51-3.102v-3.967c0-3.328-4.134-6.454-9.302-6.454-5.168 0-9.302 3.126-9.302 6.454" fill="#6e6e6e"/><path d="m7.998 15.982c-.603.004-1.206.013-1.299.027v.512c0 .881-.071 1.875.509 2.58.964 1.616 3.03 5.113 3.824 6.714.259.479.834.606 1.559.606h3.409 3.409c.725 0 1.3-.127 1.559-.606.793-1.601 2.86-5.098 3.824-6.714.58-.706.509-1.7.509-2.58v-.512c-.108 0-2.267-.015-2.361-.01-2.102-.018-2.01.733-2.879 2.085-.811 1.401-.815 3.149-1.22 4.168-.571-1.966-.256-5.88-2.841-5.88-2.585 0-2.27 3.914-2.841 5.88-.405-1.019-.185-2.767-.997-4.168-.562-.952-1.494-2.022-2.726-2.1-.083-.005-.834-.006-1.438-.002" fill="#585858"/><path d="m12.591 26.421h3.409 3.409l-.568-4.168c-.571-1.966-.256-5.732-2.841-5.732-2.585 0-2.27 3.765-2.841 5.732z" fill="#4b4b4b"/><path d="m8.929 14.511v1.489c1.54-.241 2.299 1 2.936 2.084.811 1.401.889 3.224 1.294 4.243.571-1.966.256-5.583 2.841-5.583 2.585 0 2.27 3.616 2.841 5.583.405-1.019.483-2.842 1.294-4.243.923-1.443 1.296-2.084 2.936-2.084v-1.489h-7.07" fill="#7ac4eb"/>

   xmlns:dc="http://purl.org/dc/elements/1.1/"
   xmlns:cc="http://creativecommons.org/ns#"
   xmlns:rdf="http://www.w3.org/1999/02/22-rdf-syntax-ns#"
   xmlns:svg="http://www.w3.org/2000/svg"
   xmlns="http://www.w3.org/2000/svg"
   xmlns:xlink="http://www.w3.org/1999/xlink"
   xmlns:sodipodi="http://sodipodi.sourceforge.net/DTD/sodipodi-0.dtd"
   xmlns:inkscape="http://www.inkscape.org/namespaces/inkscape"
   version="1"
   width="32"
   height="32"
   id="svg12"
   sodipodi:docname="snow-top-3.svg"
   inkscape:version="0.92.1 r"&gt;
  <path d="m24.627.009c8.36-.339 9.455 9.523 4.064 9.505-.686.003-1.62-.197-3-1.471-14.665-10.216-14.549 2.967-17.708.875-1.727-1.822-1.743 4.653-4.139 5.127-2.122.613-3.699-1.385-3.824-4.503-.366-8.627 4.086-9.427 7.187-9.524 5.974.133 11.562-.045 17.419-.01" fill="url(#0)"/></svg>