<svg xmlns="http://www.w3.org/2000/svg" viewBox="0 0 32 32"><defs><linearGradient gradientTransform="matrix(-2.65552 0 0 2.58531 193.77-277.73)" id="0" x1="67.894" y1="108.69" x2="67.854" y2="113.11" gradientUnits="userSpaceOnUse"><stop stop-color="#f9f9f9"/><stop offset="1" stop-color="#999"/></linearGradient></defs><rect width="28.2" height="28.2" x="1.898" y="1.898" fill="#49cbc6" fill-rule="evenodd" rx="5.575"/><path d="m6.105 9.404v1.649h8.246l-8.199 11.544h11.497v-1.649h-8.246l8.199-11.544m5.01 4.947c-1.244 0-2.283.361-3.03 1.102-.744.738-1.108 1.778-1.108 3.02 0 1.243.363 2.28 1.106 3.02l.002.002c.746.737 1.786 1.097 3.03 1.097.568 0 1.109-.072 1.619-.217h.002.002c.498-.145 1.035-.355 1.482-.659l.18-.122v-3.949h-3.298v1.649h1.646v1.443c-.135.058-.263.122-.425.158-.199.041-.786.077-1.121.077-.839 0-1.64-.258-1.965-.602-.372-.398-.609-1.01-.609-1.897.058-1.754 1.116-2.448 2.574-2.506.725.029 3.198.029 3.198.029v-1.649z" fill="#303030"/>

   xmlns:dc="http://purl.org/dc/elements/1.1/"
   xmlns:cc="http://creativecommons.org/ns#"
   xmlns:rdf="http://www.w3.org/1999/02/22-rdf-syntax-ns#"
   xmlns:svg="http://www.w3.org/2000/svg"
   xmlns="http://www.w3.org/2000/svg"
   xmlns:xlink="http://www.w3.org/1999/xlink"
   xmlns:sodipodi="http://sodipodi.sourceforge.net/DTD/sodipodi-0.dtd"
   xmlns:inkscape="http://www.inkscape.org/namespaces/inkscape"
   version="1"
   width="32"
   height="32"
   id="svg12"
   sodipodi:docname="snow-top-3.svg"
   inkscape:version="0.92.1 r"&gt;
  <path d="m24.627.009c8.36-.339 9.455 9.523 4.064 9.505-.686.003-1.62-.197-3-1.471-14.665-10.216-14.549 2.967-17.708.875-1.727-1.822-1.743 4.653-4.139 5.127-2.122.613-3.699-1.385-3.824-4.503-.366-8.627 4.086-9.427 7.187-9.524 5.974.133 11.562-.045 17.419-.01" fill="url(#0)"/></svg>