<?xml version="1.0" encoding="UTF-8" standalone="no"?>
<svg viewBox="0 0 50 50"
 xmlns="http://www.w3.org/2000/svg" xmlns:xlink="http://www.w3.org/1999/xlink"  version="1.2" baseProfile="tiny">
<title>Qt SVG Document</title>
<desc>Generated with Qt</desc>
<defs>
</defs>
<g fill="none" stroke="black" stroke-width="1" fill-rule="evenodd" stroke-linecap="square" stroke-linejoin="bevel" >

<g fill="#e81123" fill-opacity="1" stroke="none" transform="matrix(1.92308,0,0,2.27273,0,0)"
font-family="Noto Sans" font-size="10" font-weight="400" font-style="normal" 
>
<path vector-effect="none" fill-rule="nonzero" d="M0,0 L26,0 L26,22 L0,22 L0,0"/>
</g>

<g fill="#ffffff" fill-opacity="1" stroke="none" transform="matrix(1.92308,0,0,2.27273,0,0)"
font-family="Noto Sans" font-size="10" font-weight="400" font-style="normal" 
>
<path vector-effect="none" fill-rule="nonzero" d="M9,7 L9,8 L10,8 L10,7 L9,7 M10,8 L10,9 L11,9 L11,8 L10,8 M11,9 L11,10 L12,10 L12,9 L11,9 M12,10 L12,12 L14,12 L14,10 L12,10 M14,10 L15,10 L15,9 L14,9 L14,10 M15,9 L16,9 L16,8 L15,8 L15,9 M16,8 L17,8 L17,7 L16,7 L16,8 M14,12 L14,13 L15,13 L15,12 L14,12 M15,13 L15,14 L16,14 L16,13 L15,13 M16,14 L16,15 L17,15 L17,14 L16,14 M12,12 L11,12 L11,13 L12,13 L12,12 M11,13 L10,13 L10,14 L11,14 L11,13 M10,14 L9,14 L9,15 L10,15 L10,14"/>
</g>

<g fill="#ffffff" fill-opacity="1" stroke="none" transform="matrix(1.92308,0,0,2.27273,0,0)"
font-family="Noto Sans" font-size="10" font-weight="400" font-style="normal" 
opacity="0.7" >
<path vector-effect="none" fill-rule="nonzero" d="M8,6 L8,7 L9,7 L9,6 L8,6 M17,6 L17,7 L18,7 L18,6 L17,6 M8,15 L8,16 L9,16 L9,15 L8,15 M17,15 L17,16 L18,16 L18,15 L17,15"/>
</g>

<g fill="#ffffff" fill-opacity="1" stroke="none" transform="matrix(1.92308,0,0,2.27273,0,0)"
font-family="Noto Sans" font-size="10" font-weight="400" font-style="normal" 
opacity="0.3" >
<path vector-effect="none" fill-rule="nonzero" d="M9,6 L9,7 L10,7 L10,6 L9,6 M10,7 L10,8 L11,8 L11,7 L10,7 M11,8 L11,9 L12,9 L12,8 L11,8 M12,9 L12,10 L14,10 L14,9 L12,9 M14,9 L15,9 L15,8 L14,8 L14,9 M15,8 L16,8 L16,7 L15,7 L15,8 M16,7 L17,7 L17,6 L16,6 L16,7 M17,7 L17,8 L18,8 L18,7 L17,7 M17,8 L16,8 L16,9 L17,9 L17,8 M16,9 L15,9 L15,10 L16,10 L16,9 M15,10 L14,10 L14,12 L15,12 L15,10 M15,12 L15,13 L16,13 L16,12 L15,12 M16,13 L16,14 L17,14 L17,13 L16,13 M17,14 L17,15 L18,15 L18,14 L17,14 M17,15 L16,15 L16,16 L17,16 L17,15 M16,15 L16,14 L15,14 L15,15 L16,15 M15,14 L15,13 L14,13 L14,14 L15,14 M14,13 L14,12 L12,12 L12,13 L14,13 M12,13 L11,13 L11,14 L12,14 L12,13 M11,14 L10,14 L10,15 L11,15 L11,14 M10,15 L9,15 L9,16 L10,16 L10,15 M9,15 L9,14 L8,14 L8,15 L9,15 M9,14 L10,14 L10,13 L9,13 L9,14 M10,13 L11,13 L11,12 L10,12 L10,13 M11,12 L12,12 L12,10 L11,10 L11,12 M11,10 L11,9 L10,9 L10,10 L11,10 M10,9 L10,8 L9,8 L9,9 L10,9 M9,8 L9,7 L8,7 L8,8 L9,8"/>
</g>

<g fill="none" stroke="#000000" stroke-opacity="1" stroke-width="1" stroke-linecap="square" stroke-linejoin="bevel" transform="matrix(1,0,0,1,0,0)"
font-family="Noto Sans" font-size="10" font-weight="400" font-style="normal" 
>
</g>
</g>
</svg>
