<?xml version="1.0" encoding="UTF-8" standalone="no"?>
<svg
   xmlns:dc="http://purl.org/dc/elements/1.1/"
   xmlns:cc="http://creativecommons.org/ns#"
   xmlns:rdf="http://www.w3.org/1999/02/22-rdf-syntax-ns#"
   xmlns:svg="http://www.w3.org/2000/svg"
   xmlns="http://www.w3.org/2000/svg"
   xmlns:sodipodi="http://sodipodi.sourceforge.net/DTD/sodipodi-0.dtd"
   xmlns:inkscape="http://www.inkscape.org/namespaces/inkscape"
   width="22"
   height="22"
   viewBox="0 0 22 22"
   version="1.1"
   id="svg7"
   sodipodi:docname="contact-new-symbolic.svg"
   inkscape:version="0.92.1 r">
  <metadata
     id="metadata11">
    <rdf:RDF>
      <cc:Work
         rdf:about="">
        <dc:format>image/svg+xml</dc:format>
        <dc:type
           rdf:resource="http://purl.org/dc/dcmitype/StillImage" />
        <dc:title></dc:title>
      </cc:Work>
    </rdf:RDF>
  </metadata>
  <sodipodi:namedview
     pagecolor="#ffffff"
     bordercolor="#666666"
     borderopacity="1"
     objecttolerance="10"
     gridtolerance="10"
     guidetolerance="10"
     inkscape:pageopacity="0"
     inkscape:pageshadow="2"
     inkscape:window-width="769"
     inkscape:window-height="480"
     id="namedview9"
     showgrid="false"
     inkscape:zoom="10.727273"
     inkscape:cx="11"
     inkscape:cy="11"
     inkscape:window-x="0"
     inkscape:window-y="0"
     inkscape:window-maximized="0"
     inkscape:current-layer="svg7" />
  <defs
     id="defs3">
    <style
       type="text/css"
       id="current-color-scheme">
   .ColorScheme-Text { color:#d3dae3; } .ColorScheme-Highlight { color:#5294e2; }
  </style>
  </defs>
  <path
     style="fill:currentColor;opacity:1"
     class="ColorScheme-Text"
     transform="translate(3 3)"
     d="M 3 1.0097656 C 1.892 1.0097656 1 1.9017656 1 3.0097656 L 1 13.009766 C 1 14.117766 1.892 15.009766 3 15.009766 L 13 15.009766 C 14.108 15.009766 15 14.117766 15 13.009766 L 15 3.0097656 C 15 1.9017656 14.108 1.0097656 13 1.0097656 L 3 1.0097656 z M 8 4.0097656 C 9.1046 4.0097656 10 4.9052356 10 6.0097656 C 10 7.1142956 9.10458 8.0097656 8 8.0097656 C 6.89542 8.0097656 6 7.1142956 6 6.0097656 C 6 4.9052356 6.89543 4.0097656 8 4.0097656 z M 8 9.0097656 C 11.9998 9.0077656 12 11.677734 12 11.677734 L 12 12.009766 L 4 12.009766 L 4 11.677734 C 4 11.677734 3.99985 9.0120656 8 9.0097656 z"
     id="path5" />
</svg>
