<?xml version="1.0" encoding="UTF-8" standalone="no"?>
<svg
   xmlns:dc="http://purl.org/dc/elements/1.1/"
   xmlns:cc="http://creativecommons.org/ns#"
   xmlns:rdf="http://www.w3.org/1999/02/22-rdf-syntax-ns#"
   xmlns:svg="http://www.w3.org/2000/svg"
   xmlns="http://www.w3.org/2000/svg"
   xmlns:sodipodi="http://sodipodi.sourceforge.net/DTD/sodipodi-0.dtd"
   xmlns:inkscape="http://www.inkscape.org/namespaces/inkscape"
   width="22"
   height="22"
   version="1.1"
   id="svg6"
   sodipodi:docname="dino-double-tick-symbolic.svg"
   inkscape:version="0.92.1 r">
  <metadata
     id="metadata12">
    <rdf:RDF>
      <cc:Work
         rdf:about="">
        <dc:format>image/svg+xml</dc:format>
        <dc:type
           rdf:resource="http://purl.org/dc/dcmitype/StillImage" />
        <dc:title></dc:title>
      </cc:Work>
    </rdf:RDF>
  </metadata>
  <defs
     id="defs10" />
  <sodipodi:namedview
     pagecolor="#ffffff"
     bordercolor="#666666"
     borderopacity="1"
     objecttolerance="10"
     gridtolerance="10"
     guidetolerance="10"
     inkscape:pageopacity="0"
     inkscape:pageshadow="2"
     inkscape:window-width="1680"
     inkscape:window-height="964"
     id="namedview8"
     showgrid="false"
     inkscape:zoom="14.75"
     inkscape:cx="8"
     inkscape:cy="8"
     inkscape:window-x="0"
     inkscape:window-y="0"
     inkscape:window-maximized="1"
     inkscape:current-layer="svg6" />
  <path
     style="fill:#d3dae3;fill-opacity:1"
     d="m 14.352034,6.0469492 c -0.22,0.05 -0.42,0.17 -0.56,0.34 l -6.2800001,7.1899998 -2.25,-2.25 c -0.38,-0.38 -1.06,-0.38 -1.44,0 -0.38,0.38 -0.38,1.06 0,1.44 l 3.78,3.75 7.6900001,-8.8099998 c 0.56,-0.62 -0.12,-1.83 -0.94,-1.66 z"
     id="path2"
     inkscape:connector-curvature="0" />
  <path
     style="fill:#d3dae3;fill-opacity:1"
     d="m 18.072034,6.0469492 c -0.23,0.05 -0.45,0.18 -0.6,0.37 l -6.7,7.6599998 -0.35,-0.34 -1.4200001,1.62 1.0400001,1.06 0.83,0.8 0.73,-0.87 7.47,-8.5299998 c 0.61,-0.66 -0.12,-1.95 -1,-1.77 z"
     id="path4"
     inkscape:connector-curvature="0" />
</svg>
