<?xml version="1.0" encoding="UTF-8" standalone="no"?>
<svg
   xmlns:dc="http://purl.org/dc/elements/1.1/"
   xmlns:cc="http://creativecommons.org/ns#"
   xmlns:rdf="http://www.w3.org/1999/02/22-rdf-syntax-ns#"
   xmlns:svg="http://www.w3.org/2000/svg"
   xmlns="http://www.w3.org/2000/svg"
   xmlns:sodipodi="http://sodipodi.sourceforge.net/DTD/sodipodi-0.dtd"
   xmlns:inkscape="http://www.inkscape.org/namespaces/inkscape"
   width="22"
   height="22"
   viewBox="0 0 22 22"
   version="1.1"
   id="svg7"
   sodipodi:docname="edit-clear-symbolic-rtl.svg"
   inkscape:version="0.92.1 r">
  <metadata
     id="metadata11">
    <rdf:RDF>
      <cc:Work
         rdf:about="">
        <dc:format>image/svg+xml</dc:format>
        <dc:type
           rdf:resource="http://purl.org/dc/dcmitype/StillImage" />
        <dc:title></dc:title>
      </cc:Work>
    </rdf:RDF>
  </metadata>
  <sodipodi:namedview
     pagecolor="#ffffff"
     bordercolor="#666666"
     borderopacity="1"
     objecttolerance="10"
     gridtolerance="10"
     guidetolerance="10"
     inkscape:pageopacity="0"
     inkscape:pageshadow="2"
     inkscape:window-width="769"
     inkscape:window-height="480"
     id="namedview9"
     showgrid="false"
     inkscape:zoom="10.727273"
     inkscape:cx="11"
     inkscape:cy="11"
     inkscape:window-x="0"
     inkscape:window-y="0"
     inkscape:window-maximized="0"
     inkscape:current-layer="svg7" />
  <defs
     id="defs3">
    <style
       type="text/css"
       id="current-color-scheme">
   .ColorScheme-Text { color:#d3dae3; } .ColorScheme-Highlight { color:#5294e2; }
  </style>
  </defs>
  <path
     style="fill:currentColor;opacity:1"
     class="ColorScheme-Text"
     transform="translate(3 3)"
     d="M 0 2.0039062 L 0 14.003906 L 11 14.003906 L 16 8.0039062 L 11 2.0039062 L 0 2.0039062 z M 3.0078125 5.0039062 L 4.0078125 5.0039062 C 4.2878125 5.0039062 4.5370312 5.115875 4.7070312 5.296875 L 6 6.5898438 L 7.2929688 5.296875 C 7.4737187 5.116125 7.723 5.0039062 8 5.0039062 L 9 5.0039062 L 9.0039062 6.0039062 C 9.0039062 6.2809063 8.893125 6.5299375 8.703125 6.7109375 L 7.4101562 8.0039062 L 8.7109375 9.296875 C 8.8916875 9.477625 9.0039062 9.7269062 9.0039062 10.003906 L 9.0039062 11.003906 L 8.0039062 11.003906 C 7.7239063 11.003906 7.4727344 10.891937 7.3027344 10.710938 L 6.0097656 9.4179688 L 4.7167969 10.710938 C 4.5360469 10.891687 4.2867656 11.003906 4.0097656 11.003906 L 3.0097656 11.003906 L 3.0097656 10.003906 C 3.0097656 9.7269062 3.1207812 9.477875 3.3007812 9.296875 L 4.59375 8.0039062 L 3.3007812 6.7109375 C 3.1200312 6.5301875 3.0078125 6.2809063 3.0078125 6.0039062 L 3.0078125 5.0039062 z"
     id="path5" />
</svg>
