<?xml version="1.0" encoding="UTF-8" standalone="no"?>
<svg
   xmlns:dc="http://purl.org/dc/elements/1.1/"
   xmlns:cc="http://creativecommons.org/ns#"
   xmlns:rdf="http://www.w3.org/1999/02/22-rdf-syntax-ns#"
   xmlns:svg="http://www.w3.org/2000/svg"
   xmlns="http://www.w3.org/2000/svg"
   xmlns:sodipodi="http://sodipodi.sourceforge.net/DTD/sodipodi-0.dtd"
   xmlns:inkscape="http://www.inkscape.org/namespaces/inkscape"
   width="22"
   height="22"
   viewBox="0 0 22 22"
   version="1.1"
   id="svg7"
   sodipodi:docname="font-select-symbolic.svg"
   inkscape:version="0.92.1 r">
  <metadata
     id="metadata11">
    <rdf:RDF>
      <cc:Work
         rdf:about="">
        <dc:format>image/svg+xml</dc:format>
        <dc:type
           rdf:resource="http://purl.org/dc/dcmitype/StillImage" />
        <dc:title></dc:title>
      </cc:Work>
    </rdf:RDF>
  </metadata>
  <sodipodi:namedview
     pagecolor="#ffffff"
     bordercolor="#666666"
     borderopacity="1"
     objecttolerance="10"
     gridtolerance="10"
     guidetolerance="10"
     inkscape:pageopacity="0"
     inkscape:pageshadow="2"
     inkscape:window-width="769"
     inkscape:window-height="480"
     id="namedview9"
     showgrid="false"
     inkscape:zoom="10.727273"
     inkscape:cx="11"
     inkscape:cy="11"
     inkscape:window-x="0"
     inkscape:window-y="0"
     inkscape:window-maximized="0"
     inkscape:current-layer="svg7" />
  <defs
     id="defs3">
    <style
       type="text/css"
       id="current-color-scheme">
   .ColorScheme-Text { color:#d3dae3; } .ColorScheme-Highlight { color:#5294e2; }
  </style>
  </defs>
  <path
     style="fill:currentColor;opacity:1"
     class="ColorScheme-Text"
     transform="translate(3 3)"
     d="M 6 3 L 5.9921875 5 L 8.9140625 5.0117188 L 8.9160156 5.0117188 C 8.8608156 5.0117188 9 5.17107 9 5.09375 L 9 6.0175781 L 7.9960938 6.0175781 C 6.2801937 6.0175781 4.9660063 7.1430531 4.9414062 8.5019531 C 4.9291063 9.1814031 5.2472344 9.8649188 5.8027344 10.324219 C 6.3582344 10.783489 7.1180937 11.023438 7.9960938 11.023438 L 11 11.023438 L 11 5.09375 C 11 3.92255 10.112866 3.0117188 8.9160156 3.0117188 L 6.0058594 3 L 6 3 z M -0.00390625 5 L -0.00390625 11 L 3.9960938 8 L -0.00390625 5 z M 15.996094 5 L 11.996094 8 L 15.996094 11 L 15.996094 5 z M 7.9960938 8.0175781 L 9 8.0175781 L 9 9.0234375 L 7.9960938 9.0234375 C 7.4766838 9.0234375 7.2023019 8.88554 7.0761719 8.78125 C 6.9500319 8.67696 6.9401062 8.6090694 6.9414062 8.5371094 C 6.9444063 8.3931794 7.0262937 8.0175781 7.9960938 8.0175781 z"
     id="path5" />
</svg>
