<?xml version="1.0" encoding="UTF-8" standalone="no"?>
<svg
   xmlns:dc="http://purl.org/dc/elements/1.1/"
   xmlns:cc="http://creativecommons.org/ns#"
   xmlns:rdf="http://www.w3.org/1999/02/22-rdf-syntax-ns#"
   xmlns:svg="http://www.w3.org/2000/svg"
   xmlns="http://www.w3.org/2000/svg"
   xmlns:sodipodi="http://sodipodi.sourceforge.net/DTD/sodipodi-0.dtd"
   xmlns:inkscape="http://www.inkscape.org/namespaces/inkscape"
   width="22"
   height="22"
   viewBox="0 0 22 22"
   version="1.1"
   id="svg7"
   sodipodi:docname="format-text-underline-symbolic.svg"
   inkscape:version="0.92.1 r">
  <metadata
     id="metadata11">
    <rdf:RDF>
      <cc:Work
         rdf:about="">
        <dc:format>image/svg+xml</dc:format>
        <dc:type
           rdf:resource="http://purl.org/dc/dcmitype/StillImage" />
        <dc:title></dc:title>
      </cc:Work>
    </rdf:RDF>
  </metadata>
  <sodipodi:namedview
     pagecolor="#ffffff"
     bordercolor="#666666"
     borderopacity="1"
     objecttolerance="10"
     gridtolerance="10"
     guidetolerance="10"
     inkscape:pageopacity="0"
     inkscape:pageshadow="2"
     inkscape:window-width="769"
     inkscape:window-height="480"
     id="namedview9"
     showgrid="false"
     inkscape:zoom="10.727273"
     inkscape:cx="11"
     inkscape:cy="11"
     inkscape:window-x="0"
     inkscape:window-y="0"
     inkscape:window-maximized="0"
     inkscape:current-layer="svg7" />
  <defs
     id="defs3">
    <style
       type="text/css"
       id="current-color-scheme">
   .ColorScheme-Text { color:#d3dae3; } .ColorScheme-Highlight { color:#5294e2; }
  </style>
  </defs>
  <path
     style="fill:currentColor;opacity:1"
     class="ColorScheme-Text"
     transform="translate(3 3)"
     d="M 4 2 L 4 4 L 10 4 C 10.42816 4 11 4.61414 11 5 L 11 6 L 6 6 C 5.08073 6 4.2644 6.38396 3.75 6.96875 C 3.2356 7.55354 2.99361 8.2794 3 9 C 3.006 9.72062 3.26893 10.45275 3.78125 11.03125 C 4.29357 11.60979 5.0917 12 6 12 L 13 12 L 13 11.15625 C 13.0156 11.0625 13 11 13 11 L 13 5 C 13 3.3657 11.6802 2 10 2 L 4 2 z M 6 8 L 11 8 L 11 10 L 6 10 C 5.60213 10 5.43309 9.89021 5.28125 9.71875 C 5.12941 9.54729 5.00248 9.27938 5 9 C 4.998 8.72062 5.10467 8.44646 5.25 8.28125 C 5.39533 8.11604 5.57764 8 6 8 z M 2 13 L 2 15 L 14 15 L 14 13 L 2 13 z"
     id="path5" />
</svg>
