<?xml version="1.0" encoding="UTF-8" standalone="no"?>
<svg
   xmlns:dc="http://purl.org/dc/elements/1.1/"
   xmlns:cc="http://creativecommons.org/ns#"
   xmlns:rdf="http://www.w3.org/1999/02/22-rdf-syntax-ns#"
   xmlns:svg="http://www.w3.org/2000/svg"
   xmlns="http://www.w3.org/2000/svg"
   xmlns:sodipodi="http://sodipodi.sourceforge.net/DTD/sodipodi-0.dtd"
   xmlns:inkscape="http://www.inkscape.org/namespaces/inkscape"
   width="22"
   height="22"
   viewBox="0 0 22 22"
   version="1.1"
   id="svg7"
   sodipodi:docname="format-text-direction-rtl-symbolic.svg"
   inkscape:version="0.92.1 r">
  <metadata
     id="metadata11">
    <rdf:RDF>
      <cc:Work
         rdf:about="">
        <dc:format>image/svg+xml</dc:format>
        <dc:type
           rdf:resource="http://purl.org/dc/dcmitype/StillImage" />
        <dc:title></dc:title>
      </cc:Work>
    </rdf:RDF>
  </metadata>
  <sodipodi:namedview
     pagecolor="#ffffff"
     bordercolor="#666666"
     borderopacity="1"
     objecttolerance="10"
     gridtolerance="10"
     guidetolerance="10"
     inkscape:pageopacity="0"
     inkscape:pageshadow="2"
     inkscape:window-width="769"
     inkscape:window-height="480"
     id="namedview9"
     showgrid="false"
     inkscape:zoom="10.727273"
     inkscape:cx="11"
     inkscape:cy="11"
     inkscape:window-x="0"
     inkscape:window-y="0"
     inkscape:window-maximized="0"
     inkscape:current-layer="svg7" />
  <defs
     id="defs3">
    <style
       type="text/css"
       id="current-color-scheme">
   .ColorScheme-Text { color:#d3dae3; } .ColorScheme-Highlight { color:#5294e2; }
  </style>
  </defs>
  <path
     style="fill:currentColor;opacity:1"
     class="ColorScheme-Text"
     transform="translate(3 3)"
     d="M 6 0 L 6 2 L 12 2 C 12.42816 2 13 2.61414 13 3 L 13 4 L 8 4 C 7.08073 4 6.2644 4.38396 5.75 4.96875 C 5.2356 5.55354 4.99361 6.2794 5 7 C 5.006 7.72062 5.26893 8.45275 5.78125 9.03125 C 6.29357 9.60979 7.0917 10 8 10 L 15 10 L 15 3 C 15.00009 1.3657 13.6802 0 12 0 L 6 0 z M 8 6 L 13 6 L 13 8 L 8 8 C 7.60213 8 7.43309 7.89021 7.28125 7.71875 C 7.12941 7.54729 7.00248 7.27938 7 7 C 6.998 6.72062 7.10467 6.44646 7.25 6.28125 C 7.39533 6.11604 7.57764 6 8 6 z M 4 8.9980469 L 0 11.998047 L 4 14.998047 L 4 12.986328 L 14.9375 12.986328 L 14.9375 10.986328 L 4 10.986328 L 4 8.9980469 z"
     id="path5" />
</svg>
