<?xml version="1.0" encoding="UTF-8" standalone="no"?>
<svg
   xmlns:dc="http://purl.org/dc/elements/1.1/"
   xmlns:cc="http://creativecommons.org/ns#"
   xmlns:rdf="http://www.w3.org/1999/02/22-rdf-syntax-ns#"
   xmlns:svg="http://www.w3.org/2000/svg"
   xmlns="http://www.w3.org/2000/svg"
   xmlns:sodipodi="http://sodipodi.sourceforge.net/DTD/sodipodi-0.dtd"
   xmlns:inkscape="http://www.inkscape.org/namespaces/inkscape"
   width="22"
   height="22"
   viewBox="0 0 22 22"
   version="1.1"
   id="svg7"
   sodipodi:docname="image-red-eye-symbolic.svg"
   inkscape:version="0.92.1 r">
  <metadata
     id="metadata11">
    <rdf:RDF>
      <cc:Work
         rdf:about="">
        <dc:format>image/svg+xml</dc:format>
        <dc:type
           rdf:resource="http://purl.org/dc/dcmitype/StillImage" />
        <dc:title></dc:title>
      </cc:Work>
    </rdf:RDF>
  </metadata>
  <sodipodi:namedview
     pagecolor="#ffffff"
     bordercolor="#666666"
     borderopacity="1"
     objecttolerance="10"
     gridtolerance="10"
     guidetolerance="10"
     inkscape:pageopacity="0"
     inkscape:pageshadow="2"
     inkscape:window-width="769"
     inkscape:window-height="480"
     id="namedview9"
     showgrid="false"
     inkscape:zoom="10.727273"
     inkscape:cx="11"
     inkscape:cy="11"
     inkscape:window-x="0"
     inkscape:window-y="0"
     inkscape:window-maximized="0"
     inkscape:current-layer="svg7" />
  <defs
     id="defs3">
    <style
       type="text/css"
       id="current-color-scheme">
   .ColorScheme-Text { color:#d3dae3; } .ColorScheme-Highlight { color:#5294e2; }
  </style>
  </defs>
  <path
     style="fill:currentColor;opacity:1"
     class="ColorScheme-Text"
     transform="translate(3 3)"
     d="M 2.34375 0.9375 L 0.9375 2.34375 L 3.0507812 4.4570312 C 0.85068125 5.9316312 8.8817842e-16 8 0 8 C 0 8 2 13.003906 8 13.003906 C 9.1815 13.003906 10.191172 12.795422 11.076172 12.482422 L 13.65625 15.0625 L 15.0625 13.65625 L 2.34375 0.9375 z M 8 3.0039062 C 7.4761 3.0039062 6.9935969 3.0535469 6.5292969 3.1230469 L 8.4492188 5.0429688 A 3 3 0 0 1 10.964844 7.5585938 L 14.074219 10.667969 C 15.448219 9.3657688 16 8.0039063 16 8.0039062 C 16 8.0039062 14 3.0039062 8 3.0039062 z M 5.3007812 6.7070312 L 9.296875 10.703125 A 3 3 0 0 1 8 11.003906 A 3 3 0 0 1 5 8.0039062 A 3 3 0 0 1 5.3007812 6.7070312 z"
     id="path5" />
</svg>
