<?xml version="1.0" encoding="UTF-8" standalone="no"?>
<svg
   xmlns:dc="http://purl.org/dc/elements/1.1/"
   xmlns:cc="http://creativecommons.org/ns#"
   xmlns:rdf="http://www.w3.org/1999/02/22-rdf-syntax-ns#"
   xmlns:svg="http://www.w3.org/2000/svg"
   xmlns="http://www.w3.org/2000/svg"
   xmlns:sodipodi="http://sodipodi.sourceforge.net/DTD/sodipodi-0.dtd"
   xmlns:inkscape="http://www.inkscape.org/namespaces/inkscape"
   width="22"
   height="22"
   viewBox="0 0 22 22"
   version="1.1"
   id="svg7"
   sodipodi:docname="kdeconnect.svg"
   inkscape:version="0.92.1 r">
  <metadata
     id="metadata11">
    <rdf:RDF>
      <cc:Work
         rdf:about="">
        <dc:format>image/svg+xml</dc:format>
        <dc:type
           rdf:resource="http://purl.org/dc/dcmitype/StillImage" />
      </cc:Work>
    </rdf:RDF>
  </metadata>
  <sodipodi:namedview
     pagecolor="#ffffff"
     bordercolor="#666666"
     borderopacity="1"
     objecttolerance="10"
     gridtolerance="10"
     guidetolerance="10"
     inkscape:pageopacity="0"
     inkscape:pageshadow="2"
     inkscape:window-width="640"
     inkscape:window-height="480"
     id="namedview9"
     showgrid="false"
     inkscape:zoom="13"
     inkscape:cx="-3.6153846"
     inkscape:cy="11"
     inkscape:current-layer="svg7" />
  <defs
     id="defs3">
    <style
       type="text/css"
       id="current-color-scheme">
   .ColorScheme-Text { color:#d3dae3; } .ColorScheme-Highlight { color:#5294e2; }
  </style>
  </defs>
  <g
     id="g4498"
     transform="matrix(1.375,0,0,1.375,10.73353,2.4615381)"
     style="stroke-width:0.72727269">
    <path
       id="rect4488"
       d="m -3.6579023,-1.8461538 c -0.7748252,0 -1.3984375,0.6236123 -1.3984375,1.39843745 V 12.755408 c 0,0.774827 0.6236123,1.398438 1.3984375,1.398438 h 7.7773439 c 0.774825,0 1.3984366,-0.623612 1.3984366,-1.398438 V -0.44771635 c 0,-0.77482515 -0.6236116,-1.39843745 -1.3984366,-1.39843745 z M -3.294621,0.44876805 H 3.7561606 V 9.4839242 H -3.294621 Z M 1.6565508,10.970252 h 1.5117188 c 0.278937,0 0.503906,0.223016 0.503906,0.501953 v 0.28125 c 0,0.278937 -0.224969,0.501953 -0.503906,0.501953 H 1.6565508 c -0.278937,0 -0.5019531,-0.223016 -0.5019531,-0.501953 v -0.28125 c 0,-0.278937 0.2230161,-0.501953 0.5019531,-0.501953 z"
       style="opacity:1;fill:#d3dae3;fill-opacity:1;fill-rule:nonzero;stroke:none;stroke-width:3.29574776;stroke-linecap:round;stroke-linejoin:bevel;stroke-miterlimit:10;stroke-dasharray:none;stroke-dashoffset:0;stroke-opacity:1"
       inkscape:connector-curvature="0" />
    <rect
       ry="0.41958043"
       y="10.969551"
       x="-3.2097893"
       height="1.2867132"
       width="2.5174825"
       id="rect4492"
       style="opacity:1;fill:#ff7357;fill-opacity:1;fill-rule:nonzero;stroke:none;stroke-width:3.29574776;stroke-linecap:round;stroke-linejoin:bevel;stroke-miterlimit:10;stroke-dasharray:none;stroke-dashoffset:0;stroke-opacity:1" />
  </g>
</svg>
