<?xml version="1.0" encoding="UTF-8" standalone="no"?>
<svg
   xmlns:dc="http://purl.org/dc/elements/1.1/"
   xmlns:cc="http://creativecommons.org/ns#"
   xmlns:rdf="http://www.w3.org/1999/02/22-rdf-syntax-ns#"
   xmlns:svg="http://www.w3.org/2000/svg"
   xmlns="http://www.w3.org/2000/svg"
   xmlns:sodipodi="http://sodipodi.sourceforge.net/DTD/sodipodi-0.dtd"
   xmlns:inkscape="http://www.inkscape.org/namespaces/inkscape"
   width="22"
   height="22"
   viewBox="0 0 22 22"
   version="1.1"
   id="svg7"
   sodipodi:docname="ksnapshot.svg"
   inkscape:version="0.92.1 r">
  <metadata
     id="metadata11">
    <rdf:RDF>
      <cc:Work
         rdf:about="">
        <dc:format>image/svg+xml</dc:format>
        <dc:type
           rdf:resource="http://purl.org/dc/dcmitype/StillImage" />
        <dc:title />
      </cc:Work>
    </rdf:RDF>
  </metadata>
  <sodipodi:namedview
     pagecolor="#ffffff"
     bordercolor="#666666"
     borderopacity="1"
     objecttolerance="10"
     gridtolerance="10"
     guidetolerance="10"
     inkscape:pageopacity="0"
     inkscape:pageshadow="2"
     inkscape:window-width="1680"
     inkscape:window-height="972"
     id="namedview9"
     showgrid="false"
     inkscape:zoom="9.1923882"
     inkscape:cx="-11.586241"
     inkscape:cy="9.6650406"
     inkscape:current-layer="svg7"
     inkscape:window-x="0"
     inkscape:window-y="0"
     inkscape:window-maximized="1" />
  <defs
     id="defs3">
    <style
       type="text/css"
       id="current-color-scheme">
   .ColorScheme-Text { color:#5c616c; } .ColorScheme-Highlight { color:#5294e2; }
  </style>
  </defs>
  <path
     inkscape:connector-curvature="0"
     style="color:#5c616c;opacity:1;fill:#d3dae3;fill-opacity:1;stroke-width:0.89999998"
     class="ColorScheme-Text"
     d="M 7.1428571,3.2857145 5.8571428,4.5714287 H 4.5714287 C 2,4.5714287 2,7.1428567 2,7.1428567 v 9.0000003 c 0,2.571428 2.5714287,2.571428 2.5714287,2.571428 H 17.428571 C 20,18.714285 20,16.142857 20,16.142857 V 7.1428567 C 20,4.5714286 17.428571,4.5714286 17.428571,4.5714286 H 16.142858 L 14.857144,3.2857145 Z M 11,7.1428567 c 2.130172,0 3.857144,1.7269714 3.857144,3.8571433 0,2.130171 -1.726972,3.857142 -3.857144,3.857142 C 8.8698288,14.857142 7.1428571,13.130171 7.1428571,11 7.1428571,8.8698281 8.8698288,7.1428567 11,7.1428567 Z"
     id="path5-3" />
</svg>
