<?xml version="1.0" encoding="UTF-8" standalone="no"?>
<svg
   xmlns:dc="http://purl.org/dc/elements/1.1/"
   xmlns:cc="http://creativecommons.org/ns#"
   xmlns:rdf="http://www.w3.org/1999/02/22-rdf-syntax-ns#"
   xmlns:svg="http://www.w3.org/2000/svg"
   xmlns="http://www.w3.org/2000/svg"
   xmlns:sodipodi="http://sodipodi.sourceforge.net/DTD/sodipodi-0.dtd"
   xmlns:inkscape="http://www.inkscape.org/namespaces/inkscape"
   width="22"
   height="22"
   version="1.1"
   id="svg4"
   sodipodi:docname="link-symbolic.svg"
   inkscape:version="0.92.1 r">
  <metadata
     id="metadata10">
    <rdf:RDF>
      <cc:Work
         rdf:about="">
        <dc:format>image/svg+xml</dc:format>
        <dc:type
           rdf:resource="http://purl.org/dc/dcmitype/StillImage" />
        <dc:title></dc:title>
      </cc:Work>
    </rdf:RDF>
  </metadata>
  <defs
     id="defs8" />
  <sodipodi:namedview
     pagecolor="#ffffff"
     bordercolor="#666666"
     borderopacity="1"
     objecttolerance="10"
     gridtolerance="10"
     guidetolerance="10"
     inkscape:pageopacity="0"
     inkscape:pageshadow="2"
     inkscape:window-width="1680"
     inkscape:window-height="964"
     id="namedview6"
     showgrid="false"
     inkscape:zoom="14.75"
     inkscape:cx="8"
     inkscape:cy="8"
     inkscape:window-x="0"
     inkscape:window-y="0"
     inkscape:window-maximized="1"
     inkscape:current-layer="svg4" />
  <path
     style="fill:#d3dae3;fill-opacity:1;stroke-width:0.875"
     d="M 8.375,6.625 C 5.95125,6.625 4,8.57625 4,11 c 0,2.42375 1.95125,4.375 4.375,4.375 h 1.75 v -1.75 H 8.375 C 6.9225,13.625 5.75,12.46125 5.75,11 5.75,9.5475 6.9225,8.375 8.375,8.375 h 1.75 v -1.75 z m 3.5,0 v 1.75 h 1.75 c 1.4525,0 2.625,1.1725 2.625,2.625 0,1.46125 -1.1725,2.625 -2.625,2.625 h -1.75 v 1.75 h 1.75 C 16.04875,15.375 18,13.42375 18,11 18,8.57625 16.04875,6.625 13.625,6.625 Z m -3.5,3.5 v 1.75 h 5.25 v -1.75 z"
     id="path2"
     inkscape:connector-curvature="0" />
</svg>
