<?xml version="1.0" encoding="UTF-8" standalone="no"?>
<svg
   xmlns:dc="http://purl.org/dc/elements/1.1/"
   xmlns:cc="http://creativecommons.org/ns#"
   xmlns:rdf="http://www.w3.org/1999/02/22-rdf-syntax-ns#"
   xmlns:svg="http://www.w3.org/2000/svg"
   xmlns="http://www.w3.org/2000/svg"
   xmlns:sodipodi="http://sodipodi.sourceforge.net/DTD/sodipodi-0.dtd"
   xmlns:inkscape="http://www.inkscape.org/namespaces/inkscape"
   width="22"
   height="22"
   viewBox="0 0 22 22"
   version="1.1"
   id="svg8"
   sodipodi:docname="list-remove-all-symbolic.svg"
   inkscape:version="0.92.1 r">
  <metadata
     id="metadata12">
    <rdf:RDF>
      <cc:Work
         rdf:about="">
        <dc:format>image/svg+xml</dc:format>
        <dc:type
           rdf:resource="http://purl.org/dc/dcmitype/StillImage" />
        <dc:title></dc:title>
      </cc:Work>
    </rdf:RDF>
  </metadata>
  <sodipodi:namedview
     pagecolor="#ffffff"
     bordercolor="#666666"
     borderopacity="1"
     objecttolerance="10"
     gridtolerance="10"
     guidetolerance="10"
     inkscape:pageopacity="0"
     inkscape:pageshadow="2"
     inkscape:window-width="769"
     inkscape:window-height="480"
     id="namedview10"
     showgrid="false"
     inkscape:zoom="10.727273"
     inkscape:cx="11"
     inkscape:cy="11"
     inkscape:window-x="0"
     inkscape:window-y="0"
     inkscape:window-maximized="0"
     inkscape:current-layer="svg8" />
  <defs
     id="defs10">
    <style
       type="text/css"
       id="current-color-scheme">
   .ColorScheme-Text { color:#d3dae3; } .ColorScheme-Highlight { color:#5294e2; }
  </style>
  </defs>
  <path
     style="fill:currentColor;opacity:1"
     class="ColorScheme-Text"
     transform="translate(3 3)"
     d="M 3 3 L 3 5 L 13 5 L 13 3 L 3 3 z M 3 7 L 3 9 L 9.6875 9 C 10.45752 8.38361 11.4369 8 12.5 8 C 12.67178 8 12.83323 8.0438 13 8.0625 L 13 7 L 3 7 z M 3 11 L 3 13 L 8.0625 13 C 8.0438 12.83323 8 12.67178 8 12.5 C 8 11.96957 8.11271 11.4726 8.28125 11 L 3 11 z"
     id="path4" />
  <path
     style="fill:currentColor"
     class="ColorScheme-Highlight"
     transform="translate(3 3)"
     d="M 12.5 9 C 10.567 9 9 10.567 9 12.5 C 9 14.433 10.567 16 12.5 16 C 14.433 16 16 14.433 16 12.5 C 16 10.567 14.433 9 12.5 9 z M 10 12 L 12.5 12 L 15 12 L 15 13 L 10 13 L 10 12 z"
     id="path6" />
</svg>
