<?xml version="1.0" encoding="UTF-8" standalone="no"?>
<svg
   xmlns:dc="http://purl.org/dc/elements/1.1/"
   xmlns:cc="http://creativecommons.org/ns#"
   xmlns:rdf="http://www.w3.org/1999/02/22-rdf-syntax-ns#"
   xmlns:svg="http://www.w3.org/2000/svg"
   xmlns="http://www.w3.org/2000/svg"
   xmlns:sodipodi="http://sodipodi.sourceforge.net/DTD/sodipodi-0.dtd"
   xmlns:inkscape="http://www.inkscape.org/namespaces/inkscape"
   width="22"
   height="22"
   viewBox="0 0 22 22"
   version="1.1"
   id="svg7"
   sodipodi:docname="mail-mark-junk-symbolic.svg"
   inkscape:version="0.92.1 r">
  <metadata
     id="metadata11">
    <rdf:RDF>
      <cc:Work
         rdf:about="">
        <dc:format>image/svg+xml</dc:format>
        <dc:type
           rdf:resource="http://purl.org/dc/dcmitype/StillImage" />
        <dc:title></dc:title>
      </cc:Work>
    </rdf:RDF>
  </metadata>
  <sodipodi:namedview
     pagecolor="#ffffff"
     bordercolor="#666666"
     borderopacity="1"
     objecttolerance="10"
     gridtolerance="10"
     guidetolerance="10"
     inkscape:pageopacity="0"
     inkscape:pageshadow="2"
     inkscape:window-width="769"
     inkscape:window-height="480"
     id="namedview9"
     showgrid="false"
     inkscape:zoom="10.727273"
     inkscape:cx="11"
     inkscape:cy="11"
     inkscape:window-x="0"
     inkscape:window-y="0"
     inkscape:window-maximized="0"
     inkscape:current-layer="svg7" />
  <defs
     id="defs3">
    <style
       type="text/css"
       id="current-color-scheme">
   .ColorScheme-Text { color:#d3dae3; } .ColorScheme-Highlight { color:#5294e2; }
  </style>
  </defs>
  <path
     style="fill:currentColor;opacity:1"
     class="ColorScheme-Text"
     transform="translate(3 3)"
     d="M 5.2207031 1 L 4.9082031 1.28125 L 1.2832031 4.90625 L 1.0019531 5.21875 L 1.0019531 10.78125 L 1.2832031 11.09375 L 4.9082031 14.71875 L 5.2207031 15 L 10.783203 15 L 11.095703 14.71875 L 14.720703 11.09375 L 15.001953 10.78125 L 15.001953 5.21875 L 14.720703 4.90625 L 11.095703 1.28125 L 10.783203 1 L 5.2207031 1 z M 7.0019531 4 L 9.0019531 4 L 9.0019531 7 L 8.7519531 9 L 7.2832031 9 L 7.0019531 7 L 7.0019531 4 z M 8.0019531 9.75 C 8.6923131 9.75 9.2519531 10.30964 9.2519531 11 C 9.2519531 11.69036 8.6923131 12.25 8.0019531 12.25 C 7.3115931 12.25 6.7519531 11.69036 6.7519531 11 C 6.7519531 10.30964 7.3115931 9.75 8.0019531 9.75 z"
     id="path5" />
</svg>
