<?xml version="1.0" encoding="UTF-8" standalone="no"?>
<svg
   xmlns:dc="http://purl.org/dc/elements/1.1/"
   xmlns:cc="http://creativecommons.org/ns#"
   xmlns:rdf="http://www.w3.org/1999/02/22-rdf-syntax-ns#"
   xmlns:svg="http://www.w3.org/2000/svg"
   xmlns="http://www.w3.org/2000/svg"
   xmlns:sodipodi="http://sodipodi.sourceforge.net/DTD/sodipodi-0.dtd"
   xmlns:inkscape="http://www.inkscape.org/namespaces/inkscape"
   width="22"
   height="22"
   viewBox="0 0 22 22"
   version="1.1"
   id="svg7"
   sodipodi:docname="process-stop-symbolic.svg"
   inkscape:version="0.92.1 r">
  <metadata
     id="metadata11">
    <rdf:RDF>
      <cc:Work
         rdf:about="">
        <dc:format>image/svg+xml</dc:format>
        <dc:type
           rdf:resource="http://purl.org/dc/dcmitype/StillImage" />
        <dc:title></dc:title>
      </cc:Work>
    </rdf:RDF>
  </metadata>
  <sodipodi:namedview
     pagecolor="#ffffff"
     bordercolor="#666666"
     borderopacity="1"
     objecttolerance="10"
     gridtolerance="10"
     guidetolerance="10"
     inkscape:pageopacity="0"
     inkscape:pageshadow="2"
     inkscape:window-width="769"
     inkscape:window-height="480"
     id="namedview9"
     showgrid="false"
     inkscape:zoom="10.727273"
     inkscape:cx="11"
     inkscape:cy="11"
     inkscape:window-x="0"
     inkscape:window-y="0"
     inkscape:window-maximized="0"
     inkscape:current-layer="svg7" />
  <defs
     id="defs3">
    <style
       type="text/css"
       id="current-color-scheme">
   .ColorScheme-Text { color:#d3dae3; } .ColorScheme-Highlight { color:#5294e2; }
  </style>
  </defs>
  <path
     style="fill:currentColor;opacity:1"
     class="ColorScheme-Text"
     transform="translate(3 3)"
     d="M 5.2167969 1 L 4.9042969 1.28125 L 1.2792969 4.90625 L 0.99804688 5.21875 L 0.99804688 10.78125 L 1.2792969 11.09375 L 4.9042969 14.71875 L 5.2167969 15 L 10.779297 15 L 11.091797 14.71875 L 14.716797 11.09375 L 14.998047 10.78125 L 14.998047 5.21875 L 14.716797 4.90625 L 11.091797 1.28125 L 10.779297 1 L 5.2167969 1 z M 5.9980469 3 L 9.9980469 3 L 12.998047 6 L 12.998047 10 L 9.9980469 13 L 5.9980469 13 L 2.9980469 10 L 2.9980469 6 L 5.9980469 3 z M 6.4355469 4 L 3.9980469 6.4375 L 3.9980469 9.5625 L 6.4355469 12 L 9.5605469 12 L 11.998047 9.5625 L 11.998047 6.4375 L 9.5605469 4 L 6.4355469 4 z"
     id="path5" />
</svg>
