<?xml version="1.0" encoding="UTF-8" standalone="no"?>
<svg
   xmlns:dc="http://purl.org/dc/elements/1.1/"
   xmlns:cc="http://creativecommons.org/ns#"
   xmlns:rdf="http://www.w3.org/1999/02/22-rdf-syntax-ns#"
   xmlns:svg="http://www.w3.org/2000/svg"
   xmlns="http://www.w3.org/2000/svg"
   xmlns:sodipodi="http://sodipodi.sourceforge.net/DTD/sodipodi-0.dtd"
   xmlns:inkscape="http://www.inkscape.org/namespaces/inkscape"
   width="22"
   height="22"
   version="1.1"
   id="svg6"
   sodipodi:docname="system-shutdown-symbolic.svg"
   inkscape:version="0.92.1 r">
  <metadata
     id="metadata12">
    <rdf:RDF>
      <cc:Work
         rdf:about="">
        <dc:format>image/svg+xml</dc:format>
        <dc:type
           rdf:resource="http://purl.org/dc/dcmitype/StillImage" />
        <dc:title></dc:title>
      </cc:Work>
    </rdf:RDF>
  </metadata>
  <defs
     id="defs10" />
  <sodipodi:namedview
     pagecolor="#ffffff"
     bordercolor="#666666"
     borderopacity="1"
     objecttolerance="10"
     gridtolerance="10"
     guidetolerance="10"
     inkscape:pageopacity="0"
     inkscape:pageshadow="2"
     inkscape:window-width="1680"
     inkscape:window-height="964"
     id="namedview8"
     showgrid="false"
     inkscape:zoom="14.75"
     inkscape:cx="8"
     inkscape:cy="8"
     inkscape:window-x="0"
     inkscape:window-y="0"
     inkscape:window-maximized="1"
     inkscape:current-layer="svg6" />
  <g
     id="g4510"
     transform="translate(2,-1.4166667)">
    <rect
       id="rect2"
       ry="1.1666666"
       rx="1.1666666"
       y="4.8333335"
       x="7.8333335"
       height="8.166667"
       width="2.3333333"
       style="fill:#d3dae3;fill-opacity:1;stroke-width:1.16666663" />
    <path
       inkscape:connector-curvature="0"
       id="path4"
       d="m 12.5,7.1666667 c -0.644,0 -1.166667,0.5223166 -1.166667,1.1666666 0,0.3312167 0.119,0.6728167 0.383834,0.8726667 1.2005,0.9065 1.947166,2.289933 1.9495,3.794 0,2.577167 -2.0895,4.666667 -4.666667,4.666667 -2.5772833,0 -4.6666667,-2.0895 -4.6666667,-4.666667 0.0028,-1.504417 0.7513334,-2.88715 1.95055,-3.79505 0.2639,-0.1997333 0.3820834,-0.5411 0.3827834,-0.8716167 C 6.6666667,7.6889833 6.14435,7.1666667 5.5,7.1666667 5.1676167,7.1666667 4.8844667,7.34295 4.62955,7.5563333 3.0046167,8.9164333 2.00735,10.880983 2,13 c 0,3.866333 3.1340167,7 7,7 3.866333,0 7,-3.133667 7,-7 C 15.9953,10.862433 14.993167,8.8702333 13.333,7.5164333 13.088,7.3162333 12.8115,7.1666667 12.5,7.1666667 Z"
       style="fill:#d3dae3;fill-opacity:1;stroke-width:1.16666663" />
  </g>
</svg>
