<?xml version="1.0" encoding="UTF-8" standalone="no"?>
<svg
   xmlns:dc="http://purl.org/dc/elements/1.1/"
   xmlns:cc="http://creativecommons.org/ns#"
   xmlns:rdf="http://www.w3.org/1999/02/22-rdf-syntax-ns#"
   xmlns:svg="http://www.w3.org/2000/svg"
   xmlns="http://www.w3.org/2000/svg"
   xmlns:sodipodi="http://sodipodi.sourceforge.net/DTD/sodipodi-0.dtd"
   xmlns:inkscape="http://www.inkscape.org/namespaces/inkscape"
   width="22"
   height="22"
   version="1.1"
   id="svg4"
   sodipodi:docname="system-restart-symbolic.svg"
   inkscape:version="0.92.1 r">
  <metadata
     id="metadata10">
    <rdf:RDF>
      <cc:Work
         rdf:about="">
        <dc:format>image/svg+xml</dc:format>
        <dc:type
           rdf:resource="http://purl.org/dc/dcmitype/StillImage" />
        <dc:title></dc:title>
      </cc:Work>
    </rdf:RDF>
  </metadata>
  <defs
     id="defs8" />
  <sodipodi:namedview
     pagecolor="#ffffff"
     bordercolor="#666666"
     borderopacity="1"
     objecttolerance="10"
     gridtolerance="10"
     guidetolerance="10"
     inkscape:pageopacity="0"
     inkscape:pageshadow="2"
     inkscape:window-width="1680"
     inkscape:window-height="964"
     id="namedview6"
     showgrid="false"
     inkscape:zoom="14.75"
     inkscape:cx="8.6779661"
     inkscape:cy="7.3898305"
     inkscape:window-x="0"
     inkscape:window-y="0"
     inkscape:window-maximized="1"
     inkscape:current-layer="svg4" />
  <path
     style="fill:#d3dae3;fill-opacity:1;stroke-width:0.87499994"
     d="m 11,5.7500002 a 0.87499999,0.87499999 0 0 0 -0.875,0.875 A 0.87499999,0.87499999 0 0 0 11,7.5000001 3.4999999,3.4999999 0 0 1 14.499999,11 H 12.75 L 15.375,14.5 18,11 H 16.249999 A 5.2499998,5.2499998 0 0 0 11,5.7500002 Z M 6.6249997,7.5000001 3.9999998,11 H 5.7499997 A 5.2499998,5.2499998 0 0 0 11,16.25 0.87499999,0.87499999 0 0 0 11.875,15.375 0.87499999,0.87499999 0 0 0 11,14.5 3.4999999,3.4999999 0 0 1 7.4999997,11 h 1.7499999 z"
     id="path2"
     inkscape:connector-curvature="0" />
</svg>
