<?xml version="1.0" encoding="UTF-8" standalone="no"?>
<svg
   xmlns:dc="http://purl.org/dc/elements/1.1/"
   xmlns:cc="http://creativecommons.org/ns#"
   xmlns:rdf="http://www.w3.org/1999/02/22-rdf-syntax-ns#"
   xmlns:svg="http://www.w3.org/2000/svg"
   xmlns="http://www.w3.org/2000/svg"
   xmlns:sodipodi="http://sodipodi.sourceforge.net/DTD/sodipodi-0.dtd"
   xmlns:inkscape="http://www.inkscape.org/namespaces/inkscape"
   width="22"
   height="22"
   viewBox="0 0 22 22"
   version="1.1"
   id="svg7"
   sodipodi:docname="view-more-symbolic.svg"
   inkscape:version="0.92.1 r">
  <metadata
     id="metadata11">
    <rdf:RDF>
      <cc:Work
         rdf:about="">
        <dc:format>image/svg+xml</dc:format>
        <dc:type
           rdf:resource="http://purl.org/dc/dcmitype/StillImage" />
        <dc:title></dc:title>
      </cc:Work>
    </rdf:RDF>
  </metadata>
  <sodipodi:namedview
     pagecolor="#ffffff"
     bordercolor="#666666"
     borderopacity="1"
     objecttolerance="10"
     gridtolerance="10"
     guidetolerance="10"
     inkscape:pageopacity="0"
     inkscape:pageshadow="2"
     inkscape:window-width="769"
     inkscape:window-height="480"
     id="namedview9"
     showgrid="false"
     inkscape:zoom="10.727273"
     inkscape:cx="11"
     inkscape:cy="11"
     inkscape:window-x="0"
     inkscape:window-y="0"
     inkscape:window-maximized="0"
     inkscape:current-layer="svg7" />
  <defs
     id="defs3">
    <style
       type="text/css"
       id="current-color-scheme">
   .ColorScheme-Text { color:#d3dae3; } .ColorScheme-Highlight { color:#5294e2; }
  </style>
  </defs>
  <path
     style="fill:currentColor;opacity:1"
     class="ColorScheme-Text"
     transform="translate(3 3)"
     d="M 7.5 3.0039062 C 6.67765 3.0039062 6 3.6815562 6 4.5039062 C 6 5.3262563 6.67765 6.0039062 7.5 6.0039062 C 8.32235 6.0039062 9 5.3262563 9 4.5039062 C 9 3.6815562 8.32235 3.0039062 7.5 3.0039062 z M 7.5 7.0039062 C 6.67765 7.0039062 6 7.6815562 6 8.5039062 C 6 9.3262563 6.67765 10.003906 7.5 10.003906 C 8.32235 10.003906 9 9.3262563 9 8.5039062 C 9 7.6815562 8.32235 7.0039062 7.5 7.0039062 z M 7.5 11.003906 C 6.67765 11.003906 6 11.681556 6 12.503906 C 6 13.326256 6.67765 14.003906 7.5 14.003906 C 8.32235 14.003906 9 13.326256 9 12.503906 C 9 11.681556 8.32235 11.003906 7.5 11.003906 z"
     id="path5" />
</svg>
