<?xml version="1.0" encoding="UTF-8" standalone="no"?>
<svg
   xmlns:dc="http://purl.org/dc/elements/1.1/"
   xmlns:cc="http://creativecommons.org/ns#"
   xmlns:rdf="http://www.w3.org/1999/02/22-rdf-syntax-ns#"
   xmlns:svg="http://www.w3.org/2000/svg"
   xmlns="http://www.w3.org/2000/svg"
   xmlns:sodipodi="http://sodipodi.sourceforge.net/DTD/sodipodi-0.dtd"
   xmlns:inkscape="http://www.inkscape.org/namespaces/inkscape"
   width="22"
   height="22"
   version="1.1"
   id="svg4"
   sodipodi:docname="window-maximize-symbolic.svg"
   inkscape:version="0.92.1 r">
  <metadata
     id="metadata10">
    <rdf:RDF>
      <cc:Work
         rdf:about="">
        <dc:format>image/svg+xml</dc:format>
        <dc:type
           rdf:resource="http://purl.org/dc/dcmitype/StillImage" />
        <dc:title></dc:title>
      </cc:Work>
    </rdf:RDF>
  </metadata>
  <defs
     id="defs8" />
  <sodipodi:namedview
     pagecolor="#ffffff"
     bordercolor="#666666"
     borderopacity="1"
     objecttolerance="10"
     gridtolerance="10"
     guidetolerance="10"
     inkscape:pageopacity="0"
     inkscape:pageshadow="2"
     inkscape:window-width="1680"
     inkscape:window-height="964"
     id="namedview6"
     showgrid="false"
     inkscape:zoom="14.75"
     inkscape:cx="8"
     inkscape:cy="8"
     inkscape:window-x="0"
     inkscape:window-y="0"
     inkscape:window-maximized="1"
     inkscape:current-layer="svg4" />
  <path
     style="fill:#d3dae3;stroke-width:1.559322;fill-opacity:1"
     d="m 6.3220338,4.7627121 c -0.8638644,0 -1.559322,0.6954576 -1.559322,1.559322 v 9.3559319 c 0,0.863865 0.6954576,1.559322 1.559322,1.559322 h 9.3559322 c 0.863865,0 1.559322,-0.695457 1.559322,-1.559322 V 6.3220341 c 0,-0.8638644 -0.695457,-1.559322 -1.559322,-1.559322 z m 2.338983,3.1186441 h 4.6779662 c 0.431932,0 0.779661,0.347729 0.779661,0.779661 v 4.6779658 c 0,0.431932 -0.347729,0.779661 -0.779661,0.779661 H 8.6610168 c -0.4319322,0 -0.779661,-0.347729 -0.779661,-0.779661 V 8.6610172 c 0,-0.431932 0.3477288,-0.779661 0.779661,-0.779661 z"
     id="path2"
     inkscape:connector-curvature="0" />
</svg>
