<?xml version="1.0" encoding="UTF-8" standalone="no"?>
<svg
   xmlns:dc="http://purl.org/dc/elements/1.1/"
   xmlns:cc="http://creativecommons.org/ns#"
   xmlns:rdf="http://www.w3.org/1999/02/22-rdf-syntax-ns#"
   xmlns:svg="http://www.w3.org/2000/svg"
   xmlns="http://www.w3.org/2000/svg"
   width="22"
   height="22"
   viewBox="0 0 22 22"
   version="1.1"
   id="svg7">
  <metadata
     id="metadata11">
    <rdf:RDF>
      <cc:Work
         rdf:about="">
        <dc:format>image/svg+xml</dc:format>
        <dc:type
           rdf:resource="http://purl.org/dc/dcmitype/StillImage" />
        <dc:title></dc:title>
      </cc:Work>
    </rdf:RDF>
  </metadata>
  <defs
     id="defs3">
    <style
       type="text/css"
       id="current-color-scheme">
   .ColorScheme-Text { color:#5c616c; } .ColorScheme-Highlight { color:#5294e2; }
  </style>
  </defs>
  <path
     style="fill:#d3dae3;fill-opacity:1;stroke-width:0.999999"
     d="m 8,6.9999997 c -0.554,0 -1,0.4460002 -1,1 V 14 c 0,0.554 0.446,1 1,1 h 6 c 0.554,0 1,-0.446 1,-1 V 7.9999997 c 0,-0.5539998 -0.446,-1 -1,-1 z m 1.5,2.0000001 h 3 c 0.277,0 0.5,0.2230001 0.5,0.5 V 12.5 c 0,0.277 -0.223,0.5 -0.5,0.5 h -3 C 9.222999,13 9,12.777 9,12.5 V 9.4999998 c 0,-0.2769999 0.222999,-0.5 0.5,-0.5 z"
     id="path2" />
</svg>
