<svg xmlns="http://www.w3.org/2000/svg" viewBox="0 0 32 32"><defs><linearGradient gradientTransform="matrix(-2.54797 0 0-2.61863 187.08 313.32)" id="0" x1="67.821" y1="109.43" x2="67.781" y2="104.33" gradientUnits="userSpaceOnUse"><stop stop-color="#f9f9f9"/><stop offset="1" stop-color="#999"/></linearGradient></defs><rect width="28.2" height="28.2" x="1.898" y="1.898" fill="#64db2d" fill-rule="evenodd" rx="5.575"/><g aria-label="?" fill="#fff"><path d="m18.93 16.269q-1.89 1.346-2.119 3.637h-2.721v-.2q0-2.892 1.976-4.525 1.203-1 1.346-1.145.659-.745.659-1.632 0-1.69-1.976-1.69-2.262 0-3.752 1.432l-1.432-2.205q1.718-1.919 5.126-1.919 2.176 0 3.551 1 1.575 1.117 1.575 3.207 0 1.546-.515 2.406-.43.745-1.718 1.632m-3.494 8.133q-.659 0-1.145-.458-.458-.487-.458-1.145 0-.659.458-1.117.487-.487 1.145-.487.659 0 1.117.487.487.458.487 1.117 0 .659-.487 1.145-.458.458-1.117.458" fill="#fff" stroke-width="1.153" transform="matrix(.86756 0 0 .86756 2.087 1.935)"/></g>

   xmlns:dc="http://purl.org/dc/elements/1.1/"
   xmlns:cc="http://creativecommons.org/ns#"
   xmlns:rdf="http://www.w3.org/1999/02/22-rdf-syntax-ns#"
   xmlns:svg="http://www.w3.org/2000/svg"
   xmlns="http://www.w3.org/2000/svg"
   xmlns:xlink="http://www.w3.org/1999/xlink"
   xmlns:sodipodi="http://sodipodi.sourceforge.net/DTD/sodipodi-0.dtd"
   xmlns:inkscape="http://www.inkscape.org/namespaces/inkscape"
   version="1"
   width="32"
   height="32"
   id="svg12"
   sodipodi:docname="snow-mime-1.svg"
   inkscape:version="0.92.1 r"&gt;
  <path fill="#00000f" fill-opacity="0" d="m0 0h32v32h-32z"/><path d="m24.79 31.998c11.532.081 6.305-9.102 3.9-9.628-2.873-.227-4.257 2.594-5.581 3.885-5.02 4.1-11.551-5.844-14.288-3.282-1.657 1.846-2.104 1.097-3.03.582-1.739-.613-4.293.32-4.378 3.164-3.427 3.861-.04 5.647 5.164 5.268 5.732-.135 12.589.045 18.209.011" fill="url(#0)"/></svg>