<svg xmlns="http://www.w3.org/2000/svg" viewBox="0 0 32 32"><defs><linearGradient gradientTransform="matrix(-2.54797 0 0-2.61863 187.08 313.32)" id="0" x1="67.821" y1="109.43" x2="67.781" y2="104.33" gradientUnits="userSpaceOnUse"><stop stop-color="#f9f9f9"/><stop offset="1" stop-color="#999"/></linearGradient></defs><rect width="28.2" height="28.2" x="1.898" y="1.898" fill="#8e8e8e" fill-rule="evenodd" rx="5.575"/><g transform="translate(41.846.864)" fill="#666"><rect y="6.875" x="-37.421" height="15.565" width="23.15" rx="2.278"/><rect rx="1.058" y="23.07" x="-37.421" height="2.115" width="23.15"/></g><path d="m14.07 9.875c-.025-.006-.051-.002-.074.014-.045.029-.053.093-.019.14l.567.808c-.901.411-1.534 1.37-1.615 2.281h6.137c-.081-.91-.711-1.871-1.611-2.281l.567-.808c.034-.048.024-.11-.019-.14-.045-.031-.108-.015-.142.033l-.587.839c-.389-.151-.82-.235-1.274-.235-.454 0-.886.084-1.274.235l-.589-.839c-.017-.024-.042-.04-.067-.046m.635 1.745c.188 0 .339.149.339.332 0 .183-.153.334-.339.334-.188 0-.341-.149-.341-.334 0-.183.153-.332.341-.332m2.63 0c.187 0 .339.149.339.332 0 .183-.153.334-.339.334-.188 0-.341-.149-.341-.334 0-.183.153-.332.341-.332m-4.404 2.375v4.205c0 .302.14.616.438.616h1.313v1.479c0 .394 0 .712.438.712.438 0 .44-.319.44-.712v-1.479h.877v1.479c0 .394-.034.712.437.712.438 0 .438-.219.438-.712v-1.479h1.318c.296 0 .438-.315.438-.616v-4.205m-7.435.002c-.458-.001-.459.331-.459.74v2.024c0 .409 0 .744.459.743.418-.001.418-.334.418-.743v-2.024c0-.409 0-.741-.418-.74zm8.727 0c-.419-.001-.42.331-.42.74v2.024c0 .409 0 .744.42.743.457-.001.457-.334.457-.743v-2.024c0-.409 0-.741-.457-.74" fill="#a4ca39"/>

   xmlns:dc="http://purl.org/dc/elements/1.1/"
   xmlns:cc="http://creativecommons.org/ns#"
   xmlns:rdf="http://www.w3.org/1999/02/22-rdf-syntax-ns#"
   xmlns:svg="http://www.w3.org/2000/svg"
   xmlns="http://www.w3.org/2000/svg"
   xmlns:xlink="http://www.w3.org/1999/xlink"
   xmlns:sodipodi="http://sodipodi.sourceforge.net/DTD/sodipodi-0.dtd"
   xmlns:inkscape="http://www.inkscape.org/namespaces/inkscape"
   version="1"
   width="32"
   height="32"
   id="svg12"
   sodipodi:docname="snow-mime-1.svg"
   inkscape:version="0.92.1 r"&gt;
  <path fill="#00000f" fill-opacity="0" d="m0 0h32v32h-32z"/><path d="m24.79 31.998c11.532.081 6.305-9.102 3.9-9.628-2.873-.227-4.257 2.594-5.581 3.885-5.02 4.1-11.551-5.844-14.288-3.282-1.657 1.846-2.104 1.097-3.03.582-1.739-.613-4.293.32-4.378 3.164-3.427 3.861-.04 5.647 5.164 5.268 5.732-.135 12.589.045 18.209.011" fill="url(#0)"/></svg>