<svg xmlns="http://www.w3.org/2000/svg" viewBox="0 0 32 32"><defs><linearGradient gradientTransform="matrix(-2.54797 0 0-2.61863 187.08 313.32)" id="0" x1="67.821" y1="109.43" x2="67.781" y2="104.33" gradientUnits="userSpaceOnUse"><stop stop-color="#f9f9f9"/><stop offset="1" stop-color="#999"/></linearGradient></defs><rect width="28.2" height="28.2" x="1.898" y="1.898" fill="#8e8e8e" fill-rule="evenodd" rx="5.575"/><path d="m7.826 5.118h16.348c.823 0 1.486.739 1.486 1.657v18.222c0 .917-.663 1.656-1.486 1.656h-16.348c-.823 0-1.486-.739-1.486-1.656v-18.221c.001-.918.664-1.656 1.487-1.656" fill="#4d4d4d"/><path d="m14.07 7.976l-.681.394.943 1.634c-1.723.833-1.731 2.776-1.731 2.776h7.089c0 0-.008-1.943-1.731-2.775l.943-1.634-.682-.394-1.02 1.766c-.313-.07-.658-.114-1.054-.114-.397 0-.743.044-1.057.114l-1.02-1.766m.502 3.228c.218 0 .392.176.392.392 0 .217-.176.395-.392.395-.218 0-.395-.176-.395-.395 0-.217.177-.392.395-.392zm3.151 0c.218 0 .392.176.392.392 0 .217-.176.395-.392.395-.218 0-.395-.176-.395-.395 0-.217.177-.392.395-.392m-6.662 2.363c-.453 0-.823.418-.823.933v3.648c0 .514.37.933.823.933.453 0 .752-.42.752-.934v-3.648c0-.514-.299-.932-.752-.932m1.54 0v6.695c0 .186.208.394.394.394h1.182v1.477c0 .49.312.886.788.886.473 0 .803-.397.788-.886v-1.477h.788v1.477c0 .49.312.886.788.886.473 0 .788-.403.788-.886v-1.477h1.182c.186 0 .394-.208.394-.394v-6.695zm8.7 0c-.453 0-.823.418-.823.933v3.648c0 .514.37.933.823.933.453 0 .752-.42.752-.934v-3.648c0-.514-.299-.932-.752-.932" fill="#a4ca39"/><g fill="#4d4d4d"><rect width="7.728" height=".966" x="12.192" y="3.243" rx=".483"/><circle cx="16" cy="28.19" r=".966"/></g>

   xmlns:dc="http://purl.org/dc/elements/1.1/"
   xmlns:cc="http://creativecommons.org/ns#"
   xmlns:rdf="http://www.w3.org/1999/02/22-rdf-syntax-ns#"
   xmlns:svg="http://www.w3.org/2000/svg"
   xmlns="http://www.w3.org/2000/svg"
   xmlns:xlink="http://www.w3.org/1999/xlink"
   xmlns:sodipodi="http://sodipodi.sourceforge.net/DTD/sodipodi-0.dtd"
   xmlns:inkscape="http://www.inkscape.org/namespaces/inkscape"
   version="1"
   width="32"
   height="32"
   id="svg12"
   sodipodi:docname="snow-mime-1.svg"
   inkscape:version="0.92.1 r"&gt;
  <path fill="#00000f" fill-opacity="0" d="m0 0h32v32h-32z"/><path d="m24.79 31.998c11.532.081 6.305-9.102 3.9-9.628-2.873-.227-4.257 2.594-5.581 3.885-5.02 4.1-11.551-5.844-14.288-3.282-1.657 1.846-2.104 1.097-3.03.582-1.739-.613-4.293.32-4.378 3.164-3.427 3.861-.04 5.647 5.164 5.268 5.732-.135 12.589.045 18.209.011" fill="url(#0)"/></svg>