<svg xmlns="http://www.w3.org/2000/svg" viewBox="0 0 32 32"><defs><linearGradient gradientTransform="matrix(-2.54797 0 0-2.61863 187.08 313.32)" id="0" x1="67.821" y1="109.43" x2="67.781" y2="104.33" gradientUnits="userSpaceOnUse"><stop stop-color="#f9f9f9"/><stop offset="1" stop-color="#999"/></linearGradient></defs><rect width="28.2" height="28.2" x="1.898" y="1.898" fill="#8e8e8e" fill-rule="evenodd" rx="5.575"/><rect width="23.15" height="16.908" x="4.426" y="7.546" fill="#4d4d4d" rx="2.475"/><path d="m13.301 9.301c-.029-.007-.059-.002-.084.016-.051.033-.06.106-.021.16l.646.922c-1.028.469-1.75 1.563-1.842 2.602h7c-.092-1.038-.811-2.134-1.838-2.602l.646-.922c.039-.055.028-.125-.021-.16-.051-.035-.123-.017-.162.037l-.67.957c-.444-.172-.936-.268-1.453-.268-.518 0-1.01.096-1.453.268l-.672-.957c-.02-.027-.047-.046-.076-.053m.725 1.99c.215 0 .387.17.387.379 0 .209-.174.381-.387.381-.215 0-.389-.17-.389-.381 0-.209.174-.379.389-.379m3 0c.213 0 .387.17.387.379 0 .209-.174.381-.387.381-.215 0-.389-.17-.389-.381 0-.209.174-.379.389-.379m-5.02 2.709v4.797c0 .344.16.703.5.703h1.498v1.688c0 .449 0 .813.5.813.5 0 .502-.363.502-.813v-1.688h1v1.688c0 .449-.039.813.498.813.5 0 .5-.25.5-.813v-1.688h1.504c.338 0 .5-.36.5-.703v-4.797zm-1.479.002c-.523-.001-.523.377-.523.844v2.308c0 .467.001.849.523.848.477-.001.477-.381.477-.848v-2.308c0-.467.001-.845-.477-.844m9.955 0c-.478-.001-.479.377-.479.844v2.308c0 .467 0 .849.479.848.522-.001.521-.381.521-.848v-2.308c0-.467 0-.845-.521-.844" fill="#a4ca39" transform="translate(.5.351)"/>

   xmlns:dc="http://purl.org/dc/elements/1.1/"
   xmlns:cc="http://creativecommons.org/ns#"
   xmlns:rdf="http://www.w3.org/1999/02/22-rdf-syntax-ns#"
   xmlns:svg="http://www.w3.org/2000/svg"
   xmlns="http://www.w3.org/2000/svg"
   xmlns:xlink="http://www.w3.org/1999/xlink"
   xmlns:sodipodi="http://sodipodi.sourceforge.net/DTD/sodipodi-0.dtd"
   xmlns:inkscape="http://www.inkscape.org/namespaces/inkscape"
   version="1"
   width="32"
   height="32"
   id="svg12"
   sodipodi:docname="snow-mime-1.svg"
   inkscape:version="0.92.1 r"&gt;
  <path fill="#00000f" fill-opacity="0" d="m0 0h32v32h-32z"/><path d="m24.79 31.998c11.532.081 6.305-9.102 3.9-9.628-2.873-.227-4.257 2.594-5.581 3.885-5.02 4.1-11.551-5.844-14.288-3.282-1.657 1.846-2.104 1.097-3.03.582-1.739-.613-4.293.32-4.378 3.164-3.427 3.861-.04 5.647 5.164 5.268 5.732-.135 12.589.045 18.209.011" fill="url(#0)"/></svg>