<svg xmlns="http://www.w3.org/2000/svg" viewBox="0 0 32 32"><defs><linearGradient gradientTransform="matrix(-2.54797 0 0-2.61863 187.08 313.32)" id="0" x1="67.821" y1="109.43" x2="67.781" y2="104.33" gradientUnits="userSpaceOnUse"><stop stop-color="#f9f9f9"/><stop offset="1" stop-color="#999"/></linearGradient></defs><rect width="28.2" height="28.2" x="1.898" y="1.898" fill="#518140" fill-rule="evenodd" rx="5.575"/><path d="m13.21 6.235v.698h-5.271c-.558 0-1.01.467-1.01 1.046v2.093c0 .58.449 1.046 1.01 1.046h.388v13.581c0 .591.456 1.067 1.023 1.067h13.299c.567 0 1.023-.476 1.023-1.067v-13.581h.388c.558 0 1.01-.467 1.01-1.046v-2.093c0-.58-.449-1.046-1.01-1.046h-5.271v-.698m-7.673 7.673h1.395c.386 0 .698.217.698.488v8.79c0 .27-.311.488-.698.488h-1.395c-.386 0-.698-.217-.698-.488v-8.79c0-.271.311-.488.698-.488zm4.185 0h1.395c.386 0 .698.217.698.488v8.79c0 .27-.311.488-.698.488h-1.395c-.386 0-.698-.217-.698-.488v-8.79c0-.271.311-.488.698-.488m4.185 0h1.395c.386 0 .698.217.698.488v8.79c0 .27-.311.488-.698.488h-1.395c-.386 0-.698-.217-.698-.488v-8.79c0-.271.311-.488.698-.488" fill="#fff" stroke-width=".698"/>

   xmlns:dc="http://purl.org/dc/elements/1.1/"
   xmlns:cc="http://creativecommons.org/ns#"
   xmlns:rdf="http://www.w3.org/1999/02/22-rdf-syntax-ns#"
   xmlns:svg="http://www.w3.org/2000/svg"
   xmlns="http://www.w3.org/2000/svg"
   xmlns:xlink="http://www.w3.org/1999/xlink"
   xmlns:sodipodi="http://sodipodi.sourceforge.net/DTD/sodipodi-0.dtd"
   xmlns:inkscape="http://www.inkscape.org/namespaces/inkscape"
   version="1"
   width="32"
   height="32"
   id="svg12"
   sodipodi:docname="snow-mime-1.svg"
   inkscape:version="0.92.1 r"&gt;
  <path fill="#00000f" fill-opacity="0" d="m0 0h32v32h-32z"/><path d="m24.79 31.998c11.532.081 6.305-9.102 3.9-9.628-2.873-.227-4.257 2.594-5.581 3.885-5.02 4.1-11.551-5.844-14.288-3.282-1.657 1.846-2.104 1.097-3.03.582-1.739-.613-4.293.32-4.378 3.164-3.427 3.861-.04 5.647 5.164 5.268 5.732-.135 12.589.045 18.209.011" fill="url(#0)"/></svg>