<svg xmlns="http://www.w3.org/2000/svg" viewBox="0 0 32 32"><defs><linearGradient gradientTransform="matrix(-2.54797 0 0-2.61863 187.08 313.32)" id="0" x1="67.821" y1="109.43" x2="67.781" y2="104.33" gradientUnits="userSpaceOnUse"><stop stop-color="#f9f9f9"/><stop offset="1" stop-color="#999"/></linearGradient></defs><g transform="translate(38.567-2.746)" fill-rule="evenodd"><path d="m-17.38 4.746h-13.651c-3.066 0-5.536 2.468-5.536 5.534v16.93c0 3.066 2.47 5.536 5.536 5.536h16.93c3.066 0 5.534-2.47 5.534-5.536v-13.651z" fill="#5bdd5b"/><path d="m-8.567 13.559l-8.813-8.813v3.279c0 3.066 2.468 5.534 5.534 5.534z" fill="#a9eda9" fill-opacity=".988"/></g><g transform="matrix(1.13971 0 0 1.13971-2.218-3.262)" fill="#fff" stroke-width=".877"><path d="m18.04 11.967c-2.168 0-3.926 1.757-3.926 3.924 0 .589.133 1.146.365 1.646l-.672.795-.059.746c-.006.006-.73.025-.73.025l-.373.271c0 0 .003.812 0 .801l-.002.002-.799.014-.338.385-.008.729c0 0-.688-.043-.758.021-.441.406-.738.695-.738.695l.004 1.908c0 0 .255-.002.373-.002l5.084-5.082c.305.266.658.471 1.035.633.475.205.991.334 1.541.334 2.169 0 3.928-1.755 3.928-3.922 0-2.166-1.758-3.924-3.928-3.924m.75 1.869c.723 0 1.309.586 1.309 1.309 0 .723-.586 1.309-1.309 1.309-.723 0-1.309-.586-1.309-1.309 0-.723.586-1.309 1.309-1.309" opacity=".75"/><path d="m18.793 13.836c-.723 0-1.309.586-1.309 1.309 0 .723.586 1.309 1.309 1.309.723 0 1.309-.586 1.309-1.309 0-.723-.586-1.309-1.309-1.309m0 .748c.31 0 .561.251.561.561 0 .31-.251.561-.561.561-.31 0-.563-.251-.563-.561 0-.31.253-.561.563-.561m-3.326 4.262l-5.086 5.084h1.869l4.439-4.361c-.453-.167-.866-.412-1.223-.723" opacity=".5"/></g>

   xmlns:dc="http://purl.org/dc/elements/1.1/"
   xmlns:cc="http://creativecommons.org/ns#"
   xmlns:rdf="http://www.w3.org/1999/02/22-rdf-syntax-ns#"
   xmlns:svg="http://www.w3.org/2000/svg"
   xmlns="http://www.w3.org/2000/svg"
   xmlns:xlink="http://www.w3.org/1999/xlink"
   xmlns:sodipodi="http://sodipodi.sourceforge.net/DTD/sodipodi-0.dtd"
   xmlns:inkscape="http://www.inkscape.org/namespaces/inkscape"
   version="1"
   width="32"
   height="32"
   id="svg12"
   sodipodi:docname="snow-mime-1.svg"
   inkscape:version="0.92.1 r"&gt;
  <path fill="#00000f" fill-opacity="0" d="m0 0h32v32h-32z"/><path d="m24.79 31.998c11.532.081 6.305-9.102 3.9-9.628-2.873-.227-4.257 2.594-5.581 3.885-5.02 4.1-11.551-5.844-14.288-3.282-1.657 1.846-2.104 1.097-3.03.582-1.739-.613-4.293.32-4.378 3.164-3.427 3.861-.04 5.647 5.164 5.268 5.732-.135 12.589.045 18.209.011" fill="url(#0)"/></svg>