<svg xmlns="http://www.w3.org/2000/svg" viewBox="0 0 32 32"><defs><linearGradient gradientTransform="matrix(-2.54797 0 0-2.61863 187.08 313.32)" id="0" x1="67.821" y1="109.43" x2="67.781" y2="104.33" gradientUnits="userSpaceOnUse"><stop stop-color="#f9f9f9"/><stop offset="1" stop-color="#999"/></linearGradient></defs><g fill-rule="evenodd"><path d="m21.19 2h-13.651c-3.066 0-5.536 2.468-5.536 5.534v16.93c0 3.066 2.47 5.536 5.536 5.536h16.93c3.066 0 5.534-2.47 5.534-5.536v-13.651z" fill="#c03630"/><path d="m30 10.813l-8.813-8.813v3.279c0 3.066 2.468 5.534 5.534 5.534z" fill="#971f1f"/></g><path d="m15.777 8.984c-.384 0-.744.188-.831.499-.323 1.19.038 3.03.641 5.324l-.182.444c-.461 1.125-1.038 2.245-1.545 3.239-2.094 4.097-3.723 6.308-4.809 6.462l-.004-.045c-.024-.511.92-1.829 2.198-2.876.133-.108.702-.658.702-.658 0 0-.768.405-.941.51-1.602.956-2.399 1.914-2.529 2.55-.039.189-.014.421.153.517l.41.206c1.115.558 2.486-.909 4.309-4.104 1.855-.608 4.169-1.181 6.276-1.492 1.886 1.078 4.05 1.591 4.881 1.369.158-.042.325-.166.41-.28.067-.105.16-.526.16-.526 0 0-.156.213-.285.276-.526.248-2.187-.166-3.891-1 1.474-.157 2.701-.163 3.357.047.833.266.834.539.823.594.011-.046.049-.228.044-.306-.019-.2-.081-.379-.232-.526-.308-.304-1.07-.457-2.108-.471-.782-.009-1.72.06-2.738.206-.467-.268-.959-.563-1.349-.927-.989-.924-1.819-2.207-2.334-3.646.035-.138.069-.273.099-.409.143-.644.246-2.772.246-2.772 0 0-.408 1.599-.472 1.84-.041.153-.092.316-.151.486-.312-1.098-.471-2.162-.471-2.969 0-.228.02-.672.084-1.023.031-.25.122-.38.216-.443.186.045.395.331.612.809.187.413.175.891.175 1.187 0 0 .2-.733.154-1.166-.028-.26-.276-.929-.802-.921h-.043l-.234-.003m.179 6.647c.544 1.095 1.295 2.134 2.28 2.968.22.186.453.362.694.528-1.789.333-3.667.801-5.413 1.532.316-.561.657-1.172 1.01-1.83.677-1.28 1.087-2.268 1.432-3.198" fill="#fff" stroke-width="1.333"/>

   xmlns:dc="http://purl.org/dc/elements/1.1/"
   xmlns:cc="http://creativecommons.org/ns#"
   xmlns:rdf="http://www.w3.org/1999/02/22-rdf-syntax-ns#"
   xmlns:svg="http://www.w3.org/2000/svg"
   xmlns="http://www.w3.org/2000/svg"
   xmlns:xlink="http://www.w3.org/1999/xlink"
   xmlns:sodipodi="http://sodipodi.sourceforge.net/DTD/sodipodi-0.dtd"
   xmlns:inkscape="http://www.inkscape.org/namespaces/inkscape"
   version="1"
   width="32"
   height="32"
   id="svg12"
   sodipodi:docname="snow-mime-1.svg"
   inkscape:version="0.92.1 r"&gt;
  <path fill="#00000f" fill-opacity="0" d="m0 0h32v32h-32z"/><path d="m24.79 31.998c11.532.081 6.305-9.102 3.9-9.628-2.873-.227-4.257 2.594-5.581 3.885-5.02 4.1-11.551-5.844-14.288-3.282-1.657 1.846-2.104 1.097-3.03.582-1.739-.613-4.293.32-4.378 3.164-3.427 3.861-.04 5.647 5.164 5.268 5.732-.135 12.589.045 18.209.011" fill="url(#0)"/></svg>