<svg xmlns="http://www.w3.org/2000/svg" viewBox="0 0 32 32"><defs><linearGradient gradientTransform="matrix(-2.54797 0 0-2.61863 187.08 313.32)" id="0" x1="67.821" y1="109.43" x2="67.781" y2="104.33" gradientUnits="userSpaceOnUse"><stop stop-color="#f9f9f9"/><stop offset="1" stop-color="#999"/></linearGradient></defs><g fill="#13a553"><path d="m21.19 2h-13.651c-3.066 0-5.536 2.468-5.536 5.534v16.93c0 3.066 2.47 5.536 5.536 5.536h16.93c3.066 0 5.534-2.47 5.534-5.536v-13.651z" fill-rule="evenodd"/></g><path d="m30 10.813l-8.813-8.813v3.279c0 3.066 2.468 5.534 5.534 5.534z" fill="#008043" fill-rule="evenodd"/><path d="m16 9.864c-.885 0-1.701.477-2.136 1.248-.105-.014-.21-.021-.316-.022-1.354 0-2.452 1.098-2.452 2.452.001.107.009.213.024.318-.771.434-1.249 1.249-1.25 2.133 0 .885.477 1.701 1.248 2.136-.014.105-.021.21-.022.316 0 1.354 1.098 2.452 2.452 2.452v3.065c0 .546.66.819 1.046.433l1.406-1.406 1.406 1.406c.386.386 1.046.113 1.046-.433v-3.065c1.354 0 2.452-1.098 2.452-2.452-.001-.107-.009-.213-.024-.318.771-.434 1.249-1.249 1.25-2.133 0-.885-.477-1.701-1.248-2.136.014-.105.021-.21.022-.316 0-1.354-1.098-2.452-2.452-2.452-.107.001-.213.009-.318.024-.434-.771-1.249-1.249-2.133-1.25m0 2.452c2.031 0 3.678 1.647 3.678 3.678 0 2.031-1.647 3.678-3.678 3.678-2.031 0-3.678-1.647-3.678-3.678 0-2.031 1.647-3.678 3.678-3.678m0 .613c-1.693 0-3.065 1.372-3.065 3.065 0 1.693 1.372 3.065 3.065 3.065 1.693 0 3.065-1.372 3.065-3.065 0-1.693-1.372-3.065-3.065-3.065" fill="#fff" stroke-width="1.226"/>

   xmlns:dc="http://purl.org/dc/elements/1.1/"
   xmlns:cc="http://creativecommons.org/ns#"
   xmlns:rdf="http://www.w3.org/1999/02/22-rdf-syntax-ns#"
   xmlns:svg="http://www.w3.org/2000/svg"
   xmlns="http://www.w3.org/2000/svg"
   xmlns:xlink="http://www.w3.org/1999/xlink"
   xmlns:sodipodi="http://sodipodi.sourceforge.net/DTD/sodipodi-0.dtd"
   xmlns:inkscape="http://www.inkscape.org/namespaces/inkscape"
   version="1"
   width="32"
   height="32"
   id="svg12"
   sodipodi:docname="snow-mime-1.svg"
   inkscape:version="0.92.1 r"&gt;
  <path fill="#00000f" fill-opacity="0" d="m0 0h32v32h-32z"/><path d="m24.79 31.998c11.532.081 6.305-9.102 3.9-9.628-2.873-.227-4.257 2.594-5.581 3.885-5.02 4.1-11.551-5.844-14.288-3.282-1.657 1.846-2.104 1.097-3.03.582-1.739-.613-4.293.32-4.378 3.164-3.427 3.861-.04 5.647 5.164 5.268 5.732-.135 12.589.045 18.209.011" fill="url(#0)"/></svg>