<svg xmlns="http://www.w3.org/2000/svg" viewBox="0 0 32 32"><defs><linearGradient gradientTransform="matrix(-2.54797 0 0-2.61863 187.08 313.32)" id="0" x1="67.821" y1="109.43" x2="67.781" y2="104.33" gradientUnits="userSpaceOnUse"><stop stop-color="#f9f9f9"/><stop offset="1" stop-color="#999"/></linearGradient></defs><g fill="#a3c639"><path d="m21.19 2h-13.651c-3.066 0-5.536 2.468-5.536 5.534v16.93c0 3.066 2.47 5.536 5.536 5.536h16.93c3.066 0 5.534-2.47 5.534-5.536v-13.651z" fill-rule="evenodd"/></g><path d="m30 10.813l-8.813-8.813v3.279c0 3.066 2.468 5.534 5.534 5.534z" fill="#8cac22" fill-rule="evenodd"/><path d="m14.03 10.644c-.028-.006-.059-.002-.084.015-.05.032-.059.102-.021.155l.517.72c-1.147.429-1.941 1.353-1.941 2.723h7c0-1.411-.84-2.354-2.043-2.764l.488-.679c.038-.053.029-.122-.019-.155-.05-.033-.12-.017-.158.036l-.524.732c-.387-.108-.805-.17-1.244-.17-.48 0-.939.067-1.355.195l-.543-.757c-.02-.027-.045-.044-.073-.051m.973 1.613c.277 0 .498.223.498.498 0 .275-.224.502-.498.502-.277 0-.502-.224-.502-.502 0-.275.225-.498.502-.498m2 0c.277 0 .498.223.498.498 0 .275-.224.502-.498.502-.277 0-.502-.224-.502-.502 0-.275.225-.498.502-.498m-6.457 3c-.575 0-1.045.303-1.045.676v2.646c0 .373.47.678 1.045.678.575 0 .955-.305.955-.678v-2.646c0-.374-.379-.676-.955-.676m1.955 0v5.5c0 .277.223.5.5.5h.5v1.383c0 .409.641.617 1 .617.359 0 1.054-.213 1-.617v-1.383h1v1.383c0 .409.641.617 1 .617.359 0 1.027-.21 1-.617v-1.383h.5c.277 0 .5-.223.5-.5v-5.5zm9.04 0c-.575 0-1.045.303-1.045.676v2.646c0 .373.47.678 1.045.678.575 0 .955-.305.955-.678v-2.646c0-.374-.379-.676-.955-.676" fill="#fff" stroke-width="3"/>

   xmlns:dc="http://purl.org/dc/elements/1.1/"
   xmlns:cc="http://creativecommons.org/ns#"
   xmlns:rdf="http://www.w3.org/1999/02/22-rdf-syntax-ns#"
   xmlns:svg="http://www.w3.org/2000/svg"
   xmlns="http://www.w3.org/2000/svg"
   xmlns:xlink="http://www.w3.org/1999/xlink"
   xmlns:sodipodi="http://sodipodi.sourceforge.net/DTD/sodipodi-0.dtd"
   xmlns:inkscape="http://www.inkscape.org/namespaces/inkscape"
   version="1"
   width="32"
   height="32"
   id="svg12"
   sodipodi:docname="snow-mime-1.svg"
   inkscape:version="0.92.1 r"&gt;
  <path fill="#00000f" fill-opacity="0" d="m0 0h32v32h-32z"/><path d="m24.79 31.998c11.532.081 6.305-9.102 3.9-9.628-2.873-.227-4.257 2.594-5.581 3.885-5.02 4.1-11.551-5.844-14.288-3.282-1.657 1.846-2.104 1.097-3.03.582-1.739-.613-4.293.32-4.378 3.164-3.427 3.861-.04 5.647 5.164 5.268 5.732-.135 12.589.045 18.209.011" fill="url(#0)"/></svg>