<svg xmlns="http://www.w3.org/2000/svg" viewBox="0 0 32 32"><defs><linearGradient gradientTransform="matrix(-2.54797 0 0-2.61863 187.08 313.32)" id="0" x1="67.821" y1="109.43" x2="67.781" y2="104.33" gradientUnits="userSpaceOnUse"><stop stop-color="#f9f9f9"/><stop offset="1" stop-color="#999"/></linearGradient></defs><g transform="translate(45.97-.597)" fill-rule="evenodd"><path d="m21.19 2h-13.651c-3.066 0-5.536 2.468-5.536 5.534v16.93c0 3.066 2.47 5.536 5.536 5.536h16.93c3.066 0 5.534-2.47 5.534-5.536v-13.651z" transform="translate(-45.97.597)" fill="#8c96c2"/><path d="m-15.97 11.41l-8.813-8.813v3.279c0 3.066 2.468 5.534 5.534 5.534z" fill="#546096"/></g><path d="m16.475 18.643l-1.385-1.38.016-.016c.949-1.067 1.625-2.293 2.024-3.591h1.598v-1.1h-3.818v-1.1h-1.091v1.1h-3.818v1.095h6.093c-.365 1.062-.944 2.068-1.729 2.948-.507-.567-.927-1.188-1.26-1.842h-1.091c.398.896.944 1.744 1.625 2.508l-2.776 2.761.775.781 2.727-2.75 1.696 1.71zm3.071-2.788h-1.091l-2.455 6.6h1.091l.611-1.65h2.591l.616 1.65h1.091zm-1.429 3.85l.884-2.381.884 2.381z" fill="#546096"/>

   xmlns:dc="http://purl.org/dc/elements/1.1/"
   xmlns:cc="http://creativecommons.org/ns#"
   xmlns:rdf="http://www.w3.org/1999/02/22-rdf-syntax-ns#"
   xmlns:svg="http://www.w3.org/2000/svg"
   xmlns="http://www.w3.org/2000/svg"
   xmlns:xlink="http://www.w3.org/1999/xlink"
   xmlns:sodipodi="http://sodipodi.sourceforge.net/DTD/sodipodi-0.dtd"
   xmlns:inkscape="http://www.inkscape.org/namespaces/inkscape"
   version="1"
   width="32"
   height="32"
   id="svg12"
   sodipodi:docname="snow-mime-1.svg"
   inkscape:version="0.92.1 r"&gt;
  <path fill="#00000f" fill-opacity="0" d="m0 0h32v32h-32z"/><path d="m24.79 31.998c11.532.081 6.305-9.102 3.9-9.628-2.873-.227-4.257 2.594-5.581 3.885-5.02 4.1-11.551-5.844-14.288-3.282-1.657 1.846-2.104 1.097-3.03.582-1.739-.613-4.293.32-4.378 3.164-3.427 3.861-.04 5.647 5.164 5.268 5.732-.135 12.589.045 18.209.011" fill="url(#0)"/></svg>