<svg xmlns="http://www.w3.org/2000/svg" viewBox="0 0 32 32"><defs><linearGradient gradientTransform="matrix(-2.54797 0 0-2.61863 187.08 313.32)" id="0" x1="67.821" y1="109.43" x2="67.781" y2="104.33" gradientUnits="userSpaceOnUse"><stop stop-color="#f9f9f9"/><stop offset="1" stop-color="#999"/></linearGradient></defs><g transform="translate(40.12 2.269)" fill-rule="evenodd"><path d="m-18.932-.269h-13.651c-3.066 0-5.536 2.468-5.536 5.534v16.93c0 3.066 2.47 5.536 5.536 5.536h16.93c3.066 0 5.534-2.47 5.534-5.536v-13.651" fill="#707070"/><path d="m-10.119 8.544l-8.813-8.813v3.279c0 3.066 2.468 5.534 5.534 5.534z" fill="#b8b8b8"/></g><path d="m8.806 10.6v13.189h14.388v-13.189m-13.189 2.398h11.99v9.592h-11.99zm3.356 1.199l2.054 3.262-2.511 3.932h1.42l1.801-2.897 1.799 2.897h1.356c.016-.012.031-.023.047-.035l-2.466-3.897 2.035-3.262h-1.452l-1.319 2.227-1.319-2.227z" fill="#b8b8b8" color-rendering="auto" color-interpolation-filters="linearRGB" shape-rendering="auto" image-rendering="auto" color-interpolation="sRGB" color="#000"/>

   xmlns:dc="http://purl.org/dc/elements/1.1/"
   xmlns:cc="http://creativecommons.org/ns#"
   xmlns:rdf="http://www.w3.org/1999/02/22-rdf-syntax-ns#"
   xmlns:svg="http://www.w3.org/2000/svg"
   xmlns="http://www.w3.org/2000/svg"
   xmlns:xlink="http://www.w3.org/1999/xlink"
   xmlns:sodipodi="http://sodipodi.sourceforge.net/DTD/sodipodi-0.dtd"
   xmlns:inkscape="http://www.inkscape.org/namespaces/inkscape"
   version="1"
   width="32"
   height="32"
   id="svg12"
   sodipodi:docname="snow-mime-1.svg"
   inkscape:version="0.92.1 r"&gt;
  <path fill="#00000f" fill-opacity="0" d="m0 0h32v32h-32z"/><path d="m24.79 31.998c11.532.081 6.305-9.102 3.9-9.628-2.873-.227-4.257 2.594-5.581 3.885-5.02 4.1-11.551-5.844-14.288-3.282-1.657 1.846-2.104 1.097-3.03.582-1.739-.613-4.293.32-4.378 3.164-3.427 3.861-.04 5.647 5.164 5.268 5.732-.135 12.589.045 18.209.011" fill="url(#0)"/></svg>