<svg xmlns="http://www.w3.org/2000/svg" viewBox="0 0 32 32"><defs><linearGradient gradientTransform="matrix(-2.54797 0 0-2.61863 187.08 313.32)" id="0" x1="67.821" y1="109.43" x2="67.781" y2="104.33" gradientUnits="userSpaceOnUse"><stop stop-color="#f9f9f9"/><stop offset="1" stop-color="#999"/></linearGradient></defs><g transform="translate(46.687-1.194)" fill-rule="evenodd"><path d="m-25.5 3.194h-13.651c-3.066 0-5.536 2.468-5.536 5.534v16.93c0 3.066 2.47 5.536 5.536 5.536h16.93c3.066 0 5.534-2.47 5.534-5.536v-13.651" fill="#ff8b23"/><path d="m-16.687 12.01l-8.813-8.813v3.279c0 3.066 2.468 5.534 5.534 5.534z" fill="#66380e"/></g><path d="m15.398 9.522v3.597h1.199v-3.597m-3.597 1.199v2.398h1.199v-2.398zm4.796 0v2.398h1.199v-2.398zm-7.194 1.199v1.199h1.199v-1.199zm-1.199 2.398v4.796c0 2.174 1.211 3.597 3.597 3.597h-2.398v1.199h9.592v-1.199h-2.398c1.885 0 3.01-.872 3.597-2.398h1.199c1.199 0 1.199-.004 1.199-1.312v-1.312c0-2.18 0-2.174-1.199-2.174h-1.199v-1.199zm1.199 1.199h9.592v3.597c0 1.812-1.604 2.398-3.597 2.398h-2.398c-1.993 0-3.597-.586-3.597-2.398zm10.791 1.199h1.199v2.398h-1.199z" fill="#66380e"/>

   xmlns:dc="http://purl.org/dc/elements/1.1/"
   xmlns:cc="http://creativecommons.org/ns#"
   xmlns:rdf="http://www.w3.org/1999/02/22-rdf-syntax-ns#"
   xmlns:svg="http://www.w3.org/2000/svg"
   xmlns="http://www.w3.org/2000/svg"
   xmlns:xlink="http://www.w3.org/1999/xlink"
   xmlns:sodipodi="http://sodipodi.sourceforge.net/DTD/sodipodi-0.dtd"
   xmlns:inkscape="http://www.inkscape.org/namespaces/inkscape"
   version="1"
   width="32"
   height="32"
   id="svg12"
   sodipodi:docname="snow-mime-1.svg"
   inkscape:version="0.92.1 r"&gt;
  <path fill="#00000f" fill-opacity="0" d="m0 0h32v32h-32z"/><path d="m24.79 31.998c11.532.081 6.305-9.102 3.9-9.628-2.873-.227-4.257 2.594-5.581 3.885-5.02 4.1-11.551-5.844-14.288-3.282-1.657 1.846-2.104 1.097-3.03.582-1.739-.613-4.293.32-4.378 3.164-3.427 3.861-.04 5.647 5.164 5.268 5.732-.135 12.589.045 18.209.011" fill="url(#0)"/></svg>