<svg xmlns="http://www.w3.org/2000/svg" xmlns:xlink="http://www.w3.org/1999/xlink" viewBox="0 0 32 32"><defs><path id="1" d="m389.57 545.8v-28h15l7 7v21h-14z"/><linearGradient id="0" y1="544.8" y2="517.8" x2="0" gradientUnits="userSpaceOnUse"><stop stop-color="#fff" stop-opacity="0"/><stop offset="1" stop-color="#fff" stop-opacity=".2"/></linearGradient><linearGradient gradientTransform="matrix(-2.54797 0 0-2.61863 187.08 313.32)" id="2" x1="67.821" y1="109.43" x2="67.781" y2="104.33" gradientUnits="userSpaceOnUse"><stop stop-color="#f9f9f9"/><stop offset="1" stop-color="#999"/></linearGradient></defs><use height="32" width="32" xlink:href="#1" transform="translate(-367.57-516.8)" fill="url(#0)"/><g transform="translate(40.716.119)" fill-rule="evenodd"><path d="m21.19 2h-13.651c-3.066 0-5.536 2.468-5.536 5.534v16.93c0 3.066 2.47 5.536 5.536 5.536h16.93c3.066 0 5.534-2.47 5.534-5.536v-13.651z" transform="translate(-40.716-.119)" fill="#4ac5e0"/><path d="m-10.716 10.694l-8.813-8.813v3.279c0 3.066 2.468 5.534 5.534 5.534z" fill="#abe4f1"/></g><path d="m12 10.956v3h1v1.65a1.500006 1.500006 0 0 0 -1 1.41211 1.500006 1.500006 0 0 0 1 1.41211v1.525h-1v3h3v-1.809a6.999994 6 0 0 0 5 1.80859v-1a5.999996 5.00001 0 0 1 -5.76953 -3.63086 1.500006 1.500006 0 0 0 .76953 -1.30664 1.500006 1.500006 0 0 0 -.79883 -1.32227 5.999996 5.00001 0 0 1 5.79883 -3.74023v-1a6.999994 6 0 0 0 -5 1.80273v-1.803zm1 1h1v1h-1zm0 9h1v1h-1z" opacity=".9" fill="#abe4f1" color-rendering="auto" color-interpolation-filters="linearRGB" shape-rendering="auto" fill-rule="evenodd" image-rendering="auto" color-interpolation="sRGB" color="#4d4d4d"/>

   xmlns:dc="http://purl.org/dc/elements/1.1/"
   xmlns:cc="http://creativecommons.org/ns#"
   xmlns:rdf="http://www.w3.org/1999/02/22-rdf-syntax-ns#"
   xmlns:svg="http://www.w3.org/2000/svg"
   xmlns="http://www.w3.org/2000/svg"
   xmlns:xlink="http://www.w3.org/1999/xlink"
   xmlns:sodipodi="http://sodipodi.sourceforge.net/DTD/sodipodi-0.dtd"
   xmlns:inkscape="http://www.inkscape.org/namespaces/inkscape"
   version="1"
   width="32"
   height="32"
   id="svg12"
   sodipodi:docname="snow-mime-1.svg"
   inkscape:version="0.92.1 r"&gt;
  <path fill="#00000f" fill-opacity="0" d="m0 0h32v32h-32z"/><path d="m24.79 31.998c11.532.081 6.305-9.102 3.9-9.628-2.873-.227-4.257 2.594-5.581 3.885-5.02 4.1-11.551-5.844-14.288-3.282-1.657 1.846-2.104 1.097-3.03.582-1.739-.613-4.293.32-4.378 3.164-3.427 3.861-.04 5.647 5.164 5.268 5.732-.135 12.589.045 18.209.011" fill="url(#2)"/></svg>