<svg xmlns="http://www.w3.org/2000/svg" viewBox="0 0 32 32"><defs><linearGradient gradientTransform="matrix(-2.54797 0 0-2.61863 187.08 313.32)" id="0" x1="67.821" y1="109.43" x2="67.781" y2="104.33" gradientUnits="userSpaceOnUse"><stop stop-color="#f9f9f9"/><stop offset="1" stop-color="#999"/></linearGradient></defs><g transform="translate(58.17 4.068)" fill-rule="evenodd"><path d="m-36.983-2.068h-13.651c-3.066 0-5.536 2.468-5.536 5.534v16.93c0 3.066 2.47 5.536 5.536 5.536h16.93c3.066 0 5.534-2.47 5.534-5.536v-13.651" fill="#4d84b6"/><path d="m-28.17 6.745l-8.813-8.813v3.279c0 3.066 2.468 5.534 5.534 5.534z" fill="#41617e"/></g><path d="m12.745 24.329c-.294-.076-.264-.158.22-.612.834-.78.973-1.557.736-4.112-.189-2.038-.232-2.194-.55-2.024-.69.37-1.552-.107-2.531-1.398-.484-.638-.53-.826-.447-1.82.05-.609.155-1.345.231-1.635.117-.445.08-.527-.243-.527-.21 0-.49-.131-.623-.291-.334-.403.262-1.05.967-1.05.286 0 .629-.129.761-.287.339-.408.856-.356 1.437.144.618.532.828 1.763.482 2.815-.392 1.189-.12 1.306.429.183.307-.628.741-1.176 1.098-1.387.324-.192.799-.679 1.054-1.084.256-.404.575-.806.711-.893.418-.267 1.565-.634 1.993-.638.584-.012 1.366.678 1.505 1.313.066.3.418 1.01.781 1.571.364.565.661 1.125.661 1.246 0 .12.258.544.575.942.473.596.574.896.566 1.703-.009 1.107-.604 2.517-.823 1.949-.069-.179-.041-.485.064-.679.217-.407.026-2.21-.21-1.974-.165.165-.272 1.924-.226 3.698.06 2.302-.052 4.472-.233 4.531-.464.147-.667-.235-.477-.899.286-1 .227-3.66-.091-4.08-.147-.194-.324-.689-.393-1.101-.07-.412-.201-.794-.294-.85-.302-.187-.758 1.022-.758 2.01 0 .773-.117 1.129-.575 1.762-.649.896-.699 1.16-.287 1.501.321.267.383.876.107 1.047-.1.061-.358-.079-.575-.312-.307-.329-.394-.356-.394-.123 0 .35-.71.589-1.102.369-.21-.117-.16-.221.225-.474.687-.45.62-.818-.297-1.657-.715-.654-.779-.785-.661-1.366.371-1.84.37-1.888-.059-1.888-.28 0-.404.12-.404.396 0 .217-.095.574-.211.791-.205.383-.267.692-.763 3.842-.247 1.57-.308 1.63-1.377 1.351m5.143-3.343c.248-.482.285-.893.178-2.032-.141-1.512-.246-1.565-.66-.334-.141.421-.418.972-.614 1.222-.456.585-.447.762.06 1.302.544.579.662.561 1.036-.16" fill="#41617e"/>

   xmlns:dc="http://purl.org/dc/elements/1.1/"
   xmlns:cc="http://creativecommons.org/ns#"
   xmlns:rdf="http://www.w3.org/1999/02/22-rdf-syntax-ns#"
   xmlns:svg="http://www.w3.org/2000/svg"
   xmlns="http://www.w3.org/2000/svg"
   xmlns:xlink="http://www.w3.org/1999/xlink"
   xmlns:sodipodi="http://sodipodi.sourceforge.net/DTD/sodipodi-0.dtd"
   xmlns:inkscape="http://www.inkscape.org/namespaces/inkscape"
   version="1"
   width="32"
   height="32"
   id="svg12"
   sodipodi:docname="snow-mime-1.svg"
   inkscape:version="0.92.1 r"&gt;
  <path fill="#00000f" fill-opacity="0" d="m0 0h32v32h-32z"/><path d="m24.79 31.998c11.532.081 6.305-9.102 3.9-9.628-2.873-.227-4.257 2.594-5.581 3.885-5.02 4.1-11.551-5.844-14.288-3.282-1.657 1.846-2.104 1.097-3.03.582-1.739-.613-4.293.32-4.378 3.164-3.427 3.861-.04 5.647 5.164 5.268 5.732-.135 12.589.045 18.209.011" fill="url(#0)"/></svg>