<svg xmlns="http://www.w3.org/2000/svg" viewBox="0 0 32 32"><defs><linearGradient gradientTransform="matrix(-2.54797 0 0-2.61863 187.08 313.32)" id="0" x1="67.821" y1="109.43" x2="67.781" y2="104.33" gradientUnits="userSpaceOnUse"><stop stop-color="#f9f9f9"/><stop offset="1" stop-color="#999"/></linearGradient></defs><g transform="translate(43.12-9.627)" fill-rule="evenodd"><path d="m-21.932 11.627h-13.651c-3.066 0-5.536 2.468-5.536 5.534v16.93c0 3.066 2.47 5.536 5.536 5.536h16.93c3.066 0 5.534-2.47 5.534-5.536v-13.651z" fill="#59d4fb"/><path d="m-13.12 20.44l-8.813-8.813v3.279c0 3.066 2.468 5.534 5.534 5.534z" fill="#4e91a8"/></g><path d="m15.983 9.947c-.247 0-.449.2-.449.447v.408c-.797.204-1.369.912-1.369 1.762 0 .594.284 1.122.727 1.455.047.056.076.126.076.205 0 .023-.001.045-.004.066l-1.969 4.174h-.814c-.133 0-.242.107-.242.24 0 .133.109.24.242.24h.588l-1.52 3.223c-.096.204-.048.441.102.594l-.586 1.189.926-1c.246.064.51-.053.621-.289l1.752-3.715h1.539v.318c0 .203.167.367.371.367h.02c.204 0 .371-.164.371-.367v-.318h1.574l1.754 3.715c.11.237.373.353.617.289l.926 1-.584-1.189c.149-.153.197-.388.102-.594l-1.52-3.223h.551c.134 0 .242-.107.242-.24 0-.133-.108-.239-.242-.24h-.777l-1.969-4.174c-.003-.021-.004-.044-.004-.066 0-.077.028-.149.074-.205.443-.333.73-.861.73-1.455 0-.86-.601-1.575-1.406-1.77v-.4c0-.247-.201-.447-.449-.447m.43 1.648c.379.159.643.534.643.969 0 .58-.472 1.049-1.055 1.049-.586 0-1.055-.469-1.055-1.049 0-.42.253-.778.613-.945.055.183.22.32.424.32.211 0 .382-.147.43-.344m-.42 3.488h.008.01c.057 0 .107.028.139.068l1.563 3.313h-1.348v-.389c0-.204-.167-.367-.371-.367h-.02c-.204 0-.371.164-.371.367v.389h-1.313l1.563-3.313c.033-.041.083-.068.141-.068" fill="#4e91a8"/>

   xmlns:dc="http://purl.org/dc/elements/1.1/"
   xmlns:cc="http://creativecommons.org/ns#"
   xmlns:rdf="http://www.w3.org/1999/02/22-rdf-syntax-ns#"
   xmlns:svg="http://www.w3.org/2000/svg"
   xmlns="http://www.w3.org/2000/svg"
   xmlns:xlink="http://www.w3.org/1999/xlink"
   xmlns:sodipodi="http://sodipodi.sourceforge.net/DTD/sodipodi-0.dtd"
   xmlns:inkscape="http://www.inkscape.org/namespaces/inkscape"
   version="1"
   width="32"
   height="32"
   id="svg12"
   sodipodi:docname="snow-mime-1.svg"
   inkscape:version="0.92.1 r"&gt;
  <path fill="#00000f" fill-opacity="0" d="m0 0h32v32h-32z"/><path d="m24.79 31.998c11.532.081 6.305-9.102 3.9-9.628-2.873-.227-4.257 2.594-5.581 3.885-5.02 4.1-11.551-5.844-14.288-3.282-1.657 1.846-2.104 1.097-3.03.582-1.739-.613-4.293.32-4.378 3.164-3.427 3.861-.04 5.647 5.164 5.268 5.732-.135 12.589.045 18.209.011" fill="url(#0)"/></svg>