<svg xmlns="http://www.w3.org/2000/svg" viewBox="0 0 32 32"><defs><linearGradient gradientTransform="matrix(-2.54797 0 0-2.61863 187.08 313.32)" id="0" x1="67.821" y1="109.43" x2="67.781" y2="104.33" gradientUnits="userSpaceOnUse"><stop stop-color="#f9f9f9"/><stop offset="1" stop-color="#999"/></linearGradient></defs><g transform="translate(36.896-.119)" fill-rule="evenodd"><path d="m-15.709 2.119h-13.651c-3.066 0-5.536 2.468-5.536 5.534v16.93c0 3.066 2.47 5.536 5.536 5.536h16.93c3.066 0 5.534-2.47 5.534-5.536v-13.651z" fill="#9048af"/><path d="m-6.896 10.932l-8.813-8.813v3.279c0 3.066 2.468 5.534 5.534 5.534z" fill="#e5d5e8"/></g><path d="m16 11.07478a6 2 0 0 0 -6 2v4a6 2 0 0 0 5 1.9707v2.029h-2v-1h-3v3h3v-1h6v1h3v-3h-3v1h-2v-2.029a6 2 0 0 0 5 -1.9707h-1a5 1 0 0 1 -5 1 5 1 0 0 1 -5 -1v-2.898a6 2 0 0 0 5 .89844v-1a5 1 0 0 1 -5 -1 5 1 0 0 1 5 -1zm1 0v3h1v-1h.5c.831 0 1.5.669 1.5 1.5 0 .831-.669 1.5-1.5 1.5H17v1h1.5c1.385 0 2.5-1.115 2.5-2.5 0-1.385-1.115-2.5-2.5-2.5H20v-1zm-6 10h1v1h-1zm9 0h1v1h-1z" fill="#e5d5e8"/>

   xmlns:dc="http://purl.org/dc/elements/1.1/"
   xmlns:cc="http://creativecommons.org/ns#"
   xmlns:rdf="http://www.w3.org/1999/02/22-rdf-syntax-ns#"
   xmlns:svg="http://www.w3.org/2000/svg"
   xmlns="http://www.w3.org/2000/svg"
   xmlns:xlink="http://www.w3.org/1999/xlink"
   xmlns:sodipodi="http://sodipodi.sourceforge.net/DTD/sodipodi-0.dtd"
   xmlns:inkscape="http://www.inkscape.org/namespaces/inkscape"
   version="1"
   width="32"
   height="32"
   id="svg12"
   sodipodi:docname="snow-mime-1.svg"
   inkscape:version="0.92.1 r"&gt;
  <path fill="#00000f" fill-opacity="0" d="m0 0h32v32h-32z"/><path d="m24.79 31.998c11.532.081 6.305-9.102 3.9-9.628-2.873-.227-4.257 2.594-5.581 3.885-5.02 4.1-11.551-5.844-14.288-3.282-1.657 1.846-2.104 1.097-3.03.582-1.739-.613-4.293.32-4.378 3.164-3.427 3.861-.04 5.647 5.164 5.268 5.732-.135 12.589.045 18.209.011" fill="url(#0)"/></svg>