<svg xmlns="http://www.w3.org/2000/svg" viewBox="0 0 32 32"><defs><linearGradient gradientTransform="matrix(-2.54797 0 0-2.61863 187.08 313.32)" id="0" x1="67.821" y1="109.43" x2="67.781" y2="104.33" gradientUnits="userSpaceOnUse"><stop stop-color="#f9f9f9"/><stop offset="1" stop-color="#999"/></linearGradient></defs><g fill="#2095f2"><path d="m21.19 2h-13.651c-3.066 0-5.536 2.468-5.536 5.534v16.93c0 3.066 2.47 5.536 5.536 5.536h16.93c3.066 0 5.534-2.47 5.534-5.536v-13.651z" fill-rule="evenodd"/></g><path d="m30 10.813l-8.813-8.813v3.279c0 3.066 2.468 5.534 5.534 5.534z" fill="#0086d2" fill-rule="evenodd"/><path d="m16 8.729c-4.54 0-8.22 3.68-8.22 8.22 0 4.54 3.68 8.22 8.22 8.22 4.54 0 8.22-3.68 8.22-8.22 0-4.54-3.68-8.22-8.22-8.22m-.823 1.571c.096-.01.218.006.314 0 .012.046-.07.209-.179.447-.696 1.521-.735 3.303-.089 4.255.117.173.222.336.222.358 0 .021-.126.044-.268.044-.335 0-.651-.203-1.298-.716-.287-.228-.66-.418-.805-.447-.227-.045-.289-.026-.583.268-.274.274-.358.422-.358.672 0 .95 1.127 1.703 3.223 2.147 2.846.603 3.548 1.146 3.626 2.642.099 1.877-.901 3.292-3.09 4.388-.261.131-.427.18-.537.222-.049-.004-.085.004-.133 0-.019-.058-.046-.192-.046-.447 0-.997-.392-2.023-.984-2.596-.159-.154-.605-.48-.986-.716-.381-.236-.765-.509-.851-.626-.142-.194-.153-.314-.044-.672.199-.654.435-1.02.895-1.434.241-.217.483-.397.537-.401.053-.004-.306-.114-.849-.225-.542-.111-1.338-.345-1.748-.493-.75-.271-1.761-.84-2.147-1.252-.016-.017-.032-.03-.046-.046.553-2.203 2.105-4.01 4.163-4.879.431-.182.876-.308 1.344-.404.233-.048.475-.065.716-.089m6.716 3.358c.168.104.803 1.479.984 2.149.234.866.217 2.363 0 3.223-.083.327-.187.634-.222.672-.035.038-.164-.181-.314-.447-.15-.266-.631-.834-1.03-1.255-1.152-1.216-1.333-1.849-.851-2.819.243-.489 1.303-1.603 1.434-1.523" fill="#c5ddff"/>

   xmlns:dc="http://purl.org/dc/elements/1.1/"
   xmlns:cc="http://creativecommons.org/ns#"
   xmlns:rdf="http://www.w3.org/1999/02/22-rdf-syntax-ns#"
   xmlns:svg="http://www.w3.org/2000/svg"
   xmlns="http://www.w3.org/2000/svg"
   xmlns:xlink="http://www.w3.org/1999/xlink"
   xmlns:sodipodi="http://sodipodi.sourceforge.net/DTD/sodipodi-0.dtd"
   xmlns:inkscape="http://www.inkscape.org/namespaces/inkscape"
   version="1"
   width="32"
   height="32"
   id="svg12"
   sodipodi:docname="snow-mime-1.svg"
   inkscape:version="0.92.1 r"&gt;
  <path fill="#00000f" fill-opacity="0" d="m0 0h32v32h-32z"/><path d="m24.79 31.998c11.532.081 6.305-9.102 3.9-9.628-2.873-.227-4.257 2.594-5.581 3.885-5.02 4.1-11.551-5.844-14.288-3.282-1.657 1.846-2.104 1.097-3.03.582-1.739-.613-4.293.32-4.378 3.164-3.427 3.861-.04 5.647 5.164 5.268 5.732-.135 12.589.045 18.209.011" fill="url(#0)"/></svg>