<svg xmlns="http://www.w3.org/2000/svg" viewBox="0 0 32 32"><defs><linearGradient gradientTransform="matrix(-2.54797 0 0-2.61863 187.08 313.32)" id="0" x1="67.821" y1="109.43" x2="67.781" y2="104.33" gradientUnits="userSpaceOnUse"><stop stop-color="#f9f9f9"/><stop offset="1" stop-color="#999"/></linearGradient></defs><g fill-rule="evenodd"><path d="m21.19 2h-13.651c-3.066 0-5.536 2.468-5.536 5.534v16.93c0 3.066 2.47 5.536 5.536 5.536h16.93c3.066 0 5.534-2.47 5.534-5.536v-13.651z" fill="#ccc"/><path d="m30 10.813l-8.813-8.813v3.279c0 3.066 2.468 5.534 5.534 5.534z" fill="#999"/></g><path d="m10.408 10.443c-.655.402-1.974.967-3.059 1.282l.034.095c.516-.052 1.068-.124 1.586-.212v1.32h-1.612l.043.145h1.318c-.258 1.062-.732 2.191-1.413 3.01l.103.096c.638-.462 1.154-.997 1.559-1.606v2.743h.164c.439 0 .724-.169.732-.221v-3.094c.328.295.637.764.698 1.131.112.094.233.14.345.14.232 0 .43-.169.43-.403 0-.317-.362-.734-1.473-.983v-.813h1.207c.233 0 .345-.037.405-.132l-.835-.565-.449.549h-.327v-1.495c.388-.088.75-.175 1.043-.263.112.03.208.045.293.045.104 0 .189-.023.242-.067l-1.033-.703zm3.97 1.018l-.379.433h-1.497l-.959-.353v5.629c.81 0 .914-.293.914-.308v-.535h1.628v.703c.682 0 .922-.198.922-.212v-4.574c.181-.036.319-.095.371-.162l-.999-.622m-1.921.58h1.628v4.141h-1.628zm9.671 6.615c-.953 0-1.644.223-2.075.667-.357.367-.558.928-.618 1.665h-1.636v-1.396c0-.182.028-.313.084-.392.055-.078.144-.122.269-.13l.254-.015c.094-.009.141-.055.141-.14 0-.063-.007-.102-.022-.117-.016-.015-.055-.023-.118-.023-.015 0-.06.002-.132.007-.283.013-.555.019-.819.019-.275 0-.56-.006-.85-.019-.069-.005-.111-.007-.124-.007-.061 0-.101.009-.117.023-.016.015-.024.053-.024.117 0 .085.049.132.149.14l.238.015c.131.008.223.05.278.128.055.078.083.21.083.395v3.742c0 .183-.027.315-.081.394-.054.078-.143.12-.27.129l-.247.015c-.006.002-.013.004-.023.004-.084.005-.126.047-.126.128 0 .066.009.107.027.122.018.017.056.024.114.024.016 0 .055-.001.118-.004.294-.014.579-.022.854-.022.263 0 .536.006.82.019.069.004.112.007.13.007.061 0 .101-.008.117-.024.016-.016.024-.057.024-.122 0-.08-.039-.123-.118-.128-.011-.002-.016-.004-.022-.004l-.246-.015c-.131-.009-.223-.05-.278-.128-.056-.077-.084-.209-.084-.395v-1.545h1.625c.041.813.227 1.427.578 1.818.399.442 1.04.663 1.924.663.961 0 1.663-.223 2.105-.669.441-.447.663-1.16.663-2.137 0-.99-.202-1.705-.606-2.146-.403-.443-1.056-.661-1.959-.661zm-.084.266c.659 0 1.135.198 1.427.593.291.395.436 1.045.436 1.947 0 .895-.146 1.541-.439 1.936-.293.396-.767.593-1.424.593-.658 0-1.134-.197-1.427-.593-.292-.395-.437-1.045-.437-1.948 0-.885.147-1.528.444-1.928.297-.4.769-.6 1.42-.6" fill="#999" stroke-width="1.39"/>

   xmlns:dc="http://purl.org/dc/elements/1.1/"
   xmlns:cc="http://creativecommons.org/ns#"
   xmlns:rdf="http://www.w3.org/1999/02/22-rdf-syntax-ns#"
   xmlns:svg="http://www.w3.org/2000/svg"
   xmlns="http://www.w3.org/2000/svg"
   xmlns:xlink="http://www.w3.org/1999/xlink"
   xmlns:sodipodi="http://sodipodi.sourceforge.net/DTD/sodipodi-0.dtd"
   xmlns:inkscape="http://www.inkscape.org/namespaces/inkscape"
   version="1"
   width="32"
   height="32"
   id="svg12"
   sodipodi:docname="snow-mime-1.svg"
   inkscape:version="0.92.1 r"&gt;
  <path fill="#00000f" fill-opacity="0" d="m0 0h32v32h-32z"/><path d="m24.79 31.998c11.532.081 6.305-9.102 3.9-9.628-2.873-.227-4.257 2.594-5.581 3.885-5.02 4.1-11.551-5.844-14.288-3.282-1.657 1.846-2.104 1.097-3.03.582-1.739-.613-4.293.32-4.378 3.164-3.427 3.861-.04 5.647 5.164 5.268 5.732-.135 12.589.045 18.209.011" fill="url(#0)"/></svg>