<svg xmlns="http://www.w3.org/2000/svg" viewBox="0 0 32 32"><defs><linearGradient gradientTransform="matrix(-2.54797 0 0-2.61863 187.08 313.32)" id="0" x1="67.821" y1="109.43" x2="67.781" y2="104.33" gradientUnits="userSpaceOnUse"><stop stop-color="#f9f9f9"/><stop offset="1" stop-color="#999"/></linearGradient></defs><g fill-rule="evenodd"><path d="m21.19 2h-13.651c-3.066 0-5.536 2.468-5.536 5.534v16.93c0 3.066 2.47 5.536 5.536 5.536h16.93c3.066 0 5.534-2.47 5.534-5.536v-13.651z" fill="#e81d62"/><path d="m30 10.813l-8.813-8.813v3.279c0 3.066 2.468 5.534 5.534 5.534z" fill="#bf1851"/></g><path d="m15.93 10.864c-2.992 0-5.547.672-6.606 1.623-.089.08-.17.16-.237.243-.064.079-.117.161-.16.243a7.131885 2.59661 0 0 0 -.031351 .07608c-.024.056-.052.11-.066.167a7.131885 2.59661 0 0 0 -.031351 .243432c0 .084.016.17.038.254a7.131885 2.59661 0 0 0 .097507 .243433 7.131885 2.59661 0 0 0 .163676 .240896 7.131885 2.59661 0 0 0 .226353 .235826 7.131885 2.59661 0 0 0 6.606047 1.622881 7.131885 2.59661 0 0 0 6.606048 -1.622881 7.131885 2.59661 0 0 0 .0035 0 7.131885 2.59661 0 0 0 .19153 -.20286c.011-.013.028-.025.038-.038a7.131885 2.59661 0 0 0 .114909 -.17243c.017-.027.038-.054.052-.081a7.131885 2.59661 0 0 0 .0592 -.144539c.014-.038.029-.076.038-.114a7.131885 2.59661 0 0 0 .03134 -.218075 7.131885 2.59661 0 0 0 -.0383 -.261183c-.07-.251-.238-.488-.488-.713-1.059-.95-3.614-1.623-6.606-1.623zm-6.606 5.193c-.346.338-.524.699-.526 1.062 0 1.564 3.193 2.832 7.132 2.832 3.939 0 7.132-1.268 7.132-2.832-.002-.364-.18-.725-.526-1.062-1.089 1.07-3.702 1.946-6.606 1.947-2.904-.001-5.517-.878-6.606-1.947m0 3.895c-.346.338-.524.699-.526 1.062 0 1.564 3.193 2.832 7.132 2.832 3.939 0 7.132-1.268 7.132-2.832-.002-.364-.18-.725-.526-1.062-1.089 1.07-3.702 1.946-6.606 1.947-2.904-.001-5.517-.878-6.606-1.947" fill="#ffb2af" stroke-width="1.461"/>

   xmlns:dc="http://purl.org/dc/elements/1.1/"
   xmlns:cc="http://creativecommons.org/ns#"
   xmlns:rdf="http://www.w3.org/1999/02/22-rdf-syntax-ns#"
   xmlns:svg="http://www.w3.org/2000/svg"
   xmlns="http://www.w3.org/2000/svg"
   xmlns:xlink="http://www.w3.org/1999/xlink"
   xmlns:sodipodi="http://sodipodi.sourceforge.net/DTD/sodipodi-0.dtd"
   xmlns:inkscape="http://www.inkscape.org/namespaces/inkscape"
   version="1"
   width="32"
   height="32"
   id="svg12"
   sodipodi:docname="snow-mime-1.svg"
   inkscape:version="0.92.1 r"&gt;
  <path fill="#00000f" fill-opacity="0" d="m0 0h32v32h-32z"/><path d="m24.79 31.998c11.532.081 6.305-9.102 3.9-9.628-2.873-.227-4.257 2.594-5.581 3.885-5.02 4.1-11.551-5.844-14.288-3.282-1.657 1.846-2.104 1.097-3.03.582-1.739-.613-4.293.32-4.378 3.164-3.427 3.861-.04 5.647 5.164 5.268 5.732-.135 12.589.045 18.209.011" fill="url(#0)"/></svg>