<svg xmlns="http://www.w3.org/2000/svg" viewBox="0 0 32 32"><defs><linearGradient id="0" y1="392.36" y2="336.36" gradientUnits="userSpaceOnUse" x2="0" gradientTransform="matrix(.5 0 0 .48276 13.263-177.46)"><stop stop-color="#fff" stop-opacity="0"/><stop offset="1" stop-color="#fff" stop-opacity=".2"/></linearGradient><linearGradient gradientTransform="matrix(-2.54797 0 0-2.61863 187.08 313.32)" id="1" x1="67.821" y1="109.43" x2="67.781" y2="104.33" gradientUnits="userSpaceOnUse"><stop stop-color="#f9f9f9"/><stop offset="1" stop-color="#999"/></linearGradient></defs><path d="m25.26-15.562v28h22v-28h-7z" fill="url(#0)" color-rendering="auto" color-interpolation-filters="linearRGB" shape-rendering="auto" image-rendering="auto" color-interpolation="sRGB" color="#000"/><g transform="translate(61.851 4.299)" fill-rule="evenodd"><path d="m-40.664-2.299h-13.651c-3.066 0-5.536 2.468-5.536 5.534v16.93c0 3.066 2.47 5.536 5.536 5.536h16.93c3.066 0 5.534-2.47 5.534-5.536v-13.651" fill="#fada6b"/><path d="m-31.851 6.515l-8.813-8.813v3.279c0 3.066 2.468 5.534 5.534 5.534z" fill="#fdedb8"/></g><path d="m16 20.278l-3.772-3.773 3.772-3.769 1.258 1.255-2.517 2.514 1.258 1.259 3.772-3.773-3.287-3.284c-.267-.267-.704-.267-.971 0l-5.312 5.313c-.27.267-.27.704 0 .974l5.312 5.313c.267.267.704.267.971 0l5.312-5.313c.27-.27.27-.707 0-.974l-.77-.77z" opacity=".75" fill="#fff"/>

   xmlns:dc="http://purl.org/dc/elements/1.1/"
   xmlns:cc="http://creativecommons.org/ns#"
   xmlns:rdf="http://www.w3.org/1999/02/22-rdf-syntax-ns#"
   xmlns:svg="http://www.w3.org/2000/svg"
   xmlns="http://www.w3.org/2000/svg"
   xmlns:xlink="http://www.w3.org/1999/xlink"
   xmlns:sodipodi="http://sodipodi.sourceforge.net/DTD/sodipodi-0.dtd"
   xmlns:inkscape="http://www.inkscape.org/namespaces/inkscape"
   version="1"
   width="32"
   height="32"
   id="svg12"
   sodipodi:docname="snow-mime-1.svg"
   inkscape:version="0.92.1 r"&gt;
  <path fill="#00000f" fill-opacity="0" d="m0 0h32v32h-32z"/><path d="m24.79 31.998c11.532.081 6.305-9.102 3.9-9.628-2.873-.227-4.257 2.594-5.581 3.885-5.02 4.1-11.551-5.844-14.288-3.282-1.657 1.846-2.104 1.097-3.03.582-1.739-.613-4.293.32-4.378 3.164-3.427 3.861-.04 5.647 5.164 5.268 5.732-.135 12.589.045 18.209.011" fill="url(#1)"/></svg>