<svg xmlns="http://www.w3.org/2000/svg" viewBox="0 0 32 32"><defs><linearGradient id="0" y1="26.747" x1="3.584" y2="6.79" x2="28.983" gradientUnits="userSpaceOnUse"><stop stop-color="#dedede"/><stop offset="1" stop-color="#fbfbfb"/></linearGradient><linearGradient gradientTransform="matrix(-2.54797 0 0-2.61863 187.08 313.32)" id="1" x1="67.821" y1="109.43" x2="67.781" y2="104.33" gradientUnits="userSpaceOnUse"><stop stop-color="#f9f9f9"/><stop offset="1" stop-color="#999"/></linearGradient></defs><g fill-rule="evenodd"><path d="m21.19 2h-13.651c-3.066 0-5.536 2.468-5.536 5.534v16.93c0 3.066 2.47 5.536 5.536 5.536h16.93c3.066 0 5.534-2.47 5.534-5.536v-13.651" fill="#717f8d"/><path d="m30 10.813l-8.813-8.813v3.279c0 3.066 2.468 5.534 5.534 5.534z" fill="#f7f7f7"/></g><path d="M16.28469 9.755917A7.01082 7.01082 0 0 0 9.273865 16.766742 7.01082 7.01082 0 0 0 16.28469 23.777568 7.01082 7.01082 0 0 0 23.295516 16.766742 7.01082 7.01082 0 0 0 16.28469 9.755917m0 1.168471a5.842354 5.842354 0 0 1 5.842355 5.842354 5.842354 5.842354 0 0 1 -5.842355 5.842355 5.842354 5.842354 0 0 1 -5.842354 -5.842355 5.842354 5.842354 0 0 1 5.842354 -5.842354m-2.337 2.337v7.01l5.842-3.505z" fill="#e7e7e7"/><path d="m4.491 8.604v1.814h1.814v-1.814m19.957 0v1.814h1.814v-1.814m-23.585 3.629v1.814h1.814v-1.814zm21.771 0v1.814h1.814v-1.814m-23.585 3.629v1.814h1.814v-1.814zm21.771 0v1.814h1.814v-1.814m-23.585 3.629v1.814h1.814v-1.814zm21.771 0v1.814h1.814v-1.814m-23.585 3.629v1.814h1.814v-1.814zm21.771 0v1.814h1.814v-1.814z" fill="url(#0)"/>

   xmlns:dc="http://purl.org/dc/elements/1.1/"
   xmlns:cc="http://creativecommons.org/ns#"
   xmlns:rdf="http://www.w3.org/1999/02/22-rdf-syntax-ns#"
   xmlns:svg="http://www.w3.org/2000/svg"
   xmlns="http://www.w3.org/2000/svg"
   xmlns:xlink="http://www.w3.org/1999/xlink"
   xmlns:sodipodi="http://sodipodi.sourceforge.net/DTD/sodipodi-0.dtd"
   xmlns:inkscape="http://www.inkscape.org/namespaces/inkscape"
   version="1"
   width="32"
   height="32"
   id="svg12"
   sodipodi:docname="snow-mime-1.svg"
   inkscape:version="0.92.1 r"&gt;
  <path fill="#00000f" fill-opacity="0" d="m0 0h32v32h-32z"/><path d="m24.79 31.998c11.532.081 6.305-9.102 3.9-9.628-2.873-.227-4.257 2.594-5.581 3.885-5.02 4.1-11.551-5.844-14.288-3.282-1.657 1.846-2.104 1.097-3.03.582-1.739-.613-4.293.32-4.378 3.164-3.427 3.861-.04 5.647 5.164 5.268 5.732-.135 12.589.045 18.209.011" fill="url(#1)"/></svg>