<svg xmlns="http://www.w3.org/2000/svg" viewBox="0 0 32 32"><defs><linearGradient gradientTransform="matrix(-2.54797 0 0-2.61863 187.08 313.32)" id="0" x1="67.821" y1="109.43" x2="67.781" y2="104.33" gradientUnits="userSpaceOnUse"><stop stop-color="#f9f9f9"/><stop offset="1" stop-color="#999"/></linearGradient></defs><g transform="translate(54.915 9.492)"><g fill-rule="evenodd"><path d="m-33.728-7.492h-13.651c-3.066 0-5.536 2.468-5.536 5.534v16.93c0 3.066 2.47 5.536 5.536 5.536h16.93c3.066 0 5.534-2.47 5.534-5.536v-13.651" fill="#af7bdd"/><path d="m-24.915 1.321l-8.813-8.813v3.279c0 3.066 2.468 5.534 5.534 5.534z" fill="#7c5e97"/></g><path d="m-40.22 12.291c-1.019 0-1.714-.494-1.529-1.753.232-1.573 1.204-2.09 4.285-2.517.023 0 .973-.157.973-.157l-.394 2.787c-.834 1.011-2.339 1.64-3.335 1.64m3.173-.135l.046 1.303h1.32l1.204-8.427c.371-2.562-1.135-3.303-3.243-3.303-1.506 0-2.988.427-3.868.921l.255 1.393c.95-.449 2.247-.764 3.428-.764 1.459 0 1.992.697 1.807 2.045l-.208 1.281-1.089.135c-2.803.427-5.536.854-5.976 3.865-.324 2.157.996 3.124 2.756 3.124 1.112 0 2.478-.404 3.567-1.573" fill="#7c5e97"/></g>

   xmlns:dc="http://purl.org/dc/elements/1.1/"
   xmlns:cc="http://creativecommons.org/ns#"
   xmlns:rdf="http://www.w3.org/1999/02/22-rdf-syntax-ns#"
   xmlns:svg="http://www.w3.org/2000/svg"
   xmlns="http://www.w3.org/2000/svg"
   xmlns:xlink="http://www.w3.org/1999/xlink"
   xmlns:sodipodi="http://sodipodi.sourceforge.net/DTD/sodipodi-0.dtd"
   xmlns:inkscape="http://www.inkscape.org/namespaces/inkscape"
   version="1"
   width="32"
   height="32"
   id="svg12"
   sodipodi:docname="snow-mime-1.svg"
   inkscape:version="0.92.1 r"&gt;
  <path fill="#00000f" fill-opacity="0" d="m0 0h32v32h-32z"/><path d="m24.79 31.998c11.532.081 6.305-9.102 3.9-9.628-2.873-.227-4.257 2.594-5.581 3.885-5.02 4.1-11.551-5.844-14.288-3.282-1.657 1.846-2.104 1.097-3.03.582-1.739-.613-4.293.32-4.378 3.164-3.427 3.861-.04 5.647 5.164 5.268 5.732-.135 12.589.045 18.209.011" fill="url(#0)"/></svg>