<svg xmlns="http://www.w3.org/2000/svg" viewBox="0 0 32 32"><defs><linearGradient gradientTransform="matrix(-2.54797 0 0-2.61863 187.08 313.32)" id="0" x1="67.821" y1="109.43" x2="67.781" y2="104.33" gradientUnits="userSpaceOnUse"><stop stop-color="#f9f9f9"/><stop offset="1" stop-color="#999"/></linearGradient></defs><g transform="translate(44.896 3.104)" fill-rule="evenodd"><path d="m-23.709-1.104h-13.651c-3.066 0-5.536 2.468-5.536 5.534v16.93c0 3.066 2.47 5.536 5.536 5.536h16.93c3.066 0 5.534-2.47 5.534-5.536v-13.651" fill="#576cac"/><path d="m-14.896 7.709l-8.813-8.813v3.279c0 3.066 2.468 5.534 5.534 5.534z" fill="#afb9d7"/></g><path d="m20.675 9.831l-2.054 2.054h-6.294a1.900716 1.900716 0 0 0 -1.789347 -1.267144 1.900716 1.900716 0 0 0 -1.900715 1.900716 1.900716 1.900716 0 0 0 1.267144 1.789346v8.982h3.801v1.267h3.801v-1.267h3.801v-8.717l2.054-2.054zm0 1.792l.896.896-.896.896-.896-.896zm-10.13715.262337a.633572 .633572 0 0 1 .633572 .633572 .633572 .633572 0 0 1 -.633572 .633572 .633572 .633572 0 0 1 -.633572 -.633572 .633572 .633572 0 0 1 .633572 -.633572m1.789 1.267h6.294l1.42 1.42v7.45h-2.534v-1.267h-3.801v1.267h-2.534v-7.714a1.900716 1.900716 0 0 0 1.155774 -1.155775m2.646 8.87h1.267v1.267h-1.267z" fill="#9eaacf"/>

   xmlns:dc="http://purl.org/dc/elements/1.1/"
   xmlns:cc="http://creativecommons.org/ns#"
   xmlns:rdf="http://www.w3.org/1999/02/22-rdf-syntax-ns#"
   xmlns:svg="http://www.w3.org/2000/svg"
   xmlns="http://www.w3.org/2000/svg"
   xmlns:xlink="http://www.w3.org/1999/xlink"
   xmlns:sodipodi="http://sodipodi.sourceforge.net/DTD/sodipodi-0.dtd"
   xmlns:inkscape="http://www.inkscape.org/namespaces/inkscape"
   version="1"
   width="32"
   height="32"
   id="svg12"
   sodipodi:docname="snow-mime-1.svg"
   inkscape:version="0.92.1 r"&gt;
  <path fill="#00000f" fill-opacity="0" d="m0 0h32v32h-32z"/><path d="m24.79 31.998c11.532.081 6.305-9.102 3.9-9.628-2.873-.227-4.257 2.594-5.581 3.885-5.02 4.1-11.551-5.844-14.288-3.282-1.657 1.846-2.104 1.097-3.03.582-1.739-.613-4.293.32-4.378 3.164-3.427 3.861-.04 5.647 5.164 5.268 5.732-.135 12.589.045 18.209.011" fill="url(#0)"/></svg>