<svg xmlns="http://www.w3.org/2000/svg" viewBox="0 0 32 32"><defs><linearGradient gradientTransform="matrix(-2.54797 0 0-2.61863 187.08 313.32)" id="0" x1="67.821" y1="109.43" x2="67.781" y2="104.33" gradientUnits="userSpaceOnUse"><stop stop-color="#f9f9f9"/><stop offset="1" stop-color="#999"/></linearGradient></defs><g transform="translate(57.31 1.313)" fill-rule="evenodd"><path d="m-36.13.687h-13.651c-3.066 0-5.536 2.468-5.536 5.534v16.93c0 3.066 2.47 5.536 5.536 5.536h16.93c3.066 0 5.534-2.47 5.534-5.536v-13.651" fill="#396790"/><path d="m-27.313 9.5l-8.813-8.813v3.279c0 3.066 2.468 5.534 5.534 5.534z" fill="#95bbff"/></g><path d="m16 8.806c-4.369 0-7.91 3.541-7.91 7.91 0 4.369 3.541 7.91 7.91 7.91 4.369 0 7.91-3.541 7.91-7.91 0-4.369-3.541-7.91-7.91-7.91m0 1.318c.228 0 .438.018.659.041.053 0 .112 0 .165 0 .07.013.137.03.206.041.19.03.352.078.535.124.339.083.674.196.989.33.174.074.328.16.494.248 0 .013.001.026 0 .041.038.017.059.088.124.124.024.013.018.029.041.041.038.021.09.045.083.082-.011.053-.087.042-.124.082.005.076-.063.073-.083.124.012.033.076.044.083.082-.007.042-.099.04-.083.082.071.055.138.013.206 0 .148-.018.28-.013.37-.082-.012-.07.132-.061.124-.124.038.028.086.054.124.082-.015.013-.025.034-.041.041-.028.013-.057.025-.083.041-.037.024-.082.055-.124.082-.03.021-.092.124-.124.124-.038 0-.096-.049-.124-.041-.04.013-.038.067-.083.082-.087.032-.258-.047-.289.082.037.075.181.041.248.082.041.026.113.12.124.165.011.037.016.208 0 .248-.041.105-.167.083-.289.082h-.083c-.204-.013-.402-.105-.494.041.007.112.025.191 0 .289-.018.071-.128.145-.124.206.001.032.075.079.083.124.005.024-.011.059 0 .082.034.065.104-.013.165 0 .058.013.124.1.124.165 0 .046-.012.12-.041.165-.058.087-.165.076-.248.124-.069.04-.083.138-.124.206-.044.074-.099.1-.083.206-.059.117-.124.19-.248.248-.036.016-.091.017-.124.041-.026.018-.045.082-.083.124-.046.051-.099.084-.124.124-.018.03-.021.082-.041.124-.029.055-.087.069-.124.124-.017.026-.022.09-.041.124-.042.076-.09.138-.083.206.007.063.079.066.083.124.004.032-.042.047-.041.082.001.05.037.084.041.124.009.098-.063.14-.083.206-.009.032.008.057 0 .082-.016.049-.082.107-.083.165-.001.041.079.066.083.124.003.038-.049.087-.041.124.015.071.15.15.206.206.075.075.173.127.206.206.028.067.032.196.083.248.038.037.116.044.165.082.046.036.075.044.124.082.08.063.202.215.33.206.067-.013.131-.07.206-.082.078-.013.169-.047.248-.041.061.013.142.045.206.041.066-.013.131-.013.206-.041.131-.057.345-.152.535-.124.145.021.146.183.248.248.116.013.196-.022.289 0 .07.017.158.109.165.165.007.057-.075.129-.083.165-.018.076.013.157 0 .206-.011.038-.042.086-.041.124 0 .034.047.12.083.165.044.055.112.105.165.165.096.111.138.224.206.37.017.037-.016.076 0 .124-.029.221-.102.373-.248.618-.069.079-.166.149-.165.248-.005.237.134.389.124.618-.024.309.024.33 0 .494.104.053.03.22 0 .33-.045.131-.099.16-.124.248.07.03.17.018.248 0-.04.041-.083.083-.124.124-.298.298-.638.587-.989.824-.68.46-1.437.808-2.266.989-.454.099-.919.124-1.401.124-.25 0-.498-.013-.742-.041-.194-.022-.389-.044-.577-.082-.373-.076-.724-.235-1.072-.37-.012-.022-.044-.055-.041-.082.069-.029.198.098.248 0 .025-.046-.033-.16 0-.206.024-.032.157-.032.206-.041.07-.013.166-.022.206-.041.044-.028.09-.125.083-.206-.004-.038-.053-.047-.083-.082-.025-.029.017-.055 0-.082-.032-.046-.111-.057-.124-.124.095-.018.233.079.37.041.065-.018.175-.145.206-.206.009-.018-.011-.058 0-.082.012-.024.037-.07.041-.082.009-.036-.008-.017 0-.041.024-.067.084-.117.124-.165.03-.037.096-.086.124-.124.032-.041.02-.045.041-.082.02-.12-.07-.224-.041-.33.032-.119.215-.192.33-.248.04-.018.091-.029.124-.041.079-.028.174-.057.248-.082.124-.045.145-.134.206-.248.029-.053.076-.127.083-.165.005-.034-.007-.042 0-.082.007-.038-.011-.079 0-.124.014-.057.041-.185.041-.248 0-.053-.04-.076-.041-.124-.009-.171.061-.153.124-.248.032-.046.061-.132.083-.165.107-.158.302-.214.289-.454-.005-.079-.066-.264-.124-.289-.033-.015-.075-.024-.124-.041-.156-.058-.291-.235-.454-.248h-.083c-.063 0-.134-.032-.206-.041-.045-.013-.138.013-.165 0-.041-.02-.05-.102-.083-.124-.026-.018-.083-.026-.124-.041-.065-.024-.09-.078-.165-.082-.024 0-.057.013-.083 0-.041-.013-.086-.017-.124-.041-.047-.029-.104-.041-.124-.082.044-.142-.095-.165-.124-.248-.013-.038.013-.131 0-.165-.017-.049-.07-.083-.124-.124-.095-.074-.153-.107-.289-.124-.061-.013-.133.013-.206 0-.076-.013-.19-.058-.248-.124-.055-.065-.075-.134-.124-.165-.046-.029-.092-.053-.124-.082-.014-.013-.028-.013-.041-.041-.024-.049-.07-.065-.041-.124-.053-.026-.025.05-.083.041-.051-.073-.09-.145-.206-.124-.053.013-.103.123-.165.124-.051 0-.098-.113-.165-.124-.051-.013-.129.047-.165.041-.057-.013-.073-.047-.124-.082-.038-.025-.103-.083-.124-.082-.066 0-.115.131-.206.082-.045-.057.094-.071.041-.124-.04-.038-.05.022-.083.041-.037.024-.083.026-.124.041-.091.034-.177.045-.248.082-.066.034-.086.057-.124.124-.03.055-.078.162-.124.165-.055 0-.074-.059-.124-.082-.152-.066-.245.038-.37.041-.116 0-.294-.179-.289-.289.004-.067.033-.165.041-.248.007-.066.082-.146.083-.206.001-.082-.153-.115-.206-.124-.124-.022-.272.055-.413 0-.026-.045.025-.079.041-.124.009-.024-.009-.055 0-.082.016-.042.104-.079.124-.124.014-.034-.014-.08 0-.124.017-.047.079-.09.083-.124.005-.045-.047-.095-.083-.124-.109.013-.183.013-.248.041-.142.065-.104.244-.248.289-.049.016-.109.032-.165.041-.024.013-.055 0-.083 0 .003-.013-.003-.028 0-.041.007-.03.034-.053.041-.082.094-.428.239-.844.413-1.237h.041c.05.013.08.079.124.082.121.013.146-.112.248-.165.103.014.154-.013.248 0 .063.013.156.076.206.082.042 0 .044-.046.083-.041.04.013.117.076.124.124.007.059-.058.141-.041.206.062.063.2.087.289.124.058-.049.009-.137 0-.206-.001-.03.004-.096 0-.124-.007-.047-.041-.083-.041-.124 0-.189.162-.256.289-.33.054-.032.117-.1.165-.124.067-.033.109-.013.165-.041.1-.057.169-.142.248-.206.036-.086-.004-.204 0-.289.036-.022.086 0 .124 0 .061-.013.09-.09.124-.124.02-.02.059-.021.083-.041.061-.047.071-.103.124-.124.018-.013.054-.032.083-.041.04-.013.102-.017.165-.041.041-.014.149-.024.165-.041.02-.02-.005-.094 0-.124.032-.149.237-.156.37-.206.092-.034.186-.142.289-.124-.02.071-.099.079-.083.165.022.12.163-.024.206-.041.08-.034.224-.084.33-.124.092-.033.252-.058.165-.165-.073-.013-.102.057-.165.082-.044.013-.045-.037-.083-.041-.036 0-.047.047-.083.041-.036-.013-.076-.08-.083-.124-.014-.111.079-.124.124-.206-.03-.1-.163-.044-.248-.082.009-.059.054-.111.124-.124.057-.013.212.013.248.041.02.017-.03.055 0 .082.034.03.079.013.124 0 .016-.075-.095-.033-.083-.082.09-.058.261-.026.37-.041.063-.013.149-.051.206-.082.053-.03.069-.091.124-.041.016.054-.011.095-.041.124-.102.09-.21.185-.289.289.049.047.124.032.206.041.032.013.091 0 .124 0 .04.013.092-.013.124 0 .055.013.069.124.124.124.09 0 .051-.105 0-.165.016-.062.063-.121.041-.165-.041-.082-.198.024-.206-.082-.005-.066.059-.074.083-.124-.011-.127.095-.133.083-.248-.007-.047-.05-.037-.083-.082-.017-.024-.021-.105-.041-.124-.069-.058-.198-.013-.206-.124-.004-.066.009-.136 0-.206-.009-.067-.066-.276-.124-.289-.074-.016-.117.124-.206.165-.047.022-.157.049-.206.041-.032-.013-.079-.02-.083-.082-.005-.055.062-.08.083-.124.005-.013-.003-.026 0-.041.096-.026.191-.059.289-.082.055-.013.109-.03.165-.041.04-.013.084.013.124 0 .177-.033.355-.065.535-.082.219-.022.434-.041.659-.041zm-2.678.618c-.042.241-.268.336-.535.33-.061.058-.008.166-.041.248-.028.067-.138.129-.206.124-.049 0-.124-.078-.124-.124 0-.057.09-.059.041-.124.003-.013.028-.028.041-.041.026-.017.055-.025.083-.041.239-.146.484-.254.742-.37m5.521.247c-.024.013-.02.028-.041.041-.05.03-.086.069-.124.082-.054.02-.116.033-.124.082-.007.041.042.045.041.082-.02.049-.03.065-.041.124.067.109.206-.024.289-.041.037-.013.063-.013.083-.041.022-.036.024-.074.041-.124.018-.055.088-.075.083-.124-.005-.049-.124-.088-.206-.082m-7.21.825c.062.05.15.16.041.206-.013.013-.174.046-.206.041-.013 0-.03-.032-.041-.041.069-.066.134-.142.206-.206m.248.248c.032 0 .045.08.083.082.036 0 .061-.046.083-.041.055.014.094.124.041.165-.044.013-.05-.046-.083-.041-.09.016-.138.211-.206.206-.063-.013-.105-.16-.041-.206.001-.04-.003-.041 0-.082.02-.024.071-.086.124-.082zm-.33.041c.018 0 .034-.013.041 0-.009.07-.029.091-.083.124-.094.057-.175.127-.206.248-.009.036-.12.132-.165.124-.104-.022.059-.218.083-.248.026-.033.051-.045.083-.082.03-.037.054-.103.083-.124.032-.022.109-.044.165-.041zm8.94.206c.104-.013.158.102.206.165.04.051.141.129.206.165.037.02.083.065.124.082.086.038.244.163.248.248.001.042-.047.084-.041.124.065.013.123-.1.124-.165.121.171.225.353.33.535.05.086.119.158.165.248-.058.017-.073.026-.083.082-.013.074.029.192-.083.206-.07.013-.152-.059-.248-.082-.04-.013-.092.013-.124 0-.073-.024-.062-.121-.124-.165-.036-.025-.149-.076-.206-.082-.036 0-.045.013-.083 0-.045-.013-.128.018-.165 0-.036-.022-.115-.094-.124-.124-.015-.049.121-.082.124-.124.003-.032-.034-.075-.041-.124-.005-.029.007-.062 0-.082-.009-.034-.07-.04-.124-.041-.047 0-.083 0-.124 0-.058 0-.175 0-.248 0-.044 0-.083 0-.124 0-.115.013-.199-.013-.289 0-.065 0-.187.055-.248.082-.03.014-.044.021-.083.041-.018.013-.059.03-.083.041-.037.017-.088.071-.124.082-.051.013-.112-.013-.206 0-.067 0-.163-.044-.165-.124-.001-.123.214-.059.33-.082.044-.013.071-.05.124-.082.025-.014.017-.025.041-.041.04-.028.117-.092.124-.124.005-.029-.004-.059 0-.082.005-.028.047-.045.083-.082.055-.055.096-.129.165-.165.046-.024.103-.045.124-.082.005-.042-.001-.042 0-.082.029-.026.059-.036.083-.041.071-.016.123 0 .206 0 .036 0 .086.017.124 0 .032-.021.05-.067.083-.082.034-.018.082-.038.124-.041zm.742.783h-.165c-.058 0-.131-.03-.165 0 .049.079.138.104.248.124.04-.029.063-.073.083-.124m-9.02-.742h.124c.033 0 .07-.013.083 0-.021.087-.22.073-.289.041.004-.033.041-.036.083-.041m-.289.165c-.058.042-.115.095-.206.124-.05.016-.115.014-.124-.041-.011-.069.079-.034.124-.041.058-.013.138-.038.206-.041zm8.57 0c-.044.014-.065.111 0 .124.03-.018.049-.067.041-.124-.017-.018-.028-.013-.041 0m-.083.206c.001.074.015.142 0 .206.042.082.144.014.165-.041.025-.137-.018-.182-.083-.165-.021.013-.061-.017-.083 0m-10.918 3.089c.074.067.117.162.206.206.033.017.082.03.124.041.034.013.05-.013.083 0 .07.024.15.057.206.082.084.037.174.163.248.206.004.042-.013.092 0 .124.034.046.069.092.124.124.067.037.102.095.165.124.022.013.047-.013.083 0 .087.026.131.146.206.124.049-.015.033-.076.041-.124.033-.036.073-.082.124-.082.082 0 .094.127.124.206.017.045.07.076.083.124.02.082.017.322 0 .37-.021.061-.115.057-.165.124-.024.032-.022.102-.041.124-.032.038-.059.046-.083.082-.013.02-.029.055-.041.082-.04.084-.115.146-.083.248.013.041.083.075.083.124 0 .058-.115.102-.124.165-.007.046.026.103.041.165.011.046.096.094.124.124.046.051.082.141.124.206.083.128.124.286.206.413.044.065.136.096.165.165.014.034-.013.092 0 .124.047.107.264.236.37.289.05.025.119.015.165.041.07.04.212.145.248.206.032.055.025.2.041.289.02.116-.005.204 0 .33.004.069.041.096.041.165 0 .024.001.099 0 .124-.001.082.007.165 0 .248-.004.045-.003.086 0 .124.004.041.038.046.041.082.003.038-.045.094-.041.124.009.083.066.129.083.206.013.061.049.216.041.289-.005.038-.036.08-.041.124-.004.034.005.051 0 .082-.004.03.008.057 0 .082-.042-.026-.082-.054-.124-.082-.351-.237-.691-.526-.989-.824-.041-.041-.084-.082-.124-.124-.239-.25-.463-.538-.659-.824-.018-.026-.024-.057-.041-.082-.228-.341-.415-.688-.577-1.072-.012-.028-.03-.054-.041-.082-.138-.341-.249-.704-.33-1.072-.016-.07-.028-.136-.041-.206-.033-.177-.065-.355-.083-.535-.022-.223-.041-.434-.041-.661 0-.314.04-.605.083-.907m2.555.7c.063-.029.051.074 0 .082-.049.013-.047-.058 0-.082" fill="#80adff" color-rendering="auto" color-interpolation-filters="linearRGB" shape-rendering="auto" image-rendering="auto" color-interpolation="sRGB" color="#000"/>

   xmlns:dc="http://purl.org/dc/elements/1.1/"
   xmlns:cc="http://creativecommons.org/ns#"
   xmlns:rdf="http://www.w3.org/1999/02/22-rdf-syntax-ns#"
   xmlns:svg="http://www.w3.org/2000/svg"
   xmlns="http://www.w3.org/2000/svg"
   xmlns:xlink="http://www.w3.org/1999/xlink"
   xmlns:sodipodi="http://sodipodi.sourceforge.net/DTD/sodipodi-0.dtd"
   xmlns:inkscape="http://www.inkscape.org/namespaces/inkscape"
   version="1"
   width="32"
   height="32"
   id="svg12"
   sodipodi:docname="snow-mime-1.svg"
   inkscape:version="0.92.1 r"&gt;
  <path fill="#00000f" fill-opacity="0" d="m0 0h32v32h-32z"/><path d="m24.79 31.998c11.532.081 6.305-9.102 3.9-9.628-2.873-.227-4.257 2.594-5.581 3.885-5.02 4.1-11.551-5.844-14.288-3.282-1.657 1.846-2.104 1.097-3.03.582-1.739-.613-4.293.32-4.378 3.164-3.427 3.861-.04 5.647 5.164 5.268 5.732-.135 12.589.045 18.209.011" fill="url(#0)"/></svg>