<svg xmlns="http://www.w3.org/2000/svg" viewBox="0 0 32 32"><defs><linearGradient gradientTransform="matrix(-2.54797 0 0-2.61863 187.08 313.32)" id="0" x1="67.821" y1="109.43" x2="67.781" y2="104.33" gradientUnits="userSpaceOnUse"><stop stop-color="#f9f9f9"/><stop offset="1" stop-color="#999"/></linearGradient></defs><g transform="translate(47.45-1.81)" fill-rule="evenodd"><path d="m-26.26 3.81h-13.651c-3.066 0-5.536 2.468-5.536 5.534v16.93c0 3.066 2.47 5.536 5.536 5.536h16.93c3.066 0 5.534-2.47 5.534-5.536v-13.651z" fill="#46c546"/><path d="m-17.448 12.623l-8.813-8.813v3.279c0 3.066 2.468 5.534 5.534 5.534z" fill="#3f883f"/></g><path d="m20.893 9.629c-.068-.001-.139.017-.205.059-.035.024-.19.208-.342.408l-.275.367-.1-.068c-.139-.093-.273-.113-.398-.057-.087.039-.29.3-1.631 2.064-.846 1.112-1.535 2.031-1.533 2.045.002.012.341.28.752.592l.752.57 1-1.316c.55-.725 1.01-1.313 1.02-1.305.035.027.096.598.082.781-.006.1-.043.281-.082.4-.07.213-.079.227-1.318 1.865-.685.906-1.255 1.675-1.266 1.705-.03.084.001.241.064.332.106.153.369.201.52.094.104-.075 2.558-3.343 2.637-3.514.229-.487.279-1.113.139-1.729-.055-.244-.128-.479-.199-.646-.021-.046.015-.105.244-.41.217-.292.267-.373.271-.449.009-.161-.04-.251-.197-.375l-.146-.115.295-.393c.242-.324.293-.409.297-.484.012-.241-.174-.419-.379-.422m-4.959 5.428c-.007.001-.908 1.186-2 2.631-1.763 2.326-2.01 2.671-2.178 2.967-.324.59-.678 1.49-.914 2.313-.153.528-.159.478.051.367.648-.346 1.495-.906 1.988-1.32.482-.405.565-.509 2.613-3.209l1.971-2.6-.758-.576c-.417-.316-.762-.573-.77-.572m.217 6.03c-.096-.006-.195-.002-.26.012-.305.065-.643.328-.807.633-.044.079-.114.258-.158.393-.041.138-.079.253-.082.256-.023.029-.607.17-.949.229-.806.141-1.026.194-1.105.268-.155.144-.034.287.186.223.059-.018.307-.066.547-.107.24-.041.608-.117.816-.164.208-.05.384-.083.393-.074.009.009-.026.177-.082.373l-.1.352-.221.098c-.12.053-.292.144-.383.205-.275.182-.33.41-.137.557.106.079.399.075.58-.004.161-.073.253-.176.379-.443.067-.138.119-.21.16-.219.032-.009.323-.067.646-.135.322-.064.614-.126.652-.135.062-.015.068-.009.051.047-.012.035-.066.138-.121.229-.056.091-.1.198-.1.242 0 .091.077.182.139.158.024-.009.054-.018.068-.018.015 0 .08-.046.145-.105.12-.108.41-.639.41-.75 0-.056.044-.071.07-.027.009.015.075.043.148.061.103.026.133.047.133.094 0 .091.149.222.281.248.103.018.234-.003.375-.063.05-.02.053-.015.035.063-.012.047-.098.196-.189.334-.193.287-.427.744-.488.947-.05.173-.029.302.063.363.082.053.217.029.287-.047.062-.067.395-.774.518-1.096.088-.226.129-.287.328-.498.164-.173.217-.215.182-.148-.059.126-.055.223.01.281.138.126.337.005.51-.313.103-.188.18-.245.561-.424l.199-.09-.021.107c-.012.059-.078.226-.148.369-.138.29-.164.475-.082.633.056.108.113.111.383.018.375-.126.866-.415.992-.582.173-.234.225-.461.119-.537-.108-.079-.169-.046-.307.156-.185.275-.415.489-.635.598-.103.053-.192.087-.201.078-.012-.012.224-.642.35-.938.026-.062.047-.138.047-.17 0-.082-.104-.176-.191-.176-.041 0-.234.08-.428.18-.402.199-.373.217-.271-.158.062-.231.039-.294-.102-.309-.135-.015-.188.03-.311.25-.079.149-.185.272-.387.459-.267.246-.278.255-.34.211-.094-.067-.147-.058-.375.057-.223.111-.296.126-.352.059-.047-.056.026-.085.434-.164.396-.076.445-.098.445-.18 0-.132-.109-.257-.303-.342-.334-.149-.373-.159-.52-.121-.158.041-.392.268-.424.408-.032.147-.133.103-.133-.059 0-.067-.082-.238-.129-.268-.1-.067-.26.08-.383.35l-.098.207-.217.047c-.281.062-1.099.226-1.207.246-.07.012-.083.006-.068-.035.012-.029.047-.157.082-.289.091-.363.118-.41.25-.457.158-.056.691-.284.828-.355.065-.032.196-.133.293-.221.296-.275.344-.529.133-.717-.059-.05-.135-.103-.17-.117-.054-.02-.148-.036-.244-.041m-.145.346c.155.009.216.023.26.07.059.059.059.063.006.174-.035.07-.118.152-.221.223-.179.123-.738.35-.756.309-.024-.067.155-.469.27-.598.152-.173.197-.192.441-.178m-1.654 2.453c.022.001.021.021.004.055-.038.073-.138.127-.193.107-.064-.026-.046-.063.057-.115.068-.034.11-.048.133-.047" fill="#3f883f"/>

   xmlns:dc="http://purl.org/dc/elements/1.1/"
   xmlns:cc="http://creativecommons.org/ns#"
   xmlns:rdf="http://www.w3.org/1999/02/22-rdf-syntax-ns#"
   xmlns:svg="http://www.w3.org/2000/svg"
   xmlns="http://www.w3.org/2000/svg"
   xmlns:xlink="http://www.w3.org/1999/xlink"
   xmlns:sodipodi="http://sodipodi.sourceforge.net/DTD/sodipodi-0.dtd"
   xmlns:inkscape="http://www.inkscape.org/namespaces/inkscape"
   version="1"
   width="32"
   height="32"
   id="svg12"
   sodipodi:docname="snow-mime-1.svg"
   inkscape:version="0.92.1 r"&gt;
  <path fill="#00000f" fill-opacity="0" d="m0 0h32v32h-32z"/><path d="m24.79 31.998c11.532.081 6.305-9.102 3.9-9.628-2.873-.227-4.257 2.594-5.581 3.885-5.02 4.1-11.551-5.844-14.288-3.282-1.657 1.846-2.104 1.097-3.03.582-1.739-.613-4.293.32-4.378 3.164-3.427 3.861-.04 5.647 5.164 5.268 5.732-.135 12.589.045 18.209.011" fill="url(#0)"/></svg>