<svg xmlns="http://www.w3.org/2000/svg" viewBox="0 0 32 32"><defs><linearGradient gradientTransform="matrix(-2.54797 0 0-2.61863 187.08 313.32)" id="0" x1="67.821" y1="109.43" x2="67.781" y2="104.33" gradientUnits="userSpaceOnUse"><stop stop-color="#f9f9f9"/><stop offset="1" stop-color="#999"/></linearGradient></defs><g fill-rule="evenodd"><path d="m21.19 2h-13.651c-3.066 0-5.536 2.468-5.536 5.534v16.93c0 3.066 2.47 5.536 5.536 5.536h16.93c3.066 0 5.534-2.47 5.534-5.536v-13.651z" fill="#ccc"/><path d="m30 10.813l-8.813-8.813v3.279c0 3.066 2.468 5.534 5.534 5.534z" opacity=".284" fill="#999"/></g><path d="m16 11c-2.918 0-5.41.673-6.443 1.623-.087.079-.162.16-.228.244-.063.079-.118.161-.16.243a6.955932 2.59661 0 0 0 -.026079 .0766c-.024.056-.05.11-.064.166a6.955932 2.59661 0 0 0 -.034785 .244082c0 .084.016.17.037.253a6.955932 2.59661 0 0 0 .095648 .244082 6.955932 2.59661 0 0 0 .159986 .240186 6.955932 2.59661 0 0 0 .220851 .236292 6.955932 2.59661 0 0 0 6.442931 1.622881 6.955932 2.59661 0 0 0 6.442931 -1.622881 6.955932 2.59661 0 0 0 .0035 -.0026 6.955932 2.59661 0 0 0 .186072 -.199939c.012-.013.028-.027.038-.042a6.955932 2.59661 0 0 0 .111293 -.171377c.017-.027.038-.055.052-.082a6.955932 2.59661 0 0 0 .05738 -.141515c.014-.039.028-.077.037-.114a6.955932 2.59661 0 0 0 .02782 -.220712 6.955932 2.59661 0 0 0 -.03651 -.258362c-.068-.251-.233-.491-.476-.715-1.033-.95-3.525-1.623-6.443-1.623m-6.443 5.193c-.337.338-.511.698-.513 1.062 0 1.564 3.115 2.833 6.956 2.833 3.841 0 6.956-1.268 6.956-2.833-.002-.364-.176-.724-.513-1.062-1.063 1.07-3.61 1.946-6.443 1.947-2.833-.001-5.38-.878-6.443-1.947m0 3.895c-.337.338-.511.698-.513 1.062 0 1.564 3.115 2.833 6.956 2.833 3.841 0 6.956-1.268 6.956-2.833-.002-.364-.176-.724-.513-1.062-1.063 1.07-3.61 1.946-6.443 1.947-2.833-.001-5.38-.878-6.443-1.947" fill="#a8a8a8" stroke-width="1.298"/>

   xmlns:dc="http://purl.org/dc/elements/1.1/"
   xmlns:cc="http://creativecommons.org/ns#"
   xmlns:rdf="http://www.w3.org/1999/02/22-rdf-syntax-ns#"
   xmlns:svg="http://www.w3.org/2000/svg"
   xmlns="http://www.w3.org/2000/svg"
   xmlns:xlink="http://www.w3.org/1999/xlink"
   xmlns:sodipodi="http://sodipodi.sourceforge.net/DTD/sodipodi-0.dtd"
   xmlns:inkscape="http://www.inkscape.org/namespaces/inkscape"
   version="1"
   width="32"
   height="32"
   id="svg12"
   sodipodi:docname="snow-mime-1.svg"
   inkscape:version="0.92.1 r"&gt;
  <path fill="#00000f" fill-opacity="0" d="m0 0h32v32h-32z"/><path d="m24.79 31.998c11.532.081 6.305-9.102 3.9-9.628-2.873-.227-4.257 2.594-5.581 3.885-5.02 4.1-11.551-5.844-14.288-3.282-1.657 1.846-2.104 1.097-3.03.582-1.739-.613-4.293.32-4.378 3.164-3.427 3.861-.04 5.647 5.164 5.268 5.732-.135 12.589.045 18.209.011" fill="url(#0)"/></svg>