<svg xmlns="http://www.w3.org/2000/svg" viewBox="0 0 32 32"><defs><linearGradient gradientTransform="matrix(-2.54797 0 0-2.61863 187.08 313.32)" id="0" x1="67.821" y1="109.43" x2="67.781" y2="104.33" gradientUnits="userSpaceOnUse"><stop stop-color="#f9f9f9"/><stop offset="1" stop-color="#999"/></linearGradient></defs><g transform="translate(36.776-2.269)" fill-rule="evenodd"><path d="m-15.589 4.269h-13.651c-3.066 0-5.536 2.468-5.536 5.534v16.93c0 3.066 2.47 5.536 5.536 5.536h16.93c3.066 0 5.534-2.47 5.534-5.536v-13.651z" fill="#f59d15"/><path d="m-6.776 13.08l-8.813-8.813v3.279c0 3.066 2.468 5.534 5.534 5.534z" fill="#fde1a6"/></g><path d="m15.321 9.04v1.528c-1.145.106-2.047.395-2.716.934-.736.587-1.104 1.456-1.104 2.589 0 1.582.947 2.609 2.886 3.098l.934.255v5.01c-1.205-.107-2.335-.371-3.395-.891l-.467 1.231c.432.265 1.021.515 1.74.721.632.175 1.342.253 2.123.297v1.528h1.358v-1.528c1.154-.092 2.082-.444 2.758-1.061.725-.656 1.103-1.607 1.104-2.844 0-1-.272-1.751-.807-2.293-.535-.547-1.341-.941-2.377-1.188l-.679-.17v-4.414c.524.039 1.069.113 1.57.255.576.155 1.01.356 1.358.551l.425-1.231c-.869-.542-1.984-.865-3.353-.934v-1.444h-1.019zm-.297 2.844c.088-.015.202.011.297 0v4.03l-.382-.086c-.638-.155-1.12-.386-1.444-.679-.316-.299-.467-.699-.467-1.188 0-1.163.656-1.855 1.995-2.079m1.656 5.858l.255.086c.782.196 1.319.462 1.614.807.299.34.424.805.425 1.358 0 1.539-.765 2.356-2.293 2.504z" fill="#fddda3" color="#4d4d4d"/>

   xmlns:dc="http://purl.org/dc/elements/1.1/"
   xmlns:cc="http://creativecommons.org/ns#"
   xmlns:rdf="http://www.w3.org/1999/02/22-rdf-syntax-ns#"
   xmlns:svg="http://www.w3.org/2000/svg"
   xmlns="http://www.w3.org/2000/svg"
   xmlns:xlink="http://www.w3.org/1999/xlink"
   xmlns:sodipodi="http://sodipodi.sourceforge.net/DTD/sodipodi-0.dtd"
   xmlns:inkscape="http://www.inkscape.org/namespaces/inkscape"
   version="1"
   width="32"
   height="32"
   id="svg12"
   sodipodi:docname="snow-mime-1.svg"
   inkscape:version="0.92.1 r"&gt;
  <path fill="#00000f" fill-opacity="0" d="m0 0h32v32h-32z"/><path d="m24.79 31.998c11.532.081 6.305-9.102 3.9-9.628-2.873-.227-4.257 2.594-5.581 3.885-5.02 4.1-11.551-5.844-14.288-3.282-1.657 1.846-2.104 1.097-3.03.582-1.739-.613-4.293.32-4.378 3.164-3.427 3.861-.04 5.647 5.164 5.268 5.732-.135 12.589.045 18.209.011" fill="url(#0)"/></svg>