<svg xmlns="http://www.w3.org/2000/svg" viewBox="0 0 32 32"><defs><linearGradient gradientTransform="matrix(-2.54797 0 0-2.61863 187.08 313.32)" id="0" x1="67.821" y1="109.43" x2="67.781" y2="104.33" gradientUnits="userSpaceOnUse"><stop stop-color="#f9f9f9"/><stop offset="1" stop-color="#999"/></linearGradient></defs><g transform="translate(42.985 1.791)" fill-rule="evenodd"><path d="m-21.798.209h-13.651c-3.066 0-5.536 2.468-5.536 5.534v16.93c0 3.066 2.47 5.536 5.536 5.536h16.93c3.066 0 5.534-2.47 5.534-5.536v-13.651" fill="#6a7885"/><path d="m-12.985 9.02l-8.813-8.813v3.279c0 3.066 2.468 5.534 5.534 5.534z" fill="#caced1"/></g><path d="m10 10.955v12h12v-12zm1 3h10v8c-3.551-.037-6.45-.077-10 0zm5.199 1c-.486 0-.94.17-1.26.49-.32.32-.49.774-.49 1.26h1c0-.264.079-.435.197-.553.118-.118.289-.197.553-.197.264 0 .435.08.553.197.118.118.197.289.197.553 0 .229-.045.326-.105.412-.261.263-.575.488-.828.703-.286.215-.566.497-.566.885v.25h1v-.25c.355-.364.885-.682 1.215-1.016.174-.25.285-.589.285-.984 0-.486-.17-.94-.49-1.26-.32-.32-.774-.49-1.26-.49m-.75 5v1h1v-1z" fill="#caced1"/>

   xmlns:dc="http://purl.org/dc/elements/1.1/"
   xmlns:cc="http://creativecommons.org/ns#"
   xmlns:rdf="http://www.w3.org/1999/02/22-rdf-syntax-ns#"
   xmlns:svg="http://www.w3.org/2000/svg"
   xmlns="http://www.w3.org/2000/svg"
   xmlns:xlink="http://www.w3.org/1999/xlink"
   xmlns:sodipodi="http://sodipodi.sourceforge.net/DTD/sodipodi-0.dtd"
   xmlns:inkscape="http://www.inkscape.org/namespaces/inkscape"
   version="1"
   width="32"
   height="32"
   id="svg12"
   sodipodi:docname="snow-mime-1.svg"
   inkscape:version="0.92.1 r"&gt;
  <path fill="#00000f" fill-opacity="0" d="m0 0h32v32h-32z"/><path d="m24.79 31.998c11.532.081 6.305-9.102 3.9-9.628-2.873-.227-4.257 2.594-5.581 3.885-5.02 4.1-11.551-5.844-14.288-3.282-1.657 1.846-2.104 1.097-3.03.582-1.739-.613-4.293.32-4.378 3.164-3.427 3.861-.04 5.647 5.164 5.268 5.732-.135 12.589.045 18.209.011" fill="url(#0)"/></svg>