<svg xmlns="http://www.w3.org/2000/svg" viewBox="0 0 32 32"><defs><linearGradient gradientTransform="matrix(-2.54797 0 0-2.61863 187.08 313.32)" id="0" x1="67.821" y1="109.43" x2="67.781" y2="104.33" gradientUnits="userSpaceOnUse"><stop stop-color="#f9f9f9"/><stop offset="1" stop-color="#999"/></linearGradient></defs><g fill="#de564c"><path d="m21.19 2h-13.651c-3.066 0-5.536 2.468-5.536 5.534v16.93c0 3.066 2.47 5.536 5.536 5.536h16.93c3.066 0 5.534-2.47 5.534-5.536v-13.651z" fill-rule="evenodd"/></g><path d="m30 10.813l-8.813-8.813v3.279c0 3.066 2.468 5.534 5.534 5.534z" fill="#b23e31" fill-rule="evenodd"/><path d="m12.09375 11.09766a1.081348 1.081348 0 0 0 -1.085938 1.082032v5.227a1.081348 1.081348 0 0 0 0 .351562v4.137a1.081348 1.081348 0 1 0 2.16211 0v-3.316c.715-.017 1.693-.004 3.422-.277 1.136-.18 2.286-.437 3.262-.893.488-.228.942-.506 1.316-.914.374-.408.655-.995.65-1.621-.005-.625-.29-1.205-.666-1.609-.376-.405-.83-.681-1.318-.908-.977-.455-2.126-.713-3.26-.893-2.267-.359-4.482-.365-4.482-.365m1.076 2.25c.702.02 1.552.01 3.068.25 1.026.163 2.036.415 2.684.717.324.151.549.314.648.422.1.108.088.113.088.154 0 .04.014.038-.082.143-.096.104-.315.266-.637.416-.644.301-1.657.554-2.686.717-1.522.241-2.38.23-3.084.25z" shape-rendering="auto" mix-blend-mode="normal" isolation="auto" color-interpolation-filters="linearRGB" white-space="normal" fill="#fec9ab" solid-opacity="1" image-rendering="auto" solid-color="#000000" color="#000" color-rendering="auto" vector-effect="none" shape-padding="0" color-interpolation="sRGB"/>

   xmlns:dc="http://purl.org/dc/elements/1.1/"
   xmlns:cc="http://creativecommons.org/ns#"
   xmlns:rdf="http://www.w3.org/1999/02/22-rdf-syntax-ns#"
   xmlns:svg="http://www.w3.org/2000/svg"
   xmlns="http://www.w3.org/2000/svg"
   xmlns:xlink="http://www.w3.org/1999/xlink"
   xmlns:sodipodi="http://sodipodi.sourceforge.net/DTD/sodipodi-0.dtd"
   xmlns:inkscape="http://www.inkscape.org/namespaces/inkscape"
   version="1"
   width="32"
   height="32"
   id="svg12"
   sodipodi:docname="snow-mime-1.svg"
   inkscape:version="0.92.1 r"&gt;
  <path fill="#00000f" fill-opacity="0" d="m0 0h32v32h-32z"/><path d="m24.79 31.998c11.532.081 6.305-9.102 3.9-9.628-2.873-.227-4.257 2.594-5.581 3.885-5.02 4.1-11.551-5.844-14.288-3.282-1.657 1.846-2.104 1.097-3.03.582-1.739-.613-4.293.32-4.378 3.164-3.427 3.861-.04 5.647 5.164 5.268 5.732-.135 12.589.045 18.209.011" fill="url(#0)"/></svg>