<svg xmlns="http://www.w3.org/2000/svg" viewBox="0 0 32 32"><defs><linearGradient gradientTransform="matrix(-2.54797 0 0-2.61863 187.08 313.32)" id="0" x1="67.821" y1="109.43" x2="67.781" y2="104.33" gradientUnits="userSpaceOnUse"><stop stop-color="#f9f9f9"/><stop offset="1" stop-color="#999"/></linearGradient></defs><g transform="translate(57.19-2.985)" fill-rule="evenodd"><path d="m-36.01 4.985h-13.651c-3.066 0-5.536 2.468-5.536 5.534v16.93c0 3.066 2.47 5.536 5.536 5.536h16.93c3.066 0 5.534-2.47 5.534-5.536v-13.651z" fill="#fc8989"/><path d="m-27.19 13.798l-8.813-8.813v3.279c0 3.066 2.468 5.534 5.534 5.534z" fill="#784949"/></g><path d="m7.844 7.248c-.041-.003-.073.004-.093.025-.661.661 8.376 8.957 8.376 8.957l3.386 3.222c-1.092 2.548 2.33 2.589 3.068 3.881.324.567-.07 1.336-.66 1.375 1.172.387 2.75-1.863 2.275-3.134-.566-1.517-1.14-2.175-2.218-2.635-.445-.19-1.575-.205-1.97.017l-3.138-3.469c0 0-7.743-8.128-9.03-8.239m1.427 8.05c-.3.001-.392.435-.392 1.028.057 1.174.799 4.598 4.486 7.092 3.105 2.101 8.787 1.343 8.695.149-1.249-1.552-3.34-.584-3.367-4.3-1.215.009-2.524-.18-2.475.331.204 2.143-3.193.597-4.51-1.588-1.322-2-2.051-2.715-2.437-2.713m4.841 2.643c-.201 0-.363.066-.44.199-.153.265.095.697.556.963.461.266.959.267 1.112.001.153-.265-.096-.697-.557-.963-.231-.133-.671.001-.671-.2" fill="#784949"/>

   xmlns:dc="http://purl.org/dc/elements/1.1/"
   xmlns:cc="http://creativecommons.org/ns#"
   xmlns:rdf="http://www.w3.org/1999/02/22-rdf-syntax-ns#"
   xmlns:svg="http://www.w3.org/2000/svg"
   xmlns="http://www.w3.org/2000/svg"
   xmlns:xlink="http://www.w3.org/1999/xlink"
   xmlns:sodipodi="http://sodipodi.sourceforge.net/DTD/sodipodi-0.dtd"
   xmlns:inkscape="http://www.inkscape.org/namespaces/inkscape"
   version="1"
   width="32"
   height="32"
   id="svg12"
   sodipodi:docname="snow-mime-1.svg"
   inkscape:version="0.92.1 r"&gt;
  <path fill="#00000f" fill-opacity="0" d="m0 0h32v32h-32z"/><path d="m24.79 31.998c11.532.081 6.305-9.102 3.9-9.628-2.873-.227-4.257 2.594-5.581 3.885-5.02 4.1-11.551-5.844-14.288-3.282-1.657 1.846-2.104 1.097-3.03.582-1.739-.613-4.293.32-4.378 3.164-3.427 3.861-.04 5.647 5.164 5.268 5.732-.135 12.589.045 18.209.011" fill="url(#0)"/></svg>