<svg xmlns="http://www.w3.org/2000/svg" xmlns:xlink="http://www.w3.org/1999/xlink" viewBox="0 0 32 32"><defs><linearGradient id="0" y1="9" x1="20" y2="16" x2="27" gradientUnits="userSpaceOnUse"><stop stop-color="#383e51"/><stop offset="1" stop-color="#655c6f" stop-opacity="0"/></linearGradient><linearGradient id="1" y1="544.8" y2="517.8" gradientUnits="userSpaceOnUse" x2="0"><stop stop-color="#fff" stop-opacity="0"/><stop offset="1" stop-color="#fff" stop-opacity=".2"/></linearGradient><linearGradient gradientTransform="matrix(-2.54797 0 0-2.61863 187.08 313.32)" id="2" x1="67.821" y1="109.43" x2="67.781" y2="104.33" gradientUnits="userSpaceOnUse"><stop stop-color="#f9f9f9"/><stop offset="1" stop-color="#999"/></linearGradient></defs><use height="32" width="32" xlink:href="#0" transform="translate(-384.57-515.8)" fill="url(#1)"/><g transform="translate(34.601-2.193)" fill-rule="evenodd"><path d="m21.19 2h-13.651c-3.066 0-5.536 2.468-5.536 5.534v16.93c0 3.066 2.47 5.536 5.536 5.536h16.93c3.066 0 5.534-2.47 5.534-5.536v-13.651z" transform="translate(-34.601 2.193)" fill="#6060ca"/><path d="m-4.601 13.01l-8.813-8.813v3.279c0 3.066 2.468 5.534 5.534 5.534z" fill="#373757"/></g><path d="m8.466 10.575v10.05h3.767v-8.79h3.767v2.511h3.767v-3.767h-10.05m0 1.256h1.256v1.256h-1.256m7.534-1.256h1.256v1.256h-1.256zm-7.534 2.511h1.256v2.511h-1.256m3.767-1.256v7.534l2.511 2.511v-2.511h7.534v-7.534zm1.256 1.256h7.534v5.02h-7.534zm-5.02 1.256h1.256v1.256h-1.256" fill="#373757"/>

   xmlns:dc="http://purl.org/dc/elements/1.1/"
   xmlns:cc="http://creativecommons.org/ns#"
   xmlns:rdf="http://www.w3.org/1999/02/22-rdf-syntax-ns#"
   xmlns:svg="http://www.w3.org/2000/svg"
   xmlns="http://www.w3.org/2000/svg"
   xmlns:xlink="http://www.w3.org/1999/xlink"
   xmlns:sodipodi="http://sodipodi.sourceforge.net/DTD/sodipodi-0.dtd"
   xmlns:inkscape="http://www.inkscape.org/namespaces/inkscape"
   version="1"
   width="32"
   height="32"
   id="svg12"
   sodipodi:docname="snow-mime-1.svg"
   inkscape:version="0.92.1 r"&gt;
  <path fill="#00000f" fill-opacity="0" d="m0 0h32v32h-32z"/><path d="m24.79 31.998c11.532.081 6.305-9.102 3.9-9.628-2.873-.227-4.257 2.594-5.581 3.885-5.02 4.1-11.551-5.844-14.288-3.282-1.657 1.846-2.104 1.097-3.03.582-1.739-.613-4.293.32-4.378 3.164-3.427 3.861-.04 5.647 5.164 5.268 5.732-.135 12.589.045 18.209.011" fill="url(#2)"/></svg>