<svg xmlns="http://www.w3.org/2000/svg" viewBox="0 0 32 32"><defs><linearGradient gradientTransform="matrix(-2.54797 0 0-2.61863 187.08 313.32)" id="0" x1="67.821" y1="109.43" x2="67.781" y2="104.33" gradientUnits="userSpaceOnUse"><stop stop-color="#f9f9f9"/><stop offset="1" stop-color="#999"/></linearGradient></defs><rect width="28.2" height="28.2" x="1.898" y="1.898" fill="#ac8e5c" fill-rule="evenodd" rx="5.575"/><g fill="#de564c" stroke-width="1.19"><path d="m21.19 2h-13.651c-3.066 0-5.536 2.468-5.536 5.534v16.93c0 3.066 2.47 5.536 5.536 5.536h16.93c3.066 0 5.534-2.47 5.534-5.536v-13.651z" fill-rule="evenodd" transform="matrix(.50409 0 0 .50409 7.935 7.935)"/></g><g stroke-width=".857"><path d="m7 11.94c-.002.038-.004.077-.004.115v7.839c0 .819.435 1.575 1.142 1.985l6.718 3.895c.706.41 1.577.41 2.283 0l6.718-3.895c.707-.41 1.142-1.167 1.142-1.986v-7.838c-.001-.029-.003-.058-.005-.087.005-.001-17.993-.029-17.993-.029" fill="#e4ba75"/><path d="m16.05 5.919v.001a2.284815 2.319661 0 0 0 -1.196348 .308814l-6.723 3.941a2.284815 2.319661 0 0 0 -1.135749 1.859893 2.284815 2.319661 0 0 0 1.135749 1.878822l6.723 3.941a2.284815 2.319661 0 0 0 2.28518 0l6.723-3.941a2.284815 2.319661 0 0 0 1.135748 -1.859893 2.284815 2.319661 0 0 0 -1.135748 -1.878822l-6.723-3.941a2.284815 2.319661 0 0 0 -1.088832 -.309816" fill="#b89863"/><path d="m16.05 5.919v.001a2.284815 2.319661 0 0 0 -.413482 .028465v12.179a2.284815 2.319661 0 0 0 1.502034 -.278935l6.723-3.941a2.284815 2.319661 0 0 0 1.13637 -1.860043 2.284815 2.319661 0 0 0 -1.13637 -1.878542l-6.723-3.941a2.284815 2.319661 0 0 0 -1.088552 -.310245" fill="#ac8e5c"/><path d="m7 11.983c0 .01-.001.021-.001.031a2.284815 2.319661 0 0 1 .00277 -.0211 2.284815 2.292376 0 0 1 -.00143 -.0098m-.001.053c0 .006-.001.012-.001.018v7.839c0 .819.436 1.575 1.142 1.984l6.717 3.896c.245.142.511.232.782.276v-7.922a2.284815 2.319661 0 0 1 -.781966 -.278468l-6.723-3.941a2.284815 2.319661 0 0 1 -1.134964 -1.871916" fill="#cea86a"/><path d="m7.05109 11.676731a2.284815 2.319661 0 0 0 -.052041 .353006 2.284815 2.319661 0 0 0 1.13637 1.878948l6.723 3.941a2.284815 2.319661 0 0 0 2.283992 0l6.723-3.941a2.284815 2.319661 0 0 0 1.13637 -1.860665 2.284815 2.319661 0 0 0 -.05204 -.367071 2.284815 2.319661 0 0 1 -1.084333 1.507661l-6.723 3.941a2.284815 2.319661 0 0 1 -2.283992 0L8.135 13.189A2.284815 2.319661 0 0 1 7.05108 11.676731" fill="#9b8053"/></g>

   xmlns:dc="http://purl.org/dc/elements/1.1/"
   xmlns:cc="http://creativecommons.org/ns#"
   xmlns:rdf="http://www.w3.org/1999/02/22-rdf-syntax-ns#"
   xmlns:svg="http://www.w3.org/2000/svg"
   xmlns="http://www.w3.org/2000/svg"
   xmlns:xlink="http://www.w3.org/1999/xlink"
   xmlns:sodipodi="http://sodipodi.sourceforge.net/DTD/sodipodi-0.dtd"
   xmlns:inkscape="http://www.inkscape.org/namespaces/inkscape"
   version="1"
   width="32"
   height="32"
   id="svg12"
   sodipodi:docname="snow-mime-1.svg"
   inkscape:version="0.92.1 r"&gt;
  <path fill="#00000f" fill-opacity="0" d="m0 0h32v32h-32z"/><path d="m24.79 31.998c11.532.081 6.305-9.102 3.9-9.628-2.873-.227-4.257 2.594-5.581 3.885-5.02 4.1-11.551-5.844-14.288-3.282-1.657 1.846-2.104 1.097-3.03.582-1.739-.613-4.293.32-4.378 3.164-3.427 3.861-.04 5.647 5.164 5.268 5.732-.135 12.589.045 18.209.011" fill="url(#0)"/></svg>