<svg xmlns="http://www.w3.org/2000/svg" viewBox="0 0 32 32"><defs><linearGradient gradientTransform="matrix(-2.54797 0 0-2.61863 187.08 313.32)" id="0" x1="67.821" y1="109.43" x2="67.781" y2="104.33" gradientUnits="userSpaceOnUse"><stop stop-color="#f9f9f9"/><stop offset="1" stop-color="#999"/></linearGradient></defs><g transform="translate(-347.2-526.07)"><g fill-rule="evenodd"><path d="m368.39 528.07h-13.651c-3.066 0-5.536 2.468-5.536 5.534v16.93c0 3.066 2.47 5.536 5.536 5.536h16.93c3.066 0 5.534-2.47 5.534-5.536v-13.651z" fill="#e6506e"/><path d="m377.2 536.88l-8.813-8.813v3.279c0 3.066 2.468 5.534 5.534 5.534z" fill="#fad9e0"/></g><g transform="translate(348.2 524.08)" fill="#fad9e0"><path d="m15 14c-1.105 0-2 .9-2 2v4c0 1.1.895 2 2 2 1.105 0 2-.9 2-2v-4c0-1.1-.895-2-2-2m0 1c.552 0 1 .4 1 1 0 .5-.448 1-1 1-.552 0-1-.5-1-1 0-.6.448-1 1-1m0 3c.552 0 1 .448 1 1v1c0 .552-.448 1-1 1-.552 0-1-.448-1-1v-1c0-.552.448-1 1-1"/><path d="m14 4v1h1v-1m-1 2v1h1v-1m-1 2v1h1v-1m-1 2v1h1v-1zm0 2v1h1v-1z"/><path d="m15 5v1h1v-1m-1 2v1h1v-1m-1 2v1h1v-1m-1 2v1h1v-1zm0 2v1h1v-1z"/></g><path d="m356.4 553.02c-.452-.074-1.1-.326-1.502-.583-.882-.565-1.458-1.192-1.814-1.976-.118-.26-.183-.462-.368-1.15-.046-.171-.103-.359-.127-.418-.041-.1-.042-.133-.025-.466.017-.316.071-.744.1-.789.006-.008.019-.011.03-.007.036.021.069-.076.102-.298.018-.121.046-.249.063-.283.017-.034.044-.11.062-.168.041-.134.096-.236.267-.495.075-.114.154-.238.174-.276.024-.044.05-.066.074-.061.023.007.061-.024.101-.076.174-.226.995-.892 1.071-.869.021.007.107-.022.192-.062.154-.073.222-.09.222-.055 0 .01-.022.032-.049.05-.048.031-.047.032.027.014.042-.01.114-.023.158-.03.055-.009.078-.022.07-.041-.007-.016.009-.032.039-.04.076-.019.193-.016.193.007 0 .025-.067.051-.121.046-.036-.007-.038 0-.011.017.027.018.027.021.002.022-.017 0-.026.007-.019.012.007.007.053-.008.102-.031.049-.023.139-.053.2-.066.075-.015.111-.032.111-.054 0-.028.035-.03.269-.019.148.008.371.03.496.049.227.035.227.035.312-.011.102-.055.265-.062.308-.014.016.018.059.048.096.066.061.03.065.03.039 0-.049-.055 0-.054.187.007.605.191 1.099.532 1.465 1.01.087.114.092.165.01.096l-.047-.039.036.066c.02.037.036.077.036.091 0 .014.058.114.129.224.16.247.205.33.194.36-.005.013-.076-.074-.158-.193-.082-.119-.204-.28-.27-.357-.099-.115-.125-.135-.146-.11-.014.016-.047.033-.074.037l-.049.007.048.09c.027.049.052.08.056.068.023-.066.131.021.18.144.016.04.058.122.094.182.036.061.06.114.055.119-.006.007-.038-.011-.072-.037l-.062-.046.043.069c.023.038.063.084.087.103.031.023.045.06.046.118.003.106.067.231.102.198.055-.052.066-.019.052.149-.01.124-.005.206.019.293.036.132.029.164-.025.103-.034-.039-.034-.039-.019 0 .033.087.057.218.05.269-.013.096-.051.056-.064-.067l-.013-.12-.003.127c-.002.07-.019.205-.039.3-.019.096-.029.213-.022.262.013.093.004.097-.079.03-.034-.027-.039-.022-.063.059-.019.068-.019.107.001.164.014.041.023.097.019.124-.01.062-.063.082-.063.023 0-.074-.03-.048-.121.107-.246.416-.635.738-1.075.89-.26.09-.434.123-.726.139l-.264.014.13.038c.105.03.167.035.319.023.199-.015.433-.056.538-.094.042-.015.071-.016.085-.007.034.032-.272.16-.453.189-.309.049-.723-.007-1.088-.14-.248-.092-.616-.332-.559-.365.011-.007.081.025.155.07.096.057.136.072.136.05 0-.041.014-.039.09.012.069.046.28.132.432.175.166.048.101-.01-.121-.108-.703-.309-.995-.618-1.14-1.207-.053-.216.003-.69.101-.838.025-.038.045-.084.045-.103 0-.082.145-.299.294-.439.263-.247.536-.35.89-.335.171.008.244.021.387.075.162.061.365.188.303.189-.015 0-.079-.02-.143-.045-.097-.038-.159-.045-.38-.047-.31 0-.461.04-.681.186-.312.207-.486.446-.548.752-.041.206-.043.263-.01.467.019.118.032.152.055.144.019-.007.031.007.031.028 0 .073.168.368.285.5.281.318.735.521 1.165.521.224 0 .404-.041.571-.128.067-.035.151-.078.187-.095.128-.061.207-.131.3-.264.052-.074.108-.134.125-.134.025 0 .024.01-.006.057-.098.153.132-.125.251-.303l.134-.199-.014-.131c-.014-.126-.012-.134.052-.197.062-.061.067-.079.074-.242.006-.146.002-.176-.025-.176-.025 0-.036-.039-.047-.166-.014-.169-.16-.736-.194-.756-.01-.007-.039-.061-.063-.121-.083-.205-.227-.402-.453-.617-.325-.309-.734-.547-1.121-.653-.329-.09-.888-.057-1.285.075-.194.065-.386.15-.418.187-.015.016-.036.025-.047.019-.012-.007-.009-.025.008-.044.073-.083-.17.069-.327.205-.095.082-.176.151-.18.154-.004.007.014 0 .041-.007.045-.011.046-.008.022.034-.015.027-.096.076-.195.118-.166.071-.273.149-.358.26-.034.045-.036.054-.009.044.019-.007.034-.007.034.01 0 .059-.057.125-.141.164-.187.086-.516.543-.692.964-.079.187-.077.181-.034.181.045 0 .042.048-.02.307-.09.377-.09.365.008.895.119.646.189.861.322.995.031.031.061.098.075.165.016.08.043.133.094.183.046.045.062.074.044.08-.035.012.074.165.173.244.05.04.087.053.127.045.088-.016.177.032.315.168.143.141.157.179.063.166-.061-.008-.062-.007-.032.037.017.025.081.085.141.133.085.068.107.097.096.129-.015.045.028.088.127.124.061.022.081.07.035.084-.014.007.072.088.192.187.135.111.226.171.239.159.034-.031.078-.022.079.016.001.043.04.087.179.206.088.075.11.085.164.071.05-.013.081-.007.15.04.139.089.223.124.296.124.071 0 .081.019.044.084-.019.034-.015.04.029.04.029 0 .11.019.18.041.16.052.226.055.186.01-.059-.068.003-.049.215.063.295.156.445.174 1.033.123.087-.008.115-.007.115.018 0 .018-.075.045-.214.077-.182.041-.28.05-.654.054-.295.007-.496-.007-.611-.023zm-.301-3.105c0-.007-.027-.023-.06-.043l-.06-.034.052.043c.051.041.069.051.069.034m3.03-2.171c-.007-.016-.012-.012-.013.012-.001.022.004.034.012.027.007-.007.008-.025.002-.04m-5-2.186c.027-.032.027-.034-.008-.008-.021.016-.038.032-.038.036 0 .017.018.007.047-.029zm.25-.192c.022-.023.035-.041.029-.041-.006 0-.029.019-.051.041-.022.023-.035.041-.029.041.006 0 .029-.019.051-.041m.277-.146c.072-.023.114-.027.129-.013.015.014.072.007.177-.027.085-.026.151-.052.146-.056-.005-.007-.075.013-.156.038-.111.035-.151.04-.164.021-.021-.032-.221.031-.307.097l-.059.045.063-.036c.035-.019.111-.051.17-.07m.633-.052c.064-.018.112-.036.108-.041-.01-.01-.238.052-.238.064 0 .012.002.012.13-.023m.364-.113l.088-.015h-.077c-.042 0-.102.012-.132.03-.036.021-.039.027-.011.016.024-.008.084-.021.132-.03zm.175-.039c.007-.01-.007-.014-.032-.008-.051.013-.058.027-.012.027.017 0 .037-.009.044-.019m.71.007c-.007-.007-.026-.008-.042 0-.018.007-.012.012.013.012.023 0 .036-.007.029-.011zm-.131-.023c-.021-.007-.056-.007-.077 0-.021.007-.003.01.038.01.042 0 .06-.007.038-.01m-.219-.021c-.045-.007-.124-.007-.176 0-.052.007-.015.008.082.008.097 0 .139-.007.094-.008m-.287-.018c-.007-.007-.026-.008-.042 0-.017.007-.012.012.013.012.023 0 .036-.007.029-.011zm-.149 4.979c-.224-.151-.307-.229-.307-.289 0-.032.008-.058.017-.058.032 0 .406.368.398.391-.005.014-.05-.007-.108-.044m-.115-.384c-.116-.111-.153-.17-.106-.17.028 0 .245.234.245.264 0 .014-.003.026-.006.026-.003 0-.063-.054-.132-.12m1.286-.453c-.061-.023-.023-.067.077-.087.057-.012.149-.04.203-.063.054-.023.102-.038.107-.034.005.007-.02.05-.054.102-.063.093-.064.094-.184.092-.067 0-.133-.007-.148-.012m.659-.463c-.059-.023-.062-.061-.012-.191.043-.112.087-.134.062-.031-.009.037-.021.091-.026.119l-.01.052.044-.047c.026-.028.05-.093.059-.16.008-.062.024-.108.034-.102.027.016.024.18-.005.29-.026.096-.049.107-.146.071m-5.2-.26c-.007-.018-.013-.089-.013-.157 0-.09.008-.122.027-.116.033.01.052.306.02.306-.011 0-.027-.014-.034-.032m5.286-.485c-.034-.043-.045-.078-.035-.114.02-.075.072-.064.11.023.06.135.008.198-.075.092m-5.291-.329c-.001-.117 0-.121.055-.119.047 0 .058.013.063.066.006.059-.062.175-.102.175-.008 0-.016-.054-.017-.121m5.696-2.547c.003-.185.036-.248.062-.118.018.09-.005.25-.04.277-.019.014-.025-.025-.022-.159m-2.887-.111c.009-.025.312-.142.368-.142.066 0-.052.076-.188.121-.152.05-.192.055-.18.021" opacity=".75" fill="#fff"/></g>

   xmlns:dc="http://purl.org/dc/elements/1.1/"
   xmlns:cc="http://creativecommons.org/ns#"
   xmlns:rdf="http://www.w3.org/1999/02/22-rdf-syntax-ns#"
   xmlns:svg="http://www.w3.org/2000/svg"
   xmlns="http://www.w3.org/2000/svg"
   xmlns:xlink="http://www.w3.org/1999/xlink"
   xmlns:sodipodi="http://sodipodi.sourceforge.net/DTD/sodipodi-0.dtd"
   xmlns:inkscape="http://www.inkscape.org/namespaces/inkscape"
   version="1"
   width="32"
   height="32"
   id="svg12"
   sodipodi:docname="snow-mime-1.svg"
   inkscape:version="0.92.1 r"&gt;
  <path fill="#00000f" fill-opacity="0" d="m0 0h32v32h-32z"/><path d="m24.79 31.998c11.532.081 6.305-9.102 3.9-9.628-2.873-.227-4.257 2.594-5.581 3.885-5.02 4.1-11.551-5.844-14.288-3.282-1.657 1.846-2.104 1.097-3.03.582-1.739-.613-4.293.32-4.378 3.164-3.427 3.861-.04 5.647 5.164 5.268 5.732-.135 12.589.045 18.209.011" fill="url(#0)"/></svg>