<svg xmlns="http://www.w3.org/2000/svg" viewBox="0 0 32 32"><defs><linearGradient gradientTransform="matrix(-2.54797 0 0-2.61863 187.08 313.32)" id="0" x1="67.821" y1="109.43" x2="67.781" y2="104.33" gradientUnits="userSpaceOnUse"><stop stop-color="#f9f9f9"/><stop offset="1" stop-color="#999"/></linearGradient></defs><g transform="translate(36.896-3.463)" fill-rule="evenodd"><path d="m-15.709 5.463h-13.651c-3.066 0-5.536 2.468-5.536 5.534v16.93c0 3.066 2.47 5.536 5.536 5.536h16.93c3.066 0 5.534-2.47 5.534-5.536v-13.651z" fill="#d6dbdd"/><path d="m-6.896 14.276l-8.813-8.813v3.279c0 3.066 2.468 5.534 5.534 5.534z" fill="#8096a0"/></g><g transform="translate(-384.54-516.6)" fill="#8096a0"><path d="m402.56 530.91c.019-.152.033-.306.033-.463 0-.157-.014-.311-.033-.463l1-.785c.09-.071.116-.199.057-.304l-.949-1.644c-.059-.102-.183-.145-.289-.102l-1.182.477c-.244-.187-.513-.346-.802-.467l-.178-1.258c-.021-.112-.119-.199-.237-.199h-1.898c-.119 0-.216.088-.235.199l-.178 1.258c-.289.121-.558.278-.802.467l-1.182-.477c-.107-.04-.23 0-.289.102l-.949 1.644c-.059.102-.033.23.057.304l1 .785c-.019.152-.033.306-.033.463 0 .157.014.311.033.463l-1 .785c-.09.071-.116.199-.057.304l.949 1.644c.059.102.183.145.289.102l1.182-.477c.244.187.513.346.802.467l.178 1.258c.019.112.116.199.235.199h1.898c.119 0 .216-.088.235-.199l.178-1.258c.289-.121.558-.278.802-.467l1.182.477c.107.04.23 0 .289-.102l.949-1.644c.059-.102.033-.23-.057-.304zm-3.526 1.198c-.918 0-1.661-.743-1.661-1.661 0-.918.743-1.661 1.661-1.661.918 0 1.661.743 1.661 1.661 0 .918-.743 1.661-1.661 1.661"/><path d="m405.27 539.3c.065-.091.129-.185.184-.286.055-.101.1-.205.141-.309l.921-.153c.083-.014.145-.087.143-.175l-.033-1.39c-.003-.086-.067-.157-.15-.167l-.927-.108c-.091-.206-.208-.402-.351-.582l.327-.871c.025-.079-.006-.17-.083-.211l-1.22-.666c-.076-.042-.17-.019-.221.046l-.555.746c-.228-.024-.456-.017-.679.019l-.592-.721c-.055-.063-.148-.081-.222-.036l-1.187.724c-.074.045-.102.136-.07.215l.368.856c-.065.091-.129.185-.184.286-.055.101-.1.205-.141.309l-.919.154c-.083.014-.145.087-.143.175l.033 1.39c.003.086.067.157.15.167l.927.108c.091.206.208.402.351.582l-.327.871c-.027.078.005.169.081.21l1.22.666c.076.042.17.019.221-.046l.555-.746c.228.024.456.017.679-.019l.592.721c.055.063.148.081.222.036l1.187-.724c.074-.045.102-.136.07-.215zm-2.686-.467c-.59-.322-.807-1.06-.485-1.65.322-.59 1.06-.807 1.65-.485.59.322.807 1.06.485 1.65-.322.59-1.06.807-1.65.485"/></g>

   xmlns:dc="http://purl.org/dc/elements/1.1/"
   xmlns:cc="http://creativecommons.org/ns#"
   xmlns:rdf="http://www.w3.org/1999/02/22-rdf-syntax-ns#"
   xmlns:svg="http://www.w3.org/2000/svg"
   xmlns="http://www.w3.org/2000/svg"
   xmlns:xlink="http://www.w3.org/1999/xlink"
   xmlns:sodipodi="http://sodipodi.sourceforge.net/DTD/sodipodi-0.dtd"
   xmlns:inkscape="http://www.inkscape.org/namespaces/inkscape"
   version="1"
   width="32"
   height="32"
   id="svg12"
   sodipodi:docname="snow-mime-1.svg"
   inkscape:version="0.92.1 r"&gt;
  <path fill="#00000f" fill-opacity="0" d="m0 0h32v32h-32z"/><path d="m24.79 31.998c11.532.081 6.305-9.102 3.9-9.628-2.873-.227-4.257 2.594-5.581 3.885-5.02 4.1-11.551-5.844-14.288-3.282-1.657 1.846-2.104 1.097-3.03.582-1.739-.613-4.293.32-4.378 3.164-3.427 3.861-.04 5.647 5.164 5.268 5.732-.135 12.589.045 18.209.011" fill="url(#0)"/></svg>