<svg xmlns="http://www.w3.org/2000/svg" viewBox="0 0 32 32"><defs><linearGradient gradientTransform="matrix(-2.54797 0 0-2.61863 187.08 313.32)" id="0" x1="67.821" y1="109.43" x2="67.781" y2="104.33" gradientUnits="userSpaceOnUse"><stop stop-color="#f9f9f9"/><stop offset="1" stop-color="#999"/></linearGradient></defs><g transform="translate(39.642 10.627)" fill-rule="evenodd"><path d="m21.19 2h-13.651c-3.066 0-5.536 2.468-5.536 5.534v16.93c0 3.066 2.47 5.536 5.536 5.536h16.93c3.066 0 5.534-2.47 5.534-5.536v-13.651z" transform="translate(-39.642-10.627)" fill="#607d8b"/><path d="m-9.642.186l-8.813-8.813v3.279c0 3.066 2.468 5.534 5.534 5.534z" fill="#4f6772"/></g><path d="m14.865 8.618c-.84 0-1.934.477-2.935 1.274-.6.258-1.023.854-1.023 1.548 0 .217.041.43.121.629-1.038.201-1.823 1.115-1.823 2.211 0 .228.033.452.101.669-.428.423-.669.997-.669 1.604 0 .473.147.914.397 1.276-.26.377-.397.816-.397 1.278 0 .82.446 1.572 1.154 1.968-.012.101-.017.201-.017.303 0 1.106.719 2.085 1.765 2.418.455.779 1.285 1.258 2.191 1.258.994 0 1.854-.575 2.271-1.409.417.833 1.28 1.409 2.273 1.409.906 0 1.733-.478 2.188-1.258 1.047-.333 1.768-1.312 1.768-2.418 0-.102-.005-.202-.017-.303.708-.396 1.154-1.148 1.154-1.968 0-.462-.137-.902-.397-1.278.25-.364.397-.803.397-1.276 0-.607-.242-1.181-.669-1.604.068-.217.101-.441.101-.669 0-1.096-.785-2.01-1.823-2.211.079-.197.121-.411.121-.629 0-.694-.423-1.29-1.023-1.548-1-.796-2.096-1.274-2.935-1.274-.467 0-.882.231-1.137.583-.255-.351-.667-.583-1.134-.583m0 .533c.48 0 .869.392.869.872v3.443c-.239-.19-.541-.303-.869-.303-.147 0-.268.12-.268.268 0 .147.121.265.268.265.48 0 .869.39.869.869v6.4c-.33-.427-.798-.751-1.346-.899-.142-.038-.29.046-.328.187-.038.142.046.29.187.328.874.235 1.486 1.029 1.486 1.933 0 1.106-.9 2.01-2.01 2.01-.746 0-1.426-.412-1.774-1.074-.035-.065-.095-.113-.166-.132-.874-.235-1.483-1.032-1.483-1.936 0-.136.012-.27.038-.402.025-.122-.038-.245-.152-.296-.621-.276-1.023-.894-1.023-1.572 0-.308.081-.603.233-.864.397.35.918.563 1.488.563.147 0 .265-.12.265-.268 0-.147-.118-.265-.265-.265-.949 0-1.721-.773-1.721-1.721 0-.51.226-.994.619-1.322.089-.074.118-.196.074-.303-.084-.207-.126-.427-.126-.647 0-.949.773-1.721 1.721-1.721.949 0 1.721.773 1.721 1.721 0 .147.118.268.265.268.147 0 .268-.12.268-.268 0-1.195-.933-2.171-2.109-2.246-.106-.178-.164-.382-.164-.592 0-.475.288-.883.698-1.059.016-.005.033-.011.048-.02.127-.048.263-.075.407-.075.445 0 .846.249 1.041.65.064.132.222.187.354.123.132-.064.19-.222.126-.354-.222-.457-.645-.789-1.129-.905.679-.414 1.349-.65 1.883-.65m2.271 0c.534 0 1.203.235 1.883.65-.485.117-.907.448-1.129.905-.064.132-.009.29.123.354.132.064.292.009.356-.123.195-.401.592-.65 1.038-.65.144 0 .282.026.409.075.015.007.03.015.046.02.411.176.7.584.7 1.059 0 .21-.057.414-.164.592-1.175.075-2.109 1.053-2.109 2.246 0 .147.121.268.268.268.147 0 .265-.121.265-.268 0-.949.773-1.721 1.721-1.721.949 0 1.721.773 1.721 1.721 0 .222-.043.44-.128.647-.043.107-.012.229.078.303.393.328.619.811.619 1.322 0 .949-.773 1.721-1.721 1.721-.147 0-.268.118-.268.265 0 .147.121.268.268.268.57 0 1.091-.213 1.488-.563.153.261.233.556.233.864 0 .679-.402 1.296-1.023 1.572-.115.051-.179.174-.154.296.027.132.041.266.041.402 0 .904-.61 1.701-1.483 1.936-.072.02-.132.067-.166.132-.349.662-1.028 1.074-1.774 1.074-1.106 0-2.01-.9-2.01-2.01 0-.075-.004-.148-.01-.222.006-.022.01-.047.01-.073v-8.792c0-.48.39-.872.869-.872.147 0 .268-.118.268-.265 0-.147-.121-.268-.268-.268-.328 0-.63.113-.869.303v-2.307c0-.48.39-.872.869-.872m3.976 4.58c-.147 0-.268.118-.268.265 0 .949-.771 1.721-1.72 1.721-.466 0-.904-.182-1.23-.515-.102-.105-.271-.107-.376-.005-.105.102-.107.271-.005.376.369.377.846.609 1.362.665.122.81.822 1.433 1.667 1.433.147 0 .268-.118.268-.265 0-.147-.121-.268-.268-.268-.551 0-1.013-.39-1.127-.907 1.105-.144 1.963-1.091 1.963-2.235 0-.147-.121-.265-.268-.265m-9.653.285c-.147 0-.268.118-.268.265 0 1.143.857 2.09 1.96 2.235-.113.518-.573.907-1.124.907-.147 0-.268.118-.268.265 0 .147.121.268.268.268.843 0 1.544-.623 1.667-1.433.517-.055.994-.287 1.362-.665.102-.105.1-.272-.005-.376-.105-.102-.272-.1-.376.005-.327.333-.764.515-1.23.515-.949 0-1.721-.773-1.721-1.721 0-.147-.118-.265-.265-.265m5.679 3.976c-.147 0-.265.118-.265.265 0 .147.118.268.265.268.949 0 1.721.773 1.721 1.721 0 .06-.004.121-.01.18-.826.334-1.412 1.145-1.412 2.09 0 .147.121.268.268.268.147 0 .265-.12.265-.268 0-.949.773-1.721 1.721-1.721.147 0 .268-.118.268-.265 0-.147-.121-.268-.268-.268-.102 0-.202.009-.301.022 0-.012 0-.026 0-.038 0-1.245-1.01-2.254-2.254-2.254m-3.123.568c-1.245 0-2.254 1.01-2.254 2.251 0 .012 0 .028 0 .041-.099-.014-.198-.022-.301-.022-.147 0-.268.118-.268.265 0 .147.121.268.268.268.949 0 1.721.773 1.721 1.721 0 .147.118.265.265.265.147 0 .268-.118.268-.265 0-.944-.586-1.756-1.412-2.09-.006-.06-.01-.12-.01-.18 0-.949.773-1.721 1.721-1.721.147 0 .265-.121.265-.268h.002c0-.147-.121-.265-.268-.265" fill="#b8deec"/>

   xmlns:dc="http://purl.org/dc/elements/1.1/"
   xmlns:cc="http://creativecommons.org/ns#"
   xmlns:rdf="http://www.w3.org/1999/02/22-rdf-syntax-ns#"
   xmlns:svg="http://www.w3.org/2000/svg"
   xmlns="http://www.w3.org/2000/svg"
   xmlns:xlink="http://www.w3.org/1999/xlink"
   xmlns:sodipodi="http://sodipodi.sourceforge.net/DTD/sodipodi-0.dtd"
   xmlns:inkscape="http://www.inkscape.org/namespaces/inkscape"
   version="1"
   width="32"
   height="32"
   id="svg12"
   sodipodi:docname="snow-mime-1.svg"
   inkscape:version="0.92.1 r"&gt;
  <path fill="#00000f" fill-opacity="0" d="m0 0h32v32h-32z"/><path d="m24.79 31.998c11.532.081 6.305-9.102 3.9-9.628-2.873-.227-4.257 2.594-5.581 3.885-5.02 4.1-11.551-5.844-14.288-3.282-1.657 1.846-2.104 1.097-3.03.582-1.739-.613-4.293.32-4.378 3.164-3.427 3.861-.04 5.647 5.164 5.268 5.732-.135 12.589.045 18.209.011" fill="url(#0)"/></svg>