<svg xmlns="http://www.w3.org/2000/svg" viewBox="0 0 32 32"><defs><linearGradient gradientTransform="matrix(-2.54797 0 0-2.61863 187.08 313.32)" id="0" x1="67.821" y1="109.43" x2="67.781" y2="104.33" gradientUnits="userSpaceOnUse"><stop stop-color="#f9f9f9"/><stop offset="1" stop-color="#999"/></linearGradient></defs><g fill="#ffba3a"><path d="m21.19 2h-13.651c-3.066 0-5.536 2.468-5.536 5.534v16.93c0 3.066 2.47 5.536 5.536 5.536h16.93c3.066 0 5.534-2.47 5.534-5.536v-13.651z" fill-rule="evenodd"/></g><g fill="#e89f17"><path d="m30 10.813l-8.813-8.813v3.279c0 3.066 2.468 5.534 5.534 5.534z" fill-rule="evenodd"/><path d="m14 12.22v2.85c0 0 0 1.15-1.065 1.15-.514 0-1.426-.368-1.79-.987-.497-.845.355-2.01.355-2.01-2.5 0-4.5 2-4.5 4.476 0 3.524 2 4.524 3.5 4.524 0 0-.909-2.561.34-2.925.677-.105 1.779.286 2.16.925 0 0-.352-.906.631-.925.982-.019 2.203 1.477 2.369 2.925.166-1.448 1.387-2.944 2.369-2.925.982.019.631.925.631.925.382-.639 1.484-1.03 2.16-.925 1.248.364.34 2.925.34 2.925 1.5 0 3.5-2 3.5-4.524 0-2.476-2-4.476-4.5-4.476 0 0 .852 1.168.355 2.01-.364.62-1.276.987-1.79.987-1.065 0-1.065-1.15-1.065-1.15v-2.85l-1 1h-1-1z"/></g>

   xmlns:dc="http://purl.org/dc/elements/1.1/"
   xmlns:cc="http://creativecommons.org/ns#"
   xmlns:rdf="http://www.w3.org/1999/02/22-rdf-syntax-ns#"
   xmlns:svg="http://www.w3.org/2000/svg"
   xmlns="http://www.w3.org/2000/svg"
   xmlns:xlink="http://www.w3.org/1999/xlink"
   xmlns:sodipodi="http://sodipodi.sourceforge.net/DTD/sodipodi-0.dtd"
   xmlns:inkscape="http://www.inkscape.org/namespaces/inkscape"
   version="1"
   width="32"
   height="32"
   id="svg12"
   sodipodi:docname="snow-mime-1.svg"
   inkscape:version="0.92.1 r"&gt;
  <path fill="#00000f" fill-opacity="0" d="m0 0h32v32h-32z"/><path d="m24.79 31.998c11.532.081 6.305-9.102 3.9-9.628-2.873-.227-4.257 2.594-5.581 3.885-5.02 4.1-11.551-5.844-14.288-3.282-1.657 1.846-2.104 1.097-3.03.582-1.739-.613-4.293.32-4.378 3.164-3.427 3.861-.04 5.647 5.164 5.268 5.732-.135 12.589.045 18.209.011" fill="url(#0)"/></svg>