<svg xmlns="http://www.w3.org/2000/svg" viewBox="0 0 32 32"><defs><linearGradient gradientTransform="matrix(-2.54797 0 0-2.61863 187.08 313.32)" id="0" x1="67.821" y1="109.43" x2="67.781" y2="104.33" gradientUnits="userSpaceOnUse"><stop stop-color="#f9f9f9"/><stop offset="1" stop-color="#999"/></linearGradient></defs><g fill-rule="evenodd"><path d="m21.19 2h-13.651c-3.066 0-5.536 2.468-5.536 5.534v16.93c0 3.066 2.47 5.536 5.536 5.536h16.93c3.066 0 5.534-2.47 5.534-5.536v-13.651z" fill="#fed947"/><path d="m30 10.813l-8.813-8.813v3.279c0 3.066 2.468 5.534 5.534 5.534z" fill="#d19e05" fill-opacity=".462"/></g><path d="m21.494 11.922c-.346-.117-.783-.185-1.199.047-.674.375-.918 1.131-.918 1.789 0 .658.162 1.326.309 1.965.146.639.276 1.249.271 1.664-.004.416-.047.527-.27.639-.193.097-.293.1-.402.078-.109-.022-.249-.093-.422-.242-.346-.299-.767-.893-1.242-1.537-.476-.644-1.02-1.344-1.766-1.848-.746-.503-1.727-.772-2.842-.518l-.012.002-.012.004c-.743.201-1.291.765-1.666 1.441-.375.676-.605 1.489-.717 2.352-.013.099.012.203.002.303-.206-.013-.381-.085-.59-.09l-1.213-.027-.631-.014-.027 1.262.631.014 1.213.027c.23.005.405.08.631.096.041 1.249.24 2.488.84 3.459l.014.02.014.02c.958 1.32 2.59 1.709 3.82 1.23.615-.239 1.153-.752 1.316-1.459.164-.707-.037-1.518-.59-2.377-.538-.836-1.453-1.365-2.506-1.711-.5-.164-1.107-.169-1.666-.256.009-.111-.02-.226-.006-.334.096-.74.299-1.418.568-1.902.266-.48.572-.74.883-.828.787-.175 1.321-.018 1.84.332.523.353 1 .936 1.457 1.553.456.617.875 1.263 1.43 1.742.278.24.605.444.996.523.391.08.825.012 1.221-.188.688-.346.956-1.098.963-1.752.006-.654-.154-1.319-.301-1.959-.146-.64-.278-1.254-.277-1.684 0-.43.054-.567.27-.688-.035.019.014-.01.182.047.168.057.402.184.621.334.438.299.809.658.809.658l.449.441.883-.9-.451-.441c0 0-.427-.422-.979-.799-.276-.188-.582-.371-.928-.488m-9.609 7.596c.412.074.898.073 1.252.189.889.292 1.532.72 1.84 1.197.434.673.485 1.135.422 1.408-.063.274-.233.447-.545.568-.619.241-1.709.042-2.324-.783-.392-.646-.574-1.593-.645-2.58" shape-rendering="auto" mix-blend-mode="normal" isolation="auto" color-interpolation-filters="linearRGB" white-space="normal" fill="#e8be28" solid-opacity="1" image-rendering="auto" solid-color="#000000" color="#000" color-rendering="auto" vector-effect="none" shape-padding="0" color-interpolation="sRGB"/>

   xmlns:dc="http://purl.org/dc/elements/1.1/"
   xmlns:cc="http://creativecommons.org/ns#"
   xmlns:rdf="http://www.w3.org/1999/02/22-rdf-syntax-ns#"
   xmlns:svg="http://www.w3.org/2000/svg"
   xmlns="http://www.w3.org/2000/svg"
   xmlns:xlink="http://www.w3.org/1999/xlink"
   xmlns:sodipodi="http://sodipodi.sourceforge.net/DTD/sodipodi-0.dtd"
   xmlns:inkscape="http://www.inkscape.org/namespaces/inkscape"
   version="1"
   width="32"
   height="32"
   id="svg12"
   sodipodi:docname="snow-mime-1.svg"
   inkscape:version="0.92.1 r"&gt;
  <path fill="#00000f" fill-opacity="0" d="m0 0h32v32h-32z"/><path d="m24.79 31.998c11.532.081 6.305-9.102 3.9-9.628-2.873-.227-4.257 2.594-5.581 3.885-5.02 4.1-11.551-5.844-14.288-3.282-1.657 1.846-2.104 1.097-3.03.582-1.739-.613-4.293.32-4.378 3.164-3.427 3.861-.04 5.647 5.164 5.268 5.732-.135 12.589.045 18.209.011" fill="url(#0)"/></svg>