<svg xmlns="http://www.w3.org/2000/svg" viewBox="0 0 32 32"><defs><linearGradient gradientTransform="matrix(-2.54797 0 0-2.61863 187.08 313.32)" id="0" x1="67.821" y1="109.43" x2="67.781" y2="104.33" gradientUnits="userSpaceOnUse"><stop stop-color="#f9f9f9"/><stop offset="1" stop-color="#999"/></linearGradient></defs><g fill-rule="evenodd"><g fill="#13a553"><path d="m16.613 30l-5.613-5.615-5.256 5.256c.568.196 1.155.359 1.791.359z"/><path d="m30 18.05l-11.953 11.953h6.418c3.066 0 5.535-2.471 5.535-5.537"/></g><path d="m30 15.233l-12.67 12.67-6.33-6.33-7.04 7.03v.01c.522.449 1.114.796 1.779 1.025l5.256-5.256 5.613 5.615h1.434l11.953-11.953" fill="#7ada81"/><path d="m7.535 2c-3.066 0-5.535 2.467-5.535 5.533v16.93c0 1.685.785 3.139 1.965 4.152v-.01l7.04-7.03 6.33 6.33 12.67-12.67v-4.42l-8.813-8.813z" fill="#13a553"/><path d="m30 10.813l-8.813-8.813v3.279c0 3.066 2.468 5.534 5.534 5.534z" fill="#108844"/></g>

   xmlns:dc="http://purl.org/dc/elements/1.1/"
   xmlns:cc="http://creativecommons.org/ns#"
   xmlns:rdf="http://www.w3.org/1999/02/22-rdf-syntax-ns#"
   xmlns:svg="http://www.w3.org/2000/svg"
   xmlns="http://www.w3.org/2000/svg"
   xmlns:xlink="http://www.w3.org/1999/xlink"
   xmlns:sodipodi="http://sodipodi.sourceforge.net/DTD/sodipodi-0.dtd"
   xmlns:inkscape="http://www.inkscape.org/namespaces/inkscape"
   version="1"
   width="32"
   height="32"
   id="svg12"
   sodipodi:docname="snow-mime-1.svg"
   inkscape:version="0.92.1 r"&gt;
  <path fill="#00000f" fill-opacity="0" d="m0 0h32v32h-32z"/><path d="m24.79 31.998c11.532.081 6.305-9.102 3.9-9.628-2.873-.227-4.257 2.594-5.581 3.885-5.02 4.1-11.551-5.844-14.288-3.282-1.657 1.846-2.104 1.097-3.03.582-1.739-.613-4.293.32-4.378 3.164-3.427 3.861-.04 5.647 5.164 5.268 5.732-.135 12.589.045 18.209.011" fill="url(#0)"/></svg>