<svg xmlns="http://www.w3.org/2000/svg" viewBox="0 0 32 32"><defs><linearGradient gradientTransform="matrix(-2.54797 0 0-2.61863 187.08 313.32)" id="0" x1="67.821" y1="109.43" x2="67.781" y2="104.33" gradientUnits="userSpaceOnUse"><stop stop-color="#f9f9f9"/><stop offset="1" stop-color="#999"/></linearGradient></defs><g transform="translate(48.597-2.746)" fill-rule="evenodd"><path d="m-27.41 4.746h-13.651c-3.066 0-5.536 2.468-5.536 5.534v16.93c0 3.066 2.47 5.536 5.536 5.536h16.93c3.066 0 5.534-2.47 5.534-5.536v-13.651" fill="#ff9639"/><path d="m-18.597 13.559l-8.813-8.813v3.279c0 3.066 2.468 5.534 5.534 5.534z" fill="#a96e3a"/></g><path d="m15.38071 10.453191a.5 .5 0 0 0 -.3457 .146481 .5 .5 0 0 0 0 .70703l3.205 3.205a4 4 0 0 0 -.24023 -.008h-7.5a.5 .5 0 0 0 -.5 .5 .5 .5 0 0 0 .5 .5h4.793l-5.146 5.146a.500012 .5 0 0 0 0 .70704 .500012 .5 0 0 0 .70704 0l3.164-3.164a4 4 0 0 0 -.0176 .31055 4 4 0 0 0 4 4 4 4 0 0 0 4 -4 4 4 0 0 0 -.96094 -2.5957l.006-.006-.135-.135a4 4 0 0 0 -.20313 -.20312l-4.965-4.965a.5 .5 0 0 0 -.36133 -.146481m2.61902 5.05111a3 3 0 0 1 1.99609 .76367l.227.227a3 3 0 0 1 .77734 2.00977 3 3 0 0 1 -3 3 3 3 0 0 1 -3 -3 3 3 0 0 1 3 -3m0 2a1 1 0 0 0 -1 1 1 1 0 0 0 1 1 1 1 0 0 0 1 -1 1 1 0 0 0 -1 -1" opacity=".4" stroke-width="2"/>

   xmlns:dc="http://purl.org/dc/elements/1.1/"
   xmlns:cc="http://creativecommons.org/ns#"
   xmlns:rdf="http://www.w3.org/1999/02/22-rdf-syntax-ns#"
   xmlns:svg="http://www.w3.org/2000/svg"
   xmlns="http://www.w3.org/2000/svg"
   xmlns:xlink="http://www.w3.org/1999/xlink"
   xmlns:sodipodi="http://sodipodi.sourceforge.net/DTD/sodipodi-0.dtd"
   xmlns:inkscape="http://www.inkscape.org/namespaces/inkscape"
   version="1"
   width="32"
   height="32"
   id="svg12"
   sodipodi:docname="snow-mime-1.svg"
   inkscape:version="0.92.1 r"&gt;
  <path fill="#00000f" fill-opacity="0" d="m0 0h32v32h-32z"/><path d="m24.79 31.998c11.532.081 6.305-9.102 3.9-9.628-2.873-.227-4.257 2.594-5.581 3.885-5.02 4.1-11.551-5.844-14.288-3.282-1.657 1.846-2.104 1.097-3.03.582-1.739-.613-4.293.32-4.378 3.164-3.427 3.861-.04 5.647 5.164 5.268 5.732-.135 12.589.045 18.209.011" fill="url(#0)"/></svg>