<svg xmlns="http://www.w3.org/2000/svg" viewBox="0 0 32 32"><defs><linearGradient gradientTransform="matrix(-2.54797 0 0-2.61863 187.08 313.32)" id="0" x1="67.821" y1="109.43" x2="67.781" y2="104.33" gradientUnits="userSpaceOnUse"><stop stop-color="#f9f9f9"/><stop offset="1" stop-color="#999"/></linearGradient></defs><rect width="28.2" height="28.2" x="1.898" y="1.898" fill="#3ea3c0" fill-rule="evenodd" rx="5.575"/><g transform="translate(46.24-.898)" stroke-width=".661"><path d="m-32.13 7.644c-.196.021-.369.182-.405.376l-.39 1.981c-.701.274-1.36.651-1.938 1.113l-1.923-.651c-.2-.069-.442.02-.549.202l-1.851 3.21c-.104.185-.06.44.101.578l1.533 1.345c-.054.361-.087.723-.087 1.099 0 .376.033.738.087 1.099l-1.533 1.345c-.161.138-.205.394-.101.578l1.851 3.21c.107.182.35.271.549.202l1.923-.651c.578.463 1.237.839 1.938 1.113l.39 1.981c.04.207.237.373.448.376h3.702c.211-.003.409-.169.448-.376l.39-1.981c.701-.274 1.36-.651 1.938-1.113l1.923.651c.2.069.442-.02.549-.202l1.851-3.21c.104-.185.06-.44-.101-.578l-1.533-1.345c.054-.361.087-.723.087-1.099 0-.376-.033-.738-.087-1.099l1.533-1.345c.161-.138.205-.394.101-.578l-1.851-3.21c-.107-.182-.35-.271-.549-.202l-1.923.651c-.578-.463-1.237-.84-1.937-1.114l-.39-1.981c-.04-.207-.237-.373-.448-.376h-3.702c-.014 0-.029 0-.043 0" fill="#fff"/><path d="m-31.12 12.271c-.262 0-.444.211-.444.472v5.477h-1.983l3.305 3.966 3.305-3.966h-1.983v-5.477c0-.262-.182-.472-.444-.472z" fill="#3ea3c0"/></g>

   xmlns:dc="http://purl.org/dc/elements/1.1/"
   xmlns:cc="http://creativecommons.org/ns#"
   xmlns:rdf="http://www.w3.org/1999/02/22-rdf-syntax-ns#"
   xmlns:svg="http://www.w3.org/2000/svg"
   xmlns="http://www.w3.org/2000/svg"
   xmlns:xlink="http://www.w3.org/1999/xlink"
   xmlns:sodipodi="http://sodipodi.sourceforge.net/DTD/sodipodi-0.dtd"
   xmlns:inkscape="http://www.inkscape.org/namespaces/inkscape"
   version="1"
   width="32"
   height="32"
   id="svg12"
   sodipodi:docname="snow-mime-1.svg"
   inkscape:version="0.92.1 r"&gt;
  <path fill="#00000f" fill-opacity="0" d="m0 0h32v32h-32z"/><path d="m24.79 31.998c11.532.081 6.305-9.102 3.9-9.628-2.873-.227-4.257 2.594-5.581 3.885-5.02 4.1-11.551-5.844-14.288-3.282-1.657 1.846-2.104 1.097-3.03.582-1.739-.613-4.293.32-4.378 3.164-3.427 3.861-.04 5.647 5.164 5.268 5.732-.135 12.589.045 18.209.011" fill="url(#0)"/></svg>