<svg xmlns="http://www.w3.org/2000/svg" viewBox="0 0 32 32"><defs><linearGradient gradientTransform="matrix(-2.54797 0 0-2.61863 187.08 313.32)" id="0" x1="67.821" y1="109.43" x2="67.781" y2="104.33" gradientUnits="userSpaceOnUse"><stop stop-color="#f9f9f9"/><stop offset="1" stop-color="#999"/></linearGradient></defs><g transform="translate(46.777 2.696)"><g fill-rule="evenodd"><path d="m-25.59-.696h-13.651c-3.066 0-5.536 2.468-5.536 5.534v16.93c0 3.066 2.47 5.536 5.536 5.536h16.93c3.066 0 5.534-2.47 5.534-5.536v-13.651" fill="#bf9a66"/><path d="m-16.777 8.117l-8.813-8.813v3.279c0 3.066 2.468 5.534 5.534 5.534z" fill="#faeda7"/></g><g transform="translate(-45.777-4.682)" fill="#faeda7"><path d="m15 14c-1.105 0-2 .9-2 2v4c0 1.1.895 2 2 2 1.105 0 2-.9 2-2v-4c0-1.1-.895-2-2-2m0 1c.552 0 1 .4 1 1 0 .5-.448 1-1 1-.552 0-1-.5-1-1 0-.6.448-1 1-1m0 3c.552 0 1 .448 1 1v1c0 .552-.448 1-1 1-.552 0-1-.448-1-1v-1c0-.552.448-1 1-1"/><path d="m14 4v1h1v-1m-1 2v1h1v-1m-1 2v1h1v-1m-1 2v1h1v-1zm0 2v1h1v-1z"/><path d="m15 5v1h1v-1m-1 2v1h1v-1m-1 2v1h1v-1m-1 2v1h1v-1zm0 2v1h1v-1z"/></g><path d="m-40.560894 16.686771a1.802699 1.802699 0 0 0 -1.802699 1.802699 1.802699 1.802699 0 0 0 1.802699 1.802699 1.802699 1.802699 0 0 0 .84079 -.208437l1.8 2.1a1.802699 1.802699 0 0 0 -.116893 .632353 1.802699 1.802699 0 0 0 1.802699 1.802699 1.802699 1.802699 0 0 0 1.774532 -1.502719l2.967-.593a1.802699 1.802699 0 0 0 1.747773 1.374558 1.802699 1.802699 0 0 0 1.802699 -1.802699 1.802699 1.802699 0 0 0 -1.802699 -1.802699 1.802699 1.802699 0 0 0 -1.774532 1.50131l-2.966.594a1.802699 1.802699 0 0 0 -1.749181 -1.374558 1.802699 1.802699 0 0 0 -1.280199 .536585l-1.649-1.924a1.802699 1.802699 0 0 0 .405607 -1.136546 1.802699 1.802699 0 0 0 -1.802699 -1.802699" fill="#faeda7"/></g>

   xmlns:dc="http://purl.org/dc/elements/1.1/"
   xmlns:cc="http://creativecommons.org/ns#"
   xmlns:rdf="http://www.w3.org/1999/02/22-rdf-syntax-ns#"
   xmlns:svg="http://www.w3.org/2000/svg"
   xmlns="http://www.w3.org/2000/svg"
   xmlns:xlink="http://www.w3.org/1999/xlink"
   xmlns:sodipodi="http://sodipodi.sourceforge.net/DTD/sodipodi-0.dtd"
   xmlns:inkscape="http://www.inkscape.org/namespaces/inkscape"
   version="1"
   width="32"
   height="32"
   id="svg12"
   sodipodi:docname="snow-mime-1.svg"
   inkscape:version="0.92.1 r"&gt;
  <path fill="#00000f" fill-opacity="0" d="m0 0h32v32h-32z"/><path d="m24.79 31.998c11.532.081 6.305-9.102 3.9-9.628-2.873-.227-4.257 2.594-5.581 3.885-5.02 4.1-11.551-5.844-14.288-3.282-1.657 1.846-2.104 1.097-3.03.582-1.739-.613-4.293.32-4.378 3.164-3.427 3.861-.04 5.647 5.164 5.268 5.732-.135 12.589.045 18.209.011" fill="url(#0)"/></svg>