<svg xmlns="http://www.w3.org/2000/svg" viewBox="0 0 32 32"><defs><linearGradient gradientTransform="matrix(-2.54797 0 0-2.61863 187.08 313.32)" id="0" x1="67.821" y1="109.43" x2="67.781" y2="104.33" gradientUnits="userSpaceOnUse"><stop stop-color="#f9f9f9"/><stop offset="1" stop-color="#999"/></linearGradient></defs><g transform="translate(-384.57-515.8)"><g transform="translate(31.12 4.678)" fill-rule="evenodd"><path d="m374.64 513.12h-13.651c-3.066 0-5.536 2.468-5.536 5.534v16.93c0 3.066 2.47 5.536 5.536 5.536h16.93c3.066 0 5.534-2.47 5.534-5.536v-13.651z" fill="#f6295d"/><path d="m383.45 521.93l-8.813-8.813v3.279c0 3.066 2.468 5.534 5.534 5.534z" fill="#ffe4cb"/></g><path d="m393.35 526.73v.827 9.401 1.542.263h7.1v-1.203h-5.897v-.075l4.701-4.02.903.903.294.32v-1.681l-.256-.256h-1.899l-3.742 3.197v-7.183l2.802 2.802.414-1.241-2.388-2.388h3.185l.4-1.203h-4.788zm7.22 0v1.203h5.19l-1.946 1.946-.827 2.482 3.601-3.601v7.183l-3.732-3.189-.4 1.196 4.132 3.535v.075h-5.335l-.4 1.203h6.938v-.263-1.542-9.401-.827h-.827z" color="#000" fill="#ffe4cb"/></g>

   xmlns:dc="http://purl.org/dc/elements/1.1/"
   xmlns:cc="http://creativecommons.org/ns#"
   xmlns:rdf="http://www.w3.org/1999/02/22-rdf-syntax-ns#"
   xmlns:svg="http://www.w3.org/2000/svg"
   xmlns="http://www.w3.org/2000/svg"
   xmlns:xlink="http://www.w3.org/1999/xlink"
   xmlns:sodipodi="http://sodipodi.sourceforge.net/DTD/sodipodi-0.dtd"
   xmlns:inkscape="http://www.inkscape.org/namespaces/inkscape"
   version="1"
   width="32"
   height="32"
   id="svg12"
   sodipodi:docname="snow-mime-1.svg"
   inkscape:version="0.92.1 r"&gt;
  <path fill="#00000f" fill-opacity="0" d="m0 0h32v32h-32z"/><path d="m24.79 31.998c11.532.081 6.305-9.102 3.9-9.628-2.873-.227-4.257 2.594-5.581 3.885-5.02 4.1-11.551-5.844-14.288-3.282-1.657 1.846-2.104 1.097-3.03.582-1.739-.613-4.293.32-4.378 3.164-3.427 3.861-.04 5.647 5.164 5.268 5.732-.135 12.589.045 18.209.011" fill="url(#0)"/></svg>