<svg xmlns="http://www.w3.org/2000/svg" viewBox="0 0 32 32"><defs><linearGradient gradientTransform="matrix(-2.54797 0 0-2.61863 187.08 313.32)" id="0" x1="67.821" y1="109.43" x2="67.781" y2="104.33" gradientUnits="userSpaceOnUse"><stop stop-color="#f9f9f9"/><stop offset="1" stop-color="#999"/></linearGradient></defs><g fill-rule="evenodd"><path d="m21.19 2h-13.651c-3.066 0-5.536 2.468-5.536 5.534v16.93c0 3.066 2.47 5.536 5.536 5.536h16.93c3.066 0 5.534-2.47 5.534-5.536v-13.651z" fill="#99f"/><path d="m30 10.813l-8.813-8.813v3.279c0 3.066 2.468 5.534 5.534 5.534z" fill="#5b5895"/></g><g transform="translate(0-1.492)" fill="#262038" fill-opacity=".534"><path d="M16 9.22168A6.778037 6.778037 0 0 0 9.222656 15.999024 6.778037 6.778037 0 0 0 16 22.778321 6.778037 6.778037 0 0 0 22.777344 15.999024 6.778037 6.778037 0 0 0 16 9.22168m.994 1.668c.639-.047 1.022.06 1.311.342.181.177.272.346.596 1.104.611 1.43.621 1.493.445 2.521-.019.113-.011.174.021.174.08 0 .283-.24.344-.406.069-.189.139-.191.512-.012 1.094.525 1.297.836 1.061 1.615-.109.357-.291.641-.568.881-.245.212-.929.576-1.35.719-.242.082-.418.101-1.035.109-.843.012-.905.006-1.672-.123-.539-.09-1.165-.265-1.695-.471-.321-.125-.931-.394-1.023-.453-.038-.024-.226-.131-.418-.238-1.038-.58-2.254-1.624-2.551-2.186-.101-.191-.108-.228-.055-.355.084-.202.359-.472.582-.57.193-.085 1.388-.209 1.521-.158.05.019.062.091.047.297-.03.413.046.586.346.777.582.373 1.605.833 2.396 1.08.291.091.873.135.873.066 0-.017-.061-.125-.135-.242-.074-.117-.15-.309-.168-.424-.057-.356-.137-.421-.75-.621-1.284-.418-1.908-.683-2.117-.898-.13-.134-.149-.184-.146-.396.003-.259.299-1.389.436-1.66.153-.303.431-.465.799-.465.135 0 .507.032.826.07.425.05.651.055.838.021.276-.05.517-.082.73-.098zm.492.301c-.249-.029-.572.009-.572.068 0 .019.093.062.207.096.294.087.347.166.193.287-.067.053-.123.117-.123.141 0 .068.452.05.633-.025.145-.061.161-.086.148-.217-.019-.195-.185-.314-.486-.35m-3.354.793c-.087.054-.157.309-.127.467.023.12.082.198.227.301.216.153.382.177.525.076.052-.036.268-.09.48-.119.489-.067.717-.142.736-.242.022-.117-.298-.19-.85-.195-.443-.004-.476-.013-.707-.16-.134-.085-.262-.141-.285-.127m-1.305 4.672c.133 0 .203.056.529.402l.377.4.195-.033c.192-.033.197-.03.555.309.199.188.409.385.469.439.193.176.435.201 2.188.223.93.012 1.711.041 1.734.064.025.025.013.15-.029.314-.039.15-.103.427-.143.613-.063.299-.111.392-.408.789-.509.68-.536.72-.615.859-.084.147-.06.219.074.219.142 0 .365-.13.639-.373.136-.121.423-.32.639-.441.418-.235.433-.245.463-.4.027-.141.11-.187.299-.158.089.013.419.025.732.025.367 0 .568.019.568.051 0 .082-1.074 1.122-1.363 1.32-.947.65-1.814.993-2.766 1.094-.245.026-.499.053-.563.061-.064.007-.263.008-.441 0-2.04-.087-3.618-.833-4.781-2.262-.508-.637-2.12-2.585-.328-2.297.46-.007.88-.002.934.012.054.013.248.158.432.322.427.383.713.453.846.205.044-.082.021-.125-.156-.311-.459-.48-.639-.847-.564-1.145.037-.146.288-.303.486-.303m3.68 2.514c-.075.003-.123.034-.154.092-.08.149-.04.187.307.303.374.125.61.114.729-.031.101-.123.103-.2.008-.295-.067-.067-.084-.067-.207.006-.127.075-.148.075-.357 0-.145-.052-.249-.077-.324-.074"/><g transform="matrix(1 0 0 .68833-17.822 10.05)" aria-label="RPM" stroke-width="1.205"><path d="m26.977 19.404h1.189q1.189 0 1.608.092.423.092.686.471.267.375.267 1.201 0 .754-.188 1.014-.188.259-.738.311.499.124.67.331.172.207.211.383.044.172.044.954v1.704h-1.56v-2.147q0-.519-.084-.642-.08-.124-.427-.124v2.913h-1.68m1.68-5.355v1.436q.283 0 .395-.076.116-.08.116-.507v-.355q0-.307-.112-.403-.108-.096-.399-.096z"/><path d="m31.382 19.404h1.692q.686 0 1.053.108.371.108.555.311.188.204.251.495.068.287.068.894v.563q0 .618-.128.902-.128.283-.471.435-.339.152-.89.152h-.451v2.602h-1.68zm1.68 1.105v1.644q.072.004.124.004.231 0 .319-.112.092-.116.092-.475v-.531q0-.331-.104-.431-.104-.1-.431-.1"/><path d="m40.667 19.404v6.46h-1.468v-4.361l-.587 4.361h-1.041l-.618-4.262v4.262h-1.468v-6.46h2.175q.096.583.204 1.373l.231 1.644.383-3.02z"/></g></g>

   xmlns:dc="http://purl.org/dc/elements/1.1/"
   xmlns:cc="http://creativecommons.org/ns#"
   xmlns:rdf="http://www.w3.org/1999/02/22-rdf-syntax-ns#"
   xmlns:svg="http://www.w3.org/2000/svg"
   xmlns="http://www.w3.org/2000/svg"
   xmlns:xlink="http://www.w3.org/1999/xlink"
   xmlns:sodipodi="http://sodipodi.sourceforge.net/DTD/sodipodi-0.dtd"
   xmlns:inkscape="http://www.inkscape.org/namespaces/inkscape"
   version="1"
   width="32"
   height="32"
   id="svg12"
   sodipodi:docname="snow-mime-1.svg"
   inkscape:version="0.92.1 r"&gt;
  <path fill="#00000f" fill-opacity="0" d="m0 0h32v32h-32z"/><path d="m24.79 31.998c11.532.081 6.305-9.102 3.9-9.628-2.873-.227-4.257 2.594-5.581 3.885-5.02 4.1-11.551-5.844-14.288-3.282-1.657 1.846-2.104 1.097-3.03.582-1.739-.613-4.293.32-4.378 3.164-3.427 3.861-.04 5.647 5.164 5.268 5.732-.135 12.589.045 18.209.011" fill="url(#0)"/></svg>