<svg xmlns="http://www.w3.org/2000/svg" viewBox="0 0 32 32"><defs><linearGradient gradientTransform="matrix(-2.54797 0 0-2.61863 187.08 313.32)" id="0" x1="67.821" y1="109.43" x2="67.781" y2="104.33" gradientUnits="userSpaceOnUse"><stop stop-color="#f9f9f9"/><stop offset="1" stop-color="#999"/></linearGradient></defs><g transform="translate(37.851 1.194)" fill-rule="evenodd"><path d="m-16.664.806h-13.651c-3.066 0-5.536 2.468-5.536 5.534v16.93c0 3.066 2.47 5.536 5.536 5.536h16.93c3.066 0 5.534-2.47 5.534-5.536v-13.651" fill="#41a9eb"/><path d="m-7.851 9.619l-8.813-8.813v3.279c0 3.066 2.468 5.534 5.534 5.534z" fill="#cfe9fa"/></g><path d="m16 9.642c-3.974 0-7.194 3.221-7.194 7.194 0 3.974 3.221 7.194 7.194 7.194 3.974 0 7.194-3.221 7.194-7.194 0-3.974-3.221-7.194-7.194-7.194m0 1.199c.207 0 .398.017.6.037.048 0 .102 0 .15 0 .064.012.125.028.187.037.173.028.32.071.487.113.308.076.613.179.899.3.158.067.299.145.45.225 0 .012.001.024 0 .037.035.016.054.08.113.113.022.012.017.026.037.037.035.019.082.041.076.074-.01.048-.079.038-.113.074.005.07-.058.066-.076.113.011.03.07.04.076.074-.006.038-.09.036-.076.074.065.05.126.012.187 0 .134-.017.254-.012.337-.074-.011-.064.12-.055.113-.113.035.025.078.049.113.074-.013.012-.023.031-.037.037-.025.012-.052.023-.076.037-.034.022-.074.05-.113.074-.028.019-.084.113-.113.113-.035 0-.088-.044-.113-.037-.036.012-.035.061-.076.074-.079.029-.235-.043-.263.074.034.068.164.037.225.074.037.024.103.109.113.15.01.034.014.189 0 .225-.037.096-.152.076-.263.074h-.076c-.186-.012-.366-.096-.45.037.006.102.023.174 0 .263-.017.065-.116.132-.113.187.001.029.068.072.076.113.005.022-.01.054 0 .074.031.059.095-.012.15 0 .053.012.113.091.113.15 0 .042-.011.109-.037.15-.053.079-.15.07-.225.113-.062.036-.076.126-.113.187-.04.067-.09.091-.076.187-.054.107-.113.173-.225.225-.032.014-.083.016-.113.037-.024.017-.041.074-.076.113-.042.047-.09.077-.113.113-.017.028-.019.074-.037.113-.026.05-.079.062-.113.113-.016.024-.02.082-.037.113-.038.07-.082.126-.076.187.006.058.072.06.076.113.004.029-.038.043-.037.074.001.046.034.077.037.113.008.089-.058.127-.076.187-.008.029.007.052 0 .074-.014.044-.074.097-.076.15-.001.037.072.06.076.113.002.035-.044.079-.037.113.013.065.137.137.187.187.068.068.157.115.187.187.025.061.029.179.076.225.035.034.106.04.15.074.042.032.068.04.113.074.073.058.183.195.3.187.061-.012.119-.064.187-.074.071-.012.153-.043.225-.037.055.012.129.041.187.037.06-.012.119-.012.187-.037.119-.052.314-.138.487-.113.132.019.133.167.225.225.106.012.179-.02.263 0 .064.016.144.1.15.15.006.052-.068.118-.076.15-.017.07.012.143 0 .187-.01.035-.038.078-.037.113 0 .031.043.109.076.15.04.05.102.096.15.15.088.101.126.204.187.337.016.034-.014.07 0 .113-.026.201-.092.339-.225.562-.062.072-.151.135-.15.225-.005.216.122.354.113.562-.022.281.022.3 0 .45.095.048.028.2 0 .3-.041.119-.09.145-.113.225.064.028.155.017.225 0-.036.037-.076.076-.113.113-.271.271-.58.534-.899.749-.619.418-1.307.735-2.061.899-.412.09-.836.113-1.275.113-.228 0-.453-.012-.675-.037-.176-.02-.354-.04-.525-.074-.339-.07-.658-.213-.975-.337-.011-.02-.04-.05-.037-.074.062-.026.18.089.225 0 .023-.042-.03-.145 0-.187.022-.029.143-.029.187-.037.064-.012.151-.02.187-.037.04-.025.082-.114.076-.187-.004-.035-.048-.043-.076-.074-.023-.026.016-.05 0-.074-.029-.042-.101-.052-.113-.113.086-.017.212.072.337.037.059-.017.159-.132.187-.187.008-.017-.01-.053 0-.074.011-.022.034-.064.037-.074.008-.032-.007-.016 0-.037.022-.061.077-.107.113-.15.028-.034.088-.078.113-.113.029-.037.018-.041.037-.074.018-.109-.064-.204-.037-.3.029-.108.195-.175.3-.225.036-.017.083-.026.113-.037.072-.025.158-.052.225-.074.113-.041.132-.122.187-.225.026-.048.07-.115.076-.15.005-.031-.006-.038 0-.074.006-.035-.01-.072 0-.113.013-.052.037-.168.037-.225 0-.048-.036-.07-.037-.113-.008-.156.055-.139.113-.225.029-.042.055-.12.076-.15.097-.144.275-.194.263-.412-.005-.072-.06-.24-.113-.263-.03-.013-.068-.022-.113-.037-.141-.053-.265-.213-.412-.225h-.076c-.058 0-.122-.029-.187-.037-.041-.012-.126.012-.15 0-.037-.018-.046-.092-.076-.113-.024-.017-.076-.024-.113-.037-.059-.022-.082-.071-.15-.074-.022 0-.052.012-.076 0-.037-.012-.078-.016-.113-.037-.043-.026-.095-.037-.113-.074.04-.129-.086-.15-.113-.225-.012-.035.012-.119 0-.15-.016-.044-.064-.076-.113-.113-.086-.067-.139-.097-.263-.113-.055-.012-.121.012-.187 0-.07-.012-.173-.053-.225-.113-.05-.059-.068-.122-.113-.15-.042-.026-.084-.048-.113-.074-.013-.012-.025-.012-.037-.037-.022-.044-.064-.059-.037-.113-.048-.024-.023.046-.076.037-.047-.066-.082-.132-.187-.113-.048.012-.094.112-.15.113-.047 0-.089-.103-.15-.113-.047-.012-.118.043-.15.037-.052-.012-.066-.043-.113-.074-.035-.023-.094-.076-.113-.074-.06 0-.104.119-.187.074-.041-.052.085-.065.037-.113-.036-.035-.046.02-.076.037-.034.022-.076.024-.113.037-.083.031-.161.041-.225.074-.06.031-.078.052-.113.113-.028.05-.071.147-.113.15-.05 0-.067-.054-.113-.074-.138-.06-.223.035-.337.037-.106 0-.267-.163-.263-.263.004-.061.03-.15.037-.225.006-.06.074-.133.076-.187.001-.074-.139-.104-.187-.113-.113-.02-.247.05-.375 0-.024-.041.023-.072.037-.113.008-.022-.008-.05 0-.074.014-.038.095-.072.113-.113.013-.031-.013-.073 0-.113.016-.043.072-.082.076-.113.005-.041-.043-.086-.076-.113-.1.012-.167.012-.225.037-.129.059-.095.222-.225.263-.044.014-.1.029-.15.037-.022.012-.05 0-.076 0 .002-.012-.002-.025 0-.037.006-.028.031-.048.037-.074.085-.39.217-.767.375-1.125h.037c.046.012.073.072.113.074.11.012.133-.102.225-.15.094.013.14-.012.225 0 .058.012.141.07.187.074.038 0 .04-.042.076-.037.036.012.107.07.113.113.006.054-.053.128-.037.187.056.058.182.079.263.113.053-.044.008-.125 0-.187-.001-.028.004-.088 0-.113-.006-.043-.037-.076-.037-.113 0-.171.147-.233.263-.3.049-.029.107-.091.15-.113.061-.03.1-.012.15-.037.091-.052.153-.129.225-.187.032-.078-.004-.186 0-.263.032-.02.078 0 .113 0 .055-.012.082-.082.113-.113.018-.018.054-.019.076-.037.055-.043.065-.094.113-.113.017-.012.049-.029.076-.037.036-.012.092-.016.15-.037.037-.013.135-.022.15-.037.018-.018-.005-.085 0-.113.029-.135.216-.141.337-.187.084-.031.169-.129.263-.113-.018.065-.09.072-.076.15.02.109.149-.022.187-.037.073-.031.204-.077.3-.113.084-.03.229-.053.15-.15-.066-.012-.092.052-.15.074-.04.012-.041-.034-.076-.037-.032 0-.043.043-.076.037-.032-.012-.07-.073-.076-.113-.013-.101.072-.113.113-.187-.028-.091-.149-.04-.225-.074.008-.054.049-.101.113-.113.052-.012.193.012.225.037.018.016-.028.05 0 .074.031.028.072.012.113 0 .014-.068-.086-.03-.076-.074.082-.053.237-.024.337-.037.058-.012.135-.047.187-.074.048-.028.062-.083.113-.037.014.049-.01.086-.037.113-.092.082-.191.168-.263.263.044.043.113.029.187.037.029.012.083 0 .113 0 .036.012.084-.012.113 0 .05.012.062.113.113.113.082 0 .047-.096 0-.15.014-.056.058-.11.037-.15-.037-.074-.18.022-.187-.074-.005-.06.054-.067.076-.113-.01-.115.086-.121.076-.225-.006-.043-.046-.034-.076-.074-.016-.022-.019-.096-.037-.113-.062-.053-.18-.012-.187-.113-.004-.06.008-.123 0-.187-.008-.061-.06-.251-.113-.263-.067-.014-.107.113-.187.15-.043.02-.143.044-.187.037-.029-.012-.072-.018-.076-.074-.005-.05.056-.073.076-.113.005-.012-.002-.024 0-.037.088-.024.174-.054.263-.074.05-.012.1-.028.15-.037.036-.012.077.012.113 0 .161-.03.323-.059.487-.074.199-.02.394-.037.6-.037zm-2.435.562c-.038.219-.243.306-.487.3-.055.053-.007.151-.037.225-.025.061-.126.118-.187.113-.044 0-.113-.071-.113-.113 0-.052.082-.054.037-.113.002-.012.025-.025.037-.037.024-.016.05-.023.076-.037.217-.133.44-.231.675-.337m5.02.224c-.022.012-.018.025-.037.037-.046.028-.078.062-.113.074-.049.018-.106.03-.113.074-.006.037.038.041.037.074-.018.044-.028.059-.037.113.061.1.187-.022.263-.037.034-.012.058-.012.076-.037.02-.032.022-.067.037-.113.017-.05.08-.068.076-.113-.005-.044-.113-.08-.187-.074m-6.557.751c.056.046.137.145.037.187-.012.012-.158.042-.187.037-.012 0-.028-.029-.037-.037.062-.06.122-.129.187-.187m.225.225c.029 0 .041.073.076.074.032 0 .055-.042.076-.037.05.013.085.113.037.15-.04.012-.046-.042-.076-.037-.082.014-.126.192-.187.187-.058-.012-.096-.145-.037-.187.001-.036-.002-.037 0-.074.018-.022.065-.078.113-.074zm-.3.037c.017 0 .031-.012.037 0-.008.064-.026.083-.076.113-.085.052-.159.115-.187.225-.008.032-.109.12-.15.113-.095-.02.054-.198.076-.225.024-.03.047-.041.076-.074.028-.034.049-.094.076-.113.029-.02.1-.04.15-.037zm8.13.187c.095-.012.144.092.187.15.036.047.128.118.187.15.034.018.076.059.113.074.078.035.222.149.225.225.001.038-.043.077-.037.113.059.012.112-.091.113-.15.11.156.205.321.3.487.046.078.108.144.15.225-.053.016-.066.024-.076.074-.012.067.026.175-.076.187-.064.012-.138-.054-.225-.074-.036-.012-.084.012-.113 0-.066-.022-.056-.11-.113-.15-.032-.023-.135-.07-.187-.074-.032 0-.041.012-.076 0-.041-.012-.116.017-.15 0-.032-.02-.104-.085-.113-.113-.013-.044.11-.074.113-.113.002-.029-.031-.068-.037-.113-.005-.026.006-.056 0-.074-.008-.031-.064-.036-.113-.037-.043 0-.076 0-.113 0-.053 0-.159 0-.225 0-.04 0-.076 0-.113 0-.104.012-.181-.012-.263 0-.059 0-.17.05-.225.074-.028.013-.04.019-.076.037-.017.012-.054.028-.076.037-.034.016-.08.065-.113.074-.047.012-.102-.012-.187 0-.061 0-.149-.04-.15-.113-.001-.112.194-.054.3-.074.04-.012.065-.046.113-.074.023-.013.016-.023.037-.037.036-.025.107-.084.113-.113.005-.026-.004-.054 0-.074.005-.025.043-.041.076-.074.05-.05.088-.118.15-.15.042-.022.094-.041.113-.074.005-.038-.001-.038 0-.074.026-.024.054-.032.076-.037.065-.014.112 0 .187 0 .032 0 .078.016.113 0 .029-.019.046-.061.076-.074.031-.017.074-.035.113-.037zm.675.712h-.15c-.053 0-.119-.028-.15 0 .044.072.126.095.225.113.036-.026.058-.066.076-.113m-8.206-.675h.113c.03 0 .064-.012.076 0-.019.079-.2.066-.263.037.004-.03.037-.032.076-.037m-.263.15c-.053.038-.104.086-.187.113-.046.014-.104.013-.113-.037-.01-.062.072-.031.113-.037.053-.012.126-.035.187-.037zm7.794 0c-.04.013-.059.101 0 .113.028-.017.044-.061.037-.113-.016-.017-.025-.012-.037 0m-.076.187c.001.067.013.129 0 .187.038.074.131.013.15-.037.023-.125-.017-.165-.076-.15-.019.012-.055-.016-.076 0m-9.929 2.809c.067.061.107.147.187.187.03.016.074.028.113.037.031.012.046-.012.076 0 .064.022.137.052.187.074.077.034.158.149.225.187.004.038-.012.084 0 .113.031.042.062.084.113.113.061.034.092.086.15.113.02.012.043-.012.076 0 .079.024.119.133.187.113.044-.013.03-.07.037-.113.03-.032.066-.074.113-.074.074 0 .085.115.113.187.016.041.064.07.076.113.018.074.016.293 0 .337-.019.055-.104.052-.15.113-.022.029-.02.092-.037.113-.029.035-.054.042-.076.074-.012.018-.026.05-.037.074-.036.077-.104.133-.076.225.012.037.076.068.076.113 0 .053-.104.092-.113.15-.006.042.024.094.037.15.01.042.088.085.113.113.042.047.074.128.113.187.076.116.113.26.187.375.04.059.123.088.15.15.013.031-.012.084 0 .113.043.097.24.215.337.263.046.023.108.013.15.037.064.036.193.132.225.187.029.05.023.182.037.263.018.106-.005.186 0 .3.004.062.037.088.037.15 0 .022.001.09 0 .113-.001.074.006.15 0 .225-.004.041-.002.078 0 .113.004.037.035.042.037.074.002.035-.041.085-.037.113.008.076.06.118.076.187.012.055.044.197.037.263-.005.035-.032.073-.037.113-.004.031.005.047 0 .074-.004.028.007.052 0 .074-.038-.024-.074-.049-.113-.074-.319-.216-.628-.478-.899-.749-.037-.037-.077-.074-.113-.113-.217-.228-.421-.489-.6-.749-.017-.024-.022-.052-.037-.074-.207-.311-.378-.626-.525-.975-.011-.025-.028-.049-.037-.074-.126-.311-.227-.64-.3-.975-.014-.064-.025-.123-.037-.187-.03-.161-.059-.323-.076-.487-.02-.203-.037-.394-.037-.601 0-.285.036-.55.076-.825m2.324.637c.058-.026.047.067 0 .074-.044.012-.043-.053 0-.074" opacity=".75" fill="#fff" color-rendering="auto" color-interpolation-filters="linearRGB" shape-rendering="auto" image-rendering="auto" color-interpolation="sRGB" color="#000"/>

   xmlns:dc="http://purl.org/dc/elements/1.1/"
   xmlns:cc="http://creativecommons.org/ns#"
   xmlns:rdf="http://www.w3.org/1999/02/22-rdf-syntax-ns#"
   xmlns:svg="http://www.w3.org/2000/svg"
   xmlns="http://www.w3.org/2000/svg"
   xmlns:xlink="http://www.w3.org/1999/xlink"
   xmlns:sodipodi="http://sodipodi.sourceforge.net/DTD/sodipodi-0.dtd"
   xmlns:inkscape="http://www.inkscape.org/namespaces/inkscape"
   version="1"
   width="32"
   height="32"
   id="svg12"
   sodipodi:docname="snow-mime-1.svg"
   inkscape:version="0.92.1 r"&gt;
  <path fill="#00000f" fill-opacity="0" d="m0 0h32v32h-32z"/><path d="m24.79 31.998c11.532.081 6.305-9.102 3.9-9.628-2.873-.227-4.257 2.594-5.581 3.885-5.02 4.1-11.551-5.844-14.288-3.282-1.657 1.846-2.104 1.097-3.03.582-1.739-.613-4.293.32-4.378 3.164-3.427 3.861-.04 5.647 5.164 5.268 5.732-.135 12.589.045 18.209.011" fill="url(#0)"/></svg>