<svg xmlns="http://www.w3.org/2000/svg" viewBox="0 0 32 32"><defs><linearGradient gradientTransform="matrix(-2.54797 0 0-2.61863 187.08 313.32)" id="0" x1="67.821" y1="109.43" x2="67.781" y2="104.33" gradientUnits="userSpaceOnUse"><stop stop-color="#f9f9f9"/><stop offset="1" stop-color="#999"/></linearGradient></defs><g transform="translate(41.5-.75)" fill-rule="evenodd"><path d="m-20.313 2.75h-13.651c-3.066 0-5.536 2.468-5.536 5.534v16.93c0 3.066 2.47 5.536 5.536 5.536h16.93c3.066 0 5.534-2.47 5.534-5.536v-13.651z" fill="#66d7fc"/><path d="m-11.5 11.563l-8.813-8.813v3.279c0 3.066 2.468 5.534 5.534 5.534z" fill="#4c91a7"/></g><g opacity=".4" vector-effect="none" stroke-width=".132"><path transform="translate(8.213 8.881)" d="m6.01 3.988v1.559h1.559v-1.559m.441 0v1.559h1.559v-1.559m2.701 1.283c-.524.359-.765 1.01-.602 1.623.165.613.699 1.056 1.332 1.105.212.599.777.999 1.412 1 .635-.001 1.2-.401 1.412-1-.212-.599-.777-.999-1.412-1-.303.001-.598.094-.848.266.101-.286.114-.596.035-.889-.165-.613-.698-1.055-1.33-1.105m.73 2.729h-12c0 3.314 2.686 5 6 5 3.314 0 6-1.686 6-5zm-9.559-2v1.559h1.559v-1.559m.441 0v1.559h1.559v-1.559m.441 0v1.559h1.559v-1.559m.441 0v1.559h1.559v-1.559m-7.5 3.00391a.5 .5 0 0 1 .5 .5 .5 .5 0 0 1 -.5 .5 .5 .5 0 0 1 -.5 -.5 .5 .5 0 0 1 .5 -.5" mix-blend-mode="normal" solid-color="#000000" opacity="1" color-interpolation-filters="linearRGB" vector-effect="none" color="#000" image-rendering="auto" color-rendering="auto" isolation="auto" color-interpolation="sRGB" solid-opacity="1" shape-rendering="auto"/></g>

   xmlns:dc="http://purl.org/dc/elements/1.1/"
   xmlns:cc="http://creativecommons.org/ns#"
   xmlns:rdf="http://www.w3.org/1999/02/22-rdf-syntax-ns#"
   xmlns:svg="http://www.w3.org/2000/svg"
   xmlns="http://www.w3.org/2000/svg"
   xmlns:xlink="http://www.w3.org/1999/xlink"
   xmlns:sodipodi="http://sodipodi.sourceforge.net/DTD/sodipodi-0.dtd"
   xmlns:inkscape="http://www.inkscape.org/namespaces/inkscape"
   version="1"
   width="32"
   height="32"
   id="svg12"
   sodipodi:docname="snow-mime-1.svg"
   inkscape:version="0.92.1 r"&gt;
  <path fill="#00000f" fill-opacity="0" d="m0 0h32v32h-32z"/><path d="m24.79 31.998c11.532.081 6.305-9.102 3.9-9.628-2.873-.227-4.257 2.594-5.581 3.885-5.02 4.1-11.551-5.844-14.288-3.282-1.657 1.846-2.104 1.097-3.03.582-1.739-.613-4.293.32-4.378 3.164-3.427 3.861-.04 5.647 5.164 5.268 5.732-.135 12.589.045 18.209.011" fill="url(#0)"/></svg>