<svg xmlns="http://www.w3.org/2000/svg" viewBox="0 0 32 32"><defs><linearGradient gradientTransform="matrix(-2.54797 0 0-2.61863 187.08 313.32)" id="0" x1="67.821" y1="109.43" x2="67.781" y2="104.33" gradientUnits="userSpaceOnUse"><stop stop-color="#f9f9f9"/><stop offset="1" stop-color="#999"/></linearGradient></defs><g fill-rule="evenodd"><path d="m21.19 2h-13.651c-3.066 0-5.536 2.468-5.536 5.534v16.93c0 3.066 2.47 5.536 5.536 5.536h16.93c3.066 0 5.534-2.47 5.534-5.536v-13.651z" fill="#ccc"/><path d="m30 10.813l-8.813-8.813v3.279c0 3.066 2.468 5.534 5.534 5.534z" fill="#999"/></g><path d="m12.836 10.733c-.823-.043-1.63.229-2.227.826-1.195 1.195-1.087 3.225.241 4.552l.838.838-.838.838c-1.327 1.327-1.435 3.358-.241 4.552 1.195 1.195 3.225 1.087 4.552-.241l.838-.838.838.838c1.327 1.327 3.358 1.435 4.552.241 1.195-1.195 1.087-3.225-.241-4.552l-.838-.838.838-.838c1.327-1.327 1.435-3.358.241-4.552-1.195-1.195-3.225-1.087-4.552.241l-.838.838-.838-.838c-.663-.663-1.503-1.023-2.325-1.066m3.163598 3.106097a1.062138 .879772 0 0 1 .06317 .05831 1.062138 .879772 0 0 1 .02308 .02308 1.062138 .879772 0 0 1 .04373 .05103 1.062138 .879772 0 0 1 .01336 .01701 1.062138 .879772 0 0 1 .03766 .05103 1.062138 .879772 0 0 1 .02187 .03645 1.062138 .879772 0 0 1 .0243 .04495 1.062138 .879772 0 0 1 .02187 .04617 1.062138 .879772 0 0 1 .01219 .02794 1.062138 .879772 0 0 1 .01822 .05468 1.062138 .879772 0 0 1 .0097 .03766 1.062138 .879772 0 0 1 .0097 .04981 1.062138 .879772 0 0 1 .0061 .03037 1.062138 .879772 0 0 1 .0036 .05468 1.062138 .879772 0 0 1 .0024 .03888 1.062138 .879772 0 0 1 -.0025 .03888 1.062138 .879772 0 0 1 -.0036 .05468 1.062138 .879772 0 0 1 -.0061 .03037 1.062138 .879772 0 0 1 -.0097 .04981 1.062138 .879772 0 0 1 -.0097 .03766 1.062138 .879772 0 0 1 -.01823 .05468 1.062138 .879772 0 0 1 -.01219 .02794 1.062138 .879772 0 0 1 -.02187 .04617 1.062138 .879772 0 0 1 -.0243 .04495 1.062138 .879772 0 0 1 -.02187 .03645 1.062138 .879772 0 0 1 -.03767 .05103 1.062138 .879772 0 0 1 -.01336 .01701 1.062138 .879772 0 0 1 -.04373 .05103 1.062138 .879772 0 0 1 -.02308 .02308 1.062138 .879772 0 0 1 -.06304 .05831 1.062138 .879772 0 0 1 -.06317 -.05831 1.062138 .879772 0 0 1 -.02308 -.02308 1.062138 .879772 0 0 1 -.04373 -.05103 1.062138 .879772 0 0 1 -.01336 -.01701 1.062138 .879772 0 0 1 -.03766 -.05103 1.062138 .879772 0 0 1 -.02187 -.03645 1.062138 .879772 0 0 1 -.0243 -.04495 1.062138 .879772 0 0 1 -.02187 -.04617 1.062138 .879772 0 0 1 -.01219 -.02794 1.062138 .879772 0 0 1 -.01823 -.05468 1.062138 .879772 0 0 1 -.0097 -.03766 1.062138 .879772 0 0 1 -.0097 -.04981 1.062138 .879772 0 0 1 -.0061 -.03037 1.062138 .879772 0 0 1 -.0037 -.05468 1.062138 .879772 0 0 1 -.0024 -.03888 1.062138 .879772 0 0 1 .0025 -.03888 1.062138 .879772 0 0 1 .0036 -.05468 1.062138 .879772 0 0 1 .0061 -.03037 1.062138 .879772 0 0 1 .0097 -.04981 1.062138 .879772 0 0 1 .0097 -.03766 1.062138 .879772 0 0 1 .01823 -.05468 1.062138 .879772 0 0 1 .01219 -.02794 1.062138 .879772 0 0 1 .02187 -.04617 1.062138 .879772 0 0 1 .0243 -.04495 1.062138 .879772 0 0 1 .02187 -.03645 1.062138 .879772 0 0 1 .03766 -.05103 1.062138 .879772 0 0 1 .01336 -.01701 1.062138 .879772 0 0 1 .04373 -.05103 1.062138 .879772 0 0 1 .02309 -.02308 1.062138 .879772 0 0 1 .06345 -.05847m-1.116791 1.502979a.762345 .762345 0 0 1 .208964 .02673 .762345 .762345 0 0 1 -.196809 .736233 .762345 .762345 0 0 1 -.736233 .19681 .762345 .762345 0 0 1 .19681 -.736233 .762345 .762345 0 0 1 .527268 -.223545m2.232957.000005a.762345 .762345 0 0 1 .527268 .223545 .762345 .762345 0 0 1 .19681 .736232 .762345 .762345 0 0 1 -.736233 -.196809 .762345 .762345 0 0 1 -.196809 -.736233 .762345 .762345 0 0 1 .208964 -.02673m-1.117163.985288a.622028 .622028 0 0 1 .04496 .0025 .622028 .622028 0 0 1 .0085 0 .622028 .622028 0 0 1 .0025 0 .622028 .622028 0 0 1 .04859 .0073 .622028 .622028 0 0 1 .0158 .0025 .622028 .622028 0 0 1 .04132 .0097 .622028 .622028 0 0 1 .01701 .0048 .622028 .622028 0 0 1 .05468 .01945 .622028 .622028 0 0 1 .04617 .02065 .622028 .622028 0 0 1 .01701 .0085 .622028 .622028 0 0 1 .02308 .01336 .622028 .622028 0 0 1 .03766 .02552 .622028 .622028 0 0 1 .0012 0 .622028 .622028 0 0 1 .03523 .02672 .622028 .622028 0 0 1 .04617 .0413 .622028 .622028 0 0 1 .04132 .04617 .622028 .622028 0 0 1 .02672 .03644 .622028 .622028 0 0 1 .02552 .03767 .622028 .622028 0 0 1 .01336 .02308 .622028 .622028 0 0 1 .0085 .01701 .622028 .622028 0 0 1 .02065 .04617 .622028 .622028 0 0 1 .01944 .05468 .622028 .622028 0 0 1 .0049 .01701 .622028 .622028 0 0 1 .0097 .04132 .622028 .622028 0 0 1 .0024 .01579 .622028 .622028 0 0 1 .0073 .04861 .622028 .622028 0 0 1 0 .01095 .622028 .622028 0 0 1 .0025 .04484 .622028 .622028 0 0 1 -.0025 .04496 .622028 .622028 0 0 1 0 .01095 .622028 .622028 0 0 1 -.0073 .04861 .622028 .622028 0 0 1 -.0025 .0158 .622028 .622028 0 0 1 -.0097 .0413 .622028 .622028 0 0 1 -.0049 .01701 .622028 .622028 0 0 1 -.01945 .05468 .622028 .622028 0 0 1 -.02065 .04617 .622028 .622028 0 0 1 -.0085 .01701 .622028 .622028 0 0 1 -.01336 .02308 .622028 .622028 0 0 1 -.02551 .03766 .622028 .622028 0 0 1 -.02672 .03645 .622028 .622028 0 0 1 -.0413 .04617 .622028 .622028 0 0 1 -.04617 .0413 .622028 .622028 0 0 1 -.03523 .02673 .622028 .622028 0 0 1 -.0012 0 .622028 .622028 0 0 1 -.03766 .02552 .622028 .622028 0 0 1 -.02309 .01336 .622028 .622028 0 0 1 -.01701 .0085 .622028 .622028 0 0 1 -.04617 .02065 .622028 .622028 0 0 1 -.05466 .01945 .622028 .622028 0 0 1 -.01701 .0049 .622028 .622028 0 0 1 -.0413 .0097 .622028 .622028 0 0 1 -.0158 .0025 .622028 .622028 0 0 1 -.0486 .0073 .622028 .622028 0 0 1 -.0025 0 .622028 .622028 0 0 1 -.0085 0 .622028 .622028 0 0 1 -.04481 .0024 .622028 .622028 0 0 1 -.04495 -.0025 .622028 .622028 0 0 1 -.01095 0 .622028 .622028 0 0 1 -.0486 -.0073 .622028 .622028 0 0 1 -.0158 -.0025 .622028 .622028 0 0 1 -.0413 -.0097 .622028 .622028 0 0 1 -.01701 -.0048 .622028 .622028 0 0 1 -.05466 -.01945 .622028 .622028 0 0 1 -.04617 -.02065 .622028 .622028 0 0 1 -.01701 -.0085 .622028 .622028 0 0 1 -.02309 -.01336 .622028 .622028 0 0 1 -.03766 -.02552 .622028 .622028 0 0 1 -.0012 0 .622028 .622028 0 0 1 -.03523 -.02672 .622028 .622028 0 0 1 -.04617 -.0413 .622028 .622028 0 0 1 -.0413 -.04617 .622028 .622028 0 0 1 -.02674 -.03523 .622028 .622028 0 0 1 0 -.0012 .622028 .622028 0 0 1 -.02552 -.03766 .622028 .622028 0 0 1 -.01336 -.02309 .622028 .622028 0 0 1 -.0085 -.01701 .622028 .622028 0 0 1 -.02065 -.04617 .622028 .622028 0 0 1 -.01944 -.05466 .622028 .622028 0 0 1 -.0049 -.01701 .622028 .622028 0 0 1 -.0097 -.0413 .622028 .622028 0 0 1 -.0025 -.0158 .622028 .622028 0 0 1 -.0073 -.04861 .622028 .622028 0 0 1 0 -.01095 .622028 .622028 0 0 1 -.0024 -.04481 .622028 .622028 0 0 1 .0025 -.04496 .622028 .622028 0 0 1 0 -.01095 .622028 .622028 0 0 1 .0073 -.04861 .622028 .622028 0 0 1 .0025 -.0158 .622028 .622028 0 0 1 .0097 -.0413 .622028 .622028 0 0 1 .0049 -.01701 .622028 .622028 0 0 1 .01944 -.05468 .622028 .622028 0 0 1 .02065 -.04617 .622028 .622028 0 0 1 .0085 -.01701 .622028 .622028 0 0 1 .01336 -.02308 .622028 .622028 0 0 1 .02551 -.03766 .622028 .622028 0 0 1 .02674 -.03645 .622028 .622028 0 0 1 .04131 -.04617 .622028 .622028 0 0 1 .04617 -.0413 .622028 .622028 0 0 1 .03644 -.02674 .622028 .622028 0 0 1 .03766 -.02552 .622028 .622028 0 0 1 .02309 -.01336 .622028 .622028 0 0 1 .01701 -.0085 .622028 .622028 0 0 1 .04617 -.02065 .622028 .622028 0 0 1 .05466 -.01945 .622028 .622028 0 0 1 .01701 -.0048 .622028 .622028 0 0 1 .0413 -.0097 .622028 .622028 0 0 1 .0158 -.0025 .622028 .622028 0 0 1 .04859 -.0073 .622028 .622028 0 0 1 .01095 0 .622028 .622028 0 0 1 .04479 -.0025m-2.501454.310954a.879772 1.061653 0 0 1 .63539 .311014 .879772 1.061653 0 0 1 -1.244057 0 .879772 1.061653 0 0 1 .608667 -.311014m5.00297 0a.879772 1.061653 0 0 1 .608666 .311014 .879772 1.061653 0 0 1 -1.244056 0 .879772 1.061653 0 0 1 .63539 -.311014m-4.157388 1.191818a.762345 .762345 0 0 1 .551565 .223545 .762345 .762345 0 0 1 .19681 .736232 .762345 .762345 0 0 1 -.736233 -.196809 .762345 .762345 0 0 1 -.196809 -.736233 .762345 .762345 0 0 1 .184667 -.02673m3.310558-.000005a.762345 .762345 0 0 1 .0012 0 .762345 .762345 0 0 1 .184667 .02673 .762345 .762345 0 0 1 -.196809 .736233 .762345 .762345 0 0 1 -.736233 .196809 .762345 .762345 0 0 1 .19681 -.736232 .762345 .762345 0 0 1 .550345 -.223544m-1.65333.985297a1.062138 .879772 0 0 1 .06317 .05831 1.062138 .879772 0 0 1 .02308 .02308 1.062138 .879772 0 0 1 .04373 .05103 1.062138 .879772 0 0 1 .01336 .01701 1.062138 .879772 0 0 1 .03766 .05103 1.062138 .879772 0 0 1 .02187 .03645 1.062138 .879772 0 0 1 .0243 .04495 1.062138 .879772 0 0 1 .02187 .04617 1.062138 .879772 0 0 1 .01219 .02794 1.062138 .879772 0 0 1 .01823 .05468 1.062138 .879772 0 0 1 .0097 .03766 1.062138 .879772 0 0 1 .0097 .04981 1.062138 .879772 0 0 1 .0061 .03037 1.062138 .879772 0 0 1 .0036 .05468 1.062138 .879772 0 0 1 .0024 .03888 1.062138 .879772 0 0 1 -.0025 .03888 1.062138 .879772 0 0 1 -.0036 .05468 1.062138 .879772 0 0 1 -.0061 .03037 1.062138 .879772 0 0 1 -.0097 .04981 1.062138 .879772 0 0 1 -.0097 .03766 1.062138 .879772 0 0 1 -.01823 .05468 1.062138 .879772 0 0 1 -.01219 .02794 1.062138 .879772 0 0 1 -.02187 .04617 1.062138 .879772 0 0 1 -.0243 .04495 1.062138 .879772 0 0 1 -.02187 .03645 1.062138 .879772 0 0 1 -.03767 .05103 1.062138 .879772 0 0 1 -.01336 .01701 1.062138 .879772 0 0 1 -.04373 .05103 1.062138 .879772 0 0 1 -.02308 .02308 1.062138 .879772 0 0 1 -.06304 .05831 1.062138 .879772 0 0 1 -.06317 -.05831 1.062138 .879772 0 0 1 -.02308 -.02308 1.062138 .879772 0 0 1 -.04373 -.05103 1.062138 .879772 0 0 1 -.01336 -.01701 1.062138 .879772 0 0 1 -.03766 -.05103 1.062138 .879772 0 0 1 -.02187 -.03645 1.062138 .879772 0 0 1 -.0243 -.04495 1.062138 .879772 0 0 1 -.02187 -.04617 1.062138 .879772 0 0 1 -.01219 -.02794 1.062138 .879772 0 0 1 -.01823 -.05468 1.062138 .879772 0 0 1 -.0097 -.03766 1.062138 .879772 0 0 1 -.0097 -.04981 1.062138 .879772 0 0 1 -.0061 -.03037 1.062138 .879772 0 0 1 -.0037 -.05468 1.062138 .879772 0 0 1 -.0024 -.03888 1.062138 .879772 0 0 1 .0025 -.03888 1.062138 .879772 0 0 1 .0036 -.05468 1.062138 .879772 0 0 1 .0061 -.03037 1.062138 .879772 0 0 1 .0097 -.04981 1.062138 .879772 0 0 1 .0097 -.03766 1.062138 .879772 0 0 1 .01823 -.05468 1.062138 .879772 0 0 1 .01219 -.02794 1.062138 .879772 0 0 1 .02187 -.04617 1.062138 .879772 0 0 1 .0243 -.04495 1.062138 .879772 0 0 1 .02187 -.03645 1.062138 .879772 0 0 1 .03766 -.05103 1.062138 .879772 0 0 1 .01336 -.01701 1.062138 .879772 0 0 1 .04373 -.05103 1.062138 .879772 0 0 1 .02309 -.02308 1.062138 .879772 0 0 1 .06345 -.05847" opacity=".5" fill="#999" stroke-width="1.244"/>

   xmlns:dc="http://purl.org/dc/elements/1.1/"
   xmlns:cc="http://creativecommons.org/ns#"
   xmlns:rdf="http://www.w3.org/1999/02/22-rdf-syntax-ns#"
   xmlns:svg="http://www.w3.org/2000/svg"
   xmlns="http://www.w3.org/2000/svg"
   xmlns:xlink="http://www.w3.org/1999/xlink"
   xmlns:sodipodi="http://sodipodi.sourceforge.net/DTD/sodipodi-0.dtd"
   xmlns:inkscape="http://www.inkscape.org/namespaces/inkscape"
   version="1"
   width="32"
   height="32"
   id="svg12"
   sodipodi:docname="snow-mime-1.svg"
   inkscape:version="0.92.1 r"&gt;
  <path fill="#00000f" fill-opacity="0" d="m0 0h32v32h-32z"/><path d="m24.79 31.998c11.532.081 6.305-9.102 3.9-9.628-2.873-.227-4.257 2.594-5.581 3.885-5.02 4.1-11.551-5.844-14.288-3.282-1.657 1.846-2.104 1.097-3.03.582-1.739-.613-4.293.32-4.378 3.164-3.427 3.861-.04 5.647 5.164 5.268 5.732-.135 12.589.045 18.209.011" fill="url(#0)"/></svg>