<svg xmlns="http://www.w3.org/2000/svg" viewBox="0 0 32 32"><defs><linearGradient gradientTransform="matrix(-2.54797 0 0-2.61863 187.08 313.32)" id="0" x1="67.821" y1="109.43" x2="67.781" y2="104.33" gradientUnits="userSpaceOnUse"><stop stop-color="#f9f9f9"/><stop offset="1" stop-color="#999"/></linearGradient></defs><g fill-rule="evenodd"><path d="m21.19 2h-13.651c-3.066 0-5.536 2.468-5.536 5.534v16.93c0 3.066 2.47 5.536 5.536 5.536h16.93c3.066 0 5.534-2.47 5.534-5.536v-13.651z" fill="#ccc"/><g fill="#999"><path d="m30 10.813l-8.813-8.813v3.279c0 3.066 2.468 5.534 5.534 5.534z"/><path d="m13.228885 11.397729a.59878 .59965 0 0 0 -.05657 .000965 .59878 .59965 0 0 0 -.1584 .033c0 0-.375.124-.809.353-.434.229-.962.549-1.301 1.099-.378.612-.234 1.268-.117 1.659.118.392.182.563.074.826-.053.128-.378.408-.734.583-.356.174-.678.266-.678.266a.59878 .59965 0 0 0 -.42807 .73733 .59878 .59965 0 0 0 .42807 .71942c0 0 .323.091.678.266.355.174.681.455.734.584.109.262.044.434-.074.826-.118.392-.261 1.047.117 1.66.34.55.867.871 1.301 1.099.434.229.809.353.809.353a.59878 .59965 0 1 0 .37715 -1.1371c0 0-.285-.096-.628-.277-.343-.181-.71-.459-.84-.669-.147-.238-.099-.32.01-.684.109-.364.306-.968.033-1.629-.242-.585-.725-.895-1.158-1.118.433-.223.916-.533 1.158-1.118.273-.661.076-1.265-.033-1.629-.109-.364-.157-.446-.01-.684.13-.21.497-.49.84-.67.343-.181.628-.276.628-.276a.59878 .59965 0 0 0 -.16123 -1.1711m5.53845.000045a.59878 .59965 0 0 0 -.15935 1.1711c0 0 .285.096.628.276.343.181.71.46.84.67.147.238.099.32-.01.684-.109.364-.306.968-.033 1.629.242.585.725.895 1.158 1.118-.433.223-.916.533-1.158 1.118-.273.661-.076 1.265.033 1.629.109.364.157.446.01.684-.13.21-.497.489-.84.669-.343.181-.628.277-.628.277a.59878 .59965 0 1 0 .37715 1.1371c0 0 .375-.124.809-.353.434-.229.962-.549 1.301-1.099.378-.612.234-1.267.117-1.66-.118-.392-.182-.564-.074-.826.053-.128.378-.409.734-.584.355-.174.678-.266.678-.266a.59878 .59965 0 0 0 .42807 -.71942 .59878 .59965 0 0 0 -.42807 -.73733c0 0-.322-.091-.678-.266-.355-.174-.681-.455-.734-.583-.109-.262-.044-.434.074-.826.118-.392.261-1.047-.117-1.659-.339-.55-.867-.871-1.301-1.099-.434-.229-.81-.353-.81-.353a.59878 .59965 0 0 0 -.15746 -.033 .59878 .59965 0 0 0 -.05752 -.000943 .59878 .59965 0 0 0 -.0019 0m-2.76798 2.413933a1.2069 1.2069 0 0 0 -1.207 1.207 1.2069 1.2069 0 0 0 1.207 1.207 1.2069 1.2069 0 0 0 1.207 -1.207 1.2069 1.2069 0 0 0 -1.207 -1.207m0 3.621c-.667 0-1.207.54-1.207 1.207 0 .667.54 1.207 1.207 1.207.427 0 .603 1.207.603 1.207 0 0 .603-2.174.603-2.414 0-.667-.54-1.207-1.207-1.207"/></g></g>

   xmlns:dc="http://purl.org/dc/elements/1.1/"
   xmlns:cc="http://creativecommons.org/ns#"
   xmlns:rdf="http://www.w3.org/1999/02/22-rdf-syntax-ns#"
   xmlns:svg="http://www.w3.org/2000/svg"
   xmlns="http://www.w3.org/2000/svg"
   xmlns:xlink="http://www.w3.org/1999/xlink"
   xmlns:sodipodi="http://sodipodi.sourceforge.net/DTD/sodipodi-0.dtd"
   xmlns:inkscape="http://www.inkscape.org/namespaces/inkscape"
   version="1"
   width="32"
   height="32"
   id="svg12"
   sodipodi:docname="snow-mime-1.svg"
   inkscape:version="0.92.1 r"&gt;
  <path fill="#00000f" fill-opacity="0" d="m0 0h32v32h-32z"/><path d="m24.79 31.998c11.532.081 6.305-9.102 3.9-9.628-2.873-.227-4.257 2.594-5.581 3.885-5.02 4.1-11.551-5.844-14.288-3.282-1.657 1.846-2.104 1.097-3.03.582-1.739-.613-4.293.32-4.378 3.164-3.427 3.861-.04 5.647 5.164 5.268 5.732-.135 12.589.045 18.209.011" fill="url(#0)"/></svg>