<svg xmlns="http://www.w3.org/2000/svg" viewBox="0 0 32 32"><defs><linearGradient gradientTransform="matrix(-2.54797 0 0-2.61863 187.08 313.32)" id="0" x1="67.821" y1="109.43" x2="67.781" y2="104.33" gradientUnits="userSpaceOnUse"><stop stop-color="#f9f9f9"/><stop offset="1" stop-color="#999"/></linearGradient></defs><g fill-rule="evenodd"><path d="m21.19 2h-13.651c-3.066 0-5.536 2.468-5.536 5.534v16.93c0 3.066 2.47 5.536 5.536 5.536h16.93c3.066 0 5.534-2.47 5.534-5.536v-13.651z" fill="#e47234"/><path d="m30 10.813l-8.813-8.813v3.279c0 3.066 2.468 5.534 5.534 5.534z" fill="#bc5e2b"/></g><path d="M16.03575 9.499172A7.507264 7.584746 0 0 0 9.111924 14.167141H8.528c-.64 0-1.154.522-1.154 1.168v3.5c0 .646.514 1.166 1.154 1.166h.578a7.507264 7.584746 0 0 0 6.929687 4.667969 7.507264 7.584746 0 0 0 5.414063 -2.333985h1.168c.512 0 .924-.416.924-.934v-2.799c0-.14-.035-.271-.09-.391a7.507264 7.584746 0 0 0 .08984 -1.126953 7.507264 7.584746 0 0 0 -1.33789 -4.318359c.111-.124.184-.284.184-.465v-2.102c0-.388-.309-.701-.693-.701H19.616c-.349 0-.625.263-.674.602a7.507264 7.584746 0 0 0 -2.90625 -.601563m.576172 1.167969a5.774819 5.83442 0 0 1 2.310547 .490235v1.145c0 .388.309.699.693.699h1.609a5.774819 5.83442 0 0 1 1.16211 3.5 5.774819 5.83442 0 0 1 -.117188 1.167969h-2.422c-.512 0-.926.416-.926.934v2.799c0 .144.037.275.094.396a5.774819 5.83442 0 0 1 -2.404297 .537109 5.774819 5.83442 0 0 1 -4.613281 -2.335937c.637-.003 1.148-.52 1.148-1.164v-3.5c0-.646-.514-1.168-1.154-1.168h-.67a5.774819 5.83442 0 0 1 5.289063 -3.5" opacity=".5" fill="#fff" stroke-width="1.161"/>

   xmlns:dc="http://purl.org/dc/elements/1.1/"
   xmlns:cc="http://creativecommons.org/ns#"
   xmlns:rdf="http://www.w3.org/1999/02/22-rdf-syntax-ns#"
   xmlns:svg="http://www.w3.org/2000/svg"
   xmlns="http://www.w3.org/2000/svg"
   xmlns:xlink="http://www.w3.org/1999/xlink"
   xmlns:sodipodi="http://sodipodi.sourceforge.net/DTD/sodipodi-0.dtd"
   xmlns:inkscape="http://www.inkscape.org/namespaces/inkscape"
   version="1"
   width="32"
   height="32"
   id="svg12"
   sodipodi:docname="snow-mime-1.svg"
   inkscape:version="0.92.1 r"&gt;
  <path fill="#00000f" fill-opacity="0" d="m0 0h32v32h-32z"/><path d="m24.79 31.998c11.532.081 6.305-9.102 3.9-9.628-2.873-.227-4.257 2.594-5.581 3.885-5.02 4.1-11.551-5.844-14.288-3.282-1.657 1.846-2.104 1.097-3.03.582-1.739-.613-4.293.32-4.378 3.164-3.427 3.861-.04 5.647 5.164 5.268 5.732-.135 12.589.045 18.209.011" fill="url(#0)"/></svg>