<svg xmlns="http://www.w3.org/2000/svg" viewBox="0 0 32 32"><defs><linearGradient gradientTransform="matrix(-2.54797 0 0-2.61863 187.08 313.32)" id="0" x1="67.821" y1="109.43" x2="67.781" y2="104.33" gradientUnits="userSpaceOnUse"><stop stop-color="#f9f9f9"/><stop offset="1" stop-color="#999"/></linearGradient></defs><g fill-rule="evenodd"><path d="m21.19 2h-13.651c-3.066 0-5.536 2.468-5.536 5.534v16.93c0 3.066 2.47 5.536 5.536 5.536h16.93c3.066 0 5.534-2.47 5.534-5.536v-13.651z" fill="#e74c3c"/><path d="m30 10.813l-8.813-8.813v3.279c0 3.066 2.468 5.534 5.534 5.534z" fill="#a93b27"/><g transform="matrix(.27772 0 0 .29444 37.988.621)" fill="#f7dae6" enable-background="new"><path d="m-86.68 70.02c0 0-2.23 1.298 1.589 1.736 4.628.528 6.993.452 12.09-.511 0 0 1.343.84 3.216 1.568-11.433 4.898-25.875-.284-16.896-2.793"/><path d="m-88.08 63.63c0 0-2.502 1.852 1.32 2.247 4.944.51 8.847.552 15.604-.748 0 0 .932.947 2.401 1.465-13.821 4.04-29.21.318-19.326-2.964"/><path d="m-76.3 52.781c2.819 3.244-.739 6.162-.739 6.162 0 0 7.153-3.692 3.868-8.317-3.068-4.311-5.421-6.453 7.315-13.839 0 0-19.992 4.992-10.444 15.994"/><path d="m-61.18 74.75c0 0 1.651 1.361-1.819 2.414-6.598 1.998-27.465 2.601-33.26.08-2.082-.907 1.824-2.164 3.053-2.429 1.281-.277 2.01-.227 2.01-.227-2.317-1.632-14.977 3.205-6.43 4.592 23.308 3.778 42.488-1.702 36.442-4.429"/><path d="m-85.61 57c0 0-10.613 2.522-3.758 3.438 2.895.387 8.663.298 14.04-.153 4.393-.369 8.802-1.157 8.802-1.157 0 0-1.548.664-2.668 1.429-10.78 2.835-31.6 1.515-25.605-1.384 5.067-2.452 9.19-2.173 9.19-2.173"/><path d="m-66.57 67.64c10.957-5.692 5.89-11.163 2.354-10.426-.865.18-1.253.337-1.253.337 0 0 .322-.505.936-.722 6.996-2.458 12.375 7.253-2.256 11.1 0 0 .168-.152.219-.288"/><path d="m-73.17 24.859c0 0 6.067 6.07-5.756 15.402-9.481 7.489-2.162 11.757-.003 16.636-5.535-4.993-9.594-9.389-6.871-13.48 3.999-6 15.08-8.916 12.631-18.558"/><path d="m-84.53 83.07c10.515.672 26.667-.374 27.05-5.35 0 0-.735 1.886-8.691 3.383-8.976 1.69-20.05 1.493-26.614.409 0 0 1.345 1.113 8.256 1.558"/></g></g>

   xmlns:dc="http://purl.org/dc/elements/1.1/"
   xmlns:cc="http://creativecommons.org/ns#"
   xmlns:rdf="http://www.w3.org/1999/02/22-rdf-syntax-ns#"
   xmlns:svg="http://www.w3.org/2000/svg"
   xmlns="http://www.w3.org/2000/svg"
   xmlns:xlink="http://www.w3.org/1999/xlink"
   xmlns:sodipodi="http://sodipodi.sourceforge.net/DTD/sodipodi-0.dtd"
   xmlns:inkscape="http://www.inkscape.org/namespaces/inkscape"
   version="1"
   width="32"
   height="32"
   id="svg12"
   sodipodi:docname="snow-mime-1.svg"
   inkscape:version="0.92.1 r"&gt;
  <path fill="#00000f" fill-opacity="0" d="m0 0h32v32h-32z"/><path d="m24.79 31.998c11.532.081 6.305-9.102 3.9-9.628-2.873-.227-4.257 2.594-5.581 3.885-5.02 4.1-11.551-5.844-14.288-3.282-1.657 1.846-2.104 1.097-3.03.582-1.739-.613-4.293.32-4.378 3.164-3.427 3.861-.04 5.647 5.164 5.268 5.732-.135 12.589.045 18.209.011" fill="url(#0)"/></svg>