<?xml version="1.0" encoding="UTF-8" standalone="no"?>
<svg
   xmlns:dc="http://purl.org/dc/elements/1.1/"
   xmlns:cc="http://creativecommons.org/ns#"
   xmlns:rdf="http://www.w3.org/1999/02/22-rdf-syntax-ns#"
   xmlns:svg="http://www.w3.org/2000/svg"
   xmlns="http://www.w3.org/2000/svg"
   xmlns:sodipodi="http://sodipodi.sourceforge.net/DTD/sodipodi-0.dtd"
   xmlns:inkscape="http://www.inkscape.org/namespaces/inkscape"
   width="22"
   height="22"
   viewBox="0 0 16 16"
   version="1.1"
   id="svg7"
   sodipodi:docname="audio-input-microphone.svg"
   inkscape:version="0.92.1 r">
  <metadata
     id="metadata11">
    <rdf:RDF>
      <cc:Work
         rdf:about="">
        <dc:format>image/svg+xml</dc:format>
        <dc:type
           rdf:resource="http://purl.org/dc/dcmitype/StillImage" />
      </cc:Work>
    </rdf:RDF>
  </metadata>
  <sodipodi:namedview
     pagecolor="#ffffff"
     bordercolor="#666666"
     borderopacity="1"
     objecttolerance="10"
     gridtolerance="10"
     guidetolerance="10"
     inkscape:pageopacity="0"
     inkscape:pageshadow="2"
     inkscape:window-width="769"
     inkscape:window-height="480"
     id="namedview9"
     showgrid="false"
     inkscape:zoom="10.727273"
     inkscape:cx="11"
     inkscape:cy="11"
     inkscape:window-x="0"
     inkscape:window-y="0"
     inkscape:window-maximized="0"
     inkscape:current-layer="svg7" />
  <defs
     id="defs3">
    <style
       id="current-color-scheme"
       type="text/css">
   .ColorScheme-Text { color:#d3dae3; } .ColorScheme-Highlight { color:#5294e2; }
  </style>
  </defs>
  <path
     style="color:#d3dae3;fill:currentColor;stroke-width:0.72718394"
     class="ColorScheme-Text"
     d="m 7.9999998,2.1818182 c -1.2086525,0 -2.1815519,0.9728994 -2.1815519,2.1815519 v 3.6373397 c 0,1.208653 0.9728994,2.1815522 2.1815519,2.1815522 1.2086525,0 2.1815522,-0.9728992 2.1815522,-2.1815522 V 4.3633701 c 0,-1.2086525 -0.9728997,-2.1815519 -2.1815522,-2.1815519 z M 3.636896,7.2749464 v 0.7257634 c 7.3e-6,2.1564642 1.5765348,3.9482482 3.6359198,4.2963512 v 1.521121 h 1.454368 V 12.297061 C 10.786569,11.948951 12.363104,10.157174 12.363104,8.0007098 V 7.2749464 h -1.454368 v 0.7257634 c 0,1.624093 -1.2846435,2.9087362 -2.9087362,2.9087362 -1.6240927,0 -2.9087359,-1.2846432 -2.9087359,-2.9087362 V 7.2749464 Z"
     id="path5"
     inkscape:connector-curvature="0" />
</svg>
