<?xml version="1.0" encoding="UTF-8" standalone="no"?>
<svg
   xmlns:dc="http://purl.org/dc/elements/1.1/"
   xmlns:cc="http://creativecommons.org/ns#"
   xmlns:rdf="http://www.w3.org/1999/02/22-rdf-syntax-ns#"
   xmlns:svg="http://www.w3.org/2000/svg"
   xmlns="http://www.w3.org/2000/svg"
   xmlns:sodipodi="http://sodipodi.sourceforge.net/DTD/sodipodi-0.dtd"
   xmlns:inkscape="http://www.inkscape.org/namespaces/inkscape"
   width="22"
   height="22"
   viewBox="0 0 16 16"
   version="1.1"
   id="svg7"
   sodipodi:docname="audio-card.svg"
   inkscape:version="0.92.1 r">
  <metadata
     id="metadata11">
    <rdf:RDF>
      <cc:Work
         rdf:about="">
        <dc:format>image/svg+xml</dc:format>
        <dc:type
           rdf:resource="http://purl.org/dc/dcmitype/StillImage" />
        <dc:title></dc:title>
      </cc:Work>
    </rdf:RDF>
  </metadata>
  <sodipodi:namedview
     pagecolor="#ffffff"
     bordercolor="#666666"
     borderopacity="1"
     objecttolerance="10"
     gridtolerance="10"
     guidetolerance="10"
     inkscape:pageopacity="0"
     inkscape:pageshadow="2"
     inkscape:window-width="769"
     inkscape:window-height="480"
     id="namedview9"
     showgrid="false"
     inkscape:zoom="10.727273"
     inkscape:cx="11"
     inkscape:cy="11"
     inkscape:window-x="0"
     inkscape:window-y="0"
     inkscape:window-maximized="0"
     inkscape:current-layer="svg7" />
  <defs
     id="defs3">
    <style
       id="current-color-scheme"
       type="text/css">
   .ColorScheme-Text { color:#d3dae3; } .ColorScheme-Highlight { color:#5294e2; }
  </style>
  </defs>
  <path
     style="color:#d3dae3;fill:currentColor;stroke-width:0.83116883"
     class="ColorScheme-Text"
     d="m 3.8441557,2.5974026 c -1.6623377,0 -1.6623377,1.6623377 -1.6623377,1.6623377 v 7.4805187 c 0,1.662338 1.6623377,1.662338 1.6623377,1.662338 h 8.3116883 c 1.662338,0 1.662338,-1.662338 1.662338,-1.662338 V 4.2597403 c 0,0 0,-1.6623377 -1.662338,-1.6623377 z m 2.4935065,2.4935065 h 4.1558438 v 4.5714283 c 0,0.6885646 -0.5581877,1.2467536 -1.2467529,1.2467536 -0.6885652,0 -1.2467533,-0.558189 -1.2467533,-1.2467536 0,-0.6885649 0.5581881,-1.246753 1.2467533,-1.246753 0.1434514,0 0.2873184,0.033371 0.4155844,0.077922 V 6.7532468 H 7.168831 v 2.9090906 c 0,0.6885646 -0.5581881,1.2467536 -1.2467533,1.2467536 -0.6885652,0 -1.2467532,-0.558189 -1.2467532,-1.2467536 0,-0.6885649 0.558188,-1.246753 1.2467532,-1.246753 0.1434515,0 0.2873185,0.033371 0.4155845,0.077922 V 6.7532468 Z"
     id="path5"
     inkscape:connector-curvature="0" />
</svg>
