<?xml version="1.0" encoding="UTF-8" standalone="no"?>
<svg
   xmlns:dc="http://purl.org/dc/elements/1.1/"
   xmlns:cc="http://creativecommons.org/ns#"
   xmlns:rdf="http://www.w3.org/1999/02/22-rdf-syntax-ns#"
   xmlns:svg="http://www.w3.org/2000/svg"
   xmlns="http://www.w3.org/2000/svg"
   xmlns:sodipodi="http://sodipodi.sourceforge.net/DTD/sodipodi-0.dtd"
   xmlns:inkscape="http://www.inkscape.org/namespaces/inkscape"
   width="22"
   height="22"
   viewBox="0 0 16 16"
   version="1.1"
   id="svg7"
   sodipodi:docname="camera-web.svg"
   inkscape:version="0.92.1 r">
  <metadata
     id="metadata11">
    <rdf:RDF>
      <cc:Work
         rdf:about="">
        <dc:format>image/svg+xml</dc:format>
        <dc:type
           rdf:resource="http://purl.org/dc/dcmitype/StillImage" />
      </cc:Work>
    </rdf:RDF>
  </metadata>
  <sodipodi:namedview
     pagecolor="#ffffff"
     bordercolor="#666666"
     borderopacity="1"
     objecttolerance="10"
     gridtolerance="10"
     guidetolerance="10"
     inkscape:pageopacity="0"
     inkscape:pageshadow="2"
     inkscape:window-width="769"
     inkscape:window-height="480"
     id="namedview9"
     showgrid="false"
     inkscape:zoom="10.727273"
     inkscape:cx="11"
     inkscape:cy="11"
     inkscape:window-x="0"
     inkscape:window-y="0"
     inkscape:window-maximized="0"
     inkscape:current-layer="svg7" />
  <defs
     id="defs3">
    <style
       id="current-color-scheme"
       type="text/css">
   .ColorScheme-Text { color:#d3dae3; } .ColorScheme-Highlight { color:#5294e2; }
  </style>
  </defs>
  <path
     style="color:#d3dae3;fill:currentColor;stroke-width:0.83116883"
     class="ColorScheme-Text"
     d="m 8,2.1818182 c -2.7542442,0 -4.987013,2.2327688 -4.987013,4.987013 0,1.7346496 0.8900156,3.2624208 2.2337662,4.1558448 H 4.6753247 c -1.6623377,0 -1.6623377,1.662337 -1.6623377,1.662337 v 0.831169 h 9.974026 v -0.831169 c 0,0 0,-1.662337 -1.662338,-1.662337 h -0.571428 c 1.34375,-0.893424 2.233766,-2.4211952 2.233766,-4.1558448 0,-2.7542442 -2.232769,-4.987013 -4.987013,-4.987013 z m 0,3.327922 A 1.6623377,1.6623377 0 0 1 9.6623376,7.1720779 1.6623377,1.6623377 0 0 1 8,8.8344158 1.6623377,1.6623377 0 0 1 6.3376623,7.1720779 1.6623377,1.6623377 0 0 1 8,5.5097402 Z"
     id="path5"
     inkscape:connector-curvature="0" />
</svg>
