<?xml version="1.0" encoding="UTF-8" standalone="no"?>
<svg
   xmlns:dc="http://purl.org/dc/elements/1.1/"
   xmlns:cc="http://creativecommons.org/ns#"
   xmlns:rdf="http://www.w3.org/1999/02/22-rdf-syntax-ns#"
   xmlns:svg="http://www.w3.org/2000/svg"
   xmlns="http://www.w3.org/2000/svg"
   xmlns:sodipodi="http://sodipodi.sourceforge.net/DTD/sodipodi-0.dtd"
   xmlns:inkscape="http://www.inkscape.org/namespaces/inkscape"
   width="22"
   height="22"
   viewBox="0 0 16 16"
   version="1.1"
   id="svg7"
   sodipodi:docname="camera-photo.svg"
   inkscape:version="0.92.1 r">
  <metadata
     id="metadata11">
    <rdf:RDF>
      <cc:Work
         rdf:about="">
        <dc:format>image/svg+xml</dc:format>
        <dc:type
           rdf:resource="http://purl.org/dc/dcmitype/StillImage" />
      </cc:Work>
    </rdf:RDF>
  </metadata>
  <sodipodi:namedview
     pagecolor="#ffffff"
     bordercolor="#666666"
     borderopacity="1"
     objecttolerance="10"
     gridtolerance="10"
     guidetolerance="10"
     inkscape:pageopacity="0"
     inkscape:pageshadow="2"
     inkscape:window-width="769"
     inkscape:window-height="480"
     id="namedview9"
     showgrid="false"
     inkscape:zoom="10.727273"
     inkscape:cx="11"
     inkscape:cy="11"
     inkscape:window-x="0"
     inkscape:window-y="0"
     inkscape:window-maximized="0"
     inkscape:current-layer="svg7" />
  <defs
     id="defs3">
    <style
       id="current-color-scheme"
       type="text/css">
   .ColorScheme-Text { color:#d3dae3; } .ColorScheme-Highlight { color:#5294e2; }
  </style>
  </defs>
  <path
     style="color:#d3dae3;fill:currentColor;stroke-width:0.83116877"
     class="ColorScheme-Text"
     d="M 3.8441556,2.5974028 V 3.4285716 H 3.0129868 c 0,0 -0.8311688,0 -0.8311688,0.8311688 v 8.3116876 c 0,0 0,0.831169 0.8311688,0.831169 h 9.9740262 c 0,0 0.831169,0 0.831169,-0.831169 V 4.2597404 c 0,-0.8311688 -0.831169,-0.8311688 -0.831169,-0.8311688 H 6.337662 V 2.5974028 Z m 4.155844,2.4935064 A 3.3246752,3.3246752 0 0 1 11.324675,8.4155844 3.3246752,3.3246752 0 0 1 7.9999996,11.740259 3.3246752,3.3246752 0 0 1 4.6753244,8.4155844 3.3246752,3.3246752 0 0 1 7.9999996,5.0909092 Z m 0,1.6623376 A 1.6623376,1.6623376 0 0 0 6.337662,8.4155844 1.6623376,1.6623376 0 0 0 7.9999996,10.077921 1.6623376,1.6623376 0 0 0 9.6623372,8.4155844 1.6623376,1.6623376 0 0 0 7.9999996,6.7532468 Z"
     id="path5"
     inkscape:connector-curvature="0" />
</svg>
