<?xml version="1.0" encoding="UTF-8" standalone="no"?>
<svg
   xmlns:dc="http://purl.org/dc/elements/1.1/"
   xmlns:cc="http://creativecommons.org/ns#"
   xmlns:rdf="http://www.w3.org/1999/02/22-rdf-syntax-ns#"
   xmlns:svg="http://www.w3.org/2000/svg"
   xmlns="http://www.w3.org/2000/svg"
   xmlns:sodipodi="http://sodipodi.sourceforge.net/DTD/sodipodi-0.dtd"
   xmlns:inkscape="http://www.inkscape.org/namespaces/inkscape"
   width="22"
   height="22"
   viewBox="0 0 16 16"
   version="1.1"
   id="svg7"
   sodipodi:docname="drive-harddisk.svg"
   inkscape:version="0.92.1 r">
  <metadata
     id="metadata11">
    <rdf:RDF>
      <cc:Work
         rdf:about="">
        <dc:format>image/svg+xml</dc:format>
        <dc:type
           rdf:resource="http://purl.org/dc/dcmitype/StillImage" />
      </cc:Work>
    </rdf:RDF>
  </metadata>
  <sodipodi:namedview
     pagecolor="#ffffff"
     bordercolor="#666666"
     borderopacity="1"
     objecttolerance="10"
     gridtolerance="10"
     guidetolerance="10"
     inkscape:pageopacity="0"
     inkscape:pageshadow="2"
     inkscape:window-width="769"
     inkscape:window-height="480"
     id="namedview9"
     showgrid="false"
     inkscape:zoom="10.727273"
     inkscape:cx="11"
     inkscape:cy="11"
     inkscape:window-x="0"
     inkscape:window-y="0"
     inkscape:window-maximized="0"
     inkscape:current-layer="svg7" />
  <defs
     id="defs3">
    <style
       id="current-color-scheme"
       type="text/css">
   .ColorScheme-Text { color:#d3dae3; } .ColorScheme-Highlight { color:#5294e2; }
  </style>
  </defs>
  <path
     style="opacity:1;fill:#d3dae3;fill-opacity:1;stroke:none;stroke-width:1.66233778;stroke-linecap:round;stroke-linejoin:bevel;stroke-miterlimit:4;stroke-dasharray:none;stroke-opacity:1"
     d="m 3.8863635,2.1818183 c -0.9443483,0 -1.7045453,0.7601967 -1.7045453,1.7045454 v 8.2272733 c 0,0.944348 0.760197,1.704545 1.7045453,1.704545 h 8.2272735 c 0.944348,0 1.704545,-0.760197 1.704545,-1.704545 V 3.8863637 c 0,-0.9443487 -0.760197,-1.7045455 -1.704545,-1.7045455 z M 8,4.6753248 c 1.8361353,0 3.324676,1.48854 3.324676,3.324675 0,1.836136 -1.4885407,3.3246762 -3.324676,3.3246762 H 4.6753247 V 7.9999998 c 0,-1.836135 1.4885395,-3.324675 3.3246753,-3.324675 z m 0,1.662338 c -0.9181099,0 -1.6623375,0.744253 -1.6623375,1.662337 0,0.918085 0.7442538,1.662338 1.6623375,1.662338 0.9180837,0 1.6623375,-0.744253 1.6623375,-1.662338 0,-0.918084 -0.7442538,-1.662337 -1.6623375,-1.662337 z"
     id="rect818"
     inkscape:connector-curvature="0" />
</svg>
