<?xml version="1.0" encoding="UTF-8" standalone="no"?>
<svg
   xmlns:dc="http://purl.org/dc/elements/1.1/"
   xmlns:cc="http://creativecommons.org/ns#"
   xmlns:rdf="http://www.w3.org/1999/02/22-rdf-syntax-ns#"
   xmlns:svg="http://www.w3.org/2000/svg"
   xmlns="http://www.w3.org/2000/svg"
   xmlns:sodipodi="http://sodipodi.sourceforge.net/DTD/sodipodi-0.dtd"
   xmlns:inkscape="http://www.inkscape.org/namespaces/inkscape"
   width="22"
   height="22"
   viewBox="0 0 16 16"
   version="1.1"
   id="svg7"
   sodipodi:docname="drive-removable-media-usb.svg"
   inkscape:version="0.92.1 r">
  <metadata
     id="metadata11">
    <rdf:RDF>
      <cc:Work
         rdf:about="">
        <dc:format>image/svg+xml</dc:format>
        <dc:type
           rdf:resource="http://purl.org/dc/dcmitype/StillImage" />
      </cc:Work>
    </rdf:RDF>
  </metadata>
  <sodipodi:namedview
     pagecolor="#ffffff"
     bordercolor="#666666"
     borderopacity="1"
     objecttolerance="10"
     gridtolerance="10"
     guidetolerance="10"
     inkscape:pageopacity="0"
     inkscape:pageshadow="2"
     inkscape:window-width="769"
     inkscape:window-height="480"
     id="namedview9"
     showgrid="false"
     inkscape:zoom="10.727273"
     inkscape:cx="11"
     inkscape:cy="11"
     inkscape:window-x="0"
     inkscape:window-y="0"
     inkscape:window-maximized="0"
     inkscape:current-layer="svg7" />
  <defs
     id="defs3">
    <style
       id="current-color-scheme"
       type="text/css">
   .ColorScheme-Text { color:#d3dae3; } .ColorScheme-Highlight { color:#5294e2; }
  </style>
  </defs>
  <path
     style="color:#d3dae3;fill:currentColor;stroke-width:0.72727275"
     class="ColorScheme-Text"
     d="M 7.9964745,2.1818182 6.1782927,5.0909091 H 7.2692018 V 8.7272728 H 5.0873836 V 7.8025568 C 5.5366272,7.5431895 5.8137399,7.0642182 5.8146563,6.5454545 c 0,-0.8033454 -0.6512218,-1.4545454 -1.4545454,-1.4545454 -0.8033237,0 -1.4545455,0.6512218 -1.4545455,1.4545454 4.073e-4,0.5192509 0.2775927,0.9988864 0.7272727,1.2585228 v 0.9232955 c 0,1.4545452 1.4545455,1.4545452 1.4545455,1.4545452 h 2.1818182 v 0.924716 c -0.4492437,0.259367 -0.7263564,0.738339 -0.7272728,1.257103 0,0.803345 0.6512219,1.454545 1.4545455,1.454545 0.8033236,0 1.4545454,-0.651222 1.4545454,-1.454545 C 9.4506127,11.844386 9.1734272,11.36475 8.7237472,11.105114 v -0.923296 h 2.1818178 c 0,0 1.454545,0 1.454545,-1.4545452 v -0.727273 c 0,0 0.818182,-0.136363 0.727273,-0.7272725 V 5.8181818 C 13.178292,5 12.36011,5.0909091 12.36011,5.0909091 h -1.454545 c -0.772727,0 -0.727272,0.7272727 -0.727272,0.7272727 v 1.4545455 c 0,0.7272725 0.727272,0.7272725 0.727272,0.7272725 v 0.727273 H 8.7237472 V 5.0909091 h 1.0909091 z"
     id="path5"
     inkscape:connector-curvature="0" />
</svg>
