<?xml version="1.0" encoding="UTF-8" standalone="no"?>
<svg
   xmlns:dc="http://purl.org/dc/elements/1.1/"
   xmlns:cc="http://creativecommons.org/ns#"
   xmlns:rdf="http://www.w3.org/1999/02/22-rdf-syntax-ns#"
   xmlns:svg="http://www.w3.org/2000/svg"
   xmlns="http://www.w3.org/2000/svg"
   xmlns:sodipodi="http://sodipodi.sourceforge.net/DTD/sodipodi-0.dtd"
   xmlns:inkscape="http://www.inkscape.org/namespaces/inkscape"
   width="22"
   height="22"
   version="1.1"
   id="svg4"
   sodipodi:docname="drive-harddisk-symbolic.svg"
   inkscape:version="0.92.1 r">
  <metadata
     id="metadata10">
    <rdf:RDF>
      <cc:Work
         rdf:about="">
        <dc:format>image/svg+xml</dc:format>
        <dc:type
           rdf:resource="http://purl.org/dc/dcmitype/StillImage" />
      </cc:Work>
    </rdf:RDF>
  </metadata>
  <defs
     id="defs8" />
  <sodipodi:namedview
     pagecolor="#ffffff"
     bordercolor="#666666"
     borderopacity="1"
     objecttolerance="10"
     gridtolerance="10"
     guidetolerance="10"
     inkscape:pageopacity="0"
     inkscape:pageshadow="2"
     inkscape:window-width="769"
     inkscape:window-height="480"
     id="namedview6"
     showgrid="false"
     inkscape:zoom="10.727273"
     inkscape:cx="-7.6906777"
     inkscape:cy="11"
     inkscape:window-x="0"
     inkscape:window-y="0"
     inkscape:window-maximized="0"
     inkscape:current-layer="svg4" />
  <path
     style="opacity:1;fill:#d3dae3;fill-opacity:1;stroke:none;stroke-width:2.28571439;stroke-linecap:round;stroke-linejoin:bevel;stroke-miterlimit:4;stroke-dasharray:none;stroke-opacity:1"
     d="M 5.3437498,3 C 4.045271,3 3,4.0452705 3,5.3437499 V 16.65625 C 3,17.954729 4.0452709,19 5.3437498,19 H 16.65625 C 17.954729,19 19,17.954729 19,16.65625 V 5.3437499 c 0,-1.2984795 -1.045271,-2.34375 -2.34375,-2.34375 z M 11,6.4285716 c 2.524686,0 4.571429,2.0467428 4.571429,4.5714284 0,2.524686 -2.046743,4.571429 -4.571429,4.571429 H 6.4285715 V 11 C 6.4285715,8.4753144 8.4753133,6.4285716 11,6.4285716 Z m 0,2.2857143 c -1.2624011,0 -2.2857141,1.0233485 -2.2857141,2.2857141 0,1.262366 1.023349,2.285714 2.2857141,2.285714 1.262365,0 2.285714,-1.023348 2.285714,-2.285714 0,-1.2623656 -1.023349,-2.2857141 -2.285714,-2.2857141 z"
     id="rect818"
     inkscape:connector-curvature="0" />
</svg>
