<?xml version="1.0" encoding="UTF-8" standalone="no"?>
<svg
   xmlns:dc="http://purl.org/dc/elements/1.1/"
   xmlns:cc="http://creativecommons.org/ns#"
   xmlns:rdf="http://www.w3.org/1999/02/22-rdf-syntax-ns#"
   xmlns:svg="http://www.w3.org/2000/svg"
   xmlns="http://www.w3.org/2000/svg"
   xmlns:sodipodi="http://sodipodi.sourceforge.net/DTD/sodipodi-0.dtd"
   xmlns:inkscape="http://www.inkscape.org/namespaces/inkscape"
   width="22"
   height="22"
   viewBox="0 0 16 16"
   version="1.1"
   id="svg7"
   sodipodi:docname="input-keyboard.svg"
   inkscape:version="0.92.1 r">
  <metadata
     id="metadata11">
    <rdf:RDF>
      <cc:Work
         rdf:about="">
        <dc:format>image/svg+xml</dc:format>
        <dc:type
           rdf:resource="http://purl.org/dc/dcmitype/StillImage" />
      </cc:Work>
    </rdf:RDF>
  </metadata>
  <sodipodi:namedview
     pagecolor="#ffffff"
     bordercolor="#666666"
     borderopacity="1"
     objecttolerance="10"
     gridtolerance="10"
     guidetolerance="10"
     inkscape:pageopacity="0"
     inkscape:pageshadow="2"
     inkscape:window-width="769"
     inkscape:window-height="480"
     id="namedview9"
     showgrid="false"
     inkscape:zoom="10.727273"
     inkscape:cx="11"
     inkscape:cy="11"
     inkscape:window-x="0"
     inkscape:window-y="0"
     inkscape:window-maximized="0"
     inkscape:current-layer="svg7" />
  <defs
     id="defs3">
    <style
       id="current-color-scheme"
       type="text/css">
   .ColorScheme-Text { color:#d3dae3; } .ColorScheme-Highlight { color:#5294e2; }
  </style>
  </defs>
  <path
     style="color:#d3dae3;fill:currentColor;stroke-width:0.77575755"
     class="ColorScheme-Text"
     d="m 3.7333332,3.3454546 c 0,0 -1.5515152,0 -1.5515152,1.5515151 V 11.10303 c 0,1.551515 1.5515152,1.551515 1.5515152,1.551515 h 8.5333328 c 0,0 1.551516,0 1.551516,-1.551515 V 4.8969697 c 0,-1.5515151 -1.551516,-1.5515151 -1.551516,-1.5515151 z m 0.1939393,1.5515151 h 1.1636364 c 0.1074424,0 0.1939394,0.086497 0.1939394,0.1939394 v 1.1636363 c 0,0.1074424 -0.086497,0.1939394 -0.1939394,0.1939394 H 3.9272725 c -0.1074424,1e-7 -0.1939393,-0.086497 -0.1939393,-0.1939394 V 5.0909091 c 0,-0.1074424 0.086497,-0.1939394 0.1939393,-0.1939394 z m 2.3272728,0 h 1.1636363 c 0.1074425,0 0.1939394,0.086497 0.1939394,0.1939394 v 1.1636363 c 0,0.1074424 -0.086497,0.1939394 -0.1939394,0.1939394 H 6.2545453 c -0.1074425,1e-7 -0.1939394,-0.086497 -0.1939394,-0.1939394 V 5.0909091 c 0,-0.1074424 0.086497,-0.1939394 0.1939394,-0.1939394 z m 2.3272727,0 h 1.1636364 c 0.1074424,0 0.1939394,0.086497 0.1939394,0.1939394 v 1.1636363 c 0,0.1074424 -0.086497,0.1939394 -0.1939394,0.1939394 H 8.581818 c -0.1074424,1e-7 -0.1939394,-0.086497 -0.1939394,-0.1939394 V 5.0909091 c 0,-0.1074424 0.086497,-0.1939394 0.1939394,-0.1939394 z m 2.327273,0 h 1.163636 c 0.107443,0 0.193939,0.086497 0.193939,0.1939394 v 1.1636363 c 0,0.1074424 -0.0865,0.1939394 -0.193939,0.1939394 h -1.163636 c -0.107443,1e-7 -0.19394,-0.086497 -0.19394,-0.1939394 V 5.0909091 c 0,-0.1074424 0.0865,-0.1939394 0.19394,-0.1939394 z M 3.9272725,7.2242424 h 1.1636364 c 0.1074424,0 0.1939394,0.086497 0.1939394,0.1939394 v 1.1636364 c 0,0.1074423 -0.086497,0.1939393 -0.1939394,0.1939393 H 3.9272725 c -0.1074424,0 -0.1939393,-0.0865 -0.1939393,-0.1939393 V 7.4181818 c 0,-0.1074424 0.086497,-0.1939394 0.1939393,-0.1939394 z m 2.3272728,0 h 1.1636363 c 0.1074425,0 0.1939394,0.086497 0.1939394,0.1939394 v 1.1636364 c 0,0.1074423 -0.086497,0.1939393 -0.1939394,0.1939393 H 6.2545453 c -0.1074425,0 -0.1939394,-0.0865 -0.1939394,-0.1939393 V 7.4181818 c 0,-0.1074424 0.086497,-0.1939394 0.1939394,-0.1939394 z m 2.3272727,0 h 1.1636364 c 0.1074424,0 0.1939394,0.086497 0.1939394,0.1939394 v 1.1636364 c 0,0.1074423 -0.086497,0.1939393 -0.1939394,0.1939393 H 8.581818 c -0.1074424,0 -0.1939394,-0.0865 -0.1939394,-0.1939393 V 7.4181818 c 0,-0.1074424 0.086497,-0.1939394 0.1939394,-0.1939394 z m 2.327273,0 h 1.163636 c 0.107443,0 0.193939,0.086497 0.193939,0.1939394 v 1.1636364 c 0,0.1074423 -0.0865,0.1939393 -0.193939,0.1939393 h -1.163636 c -0.107443,0 -0.19394,-0.0865 -0.19394,-0.1939393 V 7.4181818 c 0,-0.1074424 0.0865,-0.1939394 0.19394,-0.1939394 z M 5.4787877,9.5515155 h 5.0424243 c 0.107442,0 0.193939,0.0865 0.193939,0.193939 V 10.90909 c 0,0.107443 -0.0865,0.19394 -0.193939,0.19394 H 5.4787877 c -0.1074424,0 -0.1939394,-0.0865 -0.1939394,-0.19394 V 9.7454545 c 0,-0.107442 0.086497,-0.193939 0.1939394,-0.193939 z"
     id="path5"
     inkscape:connector-curvature="0" />
</svg>
