<svg xmlns="http://www.w3.org/2000/svg" viewBox="0 0 32 32"><defs><radialGradient id="0" cx="8.848" cy="12.522" r="6.171" gradientTransform="matrix(1.48261-1.12238 1.22255 1.61493-17.06 2.508)" gradientUnits="userSpaceOnUse"><stop stop-color="#999"/><stop offset="1" stop-color="#fff"/></radialGradient></defs><path d="m27.904 6.727c1.169-.001 2.11.941 2.11 2.11v17.611c0 1.169-.941 2.11-2.11 2.11h-23.807c-1.169 0-2.11-.941-2.11-2.11v-16.245-5.067c0-.938.755-1.693 1.693-1.693h9.09c.938 0 1.705.371 2.3 1.096l1.802 2.195z" fill="#856b35"/><path d="m15.319 13.144c-2.667 0-2.046 2.236-3.412 2.97-.047.027-.073.051-.116.078.9-.536 2.01-.984 3.189-1.288.998-.257 2.01-.401 2.944-.419.024 0 .048 0 .072 0-.9-.256-.999-1.341-2.678-1.341m2.906 2.02c-.934.018-1.946.162-2.944.419-3.29.847-5.635 2.688-5.237 4.112.229.814 1.333 1.551 2.978 1.649-.001-.006-.002-.011-.003-.018-.089-.77.4-1.44.973-1.894.573-.454 1.31-.784 2.137-.959.828-.176 1.602-.167 2.25.028.609.183 1.182.583 1.323 1.27 1.649-.924 2.504-2.239 2.256-3.14-.262-.944-1.694-1.506-3.733-1.466m-.978 3.948c-.331-.004-.682.032-1.033.107-1.447.307-2.549 1.18-2.46 1.95.089.769 1.335 1.144 2.782.836 1.447-.307 2.547-1.18 2.458-1.95-.065-.56-.753-.931-1.748-.943" fill-opacity=".651"/>

   xmlns:dc="http://purl.org/dc/elements/1.1/"
   xmlns:cc="http://creativecommons.org/ns#"
   xmlns:rdf="http://www.w3.org/1999/02/22-rdf-syntax-ns#"
   xmlns:svg="http://www.w3.org/2000/svg"
   xmlns="http://www.w3.org/2000/svg"
   xmlns:xlink="http://www.w3.org/1999/xlink"
   xmlns:sodipodi="http://sodipodi.sourceforge.net/DTD/sodipodi-0.dtd"
   xmlns:inkscape="http://www.inkscape.org/namespaces/inkscape"
   version="1"
   width="32"
   height="32"
   id="svg12"
   sodipodi:docname="snow-places.svg"
   inkscape:version="0.92.1 r"&gt;
  <path d="m5.587 6.624c-1.88 1.927-.867 5.611-2.306 5.951-1.275.44-1.817-.775-2.391-2.951-1.142-5.885 3.111-7.48 4.884-7.763 3.276-.389 5.472.482 6.79.995 3.09 1.204 3.119 2.329.603 2.367-1.678.025-4.36-.143-5.683.132-.918.191-1.685 1.042-1.897 1.268" fill="url(#0)"/><path fill="#00000f" fill-opacity="0" d="m0 0h32v32h-32z"/></svg>