<svg xmlns="http://www.w3.org/2000/svg" viewBox="0 0 32 32"><defs><radialGradient id="0" cx="8.848" cy="12.522" r="6.171" gradientTransform="matrix(1.48261-1.12238 1.22255 1.61493-17.06 2.508)" gradientUnits="userSpaceOnUse"><stop stop-color="#999"/><stop offset="1" stop-color="#fff"/></radialGradient></defs><path d="m27.904 6.727c1.169-.001 2.11.941 2.11 2.11v17.611c0 1.169-.941 2.11-2.11 2.11h-23.807c-1.169 0-2.11-.941-2.11-2.11v-16.245-5.067c0-.938.755-1.693 1.693-1.693h9.09c.938 0 1.705.371 2.3 1.096l1.802 2.195" fill="#289ea1"/><path d="m12.169 21.587c-.034-.022-.096-.04-.138-.04-.164-.001-.673-.29-.916-.519-.137-.129-.248-.255-.248-.28 0-.025-.027-.068-.061-.096-.128-.106-.307-.554-.366-.916-.111-.681-.079-1.023.153-1.626.145-.377.129-.354.5-.735.208-.214.361-.33.559-.422l.273-.128v-.177c0-.573.518-1.378 1.037-1.612.431-.194.537-.216.951-.193.22.012.435.04.477.062.043.022.16.082.26.134.101.052.207.118.237.148.082.081.105.068.254-.14.277-.387.706-.759.971-.843.046-.015.084-.04.084-.056 0-.029.253-.116.595-.206.239-.063.861-.054 1.164.016.263.061.831.325.927.43.011.012.089.074.174.138.189.142.593.651.664.837.013.034.049.11.081.169.032.059.058.145.058.19 0 .045.019.088.041.096.023.008.068.232.101.498.033.266.065.488.071.493.006.005.148.073.316.152.207.097.383.221.549.385.289.286.307.308.428.542.164.316.175.34.217.506.056.221.052 1.339-.005 1.566-.085.34-.328.763-.59 1.027-.143.144-.57.438-.637.438-.038 0-.086.017-.107.038-.021.021-.151.066-.289.102-.219.056-.715.064-3.987.064-2.343 0-3.76-.015-3.798-.04" fill-opacity=".651"/>

   xmlns:dc="http://purl.org/dc/elements/1.1/"
   xmlns:cc="http://creativecommons.org/ns#"
   xmlns:rdf="http://www.w3.org/1999/02/22-rdf-syntax-ns#"
   xmlns:svg="http://www.w3.org/2000/svg"
   xmlns="http://www.w3.org/2000/svg"
   xmlns:xlink="http://www.w3.org/1999/xlink"
   xmlns:sodipodi="http://sodipodi.sourceforge.net/DTD/sodipodi-0.dtd"
   xmlns:inkscape="http://www.inkscape.org/namespaces/inkscape"
   version="1"
   width="32"
   height="32"
   id="svg12"
   sodipodi:docname="snow-places.svg"
   inkscape:version="0.92.1 r"&gt;
  <path d="m5.587 6.624c-1.88 1.927-.867 5.611-2.306 5.951-1.275.44-1.817-.775-2.391-2.951-1.142-5.885 3.111-7.48 4.884-7.763 3.276-.389 5.472.482 6.79.995 3.09 1.204 3.119 2.329.603 2.367-1.678.025-4.36-.143-5.683.132-.918.191-1.685 1.042-1.897 1.268" fill="url(#0)"/><path fill="#00000f" fill-opacity="0" d="m0 0h32v32h-32z"/></svg>