<?xml version="1.0" encoding="UTF-8" standalone="no"?>
<svg
   xmlns:dc="http://purl.org/dc/elements/1.1/"
   xmlns:cc="http://creativecommons.org/ns#"
   xmlns:rdf="http://www.w3.org/1999/02/22-rdf-syntax-ns#"
   xmlns:svg="http://www.w3.org/2000/svg"
   xmlns="http://www.w3.org/2000/svg"
   xmlns:sodipodi="http://sodipodi.sourceforge.net/DTD/sodipodi-0.dtd"
   xmlns:inkscape="http://www.inkscape.org/namespaces/inkscape"
   height="32"
   width="32"
   version="1"
   id="svg16"
   sodipodi:docname="folder-dropbox-cyan.svg"
   inkscape:version="0.92.1 r">
  <metadata
     id="metadata22">
    <rdf:RDF>
      <cc:Work
         rdf:about="">
        <dc:format>image/svg+xml</dc:format>
        <dc:type
           rdf:resource="http://purl.org/dc/dcmitype/StillImage" />
        <dc:title></dc:title>
      </cc:Work>
    </rdf:RDF>
  </metadata>
  <defs
     id="defs20" />
  <sodipodi:namedview
     pagecolor="#ffffff"
     bordercolor="#666666"
     borderopacity="1"
     objecttolerance="10"
     gridtolerance="10"
     guidetolerance="10"
     inkscape:pageopacity="0"
     inkscape:pageshadow="2"
     inkscape:window-width="1680"
     inkscape:window-height="971"
     id="namedview18"
     showgrid="false"
     inkscape:zoom="7.375"
     inkscape:cx="-10.711864"
     inkscape:cy="16"
     inkscape:window-x="0"
     inkscape:window-y="0"
     inkscape:window-maximized="1"
     inkscape:current-layer="svg16" />
  <path
     style="fill:#289ea1;fill-opacity:1;stroke:none;stroke-width:0.14515875;stroke-miterlimit:4;stroke-dasharray:none;stroke-opacity:1"
     d="m 27.90368,6.7271308 c 1.168734,-7.389e-4 2.109629,0.9408943 2.109629,2.1096294 V 26.447279 c 0,1.168735 -0.940895,2.109629 -2.109629,2.109629 H 4.096321 c -1.168735,0 -2.109682,-0.940894 -2.10963,-2.109629 l 7.32e-4,-16.244506 7.31e-4,-5.0669083 c 0,-0.9377959 0.754977,-1.6927729 1.692773,-1.6927729 h 9.09082 c 0.937797,0 1.704839,0.371321 2.299888,1.096152 L 16.8735,6.7341037 Z"
     id="rect4549"
     inkscape:connector-curvature="0"
     sodipodi:nodetypes="sssssscsssscs" />
  <path
     style="color:#000000;opacity:0.65;enable-background:new"
     d="m 13.33315,12.429212 -3.3333005,2 2.6667015,1.9896 -2.6732015,2.0052 3.3398015,2.0052 2.6667,-2 -3.3333,-2 3.3333,-2 3.3333,2.0104 -3.333,1.99 2.6667,2 3.3398,-2.0156 -2.6732,-1.9844 2.666699,-2 -3.3333,-2 -2.666999,1.99 -2.667001,-1.99 z m 2.667,6.667 -2.6667,2 -0.66667,-0.3998 v 0.3998 l 3.333,2 3.3333,-2 v -0.4024 l -0.666,0.402 -2.667,-2 z"
     id="path14"
     inkscape:connector-curvature="0" />
</svg>
