<svg xmlns="http://www.w3.org/2000/svg" viewBox="0 0 32 32"><defs><radialGradient id="0" cx="8.848" cy="12.522" r="6.171" gradientTransform="matrix(1.48261-1.12238 1.22255 1.61493-17.06 2.508)" gradientUnits="userSpaceOnUse"><stop stop-color="#999"/><stop offset="1" stop-color="#fff"/></radialGradient></defs><path d="m27.904 6.727c1.169-.001 2.11.941 2.11 2.11v17.611c0 1.169-.941 2.11-2.11 2.11h-23.807c-1.169 0-2.11-.941-2.11-2.11v-16.245-5.067c0-.938.755-1.693 1.693-1.693h9.09c.938 0 1.705.371 2.3 1.096l1.802 2.195" fill="#5ca543"/><path d="m16 13.305c-2.761 0-5 2.239-5 5 0 2.761 2.239 5 5 5 2.761 0 5-2.239 5-5 0-2.761-2.239-5-5-5m-.357 1.384c.048-.005.108.003.156 0 .006.023-.035.104-.089.223-.347.758-.367 1.646-.045 2.121.058.086.112.168.112.179 0 .011-.063.022-.134.022-.167 0-.325-.102-.647-.357-.143-.113-.33-.209-.402-.223-.113-.023-.144-.013-.29.134-.136.136-.179.21-.179.335 0 .474.562.85 1.607 1.071 1.419.301 1.769.571 1.808 1.317.049.936-.449 1.641-1.54 2.188-.13.065-.213.091-.268.112-.024-.002-.043.002-.067 0-.009-.029-.022-.096-.022-.223 0-.497-.196-1.01-.491-1.295-.079-.077-.301-.24-.491-.357-.19-.118-.381-.254-.424-.313-.071-.097-.077-.156-.022-.335.099-.326.217-.508.446-.714.12-.108.241-.199.268-.201.027-.002-.154-.056-.424-.112-.27-.055-.666-.172-.87-.246-.374-.135-.879-.419-1.071-.625-.008-.009-.015-.015-.022-.022.276-1.099 1.05-1.999 2.076-2.433.215-.091.436-.153.67-.201.116-.024.237-.032.357-.045m3.348 1.674c.084.052.401.737.491 1.071.117.432.108 1.178 0 1.607-.041.163-.094.316-.112.335-.018.019-.081-.09-.156-.223-.075-.133-.314-.415-.513-.625-.574-.606-.665-.923-.424-1.406.121-.244.649-.799.714-.759" fill-opacity=".651"/>

   xmlns:dc="http://purl.org/dc/elements/1.1/"
   xmlns:cc="http://creativecommons.org/ns#"
   xmlns:rdf="http://www.w3.org/1999/02/22-rdf-syntax-ns#"
   xmlns:svg="http://www.w3.org/2000/svg"
   xmlns="http://www.w3.org/2000/svg"
   xmlns:xlink="http://www.w3.org/1999/xlink"
   xmlns:sodipodi="http://sodipodi.sourceforge.net/DTD/sodipodi-0.dtd"
   xmlns:inkscape="http://www.inkscape.org/namespaces/inkscape"
   version="1"
   width="32"
   height="32"
   id="svg12"
   sodipodi:docname="snow-places.svg"
   inkscape:version="0.92.1 r"&gt;
  <path d="m5.587 6.624c-1.88 1.927-.867 5.611-2.306 5.951-1.275.44-1.817-.775-2.391-2.951-1.142-5.885 3.111-7.48 4.884-7.763 3.276-.389 5.472.482 6.79.995 3.09 1.204 3.119 2.329.603 2.367-1.678.025-4.36-.143-5.683.132-.918.191-1.685 1.042-1.897 1.268" fill="url(#0)"/><path fill="#00000f" fill-opacity="0" d="m0 0h32v32h-32z"/></svg>