<svg xmlns="http://www.w3.org/2000/svg" viewBox="0 0 32 32"><defs><radialGradient id="0" cx="8.848" cy="12.522" r="6.171" gradientTransform="matrix(1.48261-1.12238 1.22255 1.61493-17.06 2.508)" gradientUnits="userSpaceOnUse"><stop stop-color="#999"/><stop offset="1" stop-color="#fff"/></radialGradient></defs><path d="m27.904 6.727c1.169-.001 2.11.941 2.11 2.11v17.611c0 1.169-.941 2.11-2.11 2.11h-23.807c-1.169 0-2.11-.941-2.11-2.11v-16.245-5.067c0-.938.755-1.693 1.693-1.693h9.09c.938 0 1.705.371 2.3 1.096l1.802 2.195" fill="#5294e2"/><path d="m16.543 20.09c-.8.373-1.544.369-2.044.333-.596-.043-1.076-.207-1.286-.349-.13-.088-.307-.054-.395.076-.088.13-.054.306.076.394.339.229.938.4 1.564.445.106.008.223.013.348.013.545 0 1.237-.052 1.977-.397.142-.066.204-.235.138-.377-.066-.142-.235-.204-.378-.138m3.158-.421c.027-2.467.281-7.13-4.443-6.754-4.665.376-3.428 5.303-3.497 6.953-.062.873-.352 1.94-.761 3.03h1.261c.129-.46.225-.915.266-1.349.076.053.157.104.244.153.141.083.262.194.391.311.3.274.64.584 1.306.623.044.002.089.004.133.004.673 0 1.133-.295 1.503-.531.177-.114.33-.212.474-.259.409-.128.767-.335 1.034-.598.042-.041.081-.083.117-.126.149.545.353 1.159.579 1.772h2.692c-.646-.998-1.313-1.976-1.299-3.224zm-7.489-1.342c0 0 0 0 0 0-.046-.806.339-1.483.861-1.513.521-.031.982.598 1.028 1.403.002.044.004.087.004.129-.166.042-.315.102-.448.172-.001-.006-.001-.012-.002-.017v-.001c-.044-.457-.288-.802-.545-.771-.257.031-.429.427-.384.884 0 .001 0 .001 0 .001.019.199.077.377.157.512-.02.016-.076.057-.141.104-.049.035-.108.079-.179.131-.194-.255-.327-.621-.351-1.034m5.285 1.99c-.019.426-.576.827-1.09.987l-.003.001c-.214.069-.404.192-.606.321-.34.217-.69.441-1.197.441-.033 0-.067-.001-.101-.003-.464-.027-.681-.225-.955-.475-.145-.132-.295-.269-.489-.382l-.004-.002c-.417-.236-.676-.529-.692-.784-.008-.126.048-.236.168-.326.26-.195.434-.322.549-.407.128-.093.167-.121.196-.149.02-.019.042-.041.066-.064.239-.232.638-.62 1.252-.62.375 0 .79.144 1.232.428.208.136.389.198.619.278.157.054.336.116.576.218l.004.002c.223.092.487.259.475.536m-.123-.999c-.043-.022-.088-.042-.135-.062-.216-.092-.389-.155-.532-.205.079-.155.128-.349.133-.559.011-.512-.247-.927-.576-.928-.33 0-.605.414-.616.925-.001.017-.001.034-.001.05-.202-.093-.402-.161-.597-.202-.001-.02-.002-.039-.002-.058v-.001c-.019-.931.553-1.703 1.277-1.722.724-.02 1.326.719 1.345 1.651v.001c.009.421-.104.809-.297 1.11z" fill-opacity=".651"/>

   xmlns:dc="http://purl.org/dc/elements/1.1/"
   xmlns:cc="http://creativecommons.org/ns#"
   xmlns:rdf="http://www.w3.org/1999/02/22-rdf-syntax-ns#"
   xmlns:svg="http://www.w3.org/2000/svg"
   xmlns="http://www.w3.org/2000/svg"
   xmlns:xlink="http://www.w3.org/1999/xlink"
   xmlns:sodipodi="http://sodipodi.sourceforge.net/DTD/sodipodi-0.dtd"
   xmlns:inkscape="http://www.inkscape.org/namespaces/inkscape"
   version="1"
   width="32"
   height="32"
   id="svg12"
   sodipodi:docname="snow-places.svg"
   inkscape:version="0.92.1 r"&gt;
  <path d="m5.587 6.624c-1.88 1.927-.867 5.611-2.306 5.951-1.275.44-1.817-.775-2.391-2.951-1.142-5.885 3.111-7.48 4.884-7.763 3.276-.389 5.472.482 6.79.995 3.09 1.204 3.119 2.329.603 2.367-1.678.025-4.36-.143-5.683.132-.918.191-1.685 1.042-1.897 1.268" fill="url(#0)"/><path fill="#00000f" fill-opacity="0" d="m0 0h32v32h-32z"/></svg>