<svg xmlns="http://www.w3.org/2000/svg" viewBox="0 0 32 32"><defs><radialGradient id="0" cx="8.848" cy="12.522" r="6.171" gradientTransform="matrix(1.48261-1.12238 1.22255 1.61493-17.06 2.508)" gradientUnits="userSpaceOnUse"><stop stop-color="#999"/><stop offset="1" stop-color="#fff"/></radialGradient></defs><path d="m27.904 6.727c1.169-.001 2.11.941 2.11 2.11v17.611c0 1.169-.941 2.11-2.11 2.11h-23.807c-1.169 0-2.11-.941-2.11-2.11v-16.245-5.067c0-.938.755-1.693 1.693-1.693h9.09c.938 0 1.705.371 2.3 1.096l1.802 2.195" fill="#f5ce46"/><path d="m16.543 19.688c-.8.372-1.544.368-2.044.332-.596-.043-1.076-.206-1.287-.349-.13-.088-.306-.054-.394.076-.088.13-.054.306.076.394.339.229.938.4 1.564.445.106.008.223.012.348.012.545 0 1.237-.052 1.977-.396.142-.066.204-.235.138-.377-.066-.142-.235-.204-.377-.138m3.157-.421c.027-2.468.281-7.131-4.443-6.754-4.664.375-3.427 5.303-3.497 6.953-.062.873-.351 1.94-.761 3.03h1.261c.13-.46.225-.915.266-1.349.076.053.157.104.244.153.141.083.263.194.391.311.3.274.641.584 1.306.623.045.003.09.004.134.004.673 0 1.133-.294 1.503-.531.177-.113.33-.211.474-.258.409-.128.767-.335 1.034-.598.042-.041.08-.083.117-.126.149.546.353 1.16.579 1.773h2.692c-.646-.998-1.313-1.976-1.299-3.224m-7.489-1.343c0 0 0 0 0 0-.046-.805.339-1.483.861-1.513.522-.03.982.598 1.028 1.403.002.044.004.087.004.129-.165.042-.314.102-.448.172-.001-.006-.001-.012-.001-.018-.045-.457-.289-.803-.545-.771-.257.031-.429.427-.384.884.019.2.077.378.157.512-.02.016-.076.057-.141.104-.049.035-.108.079-.179.131-.194-.255-.327-.621-.351-1.034m5.285 1.99c-.019.426-.575.826-1.09.987h-.003c-.214.069-.405.191-.606.321-.339.217-.69.441-1.197.441-.033 0-.067-.001-.101-.003-.464-.027-.681-.225-.956-.475-.145-.132-.295-.269-.488-.382l-.004-.002c-.417-.235-.676-.528-.693-.783-.008-.127.048-.236.168-.326.26-.195.434-.322.55-.407.128-.094.167-.122.195-.149.02-.019.043-.041.066-.064.239-.232.638-.621 1.252-.621.375 0 .79.145 1.232.429.208.136.389.198.619.277.158.054.337.116.576.219l.004.002c.223.092.487.259.475.536m-.123-1c-.043-.022-.088-.042-.134-.061-.216-.092-.389-.155-.533-.205.079-.155.129-.349.133-.559.011-.512-.247-.927-.576-.928-.329-.001-.605.413-.616.925 0 .017 0 .034 0 .05-.203-.093-.402-.161-.597-.203-.001-.019-.002-.038-.002-.058-.019-.932.553-1.703 1.277-1.723.724-.02 1.326.72 1.345 1.651.009.422-.104.81-.297 1.111" fill-opacity=".651"/>

   xmlns:dc="http://purl.org/dc/elements/1.1/"
   xmlns:cc="http://creativecommons.org/ns#"
   xmlns:rdf="http://www.w3.org/1999/02/22-rdf-syntax-ns#"
   xmlns:svg="http://www.w3.org/2000/svg"
   xmlns="http://www.w3.org/2000/svg"
   xmlns:xlink="http://www.w3.org/1999/xlink"
   xmlns:sodipodi="http://sodipodi.sourceforge.net/DTD/sodipodi-0.dtd"
   xmlns:inkscape="http://www.inkscape.org/namespaces/inkscape"
   version="1"
   width="32"
   height="32"
   id="svg12"
   sodipodi:docname="snow-places.svg"
   inkscape:version="0.92.1 r"&gt;
  <path d="m5.587 6.624c-1.88 1.927-.867 5.611-2.306 5.951-1.275.44-1.817-.775-2.391-2.951-1.142-5.885 3.111-7.48 4.884-7.763 3.276-.389 5.472.482 6.79.995 3.09 1.204 3.119 2.329.603 2.367-1.678.025-4.36-.143-5.683.132-.918.191-1.685 1.042-1.897 1.268" fill="url(#0)"/><path fill="#00000f" fill-opacity="0" d="m0 0h32v32h-32z"/></svg>