<?xml version="1.0" encoding="UTF-8" standalone="no"?>
<svg
   xmlns:dc="http://purl.org/dc/elements/1.1/"
   xmlns:cc="http://creativecommons.org/ns#"
   xmlns:rdf="http://www.w3.org/1999/02/22-rdf-syntax-ns#"
   xmlns:svg="http://www.w3.org/2000/svg"
   xmlns="http://www.w3.org/2000/svg"
   xmlns:sodipodi="http://sodipodi.sourceforge.net/DTD/sodipodi-0.dtd"
   xmlns:inkscape="http://www.inkscape.org/namespaces/inkscape"
   width="32"
   height="32"
   version="1"
   id="svg12"
   sodipodi:docname="network-workgroup.svg"
   inkscape:version="0.92.1 r">
  <metadata
     id="metadata18">
    <rdf:RDF>
      <cc:Work
         rdf:about="">
        <dc:format>image/svg+xml</dc:format>
        <dc:type
           rdf:resource="http://purl.org/dc/dcmitype/StillImage" />
      </cc:Work>
    </rdf:RDF>
  </metadata>
  <defs
     id="defs16" />
  <sodipodi:namedview
     pagecolor="#ffffff"
     bordercolor="#666666"
     borderopacity="1"
     objecttolerance="10"
     gridtolerance="10"
     guidetolerance="10"
     inkscape:pageopacity="0"
     inkscape:pageshadow="2"
     inkscape:window-width="1680"
     inkscape:window-height="965"
     id="namedview14"
     showgrid="false"
     inkscape:zoom="7.375"
     inkscape:cx="-28.543186"
     inkscape:cy="16.676763"
     inkscape:window-x="0"
     inkscape:window-y="0"
     inkscape:window-maximized="1"
     inkscape:current-layer="svg12" />
  <rect
     style="opacity:1;fill:#5294e2;fill-opacity:1;fill-rule:evenodd;stroke:none;stroke-width:1.03534329;stroke-linecap:round;stroke-linejoin:bevel;stroke-miterlimit:4;stroke-dasharray:none;stroke-dashoffset:0;stroke-opacity:1"
     id="rect4497"
     width="28.203388"
     height="28.203388"
     x="1.8983059"
     y="1.8983059"
     ry="5.575182" />
  <path
     style="fill:#ffffff;stroke-width:1"
     d="m 16,7.3559321 c -4.773995,0 -8.644068,3.8700729 -8.644068,8.6440679 0,4.773995 3.870073,8.644068 8.644068,8.644068 4.773995,0 8.644068,-3.870073 8.644068,-8.644068 0,-4.773995 -3.870073,-8.6440678 -8.644068,-8.6440679 z m -0.808693,1.7237487 c 0.09405,-0.00985 0.212372,0.00562 0.30727,0 0.01125,0.044984 -0.06663,0.2063807 -0.173895,0.4406444 -0.683068,1.4922158 -0.723422,3.2393888 -0.08948,4.1734638 0.114721,0.169354 0.219479,0.330221 0.219479,0.351166 0,0.02095 -0.123487,0.04389 -0.263374,0.04389 -0.328388,1e-6 -0.639717,-0.19954 -1.274662,-0.70233 -0.282067,-0.223354 -0.648056,-0.410561 -0.790123,-0.438956 -0.223086,-0.04457 -0.282042,-0.02526 -0.570643,0.263374 -0.268515,0.268471 -0.351165,0.414345 -0.351165,0.660122 0,0.932024 1.107155,1.671024 3.163864,2.106992 2.793092,0.591979 3.480192,1.122824 3.557237,2.591532 0.09673,1.84172 -0.882845,3.230064 -3.03049,4.305151 -0.256336,0.128358 -0.419197,0.179692 -0.526747,0.221167 -0.04766,-0.0042 -0.08586,0.0042 -0.133376,0 -0.01827,-0.05694 -0.04389,-0.188652 -0.04389,-0.438957 0,-0.978193 -0.38472,-1.986265 -0.965704,-2.549324 -0.155954,-0.151162 -0.591765,-0.470851 -0.965705,-0.702331 -0.373926,-0.231467 -0.751634,-0.499818 -0.835706,-0.614539 -0.139292,-0.190372 -0.149254,-0.30675 -0.04221,-0.658435 0.195079,-0.642309 0.426509,-1.002197 0.877913,-1.408037 0.236654,-0.212766 0.474322,-0.389138 0.526748,-0.393374 0.05244,-0.0042 -0.301747,-0.11228 -0.834018,-0.221166 -0.532244,-0.109097 -1.312759,-0.337159 -1.715307,-0.482852 -0.736098,-0.266346 -1.729791,-0.826094 -2.108679,-1.230766 -0.01602,-0.01716 -0.02998,-0.02871 -0.04389,-0.04389 0.542857,-2.162405 2.066106,-3.933922 4.085672,-4.7880026 0.422569,-0.1787317 0.858719,-0.3010063 1.318558,-0.3950616 0.229048,-0.046816 0.465831,-0.065436 0.70233,-0.08948 z m 6.591101,3.2955512 c 0.165124,0.102068 0.789419,1.452409 0.967394,2.110368 0.229775,0.849427 0.213144,2.318358 0,3.162175 -0.08113,0.321162 -0.186583,0.621041 -0.221168,0.658435 -0.03458,0.0374 -0.16142,-0.175815 -0.308958,-0.437268 -0.147547,-0.261413 -0.616243,-0.817504 -1.007911,-1.230767 -1.130536,-1.192944 -1.309267,-1.815043 -0.835706,-2.767115 0.23882,-0.480098 1.278554,-1.574696 1.406349,-1.495828 z"
     id="path10-3"
     inkscape:connector-curvature="0" />
</svg>
