<?xml version="1.0" encoding="UTF-8" standalone="no"?>
<svg
   xmlns:dc="http://purl.org/dc/elements/1.1/"
   xmlns:cc="http://creativecommons.org/ns#"
   xmlns:rdf="http://www.w3.org/1999/02/22-rdf-syntax-ns#"
   xmlns:svg="http://www.w3.org/2000/svg"
   xmlns="http://www.w3.org/2000/svg"
   xmlns:sodipodi="http://sodipodi.sourceforge.net/DTD/sodipodi-0.dtd"
   xmlns:inkscape="http://www.inkscape.org/namespaces/inkscape"
   height="32"
   width="32"
   version="1.1"
   id="svg31"
   sodipodi:docname="start-here-xfce.svg"
   inkscape:version="0.92.1 r">
  <metadata
     id="metadata35">
    <rdf:RDF>
      <cc:Work
         rdf:about="">
        <dc:format>image/svg+xml</dc:format>
        <dc:type
           rdf:resource="http://purl.org/dc/dcmitype/StillImage" />
        <dc:title></dc:title>
      </cc:Work>
    </rdf:RDF>
  </metadata>
  <sodipodi:namedview
     pagecolor="#ffffff"
     bordercolor="#666666"
     borderopacity="1"
     objecttolerance="10"
     gridtolerance="10"
     guidetolerance="10"
     inkscape:pageopacity="0"
     inkscape:pageshadow="2"
     inkscape:window-width="640"
     inkscape:window-height="480"
     id="namedview33"
     showgrid="false"
     inkscape:zoom="5.625"
     inkscape:cx="-43.911111"
     inkscape:cy="24"
     inkscape:current-layer="svg31" />
  <defs
     id="defs7">
    <clipPath
       id="clipPath-033233189">
      <g
         transform="translate(0,-1004.4)"
         id="g4">
        <path
           d="m -24,13 c 0,1.105 -0.672,2 -1.5,2 -0.828,0 -1.5,-0.895 -1.5,-2 0,-1.105 0.672,-2 1.5,-2 0.828,0 1.5,0.895 1.5,2 z"
           transform="matrix(15.333,0,0,11.5,415,878.86)"
           id="path2"
           inkscape:connector-curvature="0"
           style="fill:#1890d0" />
      </g>
    </clipPath>
  </defs>
  <g
     id="g4494"
     transform="matrix(0.65116279,0,0,0.65116279,0.37209304,0.37209304)"
     style="stroke-width:1.53571427">
    <rect
       ry="8.5001431"
       y="2.5"
       x="2.5"
       height="43"
       width="43"
       id="rect4497-3"
       style="opacity:1;fill:#285da4;fill-opacity:1;fill-rule:evenodd;stroke:none;stroke-width:1.58999383;stroke-linecap:round;stroke-linejoin:bevel;stroke-miterlimit:4;stroke-dasharray:none;stroke-dashoffset:0;stroke-opacity:1" />
    <g
       id="g29"
       transform="translate(0.97362086,-0.24830807)"
       style="stroke-width:1.53571427">
      <g
         id="g27"
         clip-path="url(#clipPath-033233189)"
         style="stroke-width:1.53571427">
        <g
           id="g25"
           style="stroke-width:1.53571427">
          <path
             style="fill:#f9f9f9;stroke-width:1.53571427"
             inkscape:connector-curvature="0"
             id="path23"
             d="m 6.281,14.5 c -0.074,0.145 -0.148,0.289 -0.219,0.434 1.125,0.625 4.367,2.254 5.906,3.219 1.945,1.191 4.574,3.621 4.781,4.03 -2.023,3.523 -1.105,6.641 -1.344,6.973 -0.172,0.277 -1.762,2.023 -1.25,2.281 0.508,0.254 1.316,-0.145 1.438,-0.223 0.254,-0.156 0.516,-0.383 0.406,0.066 -0.215,0.918 -1.191,3.125 0.156,2.656 0.164,-0.094 2.332,-2.484 2.594,-2.566 4.313,1.125 9.137,0.609 10.03,0.191 0.465,0.031 1.781,0.859 2.531,1.254 0.75,0.391 2.793,1.371 2.188,-0.41 -0.188,-0.563 -1.531,-2 -1.313,-2.094 0.48,-0.191 1.668,0.496 2.125,0.625 1.367,0.383 1.551,-0.148 0.688,-1.316 -0.852,-1.168 -0.98,-0.988 -1.25,-1.527 -0.211,-0.434 0,-0.914 0.156,-1.031 0.277,-0.211 4.359,-2.477 5.316,-3.344 1.418,-1.289 0,-2.898 -0.348,-3.125 -2.941,-2.117 -5.961,-1.664 -6,-2 -0.02,-0.383 -0.012,-1.488 -0.063,-1.871 -0.293,-2.594 -1.492,-1.941 -1.656,-1.941 -1.199,0.188 -0.758,2.023 -0.25,3.75 0.039,0.441 -0.418,0.246 -0.688,-0.219 -0.922,-2.473 -1.309,-2.43 -1.563,-2.504 -0.246,-0.055 -1.113,0.473 -1.098,1.473 0.004,0.285 0.344,1.645 0.344,2.063 -0.566,0.496 -0.594,1.621 -1.188,2.031 -1.73,0.359 -5.887,-0.855 -6.406,-0.91 -1.797,-0.336 -2.582,1.012 -2.871,0.688 -2.332,-2.672 -5.895,-4.656 -7.438,-5 C 9.397,16.024 7.378,15.133 6.651,14.684 6.534,14.614 6.401,14.563 6.272,14.496 m 32.07,2.344 c -0.563,0.605 -0.465,2.867 -0.348,2.848 0.574,-0.117 0.52,-3.03 0.348,-2.848 m 1.629,0.344 c -0.066,-0.184 -1.547,1.895 -1.285,2.66 0.117,0.332 1.484,-2.078 1.285,-2.66 m -7.691,3.535 c 0.02,-0.02 0.043,0.008 0.066,0.031 0.172,0.57 0.363,1.113 1.496,1.25 0.133,0.016 -0.629,0.461 -1.152,0.188 -0.477,-0.289 -0.52,-1.34 -0.41,-1.469 m 2.938,2.871 c 0.105,-0.016 0.18,-0.012 0.254,0 0.277,0.07 -2.01,1.262 -2.188,1.098 -0.109,-0.105 1.219,-0.965 1.938,-1.098 m 0.594,0.754 c 0.238,0.02 -1.324,1.637 -1.5,1.469 -0.129,-0.117 1.012,-1.508 1.5,-1.469" />
        </g>
      </g>
    </g>
  </g>
</svg>
