<?xml version="1.0" encoding="UTF-8" standalone="no"?>
<svg
   xmlns:dc="http://purl.org/dc/elements/1.1/"
   xmlns:cc="http://creativecommons.org/ns#"
   xmlns:rdf="http://www.w3.org/1999/02/22-rdf-syntax-ns#"
   xmlns:svg="http://www.w3.org/2000/svg"
   xmlns="http://www.w3.org/2000/svg"
   xmlns:sodipodi="http://sodipodi.sourceforge.net/DTD/sodipodi-0.dtd"
   xmlns:inkscape="http://www.inkscape.org/namespaces/inkscape"
   id="svg7384"
   style="enable-background:new"
   height="22"
   width="22"
   version="1.1"
   sodipodi:docname="weather-showers-scattered.svg"
   inkscape:version="0.92.1 r">
  <metadata
     id="metadata8">
    <rdf:RDF>
      <cc:Work
         rdf:about="">
        <dc:format>image/svg+xml</dc:format>
        <dc:type
           rdf:resource="http://purl.org/dc/dcmitype/StillImage" />
      </cc:Work>
    </rdf:RDF>
  </metadata>
  <sodipodi:namedview
     pagecolor="#ffffff"
     bordercolor="#666666"
     borderopacity="1"
     objecttolerance="10"
     gridtolerance="10"
     guidetolerance="10"
     inkscape:pageopacity="0"
     inkscape:pageshadow="2"
     inkscape:window-width="769"
     inkscape:window-height="480"
     id="namedview6"
     showgrid="false"
     inkscape:zoom="10.727273"
     inkscape:cx="11"
     inkscape:cy="11"
     inkscape:window-x="0"
     inkscape:window-y="0"
     inkscape:window-maximized="0"
     inkscape:current-layer="svg7384" />
  <defs
     id="defs8">
    <style
       type="text/css"
       id="current-color-scheme">
   .ColorScheme-Text { color:#d3dae3; } .ColorScheme-Highlight { color:#5294e2; }
  </style>
  </defs>
  <path
     style="color:#d3dae3;fill:currentColor"
     class="ColorScheme-Text"
     d="m 10.999995,4.001715 c -1.8122,0 -3.3554,1.1094 -4.0195,2.6797 -1.6868,0.25077 -2.9805,1.6887 -2.9805,3.4453 0,1.6914 1.1942,3.0916 2.7891,3.418 0.66861,-0.68123 1.3311,-1.3663 2.0234,-2.0234 0.50141,0.47076 0.99143,0.96183 1.4766,1.4492 0.21256,-0.0604 0.33471,-0.7404 0.62891,-0.95703 0.74749,-0.75957 1.4956,-1.5092 2.2695,-2.2422 0.583,0.54643 1.13,1.1034 1.6953,1.668 0.5232,0.5 1.0741,1.0532 1.2578,1.7773 0.014,0.0447 0.0158,0.0916 0.0274,0.13672 1.0808,-0.47293 1.832,-1.5338 1.832,-2.7891 0,-1.572 -1.1819,-2.8601 -2.707,-3.0352 -0.39775,-2.0067 -2.1695,-3.5273 -4.293,-3.5273 z m 2.1875,6.9966 -0.30078,0.30078 -1.2305,1.2305 c -0.39651,0.39651 -0.65625,0.92978 -0.65625,1.5312 0,1.2029 0.98456,2.1875 2.1875,2.1875 1.20294,0 2.1875,-0.98456 2.1875,-2.1875 0,-0.60147 -0.25974,-1.1347 -0.65625,-1.5312 l -1.2305,-1.2305 -0.30078,-0.30078 z m -4.375,1.75 -0.30078,0.30078 -1.2305,1.2305 c -0.39651,0.39651 -0.65625,0.92978 -0.65625,1.5312 0,1.2029 0.98456,2.1875 2.1875,2.1875 1.20294,0 2.1875,-0.98456 2.1875,-2.1875 0,-0.60147 -0.25974,-1.1347 -0.65625,-1.5312 l -1.2305,-1.2305 -0.30078,-0.30078 z"
     id="path5970"
     inkscape:connector-curvature="0" />
</svg>
