<?xml version="1.0" encoding="UTF-8" standalone="no"?>
<svg
   xmlns:dc="http://purl.org/dc/elements/1.1/"
   xmlns:cc="http://creativecommons.org/ns#"
   xmlns:rdf="http://www.w3.org/1999/02/22-rdf-syntax-ns#"
   xmlns:svg="http://www.w3.org/2000/svg"
   xmlns="http://www.w3.org/2000/svg"
   xmlns:sodipodi="http://sodipodi.sourceforge.net/DTD/sodipodi-0.dtd"
   xmlns:inkscape="http://www.inkscape.org/namespaces/inkscape"
   width="22"
   height="22"
   version="1.1"
   viewBox="0 0 16 16"
   id="svg7"
   sodipodi:docname="folder-steam.svg"
   inkscape:version="0.92.1 r">
  <metadata
     id="metadata11">
    <rdf:RDF>
      <cc:Work
         rdf:about="">
        <dc:format>image/svg+xml</dc:format>
        <dc:type
           rdf:resource="http://purl.org/dc/dcmitype/StillImage" />
      </cc:Work>
    </rdf:RDF>
  </metadata>
  <sodipodi:namedview
     pagecolor="#ffffff"
     bordercolor="#666666"
     borderopacity="1"
     objecttolerance="10"
     gridtolerance="10"
     guidetolerance="10"
     inkscape:pageopacity="0"
     inkscape:pageshadow="2"
     inkscape:window-width="769"
     inkscape:window-height="480"
     id="namedview9"
     showgrid="false"
     inkscape:zoom="10.727273"
     inkscape:cx="11"
     inkscape:cy="11"
     inkscape:window-x="0"
     inkscape:window-y="0"
     inkscape:window-maximized="0"
     inkscape:current-layer="svg7" />
  <defs
     id="defs3">
    <style
       id="current-color-scheme"
       type="text/css">
   .ColorScheme-Text { color:#d3dae3; } .ColorScheme-Highlight { color:#5294e2; }
  </style>
  </defs>
  <path
     style="color:#d3dae3;fill:currentColor;stroke-width:0.72727275"
     class="ColorScheme-Text"
     d="m 2.1818165,9.1323638 2.1874909,1.2625452 c -0.00364,0.05018 -0.00553,0.100364 -0.00567,0.150546 0,1.205091 0.9768727,2.181818 2.1818182,2.181818 1.2050181,0 2.1818181,-0.976727 2.1818181,-2.181818 -5.09e-4,-0.06909 -0.00429,-0.137455 -0.011345,-0.205818 L 11.898911,8.2812368 c 1.127273,-0.286182 1.91709,-1.3000731 1.919273,-2.4630549 0,-1.4058182 -1.139637,-2.5454546 -2.545455,-2.5454546 -1.248728,7.273e-4 -2.3121458,0.9067637 -2.5113458,2.1392 L 6.9588347,8.4047998 C 6.8226165,8.3779638 6.6842165,8.3642178 6.5454529,8.3636368 c -0.3293091,7.27e-4 -0.6541819,0.076 -0.9502546,0.220145 L 2.1818165,6.6129455 M 11.272726,4.0000001 c 1.004363,0 1.818182,0.8140362 1.818182,1.8181817 0,1.0041455 -0.813818,1.8181818 -1.818182,1.8181818 -1.004364,0 -1.8181822,-0.8140363 -1.8181822,-1.8181818 0,-1.0041455 0.8138182,-1.8181817 1.8181822,-1.8181817 z m 0,0.7272727 c -0.602182,0 -1.090909,0.4884364 -1.090909,1.090909 0,0.6024727 0.488727,1.0909091 1.090909,1.0909091 0.602181,0 1.090909,-0.4884364 1.090909,-1.0909091 0,-0.6024726 -0.488728,-1.090909 -1.090909,-1.090909 z m -4.7272731,4.363636 c 0.8033454,0 1.4545454,0.650909 1.4545454,1.4545462 C 7.9999983,11.349091 7.3487983,12 6.5454529,12 5.8519256,11.999273 5.2554892,11.508364 5.1207256,10.828364 l 0.5128,0.296727 C 6.1569438,11.426909 6.8213801,11.249455 7.123562,10.725818 7.4257438,10.202182 7.2478529,9.5381818 6.7244347,9.2356368 L 6.4786892,9.0938178 c 0.022255,-0.0015 0.044509,-0.0022 0.066764,-0.0029 z"
     id="path5"
     inkscape:connector-curvature="0" />
</svg>
