<?xml version="1.0" encoding="UTF-8" standalone="no"?>
<svg
   xmlns:dc="http://purl.org/dc/elements/1.1/"
   xmlns:cc="http://creativecommons.org/ns#"
   xmlns:rdf="http://www.w3.org/1999/02/22-rdf-syntax-ns#"
   xmlns:svg="http://www.w3.org/2000/svg"
   xmlns="http://www.w3.org/2000/svg"
   xmlns:sodipodi="http://sodipodi.sourceforge.net/DTD/sodipodi-0.dtd"
   xmlns:inkscape="http://www.inkscape.org/namespaces/inkscape"
   width="22"
   height="22"
   viewBox="0 0 16 16"
   version="1.1"
   id="svg7"
   sodipodi:docname="folder-mail-cloud.svg"
   inkscape:version="0.92.1 r">
  <metadata
     id="metadata11">
    <rdf:RDF>
      <cc:Work
         rdf:about="">
        <dc:format>image/svg+xml</dc:format>
        <dc:type
           rdf:resource="http://purl.org/dc/dcmitype/StillImage" />
      </cc:Work>
    </rdf:RDF>
  </metadata>
  <sodipodi:namedview
     pagecolor="#ffffff"
     bordercolor="#666666"
     borderopacity="1"
     objecttolerance="10"
     gridtolerance="10"
     guidetolerance="10"
     inkscape:pageopacity="0"
     inkscape:pageshadow="2"
     inkscape:window-width="769"
     inkscape:window-height="480"
     id="namedview9"
     showgrid="false"
     inkscape:zoom="10.727273"
     inkscape:cx="11"
     inkscape:cy="11"
     inkscape:window-x="0"
     inkscape:window-y="0"
     inkscape:window-maximized="0"
     inkscape:current-layer="svg7" />
  <defs
     id="defs3">
    <style
       id="current-color-scheme"
       type="text/css">
   .ColorScheme-Text { color:#d3dae3; } .ColorScheme-Highlight { color:#5294e2; }
  </style>
  </defs>
  <path
     style="color:#d3dae3;fill:currentColor;stroke-width:0.77575755"
     class="ColorScheme-Text"
     d="M 7.612121,3.7333334 A 3.8787879,3.8787879 0 0 0 3.9409089,6.369697 3.1030303,3.1030303 0 0 0 2.181818,9.1636367 a 3.1030303,3.1030303 0 0 0 3.1030303,3.1030303 3.1030303,3.1030303 0 0 0 2.0621212,-0.789394 3.8787879,3.8787879 0 0 0 0.2651515,0.01364 3.8787879,3.8787879 0 0 0 1.6393938,-0.368181 3.1030303,3.1030303 0 0 0 1.4636362,0.368181 3.1030303,3.1030303 0 0 0 3.103031,-3.1030303 3.1030303,3.1030303 0 0 0 -3.103031,-3.1030302 3.1030303,3.1030303 0 0 0 -0.0061,0 3.8787879,3.8787879 0 0 0 -3.09697,-1.5515191 z"
     id="path5"
     inkscape:connector-curvature="0" />
</svg>
