<?xml version="1.0" encoding="UTF-8" standalone="no"?>
<svg
   xmlns:dc="http://purl.org/dc/elements/1.1/"
   xmlns:cc="http://creativecommons.org/ns#"
   xmlns:rdf="http://www.w3.org/1999/02/22-rdf-syntax-ns#"
   xmlns:svg="http://www.w3.org/2000/svg"
   xmlns="http://www.w3.org/2000/svg"
   xmlns:sodipodi="http://sodipodi.sourceforge.net/DTD/sodipodi-0.dtd"
   xmlns:inkscape="http://www.inkscape.org/namespaces/inkscape"
   width="22"
   height="22"
   version="1.1"
   viewBox="0 0 16 16"
   id="svg7"
   sodipodi:docname="folder-java.svg"
   inkscape:version="0.92.1 r">
  <metadata
     id="metadata11">
    <rdf:RDF>
      <cc:Work
         rdf:about="">
        <dc:format>image/svg+xml</dc:format>
        <dc:type
           rdf:resource="http://purl.org/dc/dcmitype/StillImage" />
      </cc:Work>
    </rdf:RDF>
  </metadata>
  <sodipodi:namedview
     pagecolor="#ffffff"
     bordercolor="#666666"
     borderopacity="1"
     objecttolerance="10"
     gridtolerance="10"
     guidetolerance="10"
     inkscape:pageopacity="0"
     inkscape:pageshadow="2"
     inkscape:window-width="769"
     inkscape:window-height="480"
     id="namedview9"
     showgrid="false"
     inkscape:zoom="10.727273"
     inkscape:cx="11"
     inkscape:cy="11"
     inkscape:window-x="0"
     inkscape:window-y="0"
     inkscape:window-maximized="0"
     inkscape:current-layer="svg7" />
  <defs
     id="defs3">
    <style
       id="current-color-scheme"
       type="text/css">
   .ColorScheme-Text { color:#d3dae3; } .ColorScheme-Highlight { color:#5294e2; }
  </style>
  </defs>
  <path
     style="color:#d3dae3;fill:currentColor;stroke-width:0.83116883"
     class="ColorScheme-Text"
     d="m 6.4806232,2.1818182 c 0,0 0.6848831,0.3864935 0.2011429,1.403013 -0.7322598,1.5310129 0.6757402,1.880935 0.6757402,1.880935 0,0 -0.4471688,-0.3590649 0.1487792,-1.6232727 C 8.1654024,2.441974 6.4806232,2.1818182 6.4806232,2.1818182 Z m 2.6589091,1.5293506 c 0,0 -1.3647792,0.5236364 -0.4854026,1.9540779 0.5818182,0.9483637 -0.063169,1.4188052 -0.063169,1.4188052 0,0 1.6498703,-0.467948 0.8536103,-1.7770389 C 8.7297661,4.1234286 9.1395323,3.7111688 9.1395323,3.7111688 Z m -3.9297662,0.039065 c 0,0 -1.1952208,0.9101299 -0.011636,2.0288832 0.7821299,0.7447272 0.2692987,1.3897143 0.2692987,1.3897143 0,0 1.481974,-0.9417143 0.4105974,-1.9707013 C 4.9113764,4.2697143 5.2097661,3.7502337 5.2097661,3.7502338 Z M 5.4674284,7.1688312 H 2.181818 l 1.6623377,6.6493508 h 6.6493503 l 0.228572,-0.912623 c 0.193662,0.04821 0.393974,0.08145 0.602597,0.08145 1.377247,0 2.493507,-1.11626 2.493507,-2.493506 0,-1.1686242 -0.806234,-2.1419226 -1.890909,-2.4120525 l 0.228571,-0.9126233 z m 6.2595326,1.7138696 a 0.83116883,1.6623377 15 0 1 0.02826,0.005 0.83116883,1.6623377 15 0 1 0.373194,1.8219232 0.83116883,1.6623377 15 0 1 -1.206026,1.394701 z"
     id="path5"
     inkscape:connector-curvature="0" />
  <path
     inkscape:connector-curvature="0"
     id="path4488"
     d="m 6.4806232,2.1818182 c 0,0 0.6848831,0.3864935 0.2011429,1.403013 -0.7322598,1.5310129 0.6757402,1.880935 0.6757402,1.880935 0,0 -0.4471688,-0.3590649 0.1487792,-1.6232727 C 8.1654024,2.441974 6.4806232,2.1818182 6.4806232,2.1818182 Z m 2.6589091,1.5293506 c 0,0 -1.3647792,0.5236364 -0.4854026,1.9540779 0.5818182,0.9483637 -0.063169,1.4188052 -0.063169,1.4188052 0,0 1.6498703,-0.467948 0.8536103,-1.7770389 C 8.7297661,4.1234286 9.1395323,3.7111688 9.1395323,3.7111688 Z m -3.9297662,0.039065 c 0,0 -1.1952208,0.9101299 -0.011636,2.0288832 0.7821299,0.7447272 0.2692987,1.3897143 0.2692987,1.3897143 0,0 1.481974,-0.9417143 0.4105974,-1.9707013 C 4.9113764,4.2697143 5.2097661,3.7502337 5.2097661,3.7502338 Z M 5.4674284,7.1688312 H 2.181818 l 1.6623377,6.6493508 h 6.6493503 l 0.228572,-0.912623 c 0.193662,0.04821 0.393974,0.08145 0.602597,0.08145 1.377247,0 2.493507,-1.11626 2.493507,-2.493506 0,-1.1686242 -0.806234,-2.1419226 -1.890909,-2.4120525 l 0.228571,-0.9126233 z m 6.2595326,1.7138696 a 0.83116883,1.6623377 15 0 1 0.02826,0.005 0.83116883,1.6623377 15 0 1 0.373194,1.8219232 0.83116883,1.6623377 15 0 1 -1.206026,1.394701 z"
     class="ColorScheme-Text"
     style="color:#d3dae3;fill:currentColor;stroke-width:0.83116883" />
</svg>
