<?xml version="1.0" encoding="UTF-8" standalone="no"?>
<svg
   xmlns:dc="http://purl.org/dc/elements/1.1/"
   xmlns:cc="http://creativecommons.org/ns#"
   xmlns:rdf="http://www.w3.org/1999/02/22-rdf-syntax-ns#"
   xmlns:svg="http://www.w3.org/2000/svg"
   xmlns="http://www.w3.org/2000/svg"
   xmlns:sodipodi="http://sodipodi.sourceforge.net/DTD/sodipodi-0.dtd"
   xmlns:inkscape="http://www.inkscape.org/namespaces/inkscape"
   width="22"
   height="22"
   version="1.1"
   viewBox="0 0 16 16"
   id="svg7"
   sodipodi:docname="folder-mail.svg"
   inkscape:version="0.92.1 r">
  <metadata
     id="metadata11">
    <rdf:RDF>
      <cc:Work
         rdf:about="">
        <dc:format>image/svg+xml</dc:format>
        <dc:type
           rdf:resource="http://purl.org/dc/dcmitype/StillImage" />
      </cc:Work>
    </rdf:RDF>
  </metadata>
  <sodipodi:namedview
     pagecolor="#ffffff"
     bordercolor="#666666"
     borderopacity="1"
     objecttolerance="10"
     gridtolerance="10"
     guidetolerance="10"
     inkscape:pageopacity="0"
     inkscape:pageshadow="2"
     inkscape:window-width="769"
     inkscape:window-height="480"
     id="namedview9"
     showgrid="false"
     inkscape:zoom="10.727273"
     inkscape:cx="11"
     inkscape:cy="11"
     inkscape:window-x="0"
     inkscape:window-y="0"
     inkscape:window-maximized="0"
     inkscape:current-layer="svg7" />
  <defs
     id="defs3">
    <style
       id="current-color-scheme"
       type="text/css">
   .ColorScheme-Text { color:#d3dae3; } .ColorScheme-Highlight { color:#5294e2; }
  </style>
  </defs>
  <path
     style="color:#d3dae3;fill:currentColor;stroke-width:0.83116883"
     class="ColorScheme-Text"
     d="M 13.818182,8.7272727 V 8 c 0,-3.2130494 -2.604883,-5.8181818 -5.8181822,-5.8181818 C 4.7867011,2.1818182 2.181818,4.7867013 2.181818,8 c 0,3.213299 2.6048831,5.818182 5.8181818,5.818182 h 3.4368832 c 0,0 0.718961,-0.103065 0.718961,-0.831169 0,-0.728104 -0.718961,-0.831169 -0.718961,-0.831169 H 7.9999998 C 5.7048102,12.155844 3.8441557,10.294857 3.8441557,8 c 0,-2.2951896 1.8606545,-4.1558442 4.1558441,-4.1558442 2.2948572,0 4.1558442,1.8606546 4.1558442,4.1558442 -0.0017,0.572426 -0.121351,1.1383688 -0.352416,1.6623378 H 10.875013 C 11.168415,9.1573198 11.323013,8.5839792 11.324675,8 c 0,-1.8361351 -1.4886232,-3.3246753 -3.3246752,-3.3246753 -1.836135,0 -3.3246753,1.4885402 -3.3246753,3.3246753 0,1.8360518 1.4885403,3.324676 3.3246753,3.324676 h 3.5532472 c 1.215168,0 2.264935,-1.3922082 2.264935,-2.5974033 z M 7.9999998,6.3376623 c 0.9181091,0 1.6623377,0.7442286 1.6623377,1.6623377 0,0.9181088 -0.7442286,1.6623378 -1.6623377,1.6623378 -0.9181091,0 -1.6623376,-0.744229 -1.6623376,-1.6623378 0,-0.9181091 0.7442285,-1.6623377 1.6623376,-1.6623377 z"
     id="path5"
     inkscape:connector-curvature="0" />
</svg>
