<?xml version="1.0" encoding="UTF-8" standalone="no"?>
<svg
   xmlns:dc="http://purl.org/dc/elements/1.1/"
   xmlns:cc="http://creativecommons.org/ns#"
   xmlns:rdf="http://www.w3.org/1999/02/22-rdf-syntax-ns#"
   xmlns:svg="http://www.w3.org/2000/svg"
   xmlns="http://www.w3.org/2000/svg"
   xmlns:sodipodi="http://sodipodi.sourceforge.net/DTD/sodipodi-0.dtd"
   xmlns:inkscape="http://www.inkscape.org/namespaces/inkscape"
   width="22"
   height="22"
   viewBox="0 0 16 16"
   version="1.1"
   id="svg7"
   sodipodi:docname="folder-network.svg"
   inkscape:version="0.92.1 r">
  <metadata
     id="metadata11">
    <rdf:RDF>
      <cc:Work
         rdf:about="">
        <dc:format>image/svg+xml</dc:format>
        <dc:type
           rdf:resource="http://purl.org/dc/dcmitype/StillImage" />
      </cc:Work>
    </rdf:RDF>
  </metadata>
  <sodipodi:namedview
     pagecolor="#ffffff"
     bordercolor="#666666"
     borderopacity="1"
     objecttolerance="10"
     gridtolerance="10"
     guidetolerance="10"
     inkscape:pageopacity="0"
     inkscape:pageshadow="2"
     inkscape:window-width="769"
     inkscape:window-height="480"
     id="namedview9"
     showgrid="false"
     inkscape:zoom="10.727273"
     inkscape:cx="11"
     inkscape:cy="11"
     inkscape:window-x="0"
     inkscape:window-y="0"
     inkscape:window-maximized="0"
     inkscape:current-layer="svg7" />
  <defs
     id="defs3">
    <style
       id="current-color-scheme"
       type="text/css">
   .ColorScheme-Text { color:#d3dae3; } .ColorScheme-Highlight { color:#5294e2; }
  </style>
  </defs>
  <path
     style="color:#d3dae3;fill:currentColor;stroke-width:0.83116883"
     class="ColorScheme-Text"
     d="M 7.9999998,2.1818182 C 4.7867011,2.1818182 2.181818,4.7867013 2.181818,8 c 0,3.213299 2.6048831,5.818182 5.8181818,5.818182 3.2132992,0 5.8181822,-2.604883 5.8181822,-5.818182 0,-3.2132987 -2.604883,-5.8181818 -5.8181822,-5.8181818 z M 7.5844154,3.7922078 c 0.055605,-0.00582 0.1257143,0.00332 0.1818182,0 0.00665,0.026597 -0.040478,0.1212426 -0.1038961,0.2597402 -0.4038317,0.8822026 -0.4267387,1.9153455 -0.051948,2.4675741 0.067823,0.1001226 0.1298702,0.1954078 0.1298702,0.2077922 0,0.012384 -0.073143,0.025932 -0.1558442,0.025932 -0.1941444,0 -0.377866,-0.1183252 -0.7532468,-0.4155761 C 6.6644112,6.2056228 6.4476258,6.0947117 6.3636362,6.0779221 6.2317463,6.051574 6.1965879,6.0631273 6.0259655,6.2337662 5.8672206,6.3924862 5.8181816,6.4780717 5.8181816,6.6233766 c 0,0.5510151 0.6541964,0.9890078 1.8701299,1.2467533 1.6512831,0.3499802 2.0583065,0.6642036 2.1038546,1.5325089 0.057184,1.0888312 -0.5224728,1.9098602 -1.7921663,2.5454552 -0.151547,0.07589 -0.2481039,0.10535 -0.3116883,0.12987 -0.028177,-0.0025 -0.049787,0.0025 -0.077881,0 -0.010805,-0.03366 -0.025933,-0.111759 -0.025933,-0.25974 0,-0.578311 -0.2279397,-1.173611 -0.5714202,-1.506494 C 6.9208767,10.222363 6.6627157,10.032998 6.4416414,9.8961458 6.2205754,9.7593018 5.9978388,9.6003328 5.9481349,9.5325088 5.8657661,9.4199608 5.8589172,9.3508158 5.9222024,9.1428988 6.0375354,8.7631626 6.1748029,8.5516634 6.4416746,8.3117299 6.5815853,8.1859408 6.7223686,8.0804571 6.7533629,8.0779636 6.7843655,8.0754701 6.574537,8.0124675 6.2598564,7.9480935 5.9451925,7.8835948 5.4848996,7.7485132 5.246911,7.6623792 4.8117276,7.5049143 4.2241577,7.1743501 4.0001577,6.9351065 3.9906824,6.9249662 3.9824538,6.9181506 3.9742253,6.909174 4.2951645,5.6307532 5.1957941,4.5829818 6.3897681,4.0780467 6.6395925,3.9723802 6.8971302,3.8998857 7.1689889,3.8442805 7.3044029,3.8166026 7.4447541,3.8065454 7.5845733,3.7923324 Z m 3.8961036,1.9480935 c 0.09762,0.060343 0.466211,0.8577662 0.571429,1.2467532 0.135846,0.5021839 0.126013,1.3712624 0,1.8701303 -0.04796,0.189872 -0.109424,0.367501 -0.12987,0.38961 -0.02045,0.02211 -0.0946,-0.105168 -0.181818,-0.25974 C 11.653028,8.8325068 11.374412,8.5041039 11.142857,8.2597818 10.474481,7.5545101 10.36938,7.1862441 10.649351,6.6233766 10.790541,6.3395408 11.404966,5.6936312 11.480519,5.7402597 Z"
     id="path5"
     inkscape:connector-curvature="0" />
</svg>
