<?xml version="1.0" encoding="UTF-8" standalone="no"?>
<svg
   xmlns:dc="http://purl.org/dc/elements/1.1/"
   xmlns:cc="http://creativecommons.org/ns#"
   xmlns:rdf="http://www.w3.org/1999/02/22-rdf-syntax-ns#"
   xmlns:svg="http://www.w3.org/2000/svg"
   xmlns="http://www.w3.org/2000/svg"
   xmlns:sodipodi="http://sodipodi.sourceforge.net/DTD/sodipodi-0.dtd"
   xmlns:inkscape="http://www.inkscape.org/namespaces/inkscape"
   width="22"
   height="22"
   version="1.1"
   id="svg9"
   sodipodi:docname="folder-drag-accept.svg"
   inkscape:version="0.92.1 r">
  <metadata
     id="metadata13">
    <rdf:RDF>
      <cc:Work
         rdf:about="">
        <dc:format>image/svg+xml</dc:format>
        <dc:type
           rdf:resource="http://purl.org/dc/dcmitype/StillImage" />
      </cc:Work>
    </rdf:RDF>
  </metadata>
  <sodipodi:namedview
     pagecolor="#ffffff"
     bordercolor="#666666"
     borderopacity="1"
     objecttolerance="10"
     gridtolerance="10"
     guidetolerance="10"
     inkscape:pageopacity="0"
     inkscape:pageshadow="2"
     inkscape:window-width="749"
     inkscape:window-height="480"
     id="namedview11"
     showgrid="false"
     inkscape:zoom="10.727273"
     inkscape:cx="8.3795797"
     inkscape:cy="11"
     inkscape:window-x="0"
     inkscape:window-y="0"
     inkscape:window-maximized="0"
     inkscape:current-layer="svg9" />
  <defs
     id="defs3">
    <style
       id="current-color-scheme"
       type="text/css">
   .ColorScheme-Text { color:#d3dae3; } .ColorScheme-Highlight { color:#5294e2; }
  </style>
  </defs>
  <g
     id="g4492"
     transform="matrix(1.2307692,0,0,1.2307692,1.1538464,1.769231)">
    <path
       id="path5"
       d="M 2,1 C 2,1 1,1 1,2 V 7 C 1,6 2,6 2,6 h 5 l 2,2 h 5 c 0,0 1,0 1,1 V 4 C 15,3 14,3 14,3 H 9 L 7,1 Z"
       class="ColorScheme-Text"
       style="color:#d3dae3;opacity:0.3;fill:currentColor"
       inkscape:connector-curvature="0" />
    <path
       id="path7"
       d="M 2,7 C 2,7 1,7 1,8 v 5 c 0,0 0,1 1,1 h 12 c 0,0 1,0 1,-1 V 10 C 15,9 14,9 14,9 H 9 L 7,7 Z"
       class="ColorScheme-Text"
       style="color:#d3dae3;fill:currentColor"
       inkscape:connector-curvature="0" />
  </g>
</svg>
