<?xml version="1.0" encoding="UTF-8" standalone="no"?>
<svg
   xmlns:dc="http://purl.org/dc/elements/1.1/"
   xmlns:cc="http://creativecommons.org/ns#"
   xmlns:rdf="http://www.w3.org/1999/02/22-rdf-syntax-ns#"
   xmlns:svg="http://www.w3.org/2000/svg"
   xmlns="http://www.w3.org/2000/svg"
   xmlns:sodipodi="http://sodipodi.sourceforge.net/DTD/sodipodi-0.dtd"
   xmlns:inkscape="http://www.inkscape.org/namespaces/inkscape"
   width="22"
   height="22"
   viewBox="0 0 16 16"
   version="1.1"
   id="svg7"
   sodipodi:docname="folder-publicshare.svg"
   inkscape:version="0.92.1 r">
  <metadata
     id="metadata11">
    <rdf:RDF>
      <cc:Work
         rdf:about="">
        <dc:format>image/svg+xml</dc:format>
        <dc:type
           rdf:resource="http://purl.org/dc/dcmitype/StillImage" />
      </cc:Work>
    </rdf:RDF>
  </metadata>
  <sodipodi:namedview
     pagecolor="#ffffff"
     bordercolor="#666666"
     borderopacity="1"
     objecttolerance="10"
     gridtolerance="10"
     guidetolerance="10"
     inkscape:pageopacity="0"
     inkscape:pageshadow="2"
     inkscape:window-width="769"
     inkscape:window-height="480"
     id="namedview9"
     showgrid="false"
     inkscape:zoom="10.727273"
     inkscape:cx="11"
     inkscape:cy="11"
     inkscape:window-x="0"
     inkscape:window-y="0"
     inkscape:window-maximized="0"
     inkscape:current-layer="svg7" />
  <defs
     id="defs3">
    <style
       id="current-color-scheme"
       type="text/css">
   .ColorScheme-Text { color:#d3dae3; } .ColorScheme-Highlight { color:#5294e2; }
  </style>
  </defs>
  <path
     style="color:#d3dae3;fill:currentColor;stroke-width:0.72727275"
     class="ColorScheme-Text"
     d="m 6.5454544,3.2727273 c -1.2050182,0 -2.1818182,0.9768728 -2.1818182,2.1818182 0,1.2049455 0.9768,2.1818182 2.1818182,2.1818182 1.2050181,0 2.1818181,-0.9768727 2.1818181,-2.1818182 0,-1.2049454 -0.9768,-2.1818182 -2.1818181,-2.1818182 z m 3.6335226,1.4147728 0.0028,0.00284 c -0.2823855,0 -0.5478502,0.064946 -0.7883523,0.1732954 0.039709,0.1905819 0.06108,0.3876996 0.06108,0.5894887 0,0.8015273 -0.3303373,1.5303112 -0.8607955,2.0582385 0.3345454,0.5090911 0.9161366,0.8508522 1.5852278,0.8508522 1.041963,0 1.886363,-0.8220294 1.886363,-1.8366476 0,-1.0146181 -0.8444,-1.8380681 -1.886364,-1.8380681 z M 6.5454544,9.0880678 C 2.1816725,9.0905408 2.181818,12 2.181818,12 v 0.727273 h 8.727273 V 12 c 0,0 0,-2.9163632 -4.3636366,-2.9090912 z m 3.6363636,0.00142 v 0.0014 c -0.142618,0 -0.2703375,0.0092 -0.4019884,0.01563 0.5073164,0.290662 0.8939024,0.637872 1.1661924,1.0014212 0.683637,0.916363 0.690342,1.890625 0.690342,1.890625 h 2.181818 v -0.727273 c 0,0 0,-2.1818182 -3.636364,-2.1818182 z"
     id="path5"
     inkscape:connector-curvature="0" />
</svg>
