<?xml version="1.0" encoding="UTF-8" standalone="no"?>
<svg
   xmlns:dc="http://purl.org/dc/elements/1.1/"
   xmlns:cc="http://creativecommons.org/ns#"
   xmlns:rdf="http://www.w3.org/1999/02/22-rdf-syntax-ns#"
   xmlns:svg="http://www.w3.org/2000/svg"
   xmlns="http://www.w3.org/2000/svg"
   xmlns:sodipodi="http://sodipodi.sourceforge.net/DTD/sodipodi-0.dtd"
   xmlns:inkscape="http://www.inkscape.org/namespaces/inkscape"
   width="22"
   height="22"
   version="1.1"
   viewBox="0 0 16 16"
   id="svg7"
   sodipodi:docname="folder-locked.svg"
   inkscape:version="0.92.1 r">
  <metadata
     id="metadata11">
    <rdf:RDF>
      <cc:Work
         rdf:about="">
        <dc:format>image/svg+xml</dc:format>
        <dc:type
           rdf:resource="http://purl.org/dc/dcmitype/StillImage" />
      </cc:Work>
    </rdf:RDF>
  </metadata>
  <sodipodi:namedview
     pagecolor="#ffffff"
     bordercolor="#666666"
     borderopacity="1"
     objecttolerance="10"
     gridtolerance="10"
     guidetolerance="10"
     inkscape:pageopacity="0"
     inkscape:pageshadow="2"
     inkscape:window-width="769"
     inkscape:window-height="480"
     id="namedview9"
     showgrid="false"
     inkscape:zoom="10.727273"
     inkscape:cx="11.978814"
     inkscape:cy="8.2033901"
     inkscape:window-x="0"
     inkscape:window-y="0"
     inkscape:window-maximized="0"
     inkscape:current-layer="svg7" />
  <defs
     id="defs3">
    <style
       id="current-color-scheme"
       type="text/css">
   .ColorScheme-Text { color:#d3dae3; } .ColorScheme-Highlight { color:#5294e2; }
  </style>
  </defs>
  <path
     style="color:#d3dae3;fill:currentColor;stroke-width:0.83116883"
     class="ColorScheme-Text"
     d="m 7.9999999,2.1818182 c -1.8418701,0 -3.3246753,1.5135584 -3.3246753,3.3762077 V 7.1688311 H 3.8441558 c -0.4604675,0 -0.8311688,0.3707013 -0.8311688,0.8311688 v 4.9870131 c 0,0.460468 0.3707013,0.831169 0.8311688,0.831169 h 8.3116882 c 0.460468,0 0.831169,-0.370701 0.831169,-0.831169 V 7.9999999 c 0,-0.4604675 -0.370701,-0.8311688 -0.831169,-0.8311688 H 11.324675 V 5.5580259 c 0,-1.8618181 -1.4828053,-3.3762077 -3.3246751,-3.3762077 z m 0,1.6623377 c 0.9209351,0 1.6623377,0.7405714 1.6623377,1.6623376 V 7.1688311 H 6.3376623 V 5.5064935 c 0,-0.9217662 0.7414026,-1.6623376 1.6623376,-1.6623376 z"
     id="path5"
     inkscape:connector-curvature="0" />
</svg>
