<?xml version="1.0" encoding="UTF-8" standalone="no"?>
<svg
   xmlns:dc="http://purl.org/dc/elements/1.1/"
   xmlns:cc="http://creativecommons.org/ns#"
   xmlns:rdf="http://www.w3.org/1999/02/22-rdf-syntax-ns#"
   xmlns:svg="http://www.w3.org/2000/svg"
   xmlns="http://www.w3.org/2000/svg"
   xmlns:sodipodi="http://sodipodi.sourceforge.net/DTD/sodipodi-0.dtd"
   xmlns:inkscape="http://www.inkscape.org/namespaces/inkscape"
   width="22"
   height="22"
   version="1.1"
   viewBox="0 0 16 16"
   id="svg9"
   sodipodi:docname="folder-visiting.svg"
   inkscape:version="0.92.1 r">
  <metadata
     id="metadata13">
    <rdf:RDF>
      <cc:Work
         rdf:about="">
        <dc:format>image/svg+xml</dc:format>
        <dc:type
           rdf:resource="http://purl.org/dc/dcmitype/StillImage" />
      </cc:Work>
    </rdf:RDF>
  </metadata>
  <sodipodi:namedview
     pagecolor="#ffffff"
     bordercolor="#666666"
     borderopacity="1"
     objecttolerance="10"
     gridtolerance="10"
     guidetolerance="10"
     inkscape:pageopacity="0"
     inkscape:pageshadow="2"
     inkscape:window-width="769"
     inkscape:window-height="480"
     id="namedview11"
     showgrid="false"
     inkscape:zoom="10.727273"
     inkscape:cx="11"
     inkscape:cy="11"
     inkscape:window-x="0"
     inkscape:window-y="0"
     inkscape:window-maximized="0"
     inkscape:current-layer="svg9" />
  <defs
     id="defs3">
    <style
       id="current-color-scheme"
       type="text/css">
   .ColorScheme-Text { color:#d3dae3; } .ColorScheme-Highlight { color:#5294e2; }
  </style>
  </defs>
  <g
     id="g4492"
     transform="matrix(0.83116883,0,0,0.83116883,1.3506494,1.7662338)">
    <path
       id="path5"
       d="m 1,2 v 11 c 0,0 0,1 1,1 h 12 c 0,0 1,0 1,-1 V 4 C 15,3 14,3 14,3 H 9 L 7,1 H 2 C 2,1 1,1 1,2 Z"
       class="ColorScheme-Text"
       style="color:#d3dae3;fill:currentColor"
       inkscape:connector-curvature="0" />
    <path
       id="path7"
       d="M 2,1 C 2,1 1.9084,1.0089 1.7891,1.0332 L 15,8.6602 v -2 L 5.1953,1 Z M 1,2.5781 v 2 L 15,12.66 v -2 z M 12.125,3 15,4.6602 V 4 C 15,3 14,3 14,3 Z M 1,6.5781 v 2 L 10.393,14 h 3.462 z m 0,3.9999 v 2 L 3.4648,14 h 3.4629 z"
       style="opacity:0.2"
       inkscape:connector-curvature="0" />
  </g>
</svg>
