<?xml version="1.0" encoding="UTF-8" standalone="no"?>
<svg
   xmlns:dc="http://purl.org/dc/elements/1.1/"
   xmlns:cc="http://creativecommons.org/ns#"
   xmlns:rdf="http://www.w3.org/1999/02/22-rdf-syntax-ns#"
   xmlns:svg="http://www.w3.org/2000/svg"
   xmlns="http://www.w3.org/2000/svg"
   xmlns:sodipodi="http://sodipodi.sourceforge.net/DTD/sodipodi-0.dtd"
   xmlns:inkscape="http://www.inkscape.org/namespaces/inkscape"
   width="22"
   height="22"
   viewBox="0 0 16 16"
   version="1.1"
   id="svg7"
   sodipodi:docname="folder-saved-search.svg"
   inkscape:version="0.92.1 r">
  <metadata
     id="metadata11">
    <rdf:RDF>
      <cc:Work
         rdf:about="">
        <dc:format>image/svg+xml</dc:format>
        <dc:type
           rdf:resource="http://purl.org/dc/dcmitype/StillImage" />
      </cc:Work>
    </rdf:RDF>
  </metadata>
  <sodipodi:namedview
     pagecolor="#ffffff"
     bordercolor="#666666"
     borderopacity="1"
     objecttolerance="10"
     gridtolerance="10"
     guidetolerance="10"
     inkscape:pageopacity="0"
     inkscape:pageshadow="2"
     inkscape:window-width="769"
     inkscape:window-height="480"
     id="namedview9"
     showgrid="false"
     inkscape:zoom="10.727273"
     inkscape:cx="11"
     inkscape:cy="11"
     inkscape:window-x="0"
     inkscape:window-y="0"
     inkscape:window-maximized="0"
     inkscape:current-layer="svg7" />
  <defs
     id="defs3">
    <style
       id="current-color-scheme"
       type="text/css">
   .ColorScheme-Text { color:#d3dae3; } .ColorScheme-Highlight { color:#5294e2; }
  </style>
  </defs>
  <path
     style="color:#d3dae3;fill:currentColor;stroke-width:0.82963628"
     class="ColorScheme-Text"
     d="m 6.7448161,2.1883406 c -2.5128853,0 -4.5629994,2.0530178 -4.5629994,4.5629994 0,2.5099818 2.0501141,4.563 4.5629994,4.563 0.9557409,0 1.8564853,-0.296877 2.5926133,-0.80371 l 3.0592826,3.059283 a 0.83419925,0.83419925 0 1 0 1.166676,-1.192602 L 10.504105,9.3180268 c 0.506733,-0.7350573 0.829636,-1.612688 0.829636,-2.5666868 0,-2.5099816 -2.0761226,-4.5629994 -4.5889249,-4.5629994 z m 0,1.6592726 c 1.6156336,0 2.9037269,1.2899184 2.9037269,2.9037268 0,1.6137254 -1.2880933,2.9037268 -2.9037269,2.9037268 -1.6156337,0 -2.9037269,-1.2900014 -2.9037269,-2.9037268 0,-1.6138084 1.2880932,-2.9037268 2.9037269,-2.9037268 z"
     id="path5"
     inkscape:connector-curvature="0" />
</svg>
