<?xml version="1.0" encoding="UTF-8" standalone="no"?>
<svg
   xmlns:dc="http://purl.org/dc/elements/1.1/"
   xmlns:cc="http://creativecommons.org/ns#"
   xmlns:rdf="http://www.w3.org/1999/02/22-rdf-syntax-ns#"
   xmlns:svg="http://www.w3.org/2000/svg"
   xmlns="http://www.w3.org/2000/svg"
   xmlns:sodipodi="http://sodipodi.sourceforge.net/DTD/sodipodi-0.dtd"
   xmlns:inkscape="http://www.inkscape.org/namespaces/inkscape"
   width="22"
   height="22"
   version="1.1"
   viewBox="0 0 16 16"
   id="svg7"
   sodipodi:docname="folder-music.svg"
   inkscape:version="0.92.1 r">
  <metadata
     id="metadata11">
    <rdf:RDF>
      <cc:Work
         rdf:about="">
        <dc:format>image/svg+xml</dc:format>
        <dc:type
           rdf:resource="http://purl.org/dc/dcmitype/StillImage" />
      </cc:Work>
    </rdf:RDF>
  </metadata>
  <sodipodi:namedview
     pagecolor="#ffffff"
     bordercolor="#666666"
     borderopacity="1"
     objecttolerance="10"
     gridtolerance="10"
     guidetolerance="10"
     inkscape:pageopacity="0"
     inkscape:pageshadow="2"
     inkscape:window-width="769"
     inkscape:window-height="480"
     id="namedview9"
     showgrid="false"
     inkscape:zoom="10.727273"
     inkscape:cx="11"
     inkscape:cy="11"
     inkscape:window-x="0"
     inkscape:window-y="0"
     inkscape:window-maximized="0"
     inkscape:current-layer="svg7" />
  <defs
     id="defs3">
    <style
       id="current-color-scheme"
       type="text/css">
   .ColorScheme-Text { color:#d3dae3; } .ColorScheme-Highlight { color:#5294e2; }
  </style>
  </defs>
  <path
     style="color:#d3dae3;fill:currentColor;stroke-width:0.83116883"
     class="ColorScheme-Text"
     d="M 5.5064933,8.9774548 C 5.2396881,8.8818698 4.9587531,8.8319998 4.6753245,8.8311688 c -1.3772468,0 -2.4935065,1.11626 -2.4935065,2.4935072 0,1.377246 1.1162597,2.493506 2.4935065,2.493506 1.3772467,0 2.4935065,-1.11626 2.4935065,-2.493506 V 5.5064935 h 4.987013 v 3.4709613 c -0.266805,-0.09558 -0.54774,-0.145455 -0.831169,-0.146286 -1.3772466,0 -2.4935064,1.11626 -2.4935064,2.4935072 0,1.377246 1.1162598,2.493506 2.4935064,2.493506 1.377247,0 2.493507,-1.11626 2.493507,-2.493506 V 3.012987 c 0,-0.4604675 -0.556052,-0.8311688 -1.246754,-0.8311688 H 6.7532466 c -0.6907013,0 -1.2467533,0.3707013 -1.2467533,0.8311688"
     id="path5"
     inkscape:connector-curvature="0" />
</svg>
