<?xml version="1.0" encoding="UTF-8" standalone="no"?>
<svg
   xmlns:dc="http://purl.org/dc/elements/1.1/"
   xmlns:cc="http://creativecommons.org/ns#"
   xmlns:rdf="http://www.w3.org/1999/02/22-rdf-syntax-ns#"
   xmlns:svg="http://www.w3.org/2000/svg"
   xmlns="http://www.w3.org/2000/svg"
   xmlns:sodipodi="http://sodipodi.sourceforge.net/DTD/sodipodi-0.dtd"
   xmlns:inkscape="http://www.inkscape.org/namespaces/inkscape"
   width="22"
   height="22"
   viewBox="0 0 16 16"
   version="1.1"
   id="svg7"
   sodipodi:docname="folder-photo.svg"
   inkscape:version="0.92.1 r">
  <metadata
     id="metadata11">
    <rdf:RDF>
      <cc:Work
         rdf:about="">
        <dc:format>image/svg+xml</dc:format>
        <dc:type
           rdf:resource="http://purl.org/dc/dcmitype/StillImage" />
      </cc:Work>
    </rdf:RDF>
  </metadata>
  <sodipodi:namedview
     pagecolor="#ffffff"
     bordercolor="#666666"
     borderopacity="1"
     objecttolerance="10"
     gridtolerance="10"
     guidetolerance="10"
     inkscape:pageopacity="0"
     inkscape:pageshadow="2"
     inkscape:window-width="769"
     inkscape:window-height="480"
     id="namedview9"
     showgrid="false"
     inkscape:zoom="10.727273"
     inkscape:cx="11"
     inkscape:cy="11"
     inkscape:window-x="0"
     inkscape:window-y="0"
     inkscape:window-maximized="0"
     inkscape:current-layer="svg7" />
  <defs
     id="defs3">
    <style
       id="current-color-scheme"
       type="text/css">
   .ColorScheme-Text { color:#d3dae3; } .ColorScheme-Highlight { color:#5294e2; }
  </style>
  </defs>
  <path
     style="color:#d3dae3;fill:currentColor;stroke-width:0.83116883"
     class="ColorScheme-Text"
     d="M 5.5064933,3.012987 4.6753245,3.8441559 H 3.8441557 c -1.6623377,0 -1.6623377,1.6623376 -1.6623377,1.6623376 v 5.8181815 c 0,1.662338 1.6623377,1.662338 1.6623377,1.662338 h 8.3116883 c 1.662338,0 1.662338,-1.662338 1.662338,-1.662338 V 5.5064935 c 0,-1.6623376 -1.662338,-1.6623376 -1.662338,-1.6623376 H 11.324675 L 10.493506,3.012987 Z m 2.4935065,2.4935065 c 1.3770805,0 2.4935062,1.116426 2.4935062,2.4935065 0,1.377081 -1.1164257,2.493507 -2.4935062,2.493507 -1.3770805,0 -2.4935065,-1.116426 -2.4935065,-2.493507 0,-1.3770805 1.116426,-2.4935065 2.4935065,-2.4935065 z"
     id="path5"
     inkscape:connector-curvature="0" />
</svg>
