<?xml version="1.0" encoding="UTF-8" standalone="no"?>
<svg
   xmlns:dc="http://purl.org/dc/elements/1.1/"
   xmlns:cc="http://creativecommons.org/ns#"
   xmlns:rdf="http://www.w3.org/1999/02/22-rdf-syntax-ns#"
   xmlns:svg="http://www.w3.org/2000/svg"
   xmlns="http://www.w3.org/2000/svg"
   xmlns:sodipodi="http://sodipodi.sourceforge.net/DTD/sodipodi-0.dtd"
   xmlns:inkscape="http://www.inkscape.org/namespaces/inkscape"
   width="22"
   height="22"
   version="1.1"
   viewBox="0 0 16 16"
   id="svg7"
   sodipodi:docname="folder-unlocked.svg"
   inkscape:version="0.92.1 r">
  <metadata
     id="metadata11">
    <rdf:RDF>
      <cc:Work
         rdf:about="">
        <dc:format>image/svg+xml</dc:format>
        <dc:type
           rdf:resource="http://purl.org/dc/dcmitype/StillImage" />
      </cc:Work>
    </rdf:RDF>
  </metadata>
  <sodipodi:namedview
     pagecolor="#ffffff"
     bordercolor="#666666"
     borderopacity="1"
     objecttolerance="10"
     gridtolerance="10"
     guidetolerance="10"
     inkscape:pageopacity="0"
     inkscape:pageshadow="2"
     inkscape:window-width="769"
     inkscape:window-height="480"
     id="namedview9"
     showgrid="false"
     inkscape:zoom="10.727273"
     inkscape:cx="11"
     inkscape:cy="11"
     inkscape:window-x="0"
     inkscape:window-y="0"
     inkscape:window-maximized="0"
     inkscape:current-layer="svg7" />
  <defs
     id="defs3">
    <style
       id="current-color-scheme"
       type="text/css">
   .ColorScheme-Text { color:#d3dae3; } .ColorScheme-Highlight { color:#5294e2; }
  </style>
  </defs>
  <path
     style="color:#d3dae3;fill:currentColor;stroke-width:0.72727275"
     class="ColorScheme-Text"
     d="M 7.9999999,2.1818182 C 6.3883635,2.1818182 5.090909,3.5061818 5.090909,5.136 V 5.8181818 H 6.5454544 V 5.0909091 c 0,-0.8065455 0.6487273,-1.4545455 1.4545455,-1.4545455 0.8058181,0 1.4545454,0.648 1.4545454,1.4545455 V 7.9999998 H 7.9999999 4.3636362 c -0.4029091,0 -0.7272727,0.324364 -0.7272727,0.727273 v 4.3636362 c 0,0.402909 0.3243636,0.727273 0.7272727,0.727273 h 7.2727278 c 0.402908,0 0.727273,-0.324364 0.727273,-0.727273 V 8.7272728 c 0,-0.402909 -0.324364,-0.727273 -0.727273,-0.727273 H 10.909091 V 5.136 c 0,-1.6290909 -1.2974548,-2.9541818 -2.9090911,-2.9541818 z"
     id="path5"
     inkscape:connector-curvature="0" />
</svg>
