<?xml version="1.0" encoding="UTF-8" standalone="no"?>
<svg
   xmlns:dc="http://purl.org/dc/elements/1.1/"
   xmlns:cc="http://creativecommons.org/ns#"
   xmlns:rdf="http://www.w3.org/1999/02/22-rdf-syntax-ns#"
   xmlns:svg="http://www.w3.org/2000/svg"
   xmlns="http://www.w3.org/2000/svg"
   xmlns:sodipodi="http://sodipodi.sourceforge.net/DTD/sodipodi-0.dtd"
   xmlns:inkscape="http://www.inkscape.org/namespaces/inkscape"
   width="22"
   height="22"
   version="1.1"
   viewBox="0 0 16 16"
   id="svg7"
   sodipodi:docname="folder-yandex-disk.svg"
   inkscape:version="0.92.1 r">
  <metadata
     id="metadata11">
    <rdf:RDF>
      <cc:Work
         rdf:about="">
        <dc:format>image/svg+xml</dc:format>
        <dc:type
           rdf:resource="http://purl.org/dc/dcmitype/StillImage" />
      </cc:Work>
    </rdf:RDF>
  </metadata>
  <sodipodi:namedview
     pagecolor="#ffffff"
     bordercolor="#666666"
     borderopacity="1"
     objecttolerance="10"
     gridtolerance="10"
     guidetolerance="10"
     inkscape:pageopacity="0"
     inkscape:pageshadow="2"
     inkscape:window-width="769"
     inkscape:window-height="480"
     id="namedview9"
     showgrid="false"
     inkscape:zoom="10.727273"
     inkscape:cx="11"
     inkscape:cy="11"
     inkscape:window-x="0"
     inkscape:window-y="0"
     inkscape:window-maximized="0"
     inkscape:current-layer="svg7" />
  <defs
     id="defs3">
    <style
       id="current-color-scheme"
       type="text/css">
   .ColorScheme-Text { color:#d3dae3; } .ColorScheme-Highlight { color:#5294e2; }
  </style>
  </defs>
  <path
     style="color:#d3dae3;fill:currentColor;stroke-width:0.7272892"
     class="ColorScheme-Text"
     d="m 7.33962,3.6532001 c -2.5859178,0 -1.9843223,2.3623587 -3.3083137,3.0739338 -0.045633,0.025892 -0.071292,0.049739 -0.1122185,0.075285 C 4.7922333,6.282706 5.8684468,5.8481669 7.0114874,5.5538111 7.9794425,5.3048033 8.9612335,5.1651051 9.866666,5.1475519 c 0.023266,-8.29e-5 0.046474,-8.29e-5 0.069602,0 C 9.0631005,4.8994261 8.9676213,3.6532001 7.33962,3.6532001 Z m 2.818246,2.1491965 C 9.2524336,5.8199534 8.2706426,5.9596473 7.3026875,6.2086559 4.1124523,7.0295917 1.8388239,8.8147865 2.2244471,10.195962 c 0.2222024,0.789257 1.292807,1.310078 2.8878496,1.404862 -7.273e-4,-0.006 -0.00219,-0.01108 -0.00284,-0.01705 -0.086102,-0.746749 0.3877026,-1.396352 0.9432032,-1.8366905 0.5555007,-0.440339 1.2700427,-0.760079 2.07249,-0.930419 0.8024473,-0.170339 1.5537919,-0.162106 2.1818681,0.02699 0.590481,0.177777 1.146023,0.565689 1.2827,1.2315615 C 13.18835,9.1789555 14.017524,8.0983241 13.777263,7.2243015 13.522745,6.3092307 12.134641,5.7639048 10.157866,5.8023966 Z M 9.2089802,9.4374225 A 1.3517233,2.6014834 76.001371 0 0 8.2075371,9.5411175 1.3517233,2.6014834 76.001371 0 0 5.8225401,11.431787 1.3517233,2.6014834 76.001371 0 0 8.5200446,12.242884 1.3517233,2.6014834 76.001371 0 0 10.903622,10.352215 1.3517233,2.6014834 76.001371 0 0 9.2089802,9.4374225 Z"
     id="path5"
     inkscape:connector-curvature="0" />
</svg>
