<?xml version="1.0" encoding="UTF-8" standalone="no"?>
<svg
   xmlns:dc="http://purl.org/dc/elements/1.1/"
   xmlns:cc="http://creativecommons.org/ns#"
   xmlns:rdf="http://www.w3.org/1999/02/22-rdf-syntax-ns#"
   xmlns:svg="http://www.w3.org/2000/svg"
   xmlns="http://www.w3.org/2000/svg"
   xmlns:sodipodi="http://sodipodi.sourceforge.net/DTD/sodipodi-0.dtd"
   xmlns:inkscape="http://www.inkscape.org/namespaces/inkscape"
   width="22"
   height="22"
   viewBox="0 0 16 16"
   version="1.1"
   id="svg7"
   sodipodi:docname="folder-meocloud.svg"
   inkscape:version="0.92.1 r">
  <metadata
     id="metadata11">
    <rdf:RDF>
      <cc:Work
         rdf:about="">
        <dc:format>image/svg+xml</dc:format>
        <dc:type
           rdf:resource="http://purl.org/dc/dcmitype/StillImage" />
      </cc:Work>
    </rdf:RDF>
  </metadata>
  <sodipodi:namedview
     pagecolor="#ffffff"
     bordercolor="#666666"
     borderopacity="1"
     objecttolerance="10"
     gridtolerance="10"
     guidetolerance="10"
     inkscape:pageopacity="0"
     inkscape:pageshadow="2"
     inkscape:window-width="769"
     inkscape:window-height="480"
     id="namedview9"
     showgrid="false"
     inkscape:zoom="10.727273"
     inkscape:cx="11"
     inkscape:cy="11"
     inkscape:window-x="0"
     inkscape:window-y="0"
     inkscape:window-maximized="0"
     inkscape:current-layer="svg7" />
  <defs
     id="defs3">
    <style
       id="current-color-scheme"
       type="text/css">
   .ColorScheme-Text { color:#d3dae3; } .ColorScheme-Highlight { color:#5294e2; }
  </style>
  </defs>
  <path
     style="color:#d3dae3;fill:currentColor;stroke-width:0.77575755"
     class="ColorScheme-Text"
     d="m 9.1636362,4.1212121 c -1.1661188,0 -2.2332097,0.6562498 -2.7621212,1.6954546 C 6.1701065,5.7221794 5.9226762,5.6732703 5.6727271,5.6727273 c -0.9700849,0 -1.7901455,0.7189066 -1.919697,1.680303 -0.9391321,0.3226376 -1.570126,1.2055152 -1.5712121,2.1984846 0,1.2854311 1.04192,2.3272731 2.3272727,2.3272731 h 6.9818183 c 1.28543,0 2.327273,-1.041842 2.327273,-2.3272731 -7.76e-4,-0.9877718 -0.625116,-1.8672676 -1.557576,-2.1939391 0.0031,-0.044218 0.0053,-0.088882 0.0061,-0.1333334 0,-1.713726 -1.389381,-3.1030303 -3.1030298,-3.1030303 z m 0,1.5500001 v 0.00152 c 0.8742788,0 1.5484488,0.6750593 1.5499998,1.5484849 -7.75e-4,0.010861 -7.39e-4,0.022473 -0.0015,0.033333 a 1.5516703,1.5516703 0 0 0 1.034849,1.5681818 c 0.315733,0.110701 0.519696,0.395409 0.519696,0.730303 -7.75e-4,0.446061 -0.329696,0.7742431 -0.775757,0.7742431 H 4.5090907 c -0.4461382,0 -0.7732339,-0.3281821 -0.7742424,-0.7742431 0.00132,-0.33567 0.2048994,-0.622591 0.5227272,-0.7318181 A 1.5516703,1.5516703 0 0 0 5.2909089,7.5606061 c 0.027539,-0.2041018 0.1782594,-0.3363637 0.3818182,-0.3363637 0.048873,5.431e-4 0.097042,0.00865 0.1424243,0.027273 A 1.5516703,1.5516703 0 0 0 7.7848483,6.5212121 C 8.0509331,5.9983515 8.5795683,5.6712122 9.1636362,5.6712122 Z"
     id="path5"
     inkscape:connector-curvature="0" />
</svg>
