<?xml version="1.0" encoding="UTF-8" standalone="no"?>
<svg
   xmlns:dc="http://purl.org/dc/elements/1.1/"
   xmlns:cc="http://creativecommons.org/ns#"
   xmlns:rdf="http://www.w3.org/1999/02/22-rdf-syntax-ns#"
   xmlns:svg="http://www.w3.org/2000/svg"
   xmlns="http://www.w3.org/2000/svg"
   xmlns:sodipodi="http://sodipodi.sourceforge.net/DTD/sodipodi-0.dtd"
   xmlns:inkscape="http://www.inkscape.org/namespaces/inkscape"
   width="22"
   height="22"
   version="1.1"
   viewBox="0 0 16 16"
   id="svg7"
   sodipodi:docname="folder-gnome.svg"
   inkscape:version="0.92.1 r">
  <metadata
     id="metadata11">
    <rdf:RDF>
      <cc:Work
         rdf:about="">
        <dc:format>image/svg+xml</dc:format>
        <dc:type
           rdf:resource="http://purl.org/dc/dcmitype/StillImage" />
      </cc:Work>
    </rdf:RDF>
  </metadata>
  <sodipodi:namedview
     pagecolor="#ffffff"
     bordercolor="#666666"
     borderopacity="1"
     objecttolerance="10"
     gridtolerance="10"
     guidetolerance="10"
     inkscape:pageopacity="0"
     inkscape:pageshadow="2"
     inkscape:window-width="769"
     inkscape:window-height="480"
     id="namedview9"
     showgrid="false"
     inkscape:zoom="10.727273"
     inkscape:cx="11"
     inkscape:cy="11"
     inkscape:window-x="0"
     inkscape:window-y="0"
     inkscape:window-maximized="0"
     inkscape:current-layer="svg7" />
  <defs
     id="defs3">
    <style
       id="current-color-scheme"
       type="text/css">
   .ColorScheme-Text { color:#d3dae3; } .ColorScheme-Highlight { color:#5294e2; }
  </style>
  </defs>
  <path
     style="color:#d3dae3;fill:currentColor;stroke-width:0.83116883"
     class="ColorScheme-Text"
     d="m 11.972047,2.1818182 c -2.460426,0 -2.9233871,3.3246753 -1.537662,3.3246753 1.383064,0 3.999584,-3.3246753 1.537662,-3.3246753 z M 8.1908937,3.012987 c -0.039065,0 -0.082286,0.00416 -0.1255065,0.00831 C 6.656556,3.1908571 7.1511015,5.4641039 7.9016469,5.5064935 8.6272573,5.5480519 9.4218547,3.0196363 8.1917249,3.012987 Z M 5.622582,3.8441558 C 5.5220106,3.84 5.4098028,3.8532987 5.2859586,3.8848831 3.9677249,4.2181818 5.0856469,5.5945974 5.8237249,5.5015065 6.4936469,5.4175584 6.5908937,3.8832208 5.622582,3.8441558 Z M 3.7848677,5.5064935 C 3.6668418,5.5048312 3.5388418,5.5305974 3.4033612,5.5937662 2.3195171,6.1057662 3.7690755,7.3408831 4.406582,7.1497143 4.9642963,6.9818182 4.608556,5.5256104 3.7848677,5.5064935 Z M 8.8400366,6.3376623 C 6.9000885,6.3069091 4.3417508,7.2228571 3.904556,9.0630648 3.4324521,11.055377 5.8519846,13.818182 8.3737508,13.818182 c 1.2409351,0 2.6723742,-0.557714 2.9400102,-1.894234 0.203636,-1.019013 -2.5693089,-0.580156 -2.4753868,0.09392 0.1122078,0.808728 -0.467948,0.679896 -1.1952208,0.158754 C 5.5070495,10.493507 11.475008,9.6905978 11.070229,7.424 10.944722,6.7183376 10.003839,6.3576104 8.8400366,6.3393247 Z"
     id="path5"
     inkscape:connector-curvature="0" />
</svg>
