<?xml version="1.0" encoding="UTF-8" standalone="no"?>
<svg
   xmlns:dc="http://purl.org/dc/elements/1.1/"
   xmlns:cc="http://creativecommons.org/ns#"
   xmlns:rdf="http://www.w3.org/1999/02/22-rdf-syntax-ns#"
   xmlns:svg="http://www.w3.org/2000/svg"
   xmlns="http://www.w3.org/2000/svg"
   xmlns:sodipodi="http://sodipodi.sourceforge.net/DTD/sodipodi-0.dtd"
   xmlns:inkscape="http://www.inkscape.org/namespaces/inkscape"
   width="22"
   height="22"
   version="1.1"
   viewBox="0 0 16 16"
   id="svg7"
   sodipodi:docname="folder-image-people.svg"
   inkscape:version="0.92.1 r">
  <metadata
     id="metadata11">
    <rdf:RDF>
      <cc:Work
         rdf:about="">
        <dc:format>image/svg+xml</dc:format>
        <dc:type
           rdf:resource="http://purl.org/dc/dcmitype/StillImage" />
      </cc:Work>
    </rdf:RDF>
  </metadata>
  <sodipodi:namedview
     pagecolor="#ffffff"
     bordercolor="#666666"
     borderopacity="1"
     objecttolerance="10"
     gridtolerance="10"
     guidetolerance="10"
     inkscape:pageopacity="0"
     inkscape:pageshadow="2"
     inkscape:window-width="769"
     inkscape:window-height="480"
     id="namedview9"
     showgrid="false"
     inkscape:zoom="10.727273"
     inkscape:cx="11"
     inkscape:cy="11"
     inkscape:window-x="0"
     inkscape:window-y="0"
     inkscape:window-maximized="0"
     inkscape:current-layer="svg7" />
  <defs
     id="defs3">
    <style
       id="current-color-scheme"
       type="text/css">
   .ColorScheme-Text { color:#d3dae3; } .ColorScheme-Highlight { color:#5294e2; }
  </style>
  </defs>
  <path
     style="color:#d3dae3;fill:currentColor;stroke-width:0.83116883"
     class="ColorScheme-Text"
     d="m 5.1283115,5.4665974 c -0.038234,0.00914 -0.076467,0.024104 -0.1122078,0.043221 -0.3574026,0.1886753 -0.4488312,0.777974 -0.2044675,1.3232208 0.196987,0.4388571 0.5460779,0.7098181 0.8635844,0.7015065 0.2385455,1.4570387 1.1885714,2.5433763 2.318961,2.5433763 h 0.00997 c 1.1312207,0 2.0812464,-1.0863376 2.3197924,-2.5433763 0.316679,0.00831 0.666601,-0.2626496 0.863588,-0.7015067 0.244364,-0.5452468 0.152935,-1.1345455 -0.204467,-1.3232208 -0.03657,-0.019117 -0.07397,-0.034078 -0.112208,-0.043221 -0.04571,-1.5933506 -1.3115845,-2.8691948 -2.8708572,-2.8691948 -1.5584415,0 -2.825974,1.2758442 -2.8716883,2.8691948 z M 9.989818,10.077922 c -0.2402078,0.582649 -1.0589091,1.019844 -2.0355325,1.019844 -0.9724675,0 -1.7836883,-0.431377 -2.0280519,-1.00987 -2.0513247,0.214441 -3.5465974,0.73974 -3.7261299,1.360623 -0.00249,0.0058 0.00166,0.0133 0,0.01912 -0.00582,0.02244 -0.00582,0.04239 -0.00831,0.06483 -8.328e-4,0.0108 -0.00998,0.01745 -0.00998,0.02826 v 0.0075 1.537663 c 8.312e-4,0.16372 0.1304935,0.296707 0.2917403,0.296707 H 13.527273 c 0.161246,0 0.290909,-0.132987 0.290909,-0.296727 v -1.537663 -0.01828 c -0.0017,-0.03574 -0.01745,-0.06649 -0.02743,-0.102234 -0.183688,-0.628364 -1.711377,-1.160312 -3.8001038,-1.369766 z"
     id="path5"
     inkscape:connector-curvature="0" />
</svg>
