<?xml version="1.0" encoding="UTF-8" standalone="no"?>
<svg
   xmlns:dc="http://purl.org/dc/elements/1.1/"
   xmlns:cc="http://creativecommons.org/ns#"
   xmlns:rdf="http://www.w3.org/1999/02/22-rdf-syntax-ns#"
   xmlns:svg="http://www.w3.org/2000/svg"
   xmlns="http://www.w3.org/2000/svg"
   xmlns:sodipodi="http://sodipodi.sourceforge.net/DTD/sodipodi-0.dtd"
   xmlns:inkscape="http://www.inkscape.org/namespaces/inkscape"
   width="22"
   height="22"
   viewBox="0 0 16 16"
   version="1.1"
   id="svg7"
   sodipodi:docname="user-trash-full.svg"
   inkscape:version="0.92.1 r">
  <metadata
     id="metadata11">
    <rdf:RDF>
      <cc:Work
         rdf:about="">
        <dc:format>image/svg+xml</dc:format>
        <dc:type
           rdf:resource="http://purl.org/dc/dcmitype/StillImage" />
      </cc:Work>
    </rdf:RDF>
  </metadata>
  <sodipodi:namedview
     pagecolor="#ffffff"
     bordercolor="#666666"
     borderopacity="1"
     objecttolerance="10"
     gridtolerance="10"
     guidetolerance="10"
     inkscape:pageopacity="0"
     inkscape:pageshadow="2"
     inkscape:window-width="769"
     inkscape:window-height="480"
     id="namedview9"
     showgrid="false"
     inkscape:zoom="10.727273"
     inkscape:cx="11"
     inkscape:cy="11"
     inkscape:window-x="0"
     inkscape:window-y="0"
     inkscape:window-maximized="0"
     inkscape:current-layer="svg7" />
  <defs
     id="defs3">
    <style
       id="current-color-scheme"
       type="text/css">
   .ColorScheme-Text { color:#d3dae3; } .ColorScheme-Highlight { color:#5294e2; }
  </style>
  </defs>
  <path
     style="color:#d3dae3;fill:currentColor;stroke-width:0.89494723"
     class="ColorScheme-Text"
     d="m 6.6575969,1.7309995 c -0.8949472,0 -0.8949472,0.8949472 -0.8949472,0.8949472 H 3.077808 c 0,0 -0.8949473,0.00139 -0.8949473,0.8966952 v 0.0035 0.8949472 l 11.6343143,-0.0035 V 3.5226419 c 0,-0.8949472 -0.894947,-0.8966952 -0.894947,-0.8966952 h -2.684842 c 0,0 0,-0.8949472 -0.8949473,-0.8949472 z M 3.077808,5.3160323 c 0,0 -0.9313985,2.9565534 -0.8949473,4.4782322 0.026848,1.2350265 0.8949473,3.5797885 0.8949473,3.5797885 4.47e-5,0.468576 0.4263707,0.894902 0.8949472,0.894947 H 12.02728 c 0.468577,-4.5e-5 0.894903,-0.426371 0.894948,-0.894947 0,0 0.865512,-2.34762 0.894947,-3.5762935 0.0358,-1.5214094 -0.894947,-4.4747353 -0.894947,-4.4747353 z"
     id="path5"
     inkscape:connector-curvature="0" />
</svg>
